<svg width="392" height="819" viewBox="0 0 392 819" fill="none" xmlns="http://www.w3.org/2000/svg">
<g id="Property 1=Light" filter="url(#filter0_dd_48_3680)">
<mask id="path-1-inside-1_48_3680" fill="white">
<path d="M20 20H360V799H20V20Z"/>
</mask>
<path d="M20 20H360V799H20V20Z" fill="#FAFAF7"/>
<path d="M360 20H359V799H360H361V20H360Z" fill="#E2DDD5" mask="url(#path-1-inside-1_48_3680)"/>
<g id="Frame 46">
<g id="Frame 48">
<g id="Frame 49">
<g id="Frame 50">
<g id="&#236;&#131;&#136;&#236;&#177;&#132;&#237;&#140;&#133; &#236;&#149;&#132;&#236;&#157;&#180;&#236;&#189;&#152;">
<path id="Vector" d="M67.8125 49.3335V56.8335" stroke="#4A7C59" stroke-width="2"/>
<path id="Vector_2" d="M64.0625 53.0835H71.5625" stroke="#4A7C59" stroke-width="2"/>
<path id="Subtract" d="M62.1875 55.1426H49.6562V66.1426H50.9062V68.832L53.5957 66.1426H65.6562V59.333H67.6562V66.8926C67.6562 67.5829 67.0966 68.1425 66.4062 68.1426H54.4238L51.04 71.5264C50.2526 72.3139 48.9062 71.7562 48.9062 70.6426V68.1426C48.2159 68.1426 47.6562 67.583 47.6562 66.8926V54.3926C47.6564 53.7024 48.216 53.1426 48.9062 53.1426H62.1875V55.1426Z" fill="#4A7C59"/>
</g>
<path id="&#236;&#131;&#136; &#236;&#177;&#132;&#237;&#140;&#133;" d="M88.1289 54.3848C88.1289 55.0547 88.2314 55.7155 88.4365 56.3672C88.6462 57.0143 88.9469 57.5977 89.3389 58.1172C89.7308 58.6367 90.1888 59.0378 90.7129 59.3203L90.0703 60.168C89.4961 59.8353 88.9993 59.3773 88.5801 58.7939C88.1608 58.2061 87.8395 57.5384 87.6162 56.791C87.3883 57.6022 87.0534 58.3291 86.6113 58.9717C86.1693 59.6143 85.6497 60.1133 85.0527 60.4688L84.3555 59.6758C84.9069 59.3613 85.39 58.9284 85.8047 58.377C86.2194 57.821 86.5361 57.2012 86.7549 56.5176C86.9782 55.834 87.0898 55.1458 87.0898 54.4531V52.1016H88.1289V54.3848ZM94.9102 63.1074H93.8711V56.7363H92.2031V62.4922H91.1641V51.2129H92.2031V55.8477H93.8711V50.9531H94.9102V63.1074ZM103.66 54.6855C103.66 55.3372 103.767 55.9775 103.981 56.6064C104.196 57.2354 104.503 57.805 104.904 58.3154C105.31 58.8213 105.784 59.2201 106.326 59.5117L105.697 60.3184C105.105 59.9948 104.592 59.5391 104.159 58.9512C103.726 58.3633 103.396 57.6956 103.168 56.9482C102.945 57.7458 102.617 58.4613 102.184 59.0947C101.751 59.7282 101.24 60.2181 100.652 60.5645L100.01 59.7715C100.543 59.4616 101.008 59.0378 101.404 58.5C101.801 57.9577 102.106 57.3561 102.32 56.6953C102.535 56.0299 102.644 55.36 102.648 54.6855V54.125H100.297V53.2363H102.648V51.4043H103.674V53.2363H105.998V54.125H103.66V54.6855ZM110.551 63.1074H109.512V56.791H107.857V62.4922H106.832V51.2129H107.857V55.875H109.512V50.9531H110.551V63.1074ZM118.74 52.7305H113.996V54.2617H118.398V55.1367H113.996V56.7363C115.377 56.7363 116.475 56.7158 117.291 56.6748C118.107 56.6292 118.923 56.5404 119.738 56.4082L119.848 57.2832C118.995 57.4199 118.146 57.5111 117.298 57.5566C116.45 57.6022 115.318 57.625 113.9 57.625H112.916V51.8555H118.74V52.7305ZM122.24 58.5H121.174V50.9668H122.24V58.5ZM118.207 58.6777C119.046 58.6732 119.772 58.7575 120.388 58.9307C121.003 59.0993 121.475 59.3499 121.803 59.6826C122.131 60.0107 122.295 60.4049 122.295 60.8652C122.295 61.3346 122.131 61.7334 121.803 62.0615C121.475 62.3942 121.003 62.6471 120.388 62.8203C119.777 62.9935 119.05 63.0801 118.207 63.0801C117.346 63.0801 116.607 62.9935 115.992 62.8203C115.377 62.6517 114.905 62.401 114.577 62.0684C114.254 61.7357 114.092 61.3346 114.092 60.8652C114.092 60.4049 114.254 60.0107 114.577 59.6826C114.905 59.3499 115.377 59.0993 115.992 58.9307C116.612 58.7575 117.35 58.6732 118.207 58.6777ZM118.207 59.5254C117.574 59.5254 117.027 59.5801 116.566 59.6895C116.111 59.7943 115.762 59.9469 115.521 60.1475C115.279 60.348 115.158 60.5872 115.158 60.8652C115.158 61.1523 115.279 61.3984 115.521 61.6035C115.762 61.8086 116.111 61.9635 116.566 62.0684C117.027 62.1777 117.574 62.2324 118.207 62.2324C118.827 62.2324 119.365 62.1777 119.82 62.0684C120.276 61.959 120.627 61.8018 120.873 61.5967C121.119 61.3916 121.242 61.1478 121.242 60.8652C121.242 60.5918 121.119 60.3548 120.873 60.1543C120.627 59.9492 120.274 59.7943 119.813 59.6895C119.358 59.5801 118.822 59.5254 118.207 59.5254Z" fill="#4A7C59"/>
</g>
<g id="Group 30">
<g id="Frame 51">
<path id="&#236;&#177;&#132;&#237;&#140;&#133;" d="M48.0469 110.686C48.0469 111.337 48.154 111.978 48.3682 112.606C48.5824 113.235 48.89 113.805 49.291 114.315C49.6966 114.821 50.1706 115.22 50.7129 115.512L50.084 116.318C49.4915 115.995 48.9788 115.539 48.5459 114.951C48.113 114.363 47.7826 113.696 47.5547 112.948C47.3314 113.746 47.0033 114.461 46.5703 115.095C46.1374 115.728 45.627 116.218 45.0391 116.564L44.3965 115.771C44.9297 115.462 45.3945 115.038 45.791 114.5C46.1875 113.958 46.4928 113.356 46.707 112.695C46.9212 112.03 47.0306 111.36 47.0352 110.686V110.125H44.6836V109.236H47.0352V107.404H48.0605V109.236H50.3848V110.125H48.0469V110.686ZM54.9375 119.107H53.8984V112.791H52.2441V118.492H51.2188V107.213H52.2441V111.875H53.8984V106.953H54.9375V119.107ZM63.127 108.73H58.3828V110.262H62.7852V111.137H58.3828V112.736C59.7637 112.736 60.862 112.716 61.6777 112.675C62.4935 112.629 63.3092 112.54 64.125 112.408L64.2344 113.283C63.3822 113.42 62.5322 113.511 61.6846 113.557C60.8369 113.602 59.7044 113.625 58.2871 113.625H57.3027V107.855H63.127V108.73ZM66.627 114.5H65.5605V106.967H66.627V114.5ZM62.5938 114.678C63.4323 114.673 64.1592 114.757 64.7744 114.931C65.3896 115.099 65.8613 115.35 66.1895 115.683C66.5176 116.011 66.6816 116.405 66.6816 116.865C66.6816 117.335 66.5176 117.733 66.1895 118.062C65.8613 118.394 65.3896 118.647 64.7744 118.82C64.1637 118.993 63.4368 119.08 62.5938 119.08C61.7324 119.08 60.9941 118.993 60.3789 118.82C59.7637 118.652 59.292 118.401 58.9639 118.068C58.6403 117.736 58.4785 117.335 58.4785 116.865C58.4785 116.405 58.6403 116.011 58.9639 115.683C59.292 115.35 59.7637 115.099 60.3789 114.931C60.9987 114.757 61.737 114.673 62.5938 114.678ZM62.5938 115.525C61.9603 115.525 61.4134 115.58 60.9531 115.689C60.4974 115.794 60.1488 115.947 59.9072 116.147C59.6657 116.348 59.5449 116.587 59.5449 116.865C59.5449 117.152 59.6657 117.398 59.9072 117.604C60.1488 117.809 60.4974 117.964 60.9531 118.068C61.4134 118.178 61.9603 118.232 62.5938 118.232C63.2135 118.232 63.7513 118.178 64.207 118.068C64.6628 117.959 65.0137 117.802 65.2598 117.597C65.5059 117.392 65.6289 117.148 65.6289 116.865C65.6289 116.592 65.5059 116.355 65.2598 116.154C65.0137 115.949 64.6605 115.794 64.2002 115.689C63.7445 115.58 63.209 115.525 62.5938 115.525Z" fill="#4A4A4A"/>
</g>
<g id="Frame 30">
<g id="Frame 52">
<g id="Frame 30_2" filter="url(#filter1_dd_48_3680)">
<path d="M59 161C59 152.163 66.1634 145 75 145H320C328.837 145 336 152.163 336 161V166C336 174.837 328.837 182 320 182H75C66.1634 182 59 174.837 59 166V161Z" fill="#C8DEC9"/>
<path id="&#236;&#160;&#156;&#236;&#163;&#188;&#235;&#143;&#132; 3&#236;&#157;&#188; &#236;&#151;&#172;&#237;&#150;&#137;" d="M83.8828 169.607H82.8574V157.453H83.8828V169.607ZM81.4219 168.979H80.4102V162.717H78.3594V161.842H80.4102V157.754H81.4219V168.979ZM77.0605 160.926C77.0605 161.632 77.1631 162.323 77.3682 162.997C77.5732 163.667 77.874 164.273 78.2705 164.815C78.667 165.353 79.1387 165.779 79.6855 166.094L79.0293 166.887C78.4414 166.536 77.9378 166.05 77.5186 165.431C77.0993 164.806 76.7803 164.1 76.5615 163.312C76.3382 164.164 76.0078 164.927 75.5703 165.602C75.1374 166.276 74.6224 166.8 74.0254 167.174L73.3418 166.367C73.8932 166.039 74.3717 165.59 74.7773 165.021C75.1829 164.451 75.4906 163.813 75.7002 163.106C75.9144 162.396 76.0215 161.669 76.0215 160.926V159.777H73.6836V158.889H79.2891V159.777H77.0605V160.926ZM91.7305 159.176C91.7259 159.695 91.9287 160.192 92.3389 160.666C92.749 161.135 93.2845 161.532 93.9453 161.855C94.6061 162.179 95.2943 162.393 96.0098 162.498L95.6133 163.346C94.9707 163.236 94.3509 163.054 93.7539 162.799C93.1615 162.544 92.6351 162.225 92.1748 161.842C91.7145 161.454 91.3659 161.024 91.1289 160.55C90.8919 161.024 90.5433 161.452 90.083 161.835C89.6227 162.218 89.0964 162.539 88.5039 162.799C87.916 163.054 87.3053 163.236 86.6719 163.346L86.248 162.498C86.959 162.393 87.6449 162.179 88.3057 161.855C88.9665 161.532 89.502 161.135 89.9121 160.666C90.3223 160.192 90.5273 159.695 90.5273 159.176V159.094H86.6309V158.219H95.6133V159.094H91.7305V159.176ZM96.666 165.273H91.6348V169.607H90.582V165.273H85.5918V164.385H96.666V165.273ZM107.508 164.029H103.748V167.174H108.82V168.076H97.6914V167.174H102.695V164.029H99.1133V158.451H107.385V159.326H100.193V163.154H107.508V164.029ZM117.16 168.637C116.508 168.637 115.925 168.527 115.41 168.309C114.9 168.09 114.494 167.782 114.193 167.386C113.897 166.989 113.738 166.531 113.715 166.012H114.959C114.982 166.317 115.091 166.586 115.287 166.818C115.488 167.051 115.75 167.231 116.073 167.358C116.397 167.481 116.755 167.543 117.146 167.543C117.575 167.543 117.96 167.47 118.302 167.324C118.648 167.174 118.917 166.969 119.108 166.709C119.304 166.445 119.402 166.144 119.402 165.807C119.402 165.442 119.307 165.121 119.115 164.843C118.928 164.565 118.655 164.348 118.295 164.193C117.935 164.038 117.502 163.961 116.996 163.961H116.189V162.881H116.996C117.393 162.881 117.746 162.81 118.056 162.669C118.366 162.528 118.605 162.329 118.773 162.074C118.947 161.819 119.033 161.523 119.033 161.186C119.033 160.862 118.956 160.575 118.801 160.324C118.65 160.074 118.436 159.88 118.158 159.743C117.88 159.602 117.557 159.531 117.188 159.531C116.832 159.531 116.499 159.595 116.189 159.723C115.88 159.85 115.627 160.033 115.431 160.27C115.235 160.502 115.128 160.775 115.109 161.09H113.92C113.943 160.579 114.102 160.126 114.398 159.729C114.695 159.328 115.089 159.019 115.581 158.8C116.073 158.576 116.613 158.465 117.201 158.465C117.812 158.465 118.345 158.586 118.801 158.827C119.261 159.064 119.614 159.385 119.86 159.791C120.106 160.197 120.227 160.639 120.223 161.117C120.227 161.673 120.079 162.149 119.778 162.546C119.478 162.942 119.065 163.214 118.541 163.359V163.428C118.965 163.496 119.332 163.64 119.642 163.858C119.956 164.073 120.195 164.348 120.359 164.686C120.528 165.018 120.61 165.392 120.605 165.807C120.61 166.34 120.462 166.823 120.161 167.256C119.86 167.684 119.446 168.021 118.917 168.268C118.393 168.514 117.807 168.637 117.16 168.637ZM125.391 157.904C125.992 157.909 126.53 158.025 127.004 158.253C127.482 158.481 127.856 158.8 128.125 159.21C128.398 159.616 128.535 160.078 128.535 160.598C128.535 161.117 128.398 161.582 128.125 161.992C127.856 162.398 127.482 162.715 127.004 162.942C126.53 163.166 125.992 163.277 125.391 163.277C124.78 163.277 124.235 163.166 123.757 162.942C123.278 162.715 122.905 162.398 122.636 161.992C122.367 161.582 122.232 161.117 122.232 160.598C122.232 160.078 122.367 159.616 122.636 159.21C122.905 158.8 123.278 158.481 123.757 158.253C124.235 158.025 124.78 157.909 125.391 157.904ZM125.391 158.807C124.99 158.807 124.627 158.884 124.304 159.039C123.985 159.189 123.734 159.401 123.552 159.675C123.369 159.944 123.281 160.251 123.285 160.598C123.281 160.949 123.369 161.261 123.552 161.534C123.734 161.808 123.985 162.022 124.304 162.177C124.627 162.327 124.99 162.402 125.391 162.402C125.787 162.402 126.145 162.327 126.464 162.177C126.787 162.022 127.04 161.808 127.223 161.534C127.405 161.261 127.496 160.949 127.496 160.598C127.496 160.251 127.405 159.944 127.223 159.675C127.04 159.401 126.787 159.189 126.464 159.039C126.145 158.884 125.787 158.807 125.391 158.807ZM131.98 163.701H130.914V157.453H131.98V163.701ZM131.98 167.215H125.158V168.582H132.418V169.443H124.105V166.408H130.914V165.15H124.078V164.289H131.98V167.215ZM140.826 158.396C141.382 158.401 141.879 158.558 142.316 158.868C142.754 159.174 143.105 159.609 143.369 160.174H146.568V157.453H147.635V169.635H146.568V164.918H143.444C143.189 165.538 142.834 166.016 142.378 166.354C141.927 166.691 141.41 166.859 140.826 166.859C140.234 166.859 139.705 166.686 139.24 166.34C138.78 165.993 138.42 165.501 138.16 164.863C137.905 164.225 137.777 163.482 137.777 162.635C137.777 161.787 137.905 161.044 138.16 160.406C138.42 159.768 138.78 159.276 139.24 158.93C139.701 158.579 140.229 158.401 140.826 158.396ZM140.826 159.354C140.43 159.358 140.076 159.497 139.767 159.771C139.461 160.039 139.224 160.422 139.056 160.919C138.887 161.411 138.803 161.983 138.803 162.635C138.803 163.286 138.887 163.861 139.056 164.357C139.224 164.85 139.461 165.23 139.767 165.499C140.076 165.768 140.43 165.902 140.826 165.902C141.218 165.902 141.567 165.768 141.872 165.499C142.182 165.23 142.421 164.85 142.59 164.357C142.763 163.861 142.85 163.286 142.85 162.635C142.85 161.983 142.763 161.411 142.59 160.919C142.421 160.422 142.184 160.039 141.879 159.771C141.574 159.497 141.223 159.358 140.826 159.354ZM143.684 161.076C143.802 161.587 143.861 162.106 143.861 162.635C143.861 163.109 143.813 163.574 143.718 164.029H146.568V161.076H143.684ZM159.98 165.15H158.955V161.664H157.328V164.713H156.316V157.699H157.328V160.775H158.955V157.453H159.98V165.15ZM155.824 159.777H149.59V158.916H152.188V157.549H153.254V158.916H155.824V159.777ZM152.721 160.434C153.231 160.434 153.682 160.52 154.074 160.693C154.471 160.862 154.778 161.104 154.997 161.418C155.216 161.728 155.327 162.092 155.332 162.512C155.327 162.922 155.216 163.284 154.997 163.599C154.778 163.909 154.471 164.15 154.074 164.323C153.682 164.492 153.231 164.576 152.721 164.576C152.215 164.576 151.764 164.492 151.367 164.323C150.971 164.15 150.663 163.909 150.444 163.599C150.226 163.284 150.118 162.922 150.123 162.512C150.118 162.097 150.226 161.732 150.444 161.418C150.663 161.104 150.968 160.862 151.36 160.693C151.757 160.52 152.21 160.434 152.721 160.434ZM152.721 161.227C152.402 161.227 152.117 161.281 151.866 161.391C151.62 161.495 151.426 161.646 151.285 161.842C151.148 162.038 151.08 162.261 151.08 162.512C151.08 162.758 151.148 162.977 151.285 163.168C151.426 163.359 151.62 163.507 151.866 163.612C152.117 163.717 152.402 163.77 152.721 163.77C153.04 163.77 153.322 163.717 153.568 163.612C153.819 163.507 154.013 163.359 154.149 163.168C154.291 162.977 154.361 162.758 154.361 162.512C154.361 162.261 154.291 162.038 154.149 161.842C154.013 161.646 153.819 161.495 153.568 161.391C153.322 161.281 153.04 161.227 152.721 161.227ZM155.961 165.355C156.813 165.355 157.545 165.44 158.155 165.608C158.766 165.772 159.233 166.014 159.557 166.333C159.885 166.652 160.049 167.037 160.049 167.488C160.049 167.926 159.885 168.302 159.557 168.616C159.233 168.931 158.764 169.17 158.148 169.334C157.538 169.498 156.809 169.58 155.961 169.58C155.113 169.58 154.382 169.498 153.767 169.334C153.156 169.17 152.689 168.931 152.365 168.616C152.042 168.302 151.882 167.926 151.887 167.488C151.882 167.037 152.042 166.652 152.365 166.333C152.689 166.014 153.156 165.772 153.767 165.608C154.377 165.44 155.109 165.355 155.961 165.355ZM155.961 166.203C155.332 166.199 154.792 166.246 154.341 166.347C153.89 166.442 153.543 166.588 153.302 166.784C153.065 166.98 152.949 167.215 152.953 167.488C152.949 167.753 153.065 167.978 153.302 168.165C153.543 168.352 153.89 168.495 154.341 168.596C154.797 168.696 155.337 168.746 155.961 168.746C156.585 168.746 157.123 168.696 157.574 168.596C158.025 168.495 158.372 168.352 158.613 168.165C158.855 167.978 158.978 167.753 158.982 167.488C158.978 167.074 158.709 166.755 158.176 166.531C157.647 166.303 156.909 166.194 155.961 166.203Z" fill="#1A1A1A"/>
<g id="Button">
<g id="Icon">
<path id="Vector_3" d="M314.994 164.333C315.454 164.333 315.827 163.96 315.827 163.5C315.827 163.04 315.454 162.667 314.994 162.667C314.534 162.667 314.161 163.04 314.161 163.5C314.161 163.96 314.534 164.333 314.994 164.333Z" stroke="#3B6347" stroke-width="1.66654" stroke-linecap="round" stroke-linejoin="round"/>
<path id="Vector_4" d="M314.994 158.5C315.454 158.5 315.827 158.127 315.827 157.667C315.827 157.207 315.454 156.833 314.994 156.833C314.534 156.833 314.161 157.207 314.161 157.667C314.161 158.127 314.534 158.5 314.994 158.5Z" stroke="#3B6347" stroke-width="1.66654" stroke-linecap="round" stroke-linejoin="round"/>
<path id="Vector_5" d="M314.994 170.166C315.454 170.166 315.827 169.793 315.827 169.333C315.827 168.873 315.454 168.5 314.994 168.5C314.534 168.5 314.161 168.873 314.161 169.333C314.161 169.793 314.534 170.166 314.994 170.166Z" stroke="#3B6347" stroke-width="1.66654" stroke-linecap="round" stroke-linejoin="round"/>
</g>
</g>
</g>
</g>
<g id="Frame 53">
<g id="Frame 30_3">
<path id="&#236;&#132;&#156;&#236;&#154;&#184; &#235;&#167;&#155;&#236;&#167;&#145; &#236;&#182;&#148;&#236;&#178;&#156;" d="M77.7715 209.721C77.7715 210.441 77.9128 211.152 78.1953 211.854C78.4779 212.555 78.8607 213.18 79.3438 213.727C79.8268 214.269 80.36 214.674 80.9434 214.943L80.3008 215.818C79.6126 215.463 78.9974 214.941 78.4551 214.253C77.9128 213.565 77.5072 212.788 77.2383 211.922C76.9648 212.838 76.557 213.66 76.0146 214.39C75.4769 215.119 74.8639 215.668 74.1758 216.037L73.4785 215.176C74.0664 214.889 74.6042 214.458 75.0918 213.884C75.5794 213.305 75.9645 212.651 76.2471 211.922C76.5342 211.188 76.6777 210.454 76.6777 209.721V207.506H77.7715V209.721ZM83.5684 218.635H82.502V211.484H79.6172V210.609H82.502V206.453H83.5684V218.635ZM91.1289 206.604C92.0312 206.604 92.8037 206.686 93.4463 206.85C94.0889 207.014 94.5788 207.253 94.916 207.567C95.2533 207.882 95.4219 208.262 95.4219 208.709C95.4219 209.16 95.2533 209.543 94.916 209.857C94.5788 210.172 94.0889 210.411 93.4463 210.575C92.8037 210.739 92.0312 210.824 91.1289 210.828C90.2266 210.824 89.4518 210.739 88.8047 210.575C88.1621 210.411 87.6699 210.172 87.3281 209.857C86.9909 209.543 86.8223 209.16 86.8223 208.709C86.8223 208.262 86.9909 207.882 87.3281 207.567C87.6699 207.253 88.1621 207.014 88.8047 206.85C89.4518 206.686 90.2266 206.604 91.1289 206.604ZM91.1289 207.424C90.1126 207.433 89.3265 207.549 88.7705 207.772C88.2145 207.996 87.9388 208.308 87.9434 208.709C87.9388 209.124 88.2122 209.443 88.7637 209.666C89.3197 209.885 90.1081 209.999 91.1289 210.008C92.1452 209.999 92.9313 209.885 93.4873 209.666C94.0479 209.443 94.3281 209.124 94.3281 208.709C94.3281 208.308 94.0456 207.996 93.4805 207.772C92.9199 207.549 92.1361 207.433 91.1289 207.424ZM96.666 212.496H91.6484V213.645H95.2441V216.365H88.0254V217.623H95.6133V218.471H86.959V215.572H94.1914V214.465H86.9316V213.645H90.582V212.496H85.5918V211.635H96.666V212.496ZM107.221 212.783H101.725V207.383H107.221V212.783ZM102.777 211.908H106.154V208.271H102.777V211.908ZM110.707 209.789H112.539V210.691H110.707V214.547H109.641V206.453H110.707V209.789ZM107.549 214.314C107.544 214.875 107.731 215.392 108.109 215.866C108.488 216.336 108.991 216.73 109.62 217.049C110.249 217.363 110.93 217.582 111.664 217.705L111.227 218.553C110.292 218.384 109.447 218.067 108.69 217.603C107.934 217.142 107.38 216.575 107.029 215.9C106.674 216.575 106.116 217.142 105.354 217.603C104.593 218.067 103.743 218.384 102.805 218.553L102.381 217.705C103.11 217.582 103.787 217.363 104.411 217.049C105.04 216.73 105.541 216.336 105.915 215.866C106.293 215.392 106.482 214.875 106.482 214.314V213.945H107.549V214.314ZM117.68 208.463C117.68 208.982 117.814 209.479 118.083 209.953C118.352 210.427 118.723 210.842 119.197 211.197C119.671 211.553 120.209 211.822 120.811 212.004L120.264 212.852C119.553 212.624 118.924 212.277 118.377 211.812C117.835 211.343 117.424 210.796 117.146 210.172C116.882 210.837 116.477 211.423 115.93 211.929C115.383 212.43 114.745 212.806 114.016 213.057L113.455 212.209C114.061 212.018 114.601 211.733 115.075 211.354C115.554 210.976 115.927 210.536 116.196 210.035C116.465 209.534 116.6 209.01 116.6 208.463V208.148H113.756V207.273H120.482V208.148H117.68V208.463ZM123.34 213.029H122.273V206.453H123.34V213.029ZM116.531 215.107H122.273V213.631H123.34V218.443H115.465V213.631H116.531V215.107ZM122.273 217.568V215.969H116.531V217.568H122.273ZM139.992 214.711H134.975V218.635H133.922V214.711H128.918V213.809H139.992V214.711ZM134.988 208.859C134.988 209.347 135.191 209.814 135.597 210.261C136.002 210.703 136.535 211.079 137.196 211.389C137.857 211.699 138.552 211.904 139.281 212.004L138.885 212.865C138.256 212.77 137.65 212.603 137.066 212.366C136.488 212.129 135.97 211.835 135.515 211.484C135.063 211.133 134.713 210.742 134.462 210.309C134.211 210.746 133.856 211.14 133.396 211.491C132.94 211.842 132.42 212.136 131.837 212.373C131.254 212.605 130.645 212.77 130.012 212.865L129.615 212.004C130.344 211.904 131.039 211.701 131.7 211.396C132.361 211.086 132.896 210.71 133.307 210.268C133.717 209.821 133.922 209.352 133.922 208.859V208.846H129.998V207.971H133.922V206.453H134.975V207.971H138.926V208.846H134.988V208.859ZM145.16 209.365C145.16 209.894 145.29 210.4 145.55 210.883C145.814 211.361 146.179 211.781 146.644 212.141C147.113 212.501 147.648 212.774 148.25 212.961L147.717 213.822C147.01 213.594 146.391 213.248 145.857 212.783C145.329 212.318 144.928 211.776 144.654 211.156C144.39 211.822 143.991 212.405 143.458 212.906C142.929 213.403 142.307 213.777 141.592 214.027L141.059 213.193C141.651 212.993 142.177 212.701 142.638 212.318C143.103 211.931 143.463 211.482 143.718 210.972C143.978 210.461 144.107 209.926 144.107 209.365V208.969H141.359V208.094H144.107V206.535H145.188V208.094H147.908V208.969H145.16V209.365ZM151.094 215.545H150.014V211.102H147.484V210.213H150.014V206.467H151.094V215.545ZM151.436 218.348H143.287V214.725H144.367V217.445H151.436V218.348Z" fill="#4A4A4A"/>
</g>
</g>
<g id="Frame 30_4">
<path id="&#236;&#152;&#164;&#236;&#130;&#172;&#236;&#185;&#180; &#236;&#151;&#172;&#237;&#150;&#137; &#234;&#179;&#132;&#237;&#154;&#141;" d="M79.0293 252.246C79.8861 252.251 80.6517 252.385 81.3262 252.649C82.0007 252.914 82.527 253.287 82.9053 253.771C83.2835 254.249 83.4727 254.803 83.4727 255.432C83.4727 256.024 83.3063 256.55 82.9736 257.011C82.6455 257.471 82.1852 257.838 81.5928 258.111C81.0003 258.385 80.319 258.547 79.5488 258.597V261.146H84.6211V262.049H73.4922V261.146H78.4961V258.597C77.7305 258.547 77.0514 258.385 76.459 258.111C75.8665 257.833 75.4062 257.466 75.0781 257.011C74.75 256.55 74.5859 256.024 74.5859 255.432C74.5859 254.803 74.7751 254.249 75.1533 253.771C75.5316 253.287 76.0579 252.914 76.7324 252.649C77.4069 252.385 78.1725 252.251 79.0293 252.246ZM79.0293 253.135C78.3776 253.135 77.792 253.233 77.2725 253.429C76.7575 253.62 76.3542 253.891 76.0625 254.242C75.7708 254.589 75.625 254.985 75.625 255.432C75.625 255.892 75.7708 256.298 76.0625 256.648C76.3542 256.999 76.7575 257.271 77.2725 257.462C77.7874 257.653 78.373 257.751 79.0293 257.756C79.6855 257.751 80.2712 257.653 80.7861 257.462C81.3011 257.271 81.7044 256.999 81.9961 256.648C82.2878 256.298 82.4336 255.892 82.4336 255.432C82.4336 254.985 82.2878 254.589 81.9961 254.242C81.7044 253.891 81.2988 253.62 80.7793 253.429C80.2643 253.233 79.681 253.135 79.0293 253.135ZM89.666 254.721C89.666 255.418 89.8073 256.115 90.0898 256.812C90.3724 257.505 90.7529 258.125 91.2314 258.672C91.7145 259.219 92.2409 259.633 92.8105 259.916L92.1543 260.777C91.4844 260.426 90.8828 259.911 90.3496 259.232C89.821 258.553 89.4222 257.792 89.1533 256.949C88.8844 257.847 88.4788 258.658 87.9365 259.383C87.3942 260.103 86.7812 260.645 86.0977 261.01L85.4141 260.148C86.002 259.861 86.5374 259.431 87.0205 258.856C87.5081 258.278 87.8932 257.626 88.1758 256.901C88.4629 256.172 88.6087 255.445 88.6133 254.721V252.506H89.666V254.721ZM94.998 256.389H97.0352V257.318H94.998V263.607H93.9316V251.453H94.998V256.389ZM103.994 252.725C103.99 253.987 103.819 255.151 103.481 256.218C103.144 257.28 102.565 258.271 101.745 259.191C100.925 260.107 99.8151 260.91 98.416 261.598L97.8145 260.777C98.931 260.24 99.8493 259.624 100.569 258.932C101.289 258.234 101.839 257.464 102.217 256.621L98.0469 257.018L97.8691 256.074L102.545 255.76C102.75 255.094 102.878 254.379 102.928 253.613H98.4844V252.725H103.994ZM107.098 256.402H109.066V257.305H107.098V263.607H106.031V251.453H107.098V256.402ZM116.572 252.396C117.128 252.401 117.625 252.558 118.062 252.868C118.5 253.174 118.851 253.609 119.115 254.174H122.314V251.453H123.381V263.635H122.314V258.918H119.19C118.935 259.538 118.58 260.016 118.124 260.354C117.673 260.691 117.156 260.859 116.572 260.859C115.98 260.859 115.451 260.686 114.986 260.34C114.526 259.993 114.166 259.501 113.906 258.863C113.651 258.225 113.523 257.482 113.523 256.635C113.523 255.787 113.651 255.044 113.906 254.406C114.166 253.768 114.526 253.276 114.986 252.93C115.447 252.579 115.975 252.401 116.572 252.396ZM116.572 253.354C116.176 253.358 115.823 253.497 115.513 253.771C115.207 254.039 114.97 254.422 114.802 254.919C114.633 255.411 114.549 255.983 114.549 256.635C114.549 257.286 114.633 257.861 114.802 258.357C114.97 258.85 115.207 259.23 115.513 259.499C115.823 259.768 116.176 259.902 116.572 259.902C116.964 259.902 117.313 259.768 117.618 259.499C117.928 259.23 118.167 258.85 118.336 258.357C118.509 257.861 118.596 257.286 118.596 256.635C118.596 255.983 118.509 255.411 118.336 254.919C118.167 254.422 117.93 254.039 117.625 253.771C117.32 253.497 116.969 253.358 116.572 253.354ZM119.43 255.076C119.548 255.587 119.607 256.106 119.607 256.635C119.607 257.109 119.56 257.574 119.464 258.029H122.314V255.076H119.43ZM135.727 259.15H134.701V255.664H133.074V258.713H132.062V251.699H133.074V254.775H134.701V251.453H135.727V259.15ZM131.57 253.777H125.336V252.916H127.934V251.549H129V252.916H131.57V253.777ZM128.467 254.434C128.977 254.434 129.428 254.52 129.82 254.693C130.217 254.862 130.524 255.104 130.743 255.418C130.962 255.728 131.074 256.092 131.078 256.512C131.074 256.922 130.962 257.284 130.743 257.599C130.524 257.909 130.217 258.15 129.82 258.323C129.428 258.492 128.977 258.576 128.467 258.576C127.961 258.576 127.51 258.492 127.113 258.323C126.717 258.15 126.409 257.909 126.19 257.599C125.972 257.284 125.865 256.922 125.869 256.512C125.865 256.097 125.972 255.732 126.19 255.418C126.409 255.104 126.715 254.862 127.106 254.693C127.503 254.52 127.956 254.434 128.467 254.434ZM128.467 255.227C128.148 255.227 127.863 255.281 127.612 255.391C127.366 255.495 127.173 255.646 127.031 255.842C126.895 256.038 126.826 256.261 126.826 256.512C126.826 256.758 126.895 256.977 127.031 257.168C127.173 257.359 127.366 257.507 127.612 257.612C127.863 257.717 128.148 257.77 128.467 257.77C128.786 257.77 129.068 257.717 129.314 257.612C129.565 257.507 129.759 257.359 129.896 257.168C130.037 256.977 130.107 256.758 130.107 256.512C130.107 256.261 130.037 256.038 129.896 255.842C129.759 255.646 129.565 255.495 129.314 255.391C129.068 255.281 128.786 255.227 128.467 255.227ZM131.707 259.355C132.559 259.355 133.291 259.44 133.901 259.608C134.512 259.772 134.979 260.014 135.303 260.333C135.631 260.652 135.795 261.037 135.795 261.488C135.795 261.926 135.631 262.302 135.303 262.616C134.979 262.931 134.51 263.17 133.895 263.334C133.284 263.498 132.555 263.58 131.707 263.58C130.859 263.58 130.128 263.498 129.513 263.334C128.902 263.17 128.435 262.931 128.111 262.616C127.788 262.302 127.628 261.926 127.633 261.488C127.628 261.037 127.788 260.652 128.111 260.333C128.435 260.014 128.902 259.772 129.513 259.608C130.123 259.44 130.855 259.355 131.707 259.355ZM131.707 260.203C131.078 260.199 130.538 260.246 130.087 260.347C129.636 260.442 129.289 260.588 129.048 260.784C128.811 260.98 128.695 261.215 128.699 261.488C128.695 261.753 128.811 261.978 129.048 262.165C129.289 262.352 129.636 262.495 130.087 262.596C130.543 262.696 131.083 262.746 131.707 262.746C132.331 262.746 132.869 262.696 133.32 262.596C133.771 262.495 134.118 262.352 134.359 262.165C134.601 261.978 134.724 261.753 134.729 261.488C134.724 261.074 134.455 260.755 133.922 260.531C133.393 260.303 132.655 260.194 131.707 260.203ZM151.422 263.607H150.396V251.453H151.422V263.607ZM148.961 262.992H147.936V258.781H145.68V257.893H147.936V255.732H145.878C145.577 256.794 145.078 257.767 144.381 258.651C143.684 259.535 142.777 260.312 141.66 260.982L141.004 260.203C142.303 259.438 143.296 258.521 143.984 257.455C144.677 256.384 145.078 255.199 145.188 253.9H141.551V253.012H146.254C146.254 253.636 146.199 254.247 146.09 254.844H147.936V251.781H148.961V262.992ZM160.76 253.395H153.582V252.574H156.631V251.385H157.697V252.574H160.76V253.395ZM157.178 253.859C157.752 253.859 158.258 253.935 158.695 254.085C159.137 254.231 159.479 254.44 159.721 254.714C159.962 254.987 160.085 255.309 160.09 255.678C160.085 256.006 159.985 256.295 159.789 256.546C159.593 256.797 159.315 256.999 158.955 257.154C158.595 257.309 158.176 257.407 157.697 257.448V258.255C158.978 258.191 160.094 258.093 161.047 257.961L161.129 258.727C159.944 258.923 158.709 259.052 157.424 259.116C156.143 259.175 154.781 259.205 153.336 259.205L153.172 258.344C154.516 258.344 155.669 258.328 156.631 258.296V257.448C155.897 257.384 155.321 257.198 154.901 256.888C154.482 256.573 154.275 256.17 154.279 255.678C154.275 255.309 154.391 254.987 154.628 254.714C154.865 254.44 155.202 254.231 155.64 254.085C156.082 253.935 156.594 253.859 157.178 253.859ZM157.178 254.625C156.804 254.62 156.474 254.661 156.187 254.748C155.904 254.83 155.683 254.953 155.523 255.117C155.368 255.277 155.291 255.464 155.291 255.678C155.291 255.887 155.368 256.07 155.523 256.225C155.683 256.38 155.904 256.5 156.187 256.587C156.474 256.669 156.804 256.708 157.178 256.703C157.547 256.708 157.873 256.669 158.155 256.587C158.442 256.5 158.663 256.38 158.818 256.225C158.973 256.07 159.051 255.887 159.051 255.678C159.051 255.464 158.973 255.277 158.818 255.117C158.663 254.953 158.442 254.83 158.155 254.748C157.873 254.661 157.547 254.62 157.178 254.625ZM163.139 259.588H162.059V251.494H163.139V259.588ZM163.139 263.607H162.059V261.023H154.936V260.162H163.139V263.607Z" fill="#4A4A4A"/>
</g>
<g id="Frame 54">
<path id="&#237;&#148;&#132;&#235;&#158;&#145;&#236;&#138;&#164; &#236;&#151;&#172;&#237;&#150;&#137; &#234;&#179;&#132;&#237;&#154;&#141;" d="M84.6211 303.049H73.4922V302.133H84.6211V303.049ZM83.5547 294.572H81.627V298.824H83.5273V299.699H74.5039V298.824H76.4043V294.572H74.4766V293.684H83.5547V294.572ZM80.5742 298.824V294.572H77.4707V298.824H80.5742ZM95.0938 295.516H96.9395V296.418H95.0938V299.809H94.0273V292.467H95.0938V295.516ZM91.6211 296.5H87.1914V298.195C88.3398 298.195 89.3379 298.168 90.1855 298.113C91.0332 298.059 91.9082 297.954 92.8105 297.799L92.9199 298.701C91.9948 298.856 91.0947 298.961 90.2197 299.016C89.3447 299.07 88.2988 299.098 87.082 299.098H86.1387V295.652H90.5684V294.107H86.1113V293.219H91.6211V296.5ZM91.1973 300.178C92.0176 300.178 92.7285 300.267 93.3301 300.444C93.9316 300.618 94.3942 300.87 94.7178 301.203C95.0413 301.536 95.2031 301.932 95.2031 302.393C95.2031 302.853 95.0413 303.247 94.7178 303.575C94.3988 303.903 93.9385 304.152 93.3369 304.32C92.7354 304.493 92.0221 304.58 91.1973 304.58C90.3587 304.58 89.6364 304.493 89.0303 304.32C88.4287 304.152 87.9661 303.903 87.6426 303.575C87.3236 303.247 87.1641 302.853 87.1641 302.393C87.1641 301.932 87.3236 301.536 87.6426 301.203C87.9661 300.87 88.431 300.618 89.0371 300.444C89.6432 300.267 90.3633 300.178 91.1973 300.178ZM91.1973 301.025C90.582 301.025 90.0488 301.08 89.5977 301.189C89.1465 301.299 88.8024 301.456 88.5654 301.661C88.3285 301.866 88.2122 302.11 88.2168 302.393C88.2122 302.671 88.3285 302.912 88.5654 303.117C88.807 303.322 89.151 303.477 89.5977 303.582C90.0488 303.691 90.582 303.746 91.1973 303.746C91.8079 303.746 92.3366 303.691 92.7832 303.582C93.2298 303.477 93.5716 303.325 93.8086 303.124C94.0456 302.919 94.1641 302.675 94.1641 302.393C94.1641 302.11 94.0456 301.866 93.8086 301.661C93.5716 301.456 93.2298 301.299 92.7832 301.189C92.3366 301.08 91.8079 301.025 91.1973 301.025ZM103.748 294.244C103.748 294.905 103.969 295.545 104.411 296.165C104.858 296.78 105.43 297.304 106.127 297.737C106.824 298.166 107.531 298.446 108.246 298.578L107.754 299.48C107.134 299.335 106.523 299.098 105.922 298.77C105.32 298.441 104.78 298.036 104.302 297.553C103.823 297.07 103.456 296.539 103.201 295.96C102.946 296.534 102.579 297.063 102.101 297.546C101.622 298.029 101.082 298.437 100.48 298.77C99.8835 299.098 99.2728 299.335 98.6484 299.48L98.1562 298.578C98.8717 298.437 99.5758 298.154 100.269 297.73C100.961 297.302 101.526 296.78 101.964 296.165C102.406 295.55 102.627 294.91 102.627 294.244V293.314H103.748V294.244ZM108.82 302.953H97.6914V302.064H108.82V302.953ZM116.572 293.396C117.128 293.401 117.625 293.558 118.062 293.868C118.5 294.174 118.851 294.609 119.115 295.174H122.314V292.453H123.381V304.635H122.314V299.918H119.19C118.935 300.538 118.58 301.016 118.124 301.354C117.673 301.691 117.156 301.859 116.572 301.859C115.98 301.859 115.451 301.686 114.986 301.34C114.526 300.993 114.166 300.501 113.906 299.863C113.651 299.225 113.523 298.482 113.523 297.635C113.523 296.787 113.651 296.044 113.906 295.406C114.166 294.768 114.526 294.276 114.986 293.93C115.447 293.579 115.975 293.401 116.572 293.396ZM116.572 294.354C116.176 294.358 115.823 294.497 115.513 294.771C115.207 295.039 114.97 295.422 114.802 295.919C114.633 296.411 114.549 296.983 114.549 297.635C114.549 298.286 114.633 298.861 114.802 299.357C114.97 299.85 115.207 300.23 115.513 300.499C115.823 300.768 116.176 300.902 116.572 300.902C116.964 300.902 117.313 300.768 117.618 300.499C117.928 300.23 118.167 299.85 118.336 299.357C118.509 298.861 118.596 298.286 118.596 297.635C118.596 296.983 118.509 296.411 118.336 295.919C118.167 295.422 117.93 295.039 117.625 294.771C117.32 294.497 116.969 294.358 116.572 294.354ZM119.43 296.076C119.548 296.587 119.607 297.106 119.607 297.635C119.607 298.109 119.56 298.574 119.464 299.029H122.314V296.076H119.43ZM135.727 300.15H134.701V296.664H133.074V299.713H132.062V292.699H133.074V295.775H134.701V292.453H135.727V300.15ZM131.57 294.777H125.336V293.916H127.934V292.549H129V293.916H131.57V294.777ZM128.467 295.434C128.977 295.434 129.428 295.52 129.82 295.693C130.217 295.862 130.524 296.104 130.743 296.418C130.962 296.728 131.074 297.092 131.078 297.512C131.074 297.922 130.962 298.284 130.743 298.599C130.524 298.909 130.217 299.15 129.82 299.323C129.428 299.492 128.977 299.576 128.467 299.576C127.961 299.576 127.51 299.492 127.113 299.323C126.717 299.15 126.409 298.909 126.19 298.599C125.972 298.284 125.865 297.922 125.869 297.512C125.865 297.097 125.972 296.732 126.19 296.418C126.409 296.104 126.715 295.862 127.106 295.693C127.503 295.52 127.956 295.434 128.467 295.434ZM128.467 296.227C128.148 296.227 127.863 296.281 127.612 296.391C127.366 296.495 127.173 296.646 127.031 296.842C126.895 297.038 126.826 297.261 126.826 297.512C126.826 297.758 126.895 297.977 127.031 298.168C127.173 298.359 127.366 298.507 127.612 298.612C127.863 298.717 128.148 298.77 128.467 298.77C128.786 298.77 129.068 298.717 129.314 298.612C129.565 298.507 129.759 298.359 129.896 298.168C130.037 297.977 130.107 297.758 130.107 297.512C130.107 297.261 130.037 297.038 129.896 296.842C129.759 296.646 129.565 296.495 129.314 296.391C129.068 296.281 128.786 296.227 128.467 296.227ZM131.707 300.355C132.559 300.355 133.291 300.44 133.901 300.608C134.512 300.772 134.979 301.014 135.303 301.333C135.631 301.652 135.795 302.037 135.795 302.488C135.795 302.926 135.631 303.302 135.303 303.616C134.979 303.931 134.51 304.17 133.895 304.334C133.284 304.498 132.555 304.58 131.707 304.58C130.859 304.58 130.128 304.498 129.513 304.334C128.902 304.17 128.435 303.931 128.111 303.616C127.788 303.302 127.628 302.926 127.633 302.488C127.628 302.037 127.788 301.652 128.111 301.333C128.435 301.014 128.902 300.772 129.513 300.608C130.123 300.44 130.855 300.355 131.707 300.355ZM131.707 301.203C131.078 301.199 130.538 301.246 130.087 301.347C129.636 301.442 129.289 301.588 129.048 301.784C128.811 301.98 128.695 302.215 128.699 302.488C128.695 302.753 128.811 302.978 129.048 303.165C129.289 303.352 129.636 303.495 130.087 303.596C130.543 303.696 131.083 303.746 131.707 303.746C132.331 303.746 132.869 303.696 133.32 303.596C133.771 303.495 134.118 303.352 134.359 303.165C134.601 302.978 134.724 302.753 134.729 302.488C134.724 302.074 134.455 301.755 133.922 301.531C133.393 301.303 132.655 301.194 131.707 301.203ZM151.422 304.607H150.396V292.453H151.422V304.607ZM148.961 303.992H147.936V299.781H145.68V298.893H147.936V296.732H145.878C145.577 297.794 145.078 298.767 144.381 299.651C143.684 300.535 142.777 301.312 141.66 301.982L141.004 301.203C142.303 300.438 143.296 299.521 143.984 298.455C144.677 297.384 145.078 296.199 145.188 294.9H141.551V294.012H146.254C146.254 294.636 146.199 295.247 146.09 295.844H147.936V292.781H148.961V303.992ZM160.76 294.395H153.582V293.574H156.631V292.385H157.697V293.574H160.76V294.395ZM157.178 294.859C157.752 294.859 158.258 294.935 158.695 295.085C159.137 295.231 159.479 295.44 159.721 295.714C159.962 295.987 160.085 296.309 160.09 296.678C160.085 297.006 159.985 297.295 159.789 297.546C159.593 297.797 159.315 297.999 158.955 298.154C158.595 298.309 158.176 298.407 157.697 298.448V299.255C158.978 299.191 160.094 299.093 161.047 298.961L161.129 299.727C159.944 299.923 158.709 300.052 157.424 300.116C156.143 300.175 154.781 300.205 153.336 300.205L153.172 299.344C154.516 299.344 155.669 299.328 156.631 299.296V298.448C155.897 298.384 155.321 298.198 154.901 297.888C154.482 297.573 154.275 297.17 154.279 296.678C154.275 296.309 154.391 295.987 154.628 295.714C154.865 295.44 155.202 295.231 155.64 295.085C156.082 294.935 156.594 294.859 157.178 294.859ZM157.178 295.625C156.804 295.62 156.474 295.661 156.187 295.748C155.904 295.83 155.683 295.953 155.523 296.117C155.368 296.277 155.291 296.464 155.291 296.678C155.291 296.887 155.368 297.07 155.523 297.225C155.683 297.38 155.904 297.5 156.187 297.587C156.474 297.669 156.804 297.708 157.178 297.703C157.547 297.708 157.873 297.669 158.155 297.587C158.442 297.5 158.663 297.38 158.818 297.225C158.973 297.07 159.051 296.887 159.051 296.678C159.051 296.464 158.973 296.277 158.818 296.117C158.663 295.953 158.442 295.83 158.155 295.748C157.873 295.661 157.547 295.62 157.178 295.625ZM163.139 300.588H162.059V292.494H163.139V300.588ZM163.139 304.607H162.059V302.023H154.936V301.162H163.139V304.607Z" fill="#4A4A4A"/>
</g>
</g>
</g>
</g>
</g>
</g>
</g>
<defs>
<filter id="filter0_dd_48_3680" x="-12" y="-4" width="404" height="843" filterUnits="userSpaceOnUse" color-interpolation-filters="sRGB">
<feFlood flood-opacity="0" result="BackgroundImageFix"/>
<feColorMatrix in="SourceAlpha" type="matrix" values="0 0 0 0 0 0 0 0 0 0 0 0 0 0 0 0 0 0 127 0" result="hardAlpha"/>
<feOffset dy="8"/>
<feGaussianBlur stdDeviation="16"/>
<feColorMatrix type="matrix" values="0 0 0 0 0.118 0 0 0 0 0.157 0 0 0 0 0.133 0 0 0 0.16 0"/>
<feBlend mode="normal" in2="BackgroundImageFix" result="effect1_dropShadow_48_3680"/>
<feColorMatrix in="SourceAlpha" type="matrix" values="0 0 0 0 0 0 0 0 0 0 0 0 0 0 0 0 0 0 127 0" result="hardAlpha"/>
<feOffset dy="2"/>
<feGaussianBlur stdDeviation="4"/>
<feColorMatrix type="matrix" values="0 0 0 0 0.118 0 0 0 0 0.157 0 0 0 0 0.133 0 0 0 0.08 0"/>
<feBlend mode="normal" in2="effect1_dropShadow_48_3680" result="effect2_dropShadow_48_3680"/>
<feBlend mode="normal" in="SourceGraphic" in2="effect2_dropShadow_48_3680" result="shape"/>
</filter>
<filter id="filter1_dd_48_3680" x="27" y="121" width="341" height="101" filterUnits="userSpaceOnUse" color-interpolation-filters="sRGB">
<feFlood flood-opacity="0" result="BackgroundImageFix"/>
<feColorMatrix in="SourceAlpha" type="matrix" values="0 0 0 0 0 0 0 0 0 0 0 0 0 0 0 0 0 0 127 0" result="hardAlpha"/>
<feOffset dy="8"/>
<feGaussianBlur stdDeviation="16"/>
<feColorMatrix type="matrix" values="0 0 0 0 0.118 0 0 0 0 0.157 0 0 0 0 0.133 0 0 0 0.16 0"/>
<feBlend mode="normal" in2="BackgroundImageFix" result="effect1_dropShadow_48_3680"/>
<feColorMatrix in="SourceAlpha" type="matrix" values="0 0 0 0 0 0 0 0 0 0 0 0 0 0 0 0 0 0 127 0" result="hardAlpha"/>
<feOffset dy="2"/>
<feGaussianBlur stdDeviation="4"/>
<feColorMatrix type="matrix" values="0 0 0 0 0.118 0 0 0 0 0.157 0 0 0 0 0.133 0 0 0 0.08 0"/>
<feBlend mode="normal" in2="effect1_dropShadow_48_3680" result="effect2_dropShadow_48_3680"/>
<feBlend mode="normal" in="SourceGraphic" in2="effect2_dropShadow_48_3680" result="shape"/>
</filter>
</defs>
</svg>
