<svg width="404" height="819" viewBox="0 0 404 819" fill="none" xmlns="http://www.w3.org/2000/svg">
<g id="Property 1=Dark" filter="url(#filter0_dd_51_3840)">
<mask id="path-1-inside-1_51_3840" fill="white">
<path d="M32 20H372V799H32V20Z"/>
</mask>
<path d="M32 20H372V799H32V20Z" fill="#262B28"/>
<path d="M372 20H371V799H372H373V20H372Z" fill="#373F3B" mask="url(#path-1-inside-1_51_3840)"/>
<g id="Frame 46">
<g id="Frame 48">
<g id="Frame 49">
<g id="Frame 50">
<g id="&#236;&#131;&#136;&#236;&#177;&#132;&#237;&#140;&#133; &#236;&#149;&#132;&#236;&#157;&#180;&#236;&#189;&#152;">
<path id="Vector" d="M79.8125 49.3335V56.8335" stroke="#5E9E72" stroke-width="2"/>
<path id="Vector_2" d="M76.0625 53.0835H83.5625" stroke="#5E9E72" stroke-width="2"/>
<path id="Subtract" d="M74.1875 55.1426H61.6562V66.1426H62.9062V68.832L65.5957 66.1426H77.6562V59.333H79.6562V66.8926C79.6562 67.5829 79.0966 68.1425 78.4062 68.1426H66.4238L63.04 71.5264C62.2526 72.3139 60.9062 71.7562 60.9062 70.6426V68.1426C60.2159 68.1426 59.6562 67.583 59.6562 66.8926V54.3926C59.6564 53.7024 60.216 53.1426 60.9062 53.1426H74.1875V55.1426Z" fill="#5E9E72"/>
</g>
<path id="&#236;&#131;&#136; &#236;&#177;&#132;&#237;&#140;&#133;" d="M100.129 54.3848C100.129 55.0547 100.231 55.7155 100.437 56.3672C100.646 57.0143 100.947 57.5977 101.339 58.1172C101.731 58.6367 102.189 59.0378 102.713 59.3203L102.07 60.168C101.496 59.8353 100.999 59.3773 100.58 58.7939C100.161 58.2061 99.8395 57.5384 99.6162 56.791C99.3883 57.6022 99.0534 58.3291 98.6113 58.9717C98.1693 59.6143 97.6497 60.1133 97.0527 60.4688L96.3555 59.6758C96.9069 59.3613 97.39 58.9284 97.8047 58.377C98.2194 57.821 98.5361 57.2012 98.7549 56.5176C98.9782 55.834 99.0898 55.1458 99.0898 54.4531V52.1016H100.129V54.3848ZM106.91 63.1074H105.871V56.7363H104.203V62.4922H103.164V51.2129H104.203V55.8477H105.871V50.9531H106.91V63.1074ZM115.66 54.6855C115.66 55.3372 115.767 55.9775 115.981 56.6064C116.196 57.2354 116.503 57.805 116.904 58.3154C117.31 58.8213 117.784 59.2201 118.326 59.5117L117.697 60.3184C117.105 59.9948 116.592 59.5391 116.159 58.9512C115.726 58.3633 115.396 57.6956 115.168 56.9482C114.945 57.7458 114.617 58.4613 114.184 59.0947C113.751 59.7282 113.24 60.2181 112.652 60.5645L112.01 59.7715C112.543 59.4616 113.008 59.0378 113.404 58.5C113.801 57.9577 114.106 57.3561 114.32 56.6953C114.535 56.0299 114.644 55.36 114.648 54.6855V54.125H112.297V53.2363H114.648V51.4043H115.674V53.2363H117.998V54.125H115.66V54.6855ZM122.551 63.1074H121.512V56.791H119.857V62.4922H118.832V51.2129H119.857V55.875H121.512V50.9531H122.551V63.1074ZM130.74 52.7305H125.996V54.2617H130.398V55.1367H125.996V56.7363C127.377 56.7363 128.475 56.7158 129.291 56.6748C130.107 56.6292 130.923 56.5404 131.738 56.4082L131.848 57.2832C130.995 57.4199 130.146 57.5111 129.298 57.5566C128.45 57.6022 127.318 57.625 125.9 57.625H124.916V51.8555H130.74V52.7305ZM134.24 58.5H133.174V50.9668H134.24V58.5ZM130.207 58.6777C131.046 58.6732 131.772 58.7575 132.388 58.9307C133.003 59.0993 133.475 59.3499 133.803 59.6826C134.131 60.0107 134.295 60.4049 134.295 60.8652C134.295 61.3346 134.131 61.7334 133.803 62.0615C133.475 62.3942 133.003 62.6471 132.388 62.8203C131.777 62.9935 131.05 63.0801 130.207 63.0801C129.346 63.0801 128.607 62.9935 127.992 62.8203C127.377 62.6517 126.905 62.401 126.577 62.0684C126.254 61.7357 126.092 61.3346 126.092 60.8652C126.092 60.4049 126.254 60.0107 126.577 59.6826C126.905 59.3499 127.377 59.0993 127.992 58.9307C128.612 58.7575 129.35 58.6732 130.207 58.6777ZM130.207 59.5254C129.574 59.5254 129.027 59.5801 128.566 59.6895C128.111 59.7943 127.762 59.9469 127.521 60.1475C127.279 60.348 127.158 60.5872 127.158 60.8652C127.158 61.1523 127.279 61.3984 127.521 61.6035C127.762 61.8086 128.111 61.9635 128.566 62.0684C129.027 62.1777 129.574 62.2324 130.207 62.2324C130.827 62.2324 131.365 62.1777 131.82 62.0684C132.276 61.959 132.627 61.8018 132.873 61.5967C133.119 61.3916 133.242 61.1478 133.242 60.8652C133.242 60.5918 133.119 60.3548 132.873 60.1543C132.627 59.9492 132.274 59.7943 131.813 59.6895C131.358 59.5801 130.822 59.5254 130.207 59.5254Z" fill="#5E9E72"/>
</g>
<g id="Group 30">
<g id="Frame 51">
<path id="&#236;&#177;&#132;&#237;&#140;&#133;" d="M60.0469 110.686C60.0469 111.337 60.154 111.978 60.3682 112.606C60.5824 113.235 60.89 113.805 61.291 114.315C61.6966 114.821 62.1706 115.22 62.7129 115.512L62.084 116.318C61.4915 115.995 60.9788 115.539 60.5459 114.951C60.113 114.363 59.7826 113.696 59.5547 112.948C59.3314 113.746 59.0033 114.461 58.5703 115.095C58.1374 115.728 57.627 116.218 57.0391 116.564L56.3965 115.771C56.9297 115.462 57.3945 115.038 57.791 114.5C58.1875 113.958 58.4928 113.356 58.707 112.695C58.9212 112.03 59.0306 111.36 59.0352 110.686V110.125H56.6836V109.236H59.0352V107.404H60.0605V109.236H62.3848V110.125H60.0469V110.686ZM66.9375 119.107H65.8984V112.791H64.2441V118.492H63.2188V107.213H64.2441V111.875H65.8984V106.953H66.9375V119.107ZM75.127 108.73H70.3828V110.262H74.7852V111.137H70.3828V112.736C71.7637 112.736 72.862 112.716 73.6777 112.675C74.4935 112.629 75.3092 112.54 76.125 112.408L76.2344 113.283C75.3822 113.42 74.5322 113.511 73.6846 113.557C72.8369 113.602 71.7044 113.625 70.2871 113.625H69.3027V107.855H75.127V108.73ZM78.627 114.5H77.5605V106.967H78.627V114.5ZM74.5938 114.678C75.4323 114.673 76.1592 114.757 76.7744 114.931C77.3896 115.099 77.8613 115.35 78.1895 115.683C78.5176 116.011 78.6816 116.405 78.6816 116.865C78.6816 117.335 78.5176 117.733 78.1895 118.062C77.8613 118.394 77.3896 118.647 76.7744 118.82C76.1637 118.993 75.4368 119.08 74.5938 119.08C73.7324 119.08 72.9941 118.993 72.3789 118.82C71.7637 118.652 71.292 118.401 70.9639 118.068C70.6403 117.736 70.4785 117.335 70.4785 116.865C70.4785 116.405 70.6403 116.011 70.9639 115.683C71.292 115.35 71.7637 115.099 72.3789 114.931C72.9987 114.757 73.737 114.673 74.5938 114.678ZM74.5938 115.525C73.9603 115.525 73.4134 115.58 72.9531 115.689C72.4974 115.794 72.1488 115.947 71.9072 116.147C71.6657 116.348 71.5449 116.587 71.5449 116.865C71.5449 117.152 71.6657 117.398 71.9072 117.604C72.1488 117.809 72.4974 117.964 72.9531 118.068C73.4134 118.178 73.9603 118.232 74.5938 118.232C75.2135 118.232 75.7513 118.178 76.207 118.068C76.6628 117.959 77.0137 117.802 77.2598 117.597C77.5059 117.392 77.6289 117.148 77.6289 116.865C77.6289 116.592 77.5059 116.355 77.2598 116.154C77.0137 115.949 76.6605 115.794 76.2002 115.689C75.7445 115.58 75.209 115.525 74.5938 115.525Z" fill="#B8B5AE"/>
</g>
<g id="Frame 30">
<g id="Frame 52">
<g id="Frame 30_2" filter="url(#filter1_dd_51_3840)">
<path d="M71 161C71 152.163 78.1634 145 87 145H332C340.837 145 348 152.163 348 161V166C348 174.837 340.837 182 332 182H87C78.1634 182 71 174.837 71 166V161Z" fill="#4A7C59"/>
<path id="&#236;&#160;&#156;&#236;&#163;&#188;&#235;&#143;&#132; 3&#236;&#157;&#188; &#236;&#151;&#172;&#237;&#150;&#137;" d="M95.8828 169.607H94.8574V157.453H95.8828V169.607ZM93.4219 168.979H92.4102V162.717H90.3594V161.842H92.4102V157.754H93.4219V168.979ZM89.0605 160.926C89.0605 161.632 89.1631 162.323 89.3682 162.997C89.5732 163.667 89.874 164.273 90.2705 164.815C90.667 165.353 91.1387 165.779 91.6855 166.094L91.0293 166.887C90.4414 166.536 89.9378 166.05 89.5186 165.431C89.0993 164.806 88.7803 164.1 88.5615 163.312C88.3382 164.164 88.0078 164.927 87.5703 165.602C87.1374 166.276 86.6224 166.8 86.0254 167.174L85.3418 166.367C85.8932 166.039 86.3717 165.59 86.7773 165.021C87.1829 164.451 87.4906 163.813 87.7002 163.106C87.9144 162.396 88.0215 161.669 88.0215 160.926V159.777H85.6836V158.889H91.2891V159.777H89.0605V160.926ZM103.73 159.176C103.726 159.695 103.929 160.192 104.339 160.666C104.749 161.135 105.285 161.532 105.945 161.855C106.606 162.179 107.294 162.393 108.01 162.498L107.613 163.346C106.971 163.236 106.351 163.054 105.754 162.799C105.161 162.544 104.635 162.225 104.175 161.842C103.715 161.454 103.366 161.024 103.129 160.55C102.892 161.024 102.543 161.452 102.083 161.835C101.623 162.218 101.096 162.539 100.504 162.799C99.916 163.054 99.3053 163.236 98.6719 163.346L98.248 162.498C98.959 162.393 99.6449 162.179 100.306 161.855C100.966 161.532 101.502 161.135 101.912 160.666C102.322 160.192 102.527 159.695 102.527 159.176V159.094H98.6309V158.219H107.613V159.094H103.73V159.176ZM108.666 165.273H103.635V169.607H102.582V165.273H97.5918V164.385H108.666V165.273ZM119.508 164.029H115.748V167.174H120.82V168.076H109.691V167.174H114.695V164.029H111.113V158.451H119.385V159.326H112.193V163.154H119.508V164.029ZM129.16 168.637C128.508 168.637 127.925 168.527 127.41 168.309C126.9 168.09 126.494 167.782 126.193 167.386C125.897 166.989 125.738 166.531 125.715 166.012H126.959C126.982 166.317 127.091 166.586 127.287 166.818C127.488 167.051 127.75 167.231 128.073 167.358C128.397 167.481 128.755 167.543 129.146 167.543C129.575 167.543 129.96 167.47 130.302 167.324C130.648 167.174 130.917 166.969 131.108 166.709C131.304 166.445 131.402 166.144 131.402 165.807C131.402 165.442 131.307 165.121 131.115 164.843C130.928 164.565 130.655 164.348 130.295 164.193C129.935 164.038 129.502 163.961 128.996 163.961H128.189V162.881H128.996C129.393 162.881 129.746 162.81 130.056 162.669C130.366 162.528 130.605 162.329 130.773 162.074C130.947 161.819 131.033 161.523 131.033 161.186C131.033 160.862 130.956 160.575 130.801 160.324C130.65 160.074 130.436 159.88 130.158 159.743C129.88 159.602 129.557 159.531 129.188 159.531C128.832 159.531 128.499 159.595 128.189 159.723C127.88 159.85 127.627 160.033 127.431 160.27C127.235 160.502 127.128 160.775 127.109 161.09H125.92C125.943 160.579 126.102 160.126 126.398 159.729C126.695 159.328 127.089 159.019 127.581 158.8C128.073 158.576 128.613 158.465 129.201 158.465C129.812 158.465 130.345 158.586 130.801 158.827C131.261 159.064 131.614 159.385 131.86 159.791C132.106 160.197 132.227 160.639 132.223 161.117C132.227 161.673 132.079 162.149 131.778 162.546C131.478 162.942 131.065 163.214 130.541 163.359V163.428C130.965 163.496 131.332 163.64 131.642 163.858C131.956 164.073 132.195 164.348 132.359 164.686C132.528 165.018 132.61 165.392 132.605 165.807C132.61 166.34 132.462 166.823 132.161 167.256C131.86 167.684 131.446 168.021 130.917 168.268C130.393 168.514 129.807 168.637 129.16 168.637ZM137.391 157.904C137.992 157.909 138.53 158.025 139.004 158.253C139.482 158.481 139.856 158.8 140.125 159.21C140.398 159.616 140.535 160.078 140.535 160.598C140.535 161.117 140.398 161.582 140.125 161.992C139.856 162.398 139.482 162.715 139.004 162.942C138.53 163.166 137.992 163.277 137.391 163.277C136.78 163.277 136.235 163.166 135.757 162.942C135.278 162.715 134.905 162.398 134.636 161.992C134.367 161.582 134.232 161.117 134.232 160.598C134.232 160.078 134.367 159.616 134.636 159.21C134.905 158.8 135.278 158.481 135.757 158.253C136.235 158.025 136.78 157.909 137.391 157.904ZM137.391 158.807C136.99 158.807 136.627 158.884 136.304 159.039C135.985 159.189 135.734 159.401 135.552 159.675C135.369 159.944 135.281 160.251 135.285 160.598C135.281 160.949 135.369 161.261 135.552 161.534C135.734 161.808 135.985 162.022 136.304 162.177C136.627 162.327 136.99 162.402 137.391 162.402C137.787 162.402 138.145 162.327 138.464 162.177C138.787 162.022 139.04 161.808 139.223 161.534C139.405 161.261 139.496 160.949 139.496 160.598C139.496 160.251 139.405 159.944 139.223 159.675C139.04 159.401 138.787 159.189 138.464 159.039C138.145 158.884 137.787 158.807 137.391 158.807ZM143.98 163.701H142.914V157.453H143.98V163.701ZM143.98 167.215H137.158V168.582H144.418V169.443H136.105V166.408H142.914V165.15H136.078V164.289H143.98V167.215ZM152.826 158.396C153.382 158.401 153.879 158.558 154.316 158.868C154.754 159.174 155.105 159.609 155.369 160.174H158.568V157.453H159.635V169.635H158.568V164.918H155.444C155.189 165.538 154.834 166.016 154.378 166.354C153.927 166.691 153.41 166.859 152.826 166.859C152.234 166.859 151.705 166.686 151.24 166.34C150.78 165.993 150.42 165.501 150.16 164.863C149.905 164.225 149.777 163.482 149.777 162.635C149.777 161.787 149.905 161.044 150.16 160.406C150.42 159.768 150.78 159.276 151.24 158.93C151.701 158.579 152.229 158.401 152.826 158.396ZM152.826 159.354C152.43 159.358 152.076 159.497 151.767 159.771C151.461 160.039 151.224 160.422 151.056 160.919C150.887 161.411 150.803 161.983 150.803 162.635C150.803 163.286 150.887 163.861 151.056 164.357C151.224 164.85 151.461 165.23 151.767 165.499C152.076 165.768 152.43 165.902 152.826 165.902C153.218 165.902 153.567 165.768 153.872 165.499C154.182 165.23 154.421 164.85 154.59 164.357C154.763 163.861 154.85 163.286 154.85 162.635C154.85 161.983 154.763 161.411 154.59 160.919C154.421 160.422 154.184 160.039 153.879 159.771C153.574 159.497 153.223 159.358 152.826 159.354ZM155.684 161.076C155.802 161.587 155.861 162.106 155.861 162.635C155.861 163.109 155.813 163.574 155.718 164.029H158.568V161.076H155.684ZM171.98 165.15H170.955V161.664H169.328V164.713H168.316V157.699H169.328V160.775H170.955V157.453H171.98V165.15ZM167.824 159.777H161.59V158.916H164.188V157.549H165.254V158.916H167.824V159.777ZM164.721 160.434C165.231 160.434 165.682 160.52 166.074 160.693C166.471 160.862 166.778 161.104 166.997 161.418C167.216 161.728 167.327 162.092 167.332 162.512C167.327 162.922 167.216 163.284 166.997 163.599C166.778 163.909 166.471 164.15 166.074 164.323C165.682 164.492 165.231 164.576 164.721 164.576C164.215 164.576 163.764 164.492 163.367 164.323C162.971 164.15 162.663 163.909 162.444 163.599C162.226 163.284 162.118 162.922 162.123 162.512C162.118 162.097 162.226 161.732 162.444 161.418C162.663 161.104 162.968 160.862 163.36 160.693C163.757 160.52 164.21 160.434 164.721 160.434ZM164.721 161.227C164.402 161.227 164.117 161.281 163.866 161.391C163.62 161.495 163.426 161.646 163.285 161.842C163.148 162.038 163.08 162.261 163.08 162.512C163.08 162.758 163.148 162.977 163.285 163.168C163.426 163.359 163.62 163.507 163.866 163.612C164.117 163.717 164.402 163.77 164.721 163.77C165.04 163.77 165.322 163.717 165.568 163.612C165.819 163.507 166.013 163.359 166.149 163.168C166.291 162.977 166.361 162.758 166.361 162.512C166.361 162.261 166.291 162.038 166.149 161.842C166.013 161.646 165.819 161.495 165.568 161.391C165.322 161.281 165.04 161.227 164.721 161.227ZM167.961 165.355C168.813 165.355 169.545 165.44 170.155 165.608C170.766 165.772 171.233 166.014 171.557 166.333C171.885 166.652 172.049 167.037 172.049 167.488C172.049 167.926 171.885 168.302 171.557 168.616C171.233 168.931 170.764 169.17 170.148 169.334C169.538 169.498 168.809 169.58 167.961 169.58C167.113 169.58 166.382 169.498 165.767 169.334C165.156 169.17 164.689 168.931 164.365 168.616C164.042 168.302 163.882 167.926 163.887 167.488C163.882 167.037 164.042 166.652 164.365 166.333C164.689 166.014 165.156 165.772 165.767 165.608C166.377 165.44 167.109 165.355 167.961 165.355ZM167.961 166.203C167.332 166.199 166.792 166.246 166.341 166.347C165.89 166.442 165.543 166.588 165.302 166.784C165.065 166.98 164.949 167.215 164.953 167.488C164.949 167.753 165.065 167.978 165.302 168.165C165.543 168.352 165.89 168.495 166.341 168.596C166.797 168.696 167.337 168.746 167.961 168.746C168.585 168.746 169.123 168.696 169.574 168.596C170.025 168.495 170.372 168.352 170.613 168.165C170.855 167.978 170.978 167.753 170.982 167.488C170.978 167.074 170.709 166.755 170.176 166.531C169.647 166.303 168.909 166.194 167.961 166.203Z" fill="#E8E4DC"/>
<g id="Button">
<g id="Icon">
<path id="Vector_3" d="M326.994 164.333C327.454 164.333 327.827 163.96 327.827 163.5C327.827 163.04 327.454 162.667 326.994 162.667C326.534 162.667 326.161 163.04 326.161 163.5C326.161 163.96 326.534 164.333 326.994 164.333Z" stroke="#2E4D38" stroke-width="1.66654" stroke-linecap="round" stroke-linejoin="round"/>
<path id="Vector_4" d="M326.994 158.5C327.454 158.5 327.827 158.127 327.827 157.667C327.827 157.207 327.454 156.833 326.994 156.833C326.534 156.833 326.161 157.207 326.161 157.667C326.161 158.127 326.534 158.5 326.994 158.5Z" stroke="#2E4D38" stroke-width="1.66654" stroke-linecap="round" stroke-linejoin="round"/>
<path id="Vector_5" d="M326.994 170.166C327.454 170.166 327.827 169.793 327.827 169.333C327.827 168.873 327.454 168.5 326.994 168.5C326.534 168.5 326.161 168.873 326.161 169.333C326.161 169.793 326.534 170.166 326.994 170.166Z" stroke="#2E4D38" stroke-width="1.66654" stroke-linecap="round" stroke-linejoin="round"/>
</g>
</g>
</g>
</g>
<g id="Frame 53">
<g id="Frame 30_3">
<path id="&#236;&#132;&#156;&#236;&#154;&#184; &#235;&#167;&#155;&#236;&#167;&#145; &#236;&#182;&#148;&#236;&#178;&#156;" d="M89.7715 209.721C89.7715 210.441 89.9128 211.152 90.1953 211.854C90.4779 212.555 90.8607 213.18 91.3438 213.727C91.8268 214.269 92.36 214.674 92.9434 214.943L92.3008 215.818C91.6126 215.463 90.9974 214.941 90.4551 214.253C89.9128 213.565 89.5072 212.788 89.2383 211.922C88.9648 212.838 88.557 213.66 88.0146 214.39C87.4769 215.119 86.8639 215.668 86.1758 216.037L85.4785 215.176C86.0664 214.889 86.6042 214.458 87.0918 213.884C87.5794 213.305 87.9645 212.651 88.2471 211.922C88.5342 211.188 88.6777 210.454 88.6777 209.721V207.506H89.7715V209.721ZM95.5684 218.635H94.502V211.484H91.6172V210.609H94.502V206.453H95.5684V218.635ZM103.129 206.604C104.031 206.604 104.804 206.686 105.446 206.85C106.089 207.014 106.579 207.253 106.916 207.567C107.253 207.882 107.422 208.262 107.422 208.709C107.422 209.16 107.253 209.543 106.916 209.857C106.579 210.172 106.089 210.411 105.446 210.575C104.804 210.739 104.031 210.824 103.129 210.828C102.227 210.824 101.452 210.739 100.805 210.575C100.162 210.411 99.6699 210.172 99.3281 209.857C98.9909 209.543 98.8223 209.16 98.8223 208.709C98.8223 208.262 98.9909 207.882 99.3281 207.567C99.6699 207.253 100.162 207.014 100.805 206.85C101.452 206.686 102.227 206.604 103.129 206.604ZM103.129 207.424C102.113 207.433 101.326 207.549 100.771 207.772C100.215 207.996 99.9388 208.308 99.9434 208.709C99.9388 209.124 100.212 209.443 100.764 209.666C101.32 209.885 102.108 209.999 103.129 210.008C104.145 209.999 104.931 209.885 105.487 209.666C106.048 209.443 106.328 209.124 106.328 208.709C106.328 208.308 106.046 207.996 105.48 207.772C104.92 207.549 104.136 207.433 103.129 207.424ZM108.666 212.496H103.648V213.645H107.244V216.365H100.025V217.623H107.613V218.471H98.959V215.572H106.191V214.465H98.9316V213.645H102.582V212.496H97.5918V211.635H108.666V212.496ZM119.221 212.783H113.725V207.383H119.221V212.783ZM114.777 211.908H118.154V208.271H114.777V211.908ZM122.707 209.789H124.539V210.691H122.707V214.547H121.641V206.453H122.707V209.789ZM119.549 214.314C119.544 214.875 119.731 215.392 120.109 215.866C120.488 216.336 120.991 216.73 121.62 217.049C122.249 217.363 122.93 217.582 123.664 217.705L123.227 218.553C122.292 218.384 121.447 218.067 120.69 217.603C119.934 217.142 119.38 216.575 119.029 215.9C118.674 216.575 118.116 217.142 117.354 217.603C116.593 218.067 115.743 218.384 114.805 218.553L114.381 217.705C115.11 217.582 115.787 217.363 116.411 217.049C117.04 216.73 117.541 216.336 117.915 215.866C118.293 215.392 118.482 214.875 118.482 214.314V213.945H119.549V214.314ZM129.68 208.463C129.68 208.982 129.814 209.479 130.083 209.953C130.352 210.427 130.723 210.842 131.197 211.197C131.671 211.553 132.209 211.822 132.811 212.004L132.264 212.852C131.553 212.624 130.924 212.277 130.377 211.812C129.835 211.343 129.424 210.796 129.146 210.172C128.882 210.837 128.477 211.423 127.93 211.929C127.383 212.43 126.745 212.806 126.016 213.057L125.455 212.209C126.061 212.018 126.601 211.733 127.075 211.354C127.554 210.976 127.927 210.536 128.196 210.035C128.465 209.534 128.6 209.01 128.6 208.463V208.148H125.756V207.273H132.482V208.148H129.68V208.463ZM135.34 213.029H134.273V206.453H135.34V213.029ZM128.531 215.107H134.273V213.631H135.34V218.443H127.465V213.631H128.531V215.107ZM134.273 217.568V215.969H128.531V217.568H134.273ZM151.992 214.711H146.975V218.635H145.922V214.711H140.918V213.809H151.992V214.711ZM146.988 208.859C146.988 209.347 147.191 209.814 147.597 210.261C148.002 210.703 148.535 211.079 149.196 211.389C149.857 211.699 150.552 211.904 151.281 212.004L150.885 212.865C150.256 212.77 149.65 212.603 149.066 212.366C148.488 212.129 147.97 211.835 147.515 211.484C147.063 211.133 146.713 210.742 146.462 210.309C146.211 210.746 145.856 211.14 145.396 211.491C144.94 211.842 144.42 212.136 143.837 212.373C143.254 212.605 142.645 212.77 142.012 212.865L141.615 212.004C142.344 211.904 143.039 211.701 143.7 211.396C144.361 211.086 144.896 210.71 145.307 210.268C145.717 209.821 145.922 209.352 145.922 208.859V208.846H141.998V207.971H145.922V206.453H146.975V207.971H150.926V208.846H146.988V208.859ZM157.16 209.365C157.16 209.894 157.29 210.4 157.55 210.883C157.814 211.361 158.179 211.781 158.644 212.141C159.113 212.501 159.648 212.774 160.25 212.961L159.717 213.822C159.01 213.594 158.391 213.248 157.857 212.783C157.329 212.318 156.928 211.776 156.654 211.156C156.39 211.822 155.991 212.405 155.458 212.906C154.929 213.403 154.307 213.777 153.592 214.027L153.059 213.193C153.651 212.993 154.177 212.701 154.638 212.318C155.103 211.931 155.463 211.482 155.718 210.972C155.978 210.461 156.107 209.926 156.107 209.365V208.969H153.359V208.094H156.107V206.535H157.188V208.094H159.908V208.969H157.16V209.365ZM163.094 215.545H162.014V211.102H159.484V210.213H162.014V206.467H163.094V215.545ZM163.436 218.348H155.287V214.725H156.367V217.445H163.436V218.348Z" fill="#B8B5AE"/>
</g>
</g>
<g id="Frame 30_4">
<path id="&#236;&#152;&#164;&#236;&#130;&#172;&#236;&#185;&#180; &#236;&#151;&#172;&#237;&#150;&#137; &#234;&#179;&#132;&#237;&#154;&#141;" d="M91.0293 252.246C91.8861 252.251 92.6517 252.385 93.3262 252.649C94.0007 252.914 94.527 253.287 94.9053 253.771C95.2835 254.249 95.4727 254.803 95.4727 255.432C95.4727 256.024 95.3063 256.55 94.9736 257.011C94.6455 257.471 94.1852 257.838 93.5928 258.111C93.0003 258.385 92.319 258.547 91.5488 258.597V261.146H96.6211V262.049H85.4922V261.146H90.4961V258.597C89.7305 258.547 89.0514 258.385 88.459 258.111C87.8665 257.833 87.4062 257.466 87.0781 257.011C86.75 256.55 86.5859 256.024 86.5859 255.432C86.5859 254.803 86.7751 254.249 87.1533 253.771C87.5316 253.287 88.0579 252.914 88.7324 252.649C89.4069 252.385 90.1725 252.251 91.0293 252.246ZM91.0293 253.135C90.3776 253.135 89.792 253.233 89.2725 253.429C88.7575 253.62 88.3542 253.891 88.0625 254.242C87.7708 254.589 87.625 254.985 87.625 255.432C87.625 255.892 87.7708 256.298 88.0625 256.648C88.3542 256.999 88.7575 257.271 89.2725 257.462C89.7874 257.653 90.373 257.751 91.0293 257.756C91.6855 257.751 92.2712 257.653 92.7861 257.462C93.3011 257.271 93.7044 256.999 93.9961 256.648C94.2878 256.298 94.4336 255.892 94.4336 255.432C94.4336 254.985 94.2878 254.589 93.9961 254.242C93.7044 253.891 93.2988 253.62 92.7793 253.429C92.2643 253.233 91.681 253.135 91.0293 253.135ZM101.666 254.721C101.666 255.418 101.807 256.115 102.09 256.812C102.372 257.505 102.753 258.125 103.231 258.672C103.715 259.219 104.241 259.633 104.811 259.916L104.154 260.777C103.484 260.426 102.883 259.911 102.35 259.232C101.821 258.553 101.422 257.792 101.153 256.949C100.884 257.847 100.479 258.658 99.9365 259.383C99.3942 260.103 98.7812 260.645 98.0977 261.01L97.4141 260.148C98.002 259.861 98.5374 259.431 99.0205 258.856C99.5081 258.278 99.8932 257.626 100.176 256.901C100.463 256.172 100.609 255.445 100.613 254.721V252.506H101.666V254.721ZM106.998 256.389H109.035V257.318H106.998V263.607H105.932V251.453H106.998V256.389ZM115.994 252.725C115.99 253.987 115.819 255.151 115.481 256.218C115.144 257.28 114.565 258.271 113.745 259.191C112.925 260.107 111.815 260.91 110.416 261.598L109.814 260.777C110.931 260.24 111.849 259.624 112.569 258.932C113.289 258.234 113.839 257.464 114.217 256.621L110.047 257.018L109.869 256.074L114.545 255.76C114.75 255.094 114.878 254.379 114.928 253.613H110.484V252.725H115.994ZM119.098 256.402H121.066V257.305H119.098V263.607H118.031V251.453H119.098V256.402ZM128.572 252.396C129.128 252.401 129.625 252.558 130.062 252.868C130.5 253.174 130.851 253.609 131.115 254.174H134.314V251.453H135.381V263.635H134.314V258.918H131.19C130.935 259.538 130.58 260.016 130.124 260.354C129.673 260.691 129.156 260.859 128.572 260.859C127.98 260.859 127.451 260.686 126.986 260.34C126.526 259.993 126.166 259.501 125.906 258.863C125.651 258.225 125.523 257.482 125.523 256.635C125.523 255.787 125.651 255.044 125.906 254.406C126.166 253.768 126.526 253.276 126.986 252.93C127.447 252.579 127.975 252.401 128.572 252.396ZM128.572 253.354C128.176 253.358 127.823 253.497 127.513 253.771C127.207 254.039 126.97 254.422 126.802 254.919C126.633 255.411 126.549 255.983 126.549 256.635C126.549 257.286 126.633 257.861 126.802 258.357C126.97 258.85 127.207 259.23 127.513 259.499C127.823 259.768 128.176 259.902 128.572 259.902C128.964 259.902 129.313 259.768 129.618 259.499C129.928 259.23 130.167 258.85 130.336 258.357C130.509 257.861 130.596 257.286 130.596 256.635C130.596 255.983 130.509 255.411 130.336 254.919C130.167 254.422 129.93 254.039 129.625 253.771C129.32 253.497 128.969 253.358 128.572 253.354ZM131.43 255.076C131.548 255.587 131.607 256.106 131.607 256.635C131.607 257.109 131.56 257.574 131.464 258.029H134.314V255.076H131.43ZM147.727 259.15H146.701V255.664H145.074V258.713H144.062V251.699H145.074V254.775H146.701V251.453H147.727V259.15ZM143.57 253.777H137.336V252.916H139.934V251.549H141V252.916H143.57V253.777ZM140.467 254.434C140.977 254.434 141.428 254.52 141.82 254.693C142.217 254.862 142.524 255.104 142.743 255.418C142.962 255.728 143.074 256.092 143.078 256.512C143.074 256.922 142.962 257.284 142.743 257.599C142.524 257.909 142.217 258.15 141.82 258.323C141.428 258.492 140.977 258.576 140.467 258.576C139.961 258.576 139.51 258.492 139.113 258.323C138.717 258.15 138.409 257.909 138.19 257.599C137.972 257.284 137.865 256.922 137.869 256.512C137.865 256.097 137.972 255.732 138.19 255.418C138.409 255.104 138.715 254.862 139.106 254.693C139.503 254.52 139.956 254.434 140.467 254.434ZM140.467 255.227C140.148 255.227 139.863 255.281 139.612 255.391C139.366 255.495 139.173 255.646 139.031 255.842C138.895 256.038 138.826 256.261 138.826 256.512C138.826 256.758 138.895 256.977 139.031 257.168C139.173 257.359 139.366 257.507 139.612 257.612C139.863 257.717 140.148 257.77 140.467 257.77C140.786 257.77 141.068 257.717 141.314 257.612C141.565 257.507 141.759 257.359 141.896 257.168C142.037 256.977 142.107 256.758 142.107 256.512C142.107 256.261 142.037 256.038 141.896 255.842C141.759 255.646 141.565 255.495 141.314 255.391C141.068 255.281 140.786 255.227 140.467 255.227ZM143.707 259.355C144.559 259.355 145.291 259.44 145.901 259.608C146.512 259.772 146.979 260.014 147.303 260.333C147.631 260.652 147.795 261.037 147.795 261.488C147.795 261.926 147.631 262.302 147.303 262.616C146.979 262.931 146.51 263.17 145.895 263.334C145.284 263.498 144.555 263.58 143.707 263.58C142.859 263.58 142.128 263.498 141.513 263.334C140.902 263.17 140.435 262.931 140.111 262.616C139.788 262.302 139.628 261.926 139.633 261.488C139.628 261.037 139.788 260.652 140.111 260.333C140.435 260.014 140.902 259.772 141.513 259.608C142.123 259.44 142.855 259.355 143.707 259.355ZM143.707 260.203C143.078 260.199 142.538 260.246 142.087 260.347C141.636 260.442 141.289 260.588 141.048 260.784C140.811 260.98 140.695 261.215 140.699 261.488C140.695 261.753 140.811 261.978 141.048 262.165C141.289 262.352 141.636 262.495 142.087 262.596C142.543 262.696 143.083 262.746 143.707 262.746C144.331 262.746 144.869 262.696 145.32 262.596C145.771 262.495 146.118 262.352 146.359 262.165C146.601 261.978 146.724 261.753 146.729 261.488C146.724 261.074 146.455 260.755 145.922 260.531C145.393 260.303 144.655 260.194 143.707 260.203ZM163.422 263.607H162.396V251.453H163.422V263.607ZM160.961 262.992H159.936V258.781H157.68V257.893H159.936V255.732H157.878C157.577 256.794 157.078 257.767 156.381 258.651C155.684 259.535 154.777 260.312 153.66 260.982L153.004 260.203C154.303 259.438 155.296 258.521 155.984 257.455C156.677 256.384 157.078 255.199 157.188 253.9H153.551V253.012H158.254C158.254 253.636 158.199 254.247 158.09 254.844H159.936V251.781H160.961V262.992ZM172.76 253.395H165.582V252.574H168.631V251.385H169.697V252.574H172.76V253.395ZM169.178 253.859C169.752 253.859 170.258 253.935 170.695 254.085C171.137 254.231 171.479 254.44 171.721 254.714C171.962 254.987 172.085 255.309 172.09 255.678C172.085 256.006 171.985 256.295 171.789 256.546C171.593 256.797 171.315 256.999 170.955 257.154C170.595 257.309 170.176 257.407 169.697 257.448V258.255C170.978 258.191 172.094 258.093 173.047 257.961L173.129 258.727C171.944 258.923 170.709 259.052 169.424 259.116C168.143 259.175 166.781 259.205 165.336 259.205L165.172 258.344C166.516 258.344 167.669 258.328 168.631 258.296V257.448C167.897 257.384 167.321 257.198 166.901 256.888C166.482 256.573 166.275 256.17 166.279 255.678C166.275 255.309 166.391 254.987 166.628 254.714C166.865 254.44 167.202 254.231 167.64 254.085C168.082 253.935 168.594 253.859 169.178 253.859ZM169.178 254.625C168.804 254.62 168.474 254.661 168.187 254.748C167.904 254.83 167.683 254.953 167.523 255.117C167.368 255.277 167.291 255.464 167.291 255.678C167.291 255.887 167.368 256.07 167.523 256.225C167.683 256.38 167.904 256.5 168.187 256.587C168.474 256.669 168.804 256.708 169.178 256.703C169.547 256.708 169.873 256.669 170.155 256.587C170.442 256.5 170.663 256.38 170.818 256.225C170.973 256.07 171.051 255.887 171.051 255.678C171.051 255.464 170.973 255.277 170.818 255.117C170.663 254.953 170.442 254.83 170.155 254.748C169.873 254.661 169.547 254.62 169.178 254.625ZM175.139 259.588H174.059V251.494H175.139V259.588ZM175.139 263.607H174.059V261.023H166.936V260.162H175.139V263.607Z" fill="#B8B5AE"/>
</g>
<g id="Frame 54">
<path id="&#237;&#148;&#132;&#235;&#158;&#145;&#236;&#138;&#164; &#236;&#151;&#172;&#237;&#150;&#137; &#234;&#179;&#132;&#237;&#154;&#141;" d="M96.6211 303.049H85.4922V302.133H96.6211V303.049ZM95.5547 294.572H93.627V298.824H95.5273V299.699H86.5039V298.824H88.4043V294.572H86.4766V293.684H95.5547V294.572ZM92.5742 298.824V294.572H89.4707V298.824H92.5742ZM107.094 295.516H108.939V296.418H107.094V299.809H106.027V292.467H107.094V295.516ZM103.621 296.5H99.1914V298.195C100.34 298.195 101.338 298.168 102.186 298.113C103.033 298.059 103.908 297.954 104.811 297.799L104.92 298.701C103.995 298.856 103.095 298.961 102.22 299.016C101.345 299.07 100.299 299.098 99.082 299.098H98.1387V295.652H102.568V294.107H98.1113V293.219H103.621V296.5ZM103.197 300.178C104.018 300.178 104.729 300.267 105.33 300.444C105.932 300.618 106.394 300.87 106.718 301.203C107.041 301.536 107.203 301.932 107.203 302.393C107.203 302.853 107.041 303.247 106.718 303.575C106.399 303.903 105.938 304.152 105.337 304.32C104.735 304.493 104.022 304.58 103.197 304.58C102.359 304.58 101.636 304.493 101.03 304.32C100.429 304.152 99.9661 303.903 99.6426 303.575C99.3236 303.247 99.1641 302.853 99.1641 302.393C99.1641 301.932 99.3236 301.536 99.6426 301.203C99.9661 300.87 100.431 300.618 101.037 300.444C101.643 300.267 102.363 300.178 103.197 300.178ZM103.197 301.025C102.582 301.025 102.049 301.08 101.598 301.189C101.146 301.299 100.802 301.456 100.565 301.661C100.328 301.866 100.212 302.11 100.217 302.393C100.212 302.671 100.328 302.912 100.565 303.117C100.807 303.322 101.151 303.477 101.598 303.582C102.049 303.691 102.582 303.746 103.197 303.746C103.808 303.746 104.337 303.691 104.783 303.582C105.23 303.477 105.572 303.325 105.809 303.124C106.046 302.919 106.164 302.675 106.164 302.393C106.164 302.11 106.046 301.866 105.809 301.661C105.572 301.456 105.23 301.299 104.783 301.189C104.337 301.08 103.808 301.025 103.197 301.025ZM115.748 294.244C115.748 294.905 115.969 295.545 116.411 296.165C116.858 296.78 117.43 297.304 118.127 297.737C118.824 298.166 119.531 298.446 120.246 298.578L119.754 299.48C119.134 299.335 118.523 299.098 117.922 298.77C117.32 298.441 116.78 298.036 116.302 297.553C115.823 297.07 115.456 296.539 115.201 295.96C114.946 296.534 114.579 297.063 114.101 297.546C113.622 298.029 113.082 298.437 112.48 298.77C111.883 299.098 111.273 299.335 110.648 299.48L110.156 298.578C110.872 298.437 111.576 298.154 112.269 297.73C112.961 297.302 113.526 296.78 113.964 296.165C114.406 295.55 114.627 294.91 114.627 294.244V293.314H115.748V294.244ZM120.82 302.953H109.691V302.064H120.82V302.953ZM128.572 293.396C129.128 293.401 129.625 293.558 130.062 293.868C130.5 294.174 130.851 294.609 131.115 295.174H134.314V292.453H135.381V304.635H134.314V299.918H131.19C130.935 300.538 130.58 301.016 130.124 301.354C129.673 301.691 129.156 301.859 128.572 301.859C127.98 301.859 127.451 301.686 126.986 301.34C126.526 300.993 126.166 300.501 125.906 299.863C125.651 299.225 125.523 298.482 125.523 297.635C125.523 296.787 125.651 296.044 125.906 295.406C126.166 294.768 126.526 294.276 126.986 293.93C127.447 293.579 127.975 293.401 128.572 293.396ZM128.572 294.354C128.176 294.358 127.823 294.497 127.513 294.771C127.207 295.039 126.97 295.422 126.802 295.919C126.633 296.411 126.549 296.983 126.549 297.635C126.549 298.286 126.633 298.861 126.802 299.357C126.97 299.85 127.207 300.23 127.513 300.499C127.823 300.768 128.176 300.902 128.572 300.902C128.964 300.902 129.313 300.768 129.618 300.499C129.928 300.23 130.167 299.85 130.336 299.357C130.509 298.861 130.596 298.286 130.596 297.635C130.596 296.983 130.509 296.411 130.336 295.919C130.167 295.422 129.93 295.039 129.625 294.771C129.32 294.497 128.969 294.358 128.572 294.354ZM131.43 296.076C131.548 296.587 131.607 297.106 131.607 297.635C131.607 298.109 131.56 298.574 131.464 299.029H134.314V296.076H131.43ZM147.727 300.15H146.701V296.664H145.074V299.713H144.062V292.699H145.074V295.775H146.701V292.453H147.727V300.15ZM143.57 294.777H137.336V293.916H139.934V292.549H141V293.916H143.57V294.777ZM140.467 295.434C140.977 295.434 141.428 295.52 141.82 295.693C142.217 295.862 142.524 296.104 142.743 296.418C142.962 296.728 143.074 297.092 143.078 297.512C143.074 297.922 142.962 298.284 142.743 298.599C142.524 298.909 142.217 299.15 141.82 299.323C141.428 299.492 140.977 299.576 140.467 299.576C139.961 299.576 139.51 299.492 139.113 299.323C138.717 299.15 138.409 298.909 138.19 298.599C137.972 298.284 137.865 297.922 137.869 297.512C137.865 297.097 137.972 296.732 138.19 296.418C138.409 296.104 138.715 295.862 139.106 295.693C139.503 295.52 139.956 295.434 140.467 295.434ZM140.467 296.227C140.148 296.227 139.863 296.281 139.612 296.391C139.366 296.495 139.173 296.646 139.031 296.842C138.895 297.038 138.826 297.261 138.826 297.512C138.826 297.758 138.895 297.977 139.031 298.168C139.173 298.359 139.366 298.507 139.612 298.612C139.863 298.717 140.148 298.77 140.467 298.77C140.786 298.77 141.068 298.717 141.314 298.612C141.565 298.507 141.759 298.359 141.896 298.168C142.037 297.977 142.107 297.758 142.107 297.512C142.107 297.261 142.037 297.038 141.896 296.842C141.759 296.646 141.565 296.495 141.314 296.391C141.068 296.281 140.786 296.227 140.467 296.227ZM143.707 300.355C144.559 300.355 145.291 300.44 145.901 300.608C146.512 300.772 146.979 301.014 147.303 301.333C147.631 301.652 147.795 302.037 147.795 302.488C147.795 302.926 147.631 303.302 147.303 303.616C146.979 303.931 146.51 304.17 145.895 304.334C145.284 304.498 144.555 304.58 143.707 304.58C142.859 304.58 142.128 304.498 141.513 304.334C140.902 304.17 140.435 303.931 140.111 303.616C139.788 303.302 139.628 302.926 139.633 302.488C139.628 302.037 139.788 301.652 140.111 301.333C140.435 301.014 140.902 300.772 141.513 300.608C142.123 300.44 142.855 300.355 143.707 300.355ZM143.707 301.203C143.078 301.199 142.538 301.246 142.087 301.347C141.636 301.442 141.289 301.588 141.048 301.784C140.811 301.98 140.695 302.215 140.699 302.488C140.695 302.753 140.811 302.978 141.048 303.165C141.289 303.352 141.636 303.495 142.087 303.596C142.543 303.696 143.083 303.746 143.707 303.746C144.331 303.746 144.869 303.696 145.32 303.596C145.771 303.495 146.118 303.352 146.359 303.165C146.601 302.978 146.724 302.753 146.729 302.488C146.724 302.074 146.455 301.755 145.922 301.531C145.393 301.303 144.655 301.194 143.707 301.203ZM163.422 304.607H162.396V292.453H163.422V304.607ZM160.961 303.992H159.936V299.781H157.68V298.893H159.936V296.732H157.878C157.577 297.794 157.078 298.767 156.381 299.651C155.684 300.535 154.777 301.312 153.66 301.982L153.004 301.203C154.303 300.438 155.296 299.521 155.984 298.455C156.677 297.384 157.078 296.199 157.188 294.9H153.551V294.012H158.254C158.254 294.636 158.199 295.247 158.09 295.844H159.936V292.781H160.961V303.992ZM172.76 294.395H165.582V293.574H168.631V292.385H169.697V293.574H172.76V294.395ZM169.178 294.859C169.752 294.859 170.258 294.935 170.695 295.085C171.137 295.231 171.479 295.44 171.721 295.714C171.962 295.987 172.085 296.309 172.09 296.678C172.085 297.006 171.985 297.295 171.789 297.546C171.593 297.797 171.315 297.999 170.955 298.154C170.595 298.309 170.176 298.407 169.697 298.448V299.255C170.978 299.191 172.094 299.093 173.047 298.961L173.129 299.727C171.944 299.923 170.709 300.052 169.424 300.116C168.143 300.175 166.781 300.205 165.336 300.205L165.172 299.344C166.516 299.344 167.669 299.328 168.631 299.296V298.448C167.897 298.384 167.321 298.198 166.901 297.888C166.482 297.573 166.275 297.17 166.279 296.678C166.275 296.309 166.391 295.987 166.628 295.714C166.865 295.44 167.202 295.231 167.64 295.085C168.082 294.935 168.594 294.859 169.178 294.859ZM169.178 295.625C168.804 295.62 168.474 295.661 168.187 295.748C167.904 295.83 167.683 295.953 167.523 296.117C167.368 296.277 167.291 296.464 167.291 296.678C167.291 296.887 167.368 297.07 167.523 297.225C167.683 297.38 167.904 297.5 168.187 297.587C168.474 297.669 168.804 297.708 169.178 297.703C169.547 297.708 169.873 297.669 170.155 297.587C170.442 297.5 170.663 297.38 170.818 297.225C170.973 297.07 171.051 296.887 171.051 296.678C171.051 296.464 170.973 296.277 170.818 296.117C170.663 295.953 170.442 295.83 170.155 295.748C169.873 295.661 169.547 295.62 169.178 295.625ZM175.139 300.588H174.059V292.494H175.139V300.588ZM175.139 304.607H174.059V302.023H166.936V301.162H175.139V304.607Z" fill="#B8B5AE"/>
</g>
</g>
</g>
</g>
</g>
</g>
</g>
<defs>
<filter id="filter0_dd_51_3840" x="0" y="-4" width="404" height="843" filterUnits="userSpaceOnUse" color-interpolation-filters="sRGB">
<feFlood flood-opacity="0" result="BackgroundImageFix"/>
<feColorMatrix in="SourceAlpha" type="matrix" values="0 0 0 0 0 0 0 0 0 0 0 0 0 0 0 0 0 0 127 0" result="hardAlpha"/>
<feOffset dy="8"/>
<feGaussianBlur stdDeviation="16"/>
<feColorMatrix type="matrix" values="0 0 0 0 0 0 0 0 0 0 0 0 0 0 0 0 0 0 0.5 0"/>
<feBlend mode="normal" in2="BackgroundImageFix" result="effect1_dropShadow_51_3840"/>
<feColorMatrix in="SourceAlpha" type="matrix" values="0 0 0 0 0 0 0 0 0 0 0 0 0 0 0 0 0 0 127 0" result="hardAlpha"/>
<feOffset dy="2"/>
<feGaussianBlur stdDeviation="4"/>
<feColorMatrix type="matrix" values="0 0 0 0 0 0 0 0 0 0 0 0 0 0 0 0 0 0 0.25 0"/>
<feBlend mode="normal" in2="effect1_dropShadow_51_3840" result="effect2_dropShadow_51_3840"/>
<feBlend mode="normal" in="SourceGraphic" in2="effect2_dropShadow_51_3840" result="shape"/>
</filter>
<filter id="filter1_dd_51_3840" x="39" y="121" width="341" height="101" filterUnits="userSpaceOnUse" color-interpolation-filters="sRGB">
<feFlood flood-opacity="0" result="BackgroundImageFix"/>
<feColorMatrix in="SourceAlpha" type="matrix" values="0 0 0 0 0 0 0 0 0 0 0 0 0 0 0 0 0 0 127 0" result="hardAlpha"/>
<feOffset dy="8"/>
<feGaussianBlur stdDeviation="16"/>
<feColorMatrix type="matrix" values="0 0 0 0 0 0 0 0 0 0 0 0 0 0 0 0 0 0 0.5 0"/>
<feBlend mode="normal" in2="BackgroundImageFix" result="effect1_dropShadow_51_3840"/>
<feColorMatrix in="SourceAlpha" type="matrix" values="0 0 0 0 0 0 0 0 0 0 0 0 0 0 0 0 0 0 127 0" result="hardAlpha"/>
<feOffset dy="2"/>
<feGaussianBlur stdDeviation="4"/>
<feColorMatrix type="matrix" values="0 0 0 0 0 0 0 0 0 0 0 0 0 0 0 0 0 0 0.25 0"/>
<feBlend mode="normal" in2="effect1_dropShadow_51_3840" result="effect2_dropShadow_51_3840"/>
<feBlend mode="normal" in="SourceGraphic" in2="effect2_dropShadow_51_3840" result="shape"/>
</filter>
</defs>
</svg>
