<svg width="410" height="740" viewBox="0 0 410 740" fill="none" xmlns="http://www.w3.org/2000/svg">
<g id="Property 1=people_expanded2">
<path d="M8 16C8 7.16345 15.1634 0 24 0H385C393.837 0 401 7.16344 401 16V731H8V16Z" fill="#1C2120"/>
<g id="Frame 65">
<g id="Heading 2">
<path id="&#236;&#151;&#172;&#237;&#150;&#137; &#236;&#160;&#149;&#235;&#179;&#180;&#235;&#165;&#188; &#236;&#158;&#133;&#235;&#160;&#165;&#237;&#149;&#180;&#236;&#163;&#188;&#236;&#132;&#184;&#236;&#154;&#148;" d="M38.1553 73.9102C39.917 73.9102 41.3672 74.8877 42.2373 76.5957H46.7705V72.4922H49.1338V91.9355H46.7705V84.5879H42.4092C41.5713 86.5215 40.0352 87.6387 38.1553 87.6387C35.2334 87.6387 33.1709 84.9961 33.1709 80.7637C33.1709 76.5742 35.2334 73.9102 38.1553 73.9102ZM38.1553 76.0586C36.5439 76.0586 35.4482 77.7988 35.4697 80.7637C35.4482 83.75 36.5439 85.4902 38.1553 85.4902C39.7666 85.4902 40.8408 83.75 40.8623 80.7637C40.8408 77.7988 39.7666 76.0586 38.1553 76.0586ZM42.9033 78.5508C43.043 79.2275 43.1182 79.9688 43.1182 80.7637C43.1182 81.4404 43.0645 82.0635 42.9678 82.6543H46.7705V78.5508H42.9033ZM68.4697 72.4922V84.6953H66.1924V79.4102H64.3018V84.0508H62.0674V72.8789H64.3018V77.4766H66.1924V72.4922H68.4697ZM61.4229 74.5977V76.4668H51.7549V74.5977H55.4287V72.6641H57.792V74.5977H61.4229ZM56.6104 77.2617C59.0811 77.2617 60.8213 78.5938 60.8428 80.6133C60.8213 82.6328 59.0811 83.9648 56.6104 83.9648C54.1826 83.9648 52.4209 82.6328 52.4424 80.6133C52.4209 78.5938 54.1826 77.2617 56.6104 77.2617ZM56.6104 78.9805C55.4072 78.9805 54.5693 79.6035 54.5693 80.6133C54.5693 81.623 55.3857 82.2461 56.6104 82.2461C57.835 82.2461 58.6729 81.623 58.6729 80.6133C58.6729 79.6035 57.835 78.9805 56.6104 78.9805ZM61.917 84.9316C66.0635 84.9316 68.5557 86.1992 68.5771 88.4336C68.5557 90.625 66.0635 91.8926 61.917 91.8926C57.7705 91.8926 55.2568 90.625 55.2568 88.4336C55.2568 86.1992 57.7705 84.9316 61.917 84.9316ZM61.917 86.7578C59.1455 86.7363 57.6416 87.2949 57.6416 88.4336C57.6416 89.5078 59.1455 90.0664 61.917 90.0664C64.667 90.0664 66.1709 89.5078 66.1709 88.4336C66.1709 87.2949 64.667 86.7363 61.917 86.7578ZM92.3604 72.4922V84.0293H89.9756V79.2812H86.667V77.3262H89.9756V72.4922H92.3604ZM85.7861 84.5234C89.9111 84.5234 92.4248 85.877 92.4248 88.2188C92.4248 90.5605 89.9111 91.9141 85.7861 91.9141C81.6826 91.9141 79.1689 90.5605 79.1904 88.2188C79.1689 85.877 81.6826 84.5234 85.7861 84.5234ZM85.7861 86.3496C83.0791 86.3496 81.5537 86.9941 81.5537 88.2188C81.5537 89.4219 83.0791 90.0664 85.7861 90.0664C88.4932 90.0664 90.04 89.4219 90.04 88.2188C90.04 86.9941 88.4932 86.3496 85.7861 86.3496ZM83.2295 75.8223C83.2295 78.1855 84.7979 80.5703 87.8057 81.5801L86.6025 83.4707C84.4434 82.7402 82.9072 81.2578 82.0693 79.4316C81.21 81.5049 79.5879 83.1592 77.2783 83.9863L76.0322 82.0957C79.1475 81.0215 80.8018 78.4004 80.8018 75.8438V75.6934H76.7627V73.7598H87.2471V75.6934H83.2295V75.8223ZM112.856 87.6172V89.5723H95.1104V87.6172H102.759V83.8359H97.0654V73.7812H99.4502V76.9609H108.452V73.7812H110.837V83.8359H105.122V87.6172H112.856ZM99.4502 81.9023H108.452V78.873H99.4502V81.9023ZM131.849 81.3008V83.1055H114.103V81.3008H131.849ZM129.7 84.2656V88.6914H118.571V90.0449H130.28V91.6992H116.187V87.1445H127.337V85.9414H116.165V84.2656H129.7ZM129.657 72.9219V77.3047H118.722V78.5723H130.001V80.2051H116.358V75.7578H127.272V74.5762H116.294V72.9219H129.657ZM154.536 72.4922V82.9121H152.13V72.4922H154.536ZM144.052 83.8145V85.8125H152.151V83.8145H154.536V91.6777H141.688V83.8145H144.052ZM144.052 89.7441H152.151V87.6816H144.052V89.7441ZM143.944 73.3516C146.931 73.3301 149.165 75.1992 149.165 77.9062C149.165 80.5488 146.931 82.418 143.944 82.418C140.937 82.418 138.702 80.5488 138.702 77.9062C138.702 75.1992 140.937 73.3301 143.944 73.3516ZM143.944 75.3496C142.247 75.3496 141.022 76.3379 141.044 77.9062C141.022 79.4531 142.247 80.4414 143.944 80.4629C145.62 80.4414 146.823 79.4531 146.823 77.9062C146.823 76.3379 145.62 75.3496 143.944 75.3496ZM166.653 73.6523V79.4961H160.53V81.8809C163.646 81.8916 165.439 81.7949 167.491 81.4082L167.728 83.3418C165.407 83.7285 163.388 83.793 159.585 83.793H158.167V77.7129H164.269V75.543H158.124V73.6523H166.653ZM173.636 72.5137V84.459H171.251V81.2578H167.813V79.3457H171.251V77.1758H167.813V75.2637H171.251V72.5137H173.636ZM173.636 85.3828V91.9141H171.251V87.2949H160.358V85.3828H173.636ZM185.86 75.5859V77.498H176.343V75.5859H179.952V73.0508H182.315V75.5859H185.86ZM181.134 78.5293C183.604 78.5293 185.366 80.3984 185.366 83.041C185.366 85.7266 183.604 87.6172 181.134 87.6172C178.685 87.6172 176.88 85.7266 176.901 83.041C176.88 80.3984 178.685 78.5293 181.134 78.5293ZM181.134 80.5059C179.866 80.5059 178.985 81.5156 179.007 83.041C178.985 84.6094 179.866 85.5977 181.134 85.5762C182.38 85.5977 183.261 84.6094 183.261 83.041C183.261 81.5156 182.38 80.5059 181.134 80.5059ZM193.079 72.4922V91.9141H190.802V82.418H188.911V91.0332H186.677V72.9004H188.911V80.4844H190.802V72.4922H193.079ZM213.103 83.3203V85.2539H205.39V91.8926H203.026V85.2539H195.399V83.3203H213.103ZM211.47 73.5879V75.4785H205.647C205.787 77.6055 208.344 79.6465 212.179 80.1406L211.319 82.0098C208.011 81.5479 205.433 80.0332 204.251 77.9277C203.069 80.0332 200.491 81.5479 197.226 82.0098L196.323 80.1406C200.137 79.6465 202.693 77.6055 202.876 75.4785H197.032V73.5879H211.47ZM220.472 77.584C220.472 80.7207 221.567 83.9863 224.188 85.6406L222.878 87.4668C221.127 86.4141 219.988 84.5986 219.354 82.4609C218.646 84.8135 217.399 86.8008 215.573 87.918L214.091 86.1348C216.905 84.416 218.173 81 218.173 77.6914V74.2109H220.472V77.584ZM231.171 72.4922V91.9141H228.872V72.4922H231.171ZM227.132 72.8359V90.9688H224.876V81.1504H222.104V79.1738H224.876V72.8359H227.132ZM251.173 87.5957V89.5508H233.427V87.5957H237.53V82.6758C235.983 81.7949 235.049 80.4092 235.06 78.6797C235.038 75.5859 238.089 73.5449 242.257 73.5449C246.446 73.5449 249.497 75.5859 249.497 78.6797C249.497 80.377 248.595 81.7412 247.091 82.6328V87.5957H251.173ZM242.257 75.4355C239.356 75.4355 237.38 76.6602 237.401 78.6797C237.38 80.6777 239.356 81.9238 242.257 81.9238C245.157 81.9238 247.155 80.6777 247.155 78.6797C247.155 76.6602 245.157 75.4355 242.257 75.4355ZM239.894 87.5957H244.663V83.5352C243.922 83.707 243.116 83.793 242.257 83.793C241.419 83.793 240.624 83.707 239.894 83.5566V87.5957Z" fill="#E8E4DC"/>
</g>
<g id="Container">
<g id="DestinationField">
<g id="Paragraph">
<path id="&#236;&#151;&#172;&#237;&#150;&#137;&#236;&#167;&#128;" d="M35.7871 127.754C36.3431 127.754 36.8444 127.903 37.291 128.199C37.7422 128.495 38.1068 128.917 38.3848 129.463H41.2695V126.852H42.7734V139.225H41.2695V134.549H38.4941C38.2253 135.165 37.8561 135.643 37.3867 135.985C36.9173 136.322 36.3841 136.491 35.7871 136.491C35.1673 136.491 34.6182 136.313 34.1396 135.958C33.6611 135.602 33.2874 135.094 33.0186 134.433C32.7497 133.772 32.6152 133 32.6152 132.116C32.6152 131.241 32.7497 130.475 33.0186 129.819C33.2874 129.158 33.6611 128.65 34.1396 128.294C34.6227 127.934 35.1719 127.754 35.7871 127.754ZM35.7871 129.122C35.4453 129.122 35.1445 129.242 34.8848 129.484C34.625 129.721 34.4245 130.065 34.2832 130.516C34.1419 130.963 34.0736 131.496 34.0781 132.116C34.0736 132.74 34.1419 133.278 34.2832 133.729C34.4245 134.18 34.625 134.527 34.8848 134.768C35.1445 135.005 35.4453 135.124 35.7871 135.124C36.1289 135.124 36.4274 135.005 36.6826 134.768C36.9424 134.527 37.1429 134.18 37.2842 133.729C37.43 133.278 37.5052 132.74 37.5098 132.116C37.5052 131.496 37.43 130.96 37.2842 130.509C37.1429 130.058 36.9424 129.714 36.6826 129.477C36.4274 129.24 36.1289 129.122 35.7871 129.122ZM38.8086 130.708C38.8997 131.15 38.9453 131.619 38.9453 132.116C38.9453 132.526 38.9134 132.927 38.8496 133.319H41.2695V130.708H38.8086ZM55.0781 134.618H53.6289V131.254H52.4258V134.208H51.0039V127.098H52.4258V130.024H53.6289V126.852H55.0781V134.618ZM50.5938 129.381H44.4414V128.192H46.7793V126.961H48.2832V128.192H50.5938V129.381ZM47.5312 129.887C48.0508 129.887 48.5133 129.976 48.9189 130.154C49.3245 130.332 49.6413 130.582 49.8691 130.906C50.1016 131.225 50.2201 131.596 50.2246 132.02C50.2201 132.444 50.1016 132.818 49.8691 133.141C49.6413 133.46 49.3245 133.708 48.9189 133.886C48.5133 134.064 48.0508 134.153 47.5312 134.153C47.0208 134.153 46.5628 134.064 46.1572 133.886C45.7516 133.708 45.4349 133.458 45.207 133.134C44.9837 132.811 44.8743 132.439 44.8789 132.02C44.8743 131.601 44.9837 131.229 45.207 130.906C45.4349 130.582 45.7516 130.332 46.1572 130.154C46.5628 129.976 47.0208 129.887 47.5312 129.887ZM47.5312 130.981C47.1439 130.981 46.8294 131.074 46.5879 131.261C46.3509 131.448 46.2324 131.701 46.2324 132.02C46.2324 132.339 46.3509 132.592 46.5879 132.779C46.8249 132.966 47.1393 133.059 47.5312 133.059C47.9232 133.059 48.2399 132.966 48.4814 132.779C48.723 132.592 48.8438 132.339 48.8438 132.02C48.8438 131.701 48.723 131.448 48.4814 131.261C48.2399 131.074 47.9232 130.981 47.5312 130.981ZM50.9082 134.768C51.7878 134.768 52.5443 134.855 53.1777 135.028C53.8112 135.201 54.2965 135.456 54.6338 135.793C54.971 136.126 55.1419 136.527 55.1465 136.997C55.1419 137.457 54.9688 137.851 54.627 138.179C54.2897 138.512 53.8044 138.765 53.1709 138.938C52.5374 139.111 51.7832 139.198 50.9082 139.198C50.0332 139.198 49.2767 139.111 48.6387 138.938C48.0052 138.765 47.5176 138.512 47.1758 138.179C46.8385 137.851 46.6699 137.457 46.6699 136.997C46.6699 136.527 46.8385 136.126 47.1758 135.793C47.5176 135.456 48.0052 135.201 48.6387 135.028C49.2721 134.855 50.0286 134.768 50.9082 134.768ZM50.9082 135.93C50.0195 135.921 49.3428 136.008 48.8779 136.19C48.4176 136.368 48.1875 136.637 48.1875 136.997C48.1875 137.338 48.4199 137.598 48.8848 137.776C49.3496 137.949 50.0241 138.036 50.9082 138.036C51.7878 138.036 52.4577 137.949 52.918 137.776C53.3828 137.598 53.6152 137.338 53.6152 136.997C53.6152 136.637 53.3828 136.368 52.918 136.19C52.4577 136.008 51.7878 135.921 50.9082 135.93ZM61.2715 130.366C61.2715 131.045 61.3991 131.717 61.6543 132.382C61.9141 133.043 62.2832 133.638 62.7617 134.167C63.2448 134.691 63.8099 135.087 64.457 135.356L63.623 136.559C62.9076 136.254 62.2855 135.796 61.7568 135.185C61.2282 134.574 60.818 133.866 60.5264 133.059C60.2347 133.925 59.8223 134.693 59.2891 135.363C58.7604 136.028 58.1406 136.527 57.4297 136.86L56.5547 135.67C57.1882 135.379 57.7441 134.95 58.2227 134.385C58.7057 133.82 59.0771 133.187 59.3369 132.485C59.5967 131.778 59.7266 131.072 59.7266 130.366V129.327H57.0059V128.069H63.9785V129.327H61.2715V130.366ZM66.8906 139.211H65.3594V126.852H66.8906V139.211Z" fill="#B8B5AE"/>
</g>
<g id="Container_2" filter="url(#filter0_dd_123_13904)">
<path d="M32 169.991C32 161.155 39.1634 153.991 48 153.991H361.342C370.178 153.991 377.342 161.155 377.342 169.991V192.965C377.342 201.802 370.178 208.965 361.342 208.965H48C39.1635 208.965 32 201.802 32 192.965V169.991Z" fill="#262B28"/>
<path d="M48 154.491H361.342C369.902 154.491 376.842 161.431 376.842 169.991V192.965C376.842 201.525 369.902 208.465 361.342 208.465H48C39.4396 208.465 32.5 201.525 32.5 192.965V169.991C32.5 161.431 39.4396 154.491 48 154.491Z" stroke="#373F3B"/>
<g id="Text Input">
<path id="&#236;&#151;&#172;&#237;&#150;&#137;&#236;&#167;&#128;&#235;&#165;&#188; &#236;&#158;&#133;&#235;&#160;&#165;&#237;&#149;&#152;&#236;&#132;&#184;&#236;&#154;&#148;" d="M55.5488 175.506C56.75 175.506 57.7388 176.173 58.332 177.337H61.4229V174.54H63.0342V187.796H61.4229V182.787H58.4492C57.8779 184.105 56.8306 184.867 55.5488 184.867C53.5566 184.867 52.1504 183.065 52.1504 180.179C52.1504 177.323 53.5566 175.506 55.5488 175.506ZM55.5488 176.971C54.4502 176.971 53.7031 178.158 53.7178 180.179C53.7031 182.215 54.4502 183.402 55.5488 183.402C56.6475 183.402 57.3799 182.215 57.3945 180.179C57.3799 178.158 56.6475 176.971 55.5488 176.971ZM58.7861 178.67C58.8813 179.132 58.9326 179.637 58.9326 180.179C58.9326 180.641 58.896 181.065 58.8301 181.468H61.4229V178.67H58.7861ZM76.2178 174.54V182.86H74.665V179.256H73.376V182.42H71.8525V174.803H73.376V177.938H74.665V174.54H76.2178ZM71.4131 175.975V177.25H64.8213V175.975H67.3262V174.657H68.9375V175.975H71.4131ZM68.1318 177.792C69.8164 177.792 71.0029 178.7 71.0176 180.077C71.0029 181.454 69.8164 182.362 68.1318 182.362C66.4766 182.362 65.2754 181.454 65.29 180.077C65.2754 178.7 66.4766 177.792 68.1318 177.792ZM68.1318 178.963C67.3115 178.963 66.7402 179.388 66.7402 180.077C66.7402 180.765 67.2969 181.19 68.1318 181.19C68.9668 181.19 69.5381 180.765 69.5381 180.077C69.5381 179.388 68.9668 178.963 68.1318 178.963ZM71.75 183.021C74.5771 183.021 76.2764 183.885 76.291 185.409C76.2764 186.903 74.5771 187.767 71.75 187.767C68.9229 187.767 67.209 186.903 67.209 185.409C67.209 183.885 68.9229 183.021 71.75 183.021ZM71.75 184.266C69.8604 184.251 68.835 184.632 68.835 185.409C68.835 186.141 69.8604 186.522 71.75 186.522C73.625 186.522 74.6504 186.141 74.6504 185.409C74.6504 184.632 73.625 184.251 71.75 184.266ZM82.8535 178.304C82.8535 180.472 84.1279 182.757 86.2666 183.651L85.373 184.94C83.8057 184.266 82.6631 182.875 82.0625 181.19C81.4473 183.006 80.29 184.53 78.7373 185.262L77.7998 183.988C79.8945 183.021 81.1982 180.56 81.1982 178.304V177.191H78.2832V175.843H85.7539V177.191H82.8535V178.304ZM88.874 174.54V187.782H87.2334V174.54H88.874ZM102.907 180.545V181.776H90.8076V180.545H102.907ZM101.442 182.567V185.584H93.8545V186.507H101.838V187.635H92.2285V184.53H99.8311V183.709H92.2139V182.567H101.442ZM101.413 174.833V177.821H93.957V178.685H101.647V179.798H92.3457V176.766H99.7871V175.96H92.3018V174.833H101.413ZM118.376 174.54V181.644H116.735V174.54H118.376ZM111.228 182.259V183.622H116.75V182.259H118.376V187.621H109.616V182.259H111.228ZM111.228 186.302H116.75V184.896H111.228V186.302ZM111.154 175.125C113.19 175.111 114.714 176.385 114.714 178.231C114.714 180.033 113.19 181.307 111.154 181.307C109.104 181.307 107.58 180.033 107.58 178.231C107.58 176.385 109.104 175.111 111.154 175.125ZM111.154 176.488C109.997 176.488 109.162 177.162 109.177 178.231C109.162 179.286 109.997 179.959 111.154 179.974C112.297 179.959 113.117 179.286 113.117 178.231C113.117 177.162 112.297 176.488 111.154 176.488ZM126.638 175.331V179.315H122.463V180.941C124.587 180.948 125.81 180.882 127.209 180.619L127.37 181.937C125.788 182.201 124.411 182.245 121.818 182.245H120.852V178.099H125.012V176.62H120.822V175.331H126.638ZM131.398 174.554V182.699H129.772V180.516H127.429V179.212H129.772V177.733H127.429V176.429H129.772V174.554H131.398ZM131.398 183.329V187.782H129.772V184.632H122.346V183.329H131.398ZM143.645 174.54V179.813H145.681V181.161H143.645V187.782H142.033V174.54H143.645ZM141.008 176.576V177.879H133.2V176.576H136.335V174.73H137.961V176.576H141.008ZM137.155 178.744C139.06 178.744 140.48 180.033 140.48 181.864C140.48 183.695 139.06 184.969 137.155 184.969C135.222 184.969 133.801 183.695 133.815 181.864C133.801 180.033 135.222 178.744 137.155 178.744ZM137.155 180.077C136.115 180.077 135.368 180.78 135.368 181.864C135.368 182.948 136.115 183.636 137.155 183.622C138.166 183.636 138.913 182.948 138.928 181.864C138.913 180.78 138.166 180.077 137.155 180.077ZM150.368 178.011C150.368 180.15 151.115 182.376 152.902 183.504L152.009 184.75C150.815 184.032 150.039 182.794 149.606 181.336C149.123 182.94 148.273 184.295 147.028 185.057L146.018 183.841C147.937 182.669 148.801 180.34 148.801 178.084V175.711H150.368V178.011ZM157.663 174.54V187.782H156.096V174.54H157.663ZM154.909 174.774V187.137H153.371V180.443H151.481V179.095H153.371V174.774H154.909ZM171.301 184.837V186.17H159.201V184.837H161.999V181.483C160.944 180.882 160.307 179.938 160.314 178.758C160.3 176.649 162.38 175.257 165.222 175.257C168.078 175.257 170.158 176.649 170.158 178.758C170.158 179.916 169.543 180.846 168.518 181.454V184.837H171.301ZM165.222 176.546C163.244 176.546 161.896 177.381 161.911 178.758C161.896 180.121 163.244 180.97 165.222 180.97C167.199 180.97 168.562 180.121 168.562 178.758C168.562 177.381 167.199 176.546 165.222 176.546ZM163.61 184.837H166.862V182.069C166.357 182.186 165.808 182.245 165.222 182.245C164.65 182.245 164.108 182.186 163.61 182.083V184.837Z" fill="#7A7873"/>
</g>
<g id="Icon">
<path id="Vector" d="M347.02 187.31C350.701 187.31 353.685 184.326 353.685 180.645C353.685 176.964 350.701 173.98 347.02 173.98C343.339 173.98 340.355 176.964 340.355 180.645C340.355 184.326 343.339 187.31 347.02 187.31Z" stroke="#7A7873" stroke-width="1.66623" stroke-linecap="round" stroke-linejoin="round"/>
<path id="Vector_2" d="M355.351 188.976L351.769 185.394" stroke="#7A7873" stroke-width="1.66623" stroke-linecap="round" stroke-linejoin="round"/>
</g>
</g>
</g>
<g id="DateField">
<g id="Paragraph_2">
<path id="&#235;&#130;&#160;&#236;&#167;&#156;" d="M42.1582 240.226H43.8809V241.484H42.1582V243.972H40.6406V237.82H42.1582V240.226ZM34.4746 242.27C36.2428 242.247 37.9245 242.081 39.5195 241.771L39.6973 243.015C38.7767 243.202 37.8698 243.336 36.9766 243.418C36.0833 243.496 35.1764 243.535 34.2559 243.535H33.9688H32.9434V238.367H34.4746V242.27ZM42.1582 247.787H35.6094V248.798H42.541V250.029H34.0918V246.625H40.627V245.708H34.0781V244.505H42.1582V247.787ZM54.5586 242.564H56.0625V243.835H54.5586V250.179H53.041V237.82H54.5586V242.564ZM47.5312 241.128C47.5312 242.003 47.6042 242.828 47.75 243.603C47.8958 244.378 48.1693 245.061 48.5703 245.654C48.9622 245.066 49.2311 244.385 49.377 243.61C49.5228 242.831 49.5957 242.003 49.5957 241.128V240.185H48.8027V238.955H52.248V240.185H51.0449V241.128C51.0449 242.309 51.1771 243.364 51.4414 244.293C51.7057 245.223 52.1888 245.945 52.8906 246.46L51.9199 247.554C51.1589 246.971 50.6165 246.043 50.293 244.772C49.9557 246.098 49.377 247.062 48.5566 247.664C47.7546 247.067 47.1826 246.103 46.8408 244.772C46.5127 246.043 45.9727 246.971 45.2207 247.554L44.25 246.46C44.9518 245.941 45.4349 245.214 45.6992 244.28C45.9635 243.341 46.0957 242.291 46.0957 241.128V240.185H44.7148V238.955H48.3242V240.185H47.5312V241.128Z" fill="#B8B5AE"/>
</g>
<g id="Button" filter="url(#filter1_dd_123_13904)">
<path d="M32 280.959C32 272.122 39.1634 264.959 48 264.959H361.342C370.178 264.959 377.342 272.122 377.342 280.959V303.933C377.342 312.769 370.178 319.933 361.342 319.933H48C39.1635 319.933 32 312.769 32 303.933V280.959Z" fill="#262B28"/>
<path d="M48 265.459H361.342C369.902 265.459 376.842 272.399 376.842 280.959V303.933C376.842 312.493 369.902 319.433 361.342 319.433H48C39.4396 319.433 32.5 312.493 32.5 303.933V280.959C32.5 272.399 39.4396 265.459 48 265.459Z" stroke="#373F3B"/>
<g id="Paragraph_3">
<path id="4 &#236;&#155;&#148; 10 &#236;&#157;&#188; ~ 4 &#236;&#155;&#148; 12 &#236;&#157;&#188;" d="M49.6885 293.943L54.2734 286.838H56.6465V293.899H58.0381V295.466H56.6465V297.444H54.8301V295.466H49.6885V293.943ZM54.8594 293.899V289.006H54.7422L51.6367 293.826V293.899H54.8594ZM73.7852 293.24H72.1445V292.698H69.6689V291.702H72.1445V285.52H73.7852V293.24ZM62.667 290.295C64.3125 290.295 65.8384 290.276 67.2446 290.237C68.6509 290.198 69.9912 290.115 71.2656 289.988L71.3535 291.013C70.2354 291.169 69.0098 291.279 67.6768 291.343V293.254H66.0654V291.409C65.4893 291.428 64.6543 291.438 63.5605 291.438H62.8428L62.667 290.295ZM73.7852 296.624H66.2559V297.473H74.1367V298.63H64.6592V295.554H72.1738V294.763H64.6006V293.65H73.7852V296.624ZM66.9443 285.725C67.5938 285.725 68.1675 285.808 68.6655 285.974C69.1685 286.14 69.5591 286.375 69.8374 286.677C70.1157 286.975 70.2549 287.322 70.2549 287.717C70.2549 288.123 70.1157 288.474 69.8374 288.772C69.5591 289.07 69.1709 289.299 68.6729 289.46C68.1748 289.617 67.5986 289.695 66.9443 289.695C66.2754 289.695 65.6895 289.617 65.1865 289.46C64.6836 289.299 64.293 289.07 64.0146 288.772C63.7412 288.474 63.6045 288.123 63.6045 287.717C63.6045 287.322 63.7437 286.975 64.022 286.677C64.3003 286.375 64.6909 286.14 65.1938 285.974C65.6968 285.808 66.2803 285.725 66.9443 285.725ZM66.9443 286.809C66.3877 286.809 65.9482 286.892 65.626 287.058C65.3037 287.219 65.1475 287.439 65.1572 287.717C65.1523 287.996 65.3086 288.215 65.626 288.376C65.9482 288.533 66.3877 288.611 66.9443 288.611C67.4912 288.611 67.9258 288.533 68.248 288.376C68.5703 288.215 68.7314 287.996 68.7314 287.717C68.7314 287.439 68.5679 287.219 68.2407 287.058C67.9185 286.892 67.4863 286.809 66.9443 286.809ZM83.9512 297.444H82.0322V288.699H81.9736L79.498 290.281V288.538L82.1201 286.838H83.9512V297.444ZM90.4404 297.59C89.5908 297.59 88.8608 297.378 88.2505 296.953C87.645 296.523 87.1787 295.901 86.8516 295.085C86.5293 294.27 86.3682 293.289 86.3682 292.141C86.3682 290.999 86.5293 290.02 86.8516 289.204C87.1787 288.384 87.6475 287.761 88.2578 287.336C88.8682 286.907 89.5957 286.692 90.4404 286.692C91.2803 286.692 92.0054 286.907 92.6157 287.336C93.231 287.761 93.6997 288.384 94.022 289.204C94.3491 290.02 94.5127 290.999 94.5127 292.141C94.5127 293.289 94.3491 294.27 94.022 295.085C93.6997 295.901 93.2334 296.523 92.623 296.953C92.0176 297.378 91.29 297.59 90.4404 297.59ZM90.4404 295.994C90.8896 295.994 91.2729 295.85 91.5903 295.562C91.9126 295.269 92.1592 294.836 92.3301 294.265C92.5059 293.689 92.5938 292.981 92.5938 292.141C92.5938 291.311 92.5059 290.608 92.3301 290.032C92.1592 289.451 91.9126 289.014 91.5903 288.721C91.2681 288.423 90.8848 288.274 90.4404 288.274C89.9961 288.274 89.6128 288.423 89.2905 288.721C88.9683 289.014 88.7192 289.451 88.5435 290.032C88.3726 290.608 88.2871 291.311 88.2871 292.141C88.2871 292.981 88.3726 293.689 88.5435 294.265C88.7192 294.836 88.9658 295.269 89.2832 295.562C89.6055 295.85 89.9912 295.994 90.4404 295.994ZM102.979 285.93C103.644 285.93 104.242 286.06 104.774 286.318C105.306 286.572 105.724 286.926 106.026 287.38C106.334 287.834 106.49 288.347 106.495 288.918C106.49 289.495 106.334 290.01 106.026 290.464C105.724 290.918 105.306 291.272 104.774 291.526C104.242 291.78 103.644 291.907 102.979 291.907C102.311 291.907 101.708 291.78 101.17 291.526C100.638 291.272 100.221 290.918 99.918 290.464C99.6152 290.01 99.4639 289.495 99.4639 288.918C99.4639 288.347 99.6152 287.834 99.918 287.38C100.221 286.926 100.641 286.572 101.178 286.318C101.715 286.06 102.315 285.93 102.979 285.93ZM102.979 287.278C102.608 287.278 102.276 287.346 101.983 287.483C101.69 287.615 101.461 287.805 101.295 288.054C101.129 288.298 101.046 288.586 101.046 288.918C101.046 289.255 101.129 289.551 101.295 289.805C101.461 290.054 101.69 290.247 101.983 290.383C102.276 290.52 102.608 290.588 102.979 290.588C103.351 290.588 103.683 290.52 103.976 290.383C104.269 290.247 104.498 290.054 104.664 289.805C104.83 289.551 104.913 289.255 104.913 288.918C104.913 288.586 104.83 288.298 104.664 288.054C104.498 287.805 104.269 287.615 103.976 287.483C103.683 287.346 103.351 287.278 102.979 287.278ZM110.26 292.2H108.619V285.505H110.26V292.2ZM110.26 296.228H103.097V297.297H110.655V298.586H101.5V295.027H108.634V294.045H101.471V292.771H110.26V296.228ZM116.72 291.746C116.959 291.482 117.23 291.282 117.533 291.145C117.835 291.008 118.155 290.94 118.492 290.94C118.751 290.94 119.002 290.974 119.247 291.042C119.491 291.106 119.801 291.208 120.177 291.35C120.538 291.487 120.841 291.589 121.085 291.658C121.334 291.726 121.588 291.76 121.847 291.76C122.53 291.76 123.106 291.482 123.575 290.925V292.522C123.336 292.791 123.065 292.993 122.762 293.13C122.464 293.262 122.145 293.328 121.803 293.328C121.544 293.328 121.288 293.293 121.034 293.225C120.78 293.152 120.475 293.049 120.118 292.917C119.762 292.786 119.457 292.686 119.203 292.617C118.954 292.544 118.702 292.507 118.448 292.507C117.765 292.507 117.188 292.786 116.72 293.342V291.746ZM129.229 293.943L133.814 286.838H136.188V293.899H137.579V295.466H136.188V297.444H134.371V295.466H129.229V293.943ZM134.4 293.899V289.006H134.283L131.178 293.826V293.899H134.4ZM153.326 293.24H151.686V292.698H149.21V291.702H151.686V285.52H153.326V293.24ZM142.208 290.295C143.854 290.295 145.379 290.276 146.786 290.237C148.192 290.198 149.532 290.115 150.807 289.988L150.895 291.013C149.776 291.169 148.551 291.279 147.218 291.343V293.254H145.606V291.409C145.03 291.428 144.195 291.438 143.102 291.438H142.384L142.208 290.295ZM153.326 296.624H145.797V297.473H153.678V298.63H144.2V295.554H151.715V294.763H144.142V293.65H153.326V296.624ZM146.485 285.725C147.135 285.725 147.708 285.808 148.207 285.974C148.709 286.14 149.1 286.375 149.378 286.677C149.657 286.975 149.796 287.322 149.796 287.717C149.796 288.123 149.657 288.474 149.378 288.772C149.1 289.07 148.712 289.299 148.214 289.46C147.716 289.617 147.14 289.695 146.485 289.695C145.816 289.695 145.23 289.617 144.728 289.46C144.225 289.299 143.834 289.07 143.556 288.772C143.282 288.474 143.146 288.123 143.146 287.717C143.146 287.322 143.285 286.975 143.563 286.677C143.841 286.375 144.232 286.14 144.735 285.974C145.238 285.808 145.821 285.725 146.485 285.725ZM146.485 286.809C145.929 286.809 145.489 286.892 145.167 287.058C144.845 287.219 144.688 287.439 144.698 287.717C144.693 287.996 144.85 288.215 145.167 288.376C145.489 288.533 145.929 288.611 146.485 288.611C147.032 288.611 147.467 288.533 147.789 288.376C148.111 288.215 148.272 287.996 148.272 287.717C148.272 287.439 148.109 287.219 147.782 287.058C147.459 286.892 147.027 286.809 146.485 286.809ZM163.492 297.444H161.573V288.699H161.515L159.039 290.281V288.538L161.661 286.838H163.492V297.444ZM166.07 296.067L169.82 292.449C170.226 292.043 170.538 291.711 170.758 291.453C170.982 291.189 171.153 290.93 171.271 290.676C171.388 290.417 171.446 290.144 171.446 289.856C171.446 289.534 171.368 289.25 171.212 289.006C171.056 288.762 170.838 288.574 170.56 288.442C170.287 288.311 169.977 288.245 169.63 288.245C169.269 288.245 168.951 288.318 168.678 288.464C168.409 288.606 168.202 288.811 168.055 289.08C167.909 289.343 167.838 289.651 167.843 290.002H166.026C166.021 289.343 166.173 288.765 166.48 288.267C166.788 287.764 167.215 287.375 167.762 287.102C168.314 286.829 168.941 286.692 169.645 286.692C170.357 286.692 170.987 286.824 171.534 287.087C172.086 287.351 172.513 287.717 172.816 288.186C173.124 288.65 173.277 289.177 173.277 289.768C173.277 290.178 173.197 290.574 173.036 290.955C172.879 291.335 172.611 291.758 172.23 292.222C171.849 292.681 171.31 293.24 170.611 293.899L168.722 295.774V295.847H173.438V297.444H166.07V296.067ZM181.979 285.93C182.643 285.93 183.241 286.06 183.773 286.318C184.305 286.572 184.723 286.926 185.025 287.38C185.333 287.834 185.489 288.347 185.494 288.918C185.489 289.495 185.333 290.01 185.025 290.464C184.723 290.918 184.305 291.272 183.773 291.526C183.241 291.78 182.643 291.907 181.979 291.907C181.31 291.907 180.707 291.78 180.169 291.526C179.637 291.272 179.22 290.918 178.917 290.464C178.614 290.01 178.463 289.495 178.463 288.918C178.463 288.347 178.614 287.834 178.917 287.38C179.22 286.926 179.64 286.572 180.177 286.318C180.714 286.06 181.314 285.93 181.979 285.93ZM181.979 287.278C181.607 287.278 181.275 287.346 180.982 287.483C180.689 287.615 180.46 287.805 180.294 288.054C180.128 288.298 180.045 288.586 180.045 288.918C180.045 289.255 180.128 289.551 180.294 289.805C180.46 290.054 180.689 290.247 180.982 290.383C181.275 290.52 181.607 290.588 181.979 290.588C182.35 290.588 182.682 290.52 182.975 290.383C183.268 290.247 183.497 290.054 183.663 289.805C183.829 289.551 183.912 289.255 183.912 288.918C183.912 288.586 183.829 288.298 183.663 288.054C183.497 287.805 183.268 287.615 182.975 287.483C182.682 287.346 182.35 287.278 181.979 287.278ZM189.259 292.2H187.618V285.505H189.259V292.2ZM189.259 296.228H182.096V297.297H189.654V298.586H180.499V295.027H187.633V294.045H180.47V292.771H189.259V296.228Z" fill="#E8E4DC"/>
</g>
<g id="Icon_2">
<path id="Vector_3" d="M347.012 284.115V287.447" stroke="#7A7873" stroke-width="1.66623" stroke-linecap="round" stroke-linejoin="round"/>
<path id="Vector_4" d="M353.677 284.115V287.447" stroke="#7A7873" stroke-width="1.66623" stroke-linecap="round" stroke-linejoin="round"/>
<path id="Vector_5" d="M356.176 285.781H344.513C343.593 285.781 342.847 286.527 342.847 287.447V299.111C342.847 300.031 343.593 300.777 344.513 300.777H356.176C357.097 300.777 357.843 300.031 357.843 299.111V287.447C357.843 286.527 357.097 285.781 356.176 285.781Z" stroke="#7A7873" stroke-width="1.66623" stroke-linecap="round" stroke-linejoin="round"/>
<path id="Vector_6" d="M342.847 290.78H357.843" stroke="#7A7873" stroke-width="1.66623" stroke-linecap="round" stroke-linejoin="round"/>
</g>
</g>
</g>
<g id="GuestsField">
<g id="Paragraph_4">
<path id="&#236;&#157;&#184;&#236;&#155;&#144;" d="M42.876 357.729H41.3447V348.801H42.876V357.729ZM43.2178 360.9H34.7002V356.826H36.2314V359.67H43.2178V360.9ZM36.1357 349.607C36.7555 349.607 37.3184 349.742 37.8242 350.011C38.3301 350.275 38.7288 350.642 39.0205 351.111C39.3122 351.581 39.458 352.109 39.458 352.697C39.458 353.294 39.3122 353.83 39.0205 354.304C38.7288 354.773 38.3301 355.14 37.8242 355.404C37.3184 355.669 36.7555 355.801 36.1357 355.801C35.5114 355.801 34.944 355.669 34.4336 355.404C33.9277 355.14 33.529 354.773 33.2373 354.304C32.9456 353.83 32.7998 353.294 32.7998 352.697C32.7998 352.109 32.9456 351.581 33.2373 351.111C33.529 350.642 33.9277 350.275 34.4336 350.011C34.944 349.742 35.5114 349.607 36.1357 349.607ZM36.1357 350.934C35.7848 350.934 35.4681 351.007 35.1855 351.152C34.903 351.298 34.682 351.506 34.5225 351.774C34.363 352.043 34.2855 352.351 34.29 352.697C34.2855 353.053 34.363 353.365 34.5225 353.634C34.682 353.903 34.903 354.11 35.1855 354.256C35.4681 354.402 35.7848 354.475 36.1357 354.475C36.4775 354.475 36.7874 354.402 37.0654 354.256C37.3434 354.11 37.5622 353.903 37.7217 353.634C37.8857 353.365 37.9678 353.053 37.9678 352.697C37.9678 352.351 37.8857 352.043 37.7217 351.774C37.5622 351.506 37.3434 351.298 37.0654 351.152C36.7874 351.007 36.4775 350.934 36.1357 350.934ZM55.0439 358.152H53.5127V357.072H51.0928V356.006H53.5127V348.801H55.0439V358.152ZM55.3311 360.9H46.2666V357.25H47.7842V359.67H55.3311V360.9ZM44.626 354.352C46.2301 354.342 47.6702 354.315 48.9463 354.27C50.2223 354.224 51.4391 354.128 52.5967 353.982L52.6787 355.076C51.6898 355.24 50.6507 355.359 49.5615 355.432V357.811H48.0439V355.514C47.1644 355.55 46.0889 355.568 44.8174 355.568L44.626 354.352ZM48.6592 349.252C49.2562 349.252 49.7848 349.345 50.2451 349.532C50.71 349.715 51.0723 349.972 51.332 350.305C51.5964 350.633 51.7308 351.011 51.7354 351.439C51.7308 351.877 51.5986 352.26 51.3389 352.588C51.0791 352.916 50.7168 353.169 50.252 353.347C49.7871 353.524 49.2562 353.613 48.6592 353.613C48.0531 353.613 47.5153 353.524 47.0459 353.347C46.5811 353.169 46.2188 352.916 45.959 352.588C45.6992 352.26 45.5693 351.877 45.5693 351.439C45.5693 351.011 45.6992 350.633 45.959 350.305C46.2188 349.972 46.5811 349.715 47.0459 349.532C47.5153 349.345 48.0531 349.252 48.6592 349.252ZM48.6592 350.373C48.1624 350.373 47.7614 350.469 47.4561 350.66C47.1553 350.847 47.0049 351.107 47.0049 351.439C47.0049 351.772 47.1553 352.034 47.4561 352.226C47.7614 352.412 48.1624 352.506 48.6592 352.506C49.1377 352.506 49.5273 352.41 49.8281 352.219C50.1289 352.027 50.2816 351.768 50.2861 351.439C50.2816 351.111 50.1289 350.852 49.8281 350.66C49.5273 350.469 49.1377 350.373 48.6592 350.373Z" fill="#B8B5AE"/>
</g>
<g id="Frame 59">
<g id="Button_2" filter="url(#filter2_dd_123_13904)">
<path d="M32.1709 391.927C32.1709 383.09 39.3343 375.927 48.1709 375.927H361.513C370.349 375.927 377.513 383.09 377.513 391.927V414.901C377.513 423.737 370.349 430.901 361.513 430.901H48.1709C39.3344 430.901 32.1709 423.737 32.1709 414.901V391.927Z" fill="#262B28"/>
<path d="M48.1709 376.427H361.513C370.073 376.427 377.013 383.366 377.013 391.927V414.9C377.013 423.461 370.073 430.4 361.513 430.4H48.1709C39.6105 430.4 32.6709 423.461 32.6709 414.9V391.927C32.6709 383.366 39.6105 376.427 48.1709 376.427Z" stroke="#373F3B"/>
<g id="Paragraph_5">
<path id="&#236;&#132;&#177;&#236;&#157;&#184; 2 &#235;&#170;&#133;, &#236;&#149;&#132;&#235;&#143;&#153; 0 &#235;&#170;&#133;" d="M54.459 398.377C54.4541 398.988 54.5688 399.564 54.8032 400.106C55.0376 400.648 55.3892 401.126 55.8579 401.542C56.3315 401.952 56.9053 402.264 57.5791 402.479L56.7002 403.753C55.9873 403.504 55.377 403.148 54.8691 402.684C54.3662 402.22 53.9707 401.668 53.6826 401.029C53.3848 401.766 52.9575 402.406 52.4009 402.948C51.8442 403.485 51.1729 403.89 50.3867 404.164L49.5225 402.845C50.2354 402.611 50.8384 402.271 51.3315 401.827C51.8247 401.383 52.1958 400.87 52.4448 400.289C52.6938 399.708 52.8184 399.095 52.8184 398.451V397.191H54.459V398.377ZM60.6992 404.266H59.0732V400.37H56.4365V399.037H59.0732V396.473H60.6992V404.266ZM56.2168 404.618C57.1494 404.618 57.9551 404.718 58.6338 404.918C59.3174 405.118 59.8398 405.411 60.2012 405.797C60.5625 406.178 60.7432 406.634 60.7432 407.167C60.7432 407.699 60.5625 408.155 60.2012 408.536C59.8398 408.917 59.3198 409.205 58.6411 409.4C57.9624 409.601 57.1543 409.701 56.2168 409.701C55.2842 409.701 54.4785 409.601 53.7998 409.4C53.126 409.205 52.6084 408.917 52.2471 408.536C51.8906 408.155 51.7148 407.699 51.7197 407.167C51.7148 406.634 51.8906 406.178 52.2471 405.797C52.6084 405.411 53.1284 405.118 53.8071 404.918C54.4858 404.718 55.2891 404.618 56.2168 404.618ZM56.2168 405.877C55.2891 405.877 54.5762 405.99 54.0781 406.214C53.5801 406.434 53.3311 406.751 53.3311 407.167C53.3311 407.572 53.5801 407.884 54.0781 408.104C54.5811 408.319 55.2939 408.426 56.2168 408.426C57.1396 408.426 57.8525 408.316 58.3555 408.097C58.8633 407.877 59.1172 407.567 59.1172 407.167C59.1172 406.751 58.8657 406.434 58.3628 406.214C57.8599 405.99 57.1445 405.877 56.2168 405.877ZM73.6045 406.053H71.9639V396.488H73.6045V406.053ZM73.9707 409.452H64.8447V405.086H66.4854V408.133H73.9707V409.452ZM66.3828 397.352C67.0469 397.352 67.6499 397.496 68.1919 397.784C68.7339 398.067 69.1611 398.46 69.4736 398.963C69.7861 399.466 69.9424 400.033 69.9424 400.663C69.9424 401.302 69.7861 401.876 69.4736 402.384C69.1611 402.887 68.7339 403.28 68.1919 403.563C67.6499 403.846 67.0469 403.988 66.3828 403.988C65.7139 403.988 65.106 403.846 64.5591 403.563C64.0171 403.28 63.5898 402.887 63.2773 402.384C62.9648 401.876 62.8086 401.302 62.8086 400.663C62.8086 400.033 62.9648 399.466 63.2773 398.963C63.5898 398.46 64.0171 398.067 64.5591 397.784C65.106 397.496 65.7139 397.352 66.3828 397.352ZM66.3828 398.773C66.0068 398.773 65.6675 398.851 65.3647 399.007C65.062 399.164 64.8252 399.386 64.6543 399.674C64.4834 399.962 64.4004 400.292 64.4053 400.663C64.4004 401.043 64.4834 401.378 64.6543 401.666C64.8252 401.954 65.062 402.176 65.3647 402.333C65.6675 402.489 66.0068 402.567 66.3828 402.567C66.749 402.567 67.0811 402.489 67.3789 402.333C67.6768 402.176 67.9111 401.954 68.082 401.666C68.2578 401.378 68.3457 401.043 68.3457 400.663C68.3457 400.292 68.2578 399.962 68.082 399.674C67.9111 399.386 67.6768 399.164 67.3789 399.007C67.0811 398.851 66.749 398.773 66.3828 398.773ZM79.5371 407.035L83.2871 403.417C83.6924 403.011 84.0049 402.679 84.2246 402.42C84.4492 402.157 84.6201 401.898 84.7373 401.644C84.8545 401.385 84.9131 401.112 84.9131 400.824C84.9131 400.501 84.835 400.218 84.6787 399.974C84.5225 399.73 84.3052 399.542 84.0269 399.41C83.7534 399.278 83.4434 399.212 83.0967 399.212C82.7354 399.212 82.418 399.286 82.1445 399.432C81.876 399.574 81.6685 399.779 81.522 400.047C81.3755 400.311 81.3047 400.619 81.3096 400.97H79.4932C79.4883 400.311 79.6396 399.732 79.9473 399.234C80.2549 398.731 80.6821 398.343 81.229 398.07C81.7808 397.796 82.4082 397.66 83.1113 397.66C83.8242 397.66 84.4541 397.792 85.001 398.055C85.5527 398.319 85.98 398.685 86.2827 399.154C86.5903 399.618 86.7441 400.145 86.7441 400.736C86.7441 401.146 86.6636 401.542 86.5024 401.922C86.3462 402.303 86.0776 402.726 85.6968 403.189C85.3159 403.648 84.7764 404.208 84.0781 404.867L82.1885 406.742V406.815H86.9053V408.412H79.5371V407.035ZM102.784 404.266H101.158V402.435H98.4922V403.46H92.2666V397.469H98.4922V398.495H101.158V396.473H102.784V404.266ZM93.8926 402.157H96.8809V398.758H93.8926V402.157ZM98.3018 404.618C99.2344 404.618 100.04 404.718 100.719 404.918C101.402 405.118 101.925 405.411 102.286 405.797C102.647 406.178 102.828 406.634 102.828 407.167C102.828 407.699 102.647 408.155 102.286 408.536C101.925 408.917 101.405 409.205 100.726 409.4C100.047 409.601 99.2393 409.701 98.3018 409.701C97.3691 409.701 96.5635 409.601 95.8848 409.4C95.2109 409.205 94.6934 408.917 94.332 408.536C93.9756 408.155 93.7998 407.699 93.8047 407.167C93.7998 406.634 93.9756 406.178 94.332 405.797C94.6934 405.411 95.2134 405.118 95.8921 404.918C96.5708 404.718 97.374 404.618 98.3018 404.618ZM98.3018 405.863C97.374 405.863 96.6611 405.975 96.1631 406.2C95.665 406.419 95.416 406.742 95.416 407.167C95.416 407.577 95.665 407.892 96.1631 408.111C96.666 408.331 97.3789 408.441 98.3018 408.441C99.2295 408.441 99.9448 408.331 100.448 408.111C100.951 407.892 101.202 407.577 101.202 407.167C101.202 406.742 100.951 406.419 100.448 406.2C99.9448 405.975 99.2295 405.863 98.3018 405.863ZM101.158 401.117V399.784H98.4922V401.117H101.158ZM106.007 411.473H104.615L105.377 407.372H107.237L106.007 411.473ZM115.602 397.44C116.266 397.44 116.856 397.633 117.374 398.019C117.892 398.399 118.297 398.944 118.59 399.652C118.888 400.355 119.039 401.175 119.044 402.113C119.039 403.06 118.888 403.888 118.59 404.596C118.297 405.304 117.892 405.848 117.374 406.229C116.856 406.61 116.266 406.8 115.602 406.8C114.933 406.8 114.337 406.61 113.814 406.229C113.292 405.843 112.884 405.296 112.591 404.588C112.298 403.88 112.154 403.055 112.159 402.113C112.154 401.18 112.298 400.36 112.591 399.652C112.884 398.944 113.292 398.399 113.814 398.019C114.337 397.633 114.933 397.44 115.602 397.44ZM115.602 398.905C115.23 398.905 114.903 399.034 114.62 399.293C114.337 399.547 114.117 399.916 113.961 400.399C113.805 400.877 113.727 401.449 113.727 402.113C113.727 402.782 113.805 403.358 113.961 403.841C114.117 404.325 114.337 404.696 114.62 404.955C114.903 405.208 115.23 405.335 115.602 405.335C115.978 405.335 116.307 405.208 116.59 404.955C116.874 404.696 117.091 404.325 117.242 403.841C117.398 403.358 117.477 402.782 117.477 402.113C117.477 401.449 117.398 400.875 117.242 400.392C117.091 399.908 116.874 399.54 116.59 399.286C116.307 399.032 115.978 398.905 115.602 398.905ZM122.413 401.556H124.449V402.933H122.413V409.715H120.787V396.473H122.413V401.556ZM137.091 404.12H125.006V402.816H130.25V401.556H126.485V397.074H135.626V398.348H128.111V400.267H135.699V401.556H131.847V402.816H137.091V404.12ZM131.026 404.881C131.979 404.881 132.796 404.977 133.48 405.167C134.164 405.353 134.688 405.626 135.055 405.987C135.421 406.349 135.606 406.786 135.611 407.298C135.606 407.806 135.421 408.241 135.055 408.602C134.688 408.963 134.161 409.239 133.473 409.43C132.789 409.62 131.974 409.715 131.026 409.715C130.069 409.715 129.244 409.62 128.551 409.43C127.857 409.239 127.328 408.963 126.961 408.602C126.595 408.241 126.412 407.806 126.412 407.298C126.412 406.786 126.595 406.349 126.961 405.987C127.328 405.626 127.855 405.353 128.543 405.167C129.237 404.977 130.064 404.881 131.026 404.881ZM131.026 406.126C130.06 406.126 129.322 406.227 128.814 406.427C128.312 406.627 128.062 406.917 128.067 407.298C128.062 407.679 128.312 407.967 128.814 408.163C129.317 408.358 130.055 408.456 131.026 408.456C131.979 408.456 132.708 408.358 133.216 408.163C133.724 407.967 133.98 407.679 133.985 407.298C133.98 406.917 133.722 406.627 133.209 406.427C132.701 406.227 131.974 406.126 131.026 406.126ZM145.88 408.558C145.03 408.558 144.3 408.346 143.69 407.921C143.084 407.491 142.618 406.869 142.291 406.053C141.969 405.238 141.808 404.256 141.808 403.109C141.808 401.966 141.969 400.987 142.291 400.172C142.618 399.352 143.087 398.729 143.697 398.304C144.308 397.875 145.035 397.66 145.88 397.66C146.72 397.66 147.445 397.875 148.055 398.304C148.67 398.729 149.139 399.352 149.461 400.172C149.789 400.987 149.952 401.966 149.952 403.109C149.952 404.256 149.789 405.238 149.461 406.053C149.139 406.869 148.673 407.491 148.062 407.921C147.457 408.346 146.729 408.558 145.88 408.558ZM145.88 406.961C146.329 406.961 146.712 406.817 147.03 406.529C147.352 406.236 147.599 405.804 147.77 405.233C147.945 404.657 148.033 403.949 148.033 403.109C148.033 402.279 147.945 401.576 147.77 401C147.599 400.418 147.352 399.981 147.03 399.688C146.708 399.391 146.324 399.242 145.88 399.242C145.436 399.242 145.052 399.391 144.73 399.688C144.408 399.981 144.159 400.418 143.983 401C143.812 401.576 143.727 402.279 143.727 403.109C143.727 403.949 143.812 404.657 143.983 405.233C144.159 405.804 144.405 406.236 144.723 406.529C145.045 406.817 145.431 406.961 145.88 406.961ZM165.758 404.266H164.132V402.435H161.466V403.46H155.24V397.469H161.466V398.495H164.132V396.473H165.758V404.266ZM156.866 402.157H159.854V398.758H156.866V402.157ZM161.275 404.618C162.208 404.618 163.014 404.718 163.692 404.918C164.376 405.118 164.898 405.411 165.26 405.797C165.621 406.178 165.802 406.634 165.802 407.167C165.802 407.699 165.621 408.155 165.26 408.536C164.898 408.917 164.378 409.205 163.7 409.4C163.021 409.601 162.213 409.701 161.275 409.701C160.343 409.701 159.537 409.601 158.858 409.4C158.185 409.205 157.667 408.917 157.306 408.536C156.949 408.155 156.773 407.699 156.778 407.167C156.773 406.634 156.949 406.178 157.306 405.797C157.667 405.411 158.187 405.118 158.866 404.918C159.544 404.718 160.348 404.618 161.275 404.618ZM161.275 405.863C160.348 405.863 159.635 405.975 159.137 406.2C158.639 406.419 158.39 406.742 158.39 407.167C158.39 407.577 158.639 407.892 159.137 408.111C159.64 408.331 160.353 408.441 161.275 408.441C162.203 408.441 162.918 408.331 163.421 408.111C163.924 407.892 164.176 407.577 164.176 407.167C164.176 406.742 163.924 406.419 163.421 406.2C162.918 405.975 162.203 405.863 161.275 405.863ZM164.132 401.117V399.784H161.466V401.117H164.132Z" fill="#E8E4DC"/>
</g>
<g id="Frame">
<path id="Vector_7" d="M358.513 405.414L354.513 401.414L350.513 405.414" stroke="#E8E4DC" stroke-width="1.3" stroke-linecap="round" stroke-linejoin="round"/>
</g>
</g>
<g id="Container_3" filter="url(#filter3_dd_123_13904)">
<path d="M32.1709 462.9C32.1709 454.064 39.3343 446.9 48.1709 446.9H361.516C370.353 446.9 377.516 454.064 377.516 462.9V576.895C377.516 585.732 370.353 592.895 361.516 592.895H48.1709C39.3343 592.895 32.1709 585.732 32.1709 576.895V462.9Z" fill="#262B28"/>
<path d="M48.1709 447.4H361.517C370.077 447.401 377.017 454.34 377.017 462.9V576.896C377.017 585.456 370.077 592.395 361.517 592.396H48.1709C39.6105 592.396 32.671 585.456 32.6709 576.896V462.9C32.6709 454.34 39.6105 447.4 48.1709 447.4Z" stroke="#373F3B"/>
<g id="Container_4">
<g id="Text">
<path id="&#236;&#132;&#177;&#236;&#157;&#184;" d="M61.459 483.869C61.4443 485.67 62.499 487.311 64.5791 487.97L63.7002 489.245C62.2573 488.739 61.2466 487.78 60.6826 486.52C60.0967 487.963 58.9907 489.098 57.3867 489.655L56.5225 488.336C58.7197 487.619 59.8184 485.846 59.8184 483.942V482.682H61.459V483.869ZM67.6992 481.964V489.757H66.0732V485.861H63.4365V484.528H66.0732V481.964H67.6992ZM63.2168 490.109C66.0293 490.109 67.7432 491.046 67.7432 492.658C67.7432 494.269 66.0293 495.192 63.2168 495.192C60.4189 495.192 58.7051 494.269 58.7197 492.658C58.7051 491.046 60.4189 490.109 63.2168 490.109ZM63.2168 491.369C61.3711 491.369 60.3311 491.823 60.3311 492.658C60.3311 493.463 61.3711 493.917 63.2168 493.917C65.0625 493.917 66.1172 493.463 66.1172 492.658C66.1172 491.823 65.0625 491.369 63.2168 491.369ZM80.6045 481.979V491.544H78.9639V481.979H80.6045ZM80.9707 493.625V494.943H71.8447V490.578H73.4854V493.625H80.9707ZM73.3828 482.843C75.3896 482.843 76.9424 484.235 76.9424 486.154C76.9424 488.117 75.3896 489.479 73.3828 489.479C71.3613 489.479 69.8086 488.117 69.8086 486.154C69.8086 484.235 71.3613 482.843 73.3828 482.843ZM73.3828 484.264C72.2549 484.264 71.3906 485.011 71.4053 486.154C71.3906 487.326 72.2549 488.058 73.3828 488.058C74.4814 488.058 75.3457 487.326 75.3457 486.154C75.3457 485.011 74.4814 484.264 73.3828 484.264Z" fill="#E8E4DC"/>
</g>
<g id="Container_5">
<g id="Button_3">
<mask id="path-25-inside-1_123_13904" fill="white">
<path d="M209.549 488.899C209.549 478.959 217.608 470.9 227.548 470.9C237.489 470.9 245.547 478.959 245.547 488.899C245.547 498.84 237.489 506.898 227.548 506.898C217.608 506.898 209.549 498.84 209.549 488.899Z"/>
</mask>
<path d="M227.548 506.898V505.399C218.435 505.399 211.048 498.012 211.048 488.899H209.549H208.051C208.051 499.667 216.78 508.396 227.548 508.396V506.898ZM245.547 488.899H244.048C244.048 498.012 236.661 505.399 227.548 505.399V506.898V508.396C238.316 508.396 247.045 499.667 247.045 488.899H245.547ZM227.548 470.9V472.399C236.661 472.399 244.048 479.786 244.048 488.899H245.547H247.045C247.045 478.131 238.316 469.402 227.548 469.402V470.9ZM227.548 470.9V469.402C216.78 469.402 208.051 478.131 208.051 488.899H209.549H211.048C211.048 479.786 218.435 472.399 227.548 472.399V470.9Z" fill="#373F3B" mask="url(#path-25-inside-1_123_13904)"/>
<g id="Icon_3">
<path id="Vector_8" d="M222.878 488.899H232.207" stroke="#7A7873" stroke-width="1.33259" stroke-linecap="round" stroke-linejoin="round"/>
</g>
</g>
<g id="Text_2">
<path id="2" d="M277.827 494.147V492.679L281.827 488.819C282.968 487.679 283.562 487.007 283.562 486.054C283.562 485.007 282.733 484.335 281.624 484.335C280.452 484.335 279.702 485.069 279.718 486.21H277.78C277.765 484.069 279.374 482.679 281.64 482.679C283.952 482.679 285.515 484.054 285.515 485.96C285.515 487.241 284.89 488.272 282.671 490.366L280.655 492.366V492.444H285.687V494.147H277.827Z" fill="#E8E4DC"/>
</g>
<g id="Button_4">
<mask id="path-29-inside-2_123_13904" fill="white">
<path d="M317.519 488.899C317.519 478.959 325.577 470.9 335.517 470.9C345.458 470.9 353.516 478.959 353.516 488.899C353.516 498.84 345.458 506.898 335.517 506.898C325.577 506.898 317.519 498.84 317.519 488.899Z"/>
</mask>
<path d="M335.517 506.898V505.399C326.404 505.399 319.017 498.012 319.017 488.899H317.519H316.02C316.02 499.667 324.749 508.396 335.517 508.396V506.898ZM353.516 488.899H352.018C352.018 498.012 344.63 505.399 335.517 505.399V506.898V508.396C346.285 508.396 355.014 499.667 355.014 488.899H353.516ZM335.517 470.9V472.399C344.63 472.399 352.018 479.786 352.018 488.899H353.516H355.014C355.014 478.131 346.285 469.402 335.517 469.402V470.9ZM335.517 470.9V469.402C324.749 469.402 316.02 478.131 316.02 488.899H317.519H319.017C319.017 479.786 326.404 472.399 335.517 472.399V470.9Z" fill="#373F3B" mask="url(#path-29-inside-2_123_13904)"/>
<g id="Icon_4">
<path id="Vector_9" d="M330.848 488.899H340.176" stroke="#7A7873" stroke-width="1.33259" stroke-linecap="round" stroke-linejoin="round"/>
<path id="Vector_10" d="M335.512 484.235V493.563" stroke="#7A7873" stroke-width="1.33259" stroke-linecap="round" stroke-linejoin="round"/>
</g>
</g>
</g>
</g>
<g id="Container_6">
<g id="Text_3">
<path id="&#236;&#149;&#132;&#235;&#143;&#153;" d="M60.1699 544.928C62.1621 544.928 63.5977 546.745 63.6123 549.601C63.5977 552.487 62.1621 554.289 60.1699 554.289C58.1631 554.289 56.7129 552.487 56.7275 549.601C56.7129 546.745 58.1631 544.928 60.1699 544.928ZM60.1699 546.393C59.0566 546.393 58.2949 547.58 58.2949 549.601C58.2949 551.637 59.0566 552.824 60.1699 552.824C61.2979 552.824 62.0449 551.637 62.0449 549.601C62.0449 547.58 61.2979 546.393 60.1699 546.393ZM66.9814 543.961V549.044H69.0176V550.421H66.9814V557.204H65.3555V543.961H66.9814ZM81.6592 550.304V551.608H69.5742V550.304H74.8184V549.044H71.0537V544.562H80.1943V545.836H72.6797V547.755H80.2676V549.044H76.415V550.304H81.6592ZM75.5947 552.37C78.4512 552.37 80.165 553.234 80.1797 554.787C80.165 556.325 78.4512 557.204 75.5947 557.204C72.709 557.204 70.9805 556.325 70.9805 554.787C70.9805 553.234 72.709 552.37 75.5947 552.37ZM75.5947 553.615C73.6611 553.615 72.6211 554.025 72.6357 554.787C72.6211 555.548 73.6611 555.944 75.5947 555.944C77.4844 555.944 78.5391 555.548 78.5537 554.787C78.5391 554.025 77.4844 553.615 75.5947 553.615Z" fill="#E8E4DC"/>
</g>
<g id="Container_7">
<g id="Text_4">
<path id="0" d="M282.368 556.301C281.462 556.301 280.683 556.075 280.032 555.622C279.386 555.163 278.889 554.499 278.54 553.629C278.196 552.76 278.024 551.713 278.024 550.489C278.024 549.27 278.196 548.226 278.54 547.356C278.889 546.481 279.389 545.817 280.04 545.364C280.691 544.905 281.467 544.676 282.368 544.676C283.264 544.676 284.037 544.905 284.688 545.364C285.345 545.817 285.845 546.481 286.188 547.356C286.537 548.226 286.712 549.27 286.712 550.489C286.712 551.713 286.537 552.76 286.188 553.629C285.845 554.499 285.347 555.163 284.696 555.622C284.05 556.075 283.274 556.301 282.368 556.301ZM282.368 554.598C282.847 554.598 283.256 554.444 283.595 554.137C283.938 553.825 284.201 553.364 284.384 552.754C284.571 552.14 284.665 551.385 284.665 550.489C284.665 549.603 284.571 548.853 284.384 548.239C284.201 547.619 283.938 547.153 283.595 546.84C283.251 546.523 282.842 546.364 282.368 546.364C281.894 546.364 281.485 546.523 281.142 546.84C280.798 547.153 280.532 547.619 280.345 548.239C280.162 548.853 280.071 549.603 280.071 550.489C280.071 551.385 280.162 552.14 280.345 552.754C280.532 553.364 280.795 553.825 281.134 554.137C281.478 554.444 281.889 554.598 282.368 554.598Z" fill="#E8E4DC"/>
</g>
<g id="Button_5">
<mask id="path-35-inside-3_123_13904" fill="white">
<path d="M317.53 550.897C317.53 540.956 325.588 532.898 335.529 532.898C345.469 532.898 353.527 540.956 353.527 550.897C353.527 560.837 345.469 568.895 335.529 568.895C325.588 568.895 317.53 560.837 317.53 550.897Z"/>
</mask>
<path d="M335.529 568.895V567.397C326.416 567.397 319.028 560.01 319.028 550.897H317.53H316.031C316.031 561.665 324.761 570.394 335.529 570.394V568.895ZM353.527 550.897H352.029C352.029 560.01 344.641 567.397 335.529 567.397V568.895V570.394C346.297 570.394 355.026 561.665 355.026 550.897H353.527ZM335.529 532.898V534.396C344.641 534.396 352.029 541.784 352.029 550.897H353.527H355.026C355.026 540.129 346.297 531.4 335.529 531.4V532.898ZM335.529 532.898V531.4C324.761 531.4 316.031 540.129 316.031 550.897H317.53H319.028C319.028 541.784 326.416 534.396 335.529 534.396V532.898Z" fill="#373F3B" mask="url(#path-35-inside-3_123_13904)"/>
<g id="Icon_5">
<path id="Vector_11" d="M330.859 550.897H340.187" stroke="#7A7873" stroke-width="1.33259" stroke-linecap="round" stroke-linejoin="round"/>
<path id="Vector_12" d="M335.523 546.233V555.561" stroke="#7A7873" stroke-width="1.33259" stroke-linecap="round" stroke-linejoin="round"/>
</g>
</g>
</g>
</g>
</g>
</g>
</g>
<g id="BudgetField">
<g id="Paragraph_6">
<path id="&#236;&#152;&#136;&#236;&#130;&#176;" d="M43.0742 621.787V634.146H41.6113V621.787H43.0742ZM40.5723 622.006V633.545H39.1367V629.648H37.5234C37.0654 630.865 36.2451 631.556 35.1992 631.549C33.5859 631.562 32.5332 629.854 32.5332 627.133C32.5332 624.412 33.5859 622.73 35.1992 622.73C36.2451 622.73 37.0586 623.414 37.5234 624.617H39.1367V622.006H40.5723ZM35.1992 624.166C34.3926 624.152 33.9141 625.205 33.9277 627.133C33.9141 629.061 34.3926 630.113 35.1992 630.1C36.0195 630.113 36.5254 629.061 36.5254 627.133C36.5254 625.205 36.0195 624.152 35.1992 624.166ZM37.8242 625.848C37.8857 626.244 37.9199 626.675 37.9199 627.133C37.9199 627.584 37.8857 628.008 37.8379 628.404H39.1367V625.848H37.8242ZM48.9395 623.975C48.9258 625.602 49.9512 627.146 51.8926 627.775L51.0996 628.979C49.7256 628.514 48.7549 627.584 48.2148 626.395C47.6611 627.707 46.6426 628.732 45.207 629.238L44.3594 628.035C46.3965 627.379 47.4082 625.711 47.4082 623.961V622.553H48.9395V623.975ZM54.2578 621.787V625.438H55.9805V626.723H54.2578V630.865H52.7402V621.787H54.2578ZM54.75 632.67V633.9H46.3418V629.977H47.9004V632.67H54.75Z" fill="#B8B5AE"/>
</g>
<g id="Container_8">
<g id="Text_5">
<path id="&#236;&#149;&#189;" d="M59.6855 672.637H57.8838V674.16H59.6855V675.522H57.8838V677.295H56.2578V669.473H57.8838V671.318H59.6855V672.637ZM57.8838 682.715H56.2578V679.185H49.0654V677.866H57.8838V682.715ZM51.1602 670.234C51.8291 670.229 52.4346 670.364 52.9766 670.637C53.5186 670.906 53.9458 671.284 54.2583 671.772C54.5708 672.256 54.7295 672.803 54.7344 673.413C54.7295 674.033 54.5708 674.587 54.2583 675.076C53.9507 675.559 53.5259 675.938 52.9839 676.211C52.4419 676.484 51.834 676.621 51.1602 676.621C50.4814 676.621 49.8687 676.484 49.3218 676.211C48.7798 675.938 48.3525 675.559 48.04 675.076C47.7324 674.587 47.5811 674.033 47.5859 673.413C47.5811 672.803 47.7324 672.256 48.04 671.772C48.3525 671.284 48.7822 670.906 49.3291 670.637C49.876 670.364 50.4863 670.229 51.1602 670.234ZM51.1602 671.611C50.7793 671.616 50.4375 671.694 50.1348 671.846C49.832 671.992 49.5952 672.202 49.4243 672.476C49.2583 672.744 49.1777 673.057 49.1826 673.413C49.1777 673.779 49.2583 674.102 49.4243 674.38C49.5952 674.658 49.832 674.871 50.1348 675.017C50.4375 675.164 50.7793 675.234 51.1602 675.229C51.5361 675.234 51.873 675.164 52.1709 675.017C52.4736 674.871 52.7104 674.658 52.8813 674.38C53.0522 674.102 53.1377 673.779 53.1377 673.413C53.1377 673.057 53.0522 672.744 52.8813 672.476C52.7104 672.202 52.4736 671.992 52.1709 671.846C51.873 671.694 51.5361 671.616 51.1602 671.611Z" fill="#7A7873"/>
</g>
<g id="Text Input_2" filter="url(#filter4_dd_123_13904)">
<path d="M71.9702 669.414C71.9702 660.577 79.1337 653.414 87.9702 653.414H111.97C120.807 653.414 127.97 660.577 127.97 669.414V683.414C127.97 692.25 120.807 699.414 111.97 699.414H87.9702C79.1337 699.414 71.9702 692.25 71.9702 683.414V669.414Z" fill="#262B28"/>
<path d="M87.9702 653.914H111.97C120.531 653.914 127.47 660.853 127.47 669.414V683.414C127.47 691.974 120.531 698.914 111.97 698.914H87.9702C79.4098 698.914 72.4702 691.974 72.4702 683.414V669.414C72.4702 660.853 79.4098 653.914 87.9702 653.914Z" stroke="#373F3B"/>
<path id="30" d="M95.1729 681.56C94.4258 681.56 93.7568 681.433 93.166 681.179C92.5752 680.925 92.1113 680.571 91.7744 680.117C91.4375 679.658 91.2617 679.133 91.2471 678.542H93.166C93.1855 678.821 93.2832 679.067 93.459 679.282C93.6396 679.492 93.8789 679.656 94.1768 679.773C94.4746 679.89 94.8066 679.949 95.1729 679.949C95.5586 679.949 95.9028 679.883 96.2056 679.751C96.5132 679.614 96.7524 679.426 96.9233 679.187C97.0942 678.948 97.1797 678.674 97.1797 678.367C97.1797 678.049 97.0918 677.766 96.916 677.517C96.7402 677.268 96.4863 677.075 96.1543 676.938C95.8223 676.797 95.4316 676.726 94.9824 676.726H94.0303V675.261H94.9824C95.3535 675.261 95.6831 675.198 95.9712 675.071C96.2642 674.939 96.4912 674.756 96.6523 674.521C96.8135 674.282 96.8916 674.011 96.8867 673.708C96.8916 673.416 96.8232 673.157 96.6816 672.932C96.5449 672.703 96.3472 672.527 96.0884 672.405C95.8296 672.278 95.5293 672.214 95.1875 672.214C94.8555 672.214 94.5454 672.275 94.2573 672.397C93.9741 672.515 93.7446 672.683 93.5688 672.903C93.3979 673.123 93.3076 673.376 93.2979 673.665H91.4668C91.4814 673.079 91.6523 672.559 91.9795 672.104C92.3115 671.65 92.7583 671.296 93.3198 671.042C93.8862 670.789 94.5137 670.662 95.2021 670.662C95.9004 670.662 96.5181 670.793 97.0552 671.057C97.5923 671.316 98.0073 671.67 98.3003 672.119C98.5933 672.568 98.7373 673.064 98.7324 673.606C98.7373 673.997 98.6592 674.351 98.498 674.668C98.3369 674.985 98.1099 675.249 97.8169 675.459C97.5239 675.669 97.1846 675.813 96.7988 675.891V675.979C97.292 676.047 97.7144 676.194 98.0659 676.418C98.4175 676.638 98.6836 676.924 98.8643 677.275C99.0449 677.627 99.1328 678.025 99.1279 678.469C99.1328 679.055 98.9644 679.585 98.6226 680.059C98.2856 680.527 97.8145 680.896 97.209 681.165C96.6084 681.428 95.9297 681.56 95.1729 681.56ZM104.709 681.56C103.859 681.56 103.129 681.348 102.519 680.923C101.914 680.493 101.447 679.871 101.12 679.055C100.798 678.24 100.637 677.258 100.637 676.111C100.637 674.968 100.798 673.989 101.12 673.174C101.447 672.354 101.916 671.731 102.526 671.306C103.137 670.876 103.864 670.662 104.709 670.662C105.549 670.662 106.274 670.876 106.884 671.306C107.5 671.731 107.968 672.354 108.291 673.174C108.618 673.989 108.781 674.968 108.781 676.111C108.781 677.258 108.618 678.24 108.291 679.055C107.968 679.871 107.502 680.493 106.892 680.923C106.286 681.348 105.559 681.56 104.709 681.56ZM104.709 679.963C105.158 679.963 105.542 679.819 105.859 679.531C106.181 679.238 106.428 678.806 106.599 678.235C106.774 677.659 106.862 676.951 106.862 676.111C106.862 675.281 106.774 674.578 106.599 674.001C106.428 673.42 106.181 672.983 105.859 672.69C105.537 672.393 105.153 672.244 104.709 672.244C104.265 672.244 103.881 672.393 103.559 672.69C103.237 672.983 102.988 673.42 102.812 674.001C102.641 674.578 102.556 675.281 102.556 676.111C102.556 676.951 102.641 677.659 102.812 678.235C102.988 678.806 103.234 679.238 103.552 679.531C103.874 679.819 104.26 679.963 104.709 679.963Z" fill="#E8E4DC"/>
</g>
<g id="Text_6">
<path id="&#235;&#167;&#140;&#236;&#155;&#144;" d="M147.132 676.87H140.863V670.615H147.132V676.87ZM142.459 675.581H145.536V671.919H142.459V675.581ZM150.853 673.354H152.699V674.717H150.853V679.141H149.227V669.473H150.853V673.354ZM151.38 682.451H142.372V678.203H143.998V681.133H151.38V682.451ZM164.476 679.507H162.835V678.35H160.243V677.207H162.835V669.487H164.476V679.507ZM164.784 682.451H155.072V678.54H156.698V681.133H164.784V682.451ZM153.314 675.435C155.033 675.425 156.576 675.396 157.943 675.347C159.31 675.298 160.614 675.195 161.854 675.039L161.942 676.211C160.882 676.387 159.769 676.514 158.602 676.592V679.141H156.976V676.68C156.034 676.719 154.881 676.738 153.519 676.738L153.314 675.435ZM157.635 669.971C158.275 669.971 158.841 670.071 159.334 670.271C159.833 670.466 160.221 670.742 160.499 671.099C160.782 671.45 160.926 671.855 160.931 672.314C160.926 672.783 160.785 673.193 160.506 673.545C160.228 673.896 159.84 674.167 159.342 674.358C158.844 674.548 158.275 674.644 157.635 674.644C156.986 674.644 156.41 674.548 155.907 674.358C155.409 674.167 155.021 673.896 154.742 673.545C154.464 673.193 154.325 672.783 154.325 672.314C154.325 671.855 154.464 671.45 154.742 671.099C155.021 670.742 155.409 670.466 155.907 670.271C156.41 670.071 156.986 669.971 157.635 669.971ZM157.635 671.172C157.103 671.172 156.673 671.274 156.346 671.479C156.024 671.68 155.863 671.958 155.863 672.314C155.863 672.671 156.024 672.952 156.346 673.157C156.673 673.357 157.103 673.457 157.635 673.457C158.148 673.457 158.565 673.354 158.888 673.149C159.21 672.944 159.374 672.666 159.378 672.314C159.374 671.963 159.21 671.685 158.888 671.479C158.565 671.274 158.148 671.172 157.635 671.172Z" fill="#7A7873"/>
</g>
</g>
</g>
</g>
</g>
<g id="Container_9">
<g id="Icon_6" clip-path="url(#clip0_123_13904)">
<path id="Vector_13" d="M163.669 25.9941H245.669" stroke="#7A7873" stroke-width="7.99775" stroke-linecap="round"/>
</g>
</g>
</g>
<defs>
<filter id="filter0_dd_123_13904" x="0" y="129.991" width="409.342" height="118.974" filterUnits="userSpaceOnUse" color-interpolation-filters="sRGB">
<feFlood flood-opacity="0" result="BackgroundImageFix"/>
<feColorMatrix in="SourceAlpha" type="matrix" values="0 0 0 0 0 0 0 0 0 0 0 0 0 0 0 0 0 0 127 0" result="hardAlpha"/>
<feOffset dy="8"/>
<feGaussianBlur stdDeviation="16"/>
<feColorMatrix type="matrix" values="0 0 0 0 0 0 0 0 0 0 0 0 0 0 0 0 0 0 0.5 0"/>
<feBlend mode="normal" in2="BackgroundImageFix" result="effect1_dropShadow_123_13904"/>
<feColorMatrix in="SourceAlpha" type="matrix" values="0 0 0 0 0 0 0 0 0 0 0 0 0 0 0 0 0 0 127 0" result="hardAlpha"/>
<feOffset dy="2"/>
<feGaussianBlur stdDeviation="4"/>
<feColorMatrix type="matrix" values="0 0 0 0 0 0 0 0 0 0 0 0 0 0 0 0 0 0 0.25 0"/>
<feBlend mode="normal" in2="effect1_dropShadow_123_13904" result="effect2_dropShadow_123_13904"/>
<feBlend mode="normal" in="SourceGraphic" in2="effect2_dropShadow_123_13904" result="shape"/>
</filter>
<filter id="filter1_dd_123_13904" x="0" y="240.959" width="409.342" height="118.974" filterUnits="userSpaceOnUse" color-interpolation-filters="sRGB">
<feFlood flood-opacity="0" result="BackgroundImageFix"/>
<feColorMatrix in="SourceAlpha" type="matrix" values="0 0 0 0 0 0 0 0 0 0 0 0 0 0 0 0 0 0 127 0" result="hardAlpha"/>
<feOffset dy="8"/>
<feGaussianBlur stdDeviation="16"/>
<feColorMatrix type="matrix" values="0 0 0 0 0 0 0 0 0 0 0 0 0 0 0 0 0 0 0.5 0"/>
<feBlend mode="normal" in2="BackgroundImageFix" result="effect1_dropShadow_123_13904"/>
<feColorMatrix in="SourceAlpha" type="matrix" values="0 0 0 0 0 0 0 0 0 0 0 0 0 0 0 0 0 0 127 0" result="hardAlpha"/>
<feOffset dy="2"/>
<feGaussianBlur stdDeviation="4"/>
<feColorMatrix type="matrix" values="0 0 0 0 0 0 0 0 0 0 0 0 0 0 0 0 0 0 0.25 0"/>
<feBlend mode="normal" in2="effect1_dropShadow_123_13904" result="effect2_dropShadow_123_13904"/>
<feBlend mode="normal" in="SourceGraphic" in2="effect2_dropShadow_123_13904" result="shape"/>
</filter>
<filter id="filter2_dd_123_13904" x="0.170898" y="351.927" width="409.342" height="118.974" filterUnits="userSpaceOnUse" color-interpolation-filters="sRGB">
<feFlood flood-opacity="0" result="BackgroundImageFix"/>
<feColorMatrix in="SourceAlpha" type="matrix" values="0 0 0 0 0 0 0 0 0 0 0 0 0 0 0 0 0 0 127 0" result="hardAlpha"/>
<feOffset dy="8"/>
<feGaussianBlur stdDeviation="16"/>
<feColorMatrix type="matrix" values="0 0 0 0 0 0 0 0 0 0 0 0 0 0 0 0 0 0 0.5 0"/>
<feBlend mode="normal" in2="BackgroundImageFix" result="effect1_dropShadow_123_13904"/>
<feColorMatrix in="SourceAlpha" type="matrix" values="0 0 0 0 0 0 0 0 0 0 0 0 0 0 0 0 0 0 127 0" result="hardAlpha"/>
<feOffset dy="2"/>
<feGaussianBlur stdDeviation="4"/>
<feColorMatrix type="matrix" values="0 0 0 0 0 0 0 0 0 0 0 0 0 0 0 0 0 0 0.25 0"/>
<feBlend mode="normal" in2="effect1_dropShadow_123_13904" result="effect2_dropShadow_123_13904"/>
<feBlend mode="normal" in="SourceGraphic" in2="effect2_dropShadow_123_13904" result="shape"/>
</filter>
<filter id="filter3_dd_123_13904" x="0.170898" y="422.9" width="409.345" height="209.995" filterUnits="userSpaceOnUse" color-interpolation-filters="sRGB">
<feFlood flood-opacity="0" result="BackgroundImageFix"/>
<feColorMatrix in="SourceAlpha" type="matrix" values="0 0 0 0 0 0 0 0 0 0 0 0 0 0 0 0 0 0 127 0" result="hardAlpha"/>
<feOffset dy="8"/>
<feGaussianBlur stdDeviation="16"/>
<feColorMatrix type="matrix" values="0 0 0 0 0 0 0 0 0 0 0 0 0 0 0 0 0 0 0.5 0"/>
<feBlend mode="normal" in2="BackgroundImageFix" result="effect1_dropShadow_123_13904"/>
<feColorMatrix in="SourceAlpha" type="matrix" values="0 0 0 0 0 0 0 0 0 0 0 0 0 0 0 0 0 0 127 0" result="hardAlpha"/>
<feOffset dy="2"/>
<feGaussianBlur stdDeviation="4"/>
<feColorMatrix type="matrix" values="0 0 0 0 0 0 0 0 0 0 0 0 0 0 0 0 0 0 0.25 0"/>
<feBlend mode="normal" in2="effect1_dropShadow_123_13904" result="effect2_dropShadow_123_13904"/>
<feBlend mode="normal" in="SourceGraphic" in2="effect2_dropShadow_123_13904" result="shape"/>
</filter>
<filter id="filter4_dd_123_13904" x="39.9702" y="629.414" width="120" height="110" filterUnits="userSpaceOnUse" color-interpolation-filters="sRGB">
<feFlood flood-opacity="0" result="BackgroundImageFix"/>
<feColorMatrix in="SourceAlpha" type="matrix" values="0 0 0 0 0 0 0 0 0 0 0 0 0 0 0 0 0 0 127 0" result="hardAlpha"/>
<feOffset dy="8"/>
<feGaussianBlur stdDeviation="16"/>
<feColorMatrix type="matrix" values="0 0 0 0 0 0 0 0 0 0 0 0 0 0 0 0 0 0 0.5 0"/>
<feBlend mode="normal" in2="BackgroundImageFix" result="effect1_dropShadow_123_13904"/>
<feColorMatrix in="SourceAlpha" type="matrix" values="0 0 0 0 0 0 0 0 0 0 0 0 0 0 0 0 0 0 127 0" result="hardAlpha"/>
<feOffset dy="2"/>
<feGaussianBlur stdDeviation="4"/>
<feColorMatrix type="matrix" values="0 0 0 0 0 0 0 0 0 0 0 0 0 0 0 0 0 0 0.25 0"/>
<feBlend mode="normal" in2="effect1_dropShadow_123_13904" result="effect2_dropShadow_123_13904"/>
<feBlend mode="normal" in="SourceGraphic" in2="effect2_dropShadow_123_13904" result="shape"/>
</filter>
<clipPath id="clip0_123_13904">
<rect width="89.9996" height="7.99554" fill="white" transform="translate(159.669 21.9966)"/>
</clipPath>
</defs>
</svg>
