<svg width="410" height="654" viewBox="0 0 410 654" fill="none" xmlns="http://www.w3.org/2000/svg">
<path d="M8 16C8 7.16345 15.1634 0 24 0H385C393.837 0 401 7.16344 401 16V654H8V16Z" fill="#F5F3EE"/>
<path d="M38.1553 73.9004C39.917 73.9004 41.3672 74.8779 42.2373 76.5859H46.7705V72.4824H49.1338V91.9258H46.7705V84.5781H42.4092C41.5713 86.5117 40.0352 87.6289 38.1553 87.6289C35.2334 87.6289 33.1709 84.9863 33.1709 80.7539C33.1709 76.5645 35.2334 73.9004 38.1553 73.9004ZM38.1553 76.0488C36.5439 76.0488 35.4482 77.7891 35.4697 80.7539C35.4482 83.7402 36.5439 85.4805 38.1553 85.4805C39.7666 85.4805 40.8408 83.7402 40.8623 80.7539C40.8408 77.7891 39.7666 76.0488 38.1553 76.0488ZM42.9033 78.541C43.043 79.2178 43.1182 79.959 43.1182 80.7539C43.1182 81.4307 43.0645 82.0537 42.9678 82.6445H46.7705V78.541H42.9033ZM68.4697 72.4824V84.6855H66.1924V79.4004H64.3018V84.041H62.0674V72.8691H64.3018V77.4668H66.1924V72.4824H68.4697ZM61.4229 74.5879V76.457H51.7549V74.5879H55.4287V72.6543H57.792V74.5879H61.4229ZM56.6104 77.252C59.0811 77.252 60.8213 78.584 60.8428 80.6035C60.8213 82.623 59.0811 83.9551 56.6104 83.9551C54.1826 83.9551 52.4209 82.623 52.4424 80.6035C52.4209 78.584 54.1826 77.252 56.6104 77.252ZM56.6104 78.9707C55.4072 78.9707 54.5693 79.5938 54.5693 80.6035C54.5693 81.6133 55.3857 82.2363 56.6104 82.2363C57.835 82.2363 58.6729 81.6133 58.6729 80.6035C58.6729 79.5938 57.835 78.9707 56.6104 78.9707ZM61.917 84.9219C66.0635 84.9219 68.5557 86.1895 68.5771 88.4238C68.5557 90.6152 66.0635 91.8828 61.917 91.8828C57.7705 91.8828 55.2568 90.6152 55.2568 88.4238C55.2568 86.1895 57.7705 84.9219 61.917 84.9219ZM61.917 86.748C59.1455 86.7266 57.6416 87.2852 57.6416 88.4238C57.6416 89.498 59.1455 90.0566 61.917 90.0566C64.667 90.0566 66.1709 89.498 66.1709 88.4238C66.1709 87.2852 64.667 86.7266 61.917 86.748ZM92.3604 72.4824V84.0195H89.9756V79.2715H86.667V77.3164H89.9756V72.4824H92.3604ZM85.7861 84.5137C89.9111 84.5137 92.4248 85.8672 92.4248 88.209C92.4248 90.5508 89.9111 91.9043 85.7861 91.9043C81.6826 91.9043 79.1689 90.5508 79.1904 88.209C79.1689 85.8672 81.6826 84.5137 85.7861 84.5137ZM85.7861 86.3398C83.0791 86.3398 81.5537 86.9844 81.5537 88.209C81.5537 89.4121 83.0791 90.0566 85.7861 90.0566C88.4932 90.0566 90.04 89.4121 90.04 88.209C90.04 86.9844 88.4932 86.3398 85.7861 86.3398ZM83.2295 75.8125C83.2295 78.1758 84.7979 80.5605 87.8057 81.5703L86.6025 83.4609C84.4434 82.7305 82.9072 81.248 82.0693 79.4219C81.21 81.4951 79.5879 83.1494 77.2783 83.9766L76.0322 82.0859C79.1475 81.0117 80.8018 78.3906 80.8018 75.834V75.6836H76.7627V73.75H87.2471V75.6836H83.2295V75.8125ZM112.856 87.6074V89.5625H95.1104V87.6074H102.759V83.8262H97.0654V73.7715H99.4502V76.9512H108.452V73.7715H110.837V83.8262H105.122V87.6074H112.856ZM99.4502 81.8926H108.452V78.8633H99.4502V81.8926ZM131.849 81.291V83.0957H114.103V81.291H131.849ZM129.7 84.2559V88.6816H118.571V90.0352H130.28V91.6895H116.187V87.1348H127.337V85.9316H116.165V84.2559H129.7ZM129.657 72.9121V77.2949H118.722V78.5625H130.001V80.1953H116.358V75.748H127.272V74.5664H116.294V72.9121H129.657ZM154.536 72.4824V82.9023H152.13V72.4824H154.536ZM144.052 83.8047V85.8027H152.151V83.8047H154.536V91.668H141.688V83.8047H144.052ZM144.052 89.7344H152.151V87.6719H144.052V89.7344ZM143.944 73.3418C146.931 73.3203 149.165 75.1895 149.165 77.8965C149.165 80.5391 146.931 82.4082 143.944 82.4082C140.937 82.4082 138.702 80.5391 138.702 77.8965C138.702 75.1895 140.937 73.3203 143.944 73.3418ZM143.944 75.3398C142.247 75.3398 141.022 76.3281 141.044 77.8965C141.022 79.4434 142.247 80.4316 143.944 80.4531C145.62 80.4316 146.823 79.4434 146.823 77.8965C146.823 76.3281 145.62 75.3398 143.944 75.3398ZM166.653 73.6426V79.4863H160.53V81.8711C163.646 81.8818 165.439 81.7852 167.491 81.3984L167.728 83.332C165.407 83.7188 163.388 83.7832 159.585 83.7832H158.167V77.7031H164.269V75.5332H158.124V73.6426H166.653ZM173.636 72.5039V84.4492H171.251V81.248H167.813V79.3359H171.251V77.166H167.813V75.2539H171.251V72.5039H173.636ZM173.636 85.373V91.9043H171.251V87.2852H160.358V85.373H173.636ZM185.86 75.5762V77.4883H176.343V75.5762H179.952V73.041H182.315V75.5762H185.86ZM181.134 78.5195C183.604 78.5195 185.366 80.3887 185.366 83.0312C185.366 85.7168 183.604 87.6074 181.134 87.6074C178.685 87.6074 176.88 85.7168 176.901 83.0312C176.88 80.3887 178.685 78.5195 181.134 78.5195ZM181.134 80.4961C179.866 80.4961 178.985 81.5059 179.007 83.0312C178.985 84.5996 179.866 85.5879 181.134 85.5664C182.38 85.5879 183.261 84.5996 183.261 83.0312C183.261 81.5059 182.38 80.4961 181.134 80.4961ZM193.079 72.4824V91.9043H190.802V82.4082H188.911V91.0234H186.677V72.8906H188.911V80.4746H190.802V72.4824H193.079ZM213.103 83.3105V85.2441H205.39V91.8828H203.026V85.2441H195.399V83.3105H213.103ZM211.47 73.5781V75.4688H205.647C205.787 77.5957 208.344 79.6367 212.179 80.1309L211.319 82C208.011 81.5381 205.433 80.0234 204.251 77.918C203.069 80.0234 200.491 81.5381 197.226 82L196.323 80.1309C200.137 79.6367 202.693 77.5957 202.876 75.4688H197.032V73.5781H211.47ZM220.472 77.5742C220.472 80.7109 221.567 83.9766 224.188 85.6309L222.878 87.457C221.127 86.4043 219.988 84.5889 219.354 82.4512C218.646 84.8037 217.399 86.791 215.573 87.9082L214.091 86.125C216.905 84.4062 218.173 80.9902 218.173 77.6816V74.2012H220.472V77.5742ZM231.171 72.4824V91.9043H228.872V72.4824H231.171ZM227.132 72.8262V90.959H224.876V81.1406H222.104V79.1641H224.876V72.8262H227.132ZM251.173 87.5859V89.541H233.427V87.5859H237.53V82.666C235.983 81.7852 235.049 80.3994 235.06 78.6699C235.038 75.5762 238.089 73.5352 242.257 73.5352C246.446 73.5352 249.497 75.5762 249.497 78.6699C249.497 80.3672 248.595 81.7314 247.091 82.623V87.5859H251.173ZM242.257 75.4258C239.356 75.4258 237.38 76.6504 237.401 78.6699C237.38 80.668 239.356 81.9141 242.257 81.9141C245.157 81.9141 247.155 80.668 247.155 78.6699C247.155 76.6504 245.157 75.4258 242.257 75.4258ZM239.894 87.5859H244.663V83.5254C243.922 83.6973 243.116 83.7832 242.257 83.7832C241.419 83.7832 240.624 83.6973 239.894 83.5469V87.5859Z" fill="#1A1A1A"/>
<path d="M35.7871 127.754C36.3431 127.754 36.8444 127.903 37.291 128.199C37.7422 128.495 38.1068 128.917 38.3848 129.463H41.2695V126.852H42.7734V139.225H41.2695V134.549H38.4941C38.2253 135.165 37.8561 135.643 37.3867 135.985C36.9173 136.322 36.3841 136.491 35.7871 136.491C35.1673 136.491 34.6182 136.313 34.1396 135.958C33.6611 135.602 33.2874 135.094 33.0186 134.433C32.7497 133.772 32.6152 133 32.6152 132.116C32.6152 131.241 32.7497 130.475 33.0186 129.819C33.2874 129.158 33.6611 128.65 34.1396 128.294C34.6227 127.934 35.1719 127.754 35.7871 127.754ZM35.7871 129.122C35.4453 129.122 35.1445 129.242 34.8848 129.484C34.625 129.721 34.4245 130.065 34.2832 130.516C34.1419 130.963 34.0736 131.496 34.0781 132.116C34.0736 132.74 34.1419 133.278 34.2832 133.729C34.4245 134.18 34.625 134.527 34.8848 134.768C35.1445 135.005 35.4453 135.124 35.7871 135.124C36.1289 135.124 36.4274 135.005 36.6826 134.768C36.9424 134.527 37.1429 134.18 37.2842 133.729C37.43 133.278 37.5052 132.74 37.5098 132.116C37.5052 131.496 37.43 130.96 37.2842 130.509C37.1429 130.058 36.9424 129.714 36.6826 129.477C36.4274 129.24 36.1289 129.122 35.7871 129.122ZM38.8086 130.708C38.8997 131.15 38.9453 131.619 38.9453 132.116C38.9453 132.526 38.9134 132.927 38.8496 133.319H41.2695V130.708H38.8086ZM55.0781 134.618H53.6289V131.254H52.4258V134.208H51.0039V127.098H52.4258V130.024H53.6289V126.852H55.0781V134.618ZM50.5938 129.381H44.4414V128.192H46.7793V126.961H48.2832V128.192H50.5938V129.381ZM47.5312 129.887C48.0508 129.887 48.5133 129.976 48.9189 130.154C49.3245 130.332 49.6413 130.582 49.8691 130.906C50.1016 131.225 50.2201 131.596 50.2246 132.02C50.2201 132.444 50.1016 132.818 49.8691 133.141C49.6413 133.46 49.3245 133.708 48.9189 133.886C48.5133 134.064 48.0508 134.153 47.5312 134.153C47.0208 134.153 46.5628 134.064 46.1572 133.886C45.7516 133.708 45.4349 133.458 45.207 133.134C44.9837 132.811 44.8743 132.439 44.8789 132.02C44.8743 131.601 44.9837 131.229 45.207 130.906C45.4349 130.582 45.7516 130.332 46.1572 130.154C46.5628 129.976 47.0208 129.887 47.5312 129.887ZM47.5312 130.981C47.1439 130.981 46.8294 131.074 46.5879 131.261C46.3509 131.448 46.2324 131.701 46.2324 132.02C46.2324 132.339 46.3509 132.592 46.5879 132.779C46.8249 132.966 47.1393 133.059 47.5312 133.059C47.9232 133.059 48.2399 132.966 48.4814 132.779C48.723 132.592 48.8438 132.339 48.8438 132.02C48.8438 131.701 48.723 131.448 48.4814 131.261C48.2399 131.074 47.9232 130.981 47.5312 130.981ZM50.9082 134.768C51.7878 134.768 52.5443 134.855 53.1777 135.028C53.8112 135.201 54.2965 135.456 54.6338 135.793C54.971 136.126 55.1419 136.527 55.1465 136.997C55.1419 137.457 54.9688 137.851 54.627 138.179C54.2897 138.512 53.8044 138.765 53.1709 138.938C52.5374 139.111 51.7832 139.198 50.9082 139.198C50.0332 139.198 49.2767 139.111 48.6387 138.938C48.0052 138.765 47.5176 138.512 47.1758 138.179C46.8385 137.851 46.6699 137.457 46.6699 136.997C46.6699 136.527 46.8385 136.126 47.1758 135.793C47.5176 135.456 48.0052 135.201 48.6387 135.028C49.2721 134.855 50.0286 134.768 50.9082 134.768ZM50.9082 135.93C50.0195 135.921 49.3428 136.008 48.8779 136.19C48.4176 136.368 48.1875 136.637 48.1875 136.997C48.1875 137.338 48.4199 137.598 48.8848 137.776C49.3496 137.949 50.0241 138.036 50.9082 138.036C51.7878 138.036 52.4577 137.949 52.918 137.776C53.3828 137.598 53.6152 137.338 53.6152 136.997C53.6152 136.637 53.3828 136.368 52.918 136.19C52.4577 136.008 51.7878 135.921 50.9082 135.93ZM61.2715 130.366C61.2715 131.045 61.3991 131.717 61.6543 132.382C61.9141 133.043 62.2832 133.638 62.7617 134.167C63.2448 134.691 63.8099 135.087 64.457 135.356L63.623 136.559C62.9076 136.254 62.2855 135.796 61.7568 135.185C61.2282 134.574 60.818 133.866 60.5264 133.059C60.2347 133.925 59.8223 134.693 59.2891 135.363C58.7604 136.028 58.1406 136.527 57.4297 136.86L56.5547 135.67C57.1882 135.379 57.7441 134.95 58.2227 134.385C58.7057 133.82 59.0771 133.187 59.3369 132.485C59.5967 131.778 59.7266 131.072 59.7266 130.366V129.327H57.0059V128.069H63.9785V129.327H61.2715V130.366ZM66.8906 139.211H65.3594V126.852H66.8906V139.211Z" fill="#4A4A4A"/>
<g filter="url(#filter0_dd_119_4159)">
<path d="M32 169.992C32 161.155 39.1634 153.992 48 153.992H361.342C370.178 153.992 377.342 161.155 377.342 169.992V192.965C377.342 201.802 370.178 208.965 361.342 208.965H48C39.1635 208.965 32 201.802 32 192.965V169.992Z" fill="#FAFAF7"/>
<path d="M48 154.492H361.342C369.902 154.492 376.842 161.431 376.842 169.992V192.965C376.842 201.526 369.902 208.465 361.342 208.465H48C39.4396 208.465 32.5 201.526 32.5 192.965V169.992C32.5 161.431 39.4396 154.492 48 154.492Z" stroke="#E2DDD5"/>
<path d="M55.5488 175.507C56.75 175.507 57.7388 176.174 58.332 177.338H61.4229V174.54H63.0342V187.797H61.4229V182.787H58.4492C57.8779 184.106 56.8306 184.867 55.5488 184.867C53.5566 184.867 52.1504 183.066 52.1504 180.18C52.1504 177.323 53.5566 175.507 55.5488 175.507ZM55.5488 176.972C54.4502 176.972 53.7031 178.158 53.7178 180.18C53.7031 182.216 54.4502 183.403 55.5488 183.403C56.6475 183.403 57.3799 182.216 57.3945 180.18C57.3799 178.158 56.6475 176.972 55.5488 176.972ZM58.7861 178.671C58.8813 179.133 58.9326 179.638 58.9326 180.18C58.9326 180.641 58.896 181.066 58.8301 181.469H61.4229V178.671H58.7861ZM76.2178 174.54V182.861H74.665V179.257H73.376V182.421H71.8525V174.804H73.376V177.939H74.665V174.54H76.2178ZM71.4131 175.976V177.25H64.8213V175.976H67.3262V174.657H68.9375V175.976H71.4131ZM68.1318 177.792C69.8164 177.792 71.0029 178.7 71.0176 180.077C71.0029 181.454 69.8164 182.363 68.1318 182.363C66.4766 182.363 65.2754 181.454 65.29 180.077C65.2754 178.7 66.4766 177.792 68.1318 177.792ZM68.1318 178.964C67.3115 178.964 66.7402 179.389 66.7402 180.077C66.7402 180.766 67.2969 181.191 68.1318 181.191C68.9668 181.191 69.5381 180.766 69.5381 180.077C69.5381 179.389 68.9668 178.964 68.1318 178.964ZM71.75 183.022C74.5771 183.022 76.2764 183.886 76.291 185.409C76.2764 186.904 74.5771 187.768 71.75 187.768C68.9229 187.768 67.209 186.904 67.209 185.409C67.209 183.886 68.9229 183.022 71.75 183.022ZM71.75 184.267C69.8604 184.252 68.835 184.633 68.835 185.409C68.835 186.142 69.8604 186.523 71.75 186.523C73.625 186.523 74.6504 186.142 74.6504 185.409C74.6504 184.633 73.625 184.252 71.75 184.267ZM82.8535 178.305C82.8535 180.473 84.1279 182.758 86.2666 183.652L85.373 184.941C83.8057 184.267 82.6631 182.875 82.0625 181.191C81.4473 183.007 80.29 184.531 78.7373 185.263L77.7998 183.989C79.8945 183.022 81.1982 180.561 81.1982 178.305V177.192H78.2832V175.844H85.7539V177.192H82.8535V178.305ZM88.874 174.54V187.782H87.2334V174.54H88.874ZM102.907 180.546V181.777H90.8076V180.546H102.907ZM101.442 182.568V185.585H93.8545V186.508H101.838V187.636H92.2285V184.531H99.8311V183.71H92.2139V182.568H101.442ZM101.413 174.833V177.822H93.957V178.686H101.647V179.799H92.3457V176.767H99.7871V175.961H92.3018V174.833H101.413ZM118.376 174.54V181.645H116.735V174.54H118.376ZM111.228 182.26V183.622H116.75V182.26H118.376V187.621H109.616V182.26H111.228ZM111.228 186.303H116.75V184.897H111.228V186.303ZM111.154 175.126C113.19 175.112 114.714 176.386 114.714 178.232C114.714 180.033 113.19 181.308 111.154 181.308C109.104 181.308 107.58 180.033 107.58 178.232C107.58 176.386 109.104 175.112 111.154 175.126ZM111.154 176.489C109.997 176.489 109.162 177.162 109.177 178.232C109.162 179.286 109.997 179.96 111.154 179.975C112.297 179.96 113.117 179.286 113.117 178.232C113.117 177.162 112.297 176.489 111.154 176.489ZM126.638 175.331V179.316H122.463V180.942C124.587 180.949 125.81 180.883 127.209 180.619L127.37 181.938C125.788 182.201 124.411 182.245 121.818 182.245H120.852V178.1H125.012V176.62H120.822V175.331H126.638ZM131.398 174.555V182.699H129.772V180.517H127.429V179.213H129.772V177.734H127.429V176.43H129.772V174.555H131.398ZM131.398 183.329V187.782H129.772V184.633H122.346V183.329H131.398ZM143.645 174.54V179.814H145.681V181.161H143.645V187.782H142.033V174.54H143.645ZM141.008 176.576V177.88H133.2V176.576H136.335V174.731H137.961V176.576H141.008ZM137.155 178.744C139.06 178.744 140.48 180.033 140.48 181.865C140.48 183.696 139.06 184.97 137.155 184.97C135.222 184.97 133.801 183.696 133.815 181.865C133.801 180.033 135.222 178.744 137.155 178.744ZM137.155 180.077C136.115 180.077 135.368 180.781 135.368 181.865C135.368 182.948 136.115 183.637 137.155 183.622C138.166 183.637 138.913 182.948 138.928 181.865C138.913 180.781 138.166 180.077 137.155 180.077ZM150.368 178.012C150.368 180.151 151.115 182.377 152.902 183.505L152.009 184.75C150.815 184.032 150.039 182.795 149.606 181.337C149.123 182.941 148.273 184.296 147.028 185.058L146.018 183.842C147.937 182.67 148.801 180.341 148.801 178.085V175.712H150.368V178.012ZM157.663 174.54V187.782H156.096V174.54H157.663ZM154.909 174.775V187.138H153.371V180.444H151.481V179.096H153.371V174.775H154.909ZM171.301 184.838V186.171H159.201V184.838H161.999V181.484C160.944 180.883 160.307 179.938 160.314 178.759C160.3 176.65 162.38 175.258 165.222 175.258C168.078 175.258 170.158 176.65 170.158 178.759C170.158 179.916 169.543 180.846 168.518 181.454V184.838H171.301ZM165.222 176.547C163.244 176.547 161.896 177.382 161.911 178.759C161.896 180.121 163.244 180.971 165.222 180.971C167.199 180.971 168.562 180.121 168.562 178.759C168.562 177.382 167.199 176.547 165.222 176.547ZM163.61 184.838H166.862V182.07C166.357 182.187 165.808 182.245 165.222 182.245C164.65 182.245 164.108 182.187 163.61 182.084V184.838Z" fill="#888882"/>
<path d="M347.02 187.31C350.701 187.31 353.685 184.326 353.685 180.645C353.685 176.964 350.701 173.98 347.02 173.98C343.339 173.98 340.355 176.964 340.355 180.645C340.355 184.326 343.339 187.31 347.02 187.31Z" stroke="#888882" stroke-width="1.66623" stroke-linecap="round" stroke-linejoin="round"/>
<path d="M355.351 188.977L351.769 185.394" stroke="#888882" stroke-width="1.66623" stroke-linecap="round" stroke-linejoin="round"/>
</g>
<path d="M42.1582 240.226H43.8809V241.484H42.1582V243.972H40.6406V237.82H42.1582V240.226ZM34.4746 242.27C36.2428 242.247 37.9245 242.081 39.5195 241.771L39.6973 243.015C38.7767 243.202 37.8698 243.336 36.9766 243.418C36.0833 243.496 35.1764 243.534 34.2559 243.534H33.9688H32.9434V238.366H34.4746V242.27ZM42.1582 247.786H35.6094V248.798H42.541V250.029H34.0918V246.624H40.627V245.708H34.0781V244.505H42.1582V247.786ZM54.5586 242.564H56.0625V243.835H54.5586V250.179H53.041V237.82H54.5586V242.564ZM47.5312 241.128C47.5312 242.003 47.6042 242.828 47.75 243.603C47.8958 244.378 48.1693 245.061 48.5703 245.654C48.9622 245.066 49.2311 244.384 49.377 243.61C49.5228 242.83 49.5957 242.003 49.5957 241.128V240.185H48.8027V238.954H52.248V240.185H51.0449V241.128C51.0449 242.309 51.1771 243.364 51.4414 244.293C51.7057 245.223 52.1888 245.945 52.8906 246.46L51.9199 247.554C51.1589 246.971 50.6165 246.043 50.293 244.772C49.9557 246.098 49.377 247.062 48.5566 247.663C47.7546 247.066 47.1826 246.102 46.8408 244.772C46.5127 246.043 45.9727 246.971 45.2207 247.554L44.25 246.46C44.9518 245.941 45.4349 245.214 45.6992 244.28C45.9635 243.341 46.0957 242.29 46.0957 241.128V240.185H44.7148V238.954H48.3242V240.185H47.5312V241.128Z" fill="#4A4A4A"/>
<g filter="url(#filter1_dd_119_4159)">
<path d="M32 280.959C32 272.123 39.1634 264.959 48 264.959H361.342C370.178 264.959 377.342 272.123 377.342 280.959V303.933C377.342 312.77 370.178 319.933 361.342 319.933H48C39.1635 319.933 32 312.77 32 303.933V280.959Z" fill="#FAFAF7"/>
<path d="M48 265.459H361.342C369.902 265.459 376.842 272.399 376.842 280.959V303.933C376.842 312.493 369.902 319.433 361.342 319.433H48C39.4396 319.433 32.5 312.493 32.5 303.933V280.959C32.5 272.399 39.4396 265.459 48 265.459Z" stroke="#E2DDD5"/>
<path d="M59.8838 288.083H61.7295V289.431H59.8838V292.097H58.2578V285.505H59.8838V288.083ZM51.6514 290.273C53.5459 290.249 55.3477 290.071 57.0566 289.739L57.2471 291.072C56.2607 291.272 55.2891 291.416 54.332 291.504C53.375 291.587 52.4033 291.628 51.417 291.628H51.1094H50.0107V286.091H51.6514V290.273ZM59.8838 296.184H52.8672V297.268H60.2939V298.586H51.2412V294.939H58.2432V293.958H51.2266V292.668H59.8838V296.184ZM73.1699 290.588H74.7812V291.951H73.1699V298.748H71.5439V285.505H73.1699V290.588ZM65.6406 289.05C65.6406 289.988 65.7188 290.872 65.875 291.702C66.0312 292.532 66.3242 293.264 66.7539 293.899C67.1738 293.269 67.4619 292.539 67.6182 291.709C67.7744 290.874 67.8525 289.988 67.8525 289.05V288.04H67.0029V286.721H70.6943V288.04H69.4053V289.05C69.4053 290.315 69.5469 291.445 69.8301 292.441C70.1133 293.438 70.6309 294.211 71.3828 294.763L70.3428 295.935C69.5273 295.31 68.9463 294.316 68.5996 292.954C68.2383 294.375 67.6182 295.408 66.7393 296.052C65.8799 295.413 65.2671 294.38 64.9009 292.954C64.5493 294.316 63.9707 295.31 63.165 295.935L62.125 294.763C62.877 294.207 63.3945 293.428 63.6777 292.427C63.9609 291.421 64.1025 290.295 64.1025 289.05V288.04H62.623V286.721H66.4902V288.04H65.6406V289.05ZM87.4521 292.742H75.3525V291.511H87.4521V292.742ZM85.9873 296.55H78.3994V297.473H86.3828V298.601H76.7734V295.496H84.376V294.675H76.7588V293.533H85.9873V296.55ZM85.958 288.787H78.502V289.651H86.1924V290.764H76.8906V287.732H84.332V286.926H76.8467V285.798H85.958V288.787ZM96.71 287.849C96.71 288.445 96.8271 289.019 97.0615 289.57C97.3008 290.122 97.6523 290.613 98.1162 291.042C98.585 291.467 99.1514 291.794 99.8154 292.024L98.9219 293.298C98.2188 293.03 97.6108 292.649 97.0981 292.156C96.5903 291.663 96.1948 291.086 95.9116 290.427C95.6187 291.169 95.2012 291.814 94.6592 292.361C94.1221 292.908 93.4727 293.323 92.7109 293.606L91.8467 292.317C92.5352 292.083 93.1187 291.738 93.5972 291.284C94.0806 290.83 94.4443 290.305 94.6885 289.709C94.9375 289.114 95.0645 288.489 95.0693 287.834V286.326H96.71V287.849ZM102.979 295.349H101.354V289.768H98.7168V288.435H101.354V285.52H102.979V295.349ZM103.272 298.484H94.249V294.28H95.9043V297.166H103.272V298.484ZM110.553 287.732H106.92V289.021H110.421V290.266H106.92V291.658C107.774 291.648 108.504 291.621 109.11 291.577C109.72 291.533 110.333 291.453 110.948 291.335L111.124 292.654C110.396 292.791 109.679 292.881 108.971 292.925C108.268 292.969 107.354 292.991 106.231 292.991H105.353V286.428H110.553V287.732ZM116.178 293.577H114.625V290.134H113.248V293.474H111.725V285.769H113.248V288.831H114.625V285.52H116.178V293.577ZM116.178 298.748H114.552V295.481H107.11V294.163H116.178V298.748ZM128.189 290.779H130.226V292.126H128.189V298.748H126.578V285.505H128.189V290.779ZM125.553 288.845H117.745V287.542H120.88V285.696H122.506V287.542H125.553V288.845ZM121.7 289.709C122.33 289.709 122.896 289.844 123.399 290.112C123.907 290.376 124.305 290.745 124.593 291.218C124.881 291.692 125.025 292.229 125.025 292.83C125.025 293.43 124.881 293.967 124.593 294.441C124.305 294.91 123.907 295.276 123.399 295.54C122.896 295.803 122.33 295.935 121.7 295.935C121.061 295.935 120.487 295.803 119.979 295.54C119.471 295.276 119.073 294.91 118.785 294.441C118.497 293.967 118.355 293.43 118.36 292.83C118.355 292.229 118.497 291.692 118.785 291.218C119.073 290.745 119.471 290.376 119.979 290.112C120.487 289.844 121.061 289.709 121.7 289.709ZM121.7 291.042C121.354 291.042 121.043 291.116 120.77 291.262C120.501 291.409 120.292 291.619 120.14 291.892C119.989 292.161 119.913 292.473 119.913 292.83C119.913 293.186 119.989 293.499 120.14 293.767C120.292 294.031 120.501 294.236 120.77 294.382C121.043 294.524 121.354 294.592 121.7 294.587C122.037 294.592 122.337 294.524 122.601 294.382C122.87 294.236 123.08 294.031 123.231 293.767C123.387 293.499 123.468 293.186 123.473 292.83C123.468 292.473 123.387 292.161 123.231 291.892C123.08 291.624 122.87 291.416 122.601 291.27C122.337 291.118 122.037 291.042 121.7 291.042ZM134.913 288.977C134.913 289.719 135.001 290.439 135.177 291.138C135.357 291.836 135.638 292.476 136.019 293.057C136.4 293.638 136.876 294.109 137.447 294.47L136.554 295.715C135.978 295.369 135.489 294.905 135.089 294.324C134.688 293.738 134.374 293.066 134.144 292.31C133.895 293.135 133.556 293.867 133.126 294.507C132.696 295.146 132.179 295.652 131.573 296.023L130.562 294.807C131.183 294.431 131.7 293.938 132.115 293.328C132.53 292.717 132.838 292.046 133.038 291.313C133.243 290.581 133.346 289.827 133.346 289.05V286.677H134.913V288.977ZM142.208 298.748H140.641V285.505H142.208V298.748ZM139.454 298.103H137.916V291.409H136.026V290.061H137.916V285.74H139.454V298.103ZM155.846 297.136H143.746V295.803H146.544V292.456C146.007 292.144 145.589 291.755 145.292 291.292C144.999 290.828 144.854 290.305 144.859 289.724C144.854 289.036 145.062 288.425 145.482 287.893C145.902 287.361 146.485 286.951 147.232 286.663C147.979 286.37 148.824 286.223 149.767 286.223C150.714 286.223 151.561 286.37 152.308 286.663C153.06 286.951 153.646 287.361 154.066 287.893C154.491 288.42 154.703 289.031 154.703 289.724C154.703 290.291 154.559 290.806 154.271 291.27C153.988 291.729 153.585 292.112 153.062 292.419V295.803H155.846V297.136ZM149.767 287.512C149.107 287.512 148.526 287.603 148.023 287.783C147.525 287.959 147.137 288.213 146.859 288.545C146.585 288.877 146.451 289.27 146.456 289.724C146.451 290.173 146.585 290.564 146.859 290.896C147.137 291.228 147.528 291.484 148.031 291.665C148.534 291.846 149.112 291.936 149.767 291.936C150.421 291.936 151 291.846 151.502 291.665C152.01 291.484 152.403 291.228 152.682 290.896C152.965 290.564 153.106 290.173 153.106 289.724C153.106 289.275 152.965 288.884 152.682 288.552C152.403 288.215 152.013 287.959 151.51 287.783C151.007 287.603 150.426 287.512 149.767 287.512ZM151.407 295.803V293.042C150.89 293.154 150.343 293.21 149.767 293.21C149.215 293.21 148.678 293.157 148.155 293.049V295.803H151.407Z" fill="#888882"/>
<path d="M347.012 284.115V287.447" stroke="#888882" stroke-width="1.66623" stroke-linecap="round" stroke-linejoin="round"/>
<path d="M353.677 284.115V287.447" stroke="#888882" stroke-width="1.66623" stroke-linecap="round" stroke-linejoin="round"/>
<path d="M356.176 285.781H344.513C343.593 285.781 342.847 286.527 342.847 287.447V299.111C342.847 300.031 343.593 300.777 344.513 300.777H356.176C357.097 300.777 357.843 300.031 357.843 299.111V287.447C357.843 286.527 357.097 285.781 356.176 285.781Z" stroke="#888882" stroke-width="1.66623" stroke-linecap="round" stroke-linejoin="round"/>
<path d="M342.847 290.78H357.843" stroke="#888882" stroke-width="1.66623" stroke-linecap="round" stroke-linejoin="round"/>
</g>
<path d="M42.7051 357.729H41.1738V348.801H42.7051V357.729ZM43.0469 360.901H34.5293V356.826H36.0605V359.67H43.0469V360.901ZM35.9648 349.608C36.5846 349.608 37.1475 349.742 37.6533 350.011C38.1592 350.275 38.5579 350.642 38.8496 351.112C39.1413 351.581 39.2871 352.11 39.2871 352.698C39.2871 353.295 39.1413 353.83 38.8496 354.304C38.5579 354.773 38.1592 355.14 37.6533 355.405C37.1475 355.669 36.5846 355.801 35.9648 355.801C35.3405 355.801 34.7731 355.669 34.2627 355.405C33.7568 355.14 33.3581 354.773 33.0664 354.304C32.7747 353.83 32.6289 353.295 32.6289 352.698C32.6289 352.11 32.7747 351.581 33.0664 351.112C33.3581 350.642 33.7568 350.275 34.2627 350.011C34.7731 349.742 35.3405 349.608 35.9648 349.608ZM35.9648 350.934C35.6139 350.934 35.2972 351.007 35.0146 351.153C34.7321 351.298 34.5111 351.506 34.3516 351.775C34.1921 352.044 34.1146 352.351 34.1191 352.698C34.1146 353.053 34.1921 353.365 34.3516 353.634C34.5111 353.903 34.7321 354.11 35.0146 354.256C35.2972 354.402 35.6139 354.475 35.9648 354.475C36.3066 354.475 36.6165 354.402 36.8945 354.256C37.1725 354.11 37.3913 353.903 37.5508 353.634C37.7148 353.365 37.7969 353.053 37.7969 352.698C37.7969 352.351 37.7148 352.044 37.5508 351.775C37.3913 351.506 37.1725 351.298 36.8945 351.153C36.6165 351.007 36.3066 350.934 35.9648 350.934ZM54.873 358.153H53.3418V357.073H50.9219V356.006H53.3418V348.801H54.873V358.153ZM55.1602 360.901H46.0957V357.25H47.6133V359.67H55.1602V360.901ZM44.4551 354.352C46.0592 354.343 47.4993 354.315 48.7754 354.27C50.0514 354.224 51.2682 354.128 52.4258 353.983L52.5078 355.076C51.5189 355.24 50.4798 355.359 49.3906 355.432V357.811H47.873V355.514C46.9935 355.55 45.918 355.569 44.6465 355.569L44.4551 354.352ZM48.4883 349.252C49.0853 349.252 49.6139 349.346 50.0742 349.532C50.5391 349.715 50.9014 349.972 51.1611 350.305C51.4255 350.633 51.5599 351.011 51.5645 351.44C51.5599 351.877 51.4277 352.26 51.168 352.588C50.9082 352.916 50.5459 353.169 50.0811 353.347C49.6162 353.525 49.0853 353.614 48.4883 353.614C47.8822 353.614 47.3444 353.525 46.875 353.347C46.4102 353.169 46.0479 352.916 45.7881 352.588C45.5283 352.26 45.3984 351.877 45.3984 351.44C45.3984 351.011 45.5283 350.633 45.7881 350.305C46.0479 349.972 46.4102 349.715 46.875 349.532C47.3444 349.346 47.8822 349.252 48.4883 349.252ZM48.4883 350.373C47.9915 350.373 47.5905 350.469 47.2852 350.66C46.9844 350.847 46.834 351.107 46.834 351.44C46.834 351.772 46.9844 352.034 47.2852 352.226C47.5905 352.413 47.9915 352.506 48.4883 352.506C48.9668 352.506 49.3564 352.41 49.6572 352.219C49.958 352.028 50.1107 351.768 50.1152 351.44C50.1107 351.112 49.958 350.852 49.6572 350.66C49.3564 350.469 48.9668 350.373 48.4883 350.373Z" fill="#4A4A4A"/>
<g filter="url(#filter2_dd_119_4159)">
<path d="M32 391.927C32 383.09 39.1634 375.927 48 375.927H361.342C370.178 375.927 377.342 383.09 377.342 391.927V414.901C377.342 423.737 370.178 430.901 361.342 430.901H48C39.1635 430.901 32 423.737 32 414.901V391.927Z" fill="#FAFAF7"/>
<path d="M48 376.427H361.342C369.902 376.427 376.842 383.367 376.842 391.927V414.901C376.842 423.461 369.902 430.401 361.342 430.401H48C39.4396 430.401 32.5 423.461 32.5 414.901V391.927C32.5 383.367 39.4396 376.427 48 376.427Z" stroke="#E2DDD5"/>
<path d="M60.4697 406.053H58.8291V396.488H60.4697V406.053ZM60.8359 409.452H51.71V405.086H53.3506V408.133H60.8359V409.452ZM53.248 397.352C53.9121 397.352 54.5151 397.496 55.0571 397.784C55.5991 398.067 56.0264 398.46 56.3389 398.963C56.6514 399.466 56.8076 400.033 56.8076 400.663C56.8076 401.302 56.6514 401.876 56.3389 402.384C56.0264 402.887 55.5991 403.28 55.0571 403.563C54.5151 403.846 53.9121 403.988 53.248 403.988C52.5791 403.988 51.9712 403.846 51.4243 403.563C50.8823 403.28 50.4551 402.887 50.1426 402.384C49.8301 401.876 49.6738 401.302 49.6738 400.663C49.6738 400.033 49.8301 399.466 50.1426 398.963C50.4551 398.46 50.8823 398.067 51.4243 397.784C51.9712 397.496 52.5791 397.352 53.248 397.352ZM53.248 398.773C52.8721 398.773 52.5327 398.851 52.23 399.007C51.9272 399.164 51.6904 399.386 51.5195 399.674C51.3486 399.962 51.2656 400.292 51.2705 400.663C51.2656 401.043 51.3486 401.378 51.5195 401.666C51.6904 401.954 51.9272 402.176 52.23 402.333C52.5327 402.489 52.8721 402.567 53.248 402.567C53.6143 402.567 53.9463 402.489 54.2441 402.333C54.542 402.176 54.7764 401.954 54.9473 401.666C55.123 401.378 55.2109 401.043 55.2109 400.663C55.2109 400.292 55.123 399.962 54.9473 399.674C54.7764 399.386 54.542 399.164 54.2441 399.007C53.9463 398.851 53.6143 398.773 53.248 398.773ZM73.5068 406.507H71.8662V405.35H69.2734V404.208H71.8662V396.488H73.5068V406.507ZM73.8145 409.452H64.1025V405.541H65.7285V408.133H73.8145V409.452ZM62.3447 402.435C64.0635 402.425 65.6064 402.396 66.9736 402.347C68.3408 402.298 69.6445 402.196 70.8848 402.04L70.9727 403.211C69.9131 403.387 68.7998 403.514 67.6328 403.592V406.141H66.0068V403.68C65.0645 403.719 63.9121 403.739 62.5498 403.739L62.3447 402.435ZM66.666 396.971C67.3057 396.971 67.8721 397.071 68.3652 397.271C68.8633 397.467 69.2515 397.743 69.5298 398.099C69.813 398.451 69.957 398.856 69.9619 399.315C69.957 399.784 69.8154 400.194 69.5371 400.545C69.2588 400.897 68.8706 401.168 68.3726 401.358C67.8745 401.549 67.3057 401.644 66.666 401.644C66.0166 401.644 65.4404 401.549 64.9375 401.358C64.4395 401.168 64.0513 400.897 63.7729 400.545C63.4946 400.194 63.3555 399.784 63.3555 399.315C63.3555 398.856 63.4946 398.451 63.7729 398.099C64.0513 397.743 64.4395 397.467 64.9375 397.271C65.4404 397.071 66.0166 396.971 66.666 396.971ZM66.666 398.172C66.1338 398.172 65.7041 398.275 65.377 398.48C65.0547 398.68 64.8936 398.958 64.8936 399.315C64.8936 399.671 65.0547 399.952 65.377 400.157C65.7041 400.357 66.1338 400.458 66.666 400.458C67.1787 400.458 67.5962 400.355 67.9185 400.15C68.2407 399.945 68.4043 399.667 68.4092 399.315C68.4043 398.963 68.2407 398.685 67.9185 398.48C67.5962 398.275 67.1787 398.172 66.666 398.172ZM81.3877 396.678C82.3936 396.678 83.2505 396.766 83.9585 396.942C84.6714 397.118 85.2158 397.376 85.5918 397.718C85.9678 398.055 86.1582 398.465 86.1631 398.949C86.1582 399.681 85.7407 400.243 84.9106 400.633C84.0806 401.024 82.9062 401.224 81.3877 401.234C79.8643 401.224 78.6875 401.024 77.8574 400.633C77.0273 400.243 76.6123 399.681 76.6123 398.949C76.6123 398.465 76.8003 398.055 77.1763 397.718C77.5522 397.376 78.0967 397.118 78.8096 396.942C79.5225 396.766 80.3818 396.678 81.3877 396.678ZM81.3877 397.879C80.3818 397.879 79.6177 397.972 79.0952 398.158C78.5728 398.338 78.3164 398.602 78.3262 398.949C78.3213 399.31 78.5752 399.579 79.0879 399.754C79.6006 399.93 80.3672 400.018 81.3877 400.018C82.4229 400.018 83.1968 399.93 83.7095 399.754C84.2222 399.579 84.4785 399.31 84.4785 398.949C84.4785 398.602 84.2173 398.338 83.6948 398.158C83.1724 397.972 82.4033 397.879 81.3877 397.879ZM87.4375 403.241H75.3672V401.937H87.4375V403.241ZM85.9287 407.372H78.3994V408.353H86.2949V409.598H76.8027V406.214H84.332V405.335H76.7881V404.134H85.9287V407.372ZM96.71 398.817C96.71 399.413 96.8271 399.986 97.0615 400.538C97.3008 401.09 97.6523 401.581 98.1162 402.01C98.585 402.435 99.1514 402.762 99.8154 402.992L98.9219 404.266C98.2188 403.998 97.6108 403.617 97.0981 403.124C96.5903 402.63 96.1948 402.054 95.9116 401.395C95.6187 402.137 95.2012 402.782 94.6592 403.329C94.1221 403.875 93.4727 404.291 92.7109 404.574L91.8467 403.285C92.5352 403.05 93.1187 402.706 93.5972 402.252C94.0806 401.798 94.4443 401.273 94.6885 400.677C94.9375 400.082 95.0645 399.457 95.0693 398.802V397.293H96.71V398.817ZM102.979 406.317H101.354V400.736H98.7168V399.403H101.354V396.488H102.979V406.317ZM103.272 409.452H94.249V405.248H95.9043V408.133H103.272V409.452ZM110.553 398.7H106.92V399.989H110.421V401.234H106.92V402.625C107.774 402.616 108.504 402.589 109.11 402.545C109.72 402.501 110.333 402.42 110.948 402.303L111.124 403.622C110.396 403.758 109.679 403.849 108.971 403.893C108.268 403.937 107.354 403.958 106.231 403.958H105.353V397.396H110.553V398.7ZM116.178 404.544H114.625V401.102H113.248V404.442H111.725V396.737H113.248V399.798H114.625V396.488H116.178V404.544ZM116.178 409.715H114.552V406.449H107.11V405.13H116.178V409.715ZM128.189 401.747H130.226V403.094H128.189V409.715H126.578V396.473H128.189V401.747ZM125.553 399.813H117.745V398.509H120.88V396.664H122.506V398.509H125.553V399.813ZM121.7 400.677C122.33 400.677 122.896 400.812 123.399 401.08C123.907 401.344 124.305 401.712 124.593 402.186C124.881 402.66 125.025 403.197 125.025 403.797C125.025 404.398 124.881 404.935 124.593 405.409C124.305 405.877 123.907 406.244 123.399 406.507C122.896 406.771 122.33 406.903 121.7 406.903C121.061 406.903 120.487 406.771 119.979 406.507C119.471 406.244 119.073 405.877 118.785 405.409C118.497 404.935 118.355 404.398 118.36 403.797C118.355 403.197 118.497 402.66 118.785 402.186C119.073 401.712 119.471 401.344 119.979 401.08C120.487 400.812 121.061 400.677 121.7 400.677ZM121.7 402.01C121.354 402.01 121.043 402.083 120.77 402.23C120.501 402.376 120.292 402.586 120.14 402.86C119.989 403.128 119.913 403.441 119.913 403.797C119.913 404.154 119.989 404.466 120.14 404.735C120.292 404.999 120.501 405.204 120.77 405.35C121.043 405.492 121.354 405.56 121.7 405.555C122.037 405.56 122.337 405.492 122.601 405.35C122.87 405.204 123.08 404.999 123.231 404.735C123.387 404.466 123.468 404.154 123.473 403.797C123.468 403.441 123.387 403.128 123.231 402.86C123.08 402.591 122.87 402.384 122.601 402.237C122.337 402.086 122.037 402.01 121.7 402.01ZM134.913 399.945C134.913 400.687 135.001 401.407 135.177 402.105C135.357 402.804 135.638 403.443 136.019 404.024C136.4 404.605 136.876 405.077 137.447 405.438L136.554 406.683C135.978 406.336 135.489 405.873 135.089 405.292C134.688 404.706 134.374 404.034 134.144 403.277C133.895 404.103 133.556 404.835 133.126 405.475C132.696 406.114 132.179 406.62 131.573 406.991L130.562 405.775C131.183 405.399 131.7 404.906 132.115 404.295C132.53 403.685 132.838 403.014 133.038 402.281C133.243 401.549 133.346 400.794 133.346 400.018V397.645H134.913V399.945ZM142.208 409.715H140.641V396.473H142.208V409.715ZM139.454 409.071H137.916V402.376H136.026V401.029H137.916V396.708H139.454V409.071ZM155.846 408.104H143.746V406.771H146.544V403.424C146.007 403.111 145.589 402.723 145.292 402.259C144.999 401.795 144.854 401.273 144.859 400.692C144.854 400.003 145.062 399.393 145.482 398.861C145.902 398.329 146.485 397.918 147.232 397.63C147.979 397.337 148.824 397.191 149.767 397.191C150.714 397.191 151.561 397.337 152.308 397.63C153.06 397.918 153.646 398.329 154.066 398.861C154.491 399.388 154.703 399.999 154.703 400.692C154.703 401.258 154.559 401.773 154.271 402.237C153.988 402.696 153.585 403.08 153.062 403.387V406.771H155.846V408.104ZM149.767 398.48C149.107 398.48 148.526 398.57 148.023 398.751C147.525 398.927 147.137 399.181 146.859 399.513C146.585 399.845 146.451 400.238 146.456 400.692C146.451 401.141 146.585 401.532 146.859 401.864C147.137 402.196 147.528 402.452 148.031 402.633C148.534 402.813 149.112 402.904 149.767 402.904C150.421 402.904 151 402.813 151.502 402.633C152.01 402.452 152.403 402.196 152.682 401.864C152.965 401.532 153.106 401.141 153.106 400.692C153.106 400.243 152.965 399.852 152.682 399.52C152.403 399.183 152.013 398.927 151.51 398.751C151.007 398.57 150.426 398.48 149.767 398.48ZM151.407 406.771V404.01C150.89 404.122 150.343 404.178 149.767 404.178C149.215 404.178 148.678 404.125 148.155 404.017V406.771H151.407Z" fill="#888882"/>
<path d="M350.342 401.414L354.342 405.414L358.342 401.414" stroke="#888882" stroke-width="1.3" stroke-linecap="round" stroke-linejoin="round"/>
</g>
<path d="M43.0742 459.755V472.114H41.6113V459.755H43.0742ZM40.5723 459.974V471.513H39.1367V467.616H37.5234C37.0654 468.833 36.2451 469.523 35.1992 469.517C33.5859 469.53 32.5332 467.821 32.5332 465.101C32.5332 462.38 33.5859 460.698 35.1992 460.698C36.2451 460.698 37.0586 461.382 37.5234 462.585H39.1367V459.974H40.5723ZM35.1992 462.134C34.3926 462.12 33.9141 463.173 33.9277 465.101C33.9141 467.028 34.3926 468.081 35.1992 468.067C36.0195 468.081 36.5254 467.028 36.5254 465.101C36.5254 463.173 36.0195 462.12 35.1992 462.134ZM37.8242 463.815C37.8857 464.212 37.9199 464.643 37.9199 465.101C37.9199 465.552 37.8857 465.976 37.8379 466.372H39.1367V463.815H37.8242ZM48.9395 461.942C48.9258 463.569 49.9512 465.114 51.8926 465.743L51.0996 466.946C49.7256 466.481 48.7549 465.552 48.2148 464.362C47.6611 465.675 46.6426 466.7 45.207 467.206L44.3594 466.003C46.3965 465.347 47.4082 463.679 47.4082 461.929V460.521H48.9395V461.942ZM54.2578 459.755V463.405H55.9805V464.69H54.2578V468.833H52.7402V459.755H54.2578ZM54.75 470.638V471.868H46.3418V467.944H47.9004V470.638H54.75Z" fill="#4A4A4A"/>
<path d="M59.6855 510.604H57.8838V512.128H59.6855V513.49H57.8838V515.263H56.2578V507.44H57.8838V509.286H59.6855V510.604ZM57.8838 520.683H56.2578V517.152H49.0654V515.834H57.8838V520.683ZM51.1602 508.202C51.8291 508.197 52.4346 508.332 52.9766 508.605C53.5186 508.874 53.9458 509.252 54.2583 509.74C54.5708 510.224 54.7295 510.771 54.7344 511.381C54.7295 512.001 54.5708 512.555 54.2583 513.043C53.9507 513.527 53.5259 513.905 52.9839 514.179C52.4419 514.452 51.834 514.589 51.1602 514.589C50.4814 514.589 49.8687 514.452 49.3218 514.179C48.7798 513.905 48.3525 513.527 48.04 513.043C47.7324 512.555 47.5811 512.001 47.5859 511.381C47.5811 510.771 47.7324 510.224 48.04 509.74C48.3525 509.252 48.7822 508.874 49.3291 508.605C49.876 508.332 50.4863 508.197 51.1602 508.202ZM51.1602 509.579C50.7793 509.584 50.4375 509.662 50.1348 509.813C49.832 509.96 49.5952 510.17 49.4243 510.443C49.2583 510.712 49.1777 511.024 49.1826 511.381C49.1777 511.747 49.2583 512.069 49.4243 512.348C49.5952 512.626 49.832 512.838 50.1348 512.985C50.4375 513.131 50.7793 513.202 51.1602 513.197C51.5361 513.202 51.873 513.131 52.1709 512.985C52.4736 512.838 52.7104 512.626 52.8813 512.348C53.0522 512.069 53.1377 511.747 53.1377 511.381C53.1377 511.024 53.0522 510.712 52.8813 510.443C52.7104 510.17 52.4736 509.96 52.1709 509.813C51.873 509.662 51.5361 509.584 51.1602 509.579Z" fill="#888882"/>
<g filter="url(#filter3_dd_119_4159)">
<path d="M71.9702 507.381C71.9702 498.545 79.1337 491.381 87.9702 491.381H111.97C120.807 491.381 127.97 498.545 127.97 507.381V521.381C127.97 530.218 120.807 537.381 111.97 537.381H87.9702C79.1337 537.381 71.9702 530.218 71.9702 521.381V507.381Z" fill="#FAFAF7"/>
<path d="M87.9702 491.881H111.97C120.531 491.881 127.47 498.821 127.47 507.381V521.381C127.47 529.942 120.531 536.881 111.97 536.881H87.9702C79.4098 536.881 72.4702 529.942 72.4702 521.381V507.381C72.4702 498.821 79.4098 491.881 87.9702 491.881Z" stroke="#E2DDD5"/>
<path d="M95.1802 519.528C94.3306 519.528 93.6006 519.315 92.9902 518.891C92.3848 518.461 91.9185 517.838 91.5913 517.023C91.269 516.208 91.1079 515.226 91.1079 514.079C91.1079 512.936 91.269 511.957 91.5913 511.142C91.9185 510.321 92.3872 509.699 92.9976 509.274C93.6079 508.844 94.3354 508.629 95.1802 508.629C96.02 508.629 96.7451 508.844 97.3555 509.274C97.9707 509.699 98.4395 510.321 98.7617 511.142C99.0889 511.957 99.2524 512.936 99.2524 514.079C99.2524 515.226 99.0889 516.208 98.7617 517.023C98.4395 517.838 97.9731 518.461 97.3628 518.891C96.7573 519.315 96.0298 519.528 95.1802 519.528ZM95.1802 517.931C95.6294 517.931 96.0127 517.787 96.3301 517.499C96.6523 517.206 96.8989 516.774 97.0698 516.203C97.2456 515.626 97.3335 514.918 97.3335 514.079C97.3335 513.249 97.2456 512.545 97.0698 511.969C96.8989 511.388 96.6523 510.951 96.3301 510.658C96.0078 510.36 95.6245 510.211 95.1802 510.211C94.7358 510.211 94.3525 510.36 94.0303 510.658C93.708 510.951 93.459 511.388 93.2832 511.969C93.1123 512.545 93.0269 513.249 93.0269 514.079C93.0269 514.918 93.1123 515.626 93.2832 516.203C93.459 516.774 93.7056 517.206 94.0229 517.499C94.3452 517.787 94.731 517.931 95.1802 517.931ZM104.76 519.528C103.911 519.528 103.181 519.315 102.57 518.891C101.965 518.461 101.499 517.838 101.171 517.023C100.849 516.208 100.688 515.226 100.688 514.079C100.688 512.936 100.849 511.957 101.171 511.142C101.499 510.321 101.967 509.699 102.578 509.274C103.188 508.844 103.916 508.629 104.76 508.629C105.6 508.629 106.325 508.844 106.936 509.274C107.551 509.699 108.02 510.321 108.342 511.142C108.669 511.957 108.833 512.936 108.833 514.079C108.833 515.226 108.669 516.208 108.342 517.023C108.02 517.838 107.553 518.461 106.943 518.891C106.337 519.315 105.61 519.528 104.76 519.528ZM104.76 517.931C105.209 517.931 105.593 517.787 105.91 517.499C106.232 517.206 106.479 516.774 106.65 516.203C106.826 515.626 106.914 514.918 106.914 514.079C106.914 513.249 106.826 512.545 106.65 511.969C106.479 511.388 106.232 510.951 105.91 510.658C105.588 510.36 105.205 510.211 104.76 510.211C104.316 510.211 103.933 510.36 103.61 510.658C103.288 510.951 103.039 511.388 102.863 511.969C102.692 512.545 102.607 513.249 102.607 514.079C102.607 514.918 102.692 515.626 102.863 516.203C103.039 516.774 103.286 517.206 103.603 517.499C103.925 517.787 104.311 517.931 104.76 517.931Z" fill="#888882"/>
</g>
<path d="M147.132 514.838H140.863V508.583H147.132V514.838ZM142.459 513.549H145.536V509.887H142.459V513.549ZM150.853 511.322H152.699V512.685H150.853V517.108H149.227V507.44H150.853V511.322ZM151.38 520.419H142.372V516.171H143.998V519.101H151.38V520.419ZM164.476 517.475H162.835V516.317H160.243V515.175H162.835V507.455H164.476V517.475ZM164.784 520.419H155.072V516.508H156.698V519.101H164.784V520.419ZM153.314 513.402C155.033 513.393 156.576 513.363 157.943 513.314C159.31 513.266 160.614 513.163 161.854 513.007L161.942 514.179C160.882 514.354 159.769 514.481 158.602 514.56V517.108H156.976V514.647C156.034 514.687 154.881 514.706 153.519 514.706L153.314 513.402ZM157.635 507.938C158.275 507.938 158.841 508.039 159.334 508.239C159.833 508.434 160.221 508.71 160.499 509.066C160.782 509.418 160.926 509.823 160.931 510.282C160.926 510.751 160.785 511.161 160.506 511.513C160.228 511.864 159.84 512.135 159.342 512.326C158.844 512.516 158.275 512.611 157.635 512.611C156.986 512.611 156.41 512.516 155.907 512.326C155.409 512.135 155.021 511.864 154.742 511.513C154.464 511.161 154.325 510.751 154.325 510.282C154.325 509.823 154.464 509.418 154.742 509.066C155.021 508.71 155.409 508.434 155.907 508.239C156.41 508.039 156.986 507.938 157.635 507.938ZM157.635 509.14C157.103 509.14 156.673 509.242 156.346 509.447C156.024 509.647 155.863 509.926 155.863 510.282C155.863 510.639 156.024 510.919 156.346 511.125C156.673 511.325 157.103 511.425 157.635 511.425C158.148 511.425 158.565 511.322 158.888 511.117C159.21 510.912 159.374 510.634 159.378 510.282C159.374 509.931 159.21 509.652 158.888 509.447C158.565 509.242 158.148 509.14 157.635 509.14Z" fill="#888882"/>
<g clip-path="url(#clip0_119_4159)">
<rect width="320" height="52" transform="translate(44.6709 565.868)" fill="#EDEAE3"/>
<path d="M160.205 588.931C160.205 589.675 160.309 590.397 160.518 591.095C160.726 591.793 161.046 592.425 161.479 592.993C161.916 593.561 162.455 594.014 163.096 594.353L162.112 595.634C161.471 595.3 160.924 594.842 160.471 594.259C160.023 593.675 159.666 592.998 159.401 592.228C159.145 593.056 158.789 593.793 158.33 594.438C157.877 595.079 157.33 595.582 156.69 595.946L155.69 594.665C156.325 594.295 156.856 593.806 157.283 593.196C157.716 592.587 158.036 591.915 158.244 591.181C158.458 590.446 158.565 589.696 158.565 588.931V588.54H156.096V587.118H158.565V585.134H160.205V587.118H162.643V588.54H160.205V588.931ZM168.143 598.759H166.487V591.603H165.033V598.071H163.393V584.884H165.033V590.165H166.487V584.634H168.143V598.759ZM177.03 587.024H171.968V588.368H176.624V589.728H171.968V591.087H172.843C173.983 591.087 174.944 591.063 175.726 591.017C176.512 590.97 177.296 590.879 178.077 590.743L178.249 592.118C177.358 592.264 176.463 592.363 175.562 592.415C174.66 592.467 173.541 592.493 172.202 592.493H171.405H170.202V585.649H177.03V587.024ZM181.187 593.259H179.437V584.649H181.187V593.259ZM176.421 593.462C177.41 593.462 178.267 593.566 178.991 593.774C179.715 593.983 180.272 594.285 180.663 594.681C181.054 595.076 181.249 595.55 181.249 596.103C181.249 596.655 181.054 597.129 180.663 597.524C180.272 597.92 179.715 598.222 178.991 598.431C178.267 598.639 177.41 598.743 176.421 598.743C175.421 598.743 174.556 598.639 173.827 598.431C173.103 598.222 172.549 597.92 172.163 597.524C171.778 597.129 171.588 596.655 171.593 596.103C171.588 595.55 171.778 595.076 172.163 594.681C172.549 594.285 173.103 593.983 173.827 593.774C174.556 593.566 175.421 593.462 176.421 593.462ZM176.421 594.806C175.421 594.806 174.653 594.918 174.116 595.142C173.58 595.366 173.317 595.686 173.327 596.103C173.322 596.524 173.585 596.847 174.116 597.071C174.647 597.29 175.416 597.399 176.421 597.399C177.405 597.399 178.166 597.287 178.702 597.063C179.244 596.84 179.515 596.519 179.515 596.103C179.515 595.691 179.244 595.373 178.702 595.149C178.16 594.92 177.4 594.806 176.421 594.806ZM189.496 593.353C190.465 593.353 191.303 593.459 192.012 593.673C192.725 593.881 193.272 594.188 193.652 594.595C194.032 594.996 194.225 595.478 194.23 596.04C194.225 596.608 194.032 597.095 193.652 597.501C193.272 597.912 192.725 598.225 192.012 598.438C191.303 598.652 190.465 598.759 189.496 598.759C188.517 598.759 187.668 598.652 186.949 598.438C186.23 598.225 185.678 597.912 185.293 597.501C184.907 597.095 184.715 596.608 184.715 596.04C184.715 595.478 184.907 594.996 185.293 594.595C185.678 594.188 186.228 593.881 186.941 593.673C187.66 593.459 188.512 593.353 189.496 593.353ZM189.496 594.712C188.517 594.712 187.764 594.826 187.238 595.056C186.712 595.28 186.449 595.608 186.449 596.04C186.449 596.478 186.712 596.811 187.238 597.04C187.769 597.269 188.522 597.384 189.496 597.384C190.47 597.384 191.215 597.269 191.73 597.04C192.251 596.811 192.512 596.478 192.512 596.04C192.512 595.608 192.251 595.28 191.73 595.056C191.215 594.826 190.47 594.712 189.496 594.712ZM194.09 588.009H196.058V589.462H194.09V593.009H192.355V584.634H194.09V588.009ZM185.152 587.431H188.449V585.524H190.168V592.118H183.433V585.524H185.152V587.431ZM188.449 590.743V588.79H185.152V590.743H188.449ZM204.38 587.259C204.38 587.78 204.482 588.285 204.685 588.774C204.888 589.264 205.195 589.704 205.607 590.095C206.024 590.485 206.531 590.795 207.13 591.024L206.208 592.353C205.594 592.118 205.065 591.787 204.622 591.36C204.18 590.933 203.828 590.436 203.568 589.868C203.297 590.524 202.927 591.105 202.458 591.61C201.995 592.116 201.438 592.504 200.787 592.774L199.849 591.446C200.469 591.17 200.992 590.806 201.419 590.353C201.846 589.899 202.167 589.407 202.38 588.876C202.594 588.34 202.703 587.8 202.708 587.259V585.509H204.38V587.259ZM212.052 593.306H210.396V589.634H208.99V592.868H207.365V584.915H208.99V588.212H210.396V584.649H212.052V593.306ZM207.287 593.54C208.266 593.54 209.117 593.644 209.841 593.853C210.57 594.056 211.133 594.353 211.529 594.743C211.925 595.134 212.125 595.597 212.13 596.134C212.125 596.67 211.925 597.134 211.529 597.524C211.133 597.92 210.57 598.222 209.841 598.431C209.117 598.639 208.266 598.743 207.287 598.743C206.297 598.743 205.438 598.639 204.708 598.431C203.979 598.222 203.419 597.92 203.029 597.524C202.638 597.134 202.443 596.67 202.443 596.134C202.443 595.597 202.638 595.134 203.029 594.743C203.419 594.353 203.979 594.056 204.708 593.853C205.438 593.644 206.297 593.54 207.287 593.54ZM207.287 594.853C206.302 594.853 205.537 594.965 204.99 595.188C204.448 595.407 204.177 595.722 204.177 596.134C204.177 596.55 204.448 596.868 204.99 597.087C205.531 597.306 206.297 597.415 207.287 597.415C208.266 597.415 209.026 597.306 209.568 597.087C210.109 596.868 210.38 596.55 210.38 596.134C210.38 595.722 210.107 595.407 209.56 595.188C209.018 594.965 208.26 594.853 207.287 594.853ZM218.674 586.665C218.669 587.316 218.791 587.931 219.041 588.509C219.291 589.087 219.666 589.597 220.166 590.04C220.671 590.478 221.283 590.811 222.002 591.04L221.065 592.399C220.304 592.134 219.653 591.754 219.112 591.259C218.575 590.764 218.153 590.175 217.846 589.493C217.528 590.28 217.072 590.962 216.479 591.54C215.885 592.113 215.169 592.545 214.33 592.837L213.408 591.431C214.169 591.181 214.812 590.819 215.338 590.345C215.864 589.871 216.26 589.324 216.526 588.704C216.791 588.084 216.924 587.431 216.924 586.743V585.399H218.674V586.665ZM225.33 592.946H223.596V588.79H220.783V587.368H223.596V584.634H225.33V592.946ZM220.549 593.321C221.544 593.321 222.403 593.428 223.127 593.642C223.856 593.855 224.414 594.168 224.799 594.579C225.184 594.985 225.377 595.472 225.377 596.04C225.377 596.608 225.184 597.095 224.799 597.501C224.414 597.907 223.859 598.215 223.135 598.423C222.411 598.636 221.549 598.743 220.549 598.743C219.554 598.743 218.695 598.636 217.971 598.423C217.252 598.215 216.7 597.907 216.315 597.501C215.934 597.095 215.747 596.608 215.752 596.04C215.747 595.472 215.934 594.985 216.315 594.579C216.7 594.168 217.255 593.855 217.979 593.642C218.703 593.428 219.559 593.321 220.549 593.321ZM220.549 594.665C219.559 594.665 218.799 594.785 218.268 595.024C217.737 595.259 217.471 595.597 217.471 596.04C217.471 596.472 217.737 596.806 218.268 597.04C218.804 597.269 219.565 597.384 220.549 597.384C221.533 597.384 222.294 597.267 222.83 597.032C223.372 596.798 223.643 596.467 223.643 596.04C223.643 595.597 223.375 595.259 222.838 595.024C222.302 594.785 221.539 594.665 220.549 594.665ZM238.093 590.259H240.265V591.696H238.093V598.759H236.374V584.634H238.093V590.259ZM235.28 588.196H226.952V586.806H230.296V584.837H232.03V586.806H235.28V588.196ZM231.171 589.118C231.843 589.118 232.447 589.261 232.983 589.548C233.525 589.829 233.95 590.222 234.257 590.728C234.564 591.233 234.718 591.806 234.718 592.446C234.718 593.087 234.564 593.66 234.257 594.165C233.95 594.665 233.525 595.056 232.983 595.337C232.447 595.618 231.843 595.759 231.171 595.759C230.489 595.759 229.877 595.618 229.335 595.337C228.793 595.056 228.369 594.665 228.062 594.165C227.754 593.66 227.603 593.087 227.608 592.446C227.603 591.806 227.754 591.233 228.062 590.728C228.369 590.222 228.793 589.829 229.335 589.548C229.877 589.261 230.489 589.118 231.171 589.118ZM231.171 590.54C230.801 590.54 230.47 590.618 230.179 590.774C229.892 590.931 229.668 591.155 229.507 591.446C229.345 591.733 229.265 592.066 229.265 592.446C229.265 592.826 229.345 593.16 229.507 593.446C229.668 593.728 229.892 593.946 230.179 594.103C230.47 594.254 230.801 594.326 231.171 594.321C231.53 594.326 231.851 594.254 232.132 594.103C232.418 593.946 232.642 593.728 232.804 593.446C232.97 593.16 233.056 592.826 233.062 592.446C233.056 592.066 232.97 591.733 232.804 591.446C232.642 591.16 232.418 590.938 232.132 590.782C231.851 590.621 231.53 590.54 231.171 590.54ZM252.355 598.759H250.605V584.634H252.355V598.759ZM248.137 586.134C248.137 588.379 247.629 590.35 246.613 592.048C245.597 593.741 243.913 595.144 241.558 596.259L240.652 594.868C242.47 594.004 243.837 592.97 244.754 591.767C245.676 590.558 246.215 589.139 246.371 587.509H241.371V586.134H248.137Z" fill="#B0ADA7"/>
</g>
<path d="M56.6709 566.368H352.671C359.022 566.368 364.171 571.517 364.171 577.868V605.868C364.171 612.219 359.022 617.368 352.671 617.368H56.6709C50.3196 617.368 45.1709 612.219 45.1709 605.868V577.868C45.1709 571.517 50.3196 566.368 56.6709 566.368Z" stroke="#E2DDD5"/>
<g clip-path="url(#clip1_119_4159)">
<path d="M163.669 25.9944H245.669" stroke="#888882" stroke-width="7.99775" stroke-linecap="round"/>
</g>
<defs>
<filter id="filter0_dd_119_4159" x="0" y="129.992" width="409.342" height="118.974" filterUnits="userSpaceOnUse" color-interpolation-filters="sRGB">
<feFlood flood-opacity="0" result="BackgroundImageFix"/>
<feColorMatrix in="SourceAlpha" type="matrix" values="0 0 0 0 0 0 0 0 0 0 0 0 0 0 0 0 0 0 127 0" result="hardAlpha"/>
<feOffset dy="8"/>
<feGaussianBlur stdDeviation="16"/>
<feColorMatrix type="matrix" values="0 0 0 0 0.118 0 0 0 0 0.157 0 0 0 0 0.133 0 0 0 0.16 0"/>
<feBlend mode="normal" in2="BackgroundImageFix" result="effect1_dropShadow_119_4159"/>
<feColorMatrix in="SourceAlpha" type="matrix" values="0 0 0 0 0 0 0 0 0 0 0 0 0 0 0 0 0 0 127 0" result="hardAlpha"/>
<feOffset dy="2"/>
<feGaussianBlur stdDeviation="4"/>
<feColorMatrix type="matrix" values="0 0 0 0 0.118 0 0 0 0 0.157 0 0 0 0 0.133 0 0 0 0.08 0"/>
<feBlend mode="normal" in2="effect1_dropShadow_119_4159" result="effect2_dropShadow_119_4159"/>
<feBlend mode="normal" in="SourceGraphic" in2="effect2_dropShadow_119_4159" result="shape"/>
</filter>
<filter id="filter1_dd_119_4159" x="0" y="240.959" width="409.342" height="118.974" filterUnits="userSpaceOnUse" color-interpolation-filters="sRGB">
<feFlood flood-opacity="0" result="BackgroundImageFix"/>
<feColorMatrix in="SourceAlpha" type="matrix" values="0 0 0 0 0 0 0 0 0 0 0 0 0 0 0 0 0 0 127 0" result="hardAlpha"/>
<feOffset dy="8"/>
<feGaussianBlur stdDeviation="16"/>
<feColorMatrix type="matrix" values="0 0 0 0 0.118 0 0 0 0 0.157 0 0 0 0 0.133 0 0 0 0.16 0"/>
<feBlend mode="normal" in2="BackgroundImageFix" result="effect1_dropShadow_119_4159"/>
<feColorMatrix in="SourceAlpha" type="matrix" values="0 0 0 0 0 0 0 0 0 0 0 0 0 0 0 0 0 0 127 0" result="hardAlpha"/>
<feOffset dy="2"/>
<feGaussianBlur stdDeviation="4"/>
<feColorMatrix type="matrix" values="0 0 0 0 0.118 0 0 0 0 0.157 0 0 0 0 0.133 0 0 0 0.08 0"/>
<feBlend mode="normal" in2="effect1_dropShadow_119_4159" result="effect2_dropShadow_119_4159"/>
<feBlend mode="normal" in="SourceGraphic" in2="effect2_dropShadow_119_4159" result="shape"/>
</filter>
<filter id="filter2_dd_119_4159" x="0" y="351.927" width="409.342" height="118.974" filterUnits="userSpaceOnUse" color-interpolation-filters="sRGB">
<feFlood flood-opacity="0" result="BackgroundImageFix"/>
<feColorMatrix in="SourceAlpha" type="matrix" values="0 0 0 0 0 0 0 0 0 0 0 0 0 0 0 0 0 0 127 0" result="hardAlpha"/>
<feOffset dy="8"/>
<feGaussianBlur stdDeviation="16"/>
<feColorMatrix type="matrix" values="0 0 0 0 0.118 0 0 0 0 0.157 0 0 0 0 0.133 0 0 0 0.16 0"/>
<feBlend mode="normal" in2="BackgroundImageFix" result="effect1_dropShadow_119_4159"/>
<feColorMatrix in="SourceAlpha" type="matrix" values="0 0 0 0 0 0 0 0 0 0 0 0 0 0 0 0 0 0 127 0" result="hardAlpha"/>
<feOffset dy="2"/>
<feGaussianBlur stdDeviation="4"/>
<feColorMatrix type="matrix" values="0 0 0 0 0.118 0 0 0 0 0.157 0 0 0 0 0.133 0 0 0 0.08 0"/>
<feBlend mode="normal" in2="effect1_dropShadow_119_4159" result="effect2_dropShadow_119_4159"/>
<feBlend mode="normal" in="SourceGraphic" in2="effect2_dropShadow_119_4159" result="shape"/>
</filter>
<filter id="filter3_dd_119_4159" x="39.9702" y="467.381" width="120" height="110" filterUnits="userSpaceOnUse" color-interpolation-filters="sRGB">
<feFlood flood-opacity="0" result="BackgroundImageFix"/>
<feColorMatrix in="SourceAlpha" type="matrix" values="0 0 0 0 0 0 0 0 0 0 0 0 0 0 0 0 0 0 127 0" result="hardAlpha"/>
<feOffset dy="8"/>
<feGaussianBlur stdDeviation="16"/>
<feColorMatrix type="matrix" values="0 0 0 0 0.118 0 0 0 0 0.157 0 0 0 0 0.133 0 0 0 0.16 0"/>
<feBlend mode="normal" in2="BackgroundImageFix" result="effect1_dropShadow_119_4159"/>
<feColorMatrix in="SourceAlpha" type="matrix" values="0 0 0 0 0 0 0 0 0 0 0 0 0 0 0 0 0 0 127 0" result="hardAlpha"/>
<feOffset dy="2"/>
<feGaussianBlur stdDeviation="4"/>
<feColorMatrix type="matrix" values="0 0 0 0 0.118 0 0 0 0 0.157 0 0 0 0 0.133 0 0 0 0.08 0"/>
<feBlend mode="normal" in2="effect1_dropShadow_119_4159" result="effect2_dropShadow_119_4159"/>
<feBlend mode="normal" in="SourceGraphic" in2="effect2_dropShadow_119_4159" result="shape"/>
</filter>
<clipPath id="clip0_119_4159">
<path d="M44.6709 577.868C44.6709 571.241 50.0435 565.868 56.6709 565.868H352.671C359.298 565.868 364.671 571.241 364.671 577.868V605.868C364.671 612.496 359.298 617.868 352.671 617.868H56.6709C50.0435 617.868 44.6709 612.496 44.6709 605.868V577.868Z" fill="white"/>
</clipPath>
<clipPath id="clip1_119_4159">
<rect width="89.9996" height="7.99554" fill="white" transform="translate(159.669 21.9966)"/>
</clipPath>
</defs>
</svg>
