<svg width="410" height="654" viewBox="0 0 410 654" fill="none" xmlns="http://www.w3.org/2000/svg">
<g id="Property 1=filled">
<path d="M8 16C8 7.16345 15.1634 0 24 0H385C393.837 0 401 7.16344 401 16V654H8V16Z" fill="#1C2120"/>
<g id="Frame 64">
<g id="Heading 2">
<path id="&#236;&#151;&#172;&#237;&#150;&#137; &#236;&#160;&#149;&#235;&#179;&#180;&#235;&#165;&#188; &#236;&#158;&#133;&#235;&#160;&#165;&#237;&#149;&#180;&#236;&#163;&#188;&#236;&#132;&#184;&#236;&#154;&#148;" d="M38.1553 73.9102C39.917 73.9102 41.3672 74.8877 42.2373 76.5957H46.7705V72.4922H49.1338V91.9355H46.7705V84.5879H42.4092C41.5713 86.5215 40.0352 87.6387 38.1553 87.6387C35.2334 87.6387 33.1709 84.9961 33.1709 80.7637C33.1709 76.5742 35.2334 73.9102 38.1553 73.9102ZM38.1553 76.0586C36.5439 76.0586 35.4482 77.7988 35.4697 80.7637C35.4482 83.75 36.5439 85.4902 38.1553 85.4902C39.7666 85.4902 40.8408 83.75 40.8623 80.7637C40.8408 77.7988 39.7666 76.0586 38.1553 76.0586ZM42.9033 78.5508C43.043 79.2275 43.1182 79.9688 43.1182 80.7637C43.1182 81.4404 43.0645 82.0635 42.9678 82.6543H46.7705V78.5508H42.9033ZM68.4697 72.4922V84.6953H66.1924V79.4102H64.3018V84.0508H62.0674V72.8789H64.3018V77.4766H66.1924V72.4922H68.4697ZM61.4229 74.5977V76.4668H51.7549V74.5977H55.4287V72.6641H57.792V74.5977H61.4229ZM56.6104 77.2617C59.0811 77.2617 60.8213 78.5938 60.8428 80.6133C60.8213 82.6328 59.0811 83.9648 56.6104 83.9648C54.1826 83.9648 52.4209 82.6328 52.4424 80.6133C52.4209 78.5938 54.1826 77.2617 56.6104 77.2617ZM56.6104 78.9805C55.4072 78.9805 54.5693 79.6035 54.5693 80.6133C54.5693 81.623 55.3857 82.2461 56.6104 82.2461C57.835 82.2461 58.6729 81.623 58.6729 80.6133C58.6729 79.6035 57.835 78.9805 56.6104 78.9805ZM61.917 84.9316C66.0635 84.9316 68.5557 86.1992 68.5771 88.4336C68.5557 90.625 66.0635 91.8926 61.917 91.8926C57.7705 91.8926 55.2568 90.625 55.2568 88.4336C55.2568 86.1992 57.7705 84.9316 61.917 84.9316ZM61.917 86.7578C59.1455 86.7363 57.6416 87.2949 57.6416 88.4336C57.6416 89.5078 59.1455 90.0664 61.917 90.0664C64.667 90.0664 66.1709 89.5078 66.1709 88.4336C66.1709 87.2949 64.667 86.7363 61.917 86.7578ZM92.3604 72.4922V84.0293H89.9756V79.2812H86.667V77.3262H89.9756V72.4922H92.3604ZM85.7861 84.5234C89.9111 84.5234 92.4248 85.877 92.4248 88.2188C92.4248 90.5605 89.9111 91.9141 85.7861 91.9141C81.6826 91.9141 79.1689 90.5605 79.1904 88.2188C79.1689 85.877 81.6826 84.5234 85.7861 84.5234ZM85.7861 86.3496C83.0791 86.3496 81.5537 86.9941 81.5537 88.2188C81.5537 89.4219 83.0791 90.0664 85.7861 90.0664C88.4932 90.0664 90.04 89.4219 90.04 88.2188C90.04 86.9941 88.4932 86.3496 85.7861 86.3496ZM83.2295 75.8223C83.2295 78.1855 84.7979 80.5703 87.8057 81.5801L86.6025 83.4707C84.4434 82.7402 82.9072 81.2578 82.0693 79.4316C81.21 81.5049 79.5879 83.1592 77.2783 83.9863L76.0322 82.0957C79.1475 81.0215 80.8018 78.4004 80.8018 75.8438V75.6934H76.7627V73.7598H87.2471V75.6934H83.2295V75.8223ZM112.856 87.6172V89.5723H95.1104V87.6172H102.759V83.8359H97.0654V73.7812H99.4502V76.9609H108.452V73.7812H110.837V83.8359H105.122V87.6172H112.856ZM99.4502 81.9023H108.452V78.873H99.4502V81.9023ZM131.849 81.3008V83.1055H114.103V81.3008H131.849ZM129.7 84.2656V88.6914H118.571V90.0449H130.28V91.6992H116.187V87.1445H127.337V85.9414H116.165V84.2656H129.7ZM129.657 72.9219V77.3047H118.722V78.5723H130.001V80.2051H116.358V75.7578H127.272V74.5762H116.294V72.9219H129.657ZM154.536 72.4922V82.9121H152.13V72.4922H154.536ZM144.052 83.8145V85.8125H152.151V83.8145H154.536V91.6777H141.688V83.8145H144.052ZM144.052 89.7441H152.151V87.6816H144.052V89.7441ZM143.944 73.3516C146.931 73.3301 149.165 75.1992 149.165 77.9062C149.165 80.5488 146.931 82.418 143.944 82.418C140.937 82.418 138.702 80.5488 138.702 77.9062C138.702 75.1992 140.937 73.3301 143.944 73.3516ZM143.944 75.3496C142.247 75.3496 141.022 76.3379 141.044 77.9062C141.022 79.4531 142.247 80.4414 143.944 80.4629C145.62 80.4414 146.823 79.4531 146.823 77.9062C146.823 76.3379 145.62 75.3496 143.944 75.3496ZM166.653 73.6523V79.4961H160.53V81.8809C163.646 81.8916 165.439 81.7949 167.491 81.4082L167.728 83.3418C165.407 83.7285 163.388 83.793 159.585 83.793H158.167V77.7129H164.269V75.543H158.124V73.6523H166.653ZM173.636 72.5137V84.459H171.251V81.2578H167.813V79.3457H171.251V77.1758H167.813V75.2637H171.251V72.5137H173.636ZM173.636 85.3828V91.9141H171.251V87.2949H160.358V85.3828H173.636ZM185.86 75.5859V77.498H176.343V75.5859H179.952V73.0508H182.315V75.5859H185.86ZM181.134 78.5293C183.604 78.5293 185.366 80.3984 185.366 83.041C185.366 85.7266 183.604 87.6172 181.134 87.6172C178.685 87.6172 176.88 85.7266 176.901 83.041C176.88 80.3984 178.685 78.5293 181.134 78.5293ZM181.134 80.5059C179.866 80.5059 178.985 81.5156 179.007 83.041C178.985 84.6094 179.866 85.5977 181.134 85.5762C182.38 85.5977 183.261 84.6094 183.261 83.041C183.261 81.5156 182.38 80.5059 181.134 80.5059ZM193.079 72.4922V91.9141H190.802V82.418H188.911V91.0332H186.677V72.9004H188.911V80.4844H190.802V72.4922H193.079ZM213.103 83.3203V85.2539H205.39V91.8926H203.026V85.2539H195.399V83.3203H213.103ZM211.47 73.5879V75.4785H205.647C205.787 77.6055 208.344 79.6465 212.179 80.1406L211.319 82.0098C208.011 81.5479 205.433 80.0332 204.251 77.9277C203.069 80.0332 200.491 81.5479 197.226 82.0098L196.323 80.1406C200.137 79.6465 202.693 77.6055 202.876 75.4785H197.032V73.5879H211.47ZM220.472 77.584C220.472 80.7207 221.567 83.9863 224.188 85.6406L222.878 87.4668C221.127 86.4141 219.988 84.5986 219.354 82.4609C218.646 84.8135 217.399 86.8008 215.573 87.918L214.091 86.1348C216.905 84.416 218.173 81 218.173 77.6914V74.2109H220.472V77.584ZM231.171 72.4922V91.9141H228.872V72.4922H231.171ZM227.132 72.8359V90.9688H224.876V81.1504H222.104V79.1738H224.876V72.8359H227.132ZM251.173 87.5957V89.5508H233.427V87.5957H237.53V82.6758C235.983 81.7949 235.049 80.4092 235.06 78.6797C235.038 75.5859 238.089 73.5449 242.257 73.5449C246.446 73.5449 249.497 75.5859 249.497 78.6797C249.497 80.377 248.595 81.7412 247.091 82.6328V87.5957H251.173ZM242.257 75.4355C239.356 75.4355 237.38 76.6602 237.401 78.6797C237.38 80.6777 239.356 81.9238 242.257 81.9238C245.157 81.9238 247.155 80.6777 247.155 78.6797C247.155 76.6602 245.157 75.4355 242.257 75.4355ZM239.894 87.5957H244.663V83.5352C243.922 83.707 243.116 83.793 242.257 83.793C241.419 83.793 240.624 83.707 239.894 83.5566V87.5957Z" fill="#E8E4DC"/>
</g>
<g id="Container">
<g id="DestinationField">
<g id="Paragraph">
<path id="&#236;&#151;&#172;&#237;&#150;&#137;&#236;&#167;&#128;" d="M35.7871 127.754C36.3431 127.754 36.8444 127.903 37.291 128.199C37.7422 128.495 38.1068 128.917 38.3848 129.463H41.2695V126.852H42.7734V139.225H41.2695V134.549H38.4941C38.2253 135.165 37.8561 135.643 37.3867 135.985C36.9173 136.322 36.3841 136.491 35.7871 136.491C35.1673 136.491 34.6182 136.313 34.1396 135.958C33.6611 135.602 33.2874 135.094 33.0186 134.433C32.7497 133.772 32.6152 133 32.6152 132.116C32.6152 131.241 32.7497 130.475 33.0186 129.819C33.2874 129.158 33.6611 128.65 34.1396 128.294C34.6227 127.934 35.1719 127.754 35.7871 127.754ZM35.7871 129.122C35.4453 129.122 35.1445 129.242 34.8848 129.484C34.625 129.721 34.4245 130.065 34.2832 130.516C34.1419 130.963 34.0736 131.496 34.0781 132.116C34.0736 132.74 34.1419 133.278 34.2832 133.729C34.4245 134.18 34.625 134.527 34.8848 134.768C35.1445 135.005 35.4453 135.124 35.7871 135.124C36.1289 135.124 36.4274 135.005 36.6826 134.768C36.9424 134.527 37.1429 134.18 37.2842 133.729C37.43 133.278 37.5052 132.74 37.5098 132.116C37.5052 131.496 37.43 130.96 37.2842 130.509C37.1429 130.058 36.9424 129.714 36.6826 129.477C36.4274 129.24 36.1289 129.122 35.7871 129.122ZM38.8086 130.708C38.8997 131.15 38.9453 131.619 38.9453 132.116C38.9453 132.526 38.9134 132.927 38.8496 133.319H41.2695V130.708H38.8086ZM55.0781 134.618H53.6289V131.254H52.4258V134.208H51.0039V127.098H52.4258V130.024H53.6289V126.852H55.0781V134.618ZM50.5938 129.381H44.4414V128.192H46.7793V126.961H48.2832V128.192H50.5938V129.381ZM47.5312 129.887C48.0508 129.887 48.5133 129.976 48.9189 130.154C49.3245 130.332 49.6413 130.582 49.8691 130.906C50.1016 131.225 50.2201 131.596 50.2246 132.02C50.2201 132.444 50.1016 132.818 49.8691 133.141C49.6413 133.46 49.3245 133.708 48.9189 133.886C48.5133 134.064 48.0508 134.153 47.5312 134.153C47.0208 134.153 46.5628 134.064 46.1572 133.886C45.7516 133.708 45.4349 133.458 45.207 133.134C44.9837 132.811 44.8743 132.439 44.8789 132.02C44.8743 131.601 44.9837 131.229 45.207 130.906C45.4349 130.582 45.7516 130.332 46.1572 130.154C46.5628 129.976 47.0208 129.887 47.5312 129.887ZM47.5312 130.981C47.1439 130.981 46.8294 131.074 46.5879 131.261C46.3509 131.448 46.2324 131.701 46.2324 132.02C46.2324 132.339 46.3509 132.592 46.5879 132.779C46.8249 132.966 47.1393 133.059 47.5312 133.059C47.9232 133.059 48.2399 132.966 48.4814 132.779C48.723 132.592 48.8438 132.339 48.8438 132.02C48.8438 131.701 48.723 131.448 48.4814 131.261C48.2399 131.074 47.9232 130.981 47.5312 130.981ZM50.9082 134.768C51.7878 134.768 52.5443 134.855 53.1777 135.028C53.8112 135.201 54.2965 135.456 54.6338 135.793C54.971 136.126 55.1419 136.527 55.1465 136.997C55.1419 137.457 54.9688 137.851 54.627 138.179C54.2897 138.512 53.8044 138.765 53.1709 138.938C52.5374 139.111 51.7832 139.198 50.9082 139.198C50.0332 139.198 49.2767 139.111 48.6387 138.938C48.0052 138.765 47.5176 138.512 47.1758 138.179C46.8385 137.851 46.6699 137.457 46.6699 136.997C46.6699 136.527 46.8385 136.126 47.1758 135.793C47.5176 135.456 48.0052 135.201 48.6387 135.028C49.2721 134.855 50.0286 134.768 50.9082 134.768ZM50.9082 135.93C50.0195 135.921 49.3428 136.008 48.8779 136.19C48.4176 136.368 48.1875 136.637 48.1875 136.997C48.1875 137.338 48.4199 137.598 48.8848 137.776C49.3496 137.949 50.0241 138.036 50.9082 138.036C51.7878 138.036 52.4577 137.949 52.918 137.776C53.3828 137.598 53.6152 137.338 53.6152 136.997C53.6152 136.637 53.3828 136.368 52.918 136.19C52.4577 136.008 51.7878 135.921 50.9082 135.93ZM61.2715 130.366C61.2715 131.045 61.3991 131.717 61.6543 132.382C61.9141 133.043 62.2832 133.638 62.7617 134.167C63.2448 134.691 63.8099 135.087 64.457 135.356L63.623 136.559C62.9076 136.254 62.2855 135.796 61.7568 135.185C61.2282 134.574 60.818 133.866 60.5264 133.059C60.2347 133.925 59.8223 134.693 59.2891 135.363C58.7604 136.028 58.1406 136.527 57.4297 136.86L56.5547 135.67C57.1882 135.379 57.7441 134.95 58.2227 134.385C58.7057 133.82 59.0771 133.187 59.3369 132.485C59.5967 131.778 59.7266 131.072 59.7266 130.366V129.327H57.0059V128.069H63.9785V129.327H61.2715V130.366ZM66.8906 139.211H65.3594V126.852H66.8906V139.211Z" fill="#B8B5AE"/>
</g>
<g id="Container_2" filter="url(#filter0_dd_121_4871)">
<path d="M32 169.991C32 161.155 39.1634 153.991 48 153.991H361.342C370.178 153.991 377.342 161.155 377.342 169.991V192.965C377.342 201.802 370.178 208.965 361.342 208.965H48C39.1635 208.965 32 201.802 32 192.965V169.991Z" fill="#262B28"/>
<path d="M48 154.491H361.342C369.902 154.491 376.842 161.431 376.842 169.991V192.965C376.842 201.525 369.902 208.465 361.342 208.465H48C39.4396 208.465 32.5 201.525 32.5 192.965V169.991C32.5 161.431 39.4396 154.491 48 154.491Z" stroke="#373F3B"/>
<g id="Text Input">
<path id="&#236;&#151;&#172;&#237;&#150;&#137;&#236;&#167;&#128;&#235;&#165;&#188; &#236;&#158;&#133;&#235;&#160;&#165;&#237;&#149;&#152;&#236;&#132;&#184;&#236;&#154;&#148;" d="M55.5488 175.506C56.75 175.506 57.7388 176.173 58.332 177.337H61.4229V174.54H63.0342V187.796H61.4229V182.787H58.4492C57.8779 184.105 56.8306 184.867 55.5488 184.867C53.5566 184.867 52.1504 183.065 52.1504 180.179C52.1504 177.323 53.5566 175.506 55.5488 175.506ZM55.5488 176.971C54.4502 176.971 53.7031 178.158 53.7178 180.179C53.7031 182.215 54.4502 183.402 55.5488 183.402C56.6475 183.402 57.3799 182.215 57.3945 180.179C57.3799 178.158 56.6475 176.971 55.5488 176.971ZM58.7861 178.67C58.8813 179.132 58.9326 179.637 58.9326 180.179C58.9326 180.641 58.896 181.065 58.8301 181.468H61.4229V178.67H58.7861ZM76.2178 174.54V182.86H74.665V179.256H73.376V182.42H71.8525V174.803H73.376V177.938H74.665V174.54H76.2178ZM71.4131 175.975V177.25H64.8213V175.975H67.3262V174.657H68.9375V175.975H71.4131ZM68.1318 177.792C69.8164 177.792 71.0029 178.7 71.0176 180.077C71.0029 181.454 69.8164 182.362 68.1318 182.362C66.4766 182.362 65.2754 181.454 65.29 180.077C65.2754 178.7 66.4766 177.792 68.1318 177.792ZM68.1318 178.963C67.3115 178.963 66.7402 179.388 66.7402 180.077C66.7402 180.765 67.2969 181.19 68.1318 181.19C68.9668 181.19 69.5381 180.765 69.5381 180.077C69.5381 179.388 68.9668 178.963 68.1318 178.963ZM71.75 183.021C74.5771 183.021 76.2764 183.885 76.291 185.409C76.2764 186.903 74.5771 187.767 71.75 187.767C68.9229 187.767 67.209 186.903 67.209 185.409C67.209 183.885 68.9229 183.021 71.75 183.021ZM71.75 184.266C69.8604 184.251 68.835 184.632 68.835 185.409C68.835 186.141 69.8604 186.522 71.75 186.522C73.625 186.522 74.6504 186.141 74.6504 185.409C74.6504 184.632 73.625 184.251 71.75 184.266ZM82.8535 178.304C82.8535 180.472 84.1279 182.757 86.2666 183.651L85.373 184.94C83.8057 184.266 82.6631 182.875 82.0625 181.19C81.4473 183.006 80.29 184.53 78.7373 185.262L77.7998 183.988C79.8945 183.021 81.1982 180.56 81.1982 178.304V177.191H78.2832V175.843H85.7539V177.191H82.8535V178.304ZM88.874 174.54V187.782H87.2334V174.54H88.874ZM102.907 180.545V181.776H90.8076V180.545H102.907ZM101.442 182.567V185.584H93.8545V186.507H101.838V187.635H92.2285V184.53H99.8311V183.709H92.2139V182.567H101.442ZM101.413 174.833V177.821H93.957V178.685H101.647V179.798H92.3457V176.766H99.7871V175.96H92.3018V174.833H101.413ZM118.376 174.54V181.644H116.735V174.54H118.376ZM111.228 182.259V183.622H116.75V182.259H118.376V187.621H109.616V182.259H111.228ZM111.228 186.302H116.75V184.896H111.228V186.302ZM111.154 175.125C113.19 175.111 114.714 176.385 114.714 178.231C114.714 180.033 113.19 181.307 111.154 181.307C109.104 181.307 107.58 180.033 107.58 178.231C107.58 176.385 109.104 175.111 111.154 175.125ZM111.154 176.488C109.997 176.488 109.162 177.162 109.177 178.231C109.162 179.286 109.997 179.959 111.154 179.974C112.297 179.959 113.117 179.286 113.117 178.231C113.117 177.162 112.297 176.488 111.154 176.488ZM126.638 175.331V179.315H122.463V180.941C124.587 180.948 125.81 180.882 127.209 180.619L127.37 181.937C125.788 182.201 124.411 182.245 121.818 182.245H120.852V178.099H125.012V176.62H120.822V175.331H126.638ZM131.398 174.554V182.699H129.772V180.516H127.429V179.212H129.772V177.733H127.429V176.429H129.772V174.554H131.398ZM131.398 183.329V187.782H129.772V184.632H122.346V183.329H131.398ZM143.645 174.54V179.813H145.681V181.161H143.645V187.782H142.033V174.54H143.645ZM141.008 176.576V177.879H133.2V176.576H136.335V174.73H137.961V176.576H141.008ZM137.155 178.744C139.06 178.744 140.48 180.033 140.48 181.864C140.48 183.695 139.06 184.969 137.155 184.969C135.222 184.969 133.801 183.695 133.815 181.864C133.801 180.033 135.222 178.744 137.155 178.744ZM137.155 180.077C136.115 180.077 135.368 180.78 135.368 181.864C135.368 182.948 136.115 183.636 137.155 183.622C138.166 183.636 138.913 182.948 138.928 181.864C138.913 180.78 138.166 180.077 137.155 180.077ZM150.368 178.011C150.368 180.15 151.115 182.376 152.902 183.504L152.009 184.75C150.815 184.032 150.039 182.794 149.606 181.336C149.123 182.94 148.273 184.295 147.028 185.057L146.018 183.841C147.937 182.669 148.801 180.34 148.801 178.084V175.711H150.368V178.011ZM157.663 174.54V187.782H156.096V174.54H157.663ZM154.909 174.774V187.137H153.371V180.443H151.481V179.095H153.371V174.774H154.909ZM171.301 184.837V186.17H159.201V184.837H161.999V181.483C160.944 180.882 160.307 179.938 160.314 178.758C160.3 176.649 162.38 175.257 165.222 175.257C168.078 175.257 170.158 176.649 170.158 178.758C170.158 179.916 169.543 180.846 168.518 181.454V184.837H171.301ZM165.222 176.546C163.244 176.546 161.896 177.381 161.911 178.758C161.896 180.121 163.244 180.97 165.222 180.97C167.199 180.97 168.562 180.121 168.562 178.758C168.562 177.381 167.199 176.546 165.222 176.546ZM163.61 184.837H166.862V182.069C166.357 182.186 165.808 182.245 165.222 182.245C164.65 182.245 164.108 182.186 163.61 182.083V184.837Z" fill="#7A7873"/>
</g>
<g id="Icon">
<path id="Vector" d="M347.02 187.31C350.701 187.31 353.685 184.326 353.685 180.645C353.685 176.964 350.701 173.98 347.02 173.98C343.339 173.98 340.355 176.964 340.355 180.645C340.355 184.326 343.339 187.31 347.02 187.31Z" stroke="#7A7873" stroke-width="1.66623" stroke-linecap="round" stroke-linejoin="round"/>
<path id="Vector_2" d="M355.351 188.976L351.769 185.394" stroke="#7A7873" stroke-width="1.66623" stroke-linecap="round" stroke-linejoin="round"/>
</g>
</g>
</g>
<g id="DateField">
<g id="Paragraph_2">
<path id="&#235;&#130;&#160;&#236;&#167;&#156;" d="M42.1582 240.226H43.8809V241.484H42.1582V243.972H40.6406V237.82H42.1582V240.226ZM34.4746 242.27C36.2428 242.247 37.9245 242.081 39.5195 241.771L39.6973 243.015C38.7767 243.202 37.8698 243.336 36.9766 243.418C36.0833 243.496 35.1764 243.535 34.2559 243.535H33.9688H32.9434V238.367H34.4746V242.27ZM42.1582 247.787H35.6094V248.798H42.541V250.029H34.0918V246.625H40.627V245.708H34.0781V244.505H42.1582V247.787ZM54.5586 242.564H56.0625V243.835H54.5586V250.179H53.041V237.82H54.5586V242.564ZM47.5312 241.128C47.5312 242.003 47.6042 242.828 47.75 243.603C47.8958 244.378 48.1693 245.061 48.5703 245.654C48.9622 245.066 49.2311 244.385 49.377 243.61C49.5228 242.831 49.5957 242.003 49.5957 241.128V240.185H48.8027V238.955H52.248V240.185H51.0449V241.128C51.0449 242.309 51.1771 243.364 51.4414 244.293C51.7057 245.223 52.1888 245.945 52.8906 246.46L51.9199 247.554C51.1589 246.971 50.6165 246.043 50.293 244.772C49.9557 246.098 49.377 247.062 48.5566 247.664C47.7546 247.067 47.1826 246.103 46.8408 244.772C46.5127 246.043 45.9727 246.971 45.2207 247.554L44.25 246.46C44.9518 245.941 45.4349 245.214 45.6992 244.28C45.9635 243.341 46.0957 242.291 46.0957 241.128V240.185H44.7148V238.955H48.3242V240.185H47.5312V241.128Z" fill="#B8B5AE"/>
</g>
<g id="Button" filter="url(#filter1_dd_121_4871)">
<path d="M32 280.959C32 272.122 39.1634 264.959 48 264.959H361.342C370.178 264.959 377.342 272.122 377.342 280.959V303.933C377.342 312.769 370.178 319.933 361.342 319.933H48C39.1635 319.933 32 312.769 32 303.933V280.959Z" fill="#262B28"/>
<path d="M48 265.459H361.342C369.902 265.459 376.842 272.399 376.842 280.959V303.933C376.842 312.493 369.902 319.433 361.342 319.433H48C39.4396 319.433 32.5 312.493 32.5 303.933V280.959C32.5 272.399 39.4396 265.459 48 265.459Z" stroke="#373F3B"/>
<g id="Paragraph_3">
<path id="4 &#236;&#155;&#148; 10 &#236;&#157;&#188; ~ 4 &#236;&#155;&#148; 12 &#236;&#157;&#188;" d="M49.6885 293.943L54.2734 286.838H56.6465V293.899H58.0381V295.466H56.6465V297.444H54.8301V295.466H49.6885V293.943ZM54.8594 293.899V289.006H54.7422L51.6367 293.826V293.899H54.8594ZM73.7852 293.24H72.1445V292.698H69.6689V291.702H72.1445V285.52H73.7852V293.24ZM62.667 290.295C64.3125 290.295 65.8384 290.276 67.2446 290.237C68.6509 290.198 69.9912 290.115 71.2656 289.988L71.3535 291.013C70.2354 291.169 69.0098 291.279 67.6768 291.343V293.254H66.0654V291.409C65.4893 291.428 64.6543 291.438 63.5605 291.438H62.8428L62.667 290.295ZM73.7852 296.624H66.2559V297.473H74.1367V298.63H64.6592V295.554H72.1738V294.763H64.6006V293.65H73.7852V296.624ZM66.9443 285.725C67.5938 285.725 68.1675 285.808 68.6655 285.974C69.1685 286.14 69.5591 286.375 69.8374 286.677C70.1157 286.975 70.2549 287.322 70.2549 287.717C70.2549 288.123 70.1157 288.474 69.8374 288.772C69.5591 289.07 69.1709 289.299 68.6729 289.46C68.1748 289.617 67.5986 289.695 66.9443 289.695C66.2754 289.695 65.6895 289.617 65.1865 289.46C64.6836 289.299 64.293 289.07 64.0146 288.772C63.7412 288.474 63.6045 288.123 63.6045 287.717C63.6045 287.322 63.7437 286.975 64.022 286.677C64.3003 286.375 64.6909 286.14 65.1938 285.974C65.6968 285.808 66.2803 285.725 66.9443 285.725ZM66.9443 286.809C66.3877 286.809 65.9482 286.892 65.626 287.058C65.3037 287.219 65.1475 287.439 65.1572 287.717C65.1523 287.996 65.3086 288.215 65.626 288.376C65.9482 288.533 66.3877 288.611 66.9443 288.611C67.4912 288.611 67.9258 288.533 68.248 288.376C68.5703 288.215 68.7314 287.996 68.7314 287.717C68.7314 287.439 68.5679 287.219 68.2407 287.058C67.9185 286.892 67.4863 286.809 66.9443 286.809ZM83.9512 297.444H82.0322V288.699H81.9736L79.498 290.281V288.538L82.1201 286.838H83.9512V297.444ZM90.4404 297.59C89.5908 297.59 88.8608 297.378 88.2505 296.953C87.645 296.523 87.1787 295.901 86.8516 295.085C86.5293 294.27 86.3682 293.289 86.3682 292.141C86.3682 290.999 86.5293 290.02 86.8516 289.204C87.1787 288.384 87.6475 287.761 88.2578 287.336C88.8682 286.907 89.5957 286.692 90.4404 286.692C91.2803 286.692 92.0054 286.907 92.6157 287.336C93.231 287.761 93.6997 288.384 94.022 289.204C94.3491 290.02 94.5127 290.999 94.5127 292.141C94.5127 293.289 94.3491 294.27 94.022 295.085C93.6997 295.901 93.2334 296.523 92.623 296.953C92.0176 297.378 91.29 297.59 90.4404 297.59ZM90.4404 295.994C90.8896 295.994 91.2729 295.85 91.5903 295.562C91.9126 295.269 92.1592 294.836 92.3301 294.265C92.5059 293.689 92.5938 292.981 92.5938 292.141C92.5938 291.311 92.5059 290.608 92.3301 290.032C92.1592 289.451 91.9126 289.014 91.5903 288.721C91.2681 288.423 90.8848 288.274 90.4404 288.274C89.9961 288.274 89.6128 288.423 89.2905 288.721C88.9683 289.014 88.7192 289.451 88.5435 290.032C88.3726 290.608 88.2871 291.311 88.2871 292.141C88.2871 292.981 88.3726 293.689 88.5435 294.265C88.7192 294.836 88.9658 295.269 89.2832 295.562C89.6055 295.85 89.9912 295.994 90.4404 295.994ZM102.979 285.93C103.644 285.93 104.242 286.06 104.774 286.318C105.306 286.572 105.724 286.926 106.026 287.38C106.334 287.834 106.49 288.347 106.495 288.918C106.49 289.495 106.334 290.01 106.026 290.464C105.724 290.918 105.306 291.272 104.774 291.526C104.242 291.78 103.644 291.907 102.979 291.907C102.311 291.907 101.708 291.78 101.17 291.526C100.638 291.272 100.221 290.918 99.918 290.464C99.6152 290.01 99.4639 289.495 99.4639 288.918C99.4639 288.347 99.6152 287.834 99.918 287.38C100.221 286.926 100.641 286.572 101.178 286.318C101.715 286.06 102.315 285.93 102.979 285.93ZM102.979 287.278C102.608 287.278 102.276 287.346 101.983 287.483C101.69 287.615 101.461 287.805 101.295 288.054C101.129 288.298 101.046 288.586 101.046 288.918C101.046 289.255 101.129 289.551 101.295 289.805C101.461 290.054 101.69 290.247 101.983 290.383C102.276 290.52 102.608 290.588 102.979 290.588C103.351 290.588 103.683 290.52 103.976 290.383C104.269 290.247 104.498 290.054 104.664 289.805C104.83 289.551 104.913 289.255 104.913 288.918C104.913 288.586 104.83 288.298 104.664 288.054C104.498 287.805 104.269 287.615 103.976 287.483C103.683 287.346 103.351 287.278 102.979 287.278ZM110.26 292.2H108.619V285.505H110.26V292.2ZM110.26 296.228H103.097V297.297H110.655V298.586H101.5V295.027H108.634V294.045H101.471V292.771H110.26V296.228ZM116.72 291.746C116.959 291.482 117.23 291.282 117.533 291.145C117.835 291.008 118.155 290.94 118.492 290.94C118.751 290.94 119.002 290.974 119.247 291.042C119.491 291.106 119.801 291.208 120.177 291.35C120.538 291.487 120.841 291.589 121.085 291.658C121.334 291.726 121.588 291.76 121.847 291.76C122.53 291.76 123.106 291.482 123.575 290.925V292.522C123.336 292.791 123.065 292.993 122.762 293.13C122.464 293.262 122.145 293.328 121.803 293.328C121.544 293.328 121.288 293.293 121.034 293.225C120.78 293.152 120.475 293.049 120.118 292.917C119.762 292.786 119.457 292.686 119.203 292.617C118.954 292.544 118.702 292.507 118.448 292.507C117.765 292.507 117.188 292.786 116.72 293.342V291.746ZM129.229 293.943L133.814 286.838H136.188V293.899H137.579V295.466H136.188V297.444H134.371V295.466H129.229V293.943ZM134.4 293.899V289.006H134.283L131.178 293.826V293.899H134.4ZM153.326 293.24H151.686V292.698H149.21V291.702H151.686V285.52H153.326V293.24ZM142.208 290.295C143.854 290.295 145.379 290.276 146.786 290.237C148.192 290.198 149.532 290.115 150.807 289.988L150.895 291.013C149.776 291.169 148.551 291.279 147.218 291.343V293.254H145.606V291.409C145.03 291.428 144.195 291.438 143.102 291.438H142.384L142.208 290.295ZM153.326 296.624H145.797V297.473H153.678V298.63H144.2V295.554H151.715V294.763H144.142V293.65H153.326V296.624ZM146.485 285.725C147.135 285.725 147.708 285.808 148.207 285.974C148.709 286.14 149.1 286.375 149.378 286.677C149.657 286.975 149.796 287.322 149.796 287.717C149.796 288.123 149.657 288.474 149.378 288.772C149.1 289.07 148.712 289.299 148.214 289.46C147.716 289.617 147.14 289.695 146.485 289.695C145.816 289.695 145.23 289.617 144.728 289.46C144.225 289.299 143.834 289.07 143.556 288.772C143.282 288.474 143.146 288.123 143.146 287.717C143.146 287.322 143.285 286.975 143.563 286.677C143.841 286.375 144.232 286.14 144.735 285.974C145.238 285.808 145.821 285.725 146.485 285.725ZM146.485 286.809C145.929 286.809 145.489 286.892 145.167 287.058C144.845 287.219 144.688 287.439 144.698 287.717C144.693 287.996 144.85 288.215 145.167 288.376C145.489 288.533 145.929 288.611 146.485 288.611C147.032 288.611 147.467 288.533 147.789 288.376C148.111 288.215 148.272 287.996 148.272 287.717C148.272 287.439 148.109 287.219 147.782 287.058C147.459 286.892 147.027 286.809 146.485 286.809ZM163.492 297.444H161.573V288.699H161.515L159.039 290.281V288.538L161.661 286.838H163.492V297.444ZM166.07 296.067L169.82 292.449C170.226 292.043 170.538 291.711 170.758 291.453C170.982 291.189 171.153 290.93 171.271 290.676C171.388 290.417 171.446 290.144 171.446 289.856C171.446 289.534 171.368 289.25 171.212 289.006C171.056 288.762 170.838 288.574 170.56 288.442C170.287 288.311 169.977 288.245 169.63 288.245C169.269 288.245 168.951 288.318 168.678 288.464C168.409 288.606 168.202 288.811 168.055 289.08C167.909 289.343 167.838 289.651 167.843 290.002H166.026C166.021 289.343 166.173 288.765 166.48 288.267C166.788 287.764 167.215 287.375 167.762 287.102C168.314 286.829 168.941 286.692 169.645 286.692C170.357 286.692 170.987 286.824 171.534 287.087C172.086 287.351 172.513 287.717 172.816 288.186C173.124 288.65 173.277 289.177 173.277 289.768C173.277 290.178 173.197 290.574 173.036 290.955C172.879 291.335 172.611 291.758 172.23 292.222C171.849 292.681 171.31 293.24 170.611 293.899L168.722 295.774V295.847H173.438V297.444H166.07V296.067ZM181.979 285.93C182.643 285.93 183.241 286.06 183.773 286.318C184.305 286.572 184.723 286.926 185.025 287.38C185.333 287.834 185.489 288.347 185.494 288.918C185.489 289.495 185.333 290.01 185.025 290.464C184.723 290.918 184.305 291.272 183.773 291.526C183.241 291.78 182.643 291.907 181.979 291.907C181.31 291.907 180.707 291.78 180.169 291.526C179.637 291.272 179.22 290.918 178.917 290.464C178.614 290.01 178.463 289.495 178.463 288.918C178.463 288.347 178.614 287.834 178.917 287.38C179.22 286.926 179.64 286.572 180.177 286.318C180.714 286.06 181.314 285.93 181.979 285.93ZM181.979 287.278C181.607 287.278 181.275 287.346 180.982 287.483C180.689 287.615 180.46 287.805 180.294 288.054C180.128 288.298 180.045 288.586 180.045 288.918C180.045 289.255 180.128 289.551 180.294 289.805C180.46 290.054 180.689 290.247 180.982 290.383C181.275 290.52 181.607 290.588 181.979 290.588C182.35 290.588 182.682 290.52 182.975 290.383C183.268 290.247 183.497 290.054 183.663 289.805C183.829 289.551 183.912 289.255 183.912 288.918C183.912 288.586 183.829 288.298 183.663 288.054C183.497 287.805 183.268 287.615 182.975 287.483C182.682 287.346 182.35 287.278 181.979 287.278ZM189.259 292.2H187.618V285.505H189.259V292.2ZM189.259 296.228H182.096V297.297H189.654V298.586H180.499V295.027H187.633V294.045H180.47V292.771H189.259V296.228Z" fill="#E8E4DC"/>
</g>
<g id="Icon_2">
<path id="Vector_3" d="M347.012 284.115V287.447" stroke="#7A7873" stroke-width="1.66623" stroke-linecap="round" stroke-linejoin="round"/>
<path id="Vector_4" d="M353.677 284.115V287.447" stroke="#7A7873" stroke-width="1.66623" stroke-linecap="round" stroke-linejoin="round"/>
<path id="Vector_5" d="M356.176 285.781H344.513C343.593 285.781 342.847 286.527 342.847 287.447V299.111C342.847 300.031 343.593 300.777 344.513 300.777H356.176C357.097 300.777 357.843 300.031 357.843 299.111V287.447C357.843 286.527 357.097 285.781 356.176 285.781Z" stroke="#7A7873" stroke-width="1.66623" stroke-linecap="round" stroke-linejoin="round"/>
<path id="Vector_6" d="M342.847 290.78H357.843" stroke="#7A7873" stroke-width="1.66623" stroke-linecap="round" stroke-linejoin="round"/>
</g>
</g>
</g>
<g id="GuestsField">
<g id="Paragraph_4">
<path id="&#236;&#157;&#184;&#236;&#155;&#144;" d="M42.7051 357.729H41.1738V348.801H42.7051V357.729ZM43.0469 360.9H34.5293V356.826H36.0605V359.67H43.0469V360.9ZM35.9648 349.607C36.5846 349.607 37.1475 349.742 37.6533 350.011C38.1592 350.275 38.5579 350.642 38.8496 351.111C39.1413 351.581 39.2871 352.109 39.2871 352.697C39.2871 353.294 39.1413 353.83 38.8496 354.304C38.5579 354.773 38.1592 355.14 37.6533 355.404C37.1475 355.669 36.5846 355.801 35.9648 355.801C35.3405 355.801 34.7731 355.669 34.2627 355.404C33.7568 355.14 33.3581 354.773 33.0664 354.304C32.7747 353.83 32.6289 353.294 32.6289 352.697C32.6289 352.109 32.7747 351.581 33.0664 351.111C33.3581 350.642 33.7568 350.275 34.2627 350.011C34.7731 349.742 35.3405 349.607 35.9648 349.607ZM35.9648 350.934C35.6139 350.934 35.2972 351.007 35.0146 351.152C34.7321 351.298 34.5111 351.506 34.3516 351.774C34.1921 352.043 34.1146 352.351 34.1191 352.697C34.1146 353.053 34.1921 353.365 34.3516 353.634C34.5111 353.903 34.7321 354.11 35.0146 354.256C35.2972 354.402 35.6139 354.475 35.9648 354.475C36.3066 354.475 36.6165 354.402 36.8945 354.256C37.1725 354.11 37.3913 353.903 37.5508 353.634C37.7148 353.365 37.7969 353.053 37.7969 352.697C37.7969 352.351 37.7148 352.043 37.5508 351.774C37.3913 351.506 37.1725 351.298 36.8945 351.152C36.6165 351.007 36.3066 350.934 35.9648 350.934ZM54.873 358.152H53.3418V357.072H50.9219V356.006H53.3418V348.801H54.873V358.152ZM55.1602 360.9H46.0957V357.25H47.6133V359.67H55.1602V360.9ZM44.4551 354.352C46.0592 354.342 47.4993 354.315 48.7754 354.27C50.0514 354.224 51.2682 354.128 52.4258 353.982L52.5078 355.076C51.5189 355.24 50.4798 355.359 49.3906 355.432V357.811H47.873V355.514C46.9935 355.55 45.918 355.568 44.6465 355.568L44.4551 354.352ZM48.4883 349.252C49.0853 349.252 49.6139 349.345 50.0742 349.532C50.5391 349.715 50.9014 349.972 51.1611 350.305C51.4255 350.633 51.5599 351.011 51.5645 351.439C51.5599 351.877 51.4277 352.26 51.168 352.588C50.9082 352.916 50.5459 353.169 50.0811 353.347C49.6162 353.524 49.0853 353.613 48.4883 353.613C47.8822 353.613 47.3444 353.524 46.875 353.347C46.4102 353.169 46.0479 352.916 45.7881 352.588C45.5283 352.26 45.3984 351.877 45.3984 351.439C45.3984 351.011 45.5283 350.633 45.7881 350.305C46.0479 349.972 46.4102 349.715 46.875 349.532C47.3444 349.345 47.8822 349.252 48.4883 349.252ZM48.4883 350.373C47.9915 350.373 47.5905 350.469 47.2852 350.66C46.9844 350.847 46.834 351.107 46.834 351.439C46.834 351.772 46.9844 352.034 47.2852 352.226C47.5905 352.412 47.9915 352.506 48.4883 352.506C48.9668 352.506 49.3564 352.41 49.6572 352.219C49.958 352.027 50.1107 351.768 50.1152 351.439C50.1107 351.111 49.958 350.852 49.6572 350.66C49.3564 350.469 48.9668 350.373 48.4883 350.373Z" fill="#B8B5AE"/>
</g>
<g id="Button_2" filter="url(#filter2_dd_121_4871)">
<path d="M32 391.927C32 383.09 39.1634 375.927 48 375.927H361.342C370.178 375.927 377.342 383.09 377.342 391.927V414.901C377.342 423.737 370.178 430.901 361.342 430.901H48C39.1635 430.901 32 423.737 32 414.901V391.927Z" fill="#262B28"/>
<path d="M48 376.427H361.342C369.902 376.427 376.842 383.366 376.842 391.927V414.9C376.842 423.461 369.902 430.4 361.342 430.4H48C39.4396 430.4 32.5 423.461 32.5 414.9V391.927C32.5 383.366 39.4396 376.427 48 376.427Z" stroke="#373F3B"/>
<g id="Paragraph_5">
<path id="&#236;&#132;&#177;&#236;&#157;&#184; 2 &#235;&#170;&#133;, &#236;&#149;&#132;&#235;&#143;&#153; 1 &#235;&#170;&#133;" d="M54.2881 398.377C54.2832 398.988 54.3979 399.564 54.6323 400.106C54.8667 400.648 55.2183 401.126 55.687 401.542C56.1606 401.952 56.7344 402.264 57.4082 402.479L56.5293 403.753C55.8164 403.504 55.2061 403.148 54.6982 402.684C54.1953 402.22 53.7998 401.668 53.5117 401.029C53.2139 401.766 52.7866 402.406 52.23 402.948C51.6733 403.485 51.002 403.89 50.2158 404.164L49.3516 402.845C50.0645 402.611 50.6675 402.271 51.1606 401.827C51.6538 401.383 52.0249 400.87 52.2739 400.289C52.5229 399.708 52.6475 399.095 52.6475 398.451V397.191H54.2881V398.377ZM60.5283 404.266H58.9023V400.37H56.2656V399.037H58.9023V396.473H60.5283V404.266ZM56.0459 404.618C56.9785 404.618 57.7842 404.718 58.4629 404.918C59.1465 405.118 59.6689 405.411 60.0303 405.797C60.3916 406.178 60.5723 406.634 60.5723 407.167C60.5723 407.699 60.3916 408.155 60.0303 408.536C59.6689 408.917 59.1489 409.205 58.4702 409.4C57.7915 409.601 56.9834 409.701 56.0459 409.701C55.1133 409.701 54.3076 409.601 53.6289 409.4C52.9551 409.205 52.4375 408.917 52.0762 408.536C51.7197 408.155 51.5439 407.699 51.5488 407.167C51.5439 406.634 51.7197 406.178 52.0762 405.797C52.4375 405.411 52.9575 405.118 53.6362 404.918C54.3149 404.718 55.1182 404.618 56.0459 404.618ZM56.0459 405.877C55.1182 405.877 54.4053 405.99 53.9072 406.214C53.4092 406.434 53.1602 406.751 53.1602 407.167C53.1602 407.572 53.4092 407.884 53.9072 408.104C54.4102 408.319 55.123 408.426 56.0459 408.426C56.9688 408.426 57.6816 408.316 58.1846 408.097C58.6924 407.877 58.9463 407.567 58.9463 407.167C58.9463 406.751 58.6948 406.434 58.1919 406.214C57.689 405.99 56.9736 405.877 56.0459 405.877ZM73.4336 406.053H71.793V396.488H73.4336V406.053ZM73.7998 409.452H64.6738V405.086H66.3145V408.133H73.7998V409.452ZM66.2119 397.352C66.876 397.352 67.479 397.496 68.021 397.784C68.563 398.067 68.9902 398.46 69.3027 398.963C69.6152 399.466 69.7715 400.033 69.7715 400.663C69.7715 401.302 69.6152 401.876 69.3027 402.384C68.9902 402.887 68.563 403.28 68.021 403.563C67.479 403.846 66.876 403.988 66.2119 403.988C65.543 403.988 64.9351 403.846 64.3882 403.563C63.8462 403.28 63.4189 402.887 63.1064 402.384C62.7939 401.876 62.6377 401.302 62.6377 400.663C62.6377 400.033 62.7939 399.466 63.1064 398.963C63.4189 398.46 63.8462 398.067 64.3882 397.784C64.9351 397.496 65.543 397.352 66.2119 397.352ZM66.2119 398.773C65.8359 398.773 65.4966 398.851 65.1938 399.007C64.8911 399.164 64.6543 399.386 64.4834 399.674C64.3125 399.962 64.2295 400.292 64.2344 400.663C64.2295 401.043 64.3125 401.378 64.4834 401.666C64.6543 401.954 64.8911 402.176 65.1938 402.333C65.4966 402.489 65.8359 402.567 66.2119 402.567C66.5781 402.567 66.9102 402.489 67.208 402.333C67.5059 402.176 67.7402 401.954 67.9111 401.666C68.0869 401.378 68.1748 401.043 68.1748 400.663C68.1748 400.292 68.0869 399.962 67.9111 399.674C67.7402 399.386 67.5059 399.164 67.208 399.007C66.9102 398.851 66.5781 398.773 66.2119 398.773ZM79.3662 407.035L83.1162 403.417C83.5215 403.011 83.834 402.679 84.0537 402.42C84.2783 402.157 84.4492 401.898 84.5664 401.644C84.6836 401.385 84.7422 401.112 84.7422 400.824C84.7422 400.501 84.6641 400.218 84.5078 399.974C84.3516 399.73 84.1343 399.542 83.856 399.41C83.5825 399.278 83.2725 399.212 82.9258 399.212C82.5645 399.212 82.2471 399.286 81.9736 399.432C81.7051 399.574 81.4976 399.779 81.3511 400.047C81.2046 400.311 81.1338 400.619 81.1387 400.97H79.3223C79.3174 400.311 79.4688 399.732 79.7764 399.234C80.084 398.731 80.5112 398.343 81.0581 398.07C81.6099 397.796 82.2373 397.66 82.9404 397.66C83.6533 397.66 84.2832 397.792 84.8301 398.055C85.3818 398.319 85.8091 398.685 86.1118 399.154C86.4194 399.618 86.5732 400.145 86.5732 400.736C86.5732 401.146 86.4927 401.542 86.3315 401.922C86.1753 402.303 85.9067 402.726 85.5259 403.189C85.145 403.648 84.6055 404.208 83.9072 404.867L82.0176 406.742V406.815H86.7344V408.412H79.3662V407.035ZM102.613 404.266H100.987V402.435H98.3213V403.46H92.0957V397.469H98.3213V398.495H100.987V396.473H102.613V404.266ZM93.7217 402.157H96.71V398.758H93.7217V402.157ZM98.1309 404.618C99.0635 404.618 99.8691 404.718 100.548 404.918C101.231 405.118 101.754 405.411 102.115 405.797C102.477 406.178 102.657 406.634 102.657 407.167C102.657 407.699 102.477 408.155 102.115 408.536C101.754 408.917 101.234 409.205 100.555 409.4C99.8765 409.601 99.0684 409.701 98.1309 409.701C97.1982 409.701 96.3926 409.601 95.7139 409.4C95.04 409.205 94.5225 408.917 94.1611 408.536C93.8047 408.155 93.6289 407.699 93.6338 407.167C93.6289 406.634 93.8047 406.178 94.1611 405.797C94.5225 405.411 95.0425 405.118 95.7212 404.918C96.3999 404.718 97.2031 404.618 98.1309 404.618ZM98.1309 405.863C97.2031 405.863 96.4902 405.975 95.9922 406.2C95.4941 406.419 95.2451 406.742 95.2451 407.167C95.2451 407.577 95.4941 407.892 95.9922 408.111C96.4951 408.331 97.208 408.441 98.1309 408.441C99.0586 408.441 99.7739 408.331 100.277 408.111C100.78 407.892 101.031 407.577 101.031 407.167C101.031 406.742 100.78 406.419 100.277 406.2C99.7739 405.975 99.0586 405.863 98.1309 405.863ZM100.987 401.117V399.784H98.3213V401.117H100.987ZM105.836 411.473H104.444L105.206 407.372H107.066L105.836 411.473ZM115.431 397.44C116.095 397.44 116.686 397.633 117.203 398.019C117.721 398.399 118.126 398.944 118.419 399.652C118.717 400.355 118.868 401.175 118.873 402.113C118.868 403.06 118.717 403.888 118.419 404.596C118.126 405.304 117.721 405.848 117.203 406.229C116.686 406.61 116.095 406.8 115.431 406.8C114.762 406.8 114.166 406.61 113.644 406.229C113.121 405.843 112.713 405.296 112.42 404.588C112.127 403.88 111.983 403.055 111.988 402.113C111.983 401.18 112.127 400.36 112.42 399.652C112.713 398.944 113.121 398.399 113.644 398.019C114.166 397.633 114.762 397.44 115.431 397.44ZM115.431 398.905C115.06 398.905 114.732 399.034 114.449 399.293C114.166 399.547 113.946 399.916 113.79 400.399C113.634 400.877 113.556 401.449 113.556 402.113C113.556 402.782 113.634 403.358 113.79 403.841C113.946 404.325 114.166 404.696 114.449 404.955C114.732 405.208 115.06 405.335 115.431 405.335C115.807 405.335 116.136 405.208 116.419 404.955C116.703 404.696 116.92 404.325 117.071 403.841C117.228 403.358 117.306 402.782 117.306 402.113C117.306 401.449 117.228 400.875 117.071 400.392C116.92 399.908 116.703 399.54 116.419 399.286C116.136 399.032 115.807 398.905 115.431 398.905ZM122.242 401.556H124.278V402.933H122.242V409.715H120.616V396.473H122.242V401.556ZM136.92 404.12H124.835V402.816H130.079V401.556H126.314V397.074H135.455V398.348H127.94V400.267H135.528V401.556H131.676V402.816H136.92V404.12ZM130.855 404.881C131.808 404.881 132.625 404.977 133.309 405.167C133.993 405.353 134.518 405.626 134.884 405.987C135.25 406.349 135.436 406.786 135.44 407.298C135.436 407.806 135.25 408.241 134.884 408.602C134.518 408.963 133.99 409.239 133.302 409.43C132.618 409.62 131.803 409.715 130.855 409.715C129.898 409.715 129.073 409.62 128.38 409.43C127.687 409.239 127.157 408.963 126.791 408.602C126.424 408.241 126.241 407.806 126.241 407.298C126.241 406.786 126.424 406.349 126.791 405.987C127.157 405.626 127.684 405.353 128.373 405.167C129.066 404.977 129.894 404.881 130.855 404.881ZM130.855 406.126C129.889 406.126 129.151 406.227 128.644 406.427C128.141 406.627 127.892 406.917 127.896 407.298C127.892 407.679 128.141 407.967 128.644 408.163C129.146 408.358 129.884 408.456 130.855 408.456C131.808 408.456 132.538 408.358 133.045 408.163C133.553 407.967 133.81 407.679 133.814 407.298C133.81 406.917 133.551 406.627 133.038 406.427C132.53 406.227 131.803 406.126 130.855 406.126ZM146.104 408.412H144.186V399.667H144.127L141.651 401.249V399.505L144.273 397.806H146.104V408.412ZM162.892 404.266H161.266V402.435H158.6V403.46H152.374V397.469H158.6V398.495H161.266V396.473H162.892V404.266ZM154 402.157H156.988V398.758H154V402.157ZM158.409 404.618C159.342 404.618 160.147 404.718 160.826 404.918C161.51 405.118 162.032 405.411 162.394 405.797C162.755 406.178 162.936 406.634 162.936 407.167C162.936 407.699 162.755 408.155 162.394 408.536C162.032 408.917 161.512 409.205 160.833 409.4C160.155 409.601 159.347 409.701 158.409 409.701C157.477 409.701 156.671 409.601 155.992 409.4C155.318 409.205 154.801 408.917 154.439 408.536C154.083 408.155 153.907 407.699 153.912 407.167C153.907 406.634 154.083 406.178 154.439 405.797C154.801 405.411 155.321 405.118 156 404.918C156.678 404.718 157.481 404.618 158.409 404.618ZM158.409 405.863C157.481 405.863 156.769 405.975 156.271 406.2C155.772 406.419 155.523 406.742 155.523 407.167C155.523 407.577 155.772 407.892 156.271 408.111C156.773 408.331 157.486 408.441 158.409 408.441C159.337 408.441 160.052 408.331 160.555 408.111C161.058 407.892 161.31 407.577 161.31 407.167C161.31 406.742 161.058 406.419 160.555 406.2C160.052 405.975 159.337 405.863 158.409 405.863ZM161.266 401.117V399.784H158.6V401.117H161.266Z" fill="#E8E4DC"/>
</g>
<g id="Frame">
<path id="Vector_7" d="M350.342 401.414L354.342 405.414L358.342 401.414" stroke="#7A7873" stroke-width="1.3" stroke-linecap="round" stroke-linejoin="round"/>
</g>
</g>
</g>
<g id="BudgetField">
<g id="Paragraph_6">
<path id="&#236;&#152;&#136;&#236;&#130;&#176;" d="M43.0742 459.755V472.114H41.6113V459.755H43.0742ZM40.5723 459.974V471.513H39.1367V467.616H37.5234C37.0654 468.833 36.2451 469.523 35.1992 469.517C33.5859 469.53 32.5332 467.821 32.5332 465.101C32.5332 462.38 33.5859 460.698 35.1992 460.698C36.2451 460.698 37.0586 461.382 37.5234 462.585H39.1367V459.974H40.5723ZM35.1992 462.134C34.3926 462.12 33.9141 463.173 33.9277 465.101C33.9141 467.028 34.3926 468.081 35.1992 468.067C36.0195 468.081 36.5254 467.028 36.5254 465.101C36.5254 463.173 36.0195 462.12 35.1992 462.134ZM37.8242 463.815C37.8857 464.212 37.9199 464.643 37.9199 465.101C37.9199 465.552 37.8857 465.976 37.8379 466.372H39.1367V463.815H37.8242ZM48.9395 461.942C48.9258 463.569 49.9512 465.114 51.8926 465.743L51.0996 466.946C49.7256 466.481 48.7549 465.552 48.2148 464.362C47.6611 465.675 46.6426 466.7 45.207 467.206L44.3594 466.003C46.3965 465.347 47.4082 463.679 47.4082 461.929V460.521H48.9395V461.942ZM54.2578 459.755V463.405H55.9805V464.69H54.2578V468.833H52.7402V459.755H54.2578ZM54.75 470.638V471.868H46.3418V467.944H47.9004V470.638H54.75Z" fill="#B8B5AE"/>
</g>
<g id="Container_3">
<g id="Text">
<path id="&#236;&#149;&#189;" d="M60.6855 510.604H58.8838V512.128H60.6855V513.49H58.8838V515.263H57.2578V507.44H58.8838V509.286H60.6855V510.604ZM58.8838 520.683H57.2578V517.152H50.0654V515.834H58.8838V520.683ZM52.1602 508.202C52.8291 508.197 53.4346 508.332 53.9766 508.605C54.5186 508.874 54.9458 509.252 55.2583 509.74C55.5708 510.224 55.7295 510.771 55.7344 511.381C55.7295 512.001 55.5708 512.555 55.2583 513.043C54.9507 513.527 54.5259 513.905 53.9839 514.179C53.4419 514.452 52.834 514.589 52.1602 514.589C51.4814 514.589 50.8687 514.452 50.3218 514.179C49.7798 513.905 49.3525 513.527 49.04 513.043C48.7324 512.555 48.5811 512.001 48.5859 511.381C48.5811 510.771 48.7324 510.224 49.04 509.74C49.3525 509.252 49.7822 508.874 50.3291 508.605C50.876 508.332 51.4863 508.197 52.1602 508.202ZM52.1602 509.579C51.7793 509.584 51.4375 509.662 51.1348 509.813C50.832 509.96 50.5952 510.17 50.4243 510.443C50.2583 510.712 50.1777 511.024 50.1826 511.381C50.1777 511.747 50.2583 512.069 50.4243 512.348C50.5952 512.626 50.832 512.838 51.1348 512.985C51.4375 513.131 51.7793 513.202 52.1602 513.197C52.5361 513.202 52.873 513.131 53.1709 512.985C53.4736 512.838 53.7104 512.626 53.8813 512.348C54.0522 512.069 54.1377 511.747 54.1377 511.381C54.1377 511.024 54.0522 510.712 53.8813 510.443C53.7104 510.17 53.4736 509.96 53.1709 509.813C52.873 509.662 52.5361 509.584 52.1602 509.579Z" fill="#7A7873"/>
</g>
<g id="Text Input_2" filter="url(#filter3_dd_121_4871)">
<path d="M72.9702 507.381C72.9702 498.545 80.1337 491.381 88.9702 491.381H112.97C121.807 491.381 128.97 498.545 128.97 507.381V521.381C128.97 530.218 121.807 537.381 112.97 537.381H88.9702C80.1337 537.381 72.9702 530.218 72.9702 521.381V507.381Z" fill="#262B28"/>
<path d="M88.9702 491.881H112.97C121.531 491.881 128.47 498.821 128.47 507.381V521.381C128.47 529.942 121.531 536.881 112.97 536.881H88.9702C80.4098 536.881 73.4702 529.942 73.4702 521.381V507.381C73.4702 498.821 80.4098 491.881 88.9702 491.881Z" stroke="#373F3B"/>
<path id="30" d="M96.1729 519.528C95.4258 519.528 94.7568 519.401 94.166 519.147C93.5752 518.893 93.1113 518.539 92.7744 518.085C92.4375 517.626 92.2617 517.101 92.2471 516.51H94.166C94.1855 516.789 94.2832 517.035 94.459 517.25C94.6396 517.46 94.8789 517.624 95.1768 517.741C95.4746 517.858 95.8066 517.917 96.1729 517.917C96.5586 517.917 96.9028 517.851 97.2056 517.719C97.5132 517.582 97.7524 517.394 97.9233 517.155C98.0942 516.916 98.1797 516.642 98.1797 516.334C98.1797 516.017 98.0918 515.734 97.916 515.485C97.7402 515.236 97.4863 515.043 97.1543 514.906C96.8223 514.765 96.4316 514.694 95.9824 514.694H95.0303V513.229H95.9824C96.3535 513.229 96.6831 513.166 96.9712 513.039C97.2642 512.907 97.4912 512.724 97.6523 512.489C97.8135 512.25 97.8916 511.979 97.8867 511.676C97.8916 511.383 97.8232 511.125 97.6816 510.9C97.5449 510.67 97.3472 510.495 97.0884 510.373C96.8296 510.246 96.5293 510.182 96.1875 510.182C95.8555 510.182 95.5454 510.243 95.2573 510.365C94.9741 510.482 94.7446 510.651 94.5688 510.871C94.3979 511.09 94.3076 511.344 94.2979 511.632H92.4668C92.4814 511.046 92.6523 510.526 92.9795 510.072C93.3115 509.618 93.7583 509.264 94.3198 509.01C94.8862 508.756 95.5137 508.629 96.2021 508.629C96.9004 508.629 97.5181 508.761 98.0552 509.025C98.5923 509.284 99.0073 509.638 99.3003 510.087C99.5933 510.536 99.7373 511.032 99.7324 511.574C99.7373 511.964 99.6592 512.318 99.498 512.636C99.3369 512.953 99.1099 513.217 98.8169 513.427C98.5239 513.637 98.1846 513.781 97.7988 513.859V513.947C98.292 514.015 98.7144 514.162 99.0659 514.386C99.4175 514.606 99.6836 514.892 99.8643 515.243C100.045 515.595 100.133 515.993 100.128 516.437C100.133 517.023 99.9644 517.553 99.6226 518.026C99.2856 518.495 98.8145 518.864 98.209 519.132C97.6084 519.396 96.9297 519.528 96.1729 519.528ZM105.709 519.528C104.859 519.528 104.129 519.315 103.519 518.891C102.914 518.461 102.447 517.838 102.12 517.023C101.798 516.208 101.637 515.226 101.637 514.079C101.637 512.936 101.798 511.957 102.12 511.142C102.447 510.321 102.916 509.699 103.526 509.274C104.137 508.844 104.864 508.629 105.709 508.629C106.549 508.629 107.274 508.844 107.884 509.274C108.5 509.699 108.968 510.321 109.291 511.142C109.618 511.957 109.781 512.936 109.781 514.079C109.781 515.226 109.618 516.208 109.291 517.023C108.968 517.838 108.502 518.461 107.892 518.891C107.286 519.315 106.559 519.528 105.709 519.528ZM105.709 517.931C106.158 517.931 106.542 517.787 106.859 517.499C107.181 517.206 107.428 516.774 107.599 516.203C107.774 515.626 107.862 514.918 107.862 514.079C107.862 513.249 107.774 512.545 107.599 511.969C107.428 511.388 107.181 510.951 106.859 510.658C106.537 510.36 106.153 510.211 105.709 510.211C105.265 510.211 104.881 510.36 104.559 510.658C104.237 510.951 103.988 511.388 103.812 511.969C103.641 512.545 103.556 513.249 103.556 514.079C103.556 514.918 103.641 515.626 103.812 516.203C103.988 516.774 104.234 517.206 104.552 517.499C104.874 517.787 105.26 517.931 105.709 517.931Z" fill="#E8E4DC"/>
</g>
<g id="Text_2">
<path id="&#235;&#167;&#140;&#236;&#155;&#144;" d="M148.132 514.838H141.863V508.583H148.132V514.838ZM143.459 513.549H146.536V509.887H143.459V513.549ZM151.853 511.322H153.699V512.685H151.853V517.108H150.227V507.44H151.853V511.322ZM152.38 520.419H143.372V516.171H144.998V519.101H152.38V520.419ZM165.476 517.475H163.835V516.317H161.243V515.175H163.835V507.455H165.476V517.475ZM165.784 520.419H156.072V516.508H157.698V519.101H165.784V520.419ZM154.314 513.402C156.033 513.393 157.576 513.363 158.943 513.314C160.31 513.266 161.614 513.163 162.854 513.007L162.942 514.179C161.882 514.354 160.769 514.481 159.602 514.56V517.108H157.976V514.647C157.034 514.687 155.881 514.706 154.519 514.706L154.314 513.402ZM158.635 507.938C159.275 507.938 159.841 508.039 160.334 508.239C160.833 508.434 161.221 508.71 161.499 509.066C161.782 509.418 161.926 509.823 161.931 510.282C161.926 510.751 161.785 511.161 161.506 511.513C161.228 511.864 160.84 512.135 160.342 512.326C159.844 512.516 159.275 512.611 158.635 512.611C157.986 512.611 157.41 512.516 156.907 512.326C156.409 512.135 156.021 511.864 155.742 511.513C155.464 511.161 155.325 510.751 155.325 510.282C155.325 509.823 155.464 509.418 155.742 509.066C156.021 508.71 156.409 508.434 156.907 508.239C157.41 508.039 157.986 507.938 158.635 507.938ZM158.635 509.14C158.103 509.14 157.673 509.242 157.346 509.447C157.024 509.647 156.863 509.926 156.863 510.282C156.863 510.639 157.024 510.919 157.346 511.125C157.673 511.325 158.103 511.425 158.635 511.425C159.148 511.425 159.565 511.322 159.888 511.117C160.21 510.912 160.374 510.634 160.378 510.282C160.374 509.931 160.21 509.652 159.888 509.447C159.565 509.242 159.148 509.14 158.635 509.14Z" fill="#7A7873"/>
</g>
</g>
</g>
<g id="ChatGenerateButtonEnabled" filter="url(#filter4_dd_121_4871)">
<g clip-path="url(#clip0_121_4871)">
<g id="Frame 136">
<g id="Vector_8">
<path id="Vector_9" d="M352.671 565.868H56.6709C50.0435 565.868 44.6709 571.241 44.6709 577.868V605.868C44.6709 612.496 50.0435 617.868 56.6709 617.868H352.671C359.298 617.868 364.671 612.496 364.671 605.868V577.868C364.671 571.241 359.298 565.868 352.671 565.868Z" fill="#5E9E72"/>
</g>
<path id="&#236;&#177;&#132;&#237;&#140;&#133;&#235;&#176;&#169; &#236;&#131;&#157;&#236;&#132;&#177;&#237;&#149;&#152;&#234;&#184;&#176;" d="M160.205 588.931C160.205 589.675 160.309 590.397 160.518 591.095C160.726 591.793 161.046 592.425 161.479 592.993C161.916 593.561 162.455 594.014 163.096 594.353L162.112 595.634C161.471 595.3 160.924 594.842 160.471 594.259C160.023 593.675 159.666 592.998 159.401 592.228C159.145 593.056 158.789 593.793 158.33 594.438C157.877 595.079 157.33 595.582 156.69 595.946L155.69 594.665C156.325 594.295 156.856 593.806 157.283 593.196C157.716 592.587 158.036 591.915 158.244 591.181C158.458 590.446 158.565 589.696 158.565 588.931V588.54H156.096V587.118H158.565V585.134H160.205V587.118H162.643V588.54H160.205V588.931ZM168.143 598.759H166.487V591.603H165.033V598.071H163.393V584.884H165.033V590.165H166.487V584.634H168.143V598.759ZM177.03 587.024H171.968V588.368H176.624V589.728H171.968V591.087H172.843C173.983 591.087 174.944 591.063 175.726 591.017C176.512 590.97 177.296 590.879 178.077 590.743L178.249 592.118C177.358 592.264 176.463 592.363 175.562 592.415C174.66 592.467 173.541 592.493 172.202 592.493H171.405H170.202V585.649H177.03V587.024ZM181.187 593.259H179.437V584.649H181.187V593.259ZM176.421 593.462C177.41 593.462 178.267 593.566 178.991 593.774C179.715 593.983 180.272 594.285 180.663 594.681C181.054 595.076 181.249 595.55 181.249 596.103C181.249 596.655 181.054 597.129 180.663 597.524C180.272 597.92 179.715 598.222 178.991 598.431C178.267 598.639 177.41 598.743 176.421 598.743C175.421 598.743 174.556 598.639 173.827 598.431C173.103 598.222 172.549 597.92 172.163 597.524C171.778 597.129 171.588 596.655 171.593 596.103C171.588 595.55 171.778 595.076 172.163 594.681C172.549 594.285 173.103 593.983 173.827 593.774C174.556 593.566 175.421 593.462 176.421 593.462ZM176.421 594.806C175.421 594.806 174.653 594.918 174.116 595.142C173.58 595.366 173.317 595.686 173.327 596.103C173.322 596.524 173.585 596.847 174.116 597.071C174.647 597.29 175.416 597.399 176.421 597.399C177.405 597.399 178.166 597.287 178.702 597.063C179.244 596.84 179.515 596.519 179.515 596.103C179.515 595.691 179.244 595.373 178.702 595.149C178.16 594.92 177.4 594.806 176.421 594.806ZM189.496 593.353C190.465 593.353 191.303 593.459 192.012 593.673C192.725 593.881 193.272 594.188 193.652 594.595C194.032 594.996 194.225 595.478 194.23 596.04C194.225 596.608 194.032 597.095 193.652 597.501C193.272 597.912 192.725 598.225 192.012 598.438C191.303 598.652 190.465 598.759 189.496 598.759C188.517 598.759 187.668 598.652 186.949 598.438C186.23 598.225 185.678 597.912 185.293 597.501C184.907 597.095 184.715 596.608 184.715 596.04C184.715 595.478 184.907 594.996 185.293 594.595C185.678 594.188 186.228 593.881 186.941 593.673C187.66 593.459 188.512 593.353 189.496 593.353ZM189.496 594.712C188.517 594.712 187.764 594.826 187.238 595.056C186.712 595.28 186.449 595.608 186.449 596.04C186.449 596.478 186.712 596.811 187.238 597.04C187.769 597.269 188.522 597.384 189.496 597.384C190.47 597.384 191.215 597.269 191.73 597.04C192.251 596.811 192.512 596.478 192.512 596.04C192.512 595.608 192.251 595.28 191.73 595.056C191.215 594.826 190.47 594.712 189.496 594.712ZM194.09 588.009H196.058V589.462H194.09V593.009H192.355V584.634H194.09V588.009ZM185.152 587.431H188.449V585.524H190.168V592.118H183.433V585.524H185.152V587.431ZM188.449 590.743V588.79H185.152V590.743H188.449ZM204.38 587.259C204.38 587.78 204.482 588.285 204.685 588.774C204.888 589.264 205.195 589.704 205.607 590.095C206.024 590.485 206.531 590.795 207.13 591.024L206.208 592.353C205.594 592.118 205.065 591.787 204.622 591.36C204.18 590.933 203.828 590.436 203.568 589.868C203.297 590.524 202.927 591.105 202.458 591.61C201.995 592.116 201.438 592.504 200.787 592.774L199.849 591.446C200.469 591.17 200.992 590.806 201.419 590.353C201.846 589.899 202.167 589.407 202.38 588.876C202.594 588.34 202.703 587.8 202.708 587.259V585.509H204.38V587.259ZM212.052 593.306H210.396V589.634H208.99V592.868H207.365V584.915H208.99V588.212H210.396V584.649H212.052V593.306ZM207.287 593.54C208.266 593.54 209.117 593.644 209.841 593.853C210.57 594.056 211.133 594.353 211.529 594.743C211.925 595.134 212.125 595.597 212.13 596.134C212.125 596.67 211.925 597.134 211.529 597.524C211.133 597.92 210.57 598.222 209.841 598.431C209.117 598.639 208.266 598.743 207.287 598.743C206.297 598.743 205.438 598.639 204.708 598.431C203.979 598.222 203.419 597.92 203.029 597.524C202.638 597.134 202.443 596.67 202.443 596.134C202.443 595.597 202.638 595.134 203.029 594.743C203.419 594.353 203.979 594.056 204.708 593.853C205.438 593.644 206.297 593.54 207.287 593.54ZM207.287 594.853C206.302 594.853 205.537 594.965 204.99 595.188C204.448 595.407 204.177 595.722 204.177 596.134C204.177 596.55 204.448 596.868 204.99 597.087C205.531 597.306 206.297 597.415 207.287 597.415C208.266 597.415 209.026 597.306 209.568 597.087C210.109 596.868 210.38 596.55 210.38 596.134C210.38 595.722 210.107 595.407 209.56 595.188C209.018 594.965 208.26 594.853 207.287 594.853ZM218.674 586.665C218.669 587.316 218.791 587.931 219.041 588.509C219.291 589.087 219.666 589.597 220.166 590.04C220.671 590.478 221.283 590.811 222.002 591.04L221.065 592.399C220.304 592.134 219.653 591.754 219.112 591.259C218.575 590.764 218.153 590.175 217.846 589.493C217.528 590.28 217.072 590.962 216.479 591.54C215.885 592.113 215.169 592.545 214.33 592.837L213.408 591.431C214.169 591.181 214.812 590.819 215.338 590.345C215.864 589.871 216.26 589.324 216.526 588.704C216.791 588.084 216.924 587.431 216.924 586.743V585.399H218.674V586.665ZM225.33 592.946H223.596V588.79H220.783V587.368H223.596V584.634H225.33V592.946ZM220.549 593.321C221.544 593.321 222.403 593.428 223.127 593.642C223.856 593.855 224.414 594.168 224.799 594.579C225.184 594.985 225.377 595.472 225.377 596.04C225.377 596.608 225.184 597.095 224.799 597.501C224.414 597.907 223.859 598.215 223.135 598.423C222.411 598.636 221.549 598.743 220.549 598.743C219.554 598.743 218.695 598.636 217.971 598.423C217.252 598.215 216.7 597.907 216.315 597.501C215.934 597.095 215.747 596.608 215.752 596.04C215.747 595.472 215.934 594.985 216.315 594.579C216.7 594.168 217.255 593.855 217.979 593.642C218.703 593.428 219.559 593.321 220.549 593.321ZM220.549 594.665C219.559 594.665 218.799 594.785 218.268 595.024C217.737 595.259 217.471 595.597 217.471 596.04C217.471 596.472 217.737 596.806 218.268 597.04C218.804 597.269 219.565 597.384 220.549 597.384C221.533 597.384 222.294 597.267 222.83 597.032C223.372 596.798 223.643 596.467 223.643 596.04C223.643 595.597 223.375 595.259 222.838 595.024C222.302 594.785 221.539 594.665 220.549 594.665ZM238.093 590.259H240.265V591.696H238.093V598.759H236.374V584.634H238.093V590.259ZM235.28 588.196H226.952V586.806H230.296V584.837H232.03V586.806H235.28V588.196ZM231.171 589.118C231.843 589.118 232.447 589.261 232.983 589.548C233.525 589.829 233.95 590.222 234.257 590.728C234.564 591.233 234.718 591.806 234.718 592.446C234.718 593.087 234.564 593.66 234.257 594.165C233.95 594.665 233.525 595.056 232.983 595.337C232.447 595.618 231.843 595.759 231.171 595.759C230.489 595.759 229.877 595.618 229.335 595.337C228.793 595.056 228.369 594.665 228.062 594.165C227.754 593.66 227.603 593.087 227.608 592.446C227.603 591.806 227.754 591.233 228.062 590.728C228.369 590.222 228.793 589.829 229.335 589.548C229.877 589.261 230.489 589.118 231.171 589.118ZM231.171 590.54C230.801 590.54 230.47 590.618 230.179 590.774C229.892 590.931 229.668 591.155 229.507 591.446C229.345 591.733 229.265 592.066 229.265 592.446C229.265 592.826 229.345 593.16 229.507 593.446C229.668 593.728 229.892 593.946 230.179 594.103C230.47 594.254 230.801 594.326 231.171 594.321C231.53 594.326 231.851 594.254 232.132 594.103C232.418 593.946 232.642 593.728 232.804 593.446C232.97 593.16 233.056 592.826 233.062 592.446C233.056 592.066 232.97 591.733 232.804 591.446C232.642 591.16 232.418 590.938 232.132 590.782C231.851 590.621 231.53 590.54 231.171 590.54ZM252.355 598.759H250.605V584.634H252.355V598.759ZM248.137 586.134C248.137 588.379 247.629 590.35 246.613 592.048C245.597 593.741 243.913 595.144 241.558 596.259L240.652 594.868C242.47 594.004 243.837 592.97 244.754 591.767C245.676 590.558 246.215 589.139 246.371 587.509H241.371V586.134H248.137Z" fill="#FAFAF7"/>
</g>
</g>
<path d="M56.6709 566.368H352.671C359.022 566.368 364.171 571.517 364.171 577.868V605.868C364.171 612.219 359.022 617.368 352.671 617.368H56.6709C50.3196 617.368 45.1709 612.219 45.1709 605.868V577.868C45.1709 571.517 50.3196 566.368 56.6709 566.368Z" stroke="#4A7C59"/>
</g>
</g>
</g>
<g id="Container_4">
<g id="Icon_3" clip-path="url(#clip1_121_4871)">
<path id="Vector_10" d="M163.669 25.9941H245.669" stroke="#7A7873" stroke-width="7.99775" stroke-linecap="round"/>
</g>
</g>
</g>
<defs>
<filter id="filter0_dd_121_4871" x="0" y="129.991" width="409.342" height="118.974" filterUnits="userSpaceOnUse" color-interpolation-filters="sRGB">
<feFlood flood-opacity="0" result="BackgroundImageFix"/>
<feColorMatrix in="SourceAlpha" type="matrix" values="0 0 0 0 0 0 0 0 0 0 0 0 0 0 0 0 0 0 127 0" result="hardAlpha"/>
<feOffset dy="8"/>
<feGaussianBlur stdDeviation="16"/>
<feColorMatrix type="matrix" values="0 0 0 0 0 0 0 0 0 0 0 0 0 0 0 0 0 0 0.5 0"/>
<feBlend mode="normal" in2="BackgroundImageFix" result="effect1_dropShadow_121_4871"/>
<feColorMatrix in="SourceAlpha" type="matrix" values="0 0 0 0 0 0 0 0 0 0 0 0 0 0 0 0 0 0 127 0" result="hardAlpha"/>
<feOffset dy="2"/>
<feGaussianBlur stdDeviation="4"/>
<feColorMatrix type="matrix" values="0 0 0 0 0 0 0 0 0 0 0 0 0 0 0 0 0 0 0.25 0"/>
<feBlend mode="normal" in2="effect1_dropShadow_121_4871" result="effect2_dropShadow_121_4871"/>
<feBlend mode="normal" in="SourceGraphic" in2="effect2_dropShadow_121_4871" result="shape"/>
</filter>
<filter id="filter1_dd_121_4871" x="0" y="240.959" width="409.342" height="118.974" filterUnits="userSpaceOnUse" color-interpolation-filters="sRGB">
<feFlood flood-opacity="0" result="BackgroundImageFix"/>
<feColorMatrix in="SourceAlpha" type="matrix" values="0 0 0 0 0 0 0 0 0 0 0 0 0 0 0 0 0 0 127 0" result="hardAlpha"/>
<feOffset dy="8"/>
<feGaussianBlur stdDeviation="16"/>
<feColorMatrix type="matrix" values="0 0 0 0 0 0 0 0 0 0 0 0 0 0 0 0 0 0 0.5 0"/>
<feBlend mode="normal" in2="BackgroundImageFix" result="effect1_dropShadow_121_4871"/>
<feColorMatrix in="SourceAlpha" type="matrix" values="0 0 0 0 0 0 0 0 0 0 0 0 0 0 0 0 0 0 127 0" result="hardAlpha"/>
<feOffset dy="2"/>
<feGaussianBlur stdDeviation="4"/>
<feColorMatrix type="matrix" values="0 0 0 0 0 0 0 0 0 0 0 0 0 0 0 0 0 0 0.25 0"/>
<feBlend mode="normal" in2="effect1_dropShadow_121_4871" result="effect2_dropShadow_121_4871"/>
<feBlend mode="normal" in="SourceGraphic" in2="effect2_dropShadow_121_4871" result="shape"/>
</filter>
<filter id="filter2_dd_121_4871" x="0" y="351.927" width="409.342" height="118.974" filterUnits="userSpaceOnUse" color-interpolation-filters="sRGB">
<feFlood flood-opacity="0" result="BackgroundImageFix"/>
<feColorMatrix in="SourceAlpha" type="matrix" values="0 0 0 0 0 0 0 0 0 0 0 0 0 0 0 0 0 0 127 0" result="hardAlpha"/>
<feOffset dy="8"/>
<feGaussianBlur stdDeviation="16"/>
<feColorMatrix type="matrix" values="0 0 0 0 0 0 0 0 0 0 0 0 0 0 0 0 0 0 0.5 0"/>
<feBlend mode="normal" in2="BackgroundImageFix" result="effect1_dropShadow_121_4871"/>
<feColorMatrix in="SourceAlpha" type="matrix" values="0 0 0 0 0 0 0 0 0 0 0 0 0 0 0 0 0 0 127 0" result="hardAlpha"/>
<feOffset dy="2"/>
<feGaussianBlur stdDeviation="4"/>
<feColorMatrix type="matrix" values="0 0 0 0 0 0 0 0 0 0 0 0 0 0 0 0 0 0 0.25 0"/>
<feBlend mode="normal" in2="effect1_dropShadow_121_4871" result="effect2_dropShadow_121_4871"/>
<feBlend mode="normal" in="SourceGraphic" in2="effect2_dropShadow_121_4871" result="shape"/>
</filter>
<filter id="filter3_dd_121_4871" x="40.9702" y="467.381" width="120" height="110" filterUnits="userSpaceOnUse" color-interpolation-filters="sRGB">
<feFlood flood-opacity="0" result="BackgroundImageFix"/>
<feColorMatrix in="SourceAlpha" type="matrix" values="0 0 0 0 0 0 0 0 0 0 0 0 0 0 0 0 0 0 127 0" result="hardAlpha"/>
<feOffset dy="8"/>
<feGaussianBlur stdDeviation="16"/>
<feColorMatrix type="matrix" values="0 0 0 0 0 0 0 0 0 0 0 0 0 0 0 0 0 0 0.5 0"/>
<feBlend mode="normal" in2="BackgroundImageFix" result="effect1_dropShadow_121_4871"/>
<feColorMatrix in="SourceAlpha" type="matrix" values="0 0 0 0 0 0 0 0 0 0 0 0 0 0 0 0 0 0 127 0" result="hardAlpha"/>
<feOffset dy="2"/>
<feGaussianBlur stdDeviation="4"/>
<feColorMatrix type="matrix" values="0 0 0 0 0 0 0 0 0 0 0 0 0 0 0 0 0 0 0.25 0"/>
<feBlend mode="normal" in2="effect1_dropShadow_121_4871" result="effect2_dropShadow_121_4871"/>
<feBlend mode="normal" in="SourceGraphic" in2="effect2_dropShadow_121_4871" result="shape"/>
</filter>
<filter id="filter4_dd_121_4871" x="36.6709" y="559.868" width="336" height="68" filterUnits="userSpaceOnUse" color-interpolation-filters="sRGB">
<feFlood flood-opacity="0" result="BackgroundImageFix"/>
<feColorMatrix in="SourceAlpha" type="matrix" values="0 0 0 0 0 0 0 0 0 0 0 0 0 0 0 0 0 0 127 0" result="hardAlpha"/>
<feOffset dy="2"/>
<feGaussianBlur stdDeviation="4"/>
<feColorMatrix type="matrix" values="0 0 0 0 0 0 0 0 0 0 0 0 0 0 0 0 0 0 0.3 0"/>
<feBlend mode="normal" in2="BackgroundImageFix" result="effect1_dropShadow_121_4871"/>
<feColorMatrix in="SourceAlpha" type="matrix" values="0 0 0 0 0 0 0 0 0 0 0 0 0 0 0 0 0 0 127 0" result="hardAlpha"/>
<feOffset dy="1"/>
<feGaussianBlur stdDeviation="1"/>
<feColorMatrix type="matrix" values="0 0 0 0 0 0 0 0 0 0 0 0 0 0 0 0 0 0 0.15 0"/>
<feBlend mode="normal" in2="effect1_dropShadow_121_4871" result="effect2_dropShadow_121_4871"/>
<feBlend mode="normal" in="SourceGraphic" in2="effect2_dropShadow_121_4871" result="shape"/>
</filter>
<clipPath id="clip0_121_4871">
<path d="M44.6709 577.868C44.6709 571.241 50.0435 565.868 56.6709 565.868H352.671C359.298 565.868 364.671 571.241 364.671 577.868V605.868C364.671 612.496 359.298 617.868 352.671 617.868H56.6709C50.0435 617.868 44.6709 612.496 44.6709 605.868V577.868Z" fill="white"/>
</clipPath>
<clipPath id="clip1_121_4871">
<rect width="89.9996" height="7.99554" fill="white" transform="translate(159.669 21.9966)"/>
</clipPath>
</defs>
</svg>
