<svg width="410" height="700" viewBox="0 0 410 700" fill="none" xmlns="http://www.w3.org/2000/svg">
<g id="Property 1=people_expanded1">
<path d="M7.8291 16C7.8291 7.16347 14.9925 0 23.8291 0H385.168C394.004 0 401.168 7.16344 401.168 16V680.815H7.8291V16Z" fill="#1C2120"/>
<g id="Frame 65">
<g id="Heading 2">
<path id="&#236;&#151;&#172;&#237;&#150;&#137; &#236;&#160;&#149;&#235;&#179;&#180;&#235;&#165;&#188; &#236;&#158;&#133;&#235;&#160;&#165;&#237;&#149;&#180;&#236;&#163;&#188;&#236;&#132;&#184;&#236;&#154;&#148;" d="M38.1553 73.9102C39.917 73.9102 41.3672 74.8877 42.2373 76.5957H46.7705V72.4922H49.1338V91.9355H46.7705V84.5879H42.4092C41.5713 86.5215 40.0352 87.6387 38.1553 87.6387C35.2334 87.6387 33.1709 84.9961 33.1709 80.7637C33.1709 76.5742 35.2334 73.9102 38.1553 73.9102ZM38.1553 76.0586C36.5439 76.0586 35.4482 77.7988 35.4697 80.7637C35.4482 83.75 36.5439 85.4902 38.1553 85.4902C39.7666 85.4902 40.8408 83.75 40.8623 80.7637C40.8408 77.7988 39.7666 76.0586 38.1553 76.0586ZM42.9033 78.5508C43.043 79.2275 43.1182 79.9688 43.1182 80.7637C43.1182 81.4404 43.0645 82.0635 42.9678 82.6543H46.7705V78.5508H42.9033ZM68.4697 72.4922V84.6953H66.1924V79.4102H64.3018V84.0508H62.0674V72.8789H64.3018V77.4766H66.1924V72.4922H68.4697ZM61.4229 74.5977V76.4668H51.7549V74.5977H55.4287V72.6641H57.792V74.5977H61.4229ZM56.6104 77.2617C59.0811 77.2617 60.8213 78.5938 60.8428 80.6133C60.8213 82.6328 59.0811 83.9648 56.6104 83.9648C54.1826 83.9648 52.4209 82.6328 52.4424 80.6133C52.4209 78.5938 54.1826 77.2617 56.6104 77.2617ZM56.6104 78.9805C55.4072 78.9805 54.5693 79.6035 54.5693 80.6133C54.5693 81.623 55.3857 82.2461 56.6104 82.2461C57.835 82.2461 58.6729 81.623 58.6729 80.6133C58.6729 79.6035 57.835 78.9805 56.6104 78.9805ZM61.917 84.9316C66.0635 84.9316 68.5557 86.1992 68.5771 88.4336C68.5557 90.625 66.0635 91.8926 61.917 91.8926C57.7705 91.8926 55.2568 90.625 55.2568 88.4336C55.2568 86.1992 57.7705 84.9316 61.917 84.9316ZM61.917 86.7578C59.1455 86.7363 57.6416 87.2949 57.6416 88.4336C57.6416 89.5078 59.1455 90.0664 61.917 90.0664C64.667 90.0664 66.1709 89.5078 66.1709 88.4336C66.1709 87.2949 64.667 86.7363 61.917 86.7578ZM92.3604 72.4922V84.0293H89.9756V79.2812H86.667V77.3262H89.9756V72.4922H92.3604ZM85.7861 84.5234C89.9111 84.5234 92.4248 85.877 92.4248 88.2188C92.4248 90.5605 89.9111 91.9141 85.7861 91.9141C81.6826 91.9141 79.1689 90.5605 79.1904 88.2188C79.1689 85.877 81.6826 84.5234 85.7861 84.5234ZM85.7861 86.3496C83.0791 86.3496 81.5537 86.9941 81.5537 88.2188C81.5537 89.4219 83.0791 90.0664 85.7861 90.0664C88.4932 90.0664 90.04 89.4219 90.04 88.2188C90.04 86.9941 88.4932 86.3496 85.7861 86.3496ZM83.2295 75.8223C83.2295 78.1855 84.7979 80.5703 87.8057 81.5801L86.6025 83.4707C84.4434 82.7402 82.9072 81.2578 82.0693 79.4316C81.21 81.5049 79.5879 83.1592 77.2783 83.9863L76.0322 82.0957C79.1475 81.0215 80.8018 78.4004 80.8018 75.8438V75.6934H76.7627V73.7598H87.2471V75.6934H83.2295V75.8223ZM112.856 87.6172V89.5723H95.1104V87.6172H102.759V83.8359H97.0654V73.7812H99.4502V76.9609H108.452V73.7812H110.837V83.8359H105.122V87.6172H112.856ZM99.4502 81.9023H108.452V78.873H99.4502V81.9023ZM131.849 81.3008V83.1055H114.103V81.3008H131.849ZM129.7 84.2656V88.6914H118.571V90.0449H130.28V91.6992H116.187V87.1445H127.337V85.9414H116.165V84.2656H129.7ZM129.657 72.9219V77.3047H118.722V78.5723H130.001V80.2051H116.358V75.7578H127.272V74.5762H116.294V72.9219H129.657ZM154.536 72.4922V82.9121H152.13V72.4922H154.536ZM144.052 83.8145V85.8125H152.151V83.8145H154.536V91.6777H141.688V83.8145H144.052ZM144.052 89.7441H152.151V87.6816H144.052V89.7441ZM143.944 73.3516C146.931 73.3301 149.165 75.1992 149.165 77.9062C149.165 80.5488 146.931 82.418 143.944 82.418C140.937 82.418 138.702 80.5488 138.702 77.9062C138.702 75.1992 140.937 73.3301 143.944 73.3516ZM143.944 75.3496C142.247 75.3496 141.022 76.3379 141.044 77.9062C141.022 79.4531 142.247 80.4414 143.944 80.4629C145.62 80.4414 146.823 79.4531 146.823 77.9062C146.823 76.3379 145.62 75.3496 143.944 75.3496ZM166.653 73.6523V79.4961H160.53V81.8809C163.646 81.8916 165.439 81.7949 167.491 81.4082L167.728 83.3418C165.407 83.7285 163.388 83.793 159.585 83.793H158.167V77.7129H164.269V75.543H158.124V73.6523H166.653ZM173.636 72.5137V84.459H171.251V81.2578H167.813V79.3457H171.251V77.1758H167.813V75.2637H171.251V72.5137H173.636ZM173.636 85.3828V91.9141H171.251V87.2949H160.358V85.3828H173.636ZM185.86 75.5859V77.498H176.343V75.5859H179.952V73.0508H182.315V75.5859H185.86ZM181.134 78.5293C183.604 78.5293 185.366 80.3984 185.366 83.041C185.366 85.7266 183.604 87.6172 181.134 87.6172C178.685 87.6172 176.88 85.7266 176.901 83.041C176.88 80.3984 178.685 78.5293 181.134 78.5293ZM181.134 80.5059C179.866 80.5059 178.985 81.5156 179.007 83.041C178.985 84.6094 179.866 85.5977 181.134 85.5762C182.38 85.5977 183.261 84.6094 183.261 83.041C183.261 81.5156 182.38 80.5059 181.134 80.5059ZM193.079 72.4922V91.9141H190.802V82.418H188.911V91.0332H186.677V72.9004H188.911V80.4844H190.802V72.4922H193.079ZM213.103 83.3203V85.2539H205.39V91.8926H203.026V85.2539H195.399V83.3203H213.103ZM211.47 73.5879V75.4785H205.647C205.787 77.6055 208.344 79.6465 212.179 80.1406L211.319 82.0098C208.011 81.5479 205.433 80.0332 204.251 77.9277C203.069 80.0332 200.491 81.5479 197.226 82.0098L196.323 80.1406C200.137 79.6465 202.693 77.6055 202.876 75.4785H197.032V73.5879H211.47ZM220.472 77.584C220.472 80.7207 221.567 83.9863 224.188 85.6406L222.878 87.4668C221.127 86.4141 219.988 84.5986 219.354 82.4609C218.646 84.8135 217.399 86.8008 215.573 87.918L214.091 86.1348C216.905 84.416 218.173 81 218.173 77.6914V74.2109H220.472V77.584ZM231.171 72.4922V91.9141H228.872V72.4922H231.171ZM227.132 72.8359V90.9688H224.876V81.1504H222.104V79.1738H224.876V72.8359H227.132ZM251.173 87.5957V89.5508H233.427V87.5957H237.53V82.6758C235.983 81.7949 235.049 80.4092 235.06 78.6797C235.038 75.5859 238.089 73.5449 242.257 73.5449C246.446 73.5449 249.497 75.5859 249.497 78.6797C249.497 80.377 248.595 81.7412 247.091 82.6328V87.5957H251.173ZM242.257 75.4355C239.356 75.4355 237.38 76.6602 237.401 78.6797C237.38 80.6777 239.356 81.9238 242.257 81.9238C245.157 81.9238 247.155 80.6777 247.155 78.6797C247.155 76.6602 245.157 75.4355 242.257 75.4355ZM239.894 87.5957H244.663V83.5352C243.922 83.707 243.116 83.793 242.257 83.793C241.419 83.793 240.624 83.707 239.894 83.5566V87.5957Z" fill="#E8E4DC"/>
</g>
<g id="Container">
<g id="GuestsField">
<g id="Paragraph">
<path id="&#236;&#157;&#184;&#236;&#155;&#144;" d="M42.7065 357.799H41.1753V348.871H42.7065V357.799ZM43.0483 360.971H34.5308V356.896H36.062V359.74H43.0483V360.971ZM35.9663 349.678C36.5861 349.678 37.1489 349.812 37.6548 350.081C38.1606 350.345 38.5594 350.712 38.8511 351.182C39.1427 351.651 39.2886 352.18 39.2886 352.768C39.2886 353.365 39.1427 353.9 38.8511 354.374C38.5594 354.843 38.1606 355.21 37.6548 355.475C37.1489 355.739 36.5861 355.871 35.9663 355.871C35.342 355.871 34.7746 355.739 34.2642 355.475C33.7583 355.21 33.3595 354.843 33.0679 354.374C32.7762 353.9 32.6304 353.365 32.6304 352.768C32.6304 352.18 32.7762 351.651 33.0679 351.182C33.3595 350.712 33.7583 350.345 34.2642 350.081C34.7746 349.812 35.342 349.678 35.9663 349.678ZM35.9663 351.004C35.6154 351.004 35.2987 351.077 35.0161 351.223C34.7336 351.368 34.5125 351.576 34.353 351.845C34.1935 352.114 34.116 352.421 34.1206 352.768C34.116 353.123 34.1935 353.435 34.353 353.704C34.5125 353.973 34.7336 354.18 35.0161 354.326C35.2987 354.472 35.6154 354.545 35.9663 354.545C36.3081 354.545 36.618 354.472 36.896 354.326C37.174 354.18 37.3927 353.973 37.5522 353.704C37.7163 353.435 37.7983 353.123 37.7983 352.768C37.7983 352.421 37.7163 352.114 37.5522 351.845C37.3927 351.576 37.174 351.368 36.896 351.223C36.618 351.077 36.3081 351.004 35.9663 351.004ZM54.8745 358.223H53.3433V357.143H50.9233V356.076H53.3433V348.871H54.8745V358.223ZM55.1616 360.971H46.0972V357.32H47.6147V359.74H55.1616V360.971ZM44.4565 354.422C46.0607 354.413 47.5008 354.385 48.7769 354.34C50.0529 354.294 51.2697 354.199 52.4272 354.053L52.5093 355.146C51.5203 355.311 50.4813 355.429 49.3921 355.502V357.881H47.8745V355.584C46.995 355.62 45.9194 355.639 44.6479 355.639L44.4565 354.422ZM48.4897 349.322C49.0868 349.322 49.6154 349.416 50.0757 349.603C50.5405 349.785 50.9028 350.042 51.1626 350.375C51.4269 350.703 51.5614 351.081 51.5659 351.51C51.5614 351.947 51.4292 352.33 51.1694 352.658C50.9097 352.986 50.5474 353.239 50.0825 353.417C49.6177 353.595 49.0868 353.684 48.4897 353.684C47.8836 353.684 47.3459 353.595 46.8765 353.417C46.4116 353.239 46.0493 352.986 45.7896 352.658C45.5298 352.33 45.3999 351.947 45.3999 351.51C45.3999 351.081 45.5298 350.703 45.7896 350.375C46.0493 350.042 46.4116 349.785 46.8765 349.603C47.3459 349.416 47.8836 349.322 48.4897 349.322ZM48.4897 350.443C47.993 350.443 47.592 350.539 47.2866 350.73C46.9858 350.917 46.8354 351.177 46.8354 351.51C46.8354 351.842 46.9858 352.104 47.2866 352.296C47.592 352.483 47.993 352.576 48.4897 352.576C48.9683 352.576 49.3579 352.48 49.6587 352.289C49.9595 352.098 50.1121 351.838 50.1167 351.51C50.1121 351.182 49.9595 350.922 49.6587 350.73C49.3579 350.539 48.9683 350.443 48.4897 350.443Z" fill="#B8B5AE"/>
</g>
<g id="Frame 59">
<g id="Button" filter="url(#filter0_dd_121_4975)">
<path d="M32.0015 391.997C32.0015 383.161 39.1649 375.997 48.0015 375.997H361.343C370.18 375.997 377.343 383.161 377.343 391.997V414.971C377.343 423.807 370.18 430.971 361.343 430.971H48.0015C39.1649 430.971 32.0015 423.807 32.0015 414.971V391.997Z" fill="#262B28"/>
<path d="M48.0015 376.497H361.343C369.904 376.497 376.843 383.437 376.843 391.997V414.971C376.843 423.531 369.904 430.471 361.343 430.471H48.0015C39.4411 430.471 32.5015 423.531 32.5015 414.971V391.997C32.5015 383.437 39.4411 376.497 48.0015 376.497Z" stroke="#373F3B"/>
<g id="Paragraph_2">
<path id="&#236;&#132;&#177;&#236;&#157;&#184; 2 &#235;&#170;&#133;, &#236;&#149;&#132;&#235;&#143;&#153; 1 &#235;&#170;&#133;" d="M54.2896 398.448C54.2847 399.058 54.3994 399.634 54.6338 400.176C54.8682 400.718 55.2197 401.197 55.6885 401.612C56.1621 402.022 56.7358 402.334 57.4097 402.549L56.5308 403.824C55.8179 403.575 55.2075 403.218 54.6997 402.754C54.1968 402.291 53.8013 401.739 53.5132 401.099C53.2153 401.836 52.7881 402.476 52.2314 403.018C51.6748 403.555 51.0034 403.96 50.2173 404.234L49.353 402.916C50.0659 402.681 50.6689 402.342 51.1621 401.897C51.6553 401.453 52.0264 400.94 52.2754 400.359C52.5244 399.778 52.6489 399.166 52.6489 398.521V397.261H54.2896V398.448ZM60.5298 404.336H58.9038V400.44H56.2671V399.107H58.9038V396.543H60.5298V404.336ZM56.0474 404.688C56.98 404.688 57.7856 404.788 58.4644 404.988C59.1479 405.188 59.6704 405.481 60.0317 405.867C60.3931 406.248 60.5737 406.705 60.5737 407.237C60.5737 407.769 60.3931 408.226 60.0317 408.606C59.6704 408.987 59.1504 409.275 58.4717 409.471C57.793 409.671 56.9849 409.771 56.0474 409.771C55.1147 409.771 54.3091 409.671 53.6304 409.471C52.9565 409.275 52.439 408.987 52.0776 408.606C51.7212 408.226 51.5454 407.769 51.5503 407.237C51.5454 406.705 51.7212 406.248 52.0776 405.867C52.439 405.481 52.959 405.188 53.6377 404.988C54.3164 404.788 55.1196 404.688 56.0474 404.688ZM56.0474 405.948C55.1196 405.948 54.4067 406.06 53.9087 406.285C53.4106 406.504 53.1616 406.822 53.1616 407.237C53.1616 407.642 53.4106 407.955 53.9087 408.174C54.4116 408.389 55.1245 408.497 56.0474 408.497C56.9702 408.497 57.6831 408.387 58.186 408.167C58.6938 407.947 58.9478 407.637 58.9478 407.237C58.9478 406.822 58.6963 406.504 58.1934 406.285C57.6904 406.06 56.9751 405.948 56.0474 405.948ZM73.4351 406.124H71.7944V396.558H73.4351V406.124ZM73.8013 409.522H64.6753V405.157H66.3159V408.204H73.8013V409.522ZM66.2134 397.422C66.8774 397.422 67.4805 397.566 68.0225 397.854C68.5645 398.138 68.9917 398.531 69.3042 399.034C69.6167 399.537 69.7729 400.103 69.7729 400.733C69.7729 401.373 69.6167 401.946 69.3042 402.454C68.9917 402.957 68.5645 403.35 68.0225 403.633C67.4805 403.917 66.8774 404.058 66.2134 404.058C65.5444 404.058 64.9365 403.917 64.3896 403.633C63.8477 403.35 63.4204 402.957 63.1079 402.454C62.7954 401.946 62.6392 401.373 62.6392 400.733C62.6392 400.103 62.7954 399.537 63.1079 399.034C63.4204 398.531 63.8477 398.138 64.3896 397.854C64.9365 397.566 65.5444 397.422 66.2134 397.422ZM66.2134 398.843C65.8374 398.843 65.498 398.921 65.1953 399.078C64.8926 399.234 64.6558 399.456 64.4849 399.744C64.314 400.032 64.231 400.362 64.2358 400.733C64.231 401.114 64.314 401.448 64.4849 401.736C64.6558 402.024 64.8926 402.247 65.1953 402.403C65.498 402.559 65.8374 402.637 66.2134 402.637C66.5796 402.637 66.9116 402.559 67.2095 402.403C67.5073 402.247 67.7417 402.024 67.9126 401.736C68.0884 401.448 68.1763 401.114 68.1763 400.733C68.1763 400.362 68.0884 400.032 67.9126 399.744C67.7417 399.456 67.5073 399.234 67.2095 399.078C66.9116 398.921 66.5796 398.843 66.2134 398.843ZM79.3677 407.105L83.1177 403.487C83.5229 403.082 83.8354 402.75 84.0552 402.491C84.2798 402.227 84.4507 401.968 84.5679 401.714C84.6851 401.456 84.7437 401.182 84.7437 400.894C84.7437 400.572 84.6655 400.289 84.5093 400.044C84.353 399.8 84.1357 399.612 83.8574 399.48C83.584 399.349 83.2739 399.283 82.9272 399.283C82.5659 399.283 82.2485 399.356 81.9751 399.502C81.7065 399.644 81.499 399.849 81.3525 400.118C81.2061 400.381 81.1353 400.689 81.1401 401.041H79.3237C79.3188 400.381 79.4702 399.803 79.7778 399.305C80.0854 398.802 80.5127 398.414 81.0596 398.14C81.6113 397.867 82.2388 397.73 82.9419 397.73C83.6548 397.73 84.2847 397.862 84.8315 398.125C85.3833 398.389 85.8105 398.755 86.1133 399.224C86.4209 399.688 86.5747 400.215 86.5747 400.806C86.5747 401.216 86.4941 401.612 86.333 401.993C86.1768 402.374 85.9082 402.796 85.5273 403.26C85.1465 403.719 84.6069 404.278 83.9087 404.937L82.019 406.812V406.885H86.7358V408.482H79.3677V407.105ZM102.615 404.336H100.989V402.505H98.3228V403.531H92.0972V397.54H98.3228V398.565H100.989V396.543H102.615V404.336ZM93.7231 402.227H96.7114V398.829H93.7231V402.227ZM98.1323 404.688C99.0649 404.688 99.8706 404.788 100.549 404.988C101.233 405.188 101.755 405.481 102.117 405.867C102.478 406.248 102.659 406.705 102.659 407.237C102.659 407.769 102.478 408.226 102.117 408.606C101.755 408.987 101.235 409.275 100.557 409.471C99.8779 409.671 99.0698 409.771 98.1323 409.771C97.1997 409.771 96.394 409.671 95.7153 409.471C95.0415 409.275 94.5239 408.987 94.1626 408.606C93.8062 408.226 93.6304 407.769 93.6353 407.237C93.6304 406.705 93.8062 406.248 94.1626 405.867C94.5239 405.481 95.0439 405.188 95.7227 404.988C96.4014 404.788 97.2046 404.688 98.1323 404.688ZM98.1323 405.933C97.2046 405.933 96.4917 406.045 95.9937 406.27C95.4956 406.49 95.2466 406.812 95.2466 407.237C95.2466 407.647 95.4956 407.962 95.9937 408.182C96.4966 408.401 97.2095 408.511 98.1323 408.511C99.0601 408.511 99.7754 408.401 100.278 408.182C100.781 407.962 101.033 407.647 101.033 407.237C101.033 406.812 100.781 406.49 100.278 406.27C99.7754 406.045 99.0601 405.933 98.1323 405.933ZM100.989 401.187V399.854H98.3228V401.187H100.989ZM105.837 411.543H104.446L105.208 407.442H107.068L105.837 411.543ZM115.432 397.51C116.096 397.51 116.687 397.703 117.205 398.089C117.722 398.47 118.127 399.014 118.42 399.722C118.718 400.425 118.87 401.246 118.875 402.183C118.87 403.13 118.718 403.958 118.42 404.666C118.127 405.374 117.722 405.918 117.205 406.299C116.687 406.68 116.096 406.871 115.432 406.871C114.763 406.871 114.167 406.68 113.645 406.299C113.123 405.914 112.715 405.367 112.422 404.659C112.129 403.951 111.985 403.125 111.99 402.183C111.985 401.25 112.129 400.43 112.422 399.722C112.715 399.014 113.123 398.47 113.645 398.089C114.167 397.703 114.763 397.51 115.432 397.51ZM115.432 398.975C115.061 398.975 114.734 399.104 114.451 399.363C114.167 399.617 113.948 399.986 113.792 400.469C113.635 400.948 113.557 401.519 113.557 402.183C113.557 402.852 113.635 403.428 113.792 403.912C113.948 404.395 114.167 404.766 114.451 405.025C114.734 405.279 115.061 405.406 115.432 405.406C115.808 405.406 116.138 405.279 116.421 405.025C116.704 404.766 116.921 404.395 117.073 403.912C117.229 403.428 117.307 402.852 117.307 402.183C117.307 401.519 117.229 400.945 117.073 400.462C116.921 399.979 116.704 399.61 116.421 399.356C116.138 399.102 115.808 398.975 115.432 398.975ZM122.244 401.626H124.28V403.003H122.244V409.786H120.618V396.543H122.244V401.626ZM136.921 404.19H124.836V402.886H130.081V401.626H126.316V397.144H135.457V398.418H127.942V400.337H135.53V401.626H131.677V402.886H136.921V404.19ZM130.857 404.952C131.809 404.952 132.627 405.047 133.311 405.237C133.994 405.423 134.519 405.696 134.885 406.058C135.251 406.419 135.437 406.856 135.442 407.369C135.437 407.876 135.251 408.311 134.885 408.672C134.519 409.034 133.992 409.31 133.303 409.5C132.62 409.69 131.804 409.786 130.857 409.786C129.9 409.786 129.075 409.69 128.381 409.5C127.688 409.31 127.158 409.034 126.792 408.672C126.426 408.311 126.243 407.876 126.243 407.369C126.243 406.856 126.426 406.419 126.792 406.058C127.158 405.696 127.686 405.423 128.374 405.237C129.067 405.047 129.895 404.952 130.857 404.952ZM130.857 406.197C129.89 406.197 129.153 406.297 128.645 406.497C128.142 406.697 127.893 406.988 127.898 407.369C127.893 407.75 128.142 408.038 128.645 408.233C129.148 408.428 129.885 408.526 130.857 408.526C131.809 408.526 132.539 408.428 133.047 408.233C133.555 408.038 133.811 407.75 133.816 407.369C133.811 406.988 133.552 406.697 133.04 406.497C132.532 406.297 131.804 406.197 130.857 406.197ZM146.106 408.482H144.187V399.737H144.128L141.653 401.319V399.576L144.275 397.876H146.106V408.482ZM162.893 404.336H161.267V402.505H158.601V403.531H152.375V397.54H158.601V398.565H161.267V396.543H162.893V404.336ZM154.001 402.227H156.99V398.829H154.001V402.227ZM158.411 404.688C159.343 404.688 160.149 404.788 160.828 404.988C161.511 405.188 162.034 405.481 162.395 405.867C162.756 406.248 162.937 406.705 162.937 407.237C162.937 407.769 162.756 408.226 162.395 408.606C162.034 408.987 161.514 409.275 160.835 409.471C160.156 409.671 159.348 409.771 158.411 409.771C157.478 409.771 156.672 409.671 155.994 409.471C155.32 409.275 154.802 408.987 154.441 408.606C154.084 408.226 153.909 407.769 153.914 407.237C153.909 406.705 154.084 406.248 154.441 405.867C154.802 405.481 155.322 405.188 156.001 404.988C156.68 404.788 157.483 404.688 158.411 404.688ZM158.411 405.933C157.483 405.933 156.77 406.045 156.272 406.27C155.774 406.49 155.525 406.812 155.525 407.237C155.525 407.647 155.774 407.962 156.272 408.182C156.775 408.401 157.488 408.511 158.411 408.511C159.338 408.511 160.054 408.401 160.557 408.182C161.06 407.962 161.311 407.647 161.311 407.237C161.311 406.812 161.06 406.49 160.557 406.27C160.054 406.045 159.338 405.933 158.411 405.933ZM161.267 401.187V399.854H158.601V401.187H161.267Z" fill="#E8E4DC"/>
</g>
<g id="Frame">
<path id="Vector" d="M358.343 405.484L354.343 401.484L350.343 405.484" stroke="#E8E4DC" stroke-width="1.3" stroke-linecap="round" stroke-linejoin="round"/>
</g>
</g>
<g id="Container_2" filter="url(#filter1_dd_121_4975)">
<path d="M32.0015 462.971C32.0015 454.134 39.1649 446.971 48.0015 446.971H361.347C370.183 446.971 377.347 454.134 377.347 462.971V643.966C377.347 652.802 370.183 659.966 361.347 659.966H48.0014C39.1649 659.966 32.0015 652.802 32.0015 643.966V462.971Z" fill="#262B28"/>
<path d="M48.0015 447.471H361.347C369.907 447.471 376.847 454.41 376.847 462.971V643.966C376.847 652.526 369.907 659.466 361.347 659.466H48.0015C39.4411 659.466 32.5015 652.526 32.5015 643.966V462.971C32.5015 454.41 39.4411 447.471 48.0015 447.471Z" stroke="#373F3B"/>
<g id="Container_3">
<g id="Text">
<path id="&#236;&#132;&#177;&#236;&#157;&#184;" d="M61.2896 483.939C61.2749 485.741 62.3296 487.381 64.4097 488.041L63.5308 489.315C62.0879 488.81 61.0771 487.85 60.5132 486.59C59.9272 488.033 58.8213 489.168 57.2173 489.725L56.353 488.407C58.5503 487.689 59.6489 485.917 59.6489 484.012V482.752H61.2896V483.939ZM67.5298 482.035V489.828H65.9038V485.931H63.2671V484.598H65.9038V482.035H67.5298ZM63.0474 490.179C65.8599 490.179 67.5737 491.117 67.5737 492.728C67.5737 494.339 65.8599 495.262 63.0474 495.262C60.2495 495.262 58.5356 494.339 58.5503 492.728C58.5356 491.117 60.2495 490.179 63.0474 490.179ZM63.0474 491.439C61.2017 491.439 60.1616 491.893 60.1616 492.728C60.1616 493.534 61.2017 493.988 63.0474 493.988C64.8931 493.988 65.9478 493.534 65.9478 492.728C65.9478 491.893 64.8931 491.439 63.0474 491.439ZM80.4351 482.049V491.615H78.7944V482.049H80.4351ZM80.8013 493.695V495.013H71.6753V490.648H73.3159V493.695H80.8013ZM73.2134 482.914C75.2202 482.914 76.7729 484.305 76.7729 486.224C76.7729 488.187 75.2202 489.549 73.2134 489.549C71.1919 489.549 69.6392 488.187 69.6392 486.224C69.6392 484.305 71.1919 482.914 73.2134 482.914ZM73.2134 484.334C72.0854 484.334 71.2212 485.082 71.2358 486.224C71.2212 487.396 72.0854 488.128 73.2134 488.128C74.312 488.128 75.1763 487.396 75.1763 486.224C75.1763 485.082 74.312 484.334 73.2134 484.334Z" fill="#E8E4DC"/>
</g>
<g id="Container_4">
<g id="Button_2">
<mask id="path-11-inside-1_121_4975" fill="white">
<path d="M209.38 488.969C209.38 479.029 217.438 470.971 227.379 470.971C237.319 470.971 245.377 479.029 245.377 488.969C245.377 498.91 237.319 506.968 227.379 506.968C217.438 506.968 209.38 498.91 209.38 488.969Z"/>
</mask>
<path d="M227.379 506.968V505.47C218.266 505.47 210.878 498.082 210.878 488.969H209.38H207.881C207.881 499.737 216.611 508.467 227.379 508.467V506.968ZM245.377 488.969H243.879C243.879 498.082 236.492 505.47 227.379 505.47V506.968V508.467C238.147 508.467 246.876 499.737 246.876 488.969H245.377ZM227.379 470.971V472.469C236.492 472.469 243.879 479.857 243.879 488.969H245.377H246.876C246.876 478.201 238.147 469.472 227.379 469.472V470.971ZM227.379 470.971V469.472C216.611 469.472 207.881 478.201 207.881 488.969H209.38H210.878C210.878 479.857 218.266 472.469 227.379 472.469V470.971Z" fill="#373F3B" mask="url(#path-11-inside-1_121_4975)"/>
<g id="Icon">
<path id="Vector_2" d="M222.709 488.97H232.037" stroke="#7A7873" stroke-width="1.33259" stroke-linecap="round" stroke-linejoin="round"/>
</g>
</g>
<g id="Text_2">
<path id="2" d="M277.657 494.218V492.749L281.657 488.89C282.798 487.749 283.392 487.077 283.392 486.124C283.392 485.077 282.563 484.405 281.454 484.405C280.282 484.405 279.532 485.14 279.548 486.28H277.61C277.595 484.14 279.204 482.749 281.47 482.749C283.782 482.749 285.345 484.124 285.345 486.03C285.345 487.312 284.72 488.343 282.501 490.437L280.485 492.437V492.515H285.517V494.218H277.657Z" fill="#E8E4DC"/>
</g>
<g id="Button_3">
<mask id="path-15-inside-2_121_4975" fill="white">
<path d="M317.349 488.969C317.349 479.029 325.407 470.971 335.348 470.971C345.288 470.971 353.347 479.029 353.347 488.969C353.347 498.91 345.288 506.968 335.348 506.968C325.407 506.968 317.349 498.91 317.349 488.969Z"/>
</mask>
<path d="M335.348 506.968V505.47C326.235 505.47 318.848 498.082 318.848 488.969H317.349H315.851C315.851 499.737 324.58 508.467 335.348 508.467V506.968ZM353.347 488.969H351.848C351.848 498.082 344.461 505.47 335.348 505.47V506.968V508.467C346.116 508.467 354.845 499.737 354.845 488.969H353.347ZM335.348 470.971V472.469C344.461 472.469 351.848 479.857 351.848 488.969H353.347H354.845C354.845 478.201 346.116 469.472 335.348 469.472V470.971ZM335.348 470.971V469.472C324.58 469.472 315.851 478.201 315.851 488.969H317.349H318.848C318.848 479.857 326.235 472.469 335.348 472.469V470.971Z" fill="#373F3B" mask="url(#path-15-inside-2_121_4975)"/>
<g id="Icon_2">
<path id="Vector_3" d="M330.678 488.97H340.006" stroke="#7A7873" stroke-width="1.33259" stroke-linecap="round" stroke-linejoin="round"/>
<path id="Vector_4" d="M335.342 484.306V493.634" stroke="#7A7873" stroke-width="1.33259" stroke-linecap="round" stroke-linejoin="round"/>
</g>
</g>
</g>
</g>
<g id="Container_5">
<g id="Text_3">
<path id="&#236;&#149;&#132;&#235;&#143;&#153;" d="M60.0005 544.999C61.9927 544.999 63.4282 546.815 63.4429 549.671C63.4282 552.557 61.9927 554.359 60.0005 554.359C57.9937 554.359 56.5435 552.557 56.5581 549.671C56.5435 546.815 57.9937 544.999 60.0005 544.999ZM60.0005 546.463C58.8872 546.463 58.1255 547.65 58.1255 549.671C58.1255 551.708 58.8872 552.894 60.0005 552.894C61.1284 552.894 61.8755 551.708 61.8755 549.671C61.8755 547.65 61.1284 546.463 60.0005 546.463ZM66.812 544.032V549.115H68.8481V550.492H66.812V557.274H65.186V544.032H66.812ZM81.4897 550.375V551.678H69.4048V550.375H74.6489V549.115H70.8843V544.632H80.0249V545.907H72.5103V547.826H80.0981V549.115H76.2456V550.375H81.4897ZM75.4253 552.44C78.2817 552.44 79.9956 553.304 80.0103 554.857C79.9956 556.395 78.2817 557.274 75.4253 557.274C72.5396 557.274 70.811 556.395 70.811 554.857C70.811 553.304 72.5396 552.44 75.4253 552.44ZM75.4253 553.685C73.4917 553.685 72.4517 554.095 72.4663 554.857C72.4517 555.619 73.4917 556.014 75.4253 556.014C77.3149 556.014 78.3696 555.619 78.3843 554.857C78.3696 554.095 77.3149 553.685 75.4253 553.685Z" fill="#E8E4DC"/>
</g>
<g id="Container_6">
<g id="Button_4">
<mask id="path-20-inside-3_121_4975" fill="white">
<path d="M209.38 550.967C209.38 541.027 217.438 532.968 227.379 532.968C237.319 532.968 245.377 541.027 245.377 550.967C245.377 560.907 237.319 568.966 227.379 568.966C217.438 568.966 209.38 560.907 209.38 550.967Z"/>
</mask>
<path d="M227.379 568.966V567.467C218.266 567.467 210.878 560.08 210.878 550.967H209.38H207.881C207.881 561.735 216.611 570.464 227.379 570.464V568.966ZM245.377 550.967H243.879C243.879 560.08 236.492 567.467 227.379 567.467V568.966V570.464C238.147 570.464 246.876 561.735 246.876 550.967H245.377ZM227.379 532.968V534.467C236.492 534.467 243.879 541.854 243.879 550.967H245.377H246.876C246.876 540.199 238.147 531.47 227.379 531.47V532.968ZM227.379 532.968V531.47C216.611 531.47 207.881 540.199 207.881 550.967H209.38H210.878C210.878 541.854 218.266 534.467 227.379 534.467V532.968Z" fill="#373F3B" mask="url(#path-20-inside-3_121_4975)"/>
<g id="Icon_3">
<path id="Vector_5" d="M222.709 550.967H232.037" stroke="#7A7873" stroke-width="1.33259" stroke-linecap="round" stroke-linejoin="round"/>
</g>
</g>
<g id="Text_4">
<path id="1" d="M283.547 544.903V556.215H281.5V546.887H281.438L278.797 548.575V546.715L281.594 544.903H283.547Z" fill="#E8E4DC"/>
</g>
<g id="Button_5">
<mask id="path-24-inside-4_121_4975" fill="white">
<path d="M317.349 550.967C317.349 541.027 325.407 532.968 335.348 532.968C345.288 532.968 353.347 541.027 353.347 550.967C353.347 560.907 345.288 568.966 335.348 568.966C325.407 568.966 317.349 560.907 317.349 550.967Z"/>
</mask>
<path d="M335.348 568.966V567.467C326.235 567.467 318.848 560.08 318.848 550.967H317.349H315.851C315.851 561.735 324.58 570.464 335.348 570.464V568.966ZM353.347 550.967H351.848C351.848 560.08 344.461 567.467 335.348 567.467V568.966V570.464C346.116 570.464 354.845 561.735 354.845 550.967H353.347ZM335.348 532.968V534.467C344.461 534.467 351.848 541.854 351.848 550.967H353.347H354.845C354.845 540.199 346.116 531.47 335.348 531.47V532.968ZM335.348 532.968V531.47C324.58 531.47 315.851 540.199 315.851 550.967H317.349H318.848C318.848 541.854 326.235 534.467 335.348 534.467V532.968Z" fill="#373F3B" mask="url(#path-24-inside-4_121_4975)"/>
<g id="Icon_4">
<path id="Vector_6" d="M330.678 550.967H340.006" stroke="#7A7873" stroke-width="1.33259" stroke-linecap="round" stroke-linejoin="round"/>
<path id="Vector_7" d="M335.342 546.303V555.631" stroke="#7A7873" stroke-width="1.33259" stroke-linecap="round" stroke-linejoin="round"/>
</g>
</g>
</g>
</g>
<line id="Line 4" x1="56" y1="582.704" x2="349" y2="582.704" stroke="#7A7873" stroke-width="0.5"/>
<g id="Container_7">
<g id="Container_8">
<g id="Text_5">
<path id="&#236;&#149;&#132;&#235;&#143;&#153;1" d="M70.0615 609.367C70.6868 609.367 71.2375 609.549 71.7135 609.913C72.1895 610.268 72.5628 610.776 72.8335 611.439C73.1041 612.102 73.2395 612.881 73.2395 613.777C73.2395 614.673 73.1041 615.452 72.8335 616.115C72.5628 616.778 72.1895 617.291 71.7135 617.655C71.2375 618.019 70.6868 618.201 70.0615 618.201C69.4455 618.201 68.8948 618.019 68.4095 617.655C67.9335 617.291 67.5601 616.778 67.2895 616.115C67.0188 615.452 66.8835 614.673 66.8835 613.777C66.8835 612.881 67.0188 612.102 67.2895 611.439C67.5601 610.776 67.9335 610.268 68.4095 609.913C68.8948 609.549 69.4455 609.367 70.0615 609.367ZM70.0615 610.403C69.6601 610.403 69.3008 610.543 68.9835 610.823C68.6755 611.094 68.4328 611.486 68.2555 611.999C68.0781 612.503 67.9895 613.096 67.9895 613.777C67.9895 614.458 68.0781 615.056 68.2555 615.569C68.4328 616.073 68.6755 616.465 68.9835 616.745C69.3008 617.025 69.6648 617.165 70.0755 617.165C70.4768 617.165 70.8315 617.025 71.1395 616.745C71.4568 616.465 71.6995 616.073 71.8675 615.569C72.0448 615.056 72.1335 614.458 72.1335 613.777C72.1335 613.096 72.0448 612.503 71.8675 611.999C71.6995 611.486 71.4568 611.094 71.1395 610.823C70.8315 610.543 70.4721 610.403 70.0615 610.403ZM75.2695 608.387H76.4315V621.057H75.2695V608.387ZM76.1655 613.441H78.5035V614.421H76.1655V613.441ZM79.5804 614.631H91.0324V615.569H79.5804V614.631ZM84.7324 612.601H85.8664V615.023H84.7324V612.601ZM81.0224 612.237H89.6884V613.175H81.0224V612.237ZM81.0224 608.975H89.6044V609.899H82.1704V612.797H81.0224V608.975ZM85.2924 616.479C86.6457 616.479 87.705 616.68 88.4704 617.081C89.2357 617.473 89.6184 618.033 89.6184 618.761C89.6184 619.489 89.2357 620.049 88.4704 620.441C87.705 620.842 86.6457 621.043 85.2924 621.043C83.939 621.043 82.875 620.842 82.1004 620.441C81.335 620.049 80.9524 619.489 80.9524 618.761C80.9524 618.033 81.335 617.473 82.1004 617.081C82.875 616.68 83.939 616.479 85.2924 616.479ZM85.2784 617.389C84.625 617.389 84.0604 617.445 83.5844 617.557C83.1177 617.66 82.7584 617.814 82.5064 618.019C82.2544 618.215 82.1284 618.462 82.1284 618.761C82.1284 619.05 82.2544 619.298 82.5064 619.503C82.7584 619.708 83.1177 619.862 83.5844 619.965C84.0604 620.077 84.625 620.133 85.2784 620.133C85.9504 620.133 86.5197 620.077 86.9864 619.965C87.4624 619.862 87.8264 619.708 88.0784 619.503C88.3304 619.298 88.4564 619.05 88.4564 618.761C88.4564 618.462 88.3304 618.215 88.0784 618.019C87.8264 617.814 87.4624 617.66 86.9864 617.557C86.5197 617.445 85.9504 617.389 85.2784 617.389ZM98.8618 618.919V619.965H92.8257V618.919H95.2798V611.509L93.106 613.061V611.898L95.3823 610.333H96.5171V618.919H98.8618Z" fill="#7A7873"/>
</g>
<g id="Dropdown">
<mask id="path-30-inside-5_121_4975" fill="white">
<path d="M239.347 606.966C239.347 600.338 244.719 594.966 251.347 594.966H331.347C337.974 594.966 343.347 600.338 343.347 606.966V623.966C343.347 630.593 337.974 635.966 331.347 635.966H251.347C244.719 635.966 239.347 630.593 239.347 623.966V606.966Z"/>
</mask>
<path d="M251.347 594.966V596.464H331.347V594.966V593.467H251.347V594.966ZM343.347 606.966H341.848V623.966H343.347H344.845V606.966H343.347ZM331.347 635.966V634.467H251.347V635.966V637.464H331.347V635.966ZM239.347 623.966H240.845V606.966H239.347H237.848V623.966H239.347ZM251.347 635.966V634.467C245.547 634.467 240.845 629.766 240.845 623.966H239.347H237.848C237.848 631.421 243.892 637.464 251.347 637.464V635.966ZM343.347 623.966H341.848C341.848 629.766 337.147 634.467 331.347 634.467V635.966V637.464C338.802 637.464 344.845 631.421 344.845 623.966H343.347ZM331.347 594.966V596.464C337.147 596.464 341.848 601.166 341.848 606.966H343.347H344.845C344.845 599.511 338.802 593.467 331.347 593.467V594.966ZM251.347 594.966V593.467C243.892 593.467 237.848 599.511 237.848 606.966H239.347H240.845C240.845 601.166 245.547 596.464 251.347 596.464V594.966Z" fill="#373F3B" mask="url(#path-30-inside-5_121_4975)"/>
<path id="&#235;&#130;&#152;&#236;&#157;&#180; &#236;&#132;&#160;&#237;&#131;&#157;" d="M262.469 613.442H264.793V614.408H262.469V613.442ZM261.615 608.388H262.777V621.044H261.615V608.388ZM253.551 609.634H254.699V617.474H253.551V609.634ZM253.551 616.872H254.559C255.483 616.872 256.43 616.83 257.401 616.746C258.381 616.662 259.393 616.512 260.439 616.298L260.579 617.278C259.496 617.492 258.46 617.642 257.471 617.726C256.491 617.8 255.52 617.838 254.559 617.838H253.551V616.872ZM275.124 608.388H276.286V621.072H275.124V608.388ZM269.608 609.368C270.233 609.368 270.784 609.55 271.26 609.914C271.745 610.268 272.123 610.777 272.394 611.44C272.674 612.102 272.814 612.882 272.814 613.778C272.814 614.674 272.674 615.453 272.394 616.116C272.123 616.778 271.745 617.292 271.26 617.656C270.784 618.02 270.233 618.202 269.608 618.202C268.982 618.202 268.427 618.02 267.942 617.656C267.456 617.292 267.074 616.778 266.794 616.116C266.523 615.453 266.388 614.674 266.388 613.778C266.388 612.882 266.523 612.102 266.794 611.44C267.074 610.777 267.456 610.268 267.942 609.914C268.427 609.55 268.982 609.368 269.608 609.368ZM269.608 610.404C269.188 610.404 268.819 610.544 268.502 610.824C268.194 611.094 267.951 611.486 267.774 612C267.596 612.504 267.508 613.096 267.508 613.778C267.508 614.459 267.596 615.056 267.774 615.57C267.951 616.074 268.194 616.466 268.502 616.746C268.819 617.026 269.188 617.166 269.608 617.166C270.018 617.166 270.378 617.026 270.686 616.746C271.003 616.466 271.25 616.074 271.428 615.57C271.605 615.056 271.694 614.459 271.694 613.778C271.694 613.096 271.605 612.504 271.428 612C271.25 611.486 271.003 611.094 270.686 610.824C270.378 610.544 270.018 610.404 269.608 610.404ZM289.197 611.37H292.375V612.336H289.197V611.37ZM285.879 609.158H286.817V610.712C286.817 611.524 286.672 612.284 286.383 612.994C286.094 613.703 285.688 614.324 285.165 614.856C284.642 615.378 284.031 615.78 283.331 616.06L282.715 615.136C283.191 614.958 283.62 614.72 284.003 614.422C284.395 614.123 284.726 613.778 284.997 613.386C285.277 612.994 285.492 612.574 285.641 612.126C285.8 611.668 285.879 611.197 285.879 610.712V609.158ZM286.089 609.158H287.027V610.754C287.027 611.192 287.102 611.622 287.251 612.042C287.4 612.462 287.61 612.854 287.881 613.218C288.152 613.582 288.474 613.904 288.847 614.184C289.23 614.464 289.65 614.688 290.107 614.856L289.477 615.766C288.805 615.495 288.212 615.112 287.699 614.618C287.195 614.123 286.798 613.544 286.509 612.882C286.229 612.219 286.089 611.51 286.089 610.754V609.158ZM291.955 608.402H293.117V617.866H291.955V608.402ZM284.983 619.826H293.411V620.778H284.983V619.826ZM284.983 616.816H286.145V620.26H284.983V616.816ZM296.126 614.45H296.924C297.596 614.45 298.184 614.445 298.688 614.436C299.201 614.417 299.682 614.384 300.13 614.338C300.578 614.282 301.035 614.207 301.502 614.114L301.628 615.066C301.143 615.159 300.667 615.234 300.2 615.29C299.743 615.336 299.253 615.369 298.73 615.388C298.207 615.406 297.605 615.416 296.924 615.416H296.126V614.45ZM296.126 609.312H301.012V610.264H297.246V614.968H296.126V609.312ZM296.896 611.832H300.872V612.742H296.896V611.832ZM305.142 608.402H306.248V616.074H305.142V608.402ZM303.098 611.692H305.478V612.644H303.098V611.692ZM302.342 608.64H303.434V615.99H302.342V608.64ZM297.764 616.732H306.248V621.058H305.1V617.684H297.764V616.732Z" fill="#7A7873"/>
<g id="Frame_2">
<path id="Vector_8" d="M328.347 617.466L324.347 613.466L320.347 617.466" stroke="#7A7873" stroke-width="1.3" stroke-linecap="round" stroke-linejoin="round"/>
</g>
</g>
</g>
</g>
</g>
</g>
</g>
<g id="DateField">
<g id="Paragraph_3">
<path id="&#235;&#130;&#160;&#236;&#167;&#156;" d="M42.1582 240.225H43.8809V241.482H42.1582V243.971H40.6406V237.818H42.1582V240.225ZM34.4746 242.269C36.2428 242.246 37.9245 242.079 39.5195 241.77L39.6973 243.014C38.7767 243.201 37.8698 243.335 36.9766 243.417C36.0833 243.494 35.1764 243.533 34.2559 243.533H33.9688H32.9434V238.365H34.4746V242.269ZM42.1582 247.785H35.6094V248.797H42.541V250.027H34.0918V246.623H40.627V245.707H34.0781V244.504H42.1582V247.785ZM54.5586 242.562H56.0625V243.834H54.5586V250.178H53.041V237.818H54.5586V242.562ZM47.5312 241.127C47.5312 242.002 47.6042 242.827 47.75 243.602C47.8958 244.376 48.1693 245.06 48.5703 245.652C48.9622 245.064 49.2311 244.383 49.377 243.608C49.5228 242.829 49.5957 242.002 49.5957 241.127V240.184H48.8027V238.953H52.248V240.184H51.0449V241.127C51.0449 242.307 51.1771 243.362 51.4414 244.292C51.7057 245.222 52.1888 245.944 52.8906 246.459L51.9199 247.553C51.1589 246.969 50.6165 246.042 50.293 244.771C49.9557 246.097 49.377 247.061 48.5566 247.662C47.7546 247.065 47.1826 246.101 46.8408 244.771C46.5127 246.042 45.9727 246.969 45.2207 247.553L44.25 246.459C44.9518 245.939 45.4349 245.213 45.6992 244.278C45.9635 243.34 46.0957 242.289 46.0957 241.127V240.184H44.7148V238.953H48.3242V240.184H47.5312V241.127Z" fill="#B8B5AE"/>
</g>
<g id="Button_6" filter="url(#filter2_dd_121_4975)">
<path d="M32 280.958C32 272.121 39.1634 264.958 48 264.958H361.342C370.178 264.958 377.342 272.121 377.342 280.958V303.931C377.342 312.768 370.178 319.931 361.342 319.931H48C39.1635 319.931 32 312.768 32 303.931V280.958Z" fill="#262B28"/>
<path d="M48 265.458H361.342C369.902 265.458 376.842 272.397 376.842 280.958V303.931C376.842 312.492 369.902 319.431 361.342 319.431H48C39.4396 319.431 32.5 312.492 32.5 303.931V280.958C32.5 272.397 39.4396 265.458 48 265.458Z" stroke="#373F3B"/>
<g id="Paragraph_4">
<path id="4 &#236;&#155;&#148; 10 &#236;&#157;&#188; ~ 4 &#236;&#155;&#148; 12 &#236;&#157;&#188;" d="M49.6885 293.941L54.2734 286.837H56.6465V293.897H58.0381V295.465H56.6465V297.442H54.8301V295.465H49.6885V293.941ZM54.8594 293.897V289.005H54.7422L51.6367 293.824V293.897H54.8594ZM73.7852 293.238H72.1445V292.696H69.6689V291.7H72.1445V285.519H73.7852V293.238ZM62.667 290.294C64.3125 290.294 65.8384 290.274 67.2446 290.235C68.6509 290.196 69.9912 290.113 71.2656 289.986L71.3535 291.012C70.2354 291.168 69.0098 291.278 67.6768 291.341V293.253H66.0654V291.407C65.4893 291.427 64.6543 291.437 63.5605 291.437H62.8428L62.667 290.294ZM73.7852 296.622H66.2559V297.472H74.1367V298.629H64.6592V295.553H72.1738V294.762H64.6006V293.648H73.7852V296.622ZM66.9443 285.724C67.5938 285.724 68.1675 285.807 68.6655 285.973C69.1685 286.139 69.5591 286.373 69.8374 286.676C70.1157 286.974 70.2549 287.32 70.2549 287.716C70.2549 288.121 70.1157 288.473 69.8374 288.771C69.5591 289.068 69.1709 289.298 68.6729 289.459C68.1748 289.615 67.5986 289.693 66.9443 289.693C66.2754 289.693 65.6895 289.615 65.1865 289.459C64.6836 289.298 64.293 289.068 64.0146 288.771C63.7412 288.473 63.6045 288.121 63.6045 287.716C63.6045 287.32 63.7437 286.974 64.022 286.676C64.3003 286.373 64.6909 286.139 65.1938 285.973C65.6968 285.807 66.2803 285.724 66.9443 285.724ZM66.9443 286.808C66.3877 286.808 65.9482 286.891 65.626 287.057C65.3037 287.218 65.1475 287.438 65.1572 287.716C65.1523 287.994 65.3086 288.214 65.626 288.375C65.9482 288.531 66.3877 288.609 66.9443 288.609C67.4912 288.609 67.9258 288.531 68.248 288.375C68.5703 288.214 68.7314 287.994 68.7314 287.716C68.7314 287.438 68.5679 287.218 68.2407 287.057C67.9185 286.891 67.4863 286.808 66.9443 286.808ZM83.9512 297.442H82.0322V288.697H81.9736L79.498 290.279V288.536L82.1201 286.837H83.9512V297.442ZM90.4404 297.589C89.5908 297.589 88.8608 297.376 88.2505 296.952C87.645 296.522 87.1787 295.899 86.8516 295.084C86.5293 294.269 86.3682 293.287 86.3682 292.14C86.3682 290.997 86.5293 290.018 86.8516 289.203C87.1787 288.382 87.6475 287.76 88.2578 287.335C88.8682 286.905 89.5957 286.69 90.4404 286.69C91.2803 286.69 92.0054 286.905 92.6157 287.335C93.231 287.76 93.6997 288.382 94.022 289.203C94.3491 290.018 94.5127 290.997 94.5127 292.14C94.5127 293.287 94.3491 294.269 94.022 295.084C93.6997 295.899 93.2334 296.522 92.623 296.952C92.0176 297.376 91.29 297.589 90.4404 297.589ZM90.4404 295.992C90.8896 295.992 91.2729 295.848 91.5903 295.56C91.9126 295.267 92.1592 294.835 92.3301 294.264C92.5059 293.688 92.5938 292.979 92.5938 292.14C92.5938 291.31 92.5059 290.606 92.3301 290.03C92.1592 289.449 91.9126 289.012 91.5903 288.719C91.2681 288.421 90.8848 288.272 90.4404 288.272C89.9961 288.272 89.6128 288.421 89.2905 288.719C88.9683 289.012 88.7192 289.449 88.5435 290.03C88.3726 290.606 88.2871 291.31 88.2871 292.14C88.2871 292.979 88.3726 293.688 88.5435 294.264C88.7192 294.835 88.9658 295.267 89.2832 295.56C89.6055 295.848 89.9912 295.992 90.4404 295.992ZM102.979 285.929C103.644 285.929 104.242 286.058 104.774 286.317C105.306 286.571 105.724 286.925 106.026 287.379C106.334 287.833 106.49 288.346 106.495 288.917C106.49 289.493 106.334 290.008 106.026 290.462C105.724 290.917 105.306 291.271 104.774 291.524C104.242 291.778 103.644 291.905 102.979 291.905C102.311 291.905 101.708 291.778 101.17 291.524C100.638 291.271 100.221 290.917 99.918 290.462C99.6152 290.008 99.4639 289.493 99.4639 288.917C99.4639 288.346 99.6152 287.833 99.918 287.379C100.221 286.925 100.641 286.571 101.178 286.317C101.715 286.058 102.315 285.929 102.979 285.929ZM102.979 287.276C102.608 287.276 102.276 287.345 101.983 287.481C101.69 287.613 101.461 287.804 101.295 288.053C101.129 288.297 101.046 288.585 101.046 288.917C101.046 289.254 101.129 289.549 101.295 289.803C101.461 290.052 101.69 290.245 101.983 290.382C102.276 290.519 102.608 290.587 102.979 290.587C103.351 290.587 103.683 290.519 103.976 290.382C104.269 290.245 104.498 290.052 104.664 289.803C104.83 289.549 104.913 289.254 104.913 288.917C104.913 288.585 104.83 288.297 104.664 288.053C104.498 287.804 104.269 287.613 103.976 287.481C103.683 287.345 103.351 287.276 102.979 287.276ZM110.26 292.198H108.619V285.504H110.26V292.198ZM110.26 296.227H103.097V297.296H110.655V298.585H101.5V295.025H108.634V294.044H101.471V292.77H110.26V296.227ZM116.72 291.744C116.959 291.48 117.23 291.28 117.533 291.144C117.835 291.007 118.155 290.938 118.492 290.938C118.751 290.938 119.002 290.973 119.247 291.041C119.491 291.104 119.801 291.207 120.177 291.349C120.538 291.485 120.841 291.588 121.085 291.656C121.334 291.725 121.588 291.759 121.847 291.759C122.53 291.759 123.106 291.48 123.575 290.924V292.521C123.336 292.789 123.065 292.992 122.762 293.128C122.464 293.26 122.145 293.326 121.803 293.326C121.544 293.326 121.288 293.292 121.034 293.224C120.78 293.15 120.475 293.048 120.118 292.916C119.762 292.784 119.457 292.684 119.203 292.616C118.954 292.542 118.702 292.506 118.448 292.506C117.765 292.506 117.188 292.784 116.72 293.341V291.744ZM129.229 293.941L133.814 286.837H136.188V293.897H137.579V295.465H136.188V297.442H134.371V295.465H129.229V293.941ZM134.4 293.897V289.005H134.283L131.178 293.824V293.897H134.4ZM153.326 293.238H151.686V292.696H149.21V291.7H151.686V285.519H153.326V293.238ZM142.208 290.294C143.854 290.294 145.379 290.274 146.786 290.235C148.192 290.196 149.532 290.113 150.807 289.986L150.895 291.012C149.776 291.168 148.551 291.278 147.218 291.341V293.253H145.606V291.407C145.03 291.427 144.195 291.437 143.102 291.437H142.384L142.208 290.294ZM153.326 296.622H145.797V297.472H153.678V298.629H144.2V295.553H151.715V294.762H144.142V293.648H153.326V296.622ZM146.485 285.724C147.135 285.724 147.708 285.807 148.207 285.973C148.709 286.139 149.1 286.373 149.378 286.676C149.657 286.974 149.796 287.32 149.796 287.716C149.796 288.121 149.657 288.473 149.378 288.771C149.1 289.068 148.712 289.298 148.214 289.459C147.716 289.615 147.14 289.693 146.485 289.693C145.816 289.693 145.23 289.615 144.728 289.459C144.225 289.298 143.834 289.068 143.556 288.771C143.282 288.473 143.146 288.121 143.146 287.716C143.146 287.32 143.285 286.974 143.563 286.676C143.841 286.373 144.232 286.139 144.735 285.973C145.238 285.807 145.821 285.724 146.485 285.724ZM146.485 286.808C145.929 286.808 145.489 286.891 145.167 287.057C144.845 287.218 144.688 287.438 144.698 287.716C144.693 287.994 144.85 288.214 145.167 288.375C145.489 288.531 145.929 288.609 146.485 288.609C147.032 288.609 147.467 288.531 147.789 288.375C148.111 288.214 148.272 287.994 148.272 287.716C148.272 287.438 148.109 287.218 147.782 287.057C147.459 286.891 147.027 286.808 146.485 286.808ZM163.492 297.442H161.573V288.697H161.515L159.039 290.279V288.536L161.661 286.837H163.492V297.442ZM166.07 296.065L169.82 292.447C170.226 292.042 170.538 291.71 170.758 291.451C170.982 291.188 171.153 290.929 171.271 290.675C171.388 290.416 171.446 290.143 171.446 289.854C171.446 289.532 171.368 289.249 171.212 289.005C171.056 288.761 170.838 288.573 170.56 288.441C170.287 288.309 169.977 288.243 169.63 288.243C169.269 288.243 168.951 288.316 168.678 288.463C168.409 288.604 168.202 288.81 168.055 289.078C167.909 289.342 167.838 289.649 167.843 290.001H166.026C166.021 289.342 166.173 288.763 166.48 288.265C166.788 287.762 167.215 287.374 167.762 287.101C168.314 286.827 168.941 286.69 169.645 286.69C170.357 286.69 170.987 286.822 171.534 287.086C172.086 287.35 172.513 287.716 172.816 288.185C173.124 288.648 173.277 289.176 173.277 289.767C173.277 290.177 173.197 290.572 173.036 290.953C172.879 291.334 172.611 291.756 172.23 292.22C171.849 292.679 171.31 293.238 170.611 293.897L168.722 295.772V295.846H173.438V297.442H166.07V296.065ZM181.979 285.929C182.643 285.929 183.241 286.058 183.773 286.317C184.305 286.571 184.723 286.925 185.025 287.379C185.333 287.833 185.489 288.346 185.494 288.917C185.489 289.493 185.333 290.008 185.025 290.462C184.723 290.917 184.305 291.271 183.773 291.524C183.241 291.778 182.643 291.905 181.979 291.905C181.31 291.905 180.707 291.778 180.169 291.524C179.637 291.271 179.22 290.917 178.917 290.462C178.614 290.008 178.463 289.493 178.463 288.917C178.463 288.346 178.614 287.833 178.917 287.379C179.22 286.925 179.64 286.571 180.177 286.317C180.714 286.058 181.314 285.929 181.979 285.929ZM181.979 287.276C181.607 287.276 181.275 287.345 180.982 287.481C180.689 287.613 180.46 287.804 180.294 288.053C180.128 288.297 180.045 288.585 180.045 288.917C180.045 289.254 180.128 289.549 180.294 289.803C180.46 290.052 180.689 290.245 180.982 290.382C181.275 290.519 181.607 290.587 181.979 290.587C182.35 290.587 182.682 290.519 182.975 290.382C183.268 290.245 183.497 290.052 183.663 289.803C183.829 289.549 183.912 289.254 183.912 288.917C183.912 288.585 183.829 288.297 183.663 288.053C183.497 287.804 183.268 287.613 182.975 287.481C182.682 287.345 182.35 287.276 181.979 287.276ZM189.259 292.198H187.618V285.504H189.259V292.198ZM189.259 296.227H182.096V297.296H189.654V298.585H180.499V295.025H187.633V294.044H180.47V292.77H189.259V296.227Z" fill="#E8E4DC"/>
</g>
<g id="Icon_5">
<path id="Vector_9" d="M347.012 284.113V287.446" stroke="#7A7873" stroke-width="1.66623" stroke-linecap="round" stroke-linejoin="round"/>
<path id="Vector_10" d="M353.677 284.113V287.446" stroke="#7A7873" stroke-width="1.66623" stroke-linecap="round" stroke-linejoin="round"/>
<path id="Vector_11" d="M356.176 285.78H344.513C343.593 285.78 342.847 286.526 342.847 287.446V299.11C342.847 300.03 343.593 300.776 344.513 300.776H356.176C357.097 300.776 357.843 300.03 357.843 299.11V287.446C357.843 286.526 357.097 285.78 356.176 285.78Z" stroke="#7A7873" stroke-width="1.66623" stroke-linecap="round" stroke-linejoin="round"/>
<path id="Vector_12" d="M342.847 290.778H357.843" stroke="#7A7873" stroke-width="1.66623" stroke-linecap="round" stroke-linejoin="round"/>
</g>
</g>
</g>
<g id="DestinationField">
<g id="Paragraph_5">
<path id="&#236;&#151;&#172;&#237;&#150;&#137;&#236;&#167;&#128;" d="M35.7871 127.754C36.3431 127.754 36.8444 127.903 37.291 128.199C37.7422 128.495 38.1068 128.917 38.3848 129.463H41.2695V126.852H42.7734V139.225H41.2695V134.549H38.4941C38.2253 135.165 37.8561 135.643 37.3867 135.985C36.9173 136.322 36.3841 136.491 35.7871 136.491C35.1673 136.491 34.6182 136.313 34.1396 135.958C33.6611 135.602 33.2874 135.094 33.0186 134.433C32.7497 133.772 32.6152 133 32.6152 132.116C32.6152 131.241 32.7497 130.475 33.0186 129.819C33.2874 129.158 33.6611 128.65 34.1396 128.294C34.6227 127.934 35.1719 127.754 35.7871 127.754ZM35.7871 129.122C35.4453 129.122 35.1445 129.242 34.8848 129.484C34.625 129.721 34.4245 130.065 34.2832 130.516C34.1419 130.963 34.0736 131.496 34.0781 132.116C34.0736 132.74 34.1419 133.278 34.2832 133.729C34.4245 134.18 34.625 134.527 34.8848 134.768C35.1445 135.005 35.4453 135.124 35.7871 135.124C36.1289 135.124 36.4274 135.005 36.6826 134.768C36.9424 134.527 37.1429 134.18 37.2842 133.729C37.43 133.278 37.5052 132.74 37.5098 132.116C37.5052 131.496 37.43 130.96 37.2842 130.509C37.1429 130.058 36.9424 129.714 36.6826 129.477C36.4274 129.24 36.1289 129.122 35.7871 129.122ZM38.8086 130.708C38.8997 131.15 38.9453 131.619 38.9453 132.116C38.9453 132.526 38.9134 132.927 38.8496 133.319H41.2695V130.708H38.8086ZM55.0781 134.618H53.6289V131.254H52.4258V134.208H51.0039V127.098H52.4258V130.024H53.6289V126.852H55.0781V134.618ZM50.5938 129.381H44.4414V128.192H46.7793V126.961H48.2832V128.192H50.5938V129.381ZM47.5312 129.887C48.0508 129.887 48.5133 129.976 48.9189 130.154C49.3245 130.332 49.6413 130.582 49.8691 130.906C50.1016 131.225 50.2201 131.596 50.2246 132.02C50.2201 132.444 50.1016 132.818 49.8691 133.141C49.6413 133.46 49.3245 133.708 48.9189 133.886C48.5133 134.064 48.0508 134.153 47.5312 134.153C47.0208 134.153 46.5628 134.064 46.1572 133.886C45.7516 133.708 45.4349 133.458 45.207 133.134C44.9837 132.811 44.8743 132.439 44.8789 132.02C44.8743 131.601 44.9837 131.229 45.207 130.906C45.4349 130.582 45.7516 130.332 46.1572 130.154C46.5628 129.976 47.0208 129.887 47.5312 129.887ZM47.5312 130.981C47.1439 130.981 46.8294 131.074 46.5879 131.261C46.3509 131.448 46.2324 131.701 46.2324 132.02C46.2324 132.339 46.3509 132.592 46.5879 132.779C46.8249 132.966 47.1393 133.059 47.5312 133.059C47.9232 133.059 48.2399 132.966 48.4814 132.779C48.723 132.592 48.8438 132.339 48.8438 132.02C48.8438 131.701 48.723 131.448 48.4814 131.261C48.2399 131.074 47.9232 130.981 47.5312 130.981ZM50.9082 134.768C51.7878 134.768 52.5443 134.855 53.1777 135.028C53.8112 135.201 54.2965 135.456 54.6338 135.793C54.971 136.126 55.1419 136.527 55.1465 136.997C55.1419 137.457 54.9688 137.851 54.627 138.179C54.2897 138.512 53.8044 138.765 53.1709 138.938C52.5374 139.111 51.7832 139.198 50.9082 139.198C50.0332 139.198 49.2767 139.111 48.6387 138.938C48.0052 138.765 47.5176 138.512 47.1758 138.179C46.8385 137.851 46.6699 137.457 46.6699 136.997C46.6699 136.527 46.8385 136.126 47.1758 135.793C47.5176 135.456 48.0052 135.201 48.6387 135.028C49.2721 134.855 50.0286 134.768 50.9082 134.768ZM50.9082 135.93C50.0195 135.921 49.3428 136.008 48.8779 136.19C48.4176 136.368 48.1875 136.637 48.1875 136.997C48.1875 137.338 48.4199 137.598 48.8848 137.776C49.3496 137.949 50.0241 138.036 50.9082 138.036C51.7878 138.036 52.4577 137.949 52.918 137.776C53.3828 137.598 53.6152 137.338 53.6152 136.997C53.6152 136.637 53.3828 136.368 52.918 136.19C52.4577 136.008 51.7878 135.921 50.9082 135.93ZM61.2715 130.366C61.2715 131.045 61.3991 131.717 61.6543 132.382C61.9141 133.043 62.2832 133.638 62.7617 134.167C63.2448 134.691 63.8099 135.087 64.457 135.356L63.623 136.559C62.9076 136.254 62.2855 135.796 61.7568 135.185C61.2282 134.574 60.818 133.866 60.5264 133.059C60.2347 133.925 59.8223 134.693 59.2891 135.363C58.7604 136.028 58.1406 136.527 57.4297 136.86L56.5547 135.67C57.1882 135.379 57.7441 134.95 58.2227 134.385C58.7057 133.82 59.0771 133.187 59.3369 132.485C59.5967 131.778 59.7266 131.072 59.7266 130.366V129.327H57.0059V128.069H63.9785V129.327H61.2715V130.366ZM66.8906 139.211H65.3594V126.852H66.8906V139.211Z" fill="#B8B5AE"/>
</g>
<g id="Container_9" filter="url(#filter3_dd_121_4975)">
<path d="M32 169.991C32 161.155 39.1634 153.991 48 153.991H361.342C370.178 153.991 377.342 161.155 377.342 169.991V192.965C377.342 201.802 370.178 208.965 361.342 208.965H48C39.1635 208.965 32 201.802 32 192.965V169.991Z" fill="#262B28"/>
<path d="M48 154.491H361.342C369.902 154.491 376.842 161.431 376.842 169.991V192.965C376.842 201.525 369.902 208.465 361.342 208.465H48C39.4396 208.465 32.5 201.525 32.5 192.965V169.991C32.5 161.431 39.4396 154.491 48 154.491Z" stroke="#373F3B"/>
<g id="Text Input">
<path id="&#236;&#151;&#172;&#237;&#150;&#137;&#236;&#167;&#128;&#235;&#165;&#188; &#236;&#158;&#133;&#235;&#160;&#165;&#237;&#149;&#152;&#236;&#132;&#184;&#236;&#154;&#148;" d="M55.5488 175.506C56.75 175.506 57.7388 176.173 58.332 177.337H61.4229V174.54H63.0342V187.796H61.4229V182.787H58.4492C57.8779 184.105 56.8306 184.867 55.5488 184.867C53.5566 184.867 52.1504 183.065 52.1504 180.179C52.1504 177.323 53.5566 175.506 55.5488 175.506ZM55.5488 176.971C54.4502 176.971 53.7031 178.158 53.7178 180.179C53.7031 182.215 54.4502 183.402 55.5488 183.402C56.6475 183.402 57.3799 182.215 57.3945 180.179C57.3799 178.158 56.6475 176.971 55.5488 176.971ZM58.7861 178.67C58.8813 179.132 58.9326 179.637 58.9326 180.179C58.9326 180.641 58.896 181.065 58.8301 181.468H61.4229V178.67H58.7861ZM76.2178 174.54V182.86H74.665V179.256H73.376V182.42H71.8525V174.803H73.376V177.938H74.665V174.54H76.2178ZM71.4131 175.975V177.25H64.8213V175.975H67.3262V174.657H68.9375V175.975H71.4131ZM68.1318 177.792C69.8164 177.792 71.0029 178.7 71.0176 180.077C71.0029 181.454 69.8164 182.362 68.1318 182.362C66.4766 182.362 65.2754 181.454 65.29 180.077C65.2754 178.7 66.4766 177.792 68.1318 177.792ZM68.1318 178.963C67.3115 178.963 66.7402 179.388 66.7402 180.077C66.7402 180.765 67.2969 181.19 68.1318 181.19C68.9668 181.19 69.5381 180.765 69.5381 180.077C69.5381 179.388 68.9668 178.963 68.1318 178.963ZM71.75 183.021C74.5771 183.021 76.2764 183.885 76.291 185.409C76.2764 186.903 74.5771 187.767 71.75 187.767C68.9229 187.767 67.209 186.903 67.209 185.409C67.209 183.885 68.9229 183.021 71.75 183.021ZM71.75 184.266C69.8604 184.251 68.835 184.632 68.835 185.409C68.835 186.141 69.8604 186.522 71.75 186.522C73.625 186.522 74.6504 186.141 74.6504 185.409C74.6504 184.632 73.625 184.251 71.75 184.266ZM82.8535 178.304C82.8535 180.472 84.1279 182.757 86.2666 183.651L85.373 184.94C83.8057 184.266 82.6631 182.875 82.0625 181.19C81.4473 183.006 80.29 184.53 78.7373 185.262L77.7998 183.988C79.8945 183.021 81.1982 180.56 81.1982 178.304V177.191H78.2832V175.843H85.7539V177.191H82.8535V178.304ZM88.874 174.54V187.782H87.2334V174.54H88.874ZM102.907 180.545V181.776H90.8076V180.545H102.907ZM101.442 182.567V185.584H93.8545V186.507H101.838V187.635H92.2285V184.53H99.8311V183.709H92.2139V182.567H101.442ZM101.413 174.833V177.821H93.957V178.685H101.647V179.798H92.3457V176.766H99.7871V175.96H92.3018V174.833H101.413ZM118.376 174.54V181.644H116.735V174.54H118.376ZM111.228 182.259V183.622H116.75V182.259H118.376V187.621H109.616V182.259H111.228ZM111.228 186.302H116.75V184.896H111.228V186.302ZM111.154 175.125C113.19 175.111 114.714 176.385 114.714 178.231C114.714 180.033 113.19 181.307 111.154 181.307C109.104 181.307 107.58 180.033 107.58 178.231C107.58 176.385 109.104 175.111 111.154 175.125ZM111.154 176.488C109.997 176.488 109.162 177.162 109.177 178.231C109.162 179.286 109.997 179.959 111.154 179.974C112.297 179.959 113.117 179.286 113.117 178.231C113.117 177.162 112.297 176.488 111.154 176.488ZM126.638 175.331V179.315H122.463V180.941C124.587 180.948 125.81 180.882 127.209 180.619L127.37 181.937C125.788 182.201 124.411 182.245 121.818 182.245H120.852V178.099H125.012V176.62H120.822V175.331H126.638ZM131.398 174.554V182.699H129.772V180.516H127.429V179.212H129.772V177.733H127.429V176.429H129.772V174.554H131.398ZM131.398 183.329V187.782H129.772V184.632H122.346V183.329H131.398ZM143.645 174.54V179.813H145.681V181.161H143.645V187.782H142.033V174.54H143.645ZM141.008 176.576V177.879H133.2V176.576H136.335V174.73H137.961V176.576H141.008ZM137.155 178.744C139.06 178.744 140.48 180.033 140.48 181.864C140.48 183.695 139.06 184.969 137.155 184.969C135.222 184.969 133.801 183.695 133.815 181.864C133.801 180.033 135.222 178.744 137.155 178.744ZM137.155 180.077C136.115 180.077 135.368 180.78 135.368 181.864C135.368 182.948 136.115 183.636 137.155 183.622C138.166 183.636 138.913 182.948 138.928 181.864C138.913 180.78 138.166 180.077 137.155 180.077ZM150.368 178.011C150.368 180.15 151.115 182.376 152.902 183.504L152.009 184.75C150.815 184.032 150.039 182.794 149.606 181.336C149.123 182.94 148.273 184.295 147.028 185.057L146.018 183.841C147.937 182.669 148.801 180.34 148.801 178.084V175.711H150.368V178.011ZM157.663 174.54V187.782H156.096V174.54H157.663ZM154.909 174.774V187.137H153.371V180.443H151.481V179.095H153.371V174.774H154.909ZM171.301 184.837V186.17H159.201V184.837H161.999V181.483C160.944 180.882 160.307 179.938 160.314 178.758C160.3 176.649 162.38 175.257 165.222 175.257C168.078 175.257 170.158 176.649 170.158 178.758C170.158 179.916 169.543 180.846 168.518 181.454V184.837H171.301ZM165.222 176.546C163.244 176.546 161.896 177.381 161.911 178.758C161.896 180.121 163.244 180.97 165.222 180.97C167.199 180.97 168.562 180.121 168.562 178.758C168.562 177.381 167.199 176.546 165.222 176.546ZM163.61 184.837H166.862V182.069C166.357 182.186 165.808 182.245 165.222 182.245C164.65 182.245 164.108 182.186 163.61 182.083V184.837Z" fill="#7A7873"/>
</g>
<g id="Icon_6">
<path id="Vector_13" d="M347.02 187.31C350.701 187.31 353.685 184.326 353.685 180.645C353.685 176.964 350.701 173.98 347.02 173.98C343.339 173.98 340.355 176.964 340.355 180.645C340.355 184.326 343.339 187.31 347.02 187.31Z" stroke="#7A7873" stroke-width="1.66623" stroke-linecap="round" stroke-linejoin="round"/>
<path id="Vector_14" d="M355.351 188.976L351.769 185.394" stroke="#7A7873" stroke-width="1.66623" stroke-linecap="round" stroke-linejoin="round"/>
</g>
</g>
</g>
</g>
</g>
<g id="Container_10">
<g id="Icon_7" clip-path="url(#clip0_121_4975)">
<path id="Vector_15" d="M163.499 25.9941H245.499" stroke="#7A7873" stroke-width="7.99775" stroke-linecap="round"/>
</g>
</g>
</g>
<defs>
<filter id="filter0_dd_121_4975" x="0.00146484" y="351.997" width="409.342" height="118.974" filterUnits="userSpaceOnUse" color-interpolation-filters="sRGB">
<feFlood flood-opacity="0" result="BackgroundImageFix"/>
<feColorMatrix in="SourceAlpha" type="matrix" values="0 0 0 0 0 0 0 0 0 0 0 0 0 0 0 0 0 0 127 0" result="hardAlpha"/>
<feOffset dy="8"/>
<feGaussianBlur stdDeviation="16"/>
<feColorMatrix type="matrix" values="0 0 0 0 0 0 0 0 0 0 0 0 0 0 0 0 0 0 0.5 0"/>
<feBlend mode="normal" in2="BackgroundImageFix" result="effect1_dropShadow_121_4975"/>
<feColorMatrix in="SourceAlpha" type="matrix" values="0 0 0 0 0 0 0 0 0 0 0 0 0 0 0 0 0 0 127 0" result="hardAlpha"/>
<feOffset dy="2"/>
<feGaussianBlur stdDeviation="4"/>
<feColorMatrix type="matrix" values="0 0 0 0 0 0 0 0 0 0 0 0 0 0 0 0 0 0 0.25 0"/>
<feBlend mode="normal" in2="effect1_dropShadow_121_4975" result="effect2_dropShadow_121_4975"/>
<feBlend mode="normal" in="SourceGraphic" in2="effect2_dropShadow_121_4975" result="shape"/>
</filter>
<filter id="filter1_dd_121_4975" x="0.00146484" y="422.971" width="409.345" height="276.995" filterUnits="userSpaceOnUse" color-interpolation-filters="sRGB">
<feFlood flood-opacity="0" result="BackgroundImageFix"/>
<feColorMatrix in="SourceAlpha" type="matrix" values="0 0 0 0 0 0 0 0 0 0 0 0 0 0 0 0 0 0 127 0" result="hardAlpha"/>
<feOffset dy="8"/>
<feGaussianBlur stdDeviation="16"/>
<feColorMatrix type="matrix" values="0 0 0 0 0 0 0 0 0 0 0 0 0 0 0 0 0 0 0.5 0"/>
<feBlend mode="normal" in2="BackgroundImageFix" result="effect1_dropShadow_121_4975"/>
<feColorMatrix in="SourceAlpha" type="matrix" values="0 0 0 0 0 0 0 0 0 0 0 0 0 0 0 0 0 0 127 0" result="hardAlpha"/>
<feOffset dy="2"/>
<feGaussianBlur stdDeviation="4"/>
<feColorMatrix type="matrix" values="0 0 0 0 0 0 0 0 0 0 0 0 0 0 0 0 0 0 0.25 0"/>
<feBlend mode="normal" in2="effect1_dropShadow_121_4975" result="effect2_dropShadow_121_4975"/>
<feBlend mode="normal" in="SourceGraphic" in2="effect2_dropShadow_121_4975" result="shape"/>
</filter>
<filter id="filter2_dd_121_4975" x="0" y="240.958" width="409.342" height="118.974" filterUnits="userSpaceOnUse" color-interpolation-filters="sRGB">
<feFlood flood-opacity="0" result="BackgroundImageFix"/>
<feColorMatrix in="SourceAlpha" type="matrix" values="0 0 0 0 0 0 0 0 0 0 0 0 0 0 0 0 0 0 127 0" result="hardAlpha"/>
<feOffset dy="8"/>
<feGaussianBlur stdDeviation="16"/>
<feColorMatrix type="matrix" values="0 0 0 0 0 0 0 0 0 0 0 0 0 0 0 0 0 0 0.5 0"/>
<feBlend mode="normal" in2="BackgroundImageFix" result="effect1_dropShadow_121_4975"/>
<feColorMatrix in="SourceAlpha" type="matrix" values="0 0 0 0 0 0 0 0 0 0 0 0 0 0 0 0 0 0 127 0" result="hardAlpha"/>
<feOffset dy="2"/>
<feGaussianBlur stdDeviation="4"/>
<feColorMatrix type="matrix" values="0 0 0 0 0 0 0 0 0 0 0 0 0 0 0 0 0 0 0.25 0"/>
<feBlend mode="normal" in2="effect1_dropShadow_121_4975" result="effect2_dropShadow_121_4975"/>
<feBlend mode="normal" in="SourceGraphic" in2="effect2_dropShadow_121_4975" result="shape"/>
</filter>
<filter id="filter3_dd_121_4975" x="0" y="129.991" width="409.342" height="118.974" filterUnits="userSpaceOnUse" color-interpolation-filters="sRGB">
<feFlood flood-opacity="0" result="BackgroundImageFix"/>
<feColorMatrix in="SourceAlpha" type="matrix" values="0 0 0 0 0 0 0 0 0 0 0 0 0 0 0 0 0 0 127 0" result="hardAlpha"/>
<feOffset dy="8"/>
<feGaussianBlur stdDeviation="16"/>
<feColorMatrix type="matrix" values="0 0 0 0 0 0 0 0 0 0 0 0 0 0 0 0 0 0 0.5 0"/>
<feBlend mode="normal" in2="BackgroundImageFix" result="effect1_dropShadow_121_4975"/>
<feColorMatrix in="SourceAlpha" type="matrix" values="0 0 0 0 0 0 0 0 0 0 0 0 0 0 0 0 0 0 127 0" result="hardAlpha"/>
<feOffset dy="2"/>
<feGaussianBlur stdDeviation="4"/>
<feColorMatrix type="matrix" values="0 0 0 0 0 0 0 0 0 0 0 0 0 0 0 0 0 0 0.25 0"/>
<feBlend mode="normal" in2="effect1_dropShadow_121_4975" result="effect2_dropShadow_121_4975"/>
<feBlend mode="normal" in="SourceGraphic" in2="effect2_dropShadow_121_4975" result="shape"/>
</filter>
<clipPath id="clip0_121_4975">
<rect width="89.9996" height="7.99554" fill="white" transform="translate(159.499 21.9966)"/>
</clipPath>
</defs>
</svg>
