<svg width="410" height="654" viewBox="0 0 410 654" fill="none" xmlns="http://www.w3.org/2000/svg">
<g id="Property 1=filled">
<path d="M8 16C8 7.16345 15.1634 0 24 0H385C393.837 0 401 7.16344 401 16V654H8V16Z" fill="#1C2120"/>
<g id="Frame 64">
<g id="Heading 2">
<path id="&#236;&#151;&#172;&#237;&#150;&#137; &#236;&#160;&#149;&#235;&#179;&#180;&#235;&#165;&#188; &#236;&#158;&#133;&#235;&#160;&#165;&#237;&#149;&#180;&#236;&#163;&#188;&#236;&#132;&#184;&#236;&#154;&#148;" d="M38.1553 73.9102C39.917 73.9102 41.3672 74.8877 42.2373 76.5957H46.7705V72.4922H49.1338V91.9355H46.7705V84.5879H42.4092C41.5713 86.5215 40.0352 87.6387 38.1553 87.6387C35.2334 87.6387 33.1709 84.9961 33.1709 80.7637C33.1709 76.5742 35.2334 73.9102 38.1553 73.9102ZM38.1553 76.0586C36.5439 76.0586 35.4482 77.7988 35.4697 80.7637C35.4482 83.75 36.5439 85.4902 38.1553 85.4902C39.7666 85.4902 40.8408 83.75 40.8623 80.7637C40.8408 77.7988 39.7666 76.0586 38.1553 76.0586ZM42.9033 78.5508C43.043 79.2275 43.1182 79.9688 43.1182 80.7637C43.1182 81.4404 43.0645 82.0635 42.9678 82.6543H46.7705V78.5508H42.9033ZM68.4697 72.4922V84.6953H66.1924V79.4102H64.3018V84.0508H62.0674V72.8789H64.3018V77.4766H66.1924V72.4922H68.4697ZM61.4229 74.5977V76.4668H51.7549V74.5977H55.4287V72.6641H57.792V74.5977H61.4229ZM56.6104 77.2617C59.0811 77.2617 60.8213 78.5938 60.8428 80.6133C60.8213 82.6328 59.0811 83.9648 56.6104 83.9648C54.1826 83.9648 52.4209 82.6328 52.4424 80.6133C52.4209 78.5938 54.1826 77.2617 56.6104 77.2617ZM56.6104 78.9805C55.4072 78.9805 54.5693 79.6035 54.5693 80.6133C54.5693 81.623 55.3857 82.2461 56.6104 82.2461C57.835 82.2461 58.6729 81.623 58.6729 80.6133C58.6729 79.6035 57.835 78.9805 56.6104 78.9805ZM61.917 84.9316C66.0635 84.9316 68.5557 86.1992 68.5771 88.4336C68.5557 90.625 66.0635 91.8926 61.917 91.8926C57.7705 91.8926 55.2568 90.625 55.2568 88.4336C55.2568 86.1992 57.7705 84.9316 61.917 84.9316ZM61.917 86.7578C59.1455 86.7363 57.6416 87.2949 57.6416 88.4336C57.6416 89.5078 59.1455 90.0664 61.917 90.0664C64.667 90.0664 66.1709 89.5078 66.1709 88.4336C66.1709 87.2949 64.667 86.7363 61.917 86.7578ZM92.3604 72.4922V84.0293H89.9756V79.2812H86.667V77.3262H89.9756V72.4922H92.3604ZM85.7861 84.5234C89.9111 84.5234 92.4248 85.877 92.4248 88.2188C92.4248 90.5605 89.9111 91.9141 85.7861 91.9141C81.6826 91.9141 79.1689 90.5605 79.1904 88.2188C79.1689 85.877 81.6826 84.5234 85.7861 84.5234ZM85.7861 86.3496C83.0791 86.3496 81.5537 86.9941 81.5537 88.2188C81.5537 89.4219 83.0791 90.0664 85.7861 90.0664C88.4932 90.0664 90.04 89.4219 90.04 88.2188C90.04 86.9941 88.4932 86.3496 85.7861 86.3496ZM83.2295 75.8223C83.2295 78.1855 84.7979 80.5703 87.8057 81.5801L86.6025 83.4707C84.4434 82.7402 82.9072 81.2578 82.0693 79.4316C81.21 81.5049 79.5879 83.1592 77.2783 83.9863L76.0322 82.0957C79.1475 81.0215 80.8018 78.4004 80.8018 75.8438V75.6934H76.7627V73.7598H87.2471V75.6934H83.2295V75.8223ZM112.856 87.6172V89.5723H95.1104V87.6172H102.759V83.8359H97.0654V73.7812H99.4502V76.9609H108.452V73.7812H110.837V83.8359H105.122V87.6172H112.856ZM99.4502 81.9023H108.452V78.873H99.4502V81.9023ZM131.849 81.3008V83.1055H114.103V81.3008H131.849ZM129.7 84.2656V88.6914H118.571V90.0449H130.28V91.6992H116.187V87.1445H127.337V85.9414H116.165V84.2656H129.7ZM129.657 72.9219V77.3047H118.722V78.5723H130.001V80.2051H116.358V75.7578H127.272V74.5762H116.294V72.9219H129.657ZM154.536 72.4922V82.9121H152.13V72.4922H154.536ZM144.052 83.8145V85.8125H152.151V83.8145H154.536V91.6777H141.688V83.8145H144.052ZM144.052 89.7441H152.151V87.6816H144.052V89.7441ZM143.944 73.3516C146.931 73.3301 149.165 75.1992 149.165 77.9062C149.165 80.5488 146.931 82.418 143.944 82.418C140.937 82.418 138.702 80.5488 138.702 77.9062C138.702 75.1992 140.937 73.3301 143.944 73.3516ZM143.944 75.3496C142.247 75.3496 141.022 76.3379 141.044 77.9062C141.022 79.4531 142.247 80.4414 143.944 80.4629C145.62 80.4414 146.823 79.4531 146.823 77.9062C146.823 76.3379 145.62 75.3496 143.944 75.3496ZM166.653 73.6523V79.4961H160.53V81.8809C163.646 81.8916 165.439 81.7949 167.491 81.4082L167.728 83.3418C165.407 83.7285 163.388 83.793 159.585 83.793H158.167V77.7129H164.269V75.543H158.124V73.6523H166.653ZM173.636 72.5137V84.459H171.251V81.2578H167.813V79.3457H171.251V77.1758H167.813V75.2637H171.251V72.5137H173.636ZM173.636 85.3828V91.9141H171.251V87.2949H160.358V85.3828H173.636ZM185.86 75.5859V77.498H176.343V75.5859H179.952V73.0508H182.315V75.5859H185.86ZM181.134 78.5293C183.604 78.5293 185.366 80.3984 185.366 83.041C185.366 85.7266 183.604 87.6172 181.134 87.6172C178.685 87.6172 176.88 85.7266 176.901 83.041C176.88 80.3984 178.685 78.5293 181.134 78.5293ZM181.134 80.5059C179.866 80.5059 178.985 81.5156 179.007 83.041C178.985 84.6094 179.866 85.5977 181.134 85.5762C182.38 85.5977 183.261 84.6094 183.261 83.041C183.261 81.5156 182.38 80.5059 181.134 80.5059ZM193.079 72.4922V91.9141H190.802V82.418H188.911V91.0332H186.677V72.9004H188.911V80.4844H190.802V72.4922H193.079ZM213.103 83.3203V85.2539H205.39V91.8926H203.026V85.2539H195.399V83.3203H213.103ZM211.47 73.5879V75.4785H205.647C205.787 77.6055 208.344 79.6465 212.179 80.1406L211.319 82.0098C208.011 81.5479 205.433 80.0332 204.251 77.9277C203.069 80.0332 200.491 81.5479 197.226 82.0098L196.323 80.1406C200.137 79.6465 202.693 77.6055 202.876 75.4785H197.032V73.5879H211.47ZM220.472 77.584C220.472 80.7207 221.567 83.9863 224.188 85.6406L222.878 87.4668C221.127 86.4141 219.988 84.5986 219.354 82.4609C218.646 84.8135 217.399 86.8008 215.573 87.918L214.091 86.1348C216.905 84.416 218.173 81 218.173 77.6914V74.2109H220.472V77.584ZM231.171 72.4922V91.9141H228.872V72.4922H231.171ZM227.132 72.8359V90.9688H224.876V81.1504H222.104V79.1738H224.876V72.8359H227.132ZM251.173 87.5957V89.5508H233.427V87.5957H237.53V82.6758C235.983 81.7949 235.049 80.4092 235.06 78.6797C235.038 75.5859 238.089 73.5449 242.257 73.5449C246.446 73.5449 249.497 75.5859 249.497 78.6797C249.497 80.377 248.595 81.7412 247.091 82.6328V87.5957H251.173ZM242.257 75.4355C239.356 75.4355 237.38 76.6602 237.401 78.6797C237.38 80.6777 239.356 81.9238 242.257 81.9238C245.157 81.9238 247.155 80.6777 247.155 78.6797C247.155 76.6602 245.157 75.4355 242.257 75.4355ZM239.894 87.5957H244.663V83.5352C243.922 83.707 243.116 83.793 242.257 83.793C241.419 83.793 240.624 83.707 239.894 83.5566V87.5957Z" fill="#E8E4DC"/>
</g>
<g id="Container">
<g id="DestinationField">
<g id="Paragraph">
<path id="&#236;&#151;&#172;&#237;&#150;&#137;&#236;&#167;&#128;" d="M35.7871 127.754C36.3431 127.754 36.8444 127.903 37.291 128.199C37.7422 128.495 38.1068 128.917 38.3848 129.463H41.2695V126.852H42.7734V139.225H41.2695V134.549H38.4941C38.2253 135.165 37.8561 135.643 37.3867 135.985C36.9173 136.322 36.3841 136.491 35.7871 136.491C35.1673 136.491 34.6182 136.313 34.1396 135.958C33.6611 135.602 33.2874 135.094 33.0186 134.433C32.7497 133.772 32.6152 133 32.6152 132.116C32.6152 131.241 32.7497 130.475 33.0186 129.819C33.2874 129.158 33.6611 128.65 34.1396 128.294C34.6227 127.934 35.1719 127.754 35.7871 127.754ZM35.7871 129.122C35.4453 129.122 35.1445 129.242 34.8848 129.484C34.625 129.721 34.4245 130.065 34.2832 130.516C34.1419 130.963 34.0736 131.496 34.0781 132.116C34.0736 132.74 34.1419 133.278 34.2832 133.729C34.4245 134.18 34.625 134.527 34.8848 134.768C35.1445 135.005 35.4453 135.124 35.7871 135.124C36.1289 135.124 36.4274 135.005 36.6826 134.768C36.9424 134.527 37.1429 134.18 37.2842 133.729C37.43 133.278 37.5052 132.74 37.5098 132.116C37.5052 131.496 37.43 130.96 37.2842 130.509C37.1429 130.058 36.9424 129.714 36.6826 129.477C36.4274 129.24 36.1289 129.122 35.7871 129.122ZM38.8086 130.708C38.8997 131.15 38.9453 131.619 38.9453 132.116C38.9453 132.526 38.9134 132.927 38.8496 133.319H41.2695V130.708H38.8086ZM55.0781 134.618H53.6289V131.254H52.4258V134.208H51.0039V127.098H52.4258V130.024H53.6289V126.852H55.0781V134.618ZM50.5938 129.381H44.4414V128.192H46.7793V126.961H48.2832V128.192H50.5938V129.381ZM47.5312 129.887C48.0508 129.887 48.5133 129.976 48.9189 130.154C49.3245 130.332 49.6413 130.582 49.8691 130.906C50.1016 131.225 50.2201 131.596 50.2246 132.02C50.2201 132.444 50.1016 132.818 49.8691 133.141C49.6413 133.46 49.3245 133.708 48.9189 133.886C48.5133 134.064 48.0508 134.153 47.5312 134.153C47.0208 134.153 46.5628 134.064 46.1572 133.886C45.7516 133.708 45.4349 133.458 45.207 133.134C44.9837 132.811 44.8743 132.439 44.8789 132.02C44.8743 131.601 44.9837 131.229 45.207 130.906C45.4349 130.582 45.7516 130.332 46.1572 130.154C46.5628 129.976 47.0208 129.887 47.5312 129.887ZM47.5312 130.981C47.1439 130.981 46.8294 131.074 46.5879 131.261C46.3509 131.448 46.2324 131.701 46.2324 132.02C46.2324 132.339 46.3509 132.592 46.5879 132.779C46.8249 132.966 47.1393 133.059 47.5312 133.059C47.9232 133.059 48.2399 132.966 48.4814 132.779C48.723 132.592 48.8438 132.339 48.8438 132.02C48.8438 131.701 48.723 131.448 48.4814 131.261C48.2399 131.074 47.9232 130.981 47.5312 130.981ZM50.9082 134.768C51.7878 134.768 52.5443 134.855 53.1777 135.028C53.8112 135.201 54.2965 135.456 54.6338 135.793C54.971 136.126 55.1419 136.527 55.1465 136.997C55.1419 137.457 54.9688 137.851 54.627 138.179C54.2897 138.512 53.8044 138.765 53.1709 138.938C52.5374 139.111 51.7832 139.198 50.9082 139.198C50.0332 139.198 49.2767 139.111 48.6387 138.938C48.0052 138.765 47.5176 138.512 47.1758 138.179C46.8385 137.851 46.6699 137.457 46.6699 136.997C46.6699 136.527 46.8385 136.126 47.1758 135.793C47.5176 135.456 48.0052 135.201 48.6387 135.028C49.2721 134.855 50.0286 134.768 50.9082 134.768ZM50.9082 135.93C50.0195 135.921 49.3428 136.008 48.8779 136.19C48.4176 136.368 48.1875 136.637 48.1875 136.997C48.1875 137.338 48.4199 137.598 48.8848 137.776C49.3496 137.949 50.0241 138.036 50.9082 138.036C51.7878 138.036 52.4577 137.949 52.918 137.776C53.3828 137.598 53.6152 137.338 53.6152 136.997C53.6152 136.637 53.3828 136.368 52.918 136.19C52.4577 136.008 51.7878 135.921 50.9082 135.93ZM61.2715 130.366C61.2715 131.045 61.3991 131.717 61.6543 132.382C61.9141 133.043 62.2832 133.638 62.7617 134.167C63.2448 134.691 63.8099 135.087 64.457 135.356L63.623 136.559C62.9076 136.254 62.2855 135.796 61.7568 135.185C61.2282 134.574 60.818 133.866 60.5264 133.059C60.2347 133.925 59.8223 134.693 59.2891 135.363C58.7604 136.028 58.1406 136.527 57.4297 136.86L56.5547 135.67C57.1882 135.379 57.7441 134.95 58.2227 134.385C58.7057 133.82 59.0771 133.187 59.3369 132.485C59.5967 131.778 59.7266 131.072 59.7266 130.366V129.327H57.0059V128.069H63.9785V129.327H61.2715V130.366ZM66.8906 139.211H65.3594V126.852H66.8906V139.211Z" fill="#B8B5AE"/>
</g>
<g id="Container_2" filter="url(#filter0_dd_156_5326)">
<path d="M32 169.991C32 161.155 39.1634 153.991 48 153.991H361.342C370.178 153.991 377.342 161.155 377.342 169.991V192.965C377.342 201.802 370.178 208.965 361.342 208.965H48C39.1635 208.965 32 201.802 32 192.965V169.991Z" fill="#262B28"/>
<path d="M48 154.491H361.342C369.902 154.491 376.842 161.431 376.842 169.991V192.965C376.842 201.525 369.902 208.465 361.342 208.465H48C39.4396 208.465 32.5 201.525 32.5 192.965V169.991C32.5 161.431 39.4396 154.491 48 154.491Z" stroke="#373F3B"/>
<g id="Text Input">
<path id="&#236;&#151;&#172;&#237;&#150;&#137;&#236;&#167;&#128;&#235;&#165;&#188; &#236;&#158;&#133;&#235;&#160;&#165;&#237;&#149;&#152;&#236;&#132;&#184;&#236;&#154;&#148;" d="M55.5488 175.506C56.1445 175.506 56.6816 175.665 57.1602 175.982C57.6436 176.3 58.0342 176.751 58.332 177.337H61.4229V174.54H63.0342V187.796H61.4229V182.787H58.4492C58.1611 183.446 57.7656 183.958 57.2627 184.325C56.7598 184.686 56.1885 184.867 55.5488 184.867C54.8848 184.867 54.2964 184.676 53.7837 184.295C53.271 183.915 52.8706 183.37 52.5825 182.662C52.2944 181.954 52.1504 181.126 52.1504 180.179C52.1504 179.242 52.2944 178.421 52.5825 177.718C52.8706 177.01 53.271 176.466 53.7837 176.085C54.3013 175.699 54.8896 175.506 55.5488 175.506ZM55.5488 176.971C55.1826 176.971 54.8604 177.101 54.582 177.359C54.3037 177.613 54.0889 177.982 53.9375 178.465C53.7861 178.944 53.7129 179.515 53.7178 180.179C53.7129 180.848 53.7861 181.424 53.9375 181.908C54.0889 182.391 54.3037 182.762 54.582 183.021C54.8604 183.275 55.1826 183.402 55.5488 183.402C55.915 183.402 56.2349 183.275 56.5083 183.021C56.7866 182.762 57.0015 182.391 57.1528 181.908C57.3091 181.424 57.3896 180.848 57.3945 180.179C57.3896 179.515 57.3091 178.941 57.1528 178.458C57.0015 177.975 56.7866 177.606 56.5083 177.352C56.2349 177.098 55.915 176.971 55.5488 176.971ZM58.7861 178.67C58.8838 179.144 58.9326 179.647 58.9326 180.179C58.9326 180.619 58.8984 181.048 58.8301 181.468H61.4229V178.67H58.7861ZM76.2178 182.86H74.665V179.256H73.376V182.42H71.8525V174.803H73.376V177.938H74.665V174.54H76.2178V182.86ZM71.4131 177.25H64.8213V175.975H67.3262V174.657H68.9375V175.975H71.4131V177.25ZM68.1318 177.792C68.6885 177.792 69.1841 177.887 69.6187 178.077C70.0532 178.268 70.3926 178.536 70.6367 178.883C70.8857 179.225 71.0127 179.623 71.0176 180.077C71.0127 180.531 70.8857 180.931 70.6367 181.278C70.3926 181.62 70.0532 181.886 69.6187 182.076C69.1841 182.267 68.6885 182.362 68.1318 182.362C67.585 182.362 67.0942 182.267 66.6597 182.076C66.2251 181.886 65.8857 181.617 65.6416 181.271C65.4023 180.924 65.2852 180.526 65.29 180.077C65.2852 179.627 65.4023 179.229 65.6416 178.883C65.8857 178.536 66.2251 178.268 66.6597 178.077C67.0942 177.887 67.585 177.792 68.1318 177.792ZM68.1318 178.963C67.7168 178.963 67.3799 179.063 67.1211 179.264C66.8672 179.464 66.7402 179.735 66.7402 180.077C66.7402 180.418 66.8672 180.689 67.1211 180.89C67.375 181.09 67.7119 181.19 68.1318 181.19C68.5518 181.19 68.8911 181.09 69.1499 180.89C69.4087 180.689 69.5381 180.418 69.5381 180.077C69.5381 179.735 69.4087 179.464 69.1499 179.264C68.8911 179.063 68.5518 178.963 68.1318 178.963ZM71.75 183.021C72.6924 183.021 73.5029 183.114 74.1816 183.299C74.8604 183.485 75.3804 183.758 75.7417 184.12C76.103 184.476 76.2861 184.906 76.291 185.409C76.2861 185.902 76.1006 186.324 75.7344 186.676C75.373 187.032 74.853 187.303 74.1743 187.489C73.4956 187.674 72.6875 187.767 71.75 187.767C70.8125 187.767 70.002 187.674 69.3184 187.489C68.6396 187.303 68.1172 187.032 67.751 186.676C67.3896 186.324 67.209 185.902 67.209 185.409C67.209 184.906 67.3896 184.476 67.751 184.12C68.1172 183.758 68.6396 183.485 69.3184 183.299C69.9971 183.114 70.8076 183.021 71.75 183.021ZM71.75 184.266C70.7979 184.256 70.0728 184.349 69.5747 184.544C69.0815 184.735 68.835 185.023 68.835 185.409C68.835 185.775 69.084 186.053 69.582 186.244C70.0801 186.429 70.8027 186.522 71.75 186.522C72.6924 186.522 73.4102 186.429 73.9033 186.244C74.4014 186.053 74.6504 185.775 74.6504 185.409C74.6504 185.023 74.4014 184.735 73.9033 184.544C73.4102 184.349 72.6924 184.256 71.75 184.266ZM82.8535 178.304C82.8535 179.032 82.9902 179.752 83.2637 180.465C83.542 181.173 83.9375 181.81 84.4502 182.376C84.9678 182.938 85.5732 183.363 86.2666 183.651L85.373 184.94C84.6064 184.613 83.9399 184.122 83.3735 183.468C82.8071 182.813 82.3677 182.054 82.0552 181.19C81.7427 182.118 81.3008 182.94 80.7295 183.658C80.1631 184.371 79.499 184.906 78.7373 185.262L77.7998 183.988C78.4785 183.675 79.0742 183.216 79.5869 182.611C80.1045 182.005 80.5024 181.327 80.7808 180.575C81.0591 179.818 81.1982 179.061 81.1982 178.304V177.191H78.2832V175.843H85.7539V177.191H82.8535V178.304ZM88.874 187.782H87.2334V174.54H88.874V187.782ZM102.907 181.776H90.8076V180.545H102.907V181.776ZM101.442 185.584H93.8545V186.507H101.838V187.635H92.2285V184.53H99.8311V183.709H92.2139V182.567H101.442V185.584ZM101.413 177.821H93.957V178.685H101.647V179.798H92.3457V176.766H99.7871V175.96H92.3018V174.833H101.413V177.821ZM118.376 181.644H116.735V174.54H118.376V181.644ZM111.228 183.622H116.75V182.259H118.376V187.621H109.616V182.259H111.228V183.622ZM116.75 186.302V184.896H111.228V186.302H116.75ZM111.154 175.125C111.828 175.121 112.436 175.25 112.978 175.514C113.52 175.772 113.945 176.139 114.252 176.612C114.56 177.086 114.714 177.625 114.714 178.231C114.714 178.822 114.558 179.352 114.245 179.82C113.938 180.289 113.513 180.655 112.971 180.919C112.434 181.178 111.828 181.307 111.154 181.307C110.476 181.307 109.865 181.178 109.323 180.919C108.781 180.655 108.354 180.289 108.042 179.82C107.734 179.352 107.58 178.822 107.58 178.231C107.58 177.625 107.734 177.086 108.042 176.612C108.354 176.139 108.781 175.772 109.323 175.514C109.865 175.25 110.476 175.121 111.154 175.125ZM111.154 176.488C110.769 176.488 110.424 176.559 110.122 176.7C109.824 176.842 109.589 177.044 109.418 177.308C109.252 177.572 109.172 177.879 109.177 178.231C109.172 178.578 109.252 178.883 109.418 179.146C109.589 179.405 109.824 179.608 110.122 179.754C110.424 179.896 110.769 179.969 111.154 179.974C111.535 179.969 111.875 179.896 112.172 179.754C112.47 179.608 112.702 179.405 112.868 179.146C113.034 178.883 113.117 178.578 113.117 178.231C113.117 177.879 113.034 177.572 112.868 177.308C112.702 177.044 112.47 176.842 112.172 176.7C111.875 176.559 111.535 176.488 111.154 176.488ZM126.638 179.315H122.463V180.941H122.756C123.752 180.941 124.58 180.919 125.239 180.875C125.898 180.826 126.555 180.741 127.209 180.619L127.37 181.937C126.618 182.064 125.849 182.147 125.063 182.186C124.282 182.225 123.2 182.245 121.818 182.245H120.852V178.099H125.012V176.62H120.822V175.331H126.638V179.315ZM131.398 182.699H129.772V180.516H127.429V179.212H129.772V177.733H127.429V176.429H129.772V174.554H131.398V182.699ZM131.398 187.782H129.772V184.632H122.346V183.329H131.398V187.782ZM143.645 179.813H145.681V181.161H143.645V187.782H142.033V174.54H143.645V179.813ZM141.008 177.879H133.2V176.576H136.335V174.73H137.961V176.576H141.008V177.879ZM137.155 178.744C137.785 178.744 138.352 178.878 138.854 179.146C139.362 179.41 139.76 179.779 140.048 180.252C140.336 180.726 140.48 181.263 140.48 181.864C140.48 182.464 140.336 183.001 140.048 183.475C139.76 183.944 139.362 184.31 138.854 184.574C138.352 184.837 137.785 184.969 137.155 184.969C136.516 184.969 135.942 184.837 135.434 184.574C134.926 184.31 134.528 183.944 134.24 183.475C133.952 183.001 133.811 182.464 133.815 181.864C133.811 181.263 133.952 180.726 134.24 180.252C134.528 179.779 134.926 179.41 135.434 179.146C135.942 178.878 136.516 178.744 137.155 178.744ZM137.155 180.077C136.809 180.077 136.499 180.15 136.225 180.296C135.957 180.443 135.747 180.653 135.595 180.926C135.444 181.195 135.368 181.507 135.368 181.864C135.368 182.22 135.444 182.533 135.595 182.801C135.747 183.065 135.957 183.27 136.225 183.417C136.499 183.558 136.809 183.626 137.155 183.622C137.492 183.626 137.792 183.558 138.056 183.417C138.325 183.27 138.535 183.065 138.686 182.801C138.842 182.533 138.923 182.22 138.928 181.864C138.923 181.507 138.842 181.195 138.686 180.926C138.535 180.658 138.325 180.45 138.056 180.304C137.792 180.152 137.492 180.077 137.155 180.077ZM150.368 178.011C150.368 178.753 150.456 179.474 150.632 180.172C150.812 180.87 151.093 181.51 151.474 182.091C151.855 182.672 152.331 183.143 152.902 183.504L152.009 184.75C151.433 184.403 150.944 183.939 150.544 183.358C150.144 182.772 149.829 182.101 149.599 181.344C149.35 182.169 149.011 182.901 148.581 183.541C148.151 184.181 147.634 184.686 147.028 185.057L146.018 183.841C146.638 183.465 147.155 182.972 147.57 182.362C147.985 181.751 148.293 181.08 148.493 180.348C148.698 179.615 148.801 178.861 148.801 178.084V175.711H150.368V178.011ZM157.663 187.782H156.096V174.54H157.663V187.782ZM154.909 187.137H153.371V180.443H151.481V179.095H153.371V174.774H154.909V187.137ZM171.301 186.17H159.201V184.837H161.999V181.49C161.462 181.178 161.044 180.79 160.747 180.326C160.454 179.862 160.31 179.339 160.314 178.758C160.31 178.07 160.517 177.459 160.937 176.927C161.357 176.395 161.94 175.985 162.688 175.697C163.435 175.404 164.279 175.257 165.222 175.257C166.169 175.257 167.016 175.404 167.763 175.697C168.515 175.985 169.101 176.395 169.521 176.927C169.946 177.455 170.158 178.065 170.158 178.758C170.158 179.325 170.014 179.84 169.726 180.304C169.443 180.763 169.04 181.146 168.518 181.454V184.837H171.301V186.17ZM165.222 176.546C164.562 176.546 163.981 176.637 163.479 176.817C162.98 176.993 162.592 177.247 162.314 177.579C162.041 177.911 161.906 178.304 161.911 178.758C161.906 179.208 162.041 179.598 162.314 179.93C162.592 180.262 162.983 180.519 163.486 180.699C163.989 180.88 164.567 180.97 165.222 180.97C165.876 180.97 166.455 180.88 166.958 180.699C167.465 180.519 167.858 180.262 168.137 179.93C168.42 179.598 168.562 179.208 168.562 178.758C168.562 178.309 168.42 177.918 168.137 177.586C167.858 177.25 167.468 176.993 166.965 176.817C166.462 176.637 165.881 176.546 165.222 176.546ZM166.862 184.837V182.076C166.345 182.188 165.798 182.245 165.222 182.245C164.67 182.245 164.133 182.191 163.61 182.083V184.837H166.862Z" fill="#7A7873"/>
</g>
<g id="Icon">
<path id="Vector" d="M347.02 187.31C350.701 187.31 353.685 184.326 353.685 180.645C353.685 176.964 350.701 173.98 347.02 173.98C343.339 173.98 340.355 176.964 340.355 180.645C340.355 184.326 343.339 187.31 347.02 187.31Z" stroke="#7A7873" stroke-width="1.66623" stroke-linecap="round" stroke-linejoin="round"/>
<path id="Vector_2" d="M355.351 188.976L351.769 185.394" stroke="#7A7873" stroke-width="1.66623" stroke-linecap="round" stroke-linejoin="round"/>
</g>
</g>
</g>
<g id="DateField">
<g id="Paragraph_2">
<path id="&#235;&#130;&#160;&#236;&#167;&#156;" d="M42.1582 240.226H43.8809V241.484H42.1582V243.972H40.6406V237.82H42.1582V240.226ZM34.4746 242.27C36.2428 242.247 37.9245 242.081 39.5195 241.771L39.6973 243.015C38.7767 243.202 37.8698 243.336 36.9766 243.418C36.0833 243.496 35.1764 243.535 34.2559 243.535H33.9688H32.9434V238.367H34.4746V242.27ZM42.1582 247.787H35.6094V248.798H42.541V250.029H34.0918V246.625H40.627V245.708H34.0781V244.505H42.1582V247.787ZM54.5586 242.564H56.0625V243.835H54.5586V250.179H53.041V237.82H54.5586V242.564ZM47.5312 241.128C47.5312 242.003 47.6042 242.828 47.75 243.603C47.8958 244.378 48.1693 245.061 48.5703 245.654C48.9622 245.066 49.2311 244.385 49.377 243.61C49.5228 242.831 49.5957 242.003 49.5957 241.128V240.185H48.8027V238.955H52.248V240.185H51.0449V241.128C51.0449 242.309 51.1771 243.364 51.4414 244.293C51.7057 245.223 52.1888 245.945 52.8906 246.46L51.9199 247.554C51.1589 246.971 50.6165 246.043 50.293 244.772C49.9557 246.098 49.377 247.062 48.5566 247.664C47.7546 247.067 47.1826 246.103 46.8408 244.772C46.5127 246.043 45.9727 246.971 45.2207 247.554L44.25 246.46C44.9518 245.941 45.4349 245.214 45.6992 244.28C45.9635 243.341 46.0957 242.291 46.0957 241.128V240.185H44.7148V238.955H48.3242V240.185H47.5312V241.128Z" fill="#B8B5AE"/>
</g>
<g id="Button" filter="url(#filter1_dd_156_5326)">
<path d="M32 280.959C32 272.122 39.1634 264.959 48 264.959H361.342C370.178 264.959 377.342 272.122 377.342 280.959V303.933C377.342 312.769 370.178 319.933 361.342 319.933H48C39.1635 319.933 32 312.769 32 303.933V280.959Z" fill="#262B28"/>
<path d="M48 265.459H361.342C369.902 265.459 376.842 272.399 376.842 280.959V303.933C376.842 312.493 369.902 319.433 361.342 319.433H48C39.4396 319.433 32.5 312.493 32.5 303.933V280.959C32.5 272.399 39.4396 265.459 48 265.459Z" stroke="#373F3B"/>
<g id="Paragraph_3">
<path id="4 &#236;&#155;&#148; 10 &#236;&#157;&#188; ~ 4 &#236;&#155;&#148; 12 &#236;&#157;&#188;" d="M49.7812 292.975L54.875 285.131H56.6094V292.897H58.1875V294.131H56.6094V296.444H55.2656V294.131H49.7812V292.975ZM55.2656 292.897V286.913H55.125L51.2969 292.803V292.897H55.2656ZM74.4156 292.022H73.1812V291.256H70.3687V290.444H73.1812V283.834H74.4156V292.022ZM63.9625 289.069C67.2073 289.069 69.9 288.954 72.0406 288.725L72.1187 289.522C70.8896 289.699 69.5042 289.827 67.9625 289.905V292.069H66.7594V289.952C65.6292 289.978 64.6552 289.991 63.8375 289.991H63.0562L62.9156 289.069H63.9625ZM74.4156 295.397H66.3062V296.647H74.8687V297.553H65.1031V294.538H73.1969V293.413H65.0406V292.522H74.4156V295.397ZM67.4469 284.1C68.1292 284.1 68.7307 284.186 69.2516 284.358C69.7724 284.53 70.176 284.775 70.4625 285.092C70.749 285.405 70.8948 285.772 70.9 286.194C70.8948 286.621 70.749 286.991 70.4625 287.303C70.176 287.616 69.7724 287.855 69.2516 288.022C68.7359 288.189 68.1344 288.272 67.4469 288.272C66.749 288.272 66.1396 288.189 65.6187 288.022C65.1031 287.855 64.7021 287.616 64.4156 287.303C64.1344 286.991 63.9937 286.621 63.9937 286.194C63.9937 285.772 64.1344 285.405 64.4156 285.092C64.7021 284.775 65.1057 284.53 65.6266 284.358C66.1474 284.186 66.7542 284.1 67.4469 284.1ZM67.4469 284.959C66.9833 284.959 66.5771 285.012 66.2281 285.116C65.8792 285.215 65.6109 285.358 65.4234 285.545C65.2359 285.728 65.1448 285.944 65.15 286.194C65.1448 286.439 65.2359 286.655 65.4234 286.842C65.6109 287.025 65.8792 287.168 66.2281 287.272C66.5771 287.376 66.9833 287.428 67.4469 287.428C67.9052 287.428 68.3062 287.376 68.65 287.272C68.999 287.168 69.2672 287.025 69.4547 286.842C69.6474 286.655 69.7437 286.439 69.7437 286.194C69.7437 285.944 69.6474 285.728 69.4547 285.545C69.2672 285.358 68.999 285.215 68.65 285.116C68.3062 285.012 67.9052 284.959 67.4469 284.959ZM84.7062 296.444H83.2844V286.6H83.2219L80.4719 288.428V287.006L83.2844 285.131H84.7062V296.444ZM91.125 296.6C90.2917 296.6 89.5781 296.374 88.9844 295.92C88.3958 295.467 87.9453 294.806 87.6328 293.936C87.3255 293.066 87.1719 292.017 87.1719 290.788C87.1719 289.574 87.3281 288.532 87.6406 287.663C87.9531 286.788 88.4062 286.121 89 285.663C89.5938 285.204 90.3021 284.975 91.125 284.975C91.9479 284.975 92.6562 285.204 93.25 285.663C93.8438 286.121 94.2969 286.788 94.6094 287.663C94.9219 288.532 95.0781 289.574 95.0781 290.788C95.0781 292.017 94.9219 293.066 94.6094 293.936C94.3021 294.806 93.8516 295.467 93.2578 295.92C92.6641 296.374 91.9531 296.6 91.125 296.6ZM91.125 295.35C91.6667 295.35 92.1302 295.173 92.5156 294.819C92.901 294.465 93.1953 293.946 93.3984 293.264C93.6016 292.582 93.7031 291.756 93.7031 290.788C93.7031 289.819 93.6016 288.991 93.3984 288.303C93.1953 287.616 92.901 287.092 92.5156 286.733C92.1302 286.374 91.6667 286.194 91.125 286.194C90.5833 286.194 90.1172 286.374 89.7266 286.733C89.3411 287.092 89.0443 287.616 88.8359 288.303C88.6328 288.991 88.5312 289.819 88.5312 290.788C88.5312 291.756 88.6328 292.582 88.8359 293.264C89.0391 293.946 89.3333 294.465 89.7188 294.819C90.1094 295.173 90.5781 295.35 91.125 295.35ZM103.806 284.334C104.494 284.34 105.108 284.472 105.65 284.733C106.197 284.993 106.624 285.358 106.931 285.827C107.244 286.29 107.4 286.819 107.4 287.413C107.4 288.006 107.244 288.538 106.931 289.006C106.624 289.47 106.197 289.832 105.65 290.092C105.108 290.347 104.494 290.475 103.806 290.475C103.108 290.475 102.486 290.347 101.939 290.092C101.392 289.832 100.965 289.47 100.658 289.006C100.351 288.538 100.197 288.006 100.197 287.413C100.197 286.819 100.351 286.29 100.658 285.827C100.965 285.358 101.392 284.993 101.939 284.733C102.486 284.472 103.108 284.34 103.806 284.334ZM103.806 285.366C103.348 285.366 102.934 285.454 102.564 285.631C102.199 285.803 101.913 286.045 101.705 286.358C101.496 286.665 101.395 287.017 101.4 287.413C101.395 287.814 101.496 288.17 101.705 288.483C101.913 288.795 102.199 289.04 102.564 289.217C102.934 289.389 103.348 289.475 103.806 289.475C104.259 289.475 104.668 289.389 105.033 289.217C105.403 289.04 105.692 288.795 105.9 288.483C106.108 288.17 106.213 287.814 106.213 287.413C106.213 287.017 106.108 286.665 105.9 286.358C105.692 286.045 105.403 285.803 105.033 285.631C104.668 285.454 104.259 285.366 103.806 285.366ZM111.338 290.959H110.119V283.819H111.338V290.959ZM111.338 294.975H103.541V296.538H111.838V297.522H102.338V294.053H110.119V292.616H102.306V291.631H111.338V294.975ZM118.066 290.616C118.316 290.324 118.594 290.103 118.902 289.952C119.209 289.801 119.534 289.725 119.878 289.725C120.139 289.725 120.394 289.764 120.644 289.842C120.894 289.915 121.217 290.027 121.613 290.178C121.972 290.329 122.277 290.444 122.527 290.522C122.782 290.595 123.034 290.631 123.284 290.631C123.633 290.631 123.959 290.548 124.261 290.381C124.563 290.215 124.831 289.97 125.066 289.647V290.944C124.55 291.538 123.946 291.834 123.253 291.834C122.993 291.834 122.738 291.798 122.488 291.725C122.238 291.647 121.915 291.532 121.519 291.381C121.159 291.23 120.852 291.118 120.597 291.045C120.347 290.967 120.092 290.928 119.831 290.928C119.488 290.928 119.165 291.012 118.863 291.178C118.566 291.345 118.3 291.59 118.066 291.913V290.616ZM130.778 292.975L135.872 285.131H137.606V292.897H139.184V294.131H137.606V296.444H136.262V294.131H130.778V292.975ZM136.262 292.897V286.913H136.122L132.294 292.803V292.897H136.262ZM155.412 292.022H154.178V291.256H151.366V290.444H154.178V283.834H155.412V292.022ZM144.959 289.069C148.204 289.069 150.897 288.954 153.037 288.725L153.116 289.522C151.886 289.699 150.501 289.827 148.959 289.905V292.069H147.756V289.952C146.626 289.978 145.652 289.991 144.834 289.991H144.053L143.912 289.069H144.959ZM155.412 295.397H147.303V296.647H155.866V297.553H146.1V294.538H154.194V293.413H146.037V292.522H155.412V295.397ZM148.444 284.1C149.126 284.1 149.728 284.186 150.248 284.358C150.769 284.53 151.173 284.775 151.459 285.092C151.746 285.405 151.892 285.772 151.897 286.194C151.892 286.621 151.746 286.991 151.459 287.303C151.173 287.616 150.769 287.855 150.248 288.022C149.733 288.189 149.131 288.272 148.444 288.272C147.746 288.272 147.136 288.189 146.616 288.022C146.1 287.855 145.699 287.616 145.412 287.303C145.131 286.991 144.991 286.621 144.991 286.194C144.991 285.772 145.131 285.405 145.412 285.092C145.699 284.775 146.103 284.53 146.623 284.358C147.144 284.186 147.751 284.1 148.444 284.1ZM148.444 284.959C147.98 284.959 147.574 285.012 147.225 285.116C146.876 285.215 146.608 285.358 146.42 285.545C146.233 285.728 146.142 285.944 146.147 286.194C146.142 286.439 146.233 286.655 146.42 286.842C146.608 287.025 146.876 287.168 147.225 287.272C147.574 287.376 147.98 287.428 148.444 287.428C148.902 287.428 149.303 287.376 149.647 287.272C149.996 287.168 150.264 287.025 150.452 286.842C150.644 286.655 150.741 286.439 150.741 286.194C150.741 285.944 150.644 285.728 150.452 285.545C150.264 285.358 149.996 285.215 149.647 285.116C149.303 285.012 148.902 284.959 148.444 284.959ZM165.703 296.444H164.281V286.6H164.219L161.469 288.428V287.006L164.281 285.131H165.703V296.444ZM168.403 295.413L172.262 291.35C172.773 290.814 173.161 290.381 173.427 290.053C173.697 289.72 173.901 289.4 174.036 289.092C174.177 288.78 174.247 288.454 174.247 288.116C174.247 287.741 174.148 287.407 173.95 287.116C173.752 286.824 173.481 286.597 173.137 286.436C172.799 286.275 172.419 286.194 171.997 286.194C171.554 286.194 171.166 286.282 170.833 286.459C170.499 286.637 170.242 286.887 170.059 287.209C169.882 287.532 169.794 287.902 169.794 288.319H168.466C168.46 287.663 168.611 287.082 168.919 286.577C169.231 286.071 169.661 285.678 170.208 285.397C170.755 285.116 171.367 284.975 172.044 284.975C172.716 284.975 173.317 285.113 173.848 285.389C174.385 285.665 174.804 286.043 175.106 286.522C175.408 287.001 175.559 287.532 175.559 288.116C175.559 288.548 175.481 288.962 175.325 289.358C175.169 289.749 174.906 290.183 174.536 290.663C174.171 291.137 173.648 291.725 172.966 292.428L170.372 295.1V295.194H175.762V296.444H168.419L168.403 295.413ZM184.663 284.334C185.35 284.34 185.965 284.472 186.506 284.733C187.053 284.993 187.48 285.358 187.788 285.827C188.1 286.29 188.256 286.819 188.256 287.413C188.256 288.006 188.1 288.538 187.788 289.006C187.48 289.47 187.053 289.832 186.506 290.092C185.965 290.347 185.35 290.475 184.663 290.475C183.965 290.475 183.342 290.347 182.795 290.092C182.248 289.832 181.821 289.47 181.514 289.006C181.207 288.538 181.053 288.006 181.053 287.413C181.053 286.819 181.207 286.29 181.514 285.827C181.821 285.358 182.248 284.993 182.795 284.733C183.342 284.472 183.965 284.34 184.663 284.334ZM184.663 285.366C184.204 285.366 183.79 285.454 183.42 285.631C183.056 285.803 182.769 286.045 182.561 286.358C182.353 286.665 182.251 287.017 182.256 287.413C182.251 287.814 182.353 288.17 182.561 288.483C182.769 288.795 183.056 289.04 183.42 289.217C183.79 289.389 184.204 289.475 184.663 289.475C185.116 289.475 185.524 289.389 185.889 289.217C186.259 289.04 186.548 288.795 186.756 288.483C186.965 288.17 187.069 287.814 187.069 287.413C187.069 287.017 186.965 286.665 186.756 286.358C186.548 286.045 186.259 285.803 185.889 285.631C185.524 285.454 185.116 285.366 184.663 285.366ZM192.194 290.959H190.975V283.819H192.194V290.959ZM192.194 294.975H184.397V296.538H192.694V297.522H183.194V294.053H190.975V292.616H183.163V291.631H192.194V294.975Z" fill="#E8E4DC"/>
</g>
<g id="Icon_2">
<path id="Vector_3" d="M347.012 284.115V287.447" stroke="#7A7873" stroke-width="1.66623" stroke-linecap="round" stroke-linejoin="round"/>
<path id="Vector_4" d="M353.677 284.115V287.447" stroke="#7A7873" stroke-width="1.66623" stroke-linecap="round" stroke-linejoin="round"/>
<path id="Vector_5" d="M356.176 285.781H344.513C343.593 285.781 342.847 286.527 342.847 287.447V299.111C342.847 300.031 343.593 300.777 344.513 300.777H356.176C357.097 300.777 357.843 300.031 357.843 299.111V287.447C357.843 286.527 357.097 285.781 356.176 285.781Z" stroke="#7A7873" stroke-width="1.66623" stroke-linecap="round" stroke-linejoin="round"/>
<path id="Vector_6" d="M342.847 290.78H357.843" stroke="#7A7873" stroke-width="1.66623" stroke-linecap="round" stroke-linejoin="round"/>
</g>
</g>
</g>
<g id="GuestsField">
<g id="Paragraph_4">
<path id="&#236;&#157;&#184;&#236;&#155;&#144;" d="M42.7051 357.729H41.1738V348.801H42.7051V357.729ZM43.0469 360.9H34.5293V356.826H36.0605V359.67H43.0469V360.9ZM35.9648 349.607C36.5846 349.607 37.1475 349.742 37.6533 350.011C38.1592 350.275 38.5579 350.642 38.8496 351.111C39.1413 351.581 39.2871 352.109 39.2871 352.697C39.2871 353.294 39.1413 353.83 38.8496 354.304C38.5579 354.773 38.1592 355.14 37.6533 355.404C37.1475 355.669 36.5846 355.801 35.9648 355.801C35.3405 355.801 34.7731 355.669 34.2627 355.404C33.7568 355.14 33.3581 354.773 33.0664 354.304C32.7747 353.83 32.6289 353.294 32.6289 352.697C32.6289 352.109 32.7747 351.581 33.0664 351.111C33.3581 350.642 33.7568 350.275 34.2627 350.011C34.7731 349.742 35.3405 349.607 35.9648 349.607ZM35.9648 350.934C35.6139 350.934 35.2972 351.007 35.0146 351.152C34.7321 351.298 34.5111 351.506 34.3516 351.774C34.1921 352.043 34.1146 352.351 34.1191 352.697C34.1146 353.053 34.1921 353.365 34.3516 353.634C34.5111 353.903 34.7321 354.11 35.0146 354.256C35.2972 354.402 35.6139 354.475 35.9648 354.475C36.3066 354.475 36.6165 354.402 36.8945 354.256C37.1725 354.11 37.3913 353.903 37.5508 353.634C37.7148 353.365 37.7969 353.053 37.7969 352.697C37.7969 352.351 37.7148 352.043 37.5508 351.774C37.3913 351.506 37.1725 351.298 36.8945 351.152C36.6165 351.007 36.3066 350.934 35.9648 350.934ZM54.873 358.152H53.3418V357.072H50.9219V356.006H53.3418V348.801H54.873V358.152ZM55.1602 360.9H46.0957V357.25H47.6133V359.67H55.1602V360.9ZM44.4551 354.352C46.0592 354.342 47.4993 354.315 48.7754 354.27C50.0514 354.224 51.2682 354.128 52.4258 353.982L52.5078 355.076C51.5189 355.24 50.4798 355.359 49.3906 355.432V357.811H47.873V355.514C46.9935 355.55 45.918 355.568 44.6465 355.568L44.4551 354.352ZM48.4883 349.252C49.0853 349.252 49.6139 349.345 50.0742 349.532C50.5391 349.715 50.9014 349.972 51.1611 350.305C51.4255 350.633 51.5599 351.011 51.5645 351.439C51.5599 351.877 51.4277 352.26 51.168 352.588C50.9082 352.916 50.5459 353.169 50.0811 353.347C49.6162 353.524 49.0853 353.613 48.4883 353.613C47.8822 353.613 47.3444 353.524 46.875 353.347C46.4102 353.169 46.0479 352.916 45.7881 352.588C45.5283 352.26 45.3984 351.877 45.3984 351.439C45.3984 351.011 45.5283 350.633 45.7881 350.305C46.0479 349.972 46.4102 349.715 46.875 349.532C47.3444 349.345 47.8822 349.252 48.4883 349.252ZM48.4883 350.373C47.9915 350.373 47.5905 350.469 47.2852 350.66C46.9844 350.847 46.834 351.107 46.834 351.439C46.834 351.772 46.9844 352.034 47.2852 352.226C47.5905 352.412 47.9915 352.506 48.4883 352.506C48.9668 352.506 49.3564 352.41 49.6572 352.219C49.958 352.027 50.1107 351.768 50.1152 351.439C50.1107 351.111 49.958 350.852 49.6572 350.66C49.3564 350.469 48.9668 350.373 48.4883 350.373Z" fill="#B8B5AE"/>
</g>
<g id="Button_2" filter="url(#filter2_dd_156_5326)">
<path d="M32 391.927C32 383.09 39.1634 375.927 48 375.927H361.342C370.178 375.927 377.342 383.09 377.342 391.927V414.901C377.342 423.737 370.178 430.901 361.342 430.901H48C39.1635 430.901 32 423.737 32 414.901V391.927Z" fill="#262B28"/>
<path d="M48 376.427H361.342C369.902 376.427 376.842 383.366 376.842 391.927V414.9C376.842 423.461 369.902 430.4 361.342 430.4H48C39.4396 430.4 32.5 423.461 32.5 414.9V391.927C32.5 383.366 39.4396 376.427 48 376.427Z" stroke="#373F3B"/>
<g id="Paragraph_5">
<path id="&#236;&#132;&#177;&#236;&#157;&#184; 2 &#235;&#170;&#133;, &#236;&#149;&#132;&#235;&#143;&#153; 1 &#235;&#170;&#133;" d="M54.3438 396.974C54.3385 397.625 54.4792 398.248 54.7656 398.841C55.0521 399.43 55.4557 399.945 55.9766 400.388C56.5026 400.831 57.1042 401.167 57.7812 401.396L57.0938 402.349C56.3229 402.057 55.6484 401.638 55.0703 401.091C54.4922 400.544 54.0547 399.906 53.7578 399.177C53.4609 400.011 53.0052 400.74 52.3906 401.365C51.776 401.985 51.0521 402.453 50.2188 402.771L49.5469 401.771C50.2552 401.521 50.8776 401.162 51.4141 400.693C51.9557 400.219 52.375 399.667 52.6719 399.037C52.9688 398.401 53.1198 397.729 53.125 397.021V395.583H54.3438V396.974ZM61.0781 403.021H59.8438V398.787H56.75V397.771H59.8438V394.787H61.0781V403.021ZM56.4688 403.427C57.4323 403.427 58.263 403.531 58.9609 403.74C59.6589 403.943 60.1927 404.242 60.5625 404.638C60.9375 405.029 61.125 405.5 61.125 406.052C61.125 406.599 60.9375 407.065 60.5625 407.451C60.1927 407.841 59.6589 408.138 58.9609 408.341C58.263 408.544 57.4323 408.646 56.4688 408.646C55.5052 408.646 54.6745 408.544 53.9766 408.341C53.2786 408.138 52.7422 407.841 52.3672 407.451C51.9974 407.065 51.8125 406.599 51.8125 406.052C51.8125 405.5 51.9974 405.029 52.3672 404.638C52.7422 404.242 53.2786 403.943 53.9766 403.74C54.6745 403.531 55.5052 403.427 56.4688 403.427ZM56.4688 404.396C55.7656 404.396 55.1536 404.464 54.6328 404.599C54.112 404.729 53.7135 404.919 53.4375 405.169C53.1615 405.419 53.026 405.714 53.0312 406.052C53.026 406.38 53.1615 406.667 53.4375 406.912C53.7135 407.151 54.112 407.336 54.6328 407.466C55.1536 407.597 55.7656 407.662 56.4688 407.662C57.1719 407.662 57.7812 407.597 58.2969 407.466C58.8177 407.336 59.2161 407.151 59.4922 406.912C59.7682 406.667 59.9062 406.38 59.9062 406.052C59.9062 405.714 59.7682 405.419 59.4922 405.169C59.2161 404.919 58.8177 404.729 58.2969 404.599C57.7812 404.464 57.1719 404.396 56.4688 404.396ZM74.5594 404.958H73.3406V394.802H74.5594V404.958ZM74.9969 408.38H65.5906V403.927H66.8094V407.349H74.9969V408.38ZM67.0594 395.771C67.7469 395.771 68.3667 395.917 68.9187 396.208C69.476 396.495 69.9109 396.899 70.2234 397.419C70.5411 397.935 70.7 398.521 70.7 399.177C70.7 399.844 70.5411 400.438 70.2234 400.958C69.9109 401.474 69.476 401.878 68.9187 402.169C68.3667 402.456 67.7469 402.599 67.0594 402.599C66.3719 402.599 65.7495 402.456 65.1922 402.169C64.6401 401.878 64.2052 401.474 63.8875 400.958C63.575 400.438 63.4187 399.844 63.4187 399.177C63.4187 398.521 63.575 397.935 63.8875 397.419C64.2052 396.899 64.6401 396.495 65.1922 396.208C65.7495 395.917 66.3719 395.771 67.0594 395.771ZM67.0594 396.849C66.5958 396.849 66.1766 396.948 65.8016 397.146C65.4318 397.344 65.1401 397.62 64.9266 397.974C64.7182 398.328 64.6167 398.729 64.6219 399.177C64.6167 399.63 64.7182 400.037 64.9266 400.396C65.1401 400.75 65.4318 401.026 65.8016 401.224C66.1766 401.422 66.5958 401.521 67.0594 401.521C67.5125 401.521 67.924 401.422 68.2937 401.224C68.6687 401.026 68.963 400.75 69.1766 400.396C69.3901 400.037 69.4969 399.63 69.4969 399.177C69.4969 398.735 69.3901 398.336 69.1766 397.982C68.963 397.628 68.6687 397.352 68.2937 397.154C67.924 396.951 67.5125 396.849 67.0594 396.849ZM80.8188 406.38L84.6781 402.318C85.1885 401.781 85.5766 401.349 85.8422 401.021C86.113 400.688 86.3161 400.367 86.4516 400.06C86.5922 399.748 86.6625 399.422 86.6625 399.083C86.6625 398.708 86.5635 398.375 86.3656 398.083C86.1677 397.792 85.8969 397.565 85.5531 397.404C85.2146 397.242 84.8344 397.162 84.4125 397.162C83.9698 397.162 83.5818 397.25 83.2484 397.427C82.9151 397.604 82.6573 397.854 82.475 398.177C82.2979 398.5 82.2094 398.87 82.2094 399.287H80.8813C80.876 398.63 81.0271 398.05 81.3344 397.544C81.6469 397.039 82.0766 396.646 82.6234 396.365C83.1703 396.083 83.7823 395.943 84.4594 395.943C85.1313 395.943 85.7328 396.081 86.2641 396.357C86.8005 396.633 87.2198 397.011 87.5219 397.49C87.824 397.969 87.975 398.5 87.975 399.083C87.975 399.516 87.8969 399.93 87.7406 400.326C87.5844 400.716 87.3214 401.151 86.9516 401.63C86.587 402.104 86.0635 402.693 85.3813 403.396L82.7875 406.068V406.162H88.1781V407.412H80.8344L80.8188 406.38ZM104.656 403.021H103.422V400.833H100.172V402.021H93.7969V395.849H100.172V397.052H103.422V394.787H104.656V403.021ZM95.0156 401.021H98.9688V396.849H95.0156V401.021ZM100.047 403.427C101.01 403.427 101.841 403.531 102.539 403.74C103.237 403.943 103.771 404.242 104.141 404.638C104.516 405.029 104.703 405.5 104.703 406.052C104.703 406.599 104.516 407.065 104.141 407.451C103.771 407.841 103.237 408.138 102.539 408.341C101.841 408.544 101.01 408.646 100.047 408.646C99.0833 408.646 98.2526 408.544 97.5547 408.341C96.8568 408.138 96.3203 407.841 95.9453 407.451C95.5755 407.065 95.3906 406.599 95.3906 406.052C95.3906 405.5 95.5755 405.029 95.9453 404.638C96.3203 404.242 96.8568 403.943 97.5547 403.74C98.2526 403.531 99.0833 403.427 100.047 403.427ZM100.047 404.38C99.3385 404.386 98.724 404.456 98.2031 404.591C97.6875 404.722 97.2917 404.912 97.0156 405.162C96.7396 405.412 96.6042 405.708 96.6094 406.052C96.6042 406.38 96.7396 406.667 97.0156 406.912C97.2969 407.156 97.6953 407.344 98.2109 407.474C98.7318 407.61 99.3438 407.677 100.047 407.677C100.75 407.677 101.359 407.61 101.875 407.474C102.391 407.344 102.786 407.159 103.062 406.919C103.344 406.675 103.484 406.386 103.484 406.052C103.484 405.708 103.346 405.412 103.07 405.162C102.794 404.912 102.398 404.722 101.883 404.591C101.367 404.456 100.755 404.386 100.047 404.38ZM103.422 399.802V398.068H100.172V399.802H103.422ZM107.731 410.615H106.575L107.434 406.365H108.95L107.731 410.615ZM117.897 395.865C118.579 395.87 119.183 396.073 119.709 396.474C120.241 396.87 120.655 397.432 120.952 398.162C121.254 398.891 121.407 399.74 121.412 400.708C121.407 401.677 121.254 402.526 120.952 403.255C120.655 403.985 120.241 404.547 119.709 404.943C119.178 405.339 118.574 405.537 117.897 405.537C117.215 405.537 116.608 405.339 116.077 404.943C115.545 404.547 115.131 403.985 114.834 403.255C114.543 402.526 114.397 401.677 114.397 400.708C114.397 399.74 114.543 398.891 114.834 398.162C115.131 397.432 115.545 396.87 116.077 396.474C116.608 396.073 117.215 395.87 117.897 395.865ZM117.897 396.958C117.439 396.964 117.032 397.123 116.678 397.435C116.324 397.742 116.048 398.18 115.85 398.748C115.652 399.31 115.553 399.964 115.553 400.708C115.553 401.453 115.652 402.11 115.85 402.677C116.048 403.24 116.324 403.675 116.678 403.982C117.037 404.289 117.444 404.443 117.897 404.443C118.355 404.443 118.759 404.289 119.108 403.982C119.462 403.675 119.735 403.24 119.928 402.677C120.126 402.11 120.225 401.453 120.225 400.708C120.225 399.964 120.126 399.31 119.928 398.748C119.735 398.18 119.462 397.742 119.108 397.435C118.759 397.123 118.355 396.964 117.897 396.958ZM124.928 400.333H127.256V401.396H124.928V408.677H123.709V394.787H124.928V400.333ZM140.378 402.646H127.706V401.662H133.441V400.037H129.316V395.443H138.8V396.427H130.519V399.037H138.894V400.037H134.628V401.662H140.378V402.646ZM134.034 403.662C135.024 403.662 135.876 403.761 136.589 403.958C137.308 404.151 137.857 404.435 138.238 404.81C138.618 405.185 138.81 405.636 138.816 406.162C138.81 406.693 138.618 407.146 138.238 407.521C137.857 407.896 137.31 408.18 136.597 408.373C135.883 408.57 135.029 408.672 134.034 408.677C133.034 408.672 132.175 408.57 131.456 408.373C130.738 408.18 130.188 407.896 129.808 407.521C129.428 407.146 129.238 406.693 129.238 406.162C129.238 405.636 129.428 405.185 129.808 404.81C130.188 404.435 130.738 404.151 131.456 403.958C132.175 403.761 133.034 403.662 134.034 403.662ZM134.034 404.63C133.295 404.63 132.657 404.693 132.12 404.818C131.589 404.938 131.183 405.112 130.902 405.341C130.62 405.57 130.482 405.844 130.488 406.162C130.482 406.485 130.62 406.761 130.902 406.99C131.183 407.219 131.589 407.393 132.12 407.513C132.657 407.633 133.295 407.693 134.034 407.693C134.769 407.693 135.402 407.633 135.933 407.513C136.464 407.393 136.87 407.219 137.152 406.99C137.438 406.755 137.581 406.479 137.581 406.162C137.581 405.844 137.438 405.57 137.152 405.341C136.87 405.112 136.461 404.938 135.925 404.818C135.394 404.693 134.764 404.63 134.034 404.63ZM149.45 407.412H148.028V397.568H147.966L145.216 399.396V397.974L148.028 396.099H149.45V407.412ZM166.897 403.021H165.662V400.833H162.412V402.021H156.037V395.849H162.412V397.052H165.662V394.787H166.897V403.021ZM157.256 401.021H161.209V396.849H157.256V401.021ZM162.287 403.427C163.251 403.427 164.082 403.531 164.78 403.74C165.478 403.943 166.011 404.242 166.381 404.638C166.756 405.029 166.944 405.5 166.944 406.052C166.944 406.599 166.756 407.065 166.381 407.451C166.011 407.841 165.478 408.138 164.78 408.341C164.082 408.544 163.251 408.646 162.287 408.646C161.324 408.646 160.493 408.544 159.795 408.341C159.097 408.138 158.561 407.841 158.186 407.451C157.816 407.065 157.631 406.599 157.631 406.052C157.631 405.5 157.816 405.029 158.186 404.638C158.561 404.242 159.097 403.943 159.795 403.74C160.493 403.531 161.324 403.427 162.287 403.427ZM162.287 404.38C161.579 404.386 160.965 404.456 160.444 404.591C159.928 404.722 159.532 404.912 159.256 405.162C158.98 405.412 158.845 405.708 158.85 406.052C158.845 406.38 158.98 406.667 159.256 406.912C159.537 407.156 159.936 407.344 160.452 407.474C160.972 407.61 161.584 407.677 162.287 407.677C162.991 407.677 163.6 407.61 164.116 407.474C164.631 407.344 165.027 407.159 165.303 406.919C165.584 406.675 165.725 406.386 165.725 406.052C165.725 405.708 165.587 405.412 165.311 405.162C165.035 404.912 164.639 404.722 164.123 404.591C163.608 404.456 162.996 404.386 162.287 404.38ZM165.662 399.802V398.068H162.412V399.802H165.662Z" fill="#E8E4DC"/>
</g>
<g id="Frame">
<path id="Vector_7" d="M350.342 401.414L354.342 405.414L358.342 401.414" stroke="#7A7873" stroke-width="1.3" stroke-linecap="round" stroke-linejoin="round"/>
</g>
</g>
</g>
<g id="BudgetField">
<g id="Paragraph_6">
<path id="&#236;&#152;&#136;&#236;&#130;&#176;" d="M43.0742 472.114H41.6113V459.755H43.0742V472.114ZM40.5723 471.513H39.1367V467.616H37.5166C37.2887 468.227 36.9743 468.699 36.5732 469.031C36.1768 469.359 35.7188 469.521 35.1992 469.517C34.666 469.521 34.1966 469.346 33.791 468.99C33.39 468.63 33.0801 468.118 32.8613 467.452C32.6426 466.782 32.5332 465.998 32.5332 465.101C32.5332 464.203 32.6426 463.424 32.8613 462.763C33.0801 462.097 33.39 461.587 33.791 461.231C34.1966 460.876 34.666 460.698 35.1992 460.698C35.7188 460.698 36.1768 460.862 36.5732 461.19C36.9697 461.514 37.2842 461.979 37.5166 462.585H39.1367V459.974H40.5723V471.513ZM35.1992 462.134C34.7936 462.125 34.4792 462.378 34.2559 462.893C34.0326 463.408 33.9232 464.144 33.9277 465.101C33.9232 466.058 34.0326 466.794 34.2559 467.309C34.4792 467.824 34.7936 468.076 35.1992 468.067C35.4727 468.072 35.7074 467.96 35.9033 467.732C36.1038 467.505 36.2565 467.167 36.3613 466.721C36.4707 466.274 36.5254 465.734 36.5254 465.101C36.5254 464.467 36.4707 463.927 36.3613 463.48C36.2565 463.034 36.1038 462.697 35.9033 462.469C35.7074 462.241 35.4727 462.129 35.1992 462.134ZM37.8242 463.815C37.888 464.226 37.9199 464.654 37.9199 465.101C37.9199 465.52 37.8903 465.944 37.8311 466.372H39.1367V463.815H37.8242ZM48.9395 461.942C48.9349 462.489 49.0443 463.016 49.2676 463.521C49.4954 464.023 49.8327 464.467 50.2793 464.854C50.7259 465.242 51.2637 465.538 51.8926 465.743L51.0996 466.946C50.4251 466.718 49.8441 466.383 49.3564 465.941C48.8734 465.495 48.4928 464.968 48.2148 464.362C47.9323 465.032 47.5358 465.611 47.0254 466.099C46.5195 466.586 45.9134 466.955 45.207 467.206L44.3594 466.003C45.0202 465.789 45.5785 465.477 46.0342 465.066C46.4899 464.652 46.8317 464.175 47.0596 463.638C47.292 463.095 47.4082 462.526 47.4082 461.929V460.521H48.9395V461.942ZM54.2578 463.405H55.9805V464.69H54.2578V468.833H52.7402V459.755H54.2578V463.405ZM54.75 471.868H46.3418V467.944H47.9004V470.638H54.75V471.868Z" fill="#B8B5AE"/>
</g>
<g id="Container_3">
<g id="Text">
<path id="&#236;&#149;&#189;" d="M60.6855 510.604H58.8838V512.128H60.6855V513.49H58.8838V515.263H57.2578V507.44H58.8838V509.286H60.6855V510.604ZM58.8838 520.683H57.2578V517.152H50.0654V515.834H58.8838V520.683ZM52.1602 508.202C52.8291 508.197 53.4346 508.332 53.9766 508.605C54.5186 508.874 54.9458 509.252 55.2583 509.74C55.5708 510.224 55.7295 510.771 55.7344 511.381C55.7295 512.001 55.5708 512.555 55.2583 513.043C54.9507 513.527 54.5259 513.905 53.9839 514.179C53.4419 514.452 52.834 514.589 52.1602 514.589C51.4814 514.589 50.8687 514.452 50.3218 514.179C49.7798 513.905 49.3525 513.527 49.04 513.043C48.7324 512.555 48.5811 512.001 48.5859 511.381C48.5811 510.771 48.7324 510.224 49.04 509.74C49.3525 509.252 49.7822 508.874 50.3291 508.605C50.876 508.332 51.4863 508.197 52.1602 508.202ZM52.1602 509.579C51.7793 509.584 51.4375 509.662 51.1348 509.813C50.832 509.96 50.5952 510.17 50.4243 510.443C50.2583 510.712 50.1777 511.024 50.1826 511.381C50.1777 511.747 50.2583 512.069 50.4243 512.348C50.5952 512.626 50.832 512.838 51.1348 512.985C51.4375 513.131 51.7793 513.202 52.1602 513.197C52.5361 513.202 52.873 513.131 53.1709 512.985C53.4736 512.838 53.7104 512.626 53.8813 512.348C54.0522 512.069 54.1377 511.747 54.1377 511.381C54.1377 511.024 54.0522 510.712 53.8813 510.443C53.7104 510.17 53.4736 509.96 53.1709 509.813C52.873 509.662 52.5361 509.584 52.1602 509.579Z" fill="#7A7873"/>
</g>
<g id="Text Input_2" filter="url(#filter3_dd_156_5326)">
<path d="M72.9702 505.881C72.9702 497.045 80.1337 489.881 88.9702 489.881H112.97C121.807 489.881 128.97 497.045 128.97 505.881V522.881C128.97 531.718 121.807 538.881 112.97 538.881H88.9702C80.1337 538.881 72.9702 531.718 72.9702 522.881V505.881Z" fill="#262B28"/>
<path d="M88.9702 490.381H112.97C121.531 490.381 128.47 497.321 128.47 505.881V522.881C128.47 531.442 121.531 538.381 112.97 538.381H88.9702C80.4098 538.381 73.4702 531.442 73.4702 522.881V505.881C73.4702 497.321 80.4098 490.381 88.9702 490.381Z" stroke="#373F3B"/>
<path id="30" d="M96.3858 520.038C95.641 520.038 94.9744 519.913 94.3858 519.663C93.8025 519.413 93.339 519.061 92.9952 518.608C92.6567 518.155 92.4744 517.631 92.4483 517.038H93.8702C93.8963 517.387 94.0213 517.694 94.2452 517.959C94.4744 518.225 94.7739 518.431 95.1437 518.577C95.5134 518.717 95.9223 518.788 96.3702 518.788C96.8598 518.788 97.2999 518.704 97.6905 518.538C98.0864 518.366 98.3937 518.131 98.6124 517.834C98.8364 517.532 98.9483 517.189 98.9483 516.803C98.9483 516.387 98.839 516.019 98.6202 515.702C98.4067 515.384 98.0942 515.137 97.6827 514.959C97.2713 514.782 96.7765 514.694 96.1983 514.694H95.2765V513.459H96.1983C96.6515 513.459 97.0551 513.379 97.4093 513.217C97.7634 513.056 98.0369 512.829 98.2296 512.538C98.4275 512.246 98.5265 511.907 98.5265 511.522C98.5265 511.152 98.4379 510.824 98.2608 510.538C98.089 510.251 97.8442 510.03 97.5265 509.874C97.2088 509.712 96.839 509.631 96.4171 509.631C96.0108 509.631 95.6306 509.704 95.2765 509.85C94.9223 509.996 94.6332 510.204 94.4093 510.475C94.1853 510.741 94.0629 511.053 94.0421 511.413H92.6827C92.7088 510.829 92.891 510.311 93.2296 509.858C93.5681 509.4 94.0187 509.045 94.5812 508.795C95.1437 508.54 95.7608 508.413 96.4327 508.413C97.1306 508.413 97.74 508.551 98.2608 508.827C98.7869 509.097 99.1905 509.465 99.4718 509.928C99.753 510.392 99.891 510.897 99.8858 511.444C99.891 512.079 99.7218 512.624 99.378 513.077C99.0343 513.53 98.5629 513.84 97.964 514.006V514.084C98.4483 514.163 98.8676 514.327 99.2218 514.577C99.5812 514.821 99.8546 515.137 100.042 515.522C100.235 515.902 100.329 516.329 100.323 516.803C100.329 517.413 100.159 517.965 99.8155 518.459C99.4718 518.949 98.9978 519.334 98.3937 519.616C97.7947 519.897 97.1254 520.038 96.3858 520.038ZM105.758 520.038C104.924 520.038 104.211 519.811 103.617 519.358C103.029 518.905 102.578 518.243 102.266 517.374C101.958 516.504 101.805 515.454 101.805 514.225C101.805 513.012 101.961 511.97 102.273 511.1C102.586 510.225 103.039 509.558 103.633 509.1C104.226 508.642 104.935 508.413 105.758 508.413C106.581 508.413 107.289 508.642 107.883 509.1C108.476 509.558 108.93 510.225 109.242 511.1C109.555 511.97 109.711 513.012 109.711 514.225C109.711 515.454 109.555 516.504 109.242 517.374C108.935 518.243 108.484 518.905 107.891 519.358C107.297 519.811 106.586 520.038 105.758 520.038ZM105.758 518.788C106.299 518.788 106.763 518.611 107.148 518.256C107.534 517.902 107.828 517.384 108.031 516.702C108.234 516.019 108.336 515.194 108.336 514.225C108.336 513.256 108.234 512.428 108.031 511.741C107.828 511.053 107.534 510.53 107.148 510.17C106.763 509.811 106.299 509.631 105.758 509.631C105.216 509.631 104.75 509.811 104.359 510.17C103.974 510.53 103.677 511.053 103.469 511.741C103.266 512.428 103.164 513.256 103.164 514.225C103.164 515.194 103.266 516.019 103.469 516.702C103.672 517.384 103.966 517.902 104.351 518.256C104.742 518.611 105.211 518.788 105.758 518.788Z" fill="#E8E4DC"/>
</g>
<g id="Text_2">
<path id="&#235;&#167;&#140;&#236;&#155;&#144;" d="M148.132 514.838H141.863V508.583H148.132V514.838ZM143.459 513.549H146.536V509.887H143.459V513.549ZM151.853 511.322H153.699V512.685H151.853V517.108H150.227V507.44H151.853V511.322ZM152.38 520.419H143.372V516.171H144.998V519.101H152.38V520.419ZM165.476 517.475H163.835V516.317H161.243V515.175H163.835V507.455H165.476V517.475ZM165.784 520.419H156.072V516.508H157.698V519.101H165.784V520.419ZM154.314 513.402C156.033 513.393 157.576 513.363 158.943 513.314C160.31 513.266 161.614 513.163 162.854 513.007L162.942 514.179C161.882 514.354 160.769 514.481 159.602 514.56V517.108H157.976V514.647C157.034 514.687 155.881 514.706 154.519 514.706L154.314 513.402ZM158.635 507.938C159.275 507.938 159.841 508.039 160.334 508.239C160.833 508.434 161.221 508.71 161.499 509.066C161.782 509.418 161.926 509.823 161.931 510.282C161.926 510.751 161.785 511.161 161.506 511.513C161.228 511.864 160.84 512.135 160.342 512.326C159.844 512.516 159.275 512.611 158.635 512.611C157.986 512.611 157.41 512.516 156.907 512.326C156.409 512.135 156.021 511.864 155.742 511.513C155.464 511.161 155.325 510.751 155.325 510.282C155.325 509.823 155.464 509.418 155.742 509.066C156.021 508.71 156.409 508.434 156.907 508.239C157.41 508.039 157.986 507.938 158.635 507.938ZM158.635 509.14C158.103 509.14 157.673 509.242 157.346 509.447C157.024 509.647 156.863 509.926 156.863 510.282C156.863 510.639 157.024 510.919 157.346 511.125C157.673 511.325 158.103 511.425 158.635 511.425C159.148 511.425 159.565 511.322 159.888 511.117C160.21 510.912 160.374 510.634 160.378 510.282C160.374 509.931 160.21 509.652 159.888 509.447C159.565 509.242 159.148 509.14 158.635 509.14Z" fill="#7A7873"/>
</g>
</g>
</g>
<g id="EditInfoButtonEnabled" filter="url(#filter4_dd_156_5326)">
<g clip-path="url(#clip0_156_5326)">
<g id="Frame 138">
<g id="Vector_8">
<path id="Vector_9" d="M352.671 565.868H56.6709C50.0435 565.868 44.6709 571.241 44.6709 577.868V605.868C44.6709 612.496 50.0435 617.868 56.6709 617.868H352.671C359.298 617.868 364.671 612.496 364.671 605.868V577.868C364.671 571.241 359.298 565.868 352.671 565.868Z" fill="#5E9E72"/>
</g>
<path id="&#236;&#136;&#152;&#236;&#160;&#149;&#237;&#149;&#152;&#234;&#184;&#176;" d="M185.293 585.806C185.293 586.399 185.501 586.978 185.918 587.54C186.34 588.103 186.928 588.584 187.683 588.985C188.444 589.386 189.314 589.649 190.293 589.774L189.605 591.181C188.418 591.004 187.366 590.639 186.449 590.087C185.532 589.53 184.842 588.85 184.379 588.048C183.915 588.85 183.228 589.53 182.316 590.087C181.405 590.639 180.36 591.004 179.183 591.181L178.496 589.774C179.465 589.649 180.327 589.386 181.082 588.985C181.837 588.584 182.423 588.103 182.84 587.54C183.256 586.978 183.465 586.399 183.465 585.806V585.087H185.293V585.806ZM190.808 593.837H185.199V598.759H183.48V593.837H177.933V592.399H190.808V593.837ZM203.29 593.024H201.555V589.571H199.149V588.149H201.555V584.634H203.29V593.024ZM198.508 593.384C199.503 593.384 200.363 593.491 201.087 593.704C201.816 593.912 202.373 594.22 202.758 594.626C203.144 595.027 203.337 595.509 203.337 596.071C203.337 596.634 203.144 597.116 202.758 597.517C202.373 597.923 201.816 598.23 201.087 598.438C200.363 598.652 199.503 598.759 198.508 598.759C197.519 598.759 196.662 598.652 195.938 598.438C195.214 598.23 194.659 597.923 194.274 597.517C193.894 597.116 193.706 596.634 193.712 596.071C193.706 595.509 193.894 595.027 194.274 594.626C194.659 594.22 195.214 593.912 195.938 593.704C196.662 593.491 197.519 593.384 198.508 593.384ZM198.508 594.712C197.519 594.712 196.758 594.829 196.227 595.063C195.696 595.293 195.43 595.629 195.43 596.071C195.43 596.509 195.696 596.842 196.227 597.071C196.758 597.3 197.519 597.415 198.508 597.415C199.498 597.415 200.261 597.3 200.797 597.071C201.334 596.842 201.602 596.509 201.602 596.071C201.602 595.629 201.334 595.293 200.797 595.063C200.261 594.829 199.498 594.712 198.508 594.712ZM196.649 587.056C196.649 587.639 196.777 588.207 197.032 588.759C197.287 589.306 197.665 589.798 198.165 590.235C198.665 590.668 199.269 591.004 199.977 591.243L199.102 592.618C198.337 592.358 197.672 591.975 197.11 591.47C196.553 590.959 196.115 590.366 195.797 589.688C195.48 590.454 195.027 591.123 194.438 591.696C193.85 592.264 193.144 592.696 192.321 592.993L191.415 591.618C192.149 591.368 192.777 591.006 193.297 590.532C193.818 590.053 194.212 589.514 194.477 588.915C194.748 588.316 194.883 587.701 194.883 587.071V586.962H191.946V585.556H199.571V586.962H196.649V587.056ZM216.052 590.259H218.224V591.696H216.052V598.759H214.333V584.634H216.052V590.259ZM213.24 588.196H204.912V586.806H208.255V584.837H209.99V586.806H213.24V588.196ZM209.13 589.118C209.802 589.118 210.406 589.261 210.943 589.548C211.484 589.829 211.909 590.222 212.216 590.728C212.524 591.233 212.677 591.806 212.677 592.446C212.677 593.087 212.524 593.66 212.216 594.165C211.909 594.665 211.484 595.056 210.943 595.337C210.406 595.618 209.802 595.759 209.13 595.759C208.448 595.759 207.836 595.618 207.294 595.337C206.753 595.056 206.328 594.665 206.021 594.165C205.714 593.66 205.563 593.087 205.568 592.446C205.563 591.806 205.714 591.233 206.021 590.728C206.328 590.222 206.753 589.829 207.294 589.548C207.836 589.261 208.448 589.118 209.13 589.118ZM209.13 590.54C208.76 590.54 208.43 590.618 208.138 590.774C207.852 590.931 207.628 591.155 207.466 591.446C207.305 591.733 207.224 592.066 207.224 592.446C207.224 592.826 207.305 593.16 207.466 593.446C207.628 593.728 207.852 593.946 208.138 594.103C208.43 594.254 208.76 594.326 209.13 594.321C209.49 594.326 209.81 594.254 210.091 594.103C210.378 593.946 210.602 593.728 210.763 593.446C210.93 593.16 211.016 592.826 211.021 592.446C211.016 592.066 210.93 591.733 210.763 591.446C210.602 591.16 210.378 590.938 210.091 590.782C209.81 590.621 209.49 590.54 209.13 590.54ZM230.315 598.759H228.565V584.634H230.315V598.759ZM226.096 586.134C226.096 588.379 225.588 590.35 224.572 592.048C223.557 593.741 221.872 595.144 219.518 596.259L218.612 594.868C220.429 594.004 221.796 592.97 222.713 591.767C223.635 590.558 224.174 589.139 224.33 587.509H219.33V586.134H226.096Z" fill="#FAFAF7"/>
</g>
</g>
<path d="M56.6709 566.368H352.671C359.022 566.368 364.171 571.517 364.171 577.868V605.868C364.171 612.219 359.022 617.368 352.671 617.368H56.6709C50.3196 617.368 45.1709 612.219 45.1709 605.868V577.868C45.1709 571.517 50.3196 566.368 56.6709 566.368Z" stroke="#4A7C59"/>
</g>
</g>
</g>
<g id="Container_4">
<g id="Icon_3" clip-path="url(#clip1_156_5326)">
<path id="Vector_10" d="M163.669 25.9941H245.669" stroke="#7A7873" stroke-width="7.99775" stroke-linecap="round"/>
</g>
</g>
</g>
<defs>
<filter id="filter0_dd_156_5326" x="0" y="129.991" width="409.342" height="118.974" filterUnits="userSpaceOnUse" color-interpolation-filters="sRGB">
<feFlood flood-opacity="0" result="BackgroundImageFix"/>
<feColorMatrix in="SourceAlpha" type="matrix" values="0 0 0 0 0 0 0 0 0 0 0 0 0 0 0 0 0 0 127 0" result="hardAlpha"/>
<feOffset dy="8"/>
<feGaussianBlur stdDeviation="16"/>
<feColorMatrix type="matrix" values="0 0 0 0 0 0 0 0 0 0 0 0 0 0 0 0 0 0 0.5 0"/>
<feBlend mode="normal" in2="BackgroundImageFix" result="effect1_dropShadow_156_5326"/>
<feColorMatrix in="SourceAlpha" type="matrix" values="0 0 0 0 0 0 0 0 0 0 0 0 0 0 0 0 0 0 127 0" result="hardAlpha"/>
<feOffset dy="2"/>
<feGaussianBlur stdDeviation="4"/>
<feColorMatrix type="matrix" values="0 0 0 0 0 0 0 0 0 0 0 0 0 0 0 0 0 0 0.25 0"/>
<feBlend mode="normal" in2="effect1_dropShadow_156_5326" result="effect2_dropShadow_156_5326"/>
<feBlend mode="normal" in="SourceGraphic" in2="effect2_dropShadow_156_5326" result="shape"/>
</filter>
<filter id="filter1_dd_156_5326" x="0" y="240.959" width="409.342" height="118.974" filterUnits="userSpaceOnUse" color-interpolation-filters="sRGB">
<feFlood flood-opacity="0" result="BackgroundImageFix"/>
<feColorMatrix in="SourceAlpha" type="matrix" values="0 0 0 0 0 0 0 0 0 0 0 0 0 0 0 0 0 0 127 0" result="hardAlpha"/>
<feOffset dy="8"/>
<feGaussianBlur stdDeviation="16"/>
<feColorMatrix type="matrix" values="0 0 0 0 0 0 0 0 0 0 0 0 0 0 0 0 0 0 0.5 0"/>
<feBlend mode="normal" in2="BackgroundImageFix" result="effect1_dropShadow_156_5326"/>
<feColorMatrix in="SourceAlpha" type="matrix" values="0 0 0 0 0 0 0 0 0 0 0 0 0 0 0 0 0 0 127 0" result="hardAlpha"/>
<feOffset dy="2"/>
<feGaussianBlur stdDeviation="4"/>
<feColorMatrix type="matrix" values="0 0 0 0 0 0 0 0 0 0 0 0 0 0 0 0 0 0 0.25 0"/>
<feBlend mode="normal" in2="effect1_dropShadow_156_5326" result="effect2_dropShadow_156_5326"/>
<feBlend mode="normal" in="SourceGraphic" in2="effect2_dropShadow_156_5326" result="shape"/>
</filter>
<filter id="filter2_dd_156_5326" x="0" y="351.927" width="409.342" height="118.974" filterUnits="userSpaceOnUse" color-interpolation-filters="sRGB">
<feFlood flood-opacity="0" result="BackgroundImageFix"/>
<feColorMatrix in="SourceAlpha" type="matrix" values="0 0 0 0 0 0 0 0 0 0 0 0 0 0 0 0 0 0 127 0" result="hardAlpha"/>
<feOffset dy="8"/>
<feGaussianBlur stdDeviation="16"/>
<feColorMatrix type="matrix" values="0 0 0 0 0 0 0 0 0 0 0 0 0 0 0 0 0 0 0.5 0"/>
<feBlend mode="normal" in2="BackgroundImageFix" result="effect1_dropShadow_156_5326"/>
<feColorMatrix in="SourceAlpha" type="matrix" values="0 0 0 0 0 0 0 0 0 0 0 0 0 0 0 0 0 0 127 0" result="hardAlpha"/>
<feOffset dy="2"/>
<feGaussianBlur stdDeviation="4"/>
<feColorMatrix type="matrix" values="0 0 0 0 0 0 0 0 0 0 0 0 0 0 0 0 0 0 0.25 0"/>
<feBlend mode="normal" in2="effect1_dropShadow_156_5326" result="effect2_dropShadow_156_5326"/>
<feBlend mode="normal" in="SourceGraphic" in2="effect2_dropShadow_156_5326" result="shape"/>
</filter>
<filter id="filter3_dd_156_5326" x="40.9702" y="465.881" width="120" height="113" filterUnits="userSpaceOnUse" color-interpolation-filters="sRGB">
<feFlood flood-opacity="0" result="BackgroundImageFix"/>
<feColorMatrix in="SourceAlpha" type="matrix" values="0 0 0 0 0 0 0 0 0 0 0 0 0 0 0 0 0 0 127 0" result="hardAlpha"/>
<feOffset dy="8"/>
<feGaussianBlur stdDeviation="16"/>
<feColorMatrix type="matrix" values="0 0 0 0 0 0 0 0 0 0 0 0 0 0 0 0 0 0 0.5 0"/>
<feBlend mode="normal" in2="BackgroundImageFix" result="effect1_dropShadow_156_5326"/>
<feColorMatrix in="SourceAlpha" type="matrix" values="0 0 0 0 0 0 0 0 0 0 0 0 0 0 0 0 0 0 127 0" result="hardAlpha"/>
<feOffset dy="2"/>
<feGaussianBlur stdDeviation="4"/>
<feColorMatrix type="matrix" values="0 0 0 0 0 0 0 0 0 0 0 0 0 0 0 0 0 0 0.25 0"/>
<feBlend mode="normal" in2="effect1_dropShadow_156_5326" result="effect2_dropShadow_156_5326"/>
<feBlend mode="normal" in="SourceGraphic" in2="effect2_dropShadow_156_5326" result="shape"/>
</filter>
<filter id="filter4_dd_156_5326" x="36.6709" y="559.868" width="336" height="68" filterUnits="userSpaceOnUse" color-interpolation-filters="sRGB">
<feFlood flood-opacity="0" result="BackgroundImageFix"/>
<feColorMatrix in="SourceAlpha" type="matrix" values="0 0 0 0 0 0 0 0 0 0 0 0 0 0 0 0 0 0 127 0" result="hardAlpha"/>
<feOffset dy="2"/>
<feGaussianBlur stdDeviation="4"/>
<feColorMatrix type="matrix" values="0 0 0 0 0 0 0 0 0 0 0 0 0 0 0 0 0 0 0.3 0"/>
<feBlend mode="normal" in2="BackgroundImageFix" result="effect1_dropShadow_156_5326"/>
<feColorMatrix in="SourceAlpha" type="matrix" values="0 0 0 0 0 0 0 0 0 0 0 0 0 0 0 0 0 0 127 0" result="hardAlpha"/>
<feOffset dy="1"/>
<feGaussianBlur stdDeviation="1"/>
<feColorMatrix type="matrix" values="0 0 0 0 0 0 0 0 0 0 0 0 0 0 0 0 0 0 0.15 0"/>
<feBlend mode="normal" in2="effect1_dropShadow_156_5326" result="effect2_dropShadow_156_5326"/>
<feBlend mode="normal" in="SourceGraphic" in2="effect2_dropShadow_156_5326" result="shape"/>
</filter>
<clipPath id="clip0_156_5326">
<path d="M44.6709 577.868C44.6709 571.241 50.0435 565.868 56.6709 565.868H352.671C359.298 565.868 364.671 571.241 364.671 577.868V605.868C364.671 612.496 359.298 617.868 352.671 617.868H56.6709C50.0435 617.868 44.6709 612.496 44.6709 605.868V577.868Z" fill="white"/>
</clipPath>
<clipPath id="clip1_156_5326">
<rect width="89.9996" height="7.99554" fill="white" transform="translate(159.669 21.9966)"/>
</clipPath>
</defs>
</svg>
