<svg width="410" height="796" viewBox="0 0 410 796" fill="none" xmlns="http://www.w3.org/2000/svg">
<g id="Property 1=calendar_expanded">
<path d="M8.00146 16C8.00146 7.16343 15.1649 0 24.0015 0H385.001C393.838 0 401.001 7.16344 401.001 16V771H8.00146V16Z" fill="#1C2120"/>
<g id="Container">
<g id="Heading 2">
<path id="&#236;&#151;&#172;&#237;&#150;&#137; &#236;&#160;&#149;&#235;&#179;&#180;&#235;&#165;&#188; &#236;&#158;&#133;&#235;&#160;&#165;&#237;&#149;&#180;&#236;&#163;&#188;&#236;&#132;&#184;&#236;&#154;&#148;" d="M38.3262 73.9004C39.1999 73.9004 39.9876 74.1331 40.6895 74.5986C41.3984 75.0641 41.9714 75.7266 42.4082 76.5859H46.9414V72.4824H49.3047V91.9258H46.9414V84.5781H42.5801C42.1576 85.5449 41.5775 86.2969 40.8398 86.834C40.1022 87.3639 39.2643 87.6289 38.3262 87.6289C37.3522 87.6289 36.4893 87.3496 35.7373 86.791C34.9854 86.2324 34.3981 85.4339 33.9756 84.3955C33.5531 83.3571 33.3418 82.1432 33.3418 80.7539C33.3418 79.3789 33.5531 78.1758 33.9756 77.1445C34.3981 76.1061 34.9854 75.3076 35.7373 74.749C36.4964 74.1833 37.3594 73.9004 38.3262 73.9004ZM38.3262 76.0488C37.7891 76.0488 37.3164 76.2386 36.9082 76.6182C36.5 76.9906 36.1849 77.5312 35.9629 78.2402C35.7409 78.9421 35.6335 79.7799 35.6406 80.7539C35.6335 81.735 35.7409 82.5801 35.9629 83.2891C36.1849 83.998 36.5 84.5423 36.9082 84.9219C37.3164 85.2943 37.7891 85.4805 38.3262 85.4805C38.8633 85.4805 39.3324 85.2943 39.7334 84.9219C40.1416 84.5423 40.4567 83.998 40.6787 83.2891C40.9079 82.5801 41.026 81.735 41.0332 80.7539C41.026 79.7799 40.9079 78.9385 40.6787 78.2295C40.4567 77.5205 40.1416 76.9798 39.7334 76.6074C39.3324 76.235 38.8633 76.0488 38.3262 76.0488ZM43.0742 78.541C43.2174 79.2357 43.2891 79.9733 43.2891 80.7539C43.2891 81.3984 43.2389 82.0286 43.1387 82.6445H46.9414V78.541H43.0742ZM68.6406 84.6855H66.3633V79.4004H64.4727V84.041H62.2383V72.8691H64.4727V77.4668H66.3633V72.4824H68.6406V84.6855ZM61.5938 76.457H51.9258V74.5879H55.5996V72.6543H57.9629V74.5879H61.5938V76.457ZM56.7812 77.252C57.5977 77.252 58.3245 77.3916 58.9619 77.6709C59.5993 77.9502 60.097 78.3441 60.4551 78.8525C60.8203 79.3538 61.0065 79.9375 61.0137 80.6035C61.0065 81.2695 60.8203 81.8568 60.4551 82.3652C60.097 82.8665 59.5993 83.2568 58.9619 83.5361C58.3245 83.8154 57.5977 83.9551 56.7812 83.9551C55.9792 83.9551 55.2594 83.8154 54.6221 83.5361C53.9847 83.2568 53.487 82.863 53.1289 82.3545C52.778 81.846 52.6061 81.2624 52.6133 80.6035C52.6061 79.9447 52.778 79.361 53.1289 78.8525C53.487 78.3441 53.9847 77.9502 54.6221 77.6709C55.2594 77.3916 55.9792 77.252 56.7812 77.252ZM56.7812 78.9707C56.1725 78.9707 55.6784 79.1175 55.2988 79.4111C54.9264 79.7048 54.7402 80.1022 54.7402 80.6035C54.7402 81.1048 54.9264 81.5023 55.2988 81.7959C55.6712 82.0895 56.1654 82.2363 56.7812 82.2363C57.3971 82.2363 57.8949 82.0895 58.2744 81.7959C58.654 81.5023 58.8438 81.1048 58.8438 80.6035C58.8438 80.1022 58.654 79.7048 58.2744 79.4111C57.8949 79.1175 57.3971 78.9707 56.7812 78.9707ZM62.0879 84.9219C63.4701 84.9219 64.6589 85.0579 65.6543 85.3301C66.6497 85.6022 67.4124 86.0033 67.9424 86.5332C68.4723 87.056 68.7409 87.6862 68.748 88.4238C68.7409 89.1471 68.4688 89.7666 67.9316 90.2822C67.4017 90.805 66.639 91.2025 65.6436 91.4746C64.6481 91.7467 63.4629 91.8828 62.0879 91.8828C60.7129 91.8828 59.5241 91.7467 58.5215 91.4746C57.526 91.2025 56.7598 90.805 56.2227 90.2822C55.6927 89.7666 55.4277 89.1471 55.4277 88.4238C55.4277 87.6862 55.6927 87.056 56.2227 86.5332C56.7598 86.0033 57.526 85.6022 58.5215 85.3301C59.5169 85.0579 60.7057 84.9219 62.0879 84.9219ZM62.0879 86.748C60.6914 86.7337 59.6279 86.8698 58.8975 87.1562C58.1742 87.4355 57.8125 87.8581 57.8125 88.4238C57.8125 88.9609 58.1777 89.3691 58.9082 89.6484C59.6387 89.9206 60.6986 90.0566 62.0879 90.0566C63.4701 90.0566 64.5228 89.9206 65.2461 89.6484C65.9766 89.3691 66.3418 88.9609 66.3418 88.4238C66.3418 87.8581 65.9766 87.4355 65.2461 87.1562C64.5228 86.8698 63.4701 86.7337 62.0879 86.748ZM92.5312 84.0195H90.1465V79.2715H86.8379V77.3164H90.1465V72.4824H92.5312V84.0195ZM85.957 84.5137C87.3249 84.5137 88.5065 84.6605 89.502 84.9541C90.5046 85.2406 91.2708 85.6631 91.8008 86.2217C92.3307 86.7731 92.5957 87.4355 92.5957 88.209C92.5957 88.9824 92.3307 89.6449 91.8008 90.1963C91.2708 90.7549 90.5046 91.1774 89.502 91.4639C88.5065 91.7575 87.3249 91.9043 85.957 91.9043C84.5964 91.9043 83.4183 91.7575 82.4229 91.4639C81.4274 91.1774 80.6647 90.7549 80.1348 90.1963C79.612 89.6449 79.3542 88.9824 79.3613 88.209C79.3542 87.4355 79.612 86.7731 80.1348 86.2217C80.6647 85.6631 81.4274 85.2406 82.4229 84.9541C83.4183 84.6605 84.5964 84.5137 85.957 84.5137ZM85.957 86.3398C84.5964 86.3398 83.5508 86.501 82.8203 86.8232C82.0898 87.1383 81.7246 87.6003 81.7246 88.209C81.7246 88.8105 82.0898 89.2689 82.8203 89.584C83.5508 89.8991 84.5964 90.0566 85.957 90.0566C87.3177 90.0566 88.3669 89.8991 89.1045 89.584C89.8421 89.2689 90.2109 88.8105 90.2109 88.209C90.2109 87.6003 89.8421 87.1383 89.1045 86.8232C88.3669 86.501 87.3177 86.3398 85.957 86.3398ZM83.4004 75.8125C83.4004 76.6146 83.5758 77.3952 83.9268 78.1543C84.2777 78.9062 84.7969 79.583 85.4844 80.1846C86.1719 80.779 87.0026 81.2409 87.9766 81.5703L86.7734 83.4609C85.7207 83.1029 84.8076 82.5765 84.0342 81.8818C83.2679 81.18 82.6663 80.3636 82.2295 79.4326C81.7926 80.4854 81.1696 81.4056 80.3604 82.1934C79.5511 82.974 78.5807 83.5684 77.4492 83.9766L76.2031 82.0859C77.2129 81.7422 78.0758 81.2445 78.792 80.5928C79.5081 79.9339 80.0488 79.1927 80.4141 78.3691C80.7865 77.5456 80.9727 76.7005 80.9727 75.834V75.6836H76.9336V73.75H87.418V75.6836H83.4004V75.8125ZM113.027 89.5625H95.2812V87.6074H102.93V83.8262H97.2363V73.7715H99.6211V76.9512H108.623V73.7715H111.008V83.8262H105.293V87.6074H113.027V89.5625ZM108.623 81.8926V78.8633H99.6211V81.8926H108.623ZM132.02 83.0957H114.273V81.291H132.02V83.0957ZM129.871 88.6816H118.742V90.0352H130.451V91.6895H116.357V87.1348H127.508V85.9316H116.336V84.2559H129.871V88.6816ZM129.828 77.2949H118.893V78.5625H130.172V80.1953H116.529V75.748H127.443V74.5664H116.465V72.9121H129.828V77.2949ZM154.707 82.9023H152.301V72.4824H154.707V82.9023ZM144.223 85.8027H152.322V83.8047H154.707V91.668H141.859V83.8047H144.223V85.8027ZM152.322 89.7344V87.6719H144.223V89.7344H152.322ZM144.115 73.3418C145.104 73.3346 145.995 73.5244 146.79 73.9111C147.585 74.2907 148.208 74.8278 148.659 75.5225C149.11 76.2171 149.336 77.0085 149.336 77.8965C149.336 78.763 149.107 79.54 148.648 80.2275C148.197 80.915 147.574 81.4521 146.779 81.8389C145.992 82.2184 145.104 82.4082 144.115 82.4082C143.12 82.4082 142.225 82.2184 141.43 81.8389C140.635 81.4521 140.008 80.915 139.55 80.2275C139.099 79.54 138.873 78.763 138.873 77.8965C138.873 77.0085 139.099 76.2171 139.55 75.5225C140.008 74.8278 140.635 74.2907 141.43 73.9111C142.225 73.5244 143.12 73.3346 144.115 73.3418ZM144.115 75.3398C143.549 75.3398 143.045 75.4437 142.601 75.6514C142.164 75.859 141.82 76.1562 141.569 76.543C141.326 76.9297 141.208 77.3809 141.215 77.8965C141.208 78.4049 141.326 78.8525 141.569 79.2393C141.82 79.6188 142.164 79.916 142.601 80.1309C143.045 80.3385 143.549 80.446 144.115 80.4531C144.674 80.446 145.172 80.3385 145.608 80.1309C146.045 79.916 146.385 79.6188 146.629 79.2393C146.872 78.8525 146.994 78.4049 146.994 77.8965C146.994 77.3809 146.872 76.9297 146.629 76.543C146.385 76.1562 146.045 75.859 145.608 75.6514C145.172 75.4437 144.674 75.3398 144.115 75.3398ZM166.824 79.4863H160.701V81.8711H161.131C162.592 81.8711 163.806 81.8389 164.772 81.7744C165.739 81.7028 166.702 81.5775 167.662 81.3984L167.898 83.332C166.796 83.5182 165.668 83.64 164.515 83.6973C163.369 83.7546 161.783 83.7832 159.756 83.7832H158.338V77.7031H164.439V75.5332H158.295V73.6426H166.824V79.4863ZM173.807 84.4492H171.422V81.248H167.984V79.3359H171.422V77.166H167.984V75.2539H171.422V72.5039H173.807V84.4492ZM173.807 91.9043H171.422V87.2852H160.529V85.373H173.807V91.9043ZM186.031 77.4883H176.514V75.5762H180.123V73.041H182.486V75.5762H186.031V77.4883ZM181.305 78.5195C182.121 78.5195 182.848 78.7129 183.485 79.0996C184.13 79.4792 184.631 80.0127 184.989 80.7002C185.354 81.3877 185.537 82.1647 185.537 83.0312C185.537 83.9121 185.354 84.6999 184.989 85.3945C184.631 86.0892 184.13 86.6335 183.485 87.0273C182.848 87.4141 182.121 87.6074 181.305 87.6074C180.495 87.6074 179.769 87.4141 179.124 87.0273C178.479 86.6335 177.975 86.0892 177.609 85.3945C177.244 84.6999 177.065 83.9121 177.072 83.0312C177.065 82.1647 177.244 81.3877 177.609 80.7002C177.975 80.0127 178.479 79.4792 179.124 79.0996C179.769 78.7129 180.495 78.5195 181.305 78.5195ZM181.305 80.4961C180.882 80.4961 180.51 80.6035 180.188 80.8184C179.865 81.026 179.615 81.3232 179.436 81.71C179.257 82.0895 179.171 82.5299 179.178 83.0312C179.171 83.5469 179.257 83.998 179.436 84.3848C179.615 84.7715 179.865 85.0687 180.188 85.2764C180.51 85.4769 180.882 85.5736 181.305 85.5664C181.72 85.5736 182.089 85.4769 182.411 85.2764C182.733 85.0687 182.984 84.7715 183.163 84.3848C183.342 83.998 183.432 83.5469 183.432 83.0312C183.432 82.5299 183.342 82.0895 183.163 81.71C182.984 81.3232 182.733 81.026 182.411 80.8184C182.089 80.6035 181.72 80.4961 181.305 80.4961ZM193.25 91.9043H190.973V82.4082H189.082V91.0234H186.848V72.8906H189.082V80.4746H190.973V72.4824H193.25V91.9043ZM213.273 85.2441H205.561V91.8828H203.197V85.2441H195.57V83.3105H213.273V85.2441ZM211.641 75.4688H205.808C205.858 76.1777 206.162 76.8617 206.721 77.5205C207.279 78.1722 208.046 78.7308 209.02 79.1963C209.993 79.6618 211.104 79.9733 212.35 80.1309L211.49 82C209.843 81.7708 208.4 81.2982 207.161 80.582C205.929 79.8659 205.016 78.9779 204.422 77.918C203.827 78.9707 202.914 79.8587 201.683 80.582C200.451 81.2982 199.022 81.7708 197.396 82L196.494 80.1309C197.733 79.9733 198.836 79.6618 199.803 79.1963C200.777 78.7308 201.543 78.1722 202.102 77.5205C202.667 76.8617 202.979 76.1777 203.036 75.4688H197.203V73.5781H211.641V75.4688ZM220.643 77.5742C220.643 78.6628 220.771 79.7191 221.029 80.7432C221.294 81.7673 221.706 82.7054 222.265 83.5576C222.823 84.4098 223.521 85.1009 224.359 85.6309L223.049 87.457C222.204 86.9486 221.488 86.2682 220.9 85.416C220.313 84.5566 219.851 83.5719 219.515 82.4619C219.149 83.6722 218.652 84.7464 218.021 85.6846C217.391 86.6227 216.632 87.3639 215.744 87.9082L214.262 86.125C215.171 85.5736 215.93 84.8503 216.539 83.9551C217.148 83.0599 217.599 82.0752 217.893 81.001C218.193 79.9268 218.344 78.8203 218.344 77.6816V74.2012H220.643V77.5742ZM231.342 91.9043H229.043V72.4824H231.342V91.9043ZM227.303 90.959H225.047V81.1406H222.275V79.1641H225.047V72.8262H227.303V90.959ZM251.344 89.541H233.598V87.5859H237.701V82.6768C236.913 82.2184 236.301 81.6491 235.864 80.9688C235.435 80.2884 235.223 79.5221 235.23 78.6699C235.223 77.6602 235.528 76.765 236.144 75.9844C236.759 75.2038 237.615 74.6022 238.711 74.1797C239.807 73.75 241.046 73.5352 242.428 73.5352C243.817 73.5352 245.06 73.75 246.155 74.1797C247.258 74.6022 248.118 75.2038 248.733 75.9844C249.356 76.7578 249.668 77.653 249.668 78.6699C249.668 79.5007 249.457 80.2562 249.034 80.9365C248.619 81.6097 248.028 82.1719 247.262 82.623V87.5859H251.344V89.541ZM242.428 75.4258C241.461 75.4258 240.609 75.5583 239.871 75.8232C239.141 76.0811 238.571 76.4535 238.163 76.9404C237.762 77.4274 237.565 78.0039 237.572 78.6699C237.565 79.3288 237.762 79.9017 238.163 80.3887C238.571 80.8757 239.144 81.2516 239.882 81.5166C240.619 81.7816 241.468 81.9141 242.428 81.9141C243.387 81.9141 244.236 81.7816 244.974 81.5166C245.718 81.2516 246.295 80.8757 246.703 80.3887C247.118 79.9017 247.326 79.3288 247.326 78.6699C247.326 78.0111 247.118 77.4382 246.703 76.9512C246.295 76.457 245.722 76.0811 244.984 75.8232C244.247 75.5583 243.395 75.4258 242.428 75.4258ZM244.834 87.5859V83.5361C244.075 83.7008 243.273 83.7832 242.428 83.7832C241.618 83.7832 240.831 83.7044 240.064 83.5469V87.5859H244.834Z" fill="#E8E4DC"/>
</g>
<g id="DestinationField">
<g id="Paragraph">
<path id="&#236;&#151;&#172;&#237;&#150;&#137;&#236;&#167;&#128;" d="M35.958 127.749C36.514 127.749 37.0153 127.897 37.4619 128.193C37.9131 128.49 38.2777 128.911 38.5557 129.458H41.4404V126.847H42.9443V139.22H41.4404V134.544H38.665C38.3962 135.159 38.027 135.638 37.5576 135.979C37.0882 136.317 36.555 136.485 35.958 136.485C35.3382 136.485 34.7891 136.308 34.3105 135.952C33.832 135.597 33.4583 135.089 33.1895 134.428C32.9206 133.767 32.7861 132.994 32.7861 132.11C32.7861 131.235 32.9206 130.47 33.1895 129.813C33.4583 129.153 33.832 128.645 34.3105 128.289C34.7936 127.929 35.3428 127.749 35.958 127.749ZM35.958 129.116C35.6162 129.116 35.3154 129.237 35.0557 129.479C34.7959 129.715 34.5954 130.06 34.4541 130.511C34.3128 130.957 34.2445 131.491 34.249 132.11C34.2445 132.735 34.3128 133.272 34.4541 133.724C34.5954 134.175 34.7959 134.521 35.0557 134.763C35.3154 135 35.6162 135.118 35.958 135.118C36.2998 135.118 36.5983 135 36.8535 134.763C37.1133 134.521 37.3138 134.175 37.4551 133.724C37.6009 133.272 37.6761 132.735 37.6807 132.11C37.6761 131.491 37.6009 130.955 37.4551 130.504C37.3138 130.053 37.1133 129.709 36.8535 129.472C36.5983 129.235 36.2998 129.116 35.958 129.116ZM38.9795 130.702C39.0706 131.144 39.1162 131.614 39.1162 132.11C39.1162 132.521 39.0843 132.922 39.0205 133.313H41.4404V130.702H38.9795ZM55.249 134.612H53.7998V131.249H52.5967V134.202H51.1748V127.093H52.5967V130.019H53.7998V126.847H55.249V134.612ZM50.7646 129.376H44.6123V128.187H46.9502V126.956H48.4541V128.187H50.7646V129.376ZM47.7021 129.882C48.2217 129.882 48.6842 129.971 49.0898 130.148C49.4954 130.326 49.8122 130.577 50.04 130.9C50.2725 131.219 50.391 131.591 50.3955 132.015C50.391 132.438 50.2725 132.812 50.04 133.136C49.8122 133.455 49.4954 133.703 49.0898 133.881C48.6842 134.059 48.2217 134.147 47.7021 134.147C47.1917 134.147 46.7337 134.059 46.3281 133.881C45.9225 133.703 45.6058 133.452 45.3779 133.129C45.1546 132.805 45.0452 132.434 45.0498 132.015C45.0452 131.595 45.1546 131.224 45.3779 130.9C45.6058 130.577 45.9225 130.326 46.3281 130.148C46.7337 129.971 47.1917 129.882 47.7021 129.882ZM47.7021 130.976C47.3148 130.976 47.0003 131.069 46.7588 131.256C46.5218 131.443 46.4033 131.696 46.4033 132.015C46.4033 132.334 46.5218 132.587 46.7588 132.773C46.9958 132.96 47.3102 133.054 47.7021 133.054C48.0941 133.054 48.4108 132.96 48.6523 132.773C48.8939 132.587 49.0146 132.334 49.0146 132.015C49.0146 131.696 48.8939 131.443 48.6523 131.256C48.4108 131.069 48.0941 130.976 47.7021 130.976ZM51.0791 134.763C51.9587 134.763 52.7152 134.849 53.3486 135.022C53.9821 135.196 54.4674 135.451 54.8047 135.788C55.1419 136.121 55.3128 136.522 55.3174 136.991C55.3128 137.451 55.1396 137.846 54.7979 138.174C54.4606 138.507 53.9753 138.759 53.3418 138.933C52.7083 139.106 51.9541 139.192 51.0791 139.192C50.2041 139.192 49.4476 139.106 48.8096 138.933C48.1761 138.759 47.6885 138.507 47.3467 138.174C47.0094 137.846 46.8408 137.451 46.8408 136.991C46.8408 136.522 47.0094 136.121 47.3467 135.788C47.6885 135.451 48.1761 135.196 48.8096 135.022C49.443 134.849 50.1995 134.763 51.0791 134.763ZM51.0791 135.925C50.1904 135.916 49.5137 136.002 49.0488 136.185C48.5885 136.362 48.3584 136.631 48.3584 136.991C48.3584 137.333 48.5908 137.593 49.0557 137.771C49.5205 137.944 50.195 138.03 51.0791 138.03C51.9587 138.03 52.6286 137.944 53.0889 137.771C53.5537 137.593 53.7861 137.333 53.7861 136.991C53.7861 136.631 53.5537 136.362 53.0889 136.185C52.6286 136.002 51.9587 135.916 51.0791 135.925ZM61.4424 130.36C61.4424 131.039 61.57 131.712 61.8252 132.377C62.085 133.038 62.4541 133.632 62.9326 134.161C63.4157 134.685 63.9808 135.082 64.6279 135.351L63.7939 136.554C63.0785 136.248 62.4564 135.79 61.9277 135.18C61.3991 134.569 60.9889 133.86 60.6973 133.054C60.4056 133.92 59.9932 134.688 59.46 135.357C58.9313 136.023 58.3115 136.522 57.6006 136.854L56.7256 135.665C57.359 135.373 57.915 134.945 58.3936 134.38C58.8766 133.815 59.248 133.181 59.5078 132.479C59.7676 131.773 59.8975 131.067 59.8975 130.36V129.321H57.1768V128.063H64.1494V129.321H61.4424V130.36ZM67.0615 139.206H65.5303V126.847H67.0615V139.206Z" fill="#B8B5AE"/>
</g>
<g id="Container_2" filter="url(#filter0_dd_121_5064)">
<path d="M32.1709 169.986C32.1709 161.149 39.3343 153.986 48.1709 153.986H361.513C370.349 153.986 377.513 161.149 377.513 169.986V192.96C377.513 201.796 370.349 208.96 361.513 208.96H48.1709C39.3344 208.96 32.1709 201.796 32.1709 192.96V169.986Z" fill="#262B28"/>
<path d="M48.1709 154.486H361.513C370.073 154.486 377.013 161.425 377.013 169.986V192.959C377.013 201.52 370.073 208.459 361.513 208.459H48.1709C39.6105 208.459 32.6709 201.52 32.6709 192.959V169.986C32.6709 161.425 39.6105 154.486 48.1709 154.486Z" stroke="#373F3B"/>
<g id="Text Input">
<path id="&#236;&#151;&#172;&#237;&#150;&#137;&#236;&#167;&#128;&#235;&#165;&#188; &#236;&#158;&#133;&#235;&#160;&#165;&#237;&#149;&#152;&#236;&#132;&#184;&#236;&#154;&#148;" d="M55.7197 175.501C56.9209 175.501 57.9097 176.167 58.5029 177.332H61.5938V174.534H63.2051V187.791H61.5938V182.781H58.6201C58.0488 184.1 57.0015 184.861 55.7197 184.861C53.7275 184.861 52.3213 183.06 52.3213 180.174C52.3213 177.317 53.7275 175.501 55.7197 175.501ZM55.7197 176.966C54.6211 176.966 53.874 178.152 53.8887 180.174C53.874 182.21 54.6211 183.396 55.7197 183.396C56.8184 183.396 57.5508 182.21 57.5654 180.174C57.5508 178.152 56.8184 176.966 55.7197 176.966ZM58.957 178.665C59.0522 179.126 59.1035 179.632 59.1035 180.174C59.1035 180.635 59.0669 181.06 59.001 181.463H61.5938V178.665H58.957ZM76.3887 174.534V182.854H74.8359V179.251H73.5469V182.415H72.0234V174.798H73.5469V177.933H74.8359V174.534H76.3887ZM71.584 175.97V177.244H64.9922V175.97H67.4971V174.651H69.1084V175.97H71.584ZM68.3027 177.786C69.9873 177.786 71.1738 178.694 71.1885 180.071C71.1738 181.448 69.9873 182.356 68.3027 182.356C66.6475 182.356 65.4463 181.448 65.4609 180.071C65.4463 178.694 66.6475 177.786 68.3027 177.786ZM68.3027 178.958C67.4824 178.958 66.9111 179.383 66.9111 180.071C66.9111 180.76 67.4678 181.185 68.3027 181.185C69.1377 181.185 69.709 180.76 69.709 180.071C69.709 179.383 69.1377 178.958 68.3027 178.958ZM71.9209 183.016C74.748 183.016 76.4473 183.88 76.4619 185.403C76.4473 186.897 74.748 187.762 71.9209 187.762C69.0938 187.762 67.3799 186.897 67.3799 185.403C67.3799 183.88 69.0938 183.016 71.9209 183.016ZM71.9209 184.261C70.0312 184.246 69.0059 184.627 69.0059 185.403C69.0059 186.136 70.0312 186.517 71.9209 186.517C73.7959 186.517 74.8213 186.136 74.8213 185.403C74.8213 184.627 73.7959 184.246 71.9209 184.261ZM83.0244 178.299C83.0244 180.467 84.2988 182.752 86.4375 183.646L85.5439 184.935C83.9766 184.261 82.834 182.869 82.2334 181.185C81.6182 183.001 80.4609 184.524 78.9082 185.257L77.9707 183.982C80.0654 183.016 81.3691 180.555 81.3691 178.299V177.186H78.4541V175.838H85.9248V177.186H83.0244V178.299ZM89.0449 174.534V187.776H87.4043V174.534H89.0449ZM103.078 180.54V181.771H90.9785V180.54H103.078ZM101.613 182.562V185.579H94.0254V186.502H102.009V187.63H92.3994V184.524H100.002V183.704H92.3848V182.562H101.613ZM101.584 174.827V177.815H94.1279V178.68H101.818V179.793H92.5166V176.761H99.958V175.955H92.4727V174.827H101.584ZM118.547 174.534V181.639H116.906V174.534H118.547ZM111.398 182.254V183.616H116.921V182.254H118.547V187.615H109.787V182.254H111.398ZM111.398 186.297H116.921V184.891H111.398V186.297ZM111.325 175.12C113.361 175.105 114.885 176.38 114.885 178.226C114.885 180.027 113.361 181.302 111.325 181.302C109.274 181.302 107.751 180.027 107.751 178.226C107.751 176.38 109.274 175.105 111.325 175.12ZM111.325 176.482C110.168 176.482 109.333 177.156 109.348 178.226C109.333 179.28 110.168 179.954 111.325 179.969C112.468 179.954 113.288 179.28 113.288 178.226C113.288 177.156 112.468 176.482 111.325 176.482ZM126.809 175.325V179.31H122.634V180.936C124.758 180.943 125.981 180.877 127.38 180.613L127.541 181.932C125.959 182.195 124.582 182.239 121.989 182.239H121.022V178.094H125.183V176.614H120.993V175.325H126.809ZM131.569 174.549V182.693H129.943V180.511H127.6V179.207H129.943V177.728H127.6V176.424H129.943V174.549H131.569ZM131.569 183.323V187.776H129.943V184.627H122.517V183.323H131.569ZM143.815 174.534V179.808H145.852V181.155H143.815V187.776H142.204V174.534H143.815ZM141.179 176.57V177.874H133.371V176.57H136.506V174.725H138.132V176.57H141.179ZM137.326 178.738C139.23 178.738 140.651 180.027 140.651 181.858C140.651 183.689 139.23 184.964 137.326 184.964C135.393 184.964 133.972 183.689 133.986 181.858C133.972 180.027 135.393 178.738 137.326 178.738ZM137.326 180.071C136.286 180.071 135.539 180.774 135.539 181.858C135.539 182.942 136.286 183.631 137.326 183.616C138.337 183.631 139.084 182.942 139.099 181.858C139.084 180.774 138.337 180.071 137.326 180.071ZM150.539 178.006C150.539 180.145 151.286 182.371 153.073 183.499L152.18 184.744C150.986 184.026 150.209 182.789 149.777 181.331C149.294 182.935 148.444 184.29 147.199 185.052L146.188 183.836C148.107 182.664 148.972 180.335 148.972 178.079V175.706H150.539V178.006ZM157.834 174.534V187.776H156.267V174.534H157.834ZM155.08 174.769V187.132H153.542V180.438H151.652V179.09H153.542V174.769H155.08ZM171.472 184.832V186.165H159.372V184.832H162.17V181.478C161.115 180.877 160.478 179.932 160.485 178.753C160.471 176.644 162.551 175.252 165.393 175.252C168.249 175.252 170.329 176.644 170.329 178.753C170.329 179.91 169.714 180.84 168.688 181.448V184.832H171.472ZM165.393 176.541C163.415 176.541 162.067 177.376 162.082 178.753C162.067 180.115 163.415 180.965 165.393 180.965C167.37 180.965 168.732 180.115 168.732 178.753C168.732 177.376 167.37 176.541 165.393 176.541ZM163.781 184.832H167.033V182.063C166.528 182.181 165.979 182.239 165.393 182.239C164.821 182.239 164.279 182.181 163.781 182.078V184.832Z" fill="#7A7873"/>
</g>
<g id="Icon">
<path id="Vector" d="M347.191 187.305C350.872 187.305 353.856 184.321 353.856 180.64C353.856 176.959 350.872 173.975 347.191 173.975C343.51 173.975 340.526 176.959 340.526 180.64C340.526 184.321 343.51 187.305 347.191 187.305Z" stroke="#7A7873" stroke-width="1.66623" stroke-linecap="round" stroke-linejoin="round"/>
<path id="Vector_2" d="M355.522 188.971L351.94 185.389" stroke="#7A7873" stroke-width="1.66623" stroke-linecap="round" stroke-linejoin="round"/>
</g>
</g>
</g>
<g id="DateField">
<g id="Paragraph_2">
<path id="&#235;&#130;&#160;&#236;&#167;&#156;" d="M42.3291 240.221H44.0518V241.479H42.3291V243.967H40.8115V237.814H42.3291V240.221ZM34.6455 242.265C36.4137 242.242 38.0954 242.076 39.6904 241.766L39.8682 243.01C38.9476 243.197 38.0407 243.331 37.1475 243.413C36.2542 243.491 35.3473 243.529 34.4268 243.529H34.1396H33.1143V238.361H34.6455V242.265ZM42.3291 247.781H35.7803V248.793H42.7119V250.023H34.2627V246.619H40.7979V245.703H34.249V244.5H42.3291V247.781ZM54.7295 242.559H56.2334V243.83H54.7295V250.174H53.2119V237.814H54.7295V242.559ZM47.7021 241.123C47.7021 241.998 47.7751 242.823 47.9209 243.598C48.0667 244.372 48.3402 245.056 48.7412 245.648C49.1331 245.061 49.402 244.379 49.5479 243.604C49.6937 242.825 49.7666 241.998 49.7666 241.123V240.18H48.9736V238.949H52.4189V240.18H51.2158V241.123C51.2158 242.303 51.348 243.358 51.6123 244.288C51.8766 245.218 52.3597 245.94 53.0615 246.455L52.0908 247.549C51.3298 246.965 50.7874 246.038 50.4639 244.767C50.1266 246.093 49.5479 247.057 48.7275 247.658C47.9255 247.061 47.3535 246.097 47.0117 244.767C46.6836 246.038 46.1436 246.965 45.3916 247.549L44.4209 246.455C45.1227 245.936 45.6058 245.209 45.8701 244.274C46.1344 243.336 46.2666 242.285 46.2666 241.123V240.18H44.8857V238.949H48.4951V240.18H47.7021V241.123Z" fill="#B8B5AE"/>
</g>
<g id="Frame 66">
<g id="Button" filter="url(#filter1_dd_121_5064)">
<path d="M32 280.954C32 272.117 39.1634 264.954 48 264.954H361.342C370.178 264.954 377.342 272.117 377.342 280.954V303.927C377.342 312.764 370.178 319.927 361.342 319.927H48C39.1635 319.927 32 312.764 32 303.927V280.954Z" fill="#262B28"/>
<path d="M48 265.454H361.342C369.902 265.454 376.842 272.393 376.842 280.954V303.927C376.842 312.488 369.902 319.427 361.342 319.427H48C39.4396 319.427 32.5 312.488 32.5 303.927V280.954C32.5 272.393 39.4396 265.454 48 265.454Z" stroke="#373F3B"/>
<g id="Paragraph_3">
<path id="4 &#236;&#155;&#148; 10 &#236;&#157;&#188; ~ 4 &#236;&#155;&#148; 12 &#236;&#157;&#188;" d="M49.6885 293.938L54.2734 286.833H56.6465V293.894H58.0381V295.461H56.6465V297.438H54.8301V295.461H49.6885V293.938ZM54.8594 293.894V289.001H54.7422L51.6367 293.82V293.894H54.8594ZM73.7852 293.234H72.1445V292.692H69.6689V291.696H72.1445V285.515H73.7852V293.234ZM62.667 290.29C64.3125 290.29 65.8384 290.271 67.2446 290.231C68.6509 290.192 69.9912 290.109 71.2656 289.982L71.3535 291.008C70.2354 291.164 69.0098 291.274 67.6768 291.337V293.249H66.0654V291.403C65.4893 291.423 64.6543 291.433 63.5605 291.433H62.8428L62.667 290.29ZM73.7852 296.618H66.2559V297.468H74.1367V298.625H64.6592V295.549H72.1738V294.758H64.6006V293.645H73.7852V296.618ZM66.9443 285.72C67.5938 285.72 68.1675 285.803 68.6655 285.969C69.1685 286.135 69.5591 286.369 69.8374 286.672C70.1157 286.97 70.2549 287.316 70.2549 287.712C70.2549 288.117 70.1157 288.469 69.8374 288.767C69.5591 289.064 69.1709 289.294 68.6729 289.455C68.1748 289.611 67.5986 289.689 66.9443 289.689C66.2754 289.689 65.6895 289.611 65.1865 289.455C64.6836 289.294 64.293 289.064 64.0146 288.767C63.7412 288.469 63.6045 288.117 63.6045 287.712C63.6045 287.316 63.7437 286.97 64.022 286.672C64.3003 286.369 64.6909 286.135 65.1938 285.969C65.6968 285.803 66.2803 285.72 66.9443 285.72ZM66.9443 286.804C66.3877 286.804 65.9482 286.887 65.626 287.053C65.3037 287.214 65.1475 287.434 65.1572 287.712C65.1523 287.99 65.3086 288.21 65.626 288.371C65.9482 288.527 66.3877 288.605 66.9443 288.605C67.4912 288.605 67.9258 288.527 68.248 288.371C68.5703 288.21 68.7314 287.99 68.7314 287.712C68.7314 287.434 68.5679 287.214 68.2407 287.053C67.9185 286.887 67.4863 286.804 66.9443 286.804ZM83.9512 297.438H82.0322V288.693H81.9736L79.498 290.275V288.532L82.1201 286.833H83.9512V297.438ZM90.4404 297.585C89.5908 297.585 88.8608 297.373 88.2505 296.948C87.645 296.518 87.1787 295.896 86.8516 295.08C86.5293 294.265 86.3682 293.283 86.3682 292.136C86.3682 290.993 86.5293 290.014 86.8516 289.199C87.1787 288.378 87.6475 287.756 88.2578 287.331C88.8682 286.901 89.5957 286.687 90.4404 286.687C91.2803 286.687 92.0054 286.901 92.6157 287.331C93.231 287.756 93.6997 288.378 94.022 289.199C94.3491 290.014 94.5127 290.993 94.5127 292.136C94.5127 293.283 94.3491 294.265 94.022 295.08C93.6997 295.896 93.2334 296.518 92.623 296.948C92.0176 297.373 91.29 297.585 90.4404 297.585ZM90.4404 295.988C90.8896 295.988 91.2729 295.844 91.5903 295.556C91.9126 295.263 92.1592 294.831 92.3301 294.26C92.5059 293.684 92.5938 292.976 92.5938 292.136C92.5938 291.306 92.5059 290.603 92.3301 290.026C92.1592 289.445 91.9126 289.008 91.5903 288.715C91.2681 288.417 90.8848 288.269 90.4404 288.269C89.9961 288.269 89.6128 288.417 89.2905 288.715C88.9683 289.008 88.7192 289.445 88.5435 290.026C88.3726 290.603 88.2871 291.306 88.2871 292.136C88.2871 292.976 88.3726 293.684 88.5435 294.26C88.7192 294.831 88.9658 295.263 89.2832 295.556C89.6055 295.844 89.9912 295.988 90.4404 295.988ZM102.979 285.925C103.644 285.925 104.242 286.054 104.774 286.313C105.306 286.567 105.724 286.921 106.026 287.375C106.334 287.829 106.49 288.342 106.495 288.913C106.49 289.489 106.334 290.004 106.026 290.458C105.724 290.913 105.306 291.267 104.774 291.521C104.242 291.774 103.644 291.901 102.979 291.901C102.311 291.901 101.708 291.774 101.17 291.521C100.638 291.267 100.221 290.913 99.918 290.458C99.6152 290.004 99.4639 289.489 99.4639 288.913C99.4639 288.342 99.6152 287.829 99.918 287.375C100.221 286.921 100.641 286.567 101.178 286.313C101.715 286.054 102.315 285.925 102.979 285.925ZM102.979 287.272C102.608 287.272 102.276 287.341 101.983 287.478C101.69 287.609 101.461 287.8 101.295 288.049C101.129 288.293 101.046 288.581 101.046 288.913C101.046 289.25 101.129 289.545 101.295 289.799C101.461 290.048 101.69 290.241 101.983 290.378C102.276 290.515 102.608 290.583 102.979 290.583C103.351 290.583 103.683 290.515 103.976 290.378C104.269 290.241 104.498 290.048 104.664 289.799C104.83 289.545 104.913 289.25 104.913 288.913C104.913 288.581 104.83 288.293 104.664 288.049C104.498 287.8 104.269 287.609 103.976 287.478C103.683 287.341 103.351 287.272 102.979 287.272ZM110.26 292.194H108.619V285.5H110.26V292.194ZM110.26 296.223H103.097V297.292H110.655V298.581H101.5V295.021H108.634V294.04H101.471V292.766H110.26V296.223ZM116.72 291.74C116.959 291.477 117.23 291.276 117.533 291.14C117.835 291.003 118.155 290.935 118.492 290.935C118.751 290.935 119.002 290.969 119.247 291.037C119.491 291.101 119.801 291.203 120.177 291.345C120.538 291.481 120.841 291.584 121.085 291.652C121.334 291.721 121.588 291.755 121.847 291.755C122.53 291.755 123.106 291.477 123.575 290.92V292.517C123.336 292.785 123.065 292.988 122.762 293.125C122.464 293.256 122.145 293.322 121.803 293.322C121.544 293.322 121.288 293.288 121.034 293.22C120.78 293.146 120.475 293.044 120.118 292.912C119.762 292.78 119.457 292.68 119.203 292.612C118.954 292.539 118.702 292.502 118.448 292.502C117.765 292.502 117.188 292.78 116.72 293.337V291.74ZM129.229 293.938L133.814 286.833H136.188V293.894H137.579V295.461H136.188V297.438H134.371V295.461H129.229V293.938ZM134.4 293.894V289.001H134.283L131.178 293.82V293.894H134.4ZM153.326 293.234H151.686V292.692H149.21V291.696H151.686V285.515H153.326V293.234ZM142.208 290.29C143.854 290.29 145.379 290.271 146.786 290.231C148.192 290.192 149.532 290.109 150.807 289.982L150.895 291.008C149.776 291.164 148.551 291.274 147.218 291.337V293.249H145.606V291.403C145.03 291.423 144.195 291.433 143.102 291.433H142.384L142.208 290.29ZM153.326 296.618H145.797V297.468H153.678V298.625H144.2V295.549H151.715V294.758H144.142V293.645H153.326V296.618ZM146.485 285.72C147.135 285.72 147.708 285.803 148.207 285.969C148.709 286.135 149.1 286.369 149.378 286.672C149.657 286.97 149.796 287.316 149.796 287.712C149.796 288.117 149.657 288.469 149.378 288.767C149.1 289.064 148.712 289.294 148.214 289.455C147.716 289.611 147.14 289.689 146.485 289.689C145.816 289.689 145.23 289.611 144.728 289.455C144.225 289.294 143.834 289.064 143.556 288.767C143.282 288.469 143.146 288.117 143.146 287.712C143.146 287.316 143.285 286.97 143.563 286.672C143.841 286.369 144.232 286.135 144.735 285.969C145.238 285.803 145.821 285.72 146.485 285.72ZM146.485 286.804C145.929 286.804 145.489 286.887 145.167 287.053C144.845 287.214 144.688 287.434 144.698 287.712C144.693 287.99 144.85 288.21 145.167 288.371C145.489 288.527 145.929 288.605 146.485 288.605C147.032 288.605 147.467 288.527 147.789 288.371C148.111 288.21 148.272 287.99 148.272 287.712C148.272 287.434 148.109 287.214 147.782 287.053C147.459 286.887 147.027 286.804 146.485 286.804ZM163.492 297.438H161.573V288.693H161.515L159.039 290.275V288.532L161.661 286.833H163.492V297.438ZM166.07 296.062L169.82 292.443C170.226 292.038 170.538 291.706 170.758 291.447C170.982 291.184 171.153 290.925 171.271 290.671C171.388 290.412 171.446 290.139 171.446 289.851C171.446 289.528 171.368 289.245 171.212 289.001C171.056 288.757 170.838 288.569 170.56 288.437C170.287 288.305 169.977 288.239 169.63 288.239C169.269 288.239 168.951 288.312 168.678 288.459C168.409 288.601 168.202 288.806 168.055 289.074C167.909 289.338 167.838 289.646 167.843 289.997H166.026C166.021 289.338 166.173 288.759 166.48 288.261C166.788 287.758 167.215 287.37 167.762 287.097C168.314 286.823 168.941 286.687 169.645 286.687C170.357 286.687 170.987 286.818 171.534 287.082C172.086 287.346 172.513 287.712 172.816 288.181C173.124 288.645 173.277 289.172 173.277 289.763C173.277 290.173 173.197 290.568 173.036 290.949C172.879 291.33 172.611 291.752 172.23 292.216C171.849 292.675 171.31 293.234 170.611 293.894L168.722 295.769V295.842H173.438V297.438H166.07V296.062ZM181.979 285.925C182.643 285.925 183.241 286.054 183.773 286.313C184.305 286.567 184.723 286.921 185.025 287.375C185.333 287.829 185.489 288.342 185.494 288.913C185.489 289.489 185.333 290.004 185.025 290.458C184.723 290.913 184.305 291.267 183.773 291.521C183.241 291.774 182.643 291.901 181.979 291.901C181.31 291.901 180.707 291.774 180.169 291.521C179.637 291.267 179.22 290.913 178.917 290.458C178.614 290.004 178.463 289.489 178.463 288.913C178.463 288.342 178.614 287.829 178.917 287.375C179.22 286.921 179.64 286.567 180.177 286.313C180.714 286.054 181.314 285.925 181.979 285.925ZM181.979 287.272C181.607 287.272 181.275 287.341 180.982 287.478C180.689 287.609 180.46 287.8 180.294 288.049C180.128 288.293 180.045 288.581 180.045 288.913C180.045 289.25 180.128 289.545 180.294 289.799C180.46 290.048 180.689 290.241 180.982 290.378C181.275 290.515 181.607 290.583 181.979 290.583C182.35 290.583 182.682 290.515 182.975 290.378C183.268 290.241 183.497 290.048 183.663 289.799C183.829 289.545 183.912 289.25 183.912 288.913C183.912 288.581 183.829 288.293 183.663 288.049C183.497 287.8 183.268 287.609 182.975 287.478C182.682 287.341 182.35 287.272 181.979 287.272ZM189.259 292.194H187.618V285.5H189.259V292.194ZM189.259 296.223H182.096V297.292H189.654V298.581H180.499V295.021H187.633V294.04H180.47V292.766H189.259V296.223Z" fill="#E8E4DC"/>
</g>
<g id="Icon_2">
<path id="Vector_3" d="M347.012 284.109V287.442" stroke="#7A7873" stroke-width="1.66623" stroke-linecap="round" stroke-linejoin="round"/>
<path id="Vector_4" d="M353.677 284.109V287.442" stroke="#7A7873" stroke-width="1.66623" stroke-linecap="round" stroke-linejoin="round"/>
<path id="Vector_5" d="M356.176 285.776H344.513C343.593 285.776 342.847 286.522 342.847 287.442V299.106C342.847 300.026 343.593 300.772 344.513 300.772H356.176C357.097 300.772 357.843 300.026 357.843 299.106V287.442C357.843 286.522 357.097 285.776 356.176 285.776Z" stroke="#7A7873" stroke-width="1.66623" stroke-linecap="round" stroke-linejoin="round"/>
<path id="Vector_6" d="M342.847 290.774H357.843" stroke="#7A7873" stroke-width="1.66623" stroke-linecap="round" stroke-linejoin="round"/>
</g>
</g>
<g id="CustomCalendar" filter="url(#filter2_dd_121_5064)">
<path d="M34.6748 351.927C34.6748 343.091 41.8382 335.927 50.6748 335.927H358.667C367.503 335.927 374.667 343.091 374.667 351.927V739.523C374.667 748.36 367.503 755.523 358.667 755.523H50.6748C41.8382 755.523 34.6748 748.36 34.6748 739.523V351.927Z" fill="#262B28"/>
<path d="M50.6748 336.427H358.667C367.227 336.427 374.167 343.367 374.167 351.927V739.524C374.167 748.084 367.227 755.024 358.667 755.024H50.6748C42.1145 755.024 35.1751 748.084 35.1748 739.524V351.927C35.1748 343.367 42.1144 336.427 50.6748 336.427Z" stroke="#373F3B"/>
<g id="Container_3">
<g id="Button_2">
<g id="Icon_3">
<path id="Vector_7" d="M79.1657 382.917L74.167 377.919L79.1657 372.92" stroke="#7A7873" stroke-width="1.66623" stroke-linecap="round" stroke-linejoin="round"/>
</g>
</g>
<g id="Heading 3">
<path id="2026&#235;&#133;&#132; 4&#236;&#155;&#148;" d="M164.911 383.167V381.698L168.911 377.839C170.051 376.698 170.645 376.026 170.645 375.073C170.645 374.026 169.817 373.354 168.708 373.354C167.536 373.354 166.786 374.089 166.801 375.229H164.864C164.848 373.089 166.458 371.698 168.723 371.698C171.036 371.698 172.598 373.073 172.598 374.979C172.598 376.261 171.973 377.292 169.754 379.386L167.739 381.386V381.464H172.77V383.167H164.911ZM178.723 383.323C176.004 383.323 174.379 381.214 174.379 377.511C174.379 373.823 176.004 371.698 178.723 371.698C181.426 371.698 183.067 373.823 183.067 377.511C183.067 381.214 181.442 383.323 178.723 383.323ZM178.723 381.62C180.145 381.62 181.02 380.229 181.02 377.511C181.02 374.808 180.129 373.386 178.723 373.386C177.317 373.386 176.426 374.808 176.426 377.511C176.426 380.229 177.301 381.62 178.723 381.62ZM184.77 383.167V381.698L188.77 377.839C189.911 376.698 190.504 376.026 190.504 375.073C190.504 374.026 189.676 373.354 188.567 373.354C187.395 373.354 186.645 374.089 186.661 375.229H184.723C184.708 373.089 186.317 371.698 188.583 371.698C190.895 371.698 192.458 373.073 192.458 374.979C192.458 376.261 191.833 377.292 189.614 379.386L187.598 381.386V381.464H192.629V383.167H184.77ZM198.645 383.323C196.442 383.308 194.223 381.995 194.239 377.823C194.239 373.948 196.004 371.698 198.77 371.698C200.958 371.698 202.458 373.073 202.708 374.901H200.692C200.489 374.042 199.801 373.464 198.77 373.464C197.129 373.464 196.208 374.917 196.208 377.292H196.317C196.895 376.323 197.989 375.745 199.223 375.745C201.254 375.745 202.817 377.276 202.817 379.417C202.817 381.667 201.145 383.339 198.645 383.323ZM198.645 381.683C199.911 381.683 200.848 380.698 200.848 379.464C200.848 378.261 199.926 377.292 198.676 377.292C197.411 377.292 196.442 378.292 196.426 379.479C196.442 380.667 197.364 381.683 198.645 381.683ZM215.895 370.448V380.854H214.161V376.151H210.473V374.776H214.161V373.495H210.473V372.12H214.161V370.448H215.895ZM216.254 382.87V384.276H206.614V379.933H208.364V382.87H216.254ZM206.598 371.386V377.495C208.395 377.472 210.09 377.362 211.989 377.026L212.161 378.433C209.989 378.839 208.083 378.917 205.989 378.933H204.879V371.386H206.598ZM221.958 381.058V379.433L226.848 371.854H229.379V379.386H230.864V381.058H229.379V383.167H227.442V381.058H221.958ZM224.036 379.386H227.473V374.167H227.348L224.036 379.308V379.386ZM243.864 370.448V378.683H242.114V378.104H239.473V377.042H242.114V370.448H243.864ZM232.004 375.542C234.739 375.542 238.145 375.511 241.176 375.214L241.27 376.308C239.981 376.487 238.653 376.597 237.348 376.651V378.698H235.629V376.729C234.418 376.761 233.254 376.769 232.192 376.761L232.004 375.542ZM243.864 379.12V382.292H235.833V383.198H244.239V384.433H234.129V381.151H242.145V380.308H234.067V379.12H243.864ZM236.567 370.667C238.661 370.667 240.098 371.511 240.098 372.792C240.098 374.104 238.661 374.901 236.567 374.901C234.426 374.901 233.004 374.104 233.004 372.792C233.004 371.511 234.426 370.667 236.567 370.667ZM236.567 371.823C235.379 371.823 234.645 372.198 234.661 372.792C234.645 373.386 235.379 373.745 236.567 373.745C237.723 373.745 238.473 373.386 238.473 372.792C238.473 372.198 237.723 371.823 236.567 371.823Z" fill="#E8E4DC"/>
</g>
<g id="Button_3">
<g id="Icon_4">
<path id="Vector_8" d="M330.177 382.917L335.175 377.919L330.177 372.92" stroke="#7A7873" stroke-width="1.66623" stroke-linecap="round" stroke-linejoin="round"/>
</g>
</g>
</g>
<g id="Container_4">
<g id="Container_5">
<path id="&#236;&#157;&#188;" d="M76.2075 432.425C77.9468 432.425 79.2417 433.504 79.2544 435.015C79.2417 436.539 77.9468 437.605 76.2075 437.605C74.4556 437.605 73.1606 436.539 73.1606 435.015C73.1606 433.504 74.4556 432.425 76.2075 432.425ZM76.2075 433.593C75.2427 433.593 74.5317 434.139 74.5317 435.015C74.5317 435.904 75.2427 436.462 76.2075 436.462C77.1724 436.462 77.8833 435.904 77.8833 435.015C77.8833 434.139 77.1724 433.593 76.2075 433.593ZM82.5171 432.057V437.859H81.0952V432.057H82.5171ZM82.5171 438.354V441.35H76.3091V442.277H82.8599V443.394H74.9253V440.309H81.1079V439.458H74.8999V438.354H82.5171Z" fill="#4A7C59"/>
</g>
<g id="Container_6">
<path id="&#236;&#155;&#148;" d="M124.864 432.07V438.76H123.442V438.291H121.297V437.427H123.442V432.07H124.864ZM115.229 436.208C117.45 436.208 120.218 436.183 122.681 435.942L122.757 436.831C121.709 436.977 120.63 437.065 119.57 437.11V438.773H118.174V437.173C117.19 437.199 116.244 437.205 115.381 437.199L115.229 436.208ZM124.864 439.116V441.693H118.339V442.429H125.169V443.432H116.955V440.766H123.468V440.081H116.904V439.116H124.864ZM118.936 432.248C120.637 432.248 121.805 432.933 121.805 433.974C121.805 435.041 120.637 435.688 118.936 435.688C117.196 435.688 116.041 435.041 116.041 433.974C116.041 432.933 117.196 432.248 118.936 432.248ZM118.936 433.187C117.971 433.187 117.374 433.492 117.387 433.974C117.374 434.457 117.971 434.749 118.936 434.749C119.875 434.749 120.484 434.457 120.484 433.974C120.484 433.492 119.875 433.187 118.936 433.187Z" fill="#4A7C59"/>
</g>
<g id="Container_7">
<path id="&#237;&#153;&#148;" d="M166.603 432.057V436.792H168.215V437.973H166.603V443.534H165.181V432.057H166.603ZM157.386 440.347C158.255 440.347 159.265 440.347 160.318 440.322V439.243C159.068 439.033 158.249 438.246 158.262 437.173C158.249 435.878 159.392 435.015 161.042 435.015C162.667 435.015 163.822 435.878 163.835 437.173C163.822 438.252 162.991 439.04 161.74 439.243V440.271C162.705 440.22 163.67 440.144 164.571 440.017L164.66 441.045C162.197 441.49 159.544 441.515 157.589 441.515L157.386 440.347ZM164.444 433.377V434.495H157.602V433.377H160.318V432.108H161.74V433.377H164.444ZM161.042 436.094C160.166 436.107 159.595 436.5 159.595 437.173C159.595 437.833 160.166 438.227 161.042 438.214C161.905 438.227 162.477 437.833 162.477 437.173C162.477 436.5 161.905 436.107 161.042 436.094Z" fill="#4A7C59"/>
</g>
<g id="Container_8">
<path id="&#236;&#136;&#152;" d="M205.789 433.009C205.789 434.457 207.401 435.917 209.851 436.234L209.292 437.376C207.344 437.084 205.795 436.126 205.052 434.825C204.297 436.126 202.754 437.084 200.825 437.376L200.266 436.234C202.691 435.917 204.303 434.457 204.303 433.009V432.425H205.789V433.009ZM210.27 438.367V439.535H205.712V443.534H204.316V439.535H199.809V438.367H210.27Z" fill="#4A7C59"/>
</g>
<g id="Container_9">
<path id="&#235;&#170;&#169;" d="M251.221 432.527V436.513H248.022V437.719H252.554V438.862H242.093V437.719H246.6V436.513H243.414V432.527H251.221ZM244.785 433.631V435.396H249.825V433.631H244.785ZM251.272 439.827V443.534H249.863V440.944H243.249V439.827H251.272Z" fill="#4A7C59"/>
</g>
<g id="Container_10">
<path id="&#234;&#184;&#136;" d="M293.581 432.616V433.504C293.581 434.393 293.581 435.409 293.302 436.767H294.863V437.91H284.377V436.767H291.88C292.146 435.529 292.172 434.583 292.172 433.746H285.672V432.616H293.581ZM293.568 439.243V443.394H285.634V439.243H293.568ZM287.018 440.347V442.251H292.172V440.347H287.018Z" fill="#4A7C59"/>
</g>
<g id="Container_11">
<path id="&#237;&#134;&#160;" d="M335.992 437.833V438.963H332.602V441.058H337.147V442.188H326.661V441.058H331.18V438.963H327.943V432.908H335.89V434.05H329.377V435.345H335.624V436.462H329.377V437.833H335.992Z" fill="#4A7C59"/>
</g>
</g>
<g id="Container_12">
<g id="Button_4">
<path id="1" d="M206.584 477.481V487.38H204.793V479.218H204.739L202.428 480.694V479.067L204.875 477.481H206.584Z" fill="#E8E4DC"/>
</g>
<g id="Button_5">
<path id="2" d="M243.837 487.38V486.095L247.337 482.718C248.335 481.72 248.855 481.132 248.855 480.298C248.855 479.382 248.13 478.794 247.16 478.794C246.134 478.794 245.478 479.437 245.492 480.435H243.796C243.783 478.562 245.191 477.345 247.173 477.345C249.197 477.345 250.564 478.548 250.564 480.216C250.564 481.337 250.017 482.239 248.076 484.071L246.312 485.821V485.89H250.714V487.38H243.837Z" fill="#E8E4DC"/>
</g>
<g id="Button_6">
<path id="3" d="M289.301 487.517C287.182 487.517 285.678 486.368 285.637 484.7H287.428C287.482 485.493 288.275 486.013 289.301 486.013C290.395 486.013 291.174 485.411 291.174 484.536C291.174 483.647 290.408 483.005 289.123 483.005H288.234V481.638H289.123C290.176 481.638 290.914 481.05 290.9 480.188C290.914 479.354 290.285 478.794 289.314 478.794C288.385 478.794 287.578 479.313 287.551 480.147H285.842C285.883 478.479 287.387 477.345 289.328 477.345C291.338 477.345 292.637 478.575 292.623 480.093C292.637 481.2 291.898 482.007 290.818 482.226V482.308C292.213 482.499 293.006 483.388 292.992 484.632C293.006 486.3 291.447 487.517 289.301 487.517Z" fill="#E8E4DC"/>
</g>
<g id="Button_7">
<path id="4" d="M328.122 485.534V484.112L332.401 477.481H334.616V484.071H335.915V485.534H334.616V487.38H332.921V485.534H328.122ZM329.94 484.071H332.948V479.505H332.839L329.94 484.003V484.071Z" fill="#E8E4DC"/>
</g>
<g id="Button_8">
<path id="5" d="M78.0073 531.498C76.0249 531.498 74.5757 530.322 74.521 528.682H76.2573C76.312 529.488 77.064 530.062 78.0073 530.062C79.1147 530.062 79.9077 529.256 79.9077 528.162C79.9077 527.027 79.0874 526.221 77.9526 526.221C77.187 526.207 76.6265 526.48 76.312 527.068H74.6577L75.2593 521.463H81.1108V522.953H76.7222L76.4214 525.578H76.5171C76.8999 525.141 77.6245 524.826 78.4312 524.826C80.2769 524.826 81.6304 526.207 81.6304 528.107C81.6304 530.09 80.1401 531.498 78.0073 531.498Z" fill="#E8E4DC"/>
</g>
<g id="Button_9">
<path id="6" d="M120.268 531.498C118.34 531.484 116.398 530.336 116.412 526.686C116.412 523.295 117.957 521.326 120.377 521.326C122.291 521.326 123.604 522.529 123.822 524.129H122.059C121.881 523.377 121.279 522.871 120.377 522.871C118.941 522.871 118.135 524.143 118.135 526.221H118.23C118.736 525.373 119.693 524.867 120.773 524.867C122.551 524.867 123.918 526.207 123.918 528.08C123.918 530.049 122.455 531.512 120.268 531.498ZM120.268 530.062C121.375 530.062 122.195 529.201 122.195 528.121C122.195 527.068 121.389 526.221 120.295 526.221C119.188 526.221 118.34 527.096 118.326 528.135C118.34 529.174 119.146 530.062 120.268 530.062Z" fill="#E8E4DC"/>
</g>
<g id="Button_10">
<path id="7" d="M159.63 531.361L163.923 523.021V522.953H158.947V521.463H165.769V522.98L161.476 531.361H159.63Z" fill="#E8E4DC"/>
</g>
<g id="Button_11">
<path id="8" d="M204.751 531.498C202.55 531.498 200.992 530.322 200.992 528.709C200.992 527.451 201.921 526.426 203.111 526.234V526.18C202.072 525.961 201.361 525.059 201.361 523.979C201.361 522.447 202.796 521.326 204.751 521.326C206.693 521.326 208.128 522.447 208.128 523.979C208.128 525.059 207.404 525.961 206.378 526.18V526.234C207.568 526.426 208.511 527.451 208.511 528.709C208.511 530.322 206.939 531.498 204.751 531.498ZM204.751 530.09C205.914 530.09 206.679 529.461 206.679 528.545C206.679 527.615 205.859 526.932 204.751 526.932C203.63 526.932 202.81 527.615 202.824 528.545C202.81 529.461 203.576 530.09 204.751 530.09ZM204.751 525.605C205.708 525.605 206.392 525.004 206.392 524.143C206.392 523.309 205.722 522.721 204.751 522.721C203.767 522.721 203.097 523.295 203.097 524.143C203.097 525.004 203.781 525.605 204.751 525.605Z" fill="#E8E4DC"/>
</g>
<g id="Button_12">
<path id="9" d="M246.928 521.326C248.87 521.34 250.784 522.488 250.797 526.111C250.797 529.529 249.252 531.498 246.819 531.498C244.905 531.498 243.592 530.309 243.374 528.668H245.137C245.315 529.447 245.917 529.953 246.819 529.953C248.254 529.953 249.061 528.682 249.075 526.562H248.965C248.459 527.424 247.516 527.93 246.422 527.93C244.659 527.93 243.292 526.59 243.278 524.717C243.278 522.775 244.727 521.312 246.928 521.326ZM246.942 522.762C245.834 522.762 245 523.623 245.014 524.676C245.014 525.742 245.807 526.576 246.915 526.576C248.008 526.576 248.87 525.688 248.856 524.662C248.856 523.65 248.049 522.762 246.942 522.762Z" fill="#E8E4DC"/>
</g>
<g id="Button_13" filter="url(#filter3_dd_121_5064)">
<path d="M269.135 518.369C269.135 511.742 274.508 506.369 281.135 506.369H297.035C303.663 506.369 309.035 511.742 309.035 518.369V536.369C309.035 542.997 303.663 548.369 297.035 548.369H281.135C274.508 548.369 269.135 542.997 269.135 536.369V518.369Z" fill="#5E9E72"/>
<path id="10" d="M286.286 530.457H285.042V521.844H284.987L282.581 523.443V522.199L285.042 520.559H286.286V530.457ZM292.165 530.594C291.436 530.594 290.812 530.396 290.292 529.999C289.777 529.603 289.383 529.024 289.109 528.263C288.84 527.502 288.706 526.583 288.706 525.508C288.706 524.446 288.843 523.535 289.116 522.773C289.39 522.008 289.786 521.424 290.306 521.023C290.825 520.622 291.445 520.422 292.165 520.422C292.885 520.422 293.505 520.622 294.024 521.023C294.544 521.424 294.94 522.008 295.214 522.773C295.487 523.535 295.624 524.446 295.624 525.508C295.624 526.583 295.487 527.502 295.214 528.263C294.945 529.024 294.551 529.603 294.031 529.999C293.512 530.396 292.89 530.594 292.165 530.594ZM292.165 529.5C292.639 529.5 293.045 529.345 293.382 529.035C293.719 528.725 293.977 528.272 294.154 527.675C294.332 527.078 294.421 526.355 294.421 525.508C294.421 524.66 294.332 523.936 294.154 523.334C293.977 522.732 293.719 522.274 293.382 521.96C293.045 521.646 292.639 521.488 292.165 521.488C291.691 521.488 291.283 521.646 290.941 521.96C290.604 522.274 290.344 522.732 290.162 523.334C289.984 523.936 289.896 524.66 289.896 525.508C289.896 526.355 289.984 527.078 290.162 527.675C290.34 528.272 290.597 528.725 290.935 529.035C291.276 529.345 291.687 529.5 292.165 529.5Z" fill="#262B28"/>
</g>
<g id="Button_14">
<path d="M312.376 519.369C312.376 512.742 317.749 507.369 324.376 507.369H338.668C345.296 507.369 350.668 512.742 350.668 519.369V535.359C350.668 541.986 345.296 547.359 338.668 547.359H324.376C317.749 547.359 312.376 541.986 312.376 535.359V519.369Z" fill="#C8DEC9"/>
<path id="11" d="M329.881 531.361H328.637V522.748H328.582L326.176 524.348V523.104L328.637 521.463H329.881V531.361ZM336.02 531.361H334.775V522.748H334.721L332.314 524.348V523.104L334.775 521.463H336.02V531.361Z" fill="#262B28"/>
</g>
<g id="Button_15" filter="url(#filter4_dd_121_5064)">
<path d="M57.7158 562.351C57.7158 555.723 63.0884 550.351 69.7158 550.351H85.6158C92.2432 550.351 97.6158 555.723 97.6158 562.351V580.351C97.6158 586.978 92.2432 592.351 85.6158 592.351H69.7158C63.0884 592.351 57.7158 586.978 57.7158 580.351V562.351Z" fill="#5E9E72"/>
<path id="12" d="M75.1265 574.438H73.8823V565.825H73.8276L71.4214 567.425V566.181L73.8823 564.54H75.1265V574.438ZM77.7515 573.536L81.1284 569.981C81.575 569.512 81.9146 569.134 82.147 568.847C82.384 568.555 82.5617 568.275 82.6802 568.006C82.8032 567.732 82.8647 567.448 82.8647 567.151C82.8647 566.823 82.7782 566.532 82.605 566.276C82.4318 566.021 82.1948 565.823 81.894 565.682C81.5978 565.54 81.2651 565.47 80.896 565.47C80.5086 565.47 80.1691 565.547 79.8774 565.702C79.5858 565.857 79.3602 566.076 79.2007 566.358C79.0457 566.641 78.9683 566.965 78.9683 567.329H77.8062C77.8016 566.755 77.9338 566.247 78.2026 565.805C78.4761 565.363 78.8521 565.019 79.3306 564.772C79.8091 564.526 80.3446 564.403 80.937 564.403C81.5249 564.403 82.0513 564.524 82.5161 564.766C82.9855 565.007 83.3524 565.338 83.6167 565.757C83.881 566.176 84.0132 566.641 84.0132 567.151C84.0132 567.53 83.9448 567.892 83.8081 568.238C83.6714 568.58 83.4412 568.961 83.1177 569.38C82.7987 569.795 82.3407 570.31 81.7437 570.925L79.4741 573.263V573.345H84.1909V574.438H77.7651L77.7515 573.536Z" fill="#262B28"/>
</g>
<g id="Button_16">
<path id="13" d="M117.668 565.444V575.343H115.877V567.181H115.823L113.512 568.657V567.03L115.959 565.444H117.668ZM123.67 575.479C121.551 575.479 120.047 574.331 120.006 572.663H121.797C121.852 573.456 122.645 573.976 123.67 573.976C124.764 573.976 125.543 573.374 125.543 572.499C125.543 571.61 124.778 570.968 123.493 570.968H122.604V569.601H123.493C124.545 569.601 125.284 569.013 125.27 568.151C125.284 567.317 124.655 566.757 123.684 566.757C122.754 566.757 121.948 567.276 121.92 568.11H120.211C120.252 566.442 121.756 565.308 123.698 565.308C125.708 565.308 127.006 566.538 126.993 568.056C127.006 569.163 126.268 569.97 125.188 570.188V570.271C126.583 570.462 127.375 571.351 127.362 572.595C127.375 574.263 125.817 575.479 123.67 575.479Z" fill="#E8E4DC"/>
</g>
<g id="Button_17">
<path id="14" d="M159.764 565.444V575.343H157.973V567.181H157.918L155.607 568.657V567.03L158.055 565.444H159.764ZM161.992 573.497V572.075L166.271 565.444H168.486V572.034H169.785V573.497H168.486V575.343H166.791V573.497H161.992ZM163.811 572.034H166.818V567.468H166.709L163.811 571.966V572.034Z" fill="#E8E4DC"/>
</g>
<g id="Button_18">
<path id="15" d="M202.444 565.444V575.343H200.653V567.181H200.599L198.288 568.657V567.03L200.735 565.444H202.444ZM208.364 575.479C206.382 575.479 204.933 574.304 204.878 572.663H206.614C206.669 573.47 207.421 574.044 208.364 574.044C209.472 574.044 210.265 573.237 210.265 572.144C210.265 571.009 209.444 570.202 208.31 570.202C207.544 570.188 206.983 570.462 206.669 571.05H205.015L205.616 565.444H211.468V566.935H207.079L206.778 569.56H206.874C207.257 569.122 207.981 568.808 208.788 568.808C210.634 568.808 211.987 570.188 211.987 572.089C211.987 574.071 210.497 575.479 208.364 575.479Z" fill="#E8E4DC"/>
</g>
<g id="Button_19">
<path id="16" d="M244.502 565.444V575.343H242.711V567.181H242.656L240.346 568.657V567.03L242.793 565.444H244.502ZM250.613 575.479C248.686 575.466 246.744 574.317 246.758 570.667C246.758 567.276 248.303 565.308 250.723 565.308C252.637 565.308 253.949 566.511 254.168 568.11H252.404C252.227 567.358 251.625 566.853 250.723 566.853C249.287 566.853 248.48 568.124 248.48 570.202H248.576C249.082 569.354 250.039 568.849 251.119 568.849C252.896 568.849 254.264 570.188 254.264 572.062C254.264 574.03 252.801 575.493 250.613 575.479ZM250.613 574.044C251.721 574.044 252.541 573.183 252.541 572.103C252.541 571.05 251.734 570.202 250.641 570.202C249.533 570.202 248.686 571.077 248.672 572.116C248.686 573.155 249.492 574.044 250.613 574.044Z" fill="#E8E4DC"/>
</g>
<g id="Button_20">
<path id="17" d="M287.2 565.444V575.343H285.409V567.181H285.354L283.044 568.657V567.03L285.491 565.444H287.2ZM289.976 575.343L294.269 567.003V566.935H289.292V565.444H296.114V566.962L291.821 575.343H289.976Z" fill="#E8E4DC"/>
</g>
<g id="Button_21">
<path id="18" d="M329.106 565.444V575.343H327.315V567.181H327.261L324.95 568.657V567.03L327.397 565.444H329.106ZM335.108 575.479C332.907 575.479 331.349 574.304 331.349 572.69C331.349 571.433 332.278 570.407 333.468 570.216V570.161C332.429 569.942 331.718 569.04 331.718 567.96C331.718 566.429 333.153 565.308 335.108 565.308C337.05 565.308 338.485 566.429 338.485 567.96C338.485 569.04 337.761 569.942 336.735 570.161V570.216C337.925 570.407 338.868 571.433 338.868 572.69C338.868 574.304 337.296 575.479 335.108 575.479ZM335.108 574.071C336.271 574.071 337.036 573.442 337.036 572.526C337.036 571.597 336.216 570.913 335.108 570.913C333.987 570.913 333.167 571.597 333.181 572.526C333.167 573.442 333.933 574.071 335.108 574.071ZM335.108 569.587C336.065 569.587 336.749 568.985 336.749 568.124C336.749 567.29 336.079 566.702 335.108 566.702C334.124 566.702 333.454 567.276 333.454 568.124C333.454 568.985 334.138 569.587 335.108 569.587Z" fill="#E8E4DC"/>
</g>
<g id="Button_22">
<path id="19" d="M75.3662 609.426V619.324H73.5752V611.162H73.5205L71.21 612.639V611.012L73.6572 609.426H75.3662ZM81.2861 609.289C83.2275 609.303 85.1416 610.451 85.1553 614.074C85.1553 617.492 83.6104 619.461 81.1768 619.461C79.2627 619.461 77.9502 618.271 77.7314 616.631H79.4951C79.6729 617.41 80.2744 617.916 81.1768 617.916C82.6123 617.916 83.4189 616.645 83.4326 614.525H83.3232C82.8174 615.387 81.874 615.893 80.7803 615.893C79.0166 615.893 77.6494 614.553 77.6357 612.68C77.6357 610.738 79.085 609.275 81.2861 609.289ZM81.2998 610.725C80.1924 610.725 79.3584 611.586 79.3721 612.639C79.3721 613.705 80.165 614.539 81.2725 614.539C82.3662 614.539 83.2275 613.65 83.2139 612.625C83.2139 611.613 82.4072 610.725 81.2998 610.725Z" fill="#E8E4DC"/>
</g>
<g id="Button_23">
<path id="20" d="M112.543 619.324V618.039L116.043 614.662C117.041 613.664 117.561 613.076 117.561 612.242C117.561 611.326 116.836 610.738 115.865 610.738C114.84 610.738 114.184 611.381 114.197 612.379H112.502C112.488 610.506 113.896 609.289 115.879 609.289C117.902 609.289 119.27 610.492 119.27 612.16C119.27 613.281 118.723 614.184 116.781 616.016L115.018 617.766V617.834H119.42V619.324H112.543ZM124.629 619.461C122.25 619.461 120.828 617.615 120.828 614.375C120.828 611.148 122.25 609.289 124.629 609.289C126.994 609.289 128.43 611.148 128.43 614.375C128.43 617.615 127.008 619.461 124.629 619.461ZM124.629 617.971C125.873 617.971 126.639 616.754 126.639 614.375C126.639 612.01 125.859 610.766 124.629 610.766C123.398 610.766 122.619 612.01 122.619 614.375C122.619 616.754 123.385 617.971 124.629 617.971Z" fill="#E8E4DC"/>
</g>
<g id="Button_24">
<path id="21" d="M155.837 619.324V618.039L159.337 614.662C160.335 613.664 160.855 613.076 160.855 612.242C160.855 611.326 160.13 610.738 159.16 610.738C158.134 610.738 157.478 611.381 157.492 612.379H155.796C155.783 610.506 157.191 609.289 159.173 609.289C161.197 609.289 162.564 610.492 162.564 612.16C162.564 613.281 162.017 614.184 160.076 616.016L158.312 617.766V617.834H162.714V619.324H155.837ZM168.292 609.426V619.324H166.501V611.162H166.447L164.136 612.639V611.012L166.583 609.426H168.292Z" fill="#E8E4DC"/>
</g>
<g id="Button_25">
<path id="22" d="M197.121 619.324V618.039L200.621 614.662C201.619 613.664 202.139 613.076 202.139 612.242C202.139 611.326 201.414 610.738 200.443 610.738C199.418 610.738 198.762 611.381 198.775 612.379H197.08C197.066 610.506 198.475 609.289 200.457 609.289C202.48 609.289 203.848 610.492 203.848 612.16C203.848 613.281 203.301 614.184 201.359 616.016L199.596 617.766V617.834H203.998V619.324H197.121ZM205.557 619.324V618.039L209.057 614.662C210.055 613.664 210.574 613.076 210.574 612.242C210.574 611.326 209.85 610.738 208.879 610.738C207.854 610.738 207.197 611.381 207.211 612.379H205.516C205.502 610.506 206.91 609.289 208.893 609.289C210.916 609.289 212.283 610.492 212.283 612.16C212.283 613.281 211.736 614.184 209.795 616.016L208.031 617.766V617.834H212.434V619.324H205.557Z" fill="#E8E4DC"/>
</g>
<g id="Button_26">
<path id="23" d="M239.49 619.324V618.039L242.99 614.662C243.988 613.664 244.507 613.076 244.507 612.242C244.507 611.326 243.783 610.738 242.812 610.738C241.787 610.738 241.13 611.381 241.144 612.379H239.449C239.435 610.506 240.843 609.289 242.826 609.289C244.849 609.289 246.216 610.492 246.216 612.16C246.216 613.281 245.669 614.184 243.728 616.016L241.964 617.766V617.834H246.367V619.324H239.49ZM251.521 619.461C249.402 619.461 247.898 618.312 247.857 616.645H249.648C249.703 617.438 250.496 617.957 251.521 617.957C252.615 617.957 253.394 617.355 253.394 616.48C253.394 615.592 252.628 614.949 251.343 614.949H250.455V613.582H251.343C252.396 613.582 253.134 612.994 253.121 612.133C253.134 611.299 252.505 610.738 251.535 610.738C250.605 610.738 249.798 611.258 249.771 612.092H248.062C248.103 610.424 249.607 609.289 251.548 609.289C253.558 609.289 254.857 610.52 254.843 612.037C254.857 613.145 254.119 613.951 253.039 614.17V614.252C254.433 614.443 255.226 615.332 255.212 616.576C255.226 618.244 253.667 619.461 251.521 619.461Z" fill="#E8E4DC"/>
</g>
<g id="Button_27">
<path id="24" d="M281.798 619.324V618.039L285.298 614.662C286.296 613.664 286.816 613.076 286.816 612.242C286.816 611.326 286.091 610.738 285.121 610.738C284.095 610.738 283.439 611.381 283.453 612.379H281.757C281.744 610.506 283.152 609.289 285.134 609.289C287.158 609.289 288.525 610.492 288.525 612.16C288.525 613.281 287.978 614.184 286.037 616.016L284.273 617.766V617.834H288.675V619.324H281.798ZM289.837 617.479V616.057L294.117 609.426H296.332V616.016H297.63V617.479H296.332V619.324H294.636V617.479H289.837ZM291.656 616.016H294.664V611.449H294.554L291.656 615.947V616.016Z" fill="#E8E4DC"/>
</g>
<g id="Button_28">
<path id="25" d="M324.265 619.324V618.039L327.765 614.662C328.763 613.664 329.282 613.076 329.282 612.242C329.282 611.326 328.558 610.738 327.587 610.738C326.562 610.738 325.905 611.381 325.919 612.379H324.224C324.21 610.506 325.618 609.289 327.601 609.289C329.624 609.289 330.991 610.492 330.991 612.16C330.991 613.281 330.444 614.184 328.503 616.016L326.739 617.766V617.834H331.142V619.324H324.265ZM336.214 619.461C334.231 619.461 332.782 618.285 332.728 616.645H334.464C334.519 617.451 335.271 618.025 336.214 618.025C337.321 618.025 338.114 617.219 338.114 616.125C338.114 614.99 337.294 614.184 336.159 614.184C335.394 614.17 334.833 614.443 334.519 615.031H332.864L333.466 609.426H339.317V610.916H334.929L334.628 613.541H334.724C335.106 613.104 335.831 612.789 336.638 612.789C338.483 612.789 339.837 614.17 339.837 616.07C339.837 618.053 338.347 619.461 336.214 619.461Z" fill="#E8E4DC"/>
</g>
<g id="Button_29">
<path id="26" d="M70.3472 663.306V662.021L73.8472 658.644C74.8452 657.646 75.3647 657.058 75.3647 656.224C75.3647 655.308 74.6401 654.72 73.6694 654.72C72.644 654.72 71.9878 655.362 72.0015 656.36H70.3062C70.2925 654.487 71.7007 653.271 73.6831 653.271C75.7065 653.271 77.0737 654.474 77.0737 656.142C77.0737 657.263 76.5269 658.165 74.5854 659.997L72.8218 661.747V661.815H77.2241V663.306H70.3472ZM82.4878 663.442C80.5601 663.429 78.6187 662.28 78.6323 658.63C78.6323 655.239 80.1772 653.271 82.5972 653.271C84.5112 653.271 85.8237 654.474 86.0425 656.073H84.2788C84.1011 655.321 83.4995 654.815 82.5972 654.815C81.1616 654.815 80.355 656.087 80.355 658.165H80.4507C80.9565 657.317 81.9136 656.812 82.9937 656.812C84.771 656.812 86.1382 658.151 86.1382 660.024C86.1382 661.993 84.6753 663.456 82.4878 663.442ZM82.4878 662.007C83.5952 662.007 84.4155 661.146 84.4155 660.065C84.4155 659.013 83.6089 658.165 82.5151 658.165C81.4077 658.165 80.5601 659.04 80.5464 660.079C80.5601 661.118 81.3667 662.007 82.4878 662.007Z" fill="#E8E4DC"/>
</g>
<g id="Button_30">
<path id="27" d="M113.045 663.306V662.021L116.545 658.644C117.543 657.646 118.063 657.058 118.063 656.224C118.063 655.308 117.338 654.72 116.368 654.72C115.342 654.72 114.686 655.362 114.7 656.36H113.004C112.991 654.487 114.399 653.271 116.381 653.271C118.405 653.271 119.772 654.474 119.772 656.142C119.772 657.263 119.225 658.165 117.284 659.997L115.52 661.747V661.815H119.922V663.306H113.045ZM121.85 663.306L126.143 654.966V654.897H121.167V653.407H127.989V654.925L123.696 663.306H121.85Z" fill="#E8E4DC"/>
</g>
<g id="Button_31">
<path id="28" d="M154.94 663.306V662.021L158.44 658.644C159.438 657.646 159.958 657.058 159.958 656.224C159.958 655.308 159.233 654.72 158.262 654.72C157.237 654.72 156.581 655.362 156.594 656.36H154.899C154.885 654.487 156.293 653.271 158.276 653.271C160.299 653.271 161.667 654.474 161.667 656.142C161.667 657.263 161.12 658.165 159.178 659.997L157.415 661.747V661.815H161.817V663.306H154.94ZM166.971 663.442C164.77 663.442 163.211 662.267 163.211 660.653C163.211 659.396 164.141 658.37 165.331 658.179V658.124C164.292 657.905 163.581 657.003 163.581 655.923C163.581 654.392 165.016 653.271 166.971 653.271C168.913 653.271 170.348 654.392 170.348 655.923C170.348 657.003 169.624 657.905 168.598 658.124V658.179C169.788 658.37 170.731 659.396 170.731 660.653C170.731 662.267 169.159 663.442 166.971 663.442ZM166.971 662.034C168.133 662.034 168.899 661.405 168.899 660.489C168.899 659.56 168.079 658.876 166.971 658.876C165.85 658.876 165.03 659.56 165.043 660.489C165.03 661.405 165.795 662.034 166.971 662.034ZM166.971 657.55C167.928 657.55 168.612 656.948 168.612 656.087C168.612 655.253 167.942 654.665 166.971 654.665C165.987 654.665 165.317 655.239 165.317 656.087C165.317 656.948 166 657.55 166.971 657.55Z" fill="#E8E4DC"/>
</g>
<g id="Button_32">
<path id="29" d="M197.199 663.306V662.021L200.699 658.644C201.697 657.646 202.216 657.058 202.216 656.224C202.216 655.308 201.492 654.72 200.521 654.72C199.496 654.72 198.839 655.362 198.853 656.36H197.158C197.144 654.487 198.552 653.271 200.535 653.271C202.558 653.271 203.925 654.474 203.925 656.142C203.925 657.263 203.378 658.165 201.437 659.997L199.673 661.747V661.815H204.076V663.306H197.199ZM209.148 653.271C211.089 653.284 213.003 654.433 213.017 658.056C213.017 661.474 211.472 663.442 209.039 663.442C207.125 663.442 205.812 662.253 205.593 660.612H207.357C207.535 661.392 208.136 661.897 209.039 661.897C210.474 661.897 211.281 660.626 211.294 658.507H211.185C210.679 659.368 209.736 659.874 208.642 659.874C206.878 659.874 205.511 658.534 205.498 656.661C205.498 654.72 206.947 653.257 209.148 653.271ZM209.162 654.706C208.054 654.706 207.22 655.567 207.234 656.62C207.234 657.687 208.027 658.521 209.134 658.521C210.228 658.521 211.089 657.632 211.076 656.606C211.076 655.595 210.269 654.706 209.162 654.706Z" fill="#E8E4DC"/>
</g>
<g id="Button_33">
<path id="30" d="M242.586 663.442C240.467 663.442 238.963 662.294 238.922 660.626H240.713C240.768 661.419 241.561 661.938 242.586 661.938C243.68 661.938 244.459 661.337 244.459 660.462C244.459 659.573 243.694 658.931 242.409 658.931H241.52V657.563H242.409C243.461 657.563 244.2 656.976 244.186 656.114C244.2 655.28 243.571 654.72 242.6 654.72C241.67 654.72 240.864 655.239 240.836 656.073H239.127C239.168 654.405 240.672 653.271 242.614 653.271C244.624 653.271 245.922 654.501 245.909 656.019C245.922 657.126 245.184 657.933 244.104 658.151V658.233C245.499 658.425 246.292 659.313 246.278 660.558C246.292 662.226 244.733 663.442 242.586 663.442ZM251.487 663.442C249.108 663.442 247.686 661.597 247.686 658.356C247.686 655.13 249.108 653.271 251.487 653.271C253.852 653.271 255.288 655.13 255.288 658.356C255.288 661.597 253.866 663.442 251.487 663.442ZM251.487 661.952C252.731 661.952 253.497 660.735 253.497 658.356C253.497 655.991 252.717 654.747 251.487 654.747C250.256 654.747 249.477 655.991 249.477 658.356C249.477 660.735 250.243 661.952 251.487 661.952Z" fill="#E8E4DC"/>
</g>
</g>
<g id="Container_13">
<mask id="path-91-inside-1_121_5064" fill="white">
<path d="M58.6733 695.293H350.669V731.525H58.6733V695.293Z"/>
</mask>
<path d="M58.6733 695.293V696.043H350.669V695.293V694.544H58.6733V695.293Z" fill="#373F3B" mask="url(#path-91-inside-1_121_5064)"/>
<g id="Paragraph_4">
<path id="4&#236;&#155;&#148; 10&#236;&#157;&#188; ~ 4&#236;&#155;&#148; 12&#236;&#157;&#188;" d="M153.604 724.009V726.034H152.525V724.009H148.31V723.12L152.404 717.09H153.604V723.107H154.861V724.009H153.604ZM149.364 723.107H152.525V719.54C152.525 719.345 152.525 719.153 152.525 718.962C152.529 718.768 152.538 718.573 152.55 718.378C152.453 718.565 152.368 718.717 152.296 718.835C152.225 718.95 152.159 719.049 152.1 719.134L149.364 723.107ZM159.057 720.145H160.123V722.251H159.057V720.145ZM164.439 715.296H165.518V722.212H164.439V715.296ZM155.989 720.509L155.859 719.716C156.613 719.716 157.419 719.711 158.277 719.703C159.144 719.685 160.023 719.659 160.916 719.625C161.809 719.581 162.675 719.512 163.516 719.417L163.581 720.119C162.723 720.24 161.848 720.331 160.955 720.392C160.071 720.444 159.204 720.478 158.355 720.496C157.514 720.504 156.726 720.509 155.989 720.509ZM157.64 722.641H165.518V725.085H158.732V726.411H157.679V724.357H164.452V723.408H157.64V722.641ZM157.679 726.125H165.908V726.918H157.679V726.125ZM162.099 720.886H164.79V721.588H162.099V720.886ZM159.655 715.517C160.236 715.517 160.743 715.586 161.176 715.725C161.609 715.863 161.947 716.067 162.19 716.336C162.433 716.604 162.554 716.921 162.554 717.285C162.554 717.64 162.433 717.952 162.19 718.221C161.947 718.481 161.609 718.684 161.176 718.832C160.743 718.97 160.236 719.04 159.655 719.04C159.074 719.04 158.563 718.97 158.121 718.832C157.688 718.684 157.35 718.481 157.107 718.221C156.873 717.952 156.756 717.64 156.756 717.285C156.756 716.921 156.873 716.604 157.107 716.336C157.35 716.067 157.688 715.863 158.121 715.725C158.563 715.586 159.074 715.517 159.655 715.517ZM159.655 716.258C159.083 716.258 158.624 716.349 158.277 716.531C157.939 716.713 157.77 716.964 157.77 717.285C157.77 717.588 157.939 717.835 158.277 718.026C158.624 718.208 159.083 718.299 159.655 718.299C160.227 718.299 160.682 718.208 161.02 718.026C161.367 717.835 161.54 717.588 161.54 717.285C161.54 716.964 161.367 716.713 161.02 716.531C160.682 716.349 160.227 716.258 159.655 716.258ZM177.421 725.062V726.034H171.816V725.062H174.094V718.182L172.076 719.623V718.543L174.19 717.09H175.243V725.062H177.421ZM184.784 721.559C184.784 723.052 184.519 724.193 183.99 724.98C183.466 725.767 182.689 726.161 181.661 726.161C180.632 726.161 179.86 725.769 179.344 724.986C178.828 724.203 178.569 723.061 178.569 721.559C178.569 720.022 178.819 718.871 179.318 718.105C179.822 717.34 180.616 716.957 181.699 716.957C182.753 716.957 183.529 717.344 184.028 718.118C184.532 718.893 184.784 720.039 184.784 721.559ZM183.622 721.559C183.622 720.695 183.557 719.995 183.425 719.458C183.298 718.916 183.093 718.518 182.81 718.264C182.526 718.01 182.156 717.883 181.699 717.883C181.233 717.883 180.855 718.008 180.563 718.258C180.271 718.507 180.057 718.903 179.921 719.445C179.79 719.982 179.725 720.687 179.725 721.559C179.725 722.405 179.792 723.099 179.928 723.641C180.067 724.182 180.281 724.582 180.569 724.84C180.857 725.098 181.225 725.228 181.673 725.228C182.346 725.228 182.839 724.927 183.152 724.326C183.466 723.725 183.622 722.803 183.622 721.559ZM189.25 715.712C189.839 715.712 190.359 715.824 190.81 716.05C191.269 716.266 191.629 716.57 191.889 716.96C192.149 717.35 192.279 717.805 192.279 718.325C192.279 718.836 192.149 719.291 191.889 719.69C191.629 720.08 191.269 720.383 190.81 720.6C190.359 720.816 189.839 720.925 189.25 720.925C188.669 720.925 188.149 720.816 187.69 720.6C187.231 720.383 186.867 720.08 186.598 719.69C186.338 719.291 186.208 718.836 186.208 718.325C186.208 717.805 186.338 717.35 186.598 716.96C186.867 716.57 187.231 716.266 187.69 716.05C188.149 715.824 188.669 715.712 189.25 715.712ZM189.25 716.609C188.869 716.609 188.526 716.682 188.223 716.83C187.928 716.968 187.694 717.168 187.521 717.428C187.348 717.688 187.261 717.987 187.261 718.325C187.261 718.663 187.348 718.962 187.521 719.222C187.694 719.473 187.928 719.672 188.223 719.82C188.526 719.967 188.869 720.041 189.25 720.041C189.631 720.041 189.969 719.967 190.264 719.82C190.567 719.672 190.806 719.473 190.979 719.222C191.152 718.962 191.239 718.663 191.239 718.325C191.239 717.987 191.152 717.688 190.979 717.428C190.806 717.168 190.567 716.968 190.264 716.83C189.969 716.682 189.631 716.609 189.25 716.609ZM194.502 715.283H195.581V721.302H194.502V715.283ZM187.976 721.887H195.581V724.734H189.055V726.502H188.015V723.928H194.515V722.745H187.976V721.887ZM188.015 726.021H195.984V726.892H188.015V726.021ZM206.233 722.523C205.941 722.523 205.64 722.477 205.331 722.384C205.026 722.291 204.72 722.189 204.411 722.079C203.865 721.889 203.406 721.793 203.033 721.793C202.75 721.793 202.485 721.838 202.24 721.927C201.994 722.011 201.734 722.153 201.459 722.352V721.444C201.929 721.089 202.485 720.911 203.129 720.911C203.357 720.911 203.602 720.939 203.865 720.994C204 721.023 204.17 721.07 204.373 721.133C204.576 721.193 204.815 721.271 205.09 721.368C205.221 721.419 205.414 721.48 205.668 721.552C205.921 721.62 206.144 721.654 206.334 721.654C206.88 721.654 207.396 721.459 207.883 721.07V722.016C207.637 722.193 207.39 722.322 207.14 722.403C206.895 722.483 206.592 722.523 206.233 722.523ZM217.677 724.009V726.034H216.598V724.009H212.383V723.12L216.478 717.09H217.677V723.107H218.934V724.009H217.677ZM213.437 723.107H216.598V719.54C216.598 719.345 216.598 719.153 216.598 718.962C216.602 718.768 216.611 718.573 216.624 718.378C216.526 718.565 216.442 718.717 216.37 718.835C216.298 718.95 216.232 719.049 216.173 719.134L213.437 723.107ZM223.13 720.145H224.196V722.251H223.13V720.145ZM228.512 715.296H229.591V722.212H228.512V715.296ZM220.062 720.509L219.932 719.716C220.686 719.716 221.492 719.711 222.35 719.703C223.217 719.685 224.097 719.659 224.989 719.625C225.882 719.581 226.749 719.512 227.589 719.417L227.654 720.119C226.796 720.24 225.921 720.331 225.028 720.392C224.144 720.444 223.278 720.478 222.428 720.496C221.588 720.504 220.799 720.509 220.062 720.509ZM221.713 722.641H229.591V725.085H222.805V726.411H221.752V724.357H228.525V723.408H221.713V722.641ZM221.752 726.125H229.981V726.918H221.752V726.125ZM226.172 720.886H228.863V721.588H226.172V720.886ZM223.728 715.517C224.309 715.517 224.816 715.586 225.249 715.725C225.683 715.863 226.021 716.067 226.263 716.336C226.506 716.604 226.627 716.921 226.627 717.285C226.627 717.64 226.506 717.952 226.263 718.221C226.021 718.481 225.683 718.684 225.249 718.832C224.816 718.97 224.309 719.04 223.728 719.04C223.148 719.04 222.636 718.97 222.194 718.832C221.761 718.684 221.423 718.481 221.18 718.221C220.946 717.952 220.829 717.64 220.829 717.285C220.829 716.921 220.946 716.604 221.18 716.336C221.423 716.067 221.761 715.863 222.194 715.725C222.636 715.586 223.148 715.517 223.728 715.517ZM223.728 716.258C223.156 716.258 222.697 716.349 222.35 716.531C222.012 716.713 221.843 716.964 221.843 717.285C221.843 717.588 222.012 717.835 222.35 718.026C222.697 718.208 223.156 718.299 223.728 718.299C224.3 718.299 224.755 718.208 225.093 718.026C225.44 717.835 225.613 717.588 225.613 717.285C225.613 716.964 225.44 716.713 225.093 716.531C224.755 716.349 224.3 716.258 223.728 716.258ZM241.494 725.062V726.034H235.889V725.062H238.168V718.182L236.149 719.623V718.543L238.263 717.09H239.317V725.062H241.494ZM248.711 725.062V726.034H242.789V725.228C243.005 724.732 243.265 724.294 243.569 723.914C243.878 723.533 244.206 723.19 244.553 722.885C244.9 722.581 245.243 722.297 245.582 722.035C245.751 721.903 245.91 721.772 246.058 721.641C246.21 721.51 246.354 721.379 246.489 721.248C246.76 720.985 246.978 720.71 247.143 720.422C247.312 720.135 247.397 719.809 247.397 719.445C247.397 718.954 247.253 718.573 246.965 718.302C246.678 718.031 246.278 717.896 245.766 717.896C245.279 717.896 244.877 718.029 244.56 718.296C244.247 718.558 244.062 718.929 244.007 719.407L242.839 719.299C242.924 718.584 243.227 718.014 243.747 717.591C244.272 717.168 244.945 716.957 245.766 716.957C246.667 716.957 247.359 717.17 247.841 717.598C248.328 718.021 248.571 718.624 248.571 719.407C248.571 719.754 248.491 720.099 248.33 720.441C248.174 720.784 247.939 721.127 247.626 721.47C247.469 721.639 247.241 721.857 246.94 722.124C246.64 722.39 246.269 722.703 245.829 723.063C245.343 723.461 244.955 723.82 244.668 724.142C244.38 724.459 244.172 724.766 244.046 725.062H248.711ZM253.323 715.712C253.913 715.712 254.433 715.824 254.883 716.05C255.343 716.266 255.702 716.57 255.962 716.96C256.222 717.35 256.352 717.805 256.352 718.325C256.352 718.836 256.222 719.291 255.962 719.69C255.702 720.08 255.343 720.383 254.883 720.6C254.433 720.816 253.913 720.925 253.323 720.925C252.743 720.925 252.223 720.816 251.763 720.6C251.304 720.383 250.94 720.08 250.671 719.69C250.411 719.291 250.281 718.836 250.281 718.325C250.281 717.805 250.411 717.35 250.671 716.96C250.94 716.57 251.304 716.266 251.763 716.05C252.223 715.824 252.743 715.712 253.323 715.712ZM253.323 716.609C252.942 716.609 252.6 716.682 252.296 716.83C252.002 716.968 251.768 717.168 251.594 717.428C251.421 717.688 251.334 717.987 251.334 718.325C251.334 718.663 251.421 718.962 251.594 719.222C251.768 719.473 252.002 719.672 252.296 719.82C252.6 719.967 252.942 720.041 253.323 720.041C253.705 720.041 254.043 719.967 254.337 719.82C254.641 719.672 254.879 719.473 255.052 719.222C255.226 718.962 255.312 718.663 255.312 718.325C255.312 717.987 255.226 717.688 255.052 717.428C254.879 717.168 254.641 716.968 254.337 716.83C254.043 716.682 253.705 716.609 253.323 716.609ZM258.575 715.283H259.654V721.302H258.575V715.283ZM252.049 721.887H259.654V724.734H253.128V726.502H252.088V723.928H258.588V722.745H252.049V721.887ZM252.088 726.021H260.057V726.892H252.088V726.021Z" fill="#7A7873"/>
</g>
</g>
</g>
</g>
</g>
</g>
<g id="Container_14">
<g id="Icon_5" clip-path="url(#clip0_121_5064)">
<path id="Vector_9" d="M163.671 25.9941H245.671" stroke="#7A7873" stroke-width="7.99775" stroke-linecap="round"/>
</g>
</g>
</g>
<defs>
<filter id="filter0_dd_121_5064" x="0.170898" y="129.986" width="409.342" height="118.974" filterUnits="userSpaceOnUse" color-interpolation-filters="sRGB">
<feFlood flood-opacity="0" result="BackgroundImageFix"/>
<feColorMatrix in="SourceAlpha" type="matrix" values="0 0 0 0 0 0 0 0 0 0 0 0 0 0 0 0 0 0 127 0" result="hardAlpha"/>
<feOffset dy="8"/>
<feGaussianBlur stdDeviation="16"/>
<feColorMatrix type="matrix" values="0 0 0 0 0 0 0 0 0 0 0 0 0 0 0 0 0 0 0.5 0"/>
<feBlend mode="normal" in2="BackgroundImageFix" result="effect1_dropShadow_121_5064"/>
<feColorMatrix in="SourceAlpha" type="matrix" values="0 0 0 0 0 0 0 0 0 0 0 0 0 0 0 0 0 0 127 0" result="hardAlpha"/>
<feOffset dy="2"/>
<feGaussianBlur stdDeviation="4"/>
<feColorMatrix type="matrix" values="0 0 0 0 0 0 0 0 0 0 0 0 0 0 0 0 0 0 0.25 0"/>
<feBlend mode="normal" in2="effect1_dropShadow_121_5064" result="effect2_dropShadow_121_5064"/>
<feBlend mode="normal" in="SourceGraphic" in2="effect2_dropShadow_121_5064" result="shape"/>
</filter>
<filter id="filter1_dd_121_5064" x="0" y="240.954" width="409.342" height="118.974" filterUnits="userSpaceOnUse" color-interpolation-filters="sRGB">
<feFlood flood-opacity="0" result="BackgroundImageFix"/>
<feColorMatrix in="SourceAlpha" type="matrix" values="0 0 0 0 0 0 0 0 0 0 0 0 0 0 0 0 0 0 127 0" result="hardAlpha"/>
<feOffset dy="8"/>
<feGaussianBlur stdDeviation="16"/>
<feColorMatrix type="matrix" values="0 0 0 0 0 0 0 0 0 0 0 0 0 0 0 0 0 0 0.5 0"/>
<feBlend mode="normal" in2="BackgroundImageFix" result="effect1_dropShadow_121_5064"/>
<feColorMatrix in="SourceAlpha" type="matrix" values="0 0 0 0 0 0 0 0 0 0 0 0 0 0 0 0 0 0 127 0" result="hardAlpha"/>
<feOffset dy="2"/>
<feGaussianBlur stdDeviation="4"/>
<feColorMatrix type="matrix" values="0 0 0 0 0 0 0 0 0 0 0 0 0 0 0 0 0 0 0.25 0"/>
<feBlend mode="normal" in2="effect1_dropShadow_121_5064" result="effect2_dropShadow_121_5064"/>
<feBlend mode="normal" in="SourceGraphic" in2="effect2_dropShadow_121_5064" result="shape"/>
</filter>
<filter id="filter2_dd_121_5064" x="2.6748" y="311.927" width="403.992" height="483.596" filterUnits="userSpaceOnUse" color-interpolation-filters="sRGB">
<feFlood flood-opacity="0" result="BackgroundImageFix"/>
<feColorMatrix in="SourceAlpha" type="matrix" values="0 0 0 0 0 0 0 0 0 0 0 0 0 0 0 0 0 0 127 0" result="hardAlpha"/>
<feOffset dy="8"/>
<feGaussianBlur stdDeviation="16"/>
<feColorMatrix type="matrix" values="0 0 0 0 0 0 0 0 0 0 0 0 0 0 0 0 0 0 0.5 0"/>
<feBlend mode="normal" in2="BackgroundImageFix" result="effect1_dropShadow_121_5064"/>
<feColorMatrix in="SourceAlpha" type="matrix" values="0 0 0 0 0 0 0 0 0 0 0 0 0 0 0 0 0 0 127 0" result="hardAlpha"/>
<feOffset dy="2"/>
<feGaussianBlur stdDeviation="4"/>
<feColorMatrix type="matrix" values="0 0 0 0 0 0 0 0 0 0 0 0 0 0 0 0 0 0 0.25 0"/>
<feBlend mode="normal" in2="effect1_dropShadow_121_5064" result="effect2_dropShadow_121_5064"/>
<feBlend mode="normal" in="SourceGraphic" in2="effect2_dropShadow_121_5064" result="shape"/>
</filter>
<filter id="filter3_dd_121_5064" x="261.135" y="500.369" width="55.8999" height="58" filterUnits="userSpaceOnUse" color-interpolation-filters="sRGB">
<feFlood flood-opacity="0" result="BackgroundImageFix"/>
<feColorMatrix in="SourceAlpha" type="matrix" values="0 0 0 0 0 0 0 0 0 0 0 0 0 0 0 0 0 0 127 0" result="hardAlpha"/>
<feOffset dy="2"/>
<feGaussianBlur stdDeviation="4"/>
<feColorMatrix type="matrix" values="0 0 0 0 0.118 0 0 0 0 0.157 0 0 0 0 0.133 0 0 0 0.09 0"/>
<feBlend mode="normal" in2="BackgroundImageFix" result="effect1_dropShadow_121_5064"/>
<feColorMatrix in="SourceAlpha" type="matrix" values="0 0 0 0 0 0 0 0 0 0 0 0 0 0 0 0 0 0 127 0" result="hardAlpha"/>
<feOffset dy="1"/>
<feGaussianBlur stdDeviation="1"/>
<feColorMatrix type="matrix" values="0 0 0 0 0.118 0 0 0 0 0.157 0 0 0 0 0.133 0 0 0 0.04 0"/>
<feBlend mode="normal" in2="effect1_dropShadow_121_5064" result="effect2_dropShadow_121_5064"/>
<feBlend mode="normal" in="SourceGraphic" in2="effect2_dropShadow_121_5064" result="shape"/>
</filter>
<filter id="filter4_dd_121_5064" x="49.7158" y="544.351" width="55.8999" height="58" filterUnits="userSpaceOnUse" color-interpolation-filters="sRGB">
<feFlood flood-opacity="0" result="BackgroundImageFix"/>
<feColorMatrix in="SourceAlpha" type="matrix" values="0 0 0 0 0 0 0 0 0 0 0 0 0 0 0 0 0 0 127 0" result="hardAlpha"/>
<feOffset dy="2"/>
<feGaussianBlur stdDeviation="4"/>
<feColorMatrix type="matrix" values="0 0 0 0 0.118 0 0 0 0 0.157 0 0 0 0 0.133 0 0 0 0.09 0"/>
<feBlend mode="normal" in2="BackgroundImageFix" result="effect1_dropShadow_121_5064"/>
<feColorMatrix in="SourceAlpha" type="matrix" values="0 0 0 0 0 0 0 0 0 0 0 0 0 0 0 0 0 0 127 0" result="hardAlpha"/>
<feOffset dy="1"/>
<feGaussianBlur stdDeviation="1"/>
<feColorMatrix type="matrix" values="0 0 0 0 0.118 0 0 0 0 0.157 0 0 0 0 0.133 0 0 0 0.04 0"/>
<feBlend mode="normal" in2="effect1_dropShadow_121_5064" result="effect2_dropShadow_121_5064"/>
<feBlend mode="normal" in="SourceGraphic" in2="effect2_dropShadow_121_5064" result="shape"/>
</filter>
<clipPath id="clip0_121_5064">
<rect width="89.9996" height="7.99554" fill="white" transform="translate(159.671 21.9966)"/>
</clipPath>
</defs>
</svg>
