<svg width="410" height="793" viewBox="0 0 410 793" fill="none" xmlns="http://www.w3.org/2000/svg">
<g id="Property 1=calendar_expanded">
<path d="M8.00146 16C8.00146 7.16345 15.1649 0 24.0015 0H385.001C393.838 0 401.001 7.16344 401.001 16V777H8.00146V16Z" fill="#F5F3EE"/>
<g id="Container">
<g id="Heading 2">
<path id="&#236;&#151;&#172;&#237;&#150;&#137; &#236;&#160;&#149;&#235;&#179;&#180;&#235;&#165;&#188; &#236;&#158;&#133;&#235;&#160;&#165;&#237;&#149;&#180;&#236;&#163;&#188;&#236;&#132;&#184;&#236;&#154;&#148;" d="M38.298 71.793C39.1717 71.793 39.9595 72.0221 40.6613 72.4805C41.3703 72.9388 41.9504 73.5905 42.4016 74.4355H46.6984V70.418H49.4055V90.0117H46.6984V82.6855H42.6057C42.1688 83.6595 41.5744 84.4115 40.8225 84.9414C40.0777 85.4714 39.2362 85.7363 38.298 85.7363C37.3098 85.7363 36.4289 85.4535 35.6555 84.8877C34.8892 84.3148 34.2912 83.502 33.8615 82.4492C33.4318 81.3893 33.2206 80.1576 33.2277 78.7539C33.2206 77.3574 33.4318 76.1364 33.8615 75.0908C34.2912 74.0381 34.8892 73.2253 35.6555 72.6523C36.4289 72.0794 37.3098 71.793 38.298 71.793ZM38.298 74.2637C37.8111 74.2637 37.3814 74.4391 37.009 74.79C36.6366 75.1338 36.3466 75.6458 36.1389 76.3262C35.9383 76.9993 35.8417 77.8086 35.8488 78.7539C35.8417 79.7064 35.9383 80.5192 36.1389 81.1924C36.3466 81.8656 36.633 82.3776 36.9982 82.7285C37.3706 83.0723 37.8039 83.2441 38.298 83.2441C38.7922 83.2441 39.2219 83.0723 39.5871 82.7285C39.9595 82.3848 40.246 81.8763 40.4465 81.2031C40.647 80.5299 40.7473 79.7135 40.7473 78.7539C40.7473 77.8014 40.647 76.9886 40.4465 76.3154C40.246 75.6423 39.9595 75.1338 39.5871 74.79C39.2219 74.4391 38.7922 74.2637 38.298 74.2637ZM43.1643 76.6484C43.3003 77.3288 43.3684 78.0306 43.3684 78.7539C43.3684 79.291 43.3254 79.8711 43.2395 80.4941H46.6984V76.6484H43.1643ZM68.4199 82.6855H65.8203V77.4863H64.252V82.041H61.6953V70.7832H64.252V75.252H65.8203V70.418H68.4199V82.6855ZM61.1152 74.5645H51.5117V72.4375H54.9707V70.5898H57.6992V72.4375H61.1152V74.5645ZM56.3457 75.209C57.1693 75.209 57.9033 75.3522 58.5479 75.6387C59.1924 75.9251 59.6973 76.3262 60.0625 76.8418C60.4277 77.3574 60.6139 77.9518 60.6211 78.625C60.6139 79.291 60.4277 79.8818 60.0625 80.3975C59.6973 80.9059 59.1924 81.3034 58.5479 81.5898C57.9033 81.8763 57.1693 82.0195 56.3457 82.0195C55.5365 82.0195 54.8096 81.8763 54.165 81.5898C53.5205 81.3034 53.0156 80.9059 52.6504 80.3975C52.2923 79.8818 52.1133 79.291 52.1133 78.625C52.1133 77.959 52.2923 77.3682 52.6504 76.8525C53.0156 76.3298 53.5205 75.9251 54.165 75.6387C54.8096 75.3522 55.5365 75.209 56.3457 75.209ZM56.3457 77.1855C55.8014 77.1855 55.3682 77.3145 55.0459 77.5723C54.7236 77.8301 54.5625 78.181 54.5625 78.625C54.5625 79.0762 54.7236 79.4342 55.0459 79.6992C55.3753 79.957 55.8086 80.0788 56.3457 80.0645C56.8828 80.0788 57.3161 79.957 57.6455 79.6992C57.9749 79.4342 58.1432 79.0762 58.1504 78.625C58.1432 78.1738 57.9749 77.8229 57.6455 77.5723C57.3232 77.3145 56.89 77.1855 56.3457 77.1855ZM61.7383 82.8574C63.1491 82.8574 64.3594 82.9971 65.3691 83.2764C66.3861 83.5557 67.1631 83.9639 67.7002 84.501C68.2445 85.0309 68.5202 85.6719 68.5273 86.4238C68.5202 87.1686 68.2445 87.806 67.7002 88.3359C67.1631 88.8659 66.3861 89.2705 65.3691 89.5498C64.3522 89.8291 63.1419 89.9688 61.7383 89.9688C60.3346 89.9688 59.1244 89.8291 58.1074 89.5498C57.0977 89.2705 56.3206 88.8659 55.7764 88.3359C55.2393 87.806 54.9707 87.1686 54.9707 86.4238C54.9707 85.6719 55.2393 85.0309 55.7764 84.501C56.3206 83.9639 57.0977 83.5557 58.1074 83.2764C59.1244 82.9971 60.3346 82.8574 61.7383 82.8574ZM61.7383 84.9199C59.0384 84.9199 57.6992 85.4212 57.7207 86.4238C57.7135 86.918 58.0501 87.2904 58.7305 87.541C59.4108 87.7845 60.4134 87.9062 61.7383 87.9062C64.4167 87.9062 65.7559 87.4121 65.7559 86.4238C65.7559 85.9154 65.4229 85.5394 64.7568 85.2959C64.0908 85.0452 63.0846 84.9199 61.7383 84.9199ZM91.5816 82.0195H88.8531V77.4004H85.8023V75.1875H88.8531V70.418H91.5816V82.0195ZM84.9 82.4492C86.2893 82.4564 87.4853 82.6104 88.4879 82.9111C89.4977 83.2048 90.2747 83.6344 90.8189 84.2002C91.3632 84.766 91.6389 85.4427 91.6461 86.2305C91.6389 87.0111 91.3632 87.6842 90.8189 88.25C90.2747 88.8158 89.4977 89.2454 88.4879 89.5391C87.4781 89.8398 86.2822 89.9902 84.9 89.9902C83.5178 89.9902 82.3219 89.8398 81.3121 89.5391C80.3023 89.2454 79.5253 88.8158 78.9811 88.25C78.4439 87.6842 78.1754 87.0111 78.1754 86.2305C78.1754 85.4427 78.4439 84.766 78.9811 84.2002C79.5253 83.6344 80.2988 83.2048 81.3014 82.9111C82.3111 82.6104 83.5107 82.4564 84.9 82.4492ZM84.9 84.5547C82.2359 84.5547 80.9039 85.1133 80.9039 86.2305C80.9039 86.7891 81.2405 87.208 81.9137 87.4873C82.594 87.7666 83.5895 87.9062 84.9 87.9062C86.2105 87.9062 87.206 87.7666 87.8863 87.4873C88.5738 87.2008 88.9176 86.7819 88.9176 86.2305C88.9176 85.1133 87.5784 84.5547 84.9 84.5547ZM86.3824 73.791H82.4938C82.5152 74.5788 82.6907 75.3379 83.0201 76.0684C83.3567 76.7917 83.8544 77.4434 84.5133 78.0234C85.1793 78.6035 86.0029 79.0547 86.984 79.377L85.6305 81.5254C84.5849 81.1888 83.6826 80.6875 82.9234 80.0215C82.1715 79.3483 81.5771 78.557 81.1402 77.6475C80.6891 78.6787 80.066 79.5739 79.2711 80.333C78.4762 81.085 77.5165 81.6543 76.3922 82.041L74.9742 79.8711C76.0055 79.5273 76.8684 79.0404 77.5631 78.4102C78.2649 77.7728 78.7877 77.0566 79.1314 76.2617C79.4824 75.4668 79.6721 74.6432 79.7008 73.791H75.7691V71.5996H86.3824V73.791ZM111.713 87.6914H93.8168V85.457H101.358V81.8477H95.7074V71.6641H98.4574V74.6934H106.987V71.6641H109.715V81.8477H104.086V85.457H111.713V87.6914ZM106.987 79.6562V76.8848H98.4574V79.6562H106.987ZM130.405 81.2246H112.509V79.1836H130.405V81.2246ZM128.257 86.8105H117.3V87.9277H128.837V89.7969H114.571V85.0703H125.55V84.082H114.55V82.1914H128.257V86.8105ZM128.236 75.3594H117.472V76.4121H128.579V78.2598H114.743V73.6191H125.486V72.6309H114.7V70.7617H128.236V75.3594ZM152.386 80.9238H149.636V70.418H152.386V80.9238ZM142.009 83.6094H149.657V81.7832H152.386V89.7539H139.302V81.7832H142.009V83.6094ZM149.657 87.541V85.7363H142.009V87.541H149.657ZM141.665 71.2344C142.675 71.2272 143.584 71.4206 144.393 71.8145C145.21 72.2083 145.851 72.7598 146.316 73.4688C146.782 74.1706 147.014 74.9727 147.014 75.875C147.014 76.7487 146.782 77.5329 146.316 78.2275C145.851 78.9222 145.21 79.4665 144.393 79.8604C143.584 80.2542 142.675 80.4512 141.665 80.4512C140.655 80.4512 139.742 80.2542 138.926 79.8604C138.116 79.4665 137.479 78.9222 137.013 78.2275C136.548 77.5329 136.315 76.7487 136.315 75.875C136.315 74.9727 136.548 74.1706 137.013 73.4688C137.479 72.7598 138.116 72.2083 138.926 71.8145C139.742 71.4206 140.655 71.2272 141.665 71.2344ZM141.665 73.5117C141.142 73.5117 140.677 73.6084 140.268 73.8018C139.867 73.988 139.552 74.2601 139.323 74.6182C139.101 74.9691 138.994 75.388 139.001 75.875C138.994 76.3548 139.101 76.7702 139.323 77.1211C139.552 77.4648 139.867 77.7298 140.268 77.916C140.677 78.1022 141.142 78.1953 141.665 78.1953C142.173 78.1953 142.628 78.1022 143.029 77.916C143.43 77.7298 143.742 77.4648 143.964 77.1211C144.193 76.7702 144.307 76.3548 144.307 75.875C144.307 75.388 144.193 74.9691 143.964 74.6182C143.742 74.2601 143.43 73.988 143.029 73.8018C142.628 73.6084 142.173 73.5117 141.665 73.5117ZM164.117 77.6582H158.209V79.7422C159.713 79.7422 160.948 79.71 161.915 79.6455C162.889 79.5739 163.859 79.4486 164.826 79.2695L165.084 81.4609C164.002 81.6543 162.885 81.7832 161.732 81.8477C160.586 81.9049 158.996 81.9336 156.963 81.9336H155.502V75.6172H161.367V73.7051H155.459V71.5566H164.117V77.6582ZM171.207 82.4707H168.478V79.4629H165.234V77.293H168.478V75.3164H165.234V73.1465H168.478V70.4395H171.207V82.4707ZM171.207 89.9688H168.478V85.543H157.736V83.3516H171.207V89.9688ZM182.873 75.5742H173.42V73.4043H176.815V70.9551H179.522V73.4043H182.873V75.5742ZM178.19 76.4551C179.013 76.4551 179.747 76.6556 180.392 77.0566C181.044 77.4505 181.552 77.9984 181.917 78.7002C182.29 79.402 182.48 80.2005 182.487 81.0957C182.48 81.9909 182.29 82.793 181.917 83.502C181.552 84.2109 181.044 84.766 180.392 85.167C179.747 85.5609 179.013 85.7578 178.19 85.7578C177.366 85.7578 176.625 85.5609 175.966 85.167C175.315 84.766 174.802 84.2109 174.43 83.502C174.058 82.793 173.871 81.9909 173.871 81.0957C173.871 80.2077 174.058 79.4128 174.43 78.7109C174.802 78.002 175.315 77.4505 175.966 77.0566C176.625 76.6556 177.366 76.4551 178.19 76.4551ZM178.19 78.7324C177.61 78.7324 177.144 78.9437 176.793 79.3662C176.45 79.7887 176.278 80.3652 176.278 81.0957C176.278 81.8262 176.45 82.3991 176.793 82.8145C177.144 83.2298 177.61 83.4375 178.19 83.4375C178.748 83.4375 179.2 83.2298 179.543 82.8145C179.894 82.3991 180.073 81.8262 180.08 81.0957C180.073 80.3652 179.894 79.7887 179.543 79.3662C179.2 78.9437 178.748 78.7324 178.19 78.7324ZM190.35 89.9688H187.75V80.5586H186.161V89.1309H183.604V70.8047H186.161V78.3672H187.75V70.418H190.35V89.9688ZM209.988 83.3945H202.382V89.9688H199.675V83.3945H192.155V81.2031H209.988V83.3945ZM208.398 73.5977H202.694C202.787 74.2565 203.095 74.8867 203.617 75.4883C204.14 76.0827 204.871 76.5983 205.809 77.0352C206.747 77.4648 207.861 77.7585 209.15 77.916L208.161 80.0645C206.471 79.8353 205.017 79.377 203.8 78.6895C202.59 78.002 201.684 77.1462 201.082 76.1221C200.474 77.1462 199.568 78.002 198.364 78.6895C197.161 79.377 195.722 79.8353 194.046 80.0645L193.036 77.916C194.304 77.7585 195.403 77.4648 196.334 77.0352C197.272 76.5983 198.003 76.0827 198.526 75.4883C199.056 74.8867 199.371 74.2565 199.471 73.5977H193.767V71.4492H208.398V73.5977ZM217.143 75.3379C217.143 77.0853 217.422 78.6787 217.98 80.1182C218.539 81.5576 219.441 82.6784 220.688 83.4805L219.205 85.6074C217.63 84.6549 216.502 83.0902 215.821 80.9131C215.456 82.0589 214.973 83.0723 214.371 83.9531C213.77 84.8268 213.039 85.5215 212.18 86.0371L210.504 84.0176C211.872 83.1654 212.874 81.9801 213.512 80.4619C214.156 78.9365 214.479 77.2715 214.479 75.4668V72.0938H217.143V75.3379ZM227.82 89.9688H225.199V70.418H227.82V89.9688ZM223.717 89.0664H221.16V79.248H218.625V77.0137H221.16V70.6973H223.717V89.0664ZM247.479 87.6914H229.583V85.4355H233.579V80.6553C232.805 80.1898 232.207 79.6169 231.785 78.9365C231.362 78.249 231.151 77.4792 231.151 76.627C231.151 75.5885 231.466 74.6719 232.096 73.877C232.727 73.082 233.597 72.4661 234.707 72.0293C235.824 71.5853 237.088 71.3633 238.499 71.3633C239.902 71.3633 241.159 71.5853 242.269 72.0293C243.387 72.4661 244.264 73.082 244.901 73.877C245.539 74.6719 245.861 75.5885 245.868 76.627C245.861 77.4577 245.65 78.2132 245.234 78.8936C244.826 79.5667 244.249 80.1361 243.505 80.6016V85.4355H247.479V87.6914ZM238.499 73.5332C237.568 73.5332 236.751 73.6549 236.05 73.8984C235.355 74.1419 234.814 74.4964 234.428 74.9619C234.048 75.4202 233.858 75.9753 233.858 76.627C233.858 77.2572 234.048 77.805 234.428 78.2705C234.814 78.736 235.359 79.0941 236.06 79.3447C236.762 79.5954 237.575 79.7207 238.499 79.7207C239.415 79.7207 240.225 79.5954 240.927 79.3447C241.628 79.0941 242.173 78.736 242.559 78.2705C242.953 77.805 243.154 77.2572 243.161 76.627C243.154 75.9824 242.957 75.4274 242.57 74.9619C242.183 74.4964 241.639 74.1419 240.937 73.8984C240.235 73.6549 239.423 73.5332 238.499 73.5332ZM240.733 85.4355V81.6436C239.996 81.7796 239.251 81.8477 238.499 81.8477C237.697 81.8477 236.959 81.7796 236.286 81.6436V85.4355H240.733Z" fill="#1A1A1A"/>
</g>
<g id="DestinationField">
<g id="Paragraph">
<path id="&#236;&#151;&#172;&#237;&#150;&#137;&#236;&#167;&#128;" d="M35.958 124.749C36.514 124.749 37.0153 124.897 37.4619 125.193C37.9131 125.49 38.2777 125.911 38.5557 126.458H41.4404V123.847H42.9443V136.22H41.4404V131.544H38.665C38.3962 132.159 38.027 132.638 37.5576 132.979C37.0882 133.317 36.555 133.485 35.958 133.485C35.3382 133.485 34.7891 133.308 34.3105 132.952C33.832 132.597 33.4583 132.089 33.1895 131.428C32.9206 130.767 32.7861 129.994 32.7861 129.11C32.7861 128.235 32.9206 127.47 33.1895 126.813C33.4583 126.153 33.832 125.645 34.3105 125.289C34.7936 124.929 35.3428 124.749 35.958 124.749ZM35.958 126.116C35.6162 126.116 35.3154 126.237 35.0557 126.479C34.7959 126.715 34.5954 127.06 34.4541 127.511C34.3128 127.957 34.2445 128.491 34.249 129.11C34.2445 129.735 34.3128 130.272 34.4541 130.724C34.5954 131.175 34.7959 131.521 35.0557 131.763C35.3154 132 35.6162 132.118 35.958 132.118C36.2998 132.118 36.5983 132 36.8535 131.763C37.1133 131.521 37.3138 131.175 37.4551 130.724C37.6009 130.272 37.6761 129.735 37.6807 129.11C37.6761 128.491 37.6009 127.955 37.4551 127.504C37.3138 127.053 37.1133 126.709 36.8535 126.472C36.5983 126.235 36.2998 126.116 35.958 126.116ZM38.9795 127.702C39.0706 128.144 39.1162 128.614 39.1162 129.11C39.1162 129.521 39.0843 129.922 39.0205 130.313H41.4404V127.702H38.9795ZM55.249 131.612H53.7998V128.249H52.5967V131.202H51.1748V124.093H52.5967V127.019H53.7998V123.847H55.249V131.612ZM50.7646 126.376H44.6123V125.187H46.9502V123.956H48.4541V125.187H50.7646V126.376ZM47.7021 126.882C48.2217 126.882 48.6842 126.971 49.0898 127.148C49.4954 127.326 49.8122 127.577 50.04 127.9C50.2725 128.219 50.391 128.591 50.3955 129.015C50.391 129.438 50.2725 129.812 50.04 130.136C49.8122 130.455 49.4954 130.703 49.0898 130.881C48.6842 131.059 48.2217 131.147 47.7021 131.147C47.1917 131.147 46.7337 131.059 46.3281 130.881C45.9225 130.703 45.6058 130.452 45.3779 130.129C45.1546 129.805 45.0452 129.434 45.0498 129.015C45.0452 128.595 45.1546 128.224 45.3779 127.9C45.6058 127.577 45.9225 127.326 46.3281 127.148C46.7337 126.971 47.1917 126.882 47.7021 126.882ZM47.7021 127.976C47.3148 127.976 47.0003 128.069 46.7588 128.256C46.5218 128.443 46.4033 128.696 46.4033 129.015C46.4033 129.334 46.5218 129.587 46.7588 129.773C46.9958 129.96 47.3102 130.054 47.7021 130.054C48.0941 130.054 48.4108 129.96 48.6523 129.773C48.8939 129.587 49.0146 129.334 49.0146 129.015C49.0146 128.696 48.8939 128.443 48.6523 128.256C48.4108 128.069 48.0941 127.976 47.7021 127.976ZM51.0791 131.763C51.9587 131.763 52.7152 131.849 53.3486 132.022C53.9821 132.196 54.4674 132.451 54.8047 132.788C55.1419 133.121 55.3128 133.522 55.3174 133.991C55.3128 134.451 55.1396 134.846 54.7979 135.174C54.4606 135.507 53.9753 135.759 53.3418 135.933C52.7083 136.106 51.9541 136.192 51.0791 136.192C50.2041 136.192 49.4476 136.106 48.8096 135.933C48.1761 135.759 47.6885 135.507 47.3467 135.174C47.0094 134.846 46.8408 134.451 46.8408 133.991C46.8408 133.522 47.0094 133.121 47.3467 132.788C47.6885 132.451 48.1761 132.196 48.8096 132.022C49.443 131.849 50.1995 131.763 51.0791 131.763ZM51.0791 132.925C50.1904 132.916 49.5137 133.002 49.0488 133.185C48.5885 133.362 48.3584 133.631 48.3584 133.991C48.3584 134.333 48.5908 134.593 49.0557 134.771C49.5205 134.944 50.195 135.03 51.0791 135.03C51.9587 135.03 52.6286 134.944 53.0889 134.771C53.5537 134.593 53.7861 134.333 53.7861 133.991C53.7861 133.631 53.5537 133.362 53.0889 133.185C52.6286 133.002 51.9587 132.916 51.0791 132.925ZM61.4424 127.36C61.4424 128.039 61.57 128.712 61.8252 129.377C62.085 130.038 62.4541 130.632 62.9326 131.161C63.4157 131.685 63.9808 132.082 64.6279 132.351L63.7939 133.554C63.0785 133.248 62.4564 132.79 61.9277 132.18C61.3991 131.569 60.9889 130.86 60.6973 130.054C60.4056 130.92 59.9932 131.688 59.46 132.357C58.9313 133.023 58.3115 133.522 57.6006 133.854L56.7256 132.665C57.359 132.373 57.915 131.945 58.3936 131.38C58.8766 130.815 59.248 130.181 59.5078 129.479C59.7676 128.773 59.8975 128.067 59.8975 127.36V126.321H57.1768V125.063H64.1494V126.321H61.4424V127.36ZM67.0615 136.206H65.5303V123.847H67.0615V136.206Z" fill="#4A4A4A"/>
</g>
<g id="Container_2" filter="url(#filter0_dd_111_2563)">
<path d="M32.1709 166.986C32.1709 158.149 39.3343 150.986 48.1709 150.986H361.513C370.349 150.986 377.513 158.149 377.513 166.986V189.96C377.513 198.796 370.349 205.96 361.513 205.96H48.1709C39.3344 205.96 32.1709 198.796 32.1709 189.96V166.986Z" fill="#FAFAF7"/>
<path d="M48.1709 151.486H361.513C370.073 151.486 377.013 158.425 377.013 166.986V189.959C377.013 198.52 370.073 205.459 361.513 205.459H48.1709C39.6105 205.459 32.6709 198.52 32.6709 189.959V166.986C32.6709 158.425 39.6105 151.486 48.1709 151.486Z" stroke="#E2DDD5"/>
<g id="Text Input">
<path id="&#236;&#151;&#172;&#237;&#150;&#137;&#236;&#167;&#128;&#235;&#165;&#188; &#236;&#158;&#133;&#235;&#160;&#165;&#237;&#149;&#152;&#236;&#132;&#184;&#236;&#154;&#148;" d="M55.9902 172.27C56.6257 172.27 57.1986 172.439 57.709 172.777C58.2246 173.116 58.6413 173.598 58.959 174.223H62.2559V171.238H63.9746V185.379H62.2559V180.035H59.084C58.7767 180.738 58.3548 181.285 57.8184 181.676C57.2819 182.061 56.6725 182.254 55.9902 182.254C55.2819 182.254 54.6543 182.051 54.1074 181.645C53.5605 181.238 53.1335 180.658 52.8262 179.902C52.5189 179.147 52.3652 178.264 52.3652 177.254C52.3652 176.254 52.5189 175.379 52.8262 174.629C53.1335 173.874 53.5605 173.293 54.1074 172.887C54.6595 172.475 55.2871 172.27 55.9902 172.27ZM55.9902 173.832C55.5996 173.832 55.2559 173.97 54.959 174.246C54.6621 174.517 54.4329 174.91 54.2715 175.426C54.11 175.936 54.0319 176.546 54.0371 177.254C54.0319 177.967 54.11 178.582 54.2715 179.098C54.4329 179.613 54.6621 180.009 54.959 180.285C55.2559 180.556 55.5996 180.691 55.9902 180.691C56.3809 180.691 56.722 180.556 57.0137 180.285C57.3105 180.009 57.5397 179.613 57.7012 179.098C57.8678 178.582 57.9538 177.967 57.959 177.254C57.9538 176.546 57.8678 175.934 57.7012 175.418C57.5397 174.902 57.3105 174.509 57.0137 174.238C56.722 173.967 56.3809 173.832 55.9902 173.832ZM59.4434 175.645C59.5475 176.15 59.5996 176.686 59.5996 177.254C59.5996 177.723 59.5632 178.181 59.4902 178.629H62.2559V175.645H59.4434ZM77.7371 180.113H76.0809V176.27H74.7059V179.645H73.0809V171.52H74.7059V174.863H76.0809V171.238H77.7371V180.113ZM72.6121 174.129H65.5809V172.77H68.2527V171.363H69.9715V172.77H72.6121V174.129ZM69.1121 174.707C69.7059 174.707 70.2345 174.809 70.698 175.012C71.1616 175.215 71.5236 175.501 71.784 175.871C72.0496 176.236 72.185 176.66 72.1902 177.145C72.185 177.629 72.0496 178.056 71.784 178.426C71.5236 178.79 71.1616 179.074 70.698 179.277C70.2345 179.48 69.7059 179.582 69.1121 179.582C68.5288 179.582 68.0053 179.48 67.5418 179.277C67.0783 179.074 66.7163 178.788 66.4559 178.418C66.2007 178.048 66.0757 177.624 66.0809 177.145C66.0757 176.665 66.2007 176.241 66.4559 175.871C66.7163 175.501 67.0783 175.215 67.5418 175.012C68.0053 174.809 68.5288 174.707 69.1121 174.707ZM69.1121 175.957C68.6694 175.957 68.31 176.064 68.034 176.277C67.7632 176.491 67.6277 176.78 67.6277 177.145C67.6277 177.509 67.7632 177.798 68.034 178.012C68.3048 178.225 68.6642 178.332 69.1121 178.332C69.56 178.332 69.922 178.225 70.198 178.012C70.4741 177.798 70.6121 177.509 70.6121 177.145C70.6121 176.78 70.4741 176.491 70.198 176.277C69.922 176.064 69.56 175.957 69.1121 175.957ZM72.9715 180.285C73.9767 180.285 74.8413 180.384 75.5652 180.582C76.2892 180.78 76.8439 181.072 77.2293 181.457C77.6147 181.837 77.81 182.296 77.8152 182.832C77.81 183.358 77.6121 183.809 77.2215 184.184C76.8361 184.564 76.2814 184.853 75.5574 185.051C74.8335 185.249 73.9715 185.348 72.9715 185.348C71.9715 185.348 71.1069 185.249 70.3777 185.051C69.6538 184.853 69.0965 184.564 68.7059 184.184C68.3204 183.809 68.1277 183.358 68.1277 182.832C68.1277 182.296 68.3204 181.837 68.7059 181.457C69.0965 181.072 69.6538 180.78 70.3777 180.582C71.1017 180.384 71.9663 180.285 72.9715 180.285ZM72.9715 181.613C71.9559 181.603 71.1824 181.702 70.6512 181.91C70.1251 182.113 69.8621 182.421 69.8621 182.832C69.8621 183.223 70.1277 183.52 70.659 183.723C71.1902 183.921 71.9611 184.02 72.9715 184.02C73.9767 184.02 74.7423 183.921 75.2684 183.723C75.7996 183.52 76.0652 183.223 76.0652 182.832C76.0652 182.421 75.7996 182.113 75.2684 181.91C74.7423 181.702 73.9767 181.603 72.9715 181.613ZM84.5152 175.254C84.5152 176.03 84.6611 176.798 84.9527 177.559C85.2496 178.314 85.6715 178.993 86.2184 179.598C86.7704 180.197 87.4163 180.65 88.1559 180.957L87.2027 182.332C86.385 181.983 85.6741 181.46 85.0699 180.762C84.4658 180.064 83.997 179.254 83.6637 178.332C83.3303 179.322 82.859 180.199 82.2496 180.965C81.6454 181.725 80.9371 182.296 80.1246 182.676L79.1246 181.316C79.8486 180.983 80.484 180.493 81.0309 179.848C81.5829 179.202 82.0074 178.478 82.3043 177.676C82.6012 176.868 82.7496 176.061 82.7496 175.254V174.066H79.6402V172.629H87.609V174.066H84.5152V175.254ZM90.9371 185.363H89.1871V171.238H90.9371V185.363ZM105.606 178.957H92.6996V177.645H105.606V178.957ZM104.043 183.02H95.9496V184.004H104.465V185.207H94.2152V181.895H102.325V181.02H94.1996V179.801H104.043V183.02ZM104.012 174.738H96.059V175.66H104.262V176.848H94.3402V173.613H102.278V172.754H94.2934V171.551H104.012V174.738ZM121.506 178.816H119.756V171.238H121.506V178.816ZM113.881 180.926H119.771V179.473H121.506V185.191H112.162V179.473H113.881V180.926ZM119.771 183.785V182.285H113.881V183.785H119.771ZM113.803 171.863C114.521 171.858 115.17 171.996 115.748 172.277C116.326 172.553 116.779 172.944 117.107 173.449C117.436 173.954 117.6 174.53 117.6 175.176C117.6 175.806 117.433 176.371 117.1 176.871C116.771 177.371 116.318 177.762 115.74 178.043C115.167 178.319 114.521 178.457 113.803 178.457C113.079 178.457 112.428 178.319 111.85 178.043C111.271 177.762 110.816 177.371 110.482 176.871C110.154 176.371 109.99 175.806 109.99 175.176C109.99 174.53 110.154 173.954 110.482 173.449C110.816 172.944 111.271 172.553 111.85 172.277C112.428 171.996 113.079 171.858 113.803 171.863ZM113.803 173.316C113.391 173.316 113.024 173.392 112.701 173.543C112.383 173.694 112.133 173.91 111.951 174.191C111.774 174.473 111.688 174.801 111.693 175.176C111.688 175.546 111.774 175.871 111.951 176.152C112.133 176.428 112.383 176.645 112.701 176.801C113.024 176.952 113.391 177.03 113.803 177.035C114.209 177.03 114.571 176.952 114.889 176.801C115.206 176.645 115.454 176.428 115.631 176.152C115.808 175.871 115.896 175.546 115.896 175.176C115.896 174.801 115.808 174.473 115.631 174.191C115.454 173.91 115.206 173.694 114.889 173.543C114.571 173.392 114.209 173.316 113.803 173.316ZM130.018 176.332H125.565V178.066H125.878C126.94 178.066 127.823 178.043 128.526 177.996C129.229 177.944 129.93 177.853 130.628 177.723L130.8 179.129C129.998 179.264 129.177 179.353 128.339 179.395C127.505 179.436 126.352 179.457 124.878 179.457H123.846V175.035H128.284V173.457H123.815V172.082H130.018V176.332ZM135.096 179.941H133.362V177.613H130.862V176.223H133.362V174.645H130.862V173.254H133.362V171.254H135.096V179.941ZM135.096 185.363H133.362V182.004H125.44V180.613H135.096V185.363ZM147.859 176.863H150.031V178.301H147.859V185.363H146.14V171.238H147.859V176.863ZM145.046 174.801H136.718V173.41H140.062V171.441H141.796V173.41H145.046V174.801ZM140.937 175.723C141.609 175.723 142.213 175.866 142.75 176.152C143.291 176.434 143.716 176.827 144.023 177.332C144.33 177.837 144.484 178.41 144.484 179.051C144.484 179.691 144.33 180.264 144.023 180.77C143.716 181.27 143.291 181.66 142.75 181.941C142.213 182.223 141.609 182.363 140.937 182.363C140.255 182.363 139.643 182.223 139.101 181.941C138.56 181.66 138.135 181.27 137.828 180.77C137.52 180.264 137.369 179.691 137.375 179.051C137.369 178.41 137.52 177.837 137.828 177.332C138.135 176.827 138.56 176.434 139.101 176.152C139.643 175.866 140.255 175.723 140.937 175.723ZM140.937 177.145C140.567 177.145 140.237 177.223 139.945 177.379C139.658 177.535 139.435 177.759 139.273 178.051C139.112 178.337 139.031 178.671 139.031 179.051C139.031 179.431 139.112 179.764 139.273 180.051C139.435 180.332 139.658 180.551 139.945 180.707C140.237 180.858 140.567 180.931 140.937 180.926C141.296 180.931 141.617 180.858 141.898 180.707C142.185 180.551 142.408 180.332 142.57 180.051C142.737 179.764 142.823 179.431 142.828 179.051C142.823 178.671 142.737 178.337 142.57 178.051C142.408 177.764 142.185 177.543 141.898 177.387C141.617 177.225 141.296 177.145 140.937 177.145ZM154.731 174.941C154.731 175.733 154.825 176.501 155.012 177.246C155.205 177.991 155.504 178.673 155.911 179.293C156.317 179.913 156.825 180.415 157.434 180.801L156.481 182.129C155.866 181.759 155.345 181.264 154.918 180.645C154.491 180.02 154.155 179.303 153.911 178.496C153.645 179.376 153.283 180.158 152.825 180.84C152.366 181.522 151.814 182.061 151.168 182.457L150.09 181.16C150.752 180.759 151.304 180.233 151.746 179.582C152.189 178.931 152.517 178.215 152.731 177.434C152.95 176.652 153.059 175.848 153.059 175.02V172.488H154.731V174.941ZM162.512 185.363H160.84V171.238H162.512V185.363ZM159.575 184.676H157.934V177.535H155.918V176.098H157.934V171.488H159.575V184.676ZM176.759 183.645H163.853V182.223H166.837V178.652C166.264 178.319 165.819 177.905 165.501 177.41C165.189 176.915 165.035 176.358 165.04 175.738C165.035 175.004 165.256 174.353 165.704 173.785C166.152 173.217 166.775 172.78 167.571 172.473C168.368 172.16 169.269 172.004 170.275 172.004C171.285 172.004 172.189 172.16 172.986 172.473C173.788 172.78 174.413 173.217 174.861 173.785C175.314 174.348 175.54 174.999 175.54 175.738C175.54 176.342 175.387 176.892 175.079 177.387C174.777 177.876 174.348 178.285 173.79 178.613V182.223H176.759V183.645ZM170.275 173.379C169.571 173.379 168.952 173.475 168.415 173.668C167.884 173.855 167.47 174.126 167.173 174.48C166.881 174.835 166.738 175.254 166.743 175.738C166.738 176.217 166.881 176.634 167.173 176.988C167.47 177.342 167.887 177.616 168.423 177.809C168.96 178.001 169.577 178.098 170.275 178.098C170.973 178.098 171.59 178.001 172.126 177.809C172.668 177.616 173.087 177.342 173.384 176.988C173.686 176.634 173.837 176.217 173.837 175.738C173.837 175.259 173.686 174.842 173.384 174.488C173.087 174.129 172.67 173.855 172.134 173.668C171.598 173.475 170.978 173.379 170.275 173.379ZM172.025 182.223V179.277C171.473 179.397 170.889 179.457 170.275 179.457C169.686 179.457 169.113 179.4 168.556 179.285V182.223H172.025Z" fill="#888882"/>
</g>
<g id="Icon">
<path id="Vector" d="M347.191 184.305C350.872 184.305 353.856 181.321 353.856 177.64C353.856 173.959 350.872 170.975 347.191 170.975C343.51 170.975 340.526 173.959 340.526 177.64C340.526 181.321 343.51 184.305 347.191 184.305Z" stroke="#888882" stroke-width="1.66623" stroke-linecap="round" stroke-linejoin="round"/>
<path id="Vector_2" d="M355.522 185.971L351.94 182.389" stroke="#888882" stroke-width="1.66623" stroke-linecap="round" stroke-linejoin="round"/>
</g>
</g>
</g>
<g id="DateField">
<g id="Paragraph_2">
<path id="&#235;&#130;&#160;&#236;&#167;&#156;" d="M42.3291 237.221H44.0518V238.479H42.3291V240.967H40.8115V234.814H42.3291V237.221ZM34.6455 239.265C36.4137 239.242 38.0954 239.076 39.6904 238.766L39.8682 240.01C38.9476 240.197 38.0407 240.331 37.1475 240.413C36.2542 240.491 35.3473 240.529 34.4268 240.529H34.1396H33.1143V235.361H34.6455V239.265ZM42.3291 244.781H35.7803V245.793H42.7119V247.023H34.2627V243.619H40.7979V242.703H34.249V241.5H42.3291V244.781ZM54.7295 239.559H56.2334V240.83H54.7295V247.174H53.2119V234.814H54.7295V239.559ZM47.7021 238.123C47.7021 238.998 47.7751 239.823 47.9209 240.598C48.0667 241.372 48.3402 242.056 48.7412 242.648C49.1331 242.061 49.402 241.379 49.5479 240.604C49.6937 239.825 49.7666 238.998 49.7666 238.123V237.18H48.9736V235.949H52.4189V237.18H51.2158V238.123C51.2158 239.303 51.348 240.358 51.6123 241.288C51.8766 242.218 52.3597 242.94 53.0615 243.455L52.0908 244.549C51.3298 243.965 50.7874 243.038 50.4639 241.767C50.1266 243.093 49.5479 244.057 48.7275 244.658C47.9255 244.061 47.3535 243.097 47.0117 241.767C46.6836 243.038 46.1436 243.965 45.3916 244.549L44.4209 243.455C45.1227 242.936 45.6058 242.209 45.8701 241.274C46.1344 240.336 46.2666 239.285 46.2666 238.123V237.18H44.8857V235.949H48.4951V237.18H47.7021V238.123Z" fill="#4A4A4A"/>
</g>
<g id="Frame 67">
<g id="CustomCalendar" filter="url(#filter1_dd_111_2563)">
<path d="M34.6748 348.927C34.6748 340.091 41.8382 332.927 50.6748 332.927H358.667C367.503 332.927 374.667 340.091 374.667 348.927V736.523C374.667 745.36 367.503 752.523 358.667 752.523H50.6748C41.8382 752.523 34.6748 745.36 34.6748 736.523V348.927Z" fill="#FAFAF7"/>
<path d="M50.6748 333.427H358.667C367.227 333.427 374.167 340.367 374.167 348.927V736.524C374.167 745.084 367.227 752.024 358.667 752.024H50.6748C42.1145 752.024 35.1751 745.084 35.1748 736.524V348.927C35.1748 340.367 42.1144 333.427 50.6748 333.427Z" stroke="#E2DDD5"/>
<g id="Container_3">
<g id="Button">
<g id="Icon_2">
<path id="Vector_3" d="M79.1657 379.917L74.167 374.919L79.1657 369.92" stroke="#888882" stroke-width="1.66623" stroke-linecap="round" stroke-linejoin="round"/>
</g>
</g>
<g id="Heading 3">
<path id="2026&#235;&#133;&#132; 4&#236;&#155;&#148;" d="M164.911 380.167V378.698L168.911 374.839C170.051 373.698 170.645 373.026 170.645 372.073C170.645 371.026 169.817 370.354 168.708 370.354C167.536 370.354 166.786 371.089 166.801 372.229H164.864C164.848 370.089 166.458 368.698 168.723 368.698C171.036 368.698 172.598 370.073 172.598 371.979C172.598 373.261 171.973 374.292 169.754 376.386L167.739 378.386V378.464H172.77V380.167H164.911ZM178.723 380.323C176.004 380.323 174.379 378.214 174.379 374.511C174.379 370.823 176.004 368.698 178.723 368.698C181.426 368.698 183.067 370.823 183.067 374.511C183.067 378.214 181.442 380.323 178.723 380.323ZM178.723 378.62C180.145 378.62 181.02 377.229 181.02 374.511C181.02 371.808 180.129 370.386 178.723 370.386C177.317 370.386 176.426 371.808 176.426 374.511C176.426 377.229 177.301 378.62 178.723 378.62ZM184.77 380.167V378.698L188.77 374.839C189.911 373.698 190.504 373.026 190.504 372.073C190.504 371.026 189.676 370.354 188.567 370.354C187.395 370.354 186.645 371.089 186.661 372.229H184.723C184.708 370.089 186.317 368.698 188.583 368.698C190.895 368.698 192.458 370.073 192.458 371.979C192.458 373.261 191.833 374.292 189.614 376.386L187.598 378.386V378.464H192.629V380.167H184.77ZM198.645 380.323C196.442 380.308 194.223 378.995 194.239 374.823C194.239 370.948 196.004 368.698 198.77 368.698C200.958 368.698 202.458 370.073 202.708 371.901H200.692C200.489 371.042 199.801 370.464 198.77 370.464C197.129 370.464 196.208 371.917 196.208 374.292H196.317C196.895 373.323 197.989 372.745 199.223 372.745C201.254 372.745 202.817 374.276 202.817 376.417C202.817 378.667 201.145 380.339 198.645 380.323ZM198.645 378.683C199.911 378.683 200.848 377.698 200.848 376.464C200.848 375.261 199.926 374.292 198.676 374.292C197.411 374.292 196.442 375.292 196.426 376.479C196.442 377.667 197.364 378.683 198.645 378.683ZM215.895 367.448V377.854H214.161V373.151H210.473V371.776H214.161V370.495H210.473V369.12H214.161V367.448H215.895ZM216.254 379.87V381.276H206.614V376.933H208.364V379.87H216.254ZM206.598 368.386V374.495C208.395 374.472 210.09 374.362 211.989 374.026L212.161 375.433C209.989 375.839 208.083 375.917 205.989 375.933H204.879V368.386H206.598ZM221.958 378.058V376.433L226.848 368.854H229.379V376.386H230.864V378.058H229.379V380.167H227.442V378.058H221.958ZM224.036 376.386H227.473V371.167H227.348L224.036 376.308V376.386ZM243.864 367.448V375.683H242.114V375.104H239.473V374.042H242.114V367.448H243.864ZM232.004 372.542C234.739 372.542 238.145 372.511 241.176 372.214L241.27 373.308C239.981 373.487 238.653 373.597 237.348 373.651V375.698H235.629V373.729C234.418 373.761 233.254 373.769 232.192 373.761L232.004 372.542ZM243.864 376.12V379.292H235.833V380.198H244.239V381.433H234.129V378.151H242.145V377.308H234.067V376.12H243.864ZM236.567 367.667C238.661 367.667 240.098 368.511 240.098 369.792C240.098 371.104 238.661 371.901 236.567 371.901C234.426 371.901 233.004 371.104 233.004 369.792C233.004 368.511 234.426 367.667 236.567 367.667ZM236.567 368.823C235.379 368.823 234.645 369.198 234.661 369.792C234.645 370.386 235.379 370.745 236.567 370.745C237.723 370.745 238.473 370.386 238.473 369.792C238.473 369.198 237.723 368.823 236.567 368.823Z" fill="#1A1A1A"/>
</g>
<g id="Button_2">
<g id="Icon_3">
<path id="Vector_4" d="M330.177 379.917L335.175 374.919L330.177 369.92" stroke="#888882" stroke-width="1.66623" stroke-linecap="round" stroke-linejoin="round"/>
</g>
</g>
</g>
<g id="Container_4">
<g id="Container_5">
<path id="&#236;&#157;&#188;" d="M76.2075 429.425C77.9468 429.425 79.2417 430.504 79.2544 432.015C79.2417 433.539 77.9468 434.605 76.2075 434.605C74.4556 434.605 73.1606 433.539 73.1606 432.015C73.1606 430.504 74.4556 429.425 76.2075 429.425ZM76.2075 430.593C75.2427 430.593 74.5317 431.139 74.5317 432.015C74.5317 432.904 75.2427 433.462 76.2075 433.462C77.1724 433.462 77.8833 432.904 77.8833 432.015C77.8833 431.139 77.1724 430.593 76.2075 430.593ZM82.5171 429.057V434.859H81.0952V429.057H82.5171ZM82.5171 435.354V438.35H76.3091V439.277H82.8599V440.394H74.9253V437.309H81.1079V436.458H74.8999V435.354H82.5171Z" fill="#4A7C59"/>
</g>
<g id="Container_6">
<path id="&#236;&#155;&#148;" d="M124.864 429.07V435.76H123.442V435.291H121.297V434.427H123.442V429.07H124.864ZM115.229 433.208C117.45 433.208 120.218 433.183 122.681 432.942L122.757 433.831C121.709 433.977 120.63 434.065 119.57 434.11V435.773H118.174V434.173C117.19 434.199 116.244 434.205 115.381 434.199L115.229 433.208ZM124.864 436.116V438.693H118.339V439.429H125.169V440.432H116.955V437.766H123.468V437.081H116.904V436.116H124.864ZM118.936 429.248C120.637 429.248 121.805 429.933 121.805 430.974C121.805 432.041 120.637 432.688 118.936 432.688C117.196 432.688 116.041 432.041 116.041 430.974C116.041 429.933 117.196 429.248 118.936 429.248ZM118.936 430.187C117.971 430.187 117.374 430.492 117.387 430.974C117.374 431.457 117.971 431.749 118.936 431.749C119.875 431.749 120.484 431.457 120.484 430.974C120.484 430.492 119.875 430.187 118.936 430.187Z" fill="#4A7C59"/>
</g>
<g id="Container_7">
<path id="&#237;&#153;&#148;" d="M166.603 429.057V433.792H168.215V434.973H166.603V440.534H165.181V429.057H166.603ZM157.386 437.347C158.255 437.347 159.265 437.347 160.318 437.322V436.243C159.068 436.033 158.249 435.246 158.262 434.173C158.249 432.878 159.392 432.015 161.042 432.015C162.667 432.015 163.822 432.878 163.835 434.173C163.822 435.252 162.991 436.04 161.74 436.243V437.271C162.705 437.22 163.67 437.144 164.571 437.017L164.66 438.045C162.197 438.49 159.544 438.515 157.589 438.515L157.386 437.347ZM164.444 430.377V431.495H157.602V430.377H160.318V429.108H161.74V430.377H164.444ZM161.042 433.094C160.166 433.107 159.595 433.5 159.595 434.173C159.595 434.833 160.166 435.227 161.042 435.214C161.905 435.227 162.477 434.833 162.477 434.173C162.477 433.5 161.905 433.107 161.042 433.094Z" fill="#4A7C59"/>
</g>
<g id="Container_8">
<path id="&#236;&#136;&#152;" d="M205.789 430.009C205.789 431.457 207.401 432.917 209.851 433.234L209.292 434.376C207.344 434.084 205.795 433.126 205.052 431.825C204.297 433.126 202.754 434.084 200.825 434.376L200.266 433.234C202.691 432.917 204.303 431.457 204.303 430.009V429.425H205.789V430.009ZM210.27 435.367V436.535H205.712V440.534H204.316V436.535H199.809V435.367H210.27Z" fill="#4A7C59"/>
</g>
<g id="Container_9">
<path id="&#235;&#170;&#169;" d="M251.221 429.527V433.513H248.022V434.719H252.554V435.862H242.093V434.719H246.6V433.513H243.414V429.527H251.221ZM244.785 430.631V432.396H249.825V430.631H244.785ZM251.272 436.827V440.534H249.863V437.944H243.249V436.827H251.272Z" fill="#4A7C59"/>
</g>
<g id="Container_10">
<path id="&#234;&#184;&#136;" d="M293.581 429.616V430.504C293.581 431.393 293.581 432.409 293.302 433.767H294.863V434.91H284.377V433.767H291.88C292.146 432.529 292.172 431.583 292.172 430.746H285.672V429.616H293.581ZM293.568 436.243V440.394H285.634V436.243H293.568ZM287.018 437.347V439.251H292.172V437.347H287.018Z" fill="#4A7C59"/>
</g>
<g id="Container_11">
<path id="&#237;&#134;&#160;" d="M335.992 434.833V435.963H332.602V438.058H337.147V439.188H326.661V438.058H331.18V435.963H327.943V429.908H335.89V431.05H329.377V432.345H335.624V433.462H329.377V434.833H335.992Z" fill="#4A7C59"/>
</g>
</g>
<g id="Container_12">
<g id="Button_3">
<path id="1" d="M206.584 474.481V484.38H204.793V476.218H204.739L202.428 477.694V476.067L204.875 474.481H206.584Z" fill="#1A1A1A"/>
</g>
<g id="Button_4">
<path id="2" d="M243.837 484.38V483.095L247.337 479.718C248.335 478.72 248.855 478.132 248.855 477.298C248.855 476.382 248.13 475.794 247.16 475.794C246.134 475.794 245.478 476.437 245.492 477.435H243.796C243.783 475.562 245.191 474.345 247.173 474.345C249.197 474.345 250.564 475.548 250.564 477.216C250.564 478.337 250.017 479.239 248.076 481.071L246.312 482.821V482.89H250.714V484.38H243.837Z" fill="#1A1A1A"/>
</g>
<g id="Button_5">
<path id="3" d="M289.301 484.517C287.182 484.517 285.678 483.368 285.637 481.7H287.428C287.482 482.493 288.275 483.013 289.301 483.013C290.395 483.013 291.174 482.411 291.174 481.536C291.174 480.647 290.408 480.005 289.123 480.005H288.234V478.638H289.123C290.176 478.638 290.914 478.05 290.9 477.188C290.914 476.354 290.285 475.794 289.314 475.794C288.385 475.794 287.578 476.313 287.551 477.147H285.842C285.883 475.479 287.387 474.345 289.328 474.345C291.338 474.345 292.637 475.575 292.623 477.093C292.637 478.2 291.898 479.007 290.818 479.226V479.308C292.213 479.499 293.006 480.388 292.992 481.632C293.006 483.3 291.447 484.517 289.301 484.517Z" fill="#1A1A1A"/>
</g>
<g id="Button_6">
<path id="4" d="M328.122 482.534V481.112L332.401 474.481H334.616V481.071H335.915V482.534H334.616V484.38H332.921V482.534H328.122ZM329.94 481.071H332.948V476.505H332.839L329.94 481.003V481.071Z" fill="#1A1A1A"/>
</g>
<g id="Button_7">
<path id="5" d="M78.0073 528.498C76.0249 528.498 74.5757 527.322 74.521 525.682H76.2573C76.312 526.488 77.064 527.062 78.0073 527.062C79.1147 527.062 79.9077 526.256 79.9077 525.162C79.9077 524.027 79.0874 523.221 77.9526 523.221C77.187 523.207 76.6265 523.48 76.312 524.068H74.6577L75.2593 518.463H81.1108V519.953H76.7222L76.4214 522.578H76.5171C76.8999 522.141 77.6245 521.826 78.4312 521.826C80.2769 521.826 81.6304 523.207 81.6304 525.107C81.6304 527.09 80.1401 528.498 78.0073 528.498Z" fill="#1A1A1A"/>
</g>
<g id="Button_8">
<path id="6" d="M120.268 528.498C118.34 528.484 116.398 527.336 116.412 523.686C116.412 520.295 117.957 518.326 120.377 518.326C122.291 518.326 123.604 519.529 123.822 521.129H122.059C121.881 520.377 121.279 519.871 120.377 519.871C118.941 519.871 118.135 521.143 118.135 523.221H118.23C118.736 522.373 119.693 521.867 120.773 521.867C122.551 521.867 123.918 523.207 123.918 525.08C123.918 527.049 122.455 528.512 120.268 528.498ZM120.268 527.062C121.375 527.062 122.195 526.201 122.195 525.121C122.195 524.068 121.389 523.221 120.295 523.221C119.188 523.221 118.34 524.096 118.326 525.135C118.34 526.174 119.146 527.062 120.268 527.062Z" fill="#1A1A1A"/>
</g>
<g id="Button_9">
<path id="7" d="M159.63 528.361L163.923 520.021V519.953H158.947V518.463H165.769V519.98L161.476 528.361H159.63Z" fill="#1A1A1A"/>
</g>
<g id="Button_10">
<path id="8" d="M204.751 528.498C202.55 528.498 200.992 527.322 200.992 525.709C200.992 524.451 201.921 523.426 203.111 523.234V523.18C202.072 522.961 201.361 522.059 201.361 520.979C201.361 519.447 202.796 518.326 204.751 518.326C206.693 518.326 208.128 519.447 208.128 520.979C208.128 522.059 207.404 522.961 206.378 523.18V523.234C207.568 523.426 208.511 524.451 208.511 525.709C208.511 527.322 206.939 528.498 204.751 528.498ZM204.751 527.09C205.914 527.09 206.679 526.461 206.679 525.545C206.679 524.615 205.859 523.932 204.751 523.932C203.63 523.932 202.81 524.615 202.824 525.545C202.81 526.461 203.576 527.09 204.751 527.09ZM204.751 522.605C205.708 522.605 206.392 522.004 206.392 521.143C206.392 520.309 205.722 519.721 204.751 519.721C203.767 519.721 203.097 520.295 203.097 521.143C203.097 522.004 203.781 522.605 204.751 522.605Z" fill="#1A1A1A"/>
</g>
<g id="Button_11">
<path id="9" d="M246.928 518.326C248.87 518.34 250.784 519.488 250.797 523.111C250.797 526.529 249.252 528.498 246.819 528.498C244.905 528.498 243.592 527.309 243.374 525.668H245.137C245.315 526.447 245.917 526.953 246.819 526.953C248.254 526.953 249.061 525.682 249.075 523.562H248.965C248.459 524.424 247.516 524.93 246.422 524.93C244.659 524.93 243.292 523.59 243.278 521.717C243.278 519.775 244.727 518.312 246.928 518.326ZM246.942 519.762C245.834 519.762 245 520.623 245.014 521.676C245.014 522.742 245.807 523.576 246.915 523.576C248.008 523.576 248.87 522.688 248.856 521.662C248.856 520.65 248.049 519.762 246.942 519.762Z" fill="#1A1A1A"/>
</g>
<g id="Button_12" filter="url(#filter2_dd_111_2563)">
<path d="M269.135 515.369C269.135 508.742 274.508 503.369 281.135 503.369H297.035C303.663 503.369 309.035 508.742 309.035 515.369V533.369C309.035 539.997 303.663 545.369 297.035 545.369H281.135C274.508 545.369 269.135 539.997 269.135 533.369V515.369Z" fill="#4A7C59"/>
<path id="10" d="M285.752 517.559V527.457H283.961V519.295H283.906L281.596 520.771V519.145L284.043 517.559H285.752ZM291.809 527.594C289.43 527.594 288.008 525.748 288.008 522.508C288.008 519.281 289.43 517.422 291.809 517.422C294.174 517.422 295.609 519.281 295.609 522.508C295.609 525.748 294.188 527.594 291.809 527.594ZM291.809 526.104C293.053 526.104 293.818 524.887 293.818 522.508C293.818 520.143 293.039 518.898 291.809 518.898C290.578 518.898 289.799 520.143 289.799 522.508C289.799 524.887 290.564 526.104 291.809 526.104Z" fill="#FAFAF7"/>
</g>
<g id="Button_13">
<path d="M312.376 516.369C312.376 509.742 317.749 504.369 324.376 504.369H338.668C345.296 504.369 350.668 509.742 350.668 516.369V532.359C350.668 538.986 345.296 544.359 338.668 544.359H324.376C317.749 544.359 312.376 538.986 312.376 532.359V516.369Z" fill="#C8DEC9"/>
<path id="11" d="M330.004 528.361H328.213V520.199H328.158L325.848 521.676V520.049L328.295 518.463H330.004V528.361ZM336.43 528.361H334.639V520.199H334.584L332.273 521.676V520.049L334.721 518.463H336.43V528.361Z" fill="#FAFAF7"/>
</g>
<g id="Button_14" filter="url(#filter3_dd_111_2563)">
<path d="M57.7158 559.351C57.7158 552.723 63.0884 547.351 69.7158 547.351H85.6158C92.2432 547.351 97.6158 552.723 97.6158 559.351V577.351C97.6158 583.978 92.2432 589.351 85.6158 589.351H69.7158C63.0884 589.351 57.7158 583.978 57.7158 577.351V559.351Z" fill="#4A7C59"/>
<path id="12" d="M75.2837 561.54V571.438H73.4927V563.276H73.438L71.1274 564.753V563.126L73.5747 561.54H75.2837ZM77.6899 571.438V570.153L81.1899 566.776C82.188 565.778 82.7075 565.19 82.7075 564.356C82.7075 563.44 81.9829 562.853 81.0122 562.853C79.9868 562.853 79.3306 563.495 79.3442 564.493H77.6489C77.6353 562.62 79.0435 561.403 81.0259 561.403C83.0493 561.403 84.4165 562.606 84.4165 564.274C84.4165 565.396 83.8696 566.298 81.9282 568.13L80.1646 569.88V569.948H84.5669V571.438H77.6899Z" fill="#FAFAF7"/>
</g>
<g id="Button_15">
<path id="13" d="M117.668 562.444V572.343H115.877V564.181H115.823L113.512 565.657V564.03L115.959 562.444H117.668ZM123.67 572.479C121.551 572.479 120.047 571.331 120.006 569.663H121.797C121.852 570.456 122.645 570.976 123.67 570.976C124.764 570.976 125.543 570.374 125.543 569.499C125.543 568.61 124.778 567.968 123.493 567.968H122.604V566.601H123.493C124.545 566.601 125.284 566.013 125.27 565.151C125.284 564.317 124.655 563.757 123.684 563.757C122.754 563.757 121.948 564.276 121.92 565.11H120.211C120.252 563.442 121.756 562.308 123.698 562.308C125.708 562.308 127.006 563.538 126.993 565.056C127.006 566.163 126.268 566.97 125.188 567.188V567.271C126.583 567.462 127.375 568.351 127.362 569.595C127.375 571.263 125.817 572.479 123.67 572.479Z" fill="#1A1A1A"/>
</g>
<g id="Button_16">
<path id="14" d="M159.764 562.444V572.343H157.973V564.181H157.918L155.607 565.657V564.03L158.055 562.444H159.764ZM161.992 570.497V569.075L166.271 562.444H168.486V569.034H169.785V570.497H168.486V572.343H166.791V570.497H161.992ZM163.811 569.034H166.818V564.468H166.709L163.811 568.966V569.034Z" fill="#1A1A1A"/>
</g>
<g id="Button_17">
<path id="15" d="M202.444 562.444V572.343H200.653V564.181H200.599L198.288 565.657V564.03L200.735 562.444H202.444ZM208.364 572.479C206.382 572.479 204.933 571.304 204.878 569.663H206.614C206.669 570.47 207.421 571.044 208.364 571.044C209.472 571.044 210.265 570.237 210.265 569.144C210.265 568.009 209.444 567.202 208.31 567.202C207.544 567.188 206.983 567.462 206.669 568.05H205.015L205.616 562.444H211.468V563.935H207.079L206.778 566.56H206.874C207.257 566.122 207.981 565.808 208.788 565.808C210.634 565.808 211.987 567.188 211.987 569.089C211.987 571.071 210.497 572.479 208.364 572.479Z" fill="#1A1A1A"/>
</g>
<g id="Button_18">
<path id="16" d="M244.502 562.444V572.343H242.711V564.181H242.656L240.346 565.657V564.03L242.793 562.444H244.502ZM250.613 572.479C248.686 572.466 246.744 571.317 246.758 567.667C246.758 564.276 248.303 562.308 250.723 562.308C252.637 562.308 253.949 563.511 254.168 565.11H252.404C252.227 564.358 251.625 563.853 250.723 563.853C249.287 563.853 248.48 565.124 248.48 567.202H248.576C249.082 566.354 250.039 565.849 251.119 565.849C252.896 565.849 254.264 567.188 254.264 569.062C254.264 571.03 252.801 572.493 250.613 572.479ZM250.613 571.044C251.721 571.044 252.541 570.183 252.541 569.103C252.541 568.05 251.734 567.202 250.641 567.202C249.533 567.202 248.686 568.077 248.672 569.116C248.686 570.155 249.492 571.044 250.613 571.044Z" fill="#1A1A1A"/>
</g>
<g id="Button_19">
<path id="17" d="M287.2 562.444V572.343H285.409V564.181H285.354L283.044 565.657V564.03L285.491 562.444H287.2ZM289.976 572.343L294.269 564.003V563.935H289.292V562.444H296.114V563.962L291.821 572.343H289.976Z" fill="#1A1A1A"/>
</g>
<g id="Button_20">
<path id="18" d="M329.106 562.444V572.343H327.315V564.181H327.261L324.95 565.657V564.03L327.397 562.444H329.106ZM335.108 572.479C332.907 572.479 331.349 571.304 331.349 569.69C331.349 568.433 332.278 567.407 333.468 567.216V567.161C332.429 566.942 331.718 566.04 331.718 564.96C331.718 563.429 333.153 562.308 335.108 562.308C337.05 562.308 338.485 563.429 338.485 564.96C338.485 566.04 337.761 566.942 336.735 567.161V567.216C337.925 567.407 338.868 568.433 338.868 569.69C338.868 571.304 337.296 572.479 335.108 572.479ZM335.108 571.071C336.271 571.071 337.036 570.442 337.036 569.526C337.036 568.597 336.216 567.913 335.108 567.913C333.987 567.913 333.167 568.597 333.181 569.526C333.167 570.442 333.933 571.071 335.108 571.071ZM335.108 566.587C336.065 566.587 336.749 565.985 336.749 565.124C336.749 564.29 336.079 563.702 335.108 563.702C334.124 563.702 333.454 564.276 333.454 565.124C333.454 565.985 334.138 566.587 335.108 566.587Z" fill="#1A1A1A"/>
</g>
<g id="Button_21">
<path id="19" d="M75.3662 606.426V616.324H73.5752V608.162H73.5205L71.21 609.639V608.012L73.6572 606.426H75.3662ZM81.2861 606.289C83.2275 606.303 85.1416 607.451 85.1553 611.074C85.1553 614.492 83.6104 616.461 81.1768 616.461C79.2627 616.461 77.9502 615.271 77.7314 613.631H79.4951C79.6729 614.41 80.2744 614.916 81.1768 614.916C82.6123 614.916 83.4189 613.645 83.4326 611.525H83.3232C82.8174 612.387 81.874 612.893 80.7803 612.893C79.0166 612.893 77.6494 611.553 77.6357 609.68C77.6357 607.738 79.085 606.275 81.2861 606.289ZM81.2998 607.725C80.1924 607.725 79.3584 608.586 79.3721 609.639C79.3721 610.705 80.165 611.539 81.2725 611.539C82.3662 611.539 83.2275 610.65 83.2139 609.625C83.2139 608.613 82.4072 607.725 81.2998 607.725Z" fill="#1A1A1A"/>
</g>
<g id="Button_22">
<path id="20" d="M112.543 616.324V615.039L116.043 611.662C117.041 610.664 117.561 610.076 117.561 609.242C117.561 608.326 116.836 607.738 115.865 607.738C114.84 607.738 114.184 608.381 114.197 609.379H112.502C112.488 607.506 113.896 606.289 115.879 606.289C117.902 606.289 119.27 607.492 119.27 609.16C119.27 610.281 118.723 611.184 116.781 613.016L115.018 614.766V614.834H119.42V616.324H112.543ZM124.629 616.461C122.25 616.461 120.828 614.615 120.828 611.375C120.828 608.148 122.25 606.289 124.629 606.289C126.994 606.289 128.43 608.148 128.43 611.375C128.43 614.615 127.008 616.461 124.629 616.461ZM124.629 614.971C125.873 614.971 126.639 613.754 126.639 611.375C126.639 609.01 125.859 607.766 124.629 607.766C123.398 607.766 122.619 609.01 122.619 611.375C122.619 613.754 123.385 614.971 124.629 614.971Z" fill="#1A1A1A"/>
</g>
<g id="Button_23">
<path id="21" d="M155.837 616.324V615.039L159.337 611.662C160.335 610.664 160.855 610.076 160.855 609.242C160.855 608.326 160.13 607.738 159.16 607.738C158.134 607.738 157.478 608.381 157.492 609.379H155.796C155.783 607.506 157.191 606.289 159.173 606.289C161.197 606.289 162.564 607.492 162.564 609.16C162.564 610.281 162.017 611.184 160.076 613.016L158.312 614.766V614.834H162.714V616.324H155.837ZM168.292 606.426V616.324H166.501V608.162H166.447L164.136 609.639V608.012L166.583 606.426H168.292Z" fill="#1A1A1A"/>
</g>
<g id="Button_24">
<path id="22" d="M197.121 616.324V615.039L200.621 611.662C201.619 610.664 202.139 610.076 202.139 609.242C202.139 608.326 201.414 607.738 200.443 607.738C199.418 607.738 198.762 608.381 198.775 609.379H197.08C197.066 607.506 198.475 606.289 200.457 606.289C202.48 606.289 203.848 607.492 203.848 609.16C203.848 610.281 203.301 611.184 201.359 613.016L199.596 614.766V614.834H203.998V616.324H197.121ZM205.557 616.324V615.039L209.057 611.662C210.055 610.664 210.574 610.076 210.574 609.242C210.574 608.326 209.85 607.738 208.879 607.738C207.854 607.738 207.197 608.381 207.211 609.379H205.516C205.502 607.506 206.91 606.289 208.893 606.289C210.916 606.289 212.283 607.492 212.283 609.16C212.283 610.281 211.736 611.184 209.795 613.016L208.031 614.766V614.834H212.434V616.324H205.557Z" fill="#1A1A1A"/>
</g>
<g id="Button_25">
<path id="23" d="M239.49 616.324V615.039L242.99 611.662C243.988 610.664 244.507 610.076 244.507 609.242C244.507 608.326 243.783 607.738 242.812 607.738C241.787 607.738 241.13 608.381 241.144 609.379H239.449C239.435 607.506 240.843 606.289 242.826 606.289C244.849 606.289 246.216 607.492 246.216 609.16C246.216 610.281 245.669 611.184 243.728 613.016L241.964 614.766V614.834H246.367V616.324H239.49ZM251.521 616.461C249.402 616.461 247.898 615.312 247.857 613.645H249.648C249.703 614.438 250.496 614.957 251.521 614.957C252.615 614.957 253.394 614.355 253.394 613.48C253.394 612.592 252.628 611.949 251.343 611.949H250.455V610.582H251.343C252.396 610.582 253.134 609.994 253.121 609.133C253.134 608.299 252.505 607.738 251.535 607.738C250.605 607.738 249.798 608.258 249.771 609.092H248.062C248.103 607.424 249.607 606.289 251.548 606.289C253.558 606.289 254.857 607.52 254.843 609.037C254.857 610.145 254.119 610.951 253.039 611.17V611.252C254.433 611.443 255.226 612.332 255.212 613.576C255.226 615.244 253.667 616.461 251.521 616.461Z" fill="#1A1A1A"/>
</g>
<g id="Button_26">
<path id="24" d="M281.798 616.324V615.039L285.298 611.662C286.296 610.664 286.816 610.076 286.816 609.242C286.816 608.326 286.091 607.738 285.121 607.738C284.095 607.738 283.439 608.381 283.453 609.379H281.757C281.744 607.506 283.152 606.289 285.134 606.289C287.158 606.289 288.525 607.492 288.525 609.16C288.525 610.281 287.978 611.184 286.037 613.016L284.273 614.766V614.834H288.675V616.324H281.798ZM289.837 614.479V613.057L294.117 606.426H296.332V613.016H297.63V614.479H296.332V616.324H294.636V614.479H289.837ZM291.656 613.016H294.664V608.449H294.554L291.656 612.947V613.016Z" fill="#1A1A1A"/>
</g>
<g id="Button_27">
<path id="25" d="M324.265 616.324V615.039L327.765 611.662C328.763 610.664 329.282 610.076 329.282 609.242C329.282 608.326 328.558 607.738 327.587 607.738C326.562 607.738 325.905 608.381 325.919 609.379H324.224C324.21 607.506 325.618 606.289 327.601 606.289C329.624 606.289 330.991 607.492 330.991 609.16C330.991 610.281 330.444 611.184 328.503 613.016L326.739 614.766V614.834H331.142V616.324H324.265ZM336.214 616.461C334.231 616.461 332.782 615.285 332.728 613.645H334.464C334.519 614.451 335.271 615.025 336.214 615.025C337.321 615.025 338.114 614.219 338.114 613.125C338.114 611.99 337.294 611.184 336.159 611.184C335.394 611.17 334.833 611.443 334.519 612.031H332.864L333.466 606.426H339.317V607.916H334.929L334.628 610.541H334.724C335.106 610.104 335.831 609.789 336.638 609.789C338.483 609.789 339.837 611.17 339.837 613.07C339.837 615.053 338.347 616.461 336.214 616.461Z" fill="#1A1A1A"/>
</g>
<g id="Button_28">
<path id="26" d="M70.3472 660.306V659.021L73.8472 655.644C74.8452 654.646 75.3647 654.058 75.3647 653.224C75.3647 652.308 74.6401 651.72 73.6694 651.72C72.644 651.72 71.9878 652.362 72.0015 653.36H70.3062C70.2925 651.487 71.7007 650.271 73.6831 650.271C75.7065 650.271 77.0737 651.474 77.0737 653.142C77.0737 654.263 76.5269 655.165 74.5854 656.997L72.8218 658.747V658.815H77.2241V660.306H70.3472ZM82.4878 660.442C80.5601 660.429 78.6187 659.28 78.6323 655.63C78.6323 652.239 80.1772 650.271 82.5972 650.271C84.5112 650.271 85.8237 651.474 86.0425 653.073H84.2788C84.1011 652.321 83.4995 651.815 82.5972 651.815C81.1616 651.815 80.355 653.087 80.355 655.165H80.4507C80.9565 654.317 81.9136 653.812 82.9937 653.812C84.771 653.812 86.1382 655.151 86.1382 657.024C86.1382 658.993 84.6753 660.456 82.4878 660.442ZM82.4878 659.007C83.5952 659.007 84.4155 658.146 84.4155 657.065C84.4155 656.013 83.6089 655.165 82.5151 655.165C81.4077 655.165 80.5601 656.04 80.5464 657.079C80.5601 658.118 81.3667 659.007 82.4878 659.007Z" fill="#1A1A1A"/>
</g>
<g id="Button_29">
<path id="27" d="M113.045 660.306V659.021L116.545 655.644C117.543 654.646 118.063 654.058 118.063 653.224C118.063 652.308 117.338 651.72 116.368 651.72C115.342 651.72 114.686 652.362 114.7 653.36H113.004C112.991 651.487 114.399 650.271 116.381 650.271C118.405 650.271 119.772 651.474 119.772 653.142C119.772 654.263 119.225 655.165 117.284 656.997L115.52 658.747V658.815H119.922V660.306H113.045ZM121.85 660.306L126.143 651.966V651.897H121.167V650.407H127.989V651.925L123.696 660.306H121.85Z" fill="#1A1A1A"/>
</g>
<g id="Button_30">
<path id="28" d="M154.94 660.306V659.021L158.44 655.644C159.438 654.646 159.958 654.058 159.958 653.224C159.958 652.308 159.233 651.72 158.262 651.72C157.237 651.72 156.581 652.362 156.594 653.36H154.899C154.885 651.487 156.293 650.271 158.276 650.271C160.299 650.271 161.667 651.474 161.667 653.142C161.667 654.263 161.12 655.165 159.178 656.997L157.415 658.747V658.815H161.817V660.306H154.94ZM166.971 660.442C164.77 660.442 163.211 659.267 163.211 657.653C163.211 656.396 164.141 655.37 165.331 655.179V655.124C164.292 654.905 163.581 654.003 163.581 652.923C163.581 651.392 165.016 650.271 166.971 650.271C168.913 650.271 170.348 651.392 170.348 652.923C170.348 654.003 169.624 654.905 168.598 655.124V655.179C169.788 655.37 170.731 656.396 170.731 657.653C170.731 659.267 169.159 660.442 166.971 660.442ZM166.971 659.034C168.133 659.034 168.899 658.405 168.899 657.489C168.899 656.56 168.079 655.876 166.971 655.876C165.85 655.876 165.03 656.56 165.043 657.489C165.03 658.405 165.795 659.034 166.971 659.034ZM166.971 654.55C167.928 654.55 168.612 653.948 168.612 653.087C168.612 652.253 167.942 651.665 166.971 651.665C165.987 651.665 165.317 652.239 165.317 653.087C165.317 653.948 166 654.55 166.971 654.55Z" fill="#1A1A1A"/>
</g>
<g id="Button_31">
<path id="29" d="M197.199 660.306V659.021L200.699 655.644C201.697 654.646 202.216 654.058 202.216 653.224C202.216 652.308 201.492 651.72 200.521 651.72C199.496 651.72 198.839 652.362 198.853 653.36H197.158C197.144 651.487 198.552 650.271 200.535 650.271C202.558 650.271 203.925 651.474 203.925 653.142C203.925 654.263 203.378 655.165 201.437 656.997L199.673 658.747V658.815H204.076V660.306H197.199ZM209.148 650.271C211.089 650.284 213.003 651.433 213.017 655.056C213.017 658.474 211.472 660.442 209.039 660.442C207.125 660.442 205.812 659.253 205.593 657.612H207.357C207.535 658.392 208.136 658.897 209.039 658.897C210.474 658.897 211.281 657.626 211.294 655.507H211.185C210.679 656.368 209.736 656.874 208.642 656.874C206.878 656.874 205.511 655.534 205.498 653.661C205.498 651.72 206.947 650.257 209.148 650.271ZM209.162 651.706C208.054 651.706 207.22 652.567 207.234 653.62C207.234 654.687 208.027 655.521 209.134 655.521C210.228 655.521 211.089 654.632 211.076 653.606C211.076 652.595 210.269 651.706 209.162 651.706Z" fill="#1A1A1A"/>
</g>
<g id="Button_32">
<path id="30" d="M242.586 660.442C240.467 660.442 238.963 659.294 238.922 657.626H240.713C240.768 658.419 241.561 658.938 242.586 658.938C243.68 658.938 244.459 658.337 244.459 657.462C244.459 656.573 243.694 655.931 242.409 655.931H241.52V654.563H242.409C243.461 654.563 244.2 653.976 244.186 653.114C244.2 652.28 243.571 651.72 242.6 651.72C241.67 651.72 240.864 652.239 240.836 653.073H239.127C239.168 651.405 240.672 650.271 242.614 650.271C244.624 650.271 245.922 651.501 245.909 653.019C245.922 654.126 245.184 654.933 244.104 655.151V655.233C245.499 655.425 246.292 656.313 246.278 657.558C246.292 659.226 244.733 660.442 242.586 660.442ZM251.487 660.442C249.108 660.442 247.686 658.597 247.686 655.356C247.686 652.13 249.108 650.271 251.487 650.271C253.852 650.271 255.288 652.13 255.288 655.356C255.288 658.597 253.866 660.442 251.487 660.442ZM251.487 658.952C252.731 658.952 253.497 657.735 253.497 655.356C253.497 652.991 252.717 651.747 251.487 651.747C250.256 651.747 249.477 652.991 249.477 655.356C249.477 657.735 250.243 658.952 251.487 658.952Z" fill="#1A1A1A"/>
</g>
</g>
<g id="Container_13">
<mask id="path-84-inside-1_111_2563" fill="white">
<path d="M58.6733 692.293H350.669V728.525H58.6733V692.293Z"/>
</mask>
<path d="M58.6733 692.293V693.043H350.669V692.293V691.544H58.6733V692.293Z" fill="#E2DDD5" mask="url(#path-84-inside-1_111_2563)"/>
<g id="Paragraph_3">
<path id="4&#236;&#155;&#148; 10&#236;&#157;&#188; ~ 4&#236;&#155;&#148; 12&#236;&#157;&#188;" d="M153.604 721.009V723.034H152.525V721.009H148.31V720.12L152.404 714.09H153.604V720.107H154.861V721.009H153.604ZM149.364 720.107H152.525V716.54C152.525 716.345 152.525 716.153 152.525 715.962C152.529 715.768 152.538 715.573 152.55 715.378C152.453 715.565 152.368 715.717 152.296 715.835C152.225 715.95 152.159 716.049 152.1 716.134L149.364 720.107ZM159.057 717.145H160.123V719.251H159.057V717.145ZM164.439 712.296H165.518V719.212H164.439V712.296ZM155.989 717.509L155.859 716.716C156.613 716.716 157.419 716.711 158.277 716.703C159.144 716.685 160.023 716.659 160.916 716.625C161.809 716.581 162.675 716.512 163.516 716.417L163.581 717.119C162.723 717.24 161.848 717.331 160.955 717.392C160.071 717.444 159.204 717.478 158.355 717.496C157.514 717.504 156.726 717.509 155.989 717.509ZM157.64 719.641H165.518V722.085H158.732V723.411H157.679V721.357H164.452V720.408H157.64V719.641ZM157.679 723.125H165.908V723.918H157.679V723.125ZM162.099 717.886H164.79V718.588H162.099V717.886ZM159.655 712.517C160.236 712.517 160.743 712.586 161.176 712.725C161.609 712.863 161.947 713.067 162.19 713.336C162.433 713.604 162.554 713.921 162.554 714.285C162.554 714.64 162.433 714.952 162.19 715.221C161.947 715.481 161.609 715.684 161.176 715.832C160.743 715.97 160.236 716.04 159.655 716.04C159.074 716.04 158.563 715.97 158.121 715.832C157.688 715.684 157.35 715.481 157.107 715.221C156.873 714.952 156.756 714.64 156.756 714.285C156.756 713.921 156.873 713.604 157.107 713.336C157.35 713.067 157.688 712.863 158.121 712.725C158.563 712.586 159.074 712.517 159.655 712.517ZM159.655 713.258C159.083 713.258 158.624 713.349 158.277 713.531C157.939 713.713 157.77 713.964 157.77 714.285C157.77 714.588 157.939 714.835 158.277 715.026C158.624 715.208 159.083 715.299 159.655 715.299C160.227 715.299 160.682 715.208 161.02 715.026C161.367 714.835 161.54 714.588 161.54 714.285C161.54 713.964 161.367 713.713 161.02 713.531C160.682 713.349 160.227 713.258 159.655 713.258ZM177.421 722.062V723.034H171.816V722.062H174.094V715.182L172.076 716.623V715.543L174.19 714.09H175.243V722.062H177.421ZM184.784 718.559C184.784 720.052 184.519 721.193 183.99 721.98C183.466 722.767 182.689 723.161 181.661 723.161C180.632 723.161 179.86 722.769 179.344 721.986C178.828 721.203 178.569 720.061 178.569 718.559C178.569 717.022 178.819 715.871 179.318 715.105C179.822 714.34 180.616 713.957 181.699 713.957C182.753 713.957 183.529 714.344 184.028 715.118C184.532 715.893 184.784 717.039 184.784 718.559ZM183.622 718.559C183.622 717.695 183.557 716.995 183.425 716.458C183.298 715.916 183.093 715.518 182.81 715.264C182.526 715.01 182.156 714.883 181.699 714.883C181.233 714.883 180.855 715.008 180.563 715.258C180.271 715.507 180.057 715.903 179.921 716.445C179.79 716.982 179.725 717.687 179.725 718.559C179.725 719.405 179.792 720.099 179.928 720.641C180.067 721.182 180.281 721.582 180.569 721.84C180.857 722.098 181.225 722.228 181.673 722.228C182.346 722.228 182.839 721.927 183.152 721.326C183.466 720.725 183.622 719.803 183.622 718.559ZM189.25 712.712C189.839 712.712 190.359 712.824 190.81 713.05C191.269 713.266 191.629 713.57 191.889 713.96C192.149 714.35 192.279 714.805 192.279 715.325C192.279 715.836 192.149 716.291 191.889 716.69C191.629 717.08 191.269 717.383 190.81 717.6C190.359 717.816 189.839 717.925 189.25 717.925C188.669 717.925 188.149 717.816 187.69 717.6C187.231 717.383 186.867 717.08 186.598 716.69C186.338 716.291 186.208 715.836 186.208 715.325C186.208 714.805 186.338 714.35 186.598 713.96C186.867 713.57 187.231 713.266 187.69 713.05C188.149 712.824 188.669 712.712 189.25 712.712ZM189.25 713.609C188.869 713.609 188.526 713.682 188.223 713.83C187.928 713.968 187.694 714.168 187.521 714.428C187.348 714.688 187.261 714.987 187.261 715.325C187.261 715.663 187.348 715.962 187.521 716.222C187.694 716.473 187.928 716.672 188.223 716.82C188.526 716.967 188.869 717.041 189.25 717.041C189.631 717.041 189.969 716.967 190.264 716.82C190.567 716.672 190.806 716.473 190.979 716.222C191.152 715.962 191.239 715.663 191.239 715.325C191.239 714.987 191.152 714.688 190.979 714.428C190.806 714.168 190.567 713.968 190.264 713.83C189.969 713.682 189.631 713.609 189.25 713.609ZM194.502 712.283H195.581V718.302H194.502V712.283ZM187.976 718.887H195.581V721.734H189.055V723.502H188.015V720.928H194.515V719.745H187.976V718.887ZM188.015 723.021H195.984V723.892H188.015V723.021ZM206.233 719.523C205.941 719.523 205.64 719.477 205.331 719.384C205.026 719.291 204.72 719.189 204.411 719.079C203.865 718.889 203.406 718.793 203.033 718.793C202.75 718.793 202.485 718.838 202.24 718.927C201.994 719.011 201.734 719.153 201.459 719.352V718.444C201.929 718.089 202.485 717.911 203.129 717.911C203.357 717.911 203.602 717.939 203.865 717.994C204 718.023 204.17 718.07 204.373 718.133C204.576 718.193 204.815 718.271 205.09 718.368C205.221 718.419 205.414 718.48 205.668 718.552C205.921 718.62 206.144 718.654 206.334 718.654C206.88 718.654 207.396 718.459 207.883 718.07V719.016C207.637 719.193 207.39 719.322 207.14 719.403C206.895 719.483 206.592 719.523 206.233 719.523ZM217.677 721.009V723.034H216.598V721.009H212.383V720.12L216.478 714.09H217.677V720.107H218.934V721.009H217.677ZM213.437 720.107H216.598V716.54C216.598 716.345 216.598 716.153 216.598 715.962C216.602 715.768 216.611 715.573 216.624 715.378C216.526 715.565 216.442 715.717 216.37 715.835C216.298 715.95 216.232 716.049 216.173 716.134L213.437 720.107ZM223.13 717.145H224.196V719.251H223.13V717.145ZM228.512 712.296H229.591V719.212H228.512V712.296ZM220.062 717.509L219.932 716.716C220.686 716.716 221.492 716.711 222.35 716.703C223.217 716.685 224.097 716.659 224.989 716.625C225.882 716.581 226.749 716.512 227.589 716.417L227.654 717.119C226.796 717.24 225.921 717.331 225.028 717.392C224.144 717.444 223.278 717.478 222.428 717.496C221.588 717.504 220.799 717.509 220.062 717.509ZM221.713 719.641H229.591V722.085H222.805V723.411H221.752V721.357H228.525V720.408H221.713V719.641ZM221.752 723.125H229.981V723.918H221.752V723.125ZM226.172 717.886H228.863V718.588H226.172V717.886ZM223.728 712.517C224.309 712.517 224.816 712.586 225.249 712.725C225.683 712.863 226.021 713.067 226.263 713.336C226.506 713.604 226.627 713.921 226.627 714.285C226.627 714.64 226.506 714.952 226.263 715.221C226.021 715.481 225.683 715.684 225.249 715.832C224.816 715.97 224.309 716.04 223.728 716.04C223.148 716.04 222.636 715.97 222.194 715.832C221.761 715.684 221.423 715.481 221.18 715.221C220.946 714.952 220.829 714.64 220.829 714.285C220.829 713.921 220.946 713.604 221.18 713.336C221.423 713.067 221.761 712.863 222.194 712.725C222.636 712.586 223.148 712.517 223.728 712.517ZM223.728 713.258C223.156 713.258 222.697 713.349 222.35 713.531C222.012 713.713 221.843 713.964 221.843 714.285C221.843 714.588 222.012 714.835 222.35 715.026C222.697 715.208 223.156 715.299 223.728 715.299C224.3 715.299 224.755 715.208 225.093 715.026C225.44 714.835 225.613 714.588 225.613 714.285C225.613 713.964 225.44 713.713 225.093 713.531C224.755 713.349 224.3 713.258 223.728 713.258ZM241.494 722.062V723.034H235.889V722.062H238.168V715.182L236.149 716.623V715.543L238.263 714.09H239.317V722.062H241.494ZM248.711 722.062V723.034H242.789V722.228C243.005 721.732 243.265 721.294 243.569 720.914C243.878 720.533 244.206 720.19 244.553 719.885C244.9 719.581 245.243 719.297 245.582 719.035C245.751 718.903 245.91 718.772 246.058 718.641C246.21 718.51 246.354 718.379 246.489 718.248C246.76 717.985 246.978 717.71 247.143 717.422C247.312 717.135 247.397 716.809 247.397 716.445C247.397 715.954 247.253 715.573 246.965 715.302C246.678 715.031 246.278 714.896 245.766 714.896C245.279 714.896 244.877 715.029 244.56 715.296C244.247 715.558 244.062 715.929 244.007 716.407L242.839 716.299C242.924 715.584 243.227 715.014 243.747 714.591C244.272 714.168 244.945 713.957 245.766 713.957C246.667 713.957 247.359 714.17 247.841 714.598C248.328 715.021 248.571 715.624 248.571 716.407C248.571 716.754 248.491 717.099 248.33 717.441C248.174 717.784 247.939 718.127 247.626 718.47C247.469 718.639 247.241 718.857 246.94 719.124C246.64 719.39 246.269 719.703 245.829 720.063C245.343 720.461 244.955 720.82 244.668 721.142C244.38 721.459 244.172 721.766 244.046 722.062H248.711ZM253.323 712.712C253.913 712.712 254.433 712.824 254.883 713.05C255.343 713.266 255.702 713.57 255.962 713.96C256.222 714.35 256.352 714.805 256.352 715.325C256.352 715.836 256.222 716.291 255.962 716.69C255.702 717.08 255.343 717.383 254.883 717.6C254.433 717.816 253.913 717.925 253.323 717.925C252.743 717.925 252.223 717.816 251.763 717.6C251.304 717.383 250.94 717.08 250.671 716.69C250.411 716.291 250.281 715.836 250.281 715.325C250.281 714.805 250.411 714.35 250.671 713.96C250.94 713.57 251.304 713.266 251.763 713.05C252.223 712.824 252.743 712.712 253.323 712.712ZM253.323 713.609C252.942 713.609 252.6 713.682 252.296 713.83C252.002 713.968 251.768 714.168 251.594 714.428C251.421 714.688 251.334 714.987 251.334 715.325C251.334 715.663 251.421 715.962 251.594 716.222C251.768 716.473 252.002 716.672 252.296 716.82C252.6 716.967 252.942 717.041 253.323 717.041C253.705 717.041 254.043 716.967 254.337 716.82C254.641 716.672 254.879 716.473 255.052 716.222C255.226 715.962 255.312 715.663 255.312 715.325C255.312 714.987 255.226 714.688 255.052 714.428C254.879 714.168 254.641 713.968 254.337 713.83C254.043 713.682 253.705 713.609 253.323 713.609ZM258.575 712.283H259.654V718.302H258.575V712.283ZM252.049 718.887H259.654V721.734H253.128V723.502H252.088V720.928H258.588V719.745H252.049V718.887ZM252.088 723.021H260.057V723.892H252.088V723.021Z" fill="#888882"/>
</g>
</g>
</g>
<g id="Button_33" filter="url(#filter4_dd_111_2563)">
<path d="M32 277.954C32 269.117 39.1634 261.954 48 261.954H361.342C370.178 261.954 377.342 269.117 377.342 277.954V300.927C377.342 309.764 370.178 316.927 361.342 316.927H48C39.1635 316.927 32 309.764 32 300.927V277.954Z" fill="#FAFAF7"/>
<path d="M48 262.454H361.342C369.902 262.454 376.842 269.393 376.842 277.954V300.927C376.842 309.488 369.902 316.427 361.342 316.427H48C39.4396 316.427 32.5 309.488 32.5 300.927V277.954C32.5 269.393 39.4396 262.454 48 262.454Z" stroke="#E2DDD5"/>
<g id="Paragraph_4">
<path id="4&#236;&#155;&#148; 10&#236;&#157;&#188; ~ 4&#236;&#155;&#148; 12&#236;&#157;&#188;_2" d="M51.6812 290.938L56.2661 283.833H58.6392V290.894H60.0308V292.461H58.6392V294.438H56.8228V292.461H51.6812V290.938ZM56.8521 290.894V286.001H56.7349L53.6294 290.82V290.894H56.8521ZM72.2183 290.234H70.5776V289.692H68.1021V288.696H70.5776V282.515H72.2183V290.234ZM61.1001 287.29C62.7456 287.29 64.2715 287.271 65.6777 287.231C67.084 287.192 68.4243 287.109 69.6987 286.982L69.7866 288.008C68.6685 288.164 67.4429 288.274 66.1099 288.337V290.249H64.4985V288.403C63.9224 288.423 63.0874 288.433 61.9937 288.433H61.2759L61.1001 287.29ZM72.2183 293.618H64.689V294.468H72.5698V295.625H63.0923V292.549H70.6069V291.758H63.0337V290.645H72.2183V293.618ZM65.3774 282.72C66.0269 282.72 66.6006 282.803 67.0986 282.969C67.6016 283.135 67.9922 283.369 68.2705 283.672C68.5488 283.97 68.688 284.316 68.688 284.712C68.688 285.117 68.5488 285.469 68.2705 285.767C67.9922 286.064 67.604 286.294 67.106 286.455C66.6079 286.611 66.0317 286.689 65.3774 286.689C64.7085 286.689 64.1226 286.611 63.6196 286.455C63.1167 286.294 62.7261 286.064 62.4478 285.767C62.1743 285.469 62.0376 285.117 62.0376 284.712C62.0376 284.316 62.1768 283.97 62.4551 283.672C62.7334 283.369 63.124 283.135 63.627 282.969C64.1299 282.803 64.7134 282.72 65.3774 282.72ZM65.3774 283.804C64.8208 283.804 64.3813 283.887 64.0591 284.053C63.7368 284.214 63.5806 284.434 63.5903 284.712C63.5854 284.99 63.7417 285.21 64.0591 285.371C64.3813 285.527 64.8208 285.605 65.3774 285.605C65.9243 285.605 66.3589 285.527 66.6812 285.371C67.0034 285.21 67.1646 284.99 67.1646 284.712C67.1646 284.434 67.001 284.214 66.6738 284.053C66.3516 283.887 65.9194 283.804 65.3774 283.804ZM82.3843 294.438H80.4653V285.693H80.4067L77.9312 287.275V285.532L80.5532 283.833H82.3843V294.438ZM88.8735 294.585C88.0239 294.585 87.2939 294.373 86.6836 293.948C86.0781 293.518 85.6118 292.896 85.2847 292.08C84.9624 291.265 84.8013 290.283 84.8013 289.136C84.8013 287.993 84.9624 287.014 85.2847 286.199C85.6118 285.378 86.0806 284.756 86.6909 284.331C87.3013 283.901 88.0288 283.687 88.8735 283.687C89.7134 283.687 90.4385 283.901 91.0488 284.331C91.6641 284.756 92.1328 285.378 92.4551 286.199C92.7822 287.014 92.9458 287.993 92.9458 289.136C92.9458 290.283 92.7822 291.265 92.4551 292.08C92.1328 292.896 91.6665 293.518 91.0562 293.948C90.4507 294.373 89.7231 294.585 88.8735 294.585ZM88.8735 292.988C89.3228 292.988 89.7061 292.844 90.0234 292.556C90.3457 292.263 90.5923 291.831 90.7632 291.26C90.939 290.684 91.0269 289.976 91.0269 289.136C91.0269 288.306 90.939 287.603 90.7632 287.026C90.5923 286.445 90.3457 286.008 90.0234 285.715C89.7012 285.417 89.3179 285.269 88.8735 285.269C88.4292 285.269 88.0459 285.417 87.7236 285.715C87.4014 286.008 87.1523 286.445 86.9766 287.026C86.8057 287.603 86.7202 288.306 86.7202 289.136C86.7202 289.976 86.8057 290.684 86.9766 291.26C87.1523 291.831 87.3989 292.263 87.7163 292.556C88.0386 292.844 88.4243 292.988 88.8735 292.988ZM97.853 282.925C98.5171 282.925 99.1152 283.054 99.6475 283.313C100.18 283.567 100.597 283.921 100.9 284.375C101.208 284.829 101.364 285.342 101.369 285.913C101.364 286.489 101.208 287.004 100.9 287.458C100.597 287.913 100.18 288.267 99.6475 288.521C99.1152 288.774 98.5171 288.901 97.853 288.901C97.1841 288.901 96.5811 288.774 96.0439 288.521C95.5117 288.267 95.0942 287.913 94.7915 287.458C94.4888 287.004 94.3374 286.489 94.3374 285.913C94.3374 285.342 94.4888 284.829 94.7915 284.375C95.0942 283.921 95.5142 283.567 96.0513 283.313C96.5884 283.054 97.189 282.925 97.853 282.925ZM97.853 284.272C97.4819 284.272 97.1499 284.341 96.8569 284.478C96.564 284.609 96.3345 284.8 96.1685 285.049C96.0024 285.293 95.9194 285.581 95.9194 285.913C95.9194 286.25 96.0024 286.545 96.1685 286.799C96.3345 287.048 96.564 287.241 96.8569 287.378C97.1499 287.515 97.4819 287.583 97.853 287.583C98.2241 287.583 98.5562 287.515 98.8491 287.378C99.1421 287.241 99.3716 287.048 99.5376 286.799C99.7036 286.545 99.7866 286.25 99.7866 285.913C99.7866 285.581 99.7036 285.293 99.5376 285.049C99.3716 284.8 99.1421 284.609 98.8491 284.478C98.5562 284.341 98.2241 284.272 97.853 284.272ZM105.133 289.194H103.493V282.5H105.133V289.194ZM105.133 293.223H97.9702V294.292H105.529V295.581H96.3735V292.021H103.507V291.04H96.3442V289.766H105.133V293.223ZM111.593 288.74C111.833 288.477 112.104 288.276 112.406 288.14C112.709 288.003 113.029 287.935 113.366 287.935C113.625 287.935 113.876 287.969 114.12 288.037C114.364 288.101 114.674 288.203 115.05 288.345C115.412 288.481 115.714 288.584 115.958 288.652C116.208 288.721 116.461 288.755 116.72 288.755C117.404 288.755 117.98 288.477 118.449 287.92V289.517C118.209 289.785 117.938 289.988 117.636 290.125C117.338 290.256 117.018 290.322 116.676 290.322C116.417 290.322 116.161 290.288 115.907 290.22C115.653 290.146 115.348 290.044 114.992 289.912C114.635 289.78 114.33 289.68 114.076 289.612C113.827 289.539 113.576 289.502 113.322 289.502C112.638 289.502 112.062 289.78 111.593 290.337V288.74ZM124.103 290.938L128.688 283.833H131.061V290.894H132.453V292.461H131.061V294.438H129.245V292.461H124.103V290.938ZM129.274 290.894V286.001H129.157L126.051 290.82V290.894H129.274ZM144.64 290.234H143V289.692H140.524V288.696H143V282.515H144.64V290.234ZM133.522 287.29C135.167 287.29 136.693 287.271 138.1 287.231C139.506 287.192 140.846 287.109 142.121 286.982L142.208 288.008C141.09 288.164 139.865 288.274 138.532 288.337V290.249H136.92V288.403C136.344 288.423 135.509 288.433 134.416 288.433H133.698L133.522 287.29ZM144.64 293.618H137.111V294.468H144.992V295.625H135.514V292.549H143.029V291.758H135.456V290.645H144.64V293.618ZM137.799 282.72C138.449 282.72 139.022 282.803 139.521 282.969C140.023 283.135 140.414 283.369 140.692 283.672C140.971 283.97 141.11 284.316 141.11 284.712C141.11 285.117 140.971 285.469 140.692 285.767C140.414 286.064 140.026 286.294 139.528 286.455C139.03 286.611 138.454 286.689 137.799 286.689C137.13 286.689 136.544 286.611 136.042 286.455C135.539 286.294 135.148 286.064 134.87 285.767C134.596 285.469 134.459 285.117 134.459 284.712C134.459 284.316 134.599 283.97 134.877 283.672C135.155 283.369 135.546 283.135 136.049 282.969C136.552 282.803 137.135 282.72 137.799 282.72ZM137.799 283.804C137.243 283.804 136.803 283.887 136.481 284.053C136.159 284.214 136.002 284.434 136.012 284.712C136.007 284.99 136.164 285.21 136.481 285.371C136.803 285.527 137.243 285.605 137.799 285.605C138.346 285.605 138.781 285.527 139.103 285.371C139.425 285.21 139.586 284.99 139.586 284.712C139.586 284.434 139.423 284.214 139.096 284.053C138.773 283.887 138.341 283.804 137.799 283.804ZM154.806 294.438H152.887V285.693H152.829L150.353 287.275V285.532L152.975 283.833H154.806V294.438ZM157.384 293.062L161.134 289.443C161.54 289.038 161.852 288.706 162.072 288.447C162.296 288.184 162.467 287.925 162.584 287.671C162.702 287.412 162.76 287.139 162.76 286.851C162.76 286.528 162.682 286.245 162.526 286.001C162.37 285.757 162.152 285.569 161.874 285.437C161.601 285.305 161.291 285.239 160.944 285.239C160.583 285.239 160.265 285.312 159.992 285.459C159.723 285.601 159.516 285.806 159.369 286.074C159.223 286.338 159.152 286.646 159.157 286.997H157.34C157.335 286.338 157.487 285.759 157.794 285.261C158.102 284.758 158.529 284.37 159.076 284.097C159.628 283.823 160.255 283.687 160.958 283.687C161.671 283.687 162.301 283.818 162.848 284.082C163.4 284.346 163.827 284.712 164.13 285.181C164.438 285.645 164.591 286.172 164.591 286.763C164.591 287.173 164.511 287.568 164.35 287.949C164.193 288.33 163.925 288.752 163.544 289.216C163.163 289.675 162.624 290.234 161.925 290.894L160.036 292.769V292.842H164.752V294.438H157.384V293.062ZM169.733 282.925C170.397 282.925 170.995 283.054 171.527 283.313C172.06 283.567 172.477 283.921 172.78 284.375C173.087 284.829 173.244 285.342 173.249 285.913C173.244 286.489 173.087 287.004 172.78 287.458C172.477 287.913 172.06 288.267 171.527 288.521C170.995 288.774 170.397 288.901 169.733 288.901C169.064 288.901 168.461 288.774 167.924 288.521C167.392 288.267 166.974 287.913 166.671 287.458C166.369 287.004 166.217 286.489 166.217 285.913C166.217 285.342 166.369 284.829 166.671 284.375C166.974 283.921 167.394 283.567 167.931 283.313C168.468 283.054 169.069 282.925 169.733 282.925ZM169.733 284.272C169.362 284.272 169.03 284.341 168.737 284.478C168.444 284.609 168.214 284.8 168.048 285.049C167.882 285.293 167.799 285.581 167.799 285.913C167.799 286.25 167.882 286.545 168.048 286.799C168.214 287.048 168.444 287.241 168.737 287.378C169.03 287.515 169.362 287.583 169.733 287.583C170.104 287.583 170.436 287.515 170.729 287.378C171.022 287.241 171.251 287.048 171.417 286.799C171.583 286.545 171.667 286.25 171.667 285.913C171.667 285.581 171.583 285.293 171.417 285.049C171.251 284.8 171.022 284.609 170.729 284.478C170.436 284.341 170.104 284.272 169.733 284.272ZM177.013 289.194H175.373V282.5H177.013V289.194ZM177.013 293.223H169.85V294.292H177.409V295.581H168.253V292.021H175.387V291.04H168.224V289.766H177.013V293.223Z" fill="#1A1A1A"/>
</g>
<g id="Icon_4">
<path id="Vector_5" d="M345.019 281.109V284.442" stroke="#888882" stroke-width="1.66623" stroke-linecap="round" stroke-linejoin="round"/>
<path id="Vector_6" d="M351.684 281.109V284.442" stroke="#888882" stroke-width="1.66623" stroke-linecap="round" stroke-linejoin="round"/>
<path id="Vector_7" d="M354.183 282.776H342.52C341.6 282.776 340.854 283.522 340.854 284.442V296.106C340.854 297.026 341.6 297.772 342.52 297.772H354.183C355.104 297.772 355.85 297.026 355.85 296.106V284.442C355.85 283.522 355.104 282.776 354.183 282.776Z" stroke="#888882" stroke-width="1.66623" stroke-linecap="round" stroke-linejoin="round"/>
<path id="Vector_8" d="M340.854 287.774H355.85" stroke="#888882" stroke-width="1.66623" stroke-linecap="round" stroke-linejoin="round"/>
</g>
</g>
</g>
</g>
</g>
<g id="Container_14">
<g id="Icon_5" clip-path="url(#clip0_111_2563)">
<path id="Vector_9" d="M163.671 25.9941H245.671" stroke="#888882" stroke-width="7.99775" stroke-linecap="round"/>
</g>
</g>
</g>
<defs>
<filter id="filter0_dd_111_2563" x="0.170898" y="126.986" width="409.342" height="118.974" filterUnits="userSpaceOnUse" color-interpolation-filters="sRGB">
<feFlood flood-opacity="0" result="BackgroundImageFix"/>
<feColorMatrix in="SourceAlpha" type="matrix" values="0 0 0 0 0 0 0 0 0 0 0 0 0 0 0 0 0 0 127 0" result="hardAlpha"/>
<feOffset dy="8"/>
<feGaussianBlur stdDeviation="16"/>
<feColorMatrix type="matrix" values="0 0 0 0 0.118 0 0 0 0 0.157 0 0 0 0 0.133 0 0 0 0.16 0"/>
<feBlend mode="normal" in2="BackgroundImageFix" result="effect1_dropShadow_111_2563"/>
<feColorMatrix in="SourceAlpha" type="matrix" values="0 0 0 0 0 0 0 0 0 0 0 0 0 0 0 0 0 0 127 0" result="hardAlpha"/>
<feOffset dy="2"/>
<feGaussianBlur stdDeviation="4"/>
<feColorMatrix type="matrix" values="0 0 0 0 0.118 0 0 0 0 0.157 0 0 0 0 0.133 0 0 0 0.08 0"/>
<feBlend mode="normal" in2="effect1_dropShadow_111_2563" result="effect2_dropShadow_111_2563"/>
<feBlend mode="normal" in="SourceGraphic" in2="effect2_dropShadow_111_2563" result="shape"/>
</filter>
<filter id="filter1_dd_111_2563" x="2.6748" y="308.927" width="403.992" height="483.596" filterUnits="userSpaceOnUse" color-interpolation-filters="sRGB">
<feFlood flood-opacity="0" result="BackgroundImageFix"/>
<feColorMatrix in="SourceAlpha" type="matrix" values="0 0 0 0 0 0 0 0 0 0 0 0 0 0 0 0 0 0 127 0" result="hardAlpha"/>
<feOffset dy="8"/>
<feGaussianBlur stdDeviation="16"/>
<feColorMatrix type="matrix" values="0 0 0 0 0.118 0 0 0 0 0.157 0 0 0 0 0.133 0 0 0 0.16 0"/>
<feBlend mode="normal" in2="BackgroundImageFix" result="effect1_dropShadow_111_2563"/>
<feColorMatrix in="SourceAlpha" type="matrix" values="0 0 0 0 0 0 0 0 0 0 0 0 0 0 0 0 0 0 127 0" result="hardAlpha"/>
<feOffset dy="2"/>
<feGaussianBlur stdDeviation="4"/>
<feColorMatrix type="matrix" values="0 0 0 0 0.118 0 0 0 0 0.157 0 0 0 0 0.133 0 0 0 0.08 0"/>
<feBlend mode="normal" in2="effect1_dropShadow_111_2563" result="effect2_dropShadow_111_2563"/>
<feBlend mode="normal" in="SourceGraphic" in2="effect2_dropShadow_111_2563" result="shape"/>
</filter>
<filter id="filter2_dd_111_2563" x="261.135" y="497.369" width="55.8999" height="58" filterUnits="userSpaceOnUse" color-interpolation-filters="sRGB">
<feFlood flood-opacity="0" result="BackgroundImageFix"/>
<feColorMatrix in="SourceAlpha" type="matrix" values="0 0 0 0 0 0 0 0 0 0 0 0 0 0 0 0 0 0 127 0" result="hardAlpha"/>
<feOffset dy="2"/>
<feGaussianBlur stdDeviation="4"/>
<feColorMatrix type="matrix" values="0 0 0 0 0.118 0 0 0 0 0.157 0 0 0 0 0.133 0 0 0 0.09 0"/>
<feBlend mode="normal" in2="BackgroundImageFix" result="effect1_dropShadow_111_2563"/>
<feColorMatrix in="SourceAlpha" type="matrix" values="0 0 0 0 0 0 0 0 0 0 0 0 0 0 0 0 0 0 127 0" result="hardAlpha"/>
<feOffset dy="1"/>
<feGaussianBlur stdDeviation="1"/>
<feColorMatrix type="matrix" values="0 0 0 0 0.118 0 0 0 0 0.157 0 0 0 0 0.133 0 0 0 0.04 0"/>
<feBlend mode="normal" in2="effect1_dropShadow_111_2563" result="effect2_dropShadow_111_2563"/>
<feBlend mode="normal" in="SourceGraphic" in2="effect2_dropShadow_111_2563" result="shape"/>
</filter>
<filter id="filter3_dd_111_2563" x="49.7158" y="541.351" width="55.8999" height="58" filterUnits="userSpaceOnUse" color-interpolation-filters="sRGB">
<feFlood flood-opacity="0" result="BackgroundImageFix"/>
<feColorMatrix in="SourceAlpha" type="matrix" values="0 0 0 0 0 0 0 0 0 0 0 0 0 0 0 0 0 0 127 0" result="hardAlpha"/>
<feOffset dy="2"/>
<feGaussianBlur stdDeviation="4"/>
<feColorMatrix type="matrix" values="0 0 0 0 0.118 0 0 0 0 0.157 0 0 0 0 0.133 0 0 0 0.09 0"/>
<feBlend mode="normal" in2="BackgroundImageFix" result="effect1_dropShadow_111_2563"/>
<feColorMatrix in="SourceAlpha" type="matrix" values="0 0 0 0 0 0 0 0 0 0 0 0 0 0 0 0 0 0 127 0" result="hardAlpha"/>
<feOffset dy="1"/>
<feGaussianBlur stdDeviation="1"/>
<feColorMatrix type="matrix" values="0 0 0 0 0.118 0 0 0 0 0.157 0 0 0 0 0.133 0 0 0 0.04 0"/>
<feBlend mode="normal" in2="effect1_dropShadow_111_2563" result="effect2_dropShadow_111_2563"/>
<feBlend mode="normal" in="SourceGraphic" in2="effect2_dropShadow_111_2563" result="shape"/>
</filter>
<filter id="filter4_dd_111_2563" x="0" y="237.954" width="409.342" height="118.974" filterUnits="userSpaceOnUse" color-interpolation-filters="sRGB">
<feFlood flood-opacity="0" result="BackgroundImageFix"/>
<feColorMatrix in="SourceAlpha" type="matrix" values="0 0 0 0 0 0 0 0 0 0 0 0 0 0 0 0 0 0 127 0" result="hardAlpha"/>
<feOffset dy="8"/>
<feGaussianBlur stdDeviation="16"/>
<feColorMatrix type="matrix" values="0 0 0 0 0.118 0 0 0 0 0.157 0 0 0 0 0.133 0 0 0 0.16 0"/>
<feBlend mode="normal" in2="BackgroundImageFix" result="effect1_dropShadow_111_2563"/>
<feColorMatrix in="SourceAlpha" type="matrix" values="0 0 0 0 0 0 0 0 0 0 0 0 0 0 0 0 0 0 127 0" result="hardAlpha"/>
<feOffset dy="2"/>
<feGaussianBlur stdDeviation="4"/>
<feColorMatrix type="matrix" values="0 0 0 0 0.118 0 0 0 0 0.157 0 0 0 0 0.133 0 0 0 0.08 0"/>
<feBlend mode="normal" in2="effect1_dropShadow_111_2563" result="effect2_dropShadow_111_2563"/>
<feBlend mode="normal" in="SourceGraphic" in2="effect2_dropShadow_111_2563" result="shape"/>
</filter>
<clipPath id="clip0_111_2563">
<rect width="89.9996" height="7.99554" fill="white" transform="translate(159.671 21.9966)"/>
</clipPath>
</defs>
</svg>
