<svg width="410" height="748" viewBox="0 0 410 748" fill="none" xmlns="http://www.w3.org/2000/svg">
<g id="Property 1=people_expanded2">
<path d="M8 16C8 7.16345 15.1634 0 24 0H385C393.837 0 401 7.16344 401 16V731H8V16Z" fill="#F5F3EE"/>
<g id="Frame 65">
<g id="Heading 2">
<path id="&#236;&#151;&#172;&#237;&#150;&#137; &#236;&#160;&#149;&#235;&#179;&#180;&#235;&#165;&#188; &#236;&#158;&#133;&#235;&#160;&#165;&#237;&#149;&#180;&#236;&#163;&#188;&#236;&#132;&#184;&#236;&#154;&#148;" d="M38.1553 73.9102C39.917 73.9102 41.3672 74.8877 42.2373 76.5957H46.7705V72.4922H49.1338V91.9355H46.7705V84.5879H42.4092C41.5713 86.5215 40.0352 87.6387 38.1553 87.6387C35.2334 87.6387 33.1709 84.9961 33.1709 80.7637C33.1709 76.5742 35.2334 73.9102 38.1553 73.9102ZM38.1553 76.0586C36.5439 76.0586 35.4482 77.7988 35.4697 80.7637C35.4482 83.75 36.5439 85.4902 38.1553 85.4902C39.7666 85.4902 40.8408 83.75 40.8623 80.7637C40.8408 77.7988 39.7666 76.0586 38.1553 76.0586ZM42.9033 78.5508C43.043 79.2275 43.1182 79.9688 43.1182 80.7637C43.1182 81.4404 43.0645 82.0635 42.9678 82.6543H46.7705V78.5508H42.9033ZM68.4697 72.4922V84.6953H66.1924V79.4102H64.3018V84.0508H62.0674V72.8789H64.3018V77.4766H66.1924V72.4922H68.4697ZM61.4229 74.5977V76.4668H51.7549V74.5977H55.4287V72.6641H57.792V74.5977H61.4229ZM56.6104 77.2617C59.0811 77.2617 60.8213 78.5938 60.8428 80.6133C60.8213 82.6328 59.0811 83.9648 56.6104 83.9648C54.1826 83.9648 52.4209 82.6328 52.4424 80.6133C52.4209 78.5938 54.1826 77.2617 56.6104 77.2617ZM56.6104 78.9805C55.4072 78.9805 54.5693 79.6035 54.5693 80.6133C54.5693 81.623 55.3857 82.2461 56.6104 82.2461C57.835 82.2461 58.6729 81.623 58.6729 80.6133C58.6729 79.6035 57.835 78.9805 56.6104 78.9805ZM61.917 84.9316C66.0635 84.9316 68.5557 86.1992 68.5771 88.4336C68.5557 90.625 66.0635 91.8926 61.917 91.8926C57.7705 91.8926 55.2568 90.625 55.2568 88.4336C55.2568 86.1992 57.7705 84.9316 61.917 84.9316ZM61.917 86.7578C59.1455 86.7363 57.6416 87.2949 57.6416 88.4336C57.6416 89.5078 59.1455 90.0664 61.917 90.0664C64.667 90.0664 66.1709 89.5078 66.1709 88.4336C66.1709 87.2949 64.667 86.7363 61.917 86.7578ZM92.3604 72.4922V84.0293H89.9756V79.2812H86.667V77.3262H89.9756V72.4922H92.3604ZM85.7861 84.5234C89.9111 84.5234 92.4248 85.877 92.4248 88.2188C92.4248 90.5605 89.9111 91.9141 85.7861 91.9141C81.6826 91.9141 79.1689 90.5605 79.1904 88.2188C79.1689 85.877 81.6826 84.5234 85.7861 84.5234ZM85.7861 86.3496C83.0791 86.3496 81.5537 86.9941 81.5537 88.2188C81.5537 89.4219 83.0791 90.0664 85.7861 90.0664C88.4932 90.0664 90.04 89.4219 90.04 88.2188C90.04 86.9941 88.4932 86.3496 85.7861 86.3496ZM83.2295 75.8223C83.2295 78.1855 84.7979 80.5703 87.8057 81.5801L86.6025 83.4707C84.4434 82.7402 82.9072 81.2578 82.0693 79.4316C81.21 81.5049 79.5879 83.1592 77.2783 83.9863L76.0322 82.0957C79.1475 81.0215 80.8018 78.4004 80.8018 75.8438V75.6934H76.7627V73.7598H87.2471V75.6934H83.2295V75.8223ZM112.856 87.6172V89.5723H95.1104V87.6172H102.759V83.8359H97.0654V73.7812H99.4502V76.9609H108.452V73.7812H110.837V83.8359H105.122V87.6172H112.856ZM99.4502 81.9023H108.452V78.873H99.4502V81.9023ZM131.849 81.3008V83.1055H114.103V81.3008H131.849ZM129.7 84.2656V88.6914H118.571V90.0449H130.28V91.6992H116.187V87.1445H127.337V85.9414H116.165V84.2656H129.7ZM129.657 72.9219V77.3047H118.722V78.5723H130.001V80.2051H116.358V75.7578H127.272V74.5762H116.294V72.9219H129.657ZM154.536 72.4922V82.9121H152.13V72.4922H154.536ZM144.052 83.8145V85.8125H152.151V83.8145H154.536V91.6777H141.688V83.8145H144.052ZM144.052 89.7441H152.151V87.6816H144.052V89.7441ZM143.944 73.3516C146.931 73.3301 149.165 75.1992 149.165 77.9062C149.165 80.5488 146.931 82.418 143.944 82.418C140.937 82.418 138.702 80.5488 138.702 77.9062C138.702 75.1992 140.937 73.3301 143.944 73.3516ZM143.944 75.3496C142.247 75.3496 141.022 76.3379 141.044 77.9062C141.022 79.4531 142.247 80.4414 143.944 80.4629C145.62 80.4414 146.823 79.4531 146.823 77.9062C146.823 76.3379 145.62 75.3496 143.944 75.3496ZM166.653 73.6523V79.4961H160.53V81.8809C163.646 81.8916 165.439 81.7949 167.491 81.4082L167.728 83.3418C165.407 83.7285 163.388 83.793 159.585 83.793H158.167V77.7129H164.269V75.543H158.124V73.6523H166.653ZM173.636 72.5137V84.459H171.251V81.2578H167.813V79.3457H171.251V77.1758H167.813V75.2637H171.251V72.5137H173.636ZM173.636 85.3828V91.9141H171.251V87.2949H160.358V85.3828H173.636ZM185.86 75.5859V77.498H176.343V75.5859H179.952V73.0508H182.315V75.5859H185.86ZM181.134 78.5293C183.604 78.5293 185.366 80.3984 185.366 83.041C185.366 85.7266 183.604 87.6172 181.134 87.6172C178.685 87.6172 176.88 85.7266 176.901 83.041C176.88 80.3984 178.685 78.5293 181.134 78.5293ZM181.134 80.5059C179.866 80.5059 178.985 81.5156 179.007 83.041C178.985 84.6094 179.866 85.5977 181.134 85.5762C182.38 85.5977 183.261 84.6094 183.261 83.041C183.261 81.5156 182.38 80.5059 181.134 80.5059ZM193.079 72.4922V91.9141H190.802V82.418H188.911V91.0332H186.677V72.9004H188.911V80.4844H190.802V72.4922H193.079ZM213.103 83.3203V85.2539H205.39V91.8926H203.026V85.2539H195.399V83.3203H213.103ZM211.47 73.5879V75.4785H205.647C205.787 77.6055 208.344 79.6465 212.179 80.1406L211.319 82.0098C208.011 81.5479 205.433 80.0332 204.251 77.9277C203.069 80.0332 200.491 81.5479 197.226 82.0098L196.323 80.1406C200.137 79.6465 202.693 77.6055 202.876 75.4785H197.032V73.5879H211.47ZM220.472 77.584C220.472 80.7207 221.567 83.9863 224.188 85.6406L222.878 87.4668C221.127 86.4141 219.988 84.5986 219.354 82.4609C218.646 84.8135 217.399 86.8008 215.573 87.918L214.091 86.1348C216.905 84.416 218.173 81 218.173 77.6914V74.2109H220.472V77.584ZM231.171 72.4922V91.9141H228.872V72.4922H231.171ZM227.132 72.8359V90.9688H224.876V81.1504H222.104V79.1738H224.876V72.8359H227.132ZM251.173 87.5957V89.5508H233.427V87.5957H237.53V82.6758C235.983 81.7949 235.049 80.4092 235.06 78.6797C235.038 75.5859 238.089 73.5449 242.257 73.5449C246.446 73.5449 249.497 75.5859 249.497 78.6797C249.497 80.377 248.595 81.7412 247.091 82.6328V87.5957H251.173ZM242.257 75.4355C239.356 75.4355 237.38 76.6602 237.401 78.6797C237.38 80.6777 239.356 81.9238 242.257 81.9238C245.157 81.9238 247.155 80.6777 247.155 78.6797C247.155 76.6602 245.157 75.4355 242.257 75.4355ZM239.894 87.5957H244.663V83.5352C243.922 83.707 243.116 83.793 242.257 83.793C241.419 83.793 240.624 83.707 239.894 83.5566V87.5957Z" fill="#1A1A1A"/>
</g>
<g id="Container">
<g id="DestinationField">
<g id="Paragraph">
<path id="&#236;&#151;&#172;&#237;&#150;&#137;&#236;&#167;&#128;" d="M35.7871 127.754C36.3431 127.754 36.8444 127.903 37.291 128.199C37.7422 128.495 38.1068 128.917 38.3848 129.463H41.2695V126.852H42.7734V139.225H41.2695V134.549H38.4941C38.2253 135.165 37.8561 135.643 37.3867 135.985C36.9173 136.322 36.3841 136.491 35.7871 136.491C35.1673 136.491 34.6182 136.313 34.1396 135.958C33.6611 135.602 33.2874 135.094 33.0186 134.433C32.7497 133.772 32.6152 133 32.6152 132.116C32.6152 131.241 32.7497 130.475 33.0186 129.819C33.2874 129.158 33.6611 128.65 34.1396 128.294C34.6227 127.934 35.1719 127.754 35.7871 127.754ZM35.7871 129.122C35.4453 129.122 35.1445 129.242 34.8848 129.484C34.625 129.721 34.4245 130.065 34.2832 130.516C34.1419 130.963 34.0736 131.496 34.0781 132.116C34.0736 132.74 34.1419 133.278 34.2832 133.729C34.4245 134.18 34.625 134.527 34.8848 134.768C35.1445 135.005 35.4453 135.124 35.7871 135.124C36.1289 135.124 36.4274 135.005 36.6826 134.768C36.9424 134.527 37.1429 134.18 37.2842 133.729C37.43 133.278 37.5052 132.74 37.5098 132.116C37.5052 131.496 37.43 130.96 37.2842 130.509C37.1429 130.058 36.9424 129.714 36.6826 129.477C36.4274 129.24 36.1289 129.122 35.7871 129.122ZM38.8086 130.708C38.8997 131.15 38.9453 131.619 38.9453 132.116C38.9453 132.526 38.9134 132.927 38.8496 133.319H41.2695V130.708H38.8086ZM55.0781 134.618H53.6289V131.254H52.4258V134.208H51.0039V127.098H52.4258V130.024H53.6289V126.852H55.0781V134.618ZM50.5938 129.381H44.4414V128.192H46.7793V126.961H48.2832V128.192H50.5938V129.381ZM47.5312 129.887C48.0508 129.887 48.5133 129.976 48.9189 130.154C49.3245 130.332 49.6413 130.582 49.8691 130.906C50.1016 131.225 50.2201 131.596 50.2246 132.02C50.2201 132.444 50.1016 132.818 49.8691 133.141C49.6413 133.46 49.3245 133.708 48.9189 133.886C48.5133 134.064 48.0508 134.153 47.5312 134.153C47.0208 134.153 46.5628 134.064 46.1572 133.886C45.7516 133.708 45.4349 133.458 45.207 133.134C44.9837 132.811 44.8743 132.439 44.8789 132.02C44.8743 131.601 44.9837 131.229 45.207 130.906C45.4349 130.582 45.7516 130.332 46.1572 130.154C46.5628 129.976 47.0208 129.887 47.5312 129.887ZM47.5312 130.981C47.1439 130.981 46.8294 131.074 46.5879 131.261C46.3509 131.448 46.2324 131.701 46.2324 132.02C46.2324 132.339 46.3509 132.592 46.5879 132.779C46.8249 132.966 47.1393 133.059 47.5312 133.059C47.9232 133.059 48.2399 132.966 48.4814 132.779C48.723 132.592 48.8438 132.339 48.8438 132.02C48.8438 131.701 48.723 131.448 48.4814 131.261C48.2399 131.074 47.9232 130.981 47.5312 130.981ZM50.9082 134.768C51.7878 134.768 52.5443 134.855 53.1777 135.028C53.8112 135.201 54.2965 135.456 54.6338 135.793C54.971 136.126 55.1419 136.527 55.1465 136.997C55.1419 137.457 54.9688 137.851 54.627 138.179C54.2897 138.512 53.8044 138.765 53.1709 138.938C52.5374 139.111 51.7832 139.198 50.9082 139.198C50.0332 139.198 49.2767 139.111 48.6387 138.938C48.0052 138.765 47.5176 138.512 47.1758 138.179C46.8385 137.851 46.6699 137.457 46.6699 136.997C46.6699 136.527 46.8385 136.126 47.1758 135.793C47.5176 135.456 48.0052 135.201 48.6387 135.028C49.2721 134.855 50.0286 134.768 50.9082 134.768ZM50.9082 135.93C50.0195 135.921 49.3428 136.008 48.8779 136.19C48.4176 136.368 48.1875 136.637 48.1875 136.997C48.1875 137.338 48.4199 137.598 48.8848 137.776C49.3496 137.949 50.0241 138.036 50.9082 138.036C51.7878 138.036 52.4577 137.949 52.918 137.776C53.3828 137.598 53.6152 137.338 53.6152 136.997C53.6152 136.637 53.3828 136.368 52.918 136.19C52.4577 136.008 51.7878 135.921 50.9082 135.93ZM61.2715 130.366C61.2715 131.045 61.3991 131.717 61.6543 132.382C61.9141 133.043 62.2832 133.638 62.7617 134.167C63.2448 134.691 63.8099 135.087 64.457 135.356L63.623 136.559C62.9076 136.254 62.2855 135.796 61.7568 135.185C61.2282 134.574 60.818 133.866 60.5264 133.059C60.2347 133.925 59.8223 134.693 59.2891 135.363C58.7604 136.028 58.1406 136.527 57.4297 136.86L56.5547 135.67C57.1882 135.379 57.7441 134.95 58.2227 134.385C58.7057 133.82 59.0771 133.187 59.3369 132.485C59.5967 131.778 59.7266 131.072 59.7266 130.366V129.327H57.0059V128.069H63.9785V129.327H61.2715V130.366ZM66.8906 139.211H65.3594V126.852H66.8906V139.211Z" fill="#4A4A4A"/>
</g>
<g id="Container_2" filter="url(#filter0_dd_156_5015)">
<path d="M32 169.991C32 161.155 39.1634 153.991 48 153.991H361.342C370.178 153.991 377.342 161.155 377.342 169.991V192.965C377.342 201.802 370.178 208.965 361.342 208.965H48C39.1635 208.965 32 201.802 32 192.965V169.991Z" fill="#FAFAF7"/>
<path d="M48 154.491H361.342C369.902 154.491 376.842 161.431 376.842 169.991V192.965C376.842 201.525 369.902 208.465 361.342 208.465H48C39.4396 208.465 32.5 201.525 32.5 192.965V169.991C32.5 161.431 39.4396 154.491 48 154.491Z" stroke="#E2DDD5"/>
<g id="Text Input">
<path id="&#236;&#151;&#172;&#237;&#150;&#137;&#236;&#167;&#128;&#235;&#165;&#188; &#236;&#158;&#133;&#235;&#160;&#165;&#237;&#149;&#152;&#236;&#132;&#184;&#236;&#154;&#148;" d="M55.5488 175.506C56.75 175.506 57.7388 176.173 58.332 177.337H61.4229V174.54H63.0342V187.796H61.4229V182.787H58.4492C57.8779 184.105 56.8306 184.867 55.5488 184.867C53.5566 184.867 52.1504 183.065 52.1504 180.179C52.1504 177.323 53.5566 175.506 55.5488 175.506ZM55.5488 176.971C54.4502 176.971 53.7031 178.158 53.7178 180.179C53.7031 182.215 54.4502 183.402 55.5488 183.402C56.6475 183.402 57.3799 182.215 57.3945 180.179C57.3799 178.158 56.6475 176.971 55.5488 176.971ZM58.7861 178.67C58.8813 179.132 58.9326 179.637 58.9326 180.179C58.9326 180.641 58.896 181.065 58.8301 181.468H61.4229V178.67H58.7861ZM76.2178 174.54V182.86H74.665V179.256H73.376V182.42H71.8525V174.803H73.376V177.938H74.665V174.54H76.2178ZM71.4131 175.975V177.25H64.8213V175.975H67.3262V174.657H68.9375V175.975H71.4131ZM68.1318 177.792C69.8164 177.792 71.0029 178.7 71.0176 180.077C71.0029 181.454 69.8164 182.362 68.1318 182.362C66.4766 182.362 65.2754 181.454 65.29 180.077C65.2754 178.7 66.4766 177.792 68.1318 177.792ZM68.1318 178.963C67.3115 178.963 66.7402 179.388 66.7402 180.077C66.7402 180.765 67.2969 181.19 68.1318 181.19C68.9668 181.19 69.5381 180.765 69.5381 180.077C69.5381 179.388 68.9668 178.963 68.1318 178.963ZM71.75 183.021C74.5771 183.021 76.2764 183.885 76.291 185.409C76.2764 186.903 74.5771 187.767 71.75 187.767C68.9229 187.767 67.209 186.903 67.209 185.409C67.209 183.885 68.9229 183.021 71.75 183.021ZM71.75 184.266C69.8604 184.251 68.835 184.632 68.835 185.409C68.835 186.141 69.8604 186.522 71.75 186.522C73.625 186.522 74.6504 186.141 74.6504 185.409C74.6504 184.632 73.625 184.251 71.75 184.266ZM82.8535 178.304C82.8535 180.472 84.1279 182.757 86.2666 183.651L85.373 184.94C83.8057 184.266 82.6631 182.875 82.0625 181.19C81.4473 183.006 80.29 184.53 78.7373 185.262L77.7998 183.988C79.8945 183.021 81.1982 180.56 81.1982 178.304V177.191H78.2832V175.843H85.7539V177.191H82.8535V178.304ZM88.874 174.54V187.782H87.2334V174.54H88.874ZM102.907 180.545V181.776H90.8076V180.545H102.907ZM101.442 182.567V185.584H93.8545V186.507H101.838V187.635H92.2285V184.53H99.8311V183.709H92.2139V182.567H101.442ZM101.413 174.833V177.821H93.957V178.685H101.647V179.798H92.3457V176.766H99.7871V175.96H92.3018V174.833H101.413ZM118.376 174.54V181.644H116.735V174.54H118.376ZM111.228 182.259V183.622H116.75V182.259H118.376V187.621H109.616V182.259H111.228ZM111.228 186.302H116.75V184.896H111.228V186.302ZM111.154 175.125C113.19 175.111 114.714 176.385 114.714 178.231C114.714 180.033 113.19 181.307 111.154 181.307C109.104 181.307 107.58 180.033 107.58 178.231C107.58 176.385 109.104 175.111 111.154 175.125ZM111.154 176.488C109.997 176.488 109.162 177.162 109.177 178.231C109.162 179.286 109.997 179.959 111.154 179.974C112.297 179.959 113.117 179.286 113.117 178.231C113.117 177.162 112.297 176.488 111.154 176.488ZM126.638 175.331V179.315H122.463V180.941C124.587 180.948 125.81 180.882 127.209 180.619L127.37 181.937C125.788 182.201 124.411 182.245 121.818 182.245H120.852V178.099H125.012V176.62H120.822V175.331H126.638ZM131.398 174.554V182.699H129.772V180.516H127.429V179.212H129.772V177.733H127.429V176.429H129.772V174.554H131.398ZM131.398 183.329V187.782H129.772V184.632H122.346V183.329H131.398ZM143.645 174.54V179.813H145.681V181.161H143.645V187.782H142.033V174.54H143.645ZM141.008 176.576V177.879H133.2V176.576H136.335V174.73H137.961V176.576H141.008ZM137.155 178.744C139.06 178.744 140.48 180.033 140.48 181.864C140.48 183.695 139.06 184.969 137.155 184.969C135.222 184.969 133.801 183.695 133.815 181.864C133.801 180.033 135.222 178.744 137.155 178.744ZM137.155 180.077C136.115 180.077 135.368 180.78 135.368 181.864C135.368 182.948 136.115 183.636 137.155 183.622C138.166 183.636 138.913 182.948 138.928 181.864C138.913 180.78 138.166 180.077 137.155 180.077ZM150.368 178.011C150.368 180.15 151.115 182.376 152.902 183.504L152.009 184.75C150.815 184.032 150.039 182.794 149.606 181.336C149.123 182.94 148.273 184.295 147.028 185.057L146.018 183.841C147.937 182.669 148.801 180.34 148.801 178.084V175.711H150.368V178.011ZM157.663 174.54V187.782H156.096V174.54H157.663ZM154.909 174.774V187.137H153.371V180.443H151.481V179.095H153.371V174.774H154.909ZM171.301 184.837V186.17H159.201V184.837H161.999V181.483C160.944 180.882 160.307 179.938 160.314 178.758C160.3 176.649 162.38 175.257 165.222 175.257C168.078 175.257 170.158 176.649 170.158 178.758C170.158 179.916 169.543 180.846 168.518 181.454V184.837H171.301ZM165.222 176.546C163.244 176.546 161.896 177.381 161.911 178.758C161.896 180.121 163.244 180.97 165.222 180.97C167.199 180.97 168.562 180.121 168.562 178.758C168.562 177.381 167.199 176.546 165.222 176.546ZM163.61 184.837H166.862V182.069C166.357 182.186 165.808 182.245 165.222 182.245C164.65 182.245 164.108 182.186 163.61 182.083V184.837Z" fill="#888882"/>
</g>
<g id="Icon">
<path id="Vector" d="M347.02 187.31C350.701 187.31 353.685 184.326 353.685 180.645C353.685 176.964 350.701 173.98 347.02 173.98C343.339 173.98 340.355 176.964 340.355 180.645C340.355 184.326 343.339 187.31 347.02 187.31Z" stroke="#888882" stroke-width="1.66623" stroke-linecap="round" stroke-linejoin="round"/>
<path id="Vector_2" d="M355.351 188.976L351.769 185.394" stroke="#888882" stroke-width="1.66623" stroke-linecap="round" stroke-linejoin="round"/>
</g>
</g>
</g>
<g id="DateField">
<g id="Paragraph_2">
<path id="&#235;&#130;&#160;&#236;&#167;&#156;" d="M42.1582 240.226H43.8809V241.484H42.1582V243.972H40.6406V237.82H42.1582V240.226ZM34.4746 242.27C36.2428 242.247 37.9245 242.081 39.5195 241.771L39.6973 243.015C38.7767 243.202 37.8698 243.336 36.9766 243.418C36.0833 243.496 35.1764 243.535 34.2559 243.535H33.9688H32.9434V238.367H34.4746V242.27ZM42.1582 247.787H35.6094V248.798H42.541V250.029H34.0918V246.625H40.627V245.708H34.0781V244.505H42.1582V247.787ZM54.5586 242.564H56.0625V243.835H54.5586V250.179H53.041V237.82H54.5586V242.564ZM47.5312 241.128C47.5312 242.003 47.6042 242.828 47.75 243.603C47.8958 244.378 48.1693 245.061 48.5703 245.654C48.9622 245.066 49.2311 244.385 49.377 243.61C49.5228 242.831 49.5957 242.003 49.5957 241.128V240.185H48.8027V238.955H52.248V240.185H51.0449V241.128C51.0449 242.309 51.1771 243.364 51.4414 244.293C51.7057 245.223 52.1888 245.945 52.8906 246.46L51.9199 247.554C51.1589 246.971 50.6165 246.043 50.293 244.772C49.9557 246.098 49.377 247.062 48.5566 247.664C47.7546 247.067 47.1826 246.103 46.8408 244.772C46.5127 246.043 45.9727 246.971 45.2207 247.554L44.25 246.46C44.9518 245.941 45.4349 245.214 45.6992 244.28C45.9635 243.341 46.0957 242.291 46.0957 241.128V240.185H44.7148V238.955H48.3242V240.185H47.5312V241.128Z" fill="#4A4A4A"/>
</g>
<g id="Button" filter="url(#filter1_dd_156_5015)">
<path d="M32 280.959C32 272.122 39.1634 264.959 48 264.959H361.342C370.178 264.959 377.342 272.122 377.342 280.959V303.933C377.342 312.769 370.178 319.933 361.342 319.933H48C39.1635 319.933 32 312.769 32 303.933V280.959Z" fill="#FAFAF7"/>
<path d="M48 265.459H361.342C369.902 265.459 376.842 272.399 376.842 280.959V303.933C376.842 312.493 369.902 319.433 361.342 319.433H48C39.4396 319.433 32.5 312.493 32.5 303.933V280.959C32.5 272.399 39.4396 265.459 48 265.459Z" stroke="#E2DDD5"/>
<g id="Paragraph_3">
<path id="4&#236;&#155;&#148; 10&#236;&#157;&#188; ~ 4&#236;&#155;&#148; 12&#236;&#157;&#188;" d="M49.6885 293.943L54.2734 286.838H56.6465V293.899H58.0381V295.466H56.6465V297.444H54.8301V295.466H49.6885V293.943ZM54.8594 293.899V289.006H54.7422L51.6367 293.826V293.899H54.8594ZM70.2256 293.24H68.585V292.698H66.1094V291.702H68.585V285.52H70.2256V293.24ZM59.1074 290.295C60.7529 290.295 62.2788 290.276 63.6851 290.237C65.0913 290.198 66.4316 290.115 67.7061 289.988L67.7939 291.013C66.6758 291.169 65.4502 291.279 64.1172 291.343V293.254H62.5059V291.409C61.9297 291.428 61.0947 291.438 60.001 291.438H59.2832L59.1074 290.295ZM70.2256 296.624H62.6963V297.473H70.5771V298.63H61.0996V295.554H68.6143V294.763H61.041V293.65H70.2256V296.624ZM63.3848 285.725C64.0342 285.725 64.6079 285.808 65.106 285.974C65.6089 286.14 65.9995 286.375 66.2778 286.677C66.5562 286.975 66.6953 287.322 66.6953 287.717C66.6953 288.123 66.5562 288.474 66.2778 288.772C65.9995 289.07 65.6113 289.299 65.1133 289.46C64.6152 289.617 64.0391 289.695 63.3848 289.695C62.7158 289.695 62.1299 289.617 61.627 289.46C61.124 289.299 60.7334 289.07 60.4551 288.772C60.1816 288.474 60.0449 288.123 60.0449 287.717C60.0449 287.322 60.1841 286.975 60.4624 286.677C60.7407 286.375 61.1313 286.14 61.6343 285.974C62.1372 285.808 62.7207 285.725 63.3848 285.725ZM63.3848 286.809C62.8281 286.809 62.3887 286.892 62.0664 287.058C61.7441 287.219 61.5879 287.439 61.5977 287.717C61.5928 287.996 61.749 288.215 62.0664 288.376C62.3887 288.533 62.8281 288.611 63.3848 288.611C63.9316 288.611 64.3662 288.533 64.6885 288.376C65.0107 288.215 65.1719 287.996 65.1719 287.717C65.1719 287.439 65.0083 287.219 64.6812 287.058C64.3589 286.892 63.9268 286.809 63.3848 286.809ZM80.3916 297.444H78.4727V288.699H78.4141L75.9385 290.281V288.538L78.5605 286.838H80.3916V297.444ZM86.8809 297.59C86.0312 297.59 85.3013 297.378 84.6909 296.953C84.0854 296.523 83.6191 295.901 83.292 295.085C82.9697 294.27 82.8086 293.289 82.8086 292.141C82.8086 290.999 82.9697 290.02 83.292 289.204C83.6191 288.384 84.0879 287.761 84.6982 287.336C85.3086 286.907 86.0361 286.692 86.8809 286.692C87.7207 286.692 88.4458 286.907 89.0562 287.336C89.6714 287.761 90.1401 288.384 90.4624 289.204C90.7896 290.02 90.9531 290.999 90.9531 292.141C90.9531 293.289 90.7896 294.27 90.4624 295.085C90.1401 295.901 89.6738 296.523 89.0635 296.953C88.458 297.378 87.7305 297.59 86.8809 297.59ZM86.8809 295.994C87.3301 295.994 87.7134 295.85 88.0308 295.562C88.353 295.269 88.5996 294.836 88.7705 294.265C88.9463 293.689 89.0342 292.981 89.0342 292.141C89.0342 291.311 88.9463 290.608 88.7705 290.032C88.5996 289.451 88.353 289.014 88.0308 288.721C87.7085 288.423 87.3252 288.274 86.8809 288.274C86.4365 288.274 86.0532 288.423 85.731 288.721C85.4087 289.014 85.1597 289.451 84.9839 290.032C84.813 290.608 84.7275 291.311 84.7275 292.141C84.7275 292.981 84.813 293.689 84.9839 294.265C85.1597 294.836 85.4062 295.269 85.7236 295.562C86.0459 295.85 86.4316 295.994 86.8809 295.994ZM95.8604 285.93C96.5244 285.93 97.1226 286.06 97.6548 286.318C98.187 286.572 98.6045 286.926 98.9072 287.38C99.2148 287.834 99.3711 288.347 99.376 288.918C99.3711 289.495 99.2148 290.01 98.9072 290.464C98.6045 290.918 98.187 291.272 97.6548 291.526C97.1226 291.78 96.5244 291.907 95.8604 291.907C95.1914 291.907 94.5884 291.78 94.0513 291.526C93.519 291.272 93.1016 290.918 92.7988 290.464C92.4961 290.01 92.3447 289.495 92.3447 288.918C92.3447 288.347 92.4961 287.834 92.7988 287.38C93.1016 286.926 93.5215 286.572 94.0586 286.318C94.5957 286.06 95.1963 285.93 95.8604 285.93ZM95.8604 287.278C95.4893 287.278 95.1572 287.346 94.8643 287.483C94.5713 287.615 94.3418 287.805 94.1758 288.054C94.0098 288.298 93.9268 288.586 93.9268 288.918C93.9268 289.255 94.0098 289.551 94.1758 289.805C94.3418 290.054 94.5713 290.247 94.8643 290.383C95.1572 290.52 95.4893 290.588 95.8604 290.588C96.2314 290.588 96.5635 290.52 96.8564 290.383C97.1494 290.247 97.3789 290.054 97.5449 289.805C97.7109 289.551 97.7939 289.255 97.7939 288.918C97.7939 288.586 97.7109 288.298 97.5449 288.054C97.3789 287.805 97.1494 287.615 96.8564 287.483C96.5635 287.346 96.2314 287.278 95.8604 287.278ZM103.141 292.2H101.5V285.505H103.141V292.2ZM103.141 296.228H95.9775V297.297H103.536V298.586H94.3809V295.027H101.515V294.045H94.3516V292.771H103.141V296.228ZM109.601 291.746C109.84 291.482 110.111 291.282 110.414 291.145C110.716 291.008 111.036 290.94 111.373 290.94C111.632 290.94 111.883 290.974 112.127 291.042C112.372 291.106 112.682 291.208 113.058 291.35C113.419 291.487 113.722 291.589 113.966 291.658C114.215 291.726 114.469 291.76 114.728 291.76C115.411 291.76 115.987 291.482 116.456 290.925V292.522C116.217 292.791 115.946 292.993 115.643 293.13C115.345 293.262 115.025 293.328 114.684 293.328C114.425 293.328 114.168 293.293 113.915 293.225C113.661 293.152 113.355 293.049 112.999 292.917C112.643 292.786 112.337 292.686 112.083 292.617C111.834 292.544 111.583 292.507 111.329 292.507C110.646 292.507 110.069 292.786 109.601 293.342V291.746ZM122.11 293.943L126.695 286.838H129.068V293.899H130.46V295.466H129.068V297.444H127.252V295.466H122.11V293.943ZM127.281 293.899V289.006H127.164L124.059 293.826V293.899H127.281ZM142.647 293.24H141.007V292.698H138.531V291.702H141.007V285.52H142.647V293.24ZM131.529 290.295C133.175 290.295 134.701 290.276 136.107 290.237C137.513 290.198 138.854 290.115 140.128 289.988L140.216 291.013C139.098 291.169 137.872 291.279 136.539 291.343V293.254H134.928V291.409C134.352 291.428 133.517 291.438 132.423 291.438H131.705L131.529 290.295ZM142.647 296.624H135.118V297.473H142.999V298.63H133.521V295.554H141.036V294.763H133.463V293.65H142.647V296.624ZM135.807 285.725C136.456 285.725 137.03 285.808 137.528 285.974C138.031 286.14 138.421 286.375 138.7 286.677C138.978 286.975 139.117 287.322 139.117 287.717C139.117 288.123 138.978 288.474 138.7 288.772C138.421 289.07 138.033 289.299 137.535 289.46C137.037 289.617 136.461 289.695 135.807 289.695C135.138 289.695 134.552 289.617 134.049 289.46C133.546 289.299 133.155 289.07 132.877 288.772C132.604 288.474 132.467 288.123 132.467 287.717C132.467 287.322 132.606 286.975 132.884 286.677C133.163 286.375 133.553 286.14 134.056 285.974C134.559 285.808 135.143 285.725 135.807 285.725ZM135.807 286.809C135.25 286.809 134.811 286.892 134.488 287.058C134.166 287.219 134.01 287.439 134.02 287.717C134.015 287.996 134.171 288.215 134.488 288.376C134.811 288.533 135.25 288.611 135.807 288.611C136.354 288.611 136.788 288.533 137.11 288.376C137.433 288.215 137.594 287.996 137.594 287.717C137.594 287.439 137.43 287.219 137.103 287.058C136.781 286.892 136.349 286.809 135.807 286.809ZM152.813 297.444H150.895V288.699H150.836L148.36 290.281V288.538L150.982 286.838H152.813V297.444ZM155.392 296.067L159.142 292.449C159.547 292.043 159.859 291.711 160.079 291.453C160.304 291.189 160.475 290.93 160.592 290.676C160.709 290.417 160.768 290.144 160.768 289.856C160.768 289.534 160.689 289.25 160.533 289.006C160.377 288.762 160.16 288.574 159.881 288.442C159.608 288.311 159.298 288.245 158.951 288.245C158.59 288.245 158.272 288.318 157.999 288.464C157.73 288.606 157.523 288.811 157.376 289.08C157.23 289.343 157.159 289.651 157.164 290.002H155.348C155.343 289.343 155.494 288.765 155.802 288.267C156.109 287.764 156.537 287.375 157.083 287.102C157.635 286.829 158.263 286.692 158.966 286.692C159.679 286.692 160.309 286.824 160.855 287.087C161.407 287.351 161.834 287.717 162.137 288.186C162.445 288.65 162.599 289.177 162.599 289.768C162.599 290.178 162.518 290.574 162.357 290.955C162.201 291.335 161.932 291.758 161.551 292.222C161.17 292.681 160.631 293.24 159.933 293.899L158.043 295.774V295.847H162.76V297.444H155.392V296.067ZM167.74 285.93C168.404 285.93 169.002 286.06 169.535 286.318C170.067 286.572 170.484 286.926 170.787 287.38C171.095 287.834 171.251 288.347 171.256 288.918C171.251 289.495 171.095 290.01 170.787 290.464C170.484 290.918 170.067 291.272 169.535 291.526C169.002 291.78 168.404 291.907 167.74 291.907C167.071 291.907 166.468 291.78 165.931 291.526C165.399 291.272 164.981 290.918 164.679 290.464C164.376 290.01 164.225 289.495 164.225 288.918C164.225 288.347 164.376 287.834 164.679 287.38C164.981 286.926 165.401 286.572 165.938 286.318C166.476 286.06 167.076 285.93 167.74 285.93ZM167.74 287.278C167.369 287.278 167.037 287.346 166.744 287.483C166.451 287.615 166.222 287.805 166.056 288.054C165.89 288.298 165.807 288.586 165.807 288.918C165.807 289.255 165.89 289.551 166.056 289.805C166.222 290.054 166.451 290.247 166.744 290.383C167.037 290.52 167.369 290.588 167.74 290.588C168.111 290.588 168.443 290.52 168.736 290.383C169.029 290.247 169.259 290.054 169.425 289.805C169.591 289.551 169.674 289.255 169.674 288.918C169.674 288.586 169.591 288.298 169.425 288.054C169.259 287.805 169.029 287.615 168.736 287.483C168.443 287.346 168.111 287.278 167.74 287.278ZM175.021 292.2H173.38V285.505H175.021V292.2ZM175.021 296.228H167.857V297.297H175.416V298.586H166.261V295.027H173.395V294.045H166.231V292.771H175.021V296.228Z" fill="#1A1A1A"/>
</g>
<g id="Icon_2">
<path id="Vector_3" d="M347.012 284.115V287.447" stroke="#888882" stroke-width="1.66623" stroke-linecap="round" stroke-linejoin="round"/>
<path id="Vector_4" d="M353.677 284.115V287.447" stroke="#888882" stroke-width="1.66623" stroke-linecap="round" stroke-linejoin="round"/>
<path id="Vector_5" d="M356.176 285.781H344.513C343.593 285.781 342.847 286.527 342.847 287.447V299.111C342.847 300.031 343.593 300.777 344.513 300.777H356.176C357.097 300.777 357.843 300.031 357.843 299.111V287.447C357.843 286.527 357.097 285.781 356.176 285.781Z" stroke="#888882" stroke-width="1.66623" stroke-linecap="round" stroke-linejoin="round"/>
<path id="Vector_6" d="M342.847 290.78H357.843" stroke="#888882" stroke-width="1.66623" stroke-linecap="round" stroke-linejoin="round"/>
</g>
</g>
</g>
<g id="GuestsField">
<g id="Paragraph_4">
<path id="&#236;&#157;&#184;&#236;&#155;&#144;" d="M42.876 357.729H41.3447V348.801H42.876V357.729ZM43.2178 360.9H34.7002V356.826H36.2314V359.67H43.2178V360.9ZM36.1357 349.607C36.7555 349.607 37.3184 349.742 37.8242 350.011C38.3301 350.275 38.7288 350.642 39.0205 351.111C39.3122 351.581 39.458 352.109 39.458 352.697C39.458 353.294 39.3122 353.83 39.0205 354.304C38.7288 354.773 38.3301 355.14 37.8242 355.404C37.3184 355.669 36.7555 355.801 36.1357 355.801C35.5114 355.801 34.944 355.669 34.4336 355.404C33.9277 355.14 33.529 354.773 33.2373 354.304C32.9456 353.83 32.7998 353.294 32.7998 352.697C32.7998 352.109 32.9456 351.581 33.2373 351.111C33.529 350.642 33.9277 350.275 34.4336 350.011C34.944 349.742 35.5114 349.607 36.1357 349.607ZM36.1357 350.934C35.7848 350.934 35.4681 351.007 35.1855 351.152C34.903 351.298 34.682 351.506 34.5225 351.774C34.363 352.043 34.2855 352.351 34.29 352.697C34.2855 353.053 34.363 353.365 34.5225 353.634C34.682 353.903 34.903 354.11 35.1855 354.256C35.4681 354.402 35.7848 354.475 36.1357 354.475C36.4775 354.475 36.7874 354.402 37.0654 354.256C37.3434 354.11 37.5622 353.903 37.7217 353.634C37.8857 353.365 37.9678 353.053 37.9678 352.697C37.9678 352.351 37.8857 352.043 37.7217 351.774C37.5622 351.506 37.3434 351.298 37.0654 351.152C36.7874 351.007 36.4775 350.934 36.1357 350.934ZM55.0439 358.152H53.5127V357.072H51.0928V356.006H53.5127V348.801H55.0439V358.152ZM55.3311 360.9H46.2666V357.25H47.7842V359.67H55.3311V360.9ZM44.626 354.352C46.2301 354.342 47.6702 354.315 48.9463 354.27C50.2223 354.224 51.4391 354.128 52.5967 353.982L52.6787 355.076C51.6898 355.24 50.6507 355.359 49.5615 355.432V357.811H48.0439V355.514C47.1644 355.55 46.0889 355.568 44.8174 355.568L44.626 354.352ZM48.6592 349.252C49.2562 349.252 49.7848 349.345 50.2451 349.532C50.71 349.715 51.0723 349.972 51.332 350.305C51.5964 350.633 51.7308 351.011 51.7354 351.439C51.7308 351.877 51.5986 352.26 51.3389 352.588C51.0791 352.916 50.7168 353.169 50.252 353.347C49.7871 353.524 49.2562 353.613 48.6592 353.613C48.0531 353.613 47.5153 353.524 47.0459 353.347C46.5811 353.169 46.2188 352.916 45.959 352.588C45.6992 352.26 45.5693 351.877 45.5693 351.439C45.5693 351.011 45.6992 350.633 45.959 350.305C46.2188 349.972 46.5811 349.715 47.0459 349.532C47.5153 349.345 48.0531 349.252 48.6592 349.252ZM48.6592 350.373C48.1624 350.373 47.7614 350.469 47.4561 350.66C47.1553 350.847 47.0049 351.107 47.0049 351.439C47.0049 351.772 47.1553 352.034 47.4561 352.226C47.7614 352.412 48.1624 352.506 48.6592 352.506C49.1377 352.506 49.5273 352.41 49.8281 352.219C50.1289 352.027 50.2816 351.768 50.2861 351.439C50.2816 351.111 50.1289 350.852 49.8281 350.66C49.5273 350.469 49.1377 350.373 48.6592 350.373Z" fill="#4A4A4A"/>
</g>
<g id="Frame 59">
<g id="Button_2" filter="url(#filter2_dd_156_5015)">
<path d="M32.1709 391.927C32.1709 383.09 39.3343 375.927 48.1709 375.927H361.513C370.349 375.927 377.513 383.09 377.513 391.927V414.901C377.513 423.737 370.349 430.901 361.513 430.901H48.1709C39.3344 430.901 32.1709 423.737 32.1709 414.901V391.927Z" fill="#FAFAF7"/>
<path d="M48.1709 376.427H361.513C370.073 376.427 377.013 383.366 377.013 391.927V414.9C377.013 423.461 370.073 430.4 361.513 430.4H48.1709C39.6105 430.4 32.6709 423.461 32.6709 414.9V391.927C32.6709 383.366 39.6105 376.427 48.1709 376.427Z" stroke="#E2DDD5"/>
<g id="Paragraph_5">
<path id="&#236;&#132;&#177;&#236;&#157;&#184; 2&#235;&#170;&#133;, &#236;&#149;&#132;&#235;&#143;&#153; 1&#235;&#170;&#133;" d="M54.459 398.377C54.4541 398.988 54.5688 399.564 54.8032 400.106C55.0376 400.648 55.3892 401.126 55.8579 401.542C56.3315 401.952 56.9053 402.264 57.5791 402.479L56.7002 403.753C55.9873 403.504 55.377 403.148 54.8691 402.684C54.3662 402.22 53.9707 401.668 53.6826 401.029C53.3848 401.766 52.9575 402.406 52.4009 402.948C51.8442 403.485 51.1729 403.89 50.3867 404.164L49.5225 402.845C50.2354 402.611 50.8384 402.271 51.3315 401.827C51.8247 401.383 52.1958 400.87 52.4448 400.289C52.6938 399.708 52.8184 399.095 52.8184 398.451V397.191H54.459V398.377ZM60.6992 404.266H59.0732V400.37H56.4365V399.037H59.0732V396.473H60.6992V404.266ZM56.2168 404.618C57.1494 404.618 57.9551 404.718 58.6338 404.918C59.3174 405.118 59.8398 405.411 60.2012 405.797C60.5625 406.178 60.7432 406.634 60.7432 407.167C60.7432 407.699 60.5625 408.155 60.2012 408.536C59.8398 408.917 59.3198 409.205 58.6411 409.4C57.9624 409.601 57.1543 409.701 56.2168 409.701C55.2842 409.701 54.4785 409.601 53.7998 409.4C53.126 409.205 52.6084 408.917 52.2471 408.536C51.8906 408.155 51.7148 407.699 51.7197 407.167C51.7148 406.634 51.8906 406.178 52.2471 405.797C52.6084 405.411 53.1284 405.118 53.8071 404.918C54.4858 404.718 55.2891 404.618 56.2168 404.618ZM56.2168 405.877C55.2891 405.877 54.5762 405.99 54.0781 406.214C53.5801 406.434 53.3311 406.751 53.3311 407.167C53.3311 407.572 53.5801 407.884 54.0781 408.104C54.5811 408.319 55.2939 408.426 56.2168 408.426C57.1396 408.426 57.8525 408.316 58.3555 408.097C58.8633 407.877 59.1172 407.567 59.1172 407.167C59.1172 406.751 58.8657 406.434 58.3628 406.214C57.8599 405.99 57.1445 405.877 56.2168 405.877ZM73.6045 406.053H71.9639V396.488H73.6045V406.053ZM73.9707 409.452H64.8447V405.086H66.4854V408.133H73.9707V409.452ZM66.3828 397.352C67.0469 397.352 67.6499 397.496 68.1919 397.784C68.7339 398.067 69.1611 398.46 69.4736 398.963C69.7861 399.466 69.9424 400.033 69.9424 400.663C69.9424 401.302 69.7861 401.876 69.4736 402.384C69.1611 402.887 68.7339 403.28 68.1919 403.563C67.6499 403.846 67.0469 403.988 66.3828 403.988C65.7139 403.988 65.106 403.846 64.5591 403.563C64.0171 403.28 63.5898 402.887 63.2773 402.384C62.9648 401.876 62.8086 401.302 62.8086 400.663C62.8086 400.033 62.9648 399.466 63.2773 398.963C63.5898 398.46 64.0171 398.067 64.5591 397.784C65.106 397.496 65.7139 397.352 66.3828 397.352ZM66.3828 398.773C66.0068 398.773 65.6675 398.851 65.3647 399.007C65.062 399.164 64.8252 399.386 64.6543 399.674C64.4834 399.962 64.4004 400.292 64.4053 400.663C64.4004 401.043 64.4834 401.378 64.6543 401.666C64.8252 401.954 65.062 402.176 65.3647 402.333C65.6675 402.489 66.0068 402.567 66.3828 402.567C66.749 402.567 67.0811 402.489 67.3789 402.333C67.6768 402.176 67.9111 401.954 68.082 401.666C68.2578 401.378 68.3457 401.043 68.3457 400.663C68.3457 400.292 68.2578 399.962 68.082 399.674C67.9111 399.386 67.6768 399.164 67.3789 399.007C67.0811 398.851 66.749 398.773 66.3828 398.773ZM79.5371 407.035L83.2871 403.417C83.6924 403.011 84.0049 402.679 84.2246 402.42C84.4492 402.157 84.6201 401.898 84.7373 401.644C84.8545 401.385 84.9131 401.112 84.9131 400.824C84.9131 400.501 84.835 400.218 84.6787 399.974C84.5225 399.73 84.3052 399.542 84.0269 399.41C83.7534 399.278 83.4434 399.212 83.0967 399.212C82.7354 399.212 82.418 399.286 82.1445 399.432C81.876 399.574 81.6685 399.779 81.522 400.047C81.3755 400.311 81.3047 400.619 81.3096 400.97H79.4932C79.4883 400.311 79.6396 399.732 79.9473 399.234C80.2549 398.731 80.6821 398.343 81.229 398.07C81.7808 397.796 82.4082 397.66 83.1113 397.66C83.8242 397.66 84.4541 397.792 85.001 398.055C85.5527 398.319 85.98 398.685 86.2827 399.154C86.5903 399.618 86.7441 400.145 86.7441 400.736C86.7441 401.146 86.6636 401.542 86.5024 401.922C86.3462 402.303 86.0776 402.726 85.6968 403.189C85.3159 403.648 84.7764 404.208 84.0781 404.867L82.1885 406.742V406.815H86.9053V408.412H79.5371V407.035ZM99.2246 404.266H97.5986V402.435H94.9326V403.46H88.707V397.469H94.9326V398.495H97.5986V396.473H99.2246V404.266ZM90.333 402.157H93.3213V398.758H90.333V402.157ZM94.7422 404.618C95.6748 404.618 96.4805 404.718 97.1592 404.918C97.8428 405.118 98.3652 405.411 98.7266 405.797C99.0879 406.178 99.2686 406.634 99.2686 407.167C99.2686 407.699 99.0879 408.155 98.7266 408.536C98.3652 408.917 97.8452 409.205 97.1665 409.4C96.4878 409.601 95.6797 409.701 94.7422 409.701C93.8096 409.701 93.0039 409.601 92.3252 409.4C91.6514 409.205 91.1338 408.917 90.7725 408.536C90.416 408.155 90.2402 407.699 90.2451 407.167C90.2402 406.634 90.416 406.178 90.7725 405.797C91.1338 405.411 91.6538 405.118 92.3325 404.918C93.0112 404.718 93.8145 404.618 94.7422 404.618ZM94.7422 405.863C93.8145 405.863 93.1016 405.975 92.6035 406.2C92.1055 406.419 91.8564 406.742 91.8564 407.167C91.8564 407.577 92.1055 407.892 92.6035 408.111C93.1064 408.331 93.8193 408.441 94.7422 408.441C95.6699 408.441 96.3853 408.331 96.8882 408.111C97.3911 407.892 97.6426 407.577 97.6426 407.167C97.6426 406.742 97.3911 406.419 96.8882 406.2C96.3853 405.975 95.6699 405.863 94.7422 405.863ZM97.5986 401.117V399.784H94.9326V401.117H97.5986ZM102.447 411.473H101.056L101.817 407.372H103.678L102.447 411.473ZM112.042 397.44C112.706 397.44 113.297 397.633 113.814 398.019C114.332 398.399 114.737 398.944 115.03 399.652C115.328 400.355 115.479 401.175 115.484 402.113C115.479 403.06 115.328 403.888 115.03 404.596C114.737 405.304 114.332 405.848 113.814 406.229C113.297 406.61 112.706 406.8 112.042 406.8C111.373 406.8 110.777 406.61 110.255 406.229C109.732 405.843 109.325 405.296 109.032 404.588C108.739 403.88 108.595 403.055 108.6 402.113C108.595 401.18 108.739 400.36 109.032 399.652C109.325 398.944 109.732 398.399 110.255 398.019C110.777 397.633 111.373 397.44 112.042 397.44ZM112.042 398.905C111.671 398.905 111.344 399.034 111.061 399.293C110.777 399.547 110.558 399.916 110.401 400.399C110.245 400.877 110.167 401.449 110.167 402.113C110.167 402.782 110.245 403.358 110.401 403.841C110.558 404.325 110.777 404.696 111.061 404.955C111.344 405.208 111.671 405.335 112.042 405.335C112.418 405.335 112.748 405.208 113.031 404.955C113.314 404.696 113.531 404.325 113.683 403.841C113.839 403.358 113.917 402.782 113.917 402.113C113.917 401.449 113.839 400.875 113.683 400.392C113.531 399.908 113.314 399.54 113.031 399.286C112.748 399.032 112.418 398.905 112.042 398.905ZM118.854 401.556H120.89V402.933H118.854V409.715H117.228V396.473H118.854V401.556ZM133.531 404.12H121.446V402.816H126.69V401.556H122.926V397.074H132.066V398.348H124.552V400.267H132.14V401.556H128.287V402.816H133.531V404.12ZM127.467 404.881C128.419 404.881 129.237 404.977 129.92 405.167C130.604 405.353 131.129 405.626 131.495 405.987C131.861 406.349 132.047 406.786 132.052 407.298C132.047 407.806 131.861 408.241 131.495 408.602C131.129 408.963 130.602 409.239 129.913 409.43C129.229 409.62 128.414 409.715 127.467 409.715C126.51 409.715 125.685 409.62 124.991 409.43C124.298 409.239 123.768 408.963 123.402 408.602C123.036 408.241 122.853 407.806 122.853 407.298C122.853 406.786 123.036 406.349 123.402 405.987C123.768 405.626 124.295 405.353 124.984 405.167C125.677 404.977 126.505 404.881 127.467 404.881ZM127.467 406.126C126.5 406.126 125.763 406.227 125.255 406.427C124.752 406.627 124.503 406.917 124.508 407.298C124.503 407.679 124.752 407.967 125.255 408.163C125.758 408.358 126.495 408.456 127.467 408.456C128.419 408.456 129.149 408.358 129.657 408.163C130.165 407.967 130.421 407.679 130.426 407.298C130.421 406.917 130.162 406.627 129.649 406.427C129.142 406.227 128.414 406.126 127.467 406.126ZM142.716 408.412H140.797V399.667H140.738L138.263 401.249V399.505L140.885 397.806H142.716V408.412ZM155.943 404.266H154.317V402.435H151.651V403.46H145.426V397.469H151.651V398.495H154.317V396.473H155.943V404.266ZM147.052 402.157H150.04V398.758H147.052V402.157ZM151.461 404.618C152.394 404.618 153.199 404.718 153.878 404.918C154.562 405.118 155.084 405.411 155.445 405.797C155.807 406.178 155.987 406.634 155.987 407.167C155.987 407.699 155.807 408.155 155.445 408.536C155.084 408.917 154.564 409.205 153.885 409.4C153.207 409.601 152.398 409.701 151.461 409.701C150.528 409.701 149.723 409.601 149.044 409.4C148.37 409.205 147.853 408.917 147.491 408.536C147.135 408.155 146.959 407.699 146.964 407.167C146.959 406.634 147.135 406.178 147.491 405.797C147.853 405.411 148.373 405.118 149.051 404.918C149.73 404.718 150.533 404.618 151.461 404.618ZM151.461 405.863C150.533 405.863 149.82 405.975 149.322 406.2C148.824 406.419 148.575 406.742 148.575 407.167C148.575 407.577 148.824 407.892 149.322 408.111C149.825 408.331 150.538 408.441 151.461 408.441C152.389 408.441 153.104 408.331 153.607 408.111C154.11 407.892 154.361 407.577 154.361 407.167C154.361 406.742 154.11 406.419 153.607 406.2C153.104 405.975 152.389 405.863 151.461 405.863ZM154.317 401.117V399.784H151.651V401.117H154.317Z" fill="#1A1A1A"/>
</g>
<g id="Frame">
<path id="Vector_7" d="M358.513 405.414L354.513 401.414L350.513 405.414" stroke="#1A1A1A" stroke-width="1.3" stroke-linecap="round" stroke-linejoin="round"/>
</g>
</g>
<g id="Container_3" filter="url(#filter3_dd_156_5015)">
<path d="M32.1709 462.9C32.1709 454.064 39.3343 446.9 48.1709 446.9H361.516C370.353 446.9 377.516 454.064 377.516 462.9V576.895C377.516 585.732 370.353 592.895 361.516 592.895H48.1709C39.3343 592.895 32.1709 585.732 32.1709 576.895V462.9Z" fill="#FAFAF7"/>
<path d="M48.1709 447.4H361.517C370.077 447.401 377.017 454.34 377.017 462.9V576.896C377.017 585.456 370.077 592.395 361.517 592.396H48.1709C39.6105 592.396 32.671 585.456 32.6709 576.896V462.9C32.6709 454.34 39.6105 447.4 48.1709 447.4Z" stroke="#E2DDD5"/>
<g id="Container_4">
<g id="Text">
<path id="&#236;&#132;&#177;&#236;&#157;&#184;" d="M61.459 483.869C61.4443 485.67 62.499 487.311 64.5791 487.97L63.7002 489.245C62.2573 488.739 61.2466 487.78 60.6826 486.52C60.0967 487.963 58.9907 489.098 57.3867 489.655L56.5225 488.336C58.7197 487.619 59.8184 485.846 59.8184 483.942V482.682H61.459V483.869ZM67.6992 481.964V489.757H66.0732V485.861H63.4365V484.528H66.0732V481.964H67.6992ZM63.2168 490.109C66.0293 490.109 67.7432 491.046 67.7432 492.658C67.7432 494.269 66.0293 495.192 63.2168 495.192C60.4189 495.192 58.7051 494.269 58.7197 492.658C58.7051 491.046 60.4189 490.109 63.2168 490.109ZM63.2168 491.369C61.3711 491.369 60.3311 491.823 60.3311 492.658C60.3311 493.463 61.3711 493.917 63.2168 493.917C65.0625 493.917 66.1172 493.463 66.1172 492.658C66.1172 491.823 65.0625 491.369 63.2168 491.369ZM80.6045 481.979V491.544H78.9639V481.979H80.6045ZM80.9707 493.625V494.943H71.8447V490.578H73.4854V493.625H80.9707ZM73.3828 482.843C75.3896 482.843 76.9424 484.235 76.9424 486.154C76.9424 488.117 75.3896 489.479 73.3828 489.479C71.3613 489.479 69.8086 488.117 69.8086 486.154C69.8086 484.235 71.3613 482.843 73.3828 482.843ZM73.3828 484.264C72.2549 484.264 71.3906 485.011 71.4053 486.154C71.3906 487.326 72.2549 488.058 73.3828 488.058C74.4814 488.058 75.3457 487.326 75.3457 486.154C75.3457 485.011 74.4814 484.264 73.3828 484.264Z" fill="#1A1A1A"/>
</g>
<g id="Container_5">
<g id="Button_3">
<mask id="path-25-inside-1_156_5015" fill="white">
<path d="M209.549 488.899C209.549 478.959 217.608 470.9 227.548 470.9C237.489 470.9 245.547 478.959 245.547 488.899C245.547 498.84 237.489 506.898 227.548 506.898C217.608 506.898 209.549 498.84 209.549 488.899Z"/>
</mask>
<path d="M227.548 506.898V505.399C218.435 505.399 211.048 498.012 211.048 488.899H209.549H208.051C208.051 499.667 216.78 508.396 227.548 508.396V506.898ZM245.547 488.899H244.048C244.048 498.012 236.661 505.399 227.548 505.399V506.898V508.396C238.316 508.396 247.045 499.667 247.045 488.899H245.547ZM227.548 470.9V472.399C236.661 472.399 244.048 479.786 244.048 488.899H245.547H247.045C247.045 478.131 238.316 469.402 227.548 469.402V470.9ZM227.548 470.9V469.402C216.78 469.402 208.051 478.131 208.051 488.899H209.549H211.048C211.048 479.786 218.435 472.399 227.548 472.399V470.9Z" fill="#E2DDD5" mask="url(#path-25-inside-1_156_5015)"/>
<g id="Icon_3">
<path id="Vector_8" d="M222.878 488.899H232.207" stroke="#888882" stroke-width="1.33259" stroke-linecap="round" stroke-linejoin="round"/>
</g>
</g>
<g id="Text_2">
<path id="2" d="M277.827 494.147V492.679L281.827 488.819C282.968 487.679 283.562 487.007 283.562 486.054C283.562 485.007 282.733 484.335 281.624 484.335C280.452 484.335 279.702 485.069 279.718 486.21H277.78C277.765 484.069 279.374 482.679 281.64 482.679C283.952 482.679 285.515 484.054 285.515 485.96C285.515 487.241 284.89 488.272 282.671 490.366L280.655 492.366V492.444H285.687V494.147H277.827Z" fill="#1A1A1A"/>
</g>
<g id="Button_4">
<mask id="path-29-inside-2_156_5015" fill="white">
<path d="M317.519 488.899C317.519 478.959 325.577 470.9 335.517 470.9C345.458 470.9 353.516 478.959 353.516 488.899C353.516 498.84 345.458 506.898 335.517 506.898C325.577 506.898 317.519 498.84 317.519 488.899Z"/>
</mask>
<path d="M335.517 506.898V505.399C326.404 505.399 319.017 498.012 319.017 488.899H317.519H316.02C316.02 499.667 324.749 508.396 335.517 508.396V506.898ZM353.516 488.899H352.018C352.018 498.012 344.63 505.399 335.517 505.399V506.898V508.396C346.285 508.396 355.014 499.667 355.014 488.899H353.516ZM335.517 470.9V472.399C344.63 472.399 352.018 479.786 352.018 488.899H353.516H355.014C355.014 478.131 346.285 469.402 335.517 469.402V470.9ZM335.517 470.9V469.402C324.749 469.402 316.02 478.131 316.02 488.899H317.519H319.017C319.017 479.786 326.404 472.399 335.517 472.399V470.9Z" fill="#E2DDD5" mask="url(#path-29-inside-2_156_5015)"/>
<g id="Icon_4">
<path id="Vector_9" d="M330.848 488.899H340.176" stroke="#888882" stroke-width="1.33259" stroke-linecap="round" stroke-linejoin="round"/>
<path id="Vector_10" d="M335.512 484.235V493.563" stroke="#888882" stroke-width="1.33259" stroke-linecap="round" stroke-linejoin="round"/>
</g>
</g>
</g>
</g>
<g id="Container_6">
<g id="Text_3">
<path id="&#236;&#149;&#132;&#235;&#143;&#153;" d="M60.1699 544.928C62.1621 544.928 63.5977 546.745 63.6123 549.601C63.5977 552.487 62.1621 554.289 60.1699 554.289C58.1631 554.289 56.7129 552.487 56.7275 549.601C56.7129 546.745 58.1631 544.928 60.1699 544.928ZM60.1699 546.393C59.0566 546.393 58.2949 547.58 58.2949 549.601C58.2949 551.637 59.0566 552.824 60.1699 552.824C61.2979 552.824 62.0449 551.637 62.0449 549.601C62.0449 547.58 61.2979 546.393 60.1699 546.393ZM66.9814 543.961V549.044H69.0176V550.421H66.9814V557.204H65.3555V543.961H66.9814ZM81.6592 550.304V551.608H69.5742V550.304H74.8184V549.044H71.0537V544.562H80.1943V545.836H72.6797V547.755H80.2676V549.044H76.415V550.304H81.6592ZM75.5947 552.37C78.4512 552.37 80.165 553.234 80.1797 554.787C80.165 556.325 78.4512 557.204 75.5947 557.204C72.709 557.204 70.9805 556.325 70.9805 554.787C70.9805 553.234 72.709 552.37 75.5947 552.37ZM75.5947 553.615C73.6611 553.615 72.6211 554.025 72.6357 554.787C72.6211 555.548 73.6611 555.944 75.5947 555.944C77.4844 555.944 78.5391 555.548 78.5537 554.787C78.5391 554.025 77.4844 553.615 75.5947 553.615Z" fill="#1A1A1A"/>
</g>
<g id="Container_7">
<g id="Text_4">
<path id="0" d="M282.368 556.301C281.462 556.301 280.683 556.075 280.032 555.622C279.386 555.163 278.889 554.499 278.54 553.629C278.196 552.76 278.024 551.713 278.024 550.489C278.024 549.27 278.196 548.226 278.54 547.356C278.889 546.481 279.389 545.817 280.04 545.364C280.691 544.905 281.467 544.676 282.368 544.676C283.264 544.676 284.037 544.905 284.688 545.364C285.345 545.817 285.845 546.481 286.188 547.356C286.537 548.226 286.712 549.27 286.712 550.489C286.712 551.713 286.537 552.76 286.188 553.629C285.845 554.499 285.347 555.163 284.696 555.622C284.05 556.075 283.274 556.301 282.368 556.301ZM282.368 554.598C282.847 554.598 283.256 554.444 283.595 554.137C283.938 553.825 284.201 553.364 284.384 552.754C284.571 552.14 284.665 551.385 284.665 550.489C284.665 549.603 284.571 548.853 284.384 548.239C284.201 547.619 283.938 547.153 283.595 546.84C283.251 546.523 282.842 546.364 282.368 546.364C281.894 546.364 281.485 546.523 281.142 546.84C280.798 547.153 280.532 547.619 280.345 548.239C280.162 548.853 280.071 549.603 280.071 550.489C280.071 551.385 280.162 552.14 280.345 552.754C280.532 553.364 280.795 553.825 281.134 554.137C281.478 554.444 281.889 554.598 282.368 554.598Z" fill="#1A1A1A"/>
</g>
<g id="Button_5">
<mask id="path-35-inside-3_156_5015" fill="white">
<path d="M317.53 550.897C317.53 540.956 325.588 532.898 335.529 532.898C345.469 532.898 353.527 540.956 353.527 550.897C353.527 560.837 345.469 568.895 335.529 568.895C325.588 568.895 317.53 560.837 317.53 550.897Z"/>
</mask>
<path d="M335.529 568.895V567.397C326.416 567.397 319.028 560.01 319.028 550.897H317.53H316.031C316.031 561.665 324.761 570.394 335.529 570.394V568.895ZM353.527 550.897H352.029C352.029 560.01 344.641 567.397 335.529 567.397V568.895V570.394C346.297 570.394 355.026 561.665 355.026 550.897H353.527ZM335.529 532.898V534.396C344.641 534.396 352.029 541.784 352.029 550.897H353.527H355.026C355.026 540.129 346.297 531.4 335.529 531.4V532.898ZM335.529 532.898V531.4C324.761 531.4 316.031 540.129 316.031 550.897H317.53H319.028C319.028 541.784 326.416 534.396 335.529 534.396V532.898Z" fill="#E2DDD5" mask="url(#path-35-inside-3_156_5015)"/>
<g id="Icon_5">
<path id="Vector_11" d="M330.859 550.897H340.187" stroke="#888882" stroke-width="1.33259" stroke-linecap="round" stroke-linejoin="round"/>
<path id="Vector_12" d="M335.523 546.233V555.561" stroke="#888882" stroke-width="1.33259" stroke-linecap="round" stroke-linejoin="round"/>
</g>
</g>
</g>
</g>
</g>
</g>
</g>
<g id="BudgetField">
<g id="Paragraph_6">
<path id="&#236;&#152;&#136;&#236;&#130;&#176;" d="M43.0742 629.787V642.146H41.6113V629.787H43.0742ZM40.5723 630.006V641.545H39.1367V637.648H37.5234C37.0654 638.865 36.2451 639.556 35.1992 639.549C33.5859 639.562 32.5332 637.854 32.5332 635.133C32.5332 632.412 33.5859 630.73 35.1992 630.73C36.2451 630.73 37.0586 631.414 37.5234 632.617H39.1367V630.006H40.5723ZM35.1992 632.166C34.3926 632.152 33.9141 633.205 33.9277 635.133C33.9141 637.061 34.3926 638.113 35.1992 638.1C36.0195 638.113 36.5254 637.061 36.5254 635.133C36.5254 633.205 36.0195 632.152 35.1992 632.166ZM37.8242 633.848C37.8857 634.244 37.9199 634.675 37.9199 635.133C37.9199 635.584 37.8857 636.008 37.8379 636.404H39.1367V633.848H37.8242ZM48.9395 631.975C48.9258 633.602 49.9512 635.146 51.8926 635.775L51.0996 636.979C49.7256 636.514 48.7549 635.584 48.2148 634.395C47.6611 635.707 46.6426 636.732 45.207 637.238L44.3594 636.035C46.3965 635.379 47.4082 633.711 47.4082 631.961V630.553H48.9395V631.975ZM54.2578 629.787V633.438H55.9805V634.723H54.2578V638.865H52.7402V629.787H54.2578ZM54.75 640.67V641.9H46.3418V637.977H47.9004V640.67H54.75Z" fill="#4A4A4A"/>
</g>
<g id="Container_8">
<g id="Text_5">
<path id="&#236;&#149;&#189;" d="M59.6855 680.637H57.8838V682.16H59.6855V683.522H57.8838V685.295H56.2578V677.473H57.8838V679.318H59.6855V680.637ZM57.8838 690.715H56.2578V687.185H49.0654V685.866H57.8838V690.715ZM51.1602 678.234C51.8291 678.229 52.4346 678.364 52.9766 678.637C53.5186 678.906 53.9458 679.284 54.2583 679.772C54.5708 680.256 54.7295 680.803 54.7344 681.413C54.7295 682.033 54.5708 682.587 54.2583 683.076C53.9507 683.559 53.5259 683.938 52.9839 684.211C52.4419 684.484 51.834 684.621 51.1602 684.621C50.4814 684.621 49.8687 684.484 49.3218 684.211C48.7798 683.938 48.3525 683.559 48.04 683.076C47.7324 682.587 47.5811 682.033 47.5859 681.413C47.5811 680.803 47.7324 680.256 48.04 679.772C48.3525 679.284 48.7822 678.906 49.3291 678.637C49.876 678.364 50.4863 678.229 51.1602 678.234ZM51.1602 679.611C50.7793 679.616 50.4375 679.694 50.1348 679.846C49.832 679.992 49.5952 680.202 49.4243 680.476C49.2583 680.744 49.1777 681.057 49.1826 681.413C49.1777 681.779 49.2583 682.102 49.4243 682.38C49.5952 682.658 49.832 682.871 50.1348 683.017C50.4375 683.164 50.7793 683.234 51.1602 683.229C51.5361 683.234 51.873 683.164 52.1709 683.017C52.4736 682.871 52.7104 682.658 52.8813 682.38C53.0522 682.102 53.1377 681.779 53.1377 681.413C53.1377 681.057 53.0522 680.744 52.8813 680.476C52.7104 680.202 52.4736 679.992 52.1709 679.846C51.873 679.694 51.5361 679.616 51.1602 679.611Z" fill="#888882"/>
</g>
<g id="Text Input_2" filter="url(#filter4_dd_156_5015)">
<path d="M71.9702 677.414C71.9702 668.577 79.1337 661.414 87.9702 661.414H111.97C120.807 661.414 127.97 668.577 127.97 677.414V691.414C127.97 700.25 120.807 707.414 111.97 707.414H87.9702C79.1337 707.414 71.9702 700.25 71.9702 691.414V677.414Z" fill="#FAFAF7"/>
<path d="M87.9702 661.914H111.97C120.531 661.914 127.47 668.853 127.47 677.414V691.414C127.47 699.974 120.531 706.914 111.97 706.914H87.9702C79.4098 706.914 72.4702 699.974 72.4702 691.414V677.414C72.4702 668.853 79.4098 661.914 87.9702 661.914Z" stroke="#E2DDD5"/>
<path id="30" d="M95.1729 689.56C94.4258 689.56 93.7568 689.433 93.166 689.179C92.5752 688.925 92.1113 688.571 91.7744 688.117C91.4375 687.658 91.2617 687.133 91.2471 686.542H93.166C93.1855 686.821 93.2832 687.067 93.459 687.282C93.6396 687.492 93.8789 687.656 94.1768 687.773C94.4746 687.89 94.8066 687.949 95.1729 687.949C95.5586 687.949 95.9028 687.883 96.2056 687.751C96.5132 687.614 96.7524 687.426 96.9233 687.187C97.0942 686.948 97.1797 686.674 97.1797 686.367C97.1797 686.049 97.0918 685.766 96.916 685.517C96.7402 685.268 96.4863 685.075 96.1543 684.938C95.8223 684.797 95.4316 684.726 94.9824 684.726H94.0303V683.261H94.9824C95.3535 683.261 95.6831 683.198 95.9712 683.071C96.2642 682.939 96.4912 682.756 96.6523 682.521C96.8135 682.282 96.8916 682.011 96.8867 681.708C96.8916 681.416 96.8232 681.157 96.6816 680.932C96.5449 680.703 96.3472 680.527 96.0884 680.405C95.8296 680.278 95.5293 680.214 95.1875 680.214C94.8555 680.214 94.5454 680.275 94.2573 680.397C93.9741 680.515 93.7446 680.683 93.5688 680.903C93.3979 681.123 93.3076 681.376 93.2979 681.665H91.4668C91.4814 681.079 91.6523 680.559 91.9795 680.104C92.3115 679.65 92.7583 679.296 93.3198 679.042C93.8862 678.789 94.5137 678.662 95.2021 678.662C95.9004 678.662 96.5181 678.793 97.0552 679.057C97.5923 679.316 98.0073 679.67 98.3003 680.119C98.5933 680.568 98.7373 681.064 98.7324 681.606C98.7373 681.997 98.6592 682.351 98.498 682.668C98.3369 682.985 98.1099 683.249 97.8169 683.459C97.5239 683.669 97.1846 683.813 96.7988 683.891V683.979C97.292 684.047 97.7144 684.194 98.0659 684.418C98.4175 684.638 98.6836 684.924 98.8643 685.275C99.0449 685.627 99.1328 686.025 99.1279 686.469C99.1328 687.055 98.9644 687.585 98.6226 688.059C98.2856 688.527 97.8145 688.896 97.209 689.165C96.6084 689.428 95.9297 689.56 95.1729 689.56ZM104.709 689.56C103.859 689.56 103.129 689.348 102.519 688.923C101.914 688.493 101.447 687.871 101.12 687.055C100.798 686.24 100.637 685.258 100.637 684.111C100.637 682.968 100.798 681.989 101.12 681.174C101.447 680.354 101.916 679.731 102.526 679.306C103.137 678.876 103.864 678.662 104.709 678.662C105.549 678.662 106.274 678.876 106.884 679.306C107.5 679.731 107.968 680.354 108.291 681.174C108.618 681.989 108.781 682.968 108.781 684.111C108.781 685.258 108.618 686.24 108.291 687.055C107.968 687.871 107.502 688.493 106.892 688.923C106.286 689.348 105.559 689.56 104.709 689.56ZM104.709 687.963C105.158 687.963 105.542 687.819 105.859 687.531C106.181 687.238 106.428 686.806 106.599 686.235C106.774 685.659 106.862 684.951 106.862 684.111C106.862 683.281 106.774 682.578 106.599 682.001C106.428 681.42 106.181 680.983 105.859 680.69C105.537 680.393 105.153 680.244 104.709 680.244C104.265 680.244 103.881 680.393 103.559 680.69C103.237 680.983 102.988 681.42 102.812 682.001C102.641 682.578 102.556 683.281 102.556 684.111C102.556 684.951 102.641 685.659 102.812 686.235C102.988 686.806 103.234 687.238 103.552 687.531C103.874 687.819 104.26 687.963 104.709 687.963Z" fill="#1A1A1A"/>
</g>
<g id="Text_6">
<path id="&#235;&#167;&#140;&#236;&#155;&#144;" d="M147.132 684.87H140.863V678.615H147.132V684.87ZM142.459 683.581H145.536V679.919H142.459V683.581ZM150.853 681.354H152.699V682.717H150.853V687.141H149.227V677.473H150.853V681.354ZM151.38 690.451H142.372V686.203H143.998V689.133H151.38V690.451ZM164.476 687.507H162.835V686.35H160.243V685.207H162.835V677.487H164.476V687.507ZM164.784 690.451H155.072V686.54H156.698V689.133H164.784V690.451ZM153.314 683.435C155.033 683.425 156.576 683.396 157.943 683.347C159.31 683.298 160.614 683.195 161.854 683.039L161.942 684.211C160.882 684.387 159.769 684.514 158.602 684.592V687.141H156.976V684.68C156.034 684.719 154.881 684.738 153.519 684.738L153.314 683.435ZM157.635 677.971C158.275 677.971 158.841 678.071 159.334 678.271C159.833 678.466 160.221 678.742 160.499 679.099C160.782 679.45 160.926 679.855 160.931 680.314C160.926 680.783 160.785 681.193 160.506 681.545C160.228 681.896 159.84 682.167 159.342 682.358C158.844 682.548 158.275 682.644 157.635 682.644C156.986 682.644 156.41 682.548 155.907 682.358C155.409 682.167 155.021 681.896 154.742 681.545C154.464 681.193 154.325 680.783 154.325 680.314C154.325 679.855 154.464 679.45 154.742 679.099C155.021 678.742 155.409 678.466 155.907 678.271C156.41 678.071 156.986 677.971 157.635 677.971ZM157.635 679.172C157.103 679.172 156.673 679.274 156.346 679.479C156.024 679.68 155.863 679.958 155.863 680.314C155.863 680.671 156.024 680.952 156.346 681.157C156.673 681.357 157.103 681.457 157.635 681.457C158.148 681.457 158.565 681.354 158.888 681.149C159.21 680.944 159.374 680.666 159.378 680.314C159.374 679.963 159.21 679.685 158.888 679.479C158.565 679.274 158.148 679.172 157.635 679.172Z" fill="#888882"/>
</g>
</g>
</g>
</g>
</g>
<g id="Container_9">
<g id="Icon_6" clip-path="url(#clip0_156_5015)">
<path id="Vector_13" d="M163.669 25.9941H245.669" stroke="#888882" stroke-width="7.99775" stroke-linecap="round"/>
</g>
</g>
</g>
<defs>
<filter id="filter0_dd_156_5015" x="0" y="129.991" width="409.342" height="118.974" filterUnits="userSpaceOnUse" color-interpolation-filters="sRGB">
<feFlood flood-opacity="0" result="BackgroundImageFix"/>
<feColorMatrix in="SourceAlpha" type="matrix" values="0 0 0 0 0 0 0 0 0 0 0 0 0 0 0 0 0 0 127 0" result="hardAlpha"/>
<feOffset dy="8"/>
<feGaussianBlur stdDeviation="16"/>
<feColorMatrix type="matrix" values="0 0 0 0 0.118 0 0 0 0 0.157 0 0 0 0 0.133 0 0 0 0.16 0"/>
<feBlend mode="normal" in2="BackgroundImageFix" result="effect1_dropShadow_156_5015"/>
<feColorMatrix in="SourceAlpha" type="matrix" values="0 0 0 0 0 0 0 0 0 0 0 0 0 0 0 0 0 0 127 0" result="hardAlpha"/>
<feOffset dy="2"/>
<feGaussianBlur stdDeviation="4"/>
<feColorMatrix type="matrix" values="0 0 0 0 0.118 0 0 0 0 0.157 0 0 0 0 0.133 0 0 0 0.08 0"/>
<feBlend mode="normal" in2="effect1_dropShadow_156_5015" result="effect2_dropShadow_156_5015"/>
<feBlend mode="normal" in="SourceGraphic" in2="effect2_dropShadow_156_5015" result="shape"/>
</filter>
<filter id="filter1_dd_156_5015" x="0" y="240.959" width="409.342" height="118.974" filterUnits="userSpaceOnUse" color-interpolation-filters="sRGB">
<feFlood flood-opacity="0" result="BackgroundImageFix"/>
<feColorMatrix in="SourceAlpha" type="matrix" values="0 0 0 0 0 0 0 0 0 0 0 0 0 0 0 0 0 0 127 0" result="hardAlpha"/>
<feOffset dy="8"/>
<feGaussianBlur stdDeviation="16"/>
<feColorMatrix type="matrix" values="0 0 0 0 0.118 0 0 0 0 0.157 0 0 0 0 0.133 0 0 0 0.16 0"/>
<feBlend mode="normal" in2="BackgroundImageFix" result="effect1_dropShadow_156_5015"/>
<feColorMatrix in="SourceAlpha" type="matrix" values="0 0 0 0 0 0 0 0 0 0 0 0 0 0 0 0 0 0 127 0" result="hardAlpha"/>
<feOffset dy="2"/>
<feGaussianBlur stdDeviation="4"/>
<feColorMatrix type="matrix" values="0 0 0 0 0.118 0 0 0 0 0.157 0 0 0 0 0.133 0 0 0 0.08 0"/>
<feBlend mode="normal" in2="effect1_dropShadow_156_5015" result="effect2_dropShadow_156_5015"/>
<feBlend mode="normal" in="SourceGraphic" in2="effect2_dropShadow_156_5015" result="shape"/>
</filter>
<filter id="filter2_dd_156_5015" x="0.170898" y="351.927" width="409.342" height="118.974" filterUnits="userSpaceOnUse" color-interpolation-filters="sRGB">
<feFlood flood-opacity="0" result="BackgroundImageFix"/>
<feColorMatrix in="SourceAlpha" type="matrix" values="0 0 0 0 0 0 0 0 0 0 0 0 0 0 0 0 0 0 127 0" result="hardAlpha"/>
<feOffset dy="8"/>
<feGaussianBlur stdDeviation="16"/>
<feColorMatrix type="matrix" values="0 0 0 0 0.118 0 0 0 0 0.157 0 0 0 0 0.133 0 0 0 0.16 0"/>
<feBlend mode="normal" in2="BackgroundImageFix" result="effect1_dropShadow_156_5015"/>
<feColorMatrix in="SourceAlpha" type="matrix" values="0 0 0 0 0 0 0 0 0 0 0 0 0 0 0 0 0 0 127 0" result="hardAlpha"/>
<feOffset dy="2"/>
<feGaussianBlur stdDeviation="4"/>
<feColorMatrix type="matrix" values="0 0 0 0 0.118 0 0 0 0 0.157 0 0 0 0 0.133 0 0 0 0.08 0"/>
<feBlend mode="normal" in2="effect1_dropShadow_156_5015" result="effect2_dropShadow_156_5015"/>
<feBlend mode="normal" in="SourceGraphic" in2="effect2_dropShadow_156_5015" result="shape"/>
</filter>
<filter id="filter3_dd_156_5015" x="0.170898" y="422.9" width="409.345" height="209.995" filterUnits="userSpaceOnUse" color-interpolation-filters="sRGB">
<feFlood flood-opacity="0" result="BackgroundImageFix"/>
<feColorMatrix in="SourceAlpha" type="matrix" values="0 0 0 0 0 0 0 0 0 0 0 0 0 0 0 0 0 0 127 0" result="hardAlpha"/>
<feOffset dy="8"/>
<feGaussianBlur stdDeviation="16"/>
<feColorMatrix type="matrix" values="0 0 0 0 0.118 0 0 0 0 0.157 0 0 0 0 0.133 0 0 0 0.16 0"/>
<feBlend mode="normal" in2="BackgroundImageFix" result="effect1_dropShadow_156_5015"/>
<feColorMatrix in="SourceAlpha" type="matrix" values="0 0 0 0 0 0 0 0 0 0 0 0 0 0 0 0 0 0 127 0" result="hardAlpha"/>
<feOffset dy="2"/>
<feGaussianBlur stdDeviation="4"/>
<feColorMatrix type="matrix" values="0 0 0 0 0.118 0 0 0 0 0.157 0 0 0 0 0.133 0 0 0 0.08 0"/>
<feBlend mode="normal" in2="effect1_dropShadow_156_5015" result="effect2_dropShadow_156_5015"/>
<feBlend mode="normal" in="SourceGraphic" in2="effect2_dropShadow_156_5015" result="shape"/>
</filter>
<filter id="filter4_dd_156_5015" x="39.9702" y="637.414" width="120" height="110" filterUnits="userSpaceOnUse" color-interpolation-filters="sRGB">
<feFlood flood-opacity="0" result="BackgroundImageFix"/>
<feColorMatrix in="SourceAlpha" type="matrix" values="0 0 0 0 0 0 0 0 0 0 0 0 0 0 0 0 0 0 127 0" result="hardAlpha"/>
<feOffset dy="8"/>
<feGaussianBlur stdDeviation="16"/>
<feColorMatrix type="matrix" values="0 0 0 0 0.118 0 0 0 0 0.157 0 0 0 0 0.133 0 0 0 0.16 0"/>
<feBlend mode="normal" in2="BackgroundImageFix" result="effect1_dropShadow_156_5015"/>
<feColorMatrix in="SourceAlpha" type="matrix" values="0 0 0 0 0 0 0 0 0 0 0 0 0 0 0 0 0 0 127 0" result="hardAlpha"/>
<feOffset dy="2"/>
<feGaussianBlur stdDeviation="4"/>
<feColorMatrix type="matrix" values="0 0 0 0 0.118 0 0 0 0 0.157 0 0 0 0 0.133 0 0 0 0.08 0"/>
<feBlend mode="normal" in2="effect1_dropShadow_156_5015" result="effect2_dropShadow_156_5015"/>
<feBlend mode="normal" in="SourceGraphic" in2="effect2_dropShadow_156_5015" result="shape"/>
</filter>
<clipPath id="clip0_156_5015">
<rect width="89.9996" height="7.99554" fill="white" transform="translate(159.669 21.9966)"/>
</clipPath>
</defs>
</svg>
