<svg width="410" height="700" viewBox="0 0 410 700" fill="none" xmlns="http://www.w3.org/2000/svg">
<g id="Property 1=people_expanded1">
<path d="M8 16C8 7.16347 15.1634 0 24 0H385.339C394.175 0 401.339 7.16344 401.339 16V680.815H8V16Z" fill="#F5F3EE"/>
<g id="Frame 65">
<g id="Heading 2">
<path id="&#236;&#151;&#172;&#237;&#150;&#137; &#236;&#160;&#149;&#235;&#179;&#180;&#235;&#165;&#188; &#236;&#158;&#133;&#235;&#160;&#165;&#237;&#149;&#180;&#236;&#163;&#188;&#236;&#132;&#184;&#236;&#154;&#148;" d="M38.1553 73.9099C39.917 73.9099 41.3672 74.8875 42.2373 76.5955H46.7705V72.4919H49.1338V91.9353H46.7705V84.5876H42.4092C41.5713 86.5212 40.0352 87.6384 38.1553 87.6384C35.2334 87.6384 33.1709 84.9958 33.1709 80.7634C33.1709 76.574 35.2334 73.9099 38.1553 73.9099ZM38.1553 76.0583C36.5439 76.0583 35.4482 77.7986 35.4697 80.7634C35.4482 83.7498 36.5439 85.49 38.1553 85.49C39.7666 85.49 40.8408 83.7498 40.8623 80.7634C40.8408 77.7986 39.7666 76.0583 38.1553 76.0583ZM42.9033 78.5505C43.043 79.2273 43.1182 79.9685 43.1182 80.7634C43.1182 81.4402 43.0645 82.0632 42.9678 82.6541H46.7705V78.5505H42.9033ZM68.4697 72.4919V84.6951H66.1924V79.4099H64.3018V84.0505H62.0674V72.8787H64.3018V77.4763H66.1924V72.4919H68.4697ZM61.4229 74.5974V76.4666H51.7549V74.5974H55.4287V72.6638H57.792V74.5974H61.4229ZM56.6104 77.2615C59.0811 77.2615 60.8213 78.5935 60.8428 80.613C60.8213 82.6326 59.0811 83.9646 56.6104 83.9646C54.1826 83.9646 52.4209 82.6326 52.4424 80.613C52.4209 78.5935 54.1826 77.2615 56.6104 77.2615ZM56.6104 78.9802C55.4072 78.9802 54.5693 79.6033 54.5693 80.613C54.5693 81.6228 55.3857 82.2458 56.6104 82.2458C57.835 82.2458 58.6729 81.6228 58.6729 80.613C58.6729 79.6033 57.835 78.9802 56.6104 78.9802ZM61.917 84.9314C66.0635 84.9314 68.5557 86.199 68.5771 88.4333C68.5557 90.6248 66.0635 91.8923 61.917 91.8923C57.7705 91.8923 55.2568 90.6248 55.2568 88.4333C55.2568 86.199 57.7705 84.9314 61.917 84.9314ZM61.917 86.7576C59.1455 86.7361 57.6416 87.2947 57.6416 88.4333C57.6416 89.5076 59.1455 90.0662 61.917 90.0662C64.667 90.0662 66.1709 89.5076 66.1709 88.4333C66.1709 87.2947 64.667 86.7361 61.917 86.7576ZM92.3604 72.4919V84.0291H89.9756V79.281H86.667V77.3259H89.9756V72.4919H92.3604ZM85.7861 84.5232C89.9111 84.5232 92.4248 85.8767 92.4248 88.2185C92.4248 90.5603 89.9111 91.9138 85.7861 91.9138C81.6826 91.9138 79.1689 90.5603 79.1904 88.2185C79.1689 85.8767 81.6826 84.5232 85.7861 84.5232ZM85.7861 86.3494C83.0791 86.3494 81.5537 86.9939 81.5537 88.2185C81.5537 89.4216 83.0791 90.0662 85.7861 90.0662C88.4932 90.0662 90.04 89.4216 90.04 88.2185C90.04 86.9939 88.4932 86.3494 85.7861 86.3494ZM83.2295 75.822C83.2295 78.1853 84.7979 80.5701 87.8057 81.5798L86.6025 83.4705C84.4434 82.74 82.9072 81.2576 82.0693 79.4314C81.21 81.5046 79.5879 83.1589 77.2783 83.9861L76.0322 82.0955C79.1475 81.0212 80.8018 78.4001 80.8018 75.8435V75.6931H76.7627V73.7595H87.2471V75.6931H83.2295V75.822ZM112.856 87.6169V89.572H95.1104V87.6169H102.759V83.8357H97.0654V73.781H99.4502V76.9607H108.452V73.781H110.837V83.8357H105.122V87.6169H112.856ZM99.4502 81.9021H108.452V78.8728H99.4502V81.9021ZM131.849 81.3005V83.1052H114.103V81.3005H131.849ZM129.7 84.2654V88.6912H118.571V90.0447H130.28V91.699H116.187V87.1443H127.337V85.9412H116.165V84.2654H129.7ZM129.657 72.9216V77.3044H118.722V78.572H130.001V80.2048H116.358V75.7576H127.272V74.5759H116.294V72.9216H129.657ZM154.536 72.4919V82.9119H152.13V72.4919H154.536ZM144.052 83.8142V85.8123H152.151V83.8142H154.536V91.6775H141.688V83.8142H144.052ZM144.052 89.7439H152.151V87.6814H144.052V89.7439ZM143.944 73.3513C146.931 73.3298 149.165 75.199 149.165 77.906C149.165 80.5486 146.931 82.4177 143.944 82.4177C140.937 82.4177 138.702 80.5486 138.702 77.906C138.702 75.199 140.937 73.3298 143.944 73.3513ZM143.944 75.3494C142.247 75.3494 141.022 76.3376 141.044 77.906C141.022 79.4529 142.247 80.4412 143.944 80.4626C145.62 80.4412 146.823 79.4529 146.823 77.906C146.823 76.3376 145.62 75.3494 143.944 75.3494ZM166.653 73.6521V79.4958H160.53V81.8806C163.646 81.8914 165.439 81.7947 167.491 81.408L167.728 83.3416C165.407 83.7283 163.388 83.7927 159.585 83.7927H158.167V77.7126H164.269V75.5427H158.124V73.6521H166.653ZM173.636 72.5134V84.4587H171.251V81.2576H167.813V79.3455H171.251V77.1755H167.813V75.2634H171.251V72.5134H173.636ZM173.636 85.3826V91.9138H171.251V87.2947H160.358V85.3826H173.636ZM185.86 75.5857V77.4978H176.343V75.5857H179.952V73.0505H182.315V75.5857H185.86ZM181.134 78.5291C183.604 78.5291 185.366 80.3982 185.366 83.0408C185.366 85.7263 183.604 87.6169 181.134 87.6169C178.685 87.6169 176.88 85.7263 176.901 83.0408C176.88 80.3982 178.685 78.5291 181.134 78.5291ZM181.134 80.5056C179.866 80.5056 178.985 81.5154 179.007 83.0408C178.985 84.6091 179.866 85.5974 181.134 85.5759C182.38 85.5974 183.261 84.6091 183.261 83.0408C183.261 81.5154 182.38 80.5056 181.134 80.5056ZM193.079 72.4919V91.9138H190.802V82.4177H188.911V91.033H186.677V72.9001H188.911V80.4841H190.802V72.4919H193.079ZM213.103 83.3201V85.2537H205.39V91.8923H203.026V85.2537H195.399V83.3201H213.103ZM211.47 73.5876V75.4783H205.647C205.787 77.6052 208.344 79.6462 212.179 80.1404L211.319 82.0095C208.011 81.5476 205.433 80.033 204.251 77.9275C203.069 80.033 200.491 81.5476 197.226 82.0095L196.323 80.1404C200.137 79.6462 202.693 77.6052 202.876 75.4783H197.032V73.5876H211.47ZM220.472 77.5837C220.472 80.7205 221.567 83.9861 224.188 85.6404L222.878 87.4666C221.127 86.4138 219.988 84.5984 219.354 82.4607C218.646 84.8132 217.399 86.8005 215.573 87.9177L214.091 86.1345C216.905 84.4158 218.173 80.9998 218.173 77.6912V74.2107H220.472V77.5837ZM231.171 72.4919V91.9138H228.872V72.4919H231.171ZM227.132 72.8357V90.9685H224.876V81.1501H222.104V79.1736H224.876V72.8357H227.132ZM251.173 87.5955V89.5505H233.427V87.5955H237.53V82.6755C235.983 81.7947 235.049 80.4089 235.06 78.6794C235.038 75.5857 238.089 73.5447 242.257 73.5447C246.446 73.5447 249.497 75.5857 249.497 78.6794C249.497 80.3767 248.595 81.741 247.091 82.6326V87.5955H251.173ZM242.257 75.4353C239.356 75.4353 237.38 76.6599 237.401 78.6794C237.38 80.6775 239.356 81.9236 242.257 81.9236C245.157 81.9236 247.155 80.6775 247.155 78.6794C247.155 76.6599 245.157 75.4353 242.257 75.4353ZM239.894 87.5955H244.663V83.5349C243.922 83.7068 243.116 83.7927 242.257 83.7927C241.419 83.7927 240.624 83.7068 239.894 83.5564V87.5955Z" fill="#1A1A1A"/>
</g>
<g id="Container">
<g id="GuestsField">
<g id="Paragraph">
<path id="&#236;&#157;&#184;&#236;&#155;&#144;" d="M42.7065 357.799H41.1753V348.871H42.7065V357.799ZM43.0483 360.971H34.5308V356.897H36.062V359.74H43.0483V360.971ZM35.9663 349.678C36.5861 349.678 37.1489 349.812 37.6548 350.081C38.1606 350.346 38.5594 350.712 38.8511 351.182C39.1427 351.651 39.2886 352.18 39.2886 352.768C39.2886 353.365 39.1427 353.9 38.8511 354.374C38.5594 354.844 38.1606 355.211 37.6548 355.475C37.1489 355.739 36.5861 355.871 35.9663 355.871C35.342 355.871 34.7746 355.739 34.2642 355.475C33.7583 355.211 33.3595 354.844 33.0679 354.374C32.7762 353.9 32.6304 353.365 32.6304 352.768C32.6304 352.18 32.7762 351.651 33.0679 351.182C33.3595 350.712 33.7583 350.346 34.2642 350.081C34.7746 349.812 35.342 349.678 35.9663 349.678ZM35.9663 351.004C35.6154 351.004 35.2987 351.077 35.0161 351.223C34.7336 351.369 34.5125 351.576 34.353 351.845C34.1935 352.114 34.116 352.421 34.1206 352.768C34.116 353.123 34.1935 353.435 34.353 353.704C34.5125 353.973 34.7336 354.181 35.0161 354.326C35.2987 354.472 35.6154 354.545 35.9663 354.545C36.3081 354.545 36.618 354.472 36.896 354.326C37.174 354.181 37.3927 353.973 37.5522 353.704C37.7163 353.435 37.7983 353.123 37.7983 352.768C37.7983 352.421 37.7163 352.114 37.5522 351.845C37.3927 351.576 37.174 351.369 36.896 351.223C36.618 351.077 36.3081 351.004 35.9663 351.004ZM54.8745 358.223H53.3433V357.143H50.9233V356.076H53.3433V348.871H54.8745V358.223ZM55.1616 360.971H46.0972V357.321H47.6147V359.74H55.1616V360.971ZM44.4565 354.422C46.0607 354.413 47.5008 354.386 48.7769 354.34C50.0529 354.295 51.2697 354.199 52.4272 354.053L52.5093 355.147C51.5203 355.311 50.4813 355.429 49.3921 355.502V357.881H47.8745V355.584C46.995 355.621 45.9194 355.639 44.6479 355.639L44.4565 354.422ZM48.4897 349.323C49.0868 349.323 49.6154 349.416 50.0757 349.603C50.5405 349.785 50.9028 350.043 51.1626 350.375C51.4269 350.703 51.5614 351.082 51.5659 351.51C51.5614 351.948 51.4292 352.33 51.1694 352.658C50.9097 352.987 50.5474 353.24 50.0825 353.417C49.6177 353.595 49.0868 353.684 48.4897 353.684C47.8836 353.684 47.3459 353.595 46.8765 353.417C46.4116 353.24 46.0493 352.987 45.7896 352.658C45.5298 352.33 45.3999 351.948 45.3999 351.51C45.3999 351.082 45.5298 350.703 45.7896 350.375C46.0493 350.043 46.4116 349.785 46.8765 349.603C47.3459 349.416 47.8836 349.323 48.4897 349.323ZM48.4897 350.444C47.993 350.444 47.592 350.539 47.2866 350.731C46.9858 350.918 46.8354 351.177 46.8354 351.51C46.8354 351.843 46.9858 352.105 47.2866 352.296C47.592 352.483 47.993 352.576 48.4897 352.576C48.9683 352.576 49.3579 352.481 49.6587 352.289C49.9595 352.098 50.1121 351.838 50.1167 351.51C50.1121 351.182 49.9595 350.922 49.6587 350.731C49.3579 350.539 48.9683 350.444 48.4897 350.444Z" fill="#4A4A4A"/>
</g>
<g id="Frame 59">
<g id="Container_2" filter="url(#filter0_dd_111_2612)">
<path d="M32.0015 462.971C32.0015 454.134 39.1649 446.971 48.0015 446.971H361.347C370.183 446.971 377.347 454.134 377.347 462.971V643.966C377.347 652.803 370.183 659.966 361.347 659.966H48.0014C39.1649 659.966 32.0015 652.802 32.0015 643.966V462.971Z" fill="#FAFAF7"/>
<path d="M48.0015 447.471H361.347C369.907 447.471 376.847 454.411 376.847 462.971V643.966C376.847 652.526 369.907 659.466 361.347 659.466H48.0015C39.4411 659.466 32.5015 652.526 32.5015 643.966V462.971C32.5015 454.411 39.4411 447.471 48.0015 447.471Z" stroke="#E2DDD5"/>
<g id="Container_3">
<g id="Text">
<path id="&#236;&#132;&#177;&#236;&#157;&#184;" d="M61.2896 483.939C61.2749 485.741 62.3296 487.381 64.4097 488.041L63.5308 489.315C62.0879 488.81 61.0771 487.85 60.5132 486.59C59.9272 488.033 58.8213 489.168 57.2173 489.725L56.353 488.407C58.5503 487.689 59.6489 485.917 59.6489 484.012V482.752H61.2896V483.939ZM67.5298 482.035V489.828H65.9038V485.931H63.2671V484.598H65.9038V482.035H67.5298ZM63.0474 490.179C65.8599 490.179 67.5737 491.117 67.5737 492.728C67.5737 494.339 65.8599 495.262 63.0474 495.262C60.2495 495.262 58.5356 494.339 58.5503 492.728C58.5356 491.117 60.2495 490.179 63.0474 490.179ZM63.0474 491.439C61.2017 491.439 60.1616 491.893 60.1616 492.728C60.1616 493.534 61.2017 493.988 63.0474 493.988C64.8931 493.988 65.9478 493.534 65.9478 492.728C65.9478 491.893 64.8931 491.439 63.0474 491.439ZM80.4351 482.049V491.615H78.7944V482.049H80.4351ZM80.8013 493.695V495.013H71.6753V490.648H73.3159V493.695H80.8013ZM73.2134 482.914C75.2202 482.914 76.7729 484.305 76.7729 486.224C76.7729 488.187 75.2202 489.549 73.2134 489.549C71.1919 489.549 69.6392 488.187 69.6392 486.224C69.6392 484.305 71.1919 482.914 73.2134 482.914ZM73.2134 484.334C72.0854 484.334 71.2212 485.082 71.2358 486.224C71.2212 487.396 72.0854 488.128 73.2134 488.128C74.312 488.128 75.1763 487.396 75.1763 486.224C75.1763 485.082 74.312 484.334 73.2134 484.334Z" fill="#1A1A1A"/>
</g>
<g id="Container_4">
<g id="Button">
<mask id="path-7-inside-1_111_2612" fill="white">
<path d="M209.38 488.97C209.38 479.029 217.438 470.971 227.379 470.971C237.319 470.971 245.377 479.029 245.377 488.97C245.377 498.91 237.319 506.968 227.379 506.968C217.438 506.968 209.38 498.91 209.38 488.97Z"/>
</mask>
<path d="M227.379 506.968V505.47C218.266 505.47 210.878 498.083 210.878 488.97H209.38H207.881C207.881 499.738 216.611 508.467 227.379 508.467V506.968ZM245.377 488.97H243.879C243.879 498.083 236.492 505.47 227.379 505.47V506.968V508.467C238.147 508.467 246.876 499.738 246.876 488.97H245.377ZM227.379 470.971V472.469C236.492 472.469 243.879 479.857 243.879 488.97H245.377H246.876C246.876 478.202 238.147 469.473 227.379 469.473V470.971ZM227.379 470.971V469.473C216.611 469.473 207.881 478.202 207.881 488.97H209.38H210.878C210.878 479.857 218.266 472.469 227.379 472.469V470.971Z" fill="#E2DDD5" mask="url(#path-7-inside-1_111_2612)"/>
<g id="Icon">
<path id="Vector" d="M222.709 488.97H232.037" stroke="#888882" stroke-width="1.33259" stroke-linecap="round" stroke-linejoin="round"/>
</g>
</g>
<g id="Text_2">
<path id="2" d="M277.657 494.218V492.75L281.657 488.89C282.798 487.75 283.392 487.078 283.392 486.125C283.392 485.078 282.563 484.406 281.454 484.406C280.282 484.406 279.532 485.14 279.548 486.281H277.61C277.595 484.14 279.204 482.75 281.47 482.75C283.782 482.75 285.345 484.125 285.345 486.031C285.345 487.312 284.72 488.343 282.501 490.437L280.485 492.437V492.515H285.517V494.218H277.657Z" fill="#1A1A1A"/>
</g>
<g id="Button_2">
<mask id="path-11-inside-2_111_2612" fill="white">
<path d="M317.349 488.97C317.349 479.029 325.407 470.971 335.348 470.971C345.288 470.971 353.347 479.029 353.347 488.97C353.347 498.91 345.288 506.968 335.348 506.968C325.407 506.968 317.349 498.91 317.349 488.97Z"/>
</mask>
<path d="M335.348 506.968V505.47C326.235 505.47 318.848 498.083 318.848 488.97H317.349H315.851C315.851 499.738 324.58 508.467 335.348 508.467V506.968ZM353.347 488.97H351.848C351.848 498.083 344.461 505.47 335.348 505.47V506.968V508.467C346.116 508.467 354.845 499.738 354.845 488.97H353.347ZM335.348 470.971V472.469C344.461 472.469 351.848 479.857 351.848 488.97H353.347H354.845C354.845 478.202 346.116 469.473 335.348 469.473V470.971ZM335.348 470.971V469.473C324.58 469.473 315.851 478.202 315.851 488.97H317.349H318.848C318.848 479.857 326.235 472.469 335.348 472.469V470.971Z" fill="#E2DDD5" mask="url(#path-11-inside-2_111_2612)"/>
<g id="Icon_2">
<path id="Vector_2" d="M330.678 488.97H340.006" stroke="#888882" stroke-width="1.33259" stroke-linecap="round" stroke-linejoin="round"/>
<path id="Vector_3" d="M335.342 484.306V493.634" stroke="#888882" stroke-width="1.33259" stroke-linecap="round" stroke-linejoin="round"/>
</g>
</g>
</g>
</g>
<g id="Container_5">
<g id="Text_3">
<path id="&#236;&#149;&#132;&#235;&#143;&#153;" d="M60.0005 544.999C61.9927 544.999 63.4282 546.815 63.4429 549.671C63.4282 552.557 61.9927 554.359 60.0005 554.359C57.9937 554.359 56.5435 552.557 56.5581 549.671C56.5435 546.815 57.9937 544.999 60.0005 544.999ZM60.0005 546.463C58.8872 546.463 58.1255 547.65 58.1255 549.671C58.1255 551.708 58.8872 552.894 60.0005 552.894C61.1284 552.894 61.8755 551.708 61.8755 549.671C61.8755 547.65 61.1284 546.463 60.0005 546.463ZM66.812 544.032V549.115H68.8481V550.492H66.812V557.274H65.186V544.032H66.812ZM81.4897 550.375V551.678H69.4048V550.375H74.6489V549.115H70.8843V544.632H80.0249V545.907H72.5103V547.826H80.0981V549.115H76.2456V550.375H81.4897ZM75.4253 552.44C78.2817 552.44 79.9956 553.304 80.0103 554.857C79.9956 556.395 78.2817 557.274 75.4253 557.274C72.5396 557.274 70.811 556.395 70.811 554.857C70.811 553.304 72.5396 552.44 75.4253 552.44ZM75.4253 553.685C73.4917 553.685 72.4517 554.095 72.4663 554.857C72.4517 555.619 73.4917 556.014 75.4253 556.014C77.3149 556.014 78.3696 555.619 78.3843 554.857C78.3696 554.095 77.3149 553.685 75.4253 553.685Z" fill="#1A1A1A"/>
</g>
<g id="Container_6">
<g id="Button_3">
<mask id="path-16-inside-3_111_2612" fill="white">
<path d="M209.38 550.967C209.38 541.027 217.438 532.968 227.379 532.968C237.319 532.968 245.377 541.027 245.377 550.967C245.377 560.907 237.319 568.966 227.379 568.966C217.438 568.966 209.38 560.907 209.38 550.967Z"/>
</mask>
<path d="M227.379 568.966V567.467C218.266 567.467 210.878 560.08 210.878 550.967H209.38H207.881C207.881 561.735 216.611 570.464 227.379 570.464V568.966ZM245.377 550.967H243.879C243.879 560.08 236.492 567.467 227.379 567.467V568.966V570.464C238.147 570.464 246.876 561.735 246.876 550.967H245.377ZM227.379 532.968V534.467C236.492 534.467 243.879 541.854 243.879 550.967H245.377H246.876C246.876 540.199 238.147 531.47 227.379 531.47V532.968ZM227.379 532.968V531.47C216.611 531.47 207.881 540.199 207.881 550.967H209.38H210.878C210.878 541.854 218.266 534.467 227.379 534.467V532.968Z" fill="#E2DDD5" mask="url(#path-16-inside-3_111_2612)"/>
<g id="Icon_3">
<path id="Vector_4" d="M222.709 550.967H232.037" stroke="#888882" stroke-width="1.33259" stroke-linecap="round" stroke-linejoin="round"/>
</g>
</g>
<g id="Text_4">
<path id="1" d="M283.547 544.903V556.215H281.5V546.887H281.438L278.797 548.575V546.715L281.594 544.903H283.547Z" fill="#1A1A1A"/>
</g>
<g id="Button_4">
<mask id="path-20-inside-4_111_2612" fill="white">
<path d="M317.349 550.967C317.349 541.027 325.407 532.968 335.348 532.968C345.288 532.968 353.347 541.027 353.347 550.967C353.347 560.907 345.288 568.966 335.348 568.966C325.407 568.966 317.349 560.907 317.349 550.967Z"/>
</mask>
<path d="M335.348 568.966V567.467C326.235 567.467 318.848 560.08 318.848 550.967H317.349H315.851C315.851 561.735 324.58 570.464 335.348 570.464V568.966ZM353.347 550.967H351.848C351.848 560.08 344.461 567.467 335.348 567.467V568.966V570.464C346.116 570.464 354.845 561.735 354.845 550.967H353.347ZM335.348 532.968V534.467C344.461 534.467 351.848 541.854 351.848 550.967H353.347H354.845C354.845 540.199 346.116 531.47 335.348 531.47V532.968ZM335.348 532.968V531.47C324.58 531.47 315.851 540.199 315.851 550.967H317.349H318.848C318.848 541.854 326.235 534.467 335.348 534.467V532.968Z" fill="#E2DDD5" mask="url(#path-20-inside-4_111_2612)"/>
<g id="Icon_4">
<path id="Vector_5" d="M330.678 550.967H340.006" stroke="#888882" stroke-width="1.33259" stroke-linecap="round" stroke-linejoin="round"/>
<path id="Vector_6" d="M335.342 546.303V555.631" stroke="#888882" stroke-width="1.33259" stroke-linecap="round" stroke-linejoin="round"/>
</g>
</g>
</g>
</g>
<line id="Line 4" x1="56" y1="582.704" x2="349" y2="582.704" stroke="#888882" stroke-width="0.5"/>
<g id="Container_7">
<g id="Container_8">
<g id="Text_5">
<path id="&#236;&#149;&#132;&#235;&#143;&#153;1" d="M70.0615 609.367C70.6868 609.367 71.2375 609.549 71.7135 609.913C72.1895 610.268 72.5628 610.776 72.8335 611.439C73.1041 612.102 73.2395 612.881 73.2395 613.777C73.2395 614.673 73.1041 615.452 72.8335 616.115C72.5628 616.778 72.1895 617.291 71.7135 617.655C71.2375 618.019 70.6868 618.201 70.0615 618.201C69.4455 618.201 68.8948 618.019 68.4095 617.655C67.9335 617.291 67.5601 616.778 67.2895 616.115C67.0188 615.452 66.8835 614.673 66.8835 613.777C66.8835 612.881 67.0188 612.102 67.2895 611.439C67.5601 610.776 67.9335 610.268 68.4095 609.913C68.8948 609.549 69.4455 609.367 70.0615 609.367ZM70.0615 610.403C69.6601 610.403 69.3008 610.543 68.9835 610.823C68.6755 611.094 68.4328 611.486 68.2555 611.999C68.0781 612.503 67.9895 613.096 67.9895 613.777C67.9895 614.458 68.0781 615.056 68.2555 615.569C68.4328 616.073 68.6755 616.465 68.9835 616.745C69.3008 617.025 69.6648 617.165 70.0755 617.165C70.4768 617.165 70.8315 617.025 71.1395 616.745C71.4568 616.465 71.6995 616.073 71.8675 615.569C72.0448 615.056 72.1335 614.458 72.1335 613.777C72.1335 613.096 72.0448 612.503 71.8675 611.999C71.6995 611.486 71.4568 611.094 71.1395 610.823C70.8315 610.543 70.4721 610.403 70.0615 610.403ZM75.2695 608.387H76.4315V621.057H75.2695V608.387ZM76.1655 613.441H78.5035V614.421H76.1655V613.441ZM79.5804 614.631H91.0324V615.569H79.5804V614.631ZM84.7324 612.601H85.8664V615.023H84.7324V612.601ZM81.0224 612.237H89.6884V613.175H81.0224V612.237ZM81.0224 608.975H89.6044V609.899H82.1704V612.797H81.0224V608.975ZM85.2924 616.479C86.6457 616.479 87.705 616.68 88.4704 617.081C89.2357 617.473 89.6184 618.033 89.6184 618.761C89.6184 619.489 89.2357 620.049 88.4704 620.441C87.705 620.842 86.6457 621.043 85.2924 621.043C83.939 621.043 82.875 620.842 82.1004 620.441C81.335 620.049 80.9524 619.489 80.9524 618.761C80.9524 618.033 81.335 617.473 82.1004 617.081C82.875 616.68 83.939 616.479 85.2924 616.479ZM85.2784 617.389C84.625 617.389 84.0604 617.445 83.5844 617.557C83.1177 617.66 82.7584 617.814 82.5064 618.019C82.2544 618.215 82.1284 618.462 82.1284 618.761C82.1284 619.05 82.2544 619.298 82.5064 619.503C82.7584 619.708 83.1177 619.862 83.5844 619.965C84.0604 620.077 84.625 620.133 85.2784 620.133C85.9504 620.133 86.5197 620.077 86.9864 619.965C87.4624 619.862 87.8264 619.708 88.0784 619.503C88.3304 619.298 88.4564 619.05 88.4564 618.761C88.4564 618.462 88.3304 618.215 88.0784 618.019C87.8264 617.814 87.4624 617.66 86.9864 617.557C86.5197 617.445 85.9504 617.389 85.2784 617.389ZM98.8618 618.919V619.965H92.8257V618.919H95.2798V611.509L93.106 613.061V611.898L95.3823 610.333H96.5171V618.919H98.8618Z" fill="#888882"/>
</g>
<g id="Dropdown">
<mask id="path-26-inside-5_111_2612" fill="white">
<path d="M239.347 606.966C239.347 600.338 244.719 594.966 251.347 594.966H331.347C337.974 594.966 343.347 600.338 343.347 606.966V623.966C343.347 630.593 337.974 635.966 331.347 635.966H251.347C244.719 635.966 239.347 630.593 239.347 623.966V606.966Z"/>
</mask>
<path d="M251.347 594.966V596.464H331.347V594.966V593.467H251.347V594.966ZM343.347 606.966H341.848V623.966H343.347H344.845V606.966H343.347ZM331.347 635.966V634.467H251.347V635.966V637.464H331.347V635.966ZM239.347 623.966H240.845V606.966H239.347H237.848V623.966H239.347ZM251.347 635.966V634.467C245.547 634.467 240.845 629.766 240.845 623.966H239.347H237.848C237.848 631.421 243.892 637.464 251.347 637.464V635.966ZM343.347 623.966H341.848C341.848 629.766 337.147 634.467 331.347 634.467V635.966V637.464C338.802 637.464 344.845 631.421 344.845 623.966H343.347ZM331.347 594.966V596.464C337.147 596.464 341.848 601.166 341.848 606.966H343.347H344.845C344.845 599.511 338.802 593.467 331.347 593.467V594.966ZM251.347 594.966V593.467C243.892 593.467 237.848 599.511 237.848 606.966H239.347H240.845C240.845 601.166 245.547 596.464 251.347 596.464V594.966Z" fill="#E2DDD5" mask="url(#path-26-inside-5_111_2612)"/>
<path id="&#235;&#130;&#152;&#236;&#157;&#180; &#236;&#132;&#160;&#237;&#131;&#157;" d="M262.469 613.442H264.793V614.408H262.469V613.442ZM261.615 608.388H262.777V621.044H261.615V608.388ZM253.551 609.634H254.699V617.474H253.551V609.634ZM253.551 616.872H254.559C255.483 616.872 256.43 616.83 257.401 616.746C258.381 616.662 259.393 616.512 260.439 616.298L260.579 617.278C259.496 617.492 258.46 617.642 257.471 617.726C256.491 617.8 255.52 617.838 254.559 617.838H253.551V616.872ZM275.124 608.388H276.286V621.072H275.124V608.388ZM269.608 609.368C270.233 609.368 270.784 609.55 271.26 609.914C271.745 610.268 272.123 610.777 272.394 611.44C272.674 612.102 272.814 612.882 272.814 613.778C272.814 614.674 272.674 615.453 272.394 616.116C272.123 616.778 271.745 617.292 271.26 617.656C270.784 618.02 270.233 618.202 269.608 618.202C268.982 618.202 268.427 618.02 267.942 617.656C267.456 617.292 267.074 616.778 266.794 616.116C266.523 615.453 266.388 614.674 266.388 613.778C266.388 612.882 266.523 612.102 266.794 611.44C267.074 610.777 267.456 610.268 267.942 609.914C268.427 609.55 268.982 609.368 269.608 609.368ZM269.608 610.404C269.188 610.404 268.819 610.544 268.502 610.824C268.194 611.094 267.951 611.486 267.774 612C267.596 612.504 267.508 613.096 267.508 613.778C267.508 614.459 267.596 615.056 267.774 615.57C267.951 616.074 268.194 616.466 268.502 616.746C268.819 617.026 269.188 617.166 269.608 617.166C270.018 617.166 270.378 617.026 270.686 616.746C271.003 616.466 271.25 616.074 271.428 615.57C271.605 615.056 271.694 614.459 271.694 613.778C271.694 613.096 271.605 612.504 271.428 612C271.25 611.486 271.003 611.094 270.686 610.824C270.378 610.544 270.018 610.404 269.608 610.404ZM289.197 611.37H292.375V612.336H289.197V611.37ZM285.879 609.158H286.817V610.712C286.817 611.524 286.672 612.284 286.383 612.994C286.094 613.703 285.688 614.324 285.165 614.856C284.642 615.378 284.031 615.78 283.331 616.06L282.715 615.136C283.191 614.958 283.62 614.72 284.003 614.422C284.395 614.123 284.726 613.778 284.997 613.386C285.277 612.994 285.492 612.574 285.641 612.126C285.8 611.668 285.879 611.197 285.879 610.712V609.158ZM286.089 609.158H287.027V610.754C287.027 611.192 287.102 611.622 287.251 612.042C287.4 612.462 287.61 612.854 287.881 613.218C288.152 613.582 288.474 613.904 288.847 614.184C289.23 614.464 289.65 614.688 290.107 614.856L289.477 615.766C288.805 615.495 288.212 615.112 287.699 614.618C287.195 614.123 286.798 613.544 286.509 612.882C286.229 612.219 286.089 611.51 286.089 610.754V609.158ZM291.955 608.402H293.117V617.866H291.955V608.402ZM284.983 619.826H293.411V620.778H284.983V619.826ZM284.983 616.816H286.145V620.26H284.983V616.816ZM296.126 614.45H296.924C297.596 614.45 298.184 614.445 298.688 614.436C299.201 614.417 299.682 614.384 300.13 614.338C300.578 614.282 301.035 614.207 301.502 614.114L301.628 615.066C301.143 615.159 300.667 615.234 300.2 615.29C299.743 615.336 299.253 615.369 298.73 615.388C298.207 615.406 297.605 615.416 296.924 615.416H296.126V614.45ZM296.126 609.312H301.012V610.264H297.246V614.968H296.126V609.312ZM296.896 611.832H300.872V612.742H296.896V611.832ZM305.142 608.402H306.248V616.074H305.142V608.402ZM303.098 611.692H305.478V612.644H303.098V611.692ZM302.342 608.64H303.434V615.99H302.342V608.64ZM297.764 616.732H306.248V621.058H305.1V617.684H297.764V616.732Z" fill="#888882"/>
<g id="Frame">
<path id="Vector_7" d="M328.347 617.466L324.347 613.466L320.347 617.466" stroke="#888882" stroke-width="1.3" stroke-linecap="round" stroke-linejoin="round"/>
</g>
</g>
</g>
</g>
</g>
<g id="Button_5" filter="url(#filter1_dd_111_2612)">
<path d="M32.0015 391.997C32.0015 383.161 39.1649 375.997 48.0015 375.997H361.343C370.18 375.997 377.343 383.161 377.343 391.997V414.971C377.343 423.808 370.18 430.971 361.343 430.971H48.0015C39.1649 430.971 32.0015 423.808 32.0015 414.971V391.997Z" fill="#FAFAF7"/>
<path d="M48.0015 376.497H361.343C369.904 376.497 376.843 383.437 376.843 391.997V414.971C376.843 423.531 369.904 430.471 361.343 430.471H48.0015C39.4411 430.471 32.5015 423.531 32.5015 414.971V391.997C32.5015 383.437 39.4411 376.497 48.0015 376.497Z" stroke="#E2DDD5"/>
<g id="Paragraph_2">
<path id="&#236;&#132;&#177;&#236;&#157;&#184; 2&#235;&#170;&#133;, &#236;&#149;&#132;&#235;&#143;&#153; 1&#235;&#170;&#133;" d="M54.2896 398.448C54.2847 399.058 54.3994 399.634 54.6338 400.176C54.8682 400.718 55.2197 401.197 55.6885 401.612C56.1621 402.022 56.7358 402.334 57.4097 402.549L56.5308 403.824C55.8179 403.575 55.2075 403.218 54.6997 402.754C54.1968 402.291 53.8013 401.739 53.5132 401.099C53.2153 401.836 52.7881 402.476 52.2314 403.018C51.6748 403.555 51.0034 403.96 50.2173 404.234L49.353 402.916C50.0659 402.681 50.6689 402.342 51.1621 401.897C51.6553 401.453 52.0264 400.94 52.2754 400.359C52.5244 399.778 52.6489 399.166 52.6489 398.521V397.261H54.2896V398.448ZM60.5298 404.336H58.9038V400.44H56.2671V399.107H58.9038V396.543H60.5298V404.336ZM56.0474 404.688C56.98 404.688 57.7856 404.788 58.4644 404.988C59.1479 405.188 59.6704 405.481 60.0317 405.867C60.3931 406.248 60.5737 406.705 60.5737 407.237C60.5737 407.769 60.3931 408.226 60.0317 408.606C59.6704 408.987 59.1504 409.275 58.4717 409.471C57.793 409.671 56.9849 409.771 56.0474 409.771C55.1147 409.771 54.3091 409.671 53.6304 409.471C52.9565 409.275 52.439 408.987 52.0776 408.606C51.7212 408.226 51.5454 407.769 51.5503 407.237C51.5454 406.705 51.7212 406.248 52.0776 405.867C52.439 405.481 52.959 405.188 53.6377 404.988C54.3164 404.788 55.1196 404.688 56.0474 404.688ZM56.0474 405.948C55.1196 405.948 54.4067 406.06 53.9087 406.285C53.4106 406.504 53.1616 406.822 53.1616 407.237C53.1616 407.642 53.4106 407.955 53.9087 408.174C54.4116 408.389 55.1245 408.497 56.0474 408.497C56.9702 408.497 57.6831 408.387 58.186 408.167C58.6938 407.947 58.9478 407.637 58.9478 407.237C58.9478 406.822 58.6963 406.504 58.1934 406.285C57.6904 406.06 56.9751 405.948 56.0474 405.948ZM73.4351 406.124H71.7944V396.558H73.4351V406.124ZM73.8013 409.522H64.6753V405.157H66.3159V408.204H73.8013V409.522ZM66.2134 397.422C66.8774 397.422 67.4805 397.566 68.0225 397.854C68.5645 398.138 68.9917 398.531 69.3042 399.034C69.6167 399.537 69.7729 400.103 69.7729 400.733C69.7729 401.373 69.6167 401.946 69.3042 402.454C68.9917 402.957 68.5645 403.35 68.0225 403.633C67.4805 403.917 66.8774 404.058 66.2134 404.058C65.5444 404.058 64.9365 403.917 64.3896 403.633C63.8477 403.35 63.4204 402.957 63.1079 402.454C62.7954 401.946 62.6392 401.373 62.6392 400.733C62.6392 400.103 62.7954 399.537 63.1079 399.034C63.4204 398.531 63.8477 398.138 64.3896 397.854C64.9365 397.566 65.5444 397.422 66.2134 397.422ZM66.2134 398.843C65.8374 398.843 65.498 398.921 65.1953 399.078C64.8926 399.234 64.6558 399.456 64.4849 399.744C64.314 400.032 64.231 400.362 64.2358 400.733C64.231 401.114 64.314 401.448 64.4849 401.736C64.6558 402.024 64.8926 402.247 65.1953 402.403C65.498 402.559 65.8374 402.637 66.2134 402.637C66.5796 402.637 66.9116 402.559 67.2095 402.403C67.5073 402.247 67.7417 402.024 67.9126 401.736C68.0884 401.448 68.1763 401.114 68.1763 400.733C68.1763 400.362 68.0884 400.032 67.9126 399.744C67.7417 399.456 67.5073 399.234 67.2095 399.078C66.9116 398.921 66.5796 398.843 66.2134 398.843ZM79.3677 407.105L83.1177 403.487C83.5229 403.082 83.8354 402.75 84.0552 402.491C84.2798 402.227 84.4507 401.968 84.5679 401.714C84.6851 401.456 84.7437 401.182 84.7437 400.894C84.7437 400.572 84.6655 400.289 84.5093 400.044C84.353 399.8 84.1357 399.612 83.8574 399.48C83.584 399.349 83.2739 399.283 82.9272 399.283C82.5659 399.283 82.2485 399.356 81.9751 399.502C81.7065 399.644 81.499 399.849 81.3525 400.118C81.2061 400.381 81.1353 400.689 81.1401 401.041H79.3237C79.3188 400.381 79.4702 399.803 79.7778 399.305C80.0854 398.802 80.5127 398.414 81.0596 398.14C81.6113 397.867 82.2388 397.73 82.9419 397.73C83.6548 397.73 84.2847 397.862 84.8315 398.125C85.3833 398.389 85.8105 398.755 86.1133 399.224C86.4209 399.688 86.5747 400.215 86.5747 400.806C86.5747 401.216 86.4941 401.612 86.333 401.993C86.1768 402.374 85.9082 402.796 85.5273 403.26C85.1465 403.719 84.6069 404.278 83.9087 404.937L82.019 406.812V406.885H86.7358V408.482H79.3677V407.105ZM99.0552 404.336H97.4292V402.505H94.7632V403.531H88.5376V397.54H94.7632V398.565H97.4292V396.543H99.0552V404.336ZM90.1636 402.227H93.1519V398.829H90.1636V402.227ZM94.5728 404.688C95.5054 404.688 96.311 404.788 96.9897 404.988C97.6733 405.188 98.1958 405.481 98.5571 405.867C98.9185 406.248 99.0991 406.705 99.0991 407.237C99.0991 407.769 98.9185 408.226 98.5571 408.606C98.1958 408.987 97.6758 409.275 96.9971 409.471C96.3184 409.671 95.5103 409.771 94.5728 409.771C93.6401 409.771 92.8345 409.671 92.1558 409.471C91.4819 409.275 90.9644 408.987 90.603 408.606C90.2466 408.226 90.0708 407.769 90.0757 407.237C90.0708 406.705 90.2466 406.248 90.603 405.867C90.9644 405.481 91.4844 405.188 92.1631 404.988C92.8418 404.788 93.645 404.688 94.5728 404.688ZM94.5728 405.933C93.645 405.933 92.9321 406.045 92.4341 406.27C91.936 406.49 91.687 406.812 91.687 407.237C91.687 407.647 91.936 407.962 92.4341 408.182C92.937 408.401 93.6499 408.511 94.5728 408.511C95.5005 408.511 96.2158 408.401 96.7188 408.182C97.2217 407.962 97.4731 407.647 97.4731 407.237C97.4731 406.812 97.2217 406.49 96.7188 406.27C96.2158 406.045 95.5005 405.933 94.5728 405.933ZM97.4292 401.187V399.854H94.7632V401.187H97.4292ZM102.278 411.543H100.886L101.648 407.442H103.508L102.278 411.543ZM111.873 397.51C112.537 397.51 113.127 397.703 113.645 398.089C114.163 398.47 114.568 399.014 114.861 399.722C115.159 400.425 115.31 401.246 115.315 402.183C115.31 403.13 115.159 403.958 114.861 404.666C114.568 405.374 114.163 405.918 113.645 406.299C113.127 406.68 112.537 406.871 111.873 406.871C111.204 406.871 110.608 406.68 110.085 406.299C109.563 405.914 109.155 405.367 108.862 404.659C108.569 403.951 108.425 403.125 108.43 402.183C108.425 401.25 108.569 400.43 108.862 399.722C109.155 399.014 109.563 398.47 110.085 398.089C110.608 397.703 111.204 397.51 111.873 397.51ZM111.873 398.975C111.501 398.975 111.174 399.104 110.891 399.363C110.608 399.617 110.388 399.986 110.232 400.469C110.076 400.948 109.998 401.519 109.998 402.183C109.998 402.852 110.076 403.428 110.232 403.912C110.388 404.395 110.608 404.766 110.891 405.025C111.174 405.279 111.501 405.406 111.873 405.406C112.249 405.406 112.578 405.279 112.861 405.025C113.145 404.766 113.362 404.395 113.513 403.912C113.669 403.428 113.748 402.852 113.748 402.183C113.748 401.519 113.669 400.945 113.513 400.462C113.362 399.979 113.145 399.61 112.861 399.356C112.578 399.102 112.249 398.975 111.873 398.975ZM118.684 401.626H120.72V403.003H118.684V409.786H117.058V396.543H118.684V401.626ZM133.362 404.19H121.277V402.886H126.521V401.626H122.756V397.144H131.897V398.418H124.382V400.337H131.97V401.626H128.118V402.886H133.362V404.19ZM127.297 404.952C128.25 404.952 129.067 405.047 129.751 405.237C130.435 405.423 130.959 405.696 131.326 406.058C131.692 406.419 131.877 406.856 131.882 407.369C131.877 407.876 131.692 408.311 131.326 408.672C130.959 409.034 130.432 409.31 129.744 409.5C129.06 409.69 128.245 409.786 127.297 409.786C126.34 409.786 125.515 409.69 124.822 409.5C124.128 409.31 123.599 409.034 123.232 408.672C122.866 408.311 122.683 407.876 122.683 407.369C122.683 406.856 122.866 406.419 123.232 406.058C123.599 405.696 124.126 405.423 124.814 405.237C125.508 405.047 126.335 404.952 127.297 404.952ZM127.297 406.197C126.331 406.197 125.593 406.297 125.085 406.497C124.583 406.697 124.333 406.988 124.338 407.369C124.333 407.75 124.583 408.038 125.085 408.233C125.588 408.428 126.326 408.526 127.297 408.526C128.25 408.526 128.979 408.428 129.487 408.233C129.995 408.038 130.251 407.75 130.256 407.369C130.251 406.988 129.993 406.697 129.48 406.497C128.972 406.297 128.245 406.197 127.297 406.197ZM142.546 408.482H140.627V399.737H140.569L138.093 401.319V399.576L140.715 397.876H142.546V408.482ZM155.774 404.336H154.148V402.505H151.482V403.531H145.256V397.54H151.482V398.565H154.148V396.543H155.774V404.336ZM146.882 402.227H149.871V398.829H146.882V402.227ZM151.292 404.688C152.224 404.688 153.03 404.788 153.708 404.988C154.392 405.188 154.915 405.481 155.276 405.867C155.637 406.248 155.818 406.705 155.818 407.237C155.818 407.769 155.637 408.226 155.276 408.606C154.915 408.987 154.395 409.275 153.716 409.471C153.037 409.671 152.229 409.771 151.292 409.771C150.359 409.771 149.553 409.671 148.875 409.471C148.201 409.275 147.683 408.987 147.322 408.606C146.965 408.226 146.79 407.769 146.794 407.237C146.79 406.705 146.965 406.248 147.322 405.867C147.683 405.481 148.203 405.188 148.882 404.988C149.561 404.788 150.364 404.688 151.292 404.688ZM151.292 405.933C150.364 405.933 149.651 406.045 149.153 406.27C148.655 406.49 148.406 406.812 148.406 407.237C148.406 407.647 148.655 407.962 149.153 408.182C149.656 408.401 150.369 408.511 151.292 408.511C152.219 408.511 152.935 408.401 153.438 408.182C153.94 407.962 154.192 407.647 154.192 407.237C154.192 406.812 153.94 406.49 153.438 406.27C152.935 406.045 152.219 405.933 151.292 405.933ZM154.148 401.187V399.854H151.482V401.187H154.148Z" fill="#1A1A1A"/>
</g>
<g id="Frame_2">
<path id="Vector_8" d="M358.343 405.484L354.343 401.484L350.343 405.484" stroke="#1A1A1A" stroke-width="1.3" stroke-linecap="round" stroke-linejoin="round"/>
</g>
</g>
</g>
</g>
<g id="DateField">
<g id="Paragraph_3">
<path id="&#235;&#130;&#160;&#236;&#167;&#156;" d="M42.1582 240.224H43.8809V241.482H42.1582V243.97H40.6406V237.818H42.1582V240.224ZM34.4746 242.268C36.2428 242.246 37.9245 242.079 39.5195 241.769L39.6973 243.013C38.7767 243.2 37.8698 243.335 36.9766 243.417C36.0833 243.494 35.1764 243.533 34.2559 243.533H33.9688H32.9434V238.365H34.4746V242.268ZM42.1582 247.785H35.6094V248.797H42.541V250.027H34.0918V246.623H40.627V245.707H34.0781V244.504H42.1582V247.785ZM54.5586 242.562H56.0625V243.834H54.5586V250.177H53.041V237.818H54.5586V242.562ZM47.5312 241.127C47.5312 242.002 47.6042 242.827 47.75 243.601C47.8958 244.376 48.1693 245.06 48.5703 245.652C48.9622 245.064 49.2311 244.383 49.377 243.608C49.5228 242.829 49.5957 242.002 49.5957 241.127V240.183H48.8027V238.953H52.248V240.183H51.0449V241.127C51.0449 242.307 51.1771 243.362 51.4414 244.292C51.7057 245.221 52.1888 245.944 52.8906 246.459L51.9199 247.552C51.1589 246.969 50.6165 246.042 50.293 244.77C49.9557 246.096 49.377 247.06 48.5566 247.662C47.7546 247.065 47.1826 246.101 46.8408 244.77C46.5127 246.042 45.9727 246.969 45.2207 247.552L44.25 246.459C44.9518 245.939 45.4349 245.212 45.6992 244.278C45.9635 243.339 46.0957 242.289 46.0957 241.127V240.183H44.7148V238.953H48.3242V240.183H47.5312V241.127Z" fill="#4A4A4A"/>
</g>
<g id="Button_6" filter="url(#filter2_dd_111_2612)">
<path d="M32 280.958C32 272.121 39.1634 264.958 48 264.958H361.342C370.178 264.958 377.342 272.121 377.342 280.958V303.932C377.342 312.768 370.178 319.932 361.342 319.932H48C39.1635 319.932 32 312.768 32 303.932V280.958Z" fill="#FAFAF7"/>
<path d="M48 265.458H361.342C369.902 265.458 376.842 272.397 376.842 280.958V303.931C376.842 312.492 369.902 319.431 361.342 319.431H48C39.4396 319.431 32.5 312.492 32.5 303.931V280.958C32.5 272.397 39.4396 265.458 48 265.458Z" stroke="#E2DDD5"/>
<g id="Paragraph_4">
<path id="4&#236;&#155;&#148; 10&#236;&#157;&#188; ~ 4&#236;&#155;&#148; 12&#236;&#157;&#188;" d="M49.6885 293.941L54.2734 286.837H56.6465V293.897H58.0381V295.465H56.6465V297.442H54.8301V295.465H49.6885V293.941ZM54.8594 293.897V289.005H54.7422L51.6367 293.824V293.897H54.8594ZM70.2256 293.238H68.585V292.696H66.1094V291.7H68.585V285.519H70.2256V293.238ZM59.1074 290.294C60.7529 290.294 62.2788 290.274 63.6851 290.235C65.0913 290.196 66.4316 290.113 67.7061 289.986L67.7939 291.012C66.6758 291.168 65.4502 291.278 64.1172 291.341V293.253H62.5059V291.407C61.9297 291.427 61.0947 291.437 60.001 291.437H59.2832L59.1074 290.294ZM70.2256 296.622H62.6963V297.472H70.5771V298.629H61.0996V295.553H68.6143V294.762H61.041V293.648H70.2256V296.622ZM63.3848 285.724C64.0342 285.724 64.6079 285.807 65.106 285.973C65.6089 286.139 65.9995 286.373 66.2778 286.676C66.5562 286.974 66.6953 287.32 66.6953 287.716C66.6953 288.121 66.5562 288.473 66.2778 288.771C65.9995 289.068 65.6113 289.298 65.1133 289.459C64.6152 289.615 64.0391 289.693 63.3848 289.693C62.7158 289.693 62.1299 289.615 61.627 289.459C61.124 289.298 60.7334 289.068 60.4551 288.771C60.1816 288.473 60.0449 288.121 60.0449 287.716C60.0449 287.32 60.1841 286.974 60.4624 286.676C60.7407 286.373 61.1313 286.139 61.6343 285.973C62.1372 285.807 62.7207 285.724 63.3848 285.724ZM63.3848 286.808C62.8281 286.808 62.3887 286.891 62.0664 287.057C61.7441 287.218 61.5879 287.438 61.5977 287.716C61.5928 287.994 61.749 288.214 62.0664 288.375C62.3887 288.531 62.8281 288.609 63.3848 288.609C63.9316 288.609 64.3662 288.531 64.6885 288.375C65.0107 288.214 65.1719 287.994 65.1719 287.716C65.1719 287.438 65.0083 287.218 64.6812 287.057C64.3589 286.891 63.9268 286.808 63.3848 286.808ZM80.3916 297.442H78.4727V288.697H78.4141L75.9385 290.279V288.536L78.5605 286.837H80.3916V297.442ZM86.8809 297.589C86.0312 297.589 85.3013 297.376 84.6909 296.952C84.0854 296.522 83.6191 295.899 83.292 295.084C82.9697 294.269 82.8086 293.287 82.8086 292.14C82.8086 290.997 82.9697 290.018 83.292 289.203C83.6191 288.382 84.0879 287.76 84.6982 287.335C85.3086 286.905 86.0361 286.69 86.8809 286.69C87.7207 286.69 88.4458 286.905 89.0562 287.335C89.6714 287.76 90.1401 288.382 90.4624 289.203C90.7896 290.018 90.9531 290.997 90.9531 292.14C90.9531 293.287 90.7896 294.269 90.4624 295.084C90.1401 295.899 89.6738 296.522 89.0635 296.952C88.458 297.376 87.7305 297.589 86.8809 297.589ZM86.8809 295.992C87.3301 295.992 87.7134 295.848 88.0308 295.56C88.353 295.267 88.5996 294.835 88.7705 294.264C88.9463 293.688 89.0342 292.979 89.0342 292.14C89.0342 291.31 88.9463 290.606 88.7705 290.03C88.5996 289.449 88.353 289.012 88.0308 288.719C87.7085 288.421 87.3252 288.272 86.8809 288.272C86.4365 288.272 86.0532 288.421 85.731 288.719C85.4087 289.012 85.1597 289.449 84.9839 290.03C84.813 290.606 84.7275 291.31 84.7275 292.14C84.7275 292.979 84.813 293.688 84.9839 294.264C85.1597 294.835 85.4062 295.267 85.7236 295.56C86.0459 295.848 86.4316 295.992 86.8809 295.992ZM95.8604 285.929C96.5244 285.929 97.1226 286.058 97.6548 286.317C98.187 286.571 98.6045 286.925 98.9072 287.379C99.2148 287.833 99.3711 288.346 99.376 288.917C99.3711 289.493 99.2148 290.008 98.9072 290.462C98.6045 290.917 98.187 291.271 97.6548 291.524C97.1226 291.778 96.5244 291.905 95.8604 291.905C95.1914 291.905 94.5884 291.778 94.0513 291.524C93.519 291.271 93.1016 290.917 92.7988 290.462C92.4961 290.008 92.3447 289.493 92.3447 288.917C92.3447 288.346 92.4961 287.833 92.7988 287.379C93.1016 286.925 93.5215 286.571 94.0586 286.317C94.5957 286.058 95.1963 285.929 95.8604 285.929ZM95.8604 287.276C95.4893 287.276 95.1572 287.345 94.8643 287.481C94.5713 287.613 94.3418 287.804 94.1758 288.053C94.0098 288.297 93.9268 288.585 93.9268 288.917C93.9268 289.254 94.0098 289.549 94.1758 289.803C94.3418 290.052 94.5713 290.245 94.8643 290.382C95.1572 290.519 95.4893 290.587 95.8604 290.587C96.2314 290.587 96.5635 290.519 96.8564 290.382C97.1494 290.245 97.3789 290.052 97.5449 289.803C97.7109 289.549 97.7939 289.254 97.7939 288.917C97.7939 288.585 97.7109 288.297 97.5449 288.053C97.3789 287.804 97.1494 287.613 96.8564 287.481C96.5635 287.345 96.2314 287.276 95.8604 287.276ZM103.141 292.198H101.5V285.504H103.141V292.198ZM103.141 296.227H95.9775V297.296H103.536V298.585H94.3809V295.025H101.515V294.044H94.3516V292.77H103.141V296.227ZM109.601 291.744C109.84 291.48 110.111 291.28 110.414 291.144C110.716 291.007 111.036 290.938 111.373 290.938C111.632 290.938 111.883 290.973 112.127 291.041C112.372 291.104 112.682 291.207 113.058 291.349C113.419 291.485 113.722 291.588 113.966 291.656C114.215 291.725 114.469 291.759 114.728 291.759C115.411 291.759 115.987 291.48 116.456 290.924V292.521C116.217 292.789 115.946 292.992 115.643 293.128C115.345 293.26 115.025 293.326 114.684 293.326C114.425 293.326 114.168 293.292 113.915 293.224C113.661 293.15 113.355 293.048 112.999 292.916C112.643 292.784 112.337 292.684 112.083 292.616C111.834 292.542 111.583 292.506 111.329 292.506C110.646 292.506 110.069 292.784 109.601 293.341V291.744ZM122.11 293.941L126.695 286.837H129.068V293.897H130.46V295.465H129.068V297.442H127.252V295.465H122.11V293.941ZM127.281 293.897V289.005H127.164L124.059 293.824V293.897H127.281ZM142.647 293.238H141.007V292.696H138.531V291.7H141.007V285.519H142.647V293.238ZM131.529 290.294C133.175 290.294 134.701 290.274 136.107 290.235C137.513 290.196 138.854 290.113 140.128 289.986L140.216 291.012C139.098 291.168 137.872 291.278 136.539 291.341V293.253H134.928V291.407C134.352 291.427 133.517 291.437 132.423 291.437H131.705L131.529 290.294ZM142.647 296.622H135.118V297.472H142.999V298.629H133.521V295.553H141.036V294.762H133.463V293.648H142.647V296.622ZM135.807 285.724C136.456 285.724 137.03 285.807 137.528 285.973C138.031 286.139 138.421 286.373 138.7 286.676C138.978 286.974 139.117 287.32 139.117 287.716C139.117 288.121 138.978 288.473 138.7 288.771C138.421 289.068 138.033 289.298 137.535 289.459C137.037 289.615 136.461 289.693 135.807 289.693C135.138 289.693 134.552 289.615 134.049 289.459C133.546 289.298 133.155 289.068 132.877 288.771C132.604 288.473 132.467 288.121 132.467 287.716C132.467 287.32 132.606 286.974 132.884 286.676C133.163 286.373 133.553 286.139 134.056 285.973C134.559 285.807 135.143 285.724 135.807 285.724ZM135.807 286.808C135.25 286.808 134.811 286.891 134.488 287.057C134.166 287.218 134.01 287.438 134.02 287.716C134.015 287.994 134.171 288.214 134.488 288.375C134.811 288.531 135.25 288.609 135.807 288.609C136.354 288.609 136.788 288.531 137.11 288.375C137.433 288.214 137.594 287.994 137.594 287.716C137.594 287.438 137.43 287.218 137.103 287.057C136.781 286.891 136.349 286.808 135.807 286.808ZM152.813 297.442H150.895V288.697H150.836L148.36 290.279V288.536L150.982 286.837H152.813V297.442ZM155.392 296.065L159.142 292.447C159.547 292.042 159.859 291.71 160.079 291.451C160.304 291.188 160.475 290.929 160.592 290.675C160.709 290.416 160.768 290.143 160.768 289.854C160.768 289.532 160.689 289.249 160.533 289.005C160.377 288.761 160.16 288.573 159.881 288.441C159.608 288.309 159.298 288.243 158.951 288.243C158.59 288.243 158.272 288.316 157.999 288.463C157.73 288.604 157.523 288.81 157.376 289.078C157.23 289.342 157.159 289.649 157.164 290.001H155.348C155.343 289.342 155.494 288.763 155.802 288.265C156.109 287.762 156.537 287.374 157.083 287.101C157.635 286.827 158.263 286.69 158.966 286.69C159.679 286.69 160.309 286.822 160.855 287.086C161.407 287.35 161.834 287.716 162.137 288.185C162.445 288.648 162.599 289.176 162.599 289.767C162.599 290.177 162.518 290.572 162.357 290.953C162.201 291.334 161.932 291.756 161.551 292.22C161.17 292.679 160.631 293.238 159.933 293.897L158.043 295.772V295.846H162.76V297.442H155.392V296.065ZM167.74 285.929C168.404 285.929 169.002 286.058 169.535 286.317C170.067 286.571 170.484 286.925 170.787 287.379C171.095 287.833 171.251 288.346 171.256 288.917C171.251 289.493 171.095 290.008 170.787 290.462C170.484 290.917 170.067 291.271 169.535 291.524C169.002 291.778 168.404 291.905 167.74 291.905C167.071 291.905 166.468 291.778 165.931 291.524C165.399 291.271 164.981 290.917 164.679 290.462C164.376 290.008 164.225 289.493 164.225 288.917C164.225 288.346 164.376 287.833 164.679 287.379C164.981 286.925 165.401 286.571 165.938 286.317C166.476 286.058 167.076 285.929 167.74 285.929ZM167.74 287.276C167.369 287.276 167.037 287.345 166.744 287.481C166.451 287.613 166.222 287.804 166.056 288.053C165.89 288.297 165.807 288.585 165.807 288.917C165.807 289.254 165.89 289.549 166.056 289.803C166.222 290.052 166.451 290.245 166.744 290.382C167.037 290.519 167.369 290.587 167.74 290.587C168.111 290.587 168.443 290.519 168.736 290.382C169.029 290.245 169.259 290.052 169.425 289.803C169.591 289.549 169.674 289.254 169.674 288.917C169.674 288.585 169.591 288.297 169.425 288.053C169.259 287.804 169.029 287.613 168.736 287.481C168.443 287.345 168.111 287.276 167.74 287.276ZM175.021 292.198H173.38V285.504H175.021V292.198ZM175.021 296.227H167.857V297.296H175.416V298.585H166.261V295.025H173.395V294.044H166.231V292.77H175.021V296.227Z" fill="#1A1A1A"/>
</g>
<g id="Icon_5">
<path id="Vector_9" d="M347.012 284.114V287.446" stroke="#888882" stroke-width="1.66623" stroke-linecap="round" stroke-linejoin="round"/>
<path id="Vector_10" d="M353.677 284.114V287.446" stroke="#888882" stroke-width="1.66623" stroke-linecap="round" stroke-linejoin="round"/>
<path id="Vector_11" d="M356.176 285.78H344.513C343.593 285.78 342.847 286.526 342.847 287.446V299.11C342.847 300.03 343.593 300.776 344.513 300.776H356.176C357.097 300.776 357.843 300.03 357.843 299.11V287.446C357.843 286.526 357.097 285.78 356.176 285.78Z" stroke="#888882" stroke-width="1.66623" stroke-linecap="round" stroke-linejoin="round"/>
<path id="Vector_12" d="M342.847 290.778H357.843" stroke="#888882" stroke-width="1.66623" stroke-linecap="round" stroke-linejoin="round"/>
</g>
</g>
</g>
<g id="DestinationField">
<g id="Paragraph_5">
<path id="&#236;&#151;&#172;&#237;&#150;&#137;&#236;&#167;&#128;" d="M35.7871 127.754C36.3431 127.754 36.8444 127.903 37.291 128.199C37.7422 128.495 38.1068 128.917 38.3848 129.463H41.2695V126.852H42.7734V139.225H41.2695V134.549H38.4941C38.2253 135.165 37.8561 135.643 37.3867 135.985C36.9173 136.322 36.3841 136.491 35.7871 136.491C35.1673 136.491 34.6182 136.313 34.1396 135.958C33.6611 135.602 33.2874 135.094 33.0186 134.433C32.7497 133.772 32.6152 133 32.6152 132.116C32.6152 131.241 32.7497 130.475 33.0186 129.819C33.2874 129.158 33.6611 128.65 34.1396 128.294C34.6227 127.934 35.1719 127.754 35.7871 127.754ZM35.7871 129.122C35.4453 129.122 35.1445 129.242 34.8848 129.484C34.625 129.721 34.4245 130.065 34.2832 130.516C34.1419 130.963 34.0736 131.496 34.0781 132.116C34.0736 132.74 34.1419 133.278 34.2832 133.729C34.4245 134.18 34.625 134.527 34.8848 134.768C35.1445 135.005 35.4453 135.124 35.7871 135.124C36.1289 135.124 36.4274 135.005 36.6826 134.768C36.9424 134.527 37.1429 134.18 37.2842 133.729C37.43 133.278 37.5052 132.74 37.5098 132.116C37.5052 131.496 37.43 130.96 37.2842 130.509C37.1429 130.058 36.9424 129.714 36.6826 129.477C36.4274 129.24 36.1289 129.122 35.7871 129.122ZM38.8086 130.708C38.8997 131.15 38.9453 131.619 38.9453 132.116C38.9453 132.526 38.9134 132.927 38.8496 133.319H41.2695V130.708H38.8086ZM55.0781 134.618H53.6289V131.254H52.4258V134.208H51.0039V127.098H52.4258V130.024H53.6289V126.852H55.0781V134.618ZM50.5938 129.381H44.4414V128.192H46.7793V126.961H48.2832V128.192H50.5938V129.381ZM47.5312 129.887C48.0508 129.887 48.5133 129.976 48.9189 130.154C49.3245 130.332 49.6413 130.582 49.8691 130.906C50.1016 131.225 50.2201 131.596 50.2246 132.02C50.2201 132.444 50.1016 132.818 49.8691 133.141C49.6413 133.46 49.3245 133.708 48.9189 133.886C48.5133 134.064 48.0508 134.153 47.5312 134.153C47.0208 134.153 46.5628 134.064 46.1572 133.886C45.7516 133.708 45.4349 133.458 45.207 133.134C44.9837 132.811 44.8743 132.439 44.8789 132.02C44.8743 131.601 44.9837 131.229 45.207 130.906C45.4349 130.582 45.7516 130.332 46.1572 130.154C46.5628 129.976 47.0208 129.887 47.5312 129.887ZM47.5312 130.981C47.1439 130.981 46.8294 131.074 46.5879 131.261C46.3509 131.448 46.2324 131.701 46.2324 132.02C46.2324 132.339 46.3509 132.592 46.5879 132.779C46.8249 132.966 47.1393 133.059 47.5312 133.059C47.9232 133.059 48.2399 132.966 48.4814 132.779C48.723 132.592 48.8438 132.339 48.8438 132.02C48.8438 131.701 48.723 131.448 48.4814 131.261C48.2399 131.074 47.9232 130.981 47.5312 130.981ZM50.9082 134.768C51.7878 134.768 52.5443 134.855 53.1777 135.028C53.8112 135.201 54.2965 135.456 54.6338 135.793C54.971 136.126 55.1419 136.527 55.1465 136.997C55.1419 137.457 54.9688 137.851 54.627 138.179C54.2897 138.512 53.8044 138.765 53.1709 138.938C52.5374 139.111 51.7832 139.198 50.9082 139.198C50.0332 139.198 49.2767 139.111 48.6387 138.938C48.0052 138.765 47.5176 138.512 47.1758 138.179C46.8385 137.851 46.6699 137.457 46.6699 136.997C46.6699 136.527 46.8385 136.126 47.1758 135.793C47.5176 135.456 48.0052 135.201 48.6387 135.028C49.2721 134.855 50.0286 134.768 50.9082 134.768ZM50.9082 135.93C50.0195 135.921 49.3428 136.008 48.8779 136.19C48.4176 136.368 48.1875 136.637 48.1875 136.997C48.1875 137.338 48.4199 137.598 48.8848 137.776C49.3496 137.949 50.0241 138.036 50.9082 138.036C51.7878 138.036 52.4577 137.949 52.918 137.776C53.3828 137.598 53.6152 137.338 53.6152 136.997C53.6152 136.637 53.3828 136.368 52.918 136.19C52.4577 136.008 51.7878 135.921 50.9082 135.93ZM61.2715 130.366C61.2715 131.045 61.3991 131.717 61.6543 132.382C61.9141 133.043 62.2832 133.638 62.7617 134.167C63.2448 134.691 63.8099 135.087 64.457 135.356L63.623 136.559C62.9076 136.254 62.2855 135.796 61.7568 135.185C61.2282 134.574 60.818 133.866 60.5264 133.059C60.2347 133.925 59.8223 134.693 59.2891 135.363C58.7604 136.028 58.1406 136.527 57.4297 136.86L56.5547 135.67C57.1882 135.379 57.7441 134.95 58.2227 134.385C58.7057 133.82 59.0771 133.187 59.3369 132.485C59.5967 131.778 59.7266 131.072 59.7266 130.366V129.327H57.0059V128.069H63.9785V129.327H61.2715V130.366ZM66.8906 139.211H65.3594V126.852H66.8906V139.211Z" fill="#4A4A4A"/>
</g>
<g id="Container_9" filter="url(#filter3_dd_111_2612)">
<path d="M32 169.992C32 161.155 39.1634 153.992 48 153.992H361.342C370.178 153.992 377.342 161.155 377.342 169.992V192.965C377.342 201.802 370.178 208.965 361.342 208.965H48C39.1635 208.965 32 201.802 32 192.965V169.992Z" fill="#FAFAF7"/>
<path d="M48 154.492H361.342C369.902 154.492 376.842 161.431 376.842 169.992V192.965C376.842 201.526 369.902 208.465 361.342 208.465H48C39.4396 208.465 32.5 201.526 32.5 192.965V169.992C32.5 161.431 39.4396 154.492 48 154.492Z" stroke="#E2DDD5"/>
<g id="Text Input">
<path id="&#236;&#151;&#172;&#237;&#150;&#137;&#236;&#167;&#128;&#235;&#165;&#188; &#236;&#158;&#133;&#235;&#160;&#165;&#237;&#149;&#152;&#236;&#132;&#184;&#236;&#154;&#148;" d="M55.5488 175.507C56.75 175.507 57.7388 176.174 58.332 177.338H61.4229V174.54H63.0342V187.797H61.4229V182.787H58.4492C57.8779 184.106 56.8306 184.867 55.5488 184.867C53.5566 184.867 52.1504 183.066 52.1504 180.18C52.1504 177.323 53.5566 175.507 55.5488 175.507ZM55.5488 176.972C54.4502 176.972 53.7031 178.158 53.7178 180.18C53.7031 182.216 54.4502 183.403 55.5488 183.403C56.6475 183.403 57.3799 182.216 57.3945 180.18C57.3799 178.158 56.6475 176.972 55.5488 176.972ZM58.7861 178.671C58.8813 179.133 58.9326 179.638 58.9326 180.18C58.9326 180.641 58.896 181.066 58.8301 181.469H61.4229V178.671H58.7861ZM76.2178 174.54V182.861H74.665V179.257H73.376V182.421H71.8525V174.804H73.376V177.939H74.665V174.54H76.2178ZM71.4131 175.976V177.25H64.8213V175.976H67.3262V174.657H68.9375V175.976H71.4131ZM68.1318 177.792C69.8164 177.792 71.0029 178.7 71.0176 180.077C71.0029 181.454 69.8164 182.363 68.1318 182.363C66.4766 182.363 65.2754 181.454 65.29 180.077C65.2754 178.7 66.4766 177.792 68.1318 177.792ZM68.1318 178.964C67.3115 178.964 66.7402 179.389 66.7402 180.077C66.7402 180.766 67.2969 181.191 68.1318 181.191C68.9668 181.191 69.5381 180.766 69.5381 180.077C69.5381 179.389 68.9668 178.964 68.1318 178.964ZM71.75 183.022C74.5771 183.022 76.2764 183.886 76.291 185.409C76.2764 186.904 74.5771 187.768 71.75 187.768C68.9229 187.768 67.209 186.904 67.209 185.409C67.209 183.886 68.9229 183.022 71.75 183.022ZM71.75 184.267C69.8604 184.252 68.835 184.633 68.835 185.409C68.835 186.142 69.8604 186.523 71.75 186.523C73.625 186.523 74.6504 186.142 74.6504 185.409C74.6504 184.633 73.625 184.252 71.75 184.267ZM82.8535 178.305C82.8535 180.473 84.1279 182.758 86.2666 183.652L85.373 184.941C83.8057 184.267 82.6631 182.875 82.0625 181.191C81.4473 183.007 80.29 184.531 78.7373 185.263L77.7998 183.989C79.8945 183.022 81.1982 180.561 81.1982 178.305V177.192H78.2832V175.844H85.7539V177.192H82.8535V178.305ZM88.874 174.54V187.782H87.2334V174.54H88.874ZM102.907 180.546V181.777H90.8076V180.546H102.907ZM101.442 182.568V185.585H93.8545V186.508H101.838V187.636H92.2285V184.531H99.8311V183.71H92.2139V182.568H101.442ZM101.413 174.833V177.822H93.957V178.686H101.647V179.799H92.3457V176.767H99.7871V175.961H92.3018V174.833H101.413ZM118.376 174.54V181.645H116.735V174.54H118.376ZM111.228 182.26V183.622H116.75V182.26H118.376V187.621H109.616V182.26H111.228ZM111.228 186.303H116.75V184.897H111.228V186.303ZM111.154 175.126C113.19 175.112 114.714 176.386 114.714 178.232C114.714 180.033 113.19 181.308 111.154 181.308C109.104 181.308 107.58 180.033 107.58 178.232C107.58 176.386 109.104 175.112 111.154 175.126ZM111.154 176.489C109.997 176.489 109.162 177.162 109.177 178.232C109.162 179.286 109.997 179.96 111.154 179.975C112.297 179.96 113.117 179.286 113.117 178.232C113.117 177.162 112.297 176.489 111.154 176.489ZM126.638 175.331V179.316H122.463V180.942C124.587 180.949 125.81 180.883 127.209 180.619L127.37 181.938C125.788 182.201 124.411 182.245 121.818 182.245H120.852V178.1H125.012V176.62H120.822V175.331H126.638ZM131.398 174.555V182.699H129.772V180.517H127.429V179.213H129.772V177.734H127.429V176.43H129.772V174.555H131.398ZM131.398 183.329V187.782H129.772V184.633H122.346V183.329H131.398ZM143.645 174.54V179.814H145.681V181.161H143.645V187.782H142.033V174.54H143.645ZM141.008 176.576V177.88H133.2V176.576H136.335V174.731H137.961V176.576H141.008ZM137.155 178.744C139.06 178.744 140.48 180.033 140.48 181.865C140.48 183.696 139.06 184.97 137.155 184.97C135.222 184.97 133.801 183.696 133.815 181.865C133.801 180.033 135.222 178.744 137.155 178.744ZM137.155 180.077C136.115 180.077 135.368 180.781 135.368 181.865C135.368 182.948 136.115 183.637 137.155 183.622C138.166 183.637 138.913 182.948 138.928 181.865C138.913 180.781 138.166 180.077 137.155 180.077ZM150.368 178.012C150.368 180.151 151.115 182.377 152.902 183.505L152.009 184.75C150.815 184.032 150.039 182.795 149.606 181.337C149.123 182.941 148.273 184.296 147.028 185.058L146.018 183.842C147.937 182.67 148.801 180.341 148.801 178.085V175.712H150.368V178.012ZM157.663 174.54V187.782H156.096V174.54H157.663ZM154.909 174.775V187.138H153.371V180.444H151.481V179.096H153.371V174.775H154.909ZM171.301 184.838V186.171H159.201V184.838H161.999V181.484C160.944 180.883 160.307 179.938 160.314 178.759C160.3 176.65 162.38 175.258 165.222 175.258C168.078 175.258 170.158 176.65 170.158 178.759C170.158 179.916 169.543 180.846 168.518 181.454V184.838H171.301ZM165.222 176.547C163.244 176.547 161.896 177.382 161.911 178.759C161.896 180.121 163.244 180.971 165.222 180.971C167.199 180.971 168.562 180.121 168.562 178.759C168.562 177.382 167.199 176.547 165.222 176.547ZM163.61 184.838H166.862V182.07C166.357 182.187 165.808 182.245 165.222 182.245C164.65 182.245 164.108 182.187 163.61 182.084V184.838Z" fill="#888882"/>
</g>
<g id="Icon_6">
<path id="Vector_13" d="M347.02 187.31C350.701 187.31 353.685 184.326 353.685 180.645C353.685 176.964 350.701 173.98 347.02 173.98C343.339 173.98 340.355 176.964 340.355 180.645C340.355 184.326 343.339 187.31 347.02 187.31Z" stroke="#888882" stroke-width="1.66623" stroke-linecap="round" stroke-linejoin="round"/>
<path id="Vector_14" d="M355.351 188.977L351.769 185.394" stroke="#888882" stroke-width="1.66623" stroke-linecap="round" stroke-linejoin="round"/>
</g>
</g>
</g>
</g>
</g>
<g id="Container_10">
<g id="Icon_7" clip-path="url(#clip0_111_2612)">
<path id="Vector_15" d="M163.669 25.9944H245.669" stroke="#888882" stroke-width="7.99775" stroke-linecap="round"/>
</g>
</g>
</g>
<defs>
<filter id="filter0_dd_111_2612" x="0.00146484" y="422.971" width="409.345" height="276.995" filterUnits="userSpaceOnUse" color-interpolation-filters="sRGB">
<feFlood flood-opacity="0" result="BackgroundImageFix"/>
<feColorMatrix in="SourceAlpha" type="matrix" values="0 0 0 0 0 0 0 0 0 0 0 0 0 0 0 0 0 0 127 0" result="hardAlpha"/>
<feOffset dy="8"/>
<feGaussianBlur stdDeviation="16"/>
<feColorMatrix type="matrix" values="0 0 0 0 0.118 0 0 0 0 0.157 0 0 0 0 0.133 0 0 0 0.16 0"/>
<feBlend mode="normal" in2="BackgroundImageFix" result="effect1_dropShadow_111_2612"/>
<feColorMatrix in="SourceAlpha" type="matrix" values="0 0 0 0 0 0 0 0 0 0 0 0 0 0 0 0 0 0 127 0" result="hardAlpha"/>
<feOffset dy="2"/>
<feGaussianBlur stdDeviation="4"/>
<feColorMatrix type="matrix" values="0 0 0 0 0.118 0 0 0 0 0.157 0 0 0 0 0.133 0 0 0 0.08 0"/>
<feBlend mode="normal" in2="effect1_dropShadow_111_2612" result="effect2_dropShadow_111_2612"/>
<feBlend mode="normal" in="SourceGraphic" in2="effect2_dropShadow_111_2612" result="shape"/>
</filter>
<filter id="filter1_dd_111_2612" x="0.00146484" y="351.997" width="409.342" height="118.974" filterUnits="userSpaceOnUse" color-interpolation-filters="sRGB">
<feFlood flood-opacity="0" result="BackgroundImageFix"/>
<feColorMatrix in="SourceAlpha" type="matrix" values="0 0 0 0 0 0 0 0 0 0 0 0 0 0 0 0 0 0 127 0" result="hardAlpha"/>
<feOffset dy="8"/>
<feGaussianBlur stdDeviation="16"/>
<feColorMatrix type="matrix" values="0 0 0 0 0.118 0 0 0 0 0.157 0 0 0 0 0.133 0 0 0 0.16 0"/>
<feBlend mode="normal" in2="BackgroundImageFix" result="effect1_dropShadow_111_2612"/>
<feColorMatrix in="SourceAlpha" type="matrix" values="0 0 0 0 0 0 0 0 0 0 0 0 0 0 0 0 0 0 127 0" result="hardAlpha"/>
<feOffset dy="2"/>
<feGaussianBlur stdDeviation="4"/>
<feColorMatrix type="matrix" values="0 0 0 0 0.118 0 0 0 0 0.157 0 0 0 0 0.133 0 0 0 0.08 0"/>
<feBlend mode="normal" in2="effect1_dropShadow_111_2612" result="effect2_dropShadow_111_2612"/>
<feBlend mode="normal" in="SourceGraphic" in2="effect2_dropShadow_111_2612" result="shape"/>
</filter>
<filter id="filter2_dd_111_2612" x="0" y="240.958" width="409.342" height="118.974" filterUnits="userSpaceOnUse" color-interpolation-filters="sRGB">
<feFlood flood-opacity="0" result="BackgroundImageFix"/>
<feColorMatrix in="SourceAlpha" type="matrix" values="0 0 0 0 0 0 0 0 0 0 0 0 0 0 0 0 0 0 127 0" result="hardAlpha"/>
<feOffset dy="8"/>
<feGaussianBlur stdDeviation="16"/>
<feColorMatrix type="matrix" values="0 0 0 0 0.118 0 0 0 0 0.157 0 0 0 0 0.133 0 0 0 0.16 0"/>
<feBlend mode="normal" in2="BackgroundImageFix" result="effect1_dropShadow_111_2612"/>
<feColorMatrix in="SourceAlpha" type="matrix" values="0 0 0 0 0 0 0 0 0 0 0 0 0 0 0 0 0 0 127 0" result="hardAlpha"/>
<feOffset dy="2"/>
<feGaussianBlur stdDeviation="4"/>
<feColorMatrix type="matrix" values="0 0 0 0 0.118 0 0 0 0 0.157 0 0 0 0 0.133 0 0 0 0.08 0"/>
<feBlend mode="normal" in2="effect1_dropShadow_111_2612" result="effect2_dropShadow_111_2612"/>
<feBlend mode="normal" in="SourceGraphic" in2="effect2_dropShadow_111_2612" result="shape"/>
</filter>
<filter id="filter3_dd_111_2612" x="0" y="129.992" width="409.342" height="118.974" filterUnits="userSpaceOnUse" color-interpolation-filters="sRGB">
<feFlood flood-opacity="0" result="BackgroundImageFix"/>
<feColorMatrix in="SourceAlpha" type="matrix" values="0 0 0 0 0 0 0 0 0 0 0 0 0 0 0 0 0 0 127 0" result="hardAlpha"/>
<feOffset dy="8"/>
<feGaussianBlur stdDeviation="16"/>
<feColorMatrix type="matrix" values="0 0 0 0 0.118 0 0 0 0 0.157 0 0 0 0 0.133 0 0 0 0.16 0"/>
<feBlend mode="normal" in2="BackgroundImageFix" result="effect1_dropShadow_111_2612"/>
<feColorMatrix in="SourceAlpha" type="matrix" values="0 0 0 0 0 0 0 0 0 0 0 0 0 0 0 0 0 0 127 0" result="hardAlpha"/>
<feOffset dy="2"/>
<feGaussianBlur stdDeviation="4"/>
<feColorMatrix type="matrix" values="0 0 0 0 0.118 0 0 0 0 0.157 0 0 0 0 0.133 0 0 0 0.08 0"/>
<feBlend mode="normal" in2="effect1_dropShadow_111_2612" result="effect2_dropShadow_111_2612"/>
<feBlend mode="normal" in="SourceGraphic" in2="effect2_dropShadow_111_2612" result="shape"/>
</filter>
<clipPath id="clip0_111_2612">
<rect width="89.9996" height="7.99554" fill="white" transform="translate(159.669 21.9966)"/>
</clipPath>
</defs>
</svg>
