<svg width="410" height="662" viewBox="0 0 410 662" fill="none" xmlns="http://www.w3.org/2000/svg">
<g id="Property 1=filled">
<path d="M8 16C8 7.16346 15.1634 0 24 0H385C393.837 0 401 7.16344 401 16V662H8V16Z" fill="#F5F3EE"/>
<g id="Frame 64">
<g id="Heading 2">
<path id="&#236;&#151;&#172;&#237;&#150;&#137; &#236;&#160;&#149;&#235;&#179;&#180;&#235;&#165;&#188; &#236;&#158;&#133;&#235;&#160;&#165;&#237;&#149;&#180;&#236;&#163;&#188;&#236;&#132;&#184;&#236;&#154;&#148;" d="M38.1553 73.9099C39.917 73.9099 41.3672 74.8875 42.2373 76.5955H46.7705V72.4919H49.1338V91.9353H46.7705V84.5876H42.4092C41.5713 86.5212 40.0352 87.6384 38.1553 87.6384C35.2334 87.6384 33.1709 84.9958 33.1709 80.7634C33.1709 76.574 35.2334 73.9099 38.1553 73.9099ZM38.1553 76.0583C36.5439 76.0583 35.4482 77.7986 35.4697 80.7634C35.4482 83.7498 36.5439 85.49 38.1553 85.49C39.7666 85.49 40.8408 83.7498 40.8623 80.7634C40.8408 77.7986 39.7666 76.0583 38.1553 76.0583ZM42.9033 78.5505C43.043 79.2273 43.1182 79.9685 43.1182 80.7634C43.1182 81.4402 43.0645 82.0632 42.9678 82.6541H46.7705V78.5505H42.9033ZM68.4697 72.4919V84.6951H66.1924V79.4099H64.3018V84.0505H62.0674V72.8787H64.3018V77.4763H66.1924V72.4919H68.4697ZM61.4229 74.5974V76.4666H51.7549V74.5974H55.4287V72.6638H57.792V74.5974H61.4229ZM56.6104 77.2615C59.0811 77.2615 60.8213 78.5935 60.8428 80.613C60.8213 82.6326 59.0811 83.9646 56.6104 83.9646C54.1826 83.9646 52.4209 82.6326 52.4424 80.613C52.4209 78.5935 54.1826 77.2615 56.6104 77.2615ZM56.6104 78.9802C55.4072 78.9802 54.5693 79.6033 54.5693 80.613C54.5693 81.6228 55.3857 82.2458 56.6104 82.2458C57.835 82.2458 58.6729 81.6228 58.6729 80.613C58.6729 79.6033 57.835 78.9802 56.6104 78.9802ZM61.917 84.9314C66.0635 84.9314 68.5557 86.199 68.5771 88.4333C68.5557 90.6248 66.0635 91.8923 61.917 91.8923C57.7705 91.8923 55.2568 90.6248 55.2568 88.4333C55.2568 86.199 57.7705 84.9314 61.917 84.9314ZM61.917 86.7576C59.1455 86.7361 57.6416 87.2947 57.6416 88.4333C57.6416 89.5076 59.1455 90.0662 61.917 90.0662C64.667 90.0662 66.1709 89.5076 66.1709 88.4333C66.1709 87.2947 64.667 86.7361 61.917 86.7576ZM92.3604 72.4919V84.0291H89.9756V79.281H86.667V77.3259H89.9756V72.4919H92.3604ZM85.7861 84.5232C89.9111 84.5232 92.4248 85.8767 92.4248 88.2185C92.4248 90.5603 89.9111 91.9138 85.7861 91.9138C81.6826 91.9138 79.1689 90.5603 79.1904 88.2185C79.1689 85.8767 81.6826 84.5232 85.7861 84.5232ZM85.7861 86.3494C83.0791 86.3494 81.5537 86.9939 81.5537 88.2185C81.5537 89.4216 83.0791 90.0662 85.7861 90.0662C88.4932 90.0662 90.04 89.4216 90.04 88.2185C90.04 86.9939 88.4932 86.3494 85.7861 86.3494ZM83.2295 75.822C83.2295 78.1853 84.7979 80.5701 87.8057 81.5798L86.6025 83.4705C84.4434 82.74 82.9072 81.2576 82.0693 79.4314C81.21 81.5046 79.5879 83.1589 77.2783 83.9861L76.0322 82.0955C79.1475 81.0212 80.8018 78.4001 80.8018 75.8435V75.6931H76.7627V73.7595H87.2471V75.6931H83.2295V75.822ZM112.856 87.6169V89.572H95.1104V87.6169H102.759V83.8357H97.0654V73.781H99.4502V76.9607H108.452V73.781H110.837V83.8357H105.122V87.6169H112.856ZM99.4502 81.9021H108.452V78.8728H99.4502V81.9021ZM131.849 81.3005V83.1052H114.103V81.3005H131.849ZM129.7 84.2654V88.6912H118.571V90.0447H130.28V91.699H116.187V87.1443H127.337V85.9412H116.165V84.2654H129.7ZM129.657 72.9216V77.3044H118.722V78.572H130.001V80.2048H116.358V75.7576H127.272V74.5759H116.294V72.9216H129.657ZM154.536 72.4919V82.9119H152.13V72.4919H154.536ZM144.052 83.8142V85.8123H152.151V83.8142H154.536V91.6775H141.688V83.8142H144.052ZM144.052 89.7439H152.151V87.6814H144.052V89.7439ZM143.944 73.3513C146.931 73.3298 149.165 75.199 149.165 77.906C149.165 80.5486 146.931 82.4177 143.944 82.4177C140.937 82.4177 138.702 80.5486 138.702 77.906C138.702 75.199 140.937 73.3298 143.944 73.3513ZM143.944 75.3494C142.247 75.3494 141.022 76.3376 141.044 77.906C141.022 79.4529 142.247 80.4412 143.944 80.4626C145.62 80.4412 146.823 79.4529 146.823 77.906C146.823 76.3376 145.62 75.3494 143.944 75.3494ZM166.653 73.6521V79.4958H160.53V81.8806C163.646 81.8914 165.439 81.7947 167.491 81.408L167.728 83.3416C165.407 83.7283 163.388 83.7927 159.585 83.7927H158.167V77.7126H164.269V75.5427H158.124V73.6521H166.653ZM173.636 72.5134V84.4587H171.251V81.2576H167.813V79.3455H171.251V77.1755H167.813V75.2634H171.251V72.5134H173.636ZM173.636 85.3826V91.9138H171.251V87.2947H160.358V85.3826H173.636ZM185.86 75.5857V77.4978H176.343V75.5857H179.952V73.0505H182.315V75.5857H185.86ZM181.134 78.5291C183.604 78.5291 185.366 80.3982 185.366 83.0408C185.366 85.7263 183.604 87.6169 181.134 87.6169C178.685 87.6169 176.88 85.7263 176.901 83.0408C176.88 80.3982 178.685 78.5291 181.134 78.5291ZM181.134 80.5056C179.866 80.5056 178.985 81.5154 179.007 83.0408C178.985 84.6091 179.866 85.5974 181.134 85.5759C182.38 85.5974 183.261 84.6091 183.261 83.0408C183.261 81.5154 182.38 80.5056 181.134 80.5056ZM193.079 72.4919V91.9138H190.802V82.4177H188.911V91.033H186.677V72.9001H188.911V80.4841H190.802V72.4919H193.079ZM213.103 83.3201V85.2537H205.39V91.8923H203.026V85.2537H195.399V83.3201H213.103ZM211.47 73.5876V75.4783H205.647C205.787 77.6052 208.344 79.6462 212.179 80.1404L211.319 82.0095C208.011 81.5476 205.433 80.033 204.251 77.9275C203.069 80.033 200.491 81.5476 197.226 82.0095L196.323 80.1404C200.137 79.6462 202.693 77.6052 202.876 75.4783H197.032V73.5876H211.47ZM220.472 77.5837C220.472 80.7205 221.567 83.9861 224.188 85.6404L222.878 87.4666C221.127 86.4138 219.988 84.5984 219.354 82.4607C218.646 84.8132 217.399 86.8005 215.573 87.9177L214.091 86.1345C216.905 84.4158 218.173 80.9998 218.173 77.6912V74.2107H220.472V77.5837ZM231.171 72.4919V91.9138H228.872V72.4919H231.171ZM227.132 72.8357V90.9685H224.876V81.1501H222.104V79.1736H224.876V72.8357H227.132ZM251.173 87.5955V89.5505H233.427V87.5955H237.53V82.6755C235.983 81.7947 235.049 80.4089 235.06 78.6794C235.038 75.5857 238.089 73.5447 242.257 73.5447C246.446 73.5447 249.497 75.5857 249.497 78.6794C249.497 80.3767 248.595 81.741 247.091 82.6326V87.5955H251.173ZM242.257 75.4353C239.356 75.4353 237.38 76.6599 237.401 78.6794C237.38 80.6775 239.356 81.9236 242.257 81.9236C245.157 81.9236 247.155 80.6775 247.155 78.6794C247.155 76.6599 245.157 75.4353 242.257 75.4353ZM239.894 87.5955H244.663V83.5349C243.922 83.7068 243.116 83.7927 242.257 83.7927C241.419 83.7927 240.624 83.7068 239.894 83.5564V87.5955Z" fill="#1A1A1A"/>
</g>
<g id="Container">
<g id="DestinationField">
<g id="Paragraph">
<path id="&#236;&#151;&#172;&#237;&#150;&#137;&#236;&#167;&#128;" d="M35.7871 127.754C36.3431 127.754 36.8444 127.903 37.291 128.199C37.7422 128.495 38.1068 128.917 38.3848 129.463H41.2695V126.852H42.7734V139.225H41.2695V134.549H38.4941C38.2253 135.165 37.8561 135.643 37.3867 135.985C36.9173 136.322 36.3841 136.491 35.7871 136.491C35.1673 136.491 34.6182 136.313 34.1396 135.958C33.6611 135.602 33.2874 135.094 33.0186 134.433C32.7497 133.772 32.6152 133 32.6152 132.116C32.6152 131.241 32.7497 130.475 33.0186 129.819C33.2874 129.158 33.6611 128.65 34.1396 128.294C34.6227 127.934 35.1719 127.754 35.7871 127.754ZM35.7871 129.122C35.4453 129.122 35.1445 129.242 34.8848 129.484C34.625 129.721 34.4245 130.065 34.2832 130.516C34.1419 130.963 34.0736 131.496 34.0781 132.116C34.0736 132.74 34.1419 133.278 34.2832 133.729C34.4245 134.18 34.625 134.527 34.8848 134.768C35.1445 135.005 35.4453 135.124 35.7871 135.124C36.1289 135.124 36.4274 135.005 36.6826 134.768C36.9424 134.527 37.1429 134.18 37.2842 133.729C37.43 133.278 37.5052 132.74 37.5098 132.116C37.5052 131.496 37.43 130.96 37.2842 130.509C37.1429 130.058 36.9424 129.714 36.6826 129.477C36.4274 129.24 36.1289 129.122 35.7871 129.122ZM38.8086 130.708C38.8997 131.15 38.9453 131.619 38.9453 132.116C38.9453 132.526 38.9134 132.927 38.8496 133.319H41.2695V130.708H38.8086ZM55.0781 134.618H53.6289V131.254H52.4258V134.208H51.0039V127.098H52.4258V130.024H53.6289V126.852H55.0781V134.618ZM50.5938 129.381H44.4414V128.192H46.7793V126.961H48.2832V128.192H50.5938V129.381ZM47.5312 129.887C48.0508 129.887 48.5133 129.976 48.9189 130.154C49.3245 130.332 49.6413 130.582 49.8691 130.906C50.1016 131.225 50.2201 131.596 50.2246 132.02C50.2201 132.444 50.1016 132.818 49.8691 133.141C49.6413 133.46 49.3245 133.708 48.9189 133.886C48.5133 134.064 48.0508 134.153 47.5312 134.153C47.0208 134.153 46.5628 134.064 46.1572 133.886C45.7516 133.708 45.4349 133.458 45.207 133.134C44.9837 132.811 44.8743 132.439 44.8789 132.02C44.8743 131.601 44.9837 131.229 45.207 130.906C45.4349 130.582 45.7516 130.332 46.1572 130.154C46.5628 129.976 47.0208 129.887 47.5312 129.887ZM47.5312 130.981C47.1439 130.981 46.8294 131.074 46.5879 131.261C46.3509 131.448 46.2324 131.701 46.2324 132.02C46.2324 132.339 46.3509 132.592 46.5879 132.779C46.8249 132.966 47.1393 133.059 47.5312 133.059C47.9232 133.059 48.2399 132.966 48.4814 132.779C48.723 132.592 48.8438 132.339 48.8438 132.02C48.8438 131.701 48.723 131.448 48.4814 131.261C48.2399 131.074 47.9232 130.981 47.5312 130.981ZM50.9082 134.768C51.7878 134.768 52.5443 134.855 53.1777 135.028C53.8112 135.201 54.2965 135.456 54.6338 135.793C54.971 136.126 55.1419 136.527 55.1465 136.997C55.1419 137.457 54.9688 137.851 54.627 138.179C54.2897 138.512 53.8044 138.765 53.1709 138.938C52.5374 139.111 51.7832 139.198 50.9082 139.198C50.0332 139.198 49.2767 139.111 48.6387 138.938C48.0052 138.765 47.5176 138.512 47.1758 138.179C46.8385 137.851 46.6699 137.457 46.6699 136.997C46.6699 136.527 46.8385 136.126 47.1758 135.793C47.5176 135.456 48.0052 135.201 48.6387 135.028C49.2721 134.855 50.0286 134.768 50.9082 134.768ZM50.9082 135.93C50.0195 135.921 49.3428 136.008 48.8779 136.19C48.4176 136.368 48.1875 136.637 48.1875 136.997C48.1875 137.338 48.4199 137.598 48.8848 137.776C49.3496 137.949 50.0241 138.036 50.9082 138.036C51.7878 138.036 52.4577 137.949 52.918 137.776C53.3828 137.598 53.6152 137.338 53.6152 136.997C53.6152 136.637 53.3828 136.368 52.918 136.19C52.4577 136.008 51.7878 135.921 50.9082 135.93ZM61.2715 130.366C61.2715 131.045 61.3991 131.717 61.6543 132.382C61.9141 133.043 62.2832 133.638 62.7617 134.167C63.2448 134.691 63.8099 135.087 64.457 135.356L63.623 136.559C62.9076 136.254 62.2855 135.796 61.7568 135.185C61.2282 134.574 60.818 133.866 60.5264 133.059C60.2347 133.925 59.8223 134.693 59.2891 135.363C58.7604 136.028 58.1406 136.527 57.4297 136.86L56.5547 135.67C57.1882 135.379 57.7441 134.95 58.2227 134.385C58.7057 133.82 59.0771 133.187 59.3369 132.485C59.5967 131.778 59.7266 131.072 59.7266 130.366V129.327H57.0059V128.069H63.9785V129.327H61.2715V130.366ZM66.8906 139.211H65.3594V126.852H66.8906V139.211Z" fill="#4A4A4A"/>
</g>
<g id="Container_2" filter="url(#filter0_dd_156_4820)">
<path d="M32 169.992C32 161.155 39.1634 153.992 48 153.992H361.342C370.178 153.992 377.342 161.155 377.342 169.992V192.965C377.342 201.802 370.178 208.965 361.342 208.965H48C39.1635 208.965 32 201.802 32 192.965V169.992Z" fill="#FAFAF7"/>
<path d="M48 154.492H361.342C369.902 154.492 376.842 161.431 376.842 169.992V192.965C376.842 201.526 369.902 208.465 361.342 208.465H48C39.4396 208.465 32.5 201.526 32.5 192.965V169.992C32.5 161.431 39.4396 154.492 48 154.492Z" stroke="#E2DDD5"/>
<g id="Text Input">
<path id="&#236;&#151;&#172;&#237;&#150;&#137;&#236;&#167;&#128;&#235;&#165;&#188; &#236;&#158;&#133;&#235;&#160;&#165;&#237;&#149;&#152;&#236;&#132;&#184;&#236;&#154;&#148;" d="M55.5488 175.507C56.75 175.507 57.7388 176.174 58.332 177.338H61.4229V174.54H63.0342V187.797H61.4229V182.787H58.4492C57.8779 184.106 56.8306 184.867 55.5488 184.867C53.5566 184.867 52.1504 183.066 52.1504 180.18C52.1504 177.323 53.5566 175.507 55.5488 175.507ZM55.5488 176.972C54.4502 176.972 53.7031 178.158 53.7178 180.18C53.7031 182.216 54.4502 183.403 55.5488 183.403C56.6475 183.403 57.3799 182.216 57.3945 180.18C57.3799 178.158 56.6475 176.972 55.5488 176.972ZM58.7861 178.671C58.8813 179.133 58.9326 179.638 58.9326 180.18C58.9326 180.641 58.896 181.066 58.8301 181.469H61.4229V178.671H58.7861ZM76.2178 174.54V182.861H74.665V179.257H73.376V182.421H71.8525V174.804H73.376V177.939H74.665V174.54H76.2178ZM71.4131 175.976V177.25H64.8213V175.976H67.3262V174.657H68.9375V175.976H71.4131ZM68.1318 177.792C69.8164 177.792 71.0029 178.7 71.0176 180.077C71.0029 181.454 69.8164 182.363 68.1318 182.363C66.4766 182.363 65.2754 181.454 65.29 180.077C65.2754 178.7 66.4766 177.792 68.1318 177.792ZM68.1318 178.964C67.3115 178.964 66.7402 179.389 66.7402 180.077C66.7402 180.766 67.2969 181.191 68.1318 181.191C68.9668 181.191 69.5381 180.766 69.5381 180.077C69.5381 179.389 68.9668 178.964 68.1318 178.964ZM71.75 183.022C74.5771 183.022 76.2764 183.886 76.291 185.409C76.2764 186.904 74.5771 187.768 71.75 187.768C68.9229 187.768 67.209 186.904 67.209 185.409C67.209 183.886 68.9229 183.022 71.75 183.022ZM71.75 184.267C69.8604 184.252 68.835 184.633 68.835 185.409C68.835 186.142 69.8604 186.523 71.75 186.523C73.625 186.523 74.6504 186.142 74.6504 185.409C74.6504 184.633 73.625 184.252 71.75 184.267ZM82.8535 178.305C82.8535 180.473 84.1279 182.758 86.2666 183.652L85.373 184.941C83.8057 184.267 82.6631 182.875 82.0625 181.191C81.4473 183.007 80.29 184.531 78.7373 185.263L77.7998 183.989C79.8945 183.022 81.1982 180.561 81.1982 178.305V177.192H78.2832V175.844H85.7539V177.192H82.8535V178.305ZM88.874 174.54V187.782H87.2334V174.54H88.874ZM102.907 180.546V181.777H90.8076V180.546H102.907ZM101.442 182.568V185.585H93.8545V186.508H101.838V187.636H92.2285V184.531H99.8311V183.71H92.2139V182.568H101.442ZM101.413 174.833V177.822H93.957V178.686H101.647V179.799H92.3457V176.767H99.7871V175.961H92.3018V174.833H101.413ZM118.376 174.54V181.645H116.735V174.54H118.376ZM111.228 182.26V183.622H116.75V182.26H118.376V187.621H109.616V182.26H111.228ZM111.228 186.303H116.75V184.897H111.228V186.303ZM111.154 175.126C113.19 175.112 114.714 176.386 114.714 178.232C114.714 180.033 113.19 181.308 111.154 181.308C109.104 181.308 107.58 180.033 107.58 178.232C107.58 176.386 109.104 175.112 111.154 175.126ZM111.154 176.489C109.997 176.489 109.162 177.162 109.177 178.232C109.162 179.286 109.997 179.96 111.154 179.975C112.297 179.96 113.117 179.286 113.117 178.232C113.117 177.162 112.297 176.489 111.154 176.489ZM126.638 175.331V179.316H122.463V180.942C124.587 180.949 125.81 180.883 127.209 180.619L127.37 181.938C125.788 182.201 124.411 182.245 121.818 182.245H120.852V178.1H125.012V176.62H120.822V175.331H126.638ZM131.398 174.555V182.699H129.772V180.517H127.429V179.213H129.772V177.734H127.429V176.43H129.772V174.555H131.398ZM131.398 183.329V187.782H129.772V184.633H122.346V183.329H131.398ZM143.645 174.54V179.814H145.681V181.161H143.645V187.782H142.033V174.54H143.645ZM141.008 176.576V177.88H133.2V176.576H136.335V174.731H137.961V176.576H141.008ZM137.155 178.744C139.06 178.744 140.48 180.033 140.48 181.865C140.48 183.696 139.06 184.97 137.155 184.97C135.222 184.97 133.801 183.696 133.815 181.865C133.801 180.033 135.222 178.744 137.155 178.744ZM137.155 180.077C136.115 180.077 135.368 180.781 135.368 181.865C135.368 182.948 136.115 183.637 137.155 183.622C138.166 183.637 138.913 182.948 138.928 181.865C138.913 180.781 138.166 180.077 137.155 180.077ZM150.368 178.012C150.368 180.151 151.115 182.377 152.902 183.505L152.009 184.75C150.815 184.032 150.039 182.795 149.606 181.337C149.123 182.941 148.273 184.296 147.028 185.058L146.018 183.842C147.937 182.67 148.801 180.341 148.801 178.085V175.712H150.368V178.012ZM157.663 174.54V187.782H156.096V174.54H157.663ZM154.909 174.775V187.138H153.371V180.444H151.481V179.096H153.371V174.775H154.909ZM171.301 184.838V186.171H159.201V184.838H161.999V181.484C160.944 180.883 160.307 179.938 160.314 178.759C160.3 176.65 162.38 175.258 165.222 175.258C168.078 175.258 170.158 176.65 170.158 178.759C170.158 179.916 169.543 180.846 168.518 181.454V184.838H171.301ZM165.222 176.547C163.244 176.547 161.896 177.382 161.911 178.759C161.896 180.121 163.244 180.971 165.222 180.971C167.199 180.971 168.562 180.121 168.562 178.759C168.562 177.382 167.199 176.547 165.222 176.547ZM163.61 184.838H166.862V182.07C166.357 182.187 165.808 182.245 165.222 182.245C164.65 182.245 164.108 182.187 163.61 182.084V184.838Z" fill="#888882"/>
</g>
<g id="Icon">
<path id="Vector" d="M347.02 187.31C350.701 187.31 353.685 184.326 353.685 180.645C353.685 176.964 350.701 173.98 347.02 173.98C343.339 173.98 340.355 176.964 340.355 180.645C340.355 184.326 343.339 187.31 347.02 187.31Z" stroke="#888882" stroke-width="1.66623" stroke-linecap="round" stroke-linejoin="round"/>
<path id="Vector_2" d="M355.351 188.977L351.769 185.394" stroke="#888882" stroke-width="1.66623" stroke-linecap="round" stroke-linejoin="round"/>
</g>
</g>
</g>
<g id="DateField">
<g id="Paragraph_2">
<path id="&#235;&#130;&#160;&#236;&#167;&#156;" d="M42.1582 240.226H43.8809V241.484H42.1582V243.972H40.6406V237.82H42.1582V240.226ZM34.4746 242.27C36.2428 242.247 37.9245 242.081 39.5195 241.771L39.6973 243.015C38.7767 243.202 37.8698 243.336 36.9766 243.418C36.0833 243.496 35.1764 243.534 34.2559 243.534H33.9688H32.9434V238.366H34.4746V242.27ZM42.1582 247.786H35.6094V248.798H42.541V250.029H34.0918V246.624H40.627V245.708H34.0781V244.505H42.1582V247.786ZM54.5586 242.564H56.0625V243.835H54.5586V250.179H53.041V237.82H54.5586V242.564ZM47.5312 241.128C47.5312 242.003 47.6042 242.828 47.75 243.603C47.8958 244.378 48.1693 245.061 48.5703 245.654C48.9622 245.066 49.2311 244.384 49.377 243.61C49.5228 242.83 49.5957 242.003 49.5957 241.128V240.185H48.8027V238.954H52.248V240.185H51.0449V241.128C51.0449 242.309 51.1771 243.364 51.4414 244.293C51.7057 245.223 52.1888 245.945 52.8906 246.46L51.9199 247.554C51.1589 246.971 50.6165 246.043 50.293 244.772C49.9557 246.098 49.377 247.062 48.5566 247.663C47.7546 247.066 47.1826 246.102 46.8408 244.772C46.5127 246.043 45.9727 246.971 45.2207 247.554L44.25 246.46C44.9518 245.941 45.4349 245.214 45.6992 244.28C45.9635 243.341 46.0957 242.29 46.0957 241.128V240.185H44.7148V238.954H48.3242V240.185H47.5312V241.128Z" fill="#4A4A4A"/>
</g>
<g id="Button" filter="url(#filter1_dd_156_4820)">
<path d="M32 280.959C32 272.123 39.1634 264.959 48 264.959H361.342C370.178 264.959 377.342 272.123 377.342 280.959V303.933C377.342 312.77 370.178 319.933 361.342 319.933H48C39.1635 319.933 32 312.77 32 303.933V280.959Z" fill="#FAFAF7"/>
<path d="M48 265.459H361.342C369.902 265.459 376.842 272.399 376.842 280.959V303.933C376.842 312.493 369.902 319.433 361.342 319.433H48C39.4396 319.433 32.5 312.493 32.5 303.933V280.959C32.5 272.399 39.4396 265.459 48 265.459Z" stroke="#E2DDD5"/>
<g id="Paragraph_3">
<path id="4&#236;&#155;&#148; 10&#236;&#157;&#188; ~ 4&#236;&#155;&#148; 12&#236;&#157;&#188;" d="M49.6885 293.943L54.2734 286.838H56.6465V293.899H58.0381V295.466H56.6465V297.444H54.8301V295.466H49.6885V293.943ZM54.8594 293.899V289.006H54.7422L51.6367 293.826V293.899H54.8594ZM70.2256 293.24H68.585V292.698H66.1094V291.702H68.585V285.52H70.2256V293.24ZM59.1074 290.295C60.7529 290.295 62.2788 290.276 63.6851 290.237C65.0913 290.198 66.4316 290.115 67.7061 289.988L67.7939 291.013C66.6758 291.169 65.4502 291.279 64.1172 291.343V293.254H62.5059V291.409C61.9297 291.428 61.0947 291.438 60.001 291.438H59.2832L59.1074 290.295ZM70.2256 296.624H62.6963V297.473H70.5771V298.63H61.0996V295.554H68.6143V294.763H61.041V293.65H70.2256V296.624ZM63.3848 285.725C64.0342 285.725 64.6079 285.808 65.106 285.974C65.6089 286.14 65.9995 286.375 66.2778 286.677C66.5562 286.975 66.6953 287.322 66.6953 287.717C66.6953 288.123 66.5562 288.474 66.2778 288.772C65.9995 289.07 65.6113 289.299 65.1133 289.46C64.6152 289.617 64.0391 289.695 63.3848 289.695C62.7158 289.695 62.1299 289.617 61.627 289.46C61.124 289.299 60.7334 289.07 60.4551 288.772C60.1816 288.474 60.0449 288.123 60.0449 287.717C60.0449 287.322 60.1841 286.975 60.4624 286.677C60.7407 286.375 61.1313 286.14 61.6343 285.974C62.1372 285.808 62.7207 285.725 63.3848 285.725ZM63.3848 286.809C62.8281 286.809 62.3887 286.892 62.0664 287.058C61.7441 287.219 61.5879 287.439 61.5977 287.717C61.5928 287.996 61.749 288.215 62.0664 288.376C62.3887 288.533 62.8281 288.611 63.3848 288.611C63.9316 288.611 64.3662 288.533 64.6885 288.376C65.0107 288.215 65.1719 287.996 65.1719 287.717C65.1719 287.439 65.0083 287.219 64.6812 287.058C64.3589 286.892 63.9268 286.809 63.3848 286.809ZM80.3916 297.444H78.4727V288.699H78.4141L75.9385 290.281V288.538L78.5605 286.838H80.3916V297.444ZM86.8809 297.59C86.0312 297.59 85.3013 297.378 84.6909 296.953C84.0854 296.523 83.6191 295.901 83.292 295.085C82.9697 294.27 82.8086 293.289 82.8086 292.141C82.8086 290.999 82.9697 290.02 83.292 289.204C83.6191 288.384 84.0879 287.761 84.6982 287.336C85.3086 286.907 86.0361 286.692 86.8809 286.692C87.7207 286.692 88.4458 286.907 89.0562 287.336C89.6714 287.761 90.1401 288.384 90.4624 289.204C90.7896 290.02 90.9531 290.999 90.9531 292.141C90.9531 293.289 90.7896 294.27 90.4624 295.085C90.1401 295.901 89.6738 296.523 89.0635 296.953C88.458 297.378 87.7305 297.59 86.8809 297.59ZM86.8809 295.994C87.3301 295.994 87.7134 295.85 88.0308 295.562C88.353 295.269 88.5996 294.836 88.7705 294.265C88.9463 293.689 89.0342 292.981 89.0342 292.141C89.0342 291.311 88.9463 290.608 88.7705 290.032C88.5996 289.451 88.353 289.014 88.0308 288.721C87.7085 288.423 87.3252 288.274 86.8809 288.274C86.4365 288.274 86.0532 288.423 85.731 288.721C85.4087 289.014 85.1597 289.451 84.9839 290.032C84.813 290.608 84.7275 291.311 84.7275 292.141C84.7275 292.981 84.813 293.689 84.9839 294.265C85.1597 294.836 85.4062 295.269 85.7236 295.562C86.0459 295.85 86.4316 295.994 86.8809 295.994ZM95.8604 285.93C96.5244 285.93 97.1226 286.06 97.6548 286.318C98.187 286.572 98.6045 286.926 98.9072 287.38C99.2148 287.834 99.3711 288.347 99.376 288.918C99.3711 289.495 99.2148 290.01 98.9072 290.464C98.6045 290.918 98.187 291.272 97.6548 291.526C97.1226 291.78 96.5244 291.907 95.8604 291.907C95.1914 291.907 94.5884 291.78 94.0513 291.526C93.519 291.272 93.1016 290.918 92.7988 290.464C92.4961 290.01 92.3447 289.495 92.3447 288.918C92.3447 288.347 92.4961 287.834 92.7988 287.38C93.1016 286.926 93.5215 286.572 94.0586 286.318C94.5957 286.06 95.1963 285.93 95.8604 285.93ZM95.8604 287.278C95.4893 287.278 95.1572 287.346 94.8643 287.483C94.5713 287.615 94.3418 287.805 94.1758 288.054C94.0098 288.298 93.9268 288.586 93.9268 288.918C93.9268 289.255 94.0098 289.551 94.1758 289.805C94.3418 290.054 94.5713 290.247 94.8643 290.383C95.1572 290.52 95.4893 290.588 95.8604 290.588C96.2314 290.588 96.5635 290.52 96.8564 290.383C97.1494 290.247 97.3789 290.054 97.5449 289.805C97.7109 289.551 97.7939 289.255 97.7939 288.918C97.7939 288.586 97.7109 288.298 97.5449 288.054C97.3789 287.805 97.1494 287.615 96.8564 287.483C96.5635 287.346 96.2314 287.278 95.8604 287.278ZM103.141 292.2H101.5V285.505H103.141V292.2ZM103.141 296.228H95.9775V297.297H103.536V298.586H94.3809V295.027H101.515V294.045H94.3516V292.771H103.141V296.228ZM109.601 291.746C109.84 291.482 110.111 291.282 110.414 291.145C110.716 291.008 111.036 290.94 111.373 290.94C111.632 290.94 111.883 290.974 112.127 291.042C112.372 291.106 112.682 291.208 113.058 291.35C113.419 291.487 113.722 291.589 113.966 291.658C114.215 291.726 114.469 291.76 114.728 291.76C115.411 291.76 115.987 291.482 116.456 290.925V292.522C116.217 292.791 115.946 292.993 115.643 293.13C115.345 293.262 115.025 293.328 114.684 293.328C114.425 293.328 114.168 293.293 113.915 293.225C113.661 293.152 113.355 293.049 112.999 292.917C112.643 292.786 112.337 292.686 112.083 292.617C111.834 292.544 111.583 292.507 111.329 292.507C110.646 292.507 110.069 292.786 109.601 293.342V291.746ZM122.11 293.943L126.695 286.838H129.068V293.899H130.46V295.466H129.068V297.444H127.252V295.466H122.11V293.943ZM127.281 293.899V289.006H127.164L124.059 293.826V293.899H127.281ZM142.647 293.24H141.007V292.698H138.531V291.702H141.007V285.52H142.647V293.24ZM131.529 290.295C133.175 290.295 134.701 290.276 136.107 290.237C137.513 290.198 138.854 290.115 140.128 289.988L140.216 291.013C139.098 291.169 137.872 291.279 136.539 291.343V293.254H134.928V291.409C134.352 291.428 133.517 291.438 132.423 291.438H131.705L131.529 290.295ZM142.647 296.624H135.118V297.473H142.999V298.63H133.521V295.554H141.036V294.763H133.463V293.65H142.647V296.624ZM135.807 285.725C136.456 285.725 137.03 285.808 137.528 285.974C138.031 286.14 138.421 286.375 138.7 286.677C138.978 286.975 139.117 287.322 139.117 287.717C139.117 288.123 138.978 288.474 138.7 288.772C138.421 289.07 138.033 289.299 137.535 289.46C137.037 289.617 136.461 289.695 135.807 289.695C135.138 289.695 134.552 289.617 134.049 289.46C133.546 289.299 133.155 289.07 132.877 288.772C132.604 288.474 132.467 288.123 132.467 287.717C132.467 287.322 132.606 286.975 132.884 286.677C133.163 286.375 133.553 286.14 134.056 285.974C134.559 285.808 135.143 285.725 135.807 285.725ZM135.807 286.809C135.25 286.809 134.811 286.892 134.488 287.058C134.166 287.219 134.01 287.439 134.02 287.717C134.015 287.996 134.171 288.215 134.488 288.376C134.811 288.533 135.25 288.611 135.807 288.611C136.354 288.611 136.788 288.533 137.11 288.376C137.433 288.215 137.594 287.996 137.594 287.717C137.594 287.439 137.43 287.219 137.103 287.058C136.781 286.892 136.349 286.809 135.807 286.809ZM152.813 297.444H150.895V288.699H150.836L148.36 290.281V288.538L150.982 286.838H152.813V297.444ZM155.392 296.067L159.142 292.449C159.547 292.043 159.859 291.711 160.079 291.453C160.304 291.189 160.475 290.93 160.592 290.676C160.709 290.417 160.768 290.144 160.768 289.856C160.768 289.534 160.689 289.25 160.533 289.006C160.377 288.762 160.16 288.574 159.881 288.442C159.608 288.311 159.298 288.245 158.951 288.245C158.59 288.245 158.272 288.318 157.999 288.464C157.73 288.606 157.523 288.811 157.376 289.08C157.23 289.343 157.159 289.651 157.164 290.002H155.348C155.343 289.343 155.494 288.765 155.802 288.267C156.109 287.764 156.537 287.375 157.083 287.102C157.635 286.829 158.263 286.692 158.966 286.692C159.679 286.692 160.309 286.824 160.855 287.087C161.407 287.351 161.834 287.717 162.137 288.186C162.445 288.65 162.599 289.177 162.599 289.768C162.599 290.178 162.518 290.574 162.357 290.955C162.201 291.335 161.932 291.758 161.551 292.222C161.17 292.681 160.631 293.24 159.933 293.899L158.043 295.774V295.847H162.76V297.444H155.392V296.067ZM167.74 285.93C168.404 285.93 169.002 286.06 169.535 286.318C170.067 286.572 170.484 286.926 170.787 287.38C171.095 287.834 171.251 288.347 171.256 288.918C171.251 289.495 171.095 290.01 170.787 290.464C170.484 290.918 170.067 291.272 169.535 291.526C169.002 291.78 168.404 291.907 167.74 291.907C167.071 291.907 166.468 291.78 165.931 291.526C165.399 291.272 164.981 290.918 164.679 290.464C164.376 290.01 164.225 289.495 164.225 288.918C164.225 288.347 164.376 287.834 164.679 287.38C164.981 286.926 165.401 286.572 165.938 286.318C166.476 286.06 167.076 285.93 167.74 285.93ZM167.74 287.278C167.369 287.278 167.037 287.346 166.744 287.483C166.451 287.615 166.222 287.805 166.056 288.054C165.89 288.298 165.807 288.586 165.807 288.918C165.807 289.255 165.89 289.551 166.056 289.805C166.222 290.054 166.451 290.247 166.744 290.383C167.037 290.52 167.369 290.588 167.74 290.588C168.111 290.588 168.443 290.52 168.736 290.383C169.029 290.247 169.259 290.054 169.425 289.805C169.591 289.551 169.674 289.255 169.674 288.918C169.674 288.586 169.591 288.298 169.425 288.054C169.259 287.805 169.029 287.615 168.736 287.483C168.443 287.346 168.111 287.278 167.74 287.278ZM175.021 292.2H173.38V285.505H175.021V292.2ZM175.021 296.228H167.857V297.297H175.416V298.586H166.261V295.027H173.395V294.045H166.231V292.771H175.021V296.228Z" fill="#1A1A1A"/>
</g>
<g id="Icon_2">
<path id="Vector_3" d="M347.012 284.115V287.447" stroke="#888882" stroke-width="1.66623" stroke-linecap="round" stroke-linejoin="round"/>
<path id="Vector_4" d="M353.677 284.115V287.447" stroke="#888882" stroke-width="1.66623" stroke-linecap="round" stroke-linejoin="round"/>
<path id="Vector_5" d="M356.176 285.781H344.513C343.593 285.781 342.847 286.527 342.847 287.447V299.111C342.847 300.031 343.593 300.777 344.513 300.777H356.176C357.097 300.777 357.843 300.031 357.843 299.111V287.447C357.843 286.527 357.097 285.781 356.176 285.781Z" stroke="#888882" stroke-width="1.66623" stroke-linecap="round" stroke-linejoin="round"/>
<path id="Vector_6" d="M342.847 290.78H357.843" stroke="#888882" stroke-width="1.66623" stroke-linecap="round" stroke-linejoin="round"/>
</g>
</g>
</g>
<g id="GuestsField">
<g id="Paragraph_4">
<path id="&#236;&#157;&#184;&#236;&#155;&#144;" d="M42.7051 357.729H41.1738V348.801H42.7051V357.729ZM43.0469 360.901H34.5293V356.826H36.0605V359.67H43.0469V360.901ZM35.9648 349.608C36.5846 349.608 37.1475 349.742 37.6533 350.011C38.1592 350.275 38.5579 350.642 38.8496 351.112C39.1413 351.581 39.2871 352.11 39.2871 352.698C39.2871 353.295 39.1413 353.83 38.8496 354.304C38.5579 354.773 38.1592 355.14 37.6533 355.405C37.1475 355.669 36.5846 355.801 35.9648 355.801C35.3405 355.801 34.7731 355.669 34.2627 355.405C33.7568 355.14 33.3581 354.773 33.0664 354.304C32.7747 353.83 32.6289 353.295 32.6289 352.698C32.6289 352.11 32.7747 351.581 33.0664 351.112C33.3581 350.642 33.7568 350.275 34.2627 350.011C34.7731 349.742 35.3405 349.608 35.9648 349.608ZM35.9648 350.934C35.6139 350.934 35.2972 351.007 35.0146 351.153C34.7321 351.298 34.5111 351.506 34.3516 351.775C34.1921 352.044 34.1146 352.351 34.1191 352.698C34.1146 353.053 34.1921 353.365 34.3516 353.634C34.5111 353.903 34.7321 354.11 35.0146 354.256C35.2972 354.402 35.6139 354.475 35.9648 354.475C36.3066 354.475 36.6165 354.402 36.8945 354.256C37.1725 354.11 37.3913 353.903 37.5508 353.634C37.7148 353.365 37.7969 353.053 37.7969 352.698C37.7969 352.351 37.7148 352.044 37.5508 351.775C37.3913 351.506 37.1725 351.298 36.8945 351.153C36.6165 351.007 36.3066 350.934 35.9648 350.934ZM54.873 358.153H53.3418V357.073H50.9219V356.006H53.3418V348.801H54.873V358.153ZM55.1602 360.901H46.0957V357.25H47.6133V359.67H55.1602V360.901ZM44.4551 354.352C46.0592 354.343 47.4993 354.315 48.7754 354.27C50.0514 354.224 51.2682 354.128 52.4258 353.983L52.5078 355.076C51.5189 355.24 50.4798 355.359 49.3906 355.432V357.811H47.873V355.514C46.9935 355.55 45.918 355.569 44.6465 355.569L44.4551 354.352ZM48.4883 349.252C49.0853 349.252 49.6139 349.346 50.0742 349.532C50.5391 349.715 50.9014 349.972 51.1611 350.305C51.4255 350.633 51.5599 351.011 51.5645 351.44C51.5599 351.877 51.4277 352.26 51.168 352.588C50.9082 352.916 50.5459 353.169 50.0811 353.347C49.6162 353.525 49.0853 353.614 48.4883 353.614C47.8822 353.614 47.3444 353.525 46.875 353.347C46.4102 353.169 46.0479 352.916 45.7881 352.588C45.5283 352.26 45.3984 351.877 45.3984 351.44C45.3984 351.011 45.5283 350.633 45.7881 350.305C46.0479 349.972 46.4102 349.715 46.875 349.532C47.3444 349.346 47.8822 349.252 48.4883 349.252ZM48.4883 350.373C47.9915 350.373 47.5905 350.469 47.2852 350.66C46.9844 350.847 46.834 351.107 46.834 351.44C46.834 351.772 46.9844 352.034 47.2852 352.226C47.5905 352.413 47.9915 352.506 48.4883 352.506C48.9668 352.506 49.3564 352.41 49.6572 352.219C49.958 352.028 50.1107 351.768 50.1152 351.44C50.1107 351.112 49.958 350.852 49.6572 350.66C49.3564 350.469 48.9668 350.373 48.4883 350.373Z" fill="#4A4A4A"/>
</g>
<g id="Button_2" filter="url(#filter2_dd_156_4820)">
<path d="M32 391.927C32 383.09 39.1634 375.927 48 375.927H361.342C370.178 375.927 377.342 383.09 377.342 391.927V414.901C377.342 423.737 370.178 430.901 361.342 430.901H48C39.1635 430.901 32 423.737 32 414.901V391.927Z" fill="#FAFAF7"/>
<path d="M48 376.427H361.342C369.902 376.427 376.842 383.367 376.842 391.927V414.901C376.842 423.461 369.902 430.401 361.342 430.401H48C39.4396 430.401 32.5 423.461 32.5 414.901V391.927C32.5 383.367 39.4396 376.427 48 376.427Z" stroke="#E2DDD5"/>
<g id="Paragraph_5">
<path id="&#236;&#132;&#177;&#236;&#157;&#184; 2&#235;&#170;&#133;, &#236;&#149;&#132;&#235;&#143;&#153; 1&#235;&#170;&#133;" d="M54.2881 398.377C54.2832 398.988 54.3979 399.564 54.6323 400.106C54.8667 400.648 55.2183 401.126 55.687 401.542C56.1606 401.952 56.7344 402.264 57.4082 402.479L56.5293 403.753C55.8164 403.504 55.2061 403.148 54.6982 402.684C54.1953 402.22 53.7998 401.668 53.5117 401.029C53.2139 401.766 52.7866 402.406 52.23 402.948C51.6733 403.485 51.002 403.89 50.2158 404.164L49.3516 402.845C50.0645 402.611 50.6675 402.271 51.1606 401.827C51.6538 401.383 52.0249 400.87 52.2739 400.289C52.5229 399.708 52.6475 399.095 52.6475 398.451V397.191H54.2881V398.377ZM60.5283 404.266H58.9023V400.37H56.2656V399.037H58.9023V396.473H60.5283V404.266ZM56.0459 404.618C56.9785 404.618 57.7842 404.718 58.4629 404.918C59.1465 405.118 59.6689 405.411 60.0303 405.797C60.3916 406.178 60.5723 406.634 60.5723 407.167C60.5723 407.699 60.3916 408.155 60.0303 408.536C59.6689 408.917 59.1489 409.205 58.4702 409.4C57.7915 409.601 56.9834 409.701 56.0459 409.701C55.1133 409.701 54.3076 409.601 53.6289 409.4C52.9551 409.205 52.4375 408.917 52.0762 408.536C51.7197 408.155 51.5439 407.699 51.5488 407.167C51.5439 406.634 51.7197 406.178 52.0762 405.797C52.4375 405.411 52.9575 405.118 53.6362 404.918C54.3149 404.718 55.1182 404.618 56.0459 404.618ZM56.0459 405.877C55.1182 405.877 54.4053 405.99 53.9072 406.214C53.4092 406.434 53.1602 406.751 53.1602 407.167C53.1602 407.572 53.4092 407.884 53.9072 408.104C54.4102 408.319 55.123 408.426 56.0459 408.426C56.9688 408.426 57.6816 408.316 58.1846 408.097C58.6924 407.877 58.9463 407.567 58.9463 407.167C58.9463 406.751 58.6948 406.434 58.1919 406.214C57.689 405.99 56.9736 405.877 56.0459 405.877ZM73.4336 406.053H71.793V396.488H73.4336V406.053ZM73.7998 409.452H64.6738V405.086H66.3145V408.133H73.7998V409.452ZM66.2119 397.352C66.876 397.352 67.479 397.496 68.021 397.784C68.563 398.067 68.9902 398.46 69.3027 398.963C69.6152 399.466 69.7715 400.033 69.7715 400.663C69.7715 401.302 69.6152 401.876 69.3027 402.384C68.9902 402.887 68.563 403.28 68.021 403.563C67.479 403.846 66.876 403.988 66.2119 403.988C65.543 403.988 64.9351 403.846 64.3882 403.563C63.8462 403.28 63.4189 402.887 63.1064 402.384C62.7939 401.876 62.6377 401.302 62.6377 400.663C62.6377 400.033 62.7939 399.466 63.1064 398.963C63.4189 398.46 63.8462 398.067 64.3882 397.784C64.9351 397.496 65.543 397.352 66.2119 397.352ZM66.2119 398.773C65.8359 398.773 65.4966 398.851 65.1938 399.007C64.8911 399.164 64.6543 399.386 64.4834 399.674C64.3125 399.962 64.2295 400.292 64.2344 400.663C64.2295 401.043 64.3125 401.378 64.4834 401.666C64.6543 401.954 64.8911 402.176 65.1938 402.333C65.4966 402.489 65.8359 402.567 66.2119 402.567C66.5781 402.567 66.9102 402.489 67.208 402.333C67.5059 402.176 67.7402 401.954 67.9111 401.666C68.0869 401.378 68.1748 401.043 68.1748 400.663C68.1748 400.292 68.0869 399.962 67.9111 399.674C67.7402 399.386 67.5059 399.164 67.208 399.007C66.9102 398.851 66.5781 398.773 66.2119 398.773ZM79.3662 407.035L83.1162 403.417C83.5215 403.011 83.834 402.679 84.0537 402.42C84.2783 402.157 84.4492 401.898 84.5664 401.644C84.6836 401.385 84.7422 401.112 84.7422 400.824C84.7422 400.501 84.6641 400.218 84.5078 399.974C84.3516 399.73 84.1343 399.542 83.856 399.41C83.5825 399.278 83.2725 399.212 82.9258 399.212C82.5645 399.212 82.2471 399.286 81.9736 399.432C81.7051 399.574 81.4976 399.779 81.3511 400.047C81.2046 400.311 81.1338 400.619 81.1387 400.97H79.3223C79.3174 400.311 79.4688 399.732 79.7764 399.234C80.084 398.731 80.5112 398.343 81.0581 398.07C81.6099 397.796 82.2373 397.66 82.9404 397.66C83.6533 397.66 84.2832 397.792 84.8301 398.055C85.3818 398.319 85.8091 398.685 86.1118 399.154C86.4194 399.618 86.5732 400.145 86.5732 400.736C86.5732 401.146 86.4927 401.542 86.3315 401.922C86.1753 402.303 85.9067 402.726 85.5259 403.189C85.145 403.648 84.6055 404.208 83.9072 404.867L82.0176 406.742V406.815H86.7344V408.412H79.3662V407.035ZM99.0537 404.266H97.4277V402.435H94.7617V403.46H88.5361V397.469H94.7617V398.495H97.4277V396.473H99.0537V404.266ZM90.1621 402.157H93.1504V398.758H90.1621V402.157ZM94.5713 404.618C95.5039 404.618 96.3096 404.718 96.9883 404.918C97.6719 405.118 98.1943 405.411 98.5557 405.797C98.917 406.178 99.0977 406.634 99.0977 407.167C99.0977 407.699 98.917 408.155 98.5557 408.536C98.1943 408.917 97.6743 409.205 96.9956 409.4C96.3169 409.601 95.5088 409.701 94.5713 409.701C93.6387 409.701 92.833 409.601 92.1543 409.4C91.4805 409.205 90.9629 408.917 90.6016 408.536C90.2451 408.155 90.0693 407.699 90.0742 407.167C90.0693 406.634 90.2451 406.178 90.6016 405.797C90.9629 405.411 91.4829 405.118 92.1616 404.918C92.8403 404.718 93.6436 404.618 94.5713 404.618ZM94.5713 405.863C93.6436 405.863 92.9307 405.975 92.4326 406.2C91.9346 406.419 91.6855 406.742 91.6855 407.167C91.6855 407.577 91.9346 407.892 92.4326 408.111C92.9355 408.331 93.6484 408.441 94.5713 408.441C95.499 408.441 96.2144 408.331 96.7173 408.111C97.2202 407.892 97.4717 407.577 97.4717 407.167C97.4717 406.742 97.2202 406.419 96.7173 406.2C96.2144 405.975 95.499 405.863 94.5713 405.863ZM97.4277 401.117V399.784H94.7617V401.117H97.4277ZM102.276 411.473H100.885L101.646 407.372H103.507L102.276 411.473ZM111.871 397.44C112.535 397.44 113.126 397.633 113.644 398.019C114.161 398.399 114.566 398.944 114.859 399.652C115.157 400.355 115.309 401.175 115.313 402.113C115.309 403.06 115.157 403.888 114.859 404.596C114.566 405.304 114.161 405.848 113.644 406.229C113.126 406.61 112.535 406.8 111.871 406.8C111.202 406.8 110.606 406.61 110.084 406.229C109.562 405.843 109.154 405.296 108.861 404.588C108.568 403.88 108.424 403.055 108.429 402.113C108.424 401.18 108.568 400.36 108.861 399.652C109.154 398.944 109.562 398.399 110.084 398.019C110.606 397.633 111.202 397.44 111.871 397.44ZM111.871 398.905C111.5 398.905 111.173 399.034 110.89 399.293C110.606 399.547 110.387 399.916 110.23 400.399C110.074 400.877 109.996 401.449 109.996 402.113C109.996 402.782 110.074 403.358 110.23 403.841C110.387 404.325 110.606 404.696 110.89 404.955C111.173 405.208 111.5 405.335 111.871 405.335C112.247 405.335 112.577 405.208 112.86 404.955C113.143 404.696 113.36 404.325 113.512 403.841C113.668 403.358 113.746 402.782 113.746 402.113C113.746 401.449 113.668 400.875 113.512 400.392C113.36 399.908 113.143 399.54 112.86 399.286C112.577 399.032 112.247 398.905 111.871 398.905ZM118.683 401.556H120.719V402.933H118.683V409.715H117.057V396.473H118.683V401.556ZM133.36 404.12H121.275V402.816H126.52V401.556H122.755V397.074H131.896V398.348H124.381V400.267H131.969V401.556H128.116V402.816H133.36V404.12ZM127.296 404.881C128.248 404.881 129.066 404.977 129.75 405.167C130.433 405.353 130.958 405.626 131.324 405.987C131.69 406.349 131.876 406.786 131.881 407.298C131.876 407.806 131.69 408.241 131.324 408.602C130.958 408.963 130.431 409.239 129.742 409.43C129.059 409.62 128.243 409.715 127.296 409.715C126.339 409.715 125.514 409.62 124.82 409.43C124.127 409.239 123.597 408.963 123.231 408.602C122.865 408.241 122.682 407.806 122.682 407.298C122.682 406.786 122.865 406.349 123.231 405.987C123.597 405.626 124.125 405.353 124.813 405.167C125.506 404.977 126.334 404.881 127.296 404.881ZM127.296 406.126C126.329 406.126 125.592 406.227 125.084 406.427C124.581 406.627 124.332 406.917 124.337 407.298C124.332 407.679 124.581 407.967 125.084 408.163C125.587 408.358 126.324 408.456 127.296 408.456C128.248 408.456 128.978 408.358 129.486 408.163C129.994 407.967 130.25 407.679 130.255 407.298C130.25 406.917 129.991 406.627 129.479 406.427C128.971 406.227 128.243 406.126 127.296 406.126ZM142.545 408.412H140.626V399.667H140.567L138.092 401.249V399.505L140.714 397.806H142.545V408.412ZM155.772 404.266H154.146V402.435H151.48V403.46H145.255V397.469H151.48V398.495H154.146V396.473H155.772V404.266ZM146.881 402.157H149.869V398.758H146.881V402.157ZM151.29 404.618C152.223 404.618 153.028 404.718 153.707 404.918C154.391 405.118 154.913 405.411 155.274 405.797C155.636 406.178 155.816 406.634 155.816 407.167C155.816 407.699 155.636 408.155 155.274 408.536C154.913 408.917 154.393 409.205 153.714 409.4C153.036 409.601 152.228 409.701 151.29 409.701C150.357 409.701 149.552 409.601 148.873 409.4C148.199 409.205 147.682 408.917 147.32 408.536C146.964 408.155 146.788 407.699 146.793 407.167C146.788 406.634 146.964 406.178 147.32 405.797C147.682 405.411 148.202 405.118 148.88 404.918C149.559 404.718 150.362 404.618 151.29 404.618ZM151.29 405.863C150.362 405.863 149.649 405.975 149.151 406.2C148.653 406.419 148.404 406.742 148.404 407.167C148.404 407.577 148.653 407.892 149.151 408.111C149.654 408.331 150.367 408.441 151.29 408.441C152.218 408.441 152.933 408.331 153.436 408.111C153.939 407.892 154.19 407.577 154.19 407.167C154.19 406.742 153.939 406.419 153.436 406.2C152.933 405.975 152.218 405.863 151.29 405.863ZM154.146 401.117V399.784H151.48V401.117H154.146Z" fill="#1A1A1A"/>
</g>
<g id="Frame">
<path id="Vector_7" d="M350.342 401.414L354.342 405.414L358.342 401.414" stroke="#888882" stroke-width="1.3" stroke-linecap="round" stroke-linejoin="round"/>
</g>
</g>
</g>
<g id="BudgetField">
<g id="Paragraph_6">
<path id="&#236;&#152;&#136;&#236;&#130;&#176;" d="M43.0742 459.755V472.114H41.6113V459.755H43.0742ZM40.5723 459.974V471.513H39.1367V467.616H37.5234C37.0654 468.833 36.2451 469.523 35.1992 469.517C33.5859 469.53 32.5332 467.821 32.5332 465.101C32.5332 462.38 33.5859 460.698 35.1992 460.698C36.2451 460.698 37.0586 461.382 37.5234 462.585H39.1367V459.974H40.5723ZM35.1992 462.134C34.3926 462.12 33.9141 463.173 33.9277 465.101C33.9141 467.028 34.3926 468.081 35.1992 468.067C36.0195 468.081 36.5254 467.028 36.5254 465.101C36.5254 463.173 36.0195 462.12 35.1992 462.134ZM37.8242 463.815C37.8857 464.212 37.9199 464.643 37.9199 465.101C37.9199 465.552 37.8857 465.976 37.8379 466.372H39.1367V463.815H37.8242ZM48.9395 461.942C48.9258 463.569 49.9512 465.114 51.8926 465.743L51.0996 466.946C49.7256 466.481 48.7549 465.552 48.2148 464.362C47.6611 465.675 46.6426 466.7 45.207 467.206L44.3594 466.003C46.3965 465.347 47.4082 463.679 47.4082 461.929V460.521H48.9395V461.942ZM54.2578 459.755V463.405H55.9805V464.69H54.2578V468.833H52.7402V459.755H54.2578ZM54.75 470.638V471.868H46.3418V467.944H47.9004V470.638H54.75Z" fill="#4A4A4A"/>
</g>
<g id="Container_3">
<g id="Text">
<path id="&#236;&#149;&#189;" d="M59.6855 510.604H57.8838V512.128H59.6855V513.49H57.8838V515.263H56.2578V507.44H57.8838V509.286H59.6855V510.604ZM57.8838 520.683H56.2578V517.152H49.0654V515.834H57.8838V520.683ZM51.1602 508.202C51.8291 508.197 52.4346 508.332 52.9766 508.605C53.5186 508.874 53.9458 509.252 54.2583 509.74C54.5708 510.224 54.7295 510.771 54.7344 511.381C54.7295 512.001 54.5708 512.555 54.2583 513.043C53.9507 513.527 53.5259 513.905 52.9839 514.179C52.4419 514.452 51.834 514.589 51.1602 514.589C50.4814 514.589 49.8687 514.452 49.3218 514.179C48.7798 513.905 48.3525 513.527 48.04 513.043C47.7324 512.555 47.5811 512.001 47.5859 511.381C47.5811 510.771 47.7324 510.224 48.04 509.74C48.3525 509.252 48.7822 508.874 49.3291 508.605C49.876 508.332 50.4863 508.197 51.1602 508.202ZM51.1602 509.579C50.7793 509.584 50.4375 509.662 50.1348 509.813C49.832 509.96 49.5952 510.17 49.4243 510.443C49.2583 510.712 49.1777 511.024 49.1826 511.381C49.1777 511.747 49.2583 512.069 49.4243 512.348C49.5952 512.626 49.832 512.838 50.1348 512.985C50.4375 513.131 50.7793 513.202 51.1602 513.197C51.5361 513.202 51.873 513.131 52.1709 512.985C52.4736 512.838 52.7104 512.626 52.8813 512.348C53.0522 512.069 53.1377 511.747 53.1377 511.381C53.1377 511.024 53.0522 510.712 52.8813 510.443C52.7104 510.17 52.4736 509.96 52.1709 509.813C51.873 509.662 51.5361 509.584 51.1602 509.579Z" fill="#888882"/>
</g>
<g id="Text Input_2" filter="url(#filter3_dd_156_4820)">
<path d="M71.9702 507.381C71.9702 498.545 79.1337 491.381 87.9702 491.381H111.97C120.807 491.381 127.97 498.545 127.97 507.381V521.381C127.97 530.218 120.807 537.381 111.97 537.381H87.9702C79.1337 537.381 71.9702 530.218 71.9702 521.381V507.381Z" fill="#FAFAF7"/>
<path d="M87.9702 491.881H111.97C120.531 491.881 127.47 498.821 127.47 507.381V521.381C127.47 529.942 120.531 536.881 111.97 536.881H87.9702C79.4098 536.881 72.4702 529.942 72.4702 521.381V507.381C72.4702 498.821 79.4098 491.881 87.9702 491.881Z" stroke="#E2DDD5"/>
<path id="30" d="M95.1729 519.528C94.4258 519.528 93.7568 519.401 93.166 519.147C92.5752 518.893 92.1113 518.539 91.7744 518.085C91.4375 517.626 91.2617 517.101 91.2471 516.51H93.166C93.1855 516.789 93.2832 517.035 93.459 517.25C93.6396 517.46 93.8789 517.624 94.1768 517.741C94.4746 517.858 94.8066 517.917 95.1729 517.917C95.5586 517.917 95.9028 517.851 96.2056 517.719C96.5132 517.582 96.7524 517.394 96.9233 517.155C97.0942 516.916 97.1797 516.642 97.1797 516.334C97.1797 516.017 97.0918 515.734 96.916 515.485C96.7402 515.236 96.4863 515.043 96.1543 514.906C95.8223 514.765 95.4316 514.694 94.9824 514.694H94.0303V513.229H94.9824C95.3535 513.229 95.6831 513.166 95.9712 513.039C96.2642 512.907 96.4912 512.724 96.6523 512.489C96.8135 512.25 96.8916 511.979 96.8867 511.676C96.8916 511.383 96.8232 511.125 96.6816 510.9C96.5449 510.67 96.3472 510.495 96.0884 510.373C95.8296 510.246 95.5293 510.182 95.1875 510.182C94.8555 510.182 94.5454 510.243 94.2573 510.365C93.9741 510.482 93.7446 510.651 93.5688 510.871C93.3979 511.09 93.3076 511.344 93.2979 511.632H91.4668C91.4814 511.046 91.6523 510.526 91.9795 510.072C92.3115 509.618 92.7583 509.264 93.3198 509.01C93.8862 508.756 94.5137 508.629 95.2021 508.629C95.9004 508.629 96.5181 508.761 97.0552 509.025C97.5923 509.284 98.0073 509.638 98.3003 510.087C98.5933 510.536 98.7373 511.032 98.7324 511.574C98.7373 511.964 98.6592 512.318 98.498 512.636C98.3369 512.953 98.1099 513.217 97.8169 513.427C97.5239 513.637 97.1846 513.781 96.7988 513.859V513.947C97.292 514.015 97.7144 514.162 98.0659 514.386C98.4175 514.606 98.6836 514.892 98.8643 515.243C99.0449 515.595 99.1328 515.993 99.1279 516.437C99.1328 517.023 98.9644 517.553 98.6226 518.026C98.2856 518.495 97.8145 518.864 97.209 519.132C96.6084 519.396 95.9297 519.528 95.1729 519.528ZM104.709 519.528C103.859 519.528 103.129 519.315 102.519 518.891C101.914 518.461 101.447 517.838 101.12 517.023C100.798 516.208 100.637 515.226 100.637 514.079C100.637 512.936 100.798 511.957 101.12 511.142C101.447 510.321 101.916 509.699 102.526 509.274C103.137 508.844 103.864 508.629 104.709 508.629C105.549 508.629 106.274 508.844 106.884 509.274C107.5 509.699 107.968 510.321 108.291 511.142C108.618 511.957 108.781 512.936 108.781 514.079C108.781 515.226 108.618 516.208 108.291 517.023C107.968 517.838 107.502 518.461 106.892 518.891C106.286 519.315 105.559 519.528 104.709 519.528ZM104.709 517.931C105.158 517.931 105.542 517.787 105.859 517.499C106.181 517.206 106.428 516.774 106.599 516.203C106.774 515.626 106.862 514.918 106.862 514.079C106.862 513.249 106.774 512.545 106.599 511.969C106.428 511.388 106.181 510.951 105.859 510.658C105.537 510.36 105.153 510.211 104.709 510.211C104.265 510.211 103.881 510.36 103.559 510.658C103.237 510.951 102.988 511.388 102.812 511.969C102.641 512.545 102.556 513.249 102.556 514.079C102.556 514.918 102.641 515.626 102.812 516.203C102.988 516.774 103.234 517.206 103.552 517.499C103.874 517.787 104.26 517.931 104.709 517.931Z" fill="#1A1A1A"/>
</g>
<g id="Text_2">
<path id="&#235;&#167;&#140;&#236;&#155;&#144;" d="M147.132 514.838H140.863V508.583H147.132V514.838ZM142.459 513.549H145.536V509.887H142.459V513.549ZM150.853 511.322H152.699V512.685H150.853V517.108H149.227V507.44H150.853V511.322ZM151.38 520.419H142.372V516.171H143.998V519.101H151.38V520.419ZM164.476 517.475H162.835V516.317H160.243V515.175H162.835V507.455H164.476V517.475ZM164.784 520.419H155.072V516.508H156.698V519.101H164.784V520.419ZM153.314 513.402C155.033 513.393 156.576 513.363 157.943 513.314C159.31 513.266 160.614 513.163 161.854 513.007L161.942 514.179C160.882 514.354 159.769 514.481 158.602 514.56V517.108H156.976V514.647C156.034 514.687 154.881 514.706 153.519 514.706L153.314 513.402ZM157.635 507.938C158.275 507.938 158.841 508.039 159.334 508.239C159.833 508.434 160.221 508.71 160.499 509.066C160.782 509.418 160.926 509.823 160.931 510.282C160.926 510.751 160.785 511.161 160.506 511.513C160.228 511.864 159.84 512.135 159.342 512.326C158.844 512.516 158.275 512.611 157.635 512.611C156.986 512.611 156.41 512.516 155.907 512.326C155.409 512.135 155.021 511.864 154.742 511.513C154.464 511.161 154.325 510.751 154.325 510.282C154.325 509.823 154.464 509.418 154.742 509.066C155.021 508.71 155.409 508.434 155.907 508.239C156.41 508.039 156.986 507.938 157.635 507.938ZM157.635 509.14C157.103 509.14 156.673 509.242 156.346 509.447C156.024 509.647 155.863 509.926 155.863 510.282C155.863 510.639 156.024 510.919 156.346 511.125C156.673 511.325 157.103 511.425 157.635 511.425C158.148 511.425 158.565 511.322 158.888 511.117C159.21 510.912 159.374 510.634 159.378 510.282C159.374 509.931 159.21 509.652 158.888 509.447C158.565 509.242 158.148 509.14 157.635 509.14Z" fill="#888882"/>
</g>
</g>
</g>
<g id="EditInfoButtonEnabled" filter="url(#filter4_dd_156_4820)">
<g clip-path="url(#clip0_156_4820)">
<g id="Frame 137">
<g id="Vector_8">
<path id="Vector_9" d="M352.671 565.868H56.6709C50.0435 565.868 44.6709 571.241 44.6709 577.868V605.868C44.6709 612.496 50.0435 617.868 56.6709 617.868H352.671C359.298 617.868 364.671 612.496 364.671 605.868V577.868C364.671 571.241 359.298 565.868 352.671 565.868Z" fill="#4A7C59"/>
</g>
<path id="&#236;&#136;&#152;&#236;&#160;&#149;&#237;&#149;&#152;&#234;&#184;&#176;" d="M185.293 585.806C185.293 586.399 185.501 586.978 185.918 587.54C186.34 588.103 186.928 588.584 187.683 588.985C188.444 589.386 189.314 589.649 190.293 589.774L189.605 591.181C188.418 591.004 187.366 590.639 186.449 590.087C185.532 589.53 184.842 588.85 184.379 588.048C183.915 588.85 183.228 589.53 182.316 590.087C181.405 590.639 180.36 591.004 179.183 591.181L178.496 589.774C179.465 589.649 180.327 589.386 181.082 588.985C181.837 588.584 182.423 588.103 182.84 587.54C183.256 586.978 183.465 586.399 183.465 585.806V585.087H185.293V585.806ZM190.808 593.837H185.199V598.759H183.48V593.837H177.933V592.399H190.808V593.837ZM203.29 593.024H201.555V589.571H199.149V588.149H201.555V584.634H203.29V593.024ZM198.508 593.384C199.503 593.384 200.363 593.491 201.087 593.704C201.816 593.912 202.373 594.22 202.758 594.626C203.144 595.027 203.337 595.509 203.337 596.071C203.337 596.634 203.144 597.116 202.758 597.517C202.373 597.923 201.816 598.23 201.087 598.438C200.363 598.652 199.503 598.759 198.508 598.759C197.519 598.759 196.662 598.652 195.938 598.438C195.214 598.23 194.659 597.923 194.274 597.517C193.894 597.116 193.706 596.634 193.712 596.071C193.706 595.509 193.894 595.027 194.274 594.626C194.659 594.22 195.214 593.912 195.938 593.704C196.662 593.491 197.519 593.384 198.508 593.384ZM198.508 594.712C197.519 594.712 196.758 594.829 196.227 595.063C195.696 595.293 195.43 595.629 195.43 596.071C195.43 596.509 195.696 596.842 196.227 597.071C196.758 597.3 197.519 597.415 198.508 597.415C199.498 597.415 200.261 597.3 200.797 597.071C201.334 596.842 201.602 596.509 201.602 596.071C201.602 595.629 201.334 595.293 200.797 595.063C200.261 594.829 199.498 594.712 198.508 594.712ZM196.649 587.056C196.649 587.639 196.777 588.207 197.032 588.759C197.287 589.306 197.665 589.798 198.165 590.235C198.665 590.668 199.269 591.004 199.977 591.243L199.102 592.618C198.337 592.358 197.672 591.975 197.11 591.47C196.553 590.959 196.115 590.366 195.797 589.688C195.48 590.454 195.027 591.123 194.438 591.696C193.85 592.264 193.144 592.696 192.321 592.993L191.415 591.618C192.149 591.368 192.777 591.006 193.297 590.532C193.818 590.053 194.212 589.514 194.477 588.915C194.748 588.316 194.883 587.701 194.883 587.071V586.962H191.946V585.556H199.571V586.962H196.649V587.056ZM216.052 590.259H218.224V591.696H216.052V598.759H214.333V584.634H216.052V590.259ZM213.24 588.196H204.912V586.806H208.255V584.837H209.99V586.806H213.24V588.196ZM209.13 589.118C209.802 589.118 210.406 589.261 210.943 589.548C211.484 589.829 211.909 590.222 212.216 590.728C212.524 591.233 212.677 591.806 212.677 592.446C212.677 593.087 212.524 593.66 212.216 594.165C211.909 594.665 211.484 595.056 210.943 595.337C210.406 595.618 209.802 595.759 209.13 595.759C208.448 595.759 207.836 595.618 207.294 595.337C206.753 595.056 206.328 594.665 206.021 594.165C205.714 593.66 205.563 593.087 205.568 592.446C205.563 591.806 205.714 591.233 206.021 590.728C206.328 590.222 206.753 589.829 207.294 589.548C207.836 589.261 208.448 589.118 209.13 589.118ZM209.13 590.54C208.76 590.54 208.43 590.618 208.138 590.774C207.852 590.931 207.628 591.155 207.466 591.446C207.305 591.733 207.224 592.066 207.224 592.446C207.224 592.826 207.305 593.16 207.466 593.446C207.628 593.728 207.852 593.946 208.138 594.103C208.43 594.254 208.76 594.326 209.13 594.321C209.49 594.326 209.81 594.254 210.091 594.103C210.378 593.946 210.602 593.728 210.763 593.446C210.93 593.16 211.016 592.826 211.021 592.446C211.016 592.066 210.93 591.733 210.763 591.446C210.602 591.16 210.378 590.938 210.091 590.782C209.81 590.621 209.49 590.54 209.13 590.54ZM230.315 598.759H228.565V584.634H230.315V598.759ZM226.096 586.134C226.096 588.379 225.588 590.35 224.572 592.048C223.557 593.741 221.872 595.144 219.518 596.259L218.612 594.868C220.429 594.004 221.796 592.97 222.713 591.767C223.635 590.558 224.174 589.139 224.33 587.509H219.33V586.134H226.096Z" fill="#FAFAF7"/>
</g>
</g>
<path d="M56.6709 566.368H352.671C359.022 566.368 364.171 571.517 364.171 577.868V605.868C364.171 612.219 359.022 617.368 352.671 617.368H56.6709C50.3196 617.368 45.1709 612.219 45.1709 605.868V577.868C45.1709 571.517 50.3196 566.368 56.6709 566.368Z" stroke="#3B6347"/>
</g>
</g>
</g>
<g id="Container_4">
<g id="Icon_3" clip-path="url(#clip1_156_4820)">
<path id="Vector_10" d="M163.669 25.9944H245.669" stroke="#888882" stroke-width="7.99775" stroke-linecap="round"/>
</g>
</g>
</g>
<defs>
<filter id="filter0_dd_156_4820" x="0" y="129.992" width="409.342" height="118.974" filterUnits="userSpaceOnUse" color-interpolation-filters="sRGB">
<feFlood flood-opacity="0" result="BackgroundImageFix"/>
<feColorMatrix in="SourceAlpha" type="matrix" values="0 0 0 0 0 0 0 0 0 0 0 0 0 0 0 0 0 0 127 0" result="hardAlpha"/>
<feOffset dy="8"/>
<feGaussianBlur stdDeviation="16"/>
<feColorMatrix type="matrix" values="0 0 0 0 0.118 0 0 0 0 0.157 0 0 0 0 0.133 0 0 0 0.16 0"/>
<feBlend mode="normal" in2="BackgroundImageFix" result="effect1_dropShadow_156_4820"/>
<feColorMatrix in="SourceAlpha" type="matrix" values="0 0 0 0 0 0 0 0 0 0 0 0 0 0 0 0 0 0 127 0" result="hardAlpha"/>
<feOffset dy="2"/>
<feGaussianBlur stdDeviation="4"/>
<feColorMatrix type="matrix" values="0 0 0 0 0.118 0 0 0 0 0.157 0 0 0 0 0.133 0 0 0 0.08 0"/>
<feBlend mode="normal" in2="effect1_dropShadow_156_4820" result="effect2_dropShadow_156_4820"/>
<feBlend mode="normal" in="SourceGraphic" in2="effect2_dropShadow_156_4820" result="shape"/>
</filter>
<filter id="filter1_dd_156_4820" x="0" y="240.959" width="409.342" height="118.974" filterUnits="userSpaceOnUse" color-interpolation-filters="sRGB">
<feFlood flood-opacity="0" result="BackgroundImageFix"/>
<feColorMatrix in="SourceAlpha" type="matrix" values="0 0 0 0 0 0 0 0 0 0 0 0 0 0 0 0 0 0 127 0" result="hardAlpha"/>
<feOffset dy="8"/>
<feGaussianBlur stdDeviation="16"/>
<feColorMatrix type="matrix" values="0 0 0 0 0.118 0 0 0 0 0.157 0 0 0 0 0.133 0 0 0 0.16 0"/>
<feBlend mode="normal" in2="BackgroundImageFix" result="effect1_dropShadow_156_4820"/>
<feColorMatrix in="SourceAlpha" type="matrix" values="0 0 0 0 0 0 0 0 0 0 0 0 0 0 0 0 0 0 127 0" result="hardAlpha"/>
<feOffset dy="2"/>
<feGaussianBlur stdDeviation="4"/>
<feColorMatrix type="matrix" values="0 0 0 0 0.118 0 0 0 0 0.157 0 0 0 0 0.133 0 0 0 0.08 0"/>
<feBlend mode="normal" in2="effect1_dropShadow_156_4820" result="effect2_dropShadow_156_4820"/>
<feBlend mode="normal" in="SourceGraphic" in2="effect2_dropShadow_156_4820" result="shape"/>
</filter>
<filter id="filter2_dd_156_4820" x="0" y="351.927" width="409.342" height="118.974" filterUnits="userSpaceOnUse" color-interpolation-filters="sRGB">
<feFlood flood-opacity="0" result="BackgroundImageFix"/>
<feColorMatrix in="SourceAlpha" type="matrix" values="0 0 0 0 0 0 0 0 0 0 0 0 0 0 0 0 0 0 127 0" result="hardAlpha"/>
<feOffset dy="8"/>
<feGaussianBlur stdDeviation="16"/>
<feColorMatrix type="matrix" values="0 0 0 0 0.118 0 0 0 0 0.157 0 0 0 0 0.133 0 0 0 0.16 0"/>
<feBlend mode="normal" in2="BackgroundImageFix" result="effect1_dropShadow_156_4820"/>
<feColorMatrix in="SourceAlpha" type="matrix" values="0 0 0 0 0 0 0 0 0 0 0 0 0 0 0 0 0 0 127 0" result="hardAlpha"/>
<feOffset dy="2"/>
<feGaussianBlur stdDeviation="4"/>
<feColorMatrix type="matrix" values="0 0 0 0 0.118 0 0 0 0 0.157 0 0 0 0 0.133 0 0 0 0.08 0"/>
<feBlend mode="normal" in2="effect1_dropShadow_156_4820" result="effect2_dropShadow_156_4820"/>
<feBlend mode="normal" in="SourceGraphic" in2="effect2_dropShadow_156_4820" result="shape"/>
</filter>
<filter id="filter3_dd_156_4820" x="39.9702" y="467.381" width="120" height="110" filterUnits="userSpaceOnUse" color-interpolation-filters="sRGB">
<feFlood flood-opacity="0" result="BackgroundImageFix"/>
<feColorMatrix in="SourceAlpha" type="matrix" values="0 0 0 0 0 0 0 0 0 0 0 0 0 0 0 0 0 0 127 0" result="hardAlpha"/>
<feOffset dy="8"/>
<feGaussianBlur stdDeviation="16"/>
<feColorMatrix type="matrix" values="0 0 0 0 0.118 0 0 0 0 0.157 0 0 0 0 0.133 0 0 0 0.16 0"/>
<feBlend mode="normal" in2="BackgroundImageFix" result="effect1_dropShadow_156_4820"/>
<feColorMatrix in="SourceAlpha" type="matrix" values="0 0 0 0 0 0 0 0 0 0 0 0 0 0 0 0 0 0 127 0" result="hardAlpha"/>
<feOffset dy="2"/>
<feGaussianBlur stdDeviation="4"/>
<feColorMatrix type="matrix" values="0 0 0 0 0.118 0 0 0 0 0.157 0 0 0 0 0.133 0 0 0 0.08 0"/>
<feBlend mode="normal" in2="effect1_dropShadow_156_4820" result="effect2_dropShadow_156_4820"/>
<feBlend mode="normal" in="SourceGraphic" in2="effect2_dropShadow_156_4820" result="shape"/>
</filter>
<filter id="filter4_dd_156_4820" x="36.6709" y="559.868" width="336" height="68" filterUnits="userSpaceOnUse" color-interpolation-filters="sRGB">
<feFlood flood-opacity="0" result="BackgroundImageFix"/>
<feColorMatrix in="SourceAlpha" type="matrix" values="0 0 0 0 0 0 0 0 0 0 0 0 0 0 0 0 0 0 127 0" result="hardAlpha"/>
<feOffset dy="2"/>
<feGaussianBlur stdDeviation="4"/>
<feColorMatrix type="matrix" values="0 0 0 0 0.118 0 0 0 0 0.157 0 0 0 0 0.133 0 0 0 0.09 0"/>
<feBlend mode="normal" in2="BackgroundImageFix" result="effect1_dropShadow_156_4820"/>
<feColorMatrix in="SourceAlpha" type="matrix" values="0 0 0 0 0 0 0 0 0 0 0 0 0 0 0 0 0 0 127 0" result="hardAlpha"/>
<feOffset dy="1"/>
<feGaussianBlur stdDeviation="1"/>
<feColorMatrix type="matrix" values="0 0 0 0 0.118 0 0 0 0 0.157 0 0 0 0 0.133 0 0 0 0.04 0"/>
<feBlend mode="normal" in2="effect1_dropShadow_156_4820" result="effect2_dropShadow_156_4820"/>
<feBlend mode="normal" in="SourceGraphic" in2="effect2_dropShadow_156_4820" result="shape"/>
</filter>
<clipPath id="clip0_156_4820">
<path d="M44.6709 577.868C44.6709 571.241 50.0435 565.868 56.6709 565.868H352.671C359.298 565.868 364.671 571.241 364.671 577.868V605.868C364.671 612.496 359.298 617.868 352.671 617.868H56.6709C50.0435 617.868 44.6709 612.496 44.6709 605.868V577.868Z" fill="white"/>
</clipPath>
<clipPath id="clip1_156_4820">
<rect width="89.9996" height="7.99554" fill="white" transform="translate(159.669 21.9966)"/>
</clipPath>
</defs>
</svg>
