<svg width="410" height="700" viewBox="0 0 410 700" fill="none" xmlns="http://www.w3.org/2000/svg">
<g id="Property 1=age_dropdown">
<path d="M8.00146 16C8.00146 7.16342 15.1649 0 24.0015 0H385.001C393.838 0 401.001 7.16344 401.001 16V680.82H8.00146V16Z" fill="#F5F3EE"/>
<g id="Frame 62">
<g id="Heading 2">
<path id="&#236;&#151;&#172;&#237;&#150;&#137; &#236;&#160;&#149;&#235;&#179;&#180;&#235;&#165;&#188; &#236;&#158;&#133;&#235;&#160;&#165;&#237;&#149;&#180;&#236;&#163;&#188;&#236;&#132;&#184;&#236;&#154;&#148;" d="M38.1553 73.9102C39.917 73.9102 41.3672 74.8877 42.2373 76.5957H46.7705V72.4922H49.1338V91.9355H46.7705V84.5879H42.4092C41.5713 86.5215 40.0352 87.6387 38.1553 87.6387C35.2334 87.6387 33.1709 84.9961 33.1709 80.7637C33.1709 76.5742 35.2334 73.9102 38.1553 73.9102ZM38.1553 76.0586C36.5439 76.0586 35.4482 77.7988 35.4697 80.7637C35.4482 83.75 36.5439 85.4902 38.1553 85.4902C39.7666 85.4902 40.8408 83.75 40.8623 80.7637C40.8408 77.7988 39.7666 76.0586 38.1553 76.0586ZM42.9033 78.5508C43.043 79.2275 43.1182 79.9688 43.1182 80.7637C43.1182 81.4404 43.0645 82.0635 42.9678 82.6543H46.7705V78.5508H42.9033ZM68.4697 72.4922V84.6953H66.1924V79.4102H64.3018V84.0508H62.0674V72.8789H64.3018V77.4766H66.1924V72.4922H68.4697ZM61.4229 74.5977V76.4668H51.7549V74.5977H55.4287V72.6641H57.792V74.5977H61.4229ZM56.6104 77.2617C59.0811 77.2617 60.8213 78.5938 60.8428 80.6133C60.8213 82.6328 59.0811 83.9648 56.6104 83.9648C54.1826 83.9648 52.4209 82.6328 52.4424 80.6133C52.4209 78.5938 54.1826 77.2617 56.6104 77.2617ZM56.6104 78.9805C55.4072 78.9805 54.5693 79.6035 54.5693 80.6133C54.5693 81.623 55.3857 82.2461 56.6104 82.2461C57.835 82.2461 58.6729 81.623 58.6729 80.6133C58.6729 79.6035 57.835 78.9805 56.6104 78.9805ZM61.917 84.9316C66.0635 84.9316 68.5557 86.1992 68.5771 88.4336C68.5557 90.625 66.0635 91.8926 61.917 91.8926C57.7705 91.8926 55.2568 90.625 55.2568 88.4336C55.2568 86.1992 57.7705 84.9316 61.917 84.9316ZM61.917 86.7578C59.1455 86.7363 57.6416 87.2949 57.6416 88.4336C57.6416 89.5078 59.1455 90.0664 61.917 90.0664C64.667 90.0664 66.1709 89.5078 66.1709 88.4336C66.1709 87.2949 64.667 86.7363 61.917 86.7578ZM92.3604 72.4922V84.0293H89.9756V79.2812H86.667V77.3262H89.9756V72.4922H92.3604ZM85.7861 84.5234C89.9111 84.5234 92.4248 85.877 92.4248 88.2188C92.4248 90.5605 89.9111 91.9141 85.7861 91.9141C81.6826 91.9141 79.1689 90.5605 79.1904 88.2188C79.1689 85.877 81.6826 84.5234 85.7861 84.5234ZM85.7861 86.3496C83.0791 86.3496 81.5537 86.9941 81.5537 88.2188C81.5537 89.4219 83.0791 90.0664 85.7861 90.0664C88.4932 90.0664 90.04 89.4219 90.04 88.2188C90.04 86.9941 88.4932 86.3496 85.7861 86.3496ZM83.2295 75.8223C83.2295 78.1855 84.7979 80.5703 87.8057 81.5801L86.6025 83.4707C84.4434 82.7402 82.9072 81.2578 82.0693 79.4316C81.21 81.5049 79.5879 83.1592 77.2783 83.9863L76.0322 82.0957C79.1475 81.0215 80.8018 78.4004 80.8018 75.8438V75.6934H76.7627V73.7598H87.2471V75.6934H83.2295V75.8223ZM112.856 87.6172V89.5723H95.1104V87.6172H102.759V83.8359H97.0654V73.7812H99.4502V76.9609H108.452V73.7812H110.837V83.8359H105.122V87.6172H112.856ZM99.4502 81.9023H108.452V78.873H99.4502V81.9023ZM131.849 81.3008V83.1055H114.103V81.3008H131.849ZM129.7 84.2656V88.6914H118.571V90.0449H130.28V91.6992H116.187V87.1445H127.337V85.9414H116.165V84.2656H129.7ZM129.657 72.9219V77.3047H118.722V78.5723H130.001V80.2051H116.358V75.7578H127.272V74.5762H116.294V72.9219H129.657ZM154.536 72.4922V82.9121H152.13V72.4922H154.536ZM144.052 83.8145V85.8125H152.151V83.8145H154.536V91.6777H141.688V83.8145H144.052ZM144.052 89.7441H152.151V87.6816H144.052V89.7441ZM143.944 73.3516C146.931 73.3301 149.165 75.1992 149.165 77.9062C149.165 80.5488 146.931 82.418 143.944 82.418C140.937 82.418 138.702 80.5488 138.702 77.9062C138.702 75.1992 140.937 73.3301 143.944 73.3516ZM143.944 75.3496C142.247 75.3496 141.022 76.3379 141.044 77.9062C141.022 79.4531 142.247 80.4414 143.944 80.4629C145.62 80.4414 146.823 79.4531 146.823 77.9062C146.823 76.3379 145.62 75.3496 143.944 75.3496ZM166.653 73.6523V79.4961H160.53V81.8809C163.646 81.8916 165.439 81.7949 167.491 81.4082L167.728 83.3418C165.407 83.7285 163.388 83.793 159.585 83.793H158.167V77.7129H164.269V75.543H158.124V73.6523H166.653ZM173.636 72.5137V84.459H171.251V81.2578H167.813V79.3457H171.251V77.1758H167.813V75.2637H171.251V72.5137H173.636ZM173.636 85.3828V91.9141H171.251V87.2949H160.358V85.3828H173.636ZM185.86 75.5859V77.498H176.343V75.5859H179.952V73.0508H182.315V75.5859H185.86ZM181.134 78.5293C183.604 78.5293 185.366 80.3984 185.366 83.041C185.366 85.7266 183.604 87.6172 181.134 87.6172C178.685 87.6172 176.88 85.7266 176.901 83.041C176.88 80.3984 178.685 78.5293 181.134 78.5293ZM181.134 80.5059C179.866 80.5059 178.985 81.5156 179.007 83.041C178.985 84.6094 179.866 85.5977 181.134 85.5762C182.38 85.5977 183.261 84.6094 183.261 83.041C183.261 81.5156 182.38 80.5059 181.134 80.5059ZM193.079 72.4922V91.9141H190.802V82.418H188.911V91.0332H186.677V72.9004H188.911V80.4844H190.802V72.4922H193.079ZM213.103 83.3203V85.2539H205.39V91.8926H203.026V85.2539H195.399V83.3203H213.103ZM211.47 73.5879V75.4785H205.647C205.787 77.6055 208.344 79.6465 212.179 80.1406L211.319 82.0098C208.011 81.5479 205.433 80.0332 204.251 77.9277C203.069 80.0332 200.491 81.5479 197.226 82.0098L196.323 80.1406C200.137 79.6465 202.693 77.6055 202.876 75.4785H197.032V73.5879H211.47ZM220.472 77.584C220.472 80.7207 221.567 83.9863 224.188 85.6406L222.878 87.4668C221.127 86.4141 219.988 84.5986 219.354 82.4609C218.646 84.8135 217.399 86.8008 215.573 87.918L214.091 86.1348C216.905 84.416 218.173 81 218.173 77.6914V74.2109H220.472V77.584ZM231.171 72.4922V91.9141H228.872V72.4922H231.171ZM227.132 72.8359V90.9688H224.876V81.1504H222.104V79.1738H224.876V72.8359H227.132ZM251.173 87.5957V89.5508H233.427V87.5957H237.53V82.6758C235.983 81.7949 235.049 80.4092 235.06 78.6797C235.038 75.5859 238.089 73.5449 242.257 73.5449C246.446 73.5449 249.497 75.5859 249.497 78.6797C249.497 80.377 248.595 81.7412 247.091 82.6328V87.5957H251.173ZM242.257 75.4355C239.356 75.4355 237.38 76.6602 237.401 78.6797C237.38 80.6777 239.356 81.9238 242.257 81.9238C245.157 81.9238 247.155 80.6777 247.155 78.6797C247.155 76.6602 245.157 75.4355 242.257 75.4355ZM239.894 87.5957H244.663V83.5352C243.922 83.707 243.116 83.793 242.257 83.793C241.419 83.793 240.624 83.707 239.894 83.5566V87.5957Z" fill="#1A1A1A"/>
</g>
<g id="Container">
<g id="GuestsField">
<g id="Paragraph">
<path id="&#236;&#157;&#184;&#236;&#155;&#144;" d="M42.7051 357.726H41.1738V348.798H42.7051V357.726ZM43.0469 360.897H34.5293V356.823H36.0605V359.667H43.0469V360.897ZM35.9648 349.604C36.5846 349.604 37.1475 349.739 37.6533 350.008C38.1592 350.272 38.5579 350.639 38.8496 351.108C39.1413 351.578 39.2871 352.106 39.2871 352.694C39.2871 353.291 39.1413 353.827 38.8496 354.301C38.5579 354.77 38.1592 355.137 37.6533 355.401C37.1475 355.666 36.5846 355.798 35.9648 355.798C35.3405 355.798 34.7731 355.666 34.2627 355.401C33.7568 355.137 33.3581 354.77 33.0664 354.301C32.7747 353.827 32.6289 353.291 32.6289 352.694C32.6289 352.106 32.7747 351.578 33.0664 351.108C33.3581 350.639 33.7568 350.272 34.2627 350.008C34.7731 349.739 35.3405 349.604 35.9648 349.604ZM35.9648 350.931C35.6139 350.931 35.2972 351.004 35.0146 351.149C34.7321 351.295 34.5111 351.503 34.3516 351.771C34.1921 352.04 34.1146 352.348 34.1191 352.694C34.1146 353.05 34.1921 353.362 34.3516 353.631C34.5111 353.9 34.7321 354.107 35.0146 354.253C35.2972 354.399 35.6139 354.472 35.9648 354.472C36.3066 354.472 36.6165 354.399 36.8945 354.253C37.1725 354.107 37.3913 353.9 37.5508 353.631C37.7148 353.362 37.7969 353.05 37.7969 352.694C37.7969 352.348 37.7148 352.04 37.5508 351.771C37.3913 351.503 37.1725 351.295 36.8945 351.149C36.6165 351.004 36.3066 350.931 35.9648 350.931ZM54.873 358.149H53.3418V357.069H50.9219V356.003H53.3418V348.798H54.873V358.149ZM55.1602 360.897H46.0957V357.247H47.6133V359.667H55.1602V360.897ZM44.4551 354.349C46.0592 354.34 47.4993 354.312 48.7754 354.267C50.0514 354.221 51.2682 354.125 52.4258 353.979L52.5078 355.073C51.5189 355.237 50.4798 355.356 49.3906 355.429V357.808H47.873V355.511C46.9935 355.547 45.918 355.565 44.6465 355.565L44.4551 354.349ZM48.4883 349.249C49.0853 349.249 49.6139 349.342 50.0742 349.529C50.5391 349.712 50.9014 349.969 51.1611 350.302C51.4255 350.63 51.5599 351.008 51.5645 351.437C51.5599 351.874 51.4277 352.257 51.168 352.585C50.9082 352.913 50.5459 353.166 50.0811 353.344C49.6162 353.521 49.0853 353.61 48.4883 353.61C47.8822 353.61 47.3444 353.521 46.875 353.344C46.4102 353.166 46.0479 352.913 45.7881 352.585C45.5283 352.257 45.3984 351.874 45.3984 351.437C45.3984 351.008 45.5283 350.63 45.7881 350.302C46.0479 349.969 46.4102 349.712 46.875 349.529C47.3444 349.342 47.8822 349.249 48.4883 349.249ZM48.4883 350.37C47.9915 350.37 47.5905 350.466 47.2852 350.657C46.9844 350.844 46.834 351.104 46.834 351.437C46.834 351.769 46.9844 352.031 47.2852 352.223C47.5905 352.41 47.9915 352.503 48.4883 352.503C48.9668 352.503 49.3564 352.407 49.6572 352.216C49.958 352.024 50.1107 351.765 50.1152 351.437C50.1107 351.108 49.958 350.849 49.6572 350.657C49.3564 350.466 48.9668 350.37 48.4883 350.37Z" fill="#4A4A4A"/>
</g>
<g id="Frame 61">
<g id="Button" filter="url(#filter0_dd_156_5237)">
<path d="M32 391.924C32 383.087 39.1634 375.924 48 375.924H361.342C370.178 375.924 377.342 383.087 377.342 391.924V414.898C377.342 423.734 370.178 430.898 361.342 430.898H48C39.1635 430.898 32 423.734 32 414.898V391.924Z" fill="#FAFAF7"/>
<path d="M48 376.424H361.342C369.902 376.424 376.842 383.363 376.842 391.924V414.897C376.842 423.458 369.902 430.397 361.342 430.397H48C39.4396 430.397 32.5 423.458 32.5 414.897V391.924C32.5 383.363 39.4396 376.424 48 376.424Z" stroke="#E2DDD5"/>
<g id="Paragraph_2">
<path id="&#236;&#132;&#177;&#236;&#157;&#184; 2&#235;&#170;&#133;, &#236;&#149;&#132;&#235;&#143;&#153; 1&#235;&#170;&#133;" d="M54.2881 398.375C54.2832 398.985 54.3979 399.561 54.6323 400.103C54.8667 400.645 55.2183 401.124 55.687 401.539C56.1606 401.949 56.7344 402.261 57.4082 402.476L56.5293 403.75C55.8164 403.501 55.2061 403.145 54.6982 402.681C54.1953 402.217 53.7998 401.666 53.5117 401.026C53.2139 401.763 52.7866 402.403 52.23 402.945C51.6733 403.482 51.002 403.887 50.2158 404.161L49.3516 402.842C50.0645 402.608 50.6675 402.269 51.1606 401.824C51.6538 401.38 52.0249 400.867 52.2739 400.286C52.5229 399.705 52.6475 399.092 52.6475 398.448V397.188H54.2881V398.375ZM60.5283 404.263H58.9023V400.367H56.2656V399.034H58.9023V396.47H60.5283V404.263ZM56.0459 404.615C56.9785 404.615 57.7842 404.715 58.4629 404.915C59.1465 405.115 59.6689 405.408 60.0303 405.794C60.3916 406.175 60.5723 406.631 60.5723 407.164C60.5723 407.696 60.3916 408.152 60.0303 408.533C59.6689 408.914 59.1489 409.202 58.4702 409.397C57.7915 409.598 56.9834 409.698 56.0459 409.698C55.1133 409.698 54.3076 409.598 53.6289 409.397C52.9551 409.202 52.4375 408.914 52.0762 408.533C51.7197 408.152 51.5439 407.696 51.5488 407.164C51.5439 406.631 51.7197 406.175 52.0762 405.794C52.4375 405.408 52.9575 405.115 53.6362 404.915C54.3149 404.715 55.1182 404.615 56.0459 404.615ZM56.0459 405.875C55.1182 405.875 54.4053 405.987 53.9072 406.211C53.4092 406.431 53.1602 406.749 53.1602 407.164C53.1602 407.569 53.4092 407.881 53.9072 408.101C54.4102 408.316 55.123 408.423 56.0459 408.423C56.9688 408.423 57.6816 408.313 58.1846 408.094C58.6924 407.874 58.9463 407.564 58.9463 407.164C58.9463 406.749 58.6948 406.431 58.1919 406.211C57.689 405.987 56.9736 405.875 56.0459 405.875ZM73.4336 406.05H71.793V396.485H73.4336V406.05ZM73.7998 409.449H64.6738V405.083H66.3145V408.13H73.7998V409.449ZM66.2119 397.349C66.876 397.349 67.479 397.493 68.021 397.781C68.563 398.064 68.9902 398.458 69.3027 398.96C69.6152 399.463 69.7715 400.03 69.7715 400.66C69.7715 401.299 69.6152 401.873 69.3027 402.381C68.9902 402.884 68.563 403.277 68.021 403.56C67.479 403.843 66.876 403.985 66.2119 403.985C65.543 403.985 64.9351 403.843 64.3882 403.56C63.8462 403.277 63.4189 402.884 63.1064 402.381C62.7939 401.873 62.6377 401.299 62.6377 400.66C62.6377 400.03 62.7939 399.463 63.1064 398.96C63.4189 398.458 63.8462 398.064 64.3882 397.781C64.9351 397.493 65.543 397.349 66.2119 397.349ZM66.2119 398.77C65.8359 398.77 65.4966 398.848 65.1938 399.004C64.8911 399.161 64.6543 399.383 64.4834 399.671C64.3125 399.959 64.2295 400.289 64.2344 400.66C64.2295 401.041 64.3125 401.375 64.4834 401.663C64.6543 401.951 64.8911 402.173 65.1938 402.33C65.4966 402.486 65.8359 402.564 66.2119 402.564C66.5781 402.564 66.9102 402.486 67.208 402.33C67.5059 402.173 67.7402 401.951 67.9111 401.663C68.0869 401.375 68.1748 401.041 68.1748 400.66C68.1748 400.289 68.0869 399.959 67.9111 399.671C67.7402 399.383 67.5059 399.161 67.208 399.004C66.9102 398.848 66.5781 398.77 66.2119 398.77ZM79.3662 407.032L83.1162 403.414C83.5215 403.008 83.834 402.676 84.0537 402.417C84.2783 402.154 84.4492 401.895 84.5664 401.641C84.6836 401.382 84.7422 401.109 84.7422 400.821C84.7422 400.499 84.6641 400.215 84.5078 399.971C84.3516 399.727 84.1343 399.539 83.856 399.407C83.5825 399.275 83.2725 399.209 82.9258 399.209C82.5645 399.209 82.2471 399.283 81.9736 399.429C81.7051 399.571 81.4976 399.776 81.3511 400.044C81.2046 400.308 81.1338 400.616 81.1387 400.967H79.3223C79.3174 400.308 79.4688 399.729 79.7764 399.231C80.084 398.729 80.5112 398.34 81.0581 398.067C81.6099 397.793 82.2373 397.657 82.9404 397.657C83.6533 397.657 84.2832 397.789 84.8301 398.052C85.3818 398.316 85.8091 398.682 86.1118 399.151C86.4194 399.615 86.5732 400.142 86.5732 400.733C86.5732 401.143 86.4927 401.539 86.3315 401.919C86.1753 402.3 85.9067 402.723 85.5259 403.187C85.145 403.646 84.6055 404.205 83.9072 404.864L82.0176 406.739V406.812H86.7344V408.409H79.3662V407.032ZM99.0537 404.263H97.4277V402.432H94.7617V403.458H88.5361V397.466H94.7617V398.492H97.4277V396.47H99.0537V404.263ZM90.1621 402.154H93.1504V398.755H90.1621V402.154ZM94.5713 404.615C95.5039 404.615 96.3096 404.715 96.9883 404.915C97.6719 405.115 98.1943 405.408 98.5557 405.794C98.917 406.175 99.0977 406.631 99.0977 407.164C99.0977 407.696 98.917 408.152 98.5557 408.533C98.1943 408.914 97.6743 409.202 96.9956 409.397C96.3169 409.598 95.5088 409.698 94.5713 409.698C93.6387 409.698 92.833 409.598 92.1543 409.397C91.4805 409.202 90.9629 408.914 90.6016 408.533C90.2451 408.152 90.0693 407.696 90.0742 407.164C90.0693 406.631 90.2451 406.175 90.6016 405.794C90.9629 405.408 91.4829 405.115 92.1616 404.915C92.8403 404.715 93.6436 404.615 94.5713 404.615ZM94.5713 405.86C93.6436 405.86 92.9307 405.972 92.4326 406.197C91.9346 406.417 91.6855 406.739 91.6855 407.164C91.6855 407.574 91.9346 407.889 92.4326 408.108C92.9355 408.328 93.6484 408.438 94.5713 408.438C95.499 408.438 96.2144 408.328 96.7173 408.108C97.2202 407.889 97.4717 407.574 97.4717 407.164C97.4717 406.739 97.2202 406.417 96.7173 406.197C96.2144 405.972 95.499 405.86 94.5713 405.86ZM97.4277 401.114V399.781H94.7617V401.114H97.4277ZM102.276 411.47H100.885L101.646 407.369H103.507L102.276 411.47ZM111.871 397.437C112.535 397.437 113.126 397.63 113.644 398.016C114.161 398.396 114.566 398.941 114.859 399.649C115.157 400.352 115.309 401.172 115.313 402.11C115.309 403.057 115.157 403.885 114.859 404.593C114.566 405.301 114.161 405.845 113.644 406.226C113.126 406.607 112.535 406.797 111.871 406.797C111.202 406.797 110.606 406.607 110.084 406.226C109.562 405.84 109.154 405.293 108.861 404.585C108.568 403.877 108.424 403.052 108.429 402.11C108.424 401.177 108.568 400.357 108.861 399.649C109.154 398.941 109.562 398.396 110.084 398.016C110.606 397.63 111.202 397.437 111.871 397.437ZM111.871 398.902C111.5 398.902 111.173 399.031 110.89 399.29C110.606 399.544 110.387 399.913 110.23 400.396C110.074 400.875 109.996 401.446 109.996 402.11C109.996 402.779 110.074 403.355 110.23 403.838C110.387 404.322 110.606 404.693 110.89 404.952C111.173 405.206 111.5 405.333 111.871 405.333C112.247 405.333 112.577 405.206 112.86 404.952C113.143 404.693 113.36 404.322 113.512 403.838C113.668 403.355 113.746 402.779 113.746 402.11C113.746 401.446 113.668 400.872 113.512 400.389C113.36 399.905 113.143 399.537 112.86 399.283C112.577 399.029 112.247 398.902 111.871 398.902ZM118.683 401.553H120.719V402.93H118.683V409.712H117.057V396.47H118.683V401.553ZM133.36 404.117H121.275V402.813H126.52V401.553H122.755V397.071H131.896V398.345H124.381V400.264H131.969V401.553H128.116V402.813H133.36V404.117ZM127.296 404.878C128.248 404.878 129.066 404.974 129.75 405.164C130.433 405.35 130.958 405.623 131.324 405.984C131.69 406.346 131.876 406.783 131.881 407.295C131.876 407.803 131.69 408.238 131.324 408.599C130.958 408.96 130.431 409.236 129.742 409.427C129.059 409.617 128.243 409.712 127.296 409.712C126.339 409.712 125.514 409.617 124.82 409.427C124.127 409.236 123.597 408.96 123.231 408.599C122.865 408.238 122.682 407.803 122.682 407.295C122.682 406.783 122.865 406.346 123.231 405.984C123.597 405.623 124.125 405.35 124.813 405.164C125.506 404.974 126.334 404.878 127.296 404.878ZM127.296 406.124C126.329 406.124 125.592 406.224 125.084 406.424C124.581 406.624 124.332 406.915 124.337 407.295C124.332 407.676 124.581 407.964 125.084 408.16C125.587 408.355 126.324 408.453 127.296 408.453C128.248 408.453 128.978 408.355 129.486 408.16C129.994 407.964 130.25 407.676 130.255 407.295C130.25 406.915 129.991 406.624 129.479 406.424C128.971 406.224 128.243 406.124 127.296 406.124ZM142.545 408.409H140.626V399.664H140.567L138.092 401.246V399.502L140.714 397.803H142.545V408.409ZM155.772 404.263H154.146V402.432H151.48V403.458H145.255V397.466H151.48V398.492H154.146V396.47H155.772V404.263ZM146.881 402.154H149.869V398.755H146.881V402.154ZM151.29 404.615C152.223 404.615 153.028 404.715 153.707 404.915C154.391 405.115 154.913 405.408 155.274 405.794C155.636 406.175 155.816 406.631 155.816 407.164C155.816 407.696 155.636 408.152 155.274 408.533C154.913 408.914 154.393 409.202 153.714 409.397C153.036 409.598 152.228 409.698 151.29 409.698C150.357 409.698 149.552 409.598 148.873 409.397C148.199 409.202 147.682 408.914 147.32 408.533C146.964 408.152 146.788 407.696 146.793 407.164C146.788 406.631 146.964 406.175 147.32 405.794C147.682 405.408 148.202 405.115 148.88 404.915C149.559 404.715 150.362 404.615 151.29 404.615ZM151.29 405.86C150.362 405.86 149.649 405.972 149.151 406.197C148.653 406.417 148.404 406.739 148.404 407.164C148.404 407.574 148.653 407.889 149.151 408.108C149.654 408.328 150.367 408.438 151.29 408.438C152.218 408.438 152.933 408.328 153.436 408.108C153.939 407.889 154.19 407.574 154.19 407.164C154.19 406.739 153.939 406.417 153.436 406.197C152.933 405.972 152.218 405.86 151.29 405.86ZM154.146 401.114V399.781H151.48V401.114H154.146Z" fill="#1A1A1A"/>
</g>
</g>
<g id="Container_2" filter="url(#filter1_dd_156_5237)">
<path d="M32 462.897C32 454.061 39.1634 446.897 48 446.897H361.345C370.182 446.897 377.345 454.061 377.345 462.897V643.892C377.345 652.729 370.182 659.892 361.345 659.892H48C39.1634 659.892 32 652.729 32 643.892V462.897Z" fill="#FAFAF7"/>
<path d="M48 447.397H361.346C369.906 447.398 376.846 454.337 376.846 462.897V643.893C376.846 652.453 369.906 659.392 361.346 659.393H48C39.4396 659.393 32.5001 652.453 32.5 643.893V462.897C32.5 454.337 39.4396 447.397 48 447.397Z" stroke="#E2DDD5"/>
<g id="Container_3">
<g id="Text">
<path id="&#236;&#132;&#177;&#236;&#157;&#184;" d="M61.2881 483.866C61.2734 485.667 62.3281 487.308 64.4082 487.967L63.5293 489.242C62.0864 488.736 61.0757 487.777 60.5117 486.517C59.9258 487.96 58.8198 489.095 57.2158 489.652L56.3516 488.333C58.5488 487.616 59.6475 485.843 59.6475 483.939V482.679H61.2881V483.866ZM67.5283 481.961V489.754H65.9023V485.858H63.2656V484.525H65.9023V481.961H67.5283ZM63.0459 490.106C65.8584 490.106 67.5723 491.043 67.5723 492.655C67.5723 494.266 65.8584 495.189 63.0459 495.189C60.248 495.189 58.5342 494.266 58.5488 492.655C58.5342 491.043 60.248 490.106 63.0459 490.106ZM63.0459 491.366C61.2002 491.366 60.1602 491.82 60.1602 492.655C60.1602 493.46 61.2002 493.915 63.0459 493.915C64.8916 493.915 65.9463 493.46 65.9463 492.655C65.9463 491.82 64.8916 491.366 63.0459 491.366ZM80.4336 481.976V491.542H78.793V481.976H80.4336ZM80.7998 493.622V494.94H71.6738V490.575H73.3145V493.622H80.7998ZM73.2119 482.84C75.2188 482.84 76.7715 484.232 76.7715 486.151C76.7715 488.114 75.2188 489.476 73.2119 489.476C71.1904 489.476 69.6377 488.114 69.6377 486.151C69.6377 484.232 71.1904 482.84 73.2119 482.84ZM73.2119 484.261C72.084 484.261 71.2197 485.008 71.2344 486.151C71.2197 487.323 72.084 488.055 73.2119 488.055C74.3105 488.055 75.1748 487.323 75.1748 486.151C75.1748 485.008 74.3105 484.261 73.2119 484.261Z" fill="#1A1A1A"/>
</g>
<g id="Container_4">
<g id="Button_2">
<mask id="path-10-inside-1_156_5237" fill="white">
<path d="M209.378 488.896C209.378 478.956 217.437 470.897 227.377 470.897C237.318 470.897 245.376 478.956 245.376 488.896C245.376 498.837 237.318 506.895 227.377 506.895C217.437 506.895 209.378 498.837 209.378 488.896Z"/>
</mask>
<path d="M227.377 506.895V505.397C218.264 505.397 210.877 498.009 210.877 488.896H209.378H207.88C207.88 499.664 216.609 508.393 227.377 508.393V506.895ZM245.376 488.896H243.877C243.877 498.009 236.49 505.397 227.377 505.397V506.895V508.393C238.145 508.393 246.874 499.664 246.874 488.896H245.376ZM227.377 470.897V472.396C236.49 472.396 243.877 479.783 243.877 488.896H245.376H246.874C246.874 478.128 238.145 469.399 227.377 469.399V470.897ZM227.377 470.897V469.399C216.609 469.399 207.88 478.128 207.88 488.896H209.378H210.877C210.877 479.783 218.264 472.396 227.377 472.396V470.897Z" fill="#E2DDD5" mask="url(#path-10-inside-1_156_5237)"/>
<g id="Icon">
<path id="Vector" d="M222.708 488.896H232.036" stroke="#888882" stroke-width="1.33259" stroke-linecap="round" stroke-linejoin="round"/>
</g>
</g>
<g id="Text_2">
<path id="2" d="M277.656 494.145V492.676L281.656 488.816C282.796 487.676 283.39 487.004 283.39 486.051C283.39 485.004 282.562 484.332 281.453 484.332C280.281 484.332 279.531 485.066 279.546 486.207H277.609C277.593 484.066 279.203 482.676 281.468 482.676C283.781 482.676 285.343 484.051 285.343 485.957C285.343 487.238 284.718 488.27 282.5 490.363L280.484 492.363V492.441H285.515V494.145H277.656Z" fill="#1A1A1A"/>
</g>
<g id="Button_3">
<mask id="path-14-inside-2_156_5237" fill="white">
<path d="M317.348 488.896C317.348 478.956 325.406 470.897 335.346 470.897C345.287 470.897 353.345 478.956 353.345 488.896C353.345 498.837 345.287 506.895 335.346 506.895C325.406 506.895 317.348 498.837 317.348 488.896Z"/>
</mask>
<path d="M335.346 506.895V505.397C326.234 505.397 318.846 498.009 318.846 488.896H317.348H315.849C315.849 499.664 324.578 508.393 335.346 508.393V506.895ZM353.345 488.896H351.847C351.847 498.009 344.459 505.397 335.346 505.397V506.895V508.393C346.114 508.393 354.844 499.664 354.844 488.896H353.345ZM335.346 470.897V472.396C344.459 472.396 351.847 479.783 351.847 488.896H353.345H354.844C354.844 478.128 346.114 469.399 335.346 469.399V470.897ZM335.346 470.897V469.399C324.578 469.399 315.849 478.128 315.849 488.896H317.348H318.846C318.846 479.783 326.234 472.396 335.346 472.396V470.897Z" fill="#E2DDD5" mask="url(#path-14-inside-2_156_5237)"/>
<g id="Icon_2">
<path id="Vector_2" d="M330.677 488.896H340.005" stroke="#888882" stroke-width="1.33259" stroke-linecap="round" stroke-linejoin="round"/>
<path id="Vector_3" d="M335.341 484.232V493.561" stroke="#888882" stroke-width="1.33259" stroke-linecap="round" stroke-linejoin="round"/>
</g>
</g>
</g>
</g>
<g id="Container_5">
<g id="Text_3">
<path id="&#236;&#149;&#132;&#235;&#143;&#153;" d="M59.999 544.925C61.9912 544.925 63.4268 546.742 63.4414 549.598C63.4268 552.484 61.9912 554.286 59.999 554.286C57.9922 554.286 56.542 552.484 56.5566 549.598C56.542 546.742 57.9922 544.925 59.999 544.925ZM59.999 546.39C58.8857 546.39 58.124 547.577 58.124 549.598C58.124 551.634 58.8857 552.821 59.999 552.821C61.127 552.821 61.874 551.634 61.874 549.598C61.874 547.577 61.127 546.39 59.999 546.39ZM66.8105 543.958V549.042H68.8467V550.418H66.8105V557.201H65.1846V543.958H66.8105ZM81.4883 550.301V551.605H69.4033V550.301H74.6475V549.042H70.8828V544.559H80.0234V545.833H72.5088V547.752H80.0967V549.042H76.2441V550.301H81.4883ZM75.4238 552.367C78.2803 552.367 79.9941 553.231 80.0088 554.784C79.9941 556.322 78.2803 557.201 75.4238 557.201C72.5381 557.201 70.8096 556.322 70.8096 554.784C70.8096 553.231 72.5381 552.367 75.4238 552.367ZM75.4238 553.612C73.4902 553.612 72.4502 554.022 72.4648 554.784C72.4502 555.545 73.4902 555.941 75.4238 555.941C77.3135 555.941 78.3682 555.545 78.3828 554.784C78.3682 554.022 77.3135 553.612 75.4238 553.612Z" fill="#1A1A1A"/>
</g>
<g id="Container_6">
<g id="Button_4">
<mask id="path-19-inside-3_156_5237" fill="white">
<path d="M209.378 550.894C209.378 540.953 217.437 532.895 227.377 532.895C237.318 532.895 245.376 540.953 245.376 550.894C245.376 560.834 237.318 568.893 227.377 568.893C217.437 568.893 209.378 560.834 209.378 550.894Z"/>
</mask>
<path d="M227.377 568.893V567.394C218.264 567.394 210.877 560.007 210.877 550.894H209.378H207.88C207.88 561.662 216.609 570.391 227.377 570.391V568.893ZM245.376 550.894H243.877C243.877 560.007 236.49 567.394 227.377 567.394V568.893V570.391C238.145 570.391 246.874 561.662 246.874 550.894H245.376ZM227.377 532.895V534.393C236.49 534.393 243.877 541.781 243.877 550.894H245.376H246.874C246.874 540.126 238.145 531.397 227.377 531.397V532.895ZM227.377 532.895V531.397C216.609 531.397 207.88 540.126 207.88 550.894H209.378H210.877C210.877 541.781 218.264 534.393 227.377 534.393V532.895Z" fill="#E2DDD5" mask="url(#path-19-inside-3_156_5237)"/>
<g id="Icon_3">
<path id="Vector_4" d="M222.708 550.894H232.036" stroke="#888882" stroke-width="1.33259" stroke-linecap="round" stroke-linejoin="round"/>
</g>
</g>
<g id="Text_4">
<path id="1" d="M283.545 544.83V556.142H281.499V546.814H281.436L278.795 548.501V546.642L281.592 544.83H283.545Z" fill="#1A1A1A"/>
</g>
<g id="Button_5">
<mask id="path-23-inside-4_156_5237" fill="white">
<path d="M317.348 550.894C317.348 540.953 325.406 532.895 335.346 532.895C345.287 532.895 353.345 540.953 353.345 550.894C353.345 560.834 345.287 568.893 335.346 568.893C325.406 568.893 317.348 560.834 317.348 550.894Z"/>
</mask>
<path d="M335.346 568.893V567.394C326.234 567.394 318.846 560.007 318.846 550.894H317.348H315.849C315.849 561.662 324.578 570.391 335.346 570.391V568.893ZM353.345 550.894H351.847C351.847 560.007 344.459 567.394 335.346 567.394V568.893V570.391C346.114 570.391 354.844 561.662 354.844 550.894H353.345ZM335.346 532.895V534.393C344.459 534.393 351.847 541.781 351.847 550.894H353.345H354.844C354.844 540.126 346.114 531.397 335.346 531.397V532.895ZM335.346 532.895V531.397C324.578 531.397 315.849 540.126 315.849 550.894H317.348H318.846C318.846 541.781 326.234 534.393 335.346 534.393V532.895Z" fill="#E2DDD5" mask="url(#path-23-inside-4_156_5237)"/>
<g id="Icon_4">
<path id="Vector_5" d="M330.677 550.894H340.005" stroke="#888882" stroke-width="1.33259" stroke-linecap="round" stroke-linejoin="round"/>
<path id="Vector_6" d="M335.341 546.23V555.558" stroke="#888882" stroke-width="1.33259" stroke-linecap="round" stroke-linejoin="round"/>
</g>
</g>
</g>
</g>
<line id="Line 4" x1="55.9985" y1="582.63" x2="348.999" y2="582.63" stroke="#888882" stroke-width="0.5"/>
<g id="Container_7">
<g id="Container_8">
<g id="Text_5">
<path id="&#236;&#149;&#132;&#235;&#143;&#153;1" d="M70.06 609.294C70.6853 609.294 71.236 609.476 71.712 609.84C72.188 610.194 72.5613 610.703 72.832 611.366C73.1027 612.028 73.238 612.808 73.238 613.704C73.238 614.6 73.1027 615.379 72.832 616.042C72.5613 616.704 72.188 617.218 71.712 617.582C71.236 617.946 70.6853 618.128 70.06 618.128C69.444 618.128 68.8933 617.946 68.408 617.582C67.932 617.218 67.5587 616.704 67.288 616.042C67.0173 615.379 66.882 614.6 66.882 613.704C66.882 612.808 67.0173 612.028 67.288 611.366C67.5587 610.703 67.932 610.194 68.408 609.84C68.8933 609.476 69.444 609.294 70.06 609.294ZM70.06 610.33C69.6587 610.33 69.2993 610.47 68.982 610.75C68.674 611.02 68.4313 611.412 68.254 611.926C68.0767 612.43 67.988 613.022 67.988 613.704C67.988 614.385 68.0767 614.982 68.254 615.496C68.4313 616 68.674 616.392 68.982 616.672C69.2993 616.952 69.6633 617.092 70.074 617.092C70.4753 617.092 70.83 616.952 71.138 616.672C71.4553 616.392 71.698 616 71.866 615.496C72.0433 614.982 72.132 614.385 72.132 613.704C72.132 613.022 72.0433 612.43 71.866 611.926C71.698 611.412 71.4553 611.02 71.138 610.75C70.83 610.47 70.4707 610.33 70.06 610.33ZM75.268 608.314H76.43V620.984H75.268V608.314ZM76.164 613.368H78.502V614.348H76.164V613.368ZM79.5789 614.558H91.0309V615.496H79.5789V614.558ZM84.7309 612.528H85.8649V614.95H84.7309V612.528ZM81.0209 612.164H89.6869V613.102H81.0209V612.164ZM81.0209 608.902H89.6029V609.826H82.1689V612.724H81.0209V608.902ZM85.2909 616.406C86.6442 616.406 87.7036 616.606 88.4689 617.008C89.2342 617.4 89.6169 617.96 89.6169 618.688C89.6169 619.416 89.2342 619.976 88.4689 620.368C87.7036 620.769 86.6442 620.97 85.2909 620.97C83.9376 620.97 82.8736 620.769 82.0989 620.368C81.3336 619.976 80.9509 619.416 80.9509 618.688C80.9509 617.96 81.3336 617.4 82.0989 617.008C82.8736 616.606 83.9376 616.406 85.2909 616.406ZM85.2769 617.316C84.6236 617.316 84.0589 617.372 83.5829 617.484C83.1162 617.586 82.7569 617.74 82.5049 617.946C82.2529 618.142 82.1269 618.389 82.1269 618.688C82.1269 618.977 82.2529 619.224 82.5049 619.43C82.7569 619.635 83.1162 619.789 83.5829 619.892C84.0589 620.004 84.6236 620.06 85.2769 620.06C85.9489 620.06 86.5182 620.004 86.9849 619.892C87.4609 619.789 87.8249 619.635 88.0769 619.43C88.3289 619.224 88.4549 618.977 88.4549 618.688C88.4549 618.389 88.3289 618.142 88.0769 617.946C87.8249 617.74 87.4609 617.586 86.9849 617.484C86.5182 617.372 85.9489 617.316 85.2769 617.316ZM98.8604 618.846V619.892H92.8242V618.846H95.2783V611.436L93.1045 612.987V611.825L95.3809 610.26H96.5156V618.846H98.8604Z" fill="#888882"/>
</g>
<g id="Dropdown">
<mask id="path-29-inside-5_156_5237" fill="white">
<path d="M239.345 606.893C239.345 600.265 244.718 594.893 251.345 594.893H331.345C337.973 594.893 343.345 600.265 343.345 606.893V623.893C343.345 630.52 337.973 635.893 331.345 635.893H251.345C244.718 635.893 239.345 630.52 239.345 623.893V606.893Z"/>
</mask>
<path d="M251.345 594.893V596.391H331.345V594.893V593.394H251.345V594.893ZM343.345 606.893H341.847V623.893H343.345H344.844V606.893H343.345ZM331.345 635.893V634.394H251.345V635.893V637.391H331.345V635.893ZM239.345 623.893H240.844V606.893H239.345H237.847V623.893H239.345ZM251.345 635.893V634.394C245.545 634.394 240.844 629.692 240.844 623.893H239.345H237.847C237.847 631.348 243.89 637.391 251.345 637.391V635.893ZM343.345 623.893H341.847C341.847 629.692 337.145 634.394 331.345 634.394V635.893V637.391C338.8 637.391 344.844 631.348 344.844 623.893H343.345ZM331.345 594.893V596.391C337.145 596.391 341.847 601.093 341.847 606.893H343.345H344.844C344.844 599.438 338.8 593.394 331.345 593.394V594.893ZM251.345 594.893V593.394C243.89 593.394 237.847 599.438 237.847 606.893H239.345H240.844C240.844 601.093 245.545 596.391 251.345 596.391V594.893Z" fill="#E2DDD5" mask="url(#path-29-inside-5_156_5237)"/>
<path id="&#235;&#167;&#140; 5&#236;&#132;&#184;" d="M262.563 609.463H268.387V615.315H262.563V609.463ZM267.253 610.401H263.697V614.377H267.253V610.401ZM270.711 608.315H271.873V617.597H270.711V608.315ZM271.509 612.165H273.735V613.131H271.509V612.165ZM263.991 619.753H272.433V620.705H263.991V619.753ZM263.991 616.715H265.139V620.159H263.991V616.715ZM285.319 616.755C285.319 617.771 285.016 618.571 284.41 619.154C283.808 619.738 282.972 620.029 281.901 620.029C281.003 620.029 280.278 619.833 279.727 619.441C279.176 619.049 278.827 618.482 278.681 617.739L279.925 617.596C280.057 618.07 280.29 618.427 280.623 618.669C280.955 618.906 281.39 619.024 281.928 619.024C282.589 619.024 283.106 618.826 283.48 618.43C283.854 618.029 284.041 617.479 284.041 616.782C284.041 616.176 283.851 615.686 283.473 615.312C283.099 614.939 282.594 614.752 281.956 614.752C281.623 614.752 281.313 614.804 281.026 614.909C280.739 615.014 280.452 615.192 280.165 615.442H278.961L279.283 610.261H284.758V611.307H280.404L280.219 614.362C280.752 613.952 281.416 613.747 282.208 613.747C282.842 613.747 283.391 613.875 283.856 614.13C284.321 614.381 284.681 614.731 284.936 615.183C285.191 615.634 285.319 616.158 285.319 616.755ZM291.598 612.851H294.034V613.817H291.598V612.851ZM289.246 609.505H290.156V611.927C290.156 612.58 290.086 613.224 289.946 613.859C289.815 614.493 289.619 615.091 289.358 615.651C289.106 616.211 288.798 616.715 288.434 617.163C288.07 617.611 287.659 617.975 287.202 618.255L286.474 617.387C286.903 617.125 287.29 616.799 287.636 616.407C287.981 616.015 288.27 615.576 288.504 615.091C288.746 614.596 288.928 614.083 289.05 613.551C289.18 613.009 289.246 612.468 289.246 611.927V609.505ZM289.47 609.505H290.366V611.885C290.366 612.389 290.422 612.897 290.534 613.411C290.655 613.915 290.823 614.4 291.038 614.867C291.262 615.324 291.537 615.744 291.864 616.127C292.19 616.509 292.559 616.827 292.97 617.079L292.312 617.975C291.854 617.695 291.448 617.34 291.094 616.911C290.739 616.472 290.44 615.982 290.198 615.441C289.955 614.89 289.773 614.311 289.652 613.705C289.53 613.098 289.47 612.491 289.47 611.885V609.505ZM296.26 608.315H297.38V620.985H296.26V608.315ZM293.684 608.581H294.776V620.341H293.684V608.581Z" fill="#1A1A1A"/>
<g id="Frame">
<path id="Vector_7" d="M315.345 613.393L319.345 617.393L323.345 613.393" stroke="#1A1A1A" stroke-width="1.3" stroke-linecap="round" stroke-linejoin="round"/>
</g>
</g>
</g>
</g>
</g>
</g>
</g>
<g id="DateField">
<g id="Paragraph_3">
<path id="&#235;&#130;&#160;&#236;&#167;&#156;" d="M42.1582 240.225H43.8809V241.482H42.1582V243.971H40.6406V237.818H42.1582V240.225ZM34.4746 242.269C36.2428 242.246 37.9245 242.079 39.5195 241.77L39.6973 243.014C38.7767 243.201 37.8698 243.335 36.9766 243.417C36.0833 243.494 35.1764 243.533 34.2559 243.533H33.9688H32.9434V238.365H34.4746V242.269ZM42.1582 247.785H35.6094V248.797H42.541V250.027H34.0918V246.623H40.627V245.707H34.0781V244.504H42.1582V247.785ZM54.5586 242.562H56.0625V243.834H54.5586V250.178H53.041V237.818H54.5586V242.562ZM47.5312 241.127C47.5312 242.002 47.6042 242.827 47.75 243.602C47.8958 244.376 48.1693 245.06 48.5703 245.652C48.9622 245.064 49.2311 244.383 49.377 243.608C49.5228 242.829 49.5957 242.002 49.5957 241.127V240.184H48.8027V238.953H52.248V240.184H51.0449V241.127C51.0449 242.307 51.1771 243.362 51.4414 244.292C51.7057 245.222 52.1888 245.944 52.8906 246.459L51.9199 247.553C51.1589 246.969 50.6165 246.042 50.293 244.771C49.9557 246.097 49.377 247.061 48.5566 247.662C47.7546 247.065 47.1826 246.101 46.8408 244.771C46.5127 246.042 45.9727 246.969 45.2207 247.553L44.25 246.459C44.9518 245.939 45.4349 245.213 45.6992 244.278C45.9635 243.34 46.0957 242.289 46.0957 241.127V240.184H44.7148V238.953H48.3242V240.184H47.5312V241.127Z" fill="#4A4A4A"/>
</g>
<g id="Button_6" filter="url(#filter2_dd_156_5237)">
<path d="M32 280.958C32 272.121 39.1634 264.958 48 264.958H361.342C370.178 264.958 377.342 272.121 377.342 280.958V303.931C377.342 312.768 370.178 319.931 361.342 319.931H48C39.1635 319.931 32 312.768 32 303.931V280.958Z" fill="#FAFAF7"/>
<path d="M48 265.458H361.342C369.902 265.458 376.842 272.397 376.842 280.958V303.931C376.842 312.492 369.902 319.431 361.342 319.431H48C39.4396 319.431 32.5 312.492 32.5 303.931V280.958C32.5 272.397 39.4396 265.458 48 265.458Z" stroke="#E2DDD5"/>
<g id="Paragraph_4">
<path id="4&#236;&#155;&#148; 10&#236;&#157;&#188; ~ 4&#236;&#155;&#148; 12&#236;&#157;&#188;" d="M49.6885 293.941L54.2734 286.837H56.6465V293.897H58.0381V295.465H56.6465V297.442H54.8301V295.465H49.6885V293.941ZM54.8594 293.897V289.005H54.7422L51.6367 293.824V293.897H54.8594ZM70.2256 293.238H68.585V292.696H66.1094V291.7H68.585V285.519H70.2256V293.238ZM59.1074 290.294C60.7529 290.294 62.2788 290.274 63.6851 290.235C65.0913 290.196 66.4316 290.113 67.7061 289.986L67.7939 291.012C66.6758 291.168 65.4502 291.278 64.1172 291.341V293.253H62.5059V291.407C61.9297 291.427 61.0947 291.437 60.001 291.437H59.2832L59.1074 290.294ZM70.2256 296.622H62.6963V297.472H70.5771V298.629H61.0996V295.553H68.6143V294.762H61.041V293.648H70.2256V296.622ZM63.3848 285.724C64.0342 285.724 64.6079 285.807 65.106 285.973C65.6089 286.139 65.9995 286.373 66.2778 286.676C66.5562 286.974 66.6953 287.32 66.6953 287.716C66.6953 288.121 66.5562 288.473 66.2778 288.771C65.9995 289.068 65.6113 289.298 65.1133 289.459C64.6152 289.615 64.0391 289.693 63.3848 289.693C62.7158 289.693 62.1299 289.615 61.627 289.459C61.124 289.298 60.7334 289.068 60.4551 288.771C60.1816 288.473 60.0449 288.121 60.0449 287.716C60.0449 287.32 60.1841 286.974 60.4624 286.676C60.7407 286.373 61.1313 286.139 61.6343 285.973C62.1372 285.807 62.7207 285.724 63.3848 285.724ZM63.3848 286.808C62.8281 286.808 62.3887 286.891 62.0664 287.057C61.7441 287.218 61.5879 287.438 61.5977 287.716C61.5928 287.994 61.749 288.214 62.0664 288.375C62.3887 288.531 62.8281 288.609 63.3848 288.609C63.9316 288.609 64.3662 288.531 64.6885 288.375C65.0107 288.214 65.1719 287.994 65.1719 287.716C65.1719 287.438 65.0083 287.218 64.6812 287.057C64.3589 286.891 63.9268 286.808 63.3848 286.808ZM80.3916 297.442H78.4727V288.697H78.4141L75.9385 290.279V288.536L78.5605 286.837H80.3916V297.442ZM86.8809 297.589C86.0312 297.589 85.3013 297.376 84.6909 296.952C84.0854 296.522 83.6191 295.899 83.292 295.084C82.9697 294.269 82.8086 293.287 82.8086 292.14C82.8086 290.997 82.9697 290.018 83.292 289.203C83.6191 288.382 84.0879 287.76 84.6982 287.335C85.3086 286.905 86.0361 286.69 86.8809 286.69C87.7207 286.69 88.4458 286.905 89.0562 287.335C89.6714 287.76 90.1401 288.382 90.4624 289.203C90.7896 290.018 90.9531 290.997 90.9531 292.14C90.9531 293.287 90.7896 294.269 90.4624 295.084C90.1401 295.899 89.6738 296.522 89.0635 296.952C88.458 297.376 87.7305 297.589 86.8809 297.589ZM86.8809 295.992C87.3301 295.992 87.7134 295.848 88.0308 295.56C88.353 295.267 88.5996 294.835 88.7705 294.264C88.9463 293.688 89.0342 292.979 89.0342 292.14C89.0342 291.31 88.9463 290.606 88.7705 290.03C88.5996 289.449 88.353 289.012 88.0308 288.719C87.7085 288.421 87.3252 288.272 86.8809 288.272C86.4365 288.272 86.0532 288.421 85.731 288.719C85.4087 289.012 85.1597 289.449 84.9839 290.03C84.813 290.606 84.7275 291.31 84.7275 292.14C84.7275 292.979 84.813 293.688 84.9839 294.264C85.1597 294.835 85.4062 295.267 85.7236 295.56C86.0459 295.848 86.4316 295.992 86.8809 295.992ZM95.8604 285.929C96.5244 285.929 97.1226 286.058 97.6548 286.317C98.187 286.571 98.6045 286.925 98.9072 287.379C99.2148 287.833 99.3711 288.346 99.376 288.917C99.3711 289.493 99.2148 290.008 98.9072 290.462C98.6045 290.917 98.187 291.271 97.6548 291.524C97.1226 291.778 96.5244 291.905 95.8604 291.905C95.1914 291.905 94.5884 291.778 94.0513 291.524C93.519 291.271 93.1016 290.917 92.7988 290.462C92.4961 290.008 92.3447 289.493 92.3447 288.917C92.3447 288.346 92.4961 287.833 92.7988 287.379C93.1016 286.925 93.5215 286.571 94.0586 286.317C94.5957 286.058 95.1963 285.929 95.8604 285.929ZM95.8604 287.276C95.4893 287.276 95.1572 287.345 94.8643 287.481C94.5713 287.613 94.3418 287.804 94.1758 288.053C94.0098 288.297 93.9268 288.585 93.9268 288.917C93.9268 289.254 94.0098 289.549 94.1758 289.803C94.3418 290.052 94.5713 290.245 94.8643 290.382C95.1572 290.519 95.4893 290.587 95.8604 290.587C96.2314 290.587 96.5635 290.519 96.8564 290.382C97.1494 290.245 97.3789 290.052 97.5449 289.803C97.7109 289.549 97.7939 289.254 97.7939 288.917C97.7939 288.585 97.7109 288.297 97.5449 288.053C97.3789 287.804 97.1494 287.613 96.8564 287.481C96.5635 287.345 96.2314 287.276 95.8604 287.276ZM103.141 292.198H101.5V285.504H103.141V292.198ZM103.141 296.227H95.9775V297.296H103.536V298.585H94.3809V295.025H101.515V294.044H94.3516V292.77H103.141V296.227ZM109.601 291.744C109.84 291.48 110.111 291.28 110.414 291.144C110.716 291.007 111.036 290.938 111.373 290.938C111.632 290.938 111.883 290.973 112.127 291.041C112.372 291.104 112.682 291.207 113.058 291.349C113.419 291.485 113.722 291.588 113.966 291.656C114.215 291.725 114.469 291.759 114.728 291.759C115.411 291.759 115.987 291.48 116.456 290.924V292.521C116.217 292.789 115.946 292.992 115.643 293.128C115.345 293.26 115.025 293.326 114.684 293.326C114.425 293.326 114.168 293.292 113.915 293.224C113.661 293.15 113.355 293.048 112.999 292.916C112.643 292.784 112.337 292.684 112.083 292.616C111.834 292.542 111.583 292.506 111.329 292.506C110.646 292.506 110.069 292.784 109.601 293.341V291.744ZM122.11 293.941L126.695 286.837H129.068V293.897H130.46V295.465H129.068V297.442H127.252V295.465H122.11V293.941ZM127.281 293.897V289.005H127.164L124.059 293.824V293.897H127.281ZM142.647 293.238H141.007V292.696H138.531V291.7H141.007V285.519H142.647V293.238ZM131.529 290.294C133.175 290.294 134.701 290.274 136.107 290.235C137.513 290.196 138.854 290.113 140.128 289.986L140.216 291.012C139.098 291.168 137.872 291.278 136.539 291.341V293.253H134.928V291.407C134.352 291.427 133.517 291.437 132.423 291.437H131.705L131.529 290.294ZM142.647 296.622H135.118V297.472H142.999V298.629H133.521V295.553H141.036V294.762H133.463V293.648H142.647V296.622ZM135.807 285.724C136.456 285.724 137.03 285.807 137.528 285.973C138.031 286.139 138.421 286.373 138.7 286.676C138.978 286.974 139.117 287.32 139.117 287.716C139.117 288.121 138.978 288.473 138.7 288.771C138.421 289.068 138.033 289.298 137.535 289.459C137.037 289.615 136.461 289.693 135.807 289.693C135.138 289.693 134.552 289.615 134.049 289.459C133.546 289.298 133.155 289.068 132.877 288.771C132.604 288.473 132.467 288.121 132.467 287.716C132.467 287.32 132.606 286.974 132.884 286.676C133.163 286.373 133.553 286.139 134.056 285.973C134.559 285.807 135.143 285.724 135.807 285.724ZM135.807 286.808C135.25 286.808 134.811 286.891 134.488 287.057C134.166 287.218 134.01 287.438 134.02 287.716C134.015 287.994 134.171 288.214 134.488 288.375C134.811 288.531 135.25 288.609 135.807 288.609C136.354 288.609 136.788 288.531 137.11 288.375C137.433 288.214 137.594 287.994 137.594 287.716C137.594 287.438 137.43 287.218 137.103 287.057C136.781 286.891 136.349 286.808 135.807 286.808ZM152.813 297.442H150.895V288.697H150.836L148.36 290.279V288.536L150.982 286.837H152.813V297.442ZM155.392 296.065L159.142 292.447C159.547 292.042 159.859 291.71 160.079 291.451C160.304 291.188 160.475 290.929 160.592 290.675C160.709 290.416 160.768 290.143 160.768 289.854C160.768 289.532 160.689 289.249 160.533 289.005C160.377 288.761 160.16 288.573 159.881 288.441C159.608 288.309 159.298 288.243 158.951 288.243C158.59 288.243 158.272 288.316 157.999 288.463C157.73 288.604 157.523 288.81 157.376 289.078C157.23 289.342 157.159 289.649 157.164 290.001H155.348C155.343 289.342 155.494 288.763 155.802 288.265C156.109 287.762 156.537 287.374 157.083 287.101C157.635 286.827 158.263 286.69 158.966 286.69C159.679 286.69 160.309 286.822 160.855 287.086C161.407 287.35 161.834 287.716 162.137 288.185C162.445 288.648 162.599 289.176 162.599 289.767C162.599 290.177 162.518 290.572 162.357 290.953C162.201 291.334 161.932 291.756 161.551 292.22C161.17 292.679 160.631 293.238 159.933 293.897L158.043 295.772V295.846H162.76V297.442H155.392V296.065ZM167.74 285.929C168.404 285.929 169.002 286.058 169.535 286.317C170.067 286.571 170.484 286.925 170.787 287.379C171.095 287.833 171.251 288.346 171.256 288.917C171.251 289.493 171.095 290.008 170.787 290.462C170.484 290.917 170.067 291.271 169.535 291.524C169.002 291.778 168.404 291.905 167.74 291.905C167.071 291.905 166.468 291.778 165.931 291.524C165.399 291.271 164.981 290.917 164.679 290.462C164.376 290.008 164.225 289.493 164.225 288.917C164.225 288.346 164.376 287.833 164.679 287.379C164.981 286.925 165.401 286.571 165.938 286.317C166.476 286.058 167.076 285.929 167.74 285.929ZM167.74 287.276C167.369 287.276 167.037 287.345 166.744 287.481C166.451 287.613 166.222 287.804 166.056 288.053C165.89 288.297 165.807 288.585 165.807 288.917C165.807 289.254 165.89 289.549 166.056 289.803C166.222 290.052 166.451 290.245 166.744 290.382C167.037 290.519 167.369 290.587 167.74 290.587C168.111 290.587 168.443 290.519 168.736 290.382C169.029 290.245 169.259 290.052 169.425 289.803C169.591 289.549 169.674 289.254 169.674 288.917C169.674 288.585 169.591 288.297 169.425 288.053C169.259 287.804 169.029 287.613 168.736 287.481C168.443 287.345 168.111 287.276 167.74 287.276ZM175.021 292.198H173.38V285.504H175.021V292.198ZM175.021 296.227H167.857V297.296H175.416V298.585H166.261V295.025H173.395V294.044H166.231V292.77H175.021V296.227Z" fill="#1A1A1A"/>
</g>
<g id="Icon_5">
<path id="Vector_8" d="M347.012 284.113V287.446" stroke="#888882" stroke-width="1.66623" stroke-linecap="round" stroke-linejoin="round"/>
<path id="Vector_9" d="M353.677 284.113V287.446" stroke="#888882" stroke-width="1.66623" stroke-linecap="round" stroke-linejoin="round"/>
<path id="Vector_10" d="M356.176 285.78H344.513C343.593 285.78 342.847 286.526 342.847 287.446V299.11C342.847 300.03 343.593 300.776 344.513 300.776H356.176C357.097 300.776 357.843 300.03 357.843 299.11V287.446C357.843 286.526 357.097 285.78 356.176 285.78Z" stroke="#888882" stroke-width="1.66623" stroke-linecap="round" stroke-linejoin="round"/>
<path id="Vector_11" d="M342.847 290.778H357.843" stroke="#888882" stroke-width="1.66623" stroke-linecap="round" stroke-linejoin="round"/>
</g>
</g>
</g>
<g id="DestinationField">
<g id="Paragraph_5">
<path id="&#236;&#151;&#172;&#237;&#150;&#137;&#236;&#167;&#128;" d="M35.7871 127.754C36.3431 127.754 36.8444 127.903 37.291 128.199C37.7422 128.495 38.1068 128.917 38.3848 129.463H41.2695V126.852H42.7734V139.225H41.2695V134.549H38.4941C38.2253 135.165 37.8561 135.643 37.3867 135.985C36.9173 136.322 36.3841 136.491 35.7871 136.491C35.1673 136.491 34.6182 136.313 34.1396 135.958C33.6611 135.602 33.2874 135.094 33.0186 134.433C32.7497 133.772 32.6152 133 32.6152 132.116C32.6152 131.241 32.7497 130.475 33.0186 129.819C33.2874 129.158 33.6611 128.65 34.1396 128.294C34.6227 127.934 35.1719 127.754 35.7871 127.754ZM35.7871 129.122C35.4453 129.122 35.1445 129.242 34.8848 129.484C34.625 129.721 34.4245 130.065 34.2832 130.516C34.1419 130.963 34.0736 131.496 34.0781 132.116C34.0736 132.74 34.1419 133.278 34.2832 133.729C34.4245 134.18 34.625 134.527 34.8848 134.768C35.1445 135.005 35.4453 135.124 35.7871 135.124C36.1289 135.124 36.4274 135.005 36.6826 134.768C36.9424 134.527 37.1429 134.18 37.2842 133.729C37.43 133.278 37.5052 132.74 37.5098 132.116C37.5052 131.496 37.43 130.96 37.2842 130.509C37.1429 130.058 36.9424 129.714 36.6826 129.477C36.4274 129.24 36.1289 129.122 35.7871 129.122ZM38.8086 130.708C38.8997 131.15 38.9453 131.619 38.9453 132.116C38.9453 132.526 38.9134 132.927 38.8496 133.319H41.2695V130.708H38.8086ZM55.0781 134.618H53.6289V131.254H52.4258V134.208H51.0039V127.098H52.4258V130.024H53.6289V126.852H55.0781V134.618ZM50.5938 129.381H44.4414V128.192H46.7793V126.961H48.2832V128.192H50.5938V129.381ZM47.5312 129.887C48.0508 129.887 48.5133 129.976 48.9189 130.154C49.3245 130.332 49.6413 130.582 49.8691 130.906C50.1016 131.225 50.2201 131.596 50.2246 132.02C50.2201 132.444 50.1016 132.818 49.8691 133.141C49.6413 133.46 49.3245 133.708 48.9189 133.886C48.5133 134.064 48.0508 134.153 47.5312 134.153C47.0208 134.153 46.5628 134.064 46.1572 133.886C45.7516 133.708 45.4349 133.458 45.207 133.134C44.9837 132.811 44.8743 132.439 44.8789 132.02C44.8743 131.601 44.9837 131.229 45.207 130.906C45.4349 130.582 45.7516 130.332 46.1572 130.154C46.5628 129.976 47.0208 129.887 47.5312 129.887ZM47.5312 130.981C47.1439 130.981 46.8294 131.074 46.5879 131.261C46.3509 131.448 46.2324 131.701 46.2324 132.02C46.2324 132.339 46.3509 132.592 46.5879 132.779C46.8249 132.966 47.1393 133.059 47.5312 133.059C47.9232 133.059 48.2399 132.966 48.4814 132.779C48.723 132.592 48.8438 132.339 48.8438 132.02C48.8438 131.701 48.723 131.448 48.4814 131.261C48.2399 131.074 47.9232 130.981 47.5312 130.981ZM50.9082 134.768C51.7878 134.768 52.5443 134.855 53.1777 135.028C53.8112 135.201 54.2965 135.456 54.6338 135.793C54.971 136.126 55.1419 136.527 55.1465 136.997C55.1419 137.457 54.9688 137.851 54.627 138.179C54.2897 138.512 53.8044 138.765 53.1709 138.938C52.5374 139.111 51.7832 139.198 50.9082 139.198C50.0332 139.198 49.2767 139.111 48.6387 138.938C48.0052 138.765 47.5176 138.512 47.1758 138.179C46.8385 137.851 46.6699 137.457 46.6699 136.997C46.6699 136.527 46.8385 136.126 47.1758 135.793C47.5176 135.456 48.0052 135.201 48.6387 135.028C49.2721 134.855 50.0286 134.768 50.9082 134.768ZM50.9082 135.93C50.0195 135.921 49.3428 136.008 48.8779 136.19C48.4176 136.368 48.1875 136.637 48.1875 136.997C48.1875 137.338 48.4199 137.598 48.8848 137.776C49.3496 137.949 50.0241 138.036 50.9082 138.036C51.7878 138.036 52.4577 137.949 52.918 137.776C53.3828 137.598 53.6152 137.338 53.6152 136.997C53.6152 136.637 53.3828 136.368 52.918 136.19C52.4577 136.008 51.7878 135.921 50.9082 135.93ZM61.2715 130.366C61.2715 131.045 61.3991 131.717 61.6543 132.382C61.9141 133.043 62.2832 133.638 62.7617 134.167C63.2448 134.691 63.8099 135.087 64.457 135.356L63.623 136.559C62.9076 136.254 62.2855 135.796 61.7568 135.185C61.2282 134.574 60.818 133.866 60.5264 133.059C60.2347 133.925 59.8223 134.693 59.2891 135.363C58.7604 136.028 58.1406 136.527 57.4297 136.86L56.5547 135.67C57.1882 135.379 57.7441 134.95 58.2227 134.385C58.7057 133.82 59.0771 133.187 59.3369 132.485C59.5967 131.778 59.7266 131.072 59.7266 130.366V129.327H57.0059V128.069H63.9785V129.327H61.2715V130.366ZM66.8906 139.211H65.3594V126.852H66.8906V139.211Z" fill="#4A4A4A"/>
</g>
<g id="Container_9" filter="url(#filter3_dd_156_5237)">
<path d="M32 169.991C32 161.155 39.1634 153.991 48 153.991H361.342C370.178 153.991 377.342 161.155 377.342 169.991V192.965C377.342 201.802 370.178 208.965 361.342 208.965H48C39.1635 208.965 32 201.802 32 192.965V169.991Z" fill="#FAFAF7"/>
<path d="M48 154.491H361.342C369.902 154.491 376.842 161.431 376.842 169.991V192.965C376.842 201.525 369.902 208.465 361.342 208.465H48C39.4396 208.465 32.5 201.525 32.5 192.965V169.991C32.5 161.431 39.4396 154.491 48 154.491Z" stroke="#E2DDD5"/>
<g id="Text Input">
<path id="&#236;&#151;&#172;&#237;&#150;&#137;&#236;&#167;&#128;&#235;&#165;&#188; &#236;&#158;&#133;&#235;&#160;&#165;&#237;&#149;&#152;&#236;&#132;&#184;&#236;&#154;&#148;" d="M55.5488 175.506C56.75 175.506 57.7388 176.173 58.332 177.337H61.4229V174.54H63.0342V187.796H61.4229V182.787H58.4492C57.8779 184.105 56.8306 184.867 55.5488 184.867C53.5566 184.867 52.1504 183.065 52.1504 180.179C52.1504 177.323 53.5566 175.506 55.5488 175.506ZM55.5488 176.971C54.4502 176.971 53.7031 178.158 53.7178 180.179C53.7031 182.215 54.4502 183.402 55.5488 183.402C56.6475 183.402 57.3799 182.215 57.3945 180.179C57.3799 178.158 56.6475 176.971 55.5488 176.971ZM58.7861 178.67C58.8813 179.132 58.9326 179.637 58.9326 180.179C58.9326 180.641 58.896 181.065 58.8301 181.468H61.4229V178.67H58.7861ZM76.2178 174.54V182.86H74.665V179.256H73.376V182.42H71.8525V174.803H73.376V177.938H74.665V174.54H76.2178ZM71.4131 175.975V177.25H64.8213V175.975H67.3262V174.657H68.9375V175.975H71.4131ZM68.1318 177.792C69.8164 177.792 71.0029 178.7 71.0176 180.077C71.0029 181.454 69.8164 182.362 68.1318 182.362C66.4766 182.362 65.2754 181.454 65.29 180.077C65.2754 178.7 66.4766 177.792 68.1318 177.792ZM68.1318 178.963C67.3115 178.963 66.7402 179.388 66.7402 180.077C66.7402 180.765 67.2969 181.19 68.1318 181.19C68.9668 181.19 69.5381 180.765 69.5381 180.077C69.5381 179.388 68.9668 178.963 68.1318 178.963ZM71.75 183.021C74.5771 183.021 76.2764 183.885 76.291 185.409C76.2764 186.903 74.5771 187.767 71.75 187.767C68.9229 187.767 67.209 186.903 67.209 185.409C67.209 183.885 68.9229 183.021 71.75 183.021ZM71.75 184.266C69.8604 184.251 68.835 184.632 68.835 185.409C68.835 186.141 69.8604 186.522 71.75 186.522C73.625 186.522 74.6504 186.141 74.6504 185.409C74.6504 184.632 73.625 184.251 71.75 184.266ZM82.8535 178.304C82.8535 180.472 84.1279 182.757 86.2666 183.651L85.373 184.94C83.8057 184.266 82.6631 182.875 82.0625 181.19C81.4473 183.006 80.29 184.53 78.7373 185.262L77.7998 183.988C79.8945 183.021 81.1982 180.56 81.1982 178.304V177.191H78.2832V175.843H85.7539V177.191H82.8535V178.304ZM88.874 174.54V187.782H87.2334V174.54H88.874ZM102.907 180.545V181.776H90.8076V180.545H102.907ZM101.442 182.567V185.584H93.8545V186.507H101.838V187.635H92.2285V184.53H99.8311V183.709H92.2139V182.567H101.442ZM101.413 174.833V177.821H93.957V178.685H101.647V179.798H92.3457V176.766H99.7871V175.96H92.3018V174.833H101.413ZM118.376 174.54V181.644H116.735V174.54H118.376ZM111.228 182.259V183.622H116.75V182.259H118.376V187.621H109.616V182.259H111.228ZM111.228 186.302H116.75V184.896H111.228V186.302ZM111.154 175.125C113.19 175.111 114.714 176.385 114.714 178.231C114.714 180.033 113.19 181.307 111.154 181.307C109.104 181.307 107.58 180.033 107.58 178.231C107.58 176.385 109.104 175.111 111.154 175.125ZM111.154 176.488C109.997 176.488 109.162 177.162 109.177 178.231C109.162 179.286 109.997 179.959 111.154 179.974C112.297 179.959 113.117 179.286 113.117 178.231C113.117 177.162 112.297 176.488 111.154 176.488ZM126.638 175.331V179.315H122.463V180.941C124.587 180.948 125.81 180.882 127.209 180.619L127.37 181.937C125.788 182.201 124.411 182.245 121.818 182.245H120.852V178.099H125.012V176.62H120.822V175.331H126.638ZM131.398 174.554V182.699H129.772V180.516H127.429V179.212H129.772V177.733H127.429V176.429H129.772V174.554H131.398ZM131.398 183.329V187.782H129.772V184.632H122.346V183.329H131.398ZM143.645 174.54V179.813H145.681V181.161H143.645V187.782H142.033V174.54H143.645ZM141.008 176.576V177.879H133.2V176.576H136.335V174.73H137.961V176.576H141.008ZM137.155 178.744C139.06 178.744 140.48 180.033 140.48 181.864C140.48 183.695 139.06 184.969 137.155 184.969C135.222 184.969 133.801 183.695 133.815 181.864C133.801 180.033 135.222 178.744 137.155 178.744ZM137.155 180.077C136.115 180.077 135.368 180.78 135.368 181.864C135.368 182.948 136.115 183.636 137.155 183.622C138.166 183.636 138.913 182.948 138.928 181.864C138.913 180.78 138.166 180.077 137.155 180.077ZM150.368 178.011C150.368 180.15 151.115 182.376 152.902 183.504L152.009 184.75C150.815 184.032 150.039 182.794 149.606 181.336C149.123 182.94 148.273 184.295 147.028 185.057L146.018 183.841C147.937 182.669 148.801 180.34 148.801 178.084V175.711H150.368V178.011ZM157.663 174.54V187.782H156.096V174.54H157.663ZM154.909 174.774V187.137H153.371V180.443H151.481V179.095H153.371V174.774H154.909ZM171.301 184.837V186.17H159.201V184.837H161.999V181.483C160.944 180.882 160.307 179.938 160.314 178.758C160.3 176.649 162.38 175.257 165.222 175.257C168.078 175.257 170.158 176.649 170.158 178.758C170.158 179.916 169.543 180.846 168.518 181.454V184.837H171.301ZM165.222 176.546C163.244 176.546 161.896 177.381 161.911 178.758C161.896 180.121 163.244 180.97 165.222 180.97C167.199 180.97 168.562 180.121 168.562 178.758C168.562 177.381 167.199 176.546 165.222 176.546ZM163.61 184.837H166.862V182.069C166.357 182.186 165.808 182.245 165.222 182.245C164.65 182.245 164.108 182.186 163.61 182.083V184.837Z" fill="#888882"/>
</g>
<g id="Icon_6">
<path id="Vector_12" d="M347.02 187.31C350.701 187.31 353.685 184.326 353.685 180.645C353.685 176.964 350.701 173.98 347.02 173.98C343.339 173.98 340.355 176.964 340.355 180.645C340.355 184.326 343.339 187.31 347.02 187.31Z" stroke="#888882" stroke-width="1.66623" stroke-linecap="round" stroke-linejoin="round"/>
<path id="Vector_13" d="M355.351 188.976L351.769 185.394" stroke="#888882" stroke-width="1.66623" stroke-linecap="round" stroke-linejoin="round"/>
</g>
</g>
</g>
</g>
</g>
<g id="Container_10">
<g id="Icon_7" clip-path="url(#clip0_156_5237)">
<path id="Vector_14" d="M163.671 25.9941H245.671" stroke="#888882" stroke-width="7.99775" stroke-linecap="round"/>
</g>
</g>
<g id="LightAgesDrop" filter="url(#filter4_dd_156_5237)">
<path d="M241.001 326C241.001 319.373 246.374 314 253.001 314H329.001C335.629 314 341.001 319.373 341.001 326V580C341.001 586.627 335.629 592 329.001 592H253.001C246.374 592 241.001 586.627 241.001 580V326Z" fill="#FAFAF7"/>
<path d="M241.001 326C241.001 319.373 246.374 314 253.001 314H329.001C335.629 314 341.001 319.373 341.001 326V580C341.001 586.627 335.629 592 329.001 592H253.001C246.374 592 241.001 586.627 241.001 580V326Z" stroke="#E2DDD5" stroke-width="0.5"/>
<path id="&#235;&#167;&#140; 1&#236;&#132;&#184;" d="M281.159 325.963H275.941V320.771H281.159V325.963ZM276.918 325.163H280.194V321.583H276.918V325.163ZM284.282 323.183H285.983V324.021H284.282V328.02H283.292V319.742H284.282V323.183ZM284.802 330.787H277.223V327.232H278.201V329.949H284.802V330.787ZM293.613 330H292.458V322.002H292.407L290.172 323.487V322.332L292.458 320.809H293.613V330ZM299.008 322.954C299.008 323.555 299.104 324.156 299.294 324.757C299.484 325.358 299.757 325.906 300.113 326.401C300.472 326.896 300.896 327.287 301.382 327.575L300.811 328.35C300.282 328.028 299.823 327.586 299.434 327.023C299.049 326.456 298.752 325.819 298.545 325.112C298.333 325.874 298.022 326.56 297.612 327.169C297.201 327.778 296.719 328.252 296.165 328.591L295.53 327.842C296.038 327.546 296.482 327.141 296.863 326.629C297.244 326.113 297.536 325.54 297.739 324.909C297.942 324.274 298.043 323.635 298.043 322.992V320.809H299.008V322.954ZM305.331 331.028H304.366V319.742H305.331V331.028ZM302.995 330.457H302.055V324.643H300.138V323.792H302.055V319.983H302.995V330.457Z" fill="#1A1A1A"/>
<path id="Vector_15" d="M241.001 337H341.001" stroke="#E2DDD5" stroke-width="0.5"/>
<path id="&#235;&#167;&#140; 2&#236;&#132;&#184;" d="M280.159 348.963H274.941V343.771H280.159V348.963ZM275.918 348.163H279.194V344.583H275.918V348.163ZM283.282 346.183H284.983V347.021H283.282V351.02H282.292V342.742H283.282V346.183ZM283.802 353.787H276.223V350.232H277.201V352.949H283.802V353.787ZM289.35 352.162L292.486 348.861C292.901 348.425 293.216 348.074 293.432 347.808C293.652 347.537 293.817 347.277 293.927 347.027C294.041 346.773 294.098 346.508 294.098 346.233C294.098 345.929 294.018 345.658 293.857 345.421C293.696 345.184 293.476 345 293.197 344.869C292.922 344.737 292.613 344.672 292.27 344.672C291.91 344.672 291.595 344.744 291.324 344.888C291.053 345.032 290.844 345.235 290.696 345.497C290.552 345.759 290.48 346.06 290.48 346.398H289.401C289.397 345.865 289.519 345.393 289.769 344.983C290.023 344.572 290.372 344.253 290.816 344.024C291.261 343.796 291.758 343.682 292.308 343.682C292.854 343.682 293.343 343.794 293.774 344.018C294.21 344.242 294.551 344.549 294.796 344.938C295.042 345.328 295.165 345.759 295.165 346.233C295.165 346.585 295.101 346.921 294.974 347.243C294.847 347.56 294.633 347.913 294.333 348.303C294.037 348.688 293.611 349.166 293.057 349.737L290.95 351.908V351.984H295.33V353H289.363L289.35 352.162ZM299.938 345.954C299.938 346.555 300.033 347.156 300.224 347.757C300.414 348.358 300.687 348.906 301.042 349.401C301.402 349.896 301.825 350.287 302.312 350.575L301.741 351.35C301.212 351.028 300.753 350.586 300.363 350.023C299.978 349.456 299.682 348.819 299.475 348.112C299.263 348.874 298.952 349.56 298.542 350.169C298.131 350.778 297.649 351.252 297.094 351.591L296.459 350.842C296.967 350.546 297.412 350.141 297.792 349.629C298.173 349.113 298.465 348.54 298.668 347.909C298.872 347.274 298.973 346.635 298.973 345.992V343.809H299.938V345.954ZM306.26 354.028H305.295V342.742H306.26V354.028ZM303.924 353.457H302.985V347.643H301.068V346.792H302.985V342.983H303.924V353.457Z" fill="#1A1A1A"/>
<path id="Vector_16" d="M241.001 360H341.001" stroke="#E2DDD5" stroke-width="0.5"/>
<path id="&#235;&#167;&#140; 3&#236;&#132;&#184;" d="M280.159 371.963H274.941V366.771H280.159V371.963ZM275.918 371.163H279.194V367.583H275.918V371.163ZM283.282 369.183H284.983V370.021H283.282V374.02H282.292V365.742H283.282V369.183ZM283.802 376.787H276.223V373.232H277.201V375.949H283.802V376.787ZM292.537 376.127C291.931 376.127 291.39 376.025 290.912 375.822C290.438 375.619 290.061 375.333 289.782 374.965C289.507 374.597 289.359 374.172 289.337 373.689H290.493C290.514 373.973 290.615 374.223 290.797 374.438C290.984 374.654 291.227 374.821 291.527 374.94C291.828 375.054 292.16 375.111 292.524 375.111C292.922 375.111 293.279 375.044 293.597 374.908C293.918 374.769 294.168 374.578 294.346 374.337C294.528 374.091 294.619 373.812 294.619 373.499C294.619 373.16 294.53 372.862 294.352 372.604C294.179 372.346 293.925 372.145 293.59 372.001C293.256 371.857 292.854 371.785 292.384 371.785H291.635V370.782H292.384C292.752 370.782 293.08 370.717 293.368 370.585C293.656 370.454 293.878 370.27 294.035 370.033C294.195 369.796 294.276 369.521 294.276 369.208C294.276 368.908 294.204 368.641 294.06 368.408C293.92 368.175 293.722 367.996 293.463 367.869C293.205 367.737 292.905 367.672 292.562 367.672C292.232 367.672 291.923 367.731 291.635 367.85C291.347 367.968 291.113 368.137 290.931 368.357C290.749 368.573 290.649 368.827 290.632 369.119H289.528C289.549 368.645 289.697 368.224 289.972 367.856C290.247 367.484 290.613 367.196 291.07 366.993C291.527 366.785 292.029 366.682 292.575 366.682C293.142 366.682 293.637 366.794 294.06 367.018C294.487 367.238 294.815 367.536 295.044 367.913C295.272 368.29 295.385 368.7 295.38 369.145C295.385 369.661 295.247 370.103 294.968 370.471C294.688 370.839 294.306 371.091 293.819 371.227V371.29C294.212 371.354 294.553 371.487 294.841 371.69C295.133 371.889 295.355 372.145 295.507 372.458C295.664 372.767 295.74 373.114 295.736 373.499C295.74 373.994 295.603 374.443 295.323 374.845C295.044 375.243 294.659 375.556 294.168 375.784C293.681 376.013 293.138 376.127 292.537 376.127ZM300.332 368.954C300.332 369.555 300.427 370.156 300.617 370.757C300.808 371.358 301.081 371.906 301.436 372.401C301.796 372.896 302.219 373.287 302.706 373.575L302.134 374.35C301.605 374.028 301.146 373.586 300.757 373.023C300.372 372.456 300.076 371.819 299.868 371.112C299.657 371.874 299.346 372.56 298.935 373.169C298.525 373.778 298.042 374.252 297.488 374.591L296.853 373.842C297.361 373.546 297.805 373.141 298.186 372.629C298.567 372.113 298.859 371.54 299.062 370.909C299.265 370.274 299.367 369.635 299.367 368.992V366.809H300.332V368.954ZM306.654 377.028H305.689V365.742H306.654V377.028ZM304.318 376.457H303.378V370.643H301.461V369.792H303.378V365.983H304.318V376.457Z" fill="#1A1A1A"/>
<path id="Vector_17" d="M241.001 383H341.001" stroke="#E2DDD5" stroke-width="0.5"/>
<path id="&#235;&#167;&#140; 4&#236;&#132;&#184;" d="M280.159 394.963H274.941V389.771H280.159V394.963ZM275.918 394.163H279.194V390.583H275.918V394.163ZM283.282 392.183H284.983V393.021H283.282V397.02H282.292V388.742H283.282V392.183ZM283.802 399.787H276.223V396.232H277.201V398.949H283.802V399.787ZM289.134 396.182L293.273 389.809H294.682V396.118H295.964V397.121H294.682V399H293.59V397.121H289.134V396.182ZM293.59 396.118V391.256H293.476L290.366 396.042V396.118H293.59ZM300.42 391.954C300.42 392.555 300.516 393.156 300.706 393.757C300.896 394.358 301.169 394.906 301.525 395.401C301.885 395.896 302.308 396.287 302.794 396.575L302.223 397.35C301.694 397.028 301.235 396.586 300.846 396.023C300.461 395.456 300.164 394.819 299.957 394.112C299.745 394.874 299.434 395.56 299.024 396.169C298.613 396.778 298.131 397.252 297.577 397.591L296.942 396.842C297.45 396.546 297.894 396.141 298.275 395.629C298.656 395.113 298.948 394.54 299.151 393.909C299.354 393.274 299.456 392.635 299.456 391.992V389.809H300.42V391.954ZM306.743 400.028H305.778V388.742H306.743V400.028ZM304.407 399.457H303.467V393.643H301.55V392.792H303.467V388.983H304.407V399.457Z" fill="#1A1A1A"/>
<path id="Vector_18" d="M241.001 406H341.001" stroke="#E2DDD5" stroke-width="0.5"/>
<g id="Frame 149">
<path id="Vector_19" d="M341.001 407H241.001V430H341.001V407Z" fill="#4A7C59"/>
<path id="&#235;&#167;&#140; 5&#236;&#132;&#184;_2" d="M280.159 418.963H274.941V413.771H280.159V418.963ZM275.918 418.163H279.194V414.583H275.918V418.163ZM283.282 416.183H284.983V417.021H283.282V421.02H282.292V412.742H283.282V416.183ZM283.802 423.787H276.223V420.232H277.201V422.949H283.802V423.787ZM292.359 423.127C291.813 423.127 291.316 423.023 290.867 422.816C290.423 422.604 290.067 422.314 289.801 421.946C289.538 421.574 289.397 421.155 289.375 420.689H290.48C290.51 420.96 290.611 421.206 290.785 421.426C290.958 421.642 291.182 421.813 291.458 421.94C291.733 422.063 292.033 422.124 292.359 422.124C292.748 422.124 293.099 422.035 293.413 421.857C293.726 421.68 293.971 421.436 294.149 421.127C294.327 420.819 294.416 420.474 294.416 420.093C294.416 419.699 294.322 419.346 294.136 419.033C293.954 418.715 293.7 418.468 293.375 418.29C293.053 418.108 292.689 418.015 292.283 418.011C291.466 417.998 290.895 418.273 290.569 418.836H289.464L290.112 413.809H295.088V414.824H291.064L290.721 417.516H290.81C291.017 417.355 291.269 417.226 291.565 417.128C291.862 417.031 292.168 416.982 292.486 416.982C293.061 416.982 293.58 417.116 294.041 417.382C294.507 417.645 294.87 418.011 295.133 418.48C295.399 418.95 295.533 419.479 295.533 420.067C295.533 420.651 295.395 421.176 295.12 421.642C294.845 422.107 294.466 422.471 293.984 422.733C293.501 422.996 292.96 423.127 292.359 423.127ZM300.065 415.954C300.065 416.555 300.16 417.156 300.351 417.757C300.541 418.358 300.814 418.906 301.169 419.401C301.529 419.896 301.952 420.287 302.439 420.575L301.868 421.35C301.339 421.028 300.88 420.586 300.49 420.023C300.105 419.456 299.809 418.819 299.602 418.112C299.39 418.874 299.079 419.56 298.668 420.169C298.258 420.778 297.776 421.252 297.221 421.591L296.586 420.842C297.094 420.546 297.539 420.141 297.919 419.629C298.3 419.113 298.592 418.54 298.795 417.909C298.999 417.274 299.1 416.635 299.1 415.992V413.809H300.065V415.954ZM306.387 424.028H305.422V412.742H306.387V424.028ZM304.051 423.457H303.112V417.643H301.195V416.792H303.112V412.983H304.051V423.457Z" fill="#1A1A1A"/>
</g>
<path id="Vector_20" d="M241.001 431H341.001" stroke="#E2DDD5" stroke-width="0.5"/>
<path id="&#235;&#167;&#140; 6&#236;&#132;&#184;" d="M280.159 442.963H274.941V437.771H280.159V442.963ZM275.918 442.163H279.194V438.583H275.918V442.163ZM283.282 440.183H284.983V441.021H283.282V445.02H282.292V436.742H283.282V440.183ZM283.802 447.787H276.223V444.232H277.201V446.949H283.802V447.787ZM292.587 447.127C291.995 447.127 291.445 446.994 290.937 446.727C290.433 446.456 290.019 445.997 289.693 445.35C289.371 444.698 289.21 443.835 289.21 442.76C289.21 441.689 289.35 440.773 289.629 440.011C289.913 439.25 290.315 438.672 290.835 438.278C291.36 437.881 291.982 437.682 292.702 437.682C293.231 437.682 293.705 437.783 294.124 437.986C294.547 438.189 294.892 438.475 295.158 438.843C295.429 439.211 295.605 439.637 295.685 440.119H294.555C294.441 439.692 294.225 439.349 293.908 439.091C293.595 438.828 293.193 438.697 292.702 438.697C292.202 438.697 291.771 438.837 291.407 439.116C291.047 439.391 290.77 439.791 290.575 440.316C290.385 440.841 290.29 441.469 290.29 442.201H290.404C290.675 441.816 291.013 441.518 291.419 441.306C291.826 441.09 292.274 440.982 292.765 440.982C293.307 440.982 293.806 441.114 294.263 441.376C294.724 441.638 295.088 442.002 295.355 442.468C295.626 442.929 295.761 443.45 295.761 444.029C295.761 444.601 295.628 445.123 295.361 445.597C295.099 446.067 294.727 446.439 294.244 446.714C293.762 446.989 293.209 447.127 292.587 447.127ZM292.562 446.124C292.951 446.124 293.305 446.031 293.622 445.845C293.939 445.659 294.189 445.407 294.371 445.089C294.557 444.768 294.653 444.419 294.657 444.042C294.653 443.665 294.562 443.32 294.384 443.007C294.206 442.694 293.961 442.447 293.647 442.265C293.334 442.078 292.981 441.985 292.587 441.985C292.194 441.985 291.834 442.081 291.508 442.271C291.182 442.461 290.924 442.717 290.734 443.039C290.543 443.356 290.446 443.695 290.442 444.055C290.442 444.414 290.533 444.753 290.715 445.07C290.901 445.388 291.155 445.644 291.477 445.838C291.802 446.029 292.164 446.124 292.562 446.124ZM300.281 439.954C300.281 440.555 300.376 441.156 300.566 441.757C300.757 442.358 301.03 442.906 301.385 443.401C301.745 443.896 302.168 444.287 302.655 444.575L302.083 445.35C301.555 445.028 301.095 444.586 300.706 444.023C300.321 443.456 300.025 442.819 299.817 442.112C299.606 442.874 299.295 443.56 298.884 444.169C298.474 444.778 297.991 445.252 297.437 445.591L296.802 444.842C297.31 444.546 297.754 444.141 298.135 443.629C298.516 443.113 298.808 442.54 299.011 441.909C299.214 441.274 299.316 440.635 299.316 439.992V437.809H300.281V439.954ZM306.603 448.028H305.638V436.742H306.603V448.028ZM304.267 447.457H303.328V441.643H301.411V440.792H303.328V436.983H304.267V447.457Z" fill="#1A1A1A"/>
<path id="Vector_21" d="M241.001 454H341.001" stroke="#E2DDD5" stroke-width="0.5"/>
<path id="&#235;&#167;&#140; 7&#236;&#132;&#184;" d="M280.659 465.963H275.441V460.771H280.659V465.963ZM276.418 465.163H279.694V461.583H276.418V465.163ZM283.782 463.183H285.483V464.021H283.782V468.02H282.792V459.742H283.782V463.183ZM284.302 470.787H276.723V467.232H277.701V469.949H284.302V470.787ZM294.37 461.888V461.824H289.507V460.809H295.55V461.875L291.348 470H290.155L294.37 461.888ZM299.981 462.954C299.981 463.555 300.076 464.156 300.267 464.757C300.457 465.358 300.73 465.906 301.085 466.401C301.445 466.896 301.868 467.287 302.355 467.575L301.784 468.35C301.255 468.028 300.796 467.586 300.406 467.023C300.021 466.456 299.725 465.819 299.518 465.112C299.306 465.874 298.995 466.56 298.584 467.169C298.174 467.778 297.692 468.252 297.137 468.591L296.502 467.842C297.01 467.546 297.455 467.141 297.835 466.629C298.216 466.113 298.508 465.54 298.711 464.909C298.915 464.274 299.016 463.635 299.016 462.992V460.809H299.981V462.954ZM306.303 471.028H305.338V459.742H306.303V471.028ZM303.967 470.457H303.028V464.643H301.111V463.792H303.028V459.983H303.967V470.457Z" fill="#1A1A1A"/>
<path id="Vector_22" d="M241.001 477H341.001" stroke="#E2DDD5" stroke-width="0.5"/>
<path id="&#235;&#167;&#140; 8&#236;&#132;&#184;" d="M280.159 488.963H274.941V483.771H280.159V488.963ZM275.918 488.163H279.194V484.583H275.918V488.163ZM283.282 486.183H284.983V487.021H283.282V491.02H282.292V482.742H283.282V486.183ZM283.802 493.787H276.223V490.232H277.201V492.949H283.802V493.787ZM292.435 493.127C291.8 493.127 291.233 493.019 290.734 492.803C290.239 492.583 289.854 492.278 289.579 491.889C289.304 491.5 289.168 491.058 289.172 490.562C289.168 490.173 289.246 489.811 289.407 489.477C289.572 489.139 289.799 488.859 290.086 488.639C290.374 488.419 290.692 488.282 291.039 488.227V488.176C290.738 488.104 290.474 487.971 290.245 487.776C290.017 487.577 289.839 487.334 289.712 487.046C289.589 486.758 289.528 486.449 289.528 486.119C289.528 485.658 289.653 485.241 289.902 484.869C290.156 484.496 290.503 484.206 290.943 483.999C291.388 483.787 291.885 483.682 292.435 483.682C292.985 483.682 293.48 483.787 293.92 483.999C294.365 484.206 294.714 484.496 294.968 484.869C295.222 485.237 295.351 485.654 295.355 486.119C295.351 486.449 295.283 486.758 295.152 487.046C295.025 487.334 294.847 487.577 294.619 487.776C294.39 487.971 294.128 488.104 293.832 488.176V488.227C294.174 488.282 294.487 488.419 294.771 488.639C295.059 488.859 295.285 489.139 295.45 489.477C295.619 489.811 295.706 490.173 295.71 490.562C295.706 491.058 295.564 491.5 295.285 491.889C295.006 492.278 294.619 492.583 294.124 492.803C293.628 493.019 293.066 493.127 292.435 493.127ZM292.435 492.124C292.867 492.124 293.243 492.056 293.565 491.921C293.887 491.785 294.134 491.595 294.308 491.35C294.481 491.104 294.568 490.821 294.568 490.499C294.568 490.165 294.475 489.864 294.289 489.598C294.107 489.327 293.853 489.115 293.527 488.963C293.205 488.811 292.841 488.734 292.435 488.734C292.029 488.734 291.663 488.811 291.337 488.963C291.011 489.115 290.757 489.327 290.575 489.598C290.393 489.864 290.306 490.165 290.315 490.499C290.306 490.821 290.387 491.104 290.556 491.35C290.73 491.595 290.977 491.785 291.299 491.921C291.62 492.056 291.999 492.124 292.435 492.124ZM292.435 487.77C292.778 487.77 293.087 487.704 293.362 487.573C293.637 487.442 293.851 487.257 294.003 487.021C294.16 486.784 294.238 486.513 294.238 486.208C294.238 485.908 294.162 485.641 294.009 485.408C293.861 485.175 293.65 484.996 293.375 484.869C293.104 484.737 292.791 484.672 292.435 484.672C292.075 484.672 291.758 484.737 291.483 484.869C291.212 484.996 291.003 485.175 290.854 485.408C290.706 485.641 290.632 485.908 290.632 486.208C290.632 486.513 290.708 486.784 290.861 487.021C291.017 487.257 291.231 487.442 291.502 487.573C291.777 487.704 292.088 487.77 292.435 487.77ZM300.192 485.954C300.192 486.555 300.287 487.156 300.478 487.757C300.668 488.358 300.941 488.906 301.296 489.401C301.656 489.896 302.079 490.287 302.566 490.575L301.995 491.35C301.466 491.028 301.007 490.586 300.617 490.023C300.232 489.456 299.936 488.819 299.729 488.112C299.517 488.874 299.206 489.56 298.795 490.169C298.385 490.778 297.903 491.252 297.348 491.591L296.713 490.842C297.221 490.546 297.666 490.141 298.046 489.629C298.427 489.113 298.719 488.54 298.922 487.909C299.125 487.274 299.227 486.635 299.227 485.992V483.809H300.192V485.954ZM306.514 494.028H305.549V482.742H306.514V494.028ZM304.178 493.457H303.239V487.643H301.322V486.792H303.239V482.983H304.178V493.457Z" fill="#1A1A1A"/>
<path id="Vector_23" d="M241.001 500H341.001" stroke="#E2DDD5" stroke-width="0.5"/>
<path id="&#235;&#167;&#140; 9&#236;&#132;&#184;" d="M280.159 511.963H274.941V506.771H280.159V511.963ZM275.918 511.163H279.194V507.583H275.918V511.163ZM283.282 509.183H284.983V510.021H283.282V514.02H282.292V505.742H283.282V509.183ZM283.802 516.787H276.223V513.232H277.201V515.949H283.802V516.787ZM292.397 506.682C292.985 506.682 293.531 506.817 294.035 507.088C294.538 507.354 294.951 507.812 295.272 508.459C295.598 509.106 295.761 509.965 295.761 511.036C295.761 512.111 295.619 513.031 295.336 513.797C295.057 514.559 294.655 515.139 294.13 515.537C293.609 515.93 292.989 516.127 292.27 516.127C291.741 516.127 291.265 516.025 290.842 515.822C290.419 515.615 290.072 515.327 289.801 514.959C289.534 514.591 289.363 514.163 289.287 513.677H290.417C290.522 514.108 290.734 514.455 291.051 514.718C291.369 514.98 291.775 515.111 292.27 515.111C292.769 515.111 293.199 514.974 293.559 514.699C293.923 514.419 294.202 514.015 294.396 513.486C294.591 512.957 294.691 512.323 294.695 511.582H294.568C294.297 511.967 293.958 512.268 293.552 512.483C293.146 512.695 292.702 512.801 292.219 512.801C291.673 512.801 291.17 512.672 290.708 512.414C290.247 512.151 289.881 511.789 289.61 511.328C289.344 510.867 289.21 510.346 289.21 509.767C289.21 509.2 289.342 508.681 289.604 508.211C289.871 507.742 290.245 507.369 290.728 507.094C291.21 506.819 291.766 506.682 292.397 506.682ZM292.422 507.685C292.033 507.685 291.678 507.778 291.356 507.964C291.039 508.146 290.787 508.393 290.601 508.707C290.419 509.02 290.328 509.36 290.328 509.729C290.328 510.114 290.414 510.465 290.588 510.782C290.761 511.095 291.005 511.343 291.318 511.525C291.631 511.707 291.986 511.798 292.384 511.798C292.774 511.798 293.131 511.703 293.457 511.512C293.783 511.318 294.041 511.062 294.231 510.744C294.422 510.423 294.517 510.084 294.517 509.729C294.517 509.377 294.426 509.045 294.244 508.732C294.062 508.415 293.81 508.161 293.489 507.97C293.171 507.78 292.816 507.685 292.422 507.685ZM300.281 508.954C300.281 509.555 300.376 510.156 300.566 510.757C300.757 511.358 301.03 511.906 301.385 512.401C301.745 512.896 302.168 513.287 302.655 513.575L302.083 514.35C301.555 514.028 301.095 513.586 300.706 513.023C300.321 512.456 300.025 511.819 299.817 511.112C299.606 511.874 299.295 512.56 298.884 513.169C298.474 513.778 297.991 514.252 297.437 514.591L296.802 513.842C297.31 513.546 297.754 513.141 298.135 512.629C298.516 512.113 298.808 511.54 299.011 510.909C299.214 510.274 299.316 509.635 299.316 508.992V506.809H300.281V508.954ZM306.603 517.028H305.638V505.742H306.603V517.028ZM304.267 516.457H303.328V510.643H301.411V509.792H303.328V505.983H304.267V516.457Z" fill="#1A1A1A"/>
<path id="Vector_24" d="M241.001 523H341.001" stroke="#E2DDD5" stroke-width="0.5"/>
<path id="&#235;&#167;&#140; 10&#236;&#132;&#184;" d="M277.159 534.963H271.941V529.771H277.159V534.963ZM272.918 534.163H276.194V530.583H272.918V534.163ZM280.282 532.183H281.983V533.021H280.282V537.02H279.292V528.742H280.282V532.183ZM280.802 539.787H273.223V536.232H274.201V538.949H280.802V539.787ZM289.613 539H288.458V531.002H288.407L286.172 532.487V531.332L288.458 529.809H289.613V539ZM295.072 539.127C294.395 539.127 293.815 538.943 293.333 538.575C292.854 538.207 292.488 537.669 292.234 536.962C291.985 536.256 291.86 535.403 291.86 534.404C291.86 533.418 291.987 532.572 292.241 531.865C292.495 531.154 292.863 530.613 293.345 530.24C293.828 529.868 294.403 529.682 295.072 529.682C295.74 529.682 296.316 529.868 296.798 530.24C297.281 530.613 297.649 531.154 297.903 531.865C298.157 532.572 298.284 533.418 298.284 534.404C298.284 535.403 298.157 536.256 297.903 536.962C297.653 537.669 297.287 538.207 296.805 538.575C296.322 538.943 295.745 539.127 295.072 539.127ZM295.072 538.111C295.512 538.111 295.889 537.967 296.202 537.68C296.515 537.392 296.754 536.971 296.919 536.417C297.084 535.862 297.167 535.191 297.167 534.404C297.167 533.617 297.084 532.944 296.919 532.386C296.754 531.827 296.515 531.402 296.202 531.11C295.889 530.818 295.512 530.672 295.072 530.672C294.632 530.672 294.253 530.818 293.936 531.11C293.622 531.402 293.381 531.827 293.212 532.386C293.047 532.944 292.964 533.617 292.964 534.404C292.964 535.191 293.047 535.862 293.212 536.417C293.377 536.971 293.616 537.392 293.929 537.68C294.247 537.967 294.627 538.111 295.072 538.111ZM302.752 531.954C302.752 532.555 302.848 533.156 303.038 533.757C303.229 534.358 303.501 534.906 303.857 535.401C304.217 535.896 304.64 536.287 305.126 536.575L304.555 537.35C304.026 537.028 303.567 536.586 303.178 536.023C302.793 535.456 302.496 534.819 302.289 534.112C302.077 534.874 301.766 535.56 301.356 536.169C300.945 536.778 300.463 537.252 299.909 537.591L299.274 536.842C299.782 536.546 300.226 536.141 300.607 535.629C300.988 535.113 301.28 534.54 301.483 533.909C301.686 533.274 301.788 532.635 301.788 531.992V529.809H302.752V531.954ZM309.075 540.028H308.11V528.742H309.075V540.028ZM306.739 539.457H305.799V533.643H303.882V532.792H305.799V528.983H306.739V539.457Z" fill="#1A1A1A"/>
<path id="Vector_25" d="M241.001 546H341.001" stroke="#E2DDD5" stroke-width="0.5"/>
<path id="&#235;&#167;&#140; 11&#236;&#132;&#184;" d="M278.159 557.963H272.941V552.771H278.159V557.963ZM273.918 557.163H277.194V553.583H273.918V557.163ZM281.282 555.183H282.983V556.021H281.282V560.02H280.292V551.742H281.282V555.183ZM281.802 562.787H274.223V559.232H275.201V561.949H281.802V562.787ZM290.613 562H289.458V554.002H289.407L287.172 555.487V554.332L289.458 552.809H290.613V562ZM296.313 562H295.158V554.002H295.107L292.873 555.487V554.332L295.158 552.809H296.313V562ZM301.708 554.954C301.708 555.555 301.804 556.156 301.994 556.757C302.185 557.358 302.458 557.906 302.813 558.401C303.173 558.896 303.596 559.287 304.083 559.575L303.511 560.35C302.982 560.028 302.523 559.586 302.134 559.023C301.749 558.456 301.452 557.819 301.245 557.112C301.034 557.874 300.722 558.56 300.312 559.169C299.902 559.778 299.419 560.252 298.865 560.591L298.23 559.842C298.738 559.546 299.182 559.141 299.563 558.629C299.944 558.113 300.236 557.54 300.439 556.909C300.642 556.274 300.744 555.635 300.744 554.992V552.809H301.708V554.954ZM308.031 563.028H307.066V551.742H308.031V563.028ZM305.695 562.457H304.755V556.643H302.838V555.792H304.755V551.983H305.695V562.457Z" fill="#1A1A1A"/>
<path id="Vector_26" d="M241.001 569H341.001" stroke="#E2DDD5" stroke-width="0.5"/>
<path id="&#235;&#167;&#140; 12&#236;&#132;&#184;" d="M277.159 580.963H271.941V575.771H277.159V580.963ZM272.918 580.163H276.194V576.583H272.918V580.163ZM280.282 578.183H281.983V579.021H280.282V583.02H279.292V574.742H280.282V578.183ZM280.802 585.787H273.223V582.232H274.201V584.949H280.802V585.787ZM289.613 585H288.458V577.002H288.407L286.172 578.487V577.332L288.458 575.809H289.613V585ZM292.05 584.162L295.186 580.861C295.601 580.425 295.916 580.074 296.132 579.808C296.352 579.537 296.517 579.277 296.627 579.027C296.741 578.773 296.798 578.508 296.798 578.233C296.798 577.929 296.718 577.658 296.557 577.421C296.396 577.184 296.176 577 295.897 576.869C295.622 576.737 295.313 576.672 294.97 576.672C294.611 576.672 294.295 576.744 294.024 576.888C293.754 577.032 293.544 577.235 293.396 577.497C293.252 577.759 293.18 578.06 293.18 578.398H292.101C292.097 577.865 292.22 577.393 292.469 576.983C292.723 576.572 293.072 576.253 293.517 576.024C293.961 575.796 294.458 575.682 295.008 575.682C295.554 575.682 296.043 575.794 296.475 576.018C296.91 576.242 297.251 576.549 297.497 576.938C297.742 577.328 297.865 577.759 297.865 578.233C297.865 578.585 297.801 578.921 297.674 579.243C297.547 579.56 297.334 579.913 297.033 580.303C296.737 580.688 296.312 581.166 295.757 581.737L293.65 583.908V583.984H298.03V585H292.063L292.05 584.162ZM302.638 577.954C302.638 578.555 302.733 579.156 302.924 579.757C303.114 580.358 303.387 580.906 303.743 581.401C304.102 581.896 304.526 582.287 305.012 582.575L304.441 583.35C303.912 583.028 303.453 582.586 303.063 582.023C302.678 581.456 302.382 580.819 302.175 580.112C301.963 580.874 301.652 581.56 301.242 582.169C300.831 582.778 300.349 583.252 299.794 583.591L299.16 582.842C299.667 582.546 300.112 582.141 300.493 581.629C300.874 581.113 301.166 580.54 301.369 579.909C301.572 579.274 301.673 578.635 301.673 577.992V575.809H302.638V577.954ZM308.96 586.028H307.996V574.742H308.96V586.028ZM306.625 585.457H305.685V579.643H303.768V578.792H305.685V574.983H306.625V585.457Z" fill="#1A1A1A"/>
</g>
</g>
<defs>
<filter id="filter0_dd_156_5237" x="0" y="351.924" width="409.342" height="118.974" filterUnits="userSpaceOnUse" color-interpolation-filters="sRGB">
<feFlood flood-opacity="0" result="BackgroundImageFix"/>
<feColorMatrix in="SourceAlpha" type="matrix" values="0 0 0 0 0 0 0 0 0 0 0 0 0 0 0 0 0 0 127 0" result="hardAlpha"/>
<feOffset dy="8"/>
<feGaussianBlur stdDeviation="16"/>
<feColorMatrix type="matrix" values="0 0 0 0 0.118 0 0 0 0 0.157 0 0 0 0 0.133 0 0 0 0.16 0"/>
<feBlend mode="normal" in2="BackgroundImageFix" result="effect1_dropShadow_156_5237"/>
<feColorMatrix in="SourceAlpha" type="matrix" values="0 0 0 0 0 0 0 0 0 0 0 0 0 0 0 0 0 0 127 0" result="hardAlpha"/>
<feOffset dy="2"/>
<feGaussianBlur stdDeviation="4"/>
<feColorMatrix type="matrix" values="0 0 0 0 0.118 0 0 0 0 0.157 0 0 0 0 0.133 0 0 0 0.08 0"/>
<feBlend mode="normal" in2="effect1_dropShadow_156_5237" result="effect2_dropShadow_156_5237"/>
<feBlend mode="normal" in="SourceGraphic" in2="effect2_dropShadow_156_5237" result="shape"/>
</filter>
<filter id="filter1_dd_156_5237" x="0" y="422.897" width="409.345" height="276.995" filterUnits="userSpaceOnUse" color-interpolation-filters="sRGB">
<feFlood flood-opacity="0" result="BackgroundImageFix"/>
<feColorMatrix in="SourceAlpha" type="matrix" values="0 0 0 0 0 0 0 0 0 0 0 0 0 0 0 0 0 0 127 0" result="hardAlpha"/>
<feOffset dy="8"/>
<feGaussianBlur stdDeviation="16"/>
<feColorMatrix type="matrix" values="0 0 0 0 0.118 0 0 0 0 0.157 0 0 0 0 0.133 0 0 0 0.16 0"/>
<feBlend mode="normal" in2="BackgroundImageFix" result="effect1_dropShadow_156_5237"/>
<feColorMatrix in="SourceAlpha" type="matrix" values="0 0 0 0 0 0 0 0 0 0 0 0 0 0 0 0 0 0 127 0" result="hardAlpha"/>
<feOffset dy="2"/>
<feGaussianBlur stdDeviation="4"/>
<feColorMatrix type="matrix" values="0 0 0 0 0.118 0 0 0 0 0.157 0 0 0 0 0.133 0 0 0 0.08 0"/>
<feBlend mode="normal" in2="effect1_dropShadow_156_5237" result="effect2_dropShadow_156_5237"/>
<feBlend mode="normal" in="SourceGraphic" in2="effect2_dropShadow_156_5237" result="shape"/>
</filter>
<filter id="filter2_dd_156_5237" x="0" y="240.958" width="409.342" height="118.974" filterUnits="userSpaceOnUse" color-interpolation-filters="sRGB">
<feFlood flood-opacity="0" result="BackgroundImageFix"/>
<feColorMatrix in="SourceAlpha" type="matrix" values="0 0 0 0 0 0 0 0 0 0 0 0 0 0 0 0 0 0 127 0" result="hardAlpha"/>
<feOffset dy="8"/>
<feGaussianBlur stdDeviation="16"/>
<feColorMatrix type="matrix" values="0 0 0 0 0.118 0 0 0 0 0.157 0 0 0 0 0.133 0 0 0 0.16 0"/>
<feBlend mode="normal" in2="BackgroundImageFix" result="effect1_dropShadow_156_5237"/>
<feColorMatrix in="SourceAlpha" type="matrix" values="0 0 0 0 0 0 0 0 0 0 0 0 0 0 0 0 0 0 127 0" result="hardAlpha"/>
<feOffset dy="2"/>
<feGaussianBlur stdDeviation="4"/>
<feColorMatrix type="matrix" values="0 0 0 0 0.118 0 0 0 0 0.157 0 0 0 0 0.133 0 0 0 0.08 0"/>
<feBlend mode="normal" in2="effect1_dropShadow_156_5237" result="effect2_dropShadow_156_5237"/>
<feBlend mode="normal" in="SourceGraphic" in2="effect2_dropShadow_156_5237" result="shape"/>
</filter>
<filter id="filter3_dd_156_5237" x="0" y="129.991" width="409.342" height="118.974" filterUnits="userSpaceOnUse" color-interpolation-filters="sRGB">
<feFlood flood-opacity="0" result="BackgroundImageFix"/>
<feColorMatrix in="SourceAlpha" type="matrix" values="0 0 0 0 0 0 0 0 0 0 0 0 0 0 0 0 0 0 127 0" result="hardAlpha"/>
<feOffset dy="8"/>
<feGaussianBlur stdDeviation="16"/>
<feColorMatrix type="matrix" values="0 0 0 0 0.118 0 0 0 0 0.157 0 0 0 0 0.133 0 0 0 0.16 0"/>
<feBlend mode="normal" in2="BackgroundImageFix" result="effect1_dropShadow_156_5237"/>
<feColorMatrix in="SourceAlpha" type="matrix" values="0 0 0 0 0 0 0 0 0 0 0 0 0 0 0 0 0 0 127 0" result="hardAlpha"/>
<feOffset dy="2"/>
<feGaussianBlur stdDeviation="4"/>
<feColorMatrix type="matrix" values="0 0 0 0 0.118 0 0 0 0 0.157 0 0 0 0 0.133 0 0 0 0.08 0"/>
<feBlend mode="normal" in2="effect1_dropShadow_156_5237" result="effect2_dropShadow_156_5237"/>
<feBlend mode="normal" in="SourceGraphic" in2="effect2_dropShadow_156_5237" result="shape"/>
</filter>
<filter id="filter4_dd_156_5237" x="232.751" y="307.75" width="116.5" height="294.5" filterUnits="userSpaceOnUse" color-interpolation-filters="sRGB">
<feFlood flood-opacity="0" result="BackgroundImageFix"/>
<feColorMatrix in="SourceAlpha" type="matrix" values="0 0 0 0 0 0 0 0 0 0 0 0 0 0 0 0 0 0 127 0" result="hardAlpha"/>
<feOffset dy="2"/>
<feGaussianBlur stdDeviation="4"/>
<feColorMatrix type="matrix" values="0 0 0 0 0.118 0 0 0 0 0.157 0 0 0 0 0.133 0 0 0 0.09 0"/>
<feBlend mode="normal" in2="BackgroundImageFix" result="effect1_dropShadow_156_5237"/>
<feColorMatrix in="SourceAlpha" type="matrix" values="0 0 0 0 0 0 0 0 0 0 0 0 0 0 0 0 0 0 127 0" result="hardAlpha"/>
<feOffset dy="1"/>
<feGaussianBlur stdDeviation="1"/>
<feColorMatrix type="matrix" values="0 0 0 0 0.118 0 0 0 0 0.157 0 0 0 0 0.133 0 0 0 0.04 0"/>
<feBlend mode="normal" in2="effect1_dropShadow_156_5237" result="effect2_dropShadow_156_5237"/>
<feBlend mode="normal" in="SourceGraphic" in2="effect2_dropShadow_156_5237" result="shape"/>
</filter>
<clipPath id="clip0_156_5237">
<rect width="89.9996" height="7.99554" fill="white" transform="translate(159.671 21.9966)"/>
</clipPath>
</defs>
</svg>
