<svg width="410" height="700" viewBox="0 0 410 700" fill="none" xmlns="http://www.w3.org/2000/svg">
<g id="Property 1=age_dropdown">
<path d="M8.00146 16C8.00146 7.16347 15.1649 0 24.0015 0H385.34C394.177 0 401.34 7.16344 401.34 16V680.815H8.00146V16Z" fill="#1C2120"/>
<g id="Frame 62">
<g id="Heading 2">
<path id="&#236;&#151;&#172;&#237;&#150;&#137; &#236;&#160;&#149;&#235;&#179;&#180;&#235;&#165;&#188; &#236;&#158;&#133;&#235;&#160;&#165;&#237;&#149;&#180;&#236;&#163;&#188;&#236;&#132;&#184;&#236;&#154;&#148;" d="M38.1553 73.9102C39.917 73.9102 41.3672 74.8877 42.2373 76.5957H46.7705V72.4922H49.1338V91.9355H46.7705V84.5879H42.4092C41.5713 86.5215 40.0352 87.6387 38.1553 87.6387C35.2334 87.6387 33.1709 84.9961 33.1709 80.7637C33.1709 76.5742 35.2334 73.9102 38.1553 73.9102ZM38.1553 76.0586C36.5439 76.0586 35.4482 77.7988 35.4697 80.7637C35.4482 83.75 36.5439 85.4902 38.1553 85.4902C39.7666 85.4902 40.8408 83.75 40.8623 80.7637C40.8408 77.7988 39.7666 76.0586 38.1553 76.0586ZM42.9033 78.5508C43.043 79.2275 43.1182 79.9688 43.1182 80.7637C43.1182 81.4404 43.0645 82.0635 42.9678 82.6543H46.7705V78.5508H42.9033ZM68.4697 72.4922V84.6953H66.1924V79.4102H64.3018V84.0508H62.0674V72.8789H64.3018V77.4766H66.1924V72.4922H68.4697ZM61.4229 74.5977V76.4668H51.7549V74.5977H55.4287V72.6641H57.792V74.5977H61.4229ZM56.6104 77.2617C59.0811 77.2617 60.8213 78.5938 60.8428 80.6133C60.8213 82.6328 59.0811 83.9648 56.6104 83.9648C54.1826 83.9648 52.4209 82.6328 52.4424 80.6133C52.4209 78.5938 54.1826 77.2617 56.6104 77.2617ZM56.6104 78.9805C55.4072 78.9805 54.5693 79.6035 54.5693 80.6133C54.5693 81.623 55.3857 82.2461 56.6104 82.2461C57.835 82.2461 58.6729 81.623 58.6729 80.6133C58.6729 79.6035 57.835 78.9805 56.6104 78.9805ZM61.917 84.9316C66.0635 84.9316 68.5557 86.1992 68.5771 88.4336C68.5557 90.625 66.0635 91.8926 61.917 91.8926C57.7705 91.8926 55.2568 90.625 55.2568 88.4336C55.2568 86.1992 57.7705 84.9316 61.917 84.9316ZM61.917 86.7578C59.1455 86.7363 57.6416 87.2949 57.6416 88.4336C57.6416 89.5078 59.1455 90.0664 61.917 90.0664C64.667 90.0664 66.1709 89.5078 66.1709 88.4336C66.1709 87.2949 64.667 86.7363 61.917 86.7578ZM92.3604 72.4922V84.0293H89.9756V79.2812H86.667V77.3262H89.9756V72.4922H92.3604ZM85.7861 84.5234C89.9111 84.5234 92.4248 85.877 92.4248 88.2188C92.4248 90.5605 89.9111 91.9141 85.7861 91.9141C81.6826 91.9141 79.1689 90.5605 79.1904 88.2188C79.1689 85.877 81.6826 84.5234 85.7861 84.5234ZM85.7861 86.3496C83.0791 86.3496 81.5537 86.9941 81.5537 88.2188C81.5537 89.4219 83.0791 90.0664 85.7861 90.0664C88.4932 90.0664 90.04 89.4219 90.04 88.2188C90.04 86.9941 88.4932 86.3496 85.7861 86.3496ZM83.2295 75.8223C83.2295 78.1855 84.7979 80.5703 87.8057 81.5801L86.6025 83.4707C84.4434 82.7402 82.9072 81.2578 82.0693 79.4316C81.21 81.5049 79.5879 83.1592 77.2783 83.9863L76.0322 82.0957C79.1475 81.0215 80.8018 78.4004 80.8018 75.8438V75.6934H76.7627V73.7598H87.2471V75.6934H83.2295V75.8223ZM112.856 87.6172V89.5723H95.1104V87.6172H102.759V83.8359H97.0654V73.7812H99.4502V76.9609H108.452V73.7812H110.837V83.8359H105.122V87.6172H112.856ZM99.4502 81.9023H108.452V78.873H99.4502V81.9023ZM131.849 81.3008V83.1055H114.103V81.3008H131.849ZM129.7 84.2656V88.6914H118.571V90.0449H130.28V91.6992H116.187V87.1445H127.337V85.9414H116.165V84.2656H129.7ZM129.657 72.9219V77.3047H118.722V78.5723H130.001V80.2051H116.358V75.7578H127.272V74.5762H116.294V72.9219H129.657ZM154.536 72.4922V82.9121H152.13V72.4922H154.536ZM144.052 83.8145V85.8125H152.151V83.8145H154.536V91.6777H141.688V83.8145H144.052ZM144.052 89.7441H152.151V87.6816H144.052V89.7441ZM143.944 73.3516C146.931 73.3301 149.165 75.1992 149.165 77.9062C149.165 80.5488 146.931 82.418 143.944 82.418C140.937 82.418 138.702 80.5488 138.702 77.9062C138.702 75.1992 140.937 73.3301 143.944 73.3516ZM143.944 75.3496C142.247 75.3496 141.022 76.3379 141.044 77.9062C141.022 79.4531 142.247 80.4414 143.944 80.4629C145.62 80.4414 146.823 79.4531 146.823 77.9062C146.823 76.3379 145.62 75.3496 143.944 75.3496ZM166.653 73.6523V79.4961H160.53V81.8809C163.646 81.8916 165.439 81.7949 167.491 81.4082L167.728 83.3418C165.407 83.7285 163.388 83.793 159.585 83.793H158.167V77.7129H164.269V75.543H158.124V73.6523H166.653ZM173.636 72.5137V84.459H171.251V81.2578H167.813V79.3457H171.251V77.1758H167.813V75.2637H171.251V72.5137H173.636ZM173.636 85.3828V91.9141H171.251V87.2949H160.358V85.3828H173.636ZM185.86 75.5859V77.498H176.343V75.5859H179.952V73.0508H182.315V75.5859H185.86ZM181.134 78.5293C183.604 78.5293 185.366 80.3984 185.366 83.041C185.366 85.7266 183.604 87.6172 181.134 87.6172C178.685 87.6172 176.88 85.7266 176.901 83.041C176.88 80.3984 178.685 78.5293 181.134 78.5293ZM181.134 80.5059C179.866 80.5059 178.985 81.5156 179.007 83.041C178.985 84.6094 179.866 85.5977 181.134 85.5762C182.38 85.5977 183.261 84.6094 183.261 83.041C183.261 81.5156 182.38 80.5059 181.134 80.5059ZM193.079 72.4922V91.9141H190.802V82.418H188.911V91.0332H186.677V72.9004H188.911V80.4844H190.802V72.4922H193.079ZM213.103 83.3203V85.2539H205.39V91.8926H203.026V85.2539H195.399V83.3203H213.103ZM211.47 73.5879V75.4785H205.647C205.787 77.6055 208.344 79.6465 212.179 80.1406L211.319 82.0098C208.011 81.5479 205.433 80.0332 204.251 77.9277C203.069 80.0332 200.491 81.5479 197.226 82.0098L196.323 80.1406C200.137 79.6465 202.693 77.6055 202.876 75.4785H197.032V73.5879H211.47ZM220.472 77.584C220.472 80.7207 221.567 83.9863 224.188 85.6406L222.878 87.4668C221.127 86.4141 219.988 84.5986 219.354 82.4609C218.646 84.8135 217.399 86.8008 215.573 87.918L214.091 86.1348C216.905 84.416 218.173 81 218.173 77.6914V74.2109H220.472V77.584ZM231.171 72.4922V91.9141H228.872V72.4922H231.171ZM227.132 72.8359V90.9688H224.876V81.1504H222.104V79.1738H224.876V72.8359H227.132ZM251.173 87.5957V89.5508H233.427V87.5957H237.53V82.6758C235.983 81.7949 235.049 80.4092 235.06 78.6797C235.038 75.5859 238.089 73.5449 242.257 73.5449C246.446 73.5449 249.497 75.5859 249.497 78.6797C249.497 80.377 248.595 81.7412 247.091 82.6328V87.5957H251.173ZM242.257 75.4355C239.356 75.4355 237.38 76.6602 237.401 78.6797C237.38 80.6777 239.356 81.9238 242.257 81.9238C245.157 81.9238 247.155 80.6777 247.155 78.6797C247.155 76.6602 245.157 75.4355 242.257 75.4355ZM239.894 87.5957H244.663V83.5352C243.922 83.707 243.116 83.793 242.257 83.793C241.419 83.793 240.624 83.707 239.894 83.5566V87.5957Z" fill="#E8E4DC"/>
</g>
<g id="Container">
<g id="GuestsField">
<g id="Paragraph">
<path id="&#236;&#157;&#184;&#236;&#155;&#144;" d="M42.7051 357.726H41.1738V348.798H42.7051V357.726ZM43.0469 360.897H34.5293V356.823H36.0605V359.667H43.0469V360.897ZM35.9648 349.604C36.5846 349.604 37.1475 349.739 37.6533 350.008C38.1592 350.272 38.5579 350.639 38.8496 351.108C39.1413 351.578 39.2871 352.106 39.2871 352.694C39.2871 353.291 39.1413 353.827 38.8496 354.301C38.5579 354.77 38.1592 355.137 37.6533 355.401C37.1475 355.666 36.5846 355.798 35.9648 355.798C35.3405 355.798 34.7731 355.666 34.2627 355.401C33.7568 355.137 33.3581 354.77 33.0664 354.301C32.7747 353.827 32.6289 353.291 32.6289 352.694C32.6289 352.106 32.7747 351.578 33.0664 351.108C33.3581 350.639 33.7568 350.272 34.2627 350.008C34.7731 349.739 35.3405 349.604 35.9648 349.604ZM35.9648 350.931C35.6139 350.931 35.2972 351.004 35.0146 351.149C34.7321 351.295 34.5111 351.503 34.3516 351.771C34.1921 352.04 34.1146 352.348 34.1191 352.694C34.1146 353.05 34.1921 353.362 34.3516 353.631C34.5111 353.9 34.7321 354.107 35.0146 354.253C35.2972 354.399 35.6139 354.472 35.9648 354.472C36.3066 354.472 36.6165 354.399 36.8945 354.253C37.1725 354.107 37.3913 353.9 37.5508 353.631C37.7148 353.362 37.7969 353.05 37.7969 352.694C37.7969 352.348 37.7148 352.04 37.5508 351.771C37.3913 351.503 37.1725 351.295 36.8945 351.149C36.6165 351.004 36.3066 350.931 35.9648 350.931ZM54.873 358.149H53.3418V357.069H50.9219V356.003H53.3418V348.798H54.873V358.149ZM55.1602 360.897H46.0957V357.247H47.6133V359.667H55.1602V360.897ZM44.4551 354.349C46.0592 354.34 47.4993 354.312 48.7754 354.267C50.0514 354.221 51.2682 354.125 52.4258 353.979L52.5078 355.073C51.5189 355.237 50.4798 355.356 49.3906 355.429V357.808H47.873V355.511C46.9935 355.547 45.918 355.565 44.6465 355.565L44.4551 354.349ZM48.4883 349.249C49.0853 349.249 49.6139 349.342 50.0742 349.529C50.5391 349.712 50.9014 349.969 51.1611 350.302C51.4255 350.63 51.5599 351.008 51.5645 351.437C51.5599 351.874 51.4277 352.257 51.168 352.585C50.9082 352.913 50.5459 353.166 50.0811 353.344C49.6162 353.521 49.0853 353.61 48.4883 353.61C47.8822 353.61 47.3444 353.521 46.875 353.344C46.4102 353.166 46.0479 352.913 45.7881 352.585C45.5283 352.257 45.3984 351.874 45.3984 351.437C45.3984 351.008 45.5283 350.63 45.7881 350.302C46.0479 349.969 46.4102 349.712 46.875 349.529C47.3444 349.342 47.8822 349.249 48.4883 349.249ZM48.4883 350.37C47.9915 350.37 47.5905 350.466 47.2852 350.657C46.9844 350.844 46.834 351.104 46.834 351.437C46.834 351.769 46.9844 352.031 47.2852 352.223C47.5905 352.41 47.9915 352.503 48.4883 352.503C48.9668 352.503 49.3564 352.407 49.6572 352.216C49.958 352.024 50.1107 351.765 50.1152 351.437C50.1107 351.108 49.958 350.849 49.6572 350.657C49.3564 350.466 48.9668 350.37 48.4883 350.37Z" fill="#B8B5AE"/>
</g>
<g id="Frame 61">
<g id="Button" filter="url(#filter0_dd_121_5205)">
<path d="M32 391.924C32 383.087 39.1634 375.924 48 375.924H361.342C370.178 375.924 377.342 383.087 377.342 391.924V414.898C377.342 423.734 370.178 430.898 361.342 430.898H48C39.1635 430.898 32 423.734 32 414.898V391.924Z" fill="#262B28"/>
<path d="M48 376.424H361.342C369.902 376.424 376.842 383.363 376.842 391.924V414.897C376.842 423.458 369.902 430.397 361.342 430.397H48C39.4396 430.397 32.5 423.458 32.5 414.897V391.924C32.5 383.363 39.4396 376.424 48 376.424Z" stroke="#373F3B"/>
<g id="Paragraph_2">
<path id="&#236;&#132;&#177;&#236;&#157;&#184; 2 &#235;&#170;&#133;, &#236;&#149;&#132;&#235;&#143;&#153; 1 &#235;&#170;&#133;" d="M54.2881 398.375C54.2832 398.985 54.3979 399.561 54.6323 400.103C54.8667 400.645 55.2183 401.124 55.687 401.539C56.1606 401.949 56.7344 402.261 57.4082 402.476L56.5293 403.75C55.8164 403.501 55.2061 403.145 54.6982 402.681C54.1953 402.217 53.7998 401.666 53.5117 401.026C53.2139 401.763 52.7866 402.403 52.23 402.945C51.6733 403.482 51.002 403.887 50.2158 404.161L49.3516 402.842C50.0645 402.608 50.6675 402.269 51.1606 401.824C51.6538 401.38 52.0249 400.867 52.2739 400.286C52.5229 399.705 52.6475 399.092 52.6475 398.448V397.188H54.2881V398.375ZM60.5283 404.263H58.9023V400.367H56.2656V399.034H58.9023V396.47H60.5283V404.263ZM56.0459 404.615C56.9785 404.615 57.7842 404.715 58.4629 404.915C59.1465 405.115 59.6689 405.408 60.0303 405.794C60.3916 406.175 60.5723 406.631 60.5723 407.164C60.5723 407.696 60.3916 408.152 60.0303 408.533C59.6689 408.914 59.1489 409.202 58.4702 409.397C57.7915 409.598 56.9834 409.698 56.0459 409.698C55.1133 409.698 54.3076 409.598 53.6289 409.397C52.9551 409.202 52.4375 408.914 52.0762 408.533C51.7197 408.152 51.5439 407.696 51.5488 407.164C51.5439 406.631 51.7197 406.175 52.0762 405.794C52.4375 405.408 52.9575 405.115 53.6362 404.915C54.3149 404.715 55.1182 404.615 56.0459 404.615ZM56.0459 405.875C55.1182 405.875 54.4053 405.987 53.9072 406.211C53.4092 406.431 53.1602 406.749 53.1602 407.164C53.1602 407.569 53.4092 407.881 53.9072 408.101C54.4102 408.316 55.123 408.423 56.0459 408.423C56.9688 408.423 57.6816 408.313 58.1846 408.094C58.6924 407.874 58.9463 407.564 58.9463 407.164C58.9463 406.749 58.6948 406.431 58.1919 406.211C57.689 405.987 56.9736 405.875 56.0459 405.875ZM73.4336 406.05H71.793V396.485H73.4336V406.05ZM73.7998 409.449H64.6738V405.083H66.3145V408.13H73.7998V409.449ZM66.2119 397.349C66.876 397.349 67.479 397.493 68.021 397.781C68.563 398.064 68.9902 398.458 69.3027 398.96C69.6152 399.463 69.7715 400.03 69.7715 400.66C69.7715 401.299 69.6152 401.873 69.3027 402.381C68.9902 402.884 68.563 403.277 68.021 403.56C67.479 403.843 66.876 403.985 66.2119 403.985C65.543 403.985 64.9351 403.843 64.3882 403.56C63.8462 403.277 63.4189 402.884 63.1064 402.381C62.7939 401.873 62.6377 401.299 62.6377 400.66C62.6377 400.03 62.7939 399.463 63.1064 398.96C63.4189 398.458 63.8462 398.064 64.3882 397.781C64.9351 397.493 65.543 397.349 66.2119 397.349ZM66.2119 398.77C65.8359 398.77 65.4966 398.848 65.1938 399.004C64.8911 399.161 64.6543 399.383 64.4834 399.671C64.3125 399.959 64.2295 400.289 64.2344 400.66C64.2295 401.041 64.3125 401.375 64.4834 401.663C64.6543 401.951 64.8911 402.173 65.1938 402.33C65.4966 402.486 65.8359 402.564 66.2119 402.564C66.5781 402.564 66.9102 402.486 67.208 402.33C67.5059 402.173 67.7402 401.951 67.9111 401.663C68.0869 401.375 68.1748 401.041 68.1748 400.66C68.1748 400.289 68.0869 399.959 67.9111 399.671C67.7402 399.383 67.5059 399.161 67.208 399.004C66.9102 398.848 66.5781 398.77 66.2119 398.77ZM79.3662 407.032L83.1162 403.414C83.5215 403.008 83.834 402.676 84.0537 402.417C84.2783 402.154 84.4492 401.895 84.5664 401.641C84.6836 401.382 84.7422 401.109 84.7422 400.821C84.7422 400.499 84.6641 400.215 84.5078 399.971C84.3516 399.727 84.1343 399.539 83.856 399.407C83.5825 399.275 83.2725 399.209 82.9258 399.209C82.5645 399.209 82.2471 399.283 81.9736 399.429C81.7051 399.571 81.4976 399.776 81.3511 400.044C81.2046 400.308 81.1338 400.616 81.1387 400.967H79.3223C79.3174 400.308 79.4688 399.729 79.7764 399.231C80.084 398.729 80.5112 398.34 81.0581 398.067C81.6099 397.793 82.2373 397.657 82.9404 397.657C83.6533 397.657 84.2832 397.789 84.8301 398.052C85.3818 398.316 85.8091 398.682 86.1118 399.151C86.4194 399.615 86.5732 400.142 86.5732 400.733C86.5732 401.143 86.4927 401.539 86.3315 401.919C86.1753 402.3 85.9067 402.723 85.5259 403.187C85.145 403.646 84.6055 404.205 83.9072 404.864L82.0176 406.739V406.812H86.7344V408.409H79.3662V407.032ZM102.613 404.263H100.987V402.432H98.3213V403.458H92.0957V397.466H98.3213V398.492H100.987V396.47H102.613V404.263ZM93.7217 402.154H96.71V398.755H93.7217V402.154ZM98.1309 404.615C99.0635 404.615 99.8691 404.715 100.548 404.915C101.231 405.115 101.754 405.408 102.115 405.794C102.477 406.175 102.657 406.631 102.657 407.164C102.657 407.696 102.477 408.152 102.115 408.533C101.754 408.914 101.234 409.202 100.555 409.397C99.8765 409.598 99.0684 409.698 98.1309 409.698C97.1982 409.698 96.3926 409.598 95.7139 409.397C95.04 409.202 94.5225 408.914 94.1611 408.533C93.8047 408.152 93.6289 407.696 93.6338 407.164C93.6289 406.631 93.8047 406.175 94.1611 405.794C94.5225 405.408 95.0425 405.115 95.7212 404.915C96.3999 404.715 97.2031 404.615 98.1309 404.615ZM98.1309 405.86C97.2031 405.86 96.4902 405.972 95.9922 406.197C95.4941 406.417 95.2451 406.739 95.2451 407.164C95.2451 407.574 95.4941 407.889 95.9922 408.108C96.4951 408.328 97.208 408.438 98.1309 408.438C99.0586 408.438 99.7739 408.328 100.277 408.108C100.78 407.889 101.031 407.574 101.031 407.164C101.031 406.739 100.78 406.417 100.277 406.197C99.7739 405.972 99.0586 405.86 98.1309 405.86ZM100.987 401.114V399.781H98.3213V401.114H100.987ZM105.836 411.47H104.444L105.206 407.369H107.066L105.836 411.47ZM115.431 397.437C116.095 397.437 116.686 397.63 117.203 398.016C117.721 398.396 118.126 398.941 118.419 399.649C118.717 400.352 118.868 401.172 118.873 402.11C118.868 403.057 118.717 403.885 118.419 404.593C118.126 405.301 117.721 405.845 117.203 406.226C116.686 406.607 116.095 406.797 115.431 406.797C114.762 406.797 114.166 406.607 113.644 406.226C113.121 405.84 112.713 405.293 112.42 404.585C112.127 403.877 111.983 403.052 111.988 402.11C111.983 401.177 112.127 400.357 112.42 399.649C112.713 398.941 113.121 398.396 113.644 398.016C114.166 397.63 114.762 397.437 115.431 397.437ZM115.431 398.902C115.06 398.902 114.732 399.031 114.449 399.29C114.166 399.544 113.946 399.913 113.79 400.396C113.634 400.875 113.556 401.446 113.556 402.11C113.556 402.779 113.634 403.355 113.79 403.838C113.946 404.322 114.166 404.693 114.449 404.952C114.732 405.206 115.06 405.333 115.431 405.333C115.807 405.333 116.136 405.206 116.419 404.952C116.703 404.693 116.92 404.322 117.071 403.838C117.228 403.355 117.306 402.779 117.306 402.11C117.306 401.446 117.228 400.872 117.071 400.389C116.92 399.905 116.703 399.537 116.419 399.283C116.136 399.029 115.807 398.902 115.431 398.902ZM122.242 401.553H124.278V402.93H122.242V409.712H120.616V396.47H122.242V401.553ZM136.92 404.117H124.835V402.813H130.079V401.553H126.314V397.071H135.455V398.345H127.94V400.264H135.528V401.553H131.676V402.813H136.92V404.117ZM130.855 404.878C131.808 404.878 132.625 404.974 133.309 405.164C133.993 405.35 134.518 405.623 134.884 405.984C135.25 406.346 135.436 406.783 135.44 407.295C135.436 407.803 135.25 408.238 134.884 408.599C134.518 408.96 133.99 409.236 133.302 409.427C132.618 409.617 131.803 409.712 130.855 409.712C129.898 409.712 129.073 409.617 128.38 409.427C127.687 409.236 127.157 408.96 126.791 408.599C126.424 408.238 126.241 407.803 126.241 407.295C126.241 406.783 126.424 406.346 126.791 405.984C127.157 405.623 127.684 405.35 128.373 405.164C129.066 404.974 129.894 404.878 130.855 404.878ZM130.855 406.124C129.889 406.124 129.151 406.224 128.644 406.424C128.141 406.624 127.892 406.915 127.896 407.295C127.892 407.676 128.141 407.964 128.644 408.16C129.146 408.355 129.884 408.453 130.855 408.453C131.808 408.453 132.538 408.355 133.045 408.16C133.553 407.964 133.81 407.676 133.814 407.295C133.81 406.915 133.551 406.624 133.038 406.424C132.53 406.224 131.803 406.124 130.855 406.124ZM146.104 408.409H144.186V399.664H144.127L141.651 401.246V399.502L144.273 397.803H146.104V408.409ZM162.892 404.263H161.266V402.432H158.6V403.458H152.374V397.466H158.6V398.492H161.266V396.47H162.892V404.263ZM154 402.154H156.988V398.755H154V402.154ZM158.409 404.615C159.342 404.615 160.147 404.715 160.826 404.915C161.51 405.115 162.032 405.408 162.394 405.794C162.755 406.175 162.936 406.631 162.936 407.164C162.936 407.696 162.755 408.152 162.394 408.533C162.032 408.914 161.512 409.202 160.833 409.397C160.155 409.598 159.347 409.698 158.409 409.698C157.477 409.698 156.671 409.598 155.992 409.397C155.318 409.202 154.801 408.914 154.439 408.533C154.083 408.152 153.907 407.696 153.912 407.164C153.907 406.631 154.083 406.175 154.439 405.794C154.801 405.408 155.321 405.115 156 404.915C156.678 404.715 157.481 404.615 158.409 404.615ZM158.409 405.86C157.481 405.86 156.769 405.972 156.271 406.197C155.772 406.417 155.523 406.739 155.523 407.164C155.523 407.574 155.772 407.889 156.271 408.108C156.773 408.328 157.486 408.438 158.409 408.438C159.337 408.438 160.052 408.328 160.555 408.108C161.058 407.889 161.31 407.574 161.31 407.164C161.31 406.739 161.058 406.417 160.555 406.197C160.052 405.972 159.337 405.86 158.409 405.86ZM161.266 401.114V399.781H158.6V401.114H161.266Z" fill="#E8E4DC"/>
</g>
</g>
<g id="Container_2" filter="url(#filter1_dd_121_5205)">
<path d="M32 462.897C32 454.061 39.1634 446.897 48 446.897H361.345C370.182 446.897 377.345 454.061 377.345 462.897V643.892C377.345 652.729 370.182 659.892 361.345 659.892H48C39.1634 659.892 32 652.729 32 643.892V462.897Z" fill="#262B28"/>
<path d="M48 447.397H361.346C369.906 447.398 376.846 454.337 376.846 462.897V643.893C376.846 652.453 369.906 659.392 361.346 659.393H48C39.4396 659.393 32.5001 652.453 32.5 643.893V462.897C32.5 454.337 39.4396 447.397 48 447.397Z" stroke="#373F3B"/>
<g id="Container_3">
<g id="Text">
<path id="&#236;&#132;&#177;&#236;&#157;&#184;" d="M61.2881 483.866C61.2734 485.667 62.3281 487.308 64.4082 487.967L63.5293 489.242C62.0864 488.736 61.0757 487.777 60.5117 486.517C59.9258 487.96 58.8198 489.095 57.2158 489.652L56.3516 488.333C58.5488 487.616 59.6475 485.843 59.6475 483.939V482.679H61.2881V483.866ZM67.5283 481.961V489.754H65.9023V485.858H63.2656V484.525H65.9023V481.961H67.5283ZM63.0459 490.106C65.8584 490.106 67.5723 491.043 67.5723 492.655C67.5723 494.266 65.8584 495.189 63.0459 495.189C60.248 495.189 58.5342 494.266 58.5488 492.655C58.5342 491.043 60.248 490.106 63.0459 490.106ZM63.0459 491.366C61.2002 491.366 60.1602 491.82 60.1602 492.655C60.1602 493.46 61.2002 493.915 63.0459 493.915C64.8916 493.915 65.9463 493.46 65.9463 492.655C65.9463 491.82 64.8916 491.366 63.0459 491.366ZM80.4336 481.976V491.542H78.793V481.976H80.4336ZM80.7998 493.622V494.94H71.6738V490.575H73.3145V493.622H80.7998ZM73.2119 482.84C75.2188 482.84 76.7715 484.232 76.7715 486.151C76.7715 488.114 75.2188 489.476 73.2119 489.476C71.1904 489.476 69.6377 488.114 69.6377 486.151C69.6377 484.232 71.1904 482.84 73.2119 482.84ZM73.2119 484.261C72.084 484.261 71.2197 485.008 71.2344 486.151C71.2197 487.323 72.084 488.055 73.2119 488.055C74.3105 488.055 75.1748 487.323 75.1748 486.151C75.1748 485.008 74.3105 484.261 73.2119 484.261Z" fill="#E8E4DC"/>
</g>
<g id="Container_4">
<g id="Button_2">
<mask id="path-10-inside-1_121_5205" fill="white">
<path d="M209.378 488.896C209.378 478.956 217.437 470.897 227.377 470.897C237.318 470.897 245.376 478.956 245.376 488.896C245.376 498.837 237.318 506.895 227.377 506.895C217.437 506.895 209.378 498.837 209.378 488.896Z"/>
</mask>
<path d="M227.377 506.895V505.397C218.264 505.397 210.877 498.009 210.877 488.896H209.378H207.88C207.88 499.664 216.609 508.393 227.377 508.393V506.895ZM245.376 488.896H243.877C243.877 498.009 236.49 505.397 227.377 505.397V506.895V508.393C238.145 508.393 246.874 499.664 246.874 488.896H245.376ZM227.377 470.897V472.396C236.49 472.396 243.877 479.783 243.877 488.896H245.376H246.874C246.874 478.128 238.145 469.399 227.377 469.399V470.897ZM227.377 470.897V469.399C216.609 469.399 207.88 478.128 207.88 488.896H209.378H210.877C210.877 479.783 218.264 472.396 227.377 472.396V470.897Z" fill="#373F3B" mask="url(#path-10-inside-1_121_5205)"/>
<g id="Icon">
<path id="Vector" d="M222.708 488.896H232.036" stroke="#7A7873" stroke-width="1.33259" stroke-linecap="round" stroke-linejoin="round"/>
</g>
</g>
<g id="Text_2">
<path id="2" d="M277.656 494.145V492.676L281.656 488.816C282.796 487.676 283.39 487.004 283.39 486.051C283.39 485.004 282.562 484.332 281.453 484.332C280.281 484.332 279.531 485.066 279.546 486.207H277.609C277.593 484.066 279.203 482.676 281.468 482.676C283.781 482.676 285.343 484.051 285.343 485.957C285.343 487.238 284.718 488.27 282.5 490.363L280.484 492.363V492.441H285.515V494.145H277.656Z" fill="#E8E4DC"/>
</g>
<g id="Button_3">
<mask id="path-14-inside-2_121_5205" fill="white">
<path d="M317.348 488.896C317.348 478.956 325.406 470.897 335.346 470.897C345.287 470.897 353.345 478.956 353.345 488.896C353.345 498.837 345.287 506.895 335.346 506.895C325.406 506.895 317.348 498.837 317.348 488.896Z"/>
</mask>
<path d="M335.346 506.895V505.397C326.234 505.397 318.846 498.009 318.846 488.896H317.348H315.849C315.849 499.664 324.578 508.393 335.346 508.393V506.895ZM353.345 488.896H351.847C351.847 498.009 344.459 505.397 335.346 505.397V506.895V508.393C346.114 508.393 354.844 499.664 354.844 488.896H353.345ZM335.346 470.897V472.396C344.459 472.396 351.847 479.783 351.847 488.896H353.345H354.844C354.844 478.128 346.114 469.399 335.346 469.399V470.897ZM335.346 470.897V469.399C324.578 469.399 315.849 478.128 315.849 488.896H317.348H318.846C318.846 479.783 326.234 472.396 335.346 472.396V470.897Z" fill="#373F3B" mask="url(#path-14-inside-2_121_5205)"/>
<g id="Icon_2">
<path id="Vector_2" d="M330.677 488.896H340.005" stroke="#7A7873" stroke-width="1.33259" stroke-linecap="round" stroke-linejoin="round"/>
<path id="Vector_3" d="M335.341 484.232V493.561" stroke="#7A7873" stroke-width="1.33259" stroke-linecap="round" stroke-linejoin="round"/>
</g>
</g>
</g>
</g>
<g id="Container_5">
<g id="Text_3">
<path id="&#236;&#149;&#132;&#235;&#143;&#153;" d="M59.999 544.925C61.9912 544.925 63.4268 546.742 63.4414 549.598C63.4268 552.484 61.9912 554.286 59.999 554.286C57.9922 554.286 56.542 552.484 56.5566 549.598C56.542 546.742 57.9922 544.925 59.999 544.925ZM59.999 546.39C58.8857 546.39 58.124 547.577 58.124 549.598C58.124 551.634 58.8857 552.821 59.999 552.821C61.127 552.821 61.874 551.634 61.874 549.598C61.874 547.577 61.127 546.39 59.999 546.39ZM66.8105 543.958V549.042H68.8467V550.418H66.8105V557.201H65.1846V543.958H66.8105ZM81.4883 550.301V551.605H69.4033V550.301H74.6475V549.042H70.8828V544.559H80.0234V545.833H72.5088V547.752H80.0967V549.042H76.2441V550.301H81.4883ZM75.4238 552.367C78.2803 552.367 79.9941 553.231 80.0088 554.784C79.9941 556.322 78.2803 557.201 75.4238 557.201C72.5381 557.201 70.8096 556.322 70.8096 554.784C70.8096 553.231 72.5381 552.367 75.4238 552.367ZM75.4238 553.612C73.4902 553.612 72.4502 554.022 72.4648 554.784C72.4502 555.545 73.4902 555.941 75.4238 555.941C77.3135 555.941 78.3682 555.545 78.3828 554.784C78.3682 554.022 77.3135 553.612 75.4238 553.612Z" fill="#E8E4DC"/>
</g>
<g id="Container_6">
<g id="Button_4">
<mask id="path-19-inside-3_121_5205" fill="white">
<path d="M209.378 550.894C209.378 540.953 217.437 532.895 227.377 532.895C237.318 532.895 245.376 540.953 245.376 550.894C245.376 560.834 237.318 568.893 227.377 568.893C217.437 568.893 209.378 560.834 209.378 550.894Z"/>
</mask>
<path d="M227.377 568.893V567.394C218.264 567.394 210.877 560.007 210.877 550.894H209.378H207.88C207.88 561.662 216.609 570.391 227.377 570.391V568.893ZM245.376 550.894H243.877C243.877 560.007 236.49 567.394 227.377 567.394V568.893V570.391C238.145 570.391 246.874 561.662 246.874 550.894H245.376ZM227.377 532.895V534.393C236.49 534.393 243.877 541.781 243.877 550.894H245.376H246.874C246.874 540.126 238.145 531.397 227.377 531.397V532.895ZM227.377 532.895V531.397C216.609 531.397 207.88 540.126 207.88 550.894H209.378H210.877C210.877 541.781 218.264 534.393 227.377 534.393V532.895Z" fill="#373F3B" mask="url(#path-19-inside-3_121_5205)"/>
<g id="Icon_3">
<path id="Vector_4" d="M222.708 550.894H232.036" stroke="#7A7873" stroke-width="1.33259" stroke-linecap="round" stroke-linejoin="round"/>
</g>
</g>
<g id="Text_4">
<path id="1" d="M283.545 544.83V556.142H281.499V546.814H281.436L278.795 548.501V546.642L281.592 544.83H283.545Z" fill="#E8E4DC"/>
</g>
<g id="Button_5">
<mask id="path-23-inside-4_121_5205" fill="white">
<path d="M317.348 550.894C317.348 540.953 325.406 532.895 335.346 532.895C345.287 532.895 353.345 540.953 353.345 550.894C353.345 560.834 345.287 568.893 335.346 568.893C325.406 568.893 317.348 560.834 317.348 550.894Z"/>
</mask>
<path d="M335.346 568.893V567.394C326.234 567.394 318.846 560.007 318.846 550.894H317.348H315.849C315.849 561.662 324.578 570.391 335.346 570.391V568.893ZM353.345 550.894H351.847C351.847 560.007 344.459 567.394 335.346 567.394V568.893V570.391C346.114 570.391 354.844 561.662 354.844 550.894H353.345ZM335.346 532.895V534.393C344.459 534.393 351.847 541.781 351.847 550.894H353.345H354.844C354.844 540.126 346.114 531.397 335.346 531.397V532.895ZM335.346 532.895V531.397C324.578 531.397 315.849 540.126 315.849 550.894H317.348H318.846C318.846 541.781 326.234 534.393 335.346 534.393V532.895Z" fill="#373F3B" mask="url(#path-23-inside-4_121_5205)"/>
<g id="Icon_4">
<path id="Vector_5" d="M330.677 550.894H340.005" stroke="#7A7873" stroke-width="1.33259" stroke-linecap="round" stroke-linejoin="round"/>
<path id="Vector_6" d="M335.341 546.23V555.558" stroke="#7A7873" stroke-width="1.33259" stroke-linecap="round" stroke-linejoin="round"/>
</g>
</g>
</g>
</g>
<line id="Line 4" x1="55.9985" y1="582.63" x2="348.999" y2="582.63" stroke="#7A7873" stroke-width="0.5"/>
<g id="Container_7">
<g id="Container_8">
<g id="Text_5">
<path id="&#236;&#149;&#132;&#235;&#143;&#153;1" d="M70.06 609.294C70.6853 609.294 71.236 609.476 71.712 609.84C72.188 610.194 72.5613 610.703 72.832 611.366C73.1027 612.028 73.238 612.808 73.238 613.704C73.238 614.6 73.1027 615.379 72.832 616.042C72.5613 616.704 72.188 617.218 71.712 617.582C71.236 617.946 70.6853 618.128 70.06 618.128C69.444 618.128 68.8933 617.946 68.408 617.582C67.932 617.218 67.5587 616.704 67.288 616.042C67.0173 615.379 66.882 614.6 66.882 613.704C66.882 612.808 67.0173 612.028 67.288 611.366C67.5587 610.703 67.932 610.194 68.408 609.84C68.8933 609.476 69.444 609.294 70.06 609.294ZM70.06 610.33C69.6587 610.33 69.2993 610.47 68.982 610.75C68.674 611.02 68.4313 611.412 68.254 611.926C68.0767 612.43 67.988 613.022 67.988 613.704C67.988 614.385 68.0767 614.982 68.254 615.496C68.4313 616 68.674 616.392 68.982 616.672C69.2993 616.952 69.6633 617.092 70.074 617.092C70.4753 617.092 70.83 616.952 71.138 616.672C71.4553 616.392 71.698 616 71.866 615.496C72.0433 614.982 72.132 614.385 72.132 613.704C72.132 613.022 72.0433 612.43 71.866 611.926C71.698 611.412 71.4553 611.02 71.138 610.75C70.83 610.47 70.4707 610.33 70.06 610.33ZM75.268 608.314H76.43V620.984H75.268V608.314ZM76.164 613.368H78.502V614.348H76.164V613.368ZM79.5789 614.558H91.0309V615.496H79.5789V614.558ZM84.7309 612.528H85.8649V614.95H84.7309V612.528ZM81.0209 612.164H89.6869V613.102H81.0209V612.164ZM81.0209 608.902H89.6029V609.826H82.1689V612.724H81.0209V608.902ZM85.2909 616.406C86.6442 616.406 87.7036 616.606 88.4689 617.008C89.2342 617.4 89.6169 617.96 89.6169 618.688C89.6169 619.416 89.2342 619.976 88.4689 620.368C87.7036 620.769 86.6442 620.97 85.2909 620.97C83.9376 620.97 82.8736 620.769 82.0989 620.368C81.3336 619.976 80.9509 619.416 80.9509 618.688C80.9509 617.96 81.3336 617.4 82.0989 617.008C82.8736 616.606 83.9376 616.406 85.2909 616.406ZM85.2769 617.316C84.6236 617.316 84.0589 617.372 83.5829 617.484C83.1162 617.586 82.7569 617.74 82.5049 617.946C82.2529 618.142 82.1269 618.389 82.1269 618.688C82.1269 618.977 82.2529 619.224 82.5049 619.43C82.7569 619.635 83.1162 619.789 83.5829 619.892C84.0589 620.004 84.6236 620.06 85.2769 620.06C85.9489 620.06 86.5182 620.004 86.9849 619.892C87.4609 619.789 87.8249 619.635 88.0769 619.43C88.3289 619.224 88.4549 618.977 88.4549 618.688C88.4549 618.389 88.3289 618.142 88.0769 617.946C87.8249 617.74 87.4609 617.586 86.9849 617.484C86.5182 617.372 85.9489 617.316 85.2769 617.316ZM98.8604 618.846V619.892H92.8242V618.846H95.2783V611.436L93.1045 612.987V611.825L95.3809 610.26H96.5156V618.846H98.8604Z" fill="#7A7873"/>
</g>
<g id="Dropdown">
<mask id="path-29-inside-5_121_5205" fill="white">
<path d="M239.345 606.893C239.345 600.265 244.718 594.893 251.345 594.893H331.345C337.973 594.893 343.345 600.265 343.345 606.893V623.893C343.345 630.52 337.973 635.893 331.345 635.893H251.345C244.718 635.893 239.345 630.52 239.345 623.893V606.893Z"/>
</mask>
<path d="M251.345 594.893V596.391H331.345V594.893V593.394H251.345V594.893ZM343.345 606.893H341.847V623.893H343.345H344.844V606.893H343.345ZM331.345 635.893V634.394H251.345V635.893V637.391H331.345V635.893ZM239.345 623.893H240.844V606.893H239.345H237.847V623.893H239.345ZM251.345 635.893V634.394C245.545 634.394 240.844 629.692 240.844 623.893H239.345H237.847C237.847 631.348 243.89 637.391 251.345 637.391V635.893ZM343.345 623.893H341.847C341.847 629.692 337.145 634.394 331.345 634.394V635.893V637.391C338.8 637.391 344.844 631.348 344.844 623.893H343.345ZM331.345 594.893V596.391C337.145 596.391 341.847 601.093 341.847 606.893H343.345H344.844C344.844 599.438 338.8 593.394 331.345 593.394V594.893ZM251.345 594.893V593.394C243.89 593.394 237.847 599.438 237.847 606.893H239.345H240.844C240.844 601.093 245.545 596.391 251.345 596.391V594.893Z" fill="#373F3B" mask="url(#path-29-inside-5_121_5205)"/>
<path id="&#235;&#167;&#140; 5&#236;&#132;&#184;" d="M262.563 609.463H268.387V615.315H262.563V609.463ZM267.253 610.401H263.697V614.377H267.253V610.401ZM270.711 608.315H271.873V617.597H270.711V608.315ZM271.509 612.165H273.735V613.131H271.509V612.165ZM263.991 619.753H272.433V620.705H263.991V619.753ZM263.991 616.715H265.139V620.159H263.991V616.715ZM285.319 616.755C285.319 617.771 285.016 618.571 284.41 619.154C283.808 619.738 282.972 620.029 281.901 620.029C281.003 620.029 280.278 619.833 279.727 619.441C279.176 619.049 278.827 618.482 278.681 617.739L279.925 617.596C280.057 618.07 280.29 618.427 280.623 618.669C280.955 618.906 281.39 619.024 281.928 619.024C282.589 619.024 283.106 618.826 283.48 618.43C283.854 618.029 284.041 617.479 284.041 616.782C284.041 616.176 283.851 615.686 283.473 615.312C283.099 614.939 282.594 614.752 281.956 614.752C281.623 614.752 281.313 614.804 281.026 614.909C280.739 615.014 280.452 615.192 280.165 615.442H278.961L279.283 610.261H284.758V611.307H280.404L280.219 614.362C280.752 613.952 281.416 613.747 282.208 613.747C282.842 613.747 283.391 613.875 283.856 614.13C284.321 614.381 284.681 614.731 284.936 615.183C285.191 615.634 285.319 616.158 285.319 616.755ZM291.598 612.851H294.034V613.817H291.598V612.851ZM289.246 609.505H290.156V611.927C290.156 612.58 290.086 613.224 289.946 613.859C289.815 614.493 289.619 615.091 289.358 615.651C289.106 616.211 288.798 616.715 288.434 617.163C288.07 617.611 287.659 617.975 287.202 618.255L286.474 617.387C286.903 617.125 287.29 616.799 287.636 616.407C287.981 616.015 288.27 615.576 288.504 615.091C288.746 614.596 288.928 614.083 289.05 613.551C289.18 613.009 289.246 612.468 289.246 611.927V609.505ZM289.47 609.505H290.366V611.885C290.366 612.389 290.422 612.897 290.534 613.411C290.655 613.915 290.823 614.4 291.038 614.867C291.262 615.324 291.537 615.744 291.864 616.127C292.19 616.509 292.559 616.827 292.97 617.079L292.312 617.975C291.854 617.695 291.448 617.34 291.094 616.911C290.739 616.472 290.44 615.982 290.198 615.441C289.955 614.89 289.773 614.311 289.652 613.705C289.53 613.098 289.47 612.491 289.47 611.885V609.505ZM296.26 608.315H297.38V620.985H296.26V608.315ZM293.684 608.581H294.776V620.341H293.684V608.581Z" fill="#E8E4DC"/>
<g id="Frame">
<path id="Vector_7" d="M315.345 613.393L319.345 617.393L323.345 613.393" stroke="#E8E4DC" stroke-width="1.3" stroke-linecap="round" stroke-linejoin="round"/>
</g>
</g>
</g>
</g>
</g>
</g>
</g>
<g id="DateField">
<g id="Paragraph_3">
<path id="&#235;&#130;&#160;&#236;&#167;&#156;" d="M42.1582 240.225H43.8809V241.482H42.1582V243.971H40.6406V237.818H42.1582V240.225ZM34.4746 242.269C36.2428 242.246 37.9245 242.079 39.5195 241.77L39.6973 243.014C38.7767 243.201 37.8698 243.335 36.9766 243.417C36.0833 243.494 35.1764 243.533 34.2559 243.533H33.9688H32.9434V238.365H34.4746V242.269ZM42.1582 247.785H35.6094V248.797H42.541V250.027H34.0918V246.623H40.627V245.707H34.0781V244.504H42.1582V247.785ZM54.5586 242.562H56.0625V243.834H54.5586V250.178H53.041V237.818H54.5586V242.562ZM47.5312 241.127C47.5312 242.002 47.6042 242.827 47.75 243.602C47.8958 244.376 48.1693 245.06 48.5703 245.652C48.9622 245.064 49.2311 244.383 49.377 243.608C49.5228 242.829 49.5957 242.002 49.5957 241.127V240.184H48.8027V238.953H52.248V240.184H51.0449V241.127C51.0449 242.307 51.1771 243.362 51.4414 244.292C51.7057 245.222 52.1888 245.944 52.8906 246.459L51.9199 247.553C51.1589 246.969 50.6165 246.042 50.293 244.771C49.9557 246.097 49.377 247.061 48.5566 247.662C47.7546 247.065 47.1826 246.101 46.8408 244.771C46.5127 246.042 45.9727 246.969 45.2207 247.553L44.25 246.459C44.9518 245.939 45.4349 245.213 45.6992 244.278C45.9635 243.34 46.0957 242.289 46.0957 241.127V240.184H44.7148V238.953H48.3242V240.184H47.5312V241.127Z" fill="#B8B5AE"/>
</g>
<g id="Button_6" filter="url(#filter2_dd_121_5205)">
<path d="M32 280.958C32 272.121 39.1634 264.958 48 264.958H361.342C370.178 264.958 377.342 272.121 377.342 280.958V303.931C377.342 312.768 370.178 319.931 361.342 319.931H48C39.1635 319.931 32 312.768 32 303.931V280.958Z" fill="#262B28"/>
<path d="M48 265.458H361.342C369.902 265.458 376.842 272.397 376.842 280.958V303.931C376.842 312.492 369.902 319.431 361.342 319.431H48C39.4396 319.431 32.5 312.492 32.5 303.931V280.958C32.5 272.397 39.4396 265.458 48 265.458Z" stroke="#373F3B"/>
<g id="Paragraph_4">
<path id="4 &#236;&#155;&#148; 10 &#236;&#157;&#188; ~ 4 &#236;&#155;&#148; 12 &#236;&#157;&#188;" d="M49.6885 293.941L54.2734 286.837H56.6465V293.897H58.0381V295.465H56.6465V297.442H54.8301V295.465H49.6885V293.941ZM54.8594 293.897V289.005H54.7422L51.6367 293.824V293.897H54.8594ZM73.7852 293.238H72.1445V292.696H69.6689V291.7H72.1445V285.519H73.7852V293.238ZM62.667 290.294C64.3125 290.294 65.8384 290.274 67.2446 290.235C68.6509 290.196 69.9912 290.113 71.2656 289.986L71.3535 291.012C70.2354 291.168 69.0098 291.278 67.6768 291.341V293.253H66.0654V291.407C65.4893 291.427 64.6543 291.437 63.5605 291.437H62.8428L62.667 290.294ZM73.7852 296.622H66.2559V297.472H74.1367V298.629H64.6592V295.553H72.1738V294.762H64.6006V293.648H73.7852V296.622ZM66.9443 285.724C67.5938 285.724 68.1675 285.807 68.6655 285.973C69.1685 286.139 69.5591 286.373 69.8374 286.676C70.1157 286.974 70.2549 287.32 70.2549 287.716C70.2549 288.121 70.1157 288.473 69.8374 288.771C69.5591 289.068 69.1709 289.298 68.6729 289.459C68.1748 289.615 67.5986 289.693 66.9443 289.693C66.2754 289.693 65.6895 289.615 65.1865 289.459C64.6836 289.298 64.293 289.068 64.0146 288.771C63.7412 288.473 63.6045 288.121 63.6045 287.716C63.6045 287.32 63.7437 286.974 64.022 286.676C64.3003 286.373 64.6909 286.139 65.1938 285.973C65.6968 285.807 66.2803 285.724 66.9443 285.724ZM66.9443 286.808C66.3877 286.808 65.9482 286.891 65.626 287.057C65.3037 287.218 65.1475 287.438 65.1572 287.716C65.1523 287.994 65.3086 288.214 65.626 288.375C65.9482 288.531 66.3877 288.609 66.9443 288.609C67.4912 288.609 67.9258 288.531 68.248 288.375C68.5703 288.214 68.7314 287.994 68.7314 287.716C68.7314 287.438 68.5679 287.218 68.2407 287.057C67.9185 286.891 67.4863 286.808 66.9443 286.808ZM83.9512 297.442H82.0322V288.697H81.9736L79.498 290.279V288.536L82.1201 286.837H83.9512V297.442ZM90.4404 297.589C89.5908 297.589 88.8608 297.376 88.2505 296.952C87.645 296.522 87.1787 295.899 86.8516 295.084C86.5293 294.269 86.3682 293.287 86.3682 292.14C86.3682 290.997 86.5293 290.018 86.8516 289.203C87.1787 288.382 87.6475 287.76 88.2578 287.335C88.8682 286.905 89.5957 286.69 90.4404 286.69C91.2803 286.69 92.0054 286.905 92.6157 287.335C93.231 287.76 93.6997 288.382 94.022 289.203C94.3491 290.018 94.5127 290.997 94.5127 292.14C94.5127 293.287 94.3491 294.269 94.022 295.084C93.6997 295.899 93.2334 296.522 92.623 296.952C92.0176 297.376 91.29 297.589 90.4404 297.589ZM90.4404 295.992C90.8896 295.992 91.2729 295.848 91.5903 295.56C91.9126 295.267 92.1592 294.835 92.3301 294.264C92.5059 293.688 92.5938 292.979 92.5938 292.14C92.5938 291.31 92.5059 290.606 92.3301 290.03C92.1592 289.449 91.9126 289.012 91.5903 288.719C91.2681 288.421 90.8848 288.272 90.4404 288.272C89.9961 288.272 89.6128 288.421 89.2905 288.719C88.9683 289.012 88.7192 289.449 88.5435 290.03C88.3726 290.606 88.2871 291.31 88.2871 292.14C88.2871 292.979 88.3726 293.688 88.5435 294.264C88.7192 294.835 88.9658 295.267 89.2832 295.56C89.6055 295.848 89.9912 295.992 90.4404 295.992ZM102.979 285.929C103.644 285.929 104.242 286.058 104.774 286.317C105.306 286.571 105.724 286.925 106.026 287.379C106.334 287.833 106.49 288.346 106.495 288.917C106.49 289.493 106.334 290.008 106.026 290.462C105.724 290.917 105.306 291.271 104.774 291.524C104.242 291.778 103.644 291.905 102.979 291.905C102.311 291.905 101.708 291.778 101.17 291.524C100.638 291.271 100.221 290.917 99.918 290.462C99.6152 290.008 99.4639 289.493 99.4639 288.917C99.4639 288.346 99.6152 287.833 99.918 287.379C100.221 286.925 100.641 286.571 101.178 286.317C101.715 286.058 102.315 285.929 102.979 285.929ZM102.979 287.276C102.608 287.276 102.276 287.345 101.983 287.481C101.69 287.613 101.461 287.804 101.295 288.053C101.129 288.297 101.046 288.585 101.046 288.917C101.046 289.254 101.129 289.549 101.295 289.803C101.461 290.052 101.69 290.245 101.983 290.382C102.276 290.519 102.608 290.587 102.979 290.587C103.351 290.587 103.683 290.519 103.976 290.382C104.269 290.245 104.498 290.052 104.664 289.803C104.83 289.549 104.913 289.254 104.913 288.917C104.913 288.585 104.83 288.297 104.664 288.053C104.498 287.804 104.269 287.613 103.976 287.481C103.683 287.345 103.351 287.276 102.979 287.276ZM110.26 292.198H108.619V285.504H110.26V292.198ZM110.26 296.227H103.097V297.296H110.655V298.585H101.5V295.025H108.634V294.044H101.471V292.77H110.26V296.227ZM116.72 291.744C116.959 291.48 117.23 291.28 117.533 291.144C117.835 291.007 118.155 290.938 118.492 290.938C118.751 290.938 119.002 290.973 119.247 291.041C119.491 291.104 119.801 291.207 120.177 291.349C120.538 291.485 120.841 291.588 121.085 291.656C121.334 291.725 121.588 291.759 121.847 291.759C122.53 291.759 123.106 291.48 123.575 290.924V292.521C123.336 292.789 123.065 292.992 122.762 293.128C122.464 293.26 122.145 293.326 121.803 293.326C121.544 293.326 121.288 293.292 121.034 293.224C120.78 293.15 120.475 293.048 120.118 292.916C119.762 292.784 119.457 292.684 119.203 292.616C118.954 292.542 118.702 292.506 118.448 292.506C117.765 292.506 117.188 292.784 116.72 293.341V291.744ZM129.229 293.941L133.814 286.837H136.188V293.897H137.579V295.465H136.188V297.442H134.371V295.465H129.229V293.941ZM134.4 293.897V289.005H134.283L131.178 293.824V293.897H134.4ZM153.326 293.238H151.686V292.696H149.21V291.7H151.686V285.519H153.326V293.238ZM142.208 290.294C143.854 290.294 145.379 290.274 146.786 290.235C148.192 290.196 149.532 290.113 150.807 289.986L150.895 291.012C149.776 291.168 148.551 291.278 147.218 291.341V293.253H145.606V291.407C145.03 291.427 144.195 291.437 143.102 291.437H142.384L142.208 290.294ZM153.326 296.622H145.797V297.472H153.678V298.629H144.2V295.553H151.715V294.762H144.142V293.648H153.326V296.622ZM146.485 285.724C147.135 285.724 147.708 285.807 148.207 285.973C148.709 286.139 149.1 286.373 149.378 286.676C149.657 286.974 149.796 287.32 149.796 287.716C149.796 288.121 149.657 288.473 149.378 288.771C149.1 289.068 148.712 289.298 148.214 289.459C147.716 289.615 147.14 289.693 146.485 289.693C145.816 289.693 145.23 289.615 144.728 289.459C144.225 289.298 143.834 289.068 143.556 288.771C143.282 288.473 143.146 288.121 143.146 287.716C143.146 287.32 143.285 286.974 143.563 286.676C143.841 286.373 144.232 286.139 144.735 285.973C145.238 285.807 145.821 285.724 146.485 285.724ZM146.485 286.808C145.929 286.808 145.489 286.891 145.167 287.057C144.845 287.218 144.688 287.438 144.698 287.716C144.693 287.994 144.85 288.214 145.167 288.375C145.489 288.531 145.929 288.609 146.485 288.609C147.032 288.609 147.467 288.531 147.789 288.375C148.111 288.214 148.272 287.994 148.272 287.716C148.272 287.438 148.109 287.218 147.782 287.057C147.459 286.891 147.027 286.808 146.485 286.808ZM163.492 297.442H161.573V288.697H161.515L159.039 290.279V288.536L161.661 286.837H163.492V297.442ZM166.07 296.065L169.82 292.447C170.226 292.042 170.538 291.71 170.758 291.451C170.982 291.188 171.153 290.929 171.271 290.675C171.388 290.416 171.446 290.143 171.446 289.854C171.446 289.532 171.368 289.249 171.212 289.005C171.056 288.761 170.838 288.573 170.56 288.441C170.287 288.309 169.977 288.243 169.63 288.243C169.269 288.243 168.951 288.316 168.678 288.463C168.409 288.604 168.202 288.81 168.055 289.078C167.909 289.342 167.838 289.649 167.843 290.001H166.026C166.021 289.342 166.173 288.763 166.48 288.265C166.788 287.762 167.215 287.374 167.762 287.101C168.314 286.827 168.941 286.69 169.645 286.69C170.357 286.69 170.987 286.822 171.534 287.086C172.086 287.35 172.513 287.716 172.816 288.185C173.124 288.648 173.277 289.176 173.277 289.767C173.277 290.177 173.197 290.572 173.036 290.953C172.879 291.334 172.611 291.756 172.23 292.22C171.849 292.679 171.31 293.238 170.611 293.897L168.722 295.772V295.846H173.438V297.442H166.07V296.065ZM181.979 285.929C182.643 285.929 183.241 286.058 183.773 286.317C184.305 286.571 184.723 286.925 185.025 287.379C185.333 287.833 185.489 288.346 185.494 288.917C185.489 289.493 185.333 290.008 185.025 290.462C184.723 290.917 184.305 291.271 183.773 291.524C183.241 291.778 182.643 291.905 181.979 291.905C181.31 291.905 180.707 291.778 180.169 291.524C179.637 291.271 179.22 290.917 178.917 290.462C178.614 290.008 178.463 289.493 178.463 288.917C178.463 288.346 178.614 287.833 178.917 287.379C179.22 286.925 179.64 286.571 180.177 286.317C180.714 286.058 181.314 285.929 181.979 285.929ZM181.979 287.276C181.607 287.276 181.275 287.345 180.982 287.481C180.689 287.613 180.46 287.804 180.294 288.053C180.128 288.297 180.045 288.585 180.045 288.917C180.045 289.254 180.128 289.549 180.294 289.803C180.46 290.052 180.689 290.245 180.982 290.382C181.275 290.519 181.607 290.587 181.979 290.587C182.35 290.587 182.682 290.519 182.975 290.382C183.268 290.245 183.497 290.052 183.663 289.803C183.829 289.549 183.912 289.254 183.912 288.917C183.912 288.585 183.829 288.297 183.663 288.053C183.497 287.804 183.268 287.613 182.975 287.481C182.682 287.345 182.35 287.276 181.979 287.276ZM189.259 292.198H187.618V285.504H189.259V292.198ZM189.259 296.227H182.096V297.296H189.654V298.585H180.499V295.025H187.633V294.044H180.47V292.77H189.259V296.227Z" fill="#E8E4DC"/>
</g>
<g id="Icon_5">
<path id="Vector_8" d="M347.012 284.113V287.446" stroke="#7A7873" stroke-width="1.66623" stroke-linecap="round" stroke-linejoin="round"/>
<path id="Vector_9" d="M353.677 284.113V287.446" stroke="#7A7873" stroke-width="1.66623" stroke-linecap="round" stroke-linejoin="round"/>
<path id="Vector_10" d="M356.176 285.78H344.513C343.593 285.78 342.847 286.526 342.847 287.446V299.11C342.847 300.03 343.593 300.776 344.513 300.776H356.176C357.097 300.776 357.843 300.03 357.843 299.11V287.446C357.843 286.526 357.097 285.78 356.176 285.78Z" stroke="#7A7873" stroke-width="1.66623" stroke-linecap="round" stroke-linejoin="round"/>
<path id="Vector_11" d="M342.847 290.778H357.843" stroke="#7A7873" stroke-width="1.66623" stroke-linecap="round" stroke-linejoin="round"/>
</g>
</g>
</g>
<g id="DestinationField">
<g id="Paragraph_5">
<path id="&#236;&#151;&#172;&#237;&#150;&#137;&#236;&#167;&#128;" d="M35.7871 127.754C36.3431 127.754 36.8444 127.903 37.291 128.199C37.7422 128.495 38.1068 128.917 38.3848 129.463H41.2695V126.852H42.7734V139.225H41.2695V134.549H38.4941C38.2253 135.165 37.8561 135.643 37.3867 135.985C36.9173 136.322 36.3841 136.491 35.7871 136.491C35.1673 136.491 34.6182 136.313 34.1396 135.958C33.6611 135.602 33.2874 135.094 33.0186 134.433C32.7497 133.772 32.6152 133 32.6152 132.116C32.6152 131.241 32.7497 130.475 33.0186 129.819C33.2874 129.158 33.6611 128.65 34.1396 128.294C34.6227 127.934 35.1719 127.754 35.7871 127.754ZM35.7871 129.122C35.4453 129.122 35.1445 129.242 34.8848 129.484C34.625 129.721 34.4245 130.065 34.2832 130.516C34.1419 130.963 34.0736 131.496 34.0781 132.116C34.0736 132.74 34.1419 133.278 34.2832 133.729C34.4245 134.18 34.625 134.527 34.8848 134.768C35.1445 135.005 35.4453 135.124 35.7871 135.124C36.1289 135.124 36.4274 135.005 36.6826 134.768C36.9424 134.527 37.1429 134.18 37.2842 133.729C37.43 133.278 37.5052 132.74 37.5098 132.116C37.5052 131.496 37.43 130.96 37.2842 130.509C37.1429 130.058 36.9424 129.714 36.6826 129.477C36.4274 129.24 36.1289 129.122 35.7871 129.122ZM38.8086 130.708C38.8997 131.15 38.9453 131.619 38.9453 132.116C38.9453 132.526 38.9134 132.927 38.8496 133.319H41.2695V130.708H38.8086ZM55.0781 134.618H53.6289V131.254H52.4258V134.208H51.0039V127.098H52.4258V130.024H53.6289V126.852H55.0781V134.618ZM50.5938 129.381H44.4414V128.192H46.7793V126.961H48.2832V128.192H50.5938V129.381ZM47.5312 129.887C48.0508 129.887 48.5133 129.976 48.9189 130.154C49.3245 130.332 49.6413 130.582 49.8691 130.906C50.1016 131.225 50.2201 131.596 50.2246 132.02C50.2201 132.444 50.1016 132.818 49.8691 133.141C49.6413 133.46 49.3245 133.708 48.9189 133.886C48.5133 134.064 48.0508 134.153 47.5312 134.153C47.0208 134.153 46.5628 134.064 46.1572 133.886C45.7516 133.708 45.4349 133.458 45.207 133.134C44.9837 132.811 44.8743 132.439 44.8789 132.02C44.8743 131.601 44.9837 131.229 45.207 130.906C45.4349 130.582 45.7516 130.332 46.1572 130.154C46.5628 129.976 47.0208 129.887 47.5312 129.887ZM47.5312 130.981C47.1439 130.981 46.8294 131.074 46.5879 131.261C46.3509 131.448 46.2324 131.701 46.2324 132.02C46.2324 132.339 46.3509 132.592 46.5879 132.779C46.8249 132.966 47.1393 133.059 47.5312 133.059C47.9232 133.059 48.2399 132.966 48.4814 132.779C48.723 132.592 48.8438 132.339 48.8438 132.02C48.8438 131.701 48.723 131.448 48.4814 131.261C48.2399 131.074 47.9232 130.981 47.5312 130.981ZM50.9082 134.768C51.7878 134.768 52.5443 134.855 53.1777 135.028C53.8112 135.201 54.2965 135.456 54.6338 135.793C54.971 136.126 55.1419 136.527 55.1465 136.997C55.1419 137.457 54.9688 137.851 54.627 138.179C54.2897 138.512 53.8044 138.765 53.1709 138.938C52.5374 139.111 51.7832 139.198 50.9082 139.198C50.0332 139.198 49.2767 139.111 48.6387 138.938C48.0052 138.765 47.5176 138.512 47.1758 138.179C46.8385 137.851 46.6699 137.457 46.6699 136.997C46.6699 136.527 46.8385 136.126 47.1758 135.793C47.5176 135.456 48.0052 135.201 48.6387 135.028C49.2721 134.855 50.0286 134.768 50.9082 134.768ZM50.9082 135.93C50.0195 135.921 49.3428 136.008 48.8779 136.19C48.4176 136.368 48.1875 136.637 48.1875 136.997C48.1875 137.338 48.4199 137.598 48.8848 137.776C49.3496 137.949 50.0241 138.036 50.9082 138.036C51.7878 138.036 52.4577 137.949 52.918 137.776C53.3828 137.598 53.6152 137.338 53.6152 136.997C53.6152 136.637 53.3828 136.368 52.918 136.19C52.4577 136.008 51.7878 135.921 50.9082 135.93ZM61.2715 130.366C61.2715 131.045 61.3991 131.717 61.6543 132.382C61.9141 133.043 62.2832 133.638 62.7617 134.167C63.2448 134.691 63.8099 135.087 64.457 135.356L63.623 136.559C62.9076 136.254 62.2855 135.796 61.7568 135.185C61.2282 134.574 60.818 133.866 60.5264 133.059C60.2347 133.925 59.8223 134.693 59.2891 135.363C58.7604 136.028 58.1406 136.527 57.4297 136.86L56.5547 135.67C57.1882 135.379 57.7441 134.95 58.2227 134.385C58.7057 133.82 59.0771 133.187 59.3369 132.485C59.5967 131.778 59.7266 131.072 59.7266 130.366V129.327H57.0059V128.069H63.9785V129.327H61.2715V130.366ZM66.8906 139.211H65.3594V126.852H66.8906V139.211Z" fill="#B8B5AE"/>
</g>
<g id="Container_9" filter="url(#filter3_dd_121_5205)">
<path d="M32 169.991C32 161.155 39.1634 153.991 48 153.991H361.342C370.178 153.991 377.342 161.155 377.342 169.991V192.965C377.342 201.802 370.178 208.965 361.342 208.965H48C39.1635 208.965 32 201.802 32 192.965V169.991Z" fill="#262B28"/>
<path d="M48 154.491H361.342C369.902 154.491 376.842 161.431 376.842 169.991V192.965C376.842 201.525 369.902 208.465 361.342 208.465H48C39.4396 208.465 32.5 201.525 32.5 192.965V169.991C32.5 161.431 39.4396 154.491 48 154.491Z" stroke="#373F3B"/>
<g id="Text Input">
<path id="&#236;&#151;&#172;&#237;&#150;&#137;&#236;&#167;&#128;&#235;&#165;&#188; &#236;&#158;&#133;&#235;&#160;&#165;&#237;&#149;&#152;&#236;&#132;&#184;&#236;&#154;&#148;" d="M55.5488 175.506C56.75 175.506 57.7388 176.173 58.332 177.337H61.4229V174.54H63.0342V187.796H61.4229V182.787H58.4492C57.8779 184.105 56.8306 184.867 55.5488 184.867C53.5566 184.867 52.1504 183.065 52.1504 180.179C52.1504 177.323 53.5566 175.506 55.5488 175.506ZM55.5488 176.971C54.4502 176.971 53.7031 178.158 53.7178 180.179C53.7031 182.215 54.4502 183.402 55.5488 183.402C56.6475 183.402 57.3799 182.215 57.3945 180.179C57.3799 178.158 56.6475 176.971 55.5488 176.971ZM58.7861 178.67C58.8813 179.132 58.9326 179.637 58.9326 180.179C58.9326 180.641 58.896 181.065 58.8301 181.468H61.4229V178.67H58.7861ZM76.2178 174.54V182.86H74.665V179.256H73.376V182.42H71.8525V174.803H73.376V177.938H74.665V174.54H76.2178ZM71.4131 175.975V177.25H64.8213V175.975H67.3262V174.657H68.9375V175.975H71.4131ZM68.1318 177.792C69.8164 177.792 71.0029 178.7 71.0176 180.077C71.0029 181.454 69.8164 182.362 68.1318 182.362C66.4766 182.362 65.2754 181.454 65.29 180.077C65.2754 178.7 66.4766 177.792 68.1318 177.792ZM68.1318 178.963C67.3115 178.963 66.7402 179.388 66.7402 180.077C66.7402 180.765 67.2969 181.19 68.1318 181.19C68.9668 181.19 69.5381 180.765 69.5381 180.077C69.5381 179.388 68.9668 178.963 68.1318 178.963ZM71.75 183.021C74.5771 183.021 76.2764 183.885 76.291 185.409C76.2764 186.903 74.5771 187.767 71.75 187.767C68.9229 187.767 67.209 186.903 67.209 185.409C67.209 183.885 68.9229 183.021 71.75 183.021ZM71.75 184.266C69.8604 184.251 68.835 184.632 68.835 185.409C68.835 186.141 69.8604 186.522 71.75 186.522C73.625 186.522 74.6504 186.141 74.6504 185.409C74.6504 184.632 73.625 184.251 71.75 184.266ZM82.8535 178.304C82.8535 180.472 84.1279 182.757 86.2666 183.651L85.373 184.94C83.8057 184.266 82.6631 182.875 82.0625 181.19C81.4473 183.006 80.29 184.53 78.7373 185.262L77.7998 183.988C79.8945 183.021 81.1982 180.56 81.1982 178.304V177.191H78.2832V175.843H85.7539V177.191H82.8535V178.304ZM88.874 174.54V187.782H87.2334V174.54H88.874ZM102.907 180.545V181.776H90.8076V180.545H102.907ZM101.442 182.567V185.584H93.8545V186.507H101.838V187.635H92.2285V184.53H99.8311V183.709H92.2139V182.567H101.442ZM101.413 174.833V177.821H93.957V178.685H101.647V179.798H92.3457V176.766H99.7871V175.96H92.3018V174.833H101.413ZM118.376 174.54V181.644H116.735V174.54H118.376ZM111.228 182.259V183.622H116.75V182.259H118.376V187.621H109.616V182.259H111.228ZM111.228 186.302H116.75V184.896H111.228V186.302ZM111.154 175.125C113.19 175.111 114.714 176.385 114.714 178.231C114.714 180.033 113.19 181.307 111.154 181.307C109.104 181.307 107.58 180.033 107.58 178.231C107.58 176.385 109.104 175.111 111.154 175.125ZM111.154 176.488C109.997 176.488 109.162 177.162 109.177 178.231C109.162 179.286 109.997 179.959 111.154 179.974C112.297 179.959 113.117 179.286 113.117 178.231C113.117 177.162 112.297 176.488 111.154 176.488ZM126.638 175.331V179.315H122.463V180.941C124.587 180.948 125.81 180.882 127.209 180.619L127.37 181.937C125.788 182.201 124.411 182.245 121.818 182.245H120.852V178.099H125.012V176.62H120.822V175.331H126.638ZM131.398 174.554V182.699H129.772V180.516H127.429V179.212H129.772V177.733H127.429V176.429H129.772V174.554H131.398ZM131.398 183.329V187.782H129.772V184.632H122.346V183.329H131.398ZM143.645 174.54V179.813H145.681V181.161H143.645V187.782H142.033V174.54H143.645ZM141.008 176.576V177.879H133.2V176.576H136.335V174.73H137.961V176.576H141.008ZM137.155 178.744C139.06 178.744 140.48 180.033 140.48 181.864C140.48 183.695 139.06 184.969 137.155 184.969C135.222 184.969 133.801 183.695 133.815 181.864C133.801 180.033 135.222 178.744 137.155 178.744ZM137.155 180.077C136.115 180.077 135.368 180.78 135.368 181.864C135.368 182.948 136.115 183.636 137.155 183.622C138.166 183.636 138.913 182.948 138.928 181.864C138.913 180.78 138.166 180.077 137.155 180.077ZM150.368 178.011C150.368 180.15 151.115 182.376 152.902 183.504L152.009 184.75C150.815 184.032 150.039 182.794 149.606 181.336C149.123 182.94 148.273 184.295 147.028 185.057L146.018 183.841C147.937 182.669 148.801 180.34 148.801 178.084V175.711H150.368V178.011ZM157.663 174.54V187.782H156.096V174.54H157.663ZM154.909 174.774V187.137H153.371V180.443H151.481V179.095H153.371V174.774H154.909ZM171.301 184.837V186.17H159.201V184.837H161.999V181.483C160.944 180.882 160.307 179.938 160.314 178.758C160.3 176.649 162.38 175.257 165.222 175.257C168.078 175.257 170.158 176.649 170.158 178.758C170.158 179.916 169.543 180.846 168.518 181.454V184.837H171.301ZM165.222 176.546C163.244 176.546 161.896 177.381 161.911 178.758C161.896 180.121 163.244 180.97 165.222 180.97C167.199 180.97 168.562 180.121 168.562 178.758C168.562 177.381 167.199 176.546 165.222 176.546ZM163.61 184.837H166.862V182.069C166.357 182.186 165.808 182.245 165.222 182.245C164.65 182.245 164.108 182.186 163.61 182.083V184.837Z" fill="#7A7873"/>
</g>
<g id="Icon_6">
<path id="Vector_12" d="M347.02 187.31C350.701 187.31 353.685 184.326 353.685 180.645C353.685 176.964 350.701 173.98 347.02 173.98C343.339 173.98 340.355 176.964 340.355 180.645C340.355 184.326 343.339 187.31 347.02 187.31Z" stroke="#7A7873" stroke-width="1.66623" stroke-linecap="round" stroke-linejoin="round"/>
<path id="Vector_13" d="M355.351 188.976L351.769 185.394" stroke="#7A7873" stroke-width="1.66623" stroke-linecap="round" stroke-linejoin="round"/>
</g>
</g>
</g>
</g>
</g>
<g id="Container_10">
<g id="Icon_7" clip-path="url(#clip0_121_5205)">
<path id="Vector_14" d="M163.671 25.9941H245.671" stroke="#7A7873" stroke-width="7.99775" stroke-linecap="round"/>
</g>
</g>
<g id="LightAgesDrop" filter="url(#filter4_dd_121_5205)">
<path d="M241.001 326C241.001 319.373 246.374 314 253.001 314H329.001C335.629 314 341.001 319.373 341.001 326V579C341.001 585.627 335.629 591 329.001 591H253.001C246.374 591 241.001 585.627 241.001 579V326Z" fill="#161A18"/>
<path d="M241.001 326C241.001 319.373 246.374 314 253.001 314H329.001C335.629 314 341.001 319.373 341.001 326V579C341.001 585.627 335.629 591 329.001 591H253.001C246.374 591 241.001 585.627 241.001 579V326Z" stroke="#373F3B" stroke-width="0.5"/>
<path id="&#235;&#167;&#140; 1&#236;&#132;&#184;" d="M281.159 325.963H275.941V320.771H281.159V325.963ZM276.918 325.163H280.194V321.583H276.918V325.163ZM284.282 323.183H285.983V324.021H284.282V328.02H283.292V319.742H284.282V323.183ZM284.802 330.787H277.223V327.232H278.201V329.949H284.802V330.787ZM293.613 330H292.458V322.002H292.407L290.172 323.487V322.332L292.458 320.809H293.613V330ZM299.008 322.954C299.008 323.555 299.104 324.156 299.294 324.757C299.484 325.358 299.757 325.906 300.113 326.401C300.472 326.896 300.896 327.287 301.382 327.575L300.811 328.35C300.282 328.028 299.823 327.586 299.434 327.023C299.049 326.456 298.752 325.819 298.545 325.112C298.333 325.874 298.022 326.56 297.612 327.169C297.201 327.778 296.719 328.252 296.165 328.591L295.53 327.842C296.038 327.546 296.482 327.141 296.863 326.629C297.244 326.113 297.536 325.54 297.739 324.909C297.942 324.274 298.043 323.635 298.043 322.992V320.809H299.008V322.954ZM305.331 331.028H304.366V319.742H305.331V331.028ZM302.995 330.457H302.055V324.643H300.138V323.792H302.055V319.983H302.995V330.457Z" fill="#E8E4DC"/>
<path id="Vector_15" d="M241.001 337H341.001" stroke="#373F3B" stroke-width="0.5"/>
<path id="&#235;&#167;&#140; 2&#236;&#132;&#184;" d="M280.159 348.963H274.941V343.771H280.159V348.963ZM275.918 348.163H279.194V344.583H275.918V348.163ZM283.282 346.183H284.983V347.021H283.282V351.02H282.292V342.742H283.282V346.183ZM283.802 353.787H276.223V350.232H277.201V352.949H283.802V353.787ZM289.35 352.162L292.486 348.861C292.901 348.425 293.216 348.074 293.432 347.808C293.652 347.537 293.817 347.277 293.927 347.027C294.041 346.773 294.098 346.508 294.098 346.233C294.098 345.929 294.018 345.658 293.857 345.421C293.696 345.184 293.476 345 293.197 344.869C292.922 344.737 292.613 344.672 292.27 344.672C291.91 344.672 291.595 344.744 291.324 344.888C291.053 345.032 290.844 345.235 290.696 345.497C290.552 345.759 290.48 346.06 290.48 346.398H289.401C289.397 345.865 289.519 345.393 289.769 344.983C290.023 344.572 290.372 344.253 290.816 344.024C291.261 343.796 291.758 343.682 292.308 343.682C292.854 343.682 293.343 343.794 293.774 344.018C294.21 344.242 294.551 344.549 294.796 344.938C295.042 345.328 295.165 345.759 295.165 346.233C295.165 346.585 295.101 346.921 294.974 347.243C294.847 347.56 294.633 347.913 294.333 348.303C294.037 348.688 293.611 349.166 293.057 349.737L290.95 351.908V351.984H295.33V353H289.363L289.35 352.162ZM299.938 345.954C299.938 346.555 300.033 347.156 300.224 347.757C300.414 348.358 300.687 348.906 301.042 349.401C301.402 349.896 301.825 350.287 302.312 350.575L301.741 351.35C301.212 351.028 300.753 350.586 300.363 350.023C299.978 349.456 299.682 348.819 299.475 348.112C299.263 348.874 298.952 349.56 298.542 350.169C298.131 350.778 297.649 351.252 297.094 351.591L296.459 350.842C296.967 350.546 297.412 350.141 297.792 349.629C298.173 349.113 298.465 348.54 298.668 347.909C298.872 347.274 298.973 346.635 298.973 345.992V343.809H299.938V345.954ZM306.26 354.028H305.295V342.742H306.26V354.028ZM303.924 353.457H302.985V347.643H301.068V346.792H302.985V342.983H303.924V353.457Z" fill="#E8E4DC"/>
<path id="Vector_16" d="M241.001 360H341.001" stroke="#373F3B" stroke-width="0.5"/>
<path id="&#235;&#167;&#140; 3&#236;&#132;&#184;" d="M280.159 371.963H274.941V366.771H280.159V371.963ZM275.918 371.163H279.194V367.583H275.918V371.163ZM283.282 369.183H284.983V370.021H283.282V374.02H282.292V365.742H283.282V369.183ZM283.802 376.787H276.223V373.232H277.201V375.949H283.802V376.787ZM292.537 376.127C291.931 376.127 291.39 376.025 290.912 375.822C290.438 375.619 290.061 375.333 289.782 374.965C289.507 374.597 289.359 374.172 289.337 373.689H290.493C290.514 373.973 290.615 374.223 290.797 374.438C290.984 374.654 291.227 374.821 291.527 374.94C291.828 375.054 292.16 375.111 292.524 375.111C292.922 375.111 293.279 375.044 293.597 374.908C293.918 374.769 294.168 374.578 294.346 374.337C294.528 374.091 294.619 373.812 294.619 373.499C294.619 373.16 294.53 372.862 294.352 372.604C294.179 372.346 293.925 372.145 293.59 372.001C293.256 371.857 292.854 371.785 292.384 371.785H291.635V370.782H292.384C292.752 370.782 293.08 370.717 293.368 370.585C293.656 370.454 293.878 370.27 294.035 370.033C294.195 369.796 294.276 369.521 294.276 369.208C294.276 368.908 294.204 368.641 294.06 368.408C293.92 368.175 293.722 367.996 293.463 367.869C293.205 367.737 292.905 367.672 292.562 367.672C292.232 367.672 291.923 367.731 291.635 367.85C291.347 367.968 291.113 368.137 290.931 368.357C290.749 368.573 290.649 368.827 290.632 369.119H289.528C289.549 368.645 289.697 368.224 289.972 367.856C290.247 367.484 290.613 367.196 291.07 366.993C291.527 366.785 292.029 366.682 292.575 366.682C293.142 366.682 293.637 366.794 294.06 367.018C294.487 367.238 294.815 367.536 295.044 367.913C295.272 368.29 295.385 368.7 295.38 369.145C295.385 369.661 295.247 370.103 294.968 370.471C294.688 370.839 294.306 371.091 293.819 371.227V371.29C294.212 371.354 294.553 371.487 294.841 371.69C295.133 371.889 295.355 372.145 295.507 372.458C295.664 372.767 295.74 373.114 295.736 373.499C295.74 373.994 295.603 374.443 295.323 374.845C295.044 375.243 294.659 375.556 294.168 375.784C293.681 376.013 293.138 376.127 292.537 376.127ZM300.332 368.954C300.332 369.555 300.427 370.156 300.617 370.757C300.808 371.358 301.081 371.906 301.436 372.401C301.796 372.896 302.219 373.287 302.706 373.575L302.134 374.35C301.605 374.028 301.146 373.586 300.757 373.023C300.372 372.456 300.076 371.819 299.868 371.112C299.657 371.874 299.346 372.56 298.935 373.169C298.525 373.778 298.042 374.252 297.488 374.591L296.853 373.842C297.361 373.546 297.805 373.141 298.186 372.629C298.567 372.113 298.859 371.54 299.062 370.909C299.265 370.274 299.367 369.635 299.367 368.992V366.809H300.332V368.954ZM306.654 377.028H305.689V365.742H306.654V377.028ZM304.318 376.457H303.378V370.643H301.461V369.792H303.378V365.983H304.318V376.457Z" fill="#E8E4DC"/>
<path id="Vector_17" d="M241.001 383H341.001" stroke="#373F3B" stroke-width="0.5"/>
<path id="&#235;&#167;&#140; 4&#236;&#132;&#184;" d="M280.159 394.963H274.941V389.771H280.159V394.963ZM275.918 394.163H279.194V390.583H275.918V394.163ZM283.282 392.183H284.983V393.021H283.282V397.02H282.292V388.742H283.282V392.183ZM283.802 399.787H276.223V396.232H277.201V398.949H283.802V399.787ZM289.134 396.182L293.273 389.809H294.682V396.118H295.964V397.121H294.682V399H293.59V397.121H289.134V396.182ZM293.59 396.118V391.256H293.476L290.366 396.042V396.118H293.59ZM300.42 391.954C300.42 392.555 300.516 393.156 300.706 393.757C300.896 394.358 301.169 394.906 301.525 395.401C301.885 395.896 302.308 396.287 302.794 396.575L302.223 397.35C301.694 397.028 301.235 396.586 300.846 396.023C300.461 395.456 300.164 394.819 299.957 394.112C299.745 394.874 299.434 395.56 299.024 396.169C298.613 396.778 298.131 397.252 297.577 397.591L296.942 396.842C297.45 396.546 297.894 396.141 298.275 395.629C298.656 395.113 298.948 394.54 299.151 393.909C299.354 393.274 299.456 392.635 299.456 391.992V389.809H300.42V391.954ZM306.743 400.028H305.778V388.742H306.743V400.028ZM304.407 399.457H303.467V393.643H301.55V392.792H303.467V388.983H304.407V399.457Z" fill="#E8E4DC"/>
<g id="Frame 150">
<path id="Vector_18" d="M341.001 406H241.001V429H341.001V406Z" fill="#5E9E72"/>
<path id="&#235;&#167;&#140; 5&#236;&#132;&#184;_2" d="M280.159 417.963H274.941V412.771H280.159V417.963ZM275.918 417.163H279.194V413.583H275.918V417.163ZM283.282 415.183H284.983V416.021H283.282V420.02H282.292V411.742H283.282V415.183ZM283.802 422.787H276.223V419.232H277.201V421.949H283.802V422.787ZM292.359 422.127C291.813 422.127 291.316 422.023 290.867 421.816C290.423 421.604 290.067 421.314 289.801 420.946C289.538 420.574 289.397 420.155 289.375 419.689H290.48C290.51 419.96 290.611 420.206 290.785 420.426C290.958 420.642 291.182 420.813 291.458 420.94C291.733 421.063 292.033 421.124 292.359 421.124C292.748 421.124 293.099 421.035 293.413 420.857C293.726 420.68 293.971 420.436 294.149 420.127C294.327 419.819 294.416 419.474 294.416 419.093C294.416 418.699 294.322 418.346 294.136 418.033C293.954 417.715 293.7 417.468 293.375 417.29C293.053 417.108 292.689 417.015 292.283 417.011C291.466 416.998 290.895 417.273 290.569 417.836H289.464L290.112 412.809H295.088V413.824H291.064L290.721 416.516H290.81C291.017 416.355 291.269 416.226 291.565 416.128C291.862 416.031 292.168 415.982 292.486 415.982C293.061 415.982 293.58 416.116 294.041 416.382C294.507 416.645 294.87 417.011 295.133 417.48C295.399 417.95 295.533 418.479 295.533 419.067C295.533 419.651 295.395 420.176 295.12 420.642C294.845 421.107 294.466 421.471 293.984 421.733C293.501 421.996 292.96 422.127 292.359 422.127ZM300.065 414.954C300.065 415.555 300.16 416.156 300.351 416.757C300.541 417.358 300.814 417.906 301.169 418.401C301.529 418.896 301.952 419.287 302.439 419.575L301.868 420.35C301.339 420.028 300.88 419.586 300.49 419.023C300.105 418.456 299.809 417.819 299.602 417.112C299.39 417.874 299.079 418.56 298.668 419.169C298.258 419.778 297.776 420.252 297.221 420.591L296.586 419.842C297.094 419.546 297.539 419.141 297.919 418.629C298.3 418.113 298.592 417.54 298.795 416.909C298.999 416.274 299.1 415.635 299.1 414.992V412.809H300.065V414.954ZM306.387 423.028H305.422V411.742H306.387V423.028ZM304.051 422.457H303.112V416.643H301.195V415.792H303.112V411.983H304.051V422.457Z" fill="#E8E4DC"/>
</g>
<path id="Vector_19" d="M241.001 430H341.001" stroke="#373F3B" stroke-width="0.5"/>
<path id="&#235;&#167;&#140; 6&#236;&#132;&#184;" d="M280.159 441.963H274.941V436.771H280.159V441.963ZM275.918 441.163H279.194V437.583H275.918V441.163ZM283.282 439.183H284.983V440.021H283.282V444.02H282.292V435.742H283.282V439.183ZM283.802 446.787H276.223V443.232H277.201V445.949H283.802V446.787ZM292.587 446.127C291.995 446.127 291.445 445.994 290.937 445.727C290.433 445.456 290.019 444.997 289.693 444.35C289.371 443.698 289.21 442.835 289.21 441.76C289.21 440.689 289.35 439.773 289.629 439.011C289.913 438.25 290.315 437.672 290.835 437.278C291.36 436.881 291.982 436.682 292.702 436.682C293.231 436.682 293.705 436.783 294.124 436.986C294.547 437.189 294.892 437.475 295.158 437.843C295.429 438.211 295.605 438.637 295.685 439.119H294.555C294.441 438.692 294.225 438.349 293.908 438.091C293.595 437.828 293.193 437.697 292.702 437.697C292.202 437.697 291.771 437.837 291.407 438.116C291.047 438.391 290.77 438.791 290.575 439.316C290.385 439.841 290.29 440.469 290.29 441.201H290.404C290.675 440.816 291.013 440.518 291.419 440.306C291.826 440.09 292.274 439.982 292.765 439.982C293.307 439.982 293.806 440.114 294.263 440.376C294.724 440.638 295.088 441.002 295.355 441.468C295.626 441.929 295.761 442.45 295.761 443.029C295.761 443.601 295.628 444.123 295.361 444.597C295.099 445.067 294.727 445.439 294.244 445.714C293.762 445.989 293.209 446.127 292.587 446.127ZM292.562 445.124C292.951 445.124 293.305 445.031 293.622 444.845C293.939 444.659 294.189 444.407 294.371 444.089C294.557 443.768 294.653 443.419 294.657 443.042C294.653 442.665 294.562 442.32 294.384 442.007C294.206 441.694 293.961 441.447 293.647 441.265C293.334 441.078 292.981 440.985 292.587 440.985C292.194 440.985 291.834 441.081 291.508 441.271C291.182 441.461 290.924 441.717 290.734 442.039C290.543 442.356 290.446 442.695 290.442 443.055C290.442 443.414 290.533 443.753 290.715 444.07C290.901 444.388 291.155 444.644 291.477 444.838C291.802 445.029 292.164 445.124 292.562 445.124ZM300.281 438.954C300.281 439.555 300.376 440.156 300.566 440.757C300.757 441.358 301.03 441.906 301.385 442.401C301.745 442.896 302.168 443.287 302.655 443.575L302.083 444.35C301.555 444.028 301.095 443.586 300.706 443.023C300.321 442.456 300.025 441.819 299.817 441.112C299.606 441.874 299.295 442.56 298.884 443.169C298.474 443.778 297.991 444.252 297.437 444.591L296.802 443.842C297.31 443.546 297.754 443.141 298.135 442.629C298.516 442.113 298.808 441.54 299.011 440.909C299.214 440.274 299.316 439.635 299.316 438.992V436.809H300.281V438.954ZM306.603 447.028H305.638V435.742H306.603V447.028ZM304.267 446.457H303.328V440.643H301.411V439.792H303.328V435.983H304.267V446.457Z" fill="#E8E4DC"/>
<path id="Vector_20" d="M241.001 453H341.001" stroke="#373F3B" stroke-width="0.5"/>
<path id="&#235;&#167;&#140; 7&#236;&#132;&#184;" d="M280.659 464.963H275.441V459.771H280.659V464.963ZM276.418 464.163H279.694V460.583H276.418V464.163ZM283.782 462.183H285.483V463.021H283.782V467.02H282.792V458.742H283.782V462.183ZM284.302 469.787H276.723V466.232H277.701V468.949H284.302V469.787ZM294.37 460.888V460.824H289.507V459.809H295.55V460.875L291.348 469H290.155L294.37 460.888ZM299.981 461.954C299.981 462.555 300.076 463.156 300.267 463.757C300.457 464.358 300.73 464.906 301.085 465.401C301.445 465.896 301.868 466.287 302.355 466.575L301.784 467.35C301.255 467.028 300.796 466.586 300.406 466.023C300.021 465.456 299.725 464.819 299.518 464.112C299.306 464.874 298.995 465.56 298.584 466.169C298.174 466.778 297.692 467.252 297.137 467.591L296.502 466.842C297.01 466.546 297.455 466.141 297.835 465.629C298.216 465.113 298.508 464.54 298.711 463.909C298.915 463.274 299.016 462.635 299.016 461.992V459.809H299.981V461.954ZM306.303 470.028H305.338V458.742H306.303V470.028ZM303.967 469.457H303.028V463.643H301.111V462.792H303.028V458.983H303.967V469.457Z" fill="#E8E4DC"/>
<path id="Vector_21" d="M241.001 476H341.001" stroke="#373F3B" stroke-width="0.5"/>
<path id="&#235;&#167;&#140; 8&#236;&#132;&#184;" d="M280.159 487.963H274.941V482.771H280.159V487.963ZM275.918 487.163H279.194V483.583H275.918V487.163ZM283.282 485.183H284.983V486.021H283.282V490.02H282.292V481.742H283.282V485.183ZM283.802 492.787H276.223V489.232H277.201V491.949H283.802V492.787ZM292.435 492.127C291.8 492.127 291.233 492.019 290.734 491.803C290.239 491.583 289.854 491.278 289.579 490.889C289.304 490.5 289.168 490.058 289.172 489.562C289.168 489.173 289.246 488.811 289.407 488.477C289.572 488.139 289.799 487.859 290.086 487.639C290.374 487.419 290.692 487.282 291.039 487.227V487.176C290.738 487.104 290.474 486.971 290.245 486.776C290.017 486.577 289.839 486.334 289.712 486.046C289.589 485.758 289.528 485.449 289.528 485.119C289.528 484.658 289.653 484.241 289.902 483.869C290.156 483.496 290.503 483.206 290.943 482.999C291.388 482.787 291.885 482.682 292.435 482.682C292.985 482.682 293.48 482.787 293.92 482.999C294.365 483.206 294.714 483.496 294.968 483.869C295.222 484.237 295.351 484.654 295.355 485.119C295.351 485.449 295.283 485.758 295.152 486.046C295.025 486.334 294.847 486.577 294.619 486.776C294.39 486.971 294.128 487.104 293.832 487.176V487.227C294.174 487.282 294.487 487.419 294.771 487.639C295.059 487.859 295.285 488.139 295.45 488.477C295.619 488.811 295.706 489.173 295.71 489.562C295.706 490.058 295.564 490.5 295.285 490.889C295.006 491.278 294.619 491.583 294.124 491.803C293.628 492.019 293.066 492.127 292.435 492.127ZM292.435 491.124C292.867 491.124 293.243 491.056 293.565 490.921C293.887 490.785 294.134 490.595 294.308 490.35C294.481 490.104 294.568 489.821 294.568 489.499C294.568 489.165 294.475 488.864 294.289 488.598C294.107 488.327 293.853 488.115 293.527 487.963C293.205 487.811 292.841 487.734 292.435 487.734C292.029 487.734 291.663 487.811 291.337 487.963C291.011 488.115 290.757 488.327 290.575 488.598C290.393 488.864 290.306 489.165 290.315 489.499C290.306 489.821 290.387 490.104 290.556 490.35C290.73 490.595 290.977 490.785 291.299 490.921C291.62 491.056 291.999 491.124 292.435 491.124ZM292.435 486.77C292.778 486.77 293.087 486.704 293.362 486.573C293.637 486.442 293.851 486.257 294.003 486.021C294.16 485.784 294.238 485.513 294.238 485.208C294.238 484.908 294.162 484.641 294.009 484.408C293.861 484.175 293.65 483.996 293.375 483.869C293.104 483.737 292.791 483.672 292.435 483.672C292.075 483.672 291.758 483.737 291.483 483.869C291.212 483.996 291.003 484.175 290.854 484.408C290.706 484.641 290.632 484.908 290.632 485.208C290.632 485.513 290.708 485.784 290.861 486.021C291.017 486.257 291.231 486.442 291.502 486.573C291.777 486.704 292.088 486.77 292.435 486.77ZM300.192 484.954C300.192 485.555 300.287 486.156 300.478 486.757C300.668 487.358 300.941 487.906 301.296 488.401C301.656 488.896 302.079 489.287 302.566 489.575L301.995 490.35C301.466 490.028 301.007 489.586 300.617 489.023C300.232 488.456 299.936 487.819 299.729 487.112C299.517 487.874 299.206 488.56 298.795 489.169C298.385 489.778 297.903 490.252 297.348 490.591L296.713 489.842C297.221 489.546 297.666 489.141 298.046 488.629C298.427 488.113 298.719 487.54 298.922 486.909C299.125 486.274 299.227 485.635 299.227 484.992V482.809H300.192V484.954ZM306.514 493.028H305.549V481.742H306.514V493.028ZM304.178 492.457H303.239V486.643H301.322V485.792H303.239V481.983H304.178V492.457Z" fill="#E8E4DC"/>
<path id="Vector_22" d="M241.001 499H341.001" stroke="#373F3B" stroke-width="0.5"/>
<path id="&#235;&#167;&#140; 9&#236;&#132;&#184;" d="M280.159 510.963H274.941V505.771H280.159V510.963ZM275.918 510.163H279.194V506.583H275.918V510.163ZM283.282 508.183H284.983V509.021H283.282V513.02H282.292V504.742H283.282V508.183ZM283.802 515.787H276.223V512.232H277.201V514.949H283.802V515.787ZM292.397 505.682C292.985 505.682 293.531 505.817 294.035 506.088C294.538 506.354 294.951 506.812 295.272 507.459C295.598 508.106 295.761 508.965 295.761 510.036C295.761 511.111 295.619 512.031 295.336 512.797C295.057 513.559 294.655 514.139 294.13 514.537C293.609 514.93 292.989 515.127 292.27 515.127C291.741 515.127 291.265 515.025 290.842 514.822C290.419 514.615 290.072 514.327 289.801 513.959C289.534 513.591 289.363 513.163 289.287 512.677H290.417C290.522 513.108 290.734 513.455 291.051 513.718C291.369 513.98 291.775 514.111 292.27 514.111C292.769 514.111 293.199 513.974 293.559 513.699C293.923 513.419 294.202 513.015 294.396 512.486C294.591 511.957 294.691 511.323 294.695 510.582H294.568C294.297 510.967 293.958 511.268 293.552 511.483C293.146 511.695 292.702 511.801 292.219 511.801C291.673 511.801 291.17 511.672 290.708 511.414C290.247 511.151 289.881 510.789 289.61 510.328C289.344 509.867 289.21 509.346 289.21 508.767C289.21 508.2 289.342 507.681 289.604 507.211C289.871 506.742 290.245 506.369 290.728 506.094C291.21 505.819 291.766 505.682 292.397 505.682ZM292.422 506.685C292.033 506.685 291.678 506.778 291.356 506.964C291.039 507.146 290.787 507.393 290.601 507.707C290.419 508.02 290.328 508.36 290.328 508.729C290.328 509.114 290.414 509.465 290.588 509.782C290.761 510.095 291.005 510.343 291.318 510.525C291.631 510.707 291.986 510.798 292.384 510.798C292.774 510.798 293.131 510.703 293.457 510.512C293.783 510.318 294.041 510.062 294.231 509.744C294.422 509.423 294.517 509.084 294.517 508.729C294.517 508.377 294.426 508.045 294.244 507.732C294.062 507.415 293.81 507.161 293.489 506.97C293.171 506.78 292.816 506.685 292.422 506.685ZM300.281 507.954C300.281 508.555 300.376 509.156 300.566 509.757C300.757 510.358 301.03 510.906 301.385 511.401C301.745 511.896 302.168 512.287 302.655 512.575L302.083 513.35C301.555 513.028 301.095 512.586 300.706 512.023C300.321 511.456 300.025 510.819 299.817 510.112C299.606 510.874 299.295 511.56 298.884 512.169C298.474 512.778 297.991 513.252 297.437 513.591L296.802 512.842C297.31 512.546 297.754 512.141 298.135 511.629C298.516 511.113 298.808 510.54 299.011 509.909C299.214 509.274 299.316 508.635 299.316 507.992V505.809H300.281V507.954ZM306.603 516.028H305.638V504.742H306.603V516.028ZM304.267 515.457H303.328V509.643H301.411V508.792H303.328V504.983H304.267V515.457Z" fill="#E8E4DC"/>
<path id="Vector_23" d="M241.001 522H341.001" stroke="#373F3B" stroke-width="0.5"/>
<path id="&#235;&#167;&#140; 10&#236;&#132;&#184;" d="M277.159 533.963H271.941V528.771H277.159V533.963ZM272.918 533.163H276.194V529.583H272.918V533.163ZM280.282 531.183H281.983V532.021H280.282V536.02H279.292V527.742H280.282V531.183ZM280.802 538.787H273.223V535.232H274.201V537.949H280.802V538.787ZM289.613 538H288.458V530.002H288.407L286.172 531.487V530.332L288.458 528.809H289.613V538ZM295.072 538.127C294.395 538.127 293.815 537.943 293.333 537.575C292.854 537.207 292.488 536.669 292.234 535.962C291.985 535.256 291.86 534.403 291.86 533.404C291.86 532.418 291.987 531.572 292.241 530.865C292.495 530.154 292.863 529.613 293.345 529.24C293.828 528.868 294.403 528.682 295.072 528.682C295.74 528.682 296.316 528.868 296.798 529.24C297.281 529.613 297.649 530.154 297.903 530.865C298.157 531.572 298.284 532.418 298.284 533.404C298.284 534.403 298.157 535.256 297.903 535.962C297.653 536.669 297.287 537.207 296.805 537.575C296.322 537.943 295.745 538.127 295.072 538.127ZM295.072 537.111C295.512 537.111 295.889 536.967 296.202 536.68C296.515 536.392 296.754 535.971 296.919 535.417C297.084 534.862 297.167 534.191 297.167 533.404C297.167 532.617 297.084 531.944 296.919 531.386C296.754 530.827 296.515 530.402 296.202 530.11C295.889 529.818 295.512 529.672 295.072 529.672C294.632 529.672 294.253 529.818 293.936 530.11C293.622 530.402 293.381 530.827 293.212 531.386C293.047 531.944 292.964 532.617 292.964 533.404C292.964 534.191 293.047 534.862 293.212 535.417C293.377 535.971 293.616 536.392 293.929 536.68C294.247 536.967 294.627 537.111 295.072 537.111ZM302.752 530.954C302.752 531.555 302.848 532.156 303.038 532.757C303.229 533.358 303.501 533.906 303.857 534.401C304.217 534.896 304.64 535.287 305.126 535.575L304.555 536.35C304.026 536.028 303.567 535.586 303.178 535.023C302.793 534.456 302.496 533.819 302.289 533.112C302.077 533.874 301.766 534.56 301.356 535.169C300.945 535.778 300.463 536.252 299.909 536.591L299.274 535.842C299.782 535.546 300.226 535.141 300.607 534.629C300.988 534.113 301.28 533.54 301.483 532.909C301.686 532.274 301.788 531.635 301.788 530.992V528.809H302.752V530.954ZM309.075 539.028H308.11V527.742H309.075V539.028ZM306.739 538.457H305.799V532.643H303.882V531.792H305.799V527.983H306.739V538.457Z" fill="#E8E4DC"/>
<path id="Vector_24" d="M241.001 545H341.001" stroke="#373F3B" stroke-width="0.5"/>
<path id="&#235;&#167;&#140; 11&#236;&#132;&#184;" d="M278.159 556.963H272.941V551.771H278.159V556.963ZM273.918 556.163H277.194V552.583H273.918V556.163ZM281.282 554.183H282.983V555.021H281.282V559.02H280.292V550.742H281.282V554.183ZM281.802 561.787H274.223V558.232H275.201V560.949H281.802V561.787ZM290.613 561H289.458V553.002H289.407L287.172 554.487V553.332L289.458 551.809H290.613V561ZM296.313 561H295.158V553.002H295.107L292.873 554.487V553.332L295.158 551.809H296.313V561ZM301.708 553.954C301.708 554.555 301.804 555.156 301.994 555.757C302.185 556.358 302.458 556.906 302.813 557.401C303.173 557.896 303.596 558.287 304.083 558.575L303.511 559.35C302.982 559.028 302.523 558.586 302.134 558.023C301.749 557.456 301.452 556.819 301.245 556.112C301.034 556.874 300.722 557.56 300.312 558.169C299.902 558.778 299.419 559.252 298.865 559.591L298.23 558.842C298.738 558.546 299.182 558.141 299.563 557.629C299.944 557.113 300.236 556.54 300.439 555.909C300.642 555.274 300.744 554.635 300.744 553.992V551.809H301.708V553.954ZM308.031 562.028H307.066V550.742H308.031V562.028ZM305.695 561.457H304.755V555.643H302.838V554.792H304.755V550.983H305.695V561.457Z" fill="#E8E4DC"/>
<path id="Vector_25" d="M241.001 568H341.001" stroke="#373F3B" stroke-width="0.5"/>
<path id="&#235;&#167;&#140; 12&#236;&#132;&#184;" d="M277.159 579.963H271.941V574.771H277.159V579.963ZM272.918 579.163H276.194V575.583H272.918V579.163ZM280.282 577.183H281.983V578.021H280.282V582.02H279.292V573.742H280.282V577.183ZM280.802 584.787H273.223V581.232H274.201V583.949H280.802V584.787ZM289.613 584H288.458V576.002H288.407L286.172 577.487V576.332L288.458 574.809H289.613V584ZM292.05 583.162L295.186 579.861C295.601 579.425 295.916 579.074 296.132 578.808C296.352 578.537 296.517 578.277 296.627 578.027C296.741 577.773 296.798 577.508 296.798 577.233C296.798 576.929 296.718 576.658 296.557 576.421C296.396 576.184 296.176 576 295.897 575.869C295.622 575.737 295.313 575.672 294.97 575.672C294.611 575.672 294.295 575.744 294.024 575.888C293.754 576.032 293.544 576.235 293.396 576.497C293.252 576.759 293.18 577.06 293.18 577.398H292.101C292.097 576.865 292.22 576.393 292.469 575.983C292.723 575.572 293.072 575.253 293.517 575.024C293.961 574.796 294.458 574.682 295.008 574.682C295.554 574.682 296.043 574.794 296.475 575.018C296.91 575.242 297.251 575.549 297.497 575.938C297.742 576.328 297.865 576.759 297.865 577.233C297.865 577.585 297.801 577.921 297.674 578.243C297.547 578.56 297.334 578.913 297.033 579.303C296.737 579.688 296.312 580.166 295.757 580.737L293.65 582.908V582.984H298.03V584H292.063L292.05 583.162ZM302.638 576.954C302.638 577.555 302.733 578.156 302.924 578.757C303.114 579.358 303.387 579.906 303.743 580.401C304.102 580.896 304.526 581.287 305.012 581.575L304.441 582.35C303.912 582.028 303.453 581.586 303.063 581.023C302.678 580.456 302.382 579.819 302.175 579.112C301.963 579.874 301.652 580.56 301.242 581.169C300.831 581.778 300.349 582.252 299.794 582.591L299.16 581.842C299.667 581.546 300.112 581.141 300.493 580.629C300.874 580.113 301.166 579.54 301.369 578.909C301.572 578.274 301.673 577.635 301.673 576.992V574.809H302.638V576.954ZM308.96 585.028H307.996V573.742H308.96V585.028ZM306.625 584.457H305.685V578.643H303.768V577.792H305.685V573.983H306.625V584.457Z" fill="#E8E4DC"/>
</g>
</g>
<defs>
<filter id="filter0_dd_121_5205" x="0" y="351.924" width="409.342" height="118.974" filterUnits="userSpaceOnUse" color-interpolation-filters="sRGB">
<feFlood flood-opacity="0" result="BackgroundImageFix"/>
<feColorMatrix in="SourceAlpha" type="matrix" values="0 0 0 0 0 0 0 0 0 0 0 0 0 0 0 0 0 0 127 0" result="hardAlpha"/>
<feOffset dy="8"/>
<feGaussianBlur stdDeviation="16"/>
<feColorMatrix type="matrix" values="0 0 0 0 0 0 0 0 0 0 0 0 0 0 0 0 0 0 0.5 0"/>
<feBlend mode="normal" in2="BackgroundImageFix" result="effect1_dropShadow_121_5205"/>
<feColorMatrix in="SourceAlpha" type="matrix" values="0 0 0 0 0 0 0 0 0 0 0 0 0 0 0 0 0 0 127 0" result="hardAlpha"/>
<feOffset dy="2"/>
<feGaussianBlur stdDeviation="4"/>
<feColorMatrix type="matrix" values="0 0 0 0 0 0 0 0 0 0 0 0 0 0 0 0 0 0 0.25 0"/>
<feBlend mode="normal" in2="effect1_dropShadow_121_5205" result="effect2_dropShadow_121_5205"/>
<feBlend mode="normal" in="SourceGraphic" in2="effect2_dropShadow_121_5205" result="shape"/>
</filter>
<filter id="filter1_dd_121_5205" x="0" y="422.897" width="409.345" height="276.995" filterUnits="userSpaceOnUse" color-interpolation-filters="sRGB">
<feFlood flood-opacity="0" result="BackgroundImageFix"/>
<feColorMatrix in="SourceAlpha" type="matrix" values="0 0 0 0 0 0 0 0 0 0 0 0 0 0 0 0 0 0 127 0" result="hardAlpha"/>
<feOffset dy="8"/>
<feGaussianBlur stdDeviation="16"/>
<feColorMatrix type="matrix" values="0 0 0 0 0 0 0 0 0 0 0 0 0 0 0 0 0 0 0.5 0"/>
<feBlend mode="normal" in2="BackgroundImageFix" result="effect1_dropShadow_121_5205"/>
<feColorMatrix in="SourceAlpha" type="matrix" values="0 0 0 0 0 0 0 0 0 0 0 0 0 0 0 0 0 0 127 0" result="hardAlpha"/>
<feOffset dy="2"/>
<feGaussianBlur stdDeviation="4"/>
<feColorMatrix type="matrix" values="0 0 0 0 0 0 0 0 0 0 0 0 0 0 0 0 0 0 0.25 0"/>
<feBlend mode="normal" in2="effect1_dropShadow_121_5205" result="effect2_dropShadow_121_5205"/>
<feBlend mode="normal" in="SourceGraphic" in2="effect2_dropShadow_121_5205" result="shape"/>
</filter>
<filter id="filter2_dd_121_5205" x="0" y="240.958" width="409.342" height="118.974" filterUnits="userSpaceOnUse" color-interpolation-filters="sRGB">
<feFlood flood-opacity="0" result="BackgroundImageFix"/>
<feColorMatrix in="SourceAlpha" type="matrix" values="0 0 0 0 0 0 0 0 0 0 0 0 0 0 0 0 0 0 127 0" result="hardAlpha"/>
<feOffset dy="8"/>
<feGaussianBlur stdDeviation="16"/>
<feColorMatrix type="matrix" values="0 0 0 0 0 0 0 0 0 0 0 0 0 0 0 0 0 0 0.5 0"/>
<feBlend mode="normal" in2="BackgroundImageFix" result="effect1_dropShadow_121_5205"/>
<feColorMatrix in="SourceAlpha" type="matrix" values="0 0 0 0 0 0 0 0 0 0 0 0 0 0 0 0 0 0 127 0" result="hardAlpha"/>
<feOffset dy="2"/>
<feGaussianBlur stdDeviation="4"/>
<feColorMatrix type="matrix" values="0 0 0 0 0 0 0 0 0 0 0 0 0 0 0 0 0 0 0.25 0"/>
<feBlend mode="normal" in2="effect1_dropShadow_121_5205" result="effect2_dropShadow_121_5205"/>
<feBlend mode="normal" in="SourceGraphic" in2="effect2_dropShadow_121_5205" result="shape"/>
</filter>
<filter id="filter3_dd_121_5205" x="0" y="129.991" width="409.342" height="118.974" filterUnits="userSpaceOnUse" color-interpolation-filters="sRGB">
<feFlood flood-opacity="0" result="BackgroundImageFix"/>
<feColorMatrix in="SourceAlpha" type="matrix" values="0 0 0 0 0 0 0 0 0 0 0 0 0 0 0 0 0 0 127 0" result="hardAlpha"/>
<feOffset dy="8"/>
<feGaussianBlur stdDeviation="16"/>
<feColorMatrix type="matrix" values="0 0 0 0 0 0 0 0 0 0 0 0 0 0 0 0 0 0 0.5 0"/>
<feBlend mode="normal" in2="BackgroundImageFix" result="effect1_dropShadow_121_5205"/>
<feColorMatrix in="SourceAlpha" type="matrix" values="0 0 0 0 0 0 0 0 0 0 0 0 0 0 0 0 0 0 127 0" result="hardAlpha"/>
<feOffset dy="2"/>
<feGaussianBlur stdDeviation="4"/>
<feColorMatrix type="matrix" values="0 0 0 0 0 0 0 0 0 0 0 0 0 0 0 0 0 0 0.25 0"/>
<feBlend mode="normal" in2="effect1_dropShadow_121_5205" result="effect2_dropShadow_121_5205"/>
<feBlend mode="normal" in="SourceGraphic" in2="effect2_dropShadow_121_5205" result="shape"/>
</filter>
<filter id="filter4_dd_121_5205" x="232.751" y="307.75" width="116.5" height="293.5" filterUnits="userSpaceOnUse" color-interpolation-filters="sRGB">
<feFlood flood-opacity="0" result="BackgroundImageFix"/>
<feColorMatrix in="SourceAlpha" type="matrix" values="0 0 0 0 0 0 0 0 0 0 0 0 0 0 0 0 0 0 127 0" result="hardAlpha"/>
<feOffset dy="2"/>
<feGaussianBlur stdDeviation="4"/>
<feColorMatrix type="matrix" values="0 0 0 0 0.118 0 0 0 0 0.157 0 0 0 0 0.133 0 0 0 0.09 0"/>
<feBlend mode="normal" in2="BackgroundImageFix" result="effect1_dropShadow_121_5205"/>
<feColorMatrix in="SourceAlpha" type="matrix" values="0 0 0 0 0 0 0 0 0 0 0 0 0 0 0 0 0 0 127 0" result="hardAlpha"/>
<feOffset dy="1"/>
<feGaussianBlur stdDeviation="1"/>
<feColorMatrix type="matrix" values="0 0 0 0 0.118 0 0 0 0 0.157 0 0 0 0 0.133 0 0 0 0.04 0"/>
<feBlend mode="normal" in2="effect1_dropShadow_121_5205" result="effect2_dropShadow_121_5205"/>
<feBlend mode="normal" in="SourceGraphic" in2="effect2_dropShadow_121_5205" result="shape"/>
</filter>
<clipPath id="clip0_121_5205">
<rect width="89.9996" height="7.99554" fill="white" transform="translate(159.671 21.9966)"/>
</clipPath>
</defs>
</svg>
