<svg width="336" height="219" viewBox="0 0 336 219" fill="none" xmlns="http://www.w3.org/2000/svg">
<path d="M10.7852 14.2529C12.3086 14.165 13.668 14.0332 14.8633 13.8574L15.0215 15.2988C13.4453 15.5859 11.834 15.7734 10.1875 15.8613C8.54688 15.9434 6.76562 15.9844 4.84375 15.9844L4.59766 14.4023C6.44336 14.3906 7.85547 14.3701 8.83398 14.3408V11.6777H10.7852V14.2529ZM14.2129 6.70312H10.8115C10.8467 7.27734 11.0166 7.81934 11.3213 8.3291C11.626 8.83301 12.0625 9.27832 12.6309 9.66504C13.1992 10.0459 13.873 10.3359 14.6523 10.5352L13.7559 12.0645C12.8301 11.8125 12.0332 11.4258 11.3652 10.9043C10.6973 10.3828 10.1787 9.76172 9.80957 9.04102C9.45801 9.80273 8.94824 10.4561 8.28027 11.001C7.61816 11.54 6.82422 11.9355 5.89844 12.1875L4.9668 10.7109C5.75195 10.4941 6.42285 10.1865 6.97949 9.78809C7.54199 9.38965 7.97559 8.92676 8.28027 8.39941C8.58496 7.87207 8.75488 7.30664 8.79004 6.70312H5.44141V5.12109H8.83398V3.31055H10.7852V5.12109H14.2129V6.70312ZM17.7637 19.0781H15.8125V3.16992H17.7637V19.0781ZM32.5281 5.40234C32.5281 6.32812 32.5076 7.15137 32.4666 7.87207C32.4256 8.59277 32.326 9.39844 32.1678 10.2891H34.3035V11.8887H19.784V10.2891H30.1814C30.3455 9.42773 30.451 8.64551 30.4979 7.94238C30.5506 7.23926 30.577 6.48047 30.577 5.66602H21.577V4.08398H32.5281V5.40234ZM32.9852 18.7266H21.6648V13.4004H23.5984V17.1445H32.9852V18.7266ZM43.3539 4.33008C44.0687 4.33008 44.7133 4.52051 45.2875 4.90137C45.8676 5.28223 46.3363 5.82422 46.6937 6.52734H50.4027V3.16992H52.3363V19.0781H50.4027V13.0664H46.8344C46.4887 13.8574 46.0141 14.4727 45.4105 14.9121C44.807 15.3457 44.1215 15.5625 43.3539 15.5625C42.557 15.5625 41.851 15.334 41.2357 14.877C40.6205 14.4199 40.14 13.7666 39.7943 12.917C39.4486 12.0674 39.2758 11.0742 39.2758 9.9375C39.2758 8.8125 39.4486 7.82812 39.7943 6.98438C40.14 6.13477 40.6205 5.48145 41.2357 5.02441C41.8568 4.56152 42.5629 4.33008 43.3539 4.33008ZM43.3539 6.08789C42.9145 6.08789 42.5277 6.24316 42.1937 6.55371C41.8598 6.8584 41.602 7.30078 41.4203 7.88086C41.2387 8.45508 41.1508 9.14062 41.1566 9.9375C41.1508 10.7402 41.2387 11.4316 41.4203 12.0117C41.602 12.5918 41.8598 13.0371 42.1937 13.3477C42.5277 13.6523 42.9145 13.8047 43.3539 13.8047C43.7934 13.8047 44.1771 13.6523 44.5053 13.3477C44.8393 13.0371 45.0971 12.5918 45.2787 12.0117C45.4662 11.4316 45.5629 10.7402 45.5687 9.9375C45.5629 9.14062 45.4662 8.45215 45.2787 7.87207C45.0971 7.29199 44.8393 6.84961 44.5053 6.54492C44.1771 6.24023 43.7934 6.08789 43.3539 6.08789ZM47.2387 8.12695C47.3559 8.69531 47.4145 9.29883 47.4145 9.9375C47.4145 10.4648 47.3734 10.9805 47.2914 11.4844H50.4027V8.12695H47.2387ZM67.8566 13.1543H65.9934V8.83008H64.4465V12.627H62.6184V3.48633H64.4465V7.24805H65.9934V3.16992H67.8566V13.1543ZM62.091 6.42188H54.1809V4.89258H57.1867V3.31055H59.1203V4.89258H62.091V6.42188ZM58.1535 7.07227C58.8215 7.07227 59.4162 7.18652 59.9377 7.41504C60.4592 7.64355 60.8664 7.96582 61.1594 8.38184C61.4582 8.79199 61.6105 9.26953 61.6164 9.81445C61.6105 10.3594 61.4582 10.8398 61.1594 11.2559C60.8664 11.666 60.4592 11.9854 59.9377 12.2139C59.4162 12.4424 58.8215 12.5566 58.1535 12.5566C57.4973 12.5566 56.9084 12.4424 56.3869 12.2139C55.8654 11.9854 55.4582 11.6631 55.1652 11.2471C54.8781 10.8311 54.7375 10.3535 54.7434 9.81445C54.7375 9.27539 54.8781 8.79785 55.1652 8.38184C55.4582 7.96582 55.8654 7.64355 56.3869 7.41504C56.9084 7.18652 57.4973 7.07227 58.1535 7.07227ZM58.1535 8.47852C57.6555 8.47852 57.2512 8.59863 56.9406 8.83887C56.6359 9.0791 56.4836 9.4043 56.4836 9.81445C56.4836 10.2246 56.6359 10.5498 56.9406 10.79C57.2453 11.0303 57.6496 11.1504 58.1535 11.1504C58.6574 11.1504 59.0646 11.0303 59.3752 10.79C59.6857 10.5498 59.841 10.2246 59.841 9.81445C59.841 9.4043 59.6857 9.0791 59.3752 8.83887C59.0646 8.59863 58.6574 8.47852 58.1535 8.47852ZM62.4953 13.3477C63.6262 13.3477 64.5988 13.459 65.4133 13.6816C66.2277 13.9043 66.8518 14.2324 67.2854 14.666C67.7189 15.0938 67.9387 15.6094 67.9445 16.2129C67.9387 16.8047 67.716 17.3115 67.2766 17.7334C66.843 18.1611 66.2189 18.4863 65.4045 18.709C64.59 18.9316 63.6203 19.043 62.4953 19.043C61.3703 19.043 60.3977 18.9316 59.5773 18.709C58.7629 18.4863 58.1359 18.1611 57.6965 17.7334C57.2629 17.3115 57.0461 16.8047 57.0461 16.2129C57.0461 15.6094 57.2629 15.0938 57.6965 14.666C58.1359 14.2324 58.7629 13.9043 59.5773 13.6816C60.3918 13.459 61.3645 13.3477 62.4953 13.3477ZM62.4953 14.8418C61.3527 14.8301 60.4826 14.9414 59.885 15.1758C59.2932 15.4043 58.9973 15.75 58.9973 16.2129C58.9973 16.6523 59.2961 16.9863 59.8937 17.2148C60.4914 17.4375 61.3586 17.5488 62.4953 17.5488C63.6262 17.5488 64.4875 17.4375 65.0793 17.2148C65.677 16.9863 65.9758 16.6523 65.9758 16.2129C65.9758 15.75 65.677 15.4043 65.0793 15.1758C64.4875 14.9414 63.6262 14.8301 62.4953 14.8418Z" fill="#B8B5AE"/>
<path d="M286.108 17.8457H285.028V13.1836H282.526V12.2949H285.028V8.93164H286.108V17.8457ZM286.45 20.8125H278.302V17.0391H279.382V19.9102H286.45V20.8125ZM280.257 11.4336C280.257 11.9531 280.382 12.4613 280.633 12.958C280.888 13.4502 281.241 13.8877 281.692 14.2705C282.148 14.6533 282.667 14.9427 283.251 15.1387L282.69 16C282.011 15.7539 281.414 15.3893 280.899 14.9062C280.389 14.4186 280.001 13.8581 279.737 13.2246C279.473 13.9264 279.072 14.5462 278.534 15.084C277.996 15.6172 277.367 16.0182 276.647 16.2871L276.087 15.4121C276.679 15.2025 277.21 14.8971 277.679 14.4961C278.149 14.0905 278.516 13.6234 278.78 13.0947C279.044 12.5615 279.177 12.0078 279.177 11.4336V10.8047H276.428V9.91602H282.977V10.8047H280.257V11.4336ZM291.686 12.6641C291.686 13.3158 291.793 13.9583 292.008 14.5918C292.222 15.2253 292.529 15.7972 292.93 16.3076C293.331 16.8135 293.801 17.2122 294.339 17.5039L293.723 18.3105C293.131 17.9915 292.618 17.5381 292.185 16.9502C291.752 16.3577 291.422 15.6855 291.194 14.9336C290.971 15.7311 290.643 16.4489 290.21 17.0869C289.781 17.7249 289.271 18.224 288.678 18.584L288.036 17.7637C288.574 17.4538 289.041 17.0277 289.437 16.4854C289.834 15.943 290.137 15.3392 290.346 14.6738C290.561 14.0085 290.67 13.3385 290.675 12.6641V12.0625H288.364V11.1738H290.675V9.36914H291.7V11.1738H293.969V12.0625H291.686V12.6641ZM298.522 21.0723H297.497V8.91797H298.522V21.0723ZM296.061 20.4434H295.05V14.6328H293.135V13.7168H295.05V9.21875H296.061V20.4434ZM311.36 19.5137H300.231V18.625H305.235V16H301.544V9.7793H302.624V11.9805H308.94V9.7793H309.993V16H306.288V18.625H311.36V19.5137ZM308.94 15.125V12.8555H302.624V15.125H308.94ZM322.38 21.0723H321.3V8.91797H322.38V21.0723ZM318.784 10.2441C318.775 12.0807 318.31 13.7305 317.389 15.1934C316.469 16.6517 315.029 17.8503 313.069 18.7891L312.481 17.9141C314.104 17.1439 315.345 16.1868 316.207 15.043C317.073 13.8991 317.567 12.5911 317.69 11.1191H313.042V10.2441H318.784Z" fill="#5E9E72"/>
<g filter="url(#filter0_d_48_340)">
<path d="M4 54.9922C4 46.1557 11.1634 38.9922 20 38.9922H315.526C324.363 38.9922 331.526 46.1556 331.526 54.9922V104.459C331.526 113.295 324.363 120.459 315.526 120.459H20C11.1634 120.459 4 113.295 4 104.459V54.9922Z" fill="#262B28"/>
<path d="M20 39.4922H315.526C324.087 39.4922 331.026 46.4318 331.026 54.9922V104.459C331.026 113.019 324.087 119.959 315.526 119.959H20C11.4396 119.959 4.50008 113.019 4.5 104.459V54.9922C4.50001 46.5656 11.2242 39.7094 19.5996 39.4971L20 39.4922Z" stroke="#373F3B"/>
<path d="M26.1907 64.335C26.1907 65.1579 26.3521 65.9704 26.675 66.7725C26.998 67.5745 27.4355 68.2881 27.9875 68.9131C28.5396 69.5329 29.149 69.9964 29.8157 70.3037L29.0813 71.3037C28.2948 70.8975 27.5917 70.3011 26.9719 69.5146C26.3521 68.7282 25.8886 67.8402 25.5813 66.8506C25.2688 67.8975 24.8027 68.8376 24.1829 69.6709C23.5683 70.5042 22.8678 71.1318 22.0813 71.5537L21.2844 70.5693C21.9563 70.2412 22.5709 69.749 23.1282 69.0928C23.6855 68.4313 24.1256 67.6839 24.4485 66.8506C24.7766 66.012 24.9407 65.1735 24.9407 64.335V61.8037H26.1907V64.335ZM32.8157 74.5225H31.5969V66.3506H28.3V65.3506H31.5969V60.6006H32.8157V74.5225ZM41.4563 60.7725C42.4875 60.7725 43.3704 60.8662 44.1047 61.0537C44.8391 61.2412 45.399 61.5146 45.7844 61.874C46.1698 62.2334 46.3625 62.6683 46.3625 63.1787C46.3625 63.6943 46.1698 64.1318 45.7844 64.4912C45.399 64.8506 44.8391 65.124 44.1047 65.3115C43.3704 65.499 42.4875 65.5954 41.4563 65.6006C40.425 65.5954 39.5396 65.499 38.8 65.3115C38.0657 65.124 37.5032 64.8506 37.1125 64.4912C36.7271 64.1318 36.5344 63.6943 36.5344 63.1787C36.5344 62.6683 36.7271 62.2334 37.1125 61.874C37.5032 61.5146 38.0657 61.2412 38.8 61.0537C39.5396 60.8662 40.425 60.7725 41.4563 60.7725ZM41.4563 61.71C40.2948 61.7204 39.3964 61.8532 38.761 62.1084C38.1256 62.3636 37.8105 62.7204 37.8157 63.1787C37.8105 63.6527 38.123 64.0173 38.7532 64.2725C39.3886 64.5225 40.2896 64.6527 41.4563 64.6631C42.6178 64.6527 43.5162 64.5225 44.1516 64.2725C44.7922 64.0173 45.1125 63.6527 45.1125 63.1787C45.1125 62.7204 44.7896 62.3636 44.1438 62.1084C43.5032 61.8532 42.6073 61.7204 41.4563 61.71ZM47.7844 67.5068H42.05V68.8193H46.1594V71.9287H37.9094V73.3662H46.5813V74.335H36.6907V71.0225H44.9563V69.7568H36.6594V68.8193H40.8313V67.5068H35.1282V66.5225H47.7844V67.5068ZM57.3782 73.3818C56.6334 73.3818 55.9667 73.2568 55.3782 73.0068C54.7948 72.7568 54.3313 72.4053 53.9875 71.9521C53.649 71.499 53.4667 70.9756 53.4407 70.3818H54.8625C54.8886 70.7308 55.0136 71.0381 55.2375 71.3037C55.4667 71.5693 55.7662 71.7751 56.136 71.9209C56.5058 72.0615 56.9146 72.1318 57.3625 72.1318C57.8521 72.1318 58.2922 72.0485 58.6829 71.8818C59.0787 71.71 59.386 71.4756 59.6047 71.1787C59.8287 70.8766 59.9407 70.5329 59.9407 70.1475C59.9407 69.7308 59.8313 69.3636 59.6125 69.0459C59.399 68.7282 59.0865 68.4808 58.675 68.3037C58.2636 68.1266 57.7688 68.0381 57.1907 68.0381H56.2688V66.8037H57.1907C57.6438 66.8037 58.0474 66.723 58.4016 66.5615C58.7558 66.4001 59.0292 66.1735 59.2219 65.8818C59.4198 65.5902 59.5188 65.2516 59.5188 64.8662C59.5188 64.4964 59.4303 64.1683 59.2532 63.8818C59.0813 63.5954 58.8365 63.374 58.5188 63.2178C58.2011 63.0563 57.8313 62.9756 57.4094 62.9756C57.0032 62.9756 56.623 63.0485 56.2688 63.1943C55.9146 63.3402 55.6256 63.5485 55.4016 63.8193C55.1777 64.085 55.0553 64.3975 55.0344 64.7568H53.675C53.7011 64.1735 53.8834 63.6553 54.2219 63.2021C54.5605 62.7438 55.011 62.3896 55.5735 62.1396C56.136 61.8844 56.7532 61.7568 57.425 61.7568C58.123 61.7568 58.7323 61.8949 59.2532 62.1709C59.7792 62.4417 60.1829 62.8089 60.4641 63.2725C60.7454 63.736 60.8834 64.2412 60.8782 64.7881C60.8834 65.4235 60.7141 65.9678 60.3704 66.4209C60.0266 66.874 59.5553 67.1839 58.9563 67.3506V67.4287C59.4407 67.5068 59.8599 67.6709 60.2141 67.9209C60.5735 68.1657 60.8469 68.4808 61.0344 68.8662C61.2271 69.2464 61.3209 69.6735 61.3157 70.1475C61.3209 70.7568 61.1516 71.3089 60.8079 71.8037C60.4641 72.2933 59.9902 72.6787 59.386 72.96C58.787 73.2412 58.1178 73.3818 57.3782 73.3818ZM66.7844 61.1162C67.4719 61.1214 68.0865 61.2542 68.6282 61.5146C69.175 61.7751 69.6021 62.1396 69.9094 62.6084C70.2219 63.0719 70.3782 63.6006 70.3782 64.1943C70.3782 64.7881 70.2219 65.3193 69.9094 65.7881C69.6021 66.2516 69.175 66.6136 68.6282 66.874C68.0865 67.1292 67.4719 67.2568 66.7844 67.2568C66.0865 67.2568 65.4641 67.1292 64.9172 66.874C64.3704 66.6136 63.9433 66.2516 63.636 65.7881C63.3287 65.3193 63.175 64.7881 63.175 64.1943C63.175 63.6006 63.3287 63.0719 63.636 62.6084C63.9433 62.1396 64.3704 61.7751 64.9172 61.5146C65.4641 61.2542 66.0865 61.1214 66.7844 61.1162ZM66.7844 62.1475C66.3261 62.1475 65.912 62.236 65.5422 62.4131C65.1777 62.585 64.8912 62.8271 64.6829 63.1396C64.4745 63.4469 64.373 63.7985 64.3782 64.1943C64.373 64.5954 64.4745 64.9521 64.6829 65.2646C64.8912 65.5771 65.1777 65.8219 65.5422 65.999C65.912 66.1709 66.3261 66.2568 66.7844 66.2568C67.2375 66.2568 67.6464 66.1709 68.011 65.999C68.3808 65.8219 68.6698 65.5771 68.8782 65.2646C69.0865 64.9521 69.1907 64.5954 69.1907 64.1943C69.1907 63.7985 69.0865 63.4469 68.8782 63.1396C68.6698 62.8271 68.3808 62.585 68.011 62.4131C67.6464 62.236 67.2375 62.1475 66.7844 62.1475ZM74.3157 67.7412H73.0969V60.6006H74.3157V67.7412ZM74.3157 71.7568H66.5188V73.3193H74.8157V74.3037H65.3157V70.835H73.0969V69.3975H65.2844V68.4131H74.3157V71.7568ZM84.425 61.6787C85.0605 61.6839 85.6282 61.8636 86.1282 62.2178C86.6282 62.5667 87.0292 63.0641 87.3313 63.71H90.9875V60.6006H92.2063V74.5225H90.9875V69.1318H87.4172C87.1256 69.8402 86.7193 70.387 86.1985 70.7725C85.6829 71.1579 85.0917 71.3506 84.425 71.3506C83.748 71.3506 83.1438 71.1527 82.6125 70.7568C82.0865 70.361 81.675 69.7985 81.3782 69.0693C81.0865 68.3402 80.9407 67.4912 80.9407 66.5225C80.9407 65.5537 81.0865 64.7048 81.3782 63.9756C81.675 63.2464 82.0865 62.6839 82.6125 62.2881C83.1386 61.887 83.7428 61.6839 84.425 61.6787ZM84.425 62.7725C83.9719 62.7777 83.5683 62.9365 83.2141 63.249C82.8652 63.5563 82.5943 63.9938 82.4016 64.5615C82.2089 65.124 82.1125 65.7777 82.1125 66.5225C82.1125 67.2673 82.2089 67.9235 82.4016 68.4912C82.5943 69.0537 82.8652 69.4886 83.2141 69.7959C83.5683 70.1032 83.9719 70.2568 84.425 70.2568C84.873 70.2568 85.2714 70.1032 85.6204 69.7959C85.9745 69.4886 86.248 69.0537 86.4407 68.4912C86.6386 67.9235 86.7375 67.2673 86.7375 66.5225C86.7375 65.7777 86.6386 65.124 86.4407 64.5615C86.248 63.9938 85.9771 63.5563 85.6282 63.249C85.2792 62.9365 84.8782 62.7777 84.425 62.7725ZM87.6907 64.7412C87.8261 65.3245 87.8938 65.9183 87.8938 66.5225C87.8938 67.0641 87.8391 67.5954 87.7297 68.1162H90.9875V64.7412H87.6907ZM106.316 69.3975H105.144V65.4131H103.284V68.8975H102.128V60.8818H103.284V64.3975H105.144V60.6006H106.316V69.3975ZM101.566 63.2568H94.4407V62.2725H97.4094V60.71H98.6282V62.2725H101.566V63.2568ZM98.0188 64.0068C98.6021 64.0068 99.1178 64.1058 99.5657 64.3037C100.019 64.4964 100.37 64.7725 100.62 65.1318C100.87 65.486 100.998 65.9027 101.003 66.3818C100.998 66.8506 100.87 67.2646 100.62 67.624C100.37 67.9782 100.019 68.2542 99.5657 68.4521C99.1178 68.6449 98.6021 68.7412 98.0188 68.7412C97.4407 68.7412 96.925 68.6449 96.4719 68.4521C96.0188 68.2542 95.6672 67.9782 95.4172 67.624C95.1672 67.2646 95.0448 66.8506 95.05 66.3818C95.0448 65.9079 95.1672 65.4912 95.4172 65.1318C95.6672 64.7725 96.0162 64.4964 96.4641 64.3037C96.9172 64.1058 97.4355 64.0068 98.0188 64.0068ZM98.0188 64.9131C97.6542 64.9131 97.3287 64.9756 97.0422 65.1006C96.761 65.2204 96.5396 65.3923 96.3782 65.6162C96.2219 65.8402 96.1438 66.0954 96.1438 66.3818C96.1438 66.6631 96.2219 66.9131 96.3782 67.1318C96.5396 67.3506 96.761 67.5199 97.0422 67.6396C97.3287 67.7594 97.6542 67.8193 98.0188 67.8193C98.3834 67.8193 98.7063 67.7594 98.9875 67.6396C99.274 67.5199 99.4954 67.3506 99.6516 67.1318C99.8131 66.9131 99.8938 66.6631 99.8938 66.3818C99.8938 66.0954 99.8131 65.8402 99.6516 65.6162C99.4954 65.3923 99.274 65.2204 98.9875 65.1006C98.7063 64.9756 98.3834 64.9131 98.0188 64.9131ZM101.722 69.6318C102.696 69.6318 103.532 69.7282 104.23 69.9209C104.928 70.1084 105.462 70.3844 105.831 70.749C106.206 71.1136 106.394 71.5537 106.394 72.0693C106.394 72.5693 106.206 72.999 105.831 73.3584C105.462 73.7178 104.925 73.9912 104.222 74.1787C103.524 74.3662 102.691 74.46 101.722 74.46C100.753 74.46 99.9172 74.3662 99.2141 74.1787C98.5162 73.9912 97.9823 73.7178 97.6125 73.3584C97.2428 72.999 97.0605 72.5693 97.0657 72.0693C97.0605 71.5537 97.2428 71.1136 97.6125 70.749C97.9823 70.3844 98.5162 70.1084 99.2141 69.9209C99.912 69.7282 100.748 69.6318 101.722 69.6318ZM101.722 70.6006C101.003 70.5954 100.386 70.6501 99.8704 70.7646C99.3547 70.874 98.9589 71.0407 98.6829 71.2646C98.412 71.4886 98.2792 71.7568 98.2844 72.0693C98.2792 72.3714 98.412 72.6292 98.6829 72.8428C98.9589 73.0563 99.3547 73.2204 99.8704 73.335C100.391 73.4495 101.008 73.5068 101.722 73.5068C102.435 73.5068 103.05 73.4495 103.566 73.335C104.081 73.2204 104.477 73.0563 104.753 72.8428C105.029 72.6292 105.17 72.3714 105.175 72.0693C105.17 71.5954 104.863 71.2308 104.253 70.9756C103.649 70.7152 102.805 70.5902 101.722 70.6006Z" fill="#E8E4DC"/>
<path d="M21.6536 98.8203L25.0305 95.2656C25.4771 94.7962 25.8167 94.418 26.0491 94.1309C26.2861 93.8392 26.4638 93.5589 26.5823 93.29C26.7053 93.0166 26.7668 92.7318 26.7668 92.4355C26.7668 92.1074 26.6803 91.8158 26.5071 91.5605C26.3339 91.3053 26.0969 91.1071 25.7961 90.9658C25.4999 90.8245 25.1672 90.7539 24.7981 90.7539C24.4107 90.7539 24.0712 90.8314 23.7795 90.9863C23.4879 91.1413 23.2623 91.36 23.1028 91.6426C22.9478 91.9251 22.8704 92.2487 22.8704 92.6133H21.7083C21.7037 92.0391 21.8359 91.5309 22.1047 91.0889C22.3782 90.6468 22.7542 90.3027 23.2327 90.0566C23.7112 89.8105 24.2467 89.6875 24.8391 89.6875C25.427 89.6875 25.9534 89.8083 26.4182 90.0498C26.8876 90.2913 27.2545 90.6217 27.5188 91.041C27.7831 91.4603 27.9153 91.9251 27.9153 92.4355C27.9153 92.8138 27.8469 93.1761 27.7102 93.5225C27.5735 93.8643 27.3433 94.2448 27.0198 94.6641C26.7008 95.0788 26.2428 95.5938 25.6458 96.209L23.3762 98.5469V98.6289H28.093V99.7227H21.6672L21.6536 98.8203ZM33.1243 99.8594C32.3951 99.8594 31.7708 99.6611 31.2512 99.2646C30.7362 98.8682 30.342 98.2894 30.0686 97.5283C29.7997 96.7673 29.6653 95.849 29.6653 94.7734C29.6653 93.7116 29.802 92.8001 30.0754 92.0391C30.3489 91.2734 30.7454 90.6901 31.2649 90.2891C31.7844 89.888 32.4042 89.6875 33.1243 89.6875C33.8443 89.6875 34.4641 89.888 34.9836 90.2891C35.5032 90.6901 35.8997 91.2734 36.1731 92.0391C36.4465 92.8001 36.5833 93.7116 36.5833 94.7734C36.5833 95.849 36.4465 96.7673 36.1731 97.5283C35.9042 98.2894 35.51 98.8682 34.9905 99.2646C34.4709 99.6611 33.8489 99.8594 33.1243 99.8594ZM33.1243 98.7656C33.5982 98.7656 34.0038 98.6107 34.3411 98.3008C34.6783 97.9909 34.9358 97.5374 35.1135 96.9404C35.2913 96.3434 35.3801 95.6211 35.3801 94.7734C35.3801 93.9258 35.2913 93.2012 35.1135 92.5996C34.9358 91.998 34.6783 91.54 34.3411 91.2256C34.0038 90.9111 33.5982 90.7539 33.1243 90.7539C32.6503 90.7539 32.2424 90.9111 31.9006 91.2256C31.5634 91.54 31.3036 91.998 31.1213 92.5996C30.9436 93.2012 30.8547 93.9258 30.8547 94.7734C30.8547 95.6211 30.9436 96.3434 31.1213 96.9404C31.2991 97.5374 31.5566 97.9909 31.8938 98.3008C32.2356 98.6107 32.6458 98.7656 33.1243 98.7656ZM38.2102 98.8203L41.5872 95.2656C42.0338 94.7962 42.3733 94.418 42.6057 94.1309C42.8427 93.8392 43.0204 93.5589 43.1389 93.29C43.262 93.0166 43.3235 92.7318 43.3235 92.4355C43.3235 92.1074 43.2369 91.8158 43.0637 91.5605C42.8905 91.3053 42.6536 91.1071 42.3528 90.9658C42.0566 90.8245 41.7239 90.7539 41.3547 90.7539C40.9674 90.7539 40.6278 90.8314 40.3362 90.9863C40.0445 91.1413 39.8189 91.36 39.6594 91.6426C39.5045 91.9251 39.427 92.2487 39.427 92.6133H38.2649C38.2603 92.0391 38.3925 91.5309 38.6614 91.0889C38.9348 90.6468 39.3108 90.3027 39.7893 90.0566C40.2678 89.8105 40.8033 89.6875 41.3958 89.6875C41.9836 89.6875 42.51 89.8083 42.9749 90.0498C43.4443 90.2913 43.8111 90.6217 44.0754 91.041C44.3398 91.4603 44.4719 91.9251 44.4719 92.4355C44.4719 92.8138 44.4036 93.1761 44.2668 93.5225C44.1301 93.8643 43.9 94.2448 43.5764 94.6641C43.2574 95.0788 42.7994 95.5938 42.2024 96.209L39.9329 98.5469V98.6289H44.6497V99.7227H38.2239L38.2102 98.8203ZM49.9133 99.8594C49.2753 99.8594 48.6829 99.7158 48.136 99.4287C47.5937 99.137 47.1471 98.6426 46.7961 97.9453C46.4498 97.2435 46.2766 96.3138 46.2766 95.1562C46.2766 94.0033 46.427 93.0166 46.7278 92.1963C47.0331 91.376 47.4661 90.7539 48.0266 90.3301C48.5917 89.9017 49.2616 89.6875 50.0364 89.6875C50.606 89.6875 51.1165 89.7969 51.5676 90.0156C52.0234 90.2344 52.3948 90.542 52.6819 90.9385C52.9736 91.335 53.1627 91.793 53.2493 92.3125H52.0325C51.9094 91.8522 51.677 91.4831 51.3352 91.2051C50.998 90.9225 50.565 90.7812 50.0364 90.7812C49.4986 90.7812 49.0338 90.9316 48.6418 91.2324C48.2545 91.5286 47.956 91.9593 47.7463 92.5244C47.5413 93.0895 47.4387 93.7663 47.4387 94.5547H47.5618C47.8534 94.14 48.218 93.8187 48.6555 93.5908C49.093 93.3584 49.5761 93.2422 50.1047 93.2422C50.6881 93.2422 51.2258 93.3835 51.718 93.666C52.2148 93.9486 52.6067 94.3405 52.8938 94.8418C53.1855 95.3385 53.3313 95.8991 53.3313 96.5234C53.3313 97.1387 53.1877 97.7015 52.9006 98.2119C52.6181 98.7178 52.217 99.1188 51.6975 99.415C51.178 99.7113 50.5833 99.8594 49.9133 99.8594ZM49.886 98.7793C50.3053 98.7793 50.6858 98.679 51.0276 98.4785C51.3694 98.278 51.6383 98.0068 51.8342 97.665C52.0347 97.3187 52.1373 96.9427 52.1418 96.5371C52.1373 96.1315 52.0393 95.7601 51.8479 95.4229C51.6565 95.0856 51.3922 94.819 51.0549 94.623C50.7177 94.4225 50.3372 94.3223 49.9133 94.3223C49.4895 94.3223 49.1021 94.4248 48.7512 94.6299C48.4003 94.835 48.1223 95.1107 47.9172 95.457C47.7122 95.7988 47.6073 96.1634 47.6028 96.5508C47.6028 96.9382 47.7008 97.3027 47.8967 97.6445C48.0972 97.9863 48.3707 98.262 48.717 98.4717C49.068 98.6768 49.4576 98.7793 49.886 98.7793ZM55.4094 99.8047C55.2499 99.8047 55.1018 99.766 54.9651 99.6885C54.8329 99.6064 54.7258 99.4971 54.6438 99.3604C54.5663 99.2236 54.5299 99.0755 54.5344 98.916C54.5299 98.7611 54.5663 98.6175 54.6438 98.4854C54.7258 98.3486 54.8329 98.2415 54.9651 98.1641C55.1018 98.082 55.2499 98.041 55.4094 98.041C55.5644 98.041 55.7079 98.082 55.8401 98.1641C55.9768 98.2415 56.0839 98.3486 56.1614 98.4854C56.2434 98.6175 56.2844 98.7611 56.2844 98.916C56.2844 99.0755 56.2434 99.2236 56.1614 99.3604C56.0839 99.4971 55.9768 99.6064 55.8401 99.6885C55.7079 99.766 55.5644 99.8047 55.4094 99.8047ZM61.0012 99.8594C60.2721 99.8594 59.6477 99.6611 59.1282 99.2646C58.6132 98.8682 58.219 98.2894 57.9456 97.5283C57.6767 96.7673 57.5422 95.849 57.5422 94.7734C57.5422 93.7116 57.679 92.8001 57.9524 92.0391C58.2258 91.2734 58.6223 90.6901 59.1418 90.2891C59.6614 89.888 60.2812 89.6875 61.0012 89.6875C61.7213 89.6875 62.3411 89.888 62.8606 90.2891C63.3801 90.6901 63.7766 91.2734 64.05 92.0391C64.3235 92.8001 64.4602 93.7116 64.4602 94.7734C64.4602 95.849 64.3235 96.7673 64.05 97.5283C63.7812 98.2894 63.387 98.8682 62.8674 99.2646C62.3479 99.6611 61.7258 99.8594 61.0012 99.8594ZM61.0012 98.7656C61.4752 98.7656 61.8808 98.6107 62.218 98.3008C62.5553 97.9909 62.8127 97.5374 62.9905 96.9404C63.1682 96.3434 63.2571 95.6211 63.2571 94.7734C63.2571 93.9258 63.1682 93.2012 62.9905 92.5996C62.8127 91.998 62.5553 91.54 62.218 91.2256C61.8808 90.9111 61.4752 90.7539 61.0012 90.7539C60.5273 90.7539 60.1194 90.9111 59.7776 91.2256C59.4403 91.54 59.1806 91.998 58.9983 92.5996C58.8206 93.2012 58.7317 93.9258 58.7317 94.7734C58.7317 95.6211 58.8206 96.3434 58.9983 96.9404C59.176 97.5374 59.4335 97.9909 59.7708 98.3008C60.1125 98.6107 60.5227 98.7656 61.0012 98.7656ZM65.8547 96.6875L70.3118 89.8242H71.8293V96.6191H73.2102V97.6992H71.8293V99.7227H70.6536V97.6992H65.8547V96.6875ZM70.6536 96.6191V91.3828H70.5305L67.1809 96.5371V96.6191H70.6536ZM75.2336 99.8047C75.0741 99.8047 74.926 99.766 74.7893 99.6885C74.6571 99.6064 74.55 99.4971 74.468 99.3604C74.3905 99.2236 74.3541 99.0755 74.3586 98.916C74.3541 98.7611 74.3905 98.6175 74.468 98.4854C74.55 98.3486 74.6571 98.2415 74.7893 98.1641C74.926 98.082 75.0741 98.041 75.2336 98.041C75.3886 98.041 75.5321 98.082 75.6643 98.1641C75.801 98.2415 75.9081 98.3486 75.9856 98.4854C76.0676 98.6175 76.1086 98.7611 76.1086 98.916C76.1086 99.0755 76.0676 99.2236 75.9856 99.3604C75.9081 99.4971 75.801 99.6064 75.6643 99.6885C75.5321 99.766 75.3886 99.8047 75.2336 99.8047ZM80.2512 99.7227H79.0071V91.1094H78.9524L76.5461 92.709V91.4648L79.0071 89.8242H80.2512V99.7227ZM86.1301 99.8594C85.401 99.8594 84.7766 99.6611 84.2571 99.2646C83.7421 98.8682 83.3479 98.2894 83.0745 97.5283C82.8056 96.7673 82.6711 95.849 82.6711 94.7734C82.6711 93.7116 82.8079 92.8001 83.0813 92.0391C83.3547 91.2734 83.7512 90.6901 84.2708 90.2891C84.7903 89.888 85.4101 89.6875 86.1301 89.6875C86.8502 89.6875 87.47 89.888 87.9895 90.2891C88.509 90.6901 88.9055 91.2734 89.179 92.0391C89.4524 92.8001 89.5891 93.7116 89.5891 94.7734C89.5891 95.849 89.4524 96.7673 89.179 97.5283C88.9101 98.2894 88.5159 98.8682 87.9963 99.2646C87.4768 99.6611 86.8547 99.8594 86.1301 99.8594ZM86.1301 98.7656C86.6041 98.7656 87.0097 98.6107 87.3469 98.3008C87.6842 97.9909 87.9417 97.5374 88.1194 96.9404C88.2971 96.3434 88.386 95.6211 88.386 94.7734C88.386 93.9258 88.2971 93.2012 88.1194 92.5996C87.9417 91.998 87.6842 91.54 87.3469 91.2256C87.0097 90.9111 86.6041 90.7539 86.1301 90.7539C85.6562 90.7539 85.2483 90.9111 84.9065 91.2256C84.5693 91.54 84.3095 91.998 84.1272 92.5996C83.9495 93.2012 83.8606 93.9258 83.8606 94.7734C83.8606 95.6211 83.9495 96.3434 84.1272 96.9404C84.3049 97.5374 84.5624 97.9909 84.8997 98.3008C85.2415 98.6107 85.6516 98.7656 86.1301 98.7656Z" fill="#B8B5AE"/>
<path d="M278.789 56.2295H302.789C309.14 56.2295 314.289 61.3782 314.289 67.7295C314.289 74.0808 309.14 79.2295 302.789 79.2295H278.789C272.438 79.2295 267.289 74.0808 267.289 67.7295C267.289 61.3782 272.438 56.2295 278.789 56.2295Z" fill="#2E2410"/>
<path d="M278.789 56.2295H302.789C309.14 56.2295 314.289 61.3782 314.289 67.7295C314.289 74.0808 309.14 79.2295 302.789 79.2295H278.789C272.438 79.2295 267.289 74.0808 267.289 67.7295C267.289 61.3782 272.438 56.2295 278.789 56.2295Z" stroke="#373F3B"/>
<path d="M289.851 73.3076H288.422V62.6436H289.851V73.3076ZM287.672 72.8154H286.265V69.5107H285.011C284.812 70.0342 284.541 70.4365 284.197 70.7178C283.857 70.999 283.465 71.1396 283.019 71.1396C282.554 71.1396 282.146 70.9834 281.795 70.6709C281.447 70.3584 281.177 69.9111 280.986 69.3291C280.795 68.7432 280.699 68.0537 280.699 67.2607C280.699 66.4717 280.795 65.7881 280.986 65.21C281.177 64.6279 281.447 64.1826 281.795 63.874C282.146 63.5615 282.554 63.4053 283.019 63.4053C283.461 63.4053 283.851 63.5439 284.191 63.8213C284.535 64.0986 284.806 64.4951 285.006 65.0107H286.265V62.7959H287.672V72.8154ZM283.019 64.8115C282.707 64.8115 282.467 65.0186 282.299 65.4326C282.135 65.8467 282.054 66.4561 282.058 67.2607C282.054 68.0693 282.135 68.6807 282.299 69.0947C282.463 69.5049 282.703 69.7061 283.019 69.6982C283.336 69.7061 283.58 69.5049 283.752 69.0947C283.927 68.6807 284.015 68.0693 284.015 67.2607C284.015 66.4639 283.927 65.8564 283.752 65.4385C283.576 65.0205 283.332 64.8115 283.019 64.8115ZM285.304 66.2061C285.351 66.5342 285.375 66.8857 285.375 67.2607C285.375 67.6318 285.351 67.9795 285.304 68.3037H286.265V66.2061H285.304ZM300.165 68.9717H298.676V66.4521H297.012V65.2451H298.676V62.6436H300.165V68.9717ZM296.52 69.2061C297.278 69.21 297.93 69.2939 298.477 69.458C299.028 69.6182 299.452 69.8525 299.749 70.1611C300.045 70.4697 300.196 70.8389 300.2 71.2686C300.196 71.6943 300.045 72.0615 299.749 72.3701C299.452 72.6787 299.028 72.9131 298.477 73.0732C297.926 73.2373 297.274 73.3193 296.52 73.3193C295.766 73.3193 295.114 73.2373 294.563 73.0732C294.012 72.9131 293.588 72.6787 293.292 72.3701C292.999 72.0615 292.852 71.6943 292.852 71.2686C292.852 70.8389 292.999 70.4697 293.292 70.1611C293.588 69.8525 294.01 69.6182 294.557 69.458C295.108 69.2939 295.762 69.21 296.52 69.2061ZM296.52 70.3545C295.067 70.3545 294.34 70.6592 294.34 71.2686C294.34 71.5732 294.524 71.8018 294.891 71.9541C295.262 72.1064 295.805 72.1826 296.52 72.1826C297.235 72.1826 297.778 72.1064 298.149 71.9541C298.524 71.7979 298.711 71.5693 298.711 71.2686C298.711 70.6592 297.981 70.3545 296.52 70.3545ZM297.329 64.4834H295.208C295.219 64.9131 295.315 65.3271 295.495 65.7256C295.678 66.1201 295.95 66.4756 296.309 66.792C296.672 67.1084 297.122 67.3545 297.657 67.5303L296.919 68.7021C296.348 68.5186 295.856 68.2451 295.442 67.8818C295.032 67.5146 294.708 67.083 294.469 66.5869C294.223 67.1494 293.883 67.6377 293.45 68.0518C293.016 68.4619 292.493 68.7725 291.879 68.9834L291.106 67.7998C291.669 67.6123 292.139 67.3467 292.518 67.0029C292.901 66.6553 293.186 66.2646 293.374 65.8311C293.565 65.3975 293.669 64.9482 293.684 64.4834H291.54V63.2881H297.329V64.4834Z" fill="#B08A42"/>
</g>
<g filter="url(#filter1_d_48_340)">
<path d="M4 148.451C4 139.615 11.1634 132.451 20 132.451H315.526C324.363 132.451 331.526 139.615 331.526 148.451V197.918C331.526 206.754 324.363 213.918 315.526 213.918H20C11.1634 213.918 4 206.754 4 197.918V148.451Z" fill="#262B28"/>
<path d="M20 132.951H315.526C324.087 132.951 331.026 139.891 331.026 148.451V197.918C331.026 206.478 324.087 213.418 315.526 213.418H20C11.4396 213.418 4.50008 206.478 4.5 197.918V148.451C4.50001 140.025 11.2242 133.168 19.5996 132.956L20 132.951Z" stroke="#373F3B"/>
<path d="M33.175 167.95H32.0032V154.06H33.175V167.95ZM30.3625 167.231H29.2063V160.075H26.8625V159.075H29.2063V154.403H30.3625V167.231ZM25.3782 158.028C25.3782 158.836 25.4954 159.625 25.7297 160.396C25.9641 161.161 26.3079 161.854 26.761 162.474C27.2141 163.088 27.7532 163.575 28.3782 163.935L27.6282 164.841C26.9563 164.44 26.3808 163.885 25.9016 163.177C25.4224 162.463 25.0579 161.656 24.8079 160.755C24.5527 161.729 24.175 162.601 23.675 163.372C23.1803 164.143 22.5917 164.742 21.9094 165.169L21.1282 164.247C21.7584 163.872 22.3053 163.359 22.7688 162.708C23.2323 162.057 23.5839 161.328 23.8235 160.521C24.0683 159.708 24.1907 158.877 24.1907 158.028V156.716H21.5188V155.7H27.925V156.716H25.3782V158.028ZM42.1438 156.028C42.1386 156.622 42.3704 157.19 42.8391 157.731C43.3079 158.268 43.9198 158.721 44.675 159.091C45.4303 159.461 46.2167 159.705 47.0344 159.825L46.5813 160.794C45.8469 160.669 45.1386 160.461 44.4563 160.169C43.7792 159.877 43.1777 159.513 42.6516 159.075C42.1256 158.632 41.7271 158.14 41.4563 157.599C41.1855 158.14 40.787 158.63 40.261 159.067C39.7349 159.505 39.1334 159.872 38.4563 160.169C37.7844 160.461 37.0865 160.669 36.3625 160.794L35.8782 159.825C36.6907 159.705 37.4745 159.461 38.2297 159.091C38.9849 158.721 39.5969 158.268 40.0657 157.731C40.5344 157.19 40.7688 156.622 40.7688 156.028V155.935H36.3157V154.935H46.5813V155.935H42.1438V156.028ZM47.7844 162.997H42.0344V167.95H40.8313V162.997H35.1282V161.981H47.7844V162.997ZM60.175 161.575H55.8782V165.169H61.675V166.2H48.9563V165.169H54.675V161.575H50.5813V155.2H60.0344V156.2H51.8157V160.575H60.175V161.575ZM71.2063 166.841C70.4615 166.841 69.7948 166.716 69.2063 166.466C68.623 166.216 68.1594 165.864 67.8157 165.411C67.4771 164.958 67.2948 164.435 67.2688 163.841H68.6907C68.7167 164.19 68.8417 164.497 69.0657 164.763C69.2948 165.028 69.5943 165.234 69.9641 165.38C70.3339 165.521 70.7428 165.591 71.1907 165.591C71.6803 165.591 72.1204 165.507 72.511 165.341C72.9068 165.169 73.2141 164.935 73.4329 164.638C73.6568 164.336 73.7688 163.992 73.7688 163.606C73.7688 163.19 73.6594 162.823 73.4407 162.505C73.2271 162.187 72.9146 161.94 72.5032 161.763C72.0917 161.586 71.5969 161.497 71.0188 161.497H70.0969V160.263H71.0188C71.4719 160.263 71.8756 160.182 72.2297 160.021C72.5839 159.859 72.8573 159.632 73.05 159.341C73.248 159.049 73.3469 158.711 73.3469 158.325C73.3469 157.955 73.2584 157.627 73.0813 157.341C72.9094 157.054 72.6646 156.833 72.3469 156.677C72.0292 156.515 71.6594 156.435 71.2375 156.435C70.8313 156.435 70.4511 156.507 70.0969 156.653C69.7428 156.799 69.4537 157.007 69.2297 157.278C69.0058 157.544 68.8834 157.856 68.8625 158.216H67.5032C67.5292 157.632 67.7115 157.114 68.05 156.661C68.3886 156.203 68.8391 155.849 69.4016 155.599C69.9641 155.343 70.5813 155.216 71.2532 155.216C71.9511 155.216 72.5605 155.354 73.0813 155.63C73.6073 155.901 74.011 156.268 74.2922 156.731C74.5735 157.195 74.7115 157.7 74.7063 158.247C74.7115 158.882 74.5422 159.427 74.1985 159.88C73.8547 160.333 73.3834 160.643 72.7844 160.81V160.888C73.2688 160.966 73.6881 161.13 74.0422 161.38C74.4016 161.625 74.675 161.94 74.8625 162.325C75.0553 162.705 75.149 163.132 75.1438 163.606C75.149 164.216 74.9797 164.768 74.636 165.263C74.2922 165.752 73.8183 166.138 73.2141 166.419C72.6152 166.7 71.9459 166.841 71.2063 166.841ZM80.6125 154.575C81.3 154.58 81.9146 154.713 82.4563 154.974C83.0032 155.234 83.4303 155.599 83.7375 156.067C84.05 156.531 84.2063 157.06 84.2063 157.653C84.2063 158.247 84.05 158.778 83.7375 159.247C83.4303 159.711 83.0032 160.073 82.4563 160.333C81.9146 160.588 81.3 160.716 80.6125 160.716C79.9146 160.716 79.2922 160.588 78.7454 160.333C78.1985 160.073 77.7714 159.711 77.4641 159.247C77.1568 158.778 77.0032 158.247 77.0032 157.653C77.0032 157.06 77.1568 156.531 77.4641 156.067C77.7714 155.599 78.1985 155.234 78.7454 154.974C79.2922 154.713 79.9146 154.58 80.6125 154.575ZM80.6125 155.606C80.1542 155.606 79.7402 155.695 79.3704 155.872C79.0058 156.044 78.7193 156.286 78.511 156.599C78.3027 156.906 78.2011 157.257 78.2063 157.653C78.2011 158.054 78.3027 158.411 78.511 158.724C78.7193 159.036 79.0058 159.281 79.3704 159.458C79.7402 159.63 80.1542 159.716 80.6125 159.716C81.0657 159.716 81.4745 159.63 81.8391 159.458C82.2089 159.281 82.498 159.036 82.7063 158.724C82.9146 158.411 83.0188 158.054 83.0188 157.653C83.0188 157.257 82.9146 156.906 82.7063 156.599C82.498 156.286 82.2089 156.044 81.8391 155.872C81.4745 155.695 81.0657 155.606 80.6125 155.606ZM88.1438 161.2H86.925V154.06H88.1438V161.2ZM88.1438 165.216H80.3469V166.778H88.6438V167.763H79.1438V164.294H86.925V162.856H79.1125V161.872H88.1438V165.216ZM98.2532 155.138C98.8886 155.143 99.4563 155.323 99.9563 155.677C100.456 156.026 100.857 156.523 101.159 157.169H104.816V154.06H106.034V167.981H104.816V162.591H101.245C100.954 163.299 100.547 163.846 100.027 164.231C99.511 164.617 98.9198 164.81 98.2532 164.81C97.5761 164.81 96.9719 164.612 96.4407 164.216C95.9146 163.82 95.5032 163.257 95.2063 162.528C94.9146 161.799 94.7688 160.95 94.7688 159.981C94.7688 159.013 94.9146 158.164 95.2063 157.435C95.5032 156.705 95.9146 156.143 96.4407 155.747C96.9667 155.346 97.5709 155.143 98.2532 155.138ZM98.2532 156.231C97.8 156.237 97.3964 156.396 97.0422 156.708C96.6933 157.015 96.4224 157.453 96.2297 158.021C96.037 158.583 95.9407 159.237 95.9407 159.981C95.9407 160.726 96.037 161.382 96.2297 161.95C96.4224 162.513 96.6933 162.948 97.0422 163.255C97.3964 163.562 97.8 163.716 98.2532 163.716C98.7011 163.716 99.0995 163.562 99.4485 163.255C99.8027 162.948 100.076 162.513 100.269 161.95C100.467 161.382 100.566 160.726 100.566 159.981C100.566 159.237 100.467 158.583 100.269 158.021C100.076 157.453 99.8053 157.015 99.4563 156.708C99.1073 156.396 98.7063 156.237 98.2532 156.231ZM101.519 158.2C101.654 158.784 101.722 159.377 101.722 159.981C101.722 160.523 101.667 161.054 101.558 161.575H104.816V158.2H101.519ZM120.144 162.856H118.972V158.872H117.113V162.356H115.956V154.341H117.113V157.856H118.972V154.06H120.144V162.856ZM115.394 156.716H108.269V155.731H111.238V154.169H112.456V155.731H115.394V156.716ZM111.847 157.466C112.43 157.466 112.946 157.565 113.394 157.763C113.847 157.955 114.198 158.231 114.448 158.591C114.698 158.945 114.826 159.362 114.831 159.841C114.826 160.31 114.698 160.724 114.448 161.083C114.198 161.437 113.847 161.713 113.394 161.911C112.946 162.104 112.43 162.2 111.847 162.2C111.269 162.2 110.753 162.104 110.3 161.911C109.847 161.713 109.495 161.437 109.245 161.083C108.995 160.724 108.873 160.31 108.878 159.841C108.873 159.367 108.995 158.95 109.245 158.591C109.495 158.231 109.844 157.955 110.292 157.763C110.745 157.565 111.264 157.466 111.847 157.466ZM111.847 158.372C111.482 158.372 111.157 158.435 110.87 158.56C110.589 158.679 110.368 158.851 110.206 159.075C110.05 159.299 109.972 159.554 109.972 159.841C109.972 160.122 110.05 160.372 110.206 160.591C110.368 160.81 110.589 160.979 110.87 161.099C111.157 161.218 111.482 161.278 111.847 161.278C112.212 161.278 112.534 161.218 112.816 161.099C113.102 160.979 113.323 160.81 113.48 160.591C113.641 160.372 113.722 160.122 113.722 159.841C113.722 159.554 113.641 159.299 113.48 159.075C113.323 158.851 113.102 158.679 112.816 158.56C112.534 158.435 112.212 158.372 111.847 158.372ZM115.55 163.091C116.524 163.091 117.36 163.187 118.058 163.38C118.756 163.567 119.29 163.843 119.659 164.208C120.034 164.573 120.222 165.013 120.222 165.528C120.222 166.028 120.034 166.458 119.659 166.817C119.29 167.177 118.753 167.45 118.05 167.638C117.352 167.825 116.519 167.919 115.55 167.919C114.581 167.919 113.745 167.825 113.042 167.638C112.344 167.45 111.81 167.177 111.441 166.817C111.071 166.458 110.889 166.028 110.894 165.528C110.889 165.013 111.071 164.573 111.441 164.208C111.81 163.843 112.344 163.567 113.042 163.38C113.74 163.187 114.576 163.091 115.55 163.091ZM115.55 164.06C114.831 164.054 114.214 164.109 113.698 164.224C113.183 164.333 112.787 164.5 112.511 164.724C112.24 164.948 112.107 165.216 112.113 165.528C112.107 165.83 112.24 166.088 112.511 166.302C112.787 166.515 113.183 166.679 113.698 166.794C114.219 166.909 114.837 166.966 115.55 166.966C116.264 166.966 116.878 166.909 117.394 166.794C117.909 166.679 118.305 166.515 118.581 166.302C118.857 166.088 118.998 165.83 119.003 165.528C118.998 165.054 118.691 164.69 118.081 164.435C117.477 164.174 116.633 164.049 115.55 164.06Z" fill="#E8E4DC"/>
<path d="M21.6536 192.279L25.0305 188.725C25.4771 188.255 25.8167 187.877 26.0491 187.59C26.2861 187.298 26.4638 187.018 26.5823 186.749C26.7053 186.476 26.7668 186.191 26.7668 185.895C26.7668 185.566 26.6803 185.275 26.5071 185.02C26.3339 184.764 26.0969 184.566 25.7961 184.425C25.4999 184.284 25.1672 184.213 24.7981 184.213C24.4107 184.213 24.0712 184.29 23.7795 184.445C23.4879 184.6 23.2623 184.819 23.1028 185.102C22.9478 185.384 22.8704 185.708 22.8704 186.072H21.7083C21.7037 185.498 21.8359 184.99 22.1047 184.548C22.3782 184.106 22.7542 183.762 23.2327 183.516C23.7112 183.27 24.2467 183.146 24.8391 183.146C25.427 183.146 25.9534 183.267 26.4182 183.509C26.8876 183.75 27.2545 184.081 27.5188 184.5C27.7831 184.919 27.9153 185.384 27.9153 185.895C27.9153 186.273 27.8469 186.635 27.7102 186.981C27.5735 187.323 27.3433 187.704 27.0198 188.123C26.7008 188.538 26.2428 189.053 25.6458 189.668L23.3762 192.006V192.088H28.093V193.182H21.6672L21.6536 192.279ZM33.1243 193.318C32.3951 193.318 31.7708 193.12 31.2512 192.724C30.7362 192.327 30.342 191.748 30.0686 190.987C29.7997 190.226 29.6653 189.308 29.6653 188.232C29.6653 187.171 29.802 186.259 30.0754 185.498C30.3489 184.732 30.7454 184.149 31.2649 183.748C31.7844 183.347 32.4042 183.146 33.1243 183.146C33.8443 183.146 34.4641 183.347 34.9836 183.748C35.5032 184.149 35.8997 184.732 36.1731 185.498C36.4465 186.259 36.5833 187.171 36.5833 188.232C36.5833 189.308 36.4465 190.226 36.1731 190.987C35.9042 191.748 35.51 192.327 34.9905 192.724C34.4709 193.12 33.8489 193.318 33.1243 193.318ZM33.1243 192.225C33.5982 192.225 34.0038 192.07 34.3411 191.76C34.6783 191.45 34.9358 190.996 35.1135 190.399C35.2913 189.802 35.3801 189.08 35.3801 188.232C35.3801 187.385 35.2913 186.66 35.1135 186.059C34.9358 185.457 34.6783 184.999 34.3411 184.685C34.0038 184.37 33.5982 184.213 33.1243 184.213C32.6503 184.213 32.2424 184.37 31.9006 184.685C31.5634 184.999 31.3036 185.457 31.1213 186.059C30.9436 186.66 30.8547 187.385 30.8547 188.232C30.8547 189.08 30.9436 189.802 31.1213 190.399C31.2991 190.996 31.5566 191.45 31.8938 191.76C32.2356 192.07 32.6458 192.225 33.1243 192.225ZM38.2102 192.279L41.5872 188.725C42.0338 188.255 42.3733 187.877 42.6057 187.59C42.8427 187.298 43.0204 187.018 43.1389 186.749C43.262 186.476 43.3235 186.191 43.3235 185.895C43.3235 185.566 43.2369 185.275 43.0637 185.02C42.8905 184.764 42.6536 184.566 42.3528 184.425C42.0566 184.284 41.7239 184.213 41.3547 184.213C40.9674 184.213 40.6278 184.29 40.3362 184.445C40.0445 184.6 39.8189 184.819 39.6594 185.102C39.5045 185.384 39.427 185.708 39.427 186.072H38.2649C38.2603 185.498 38.3925 184.99 38.6614 184.548C38.9348 184.106 39.3108 183.762 39.7893 183.516C40.2678 183.27 40.8033 183.146 41.3958 183.146C41.9836 183.146 42.51 183.267 42.9749 183.509C43.4443 183.75 43.8111 184.081 44.0754 184.5C44.3398 184.919 44.4719 185.384 44.4719 185.895C44.4719 186.273 44.4036 186.635 44.2668 186.981C44.1301 187.323 43.9 187.704 43.5764 188.123C43.2574 188.538 42.7994 189.053 42.2024 189.668L39.9329 192.006V192.088H44.6497V193.182H38.2239L38.2102 192.279ZM49.9133 193.318C49.2753 193.318 48.6829 193.175 48.136 192.888C47.5937 192.596 47.1471 192.102 46.7961 191.404C46.4498 190.702 46.2766 189.773 46.2766 188.615C46.2766 187.462 46.427 186.476 46.7278 185.655C47.0331 184.835 47.4661 184.213 48.0266 183.789C48.5917 183.361 49.2616 183.146 50.0364 183.146C50.606 183.146 51.1165 183.256 51.5676 183.475C52.0234 183.693 52.3948 184.001 52.6819 184.397C52.9736 184.794 53.1627 185.252 53.2493 185.771H52.0325C51.9094 185.311 51.677 184.942 51.3352 184.664C50.998 184.382 50.565 184.24 50.0364 184.24C49.4986 184.24 49.0338 184.391 48.6418 184.691C48.2545 184.988 47.956 185.418 47.7463 185.983C47.5413 186.549 47.4387 187.225 47.4387 188.014H47.5618C47.8534 187.599 48.218 187.278 48.6555 187.05C49.093 186.817 49.5761 186.701 50.1047 186.701C50.6881 186.701 51.2258 186.842 51.718 187.125C52.2148 187.408 52.6067 187.799 52.8938 188.301C53.1855 188.798 53.3313 189.358 53.3313 189.982C53.3313 190.598 53.1877 191.16 52.9006 191.671C52.6181 192.177 52.217 192.578 51.6975 192.874C51.178 193.17 50.5833 193.318 49.9133 193.318ZM49.886 192.238C50.3053 192.238 50.6858 192.138 51.0276 191.938C51.3694 191.737 51.6383 191.466 51.8342 191.124C52.0347 190.778 52.1373 190.402 52.1418 189.996C52.1373 189.59 52.0393 189.219 51.8479 188.882C51.6565 188.545 51.3922 188.278 51.0549 188.082C50.7177 187.882 50.3372 187.781 49.9133 187.781C49.4895 187.781 49.1021 187.884 48.7512 188.089C48.4003 188.294 48.1223 188.57 47.9172 188.916C47.7122 189.258 47.6073 189.622 47.6028 190.01C47.6028 190.397 47.7008 190.762 47.8967 191.104C48.0972 191.445 48.3707 191.721 48.717 191.931C49.068 192.136 49.4576 192.238 49.886 192.238ZM55.4094 193.264C55.2499 193.264 55.1018 193.225 54.9651 193.147C54.8329 193.065 54.7258 192.956 54.6438 192.819C54.5663 192.683 54.5299 192.535 54.5344 192.375C54.5299 192.22 54.5663 192.076 54.6438 191.944C54.7258 191.808 54.8329 191.701 54.9651 191.623C55.1018 191.541 55.2499 191.5 55.4094 191.5C55.5644 191.5 55.7079 191.541 55.8401 191.623C55.9768 191.701 56.0839 191.808 56.1614 191.944C56.2434 192.076 56.2844 192.22 56.2844 192.375C56.2844 192.535 56.2434 192.683 56.1614 192.819C56.0839 192.956 55.9768 193.065 55.8401 193.147C55.7079 193.225 55.5644 193.264 55.4094 193.264ZM61.0012 193.318C60.2721 193.318 59.6477 193.12 59.1282 192.724C58.6132 192.327 58.219 191.748 57.9456 190.987C57.6767 190.226 57.5422 189.308 57.5422 188.232C57.5422 187.171 57.679 186.259 57.9524 185.498C58.2258 184.732 58.6223 184.149 59.1418 183.748C59.6614 183.347 60.2812 183.146 61.0012 183.146C61.7213 183.146 62.3411 183.347 62.8606 183.748C63.3801 184.149 63.7766 184.732 64.05 185.498C64.3235 186.259 64.4602 187.171 64.4602 188.232C64.4602 189.308 64.3235 190.226 64.05 190.987C63.7812 191.748 63.387 192.327 62.8674 192.724C62.3479 193.12 61.7258 193.318 61.0012 193.318ZM61.0012 192.225C61.4752 192.225 61.8808 192.07 62.218 191.76C62.5553 191.45 62.8127 190.996 62.9905 190.399C63.1682 189.802 63.2571 189.08 63.2571 188.232C63.2571 187.385 63.1682 186.66 62.9905 186.059C62.8127 185.457 62.5553 184.999 62.218 184.685C61.8808 184.37 61.4752 184.213 61.0012 184.213C60.5273 184.213 60.1194 184.37 59.7776 184.685C59.4403 184.999 59.1806 185.457 58.9983 186.059C58.8206 186.66 58.7317 187.385 58.7317 188.232C58.7317 189.08 58.8206 189.802 58.9983 190.399C59.176 190.996 59.4335 191.45 59.7708 191.76C60.1125 192.07 60.5227 192.225 61.0012 192.225ZM69.5188 193.318C68.8671 193.318 68.2838 193.209 67.7688 192.99C67.2584 192.771 66.8528 192.464 66.552 192.067C66.2558 191.671 66.0963 191.213 66.0735 190.693H67.3176C67.3404 190.999 67.4498 191.268 67.6458 191.5C67.8463 191.732 68.1083 191.912 68.4319 192.04C68.7555 192.163 69.1132 192.225 69.5051 192.225C69.9335 192.225 70.3186 192.152 70.6604 192.006C71.0068 191.855 71.2756 191.65 71.467 191.391C71.663 191.126 71.761 190.826 71.761 190.488C71.761 190.124 71.6653 189.802 71.4739 189.524C71.287 189.246 71.0136 189.03 70.6536 188.875C70.2935 188.72 69.8606 188.643 69.3547 188.643H68.5481V187.562H69.3547C69.7512 187.562 70.1044 187.492 70.4143 187.351C70.7242 187.209 70.9635 187.011 71.1321 186.756C71.3053 186.501 71.3918 186.204 71.3918 185.867C71.3918 185.544 71.3144 185.257 71.1594 185.006C71.009 184.755 70.7948 184.562 70.5168 184.425C70.2389 184.284 69.9153 184.213 69.5461 184.213C69.1907 184.213 68.858 184.277 68.5481 184.404C68.2382 184.532 67.9853 184.714 67.7893 184.951C67.5933 185.184 67.4862 185.457 67.468 185.771H66.2786C66.3014 185.261 66.4609 184.808 66.7571 184.411C67.0533 184.01 67.4475 183.7 67.9397 183.481C68.4319 183.258 68.9719 183.146 69.5598 183.146C70.1705 183.146 70.7037 183.267 71.1594 183.509C71.6197 183.746 71.9729 184.067 72.219 184.473C72.4651 184.878 72.5859 185.32 72.5813 185.799C72.5859 186.355 72.4377 186.831 72.137 187.228C71.8362 187.624 71.4237 187.895 70.8997 188.041V188.109C71.3235 188.178 71.6903 188.321 72.0002 188.54C72.3147 188.754 72.554 189.03 72.718 189.367C72.8866 189.7 72.9687 190.074 72.9641 190.488C72.9687 191.021 72.8206 191.505 72.5198 191.938C72.219 192.366 71.8043 192.703 71.2756 192.949C70.7515 193.195 70.1659 193.318 69.5188 193.318ZM75.2747 193.264C75.1152 193.264 74.967 193.225 74.8303 193.147C74.6982 193.065 74.5911 192.956 74.509 192.819C74.4316 192.683 74.3951 192.535 74.3997 192.375C74.3951 192.22 74.4316 192.076 74.509 191.944C74.5911 191.808 74.6982 191.701 74.8303 191.623C74.967 191.541 75.1152 191.5 75.2747 191.5C75.4296 191.5 75.5732 191.541 75.7053 191.623C75.842 191.701 75.9491 191.808 76.0266 191.944C76.1086 192.076 76.1497 192.22 76.1497 192.375C76.1497 192.535 76.1086 192.683 76.0266 192.819C75.9491 192.956 75.842 193.065 75.7053 193.147C75.5732 193.225 75.4296 193.264 75.2747 193.264ZM77.968 192.279L81.345 188.725C81.7916 188.255 82.1311 187.877 82.3635 187.59C82.6005 187.298 82.7782 187.018 82.8967 186.749C83.0198 186.476 83.0813 186.191 83.0813 185.895C83.0813 185.566 82.9947 185.275 82.8215 185.02C82.6484 184.764 82.4114 184.566 82.1106 184.425C81.8144 184.284 81.4817 184.213 81.1125 184.213C80.7252 184.213 80.3857 184.29 80.094 184.445C79.8023 184.6 79.5767 184.819 79.4172 185.102C79.2623 185.384 79.1848 185.708 79.1848 186.072H78.0227C78.0181 185.498 78.1503 184.99 78.4192 184.548C78.6926 184.106 79.0686 183.762 79.5471 183.516C80.0256 183.27 80.5611 183.146 81.1536 183.146C81.7415 183.146 82.2678 183.267 82.7327 183.509C83.2021 183.75 83.5689 184.081 83.8333 184.5C84.0976 184.919 84.2297 185.384 84.2297 185.895C84.2297 186.273 84.1614 186.635 84.0247 186.981C83.8879 187.323 83.6578 187.704 83.3342 188.123C83.0152 188.538 82.5572 189.053 81.9602 189.668L79.6907 192.006V192.088H84.4075V193.182H77.9817L77.968 192.279ZM89.4387 193.318C88.7096 193.318 88.0852 193.12 87.5657 192.724C87.0507 192.327 86.6565 191.748 86.3831 190.987C86.1142 190.226 85.9797 189.308 85.9797 188.232C85.9797 187.171 86.1165 186.259 86.3899 185.498C86.6633 184.732 87.0598 184.149 87.5793 183.748C88.0989 183.347 88.7187 183.146 89.4387 183.146C90.1588 183.146 90.7786 183.347 91.2981 183.748C91.8176 184.149 92.2141 184.732 92.4875 185.498C92.761 186.259 92.8977 187.171 92.8977 188.232C92.8977 189.308 92.761 190.226 92.4875 190.987C92.2187 191.748 91.8245 192.327 91.3049 192.724C90.7854 193.12 90.1633 193.318 89.4387 193.318ZM89.4387 192.225C89.9127 192.225 90.3183 192.07 90.6555 191.76C90.9928 191.45 91.2502 190.996 91.428 190.399C91.6057 189.802 91.6946 189.08 91.6946 188.232C91.6946 187.385 91.6057 186.66 91.428 186.059C91.2502 185.457 90.9928 184.999 90.6555 184.685C90.3183 184.37 89.9127 184.213 89.4387 184.213C88.9648 184.213 88.5569 184.37 88.2151 184.685C87.8778 184.999 87.6181 185.457 87.4358 186.059C87.2581 186.66 87.1692 187.385 87.1692 188.232C87.1692 189.08 87.2581 189.802 87.4358 190.399C87.6135 190.996 87.871 191.45 88.2083 191.76C88.55 192.07 88.9602 192.225 89.4387 192.225Z" fill="#B8B5AE"/>
<path d="M278.789 149.688H302.789C309.14 149.688 314.289 154.837 314.289 161.188C314.289 167.54 309.14 172.688 302.789 172.688H278.789C272.438 172.688 267.289 167.54 267.289 161.188C267.289 154.837 272.438 149.688 278.789 149.688Z" fill="#1A3326"/>
<path d="M278.789 149.688H302.789C309.14 149.688 314.289 154.837 314.289 161.188C314.289 167.54 309.14 172.688 302.789 172.688H278.789C272.438 172.688 267.289 167.54 267.289 161.188C267.289 154.837 272.438 149.688 278.789 149.688Z" stroke="#373F3B"/>
<path d="M283.816 156.536C284.332 156.536 284.793 156.628 285.199 156.812C285.605 156.991 285.924 157.247 286.154 157.579C286.385 157.907 286.5 158.282 286.5 158.704C286.5 159.048 286.42 159.362 286.26 159.647C286.103 159.933 285.881 160.175 285.592 160.374C285.302 160.569 284.969 160.708 284.59 160.79V161.569C285.508 161.511 286.324 161.431 287.039 161.329L287.156 162.419C286.176 162.591 285.148 162.706 284.074 162.765C283.004 162.823 281.89 162.853 280.734 162.853L280.582 161.669C281.527 161.669 282.363 161.657 283.09 161.634V160.802C282.699 160.724 282.355 160.587 282.058 160.392C281.761 160.192 281.531 159.948 281.367 159.659C281.207 159.37 281.129 159.052 281.133 158.704C281.129 158.282 281.24 157.907 281.467 157.579C281.697 157.247 282.015 156.991 282.422 156.812C282.832 156.628 283.297 156.536 283.816 156.536ZM283.816 157.661C283.426 157.669 283.111 157.765 282.873 157.948C282.638 158.128 282.523 158.38 282.527 158.704C282.523 159.021 282.64 159.272 282.879 159.46C283.117 159.644 283.429 159.735 283.816 159.735C284.203 159.735 284.511 159.644 284.742 159.46C284.976 159.276 285.094 159.024 285.094 158.704C285.094 158.376 284.978 158.122 284.748 157.942C284.517 157.763 284.207 157.669 283.816 157.661ZM289.136 159.466H290.496V160.708H289.136V164.247H287.636V156.114H289.136V159.466ZM289.5 166.567H281.988V163.532H283.488V165.372H289.5V166.567ZM300.938 165.583H291.176V164.353H293.672V162.724H292.301V159.138H298.336V157.989H292.29V156.794H299.813V160.333H293.801V161.517H300.059V162.724H298.547V164.353H300.938V165.583ZM297.083 164.353V162.724H295.126V164.353H297.083Z" fill="#56B979"/>
</g>
<defs>
<filter id="filter0_d_48_340" x="0" y="35.9922" width="335.526" height="89.4668" filterUnits="userSpaceOnUse" color-interpolation-filters="sRGB">
<feFlood flood-opacity="0" result="BackgroundImageFix"/>
<feColorMatrix in="SourceAlpha" type="matrix" values="0 0 0 0 0 0 0 0 0 0 0 0 0 0 0 0 0 0 127 0" result="hardAlpha"/>
<feOffset dy="1"/>
<feGaussianBlur stdDeviation="2"/>
<feColorMatrix type="matrix" values="0 0 0 0 0 0 0 0 0 0 0 0 0 0 0 0 0 0 0.2 0"/>
<feBlend mode="normal" in2="BackgroundImageFix" result="effect1_dropShadow_48_340"/>
<feBlend mode="normal" in="SourceGraphic" in2="effect1_dropShadow_48_340" result="shape"/>
</filter>
<filter id="filter1_d_48_340" x="0" y="129.451" width="335.526" height="89.4668" filterUnits="userSpaceOnUse" color-interpolation-filters="sRGB">
<feFlood flood-opacity="0" result="BackgroundImageFix"/>
<feColorMatrix in="SourceAlpha" type="matrix" values="0 0 0 0 0 0 0 0 0 0 0 0 0 0 0 0 0 0 127 0" result="hardAlpha"/>
<feOffset dy="1"/>
<feGaussianBlur stdDeviation="2"/>
<feColorMatrix type="matrix" values="0 0 0 0 0 0 0 0 0 0 0 0 0 0 0 0 0 0 0.2 0"/>
<feBlend mode="normal" in2="BackgroundImageFix" result="effect1_dropShadow_48_340"/>
<feBlend mode="normal" in="SourceGraphic" in2="effect1_dropShadow_48_340" result="shape"/>
</filter>
</defs>
</svg>
