<svg width="346" height="204" viewBox="0 0 346 204" fill="none" xmlns="http://www.w3.org/2000/svg">
<g id="CarReservationCard" filter="url(#filter0_d_199_7323)">
<g clip-path="url(#clip0_199_7323)">
<path d="M0 19C0 10.1634 7.16344 3 16 3H329.34C338.177 3 345.34 10.1634 345.34 19V188C345.34 196.837 338.177 204 329.34 204H16C7.16345 204 0 196.837 0 188V19Z" fill="#262B28"/>
<g id="Header">
<path d="M0 19C0 10.1634 7.16344 3 16 3H329.34C338.177 3 345.34 10.1634 345.34 19V47H0V19Z" fill="#5A3A1F"/>
<g id="Frame 101">
<g id="Rental cars">
<path id="Vector" d="M20.5 30H18V22L21.125 18H34.875L38 22V30H35.5" stroke="#E8E4DC" stroke-width="1.8" stroke-linecap="round" stroke-linejoin="round"/>
<path id="Vector_2" d="M23 32C24.1046 32 25 31.1046 25 30C25 28.8954 24.1046 28 23 28C21.8954 28 21 28.8954 21 30C21 31.1046 21.8954 32 23 32Z" stroke="#E8E4DC" stroke-width="1.8" stroke-linecap="round" stroke-linejoin="round"/>
<path id="Vector_3" d="M33 32C34.1046 32 35 31.1046 35 30C35 28.8954 34.1046 28 33 28C31.8954 28 31 28.8954 31 30C31 31.1046 31.8954 32 33 32Z" stroke="#E8E4DC" stroke-width="1.8" stroke-linecap="round" stroke-linejoin="round"/>
<path id="Vector_4" d="M18 26H37" stroke="#E8E4DC" stroke-width="1.8" stroke-linecap="round" stroke-linejoin="round"/>
<path id="Vector_5" d="M25 30H31" stroke="#E8E4DC" stroke-width="1.8" stroke-linecap="round" stroke-linejoin="round"/>
<path id="Vector_6" d="M19 22L37 22" stroke="#E8E4DC" stroke-width="1.8" stroke-linecap="round" stroke-linejoin="round"/>
</g>
<path id="&#235;&#160;&#140;&#237;&#138;&#184;&#236;&#185;&#180;" d="M54.5938 23.8633H51.8047V25.5039C52.543 25.5 53.1836 25.4785 53.7266 25.4395C54.2734 25.3965 54.8359 25.3164 55.4141 25.1992L55.5195 25.9492C54.8906 26.0703 54.2812 26.1523 53.6914 26.1953C53.1055 26.2344 52.3984 26.2539 51.5703 26.2539H50.9023V23.1602H53.7031V21.625H50.8789V20.8867H54.5938V23.8633ZM59.2695 27.8711H58.3906V20.043H59.2695V27.8711ZM57.207 27.5898H56.3281V23.7109H55.0273V22.9375H56.3281V20.2305H57.207V27.5898ZM59.5859 30.2266H52.4375V27.0859H53.3516V29.4531H59.5859V30.2266ZM69.4305 26.418H62.2234V20.9336H69.3133V21.707H63.1609V23.2539H69.0906V23.9922H63.1609V25.668H69.4305V26.418ZM70.532 29.0898H60.993V28.3281H70.532V29.0898ZM76.9664 21.1211C76.9625 22.2031 76.816 23.2012 76.527 24.1152C76.2379 25.0254 75.7418 25.875 75.0387 26.6641C74.3355 27.4492 73.3844 28.1367 72.1852 28.7266L71.6695 28.0234C72.6266 27.5625 73.4137 27.0352 74.0309 26.4414C74.648 25.8438 75.1187 25.1836 75.443 24.4609L71.8687 24.8008L71.7164 23.9922L75.7242 23.7227C75.9 23.1523 76.0094 22.5391 76.0523 21.8828H72.2437V21.1211H76.9664ZM79.6266 24.2734H81.3141V25.0469H79.6266V30.4492H78.7125V20.0312H79.6266V24.2734Z" fill="#E8E4DC"/>
</g>
<g id="ReservationStatusBadgeCancelled">
<path id="Rectangle 17" d="M298.34 25C298.34 23.6193 299.459 22.5 300.84 22.5V22.5C302.221 22.5 303.34 23.6193 303.34 25V25C303.34 26.3807 302.221 27.5 300.84 27.5V27.5C299.459 27.5 298.34 26.3807 298.34 25V25Z" fill="#C45650"/>
<path id="&#236;&#183;&#168;&#236;&#134;&#140;" d="M312.688 22C312.688 22.3438 312.793 22.6699 313.004 22.9785C313.219 23.2832 313.516 23.5488 313.895 23.7754C314.277 23.998 314.715 24.1641 315.207 24.2734L314.832 25.0117C314.23 24.8672 313.707 24.6406 313.262 24.332C312.816 24.0234 312.479 23.6582 312.248 23.2363C312.025 23.6973 311.688 24.0938 311.234 24.4258C310.781 24.7578 310.246 25 309.629 25.1523L309.23 24.4141C309.727 24.3047 310.166 24.1309 310.549 23.8926C310.936 23.6543 311.236 23.3711 311.451 23.043C311.666 22.7148 311.773 22.3672 311.773 22V21.9531H309.453V21.2266H311.773V20.0664H312.688V21.2266H315.008V21.9531H312.688V22ZM317.352 30.4609H316.449V20.043H317.352V30.4609ZM308.738 25.8906C310.066 25.8906 311.299 25.8711 312.436 25.832C313.576 25.7891 314.66 25.7031 315.688 25.5742L315.746 26.2422C314.832 26.3906 313.82 26.498 312.711 26.5645V30.1445H311.797V26.6113C311.008 26.6465 310.031 26.6641 308.867 26.6641L308.738 25.8906ZM328.872 29.0898H319.333V28.3281H323.598V25.7734H324.501V28.3281H328.872V29.0898ZM324.524 21.543C324.524 22.0977 324.716 22.6309 325.098 23.1426C325.485 23.6543 325.977 24.0879 326.575 24.4434C327.177 24.7949 327.786 25.0234 328.403 25.1289L327.993 25.8906C327.454 25.7812 326.925 25.5918 326.405 25.3223C325.886 25.0527 325.417 24.7168 324.999 24.3145C324.585 23.9121 324.268 23.4688 324.05 22.9844C323.831 23.4688 323.514 23.9121 323.1 24.3145C322.686 24.7168 322.22 25.0527 321.7 25.3223C321.184 25.5918 320.657 25.7812 320.118 25.8906L319.708 25.1289C320.325 25.0234 320.93 24.7949 321.524 24.4434C322.122 24.0879 322.61 23.6562 322.989 23.1484C323.372 22.6367 323.563 22.1016 323.563 21.543V20.7461H324.524V21.543Z" fill="#E8E4DC"/>
</g>
</g>
<g id="Content">
<g id="Frame 112">
<path id="Hertz &#194;&#183; Toyota Camry" d="M21.25 64.6875H22.6562V69.7188H28.6406V64.6875H30.0625V76H28.6406V70.9531H22.6562V76H21.25V64.6875ZM35.9375 76.1719C35.1302 76.1719 34.4271 75.9922 33.8281 75.6328C33.2292 75.2734 32.7682 74.7656 32.4453 74.1094C32.1276 73.4531 31.9688 72.6927 31.9688 71.8281C31.9688 70.9635 32.1276 70.1979 32.4453 69.5312C32.7682 68.8594 33.2188 68.3385 33.7969 67.9688C34.3802 67.5938 35.0521 67.4062 35.8125 67.4062C36.4531 67.4062 37.0495 67.5495 37.6016 67.8359C38.1536 68.1172 38.6016 68.5755 38.9453 69.2109C39.2943 69.8411 39.4688 70.651 39.4688 71.6406V72.2031H33.3125C33.3333 72.7917 33.4557 73.2943 33.6797 73.7109C33.9036 74.1276 34.2083 74.4453 34.5938 74.6641C34.9844 74.8776 35.4323 74.9844 35.9375 74.9844C36.4167 74.9844 36.8203 74.8958 37.1484 74.7188C37.4818 74.5365 37.7344 74.3021 37.9062 74.0156H39.3438C39.2083 74.4427 38.9818 74.8203 38.6641 75.1484C38.3516 75.4714 37.9609 75.724 37.4922 75.9062C37.0286 76.0833 36.5104 76.1719 35.9375 76.1719ZM38.1094 71.0625C38.1094 70.5885 38.013 70.1667 37.8203 69.7969C37.6328 69.4219 37.3646 69.1276 37.0156 68.9141C36.6667 68.7005 36.2656 68.5938 35.8125 68.5938C35.3385 68.5938 34.9167 68.7057 34.5469 68.9297C34.1823 69.1536 33.8932 69.4557 33.6797 69.8359C33.4714 70.2109 33.3516 70.6198 33.3203 71.0625H38.1094ZM41.2188 67.5156H42.5156V68.8125H42.6094C42.7656 68.3802 43.0443 68.0339 43.4453 67.7734C43.8464 67.5078 44.2969 67.375 44.7969 67.375C45.0573 67.375 45.2917 67.3854 45.5 67.4062V68.7656C45.4427 68.7448 45.3307 68.724 45.1641 68.7031C45.0026 68.6823 44.8438 68.6719 44.6875 68.6719C44.2865 68.6719 43.9245 68.7578 43.6016 68.9297C43.2786 69.1016 43.0234 69.3385 42.8359 69.6406C42.6536 69.9427 42.5625 70.2812 42.5625 70.6562V76H41.2188V67.5156ZM51.0469 68.6406H49.2656V73.5625C49.2656 74.0625 49.3646 74.3984 49.5625 74.5703C49.7604 74.7422 50.0312 74.8281 50.375 74.8281C50.6354 74.8281 50.901 74.8177 51.1719 74.7969V76.0469C50.901 76.0885 50.5885 76.1094 50.2344 76.1094C49.8385 76.1094 49.4635 76.0286 49.1094 75.8672C48.7552 75.7005 48.4661 75.4505 48.2422 75.1172C48.0182 74.7839 47.9062 74.3802 47.9062 73.9062V68.6406H46.625V67.5156H47.9062V65.4844H49.2656V67.5156H51.0469V68.6406ZM52.5312 74.9844L57.3125 68.8438V68.75H52.6875V67.5156H59.0469V68.5781L54.4062 74.6719V74.7656H59.2031V76H52.5312V74.9844ZM65.9531 72.0625C65.7708 72.0625 65.6016 72.0182 65.4453 71.9297C65.2943 71.8359 65.1719 71.7109 65.0781 71.5547C64.9896 71.3984 64.9479 71.2292 64.9531 71.0469C64.9479 70.8698 64.9896 70.7057 65.0781 70.5547C65.1719 70.3984 65.2943 70.276 65.4453 70.1875C65.6016 70.0938 65.7708 70.0469 65.9531 70.0469C66.1302 70.0469 66.2943 70.0938 66.4453 70.1875C66.6016 70.276 66.724 70.3984 66.8125 70.5547C66.9062 70.7057 66.9531 70.8698 66.9531 71.0469C66.9531 71.2292 66.9062 71.3984 66.8125 71.5547C66.724 71.7109 66.6016 71.8359 66.4453 71.9297C66.2943 72.0182 66.1302 72.0625 65.9531 72.0625ZM72.625 64.6875H81.1562V65.9375H77.6094V76H76.1875V65.9375H72.625V64.6875ZM85.0938 76.1719C84.3281 76.1719 83.651 75.9922 83.0625 75.6328C82.4792 75.2682 82.026 74.7552 81.7031 74.0938C81.3802 73.4323 81.2188 72.6667 81.2188 71.7969C81.2188 70.9271 81.3802 70.1615 81.7031 69.5C82.026 68.8333 82.4792 68.3177 83.0625 67.9531C83.651 67.5885 84.3281 67.4062 85.0938 67.4062C85.8542 67.4062 86.5234 67.5885 87.1016 67.9531C87.6849 68.3177 88.1354 68.8333 88.4531 69.5C88.776 70.1615 88.9375 70.9271 88.9375 71.7969C88.9375 72.6667 88.776 73.4323 88.4531 74.0938C88.1354 74.7552 87.6849 75.2682 87.1016 75.6328C86.5234 75.9922 85.8542 76.1719 85.0938 76.1719ZM85.0938 74.9844C85.6406 74.9844 86.1016 74.8411 86.4766 74.5547C86.8516 74.263 87.1302 73.8776 87.3125 73.3984C87.5 72.9141 87.5938 72.3802 87.5938 71.7969C87.5938 71.2135 87.5 70.6797 87.3125 70.1953C87.1302 69.7109 86.8516 69.3229 86.4766 69.0312C86.1016 68.7396 85.6406 68.5938 85.0938 68.5938C84.5365 68.5938 84.0677 68.7396 83.6875 69.0312C83.3125 69.3229 83.0312 69.7109 82.8438 70.1953C82.6562 70.6797 82.5625 71.2135 82.5625 71.7969C82.5625 72.3802 82.6562 72.9141 82.8438 73.3984C83.0312 73.8776 83.3125 74.263 83.6875 74.5547C84.0677 74.8411 84.5365 74.9844 85.0938 74.9844ZM91.25 79.1875C90.9792 79.1875 90.7292 79.1771 90.5 79.1562V77.9531C90.6875 77.974 90.9062 77.9844 91.1562 77.9844C91.3802 77.9844 91.5677 77.9609 91.7188 77.9141C91.8698 77.8672 92.0208 77.75 92.1719 77.5625C92.3229 77.3802 92.4688 77.0938 92.6094 76.7031L92.8594 76.0625L89.7188 67.5156H91.1875L93.5 74.25H93.5938L95.9062 67.5156H97.375L93.7812 77.2188C93.5312 77.8802 93.1979 78.3724 92.7812 78.6953C92.3646 79.0234 91.8542 79.1875 91.25 79.1875ZM102.016 76.1719C101.25 76.1719 100.573 75.9922 99.9844 75.6328C99.401 75.2682 98.9479 74.7552 98.625 74.0938C98.3021 73.4323 98.1406 72.6667 98.1406 71.7969C98.1406 70.9271 98.3021 70.1615 98.625 69.5C98.9479 68.8333 99.401 68.3177 99.9844 67.9531C100.573 67.5885 101.25 67.4062 102.016 67.4062C102.776 67.4062 103.445 67.5885 104.023 67.9531C104.607 68.3177 105.057 68.8333 105.375 69.5C105.698 70.1615 105.859 70.9271 105.859 71.7969C105.859 72.6667 105.698 73.4323 105.375 74.0938C105.057 74.7552 104.607 75.2682 104.023 75.6328C103.445 75.9922 102.776 76.1719 102.016 76.1719ZM102.016 74.9844C102.562 74.9844 103.023 74.8411 103.398 74.5547C103.773 74.263 104.052 73.8776 104.234 73.3984C104.422 72.9141 104.516 72.3802 104.516 71.7969C104.516 71.2135 104.422 70.6797 104.234 70.1953C104.052 69.7109 103.773 69.3229 103.398 69.0312C103.023 68.7396 102.562 68.5938 102.016 68.5938C101.458 68.5938 100.99 68.7396 100.609 69.0312C100.234 69.3229 99.9531 69.7109 99.7656 70.1953C99.5781 70.6797 99.4844 71.2135 99.4844 71.7969C99.4844 72.3802 99.5781 72.9141 99.7656 73.3984C99.9531 73.8776 100.234 74.263 100.609 74.5547C100.99 74.8411 101.458 74.9844 102.016 74.9844ZM111.328 68.6406H109.547V73.5625C109.547 74.0625 109.646 74.3984 109.844 74.5703C110.042 74.7422 110.312 74.8281 110.656 74.8281C110.917 74.8281 111.182 74.8177 111.453 74.7969V76.0469C111.182 76.0885 110.87 76.1094 110.516 76.1094C110.12 76.1094 109.745 76.0286 109.391 75.8672C109.036 75.7005 108.747 75.4505 108.523 75.1172C108.299 74.7839 108.188 74.3802 108.188 73.9062V68.6406H106.906V67.5156H108.188V65.4844H109.547V67.5156H111.328V68.6406ZM112.656 73.5938C112.656 72.7135 112.956 72.0938 113.555 71.7344C114.159 71.375 114.922 71.1615 115.844 71.0938C116.198 71.0677 116.594 71.0443 117.031 71.0234C117.474 70.9974 117.844 70.9792 118.141 70.9688V70.2812C118.141 69.7344 117.977 69.3151 117.648 69.0234C117.326 68.7266 116.849 68.5781 116.219 68.5781C115.703 68.5781 115.281 68.6849 114.953 68.8984C114.625 69.1068 114.411 69.3802 114.312 69.7188H112.906C112.964 69.2656 113.141 68.8646 113.438 68.5156C113.734 68.1667 114.128 67.8958 114.617 67.7031C115.112 67.5052 115.667 67.4062 116.281 67.4062C117.094 67.4062 117.828 67.6146 118.484 68.0312C119.141 68.4427 119.469 69.2344 119.469 70.4062V76H118.141V74.8438H118.078C117.974 75.0625 117.812 75.276 117.594 75.4844C117.38 75.6875 117.099 75.8594 116.75 76C116.406 76.1354 116.005 76.2031 115.547 76.2031C115.005 76.2031 114.516 76.099 114.078 75.8906C113.641 75.6823 113.294 75.3828 113.039 74.9922C112.784 74.5964 112.656 74.1302 112.656 73.5938ZM114 73.6562C114 74.0885 114.161 74.4219 114.484 74.6562C114.812 74.8854 115.245 75 115.781 75C116.266 75 116.685 74.9036 117.039 74.7109C117.398 74.5182 117.672 74.263 117.859 73.9453C118.047 73.6276 118.141 73.2865 118.141 72.9219V72.0703L116 72.2188C115.365 72.2604 114.872 72.3984 114.523 72.6328C114.174 72.8672 114 73.2083 114 73.6562ZM133.531 68.25C133.427 67.7448 133.219 67.3125 132.906 66.9531C132.599 66.5885 132.224 66.3125 131.781 66.125C131.344 65.9375 130.875 65.8438 130.375 65.8438C129.682 65.8438 129.06 66.0182 128.508 66.3672C127.961 66.7161 127.529 67.2292 127.211 67.9062C126.893 68.5833 126.734 69.3958 126.734 70.3438C126.734 71.2917 126.893 72.1042 127.211 72.7812C127.529 73.4583 127.961 73.9714 128.508 74.3203C129.06 74.6693 129.682 74.8438 130.375 74.8438C130.875 74.8438 131.344 74.7526 131.781 74.5703C132.219 74.3828 132.591 74.1094 132.898 73.75C133.211 73.3854 133.422 72.9531 133.531 72.4531H134.938C134.802 73.2083 134.521 73.8672 134.094 74.4297C133.667 74.987 133.13 75.4141 132.484 75.7109C131.844 76.0078 131.141 76.1562 130.375 76.1562C129.406 76.1562 128.544 75.9193 127.789 75.4453C127.034 74.9714 126.443 74.2969 126.016 73.4219C125.589 72.5417 125.375 71.5156 125.375 70.3438C125.375 69.1719 125.589 68.1484 126.016 67.2734C126.443 66.3932 127.034 65.7161 127.789 65.2422C128.544 64.7682 129.406 64.5312 130.375 64.5312C131.135 64.5312 131.836 64.6797 132.477 64.9766C133.122 65.2734 133.659 65.7031 134.086 66.2656C134.518 66.8229 134.802 67.4844 134.938 68.25H133.531ZM136.328 73.5938C136.328 72.7135 136.628 72.0938 137.227 71.7344C137.831 71.375 138.594 71.1615 139.516 71.0938C139.87 71.0677 140.266 71.0443 140.703 71.0234C141.146 70.9974 141.516 70.9792 141.812 70.9688V70.2812C141.812 69.7344 141.648 69.3151 141.32 69.0234C140.997 68.7266 140.521 68.5781 139.891 68.5781C139.375 68.5781 138.953 68.6849 138.625 68.8984C138.297 69.1068 138.083 69.3802 137.984 69.7188H136.578C136.635 69.2656 136.812 68.8646 137.109 68.5156C137.406 68.1667 137.799 67.8958 138.289 67.7031C138.784 67.5052 139.339 67.4062 139.953 67.4062C140.766 67.4062 141.5 67.6146 142.156 68.0312C142.812 68.4427 143.141 69.2344 143.141 70.4062V76H141.812V74.8438H141.75C141.646 75.0625 141.484 75.276 141.266 75.4844C141.052 75.6875 140.771 75.8594 140.422 76C140.078 76.1354 139.677 76.2031 139.219 76.2031C138.677 76.2031 138.188 76.099 137.75 75.8906C137.312 75.6823 136.966 75.3828 136.711 74.9922C136.456 74.5964 136.328 74.1302 136.328 73.5938ZM137.672 73.6562C137.672 74.0885 137.833 74.4219 138.156 74.6562C138.484 74.8854 138.917 75 139.453 75C139.938 75 140.357 74.9036 140.711 74.7109C141.07 74.5182 141.344 74.263 141.531 73.9453C141.719 73.6276 141.812 73.2865 141.812 72.9219V72.0703L139.672 72.2188C139.036 72.2604 138.544 72.3984 138.195 72.6328C137.846 72.8672 137.672 73.2083 137.672 73.6562ZM145.297 67.5156H146.594V68.8438H146.703C146.885 68.3854 147.172 68.0312 147.562 67.7812C147.958 67.5312 148.432 67.4062 148.984 67.4062C149.526 67.4062 149.987 67.5312 150.367 67.7812C150.747 68.026 151.042 68.3802 151.25 68.8438H151.344C151.568 68.3958 151.898 68.0443 152.336 67.7891C152.773 67.5339 153.292 67.4062 153.891 67.4062C154.406 67.4062 154.857 67.513 155.242 67.7266C155.633 67.9401 155.938 68.2656 156.156 68.7031C156.375 69.1354 156.484 69.6771 156.484 70.3281V76H155.141V70.3438C155.141 69.7552 154.979 69.3203 154.656 69.0391C154.333 68.7526 153.922 68.6094 153.422 68.6094C153.036 68.6094 152.703 68.6901 152.422 68.8516C152.141 69.013 151.927 69.2344 151.781 69.5156C151.635 69.7969 151.562 70.1198 151.562 70.4844V76H150.203V70.2031C150.203 69.8906 150.133 69.6146 149.992 69.375C149.852 69.1302 149.654 68.9427 149.398 68.8125C149.148 68.6771 148.865 68.6094 148.547 68.6094C148.208 68.6094 147.893 68.7005 147.602 68.8828C147.31 69.0599 147.076 69.3073 146.898 69.625C146.727 69.9427 146.641 70.3021 146.641 70.7031V76H145.297V67.5156ZM158.641 67.5156H159.938V68.8125H160.031C160.188 68.3802 160.466 68.0339 160.867 67.7734C161.268 67.5078 161.719 67.375 162.219 67.375C162.479 67.375 162.714 67.3854 162.922 67.4062V68.7656C162.865 68.7448 162.753 68.724 162.586 68.7031C162.424 68.6823 162.266 68.6719 162.109 68.6719C161.708 68.6719 161.346 68.7578 161.023 68.9297C160.701 69.1016 160.445 69.3385 160.258 69.6406C160.076 69.9427 159.984 70.2812 159.984 70.6562V76H158.641V67.5156ZM165.359 79.1875C165.089 79.1875 164.839 79.1771 164.609 79.1562V77.9531C164.797 77.974 165.016 77.9844 165.266 77.9844C165.49 77.9844 165.677 77.9609 165.828 77.9141C165.979 77.8672 166.13 77.75 166.281 77.5625C166.432 77.3802 166.578 77.0938 166.719 76.7031L166.969 76.0625L163.828 67.5156H165.297L167.609 74.25H167.703L170.016 67.5156H171.484L167.891 77.2188C167.641 77.8802 167.307 78.3724 166.891 78.6953C166.474 79.0234 165.964 79.1875 165.359 79.1875Z" fill="#E8E4DC"/>
<g id="Frame 113">
<path id="2026.05.01 13:00 [NRT T1]" d="M20.7852 98.2266L23.6797 95.1797C24.0625 94.7773 24.3535 94.4531 24.5527 94.207C24.7559 93.957 24.9082 93.7168 25.0098 93.4863C25.1152 93.252 25.168 93.0078 25.168 92.7539C25.168 92.4727 25.0938 92.2227 24.9453 92.0039C24.7969 91.7852 24.5938 91.6152 24.3359 91.4941C24.082 91.373 23.7969 91.3125 23.4805 91.3125C23.1484 91.3125 22.8574 91.3789 22.6074 91.5117C22.3574 91.6445 22.1641 91.832 22.0273 92.0742C21.8945 92.3164 21.8281 92.5938 21.8281 92.9062H20.832C20.8281 92.4141 20.9414 91.9785 21.1719 91.5996C21.4062 91.2207 21.7285 90.9258 22.1387 90.7148C22.5488 90.5039 23.0078 90.3984 23.5156 90.3984C24.0195 90.3984 24.4707 90.502 24.8691 90.709C25.2715 90.916 25.5859 91.1992 25.8125 91.5586C26.0391 91.918 26.1523 92.3164 26.1523 92.7539C26.1523 93.0781 26.0938 93.3887 25.9766 93.6855C25.8594 93.9785 25.6621 94.3047 25.3848 94.6641C25.1113 95.0195 24.7188 95.4609 24.207 95.9883L22.2617 97.9922V98.0625H26.3047V99H20.7969L20.7852 98.2266ZM30.8172 99.1172C30.1922 99.1172 29.657 98.9473 29.2117 98.6074C28.7703 98.2676 28.4324 97.7715 28.198 97.1191C27.9676 96.4668 27.8523 95.6797 27.8523 94.7578C27.8523 93.8477 27.9695 93.0664 28.2039 92.4141C28.4383 91.7578 28.7781 91.2578 29.2234 90.9141C29.6687 90.5703 30.2 90.3984 30.8172 90.3984C31.4344 90.3984 31.9656 90.5703 32.4109 90.9141C32.8562 91.2578 33.1961 91.7578 33.4305 92.4141C33.6648 93.0664 33.782 93.8477 33.782 94.7578C33.782 95.6797 33.6648 96.4668 33.4305 97.1191C33.2 97.7715 32.8621 98.2676 32.4168 98.6074C31.9715 98.9473 31.4383 99.1172 30.8172 99.1172ZM30.8172 98.1797C31.2234 98.1797 31.5711 98.0469 31.8602 97.7812C32.1492 97.5156 32.3699 97.127 32.5223 96.6152C32.6746 96.1035 32.7508 95.4844 32.7508 94.7578C32.7508 94.0312 32.6746 93.4102 32.5223 92.8945C32.3699 92.3789 32.1492 91.9863 31.8602 91.7168C31.5711 91.4473 31.2234 91.3125 30.8172 91.3125C30.4109 91.3125 30.0613 91.4473 29.7684 91.7168C29.4793 91.9863 29.2566 92.3789 29.1004 92.8945C28.948 93.4102 28.8719 94.0312 28.8719 94.7578C28.8719 95.4844 28.948 96.1035 29.1004 96.6152C29.2527 97.127 29.4734 97.5156 29.7625 97.7812C30.0555 98.0469 30.407 98.1797 30.8172 98.1797ZM35.3766 98.2266L38.2711 95.1797C38.6539 94.7773 38.9449 94.4531 39.1441 94.207C39.3473 93.957 39.4996 93.7168 39.6012 93.4863C39.7066 93.252 39.7594 93.0078 39.7594 92.7539C39.7594 92.4727 39.6852 92.2227 39.5367 92.0039C39.3883 91.7852 39.1852 91.6152 38.9273 91.4941C38.6734 91.373 38.3883 91.3125 38.0719 91.3125C37.7398 91.3125 37.4488 91.3789 37.1988 91.5117C36.9488 91.6445 36.7555 91.832 36.6187 92.0742C36.4859 92.3164 36.4195 92.5938 36.4195 92.9062H35.4234C35.4195 92.4141 35.5328 91.9785 35.7633 91.5996C35.9977 91.2207 36.3199 90.9258 36.7301 90.7148C37.1402 90.5039 37.5992 90.3984 38.107 90.3984C38.6109 90.3984 39.0621 90.502 39.4605 90.709C39.8629 90.916 40.1773 91.1992 40.4039 91.5586C40.6305 91.918 40.7437 92.3164 40.7437 92.7539C40.7437 93.0781 40.6852 93.3887 40.568 93.6855C40.4508 93.9785 40.2535 94.3047 39.9762 94.6641C39.7027 95.0195 39.3102 95.4609 38.7984 95.9883L36.8531 97.9922V98.0625H40.8961V99H35.3883L35.3766 98.2266ZM45.6078 99.1172C45.0609 99.1172 44.5531 98.9941 44.0844 98.748C43.6195 98.498 43.2367 98.0742 42.9359 97.4766C42.6391 96.875 42.4906 96.0781 42.4906 95.0859C42.4906 94.0977 42.6195 93.252 42.8773 92.5488C43.1391 91.8457 43.5102 91.3125 43.9906 90.9492C44.475 90.582 45.0492 90.3984 45.7133 90.3984C46.2016 90.3984 46.6391 90.4922 47.0258 90.6797C47.4164 90.8672 47.7348 91.1309 47.9809 91.4707C48.2309 91.8105 48.393 92.2031 48.4672 92.6484H47.4242C47.3188 92.2539 47.1195 91.9375 46.8266 91.6992C46.5375 91.457 46.1664 91.3359 45.7133 91.3359C45.2523 91.3359 44.8539 91.4648 44.518 91.7227C44.1859 91.9766 43.9301 92.3457 43.7504 92.8301C43.5746 93.3145 43.4867 93.8945 43.4867 94.5703H43.5922C43.8422 94.2148 44.1547 93.9395 44.5297 93.7441C44.9047 93.5449 45.3188 93.4453 45.7719 93.4453C46.2719 93.4453 46.7328 93.5664 47.1547 93.8086C47.5805 94.0508 47.9164 94.3867 48.1625 94.8164C48.4125 95.2422 48.5375 95.7227 48.5375 96.2578C48.5375 96.7852 48.4145 97.2676 48.1684 97.7051C47.9262 98.1387 47.5824 98.4824 47.1371 98.7363C46.6918 98.9902 46.182 99.1172 45.6078 99.1172ZM45.5844 98.1914C45.9438 98.1914 46.2699 98.1055 46.5629 97.9336C46.8559 97.7617 47.0863 97.5293 47.2543 97.2363C47.4262 96.9395 47.5141 96.6172 47.518 96.2695C47.5141 95.9219 47.4301 95.6035 47.266 95.3145C47.102 95.0254 46.8754 94.7969 46.5863 94.6289C46.2973 94.457 45.9711 94.3711 45.6078 94.3711C45.2445 94.3711 44.9125 94.459 44.6117 94.6348C44.3109 94.8105 44.0727 95.0469 43.8969 95.3438C43.7211 95.6367 43.6313 95.9492 43.6273 96.2812C43.6273 96.6133 43.7113 96.9258 43.8793 97.2188C44.0512 97.5117 44.2855 97.748 44.5824 97.9277C44.8832 98.1035 45.2172 98.1914 45.5844 98.1914ZM50.5187 99.0703C50.382 99.0703 50.2551 99.0371 50.1379 98.9707C50.0246 98.9004 49.9328 98.8066 49.8625 98.6895C49.7961 98.5723 49.7648 98.4453 49.7687 98.3086C49.7648 98.1758 49.7961 98.0527 49.8625 97.9395C49.9328 97.8223 50.0246 97.7305 50.1379 97.6641C50.2551 97.5938 50.382 97.5586 50.5187 97.5586C50.6516 97.5586 50.7746 97.5938 50.8879 97.6641C51.0051 97.7305 51.0969 97.8223 51.1633 97.9395C51.2336 98.0527 51.2687 98.1758 51.2687 98.3086C51.2687 98.4453 51.2336 98.5723 51.1633 98.6895C51.0969 98.8066 51.0051 98.9004 50.8879 98.9707C50.7746 99.0371 50.6516 99.0703 50.5187 99.0703ZM55.5117 99.1172C54.8867 99.1172 54.3516 98.9473 53.9062 98.6074C53.4648 98.2676 53.127 97.7715 52.8926 97.1191C52.6621 96.4668 52.5469 95.6797 52.5469 94.7578C52.5469 93.8477 52.6641 93.0664 52.8984 92.4141C53.1328 91.7578 53.4727 91.2578 53.918 90.9141C54.3633 90.5703 54.8945 90.3984 55.5117 90.3984C56.1289 90.3984 56.6602 90.5703 57.1055 90.9141C57.5508 91.2578 57.8906 91.7578 58.125 92.4141C58.3594 93.0664 58.4766 93.8477 58.4766 94.7578C58.4766 95.6797 58.3594 96.4668 58.125 97.1191C57.8945 97.7715 57.5566 98.2676 57.1113 98.6074C56.666 98.9473 56.1328 99.1172 55.5117 99.1172ZM55.5117 98.1797C55.918 98.1797 56.2656 98.0469 56.5547 97.7812C56.8438 97.5156 57.0645 97.127 57.2168 96.6152C57.3691 96.1035 57.4453 95.4844 57.4453 94.7578C57.4453 94.0312 57.3691 93.4102 57.2168 92.8945C57.0645 92.3789 56.8438 91.9863 56.5547 91.7168C56.2656 91.4473 55.918 91.3125 55.5117 91.3125C55.1055 91.3125 54.7559 91.4473 54.4629 91.7168C54.1738 91.9863 53.9512 92.3789 53.7949 92.8945C53.6426 93.4102 53.5664 94.0312 53.5664 94.7578C53.5664 95.4844 53.6426 96.1035 53.7949 96.6152C53.9473 97.127 54.168 97.5156 54.457 97.7812C54.75 98.0469 55.1016 98.1797 55.5117 98.1797ZM62.8484 99.1172C62.3445 99.1172 61.8855 99.0215 61.4715 98.8301C61.0613 98.6348 60.7332 98.3672 60.4871 98.0273C60.2449 97.6836 60.1141 97.2969 60.0945 96.8672H61.1141C61.1414 97.1172 61.2352 97.3438 61.3953 97.5469C61.5555 97.7461 61.7625 97.9043 62.0164 98.0215C62.2703 98.1348 62.5477 98.1914 62.8484 98.1914C63.2078 98.1914 63.532 98.1094 63.8211 97.9453C64.1102 97.7812 64.3367 97.5566 64.5008 97.2715C64.6648 96.9863 64.7469 96.668 64.7469 96.3164C64.7469 95.9531 64.6609 95.627 64.4891 95.3379C64.3211 95.0449 64.0867 94.8164 63.7859 94.6523C63.4891 94.4844 63.1531 94.3984 62.7781 94.3945C62.0242 94.3828 61.4969 94.6367 61.1961 95.1562H60.1766L60.7742 90.5156H65.368V91.4531H61.6531L61.3367 93.9375H61.4188C61.6102 93.7891 61.8426 93.6699 62.116 93.5801C62.3895 93.4902 62.6727 93.4453 62.9656 93.4453C63.4969 93.4453 63.9754 93.5684 64.4012 93.8145C64.8309 94.0566 65.1668 94.3945 65.409 94.8281C65.6551 95.2617 65.7781 95.75 65.7781 96.293C65.7781 96.832 65.6512 97.3164 65.3973 97.7461C65.1434 98.1758 64.7938 98.5117 64.3484 98.7539C63.9031 98.9961 63.4031 99.1172 62.8484 99.1172ZM67.8531 99.0703C67.7164 99.0703 67.5895 99.0371 67.4723 98.9707C67.359 98.9004 67.2672 98.8066 67.1969 98.6895C67.1305 98.5723 67.0992 98.4453 67.1031 98.3086C67.0992 98.1758 67.1305 98.0527 67.1969 97.9395C67.2672 97.8223 67.359 97.7305 67.4723 97.6641C67.5895 97.5938 67.7164 97.5586 67.8531 97.5586C67.9859 97.5586 68.109 97.5938 68.2223 97.6641C68.3395 97.7305 68.4313 97.8223 68.4977 97.9395C68.568 98.0527 68.6031 98.1758 68.6031 98.3086C68.6031 98.4453 68.568 98.5723 68.4977 98.6895C68.4313 98.8066 68.3395 98.9004 68.2223 98.9707C68.109 99.0371 67.9859 99.0703 67.8531 99.0703ZM72.8461 99.1172C72.2211 99.1172 71.6859 98.9473 71.2406 98.6074C70.7992 98.2676 70.4613 97.7715 70.227 97.1191C69.9965 96.4668 69.8812 95.6797 69.8812 94.7578C69.8812 93.8477 69.9984 93.0664 70.2328 92.4141C70.4672 91.7578 70.807 91.2578 71.2523 90.9141C71.6977 90.5703 72.2289 90.3984 72.8461 90.3984C73.4633 90.3984 73.9945 90.5703 74.4398 90.9141C74.8852 91.2578 75.225 91.7578 75.4594 92.4141C75.6937 93.0664 75.8109 93.8477 75.8109 94.7578C75.8109 95.6797 75.6937 96.4668 75.4594 97.1191C75.2289 97.7715 74.891 98.2676 74.4457 98.6074C74.0004 98.9473 73.4672 99.1172 72.8461 99.1172ZM72.8461 98.1797C73.2523 98.1797 73.6 98.0469 73.8891 97.7812C74.1781 97.5156 74.3988 97.127 74.5512 96.6152C74.7035 96.1035 74.7797 95.4844 74.7797 94.7578C74.7797 94.0312 74.7035 93.4102 74.5512 92.8945C74.3988 92.3789 74.1781 91.9863 73.8891 91.7168C73.6 91.4473 73.2523 91.3125 72.8461 91.3125C72.4398 91.3125 72.0902 91.4473 71.7973 91.7168C71.5082 91.9863 71.2855 92.3789 71.1293 92.8945C70.977 93.4102 70.9008 94.0312 70.9008 94.7578C70.9008 95.4844 70.977 96.1035 71.1293 96.6152C71.2816 97.127 71.5023 97.5156 71.7914 97.7812C72.0844 98.0469 72.4359 98.1797 72.8461 98.1797ZM80.4172 99H79.3508V91.6172H79.3039L77.2414 92.9883V91.9219L79.3508 90.5156H80.4172V99ZM89.0906 99H88.0242V91.6172H87.9773L85.9148 92.9883V91.9219L88.0242 90.5156H89.0906V99ZM94.482 99.1172C93.9234 99.1172 93.4234 99.0234 92.982 98.8359C92.5445 98.6484 92.1969 98.3848 91.9391 98.0449C91.6852 97.7051 91.5484 97.3125 91.5289 96.8672H92.5953C92.6148 97.1289 92.7086 97.3594 92.8766 97.5586C93.0484 97.7578 93.273 97.9121 93.5504 98.0215C93.8277 98.127 94.1344 98.1797 94.4703 98.1797C94.8375 98.1797 95.1676 98.1172 95.4605 97.9922C95.7574 97.8633 95.9879 97.6875 96.152 97.4648C96.3199 97.2383 96.4039 96.9805 96.4039 96.6914C96.4039 96.3789 96.3219 96.1035 96.1578 95.8652C95.9977 95.627 95.7633 95.4414 95.4547 95.3086C95.1461 95.1758 94.775 95.1094 94.3414 95.1094H93.65V94.1836H94.3414C94.6813 94.1836 94.984 94.123 95.2496 94.002C95.5152 93.8809 95.7203 93.7109 95.8648 93.4922C96.0133 93.2734 96.0875 93.0195 96.0875 92.7305C96.0875 92.4531 96.0211 92.207 95.8883 91.9922C95.7594 91.7773 95.5758 91.6113 95.3375 91.4941C95.0992 91.373 94.8219 91.3125 94.5055 91.3125C94.2008 91.3125 93.9156 91.3672 93.65 91.4766C93.3844 91.5859 93.1676 91.7422 92.9996 91.9453C92.8316 92.1445 92.7398 92.3789 92.7242 92.6484H91.7047C91.7242 92.2109 91.8609 91.8223 92.1148 91.4824C92.3688 91.1387 92.7066 90.873 93.1285 90.6855C93.5504 90.4941 94.0133 90.3984 94.5172 90.3984C95.0406 90.3984 95.4977 90.502 95.8883 90.709C96.2828 90.9121 96.5855 91.1875 96.7965 91.5352C97.0074 91.8828 97.1109 92.2617 97.107 92.6719C97.1109 93.1484 96.984 93.5566 96.7262 93.8965C96.4684 94.2363 96.1148 94.4688 95.6656 94.5938V94.6523C96.0289 94.7109 96.3434 94.834 96.609 95.0215C96.8785 95.2051 97.0836 95.4414 97.2242 95.7305C97.3688 96.0156 97.4391 96.3359 97.4352 96.6914C97.4391 97.1484 97.3121 97.5625 97.0543 97.9336C96.7965 98.3008 96.441 98.5898 95.9879 98.8008C95.5387 99.0117 95.0367 99.1172 94.482 99.1172ZM99.8852 97.875C99.7484 97.875 99.6215 97.8418 99.5043 97.7754C99.391 97.7051 99.2992 97.6113 99.2289 97.4941C99.1625 97.377 99.1312 97.25 99.1352 97.1133C99.1312 96.9805 99.1625 96.8574 99.2289 96.7441C99.2992 96.627 99.391 96.5352 99.5043 96.4688C99.6215 96.3984 99.7484 96.3633 99.8852 96.3633C100.018 96.3633 100.141 96.3984 100.254 96.4688C100.371 96.5352 100.463 96.627 100.53 96.7441C100.6 96.8574 100.635 96.9805 100.635 97.1133C100.635 97.25 100.6 97.377 100.53 97.4941C100.463 97.6113 100.371 97.7051 100.254 97.7754C100.141 97.8418 100.018 97.875 99.8852 97.875ZM99.8852 93.1641C99.7484 93.1641 99.6215 93.1309 99.5043 93.0645C99.391 92.9941 99.2992 92.9004 99.2289 92.7832C99.1625 92.666 99.1312 92.5391 99.1352 92.4023C99.1312 92.2695 99.1625 92.1465 99.2289 92.0332C99.2992 91.916 99.391 91.8242 99.5043 91.7578C99.6215 91.6875 99.7484 91.6523 99.8852 91.6523C100.018 91.6523 100.141 91.6875 100.254 91.7578C100.371 91.8242 100.463 91.916 100.53 92.0332C100.6 92.1465 100.635 92.2695 100.635 92.4023C100.635 92.5391 100.6 92.666 100.53 92.7832C100.463 92.9004 100.371 92.9941 100.254 93.0645C100.141 93.1309 100.018 93.1641 99.8852 93.1641ZM105.183 99.1172C104.558 99.1172 104.023 98.9473 103.577 98.6074C103.136 98.2676 102.798 97.7715 102.564 97.1191C102.333 96.4668 102.218 95.6797 102.218 94.7578C102.218 93.8477 102.335 93.0664 102.57 92.4141C102.804 91.7578 103.144 91.2578 103.589 90.9141C104.034 90.5703 104.566 90.3984 105.183 90.3984C105.8 90.3984 106.331 90.5703 106.777 90.9141C107.222 91.2578 107.562 91.7578 107.796 92.4141C108.03 93.0664 108.148 93.8477 108.148 94.7578C108.148 95.6797 108.03 96.4668 107.796 97.1191C107.566 97.7715 107.228 98.2676 106.782 98.6074C106.337 98.9473 105.804 99.1172 105.183 99.1172ZM105.183 98.1797C105.589 98.1797 105.937 98.0469 106.226 97.7812C106.515 97.5156 106.736 97.127 106.888 96.6152C107.04 96.1035 107.116 95.4844 107.116 94.7578C107.116 94.0312 107.04 93.4102 106.888 92.8945C106.736 92.3789 106.515 91.9863 106.226 91.7168C105.937 91.4473 105.589 91.3125 105.183 91.3125C104.777 91.3125 104.427 91.4473 104.134 91.7168C103.845 91.9863 103.622 92.3789 103.466 92.8945C103.314 93.4102 103.238 94.0312 103.238 94.7578C103.238 95.4844 103.314 96.1035 103.466 96.6152C103.618 97.127 103.839 97.5156 104.128 97.7812C104.421 98.0469 104.773 98.1797 105.183 98.1797ZM112.531 99.1172C111.906 99.1172 111.371 98.9473 110.926 98.6074C110.484 98.2676 110.146 97.7715 109.912 97.1191C109.682 96.4668 109.566 95.6797 109.566 94.7578C109.566 93.8477 109.684 93.0664 109.918 92.4141C110.152 91.7578 110.492 91.2578 110.938 90.9141C111.383 90.5703 111.914 90.3984 112.531 90.3984C113.148 90.3984 113.68 90.5703 114.125 90.9141C114.57 91.2578 114.91 91.7578 115.145 92.4141C115.379 93.0664 115.496 93.8477 115.496 94.7578C115.496 95.6797 115.379 96.4668 115.145 97.1191C114.914 97.7715 114.576 98.2676 114.131 98.6074C113.686 98.9473 113.152 99.1172 112.531 99.1172ZM112.531 98.1797C112.938 98.1797 113.285 98.0469 113.574 97.7812C113.863 97.5156 114.084 97.127 114.236 96.6152C114.389 96.1035 114.465 95.4844 114.465 94.7578C114.465 94.0312 114.389 93.4102 114.236 92.8945C114.084 92.3789 113.863 91.9863 113.574 91.7168C113.285 91.4473 112.938 91.3125 112.531 91.3125C112.125 91.3125 111.775 91.4473 111.482 91.7168C111.193 91.9863 110.971 92.3789 110.814 92.8945C110.662 93.4102 110.586 94.0312 110.586 94.7578C110.586 95.4844 110.662 96.1035 110.814 96.6152C110.967 97.127 111.188 97.5156 111.477 97.7812C111.77 98.0469 112.121 98.1797 112.531 98.1797ZM120.806 90.1523H123.291V90.9844H121.755V100.547H123.291V101.391H120.806V90.1523ZM131.483 99H130.475L125.881 92.3906H125.799V99H124.745V90.5156H125.764L130.358 97.1367H130.44V90.5156H131.483V99ZM133.558 90.5156H136.441C137.085 90.5156 137.624 90.627 138.058 90.8496C138.491 91.0684 138.812 91.375 139.019 91.7695C139.23 92.1602 139.335 92.6133 139.335 93.1289C139.335 93.7031 139.202 94.1973 138.937 94.6113C138.675 95.0254 138.28 95.3242 137.753 95.5078L139.663 99H138.433L136.657 95.7012L136.452 95.707H134.613V99H133.558V90.5156ZM136.405 94.7461C137.058 94.7461 137.534 94.6074 137.835 94.3301C138.14 94.0527 138.292 93.6523 138.292 93.1289C138.292 92.5977 138.14 92.1855 137.835 91.8926C137.53 91.5996 137.05 91.4531 136.394 91.4531H134.613V94.7461H136.405ZM140.59 90.5156H146.988V91.4531H144.328V99H143.262V91.4531H140.59V90.5156ZM151.337 90.5156H157.736V91.4531H155.076V99H154.009V91.4531H151.337V90.5156ZM162.202 99H161.135V91.6172H161.088L159.026 92.9883V91.9219L161.135 90.5156H162.202V99ZM164.183 101.391V100.547H165.718V90.9844H164.183V90.1523H166.667V101.391H164.183Z" fill="#7A7873"/>
<path id="&#226;&#134;&#147;" d="M92.4629 114.289L95.0645 111.688L95.7324 112.332L92.0059 116.047L88.2793 112.332L88.9238 111.688L91.5371 114.289V107.516H92.4629V114.289Z" fill="#7A7873"/>
<path id="2026.05.03 11:00 [NRT T1]" d="M20.7852 132.227L23.6797 129.18C24.0625 128.777 24.3535 128.453 24.5527 128.207C24.7559 127.957 24.9082 127.717 25.0098 127.486C25.1152 127.252 25.168 127.008 25.168 126.754C25.168 126.473 25.0938 126.223 24.9453 126.004C24.7969 125.785 24.5938 125.615 24.3359 125.494C24.082 125.373 23.7969 125.312 23.4805 125.312C23.1484 125.312 22.8574 125.379 22.6074 125.512C22.3574 125.645 22.1641 125.832 22.0273 126.074C21.8945 126.316 21.8281 126.594 21.8281 126.906H20.832C20.8281 126.414 20.9414 125.979 21.1719 125.6C21.4062 125.221 21.7285 124.926 22.1387 124.715C22.5488 124.504 23.0078 124.398 23.5156 124.398C24.0195 124.398 24.4707 124.502 24.8691 124.709C25.2715 124.916 25.5859 125.199 25.8125 125.559C26.0391 125.918 26.1523 126.316 26.1523 126.754C26.1523 127.078 26.0938 127.389 25.9766 127.686C25.8594 127.979 25.6621 128.305 25.3848 128.664C25.1113 129.02 24.7188 129.461 24.207 129.988L22.2617 131.992V132.062H26.3047V133H20.7969L20.7852 132.227ZM30.8172 133.117C30.1922 133.117 29.657 132.947 29.2117 132.607C28.7703 132.268 28.4324 131.771 28.198 131.119C27.9676 130.467 27.8523 129.68 27.8523 128.758C27.8523 127.848 27.9695 127.066 28.2039 126.414C28.4383 125.758 28.7781 125.258 29.2234 124.914C29.6687 124.57 30.2 124.398 30.8172 124.398C31.4344 124.398 31.9656 124.57 32.4109 124.914C32.8562 125.258 33.1961 125.758 33.4305 126.414C33.6648 127.066 33.782 127.848 33.782 128.758C33.782 129.68 33.6648 130.467 33.4305 131.119C33.2 131.771 32.8621 132.268 32.4168 132.607C31.9715 132.947 31.4383 133.117 30.8172 133.117ZM30.8172 132.18C31.2234 132.18 31.5711 132.047 31.8602 131.781C32.1492 131.516 32.3699 131.127 32.5223 130.615C32.6746 130.104 32.7508 129.484 32.7508 128.758C32.7508 128.031 32.6746 127.41 32.5223 126.895C32.3699 126.379 32.1492 125.986 31.8602 125.717C31.5711 125.447 31.2234 125.312 30.8172 125.312C30.4109 125.312 30.0613 125.447 29.7684 125.717C29.4793 125.986 29.2566 126.379 29.1004 126.895C28.948 127.41 28.8719 128.031 28.8719 128.758C28.8719 129.484 28.948 130.104 29.1004 130.615C29.2527 131.127 29.4734 131.516 29.7625 131.781C30.0555 132.047 30.407 132.18 30.8172 132.18ZM35.3766 132.227L38.2711 129.18C38.6539 128.777 38.9449 128.453 39.1441 128.207C39.3473 127.957 39.4996 127.717 39.6012 127.486C39.7066 127.252 39.7594 127.008 39.7594 126.754C39.7594 126.473 39.6852 126.223 39.5367 126.004C39.3883 125.785 39.1852 125.615 38.9273 125.494C38.6734 125.373 38.3883 125.312 38.0719 125.312C37.7398 125.312 37.4488 125.379 37.1988 125.512C36.9488 125.645 36.7555 125.832 36.6187 126.074C36.4859 126.316 36.4195 126.594 36.4195 126.906H35.4234C35.4195 126.414 35.5328 125.979 35.7633 125.6C35.9977 125.221 36.3199 124.926 36.7301 124.715C37.1402 124.504 37.5992 124.398 38.107 124.398C38.6109 124.398 39.0621 124.502 39.4605 124.709C39.8629 124.916 40.1773 125.199 40.4039 125.559C40.6305 125.918 40.7437 126.316 40.7437 126.754C40.7437 127.078 40.6852 127.389 40.568 127.686C40.4508 127.979 40.2535 128.305 39.9762 128.664C39.7027 129.02 39.3102 129.461 38.7984 129.988L36.8531 131.992V132.062H40.8961V133H35.3883L35.3766 132.227ZM45.6078 133.117C45.0609 133.117 44.5531 132.994 44.0844 132.748C43.6195 132.498 43.2367 132.074 42.9359 131.477C42.6391 130.875 42.4906 130.078 42.4906 129.086C42.4906 128.098 42.6195 127.252 42.8773 126.549C43.1391 125.846 43.5102 125.312 43.9906 124.949C44.475 124.582 45.0492 124.398 45.7133 124.398C46.2016 124.398 46.6391 124.492 47.0258 124.68C47.4164 124.867 47.7348 125.131 47.9809 125.471C48.2309 125.811 48.393 126.203 48.4672 126.648H47.4242C47.3188 126.254 47.1195 125.938 46.8266 125.699C46.5375 125.457 46.1664 125.336 45.7133 125.336C45.2523 125.336 44.8539 125.465 44.518 125.723C44.1859 125.977 43.9301 126.346 43.7504 126.83C43.5746 127.314 43.4867 127.895 43.4867 128.57H43.5922C43.8422 128.215 44.1547 127.939 44.5297 127.744C44.9047 127.545 45.3188 127.445 45.7719 127.445C46.2719 127.445 46.7328 127.566 47.1547 127.809C47.5805 128.051 47.9164 128.387 48.1625 128.816C48.4125 129.242 48.5375 129.723 48.5375 130.258C48.5375 130.785 48.4145 131.268 48.1684 131.705C47.9262 132.139 47.5824 132.482 47.1371 132.736C46.6918 132.99 46.182 133.117 45.6078 133.117ZM45.5844 132.191C45.9438 132.191 46.2699 132.105 46.5629 131.934C46.8559 131.762 47.0863 131.529 47.2543 131.236C47.4262 130.939 47.5141 130.617 47.518 130.27C47.5141 129.922 47.4301 129.604 47.266 129.314C47.102 129.025 46.8754 128.797 46.5863 128.629C46.2973 128.457 45.9711 128.371 45.6078 128.371C45.2445 128.371 44.9125 128.459 44.6117 128.635C44.3109 128.811 44.0727 129.047 43.8969 129.344C43.7211 129.637 43.6313 129.949 43.6273 130.281C43.6273 130.613 43.7113 130.926 43.8793 131.219C44.0512 131.512 44.2855 131.748 44.5824 131.928C44.8832 132.104 45.2172 132.191 45.5844 132.191ZM50.5187 133.07C50.382 133.07 50.2551 133.037 50.1379 132.971C50.0246 132.9 49.9328 132.807 49.8625 132.689C49.7961 132.572 49.7648 132.445 49.7687 132.309C49.7648 132.176 49.7961 132.053 49.8625 131.939C49.9328 131.822 50.0246 131.73 50.1379 131.664C50.2551 131.594 50.382 131.559 50.5187 131.559C50.6516 131.559 50.7746 131.594 50.8879 131.664C51.0051 131.73 51.0969 131.822 51.1633 131.939C51.2336 132.053 51.2687 132.176 51.2687 132.309C51.2687 132.445 51.2336 132.572 51.1633 132.689C51.0969 132.807 51.0051 132.9 50.8879 132.971C50.7746 133.037 50.6516 133.07 50.5187 133.07ZM55.5117 133.117C54.8867 133.117 54.3516 132.947 53.9062 132.607C53.4648 132.268 53.127 131.771 52.8926 131.119C52.6621 130.467 52.5469 129.68 52.5469 128.758C52.5469 127.848 52.6641 127.066 52.8984 126.414C53.1328 125.758 53.4727 125.258 53.918 124.914C54.3633 124.57 54.8945 124.398 55.5117 124.398C56.1289 124.398 56.6602 124.57 57.1055 124.914C57.5508 125.258 57.8906 125.758 58.125 126.414C58.3594 127.066 58.4766 127.848 58.4766 128.758C58.4766 129.68 58.3594 130.467 58.125 131.119C57.8945 131.771 57.5566 132.268 57.1113 132.607C56.666 132.947 56.1328 133.117 55.5117 133.117ZM55.5117 132.18C55.918 132.18 56.2656 132.047 56.5547 131.781C56.8438 131.516 57.0645 131.127 57.2168 130.615C57.3691 130.104 57.4453 129.484 57.4453 128.758C57.4453 128.031 57.3691 127.41 57.2168 126.895C57.0645 126.379 56.8438 125.986 56.5547 125.717C56.2656 125.447 55.918 125.312 55.5117 125.312C55.1055 125.312 54.7559 125.447 54.4629 125.717C54.1738 125.986 53.9512 126.379 53.7949 126.895C53.6426 127.41 53.5664 128.031 53.5664 128.758C53.5664 129.484 53.6426 130.104 53.7949 130.615C53.9473 131.127 54.168 131.516 54.457 131.781C54.75 132.047 55.1016 132.18 55.5117 132.18ZM62.8484 133.117C62.3445 133.117 61.8855 133.021 61.4715 132.83C61.0613 132.635 60.7332 132.367 60.4871 132.027C60.2449 131.684 60.1141 131.297 60.0945 130.867H61.1141C61.1414 131.117 61.2352 131.344 61.3953 131.547C61.5555 131.746 61.7625 131.904 62.0164 132.021C62.2703 132.135 62.5477 132.191 62.8484 132.191C63.2078 132.191 63.532 132.109 63.8211 131.945C64.1102 131.781 64.3367 131.557 64.5008 131.271C64.6648 130.986 64.7469 130.668 64.7469 130.316C64.7469 129.953 64.6609 129.627 64.4891 129.338C64.3211 129.045 64.0867 128.816 63.7859 128.652C63.4891 128.484 63.1531 128.398 62.7781 128.395C62.0242 128.383 61.4969 128.637 61.1961 129.156H60.1766L60.7742 124.516H65.368V125.453H61.6531L61.3367 127.938H61.4188C61.6102 127.789 61.8426 127.67 62.116 127.58C62.3895 127.49 62.6727 127.445 62.9656 127.445C63.4969 127.445 63.9754 127.568 64.4012 127.814C64.8309 128.057 65.1668 128.395 65.409 128.828C65.6551 129.262 65.7781 129.75 65.7781 130.293C65.7781 130.832 65.6512 131.316 65.3973 131.746C65.1434 132.176 64.7938 132.512 64.3484 132.754C63.9031 132.996 63.4031 133.117 62.8484 133.117ZM67.8531 133.07C67.7164 133.07 67.5895 133.037 67.4723 132.971C67.359 132.9 67.2672 132.807 67.1969 132.689C67.1305 132.572 67.0992 132.445 67.1031 132.309C67.0992 132.176 67.1305 132.053 67.1969 131.939C67.2672 131.822 67.359 131.73 67.4723 131.664C67.5895 131.594 67.7164 131.559 67.8531 131.559C67.9859 131.559 68.109 131.594 68.2223 131.664C68.3395 131.73 68.4313 131.822 68.4977 131.939C68.568 132.053 68.6031 132.176 68.6031 132.309C68.6031 132.445 68.568 132.572 68.4977 132.689C68.4313 132.807 68.3395 132.9 68.2223 132.971C68.109 133.037 67.9859 133.07 67.8531 133.07ZM72.8461 133.117C72.2211 133.117 71.6859 132.947 71.2406 132.607C70.7992 132.268 70.4613 131.771 70.227 131.119C69.9965 130.467 69.8812 129.68 69.8812 128.758C69.8812 127.848 69.9984 127.066 70.2328 126.414C70.4672 125.758 70.807 125.258 71.2523 124.914C71.6977 124.57 72.2289 124.398 72.8461 124.398C73.4633 124.398 73.9945 124.57 74.4398 124.914C74.8852 125.258 75.225 125.758 75.4594 126.414C75.6937 127.066 75.8109 127.848 75.8109 128.758C75.8109 129.68 75.6937 130.467 75.4594 131.119C75.2289 131.771 74.891 132.268 74.4457 132.607C74.0004 132.947 73.4672 133.117 72.8461 133.117ZM72.8461 132.18C73.2523 132.18 73.6 132.047 73.8891 131.781C74.1781 131.516 74.3988 131.127 74.5512 130.615C74.7035 130.104 74.7797 129.484 74.7797 128.758C74.7797 128.031 74.7035 127.41 74.5512 126.895C74.3988 126.379 74.1781 125.986 73.8891 125.717C73.6 125.447 73.2523 125.312 72.8461 125.312C72.4398 125.312 72.0902 125.447 71.7973 125.717C71.5082 125.986 71.2855 126.379 71.1293 126.895C70.977 127.41 70.9008 128.031 70.9008 128.758C70.9008 129.484 70.977 130.104 71.1293 130.615C71.2816 131.127 71.5023 131.516 71.7914 131.781C72.0844 132.047 72.4359 132.18 72.8461 132.18ZM80.3469 133.117C79.7883 133.117 79.2883 133.023 78.8469 132.836C78.4094 132.648 78.0617 132.385 77.8039 132.045C77.55 131.705 77.4133 131.312 77.3937 130.867H78.4602C78.4797 131.129 78.5734 131.359 78.7414 131.559C78.9133 131.758 79.1379 131.912 79.4152 132.021C79.6926 132.127 79.9992 132.18 80.3352 132.18C80.7023 132.18 81.0324 132.117 81.3254 131.992C81.6223 131.863 81.8527 131.688 82.0168 131.465C82.1848 131.238 82.2687 130.98 82.2687 130.691C82.2687 130.379 82.1867 130.104 82.0227 129.865C81.8625 129.627 81.6281 129.441 81.3195 129.309C81.0109 129.176 80.6398 129.109 80.2062 129.109H79.5148V128.184H80.2062C80.5461 128.184 80.8488 128.123 81.1145 128.002C81.3801 127.881 81.5852 127.711 81.7297 127.492C81.8781 127.273 81.9523 127.02 81.9523 126.73C81.9523 126.453 81.8859 126.207 81.7531 125.992C81.6242 125.777 81.4406 125.611 81.2023 125.494C80.9641 125.373 80.6867 125.312 80.3703 125.312C80.0656 125.312 79.7805 125.367 79.5148 125.477C79.2492 125.586 79.0324 125.742 78.8645 125.945C78.6965 126.145 78.6047 126.379 78.5891 126.648H77.5695C77.5891 126.211 77.7258 125.822 77.9797 125.482C78.2336 125.139 78.5715 124.873 78.9934 124.686C79.4152 124.494 79.8781 124.398 80.382 124.398C80.9055 124.398 81.3625 124.502 81.7531 124.709C82.1477 124.912 82.4504 125.188 82.6613 125.535C82.8723 125.883 82.9758 126.262 82.9719 126.672C82.9758 127.148 82.8488 127.557 82.591 127.896C82.3332 128.236 81.9797 128.469 81.5305 128.594V128.652C81.8937 128.711 82.2082 128.834 82.4738 129.021C82.7434 129.205 82.9484 129.441 83.0891 129.73C83.2336 130.016 83.3039 130.336 83.3 130.691C83.3039 131.148 83.177 131.562 82.9191 131.934C82.6613 132.301 82.3059 132.59 81.8527 132.801C81.4035 133.012 80.9016 133.117 80.3469 133.117ZM91.2352 133H90.1687V125.617H90.1219L88.0594 126.988V125.922L90.1687 124.516H91.2352V133ZM96.6969 133H95.6305V125.617H95.5836L93.5211 126.988V125.922L95.6305 124.516H96.6969V133ZM99.8852 131.875C99.7484 131.875 99.6215 131.842 99.5043 131.775C99.391 131.705 99.2992 131.611 99.2289 131.494C99.1625 131.377 99.1312 131.25 99.1352 131.113C99.1312 130.98 99.1625 130.857 99.2289 130.744C99.2992 130.627 99.391 130.535 99.5043 130.469C99.6215 130.398 99.7484 130.363 99.8852 130.363C100.018 130.363 100.141 130.398 100.254 130.469C100.371 130.535 100.463 130.627 100.53 130.744C100.6 130.857 100.635 130.98 100.635 131.113C100.635 131.25 100.6 131.377 100.53 131.494C100.463 131.611 100.371 131.705 100.254 131.775C100.141 131.842 100.018 131.875 99.8852 131.875ZM99.8852 127.164C99.7484 127.164 99.6215 127.131 99.5043 127.064C99.391 126.994 99.2992 126.9 99.2289 126.783C99.1625 126.666 99.1312 126.539 99.1352 126.402C99.1312 126.27 99.1625 126.146 99.2289 126.033C99.2992 125.916 99.391 125.824 99.5043 125.758C99.6215 125.688 99.7484 125.652 99.8852 125.652C100.018 125.652 100.141 125.688 100.254 125.758C100.371 125.824 100.463 125.916 100.53 126.033C100.6 126.146 100.635 126.27 100.635 126.402C100.635 126.539 100.6 126.666 100.53 126.783C100.463 126.9 100.371 126.994 100.254 127.064C100.141 127.131 100.018 127.164 99.8852 127.164ZM105.183 133.117C104.558 133.117 104.023 132.947 103.577 132.607C103.136 132.268 102.798 131.771 102.564 131.119C102.333 130.467 102.218 129.68 102.218 128.758C102.218 127.848 102.335 127.066 102.57 126.414C102.804 125.758 103.144 125.258 103.589 124.914C104.034 124.57 104.566 124.398 105.183 124.398C105.8 124.398 106.331 124.57 106.777 124.914C107.222 125.258 107.562 125.758 107.796 126.414C108.03 127.066 108.148 127.848 108.148 128.758C108.148 129.68 108.03 130.467 107.796 131.119C107.566 131.771 107.228 132.268 106.782 132.607C106.337 132.947 105.804 133.117 105.183 133.117ZM105.183 132.18C105.589 132.18 105.937 132.047 106.226 131.781C106.515 131.516 106.736 131.127 106.888 130.615C107.04 130.104 107.116 129.484 107.116 128.758C107.116 128.031 107.04 127.41 106.888 126.895C106.736 126.379 106.515 125.986 106.226 125.717C105.937 125.447 105.589 125.312 105.183 125.312C104.777 125.312 104.427 125.447 104.134 125.717C103.845 125.986 103.622 126.379 103.466 126.895C103.314 127.41 103.238 128.031 103.238 128.758C103.238 129.484 103.314 130.104 103.466 130.615C103.618 131.127 103.839 131.516 104.128 131.781C104.421 132.047 104.773 132.18 105.183 132.18ZM112.531 133.117C111.906 133.117 111.371 132.947 110.926 132.607C110.484 132.268 110.146 131.771 109.912 131.119C109.682 130.467 109.566 129.68 109.566 128.758C109.566 127.848 109.684 127.066 109.918 126.414C110.152 125.758 110.492 125.258 110.938 124.914C111.383 124.57 111.914 124.398 112.531 124.398C113.148 124.398 113.68 124.57 114.125 124.914C114.57 125.258 114.91 125.758 115.145 126.414C115.379 127.066 115.496 127.848 115.496 128.758C115.496 129.68 115.379 130.467 115.145 131.119C114.914 131.771 114.576 132.268 114.131 132.607C113.686 132.947 113.152 133.117 112.531 133.117ZM112.531 132.18C112.938 132.18 113.285 132.047 113.574 131.781C113.863 131.516 114.084 131.127 114.236 130.615C114.389 130.104 114.465 129.484 114.465 128.758C114.465 128.031 114.389 127.41 114.236 126.895C114.084 126.379 113.863 125.986 113.574 125.717C113.285 125.447 112.938 125.312 112.531 125.312C112.125 125.312 111.775 125.447 111.482 125.717C111.193 125.986 110.971 126.379 110.814 126.895C110.662 127.41 110.586 128.031 110.586 128.758C110.586 129.484 110.662 130.104 110.814 130.615C110.967 131.127 111.188 131.516 111.477 131.781C111.77 132.047 112.121 132.18 112.531 132.18ZM120.806 124.152H123.291V124.984H121.755V134.547H123.291V135.391H120.806V124.152ZM131.483 133H130.475L125.881 126.391H125.799V133H124.745V124.516H125.764L130.358 131.137H130.44V124.516H131.483V133ZM133.558 124.516H136.441C137.085 124.516 137.624 124.627 138.058 124.85C138.491 125.068 138.812 125.375 139.019 125.77C139.23 126.16 139.335 126.613 139.335 127.129C139.335 127.703 139.202 128.197 138.937 128.611C138.675 129.025 138.28 129.324 137.753 129.508L139.663 133H138.433L136.657 129.701L136.452 129.707H134.613V133H133.558V124.516ZM136.405 128.746C137.058 128.746 137.534 128.607 137.835 128.33C138.14 128.053 138.292 127.652 138.292 127.129C138.292 126.598 138.14 126.186 137.835 125.893C137.53 125.6 137.05 125.453 136.394 125.453H134.613V128.746H136.405ZM140.59 124.516H146.988V125.453H144.328V133H143.262V125.453H140.59V124.516ZM151.337 124.516H157.736V125.453H155.076V133H154.009V125.453H151.337V124.516ZM162.202 133H161.135V125.617H161.088L159.026 126.988V125.922L161.135 124.516H162.202V133ZM164.183 135.391V134.547H165.718V124.984H164.183V124.152H166.667V135.391H164.183Z" fill="#7A7873"/>
</g>
</g>
<line id="Line 6" x1="20" y1="141.5" x2="325" y2="141.5" stroke="#7A7873"/>
<g id="3">
<g id="Frame 108">
<g id="&#226;&#130;&#169;85,000">
<path d="M21.9844 161.047H20.2969V159.625H21.6328L20.4062 154.688H22.3281L23.4297 159.625H25.1875L26.375 154.688H28.2344L29.4219 159.625H31.1953L32.2969 154.688H34.2031L32.9766 159.625H34.3125V161.047H32.625L31.3906 166H29.3906L28.1719 161.047H26.4375L25.2188 166H23.2188L21.9844 161.047ZM24.2188 163.188H24.3281L24.8438 161.047H23.7422L24.2188 163.188ZM27.8281 159.625L27.3438 157.656H27.2656L26.7812 159.625H27.8281ZM30.2812 163.203H30.3906L30.875 161.047H29.7656L30.2812 163.203ZM39.3562 166.156C38.5281 166.156 37.7885 166.021 37.1375 165.75C36.4865 165.474 35.976 165.094 35.6062 164.609C35.2417 164.125 35.0594 163.578 35.0594 162.969C35.0594 162.5 35.1661 162.062 35.3797 161.656C35.5932 161.25 35.8849 160.914 36.2547 160.648C36.6245 160.383 37.0333 160.214 37.4812 160.141V160.078C37.0906 159.995 36.7443 159.833 36.4422 159.594C36.1401 159.354 35.9031 159.057 35.7312 158.703C35.5646 158.349 35.4812 157.969 35.4812 157.562C35.4812 156.984 35.6479 156.466 35.9812 156.008C36.3146 155.544 36.7755 155.182 37.3641 154.922C37.9578 154.661 38.6219 154.531 39.3562 154.531C40.0854 154.531 40.7443 154.661 41.3328 154.922C41.9214 155.182 42.3823 155.544 42.7156 156.008C43.049 156.471 43.2156 156.99 43.2156 157.562C43.2156 157.969 43.1297 158.349 42.9578 158.703C42.7911 159.057 42.5542 159.354 42.2469 159.594C41.9448 159.833 41.601 159.995 41.2156 160.078V160.141C41.6687 160.214 42.0802 160.383 42.45 160.648C42.8198 160.914 43.1115 161.25 43.325 161.656C43.5437 162.062 43.6531 162.5 43.6531 162.969C43.6531 163.578 43.4682 164.125 43.0984 164.609C42.7339 165.094 42.2234 165.474 41.5672 165.75C40.9161 166.021 40.1792 166.156 39.3562 166.156ZM39.3562 164.547C39.7937 164.547 40.1792 164.474 40.5125 164.328C40.8458 164.177 41.1036 163.969 41.2859 163.703C41.4682 163.432 41.5594 163.125 41.5594 162.781C41.5594 162.432 41.463 162.117 41.2703 161.836C41.0828 161.555 40.8198 161.336 40.4812 161.18C40.1479 161.018 39.7729 160.938 39.3562 160.938C38.9344 160.938 38.5542 161.018 38.2156 161.18C37.8823 161.336 37.6193 161.555 37.4266 161.836C37.2391 162.117 37.1479 162.432 37.1531 162.781C37.1479 163.125 37.2339 163.432 37.4109 163.703C37.5932 163.969 37.851 164.177 38.1844 164.328C38.5229 164.474 38.9135 164.547 39.3562 164.547ZM39.3562 159.422C39.7156 159.422 40.0385 159.352 40.325 159.211C40.6115 159.07 40.8328 158.872 40.9891 158.617C41.1505 158.362 41.2312 158.073 41.2312 157.75C41.2312 157.438 41.1505 157.159 40.9891 156.914C40.8328 156.664 40.6115 156.471 40.325 156.336C40.0437 156.195 39.7208 156.125 39.3562 156.125C38.9865 156.125 38.6583 156.193 38.3719 156.328C38.0854 156.464 37.8615 156.656 37.7 156.906C37.5437 157.151 37.4656 157.432 37.4656 157.75C37.4656 158.073 37.5464 158.362 37.7078 158.617C37.8693 158.872 38.0932 159.07 38.3797 159.211C38.6661 159.352 38.9917 159.422 39.3562 159.422ZM49.0562 166.156C48.3115 166.156 47.6396 166.018 47.0406 165.742C46.4417 165.466 45.9677 165.086 45.6187 164.602C45.275 164.112 45.0927 163.557 45.0719 162.938H47.0562C47.0771 163.24 47.176 163.51 47.3531 163.75C47.5354 163.99 47.775 164.177 48.0719 164.312C48.374 164.448 48.7021 164.516 49.0562 164.516C49.4729 164.516 49.8453 164.422 50.1734 164.234C50.5068 164.047 50.7646 163.789 50.9469 163.461C51.1344 163.128 51.2281 162.755 51.2281 162.344C51.2281 161.917 51.1318 161.536 50.9391 161.203C50.7464 160.865 50.4807 160.602 50.1422 160.414C49.8036 160.221 49.4208 160.125 48.9937 160.125C48.0979 160.109 47.4729 160.432 47.1187 161.094H45.2281L45.9156 154.688H52.6031V156.391H47.5875L47.2437 159.391H47.3531C47.5771 159.135 47.8844 158.93 48.275 158.773C48.6656 158.612 49.0875 158.531 49.5406 158.531C50.2333 158.531 50.8583 158.693 51.4156 159.016C51.9729 159.339 52.4078 159.786 52.7203 160.359C53.038 160.927 53.1969 161.568 53.1969 162.281C53.1969 163.026 53.0198 163.693 52.6656 164.281C52.3167 164.87 51.8271 165.331 51.1969 165.664C50.5719 165.992 49.8583 166.156 49.0562 166.156ZM55.2094 169.266H53.725L54.5375 164.891H56.5219L55.2094 169.266ZM62.0969 166.156C61.1906 166.156 60.412 165.93 59.7609 165.477C59.1151 165.018 58.6177 164.354 58.2687 163.484C57.925 162.615 57.7531 161.568 57.7531 160.344C57.7531 159.125 57.925 158.081 58.2687 157.211C58.6177 156.336 59.1177 155.672 59.7687 155.219C60.4198 154.76 61.1958 154.531 62.0969 154.531C62.9927 154.531 63.7661 154.76 64.4172 155.219C65.0734 155.672 65.5734 156.336 65.9172 157.211C66.2661 158.081 66.4406 159.125 66.4406 160.344C66.4406 161.568 66.2661 162.615 65.9172 163.484C65.5734 164.354 65.076 165.018 64.425 165.477C63.7792 165.93 63.0031 166.156 62.0969 166.156ZM62.0969 164.453C62.576 164.453 62.9849 164.299 63.3234 163.992C63.6672 163.68 63.9302 163.219 64.1125 162.609C64.3 161.995 64.3937 161.24 64.3937 160.344C64.3937 159.458 64.3 158.708 64.1125 158.094C63.9302 157.474 63.6672 157.008 63.3234 156.695C62.9797 156.378 62.5708 156.219 62.0969 156.219C61.6229 156.219 61.2141 156.378 60.8703 156.695C60.5266 157.008 60.2609 157.474 60.0734 158.094C59.8911 158.708 59.8 159.458 59.8 160.344C59.8 161.24 59.8911 161.995 60.0734 162.609C60.2609 163.219 60.524 163.68 60.8625 163.992C61.2062 164.299 61.6177 164.453 62.0969 164.453ZM72.0156 166.156C71.1094 166.156 70.3307 165.93 69.6797 165.477C69.0339 165.018 68.5365 164.354 68.1875 163.484C67.8438 162.615 67.6719 161.568 67.6719 160.344C67.6719 159.125 67.8438 158.081 68.1875 157.211C68.5365 156.336 69.0365 155.672 69.6875 155.219C70.3385 154.76 71.1146 154.531 72.0156 154.531C72.9115 154.531 73.6849 154.76 74.3359 155.219C74.9922 155.672 75.4922 156.336 75.8359 157.211C76.1849 158.081 76.3594 159.125 76.3594 160.344C76.3594 161.568 76.1849 162.615 75.8359 163.484C75.4922 164.354 74.9948 165.018 74.3438 165.477C73.6979 165.93 72.9219 166.156 72.0156 166.156ZM72.0156 164.453C72.4948 164.453 72.9036 164.299 73.2422 163.992C73.5859 163.68 73.849 163.219 74.0312 162.609C74.2188 161.995 74.3125 161.24 74.3125 160.344C74.3125 159.458 74.2188 158.708 74.0312 158.094C73.849 157.474 73.5859 157.008 73.2422 156.695C72.8984 156.378 72.4896 156.219 72.0156 156.219C71.5417 156.219 71.1328 156.378 70.7891 156.695C70.4453 157.008 70.1797 157.474 69.9922 158.094C69.8099 158.708 69.7188 159.458 69.7188 160.344C69.7188 161.24 69.8099 161.995 69.9922 162.609C70.1797 163.219 70.4427 163.68 70.7812 163.992C71.125 164.299 71.5365 164.453 72.0156 164.453ZM81.9344 166.156C81.0281 166.156 80.2495 165.93 79.5984 165.477C78.9526 165.018 78.4552 164.354 78.1063 163.484C77.7625 162.615 77.5906 161.568 77.5906 160.344C77.5906 159.125 77.7625 158.081 78.1063 157.211C78.4552 156.336 78.9552 155.672 79.6063 155.219C80.2573 154.76 81.0333 154.531 81.9344 154.531C82.8302 154.531 83.6036 154.76 84.2547 155.219C84.9109 155.672 85.4109 156.336 85.7547 157.211C86.1036 158.081 86.2781 159.125 86.2781 160.344C86.2781 161.568 86.1036 162.615 85.7547 163.484C85.4109 164.354 84.9135 165.018 84.2625 165.477C83.6167 165.93 82.8406 166.156 81.9344 166.156ZM81.9344 164.453C82.4135 164.453 82.8224 164.299 83.1609 163.992C83.5047 163.68 83.7677 163.219 83.95 162.609C84.1375 161.995 84.2313 161.24 84.2313 160.344C84.2313 159.458 84.1375 158.708 83.95 158.094C83.7677 157.474 83.5047 157.008 83.1609 156.695C82.8172 156.378 82.4083 156.219 81.9344 156.219C81.4604 156.219 81.0516 156.378 80.7078 156.695C80.3641 157.008 80.0984 157.474 79.9109 158.094C79.7286 158.708 79.6375 159.458 79.6375 160.344C79.6375 161.24 79.7286 161.995 79.9109 162.609C80.0984 163.219 80.3615 163.68 80.7 163.992C81.0438 164.299 81.4552 164.453 81.9344 164.453Z" fill="#C45650"/>
<path d="M20 160.906H87.0437V162.25H20V160.906Z" fill="#C45650"/>
</g>
<path id="&#236;&#152;&#136;&#236;&#149;&#189;&#235;&#178;&#136;&#237;&#152;&#184;: CR11223344" d="M28.6367 187.913H27.6592V178.288H28.6367V187.913ZM26.7031 187.44H25.7363V184.336H24.3398C24.168 184.819 23.9263 185.192 23.6147 185.453C23.3032 185.715 22.9434 185.843 22.5352 185.84C22.1198 185.843 21.7546 185.707 21.4395 185.432C21.1279 185.156 20.8862 184.762 20.7144 184.25C20.5461 183.734 20.4619 183.133 20.4619 182.445C20.4619 181.758 20.5461 181.158 20.7144 180.646C20.8862 180.134 21.1279 179.742 21.4395 179.47C21.7546 179.194 22.1198 179.058 22.5352 179.062C22.9434 179.058 23.3014 179.187 23.6094 179.448C23.9209 179.706 24.1644 180.075 24.3398 180.555H25.7363V178.471H26.7031V187.44ZM22.5352 180.018C22.2988 180.018 22.0947 180.114 21.9229 180.308C21.7546 180.497 21.6239 180.775 21.5308 181.14C21.4412 181.502 21.3965 181.937 21.3965 182.445C21.3965 182.954 21.4412 183.391 21.5308 183.756C21.6239 184.118 21.7546 184.395 21.9229 184.588C22.0947 184.778 22.2988 184.873 22.5352 184.873C22.7715 184.873 22.9756 184.778 23.1475 184.588C23.3229 184.395 23.4572 184.116 23.5503 183.75C23.647 183.385 23.6953 182.95 23.6953 182.445C23.6953 181.94 23.647 181.505 23.5503 181.14C23.4572 180.775 23.3229 180.497 23.1475 180.308C22.9756 180.114 22.7715 180.018 22.5352 180.018ZM24.5493 181.382C24.603 181.708 24.6299 182.062 24.6299 182.445C24.6299 182.825 24.603 183.176 24.5493 183.498H25.7363V181.382H24.5493ZM38.9881 180.533H37.6238V181.758H38.9881V182.617H37.6238V183.992H36.6033V178.288H37.6238V179.695H38.9881V180.533ZM37.6238 187.913H36.6033V185.249H31.2645V184.422H37.6238V187.913ZM32.7684 178.847C33.2553 178.847 33.6922 178.945 34.0789 179.142C34.4692 179.335 34.7754 179.608 34.9974 179.958C35.2194 180.306 35.3322 180.701 35.3357 181.146C35.3322 181.59 35.2194 181.987 34.9974 182.338C34.7754 182.685 34.4692 182.957 34.0789 183.154C33.6922 183.348 33.2553 183.444 32.7684 183.444C32.2814 183.444 31.8427 183.348 31.4524 183.154C31.0621 182.957 30.756 182.685 30.534 182.338C30.3156 181.987 30.2081 181.59 30.2117 181.146C30.2081 180.701 30.3156 180.306 30.534 179.958C30.756 179.608 31.0621 179.335 31.4524 179.142C31.8427 178.945 32.2814 178.847 32.7684 178.847ZM32.7684 179.717C32.4676 179.717 32.199 179.778 31.9627 179.899C31.7264 180.018 31.5402 180.184 31.4041 180.399C31.2716 180.614 31.2072 180.863 31.2107 181.146C31.2072 181.432 31.2716 181.684 31.4041 181.903C31.5402 182.118 31.7264 182.284 31.9627 182.402C32.199 182.521 32.4676 182.578 32.7684 182.574C33.0691 182.578 33.3377 182.521 33.574 182.402C33.8139 182.284 34.0001 182.118 34.1326 181.903C34.2687 181.684 34.3367 181.432 34.3367 181.146C34.3367 180.863 34.2687 180.614 34.1326 180.399C34.0001 180.181 33.8139 180.012 33.574 179.894C33.3377 179.776 33.0691 179.717 32.7684 179.717ZM47.7926 185.41H46.7721V181.779H44.6666V183.81H40.2301V178.933H41.2506V180.565H43.6568V178.933H44.6666V180.952H46.7721V178.299H47.7926V185.41ZM48.0074 187.709H41.5084V184.712H42.5396V186.882H48.0074V187.709ZM43.6568 182.982V181.35H41.2506V182.982H43.6568ZM57.8109 180.469H49.8939V179.642H53.3529V178.428H54.3627V179.642H57.8109V180.469ZM58.2836 186.828H49.475V186.001H53.3529V184.728C52.7908 184.692 52.3074 184.597 51.9027 184.443C51.4981 184.286 51.1866 184.076 50.9682 183.815C50.7533 183.55 50.6459 183.24 50.6459 182.886C50.6459 182.503 50.7748 182.173 51.0326 181.897C51.2904 181.622 51.661 181.412 52.1444 181.269C52.6278 181.122 53.199 181.049 53.8578 181.049C54.5131 181.049 55.0806 181.122 55.5604 181.269C56.0403 181.412 56.4091 181.622 56.6669 181.897C56.9283 182.173 57.059 182.503 57.059 182.886C57.059 183.237 56.9498 183.545 56.7313 183.81C56.5165 184.075 56.2068 184.286 55.8021 184.443C55.3975 184.597 54.9177 184.692 54.3627 184.728V186.001H58.2836V186.828ZM53.8578 181.854C53.1667 181.854 52.6314 181.944 52.2519 182.123C51.8723 182.302 51.6843 182.556 51.6879 182.886C51.6843 183.215 51.8705 183.469 52.2465 183.648C52.626 183.827 53.1632 183.921 53.8578 183.928C54.5417 183.921 55.0717 183.827 55.4477 183.648C55.8272 183.469 56.017 183.215 56.017 182.886C56.017 182.556 55.8272 182.302 55.4477 182.123C55.0681 181.944 54.5382 181.854 53.8578 181.854ZM60.2775 186.001C60.1415 186.001 60.0126 185.967 59.8908 185.899C59.7727 185.831 59.6796 185.738 59.6115 185.62C59.5435 185.501 59.5113 185.374 59.5148 185.238C59.5113 185.102 59.5435 184.975 59.6115 184.857C59.6796 184.739 59.7727 184.646 59.8908 184.578C60.0126 184.51 60.1415 184.476 60.2775 184.476C60.41 184.476 60.5354 184.51 60.6535 184.578C60.7717 184.646 60.8648 184.739 60.9328 184.857C61.0044 184.975 61.0402 185.102 61.0402 185.238C61.0402 185.374 61.0044 185.501 60.9328 185.62C60.8648 185.738 60.7717 185.831 60.6535 185.899C60.5354 185.967 60.41 186.001 60.2775 186.001ZM60.2775 181.758C60.1415 181.758 60.0126 181.724 59.8908 181.656C59.7727 181.588 59.6796 181.495 59.6115 181.376C59.5435 181.258 59.5113 181.131 59.5148 180.995C59.5113 180.859 59.5435 180.732 59.6115 180.614C59.6796 180.496 59.7727 180.403 59.8908 180.334C60.0126 180.266 60.1415 180.232 60.2775 180.232C60.41 180.232 60.5354 180.266 60.6535 180.334C60.7717 180.403 60.8648 180.496 60.9328 180.614C61.0044 180.732 61.0402 180.859 61.0402 180.995C61.0402 181.131 61.0044 181.258 60.9328 181.376C60.8648 181.495 60.7717 181.588 60.6535 181.656C60.5354 181.724 60.41 181.758 60.2775 181.758ZM70.8719 181.758C70.8074 181.432 70.6803 181.153 70.4905 180.92C70.3007 180.684 70.0644 180.505 69.7815 180.383C69.5022 180.261 69.1961 180.2 68.8631 180.2C68.4119 180.2 68.0091 180.315 67.6546 180.544C67.3001 180.77 67.0226 181.101 66.8221 181.538C66.6216 181.974 66.5213 182.499 66.5213 183.111C66.5213 183.724 66.6216 184.25 66.8221 184.69C67.0262 185.127 67.3037 185.458 67.6546 185.684C68.0091 185.91 68.4119 186.022 68.8631 186.022C69.1925 186.022 69.4969 185.963 69.7762 185.845C70.0555 185.723 70.29 185.548 70.4798 185.319C70.6731 185.086 70.8038 184.809 70.8719 184.486L72.0643 184.497C71.9819 185.006 71.7939 185.458 71.5003 185.856C71.2103 186.25 70.8361 186.558 70.3777 186.78C69.923 186.998 69.4145 187.107 68.8523 187.107C68.1756 187.107 67.5722 186.946 67.0423 186.624C66.5123 186.302 66.097 185.84 65.7962 185.238C65.499 184.633 65.3504 183.924 65.3504 183.111C65.3504 182.299 65.5008 181.591 65.8016 180.99C66.1023 180.385 66.5177 179.921 67.0477 179.599C67.5776 179.276 68.1792 179.115 68.8523 179.115C69.4002 179.115 69.9015 179.221 70.3563 179.432C70.811 179.64 71.187 179.942 71.4842 180.34C71.7814 180.737 71.9747 181.21 72.0643 181.758H70.8719ZM73.5426 179.223H76.3141C76.9013 179.223 77.3954 179.325 77.7965 179.529C78.2011 179.733 78.5037 180.019 78.7042 180.388C78.9083 180.753 79.0104 181.178 79.0104 181.661C79.0104 182.191 78.8904 182.646 78.6505 183.025C78.4106 183.405 78.0579 183.682 77.5924 183.858L79.3111 187H77.9684L76.3893 184.067H76.3141H74.7242V187H73.5426V179.223ZM76.1959 183.047C76.7545 183.047 77.1645 182.931 77.4259 182.698C77.6873 182.461 77.818 182.116 77.818 181.661C77.818 181.203 77.6855 180.85 77.4205 180.603C77.1591 180.356 76.7509 180.232 76.1959 180.232H74.7242V183.047H76.1959ZM83.3676 187H82.1752V180.404H82.1322L80.2738 181.618V180.49L82.2074 179.223H83.3676V187ZM88.4982 187H87.3059V180.404H87.2629L85.4045 181.618V180.49L87.3381 179.223H88.4982V187ZM90.6748 186.141L93.3711 183.423C93.6969 183.079 93.9458 182.803 94.1177 182.596C94.2896 182.388 94.4202 182.186 94.5098 181.989C94.6029 181.788 94.6494 181.579 94.6494 181.36C94.6494 181.11 94.5868 180.889 94.4614 180.7C94.3361 180.51 94.1642 180.363 93.9458 180.259C93.7274 180.155 93.4821 180.104 93.21 180.104C92.9271 180.104 92.6782 180.161 92.4634 180.275C92.2485 180.39 92.082 180.551 91.9639 180.759C91.8493 180.966 91.792 181.206 91.792 181.479H90.6748C90.6712 181.013 90.7786 180.601 90.9971 180.243C91.2155 179.885 91.5199 179.608 91.9102 179.411C92.3005 179.214 92.7409 179.115 93.2314 179.115C93.7256 179.115 94.1642 179.212 94.5474 179.405C94.9341 179.595 95.2349 179.858 95.4497 180.195C95.6646 180.531 95.7738 180.909 95.7773 181.328C95.7738 181.625 95.7165 181.912 95.6055 182.188C95.4945 182.46 95.3047 182.764 95.0361 183.101C94.7676 183.434 94.388 183.842 93.8975 184.325L92.3184 185.926V185.99H95.9062V187H90.6748V186.141ZM97.4168 186.141L100.113 183.423C100.439 183.079 100.688 182.803 100.86 182.596C101.032 182.388 101.162 182.186 101.252 181.989C101.345 181.788 101.391 181.579 101.391 181.36C101.391 181.11 101.329 180.889 101.203 180.7C101.078 180.51 100.906 180.363 100.688 180.259C100.469 180.155 100.224 180.104 99.952 180.104C99.6691 180.104 99.4202 180.161 99.2054 180.275C98.9905 180.39 98.824 180.551 98.7059 180.759C98.5913 180.966 98.534 181.206 98.534 181.479H97.4168C97.4132 181.013 97.5206 180.601 97.7391 180.243C97.9575 179.885 98.2618 179.608 98.6521 179.411C99.0424 179.214 99.4829 179.115 99.9734 179.115C100.468 179.115 100.906 179.212 101.289 179.405C101.676 179.595 101.977 179.858 102.192 180.195C102.407 180.531 102.516 180.909 102.519 181.328C102.516 181.625 102.458 181.912 102.347 182.188C102.236 182.46 102.047 182.764 101.778 183.101C101.51 183.434 101.13 183.842 100.639 184.325L99.0603 185.926V185.99H102.648V187H97.4168V186.141ZM106.92 187.107C106.39 187.107 105.913 187.018 105.491 186.839C105.072 186.66 104.741 186.409 104.497 186.087C104.257 185.761 104.13 185.389 104.116 184.97H105.319C105.333 185.195 105.41 185.392 105.55 185.561C105.693 185.729 105.883 185.86 106.119 185.953C106.356 186.042 106.619 186.087 106.909 186.087C107.217 186.087 107.494 186.033 107.741 185.926C107.988 185.818 108.182 185.67 108.321 185.48C108.461 185.287 108.531 185.066 108.531 184.819C108.531 184.565 108.461 184.338 108.321 184.137C108.182 183.937 107.979 183.781 107.714 183.67C107.453 183.555 107.142 183.498 106.78 183.498H106.114V182.531H106.78C107.07 182.531 107.33 182.479 107.559 182.375C107.788 182.272 107.965 182.127 108.09 181.94C108.219 181.754 108.284 181.539 108.284 181.296C108.284 181.06 108.228 180.852 108.117 180.673C108.006 180.494 107.849 180.354 107.645 180.254C107.441 180.154 107.202 180.104 106.93 180.104C106.665 180.104 106.42 180.15 106.194 180.243C105.969 180.336 105.786 180.469 105.647 180.641C105.511 180.812 105.437 181.013 105.426 181.242H104.288C104.298 180.83 104.422 180.463 104.658 180.141C104.898 179.815 105.219 179.563 105.62 179.384C106.021 179.205 106.461 179.115 106.941 179.115C107.435 179.115 107.87 179.21 108.246 179.4C108.626 179.59 108.918 179.847 109.122 180.173C109.326 180.496 109.426 180.848 109.422 181.231C109.426 181.668 109.303 182.041 109.052 182.349C108.805 182.653 108.47 182.857 108.047 182.961V183.015C108.574 183.09 108.984 183.292 109.277 183.622C109.575 183.951 109.723 184.365 109.723 184.862C109.723 185.288 109.601 185.673 109.358 186.017C109.115 186.357 108.78 186.624 108.354 186.817C107.928 187.011 107.449 187.107 106.92 187.107ZM113.984 187.107C113.454 187.107 112.978 187.018 112.555 186.839C112.136 186.66 111.805 186.409 111.561 186.087C111.322 185.761 111.194 185.389 111.18 184.97H112.383C112.398 185.195 112.475 185.392 112.614 185.561C112.757 185.729 112.947 185.86 113.183 185.953C113.42 186.042 113.683 186.087 113.973 186.087C114.281 186.087 114.558 186.033 114.806 185.926C115.053 185.818 115.246 185.67 115.386 185.48C115.525 185.287 115.595 185.066 115.595 184.819C115.595 184.565 115.525 184.338 115.386 184.137C115.246 183.937 115.044 183.781 114.779 183.67C114.517 183.555 114.206 183.498 113.844 183.498H113.178V182.531H113.844C114.134 182.531 114.394 182.479 114.623 182.375C114.852 182.272 115.029 182.127 115.155 181.94C115.284 181.754 115.348 181.539 115.348 181.296C115.348 181.06 115.293 180.852 115.182 180.673C115.071 180.494 114.913 180.354 114.709 180.254C114.505 180.154 114.267 180.104 113.995 180.104C113.73 180.104 113.484 180.15 113.259 180.243C113.033 180.336 112.85 180.469 112.711 180.641C112.575 180.812 112.501 181.013 112.491 181.242H111.352C111.363 180.83 111.486 180.463 111.723 180.141C111.962 179.815 112.283 179.563 112.684 179.384C113.085 179.205 113.525 179.115 114.005 179.115C114.499 179.115 114.934 179.21 115.31 179.4C115.69 179.59 115.982 179.847 116.186 180.173C116.39 180.496 116.49 180.848 116.487 181.231C116.49 181.668 116.367 182.041 116.116 182.349C115.869 182.653 115.534 182.857 115.112 182.961V183.015C115.638 183.09 116.048 183.292 116.342 183.622C116.639 183.951 116.787 184.365 116.787 184.862C116.787 185.288 116.666 185.673 116.422 186.017C116.179 186.357 115.844 186.624 115.418 186.817C114.992 187.011 114.514 187.107 113.984 187.107ZM118.115 184.529L121.553 179.223H123.014V184.486H124.077V185.485H123.014V187H121.897V185.485H118.115V184.529ZM121.897 184.486V180.63H121.811L119.362 184.422V184.486H121.897ZM125.298 184.529L128.735 179.223H130.196V184.486H131.26V185.485H130.196V187H129.079V185.485H125.298V184.529ZM129.079 184.486V180.63H128.993L126.544 184.422V184.486H129.079Z" fill="#7A7873"/>
</g>
<g id="Frame 109">
<g id="BookedByBadge(User)">
<path d="M255 160.5C255 153.873 260.373 148.5 267 148.5H313C319.627 148.5 325 153.873 325 160.5V160.5C325 167.127 319.627 172.5 313 172.5H267C260.373 172.5 255 167.127 255 160.5V160.5Z" fill="#4A7C59"/>
<path id="&#236;&#167;&#129;&#236;&#160;&#145; &#236;&#152;&#136;&#236;&#149;&#189;" d="M271.172 157.465C271.172 157.926 271.285 158.369 271.512 158.795C271.738 159.221 272.055 159.596 272.461 159.92C272.867 160.24 273.328 160.484 273.844 160.652L273.375 161.367C272.766 161.16 272.23 160.852 271.77 160.441C271.309 160.027 270.961 159.545 270.727 158.994C270.5 159.584 270.152 160.104 269.684 160.553C269.215 161.002 268.672 161.34 268.055 161.566L267.574 160.852C268.09 160.668 268.551 160.404 268.957 160.061C269.363 159.713 269.68 159.314 269.906 158.865C270.133 158.416 270.246 157.949 270.246 157.465V157.02H267.809V156.27H273.574V157.02H271.172V157.465ZM276.023 161.836H275.109V155.531H276.023V161.836ZM276.023 165.949H275.109V163.148H269.016V162.387H276.023V165.949ZM286.618 161.191H285.704V158.836H283.595V158.062H285.704V155.531H286.618V161.191ZM280.841 162.996H285.704V161.695H286.618V165.809H279.915V161.695H280.841V162.996ZM285.704 165.059V163.734H280.841V165.059H285.704ZM281.614 157.23C281.614 157.672 281.721 158.104 281.936 158.525C282.155 158.947 282.458 159.324 282.845 159.656C283.235 159.984 283.68 160.234 284.18 160.406L283.7 161.121C283.114 160.91 282.6 160.598 282.159 160.184C281.721 159.766 281.391 159.287 281.169 158.748C280.942 159.354 280.596 159.887 280.132 160.348C279.671 160.805 279.134 161.145 278.52 161.367L278.04 160.641C278.548 160.457 279.003 160.191 279.405 159.844C279.807 159.492 280.122 159.09 280.348 158.637C280.575 158.184 280.688 157.715 280.688 157.23V156.926H278.333V156.164H283.946V156.926H281.614V157.23ZM300.705 165.949H299.815V155.531H300.705V165.949ZM298.631 165.422H297.752V162H296.088C295.905 162.523 295.645 162.93 295.309 163.219C294.973 163.508 294.584 163.652 294.143 163.652C293.694 163.652 293.299 163.506 292.959 163.213C292.623 162.916 292.364 162.494 292.18 161.947C291.996 161.4 291.905 160.762 291.905 160.031C291.905 159.301 291.996 158.662 292.18 158.115C292.364 157.568 292.623 157.148 292.959 156.855C293.299 156.559 293.694 156.41 294.143 156.41C294.584 156.41 294.973 156.555 295.309 156.844C295.645 157.133 295.905 157.539 296.088 158.062H297.752V155.754H298.631V165.422ZM294.143 157.277C293.862 157.277 293.616 157.389 293.405 157.611C293.198 157.834 293.038 158.152 292.924 158.566C292.815 158.98 292.76 159.469 292.76 160.031C292.76 160.59 292.815 161.076 292.924 161.49C293.038 161.904 293.198 162.223 293.405 162.445C293.616 162.668 293.862 162.777 294.143 162.773C294.42 162.777 294.664 162.668 294.875 162.445C295.086 162.223 295.248 161.904 295.362 161.49C295.479 161.076 295.538 160.59 295.538 160.031C295.538 159.473 295.479 158.986 295.362 158.572C295.248 158.154 295.086 157.834 294.875 157.611C294.668 157.389 294.424 157.277 294.143 157.277ZM296.288 158.824C296.358 159.191 296.393 159.594 296.393 160.031C296.393 160.453 296.36 160.852 296.293 161.227H297.752V158.824H296.288ZM312.038 157.898H310.491V159.363H312.038V160.148H310.491V161.73H309.577V155.531H310.491V157.148H312.038V157.898ZM310.491 165.949H309.577V162.973H303.671V162.211H310.491V165.949ZM305.277 156.164C305.796 156.16 306.263 156.262 306.677 156.469C307.095 156.676 307.421 156.967 307.655 157.342C307.894 157.717 308.015 158.141 308.019 158.613C308.015 159.094 307.894 159.521 307.655 159.896C307.421 160.271 307.097 160.564 306.683 160.775C306.269 160.982 305.8 161.086 305.277 161.086C304.753 161.086 304.282 160.982 303.864 160.775C303.45 160.564 303.126 160.271 302.892 159.896C302.657 159.521 302.542 159.094 302.546 158.613C302.542 158.141 302.657 157.719 302.892 157.348C303.126 156.973 303.45 156.682 303.864 156.475C304.282 156.264 304.753 156.16 305.277 156.164ZM305.277 156.949C304.929 156.949 304.614 157.02 304.333 157.16C304.056 157.301 303.837 157.498 303.677 157.752C303.521 158.002 303.445 158.289 303.448 158.613C303.445 158.941 303.521 159.234 303.677 159.492C303.837 159.746 304.056 159.943 304.333 160.084C304.614 160.225 304.929 160.293 305.277 160.289C305.628 160.293 305.943 160.225 306.22 160.084C306.501 159.943 306.72 159.746 306.876 159.492C307.036 159.234 307.116 158.941 307.116 158.613C307.116 158.289 307.036 158.002 306.876 157.752C306.72 157.498 306.501 157.301 306.22 157.16C305.943 157.02 305.628 156.949 305.277 156.949Z" fill="#FAFAF7"/>
</g>
<path id="&#236;&#152;&#136;&#236;&#149;&#189;&#236;&#157;&#188; 2026.04.05" d="M240.637 189.413H239.659V179.788H240.637V189.413ZM238.703 188.94H237.736V185.836H236.34C236.168 186.319 235.926 186.692 235.615 186.953C235.303 187.215 234.943 187.343 234.535 187.34C234.12 187.343 233.755 187.207 233.439 186.932C233.128 186.656 232.886 186.262 232.714 185.75C232.546 185.234 232.462 184.633 232.462 183.945C232.462 183.258 232.546 182.658 232.714 182.146C232.886 181.634 233.128 181.242 233.439 180.97C233.755 180.694 234.12 180.558 234.535 180.562C234.943 180.558 235.301 180.687 235.609 180.948C235.921 181.206 236.164 181.575 236.34 182.055H237.736V179.971H238.703V188.94ZM234.535 181.518C234.299 181.518 234.095 181.614 233.923 181.808C233.755 181.997 233.624 182.275 233.531 182.64C233.441 183.002 233.396 183.437 233.396 183.945C233.396 184.454 233.441 184.891 233.531 185.256C233.624 185.618 233.755 185.895 233.923 186.088C234.095 186.278 234.299 186.373 234.535 186.373C234.771 186.373 234.976 186.278 235.147 186.088C235.323 185.895 235.457 185.616 235.55 185.25C235.647 184.885 235.695 184.45 235.695 183.945C235.695 183.44 235.647 183.005 235.55 182.64C235.457 182.275 235.323 181.997 235.147 181.808C234.976 181.614 234.771 181.518 234.535 181.518ZM236.549 182.882C236.603 183.208 236.63 183.562 236.63 183.945C236.63 184.325 236.603 184.676 236.549 184.998H237.736V182.882H236.549ZM250.988 182.033H249.624V183.258H250.988V184.117H249.624V185.492H248.603V179.788H249.624V181.195H250.988V182.033ZM249.624 189.413H248.603V186.749H243.264V185.922H249.624V189.413ZM244.768 180.347C245.255 180.347 245.692 180.445 246.079 180.642C246.469 180.835 246.775 181.108 246.997 181.458C247.219 181.806 247.332 182.201 247.336 182.646C247.332 183.09 247.219 183.487 246.997 183.838C246.775 184.185 246.469 184.457 246.079 184.654C245.692 184.848 245.255 184.944 244.768 184.944C244.281 184.944 243.843 184.848 243.452 184.654C243.062 184.457 242.756 184.185 242.534 183.838C242.316 183.487 242.208 183.09 242.212 182.646C242.208 182.201 242.316 181.806 242.534 181.458C242.756 181.108 243.062 180.835 243.452 180.642C243.843 180.445 244.281 180.347 244.768 180.347ZM244.768 181.217C244.468 181.217 244.199 181.278 243.963 181.399C243.726 181.518 243.54 181.684 243.404 181.899C243.272 182.114 243.207 182.363 243.211 182.646C243.207 182.932 243.272 183.184 243.404 183.403C243.54 183.618 243.726 183.784 243.963 183.902C244.199 184.021 244.468 184.078 244.768 184.074C245.069 184.078 245.338 184.021 245.574 183.902C245.814 183.784 246 183.618 246.133 183.403C246.269 183.184 246.337 182.932 246.337 182.646C246.337 182.363 246.269 182.114 246.133 181.899C246 181.681 245.814 181.512 245.574 181.394C245.338 181.276 245.069 181.217 244.768 181.217ZM254.497 180.11C254.976 180.114 255.406 180.209 255.786 180.395C256.169 180.578 256.47 180.834 256.688 181.163C256.907 181.489 257.018 181.858 257.021 182.27C257.018 182.685 256.907 183.056 256.688 183.381C256.47 183.707 256.169 183.961 255.786 184.144C255.406 184.327 254.976 184.418 254.497 184.418C254.013 184.418 253.578 184.327 253.192 184.144C252.808 183.961 252.508 183.707 252.289 183.381C252.071 183.056 251.962 182.685 251.962 182.27C251.962 181.858 252.071 181.489 252.289 181.163C252.508 180.834 252.808 180.578 253.192 180.395C253.578 180.209 254.013 180.114 254.497 180.11ZM254.497 180.97C254.203 180.966 253.938 181.018 253.702 181.125C253.469 181.233 253.286 181.387 253.154 181.587C253.021 181.784 252.957 182.012 252.961 182.27C252.957 182.531 253.02 182.762 253.149 182.962C253.281 183.163 253.464 183.319 253.696 183.43C253.933 183.537 254.199 183.591 254.497 183.591C254.79 183.591 255.053 183.535 255.286 183.424C255.519 183.313 255.702 183.159 255.834 182.962C255.967 182.762 256.033 182.531 256.033 182.27C256.033 182.012 255.967 181.784 255.834 181.587C255.702 181.387 255.517 181.233 255.281 181.125C255.048 181.018 254.787 180.966 254.497 180.97ZM259.75 184.687H258.729V179.788H259.75V184.687ZM259.75 187.555H254.443V188.479H260.072V189.295H253.455V186.792H258.74V185.943H253.422V185.127H259.75V187.555ZM264.694 187.641L267.39 184.923C267.716 184.579 267.965 184.303 268.136 184.096C268.308 183.888 268.439 183.686 268.529 183.489C268.622 183.288 268.668 183.079 268.668 182.86C268.668 182.61 268.606 182.389 268.48 182.2C268.355 182.01 268.183 181.863 267.965 181.759C267.746 181.655 267.501 181.604 267.229 181.604C266.946 181.604 266.697 181.661 266.482 181.775C266.267 181.89 266.101 182.051 265.983 182.259C265.868 182.466 265.811 182.706 265.811 182.979H264.694C264.69 182.513 264.797 182.101 265.016 181.743C265.234 181.385 265.539 181.108 265.929 180.911C266.319 180.714 266.76 180.615 267.25 180.615C267.744 180.615 268.183 180.712 268.566 180.905C268.953 181.095 269.254 181.358 269.468 181.695C269.683 182.031 269.793 182.409 269.796 182.828C269.793 183.125 269.735 183.412 269.624 183.688C269.513 183.96 269.323 184.264 269.055 184.601C268.786 184.934 268.407 185.342 267.916 185.825L266.337 187.426V187.49H269.925V188.5H264.694V187.641ZM274.143 188.607C273.545 188.607 273.031 188.452 272.601 188.14C272.175 187.829 271.849 187.374 271.624 186.776C271.398 186.174 271.285 185.453 271.285 184.611C271.285 183.777 271.398 183.061 271.624 182.463C271.853 181.861 272.182 181.403 272.612 181.088C273.042 180.773 273.552 180.615 274.143 180.615C274.733 180.615 275.244 180.773 275.673 181.088C276.103 181.403 276.431 181.861 276.656 182.463C276.885 183.061 277 183.777 277 184.611C277 185.453 276.887 186.173 276.662 186.771C276.436 187.368 276.108 187.825 275.679 188.14C275.249 188.452 274.737 188.607 274.143 188.607ZM274.143 187.587C274.493 187.587 274.794 187.474 275.045 187.249C275.296 187.019 275.487 186.683 275.62 186.239C275.752 185.795 275.818 185.252 275.818 184.611C275.818 183.974 275.75 183.431 275.614 182.984C275.482 182.533 275.29 182.193 275.04 181.963C274.789 181.731 274.49 181.614 274.143 181.614C273.795 181.614 273.496 181.731 273.246 181.963C272.995 182.193 272.802 182.533 272.666 182.984C272.533 183.431 272.467 183.974 272.467 184.611C272.467 185.252 272.533 185.795 272.666 186.239C272.798 186.683 272.99 187.019 273.24 187.249C273.491 187.474 273.792 187.587 274.143 187.587ZM278.425 187.641L281.121 184.923C281.447 184.579 281.696 184.303 281.867 184.096C282.039 183.888 282.17 183.686 282.26 183.489C282.353 183.288 282.399 183.079 282.399 182.86C282.399 182.61 282.337 182.389 282.211 182.2C282.086 182.01 281.914 181.863 281.696 181.759C281.477 181.655 281.232 181.604 280.96 181.604C280.677 181.604 280.428 181.661 280.213 181.775C279.998 181.89 279.832 182.051 279.714 182.259C279.599 182.466 279.542 182.706 279.542 182.979H278.425C278.421 182.513 278.528 182.101 278.747 181.743C278.965 181.385 279.27 181.108 279.66 180.911C280.05 180.714 280.491 180.615 280.981 180.615C281.475 180.615 281.914 180.712 282.297 180.905C282.684 181.095 282.985 181.358 283.2 181.695C283.414 182.031 283.524 182.409 283.527 182.828C283.524 183.125 283.466 183.412 283.355 183.688C283.244 183.96 283.054 184.264 282.786 184.601C282.517 184.934 282.138 185.342 281.647 185.825L280.068 187.426V187.49H283.656V188.5H278.425V187.641ZM288.003 188.607C287.473 188.607 286.986 188.491 286.542 188.258C286.101 188.022 285.74 187.626 285.457 187.071C285.177 186.516 285.038 185.782 285.038 184.869C285.038 183.978 285.159 183.213 285.403 182.576C285.65 181.935 286.001 181.448 286.456 181.115C286.914 180.782 287.455 180.615 288.078 180.615C288.543 180.615 288.962 180.707 289.335 180.889C289.711 181.068 290.015 181.319 290.248 181.641C290.48 181.963 290.627 182.33 290.688 182.742H289.517C289.438 182.413 289.274 182.148 289.023 181.947C288.772 181.747 288.457 181.646 288.078 181.646C287.68 181.646 287.338 181.759 287.052 181.985C286.769 182.207 286.552 182.529 286.402 182.952C286.252 183.371 286.176 183.87 286.176 184.45H286.262C286.474 184.121 286.753 183.863 287.1 183.677C287.451 183.491 287.838 183.397 288.26 183.397C288.719 183.397 289.139 183.508 289.523 183.73C289.906 183.949 290.208 184.253 290.43 184.644C290.652 185.03 290.763 185.467 290.763 185.954C290.763 186.452 290.649 186.903 290.42 187.308C290.19 187.709 289.866 188.026 289.447 188.258C289.028 188.491 288.547 188.607 288.003 188.607ZM287.97 187.619C288.278 187.619 288.558 187.546 288.808 187.399C289.059 187.252 289.256 187.053 289.399 186.803C289.542 186.552 289.614 186.276 289.614 185.976C289.614 185.682 289.544 185.412 289.404 185.165C289.265 184.917 289.071 184.722 288.824 184.579C288.581 184.436 288.307 184.364 288.003 184.364C287.691 184.364 287.406 184.439 287.149 184.59C286.894 184.737 286.692 184.935 286.542 185.186C286.395 185.433 286.32 185.7 286.316 185.986C286.32 186.273 286.393 186.541 286.536 186.792C286.679 187.043 286.876 187.243 287.127 187.394C287.381 187.544 287.662 187.619 287.97 187.619ZM292.628 188.575C292.492 188.575 292.363 188.541 292.242 188.473C292.123 188.405 292.03 188.312 291.962 188.194C291.894 188.076 291.862 187.949 291.866 187.812C291.862 187.676 291.894 187.549 291.962 187.431C292.03 187.313 292.123 187.22 292.242 187.152C292.363 187.084 292.492 187.05 292.628 187.05C292.761 187.05 292.886 187.084 293.004 187.152C293.122 187.22 293.216 187.313 293.284 187.431C293.355 187.549 293.391 187.676 293.391 187.812C293.391 187.949 293.355 188.076 293.284 188.194C293.216 188.312 293.122 188.405 293.004 188.473C292.886 188.541 292.761 188.575 292.628 188.575ZM297.383 188.607C296.785 188.607 296.271 188.452 295.842 188.14C295.415 187.829 295.09 187.374 294.864 186.776C294.638 186.174 294.526 185.453 294.526 184.611C294.526 183.777 294.638 183.061 294.864 182.463C295.093 181.861 295.423 181.403 295.852 181.088C296.282 180.773 296.792 180.615 297.383 180.615C297.974 180.615 298.484 180.773 298.914 181.088C299.343 181.403 299.671 181.861 299.897 182.463C300.126 183.061 300.24 183.777 300.24 184.611C300.24 185.453 300.128 186.173 299.902 186.771C299.676 187.368 299.349 187.825 298.919 188.14C298.489 188.452 297.977 188.607 297.383 188.607ZM297.383 187.587C297.734 187.587 298.035 187.474 298.285 187.249C298.536 187.019 298.728 186.683 298.86 186.239C298.993 185.795 299.059 185.252 299.059 184.611C299.059 183.974 298.991 183.431 298.855 182.984C298.722 182.533 298.531 182.193 298.28 181.963C298.029 181.731 297.73 181.614 297.383 181.614C297.036 181.614 296.737 181.731 296.486 181.963C296.235 182.193 296.042 182.533 295.906 182.984C295.773 183.431 295.707 183.974 295.707 184.611C295.707 185.252 295.773 185.795 295.906 186.239C296.038 186.683 296.23 187.019 296.481 187.249C296.731 187.474 297.032 187.587 297.383 187.587ZM301.493 186.029L304.931 180.723H306.392V185.986H307.455V186.985H306.392V188.5H305.274V186.985H301.493V186.029ZM305.274 185.986V182.13H305.188L302.739 185.922V185.986H305.274ZM309.32 188.575C309.184 188.575 309.055 188.541 308.933 188.473C308.815 188.405 308.722 188.312 308.654 188.194C308.586 188.076 308.554 187.949 308.557 187.812C308.554 187.676 308.586 187.549 308.654 187.431C308.722 187.313 308.815 187.22 308.933 187.152C309.055 187.084 309.184 187.05 309.32 187.05C309.453 187.05 309.578 187.084 309.696 187.152C309.814 187.22 309.907 187.313 309.975 187.431C310.047 187.549 310.083 187.676 310.083 187.812C310.083 187.949 310.047 188.076 309.975 188.194C309.907 188.312 309.814 188.405 309.696 188.473C309.578 188.541 309.453 188.575 309.32 188.575ZM314.075 188.607C313.477 188.607 312.963 188.452 312.533 188.14C312.107 187.829 311.781 187.374 311.556 186.776C311.33 186.174 311.217 185.453 311.217 184.611C311.217 183.777 311.33 183.061 311.556 182.463C311.785 181.861 312.114 181.403 312.544 181.088C312.974 180.773 313.484 180.615 314.075 180.615C314.666 180.615 315.176 180.773 315.606 181.088C316.035 181.403 316.363 181.861 316.588 182.463C316.818 183.061 316.932 183.777 316.932 184.611C316.932 185.453 316.819 186.173 316.594 186.771C316.368 187.368 316.041 187.825 315.611 188.14C315.181 188.452 314.669 188.607 314.075 188.607ZM314.075 187.587C314.426 187.587 314.726 187.474 314.977 187.249C315.228 187.019 315.419 186.683 315.552 186.239C315.684 185.795 315.751 185.252 315.751 184.611C315.751 183.974 315.683 183.431 315.546 182.984C315.414 182.533 315.222 182.193 314.972 181.963C314.721 181.731 314.422 181.614 314.075 181.614C313.727 181.614 313.428 181.731 313.178 181.963C312.927 182.193 312.734 182.533 312.598 182.984C312.465 183.431 312.399 183.974 312.399 184.611C312.399 185.252 312.465 185.795 312.598 186.239C312.73 186.683 312.922 187.019 313.172 187.249C313.423 187.474 313.724 187.587 314.075 187.587ZM320.999 188.607C320.516 188.607 320.077 188.516 319.683 188.333C319.29 188.147 318.976 187.893 318.744 187.571C318.511 187.245 318.385 186.878 318.368 186.47H319.517C319.538 186.688 319.617 186.885 319.753 187.061C319.889 187.236 320.067 187.374 320.285 187.474C320.503 187.571 320.742 187.619 320.999 187.619C321.311 187.619 321.588 187.549 321.832 187.41C322.079 187.27 322.272 187.078 322.412 186.835C322.552 186.588 322.621 186.312 322.621 186.008C322.621 185.696 322.55 185.417 322.407 185.17C322.263 184.919 322.065 184.724 321.81 184.584C321.556 184.441 321.268 184.368 320.946 184.364C320.29 184.364 319.836 184.593 319.581 185.052H318.464L318.969 180.723H323.373V181.732H319.947L319.689 183.913H319.764C319.929 183.756 320.14 183.628 320.398 183.532C320.659 183.435 320.935 183.387 321.225 183.387C321.705 183.387 322.138 183.498 322.525 183.72C322.915 183.942 323.219 184.25 323.438 184.644C323.66 185.037 323.771 185.481 323.771 185.976C323.771 186.48 323.653 186.933 323.416 187.334C323.18 187.736 322.851 188.049 322.428 188.274C322.009 188.496 321.533 188.607 320.999 188.607Z" fill="#7A7873"/>
</g>
</g>
</g>
</g>
<path d="M16 3.5H329.34C337.9 3.5 344.84 10.4396 344.84 19V188C344.84 196.56 337.9 203.5 329.34 203.5H16C7.43959 203.5 0.5 196.56 0.5 188V19C0.500001 10.4396 7.43959 3.5 16 3.5Z" stroke="#373F3B"/>
</g>
<defs>
<filter id="filter0_d_199_7323" x="-4" y="0" width="353.34" height="209" filterUnits="userSpaceOnUse" color-interpolation-filters="sRGB">
<feFlood flood-opacity="0" result="BackgroundImageFix"/>
<feColorMatrix in="SourceAlpha" type="matrix" values="0 0 0 0 0 0 0 0 0 0 0 0 0 0 0 0 0 0 127 0" result="hardAlpha"/>
<feOffset dy="1"/>
<feGaussianBlur stdDeviation="2"/>
<feColorMatrix type="matrix" values="0 0 0 0 0 0 0 0 0 0 0 0 0 0 0 0 0 0 0.2 0"/>
<feBlend mode="normal" in2="BackgroundImageFix" result="effect1_dropShadow_199_7323"/>
<feBlend mode="normal" in="SourceGraphic" in2="effect1_dropShadow_199_7323" result="shape"/>
</filter>
<clipPath id="clip0_199_7323">
<path d="M0 19C0 10.1634 7.16344 3 16 3H329.34C338.177 3 345.34 10.1634 345.34 19V188C345.34 196.837 338.177 204 329.34 204H16C7.16345 204 0 196.837 0 188V19Z" fill="white"/>
</clipPath>
</defs>
</svg>
