<svg width="346" height="201" viewBox="0 0 346 201" fill="none" xmlns="http://www.w3.org/2000/svg">
<g id="CarReservationCard" filter="url(#filter0_d_199_7151)">
<g clip-path="url(#clip0_199_7151)">
<path d="M0 19C0 10.1634 7.16344 3 16 3H329.34C338.177 3 345.34 10.1634 345.34 19V185C345.34 193.837 338.177 201 329.34 201H16C7.16345 201 0 193.837 0 185V19Z" fill="#FAFAF7"/>
<g id="Header">
<path d="M0 19C0 10.1634 7.16344 3 16 3H329.34C338.177 3 345.34 10.1634 345.34 19V47H0V19Z" fill="#7A5230"/>
<g id="Frame 101">
<g id="Rental cars">
<path id="Vector" d="M20.5 30H18V22L21.125 18H34.875L38 22V30H35.5" stroke="#FAFAF7" stroke-width="1.8" stroke-linecap="round" stroke-linejoin="round"/>
<path id="Vector_2" d="M23 32C24.1046 32 25 31.1046 25 30C25 28.8954 24.1046 28 23 28C21.8954 28 21 28.8954 21 30C21 31.1046 21.8954 32 23 32Z" stroke="#FAFAF7" stroke-width="1.8" stroke-linecap="round" stroke-linejoin="round"/>
<path id="Vector_3" d="M33 32C34.1046 32 35 31.1046 35 30C35 28.8954 34.1046 28 33 28C31.8954 28 31 28.8954 31 30C31 31.1046 31.8954 32 33 32Z" stroke="#FAFAF7" stroke-width="1.8" stroke-linecap="round" stroke-linejoin="round"/>
<path id="Vector_4" d="M19 26H38" stroke="#FAFAF7" stroke-width="1.8" stroke-linecap="round" stroke-linejoin="round"/>
<path id="Vector_5" d="M25 30H31" stroke="#FAFAF7" stroke-width="1.8" stroke-linecap="round" stroke-linejoin="round"/>
<path id="Vector_6" d="M19 22L37 22" stroke="#FAFAF7" stroke-width="1.8" stroke-linecap="round" stroke-linejoin="round"/>
</g>
<path id="&#235;&#160;&#140;&#237;&#138;&#184;&#236;&#185;&#180;" d="M54.5938 23.8633H51.8047V25.5039C52.543 25.5 53.1836 25.4785 53.7266 25.4395C54.2734 25.3965 54.8359 25.3164 55.4141 25.1992L55.5195 25.9492C54.8906 26.0703 54.2812 26.1523 53.6914 26.1953C53.1055 26.2344 52.3984 26.2539 51.5703 26.2539H50.9023V23.1602H53.7031V21.625H50.8789V20.8867H54.5938V23.8633ZM59.2695 27.8711H58.3906V20.043H59.2695V27.8711ZM57.207 27.5898H56.3281V23.7109H55.0273V22.9375H56.3281V20.2305H57.207V27.5898ZM59.5859 30.2266H52.4375V27.0859H53.3516V29.4531H59.5859V30.2266ZM69.4305 26.418H62.2234V20.9336H69.3133V21.707H63.1609V23.2539H69.0906V23.9922H63.1609V25.668H69.4305V26.418ZM70.532 29.0898H60.993V28.3281H70.532V29.0898ZM76.9664 21.1211C76.9625 22.2031 76.816 23.2012 76.527 24.1152C76.2379 25.0254 75.7418 25.875 75.0387 26.6641C74.3355 27.4492 73.3844 28.1367 72.1852 28.7266L71.6695 28.0234C72.6266 27.5625 73.4137 27.0352 74.0309 26.4414C74.648 25.8438 75.1187 25.1836 75.443 24.4609L71.8687 24.8008L71.7164 23.9922L75.7242 23.7227C75.9 23.1523 76.0094 22.5391 76.0523 21.8828H72.2437V21.1211H76.9664ZM79.6266 24.2734H81.3141V25.0469H79.6266V30.4492H78.7125V20.0312H79.6266V24.2734Z" fill="#FAFAF7"/>
</g>
<g id="ReservationStatusBadgeCancelled">
<path id="Rectangle 17" d="M298.34 25C298.34 23.6193 299.459 22.5 300.84 22.5V22.5C302.221 22.5 303.34 23.6193 303.34 25V25C303.34 26.3807 302.221 27.5 300.84 27.5V27.5C299.459 27.5 298.34 26.3807 298.34 25V25Z" fill="#E8635A"/>
<path id="&#236;&#183;&#168;&#236;&#134;&#140;" d="M312.688 22C312.688 22.3438 312.793 22.6699 313.004 22.9785C313.219 23.2832 313.516 23.5488 313.895 23.7754C314.277 23.998 314.715 24.1641 315.207 24.2734L314.832 25.0117C314.23 24.8672 313.707 24.6406 313.262 24.332C312.816 24.0234 312.479 23.6582 312.248 23.2363C312.025 23.6973 311.688 24.0938 311.234 24.4258C310.781 24.7578 310.246 25 309.629 25.1523L309.23 24.4141C309.727 24.3047 310.166 24.1309 310.549 23.8926C310.936 23.6543 311.236 23.3711 311.451 23.043C311.666 22.7148 311.773 22.3672 311.773 22V21.9531H309.453V21.2266H311.773V20.0664H312.688V21.2266H315.008V21.9531H312.688V22ZM317.352 30.4609H316.449V20.043H317.352V30.4609ZM308.738 25.8906C310.066 25.8906 311.299 25.8711 312.436 25.832C313.576 25.7891 314.66 25.7031 315.688 25.5742L315.746 26.2422C314.832 26.3906 313.82 26.498 312.711 26.5645V30.1445H311.797V26.6113C311.008 26.6465 310.031 26.6641 308.867 26.6641L308.738 25.8906ZM328.872 29.0898H319.333V28.3281H323.598V25.7734H324.501V28.3281H328.872V29.0898ZM324.524 21.543C324.524 22.0977 324.716 22.6309 325.098 23.1426C325.485 23.6543 325.977 24.0879 326.575 24.4434C327.177 24.7949 327.786 25.0234 328.403 25.1289L327.993 25.8906C327.454 25.7812 326.925 25.5918 326.405 25.3223C325.886 25.0527 325.417 24.7168 324.999 24.3145C324.585 23.9121 324.268 23.4688 324.05 22.9844C323.831 23.4688 323.514 23.9121 323.1 24.3145C322.686 24.7168 322.22 25.0527 321.7 25.3223C321.184 25.5918 320.657 25.7812 320.118 25.8906L319.708 25.1289C320.325 25.0234 320.93 24.7949 321.524 24.4434C322.122 24.0879 322.61 23.6562 322.989 23.1484C323.372 22.6367 323.563 22.1016 323.563 21.543V20.7461H324.524V21.543Z" fill="#FAFAF7"/>
</g>
</g>
<g id="Content">
<g id="Frame 112">
<path id="Hertz &#194;&#183; Toyota Camry" d="M21.25 64.6875H22.6562V69.7188H28.6406V64.6875H30.0625V76H28.6406V70.9531H22.6562V76H21.25V64.6875ZM35.9375 76.1719C35.1302 76.1719 34.4271 75.9922 33.8281 75.6328C33.2292 75.2734 32.7682 74.7656 32.4453 74.1094C32.1276 73.4531 31.9688 72.6927 31.9688 71.8281C31.9688 70.9635 32.1276 70.1979 32.4453 69.5312C32.7682 68.8594 33.2188 68.3385 33.7969 67.9688C34.3802 67.5938 35.0521 67.4062 35.8125 67.4062C36.4531 67.4062 37.0495 67.5495 37.6016 67.8359C38.1536 68.1172 38.6016 68.5755 38.9453 69.2109C39.2943 69.8411 39.4688 70.651 39.4688 71.6406V72.2031H33.3125C33.3333 72.7917 33.4557 73.2943 33.6797 73.7109C33.9036 74.1276 34.2083 74.4453 34.5938 74.6641C34.9844 74.8776 35.4323 74.9844 35.9375 74.9844C36.4167 74.9844 36.8203 74.8958 37.1484 74.7188C37.4818 74.5365 37.7344 74.3021 37.9062 74.0156H39.3438C39.2083 74.4427 38.9818 74.8203 38.6641 75.1484C38.3516 75.4714 37.9609 75.724 37.4922 75.9062C37.0286 76.0833 36.5104 76.1719 35.9375 76.1719ZM38.1094 71.0625C38.1094 70.5885 38.013 70.1667 37.8203 69.7969C37.6328 69.4219 37.3646 69.1276 37.0156 68.9141C36.6667 68.7005 36.2656 68.5938 35.8125 68.5938C35.3385 68.5938 34.9167 68.7057 34.5469 68.9297C34.1823 69.1536 33.8932 69.4557 33.6797 69.8359C33.4714 70.2109 33.3516 70.6198 33.3203 71.0625H38.1094ZM41.2188 67.5156H42.5156V68.8125H42.6094C42.7656 68.3802 43.0443 68.0339 43.4453 67.7734C43.8464 67.5078 44.2969 67.375 44.7969 67.375C45.0573 67.375 45.2917 67.3854 45.5 67.4062V68.7656C45.4427 68.7448 45.3307 68.724 45.1641 68.7031C45.0026 68.6823 44.8438 68.6719 44.6875 68.6719C44.2865 68.6719 43.9245 68.7578 43.6016 68.9297C43.2786 69.1016 43.0234 69.3385 42.8359 69.6406C42.6536 69.9427 42.5625 70.2812 42.5625 70.6562V76H41.2188V67.5156ZM51.0469 68.6406H49.2656V73.5625C49.2656 74.0625 49.3646 74.3984 49.5625 74.5703C49.7604 74.7422 50.0312 74.8281 50.375 74.8281C50.6354 74.8281 50.901 74.8177 51.1719 74.7969V76.0469C50.901 76.0885 50.5885 76.1094 50.2344 76.1094C49.8385 76.1094 49.4635 76.0286 49.1094 75.8672C48.7552 75.7005 48.4661 75.4505 48.2422 75.1172C48.0182 74.7839 47.9062 74.3802 47.9062 73.9062V68.6406H46.625V67.5156H47.9062V65.4844H49.2656V67.5156H51.0469V68.6406ZM52.5312 74.9844L57.3125 68.8438V68.75H52.6875V67.5156H59.0469V68.5781L54.4062 74.6719V74.7656H59.2031V76H52.5312V74.9844ZM65.9531 72.0625C65.7708 72.0625 65.6016 72.0182 65.4453 71.9297C65.2943 71.8359 65.1719 71.7109 65.0781 71.5547C64.9896 71.3984 64.9479 71.2292 64.9531 71.0469C64.9479 70.8698 64.9896 70.7057 65.0781 70.5547C65.1719 70.3984 65.2943 70.276 65.4453 70.1875C65.6016 70.0938 65.7708 70.0469 65.9531 70.0469C66.1302 70.0469 66.2943 70.0938 66.4453 70.1875C66.6016 70.276 66.724 70.3984 66.8125 70.5547C66.9062 70.7057 66.9531 70.8698 66.9531 71.0469C66.9531 71.2292 66.9062 71.3984 66.8125 71.5547C66.724 71.7109 66.6016 71.8359 66.4453 71.9297C66.2943 72.0182 66.1302 72.0625 65.9531 72.0625ZM72.625 64.6875H81.1562V65.9375H77.6094V76H76.1875V65.9375H72.625V64.6875ZM85.0938 76.1719C84.3281 76.1719 83.651 75.9922 83.0625 75.6328C82.4792 75.2682 82.026 74.7552 81.7031 74.0938C81.3802 73.4323 81.2188 72.6667 81.2188 71.7969C81.2188 70.9271 81.3802 70.1615 81.7031 69.5C82.026 68.8333 82.4792 68.3177 83.0625 67.9531C83.651 67.5885 84.3281 67.4062 85.0938 67.4062C85.8542 67.4062 86.5234 67.5885 87.1016 67.9531C87.6849 68.3177 88.1354 68.8333 88.4531 69.5C88.776 70.1615 88.9375 70.9271 88.9375 71.7969C88.9375 72.6667 88.776 73.4323 88.4531 74.0938C88.1354 74.7552 87.6849 75.2682 87.1016 75.6328C86.5234 75.9922 85.8542 76.1719 85.0938 76.1719ZM85.0938 74.9844C85.6406 74.9844 86.1016 74.8411 86.4766 74.5547C86.8516 74.263 87.1302 73.8776 87.3125 73.3984C87.5 72.9141 87.5938 72.3802 87.5938 71.7969C87.5938 71.2135 87.5 70.6797 87.3125 70.1953C87.1302 69.7109 86.8516 69.3229 86.4766 69.0312C86.1016 68.7396 85.6406 68.5938 85.0938 68.5938C84.5365 68.5938 84.0677 68.7396 83.6875 69.0312C83.3125 69.3229 83.0312 69.7109 82.8438 70.1953C82.6562 70.6797 82.5625 71.2135 82.5625 71.7969C82.5625 72.3802 82.6562 72.9141 82.8438 73.3984C83.0312 73.8776 83.3125 74.263 83.6875 74.5547C84.0677 74.8411 84.5365 74.9844 85.0938 74.9844ZM91.25 79.1875C90.9792 79.1875 90.7292 79.1771 90.5 79.1562V77.9531C90.6875 77.974 90.9062 77.9844 91.1562 77.9844C91.3802 77.9844 91.5677 77.9609 91.7188 77.9141C91.8698 77.8672 92.0208 77.75 92.1719 77.5625C92.3229 77.3802 92.4688 77.0938 92.6094 76.7031L92.8594 76.0625L89.7188 67.5156H91.1875L93.5 74.25H93.5938L95.9062 67.5156H97.375L93.7812 77.2188C93.5312 77.8802 93.1979 78.3724 92.7812 78.6953C92.3646 79.0234 91.8542 79.1875 91.25 79.1875ZM102.016 76.1719C101.25 76.1719 100.573 75.9922 99.9844 75.6328C99.401 75.2682 98.9479 74.7552 98.625 74.0938C98.3021 73.4323 98.1406 72.6667 98.1406 71.7969C98.1406 70.9271 98.3021 70.1615 98.625 69.5C98.9479 68.8333 99.401 68.3177 99.9844 67.9531C100.573 67.5885 101.25 67.4062 102.016 67.4062C102.776 67.4062 103.445 67.5885 104.023 67.9531C104.607 68.3177 105.057 68.8333 105.375 69.5C105.698 70.1615 105.859 70.9271 105.859 71.7969C105.859 72.6667 105.698 73.4323 105.375 74.0938C105.057 74.7552 104.607 75.2682 104.023 75.6328C103.445 75.9922 102.776 76.1719 102.016 76.1719ZM102.016 74.9844C102.562 74.9844 103.023 74.8411 103.398 74.5547C103.773 74.263 104.052 73.8776 104.234 73.3984C104.422 72.9141 104.516 72.3802 104.516 71.7969C104.516 71.2135 104.422 70.6797 104.234 70.1953C104.052 69.7109 103.773 69.3229 103.398 69.0312C103.023 68.7396 102.562 68.5938 102.016 68.5938C101.458 68.5938 100.99 68.7396 100.609 69.0312C100.234 69.3229 99.9531 69.7109 99.7656 70.1953C99.5781 70.6797 99.4844 71.2135 99.4844 71.7969C99.4844 72.3802 99.5781 72.9141 99.7656 73.3984C99.9531 73.8776 100.234 74.263 100.609 74.5547C100.99 74.8411 101.458 74.9844 102.016 74.9844ZM111.328 68.6406H109.547V73.5625C109.547 74.0625 109.646 74.3984 109.844 74.5703C110.042 74.7422 110.312 74.8281 110.656 74.8281C110.917 74.8281 111.182 74.8177 111.453 74.7969V76.0469C111.182 76.0885 110.87 76.1094 110.516 76.1094C110.12 76.1094 109.745 76.0286 109.391 75.8672C109.036 75.7005 108.747 75.4505 108.523 75.1172C108.299 74.7839 108.188 74.3802 108.188 73.9062V68.6406H106.906V67.5156H108.188V65.4844H109.547V67.5156H111.328V68.6406ZM112.656 73.5938C112.656 72.7135 112.956 72.0938 113.555 71.7344C114.159 71.375 114.922 71.1615 115.844 71.0938C116.198 71.0677 116.594 71.0443 117.031 71.0234C117.474 70.9974 117.844 70.9792 118.141 70.9688V70.2812C118.141 69.7344 117.977 69.3151 117.648 69.0234C117.326 68.7266 116.849 68.5781 116.219 68.5781C115.703 68.5781 115.281 68.6849 114.953 68.8984C114.625 69.1068 114.411 69.3802 114.312 69.7188H112.906C112.964 69.2656 113.141 68.8646 113.438 68.5156C113.734 68.1667 114.128 67.8958 114.617 67.7031C115.112 67.5052 115.667 67.4062 116.281 67.4062C117.094 67.4062 117.828 67.6146 118.484 68.0312C119.141 68.4427 119.469 69.2344 119.469 70.4062V76H118.141V74.8438H118.078C117.974 75.0625 117.812 75.276 117.594 75.4844C117.38 75.6875 117.099 75.8594 116.75 76C116.406 76.1354 116.005 76.2031 115.547 76.2031C115.005 76.2031 114.516 76.099 114.078 75.8906C113.641 75.6823 113.294 75.3828 113.039 74.9922C112.784 74.5964 112.656 74.1302 112.656 73.5938ZM114 73.6562C114 74.0885 114.161 74.4219 114.484 74.6562C114.812 74.8854 115.245 75 115.781 75C116.266 75 116.685 74.9036 117.039 74.7109C117.398 74.5182 117.672 74.263 117.859 73.9453C118.047 73.6276 118.141 73.2865 118.141 72.9219V72.0703L116 72.2188C115.365 72.2604 114.872 72.3984 114.523 72.6328C114.174 72.8672 114 73.2083 114 73.6562ZM133.531 68.25C133.427 67.7448 133.219 67.3125 132.906 66.9531C132.599 66.5885 132.224 66.3125 131.781 66.125C131.344 65.9375 130.875 65.8438 130.375 65.8438C129.682 65.8438 129.06 66.0182 128.508 66.3672C127.961 66.7161 127.529 67.2292 127.211 67.9062C126.893 68.5833 126.734 69.3958 126.734 70.3438C126.734 71.2917 126.893 72.1042 127.211 72.7812C127.529 73.4583 127.961 73.9714 128.508 74.3203C129.06 74.6693 129.682 74.8438 130.375 74.8438C130.875 74.8438 131.344 74.7526 131.781 74.5703C132.219 74.3828 132.591 74.1094 132.898 73.75C133.211 73.3854 133.422 72.9531 133.531 72.4531H134.938C134.802 73.2083 134.521 73.8672 134.094 74.4297C133.667 74.987 133.13 75.4141 132.484 75.7109C131.844 76.0078 131.141 76.1562 130.375 76.1562C129.406 76.1562 128.544 75.9193 127.789 75.4453C127.034 74.9714 126.443 74.2969 126.016 73.4219C125.589 72.5417 125.375 71.5156 125.375 70.3438C125.375 69.1719 125.589 68.1484 126.016 67.2734C126.443 66.3932 127.034 65.7161 127.789 65.2422C128.544 64.7682 129.406 64.5312 130.375 64.5312C131.135 64.5312 131.836 64.6797 132.477 64.9766C133.122 65.2734 133.659 65.7031 134.086 66.2656C134.518 66.8229 134.802 67.4844 134.938 68.25H133.531ZM136.328 73.5938C136.328 72.7135 136.628 72.0938 137.227 71.7344C137.831 71.375 138.594 71.1615 139.516 71.0938C139.87 71.0677 140.266 71.0443 140.703 71.0234C141.146 70.9974 141.516 70.9792 141.812 70.9688V70.2812C141.812 69.7344 141.648 69.3151 141.32 69.0234C140.997 68.7266 140.521 68.5781 139.891 68.5781C139.375 68.5781 138.953 68.6849 138.625 68.8984C138.297 69.1068 138.083 69.3802 137.984 69.7188H136.578C136.635 69.2656 136.812 68.8646 137.109 68.5156C137.406 68.1667 137.799 67.8958 138.289 67.7031C138.784 67.5052 139.339 67.4062 139.953 67.4062C140.766 67.4062 141.5 67.6146 142.156 68.0312C142.812 68.4427 143.141 69.2344 143.141 70.4062V76H141.812V74.8438H141.75C141.646 75.0625 141.484 75.276 141.266 75.4844C141.052 75.6875 140.771 75.8594 140.422 76C140.078 76.1354 139.677 76.2031 139.219 76.2031C138.677 76.2031 138.188 76.099 137.75 75.8906C137.312 75.6823 136.966 75.3828 136.711 74.9922C136.456 74.5964 136.328 74.1302 136.328 73.5938ZM137.672 73.6562C137.672 74.0885 137.833 74.4219 138.156 74.6562C138.484 74.8854 138.917 75 139.453 75C139.938 75 140.357 74.9036 140.711 74.7109C141.07 74.5182 141.344 74.263 141.531 73.9453C141.719 73.6276 141.812 73.2865 141.812 72.9219V72.0703L139.672 72.2188C139.036 72.2604 138.544 72.3984 138.195 72.6328C137.846 72.8672 137.672 73.2083 137.672 73.6562ZM145.297 67.5156H146.594V68.8438H146.703C146.885 68.3854 147.172 68.0312 147.562 67.7812C147.958 67.5312 148.432 67.4062 148.984 67.4062C149.526 67.4062 149.987 67.5312 150.367 67.7812C150.747 68.026 151.042 68.3802 151.25 68.8438H151.344C151.568 68.3958 151.898 68.0443 152.336 67.7891C152.773 67.5339 153.292 67.4062 153.891 67.4062C154.406 67.4062 154.857 67.513 155.242 67.7266C155.633 67.9401 155.938 68.2656 156.156 68.7031C156.375 69.1354 156.484 69.6771 156.484 70.3281V76H155.141V70.3438C155.141 69.7552 154.979 69.3203 154.656 69.0391C154.333 68.7526 153.922 68.6094 153.422 68.6094C153.036 68.6094 152.703 68.6901 152.422 68.8516C152.141 69.013 151.927 69.2344 151.781 69.5156C151.635 69.7969 151.562 70.1198 151.562 70.4844V76H150.203V70.2031C150.203 69.8906 150.133 69.6146 149.992 69.375C149.852 69.1302 149.654 68.9427 149.398 68.8125C149.148 68.6771 148.865 68.6094 148.547 68.6094C148.208 68.6094 147.893 68.7005 147.602 68.8828C147.31 69.0599 147.076 69.3073 146.898 69.625C146.727 69.9427 146.641 70.3021 146.641 70.7031V76H145.297V67.5156ZM158.641 67.5156H159.938V68.8125H160.031C160.188 68.3802 160.466 68.0339 160.867 67.7734C161.268 67.5078 161.719 67.375 162.219 67.375C162.479 67.375 162.714 67.3854 162.922 67.4062V68.7656C162.865 68.7448 162.753 68.724 162.586 68.7031C162.424 68.6823 162.266 68.6719 162.109 68.6719C161.708 68.6719 161.346 68.7578 161.023 68.9297C160.701 69.1016 160.445 69.3385 160.258 69.6406C160.076 69.9427 159.984 70.2812 159.984 70.6562V76H158.641V67.5156ZM165.359 79.1875C165.089 79.1875 164.839 79.1771 164.609 79.1562V77.9531C164.797 77.974 165.016 77.9844 165.266 77.9844C165.49 77.9844 165.677 77.9609 165.828 77.9141C165.979 77.8672 166.13 77.75 166.281 77.5625C166.432 77.3802 166.578 77.0938 166.719 76.7031L166.969 76.0625L163.828 67.5156H165.297L167.609 74.25H167.703L170.016 67.5156H171.484L167.891 77.2188C167.641 77.8802 167.307 78.3724 166.891 78.6953C166.474 79.0234 165.964 79.1875 165.359 79.1875Z" fill="#1A1A1A"/>
<g id="Frame 113">
<path id="2026.05.01 13:00 [NRT T1]" d="M20.7852 98.2266L23.6797 95.1797C24.0625 94.7773 24.3535 94.4531 24.5527 94.207C24.7559 93.957 24.9082 93.7168 25.0098 93.4863C25.1152 93.252 25.168 93.0078 25.168 92.7539C25.168 92.4727 25.0938 92.2227 24.9453 92.0039C24.7969 91.7852 24.5938 91.6152 24.3359 91.4941C24.082 91.373 23.7969 91.3125 23.4805 91.3125C23.1484 91.3125 22.8574 91.3789 22.6074 91.5117C22.3574 91.6445 22.1641 91.832 22.0273 92.0742C21.8945 92.3164 21.8281 92.5938 21.8281 92.9062H20.832C20.8281 92.4141 20.9414 91.9785 21.1719 91.5996C21.4062 91.2207 21.7285 90.9258 22.1387 90.7148C22.5488 90.5039 23.0078 90.3984 23.5156 90.3984C24.0195 90.3984 24.4707 90.502 24.8691 90.709C25.2715 90.916 25.5859 91.1992 25.8125 91.5586C26.0391 91.918 26.1523 92.3164 26.1523 92.7539C26.1523 93.0781 26.0938 93.3887 25.9766 93.6855C25.8594 93.9785 25.6621 94.3047 25.3848 94.6641C25.1113 95.0195 24.7188 95.4609 24.207 95.9883L22.2617 97.9922V98.0625H26.3047V99H20.7969L20.7852 98.2266ZM30.8172 99.1172C30.1922 99.1172 29.657 98.9473 29.2117 98.6074C28.7703 98.2676 28.4324 97.7715 28.198 97.1191C27.9676 96.4668 27.8523 95.6797 27.8523 94.7578C27.8523 93.8477 27.9695 93.0664 28.2039 92.4141C28.4383 91.7578 28.7781 91.2578 29.2234 90.9141C29.6687 90.5703 30.2 90.3984 30.8172 90.3984C31.4344 90.3984 31.9656 90.5703 32.4109 90.9141C32.8562 91.2578 33.1961 91.7578 33.4305 92.4141C33.6648 93.0664 33.782 93.8477 33.782 94.7578C33.782 95.6797 33.6648 96.4668 33.4305 97.1191C33.2 97.7715 32.8621 98.2676 32.4168 98.6074C31.9715 98.9473 31.4383 99.1172 30.8172 99.1172ZM30.8172 98.1797C31.2234 98.1797 31.5711 98.0469 31.8602 97.7812C32.1492 97.5156 32.3699 97.127 32.5223 96.6152C32.6746 96.1035 32.7508 95.4844 32.7508 94.7578C32.7508 94.0312 32.6746 93.4102 32.5223 92.8945C32.3699 92.3789 32.1492 91.9863 31.8602 91.7168C31.5711 91.4473 31.2234 91.3125 30.8172 91.3125C30.4109 91.3125 30.0613 91.4473 29.7684 91.7168C29.4793 91.9863 29.2566 92.3789 29.1004 92.8945C28.948 93.4102 28.8719 94.0312 28.8719 94.7578C28.8719 95.4844 28.948 96.1035 29.1004 96.6152C29.2527 97.127 29.4734 97.5156 29.7625 97.7812C30.0555 98.0469 30.407 98.1797 30.8172 98.1797ZM35.3766 98.2266L38.2711 95.1797C38.6539 94.7773 38.9449 94.4531 39.1441 94.207C39.3473 93.957 39.4996 93.7168 39.6012 93.4863C39.7066 93.252 39.7594 93.0078 39.7594 92.7539C39.7594 92.4727 39.6852 92.2227 39.5367 92.0039C39.3883 91.7852 39.1852 91.6152 38.9273 91.4941C38.6734 91.373 38.3883 91.3125 38.0719 91.3125C37.7398 91.3125 37.4488 91.3789 37.1988 91.5117C36.9488 91.6445 36.7555 91.832 36.6187 92.0742C36.4859 92.3164 36.4195 92.5938 36.4195 92.9062H35.4234C35.4195 92.4141 35.5328 91.9785 35.7633 91.5996C35.9977 91.2207 36.3199 90.9258 36.7301 90.7148C37.1402 90.5039 37.5992 90.3984 38.107 90.3984C38.6109 90.3984 39.0621 90.502 39.4605 90.709C39.8629 90.916 40.1773 91.1992 40.4039 91.5586C40.6305 91.918 40.7437 92.3164 40.7437 92.7539C40.7437 93.0781 40.6852 93.3887 40.568 93.6855C40.4508 93.9785 40.2535 94.3047 39.9762 94.6641C39.7027 95.0195 39.3102 95.4609 38.7984 95.9883L36.8531 97.9922V98.0625H40.8961V99H35.3883L35.3766 98.2266ZM45.6078 99.1172C45.0609 99.1172 44.5531 98.9941 44.0844 98.748C43.6195 98.498 43.2367 98.0742 42.9359 97.4766C42.6391 96.875 42.4906 96.0781 42.4906 95.0859C42.4906 94.0977 42.6195 93.252 42.8773 92.5488C43.1391 91.8457 43.5102 91.3125 43.9906 90.9492C44.475 90.582 45.0492 90.3984 45.7133 90.3984C46.2016 90.3984 46.6391 90.4922 47.0258 90.6797C47.4164 90.8672 47.7348 91.1309 47.9809 91.4707C48.2309 91.8105 48.393 92.2031 48.4672 92.6484H47.4242C47.3188 92.2539 47.1195 91.9375 46.8266 91.6992C46.5375 91.457 46.1664 91.3359 45.7133 91.3359C45.2523 91.3359 44.8539 91.4648 44.518 91.7227C44.1859 91.9766 43.9301 92.3457 43.7504 92.8301C43.5746 93.3145 43.4867 93.8945 43.4867 94.5703H43.5922C43.8422 94.2148 44.1547 93.9395 44.5297 93.7441C44.9047 93.5449 45.3188 93.4453 45.7719 93.4453C46.2719 93.4453 46.7328 93.5664 47.1547 93.8086C47.5805 94.0508 47.9164 94.3867 48.1625 94.8164C48.4125 95.2422 48.5375 95.7227 48.5375 96.2578C48.5375 96.7852 48.4145 97.2676 48.1684 97.7051C47.9262 98.1387 47.5824 98.4824 47.1371 98.7363C46.6918 98.9902 46.182 99.1172 45.6078 99.1172ZM45.5844 98.1914C45.9438 98.1914 46.2699 98.1055 46.5629 97.9336C46.8559 97.7617 47.0863 97.5293 47.2543 97.2363C47.4262 96.9395 47.5141 96.6172 47.518 96.2695C47.5141 95.9219 47.4301 95.6035 47.266 95.3145C47.102 95.0254 46.8754 94.7969 46.5863 94.6289C46.2973 94.457 45.9711 94.3711 45.6078 94.3711C45.2445 94.3711 44.9125 94.459 44.6117 94.6348C44.3109 94.8105 44.0727 95.0469 43.8969 95.3438C43.7211 95.6367 43.6313 95.9492 43.6273 96.2812C43.6273 96.6133 43.7113 96.9258 43.8793 97.2188C44.0512 97.5117 44.2855 97.748 44.5824 97.9277C44.8832 98.1035 45.2172 98.1914 45.5844 98.1914ZM50.5187 99.0703C50.382 99.0703 50.2551 99.0371 50.1379 98.9707C50.0246 98.9004 49.9328 98.8066 49.8625 98.6895C49.7961 98.5723 49.7648 98.4453 49.7687 98.3086C49.7648 98.1758 49.7961 98.0527 49.8625 97.9395C49.9328 97.8223 50.0246 97.7305 50.1379 97.6641C50.2551 97.5938 50.382 97.5586 50.5187 97.5586C50.6516 97.5586 50.7746 97.5938 50.8879 97.6641C51.0051 97.7305 51.0969 97.8223 51.1633 97.9395C51.2336 98.0527 51.2687 98.1758 51.2687 98.3086C51.2687 98.4453 51.2336 98.5723 51.1633 98.6895C51.0969 98.8066 51.0051 98.9004 50.8879 98.9707C50.7746 99.0371 50.6516 99.0703 50.5187 99.0703ZM55.5117 99.1172C54.8867 99.1172 54.3516 98.9473 53.9062 98.6074C53.4648 98.2676 53.127 97.7715 52.8926 97.1191C52.6621 96.4668 52.5469 95.6797 52.5469 94.7578C52.5469 93.8477 52.6641 93.0664 52.8984 92.4141C53.1328 91.7578 53.4727 91.2578 53.918 90.9141C54.3633 90.5703 54.8945 90.3984 55.5117 90.3984C56.1289 90.3984 56.6602 90.5703 57.1055 90.9141C57.5508 91.2578 57.8906 91.7578 58.125 92.4141C58.3594 93.0664 58.4766 93.8477 58.4766 94.7578C58.4766 95.6797 58.3594 96.4668 58.125 97.1191C57.8945 97.7715 57.5566 98.2676 57.1113 98.6074C56.666 98.9473 56.1328 99.1172 55.5117 99.1172ZM55.5117 98.1797C55.918 98.1797 56.2656 98.0469 56.5547 97.7812C56.8438 97.5156 57.0645 97.127 57.2168 96.6152C57.3691 96.1035 57.4453 95.4844 57.4453 94.7578C57.4453 94.0312 57.3691 93.4102 57.2168 92.8945C57.0645 92.3789 56.8438 91.9863 56.5547 91.7168C56.2656 91.4473 55.918 91.3125 55.5117 91.3125C55.1055 91.3125 54.7559 91.4473 54.4629 91.7168C54.1738 91.9863 53.9512 92.3789 53.7949 92.8945C53.6426 93.4102 53.5664 94.0312 53.5664 94.7578C53.5664 95.4844 53.6426 96.1035 53.7949 96.6152C53.9473 97.127 54.168 97.5156 54.457 97.7812C54.75 98.0469 55.1016 98.1797 55.5117 98.1797ZM62.8484 99.1172C62.3445 99.1172 61.8855 99.0215 61.4715 98.8301C61.0613 98.6348 60.7332 98.3672 60.4871 98.0273C60.2449 97.6836 60.1141 97.2969 60.0945 96.8672H61.1141C61.1414 97.1172 61.2352 97.3438 61.3953 97.5469C61.5555 97.7461 61.7625 97.9043 62.0164 98.0215C62.2703 98.1348 62.5477 98.1914 62.8484 98.1914C63.2078 98.1914 63.532 98.1094 63.8211 97.9453C64.1102 97.7812 64.3367 97.5566 64.5008 97.2715C64.6648 96.9863 64.7469 96.668 64.7469 96.3164C64.7469 95.9531 64.6609 95.627 64.4891 95.3379C64.3211 95.0449 64.0867 94.8164 63.7859 94.6523C63.4891 94.4844 63.1531 94.3984 62.7781 94.3945C62.0242 94.3828 61.4969 94.6367 61.1961 95.1562H60.1766L60.7742 90.5156H65.368V91.4531H61.6531L61.3367 93.9375H61.4188C61.6102 93.7891 61.8426 93.6699 62.116 93.5801C62.3895 93.4902 62.6727 93.4453 62.9656 93.4453C63.4969 93.4453 63.9754 93.5684 64.4012 93.8145C64.8309 94.0566 65.1668 94.3945 65.409 94.8281C65.6551 95.2617 65.7781 95.75 65.7781 96.293C65.7781 96.832 65.6512 97.3164 65.3973 97.7461C65.1434 98.1758 64.7938 98.5117 64.3484 98.7539C63.9031 98.9961 63.4031 99.1172 62.8484 99.1172ZM67.8531 99.0703C67.7164 99.0703 67.5895 99.0371 67.4723 98.9707C67.359 98.9004 67.2672 98.8066 67.1969 98.6895C67.1305 98.5723 67.0992 98.4453 67.1031 98.3086C67.0992 98.1758 67.1305 98.0527 67.1969 97.9395C67.2672 97.8223 67.359 97.7305 67.4723 97.6641C67.5895 97.5938 67.7164 97.5586 67.8531 97.5586C67.9859 97.5586 68.109 97.5938 68.2223 97.6641C68.3395 97.7305 68.4313 97.8223 68.4977 97.9395C68.568 98.0527 68.6031 98.1758 68.6031 98.3086C68.6031 98.4453 68.568 98.5723 68.4977 98.6895C68.4313 98.8066 68.3395 98.9004 68.2223 98.9707C68.109 99.0371 67.9859 99.0703 67.8531 99.0703ZM72.8461 99.1172C72.2211 99.1172 71.6859 98.9473 71.2406 98.6074C70.7992 98.2676 70.4613 97.7715 70.227 97.1191C69.9965 96.4668 69.8812 95.6797 69.8812 94.7578C69.8812 93.8477 69.9984 93.0664 70.2328 92.4141C70.4672 91.7578 70.807 91.2578 71.2523 90.9141C71.6977 90.5703 72.2289 90.3984 72.8461 90.3984C73.4633 90.3984 73.9945 90.5703 74.4398 90.9141C74.8852 91.2578 75.225 91.7578 75.4594 92.4141C75.6937 93.0664 75.8109 93.8477 75.8109 94.7578C75.8109 95.6797 75.6937 96.4668 75.4594 97.1191C75.2289 97.7715 74.891 98.2676 74.4457 98.6074C74.0004 98.9473 73.4672 99.1172 72.8461 99.1172ZM72.8461 98.1797C73.2523 98.1797 73.6 98.0469 73.8891 97.7812C74.1781 97.5156 74.3988 97.127 74.5512 96.6152C74.7035 96.1035 74.7797 95.4844 74.7797 94.7578C74.7797 94.0312 74.7035 93.4102 74.5512 92.8945C74.3988 92.3789 74.1781 91.9863 73.8891 91.7168C73.6 91.4473 73.2523 91.3125 72.8461 91.3125C72.4398 91.3125 72.0902 91.4473 71.7973 91.7168C71.5082 91.9863 71.2855 92.3789 71.1293 92.8945C70.977 93.4102 70.9008 94.0312 70.9008 94.7578C70.9008 95.4844 70.977 96.1035 71.1293 96.6152C71.2816 97.127 71.5023 97.5156 71.7914 97.7812C72.0844 98.0469 72.4359 98.1797 72.8461 98.1797ZM80.4172 99H79.3508V91.6172H79.3039L77.2414 92.9883V91.9219L79.3508 90.5156H80.4172V99ZM89.0906 99H88.0242V91.6172H87.9773L85.9148 92.9883V91.9219L88.0242 90.5156H89.0906V99ZM94.482 99.1172C93.9234 99.1172 93.4234 99.0234 92.982 98.8359C92.5445 98.6484 92.1969 98.3848 91.9391 98.0449C91.6852 97.7051 91.5484 97.3125 91.5289 96.8672H92.5953C92.6148 97.1289 92.7086 97.3594 92.8766 97.5586C93.0484 97.7578 93.273 97.9121 93.5504 98.0215C93.8277 98.127 94.1344 98.1797 94.4703 98.1797C94.8375 98.1797 95.1676 98.1172 95.4605 97.9922C95.7574 97.8633 95.9879 97.6875 96.152 97.4648C96.3199 97.2383 96.4039 96.9805 96.4039 96.6914C96.4039 96.3789 96.3219 96.1035 96.1578 95.8652C95.9977 95.627 95.7633 95.4414 95.4547 95.3086C95.1461 95.1758 94.775 95.1094 94.3414 95.1094H93.65V94.1836H94.3414C94.6813 94.1836 94.984 94.123 95.2496 94.002C95.5152 93.8809 95.7203 93.7109 95.8648 93.4922C96.0133 93.2734 96.0875 93.0195 96.0875 92.7305C96.0875 92.4531 96.0211 92.207 95.8883 91.9922C95.7594 91.7773 95.5758 91.6113 95.3375 91.4941C95.0992 91.373 94.8219 91.3125 94.5055 91.3125C94.2008 91.3125 93.9156 91.3672 93.65 91.4766C93.3844 91.5859 93.1676 91.7422 92.9996 91.9453C92.8316 92.1445 92.7398 92.3789 92.7242 92.6484H91.7047C91.7242 92.2109 91.8609 91.8223 92.1148 91.4824C92.3688 91.1387 92.7066 90.873 93.1285 90.6855C93.5504 90.4941 94.0133 90.3984 94.5172 90.3984C95.0406 90.3984 95.4977 90.502 95.8883 90.709C96.2828 90.9121 96.5855 91.1875 96.7965 91.5352C97.0074 91.8828 97.1109 92.2617 97.107 92.6719C97.1109 93.1484 96.984 93.5566 96.7262 93.8965C96.4684 94.2363 96.1148 94.4688 95.6656 94.5938V94.6523C96.0289 94.7109 96.3434 94.834 96.609 95.0215C96.8785 95.2051 97.0836 95.4414 97.2242 95.7305C97.3688 96.0156 97.4391 96.3359 97.4352 96.6914C97.4391 97.1484 97.3121 97.5625 97.0543 97.9336C96.7965 98.3008 96.441 98.5898 95.9879 98.8008C95.5387 99.0117 95.0367 99.1172 94.482 99.1172ZM99.8852 97.875C99.7484 97.875 99.6215 97.8418 99.5043 97.7754C99.391 97.7051 99.2992 97.6113 99.2289 97.4941C99.1625 97.377 99.1312 97.25 99.1352 97.1133C99.1312 96.9805 99.1625 96.8574 99.2289 96.7441C99.2992 96.627 99.391 96.5352 99.5043 96.4688C99.6215 96.3984 99.7484 96.3633 99.8852 96.3633C100.018 96.3633 100.141 96.3984 100.254 96.4688C100.371 96.5352 100.463 96.627 100.53 96.7441C100.6 96.8574 100.635 96.9805 100.635 97.1133C100.635 97.25 100.6 97.377 100.53 97.4941C100.463 97.6113 100.371 97.7051 100.254 97.7754C100.141 97.8418 100.018 97.875 99.8852 97.875ZM99.8852 93.1641C99.7484 93.1641 99.6215 93.1309 99.5043 93.0645C99.391 92.9941 99.2992 92.9004 99.2289 92.7832C99.1625 92.666 99.1312 92.5391 99.1352 92.4023C99.1312 92.2695 99.1625 92.1465 99.2289 92.0332C99.2992 91.916 99.391 91.8242 99.5043 91.7578C99.6215 91.6875 99.7484 91.6523 99.8852 91.6523C100.018 91.6523 100.141 91.6875 100.254 91.7578C100.371 91.8242 100.463 91.916 100.53 92.0332C100.6 92.1465 100.635 92.2695 100.635 92.4023C100.635 92.5391 100.6 92.666 100.53 92.7832C100.463 92.9004 100.371 92.9941 100.254 93.0645C100.141 93.1309 100.018 93.1641 99.8852 93.1641ZM105.183 99.1172C104.558 99.1172 104.023 98.9473 103.577 98.6074C103.136 98.2676 102.798 97.7715 102.564 97.1191C102.333 96.4668 102.218 95.6797 102.218 94.7578C102.218 93.8477 102.335 93.0664 102.57 92.4141C102.804 91.7578 103.144 91.2578 103.589 90.9141C104.034 90.5703 104.566 90.3984 105.183 90.3984C105.8 90.3984 106.331 90.5703 106.777 90.9141C107.222 91.2578 107.562 91.7578 107.796 92.4141C108.03 93.0664 108.148 93.8477 108.148 94.7578C108.148 95.6797 108.03 96.4668 107.796 97.1191C107.566 97.7715 107.228 98.2676 106.782 98.6074C106.337 98.9473 105.804 99.1172 105.183 99.1172ZM105.183 98.1797C105.589 98.1797 105.937 98.0469 106.226 97.7812C106.515 97.5156 106.736 97.127 106.888 96.6152C107.04 96.1035 107.116 95.4844 107.116 94.7578C107.116 94.0312 107.04 93.4102 106.888 92.8945C106.736 92.3789 106.515 91.9863 106.226 91.7168C105.937 91.4473 105.589 91.3125 105.183 91.3125C104.777 91.3125 104.427 91.4473 104.134 91.7168C103.845 91.9863 103.622 92.3789 103.466 92.8945C103.314 93.4102 103.238 94.0312 103.238 94.7578C103.238 95.4844 103.314 96.1035 103.466 96.6152C103.618 97.127 103.839 97.5156 104.128 97.7812C104.421 98.0469 104.773 98.1797 105.183 98.1797ZM112.531 99.1172C111.906 99.1172 111.371 98.9473 110.926 98.6074C110.484 98.2676 110.146 97.7715 109.912 97.1191C109.682 96.4668 109.566 95.6797 109.566 94.7578C109.566 93.8477 109.684 93.0664 109.918 92.4141C110.152 91.7578 110.492 91.2578 110.938 90.9141C111.383 90.5703 111.914 90.3984 112.531 90.3984C113.148 90.3984 113.68 90.5703 114.125 90.9141C114.57 91.2578 114.91 91.7578 115.145 92.4141C115.379 93.0664 115.496 93.8477 115.496 94.7578C115.496 95.6797 115.379 96.4668 115.145 97.1191C114.914 97.7715 114.576 98.2676 114.131 98.6074C113.686 98.9473 113.152 99.1172 112.531 99.1172ZM112.531 98.1797C112.938 98.1797 113.285 98.0469 113.574 97.7812C113.863 97.5156 114.084 97.127 114.236 96.6152C114.389 96.1035 114.465 95.4844 114.465 94.7578C114.465 94.0312 114.389 93.4102 114.236 92.8945C114.084 92.3789 113.863 91.9863 113.574 91.7168C113.285 91.4473 112.938 91.3125 112.531 91.3125C112.125 91.3125 111.775 91.4473 111.482 91.7168C111.193 91.9863 110.971 92.3789 110.814 92.8945C110.662 93.4102 110.586 94.0312 110.586 94.7578C110.586 95.4844 110.662 96.1035 110.814 96.6152C110.967 97.127 111.188 97.5156 111.477 97.7812C111.77 98.0469 112.121 98.1797 112.531 98.1797ZM120.806 90.1523H123.291V90.9844H121.755V100.547H123.291V101.391H120.806V90.1523ZM131.483 99H130.475L125.881 92.3906H125.799V99H124.745V90.5156H125.764L130.358 97.1367H130.44V90.5156H131.483V99ZM133.558 90.5156H136.441C137.085 90.5156 137.624 90.627 138.058 90.8496C138.491 91.0684 138.812 91.375 139.019 91.7695C139.23 92.1602 139.335 92.6133 139.335 93.1289C139.335 93.7031 139.202 94.1973 138.937 94.6113C138.675 95.0254 138.28 95.3242 137.753 95.5078L139.663 99H138.433L136.657 95.7012L136.452 95.707H134.613V99H133.558V90.5156ZM136.405 94.7461C137.058 94.7461 137.534 94.6074 137.835 94.3301C138.14 94.0527 138.292 93.6523 138.292 93.1289C138.292 92.5977 138.14 92.1855 137.835 91.8926C137.53 91.5996 137.05 91.4531 136.394 91.4531H134.613V94.7461H136.405ZM140.59 90.5156H146.988V91.4531H144.328V99H143.262V91.4531H140.59V90.5156ZM151.337 90.5156H157.736V91.4531H155.076V99H154.009V91.4531H151.337V90.5156ZM162.202 99H161.135V91.6172H161.088L159.026 92.9883V91.9219L161.135 90.5156H162.202V99ZM164.183 101.391V100.547H165.718V90.9844H164.183V90.1523H166.667V101.391H164.183Z" fill="#888882"/>
<path id="&#226;&#134;&#147;" d="M92.4629 112.289L95.0645 109.688L95.7324 110.332L92.0059 114.047L88.2793 110.332L88.9238 109.688L91.5371 112.289V105.516H92.4629V112.289Z" fill="#888882"/>
<path id="2026.05.03 11:00 [NRT T1]" d="M20.7852 129.227L23.6797 126.18C24.0625 125.777 24.3535 125.453 24.5527 125.207C24.7559 124.957 24.9082 124.717 25.0098 124.486C25.1152 124.252 25.168 124.008 25.168 123.754C25.168 123.473 25.0938 123.223 24.9453 123.004C24.7969 122.785 24.5938 122.615 24.3359 122.494C24.082 122.373 23.7969 122.312 23.4805 122.312C23.1484 122.312 22.8574 122.379 22.6074 122.512C22.3574 122.645 22.1641 122.832 22.0273 123.074C21.8945 123.316 21.8281 123.594 21.8281 123.906H20.832C20.8281 123.414 20.9414 122.979 21.1719 122.6C21.4062 122.221 21.7285 121.926 22.1387 121.715C22.5488 121.504 23.0078 121.398 23.5156 121.398C24.0195 121.398 24.4707 121.502 24.8691 121.709C25.2715 121.916 25.5859 122.199 25.8125 122.559C26.0391 122.918 26.1523 123.316 26.1523 123.754C26.1523 124.078 26.0938 124.389 25.9766 124.686C25.8594 124.979 25.6621 125.305 25.3848 125.664C25.1113 126.02 24.7188 126.461 24.207 126.988L22.2617 128.992V129.062H26.3047V130H20.7969L20.7852 129.227ZM30.8172 130.117C30.1922 130.117 29.657 129.947 29.2117 129.607C28.7703 129.268 28.4324 128.771 28.198 128.119C27.9676 127.467 27.8523 126.68 27.8523 125.758C27.8523 124.848 27.9695 124.066 28.2039 123.414C28.4383 122.758 28.7781 122.258 29.2234 121.914C29.6687 121.57 30.2 121.398 30.8172 121.398C31.4344 121.398 31.9656 121.57 32.4109 121.914C32.8562 122.258 33.1961 122.758 33.4305 123.414C33.6648 124.066 33.782 124.848 33.782 125.758C33.782 126.68 33.6648 127.467 33.4305 128.119C33.2 128.771 32.8621 129.268 32.4168 129.607C31.9715 129.947 31.4383 130.117 30.8172 130.117ZM30.8172 129.18C31.2234 129.18 31.5711 129.047 31.8602 128.781C32.1492 128.516 32.3699 128.127 32.5223 127.615C32.6746 127.104 32.7508 126.484 32.7508 125.758C32.7508 125.031 32.6746 124.41 32.5223 123.895C32.3699 123.379 32.1492 122.986 31.8602 122.717C31.5711 122.447 31.2234 122.312 30.8172 122.312C30.4109 122.312 30.0613 122.447 29.7684 122.717C29.4793 122.986 29.2566 123.379 29.1004 123.895C28.948 124.41 28.8719 125.031 28.8719 125.758C28.8719 126.484 28.948 127.104 29.1004 127.615C29.2527 128.127 29.4734 128.516 29.7625 128.781C30.0555 129.047 30.407 129.18 30.8172 129.18ZM35.3766 129.227L38.2711 126.18C38.6539 125.777 38.9449 125.453 39.1441 125.207C39.3473 124.957 39.4996 124.717 39.6012 124.486C39.7066 124.252 39.7594 124.008 39.7594 123.754C39.7594 123.473 39.6852 123.223 39.5367 123.004C39.3883 122.785 39.1852 122.615 38.9273 122.494C38.6734 122.373 38.3883 122.312 38.0719 122.312C37.7398 122.312 37.4488 122.379 37.1988 122.512C36.9488 122.645 36.7555 122.832 36.6187 123.074C36.4859 123.316 36.4195 123.594 36.4195 123.906H35.4234C35.4195 123.414 35.5328 122.979 35.7633 122.6C35.9977 122.221 36.3199 121.926 36.7301 121.715C37.1402 121.504 37.5992 121.398 38.107 121.398C38.6109 121.398 39.0621 121.502 39.4605 121.709C39.8629 121.916 40.1773 122.199 40.4039 122.559C40.6305 122.918 40.7437 123.316 40.7437 123.754C40.7437 124.078 40.6852 124.389 40.568 124.686C40.4508 124.979 40.2535 125.305 39.9762 125.664C39.7027 126.02 39.3102 126.461 38.7984 126.988L36.8531 128.992V129.062H40.8961V130H35.3883L35.3766 129.227ZM45.6078 130.117C45.0609 130.117 44.5531 129.994 44.0844 129.748C43.6195 129.498 43.2367 129.074 42.9359 128.477C42.6391 127.875 42.4906 127.078 42.4906 126.086C42.4906 125.098 42.6195 124.252 42.8773 123.549C43.1391 122.846 43.5102 122.312 43.9906 121.949C44.475 121.582 45.0492 121.398 45.7133 121.398C46.2016 121.398 46.6391 121.492 47.0258 121.68C47.4164 121.867 47.7348 122.131 47.9809 122.471C48.2309 122.811 48.393 123.203 48.4672 123.648H47.4242C47.3188 123.254 47.1195 122.938 46.8266 122.699C46.5375 122.457 46.1664 122.336 45.7133 122.336C45.2523 122.336 44.8539 122.465 44.518 122.723C44.1859 122.977 43.9301 123.346 43.7504 123.83C43.5746 124.314 43.4867 124.895 43.4867 125.57H43.5922C43.8422 125.215 44.1547 124.939 44.5297 124.744C44.9047 124.545 45.3188 124.445 45.7719 124.445C46.2719 124.445 46.7328 124.566 47.1547 124.809C47.5805 125.051 47.9164 125.387 48.1625 125.816C48.4125 126.242 48.5375 126.723 48.5375 127.258C48.5375 127.785 48.4145 128.268 48.1684 128.705C47.9262 129.139 47.5824 129.482 47.1371 129.736C46.6918 129.99 46.182 130.117 45.6078 130.117ZM45.5844 129.191C45.9438 129.191 46.2699 129.105 46.5629 128.934C46.8559 128.762 47.0863 128.529 47.2543 128.236C47.4262 127.939 47.5141 127.617 47.518 127.27C47.5141 126.922 47.4301 126.604 47.266 126.314C47.102 126.025 46.8754 125.797 46.5863 125.629C46.2973 125.457 45.9711 125.371 45.6078 125.371C45.2445 125.371 44.9125 125.459 44.6117 125.635C44.3109 125.811 44.0727 126.047 43.8969 126.344C43.7211 126.637 43.6313 126.949 43.6273 127.281C43.6273 127.613 43.7113 127.926 43.8793 128.219C44.0512 128.512 44.2855 128.748 44.5824 128.928C44.8832 129.104 45.2172 129.191 45.5844 129.191ZM50.5187 130.07C50.382 130.07 50.2551 130.037 50.1379 129.971C50.0246 129.9 49.9328 129.807 49.8625 129.689C49.7961 129.572 49.7648 129.445 49.7687 129.309C49.7648 129.176 49.7961 129.053 49.8625 128.939C49.9328 128.822 50.0246 128.73 50.1379 128.664C50.2551 128.594 50.382 128.559 50.5187 128.559C50.6516 128.559 50.7746 128.594 50.8879 128.664C51.0051 128.73 51.0969 128.822 51.1633 128.939C51.2336 129.053 51.2687 129.176 51.2687 129.309C51.2687 129.445 51.2336 129.572 51.1633 129.689C51.0969 129.807 51.0051 129.9 50.8879 129.971C50.7746 130.037 50.6516 130.07 50.5187 130.07ZM55.5117 130.117C54.8867 130.117 54.3516 129.947 53.9062 129.607C53.4648 129.268 53.127 128.771 52.8926 128.119C52.6621 127.467 52.5469 126.68 52.5469 125.758C52.5469 124.848 52.6641 124.066 52.8984 123.414C53.1328 122.758 53.4727 122.258 53.918 121.914C54.3633 121.57 54.8945 121.398 55.5117 121.398C56.1289 121.398 56.6602 121.57 57.1055 121.914C57.5508 122.258 57.8906 122.758 58.125 123.414C58.3594 124.066 58.4766 124.848 58.4766 125.758C58.4766 126.68 58.3594 127.467 58.125 128.119C57.8945 128.771 57.5566 129.268 57.1113 129.607C56.666 129.947 56.1328 130.117 55.5117 130.117ZM55.5117 129.18C55.918 129.18 56.2656 129.047 56.5547 128.781C56.8438 128.516 57.0645 128.127 57.2168 127.615C57.3691 127.104 57.4453 126.484 57.4453 125.758C57.4453 125.031 57.3691 124.41 57.2168 123.895C57.0645 123.379 56.8438 122.986 56.5547 122.717C56.2656 122.447 55.918 122.312 55.5117 122.312C55.1055 122.312 54.7559 122.447 54.4629 122.717C54.1738 122.986 53.9512 123.379 53.7949 123.895C53.6426 124.41 53.5664 125.031 53.5664 125.758C53.5664 126.484 53.6426 127.104 53.7949 127.615C53.9473 128.127 54.168 128.516 54.457 128.781C54.75 129.047 55.1016 129.18 55.5117 129.18ZM62.8484 130.117C62.3445 130.117 61.8855 130.021 61.4715 129.83C61.0613 129.635 60.7332 129.367 60.4871 129.027C60.2449 128.684 60.1141 128.297 60.0945 127.867H61.1141C61.1414 128.117 61.2352 128.344 61.3953 128.547C61.5555 128.746 61.7625 128.904 62.0164 129.021C62.2703 129.135 62.5477 129.191 62.8484 129.191C63.2078 129.191 63.532 129.109 63.8211 128.945C64.1102 128.781 64.3367 128.557 64.5008 128.271C64.6648 127.986 64.7469 127.668 64.7469 127.316C64.7469 126.953 64.6609 126.627 64.4891 126.338C64.3211 126.045 64.0867 125.816 63.7859 125.652C63.4891 125.484 63.1531 125.398 62.7781 125.395C62.0242 125.383 61.4969 125.637 61.1961 126.156H60.1766L60.7742 121.516H65.368V122.453H61.6531L61.3367 124.938H61.4188C61.6102 124.789 61.8426 124.67 62.116 124.58C62.3895 124.49 62.6727 124.445 62.9656 124.445C63.4969 124.445 63.9754 124.568 64.4012 124.814C64.8309 125.057 65.1668 125.395 65.409 125.828C65.6551 126.262 65.7781 126.75 65.7781 127.293C65.7781 127.832 65.6512 128.316 65.3973 128.746C65.1434 129.176 64.7938 129.512 64.3484 129.754C63.9031 129.996 63.4031 130.117 62.8484 130.117ZM67.8531 130.07C67.7164 130.07 67.5895 130.037 67.4723 129.971C67.359 129.9 67.2672 129.807 67.1969 129.689C67.1305 129.572 67.0992 129.445 67.1031 129.309C67.0992 129.176 67.1305 129.053 67.1969 128.939C67.2672 128.822 67.359 128.73 67.4723 128.664C67.5895 128.594 67.7164 128.559 67.8531 128.559C67.9859 128.559 68.109 128.594 68.2223 128.664C68.3395 128.73 68.4313 128.822 68.4977 128.939C68.568 129.053 68.6031 129.176 68.6031 129.309C68.6031 129.445 68.568 129.572 68.4977 129.689C68.4313 129.807 68.3395 129.9 68.2223 129.971C68.109 130.037 67.9859 130.07 67.8531 130.07ZM72.8461 130.117C72.2211 130.117 71.6859 129.947 71.2406 129.607C70.7992 129.268 70.4613 128.771 70.227 128.119C69.9965 127.467 69.8812 126.68 69.8812 125.758C69.8812 124.848 69.9984 124.066 70.2328 123.414C70.4672 122.758 70.807 122.258 71.2523 121.914C71.6977 121.57 72.2289 121.398 72.8461 121.398C73.4633 121.398 73.9945 121.57 74.4398 121.914C74.8852 122.258 75.225 122.758 75.4594 123.414C75.6937 124.066 75.8109 124.848 75.8109 125.758C75.8109 126.68 75.6937 127.467 75.4594 128.119C75.2289 128.771 74.891 129.268 74.4457 129.607C74.0004 129.947 73.4672 130.117 72.8461 130.117ZM72.8461 129.18C73.2523 129.18 73.6 129.047 73.8891 128.781C74.1781 128.516 74.3988 128.127 74.5512 127.615C74.7035 127.104 74.7797 126.484 74.7797 125.758C74.7797 125.031 74.7035 124.41 74.5512 123.895C74.3988 123.379 74.1781 122.986 73.8891 122.717C73.6 122.447 73.2523 122.312 72.8461 122.312C72.4398 122.312 72.0902 122.447 71.7973 122.717C71.5082 122.986 71.2855 123.379 71.1293 123.895C70.977 124.41 70.9008 125.031 70.9008 125.758C70.9008 126.484 70.977 127.104 71.1293 127.615C71.2816 128.127 71.5023 128.516 71.7914 128.781C72.0844 129.047 72.4359 129.18 72.8461 129.18ZM80.3469 130.117C79.7883 130.117 79.2883 130.023 78.8469 129.836C78.4094 129.648 78.0617 129.385 77.8039 129.045C77.55 128.705 77.4133 128.312 77.3937 127.867H78.4602C78.4797 128.129 78.5734 128.359 78.7414 128.559C78.9133 128.758 79.1379 128.912 79.4152 129.021C79.6926 129.127 79.9992 129.18 80.3352 129.18C80.7023 129.18 81.0324 129.117 81.3254 128.992C81.6223 128.863 81.8527 128.688 82.0168 128.465C82.1848 128.238 82.2687 127.98 82.2687 127.691C82.2687 127.379 82.1867 127.104 82.0227 126.865C81.8625 126.627 81.6281 126.441 81.3195 126.309C81.0109 126.176 80.6398 126.109 80.2062 126.109H79.5148V125.184H80.2062C80.5461 125.184 80.8488 125.123 81.1145 125.002C81.3801 124.881 81.5852 124.711 81.7297 124.492C81.8781 124.273 81.9523 124.02 81.9523 123.73C81.9523 123.453 81.8859 123.207 81.7531 122.992C81.6242 122.777 81.4406 122.611 81.2023 122.494C80.9641 122.373 80.6867 122.312 80.3703 122.312C80.0656 122.312 79.7805 122.367 79.5148 122.477C79.2492 122.586 79.0324 122.742 78.8645 122.945C78.6965 123.145 78.6047 123.379 78.5891 123.648H77.5695C77.5891 123.211 77.7258 122.822 77.9797 122.482C78.2336 122.139 78.5715 121.873 78.9934 121.686C79.4152 121.494 79.8781 121.398 80.382 121.398C80.9055 121.398 81.3625 121.502 81.7531 121.709C82.1477 121.912 82.4504 122.188 82.6613 122.535C82.8723 122.883 82.9758 123.262 82.9719 123.672C82.9758 124.148 82.8488 124.557 82.591 124.896C82.3332 125.236 81.9797 125.469 81.5305 125.594V125.652C81.8937 125.711 82.2082 125.834 82.4738 126.021C82.7434 126.205 82.9484 126.441 83.0891 126.73C83.2336 127.016 83.3039 127.336 83.3 127.691C83.3039 128.148 83.177 128.562 82.9191 128.934C82.6613 129.301 82.3059 129.59 81.8527 129.801C81.4035 130.012 80.9016 130.117 80.3469 130.117ZM91.2352 130H90.1687V122.617H90.1219L88.0594 123.988V122.922L90.1687 121.516H91.2352V130ZM96.6969 130H95.6305V122.617H95.5836L93.5211 123.988V122.922L95.6305 121.516H96.6969V130ZM99.8852 128.875C99.7484 128.875 99.6215 128.842 99.5043 128.775C99.391 128.705 99.2992 128.611 99.2289 128.494C99.1625 128.377 99.1312 128.25 99.1352 128.113C99.1312 127.98 99.1625 127.857 99.2289 127.744C99.2992 127.627 99.391 127.535 99.5043 127.469C99.6215 127.398 99.7484 127.363 99.8852 127.363C100.018 127.363 100.141 127.398 100.254 127.469C100.371 127.535 100.463 127.627 100.53 127.744C100.6 127.857 100.635 127.98 100.635 128.113C100.635 128.25 100.6 128.377 100.53 128.494C100.463 128.611 100.371 128.705 100.254 128.775C100.141 128.842 100.018 128.875 99.8852 128.875ZM99.8852 124.164C99.7484 124.164 99.6215 124.131 99.5043 124.064C99.391 123.994 99.2992 123.9 99.2289 123.783C99.1625 123.666 99.1312 123.539 99.1352 123.402C99.1312 123.27 99.1625 123.146 99.2289 123.033C99.2992 122.916 99.391 122.824 99.5043 122.758C99.6215 122.688 99.7484 122.652 99.8852 122.652C100.018 122.652 100.141 122.688 100.254 122.758C100.371 122.824 100.463 122.916 100.53 123.033C100.6 123.146 100.635 123.27 100.635 123.402C100.635 123.539 100.6 123.666 100.53 123.783C100.463 123.9 100.371 123.994 100.254 124.064C100.141 124.131 100.018 124.164 99.8852 124.164ZM105.183 130.117C104.558 130.117 104.023 129.947 103.577 129.607C103.136 129.268 102.798 128.771 102.564 128.119C102.333 127.467 102.218 126.68 102.218 125.758C102.218 124.848 102.335 124.066 102.57 123.414C102.804 122.758 103.144 122.258 103.589 121.914C104.034 121.57 104.566 121.398 105.183 121.398C105.8 121.398 106.331 121.57 106.777 121.914C107.222 122.258 107.562 122.758 107.796 123.414C108.03 124.066 108.148 124.848 108.148 125.758C108.148 126.68 108.03 127.467 107.796 128.119C107.566 128.771 107.228 129.268 106.782 129.607C106.337 129.947 105.804 130.117 105.183 130.117ZM105.183 129.18C105.589 129.18 105.937 129.047 106.226 128.781C106.515 128.516 106.736 128.127 106.888 127.615C107.04 127.104 107.116 126.484 107.116 125.758C107.116 125.031 107.04 124.41 106.888 123.895C106.736 123.379 106.515 122.986 106.226 122.717C105.937 122.447 105.589 122.312 105.183 122.312C104.777 122.312 104.427 122.447 104.134 122.717C103.845 122.986 103.622 123.379 103.466 123.895C103.314 124.41 103.238 125.031 103.238 125.758C103.238 126.484 103.314 127.104 103.466 127.615C103.618 128.127 103.839 128.516 104.128 128.781C104.421 129.047 104.773 129.18 105.183 129.18ZM112.531 130.117C111.906 130.117 111.371 129.947 110.926 129.607C110.484 129.268 110.146 128.771 109.912 128.119C109.682 127.467 109.566 126.68 109.566 125.758C109.566 124.848 109.684 124.066 109.918 123.414C110.152 122.758 110.492 122.258 110.938 121.914C111.383 121.57 111.914 121.398 112.531 121.398C113.148 121.398 113.68 121.57 114.125 121.914C114.57 122.258 114.91 122.758 115.145 123.414C115.379 124.066 115.496 124.848 115.496 125.758C115.496 126.68 115.379 127.467 115.145 128.119C114.914 128.771 114.576 129.268 114.131 129.607C113.686 129.947 113.152 130.117 112.531 130.117ZM112.531 129.18C112.938 129.18 113.285 129.047 113.574 128.781C113.863 128.516 114.084 128.127 114.236 127.615C114.389 127.104 114.465 126.484 114.465 125.758C114.465 125.031 114.389 124.41 114.236 123.895C114.084 123.379 113.863 122.986 113.574 122.717C113.285 122.447 112.938 122.312 112.531 122.312C112.125 122.312 111.775 122.447 111.482 122.717C111.193 122.986 110.971 123.379 110.814 123.895C110.662 124.41 110.586 125.031 110.586 125.758C110.586 126.484 110.662 127.104 110.814 127.615C110.967 128.127 111.188 128.516 111.477 128.781C111.77 129.047 112.121 129.18 112.531 129.18ZM120.806 121.152H123.291V121.984H121.755V131.547H123.291V132.391H120.806V121.152ZM131.483 130H130.475L125.881 123.391H125.799V130H124.745V121.516H125.764L130.358 128.137H130.44V121.516H131.483V130ZM133.558 121.516H136.441C137.085 121.516 137.624 121.627 138.058 121.85C138.491 122.068 138.812 122.375 139.019 122.77C139.23 123.16 139.335 123.613 139.335 124.129C139.335 124.703 139.202 125.197 138.937 125.611C138.675 126.025 138.28 126.324 137.753 126.508L139.663 130H138.433L136.657 126.701L136.452 126.707H134.613V130H133.558V121.516ZM136.405 125.746C137.058 125.746 137.534 125.607 137.835 125.33C138.14 125.053 138.292 124.652 138.292 124.129C138.292 123.598 138.14 123.186 137.835 122.893C137.53 122.6 137.05 122.453 136.394 122.453H134.613V125.746H136.405ZM140.59 121.516H146.988V122.453H144.328V130H143.262V122.453H140.59V121.516ZM151.337 121.516H157.736V122.453H155.076V130H154.009V122.453H151.337V121.516ZM162.202 130H161.135V122.617H161.088L159.026 123.988V122.922L161.135 121.516H162.202V130ZM164.183 132.391V131.547H165.718V121.984H164.183V121.152H166.667V132.391H164.183Z" fill="#888882"/>
</g>
</g>
<line id="Line 6" x1="20" y1="138.5" x2="325" y2="138.5" stroke="#888882"/>
<g id="3">
<g id="Frame 108">
<g id="&#226;&#130;&#169;85,000">
<path d="M21.9844 158.047H20.2969V156.625H21.6328L20.4062 151.688H22.3281L23.4297 156.625H25.1875L26.375 151.688H28.2344L29.4219 156.625H31.1953L32.2969 151.688H34.2031L32.9766 156.625H34.3125V158.047H32.625L31.3906 163H29.3906L28.1719 158.047H26.4375L25.2188 163H23.2188L21.9844 158.047ZM24.2188 160.188H24.3281L24.8438 158.047H23.7422L24.2188 160.188ZM27.8281 156.625L27.3438 154.656H27.2656L26.7812 156.625H27.8281ZM30.2812 160.203H30.3906L30.875 158.047H29.7656L30.2812 160.203ZM39.3562 163.156C38.5281 163.156 37.7885 163.021 37.1375 162.75C36.4865 162.474 35.976 162.094 35.6062 161.609C35.2417 161.125 35.0594 160.578 35.0594 159.969C35.0594 159.5 35.1661 159.062 35.3797 158.656C35.5932 158.25 35.8849 157.914 36.2547 157.648C36.6245 157.383 37.0333 157.214 37.4812 157.141V157.078C37.0906 156.995 36.7443 156.833 36.4422 156.594C36.1401 156.354 35.9031 156.057 35.7312 155.703C35.5646 155.349 35.4812 154.969 35.4812 154.562C35.4812 153.984 35.6479 153.466 35.9812 153.008C36.3146 152.544 36.7755 152.182 37.3641 151.922C37.9578 151.661 38.6219 151.531 39.3562 151.531C40.0854 151.531 40.7443 151.661 41.3328 151.922C41.9214 152.182 42.3823 152.544 42.7156 153.008C43.049 153.471 43.2156 153.99 43.2156 154.562C43.2156 154.969 43.1297 155.349 42.9578 155.703C42.7911 156.057 42.5542 156.354 42.2469 156.594C41.9448 156.833 41.601 156.995 41.2156 157.078V157.141C41.6687 157.214 42.0802 157.383 42.45 157.648C42.8198 157.914 43.1115 158.25 43.325 158.656C43.5437 159.062 43.6531 159.5 43.6531 159.969C43.6531 160.578 43.4682 161.125 43.0984 161.609C42.7339 162.094 42.2234 162.474 41.5672 162.75C40.9161 163.021 40.1792 163.156 39.3562 163.156ZM39.3562 161.547C39.7937 161.547 40.1792 161.474 40.5125 161.328C40.8458 161.177 41.1036 160.969 41.2859 160.703C41.4682 160.432 41.5594 160.125 41.5594 159.781C41.5594 159.432 41.463 159.117 41.2703 158.836C41.0828 158.555 40.8198 158.336 40.4812 158.18C40.1479 158.018 39.7729 157.938 39.3562 157.938C38.9344 157.938 38.5542 158.018 38.2156 158.18C37.8823 158.336 37.6193 158.555 37.4266 158.836C37.2391 159.117 37.1479 159.432 37.1531 159.781C37.1479 160.125 37.2339 160.432 37.4109 160.703C37.5932 160.969 37.851 161.177 38.1844 161.328C38.5229 161.474 38.9135 161.547 39.3562 161.547ZM39.3562 156.422C39.7156 156.422 40.0385 156.352 40.325 156.211C40.6115 156.07 40.8328 155.872 40.9891 155.617C41.1505 155.362 41.2312 155.073 41.2312 154.75C41.2312 154.438 41.1505 154.159 40.9891 153.914C40.8328 153.664 40.6115 153.471 40.325 153.336C40.0437 153.195 39.7208 153.125 39.3562 153.125C38.9865 153.125 38.6583 153.193 38.3719 153.328C38.0854 153.464 37.8615 153.656 37.7 153.906C37.5437 154.151 37.4656 154.432 37.4656 154.75C37.4656 155.073 37.5464 155.362 37.7078 155.617C37.8693 155.872 38.0932 156.07 38.3797 156.211C38.6661 156.352 38.9917 156.422 39.3562 156.422ZM49.0562 163.156C48.3115 163.156 47.6396 163.018 47.0406 162.742C46.4417 162.466 45.9677 162.086 45.6187 161.602C45.275 161.112 45.0927 160.557 45.0719 159.938H47.0562C47.0771 160.24 47.176 160.51 47.3531 160.75C47.5354 160.99 47.775 161.177 48.0719 161.312C48.374 161.448 48.7021 161.516 49.0562 161.516C49.4729 161.516 49.8453 161.422 50.1734 161.234C50.5068 161.047 50.7646 160.789 50.9469 160.461C51.1344 160.128 51.2281 159.755 51.2281 159.344C51.2281 158.917 51.1318 158.536 50.9391 158.203C50.7464 157.865 50.4807 157.602 50.1422 157.414C49.8036 157.221 49.4208 157.125 48.9937 157.125C48.0979 157.109 47.4729 157.432 47.1187 158.094H45.2281L45.9156 151.688H52.6031V153.391H47.5875L47.2437 156.391H47.3531C47.5771 156.135 47.8844 155.93 48.275 155.773C48.6656 155.612 49.0875 155.531 49.5406 155.531C50.2333 155.531 50.8583 155.693 51.4156 156.016C51.9729 156.339 52.4078 156.786 52.7203 157.359C53.038 157.927 53.1969 158.568 53.1969 159.281C53.1969 160.026 53.0198 160.693 52.6656 161.281C52.3167 161.87 51.8271 162.331 51.1969 162.664C50.5719 162.992 49.8583 163.156 49.0562 163.156ZM55.2094 166.266H53.725L54.5375 161.891H56.5219L55.2094 166.266ZM62.0969 163.156C61.1906 163.156 60.412 162.93 59.7609 162.477C59.1151 162.018 58.6177 161.354 58.2687 160.484C57.925 159.615 57.7531 158.568 57.7531 157.344C57.7531 156.125 57.925 155.081 58.2687 154.211C58.6177 153.336 59.1177 152.672 59.7687 152.219C60.4198 151.76 61.1958 151.531 62.0969 151.531C62.9927 151.531 63.7661 151.76 64.4172 152.219C65.0734 152.672 65.5734 153.336 65.9172 154.211C66.2661 155.081 66.4406 156.125 66.4406 157.344C66.4406 158.568 66.2661 159.615 65.9172 160.484C65.5734 161.354 65.076 162.018 64.425 162.477C63.7792 162.93 63.0031 163.156 62.0969 163.156ZM62.0969 161.453C62.576 161.453 62.9849 161.299 63.3234 160.992C63.6672 160.68 63.9302 160.219 64.1125 159.609C64.3 158.995 64.3937 158.24 64.3937 157.344C64.3937 156.458 64.3 155.708 64.1125 155.094C63.9302 154.474 63.6672 154.008 63.3234 153.695C62.9797 153.378 62.5708 153.219 62.0969 153.219C61.6229 153.219 61.2141 153.378 60.8703 153.695C60.5266 154.008 60.2609 154.474 60.0734 155.094C59.8911 155.708 59.8 156.458 59.8 157.344C59.8 158.24 59.8911 158.995 60.0734 159.609C60.2609 160.219 60.524 160.68 60.8625 160.992C61.2062 161.299 61.6177 161.453 62.0969 161.453ZM72.0156 163.156C71.1094 163.156 70.3307 162.93 69.6797 162.477C69.0339 162.018 68.5365 161.354 68.1875 160.484C67.8438 159.615 67.6719 158.568 67.6719 157.344C67.6719 156.125 67.8438 155.081 68.1875 154.211C68.5365 153.336 69.0365 152.672 69.6875 152.219C70.3385 151.76 71.1146 151.531 72.0156 151.531C72.9115 151.531 73.6849 151.76 74.3359 152.219C74.9922 152.672 75.4922 153.336 75.8359 154.211C76.1849 155.081 76.3594 156.125 76.3594 157.344C76.3594 158.568 76.1849 159.615 75.8359 160.484C75.4922 161.354 74.9948 162.018 74.3438 162.477C73.6979 162.93 72.9219 163.156 72.0156 163.156ZM72.0156 161.453C72.4948 161.453 72.9036 161.299 73.2422 160.992C73.5859 160.68 73.849 160.219 74.0312 159.609C74.2188 158.995 74.3125 158.24 74.3125 157.344C74.3125 156.458 74.2188 155.708 74.0312 155.094C73.849 154.474 73.5859 154.008 73.2422 153.695C72.8984 153.378 72.4896 153.219 72.0156 153.219C71.5417 153.219 71.1328 153.378 70.7891 153.695C70.4453 154.008 70.1797 154.474 69.9922 155.094C69.8099 155.708 69.7188 156.458 69.7188 157.344C69.7188 158.24 69.8099 158.995 69.9922 159.609C70.1797 160.219 70.4427 160.68 70.7812 160.992C71.125 161.299 71.5365 161.453 72.0156 161.453ZM81.9344 163.156C81.0281 163.156 80.2495 162.93 79.5984 162.477C78.9526 162.018 78.4552 161.354 78.1063 160.484C77.7625 159.615 77.5906 158.568 77.5906 157.344C77.5906 156.125 77.7625 155.081 78.1063 154.211C78.4552 153.336 78.9552 152.672 79.6063 152.219C80.2573 151.76 81.0333 151.531 81.9344 151.531C82.8302 151.531 83.6036 151.76 84.2547 152.219C84.9109 152.672 85.4109 153.336 85.7547 154.211C86.1036 155.081 86.2781 156.125 86.2781 157.344C86.2781 158.568 86.1036 159.615 85.7547 160.484C85.4109 161.354 84.9135 162.018 84.2625 162.477C83.6167 162.93 82.8406 163.156 81.9344 163.156ZM81.9344 161.453C82.4135 161.453 82.8224 161.299 83.1609 160.992C83.5047 160.68 83.7677 160.219 83.95 159.609C84.1375 158.995 84.2313 158.24 84.2313 157.344C84.2313 156.458 84.1375 155.708 83.95 155.094C83.7677 154.474 83.5047 154.008 83.1609 153.695C82.8172 153.378 82.4083 153.219 81.9344 153.219C81.4604 153.219 81.0516 153.378 80.7078 153.695C80.3641 154.008 80.0984 154.474 79.9109 155.094C79.7286 155.708 79.6375 156.458 79.6375 157.344C79.6375 158.24 79.7286 158.995 79.9109 159.609C80.0984 160.219 80.3615 160.68 80.7 160.992C81.0438 161.299 81.4552 161.453 81.9344 161.453Z" fill="#E8635A"/>
<path d="M20 157.906H87.0437V159.25H20V157.906Z" fill="#E8635A"/>
</g>
<path id="&#236;&#152;&#136;&#236;&#149;&#189;&#235;&#178;&#136;&#237;&#152;&#184;: CR11223344" d="M28.6367 184.913H27.6592V175.288H28.6367V184.913ZM26.7031 184.44H25.7363V181.336H24.3398C24.168 181.819 23.9263 182.192 23.6147 182.453C23.3032 182.715 22.9434 182.843 22.5352 182.84C22.1198 182.843 21.7546 182.707 21.4395 182.432C21.1279 182.156 20.8862 181.762 20.7144 181.25C20.5461 180.734 20.4619 180.133 20.4619 179.445C20.4619 178.758 20.5461 178.158 20.7144 177.646C20.8862 177.134 21.1279 176.742 21.4395 176.47C21.7546 176.194 22.1198 176.058 22.5352 176.062C22.9434 176.058 23.3014 176.187 23.6094 176.448C23.9209 176.706 24.1644 177.075 24.3398 177.555H25.7363V175.471H26.7031V184.44ZM22.5352 177.018C22.2988 177.018 22.0947 177.114 21.9229 177.308C21.7546 177.497 21.6239 177.775 21.5308 178.14C21.4412 178.502 21.3965 178.937 21.3965 179.445C21.3965 179.954 21.4412 180.391 21.5308 180.756C21.6239 181.118 21.7546 181.395 21.9229 181.588C22.0947 181.778 22.2988 181.873 22.5352 181.873C22.7715 181.873 22.9756 181.778 23.1475 181.588C23.3229 181.395 23.4572 181.116 23.5503 180.75C23.647 180.385 23.6953 179.95 23.6953 179.445C23.6953 178.94 23.647 178.505 23.5503 178.14C23.4572 177.775 23.3229 177.497 23.1475 177.308C22.9756 177.114 22.7715 177.018 22.5352 177.018ZM24.5493 178.382C24.603 178.708 24.6299 179.062 24.6299 179.445C24.6299 179.825 24.603 180.176 24.5493 180.498H25.7363V178.382H24.5493ZM38.9881 177.533H37.6238V178.758H38.9881V179.617H37.6238V180.992H36.6033V175.288H37.6238V176.695H38.9881V177.533ZM37.6238 184.913H36.6033V182.249H31.2645V181.422H37.6238V184.913ZM32.7684 175.847C33.2553 175.847 33.6922 175.945 34.0789 176.142C34.4692 176.335 34.7754 176.608 34.9974 176.958C35.2194 177.306 35.3322 177.701 35.3357 178.146C35.3322 178.59 35.2194 178.987 34.9974 179.338C34.7754 179.685 34.4692 179.957 34.0789 180.154C33.6922 180.348 33.2553 180.444 32.7684 180.444C32.2814 180.444 31.8427 180.348 31.4524 180.154C31.0621 179.957 30.756 179.685 30.534 179.338C30.3156 178.987 30.2081 178.59 30.2117 178.146C30.2081 177.701 30.3156 177.306 30.534 176.958C30.756 176.608 31.0621 176.335 31.4524 176.142C31.8427 175.945 32.2814 175.847 32.7684 175.847ZM32.7684 176.717C32.4676 176.717 32.199 176.778 31.9627 176.899C31.7264 177.018 31.5402 177.184 31.4041 177.399C31.2716 177.614 31.2072 177.863 31.2107 178.146C31.2072 178.432 31.2716 178.684 31.4041 178.903C31.5402 179.118 31.7264 179.284 31.9627 179.402C32.199 179.521 32.4676 179.578 32.7684 179.574C33.0691 179.578 33.3377 179.521 33.574 179.402C33.8139 179.284 34.0001 179.118 34.1326 178.903C34.2687 178.684 34.3367 178.432 34.3367 178.146C34.3367 177.863 34.2687 177.614 34.1326 177.399C34.0001 177.181 33.8139 177.012 33.574 176.894C33.3377 176.776 33.0691 176.717 32.7684 176.717ZM47.7926 182.41H46.7721V178.779H44.6666V180.81H40.2301V175.933H41.2506V177.565H43.6568V175.933H44.6666V177.952H46.7721V175.299H47.7926V182.41ZM48.0074 184.709H41.5084V181.712H42.5396V183.882H48.0074V184.709ZM43.6568 179.982V178.35H41.2506V179.982H43.6568ZM57.8109 177.469H49.8939V176.642H53.3529V175.428H54.3627V176.642H57.8109V177.469ZM58.2836 183.828H49.475V183.001H53.3529V181.728C52.7908 181.692 52.3074 181.597 51.9027 181.443C51.4981 181.286 51.1866 181.076 50.9682 180.815C50.7533 180.55 50.6459 180.24 50.6459 179.886C50.6459 179.503 50.7748 179.173 51.0326 178.897C51.2904 178.622 51.661 178.412 52.1444 178.269C52.6278 178.122 53.199 178.049 53.8578 178.049C54.5131 178.049 55.0806 178.122 55.5604 178.269C56.0403 178.412 56.4091 178.622 56.6669 178.897C56.9283 179.173 57.059 179.503 57.059 179.886C57.059 180.237 56.9498 180.545 56.7313 180.81C56.5165 181.075 56.2068 181.286 55.8021 181.443C55.3975 181.597 54.9177 181.692 54.3627 181.728V183.001H58.2836V183.828ZM53.8578 178.854C53.1667 178.854 52.6314 178.944 52.2519 179.123C51.8723 179.302 51.6843 179.556 51.6879 179.886C51.6843 180.215 51.8705 180.469 52.2465 180.648C52.626 180.827 53.1632 180.921 53.8578 180.928C54.5417 180.921 55.0717 180.827 55.4477 180.648C55.8272 180.469 56.017 180.215 56.017 179.886C56.017 179.556 55.8272 179.302 55.4477 179.123C55.0681 178.944 54.5382 178.854 53.8578 178.854ZM60.2775 183.001C60.1415 183.001 60.0126 182.967 59.8908 182.899C59.7727 182.831 59.6796 182.738 59.6115 182.62C59.5435 182.501 59.5113 182.374 59.5148 182.238C59.5113 182.102 59.5435 181.975 59.6115 181.857C59.6796 181.739 59.7727 181.646 59.8908 181.578C60.0126 181.51 60.1415 181.476 60.2775 181.476C60.41 181.476 60.5354 181.51 60.6535 181.578C60.7717 181.646 60.8648 181.739 60.9328 181.857C61.0044 181.975 61.0402 182.102 61.0402 182.238C61.0402 182.374 61.0044 182.501 60.9328 182.62C60.8648 182.738 60.7717 182.831 60.6535 182.899C60.5354 182.967 60.41 183.001 60.2775 183.001ZM60.2775 178.758C60.1415 178.758 60.0126 178.724 59.8908 178.656C59.7727 178.588 59.6796 178.495 59.6115 178.376C59.5435 178.258 59.5113 178.131 59.5148 177.995C59.5113 177.859 59.5435 177.732 59.6115 177.614C59.6796 177.496 59.7727 177.403 59.8908 177.334C60.0126 177.266 60.1415 177.232 60.2775 177.232C60.41 177.232 60.5354 177.266 60.6535 177.334C60.7717 177.403 60.8648 177.496 60.9328 177.614C61.0044 177.732 61.0402 177.859 61.0402 177.995C61.0402 178.131 61.0044 178.258 60.9328 178.376C60.8648 178.495 60.7717 178.588 60.6535 178.656C60.5354 178.724 60.41 178.758 60.2775 178.758ZM70.8719 178.758C70.8074 178.432 70.6803 178.153 70.4905 177.92C70.3007 177.684 70.0644 177.505 69.7815 177.383C69.5022 177.261 69.1961 177.2 68.8631 177.2C68.4119 177.2 68.0091 177.315 67.6546 177.544C67.3001 177.77 67.0226 178.101 66.8221 178.538C66.6216 178.974 66.5213 179.499 66.5213 180.111C66.5213 180.724 66.6216 181.25 66.8221 181.69C67.0262 182.127 67.3037 182.458 67.6546 182.684C68.0091 182.91 68.4119 183.022 68.8631 183.022C69.1925 183.022 69.4969 182.963 69.7762 182.845C70.0555 182.723 70.29 182.548 70.4798 182.319C70.6731 182.086 70.8038 181.809 70.8719 181.486L72.0643 181.497C71.9819 182.006 71.7939 182.458 71.5003 182.856C71.2103 183.25 70.8361 183.558 70.3777 183.78C69.923 183.998 69.4145 184.107 68.8523 184.107C68.1756 184.107 67.5722 183.946 67.0423 183.624C66.5123 183.302 66.097 182.84 65.7962 182.238C65.499 181.633 65.3504 180.924 65.3504 180.111C65.3504 179.299 65.5008 178.591 65.8016 177.99C66.1023 177.385 66.5177 176.921 67.0477 176.599C67.5776 176.276 68.1792 176.115 68.8523 176.115C69.4002 176.115 69.9015 176.221 70.3563 176.432C70.811 176.64 71.187 176.942 71.4842 177.34C71.7814 177.737 71.9747 178.21 72.0643 178.758H70.8719ZM73.5426 176.223H76.3141C76.9013 176.223 77.3954 176.325 77.7965 176.529C78.2011 176.733 78.5037 177.019 78.7042 177.388C78.9083 177.753 79.0104 178.178 79.0104 178.661C79.0104 179.191 78.8904 179.646 78.6505 180.025C78.4106 180.405 78.0579 180.682 77.5924 180.858L79.3111 184H77.9684L76.3893 181.067H76.3141H74.7242V184H73.5426V176.223ZM76.1959 180.047C76.7545 180.047 77.1645 179.931 77.4259 179.698C77.6873 179.461 77.818 179.116 77.818 178.661C77.818 178.203 77.6855 177.85 77.4205 177.603C77.1591 177.356 76.7509 177.232 76.1959 177.232H74.7242V180.047H76.1959ZM83.3676 184H82.1752V177.404H82.1322L80.2738 178.618V177.49L82.2074 176.223H83.3676V184ZM88.4982 184H87.3059V177.404H87.2629L85.4045 178.618V177.49L87.3381 176.223H88.4982V184ZM90.6748 183.141L93.3711 180.423C93.6969 180.079 93.9458 179.803 94.1177 179.596C94.2896 179.388 94.4202 179.186 94.5098 178.989C94.6029 178.788 94.6494 178.579 94.6494 178.36C94.6494 178.11 94.5868 177.889 94.4614 177.7C94.3361 177.51 94.1642 177.363 93.9458 177.259C93.7274 177.155 93.4821 177.104 93.21 177.104C92.9271 177.104 92.6782 177.161 92.4634 177.275C92.2485 177.39 92.082 177.551 91.9639 177.759C91.8493 177.966 91.792 178.206 91.792 178.479H90.6748C90.6712 178.013 90.7786 177.601 90.9971 177.243C91.2155 176.885 91.5199 176.608 91.9102 176.411C92.3005 176.214 92.7409 176.115 93.2314 176.115C93.7256 176.115 94.1642 176.212 94.5474 176.405C94.9341 176.595 95.2349 176.858 95.4497 177.195C95.6646 177.531 95.7738 177.909 95.7773 178.328C95.7738 178.625 95.7165 178.912 95.6055 179.188C95.4945 179.46 95.3047 179.764 95.0361 180.101C94.7676 180.434 94.388 180.842 93.8975 181.325L92.3184 182.926V182.99H95.9062V184H90.6748V183.141ZM97.4168 183.141L100.113 180.423C100.439 180.079 100.688 179.803 100.86 179.596C101.032 179.388 101.162 179.186 101.252 178.989C101.345 178.788 101.391 178.579 101.391 178.36C101.391 178.11 101.329 177.889 101.203 177.7C101.078 177.51 100.906 177.363 100.688 177.259C100.469 177.155 100.224 177.104 99.952 177.104C99.6691 177.104 99.4202 177.161 99.2054 177.275C98.9905 177.39 98.824 177.551 98.7059 177.759C98.5913 177.966 98.534 178.206 98.534 178.479H97.4168C97.4132 178.013 97.5206 177.601 97.7391 177.243C97.9575 176.885 98.2618 176.608 98.6521 176.411C99.0424 176.214 99.4829 176.115 99.9734 176.115C100.468 176.115 100.906 176.212 101.289 176.405C101.676 176.595 101.977 176.858 102.192 177.195C102.407 177.531 102.516 177.909 102.519 178.328C102.516 178.625 102.458 178.912 102.347 179.188C102.236 179.46 102.047 179.764 101.778 180.101C101.51 180.434 101.13 180.842 100.639 181.325L99.0603 182.926V182.99H102.648V184H97.4168V183.141ZM106.92 184.107C106.39 184.107 105.913 184.018 105.491 183.839C105.072 183.66 104.741 183.409 104.497 183.087C104.257 182.761 104.13 182.389 104.116 181.97H105.319C105.333 182.195 105.41 182.392 105.55 182.561C105.693 182.729 105.883 182.86 106.119 182.953C106.356 183.042 106.619 183.087 106.909 183.087C107.217 183.087 107.494 183.033 107.741 182.926C107.988 182.818 108.182 182.67 108.321 182.48C108.461 182.287 108.531 182.066 108.531 181.819C108.531 181.565 108.461 181.338 108.321 181.137C108.182 180.937 107.979 180.781 107.714 180.67C107.453 180.555 107.142 180.498 106.78 180.498H106.114V179.531H106.78C107.07 179.531 107.33 179.479 107.559 179.375C107.788 179.272 107.965 179.127 108.09 178.94C108.219 178.754 108.284 178.539 108.284 178.296C108.284 178.06 108.228 177.852 108.117 177.673C108.006 177.494 107.849 177.354 107.645 177.254C107.441 177.154 107.202 177.104 106.93 177.104C106.665 177.104 106.42 177.15 106.194 177.243C105.969 177.336 105.786 177.469 105.647 177.641C105.511 177.812 105.437 178.013 105.426 178.242H104.288C104.298 177.83 104.422 177.463 104.658 177.141C104.898 176.815 105.219 176.563 105.62 176.384C106.021 176.205 106.461 176.115 106.941 176.115C107.435 176.115 107.87 176.21 108.246 176.4C108.626 176.59 108.918 176.847 109.122 177.173C109.326 177.496 109.426 177.848 109.422 178.231C109.426 178.668 109.303 179.041 109.052 179.349C108.805 179.653 108.47 179.857 108.047 179.961V180.015C108.574 180.09 108.984 180.292 109.277 180.622C109.575 180.951 109.723 181.365 109.723 181.862C109.723 182.288 109.601 182.673 109.358 183.017C109.115 183.357 108.78 183.624 108.354 183.817C107.928 184.011 107.449 184.107 106.92 184.107ZM113.984 184.107C113.454 184.107 112.978 184.018 112.555 183.839C112.136 183.66 111.805 183.409 111.561 183.087C111.322 182.761 111.194 182.389 111.18 181.97H112.383C112.398 182.195 112.475 182.392 112.614 182.561C112.757 182.729 112.947 182.86 113.183 182.953C113.42 183.042 113.683 183.087 113.973 183.087C114.281 183.087 114.558 183.033 114.806 182.926C115.053 182.818 115.246 182.67 115.386 182.48C115.525 182.287 115.595 182.066 115.595 181.819C115.595 181.565 115.525 181.338 115.386 181.137C115.246 180.937 115.044 180.781 114.779 180.67C114.517 180.555 114.206 180.498 113.844 180.498H113.178V179.531H113.844C114.134 179.531 114.394 179.479 114.623 179.375C114.852 179.272 115.029 179.127 115.155 178.94C115.284 178.754 115.348 178.539 115.348 178.296C115.348 178.06 115.293 177.852 115.182 177.673C115.071 177.494 114.913 177.354 114.709 177.254C114.505 177.154 114.267 177.104 113.995 177.104C113.73 177.104 113.484 177.15 113.259 177.243C113.033 177.336 112.85 177.469 112.711 177.641C112.575 177.812 112.501 178.013 112.491 178.242H111.352C111.363 177.83 111.486 177.463 111.723 177.141C111.962 176.815 112.283 176.563 112.684 176.384C113.085 176.205 113.525 176.115 114.005 176.115C114.499 176.115 114.934 176.21 115.31 176.4C115.69 176.59 115.982 176.847 116.186 177.173C116.39 177.496 116.49 177.848 116.487 178.231C116.49 178.668 116.367 179.041 116.116 179.349C115.869 179.653 115.534 179.857 115.112 179.961V180.015C115.638 180.09 116.048 180.292 116.342 180.622C116.639 180.951 116.787 181.365 116.787 181.862C116.787 182.288 116.666 182.673 116.422 183.017C116.179 183.357 115.844 183.624 115.418 183.817C114.992 184.011 114.514 184.107 113.984 184.107ZM118.115 181.529L121.553 176.223H123.014V181.486H124.077V182.485H123.014V184H121.897V182.485H118.115V181.529ZM121.897 181.486V177.63H121.811L119.362 181.422V181.486H121.897ZM125.298 181.529L128.735 176.223H130.196V181.486H131.26V182.485H130.196V184H129.079V182.485H125.298V181.529ZM129.079 181.486V177.63H128.993L126.544 181.422V181.486H129.079Z" fill="#888882"/>
</g>
<g id="Frame 109">
<g id="BookedByBadge(User)">
<path d="M255 157.5C255 150.873 260.373 145.5 267 145.5H313C319.627 145.5 325 150.873 325 157.5V157.5C325 164.127 319.627 169.5 313 169.5H267C260.373 169.5 255 164.127 255 157.5V157.5Z" fill="#6A9E7A"/>
<path id="&#236;&#167;&#129;&#236;&#160;&#145; &#236;&#152;&#136;&#236;&#149;&#189;" d="M271.172 154.465C271.172 154.926 271.285 155.369 271.512 155.795C271.738 156.221 272.055 156.596 272.461 156.92C272.867 157.24 273.328 157.484 273.844 157.652L273.375 158.367C272.766 158.16 272.23 157.852 271.77 157.441C271.309 157.027 270.961 156.545 270.727 155.994C270.5 156.584 270.152 157.104 269.684 157.553C269.215 158.002 268.672 158.34 268.055 158.566L267.574 157.852C268.09 157.668 268.551 157.404 268.957 157.061C269.363 156.713 269.68 156.314 269.906 155.865C270.133 155.416 270.246 154.949 270.246 154.465V154.02H267.809V153.27H273.574V154.02H271.172V154.465ZM276.023 158.836H275.109V152.531H276.023V158.836ZM276.023 162.949H275.109V160.148H269.016V159.387H276.023V162.949ZM286.618 158.191H285.704V155.836H283.595V155.062H285.704V152.531H286.618V158.191ZM280.841 159.996H285.704V158.695H286.618V162.809H279.915V158.695H280.841V159.996ZM285.704 162.059V160.734H280.841V162.059H285.704ZM281.614 154.23C281.614 154.672 281.721 155.104 281.936 155.525C282.155 155.947 282.458 156.324 282.845 156.656C283.235 156.984 283.68 157.234 284.18 157.406L283.7 158.121C283.114 157.91 282.6 157.598 282.159 157.184C281.721 156.766 281.391 156.287 281.169 155.748C280.942 156.354 280.596 156.887 280.132 157.348C279.671 157.805 279.134 158.145 278.52 158.367L278.04 157.641C278.548 157.457 279.003 157.191 279.405 156.844C279.807 156.492 280.122 156.09 280.348 155.637C280.575 155.184 280.688 154.715 280.688 154.23V153.926H278.333V153.164H283.946V153.926H281.614V154.23ZM300.705 162.949H299.815V152.531H300.705V162.949ZM298.631 162.422H297.752V159H296.088C295.905 159.523 295.645 159.93 295.309 160.219C294.973 160.508 294.584 160.652 294.143 160.652C293.694 160.652 293.299 160.506 292.959 160.213C292.623 159.916 292.364 159.494 292.18 158.947C291.996 158.4 291.905 157.762 291.905 157.031C291.905 156.301 291.996 155.662 292.18 155.115C292.364 154.568 292.623 154.148 292.959 153.855C293.299 153.559 293.694 153.41 294.143 153.41C294.584 153.41 294.973 153.555 295.309 153.844C295.645 154.133 295.905 154.539 296.088 155.062H297.752V152.754H298.631V162.422ZM294.143 154.277C293.862 154.277 293.616 154.389 293.405 154.611C293.198 154.834 293.038 155.152 292.924 155.566C292.815 155.98 292.76 156.469 292.76 157.031C292.76 157.59 292.815 158.076 292.924 158.49C293.038 158.904 293.198 159.223 293.405 159.445C293.616 159.668 293.862 159.777 294.143 159.773C294.42 159.777 294.664 159.668 294.875 159.445C295.086 159.223 295.248 158.904 295.362 158.49C295.479 158.076 295.538 157.59 295.538 157.031C295.538 156.473 295.479 155.986 295.362 155.572C295.248 155.154 295.086 154.834 294.875 154.611C294.668 154.389 294.424 154.277 294.143 154.277ZM296.288 155.824C296.358 156.191 296.393 156.594 296.393 157.031C296.393 157.453 296.36 157.852 296.293 158.227H297.752V155.824H296.288ZM312.038 154.898H310.491V156.363H312.038V157.148H310.491V158.73H309.577V152.531H310.491V154.148H312.038V154.898ZM310.491 162.949H309.577V159.973H303.671V159.211H310.491V162.949ZM305.277 153.164C305.796 153.16 306.263 153.262 306.677 153.469C307.095 153.676 307.421 153.967 307.655 154.342C307.894 154.717 308.015 155.141 308.019 155.613C308.015 156.094 307.894 156.521 307.655 156.896C307.421 157.271 307.097 157.564 306.683 157.775C306.269 157.982 305.8 158.086 305.277 158.086C304.753 158.086 304.282 157.982 303.864 157.775C303.45 157.564 303.126 157.271 302.892 156.896C302.657 156.521 302.542 156.094 302.546 155.613C302.542 155.141 302.657 154.719 302.892 154.348C303.126 153.973 303.45 153.682 303.864 153.475C304.282 153.264 304.753 153.16 305.277 153.164ZM305.277 153.949C304.929 153.949 304.614 154.02 304.333 154.16C304.056 154.301 303.837 154.498 303.677 154.752C303.521 155.002 303.445 155.289 303.448 155.613C303.445 155.941 303.521 156.234 303.677 156.492C303.837 156.746 304.056 156.943 304.333 157.084C304.614 157.225 304.929 157.293 305.277 157.289C305.628 157.293 305.943 157.225 306.22 157.084C306.501 156.943 306.72 156.746 306.876 156.492C307.036 156.234 307.116 155.941 307.116 155.613C307.116 155.289 307.036 155.002 306.876 154.752C306.72 154.498 306.501 154.301 306.22 154.16C305.943 154.02 305.628 153.949 305.277 153.949Z" fill="#FAFAF7"/>
</g>
<path id="&#236;&#152;&#136;&#236;&#149;&#189;&#236;&#157;&#188; 2026.04.05" d="M240.637 186.413H239.659V176.788H240.637V186.413ZM238.703 185.94H237.736V182.836H236.34C236.168 183.319 235.926 183.692 235.615 183.953C235.303 184.215 234.943 184.343 234.535 184.34C234.12 184.343 233.755 184.207 233.439 183.932C233.128 183.656 232.886 183.262 232.714 182.75C232.546 182.234 232.462 181.633 232.462 180.945C232.462 180.258 232.546 179.658 232.714 179.146C232.886 178.634 233.128 178.242 233.439 177.97C233.755 177.694 234.12 177.558 234.535 177.562C234.943 177.558 235.301 177.687 235.609 177.948C235.921 178.206 236.164 178.575 236.34 179.055H237.736V176.971H238.703V185.94ZM234.535 178.518C234.299 178.518 234.095 178.614 233.923 178.808C233.755 178.997 233.624 179.275 233.531 179.64C233.441 180.002 233.396 180.437 233.396 180.945C233.396 181.454 233.441 181.891 233.531 182.256C233.624 182.618 233.755 182.895 233.923 183.088C234.095 183.278 234.299 183.373 234.535 183.373C234.771 183.373 234.976 183.278 235.147 183.088C235.323 182.895 235.457 182.616 235.55 182.25C235.647 181.885 235.695 181.45 235.695 180.945C235.695 180.44 235.647 180.005 235.55 179.64C235.457 179.275 235.323 178.997 235.147 178.808C234.976 178.614 234.771 178.518 234.535 178.518ZM236.549 179.882C236.603 180.208 236.63 180.562 236.63 180.945C236.63 181.325 236.603 181.676 236.549 181.998H237.736V179.882H236.549ZM250.988 179.033H249.624V180.258H250.988V181.117H249.624V182.492H248.603V176.788H249.624V178.195H250.988V179.033ZM249.624 186.413H248.603V183.749H243.264V182.922H249.624V186.413ZM244.768 177.347C245.255 177.347 245.692 177.445 246.079 177.642C246.469 177.835 246.775 178.108 246.997 178.458C247.219 178.806 247.332 179.201 247.336 179.646C247.332 180.09 247.219 180.487 246.997 180.838C246.775 181.185 246.469 181.457 246.079 181.654C245.692 181.848 245.255 181.944 244.768 181.944C244.281 181.944 243.843 181.848 243.452 181.654C243.062 181.457 242.756 181.185 242.534 180.838C242.316 180.487 242.208 180.09 242.212 179.646C242.208 179.201 242.316 178.806 242.534 178.458C242.756 178.108 243.062 177.835 243.452 177.642C243.843 177.445 244.281 177.347 244.768 177.347ZM244.768 178.217C244.468 178.217 244.199 178.278 243.963 178.399C243.726 178.518 243.54 178.684 243.404 178.899C243.272 179.114 243.207 179.363 243.211 179.646C243.207 179.932 243.272 180.184 243.404 180.403C243.54 180.618 243.726 180.784 243.963 180.902C244.199 181.021 244.468 181.078 244.768 181.074C245.069 181.078 245.338 181.021 245.574 180.902C245.814 180.784 246 180.618 246.133 180.403C246.269 180.184 246.337 179.932 246.337 179.646C246.337 179.363 246.269 179.114 246.133 178.899C246 178.681 245.814 178.512 245.574 178.394C245.338 178.276 245.069 178.217 244.768 178.217ZM254.497 177.11C254.976 177.114 255.406 177.209 255.786 177.395C256.169 177.578 256.47 177.834 256.688 178.163C256.907 178.489 257.018 178.858 257.021 179.27C257.018 179.685 256.907 180.056 256.688 180.381C256.47 180.707 256.169 180.961 255.786 181.144C255.406 181.327 254.976 181.418 254.497 181.418C254.013 181.418 253.578 181.327 253.192 181.144C252.808 180.961 252.508 180.707 252.289 180.381C252.071 180.056 251.962 179.685 251.962 179.27C251.962 178.858 252.071 178.489 252.289 178.163C252.508 177.834 252.808 177.578 253.192 177.395C253.578 177.209 254.013 177.114 254.497 177.11ZM254.497 177.97C254.203 177.966 253.938 178.018 253.702 178.125C253.469 178.233 253.286 178.387 253.154 178.587C253.021 178.784 252.957 179.012 252.961 179.27C252.957 179.531 253.02 179.762 253.149 179.962C253.281 180.163 253.464 180.319 253.696 180.43C253.933 180.537 254.199 180.591 254.497 180.591C254.79 180.591 255.053 180.535 255.286 180.424C255.519 180.313 255.702 180.159 255.834 179.962C255.967 179.762 256.033 179.531 256.033 179.27C256.033 179.012 255.967 178.784 255.834 178.587C255.702 178.387 255.517 178.233 255.281 178.125C255.048 178.018 254.787 177.966 254.497 177.97ZM259.75 181.687H258.729V176.788H259.75V181.687ZM259.75 184.555H254.443V185.479H260.072V186.295H253.455V183.792H258.74V182.943H253.422V182.127H259.75V184.555ZM264.694 184.641L267.39 181.923C267.716 181.579 267.965 181.303 268.136 181.096C268.308 180.888 268.439 180.686 268.529 180.489C268.622 180.288 268.668 180.079 268.668 179.86C268.668 179.61 268.606 179.389 268.48 179.2C268.355 179.01 268.183 178.863 267.965 178.759C267.746 178.655 267.501 178.604 267.229 178.604C266.946 178.604 266.697 178.661 266.482 178.775C266.267 178.89 266.101 179.051 265.983 179.259C265.868 179.466 265.811 179.706 265.811 179.979H264.694C264.69 179.513 264.797 179.101 265.016 178.743C265.234 178.385 265.539 178.108 265.929 177.911C266.319 177.714 266.76 177.615 267.25 177.615C267.744 177.615 268.183 177.712 268.566 177.905C268.953 178.095 269.254 178.358 269.468 178.695C269.683 179.031 269.793 179.409 269.796 179.828C269.793 180.125 269.735 180.412 269.624 180.688C269.513 180.96 269.323 181.264 269.055 181.601C268.786 181.934 268.407 182.342 267.916 182.825L266.337 184.426V184.49H269.925V185.5H264.694V184.641ZM274.143 185.607C273.545 185.607 273.031 185.452 272.601 185.14C272.175 184.829 271.849 184.374 271.624 183.776C271.398 183.174 271.285 182.453 271.285 181.611C271.285 180.777 271.398 180.061 271.624 179.463C271.853 178.861 272.182 178.403 272.612 178.088C273.042 177.773 273.552 177.615 274.143 177.615C274.733 177.615 275.244 177.773 275.673 178.088C276.103 178.403 276.431 178.861 276.656 179.463C276.885 180.061 277 180.777 277 181.611C277 182.453 276.887 183.173 276.662 183.771C276.436 184.368 276.108 184.825 275.679 185.14C275.249 185.452 274.737 185.607 274.143 185.607ZM274.143 184.587C274.493 184.587 274.794 184.474 275.045 184.249C275.296 184.019 275.487 183.683 275.62 183.239C275.752 182.795 275.818 182.252 275.818 181.611C275.818 180.974 275.75 180.431 275.614 179.984C275.482 179.533 275.29 179.193 275.04 178.963C274.789 178.731 274.49 178.614 274.143 178.614C273.795 178.614 273.496 178.731 273.246 178.963C272.995 179.193 272.802 179.533 272.666 179.984C272.533 180.431 272.467 180.974 272.467 181.611C272.467 182.252 272.533 182.795 272.666 183.239C272.798 183.683 272.99 184.019 273.24 184.249C273.491 184.474 273.792 184.587 274.143 184.587ZM278.425 184.641L281.121 181.923C281.447 181.579 281.696 181.303 281.867 181.096C282.039 180.888 282.17 180.686 282.26 180.489C282.353 180.288 282.399 180.079 282.399 179.86C282.399 179.61 282.337 179.389 282.211 179.2C282.086 179.01 281.914 178.863 281.696 178.759C281.477 178.655 281.232 178.604 280.96 178.604C280.677 178.604 280.428 178.661 280.213 178.775C279.998 178.89 279.832 179.051 279.714 179.259C279.599 179.466 279.542 179.706 279.542 179.979H278.425C278.421 179.513 278.528 179.101 278.747 178.743C278.965 178.385 279.27 178.108 279.66 177.911C280.05 177.714 280.491 177.615 280.981 177.615C281.475 177.615 281.914 177.712 282.297 177.905C282.684 178.095 282.985 178.358 283.2 178.695C283.414 179.031 283.524 179.409 283.527 179.828C283.524 180.125 283.466 180.412 283.355 180.688C283.244 180.96 283.054 181.264 282.786 181.601C282.517 181.934 282.138 182.342 281.647 182.825L280.068 184.426V184.49H283.656V185.5H278.425V184.641ZM288.003 185.607C287.473 185.607 286.986 185.491 286.542 185.258C286.101 185.022 285.74 184.626 285.457 184.071C285.177 183.516 285.038 182.782 285.038 181.869C285.038 180.978 285.159 180.213 285.403 179.576C285.65 178.935 286.001 178.448 286.456 178.115C286.914 177.782 287.455 177.615 288.078 177.615C288.543 177.615 288.962 177.707 289.335 177.889C289.711 178.068 290.015 178.319 290.248 178.641C290.48 178.963 290.627 179.33 290.688 179.742H289.517C289.438 179.413 289.274 179.148 289.023 178.947C288.772 178.747 288.457 178.646 288.078 178.646C287.68 178.646 287.338 178.759 287.052 178.985C286.769 179.207 286.552 179.529 286.402 179.952C286.252 180.371 286.176 180.87 286.176 181.45H286.262C286.474 181.121 286.753 180.863 287.1 180.677C287.451 180.491 287.838 180.397 288.26 180.397C288.719 180.397 289.139 180.508 289.523 180.73C289.906 180.949 290.208 181.253 290.43 181.644C290.652 182.03 290.763 182.467 290.763 182.954C290.763 183.452 290.649 183.903 290.42 184.308C290.19 184.709 289.866 185.026 289.447 185.258C289.028 185.491 288.547 185.607 288.003 185.607ZM287.97 184.619C288.278 184.619 288.558 184.546 288.808 184.399C289.059 184.252 289.256 184.053 289.399 183.803C289.542 183.552 289.614 183.276 289.614 182.976C289.614 182.682 289.544 182.412 289.404 182.165C289.265 181.917 289.071 181.722 288.824 181.579C288.581 181.436 288.307 181.364 288.003 181.364C287.691 181.364 287.406 181.439 287.149 181.59C286.894 181.737 286.692 181.935 286.542 182.186C286.395 182.433 286.32 182.7 286.316 182.986C286.32 183.273 286.393 183.541 286.536 183.792C286.679 184.043 286.876 184.243 287.127 184.394C287.381 184.544 287.662 184.619 287.97 184.619ZM292.628 185.575C292.492 185.575 292.363 185.541 292.242 185.473C292.123 185.405 292.03 185.312 291.962 185.194C291.894 185.076 291.862 184.949 291.866 184.812C291.862 184.676 291.894 184.549 291.962 184.431C292.03 184.313 292.123 184.22 292.242 184.152C292.363 184.084 292.492 184.05 292.628 184.05C292.761 184.05 292.886 184.084 293.004 184.152C293.122 184.22 293.216 184.313 293.284 184.431C293.355 184.549 293.391 184.676 293.391 184.812C293.391 184.949 293.355 185.076 293.284 185.194C293.216 185.312 293.122 185.405 293.004 185.473C292.886 185.541 292.761 185.575 292.628 185.575ZM297.383 185.607C296.785 185.607 296.271 185.452 295.842 185.14C295.415 184.829 295.09 184.374 294.864 183.776C294.638 183.174 294.526 182.453 294.526 181.611C294.526 180.777 294.638 180.061 294.864 179.463C295.093 178.861 295.423 178.403 295.852 178.088C296.282 177.773 296.792 177.615 297.383 177.615C297.974 177.615 298.484 177.773 298.914 178.088C299.343 178.403 299.671 178.861 299.897 179.463C300.126 180.061 300.24 180.777 300.24 181.611C300.24 182.453 300.128 183.173 299.902 183.771C299.676 184.368 299.349 184.825 298.919 185.14C298.489 185.452 297.977 185.607 297.383 185.607ZM297.383 184.587C297.734 184.587 298.035 184.474 298.285 184.249C298.536 184.019 298.728 183.683 298.86 183.239C298.993 182.795 299.059 182.252 299.059 181.611C299.059 180.974 298.991 180.431 298.855 179.984C298.722 179.533 298.531 179.193 298.28 178.963C298.029 178.731 297.73 178.614 297.383 178.614C297.036 178.614 296.737 178.731 296.486 178.963C296.235 179.193 296.042 179.533 295.906 179.984C295.773 180.431 295.707 180.974 295.707 181.611C295.707 182.252 295.773 182.795 295.906 183.239C296.038 183.683 296.23 184.019 296.481 184.249C296.731 184.474 297.032 184.587 297.383 184.587ZM301.493 183.029L304.931 177.723H306.392V182.986H307.455V183.985H306.392V185.5H305.274V183.985H301.493V183.029ZM305.274 182.986V179.13H305.188L302.739 182.922V182.986H305.274ZM309.32 185.575C309.184 185.575 309.055 185.541 308.933 185.473C308.815 185.405 308.722 185.312 308.654 185.194C308.586 185.076 308.554 184.949 308.557 184.812C308.554 184.676 308.586 184.549 308.654 184.431C308.722 184.313 308.815 184.22 308.933 184.152C309.055 184.084 309.184 184.05 309.32 184.05C309.453 184.05 309.578 184.084 309.696 184.152C309.814 184.22 309.907 184.313 309.975 184.431C310.047 184.549 310.083 184.676 310.083 184.812C310.083 184.949 310.047 185.076 309.975 185.194C309.907 185.312 309.814 185.405 309.696 185.473C309.578 185.541 309.453 185.575 309.32 185.575ZM314.075 185.607C313.477 185.607 312.963 185.452 312.533 185.14C312.107 184.829 311.781 184.374 311.556 183.776C311.33 183.174 311.217 182.453 311.217 181.611C311.217 180.777 311.33 180.061 311.556 179.463C311.785 178.861 312.114 178.403 312.544 178.088C312.974 177.773 313.484 177.615 314.075 177.615C314.666 177.615 315.176 177.773 315.606 178.088C316.035 178.403 316.363 178.861 316.588 179.463C316.818 180.061 316.932 180.777 316.932 181.611C316.932 182.453 316.819 183.173 316.594 183.771C316.368 184.368 316.041 184.825 315.611 185.14C315.181 185.452 314.669 185.607 314.075 185.607ZM314.075 184.587C314.426 184.587 314.726 184.474 314.977 184.249C315.228 184.019 315.419 183.683 315.552 183.239C315.684 182.795 315.751 182.252 315.751 181.611C315.751 180.974 315.683 180.431 315.546 179.984C315.414 179.533 315.222 179.193 314.972 178.963C314.721 178.731 314.422 178.614 314.075 178.614C313.727 178.614 313.428 178.731 313.178 178.963C312.927 179.193 312.734 179.533 312.598 179.984C312.465 180.431 312.399 180.974 312.399 181.611C312.399 182.252 312.465 182.795 312.598 183.239C312.73 183.683 312.922 184.019 313.172 184.249C313.423 184.474 313.724 184.587 314.075 184.587ZM320.999 185.607C320.516 185.607 320.077 185.516 319.683 185.333C319.29 185.147 318.976 184.893 318.744 184.571C318.511 184.245 318.385 183.878 318.368 183.47H319.517C319.538 183.688 319.617 183.885 319.753 184.061C319.889 184.236 320.067 184.374 320.285 184.474C320.503 184.571 320.742 184.619 320.999 184.619C321.311 184.619 321.588 184.549 321.832 184.41C322.079 184.27 322.272 184.078 322.412 183.835C322.552 183.588 322.621 183.312 322.621 183.008C322.621 182.696 322.55 182.417 322.407 182.17C322.263 181.919 322.065 181.724 321.81 181.584C321.556 181.441 321.268 181.368 320.946 181.364C320.29 181.364 319.836 181.593 319.581 182.052H318.464L318.969 177.723H323.373V178.732H319.947L319.689 180.913H319.764C319.929 180.756 320.14 180.628 320.398 180.532C320.659 180.435 320.935 180.387 321.225 180.387C321.705 180.387 322.138 180.498 322.525 180.72C322.915 180.942 323.219 181.25 323.438 181.644C323.66 182.037 323.771 182.481 323.771 182.976C323.771 183.48 323.653 183.933 323.416 184.334C323.18 184.736 322.851 185.049 322.428 185.274C322.009 185.496 321.533 185.607 320.999 185.607Z" fill="#888882"/>
</g>
</g>
</g>
</g>
<path d="M16 3.5H329.34C337.9 3.5 344.84 10.4396 344.84 19V185C344.84 193.56 337.9 200.5 329.34 200.5H16C7.43959 200.5 0.5 193.56 0.5 185V19L0.504883 18.5996C0.717249 10.2242 7.57345 3.5 16 3.5Z" stroke="#E2DDD5"/>
</g>
<defs>
<filter id="filter0_d_199_7151" x="-4" y="0" width="353.34" height="206" filterUnits="userSpaceOnUse" color-interpolation-filters="sRGB">
<feFlood flood-opacity="0" result="BackgroundImageFix"/>
<feColorMatrix in="SourceAlpha" type="matrix" values="0 0 0 0 0 0 0 0 0 0 0 0 0 0 0 0 0 0 127 0" result="hardAlpha"/>
<feOffset dy="1"/>
<feGaussianBlur stdDeviation="2"/>
<feColorMatrix type="matrix" values="0 0 0 0 0.118 0 0 0 0 0.157 0 0 0 0 0.133 0 0 0 0.06 0"/>
<feBlend mode="normal" in2="BackgroundImageFix" result="effect1_dropShadow_199_7151"/>
<feBlend mode="normal" in="SourceGraphic" in2="effect1_dropShadow_199_7151" result="shape"/>
</filter>
<clipPath id="clip0_199_7151">
<path d="M0 19C0 10.1634 7.16344 3 16 3H329.34C338.177 3 345.34 10.1634 345.34 19V185C345.34 193.837 338.177 201 329.34 201H16C7.16345 201 0 193.837 0 185V19Z" fill="white"/>
</clipPath>
</defs>
</svg>
