<svg width="346" height="203" viewBox="0 0 346 203" fill="none" xmlns="http://www.w3.org/2000/svg">
<g id="FlightReservationCard" filter="url(#filter0_d_197_6955)">
<g clip-path="url(#clip0_197_6955)">
<path d="M0 16C0 7.16345 7.16344 0 16 0H329.34C338.177 0 345.34 7.16344 345.34 16V182C345.34 190.837 338.177 198 329.34 198H16C7.16345 198 0 190.837 0 182V16Z" fill="#FAFAF7"/>
<g id="Header">
<path d="M0 16C0 7.16344 7.16344 0 16 0H329.34C338.177 0 345.34 7.16344 345.34 16V44H0V16Z" fill="#1A6B8A"/>
<g id="Frame 101">
<g id="Airplane">
<path id="Vector" d="M38 26.5V24.5L29.5 19.5V13.5C29.5 13.1022 29.342 12.7206 29.0607 12.4393C28.7794 12.158 28.3978 12 28 12C27.6022 12 27.2206 12.158 26.9393 12.4393C26.658 12.7206 26.5 13.1022 26.5 13.5V19.5L18 24.5V26.5L26.5 24V29L24.5 30.5V32L28 31L31.5 32V30.5L29 29V24L38 26.5Z" stroke="#FAFAF7" stroke-width="1.8" stroke-linecap="round" stroke-linejoin="round"/>
</g>
<path id="&#237;&#149;&#173;&#234;&#179;&#181;&#237;&#142;&#184;" d="M58.5664 19.9375H60.1367V20.7227H58.5664V23.7578H57.6523V17.0312H58.5664V19.9375ZM55.2734 23.8281C55.9766 23.8281 56.584 23.9004 57.0957 24.0449C57.6074 24.1855 58 24.3926 58.2734 24.666C58.5469 24.9355 58.6836 25.2578 58.6836 25.6328C58.6836 26.0078 58.5469 26.3301 58.2734 26.5996C58 26.8691 57.6074 27.0742 57.0957 27.2148C56.584 27.3555 55.9766 27.4258 55.2734 27.4258C54.5664 27.4258 53.957 27.3555 53.4453 27.2148C52.9336 27.0742 52.541 26.8691 52.2676 26.5996C51.9941 26.3301 51.8594 26.0078 51.8633 25.6328C51.8594 25.2578 51.9941 24.9355 52.2676 24.666C52.541 24.3926 52.9336 24.1855 53.4453 24.0449C53.9609 23.9004 54.5703 23.8281 55.2734 23.8281ZM55.2734 24.5547C54.4883 24.5547 53.875 24.6484 53.4336 24.8359C52.9922 25.0234 52.7734 25.2891 52.7773 25.6328C52.7734 25.8555 52.8711 26.0488 53.0703 26.2129C53.2695 26.373 53.5566 26.4961 53.9316 26.582C54.3105 26.668 54.7578 26.7109 55.2734 26.7109C55.7891 26.7109 56.2344 26.668 56.6094 26.582C56.9844 26.4961 57.2715 26.373 57.4707 26.2129C57.6699 26.0527 57.7695 25.8594 57.7695 25.6328C57.7695 25.2891 57.5488 25.0234 57.1074 24.8359C56.6699 24.6484 56.0586 24.5547 55.2734 24.5547ZM56.6562 18.9531H50.4453V18.2266H53.0938V16.9492H54.0078V18.2266H56.6562V18.9531ZM53.5508 19.4922C54.0469 19.4922 54.4824 19.5684 54.8574 19.7207C55.2363 19.873 55.5293 20.0879 55.7363 20.3652C55.9473 20.6426 56.0547 20.9648 56.0586 21.332C56.0547 21.7031 55.9473 22.0273 55.7363 22.3047C55.5293 22.582 55.2363 22.7969 54.8574 22.9492C54.4824 23.0977 54.0469 23.1719 53.5508 23.1719C53.0508 23.1719 52.6094 23.0977 52.2266 22.9492C51.8477 22.7969 51.5547 22.582 51.3477 22.3047C51.1406 22.0273 51.0391 21.7031 51.043 21.332C51.0391 20.9648 51.1406 20.6426 51.3477 20.3652C51.5547 20.0879 51.8477 19.873 52.2266 19.7207C52.6094 19.5684 53.0508 19.4922 53.5508 19.4922ZM53.5508 20.1836C53.2266 20.1875 52.9395 20.2383 52.6895 20.3359C52.4434 20.4297 52.252 20.5645 52.1152 20.7402C51.9824 20.9121 51.918 21.1094 51.9219 21.332C51.918 21.5547 51.9824 21.752 52.1152 21.9238C52.252 22.0918 52.4434 22.2227 52.6895 22.3164C52.9395 22.4102 53.2266 22.457 53.5508 22.457C53.8711 22.457 54.1543 22.4102 54.4004 22.3164C54.6504 22.2227 54.8438 22.0918 54.9805 21.9238C55.1172 21.752 55.1875 21.5547 55.1914 21.332C55.1875 21.1094 55.1172 20.9121 54.9805 20.7402C54.8438 20.5645 54.6504 20.4297 54.4004 20.3359C54.1543 20.2383 53.8711 20.1875 53.5508 20.1836ZM65.7039 23.6172C66.45 23.6172 67.0965 23.6934 67.6434 23.8457C68.1941 23.9941 68.618 24.2129 68.9148 24.502C69.2117 24.7871 69.3602 25.1289 69.3602 25.5273C69.3602 25.9219 69.2117 26.2617 68.9148 26.5469C68.618 26.832 68.1941 27.0488 67.6434 27.1973C67.0926 27.3496 66.4461 27.4258 65.7039 27.4258C64.9617 27.4258 64.3172 27.3496 63.7703 27.1973C63.2234 27.0488 62.8016 26.832 62.5047 26.5469C62.2078 26.2617 62.0594 25.9219 62.0594 25.5273C62.0594 25.1289 62.2078 24.7871 62.5047 24.502C62.8016 24.2129 63.2234 23.9941 63.7703 23.8457C64.3172 23.6934 64.9617 23.6172 65.7039 23.6172ZM65.7039 24.3203C65.1531 24.3242 64.6707 24.375 64.2566 24.4727C63.8426 24.5703 63.5242 24.7109 63.3016 24.8945C63.0789 25.0742 62.9695 25.2852 62.9734 25.5273C62.9695 25.7656 63.0789 25.9746 63.3016 26.1543C63.5242 26.3301 63.8426 26.4648 64.2566 26.5586C64.6707 26.6523 65.1531 26.6992 65.7039 26.6992C66.2547 26.6992 66.7352 26.6523 67.1453 26.5586C67.5594 26.4648 67.8777 26.3301 68.1004 26.1543C68.327 25.9746 68.4422 25.7656 68.4461 25.5273C68.4422 25.2852 68.327 25.0742 68.1004 24.8945C67.8777 24.7109 67.5594 24.5703 67.1453 24.4727C66.7352 24.375 66.2547 24.3242 65.7039 24.3203ZM69.2781 18.4492C69.2781 19.0117 69.2605 19.4941 69.2254 19.8965C69.1941 20.2949 69.1141 20.7344 68.9852 21.2148L68.0828 21.1094C68.2078 20.6289 68.2859 20.1992 68.3172 19.8203C68.3484 19.4414 68.3641 18.9844 68.3641 18.4492V18.3203H62.1297V17.5703H69.2781V18.4492ZM70.4852 22.6445H61.0047V21.8945H64.9305V19.8789H65.8328V21.8945H70.4852V22.6445ZM80.2008 24.7891H79.275V21.7656H77.4937V20.9922H79.275V19.7852H77.4937V19.0234H79.275V17.0312H80.2008V24.7891ZM77.4117 18.6367H76.3453V22.2871C76.9625 22.2441 77.4312 22.2031 77.7516 22.1641L77.7984 22.8555C76.8961 22.9961 75.9332 23.0898 74.9098 23.1367C73.8863 23.1836 72.818 23.207 71.7047 23.207L71.5875 22.4219L72.9352 22.4102V18.6367H71.8805V17.8867H77.4117V18.6367ZM80.482 27.2266H73.4859V24.1445H74.4117V26.4531H80.482V27.2266ZM73.8258 22.3926C74.3766 22.3809 74.9195 22.3633 75.4547 22.3398V18.6367H73.8258V22.3926Z" fill="#FAFAF7"/>
</g>
<g id="ReservationStatusBadgeConfirmed">
<path id="Rectangle 17" d="M298.34 22C298.34 20.6193 299.459 19.5 300.84 19.5V19.5C302.221 19.5 303.34 20.6193 303.34 22V22C303.34 23.3807 302.221 24.5 300.84 24.5V24.5C299.459 24.5 298.34 23.3807 298.34 22V22Z" fill="#5D9E75"/>
<path id="&#237;&#153;&#149;&#236;&#160;&#149;" d="M316.895 20.1953H318.453V20.9688H316.895V24.0273H315.969V17.043H316.895V20.1953ZM308.715 22.9609C309.918 22.9609 310.859 22.9492 311.539 22.9258V22.1699C311.137 22.1348 310.785 22.0508 310.484 21.918C310.184 21.7812 309.951 21.6035 309.787 21.3848C309.627 21.166 309.547 20.9141 309.547 20.6289C309.547 20.3164 309.646 20.0449 309.846 19.8145C310.049 19.584 310.334 19.4062 310.701 19.2812C311.072 19.1562 311.5 19.0938 311.984 19.0938C312.473 19.0938 312.9 19.1562 313.268 19.2812C313.639 19.4062 313.924 19.584 314.123 19.8145C314.326 20.0449 314.43 20.3164 314.434 20.6289C314.43 21.0547 314.25 21.4043 313.895 21.6777C313.543 21.9473 313.062 22.1094 312.453 22.1641V22.8906C313.566 22.8359 314.523 22.75 315.324 22.6328L315.406 23.3008C314.41 23.4766 313.385 23.5898 312.33 23.6406C311.279 23.6875 310.109 23.7109 308.82 23.7109L308.715 22.9609ZM316.895 27.4492H315.969V25.2812H309.992V24.543H316.895V27.4492ZM315.008 18.6953H308.973V17.9922H311.539V16.9492H312.453V17.9922H315.008V18.6953ZM311.984 19.75C311.504 19.7461 311.123 19.8223 310.842 19.9785C310.564 20.1348 310.426 20.3516 310.426 20.6289C310.426 20.8086 310.488 20.9668 310.613 21.1035C310.742 21.2402 310.924 21.3477 311.158 21.4258C311.393 21.5 311.668 21.5352 311.984 21.5312C312.301 21.5352 312.576 21.5 312.811 21.4258C313.049 21.3477 313.232 21.2402 313.361 21.1035C313.49 20.9668 313.555 20.8086 313.555 20.6289C313.555 20.3555 313.412 20.1387 313.127 19.9785C312.846 19.8184 312.465 19.7422 311.984 19.75ZM327.97 23.2422H327.044V20.5117H324.946V19.75H327.044V17.0312H327.97V23.2422ZM324.512 23.5703C325.235 23.5703 325.858 23.6465 326.382 23.7988C326.905 23.9512 327.305 24.1719 327.583 24.4609C327.864 24.75 328.005 25.0977 328.005 25.5039C328.005 25.9102 327.864 26.2578 327.583 26.5469C327.305 26.8398 326.905 27.0625 326.382 27.2148C325.858 27.3672 325.235 27.4453 324.512 27.4492C323.79 27.4453 323.167 27.3672 322.643 27.2148C322.12 27.0625 321.718 26.8398 321.436 26.5469C321.159 26.2578 321.02 25.9102 321.02 25.5039C321.02 25.0977 321.159 24.75 321.436 24.4609C321.718 24.1719 322.12 23.9512 322.643 23.7988C323.167 23.6465 323.79 23.5703 324.512 23.5703ZM324.512 24.2852C323.985 24.2852 323.526 24.334 323.136 24.4316C322.745 24.5293 322.446 24.6699 322.239 24.8535C322.032 25.0371 321.93 25.2539 321.934 25.5039C321.93 25.75 322.032 25.9648 322.239 26.1484C322.446 26.3281 322.745 26.4668 323.136 26.5645C323.526 26.6621 323.985 26.7109 324.512 26.7109C325.04 26.7109 325.497 26.6621 325.884 26.5645C326.274 26.4668 326.573 26.3281 326.78 26.1484C326.987 25.9648 327.091 25.75 327.091 25.5039C327.091 25.2539 326.987 25.0371 326.78 24.8535C326.573 24.6699 326.274 24.5293 325.884 24.4316C325.497 24.334 325.04 24.2852 324.512 24.2852ZM322.954 18.9414C322.954 19.3906 323.061 19.8262 323.276 20.248C323.491 20.666 323.792 21.0391 324.179 21.3672C324.569 21.6914 325.016 21.9414 325.52 22.1172L325.04 22.8555C324.458 22.6445 323.946 22.332 323.505 21.918C323.067 21.5039 322.737 21.0254 322.514 20.4824C322.288 21.0918 321.942 21.6309 321.477 22.0996C321.016 22.5645 320.477 22.9141 319.86 23.1484L319.38 22.4102C319.891 22.2227 320.348 21.9531 320.751 21.6016C321.153 21.2461 321.466 20.8379 321.688 20.377C321.915 19.916 322.028 19.4414 322.028 18.9531V18.5664H319.673V17.793H325.286V18.5664H322.954V18.9414Z" fill="#FAFAF7"/>
</g>
</g>
<g id="Content">
<g id="Frame 106">
<g id="1">
<g id="Frame 103">
<path id="ICN" d="M24.5332 76H21.3105V60.4453H24.5332V76ZM37.2527 65.8594C37.1668 65.2936 36.9699 64.8031 36.6619 64.3877C36.354 63.9652 35.9601 63.6429 35.4803 63.4209C35.0005 63.1989 34.4598 63.0879 33.8582 63.0879C33.049 63.0879 32.34 63.292 31.7312 63.7002C31.1297 64.1012 30.6642 64.6885 30.3348 65.4619C30.0053 66.2282 29.8406 67.1484 29.8406 68.2227C29.8406 69.3184 30.0053 70.2529 30.3348 71.0264C30.6642 71.7926 31.1297 72.3727 31.7312 72.7666C32.3328 73.1605 33.0346 73.3574 33.8367 73.3574C34.7319 73.3574 35.4839 73.1211 36.0926 72.6484C36.7085 72.1758 37.0952 71.5241 37.2527 70.6934L40.5184 70.7148C40.3966 71.696 40.0493 72.6055 39.4764 73.4434C38.9035 74.2812 38.13 74.9544 37.1561 75.4629C36.1821 75.9642 35.0613 76.2148 33.7937 76.2148C32.3973 76.2148 31.1512 75.8997 30.0555 75.2695C28.9598 74.6322 28.1004 73.7119 27.4773 72.5088C26.8615 71.3057 26.5535 69.877 26.5535 68.2227C26.5535 66.5755 26.865 65.1504 27.4881 63.9473C28.1183 62.737 28.9812 61.8167 30.077 61.1865C31.1798 60.5492 32.4187 60.2305 33.7937 60.2305C34.9897 60.2305 36.0711 60.4525 37.0379 60.8965C38.0047 61.3405 38.7889 61.9886 39.3904 62.8408C39.9992 63.6859 40.3751 64.6921 40.5184 65.8594H37.2527ZM55.4508 76H52.6578L45.8258 66.1172H45.6969V76H42.4742V60.4453H45.3102L52.0992 70.3281H52.2496V60.4453H55.4508V76Z" fill="#1A1A1A"/>
<path id="09:00" d="M23.5742 96.1172C22.9492 96.1172 22.4141 95.9473 21.9688 95.6074C21.5273 95.2676 21.1895 94.7715 20.9551 94.1191C20.7246 93.4668 20.6094 92.6797 20.6094 91.7578C20.6094 90.8477 20.7266 90.0664 20.9609 89.4141C21.1953 88.7578 21.5352 88.2578 21.9805 87.9141C22.4258 87.5703 22.957 87.3984 23.5742 87.3984C24.1914 87.3984 24.7227 87.5703 25.168 87.9141C25.6133 88.2578 25.9531 88.7578 26.1875 89.4141C26.4219 90.0664 26.5391 90.8477 26.5391 91.7578C26.5391 92.6797 26.4219 93.4668 26.1875 94.1191C25.957 94.7715 25.6191 95.2676 25.1738 95.6074C24.7285 95.9473 24.1953 96.1172 23.5742 96.1172ZM23.5742 95.1797C23.9805 95.1797 24.3281 95.0469 24.6172 94.7812C24.9062 94.5156 25.127 94.127 25.2793 93.6152C25.4316 93.1035 25.5078 92.4844 25.5078 91.7578C25.5078 91.0312 25.4316 90.4102 25.2793 89.8945C25.127 89.3789 24.9062 88.9863 24.6172 88.7168C24.3281 88.4473 23.9805 88.3125 23.5742 88.3125C23.168 88.3125 22.8184 88.4473 22.5254 88.7168C22.2363 88.9863 22.0137 89.3789 21.8574 89.8945C21.7051 90.4102 21.6289 91.0312 21.6289 91.7578C21.6289 92.4844 21.7051 93.1035 21.8574 93.6152C22.0098 94.127 22.2305 94.5156 22.5195 94.7812C22.8125 95.0469 23.1641 95.1797 23.5742 95.1797ZM30.9461 87.3984C31.4891 87.3984 31.993 87.5234 32.4578 87.7734C32.9227 88.0195 33.3035 88.4414 33.6004 89.0391C33.9012 89.6367 34.0516 90.4297 34.0516 91.418C34.0516 92.4102 33.9207 93.2598 33.659 93.9668C33.4012 94.6699 33.0301 95.2051 32.5457 95.5723C32.0652 95.9355 31.493 96.1172 30.8289 96.1172C30.3406 96.1172 29.9012 96.0234 29.5105 95.8359C29.1199 95.6445 28.7996 95.3789 28.5496 95.0391C28.3035 94.6992 28.1453 94.3047 28.075 93.8555H29.118C29.2156 94.2539 29.4109 94.5742 29.7039 94.8164C29.9969 95.0586 30.3719 95.1797 30.8289 95.1797C31.2898 95.1797 31.6863 95.0527 32.0184 94.7988C32.3543 94.541 32.6121 94.168 32.7918 93.6797C32.9715 93.1914 33.0633 92.6055 33.0672 91.9219H32.95C32.7 92.2773 32.3875 92.5547 32.0125 92.7539C31.6375 92.9492 31.2273 93.0469 30.782 93.0469C30.2781 93.0469 29.8133 92.9277 29.3875 92.6895C28.9617 92.4473 28.6238 92.1133 28.3738 91.6875C28.1277 91.2617 28.0047 90.7812 28.0047 90.2461C28.0047 89.7227 28.1258 89.2441 28.368 88.8105C28.6141 88.377 28.9598 88.0332 29.4051 87.7793C29.8504 87.5254 30.3641 87.3984 30.9461 87.3984ZM30.9695 88.3242C30.6102 88.3242 30.282 88.4102 29.9852 88.582C29.6922 88.75 29.4598 88.9785 29.2879 89.2676C29.1199 89.5566 29.0359 89.8711 29.0359 90.2109C29.0359 90.5664 29.116 90.8906 29.2762 91.1836C29.4363 91.4727 29.6609 91.7012 29.95 91.8691C30.2391 92.0371 30.5672 92.1211 30.9344 92.1211C31.2937 92.1211 31.6238 92.0332 31.9246 91.8574C32.2254 91.6777 32.4637 91.4414 32.6395 91.1484C32.8152 90.8516 32.9031 90.5391 32.9031 90.2109C32.9031 89.8867 32.8191 89.5801 32.6512 89.291C32.4832 88.998 32.2508 88.7637 31.9539 88.5879C31.6609 88.4121 31.3328 88.3242 30.9695 88.3242ZM36.4312 94.875C36.2945 94.875 36.1676 94.8418 36.0504 94.7754C35.9371 94.7051 35.8453 94.6113 35.775 94.4941C35.7086 94.377 35.6773 94.25 35.6812 94.1133C35.6773 93.9805 35.7086 93.8574 35.775 93.7441C35.8453 93.627 35.9371 93.5352 36.0504 93.4688C36.1676 93.3984 36.2945 93.3633 36.4312 93.3633C36.5641 93.3633 36.6871 93.3984 36.8004 93.4688C36.9176 93.5352 37.0094 93.627 37.0758 93.7441C37.1461 93.8574 37.1812 93.9805 37.1812 94.1133C37.1812 94.25 37.1461 94.377 37.0758 94.4941C37.0094 94.6113 36.9176 94.7051 36.8004 94.7754C36.6871 94.8418 36.5641 94.875 36.4312 94.875ZM36.4312 90.1641C36.2945 90.1641 36.1676 90.1309 36.0504 90.0645C35.9371 89.9941 35.8453 89.9004 35.775 89.7832C35.7086 89.666 35.6773 89.5391 35.6812 89.4023C35.6773 89.2695 35.7086 89.1465 35.775 89.0332C35.8453 88.916 35.9371 88.8242 36.0504 88.7578C36.1676 88.6875 36.2945 88.6523 36.4312 88.6523C36.5641 88.6523 36.6871 88.6875 36.8004 88.7578C36.9176 88.8242 37.0094 88.916 37.0758 89.0332C37.1461 89.1465 37.1812 89.2695 37.1812 89.4023C37.1812 89.5391 37.1461 89.666 37.0758 89.7832C37.0094 89.9004 36.9176 89.9941 36.8004 90.0645C36.6871 90.1309 36.5641 90.1641 36.4312 90.1641ZM41.7289 96.1172C41.1039 96.1172 40.5688 95.9473 40.1234 95.6074C39.682 95.2676 39.3441 94.7715 39.1098 94.1191C38.8793 93.4668 38.7641 92.6797 38.7641 91.7578C38.7641 90.8477 38.8813 90.0664 39.1156 89.4141C39.35 88.7578 39.6898 88.2578 40.1352 87.9141C40.5805 87.5703 41.1117 87.3984 41.7289 87.3984C42.3461 87.3984 42.8773 87.5703 43.3227 87.9141C43.768 88.2578 44.1078 88.7578 44.3422 89.4141C44.5766 90.0664 44.6938 90.8477 44.6938 91.7578C44.6938 92.6797 44.5766 93.4668 44.3422 94.1191C44.1117 94.7715 43.7738 95.2676 43.3285 95.6074C42.8832 95.9473 42.35 96.1172 41.7289 96.1172ZM41.7289 95.1797C42.1352 95.1797 42.4828 95.0469 42.7719 94.7812C43.0609 94.5156 43.2816 94.127 43.434 93.6152C43.5863 93.1035 43.6625 92.4844 43.6625 91.7578C43.6625 91.0312 43.5863 90.4102 43.434 89.8945C43.2816 89.3789 43.0609 88.9863 42.7719 88.7168C42.4828 88.4473 42.1352 88.3125 41.7289 88.3125C41.3227 88.3125 40.973 88.4473 40.6801 88.7168C40.391 88.9863 40.1684 89.3789 40.0121 89.8945C39.8598 90.4102 39.7836 91.0312 39.7836 91.7578C39.7836 92.4844 39.8598 93.1035 40.0121 93.6152C40.1645 94.127 40.3852 94.5156 40.6742 94.7812C40.9672 95.0469 41.3188 95.1797 41.7289 95.1797ZM49.0773 96.1172C48.4523 96.1172 47.9172 95.9473 47.4719 95.6074C47.0305 95.2676 46.6926 94.7715 46.4582 94.1191C46.2277 93.4668 46.1125 92.6797 46.1125 91.7578C46.1125 90.8477 46.2297 90.0664 46.4641 89.4141C46.6984 88.7578 47.0383 88.2578 47.4836 87.9141C47.9289 87.5703 48.4602 87.3984 49.0773 87.3984C49.6945 87.3984 50.2258 87.5703 50.6711 87.9141C51.1164 88.2578 51.4562 88.7578 51.6906 89.4141C51.925 90.0664 52.0422 90.8477 52.0422 91.7578C52.0422 92.6797 51.925 93.4668 51.6906 94.1191C51.4602 94.7715 51.1223 95.2676 50.677 95.6074C50.2316 95.9473 49.6984 96.1172 49.0773 96.1172ZM49.0773 95.1797C49.4836 95.1797 49.8312 95.0469 50.1203 94.7812C50.4094 94.5156 50.6301 94.127 50.7824 93.6152C50.9348 93.1035 51.0109 92.4844 51.0109 91.7578C51.0109 91.0312 50.9348 90.4102 50.7824 89.8945C50.6301 89.3789 50.4094 88.9863 50.1203 88.7168C49.8312 88.4473 49.4836 88.3125 49.0773 88.3125C48.6711 88.3125 48.3215 88.4473 48.0285 88.7168C47.7395 88.9863 47.5168 89.3789 47.3605 89.8945C47.2082 90.4102 47.132 91.0312 47.132 91.7578C47.132 92.4844 47.2082 93.1035 47.3605 93.6152C47.5129 94.127 47.7336 94.5156 48.0227 94.7812C48.3156 95.0469 48.6672 95.1797 49.0773 95.1797Z" fill="#888882"/>
</g>
<g id="Frame 107">
<path id="KE721" d="M153.965 62.2227H155.146V65.9287H155.243L158.498 62.2227H159.98L156.844 65.7246L159.991 70H158.562L156.06 66.5303L155.146 67.583V70H153.965V62.2227ZM161.158 62.2227H166.035V63.2432H162.34V65.5957H165.777V66.6055H162.34V68.9795H166.078V70H161.158V62.2227ZM171.316 63.2969V63.2324H167.309V62.2227H172.541V63.2754L169.082 70H167.846L171.316 63.2969ZM173.933 69.1406L176.629 66.4229C176.955 66.0791 177.204 65.8034 177.376 65.5957C177.548 65.388 177.678 65.1857 177.768 64.9888C177.861 64.7882 177.908 64.5788 177.908 64.3604C177.908 64.1097 177.845 63.8895 177.72 63.6997C177.594 63.5099 177.422 63.3631 177.204 63.2593C176.986 63.1554 176.74 63.1035 176.468 63.1035C176.185 63.1035 175.936 63.1608 175.722 63.2754C175.507 63.39 175.34 63.5511 175.222 63.7588C175.107 63.9665 175.05 64.2064 175.05 64.4785H173.933C173.929 64.013 174.037 63.6012 174.255 63.2432C174.474 62.8851 174.778 62.6076 175.168 62.4106C175.559 62.2137 175.999 62.1152 176.49 62.1152C176.984 62.1152 177.422 62.2119 177.806 62.4053C178.192 62.5951 178.493 62.8582 178.708 63.1948C178.923 63.5314 179.032 63.9092 179.036 64.3281C179.032 64.6253 178.975 64.9118 178.864 65.1875C178.753 65.4596 178.563 65.764 178.294 66.1006C178.026 66.4336 177.646 66.8418 177.156 67.3252L175.577 68.9258V68.9902H179.164V70H173.933V69.1406ZM183.629 70H182.437V63.4043H182.394L180.535 64.6182V63.4902L182.469 62.2227H183.629V70Z" fill="#888882"/>
<path id="Line 5" d="M244.17 77L239.17 74.1132V79.8868L244.17 77ZM94.1699 77V77.5H239.67V77V76.5H94.1699V77Z" fill="#888882"/>
<path id="2&#236;&#139;&#156;&#234;&#176;&#132; 30&#235;&#182;&#132;" d="M143.357 90.1406L146.054 87.4229C146.38 87.0791 146.628 86.8034 146.8 86.5957C146.972 86.388 147.103 86.1857 147.192 85.9888C147.285 85.7882 147.332 85.5788 147.332 85.3604C147.332 85.1097 147.269 84.8895 147.144 84.6997C147.019 84.5099 146.847 84.3631 146.628 84.2593C146.41 84.1554 146.165 84.1035 145.893 84.1035C145.61 84.1035 145.361 84.1608 145.146 84.2754C144.931 84.39 144.765 84.5511 144.646 84.7588C144.532 84.9665 144.475 85.2064 144.475 85.4785H143.357C143.354 85.013 143.461 84.6012 143.68 84.2432C143.898 83.8851 144.202 83.6076 144.593 83.4106C144.983 83.2137 145.424 83.1152 145.914 83.1152C146.408 83.1152 146.847 83.2119 147.23 83.4053C147.617 83.5951 147.917 83.8582 148.132 84.1948C148.347 84.5314 148.456 84.9092 148.46 85.3281C148.456 85.6253 148.399 85.9118 148.288 86.1875C148.177 86.4596 147.987 86.764 147.719 87.1006C147.45 87.4336 147.071 87.8418 146.58 88.3252L145.001 89.9258V89.9902H148.589V91H143.357V90.1406ZM153.301 84.7373C153.297 85.3174 153.403 85.8885 153.617 86.4507C153.836 87.0093 154.138 87.507 154.525 87.9438C154.915 88.3807 155.356 88.7083 155.846 88.9268L155.234 89.7324C154.686 89.471 154.201 89.0861 153.779 88.5776C153.356 88.0656 153.03 87.4784 152.801 86.8159C152.575 87.5285 152.246 88.1587 151.813 88.7065C151.383 89.2544 150.884 89.668 150.314 89.9473L149.691 89.0879C150.189 88.8659 150.633 88.5293 151.023 88.0781C151.417 87.627 151.723 87.1095 151.942 86.5259C152.16 85.9386 152.269 85.3424 152.269 84.7373V83.0938H153.301V84.7373ZM157.737 91.9346H156.717V82.2881H157.737V91.9346ZM167.036 85.1348H168.432V85.9834H167.036V89.2812H166.004V82.2881H167.036V85.1348ZM164.425 83.0186C164.425 83.8493 164.245 84.6066 163.883 85.2905C163.521 85.9744 163 86.5653 162.32 87.063C161.643 87.5571 160.834 87.9456 159.892 88.2285L159.462 87.4121C160.211 87.1865 160.861 86.8983 161.412 86.5474C161.967 86.1965 162.406 85.7936 162.728 85.3389C163.054 84.8841 163.249 84.3936 163.314 83.8672H159.871V83.0186H164.425ZM167.433 91.709H160.923V88.5615H161.955V90.8818H167.433V91.709ZM175.159 91.1074C174.629 91.1074 174.153 91.0179 173.731 90.8389C173.312 90.6598 172.981 90.4092 172.737 90.0869C172.497 89.7611 172.37 89.3887 172.356 88.9697H173.559C173.573 89.1953 173.65 89.3923 173.79 89.5605C173.933 89.7288 174.123 89.8595 174.359 89.9526C174.595 90.0422 174.859 90.0869 175.149 90.0869C175.457 90.0869 175.734 90.0332 175.981 89.9258C176.228 89.8184 176.422 89.6698 176.561 89.48C176.701 89.2866 176.771 89.0664 176.771 88.8193C176.771 88.5651 176.701 88.3377 176.561 88.1372C176.422 87.9367 176.219 87.7809 175.954 87.6699C175.693 87.5553 175.381 87.498 175.02 87.498H174.354V86.5312H175.02C175.31 86.5312 175.569 86.4793 175.799 86.3755C176.028 86.2716 176.205 86.1266 176.33 85.9404C176.459 85.7542 176.524 85.5394 176.524 85.2959C176.524 85.0596 176.468 84.8519 176.357 84.6729C176.246 84.4938 176.089 84.3542 175.884 84.2539C175.68 84.1536 175.442 84.1035 175.17 84.1035C174.905 84.1035 174.66 84.1501 174.434 84.2432C174.209 84.3363 174.026 84.4688 173.886 84.6406C173.75 84.8125 173.677 85.013 173.666 85.2422H172.528C172.538 84.8304 172.662 84.4634 172.898 84.1411C173.138 83.8153 173.459 83.5628 173.86 83.3838C174.261 83.2048 174.701 83.1152 175.181 83.1152C175.675 83.1152 176.11 83.2101 176.486 83.3999C176.866 83.5897 177.157 83.8475 177.362 84.1733C177.566 84.4956 177.666 84.8483 177.662 85.2314C177.666 85.6683 177.542 86.0407 177.292 86.3486C177.045 86.653 176.71 86.8571 176.287 86.9609V87.0146C176.814 87.0898 177.224 87.2922 177.517 87.6216C177.814 87.951 177.963 88.3646 177.963 88.8623C177.963 89.2884 177.841 89.6733 177.598 90.0171C177.354 90.3573 177.02 90.624 176.593 90.8174C176.167 91.0107 175.689 91.1074 175.159 91.1074ZM182.17 91.1074C181.572 91.1074 181.058 90.9517 180.628 90.6401C180.202 90.3286 179.876 89.8739 179.651 89.2759C179.425 88.6743 179.312 87.9528 179.312 87.1113C179.312 86.277 179.425 85.5609 179.651 84.9629C179.88 84.3613 180.209 83.903 180.639 83.5879C181.069 83.2728 181.579 83.1152 182.17 83.1152C182.761 83.1152 183.271 83.2728 183.701 83.5879C184.13 83.903 184.458 84.3613 184.684 84.9629C184.913 85.5609 185.027 86.277 185.027 87.1113C185.027 87.9528 184.915 88.6725 184.689 89.2705C184.463 89.8685 184.136 90.325 183.706 90.6401C183.276 90.9517 182.764 91.1074 182.17 91.1074ZM182.17 90.0869C182.521 90.0869 182.822 89.9741 183.072 89.7485C183.323 89.5194 183.514 89.1828 183.647 88.7388C183.779 88.2948 183.846 87.7523 183.846 87.1113C183.846 86.474 183.778 85.9315 183.642 85.4839C183.509 85.0327 183.318 84.6925 183.067 84.4634C182.816 84.2306 182.517 84.1143 182.17 84.1143C181.823 84.1143 181.524 84.2306 181.273 84.4634C181.022 84.6925 180.829 85.0327 180.693 85.4839C180.56 85.9315 180.494 86.474 180.494 87.1113C180.494 87.7523 180.56 88.2948 180.693 88.7388C180.825 89.1828 181.017 89.5194 181.268 89.7485C181.518 89.9741 181.819 90.0869 182.17 90.0869ZM194.917 88.1426H191.093V89.915H190.083V88.1426H186.108V87.3262H194.917V88.1426ZM193.939 91.709H187.204V89.0771H188.214V90.8818H193.939V91.709ZM188.278 83.7598H192.736V82.5889H193.757V86.4775H187.268V82.5889H188.278V83.7598ZM192.736 85.6611V84.5225H188.278V85.6611H192.736Z" fill="#888882"/>
</g>
<g id="Frame 104">
<path id="NRT" d="M295.627 76H292.834L286.002 66.1172H285.873V76H282.65V60.4453H285.486L292.275 70.3281H292.426V60.4453H295.627V76ZM297.948 60.4453H304.05C305.217 60.4453 306.216 60.653 307.047 61.0684C307.885 61.4837 308.522 62.0745 308.959 62.8408C309.396 63.5999 309.614 64.4915 309.614 65.5156C309.614 66.5755 309.378 67.485 308.905 68.2441C308.432 69.0033 307.752 69.5726 306.864 69.9521L310.173 76H306.606L303.631 70.4785H301.171V76H297.948V60.4453ZM303.448 67.8574C305.339 67.8574 306.284 67.0768 306.284 65.5156C306.284 64.7207 306.048 64.1191 305.575 63.7109C305.102 63.2956 304.393 63.0879 303.448 63.0879H301.171V67.8574H303.448ZM310.947 60.4453H323.687V63.1094H318.918V76H315.716V63.1094H310.947V60.4453Z" fill="#1A1A1A"/>
<path id="11:30" d="M300.137 96H299.07V88.6172H299.023L296.961 89.9883V88.9219L299.07 87.5156H300.137V96ZM305.598 96H304.532V88.6172H304.485L302.423 89.9883V88.9219L304.532 87.5156H305.598V96ZM308.787 94.875C308.65 94.875 308.523 94.8418 308.406 94.7754C308.293 94.7051 308.201 94.6113 308.13 94.4941C308.064 94.377 308.033 94.25 308.037 94.1133C308.033 93.9805 308.064 93.8574 308.13 93.7441C308.201 93.627 308.293 93.5352 308.406 93.4688C308.523 93.3984 308.65 93.3633 308.787 93.3633C308.92 93.3633 309.043 93.3984 309.156 93.4688C309.273 93.5352 309.365 93.627 309.431 93.7441C309.502 93.8574 309.537 93.9805 309.537 94.1133C309.537 94.25 309.502 94.377 309.431 94.4941C309.365 94.6113 309.273 94.7051 309.156 94.7754C309.043 94.8418 308.92 94.875 308.787 94.875ZM308.787 90.1641C308.65 90.1641 308.523 90.1309 308.406 90.0645C308.293 89.9941 308.201 89.9004 308.13 89.7832C308.064 89.666 308.033 89.5391 308.037 89.4023C308.033 89.2695 308.064 89.1465 308.13 89.0332C308.201 88.916 308.293 88.8242 308.406 88.7578C308.523 88.6875 308.65 88.6523 308.787 88.6523C308.92 88.6523 309.043 88.6875 309.156 88.7578C309.273 88.8242 309.365 88.916 309.431 89.0332C309.502 89.1465 309.537 89.2695 309.537 89.4023C309.537 89.5391 309.502 89.666 309.431 89.7832C309.365 89.9004 309.273 89.9941 309.156 90.0645C309.043 90.1309 308.92 90.1641 308.787 90.1641ZM314.237 96.1172C313.678 96.1172 313.178 96.0234 312.737 95.8359C312.299 95.6484 311.952 95.3848 311.694 95.0449C311.44 94.7051 311.303 94.3125 311.284 93.8672H312.35C312.37 94.1289 312.463 94.3594 312.631 94.5586C312.803 94.7578 313.028 94.9121 313.305 95.0215C313.582 95.127 313.889 95.1797 314.225 95.1797C314.592 95.1797 314.922 95.1172 315.215 94.9922C315.512 94.8633 315.743 94.6875 315.907 94.4648C316.075 94.2383 316.159 93.9805 316.159 93.6914C316.159 93.3789 316.077 93.1035 315.913 92.8652C315.752 92.627 315.518 92.4414 315.209 92.3086C314.901 92.1758 314.53 92.1094 314.096 92.1094H313.405V91.1836H314.096C314.436 91.1836 314.739 91.123 315.004 91.002C315.27 90.8809 315.475 90.7109 315.62 90.4922C315.768 90.2734 315.842 90.0195 315.842 89.7305C315.842 89.4531 315.776 89.207 315.643 88.9922C315.514 88.7773 315.33 88.6113 315.092 88.4941C314.854 88.373 314.577 88.3125 314.26 88.3125C313.955 88.3125 313.67 88.3672 313.405 88.4766C313.139 88.5859 312.922 88.7422 312.754 88.9453C312.586 89.1445 312.495 89.3789 312.479 89.6484H311.459C311.479 89.2109 311.616 88.8223 311.87 88.4824C312.123 88.1387 312.461 87.873 312.883 87.6855C313.305 87.4941 313.768 87.3984 314.272 87.3984C314.795 87.3984 315.252 87.502 315.643 87.709C316.038 87.9121 316.34 88.1875 316.551 88.5352C316.762 88.8828 316.866 89.2617 316.862 89.6719C316.866 90.1484 316.739 90.5566 316.481 90.8965C316.223 91.2363 315.87 91.4688 315.42 91.5938V91.6523C315.784 91.7109 316.098 91.834 316.364 92.0215C316.633 92.2051 316.838 92.4414 316.979 92.7305C317.123 93.0156 317.194 93.3359 317.19 93.6914C317.194 94.1484 317.067 94.5625 316.809 94.9336C316.551 95.3008 316.196 95.5898 315.743 95.8008C315.293 96.0117 314.791 96.1172 314.237 96.1172ZM321.691 96.1172C321.066 96.1172 320.53 95.9473 320.085 95.6074C319.644 95.2676 319.306 94.7715 319.071 94.1191C318.841 93.4668 318.726 92.6797 318.726 91.7578C318.726 90.8477 318.843 90.0664 319.077 89.4141C319.312 88.7578 319.652 88.2578 320.097 87.9141C320.542 87.5703 321.073 87.3984 321.691 87.3984C322.308 87.3984 322.839 87.5703 323.284 87.9141C323.73 88.2578 324.07 88.7578 324.304 89.4141C324.538 90.0664 324.655 90.8477 324.655 91.7578C324.655 92.6797 324.538 93.4668 324.304 94.1191C324.073 94.7715 323.736 95.2676 323.29 95.6074C322.845 95.9473 322.312 96.1172 321.691 96.1172ZM321.691 95.1797C322.097 95.1797 322.445 95.0469 322.734 94.7812C323.023 94.5156 323.243 94.127 323.396 93.6152C323.548 93.1035 323.624 92.4844 323.624 91.7578C323.624 91.0312 323.548 90.4102 323.396 89.8945C323.243 89.3789 323.023 88.9863 322.734 88.7168C322.445 88.4473 322.097 88.3125 321.691 88.3125C321.284 88.3125 320.935 88.4473 320.642 88.7168C320.353 88.9863 320.13 89.3789 319.974 89.8945C319.821 90.4102 319.745 91.0312 319.745 91.7578C319.745 92.4844 319.821 93.1035 319.974 93.6152C320.126 94.127 320.347 94.5156 320.636 94.7812C320.929 95.0469 321.28 95.1797 321.691 95.1797Z" fill="#888882"/>
</g>
</g>
<g id="2">
<path id="2026&#235;&#133;&#132; 5&#236;&#155;&#148; 1&#236;&#157;&#188; &#194;&#183; Korean Air" d="M20.9551 117.227L23.8496 114.18C24.2324 113.777 24.5234 113.453 24.7227 113.207C24.9258 112.957 25.0781 112.717 25.1797 112.486C25.2852 112.252 25.3379 112.008 25.3379 111.754C25.3379 111.473 25.2637 111.223 25.1152 111.004C24.9668 110.785 24.7637 110.615 24.5059 110.494C24.252 110.373 23.9668 110.312 23.6504 110.312C23.3184 110.312 23.0273 110.379 22.7773 110.512C22.5273 110.645 22.334 110.832 22.1973 111.074C22.0645 111.316 21.998 111.594 21.998 111.906H21.002C20.998 111.414 21.1113 110.979 21.3418 110.6C21.5762 110.221 21.8984 109.926 22.3086 109.715C22.7188 109.504 23.1777 109.398 23.6855 109.398C24.1895 109.398 24.6406 109.502 25.0391 109.709C25.4414 109.916 25.7559 110.199 25.9824 110.559C26.209 110.918 26.3223 111.316 26.3223 111.754C26.3223 112.078 26.2637 112.389 26.1465 112.686C26.0293 112.979 25.832 113.305 25.5547 113.664C25.2812 114.02 24.8887 114.461 24.377 114.988L22.4316 116.992V117.062H26.4746V118H20.9668L20.9551 117.227ZM30.9871 118.117C30.3621 118.117 29.827 117.947 29.3816 117.607C28.9402 117.268 28.6023 116.771 28.368 116.119C28.1375 115.467 28.0223 114.68 28.0223 113.758C28.0223 112.848 28.1395 112.066 28.3738 111.414C28.6082 110.758 28.948 110.258 29.3934 109.914C29.8387 109.57 30.3699 109.398 30.9871 109.398C31.6043 109.398 32.1355 109.57 32.5809 109.914C33.0262 110.258 33.366 110.758 33.6004 111.414C33.8348 112.066 33.952 112.848 33.952 113.758C33.952 114.68 33.8348 115.467 33.6004 116.119C33.3699 116.771 33.032 117.268 32.5867 117.607C32.1414 117.947 31.6082 118.117 30.9871 118.117ZM30.9871 117.18C31.3934 117.18 31.741 117.047 32.0301 116.781C32.3191 116.516 32.5398 116.127 32.6922 115.615C32.8445 115.104 32.9207 114.484 32.9207 113.758C32.9207 113.031 32.8445 112.41 32.6922 111.895C32.5398 111.379 32.3191 110.986 32.0301 110.717C31.741 110.447 31.3934 110.312 30.9871 110.312C30.5809 110.312 30.2312 110.447 29.9383 110.717C29.6492 110.986 29.4266 111.379 29.2703 111.895C29.118 112.41 29.0418 113.031 29.0418 113.758C29.0418 114.484 29.118 115.104 29.2703 115.615C29.4227 116.127 29.6434 116.516 29.9324 116.781C30.2254 117.047 30.577 117.18 30.9871 117.18ZM35.5465 117.227L38.441 114.18C38.8238 113.777 39.1148 113.453 39.3141 113.207C39.5172 112.957 39.6695 112.717 39.7711 112.486C39.8766 112.252 39.9293 112.008 39.9293 111.754C39.9293 111.473 39.8551 111.223 39.7066 111.004C39.5582 110.785 39.3551 110.615 39.0973 110.494C38.8434 110.373 38.5582 110.312 38.2418 110.312C37.9098 110.312 37.6187 110.379 37.3687 110.512C37.1187 110.645 36.9254 110.832 36.7887 111.074C36.6559 111.316 36.5895 111.594 36.5895 111.906H35.5934C35.5895 111.414 35.7027 110.979 35.9332 110.6C36.1676 110.221 36.4898 109.926 36.9 109.715C37.3102 109.504 37.7691 109.398 38.277 109.398C38.7809 109.398 39.232 109.502 39.6305 109.709C40.0328 109.916 40.3473 110.199 40.5738 110.559C40.8004 110.918 40.9137 111.316 40.9137 111.754C40.9137 112.078 40.8551 112.389 40.7379 112.686C40.6207 112.979 40.4234 113.305 40.1461 113.664C39.8727 114.02 39.4801 114.461 38.9684 114.988L37.023 116.992V117.062H41.066V118H35.5582L35.5465 117.227ZM45.7777 118.117C45.2309 118.117 44.723 117.994 44.2543 117.748C43.7895 117.498 43.4066 117.074 43.1059 116.477C42.809 115.875 42.6605 115.078 42.6605 114.086C42.6605 113.098 42.7895 112.252 43.0473 111.549C43.309 110.846 43.6801 110.312 44.1605 109.949C44.6449 109.582 45.2191 109.398 45.8832 109.398C46.3715 109.398 46.809 109.492 47.1957 109.68C47.5863 109.867 47.9047 110.131 48.1508 110.471C48.4008 110.811 48.5629 111.203 48.6371 111.648H47.5941C47.4887 111.254 47.2895 110.938 46.9965 110.699C46.7074 110.457 46.3363 110.336 45.8832 110.336C45.4223 110.336 45.0238 110.465 44.6879 110.723C44.3559 110.977 44.1 111.346 43.9203 111.83C43.7445 112.314 43.6566 112.895 43.6566 113.57H43.7621C44.0121 113.215 44.3246 112.939 44.6996 112.744C45.0746 112.545 45.4887 112.445 45.9418 112.445C46.4418 112.445 46.9027 112.566 47.3246 112.809C47.7504 113.051 48.0863 113.387 48.3324 113.816C48.5824 114.242 48.7074 114.723 48.7074 115.258C48.7074 115.785 48.5844 116.268 48.3383 116.705C48.0961 117.139 47.7523 117.482 47.307 117.736C46.8617 117.99 46.352 118.117 45.7777 118.117ZM45.7543 117.191C46.1137 117.191 46.4398 117.105 46.7328 116.934C47.0258 116.762 47.2563 116.529 47.4242 116.236C47.5961 115.939 47.684 115.617 47.6879 115.27C47.684 114.922 47.6 114.604 47.4359 114.314C47.2719 114.025 47.0453 113.797 46.7563 113.629C46.4672 113.457 46.141 113.371 45.7777 113.371C45.4145 113.371 45.0824 113.459 44.7816 113.635C44.4809 113.811 44.2426 114.047 44.0668 114.344C43.891 114.637 43.8012 114.949 43.7973 115.281C43.7973 115.613 43.8813 115.926 44.0492 116.219C44.2211 116.512 44.4555 116.748 44.7523 116.928C45.0531 117.104 45.3871 117.191 45.7543 117.191ZM58.6223 116.254H57.6965V112.645H54.6965V111.906H57.6965V110.652H54.6965V109.914H57.6965V108.543H58.6223V116.254ZM58.9035 118.727H51.9074V115.598H52.8332V117.953H58.9035V118.727ZM51.5324 113.922C52.3215 113.918 53.0656 113.889 53.7648 113.834C54.468 113.779 55.1926 113.684 55.9387 113.547L56.0324 114.309C55.2434 114.457 54.4855 114.559 53.759 114.613C53.0363 114.668 52.2473 114.699 51.3918 114.707H50.6066V109.293H51.5324V113.922ZM66.909 118.117C66.4051 118.117 65.9461 118.021 65.532 117.83C65.1219 117.635 64.7938 117.367 64.5477 117.027C64.3055 116.684 64.1746 116.297 64.1551 115.867H65.1746C65.202 116.117 65.2957 116.344 65.4559 116.547C65.616 116.746 65.823 116.904 66.077 117.021C66.3309 117.135 66.6082 117.191 66.909 117.191C67.2684 117.191 67.5926 117.109 67.8816 116.945C68.1707 116.781 68.3973 116.557 68.5613 116.271C68.7254 115.986 68.8074 115.668 68.8074 115.316C68.8074 114.953 68.7215 114.627 68.5496 114.338C68.3816 114.045 68.1473 113.816 67.8465 113.652C67.5496 113.484 67.2137 113.398 66.8387 113.395C66.0848 113.383 65.5574 113.637 65.2566 114.156H64.2371L64.8348 109.516H69.4285V110.453H65.7137L65.3973 112.938H65.4793C65.6707 112.789 65.9031 112.67 66.1766 112.58C66.45 112.49 66.7332 112.445 67.0262 112.445C67.5574 112.445 68.0359 112.568 68.4617 112.814C68.8914 113.057 69.2273 113.395 69.4695 113.828C69.7156 114.262 69.8387 114.75 69.8387 115.293C69.8387 115.832 69.7117 116.316 69.4578 116.746C69.2039 117.176 68.8543 117.512 68.409 117.754C67.9637 117.996 67.4637 118.117 66.909 118.117ZM79.7184 114.684H78.7926V114.109H76.6832V113.5H78.7926V108.543H79.7184V114.684ZM71.8785 112.469C74.3121 112.469 76.3316 112.383 77.9371 112.211L77.9957 112.809C77.0738 112.941 76.0348 113.037 74.8785 113.096V114.719H73.9762V113.131C73.1285 113.15 72.398 113.16 71.7848 113.16H71.1988L71.0934 112.469H71.8785ZM79.7184 117.215H73.6363V118.152H80.0582V118.832H72.734V116.57H78.8043V115.727H72.6871V115.059H79.7184V117.215ZM74.4918 108.742C75.0035 108.742 75.4547 108.807 75.8453 108.936C76.2359 109.064 76.5387 109.248 76.7535 109.486C76.9684 109.721 77.0777 109.996 77.0816 110.312C77.0777 110.633 76.9684 110.91 76.7535 111.145C76.5387 111.379 76.2359 111.559 75.8453 111.684C75.4586 111.809 75.0074 111.871 74.4918 111.871C73.9684 111.871 73.5113 111.809 73.1207 111.684C72.734 111.559 72.4332 111.379 72.2184 111.145C72.0074 110.91 71.902 110.633 71.902 110.312C71.902 109.996 72.0074 109.721 72.2184 109.486C72.4332 109.248 72.7359 109.064 73.1266 108.936C73.5172 108.807 73.9723 108.742 74.4918 108.742ZM74.4918 109.387C74.1441 109.387 73.8395 109.426 73.5777 109.504C73.316 109.578 73.1148 109.686 72.9742 109.826C72.8336 109.963 72.7652 110.125 72.7691 110.312C72.7652 110.496 72.8336 110.658 72.9742 110.799C73.1148 110.936 73.316 111.043 73.5777 111.121C73.8395 111.199 74.1441 111.238 74.4918 111.238C74.8355 111.238 75.1363 111.199 75.3941 111.121C75.6559 111.043 75.857 110.936 75.9977 110.799C76.1422 110.658 76.2145 110.496 76.2145 110.312C76.2145 110.125 76.1422 109.963 75.9977 109.826C75.857 109.686 75.6559 109.578 75.3941 109.504C75.1363 109.426 74.8355 109.387 74.4918 109.387ZM88.2863 118H87.2199V110.617H87.173L85.1105 111.988V110.922L87.2199 109.516H88.2863V118ZM93.3262 108.918C93.8418 108.922 94.3027 109.021 94.709 109.217C95.1191 109.412 95.4395 109.686 95.6699 110.037C95.9043 110.385 96.0215 110.781 96.0215 111.227C96.0215 111.672 95.9043 112.07 95.6699 112.422C95.4395 112.77 95.1191 113.041 94.709 113.236C94.3027 113.428 93.8418 113.523 93.3262 113.523C92.8027 113.523 92.3359 113.428 91.9258 113.236C91.5156 113.041 91.1953 112.77 90.9648 112.422C90.7344 112.07 90.6191 111.672 90.6191 111.227C90.6191 110.781 90.7344 110.385 90.9648 110.037C91.1953 109.686 91.5156 109.412 91.9258 109.217C92.3359 109.021 92.8027 108.922 93.3262 108.918ZM93.3262 109.691C92.9824 109.691 92.6719 109.758 92.3945 109.891C92.1211 110.02 91.9062 110.201 91.75 110.436C91.5938 110.666 91.5176 110.93 91.5215 111.227C91.5176 111.527 91.5938 111.795 91.75 112.029C91.9062 112.264 92.1211 112.447 92.3945 112.58C92.6719 112.709 92.9824 112.773 93.3262 112.773C93.666 112.773 93.9727 112.709 94.2461 112.58C94.5234 112.447 94.7402 112.264 94.8965 112.029C95.0527 111.795 95.1309 111.527 95.1309 111.227C95.1309 110.93 95.0527 110.666 94.8965 110.436C94.7402 110.201 94.5234 110.02 94.2461 109.891C93.9727 109.758 93.666 109.691 93.3262 109.691ZM98.9746 113.887H98.0605V108.531H98.9746V113.887ZM98.9746 116.898H93.127V118.07H99.3496V118.809H92.2246V116.207H98.0605V115.129H92.2012V114.391H98.9746V116.898ZM105.257 115.047C105.121 115.047 104.994 115.014 104.877 114.947C104.763 114.877 104.671 114.783 104.601 114.666C104.535 114.549 104.504 114.422 104.507 114.285C104.504 114.152 104.535 114.029 104.601 113.916C104.671 113.799 104.763 113.707 104.877 113.641C104.994 113.57 105.121 113.535 105.257 113.535C105.39 113.535 105.513 113.57 105.627 113.641C105.744 113.707 105.836 113.799 105.902 113.916C105.972 114.029 106.007 114.152 106.007 114.285C106.007 114.422 105.972 114.549 105.902 114.666C105.836 114.783 105.744 114.877 105.627 114.947C105.513 115.014 105.39 115.047 105.257 115.047ZM111.13 109.516H112.185V113.711H112.29L116.064 109.516H117.446L113.896 113.348L117.446 118H116.157L113.239 114.074L112.185 115.27V118H111.13V109.516ZM120.787 118.129C120.213 118.129 119.705 117.994 119.264 117.725C118.826 117.451 118.486 117.066 118.244 116.57C118.002 116.074 117.881 115.5 117.881 114.848C117.881 114.195 118.002 113.621 118.244 113.125C118.486 112.625 118.826 112.238 119.264 111.965C119.705 111.691 120.213 111.555 120.787 111.555C121.357 111.555 121.859 111.691 122.293 111.965C122.73 112.238 123.068 112.625 123.307 113.125C123.549 113.621 123.67 114.195 123.67 114.848C123.67 115.5 123.549 116.074 123.307 116.57C123.068 117.066 122.73 117.451 122.293 117.725C121.859 117.994 121.357 118.129 120.787 118.129ZM120.787 117.238C121.197 117.238 121.543 117.131 121.824 116.916C122.105 116.697 122.314 116.408 122.451 116.049C122.592 115.686 122.662 115.285 122.662 114.848C122.662 114.41 122.592 114.01 122.451 113.646C122.314 113.283 122.105 112.992 121.824 112.773C121.543 112.555 121.197 112.445 120.787 112.445C120.369 112.445 120.018 112.555 119.732 112.773C119.451 112.992 119.24 113.283 119.1 113.646C118.959 114.01 118.889 114.41 118.889 114.848C118.889 115.285 118.959 115.686 119.1 116.049C119.24 116.408 119.451 116.697 119.732 116.916C120.018 117.131 120.369 117.238 120.787 117.238ZM125.194 111.637H126.167V112.609H126.237C126.354 112.285 126.563 112.025 126.864 111.83C127.165 111.631 127.503 111.531 127.878 111.531C128.073 111.531 128.249 111.539 128.405 111.555V112.574C128.362 112.559 128.278 112.543 128.153 112.527C128.032 112.512 127.913 112.504 127.796 112.504C127.495 112.504 127.223 112.568 126.981 112.697C126.739 112.826 126.548 113.004 126.407 113.23C126.27 113.457 126.202 113.711 126.202 113.992V118H125.194V111.637ZM132.05 118.129C131.445 118.129 130.918 117.994 130.468 117.725C130.019 117.455 129.673 117.074 129.431 116.582C129.193 116.09 129.074 115.52 129.074 114.871C129.074 114.223 129.193 113.648 129.431 113.148C129.673 112.645 130.011 112.254 130.445 111.977C130.882 111.695 131.386 111.555 131.957 111.555C132.437 111.555 132.884 111.662 133.298 111.877C133.713 112.088 134.048 112.432 134.306 112.908C134.568 113.381 134.699 113.988 134.699 114.73V115.152H130.082C130.097 115.594 130.189 115.971 130.357 116.283C130.525 116.596 130.754 116.834 131.043 116.998C131.336 117.158 131.671 117.238 132.05 117.238C132.41 117.238 132.713 117.172 132.959 117.039C133.209 116.902 133.398 116.727 133.527 116.512H134.605C134.504 116.832 134.334 117.115 134.095 117.361C133.861 117.604 133.568 117.793 133.216 117.93C132.869 118.062 132.48 118.129 132.05 118.129ZM133.679 114.297C133.679 113.941 133.607 113.625 133.463 113.348C133.322 113.066 133.121 112.846 132.859 112.686C132.597 112.525 132.296 112.445 131.957 112.445C131.601 112.445 131.285 112.529 131.007 112.697C130.734 112.865 130.517 113.092 130.357 113.377C130.201 113.658 130.111 113.965 130.088 114.297H133.679ZM135.907 116.195C135.907 115.535 136.131 115.07 136.58 114.801C137.034 114.531 137.606 114.371 138.297 114.32C138.563 114.301 138.86 114.283 139.188 114.268C139.52 114.248 139.797 114.234 140.02 114.227V113.711C140.02 113.301 139.897 112.986 139.651 112.768C139.409 112.545 139.051 112.434 138.579 112.434C138.192 112.434 137.875 112.514 137.629 112.674C137.383 112.83 137.223 113.035 137.149 113.289H136.094C136.137 112.949 136.27 112.648 136.493 112.387C136.715 112.125 137.01 111.922 137.377 111.777C137.748 111.629 138.164 111.555 138.625 111.555C139.235 111.555 139.786 111.711 140.278 112.023C140.77 112.332 141.016 112.926 141.016 113.805V118H140.02V117.133H139.973C139.895 117.297 139.774 117.457 139.61 117.613C139.45 117.766 139.239 117.895 138.977 118C138.719 118.102 138.418 118.152 138.075 118.152C137.668 118.152 137.301 118.074 136.973 117.918C136.645 117.762 136.385 117.537 136.194 117.244C136.002 116.947 135.907 116.598 135.907 116.195ZM136.914 116.242C136.914 116.566 137.036 116.816 137.278 116.992C137.524 117.164 137.848 117.25 138.25 117.25C138.614 117.25 138.928 117.178 139.194 117.033C139.463 116.889 139.668 116.697 139.809 116.459C139.95 116.221 140.02 115.965 140.02 115.691V115.053L138.414 115.164C137.938 115.195 137.569 115.299 137.307 115.475C137.045 115.65 136.914 115.906 136.914 116.242ZM143.841 118H142.833V111.637H143.806V112.633H143.888C144.048 112.293 144.28 112.029 144.585 111.842C144.894 111.65 145.282 111.555 145.751 111.555C146.189 111.555 146.568 111.645 146.888 111.824C147.208 112 147.456 112.268 147.632 112.627C147.808 112.986 147.896 113.43 147.896 113.957V118H146.888V114.027C146.888 113.535 146.761 113.15 146.507 112.873C146.253 112.596 145.9 112.457 145.446 112.457C145.134 112.457 144.857 112.525 144.614 112.662C144.372 112.795 144.183 112.992 144.046 113.254C143.909 113.512 143.841 113.82 143.841 114.18V118ZM152.327 118L155.432 109.516H156.546L159.651 118H158.538L157.688 115.609H154.278L153.429 118H152.327ZM157.366 114.684L156.018 110.887H155.948L154.6 114.684H157.366ZM160.941 111.637H161.949V118H160.941V111.637ZM161.445 110.582C161.25 110.582 161.084 110.518 160.947 110.389C160.81 110.26 160.742 110.102 160.742 109.914C160.742 109.727 160.81 109.568 160.947 109.439C161.084 109.311 161.25 109.246 161.445 109.246C161.64 109.246 161.808 109.311 161.949 109.439C162.089 109.568 162.16 109.727 162.16 109.914C162.16 110.102 162.089 110.26 161.949 110.389C161.808 110.518 161.64 110.582 161.445 110.582ZM163.754 111.637H164.727V112.609H164.797C164.914 112.285 165.123 112.025 165.424 111.83C165.725 111.631 166.063 111.531 166.438 111.531C166.633 111.531 166.809 111.539 166.965 111.555V112.574C166.922 112.559 166.838 112.543 166.713 112.527C166.592 112.512 166.473 112.504 166.356 112.504C166.055 112.504 165.784 112.568 165.541 112.697C165.299 112.826 165.108 113.004 164.967 113.23C164.83 113.457 164.762 113.711 164.762 113.992V118H163.754V111.637Z" fill="#888882"/>
<line id="Line 6" x1="20.1699" y1="131.5" x2="325.17" y2="131.5" stroke="#888882"/>
</g>
<g id="3">
<g id="Frame 108">
<path id="&#226;&#130;&#169;320,000" d="M22.1543 151.047H20.4668V149.625H21.8027L20.5762 144.688H22.498L23.5996 149.625H25.3574L26.5449 144.688H28.4043L29.5918 149.625H31.3652L32.4668 144.688H34.373L33.1465 149.625H34.4824V151.047H32.7949L31.5605 156H29.5605L28.3418 151.047H26.6074L25.3887 156H23.3887L22.1543 151.047ZM24.3887 153.188H24.498L25.0137 151.047H23.9121L24.3887 153.188ZM27.998 149.625L27.5137 147.656H27.4355L26.9512 149.625H27.998ZM30.4512 153.203H30.5605L31.0449 151.047H29.9355L30.4512 153.203ZM39.5262 156.156C38.7293 156.156 38.0158 156.021 37.3855 155.75C36.7553 155.479 36.2605 155.102 35.9012 154.617C35.5418 154.128 35.3543 153.568 35.3387 152.938H37.3855C37.4064 153.234 37.5105 153.497 37.698 153.727C37.8908 153.951 38.146 154.125 38.4637 154.25C38.7814 154.375 39.1355 154.438 39.5262 154.438C39.9376 154.438 40.3048 154.367 40.6277 154.227C40.9559 154.081 41.2111 153.88 41.3934 153.625C41.5757 153.37 41.6668 153.078 41.6668 152.75C41.6668 152.411 41.573 152.109 41.3855 151.844C41.198 151.578 40.9272 151.372 40.573 151.227C40.2189 151.076 39.8022 151 39.323 151H38.3074V149.438H39.323C39.7189 149.438 40.0704 149.37 40.3777 149.234C40.6902 149.094 40.9324 148.898 41.1043 148.648C41.2762 148.393 41.3595 148.104 41.3543 147.781C41.3595 147.469 41.2866 147.193 41.1355 146.953C40.9897 146.708 40.7788 146.521 40.5027 146.391C40.2267 146.255 39.9064 146.188 39.5418 146.188C39.1876 146.188 38.8569 146.253 38.5496 146.383C38.2475 146.508 38.0027 146.688 37.8152 146.922C37.6329 147.156 37.5366 147.427 37.5262 147.734H35.573C35.5887 147.109 35.771 146.555 36.1199 146.07C36.4741 145.586 36.9507 145.208 37.5496 144.938C38.1538 144.667 38.823 144.531 39.5574 144.531C40.3022 144.531 40.9611 144.672 41.534 144.953C42.1069 145.229 42.5496 145.607 42.8621 146.086C43.1746 146.565 43.3283 147.094 43.323 147.672C43.3283 148.089 43.2449 148.466 43.073 148.805C42.9012 149.143 42.659 149.424 42.3465 149.648C42.034 149.872 41.672 150.026 41.2605 150.109V150.203C41.7866 150.276 42.2371 150.432 42.6121 150.672C42.9871 150.906 43.271 151.211 43.4637 151.586C43.6564 151.961 43.7501 152.385 43.7449 152.859C43.7501 153.484 43.5704 154.049 43.2059 154.555C42.8465 155.055 42.3439 155.448 41.698 155.734C41.0574 156.016 40.3335 156.156 39.5262 156.156ZM45.2262 154.531L49.2262 150.672C49.6585 150.24 49.9918 149.885 50.2262 149.609C50.4658 149.328 50.648 149.052 50.773 148.781C50.898 148.505 50.9605 148.214 50.9605 147.906C50.9605 147.562 50.8772 147.26 50.7105 147C50.5439 146.74 50.3121 146.539 50.0152 146.398C49.7236 146.258 49.3928 146.188 49.023 146.188C48.6376 146.188 48.2991 146.266 48.0074 146.422C47.721 146.573 47.4996 146.792 47.3434 147.078C47.1871 147.359 47.1116 147.688 47.1168 148.062H45.1793C45.1741 147.359 45.3355 146.742 45.6637 146.211C45.9918 145.674 46.4475 145.26 47.0309 144.969C47.6194 144.677 48.2887 144.531 49.0387 144.531C49.7991 144.531 50.471 144.672 51.0543 144.953C51.6428 145.234 52.0986 145.625 52.4215 146.125C52.7496 146.62 52.9137 147.182 52.9137 147.812C52.9137 148.25 52.8277 148.672 52.6559 149.078C52.4892 149.484 52.2027 149.935 51.7965 150.43C51.3902 150.919 50.8147 151.516 50.0699 152.219L48.0543 154.219V154.297H53.0855V156H45.2262V154.531ZM58.7387 156.156C57.8324 156.156 57.0538 155.93 56.4027 155.477C55.7569 155.018 55.2595 154.354 54.9105 153.484C54.5668 152.615 54.3949 151.568 54.3949 150.344C54.3949 149.125 54.5668 148.081 54.9105 147.211C55.2595 146.336 55.7595 145.672 56.4105 145.219C57.0616 144.76 57.8376 144.531 58.7387 144.531C59.6345 144.531 60.4079 144.76 61.059 145.219C61.7152 145.672 62.2152 146.336 62.559 147.211C62.9079 148.081 63.0824 149.125 63.0824 150.344C63.0824 151.568 62.9079 152.615 62.559 153.484C62.2152 154.354 61.7178 155.018 61.0668 155.477C60.421 155.93 59.6449 156.156 58.7387 156.156ZM58.7387 154.453C59.2178 154.453 59.6267 154.299 59.9652 153.992C60.309 153.68 60.572 153.219 60.7543 152.609C60.9418 151.995 61.0355 151.24 61.0355 150.344C61.0355 149.458 60.9418 148.708 60.7543 148.094C60.572 147.474 60.309 147.008 59.9652 146.695C59.6215 146.378 59.2126 146.219 58.7387 146.219C58.2647 146.219 57.8559 146.378 57.5121 146.695C57.1684 147.008 56.9027 147.474 56.7152 148.094C56.5329 148.708 56.4418 149.458 56.4418 150.344C56.4418 151.24 56.5329 151.995 56.7152 152.609C56.9027 153.219 57.1658 153.68 57.5043 153.992C57.848 154.299 58.2595 154.453 58.7387 154.453ZM65.0012 159.266H63.5168L64.3293 154.891H66.3137L65.0012 159.266ZM71.8887 156.156C70.9824 156.156 70.2038 155.93 69.5527 155.477C68.9069 155.018 68.4095 154.354 68.0605 153.484C67.7168 152.615 67.5449 151.568 67.5449 150.344C67.5449 149.125 67.7168 148.081 68.0605 147.211C68.4095 146.336 68.9095 145.672 69.5605 145.219C70.2116 144.76 70.9876 144.531 71.8887 144.531C72.7845 144.531 73.5579 144.76 74.209 145.219C74.8652 145.672 75.3652 146.336 75.709 147.211C76.0579 148.081 76.2324 149.125 76.2324 150.344C76.2324 151.568 76.0579 152.615 75.709 153.484C75.3652 154.354 74.8678 155.018 74.2168 155.477C73.571 155.93 72.7949 156.156 71.8887 156.156ZM71.8887 154.453C72.3678 154.453 72.7767 154.299 73.1152 153.992C73.459 153.68 73.722 153.219 73.9043 152.609C74.0918 151.995 74.1855 151.24 74.1855 150.344C74.1855 149.458 74.0918 148.708 73.9043 148.094C73.722 147.474 73.459 147.008 73.1152 146.695C72.7715 146.378 72.3626 146.219 71.8887 146.219C71.4147 146.219 71.0059 146.378 70.6621 146.695C70.3184 147.008 70.0527 147.474 69.8652 148.094C69.6829 148.708 69.5918 149.458 69.5918 150.344C69.5918 151.24 69.6829 151.995 69.8652 152.609C70.0527 153.219 70.3158 153.68 70.6543 153.992C70.998 154.299 71.4095 154.453 71.8887 154.453ZM81.8074 156.156C80.9012 156.156 80.1225 155.93 79.4715 155.477C78.8257 155.018 78.3283 154.354 77.9793 153.484C77.6355 152.615 77.4637 151.568 77.4637 150.344C77.4637 149.125 77.6355 148.081 77.9793 147.211C78.3283 146.336 78.8283 145.672 79.4793 145.219C80.1303 144.76 80.9064 144.531 81.8074 144.531C82.7033 144.531 83.4767 144.76 84.1277 145.219C84.784 145.672 85.284 146.336 85.6277 147.211C85.9767 148.081 86.1512 149.125 86.1512 150.344C86.1512 151.568 85.9767 152.615 85.6277 153.484C85.284 154.354 84.7866 155.018 84.1355 155.477C83.4897 155.93 82.7137 156.156 81.8074 156.156ZM81.8074 154.453C82.2866 154.453 82.6954 154.299 83.034 153.992C83.3777 153.68 83.6408 153.219 83.823 152.609C84.0105 151.995 84.1043 151.24 84.1043 150.344C84.1043 149.458 84.0105 148.708 83.823 148.094C83.6408 147.474 83.3777 147.008 83.034 146.695C82.6902 146.378 82.2814 146.219 81.8074 146.219C81.3335 146.219 80.9246 146.378 80.5809 146.695C80.2371 147.008 79.9715 147.474 79.784 148.094C79.6017 148.708 79.5105 149.458 79.5105 150.344C79.5105 151.24 79.6017 151.995 79.784 152.609C79.9715 153.219 80.2345 153.68 80.573 153.992C80.9168 154.299 81.3283 154.453 81.8074 154.453ZM91.7262 156.156C90.8199 156.156 90.0413 155.93 89.3902 155.477C88.7444 155.018 88.247 154.354 87.898 153.484C87.5543 152.615 87.3824 151.568 87.3824 150.344C87.3824 149.125 87.5543 148.081 87.898 147.211C88.247 146.336 88.747 145.672 89.398 145.219C90.0491 144.76 90.8251 144.531 91.7262 144.531C92.622 144.531 93.3954 144.76 94.0465 145.219C94.7027 145.672 95.2027 146.336 95.5465 147.211C95.8954 148.081 96.0699 149.125 96.0699 150.344C96.0699 151.568 95.8954 152.615 95.5465 153.484C95.2027 154.354 94.7053 155.018 94.0543 155.477C93.4085 155.93 92.6324 156.156 91.7262 156.156ZM91.7262 154.453C92.2053 154.453 92.6142 154.299 92.9527 153.992C93.2965 153.68 93.5595 153.219 93.7418 152.609C93.9293 151.995 94.023 151.24 94.023 150.344C94.023 149.458 93.9293 148.708 93.7418 148.094C93.5595 147.474 93.2965 147.008 92.9527 146.695C92.609 146.378 92.2001 146.219 91.7262 146.219C91.2522 146.219 90.8434 146.378 90.4996 146.695C90.1559 147.008 89.8902 147.474 89.7027 148.094C89.5204 148.708 89.4293 149.458 89.4293 150.344C89.4293 151.24 89.5204 151.995 89.7027 152.609C89.8902 153.219 90.1533 153.68 90.4918 153.992C90.8355 154.299 91.247 154.453 91.7262 154.453Z" fill="#4A7C59"/>
<path id="&#236;&#152;&#136;&#236;&#149;&#189;&#235;&#178;&#136;&#237;&#152;&#184;: KE12345678" d="M28.8066 177.913H27.8291V168.288H28.8066V177.913ZM26.873 177.44H25.9062V174.336H24.5098C24.3379 174.819 24.0962 175.192 23.7847 175.453C23.4731 175.715 23.1133 175.843 22.7051 175.84C22.2897 175.843 21.9245 175.707 21.6094 175.432C21.2979 175.156 21.0562 174.762 20.8843 174.25C20.716 173.734 20.6318 173.133 20.6318 172.445C20.6318 171.758 20.716 171.158 20.8843 170.646C21.0562 170.134 21.2979 169.742 21.6094 169.47C21.9245 169.194 22.2897 169.058 22.7051 169.062C23.1133 169.058 23.4714 169.187 23.7793 169.448C24.0908 169.706 24.3343 170.075 24.5098 170.555H25.9062V168.471H26.873V177.44ZM22.7051 170.018C22.4688 170.018 22.2646 170.114 22.0928 170.308C21.9245 170.497 21.7938 170.775 21.7007 171.14C21.6112 171.502 21.5664 171.937 21.5664 172.445C21.5664 172.954 21.6112 173.391 21.7007 173.756C21.7938 174.118 21.9245 174.395 22.0928 174.588C22.2646 174.778 22.4688 174.873 22.7051 174.873C22.9414 174.873 23.1455 174.778 23.3174 174.588C23.4928 174.395 23.6271 174.116 23.7202 173.75C23.8169 173.385 23.8652 172.95 23.8652 172.445C23.8652 171.94 23.8169 171.505 23.7202 171.14C23.6271 170.775 23.4928 170.497 23.3174 170.308C23.1455 170.114 22.9414 170.018 22.7051 170.018ZM24.7192 171.382C24.7729 171.708 24.7998 172.062 24.7998 172.445C24.7998 172.825 24.7729 173.176 24.7192 173.498H25.9062V171.382H24.7192ZM39.158 170.533H37.7937V171.758H39.158V172.617H37.7937V173.992H36.7732V168.288H37.7937V169.695H39.158V170.533ZM37.7937 177.913H36.7732V175.249H31.4344V174.422H37.7937V177.913ZM32.9383 168.847C33.4253 168.847 33.8621 168.945 34.2488 169.142C34.6391 169.335 34.9453 169.608 35.1673 169.958C35.3893 170.306 35.5021 170.701 35.5057 171.146C35.5021 171.59 35.3893 171.987 35.1673 172.338C34.9453 172.685 34.6391 172.957 34.2488 173.154C33.8621 173.348 33.4253 173.444 32.9383 173.444C32.4513 173.444 32.0127 173.348 31.6224 173.154C31.2321 172.957 30.9259 172.685 30.7039 172.338C30.4855 171.987 30.3781 171.59 30.3816 171.146C30.3781 170.701 30.4855 170.306 30.7039 169.958C30.9259 169.608 31.2321 169.335 31.6224 169.142C32.0127 168.945 32.4513 168.847 32.9383 168.847ZM32.9383 169.717C32.6375 169.717 32.3689 169.778 32.1326 169.899C31.8963 170.018 31.7101 170.184 31.574 170.399C31.4415 170.614 31.3771 170.863 31.3807 171.146C31.3771 171.432 31.4415 171.684 31.574 171.903C31.7101 172.118 31.8963 172.284 32.1326 172.402C32.3689 172.521 32.6375 172.578 32.9383 172.574C33.2391 172.578 33.5076 172.521 33.7439 172.402C33.9839 172.284 34.1701 172.118 34.3025 171.903C34.4386 171.684 34.5066 171.432 34.5066 171.146C34.5066 170.863 34.4386 170.614 34.3025 170.399C34.1701 170.181 33.9839 170.012 33.7439 169.894C33.5076 169.776 33.2391 169.717 32.9383 169.717ZM47.9625 175.41H46.942V171.779H44.8365V173.81H40.4V168.933H41.4205V170.565H43.8268V168.933H44.8365V170.952H46.942V168.299H47.9625V175.41ZM48.1773 177.709H41.6783V174.712H42.7096V176.882H48.1773V177.709ZM43.8268 172.982V171.35H41.4205V172.982H43.8268ZM57.9809 170.469H50.0639V169.642H53.5229V168.428H54.5326V169.642H57.9809V170.469ZM58.4535 176.828H49.6449V176.001H53.5229V174.728C52.9607 174.692 52.4773 174.597 52.0727 174.443C51.668 174.286 51.3565 174.076 51.1381 173.815C50.9232 173.55 50.8158 173.24 50.8158 172.886C50.8158 172.503 50.9447 172.173 51.2025 171.897C51.4604 171.622 51.831 171.412 52.3144 171.269C52.7978 171.122 53.3689 171.049 54.0277 171.049C54.683 171.049 55.2506 171.122 55.7304 171.269C56.2102 171.412 56.579 171.622 56.8368 171.897C57.0982 172.173 57.2289 172.503 57.2289 172.886C57.2289 173.237 57.1197 173.545 56.9013 173.81C56.6864 174.075 56.3767 174.286 55.9721 174.443C55.5674 174.597 55.0876 174.692 54.5326 174.728V176.001H58.4535V176.828ZM54.0277 171.854C53.3367 171.854 52.8013 171.944 52.4218 172.123C52.0422 172.302 51.8542 172.556 51.8578 172.886C51.8542 173.215 52.0404 173.469 52.4164 173.648C52.796 173.827 53.3331 173.921 54.0277 173.928C54.7117 173.921 55.2416 173.827 55.6176 173.648C55.9971 173.469 56.1869 173.215 56.1869 172.886C56.1869 172.556 55.9971 172.302 55.6176 172.123C55.238 171.944 54.7081 171.854 54.0277 171.854ZM60.4475 176.001C60.3114 176.001 60.1825 175.967 60.0607 175.899C59.9426 175.831 59.8495 175.738 59.7814 175.62C59.7134 175.501 59.6812 175.374 59.6848 175.238C59.6812 175.102 59.7134 174.975 59.7814 174.857C59.8495 174.739 59.9426 174.646 60.0607 174.578C60.1825 174.51 60.3114 174.476 60.4475 174.476C60.5799 174.476 60.7053 174.51 60.8234 174.578C60.9416 174.646 61.0347 174.739 61.1027 174.857C61.1743 174.975 61.2102 175.102 61.2102 175.238C61.2102 175.374 61.1743 175.501 61.1027 175.62C61.0347 175.738 60.9416 175.831 60.8234 175.899C60.7053 175.967 60.5799 176.001 60.4475 176.001ZM60.4475 171.758C60.3114 171.758 60.1825 171.724 60.0607 171.656C59.9426 171.588 59.8495 171.495 59.7814 171.376C59.7134 171.258 59.6812 171.131 59.6848 170.995C59.6812 170.859 59.7134 170.732 59.7814 170.614C59.8495 170.496 59.9426 170.403 60.0607 170.334C60.1825 170.266 60.3114 170.232 60.4475 170.232C60.5799 170.232 60.7053 170.266 60.8234 170.334C60.9416 170.403 61.0347 170.496 61.1027 170.614C61.1743 170.732 61.2102 170.859 61.2102 170.995C61.2102 171.131 61.1743 171.258 61.1027 171.376C61.0347 171.495 60.9416 171.588 60.8234 171.656C60.7053 171.724 60.5799 171.758 60.4475 171.758ZM65.7781 169.223H66.9598V172.929H67.0564L70.3113 169.223H71.7938L68.657 172.725L71.8045 177H70.3758L67.8729 173.53L66.9598 174.583V177H65.7781V169.223ZM72.9713 169.223H77.8482V170.243H74.1529V172.596H77.5904V173.605H74.1529V175.979H77.8912V177H72.9713V169.223ZM82.3451 177H81.1527V170.404H81.1098L79.2514 171.618V170.49L81.185 169.223H82.3451V177ZM84.5217 176.141L87.218 173.423C87.5438 173.079 87.7927 172.803 87.9646 172.596C88.1364 172.388 88.2671 172.186 88.3566 171.989C88.4497 171.788 88.4963 171.579 88.4963 171.36C88.4963 171.11 88.4336 170.889 88.3083 170.7C88.183 170.51 88.0111 170.363 87.7927 170.259C87.5743 170.155 87.329 170.104 87.0568 170.104C86.774 170.104 86.5251 170.161 86.3103 170.275C86.0954 170.39 85.9289 170.551 85.8107 170.759C85.6962 170.966 85.6389 171.206 85.6389 171.479H84.5217C84.5181 171.013 84.6255 170.601 84.8439 170.243C85.0624 169.885 85.3667 169.608 85.757 169.411C86.1473 169.214 86.5878 169.115 87.0783 169.115C87.5725 169.115 88.0111 169.212 88.3942 169.405C88.781 169.595 89.0817 169.858 89.2966 170.195C89.5114 170.531 89.6206 170.909 89.6242 171.328C89.6206 171.625 89.5633 171.912 89.4523 172.188C89.3413 172.46 89.1516 172.764 88.883 173.101C88.6145 173.434 88.2349 173.842 87.7443 174.325L86.1652 175.926V175.99H89.7531V177H84.5217V176.141ZM94.0244 177.107C93.4945 177.107 93.0182 177.018 92.5957 176.839C92.1768 176.66 91.8455 176.409 91.6021 176.087C91.3621 175.761 91.235 175.389 91.2207 174.97H92.4238C92.4382 175.195 92.5151 175.392 92.6548 175.561C92.798 175.729 92.9878 175.86 93.2241 175.953C93.4604 176.042 93.7236 176.087 94.0137 176.087C94.3216 176.087 94.5991 176.033 94.8462 175.926C95.0933 175.818 95.2866 175.67 95.4263 175.48C95.5659 175.287 95.6357 175.066 95.6357 174.819C95.6357 174.565 95.5659 174.338 95.4263 174.137C95.2866 173.937 95.0843 173.781 94.8193 173.67C94.5579 173.555 94.2464 173.498 93.8848 173.498H93.2188V172.531H93.8848C94.1748 172.531 94.4344 172.479 94.6636 172.375C94.8927 172.272 95.07 172.127 95.1953 171.94C95.3242 171.754 95.3887 171.539 95.3887 171.296C95.3887 171.06 95.3332 170.852 95.2222 170.673C95.1112 170.494 94.9536 170.354 94.7495 170.254C94.5454 170.154 94.3073 170.104 94.0352 170.104C93.7702 170.104 93.5249 170.15 93.2993 170.243C93.0737 170.336 92.8911 170.469 92.7515 170.641C92.6154 170.812 92.542 171.013 92.5312 171.242H91.3926C91.4033 170.83 91.5269 170.463 91.7632 170.141C92.0031 169.815 92.3236 169.563 92.7246 169.384C93.1257 169.205 93.5661 169.115 94.0459 169.115C94.54 169.115 94.9751 169.21 95.3511 169.4C95.7306 169.59 96.0225 169.847 96.2266 170.173C96.4307 170.496 96.5309 170.848 96.5273 171.231C96.5309 171.668 96.4074 172.041 96.1567 172.349C95.9097 172.653 95.5749 172.857 95.1523 172.961V173.015C95.6787 173.09 96.0887 173.292 96.3823 173.622C96.6795 173.951 96.8281 174.365 96.8281 174.862C96.8281 175.288 96.7064 175.673 96.4629 176.017C96.2194 176.357 95.8846 176.624 95.4585 176.817C95.0324 177.011 94.5544 177.107 94.0244 177.107ZM98.1561 174.529L101.594 169.223H103.054V174.486H104.118V175.485H103.054V177H101.937V175.485H98.1561V174.529ZM101.937 174.486V170.63H101.851L99.4021 174.422V174.486H101.937ZM108.153 177.107C107.67 177.107 107.231 177.016 106.837 176.833C106.443 176.647 106.13 176.393 105.897 176.071C105.664 175.745 105.539 175.378 105.521 174.97H106.671C106.692 175.188 106.771 175.385 106.907 175.561C107.043 175.736 107.22 175.874 107.439 175.974C107.657 176.071 107.895 176.119 108.153 176.119C108.464 176.119 108.742 176.049 108.985 175.91C109.233 175.77 109.426 175.578 109.566 175.335C109.705 175.088 109.775 174.812 109.775 174.508C109.775 174.196 109.703 173.917 109.56 173.67C109.417 173.419 109.218 173.224 108.964 173.084C108.71 172.941 108.421 172.868 108.099 172.864C107.444 172.864 106.989 173.093 106.735 173.552H105.618L106.123 169.223H110.527V170.232H107.1L106.842 172.413H106.918C107.082 172.256 107.294 172.128 107.551 172.032C107.813 171.935 108.088 171.887 108.379 171.887C108.858 171.887 109.292 171.998 109.678 172.22C110.069 172.442 110.373 172.75 110.591 173.144C110.813 173.537 110.924 173.981 110.924 174.476C110.924 174.98 110.806 175.433 110.57 175.834C110.334 176.236 110.004 176.549 109.582 176.774C109.163 176.996 108.686 177.107 108.153 177.107ZM115.217 177.107C114.687 177.107 114.2 176.991 113.756 176.758C113.316 176.522 112.954 176.126 112.671 175.571C112.392 175.016 112.252 174.282 112.252 173.369C112.252 172.478 112.374 171.713 112.618 171.076C112.865 170.435 113.216 169.948 113.67 169.615C114.129 169.282 114.669 169.115 115.292 169.115C115.758 169.115 116.177 169.207 116.549 169.389C116.925 169.568 117.23 169.819 117.462 170.141C117.695 170.463 117.842 170.83 117.903 171.242H116.732C116.653 170.913 116.488 170.648 116.238 170.447C115.987 170.247 115.672 170.146 115.292 170.146C114.895 170.146 114.553 170.259 114.267 170.485C113.984 170.707 113.767 171.029 113.617 171.452C113.466 171.871 113.391 172.37 113.391 172.95H113.477C113.688 172.621 113.968 172.363 114.315 172.177C114.666 171.991 115.052 171.897 115.475 171.897C115.933 171.897 116.354 172.008 116.737 172.23C117.12 172.449 117.423 172.753 117.645 173.144C117.867 173.53 117.978 173.967 117.978 174.454C117.978 174.952 117.863 175.403 117.634 175.808C117.405 176.209 117.081 176.526 116.662 176.758C116.243 176.991 115.761 177.107 115.217 177.107ZM115.185 176.119C115.493 176.119 115.772 176.046 116.023 175.899C116.274 175.752 116.47 175.553 116.614 175.303C116.757 175.052 116.829 174.776 116.829 174.476C116.829 174.182 116.759 173.912 116.619 173.665C116.479 173.417 116.286 173.222 116.039 173.079C115.795 172.936 115.522 172.864 115.217 172.864C114.906 172.864 114.621 172.939 114.363 173.09C114.109 173.237 113.907 173.435 113.756 173.686C113.609 173.933 113.534 174.2 113.531 174.486C113.534 174.773 113.608 175.041 113.751 175.292C113.894 175.543 114.091 175.743 114.342 175.894C114.596 176.044 114.877 176.119 115.185 176.119ZM123.173 170.297V170.232H119.166V169.223H124.398V170.275L120.939 177H119.703L123.173 170.297ZM128.357 177.107C127.802 177.107 127.306 177.014 126.87 176.828C126.436 176.642 126.098 176.384 125.854 176.055C125.615 175.722 125.496 175.346 125.5 174.927C125.496 174.601 125.566 174.298 125.709 174.019C125.853 173.736 126.048 173.503 126.295 173.321C126.546 173.135 126.821 173.018 127.122 172.972V172.929C126.861 172.868 126.628 172.755 126.424 172.59C126.223 172.422 126.068 172.216 125.957 171.973C125.846 171.729 125.79 171.468 125.79 171.188C125.79 170.795 125.901 170.44 126.123 170.125C126.345 169.81 126.651 169.563 127.042 169.384C127.432 169.205 127.87 169.115 128.357 169.115C128.841 169.115 129.276 169.205 129.663 169.384C130.053 169.563 130.357 169.81 130.576 170.125C130.798 170.44 130.91 170.795 130.914 171.188C130.91 171.468 130.851 171.729 130.737 171.973C130.626 172.216 130.47 172.422 130.27 172.59C130.069 172.755 129.84 172.868 129.582 172.929V172.972C129.879 173.018 130.151 173.135 130.398 173.321C130.649 173.503 130.846 173.736 130.989 174.019C131.136 174.298 131.211 174.601 131.215 174.927C131.211 175.346 131.088 175.722 130.844 176.055C130.601 176.384 130.262 176.642 129.829 176.828C129.396 177.014 128.905 177.107 128.357 177.107ZM128.357 176.13C128.69 176.13 128.98 176.076 129.228 175.969C129.478 175.861 129.672 175.711 129.808 175.518C129.944 175.321 130.012 175.095 130.012 174.841C130.012 174.576 129.94 174.338 129.797 174.126C129.654 173.915 129.457 173.75 129.206 173.632C128.955 173.514 128.673 173.455 128.357 173.455C128.039 173.455 127.752 173.514 127.498 173.632C127.244 173.75 127.045 173.915 126.902 174.126C126.762 174.338 126.696 174.576 126.703 174.841C126.696 175.095 126.759 175.319 126.891 175.512C127.024 175.706 127.215 175.858 127.466 175.969C127.72 176.076 128.017 176.13 128.357 176.13ZM128.357 172.521C128.626 172.521 128.866 172.47 129.077 172.37C129.292 172.266 129.458 172.121 129.577 171.935C129.695 171.749 129.754 171.536 129.754 171.296C129.754 171.06 129.695 170.85 129.577 170.667C129.458 170.481 129.294 170.338 129.083 170.238C128.871 170.134 128.63 170.082 128.357 170.082C128.075 170.082 127.826 170.132 127.611 170.232C127.396 170.333 127.229 170.476 127.111 170.662C126.997 170.845 126.939 171.056 126.939 171.296C126.939 171.536 127 171.749 127.122 171.935C127.244 172.121 127.412 172.266 127.627 172.37C127.842 172.47 128.085 172.521 128.357 172.521Z" fill="#888882"/>
</g>
<g id="Frame 109">
<g id="BookedByBadge(User)">
<path d="M255.17 150.5C255.17 143.873 260.543 138.5 267.17 138.5H313.17C319.797 138.5 325.17 143.873 325.17 150.5V150.5C325.17 157.127 319.797 162.5 313.17 162.5H267.17C260.543 162.5 255.17 157.127 255.17 150.5V150.5Z" fill="#6A9E7A"/>
<path id="&#236;&#167;&#129;&#236;&#160;&#145; &#236;&#152;&#136;&#236;&#149;&#189;" d="M271.342 147.465C271.342 147.926 271.455 148.369 271.682 148.795C271.908 149.221 272.225 149.596 272.631 149.92C273.037 150.24 273.498 150.484 274.014 150.652L273.545 151.367C272.936 151.16 272.4 150.852 271.939 150.441C271.479 150.027 271.131 149.545 270.896 148.994C270.67 149.584 270.322 150.104 269.854 150.553C269.385 151.002 268.842 151.34 268.225 151.566L267.744 150.852C268.26 150.668 268.721 150.404 269.127 150.061C269.533 149.713 269.85 149.314 270.076 148.865C270.303 148.416 270.416 147.949 270.416 147.465V147.02H267.979V146.27H273.744V147.02H271.342V147.465ZM276.193 151.836H275.279V145.531H276.193V151.836ZM276.193 155.949H275.279V153.148H269.186V152.387H276.193V155.949ZM286.788 151.191H285.874V148.836H283.764V148.062H285.874V145.531H286.788V151.191ZM281.011 152.996H285.874V151.695H286.788V155.809H280.085V151.695H281.011V152.996ZM285.874 155.059V153.734H281.011V155.059H285.874ZM281.784 147.23C281.784 147.672 281.891 148.104 282.106 148.525C282.325 148.947 282.628 149.324 283.014 149.656C283.405 149.984 283.85 150.234 284.35 150.406L283.87 151.121C283.284 150.91 282.77 150.598 282.329 150.184C281.891 149.766 281.561 149.287 281.339 148.748C281.112 149.354 280.766 149.887 280.302 150.348C279.841 150.805 279.304 151.145 278.69 151.367L278.21 150.641C278.718 150.457 279.173 150.191 279.575 149.844C279.977 149.492 280.292 149.09 280.518 148.637C280.745 148.184 280.858 147.715 280.858 147.23V146.926H278.503V146.164H284.116V146.926H281.784V147.23ZM300.875 155.949H299.985V145.531H300.875V155.949ZM298.801 155.422H297.922V152H296.258C296.075 152.523 295.815 152.93 295.479 153.219C295.143 153.508 294.754 153.652 294.313 153.652C293.864 153.652 293.469 153.506 293.129 153.213C292.793 152.916 292.534 152.494 292.35 151.947C292.166 151.4 292.075 150.762 292.075 150.031C292.075 149.301 292.166 148.662 292.35 148.115C292.534 147.568 292.793 147.148 293.129 146.855C293.469 146.559 293.864 146.41 294.313 146.41C294.754 146.41 295.143 146.555 295.479 146.844C295.815 147.133 296.075 147.539 296.258 148.062H297.922V145.754H298.801V155.422ZM294.313 147.277C294.032 147.277 293.786 147.389 293.575 147.611C293.368 147.834 293.207 148.152 293.094 148.566C292.985 148.98 292.93 149.469 292.93 150.031C292.93 150.59 292.985 151.076 293.094 151.49C293.207 151.904 293.368 152.223 293.575 152.445C293.786 152.668 294.032 152.777 294.313 152.773C294.59 152.777 294.834 152.668 295.045 152.445C295.256 152.223 295.418 151.904 295.532 151.49C295.649 151.076 295.707 150.59 295.707 150.031C295.707 149.473 295.649 148.986 295.532 148.572C295.418 148.154 295.256 147.834 295.045 147.611C294.838 147.389 294.594 147.277 294.313 147.277ZM296.457 148.824C296.528 149.191 296.563 149.594 296.563 150.031C296.563 150.453 296.53 150.852 296.463 151.227H297.922V148.824H296.457ZM312.208 147.898H310.661V149.363H312.208V150.148H310.661V151.73H309.747V145.531H310.661V147.148H312.208V147.898ZM310.661 155.949H309.747V152.973H303.841V152.211H310.661V155.949ZM305.446 146.164C305.966 146.16 306.433 146.262 306.847 146.469C307.265 146.676 307.591 146.967 307.825 147.342C308.064 147.717 308.185 148.141 308.189 148.613C308.185 149.094 308.064 149.521 307.825 149.896C307.591 150.271 307.267 150.564 306.853 150.775C306.439 150.982 305.97 151.086 305.446 151.086C304.923 151.086 304.452 150.982 304.034 150.775C303.62 150.564 303.296 150.271 303.062 149.896C302.827 149.521 302.712 149.094 302.716 148.613C302.712 148.141 302.827 147.719 303.062 147.348C303.296 146.973 303.62 146.682 304.034 146.475C304.452 146.264 304.923 146.16 305.446 146.164ZM305.446 146.949C305.099 146.949 304.784 147.02 304.503 147.16C304.226 147.301 304.007 147.498 303.847 147.752C303.691 148.002 303.614 148.289 303.618 148.613C303.614 148.941 303.691 149.234 303.847 149.492C304.007 149.746 304.226 149.943 304.503 150.084C304.784 150.225 305.099 150.293 305.446 150.289C305.798 150.293 306.112 150.225 306.39 150.084C306.671 149.943 306.89 149.746 307.046 149.492C307.206 149.234 307.286 148.941 307.286 148.613C307.286 148.289 307.206 148.002 307.046 147.752C306.89 147.498 306.671 147.301 306.39 147.16C306.112 147.02 305.798 146.949 305.446 146.949Z" fill="#FAFAF7"/>
</g>
<path id="&#236;&#152;&#136;&#236;&#149;&#189;&#236;&#157;&#188; 2026.04.03" d="M240.807 179.413H239.829V169.788H240.807V179.413ZM238.873 178.94H237.906V175.836H236.51C236.338 176.319 236.096 176.692 235.785 176.953C235.473 177.215 235.113 177.343 234.705 177.34C234.29 177.343 233.924 177.207 233.609 176.932C233.298 176.656 233.056 176.262 232.884 175.75C232.716 175.234 232.632 174.633 232.632 173.945C232.632 173.258 232.716 172.658 232.884 172.146C233.056 171.634 233.298 171.242 233.609 170.97C233.924 170.694 234.29 170.558 234.705 170.562C235.113 170.558 235.471 170.687 235.779 170.948C236.091 171.206 236.334 171.575 236.51 172.055H237.906V169.971H238.873V178.94ZM234.705 171.518C234.469 171.518 234.265 171.614 234.093 171.808C233.924 171.997 233.794 172.275 233.701 172.64C233.611 173.002 233.566 173.437 233.566 173.945C233.566 174.454 233.611 174.891 233.701 175.256C233.794 175.618 233.924 175.895 234.093 176.088C234.265 176.278 234.469 176.373 234.705 176.373C234.941 176.373 235.146 176.278 235.317 176.088C235.493 175.895 235.627 175.616 235.72 175.25C235.817 174.885 235.865 174.45 235.865 173.945C235.865 173.44 235.817 173.005 235.72 172.64C235.627 172.275 235.493 171.997 235.317 171.808C235.146 171.614 234.941 171.518 234.705 171.518ZM236.719 172.882C236.773 173.208 236.8 173.562 236.8 173.945C236.8 174.325 236.773 174.676 236.719 174.998H237.906V172.882H236.719ZM251.158 172.033H249.794V173.258H251.158V174.117H249.794V175.492H248.773V169.788H249.794V171.195H251.158V172.033ZM249.794 179.413H248.773V176.749H243.434V175.922H249.794V179.413ZM244.938 170.347C245.425 170.347 245.862 170.445 246.249 170.642C246.639 170.835 246.945 171.108 247.167 171.458C247.389 171.806 247.502 172.201 247.506 172.646C247.502 173.09 247.389 173.487 247.167 173.838C246.945 174.185 246.639 174.457 246.249 174.654C245.862 174.848 245.425 174.944 244.938 174.944C244.451 174.944 244.013 174.848 243.622 174.654C243.232 174.457 242.926 174.185 242.704 173.838C242.485 173.487 242.378 173.09 242.382 172.646C242.378 172.201 242.485 171.806 242.704 171.458C242.926 171.108 243.232 170.835 243.622 170.642C244.013 170.445 244.451 170.347 244.938 170.347ZM244.938 171.217C244.637 171.217 244.369 171.278 244.133 171.399C243.896 171.518 243.71 171.684 243.574 171.899C243.442 172.114 243.377 172.363 243.381 172.646C243.377 172.932 243.442 173.184 243.574 173.403C243.71 173.618 243.896 173.784 244.133 173.902C244.369 174.021 244.637 174.078 244.938 174.074C245.239 174.078 245.508 174.021 245.744 173.902C245.984 173.784 246.17 173.618 246.303 173.403C246.439 173.184 246.507 172.932 246.507 172.646C246.507 172.363 246.439 172.114 246.303 171.899C246.17 171.681 245.984 171.512 245.744 171.394C245.508 171.276 245.239 171.217 244.938 171.217ZM254.667 170.11C255.146 170.114 255.576 170.209 255.956 170.395C256.339 170.578 256.64 170.834 256.858 171.163C257.076 171.489 257.187 171.858 257.191 172.27C257.187 172.685 257.076 173.056 256.858 173.381C256.64 173.707 256.339 173.961 255.956 174.144C255.576 174.327 255.146 174.418 254.667 174.418C254.183 174.418 253.748 174.327 253.361 174.144C252.978 173.961 252.678 173.707 252.459 173.381C252.241 173.056 252.131 172.685 252.131 172.27C252.131 171.858 252.241 171.489 252.459 171.163C252.678 170.834 252.978 170.578 253.361 170.395C253.748 170.209 254.183 170.114 254.667 170.11ZM254.667 170.97C254.373 170.966 254.108 171.018 253.872 171.125C253.639 171.233 253.456 171.387 253.324 171.587C253.191 171.784 253.127 172.012 253.13 172.27C253.127 172.531 253.19 172.762 253.318 172.962C253.451 173.163 253.634 173.319 253.866 173.43C254.103 173.537 254.369 173.591 254.667 173.591C254.96 173.591 255.223 173.535 255.456 173.424C255.689 173.313 255.872 173.159 256.004 172.962C256.136 172.762 256.203 172.531 256.203 172.27C256.203 172.012 256.136 171.784 256.004 171.587C255.872 171.387 255.687 171.233 255.451 171.125C255.218 171.018 254.957 170.966 254.667 170.97ZM259.92 174.687H258.899V169.788H259.92V174.687ZM259.92 177.555H254.613V178.479H260.242V179.295H253.625V176.792H258.91V175.943H253.592V175.127H259.92V177.555ZM264.863 177.641L267.56 174.923C267.886 174.579 268.134 174.303 268.306 174.096C268.478 173.888 268.609 173.686 268.698 173.489C268.792 173.288 268.838 173.079 268.838 172.86C268.838 172.61 268.775 172.389 268.65 172.2C268.525 172.01 268.353 171.863 268.134 171.759C267.916 171.655 267.671 171.604 267.399 171.604C267.116 171.604 266.867 171.661 266.652 171.775C266.437 171.89 266.271 172.051 266.153 172.259C266.038 172.466 265.981 172.706 265.981 172.979H264.863C264.86 172.513 264.967 172.101 265.186 171.743C265.404 171.385 265.709 171.108 266.099 170.911C266.489 170.714 266.93 170.615 267.42 170.615C267.914 170.615 268.353 170.712 268.736 170.905C269.123 171.095 269.424 171.358 269.638 171.695C269.853 172.031 269.962 172.409 269.966 172.828C269.962 173.125 269.905 173.412 269.794 173.688C269.683 173.96 269.493 174.264 269.225 174.601C268.956 174.934 268.577 175.342 268.086 175.825L266.507 177.426V177.49H270.095V178.5H264.863V177.641ZM274.312 178.607C273.715 178.607 273.201 178.452 272.771 178.14C272.345 177.829 272.019 177.374 271.793 176.776C271.568 176.174 271.455 175.453 271.455 174.611C271.455 173.777 271.568 173.061 271.793 172.463C272.023 171.861 272.352 171.403 272.782 171.088C273.211 170.773 273.722 170.615 274.312 170.615C274.903 170.615 275.414 170.773 275.843 171.088C276.273 171.403 276.601 171.861 276.826 172.463C277.055 173.061 277.17 173.777 277.17 174.611C277.17 175.453 277.057 176.173 276.832 176.771C276.606 177.368 276.278 177.825 275.849 178.14C275.419 178.452 274.907 178.607 274.312 178.607ZM274.312 177.587C274.663 177.587 274.964 177.474 275.215 177.249C275.465 177.019 275.657 176.683 275.79 176.239C275.922 175.795 275.988 175.252 275.988 174.611C275.988 173.974 275.92 173.431 275.784 172.984C275.652 172.533 275.46 172.193 275.209 171.963C274.959 171.731 274.66 171.614 274.312 171.614C273.965 171.614 273.666 171.731 273.416 171.963C273.165 172.193 272.972 172.533 272.835 172.984C272.703 173.431 272.637 173.974 272.637 174.611C272.637 175.252 272.703 175.795 272.835 176.239C272.968 176.683 273.16 177.019 273.41 177.249C273.661 177.474 273.962 177.587 274.312 177.587ZM278.595 177.641L281.291 174.923C281.617 174.579 281.866 174.303 282.037 174.096C282.209 173.888 282.34 173.686 282.429 173.489C282.523 173.288 282.569 173.079 282.569 172.86C282.569 172.61 282.506 172.389 282.381 172.2C282.256 172.01 282.084 171.863 281.866 171.759C281.647 171.655 281.402 171.604 281.13 171.604C280.847 171.604 280.598 171.661 280.383 171.775C280.168 171.89 280.002 172.051 279.884 172.259C279.769 172.466 279.712 172.706 279.712 172.979H278.595C278.591 172.513 278.698 172.101 278.917 171.743C279.135 171.385 279.44 171.108 279.83 170.911C280.22 170.714 280.661 170.615 281.151 170.615C281.645 170.615 282.084 170.712 282.467 170.905C282.854 171.095 283.155 171.358 283.369 171.695C283.584 172.031 283.693 172.409 283.697 172.828C283.693 173.125 283.636 173.412 283.525 173.688C283.414 173.96 283.224 174.264 282.956 174.601C282.687 174.934 282.308 175.342 281.817 175.825L280.238 177.426V177.49H283.826V178.5H278.595V177.641ZM288.172 178.607C287.643 178.607 287.156 178.491 286.712 178.258C286.271 178.022 285.909 177.626 285.627 177.071C285.347 176.516 285.208 175.782 285.208 174.869C285.208 173.978 285.329 173.213 285.573 172.576C285.82 171.935 286.171 171.448 286.626 171.115C287.084 170.782 287.625 170.615 288.248 170.615C288.713 170.615 289.132 170.707 289.504 170.889C289.88 171.068 290.185 171.319 290.418 171.641C290.65 171.963 290.797 172.33 290.858 172.742H289.687C289.608 172.413 289.444 172.148 289.193 171.947C288.942 171.747 288.627 171.646 288.248 171.646C287.85 171.646 287.508 171.759 287.222 171.985C286.939 172.207 286.722 172.529 286.572 172.952C286.421 173.371 286.346 173.87 286.346 174.45H286.432C286.643 174.121 286.923 173.863 287.27 173.677C287.621 173.491 288.008 173.397 288.43 173.397C288.889 173.397 289.309 173.508 289.692 173.73C290.076 173.949 290.378 174.253 290.6 174.644C290.822 175.03 290.933 175.467 290.933 175.954C290.933 176.452 290.819 176.903 290.589 177.308C290.36 177.709 290.036 178.026 289.617 178.258C289.198 178.491 288.717 178.607 288.172 178.607ZM288.14 177.619C288.448 177.619 288.727 177.546 288.978 177.399C289.229 177.252 289.426 177.053 289.569 176.803C289.712 176.552 289.784 176.276 289.784 175.976C289.784 175.682 289.714 175.412 289.574 175.165C289.435 174.917 289.241 174.722 288.994 174.579C288.751 174.436 288.477 174.364 288.172 174.364C287.861 174.364 287.576 174.439 287.318 174.59C287.064 174.737 286.862 174.935 286.712 175.186C286.565 175.433 286.49 175.7 286.486 175.986C286.49 176.273 286.563 176.541 286.706 176.792C286.849 177.043 287.046 177.243 287.297 177.394C287.551 177.544 287.832 177.619 288.14 177.619ZM292.798 178.575C292.662 178.575 292.533 178.541 292.412 178.473C292.293 178.405 292.2 178.312 292.132 178.194C292.064 178.076 292.032 177.949 292.036 177.812C292.032 177.676 292.064 177.549 292.132 177.431C292.2 177.313 292.293 177.22 292.412 177.152C292.533 177.084 292.662 177.05 292.798 177.05C292.931 177.05 293.056 177.084 293.174 177.152C293.292 177.22 293.385 177.313 293.454 177.431C293.525 177.549 293.561 177.676 293.561 177.812C293.561 177.949 293.525 178.076 293.454 178.194C293.385 178.312 293.292 178.405 293.174 178.473C293.056 178.541 292.931 178.575 292.798 178.575ZM297.553 178.607C296.955 178.607 296.441 178.452 296.011 178.14C295.585 177.829 295.259 177.374 295.034 176.776C294.808 176.174 294.696 175.453 294.696 174.611C294.696 173.777 294.808 173.061 295.034 172.463C295.263 171.861 295.592 171.403 296.022 171.088C296.452 170.773 296.962 170.615 297.553 170.615C298.144 170.615 298.654 170.773 299.084 171.088C299.513 171.403 299.841 171.861 300.067 172.463C300.296 173.061 300.41 173.777 300.41 174.611C300.41 175.453 300.298 176.173 300.072 176.771C299.846 177.368 299.519 177.825 299.089 178.14C298.659 178.452 298.147 178.607 297.553 178.607ZM297.553 177.587C297.904 177.587 298.205 177.474 298.455 177.249C298.706 177.019 298.897 176.683 299.03 176.239C299.162 175.795 299.229 175.252 299.229 174.611C299.229 173.974 299.161 173.431 299.025 172.984C298.892 172.533 298.701 172.193 298.45 171.963C298.199 171.731 297.9 171.614 297.553 171.614C297.206 171.614 296.907 171.731 296.656 171.963C296.405 172.193 296.212 172.533 296.076 172.984C295.943 173.431 295.877 173.974 295.877 174.611C295.877 175.252 295.943 175.795 296.076 176.239C296.208 176.683 296.4 177.019 296.651 177.249C296.901 177.474 297.202 177.587 297.553 177.587ZM301.663 176.029L305.101 170.723H306.562V175.986H307.625V176.985H306.562V178.5H305.444V176.985H301.663V176.029ZM305.444 175.986V172.13H305.358L302.909 175.922V175.986H305.444ZM309.49 178.575C309.354 178.575 309.225 178.541 309.103 178.473C308.985 178.405 308.892 178.312 308.824 178.194C308.756 178.076 308.724 177.949 308.727 177.812C308.724 177.676 308.756 177.549 308.824 177.431C308.892 177.313 308.985 177.22 309.103 177.152C309.225 177.084 309.354 177.05 309.49 177.05C309.623 177.05 309.748 177.084 309.866 177.152C309.984 177.22 310.077 177.313 310.145 177.431C310.217 177.549 310.253 177.676 310.253 177.812C310.253 177.949 310.217 178.076 310.145 178.194C310.077 178.312 309.984 178.405 309.866 178.473C309.748 178.541 309.623 178.575 309.49 178.575ZM314.245 178.607C313.647 178.607 313.133 178.452 312.703 178.14C312.277 177.829 311.951 177.374 311.726 176.776C311.5 176.174 311.387 175.453 311.387 174.611C311.387 173.777 311.5 173.061 311.726 172.463C311.955 171.861 312.284 171.403 312.714 171.088C313.144 170.773 313.654 170.615 314.245 170.615C314.836 170.615 315.346 170.773 315.775 171.088C316.205 171.403 316.533 171.861 316.758 172.463C316.988 173.061 317.102 173.777 317.102 174.611C317.102 175.453 316.989 176.173 316.764 176.771C316.538 177.368 316.211 177.825 315.781 178.14C315.351 178.452 314.839 178.607 314.245 178.607ZM314.245 177.587C314.596 177.587 314.896 177.474 315.147 177.249C315.398 177.019 315.589 176.683 315.722 176.239C315.854 175.795 315.921 175.252 315.921 174.611C315.921 173.974 315.852 173.431 315.716 172.984C315.584 172.533 315.392 172.193 315.142 171.963C314.891 171.731 314.592 171.614 314.245 171.614C313.897 171.614 313.598 171.731 313.348 171.963C313.097 172.193 312.904 172.533 312.768 172.984C312.635 173.431 312.569 173.974 312.569 174.611C312.569 175.252 312.635 175.795 312.768 176.239C312.9 176.683 313.092 177.019 313.342 177.249C313.593 177.474 313.894 177.587 314.245 177.587ZM321.287 178.607C320.758 178.607 320.281 178.518 319.859 178.339C319.44 178.16 319.109 177.909 318.865 177.587C318.625 177.261 318.498 176.889 318.484 176.47H319.687C319.701 176.695 319.778 176.892 319.918 177.061C320.061 177.229 320.251 177.36 320.487 177.453C320.724 177.542 320.987 177.587 321.277 177.587C321.585 177.587 321.862 177.533 322.109 177.426C322.356 177.318 322.55 177.17 322.689 176.98C322.829 176.787 322.899 176.566 322.899 176.319C322.899 176.065 322.829 175.838 322.689 175.637C322.55 175.437 322.347 175.281 322.082 175.17C321.821 175.055 321.51 174.998 321.148 174.998H320.482V174.031H321.148C321.438 174.031 321.697 173.979 321.927 173.875C322.156 173.772 322.333 173.627 322.458 173.44C322.587 173.254 322.652 173.039 322.652 172.796C322.652 172.56 322.596 172.352 322.485 172.173C322.374 171.994 322.217 171.854 322.013 171.754C321.808 171.654 321.57 171.604 321.298 171.604C321.033 171.604 320.788 171.65 320.562 171.743C320.337 171.836 320.154 171.969 320.015 172.141C319.878 172.312 319.805 172.513 319.794 172.742H318.656C318.666 172.33 318.79 171.963 319.026 171.641C319.266 171.315 319.587 171.063 319.988 170.884C320.389 170.705 320.829 170.615 321.309 170.615C321.803 170.615 322.238 170.71 322.614 170.9C322.994 171.09 323.286 171.347 323.49 171.673C323.694 171.996 323.794 172.348 323.79 172.731C323.794 173.168 323.67 173.541 323.42 173.849C323.173 174.153 322.838 174.357 322.415 174.461V174.515C322.942 174.59 323.352 174.792 323.645 175.122C323.943 175.451 324.091 175.865 324.091 176.362C324.091 176.788 323.969 177.173 323.726 177.517C323.482 177.857 323.148 178.124 322.722 178.317C322.295 178.511 321.817 178.607 321.287 178.607Z" fill="#888882"/>
</g>
</g>
</g>
</g>
</g>
<path d="M16 0.5H329.34C337.9 0.5 344.84 7.43959 344.84 16V182C344.84 190.56 337.9 197.5 329.34 197.5H16C7.43959 197.5 0.5 190.56 0.5 182V16L0.504883 15.5996C0.717249 7.22424 7.57345 0.5 16 0.5Z" stroke="#E2DDD5"/>
</g>
<defs>
<filter id="filter0_d_197_6955" x="-4" y="-3" width="353.34" height="206" filterUnits="userSpaceOnUse" color-interpolation-filters="sRGB">
<feFlood flood-opacity="0" result="BackgroundImageFix"/>
<feColorMatrix in="SourceAlpha" type="matrix" values="0 0 0 0 0 0 0 0 0 0 0 0 0 0 0 0 0 0 127 0" result="hardAlpha"/>
<feOffset dy="1"/>
<feGaussianBlur stdDeviation="2"/>
<feColorMatrix type="matrix" values="0 0 0 0 0.118 0 0 0 0 0.157 0 0 0 0 0.133 0 0 0 0.06 0"/>
<feBlend mode="normal" in2="BackgroundImageFix" result="effect1_dropShadow_197_6955"/>
<feBlend mode="normal" in="SourceGraphic" in2="effect1_dropShadow_197_6955" result="shape"/>
</filter>
<clipPath id="clip0_197_6955">
<path d="M0 16C0 7.16345 7.16344 0 16 0H329.34C338.177 0 345.34 7.16344 345.34 16V182C345.34 190.837 338.177 198 329.34 198H16C7.16345 198 0 190.837 0 182V16Z" fill="white"/>
</clipPath>
</defs>
</svg>
