<svg width="346" height="195" viewBox="0 0 346 195" fill="none" xmlns="http://www.w3.org/2000/svg">
<g id="LodgingReservationCard" filter="url(#filter0_d_199_7141)">
<g clip-path="url(#clip0_199_7141)">
<path d="M0 19C0 10.1634 7.16344 3 16 3H329.34C338.177 3 345.34 10.1634 345.34 19V174C345.34 182.837 338.177 190 329.34 190H16C7.16345 190 0 182.837 0 174V19Z" fill="#FAFAF7"/>
<g id="Header">
<path d="M0 19C0 10.1634 7.16344 3 16 3H329.34C338.177 3 345.34 10.1634 345.34 19V47H0V19Z" fill="#2D5A3D"/>
<g id="Frame 101">
<g id="Lodging">
<path id="Vector" d="M19 22.5L28 16L37 22.5V34C37 34.2652 36.8946 34.5196 36.7071 34.7071C36.5196 34.8946 36.2652 35 36 35H20C19.7348 35 19.4804 34.8946 19.2929 34.7071C19.1054 34.5196 19 34.2652 19 34V22.5Z" stroke="#FAFAF7" stroke-width="1.8" stroke-linecap="round" stroke-linejoin="round"/>
<path id="Vector_2" d="M25 35V25H31V35" stroke="#FAFAF7" stroke-width="1.8" stroke-linecap="round" stroke-linejoin="round"/>
</g>
<path id="&#236;&#136;&#153;&#236;&#134;&#140;" d="M55.6484 20.6641C55.6484 21.0898 55.8281 21.498 56.1875 21.8887C56.5469 22.2754 57.0137 22.6055 57.5879 22.8789C58.1621 23.1484 58.7578 23.3281 59.375 23.418L59.0117 24.1328C58.4727 24.0469 57.9492 23.9004 57.4414 23.6934C56.9375 23.4824 56.4863 23.2207 56.0879 22.9082C55.6934 22.5957 55.3887 22.248 55.1738 21.8652C54.959 22.252 54.6523 22.6016 54.2539 22.9141C53.8555 23.2227 53.4023 23.4824 52.8945 23.6934C52.3906 23.9004 51.8672 24.0469 51.3242 24.1328L50.9727 23.418C51.5938 23.3281 52.1914 23.1484 52.7656 22.8789C53.3398 22.6094 53.8047 22.2812 54.1602 21.8945C54.5195 21.5039 54.6992 21.0938 54.6992 20.6641V20.1719H55.6484V20.6641ZM59.9141 25.7266H55.6133V27.0625H58.7422V30.4492H57.8164V27.8125H51.4766V27.0625H54.7109V25.7266H50.4219V24.9648H59.9141V25.7266ZM70.532 29.0898H60.993V28.3281H65.2586V25.7734H66.1609V28.3281H70.532V29.0898ZM66.1844 21.543C66.1844 22.0977 66.3758 22.6309 66.7586 23.1426C67.1453 23.6543 67.6375 24.0879 68.2352 24.4434C68.8367 24.7949 69.4461 25.0234 70.0633 25.1289L69.6531 25.8906C69.1141 25.7812 68.5848 25.5918 68.0652 25.3223C67.5457 25.0527 67.077 24.7168 66.659 24.3145C66.2449 23.9121 65.9285 23.4688 65.7098 22.9844C65.491 23.4688 65.1746 23.9121 64.7605 24.3145C64.3465 24.7168 63.8797 25.0527 63.3602 25.3223C62.8445 25.5918 62.3172 25.7812 61.7781 25.8906L61.368 25.1289C61.9852 25.0234 62.5906 24.7949 63.1844 24.4434C63.782 24.0879 64.2703 23.6562 64.6492 23.1484C65.032 22.6367 65.2234 22.1016 65.2234 21.543V20.7461H66.1844V21.543Z" fill="#FAFAF7"/>
</g>
<g id="ReservationStatusBadgeChanged">
<path id="Rectangle 17" d="M298.34 25C298.34 23.6193 299.459 22.5 300.84 22.5V22.5C302.221 22.5 303.34 23.6193 303.34 25V25C303.34 26.3807 302.221 27.5 300.84 27.5V27.5C299.459 27.5 298.34 26.3807 298.34 25V25Z" fill="#D4A85C"/>
<path id="&#235;&#179;&#128;&#234;&#178;&#189;" d="M317.398 27.7539H316.473V24.9531H314.012V25.9727H309.289V20.7344H310.203V22.5859H313.109V20.7344H314.012V21.9531H316.473V20.043H317.398V27.7539ZM317.633 30.2266H310.66V26.9922H311.586V29.4531H317.633V30.2266ZM313.109 25.2109V23.3125H310.203V25.2109H313.109ZM316.473 24.1914V22.7266H314.012V24.1914H316.473ZM327.97 26.3008H327.044V24.8945H324.278V24.1328H327.044V22.7266H324.378C324.042 23.5547 323.487 24.2695 322.714 24.8711C321.94 25.4727 320.989 25.9414 319.86 26.2773L319.473 25.5508C320.313 25.3008 321.042 24.9824 321.659 24.5957C322.276 24.2051 322.762 23.7559 323.118 23.248C323.473 22.7402 323.682 22.1875 323.745 21.5898H320.001V20.8164H324.747C324.747 21.2188 324.702 21.6094 324.612 21.9883H327.044V20.043H327.97V26.3008ZM324.559 26.4062C325.259 26.4062 325.87 26.4863 326.393 26.6465C326.917 26.8066 327.319 27.0371 327.6 27.3379C327.886 27.6348 328.028 27.9883 328.028 28.3984C328.028 28.8125 327.886 29.1699 327.6 29.4707C327.319 29.7715 326.917 30.002 326.393 30.1621C325.87 30.3223 325.259 30.4023 324.559 30.4023C323.852 30.4023 323.237 30.3223 322.714 30.1621C322.19 30.002 321.786 29.7715 321.501 29.4707C321.22 29.1699 321.079 28.8125 321.079 28.3984C321.079 27.9883 321.22 27.6348 321.501 27.3379C321.786 27.0371 322.19 26.8066 322.714 26.6465C323.237 26.4863 323.852 26.4062 324.559 26.4062ZM324.559 27.1445C324.04 27.1406 323.585 27.1895 323.194 27.291C322.807 27.3887 322.509 27.5332 322.298 27.7246C322.087 27.916 321.981 28.1406 321.981 28.3984C321.981 28.6562 322.087 28.8809 322.298 29.0723C322.509 29.2598 322.807 29.4023 323.194 29.5C323.581 29.6016 324.036 29.6523 324.559 29.6523C325.075 29.6523 325.524 29.6016 325.907 29.5C326.29 29.4023 326.585 29.2598 326.792 29.0723C327.003 28.8809 327.11 28.6562 327.114 28.3984C327.11 28.1406 327.003 27.916 326.792 27.7246C326.581 27.5332 326.284 27.3887 325.901 27.291C325.518 27.1895 325.071 27.1406 324.559 27.1445Z" fill="#FAFAF7"/>
</g>
</g>
<g id="Content">
<g id="Frame 112">
<path id="&#236;&#139;&#160;&#236;&#163;&#188;&#236;&#191;&#160; &#234;&#183;&#184;&#235;&#158;&#156;&#235;&#147;&#156;&#237;&#152;&#184;&#237;&#133;&#148;" d="M32.0312 73.5781H30.8125V63.3906H32.0312V73.5781ZM32.4688 76.9688H23.0625V72.6406H24.2812V75.9375H32.4688V76.9688ZM25.4844 65.5625C25.4792 66.2552 25.6224 66.9193 25.9141 67.5547C26.2109 68.1901 26.625 68.75 27.1562 69.2344C27.6927 69.7135 28.3021 70.0781 28.9844 70.3281L28.3438 71.3125C27.5417 71.0052 26.8385 70.5521 26.2344 69.9531C25.6302 69.349 25.1745 68.6458 24.8672 67.8438C24.5599 68.6979 24.1016 69.4505 23.4922 70.1016C22.888 70.7526 22.1823 71.2396 21.375 71.5625L20.7031 70.6094C21.3958 70.3438 22.0104 69.9531 22.5469 69.4375C23.0833 68.9219 23.4974 68.3281 23.7891 67.6562C24.0859 66.9844 24.2344 66.2865 24.2344 65.5625V64.1719H25.4844V65.5625ZM41.4062 65.3438C41.401 65.9375 41.6328 66.5052 42.1016 67.0469C42.5703 67.5833 43.1823 68.0365 43.9375 68.4062C44.6927 68.776 45.4792 69.0208 46.2969 69.1406L45.8438 70.1094C45.1094 69.9844 44.401 69.776 43.7188 69.4844C43.0417 69.1927 42.4401 68.8281 41.9141 68.3906C41.388 67.9479 40.9896 67.4557 40.7188 66.9141C40.4479 67.4557 40.0495 67.9453 39.5234 68.3828C38.9974 68.8203 38.3958 69.1875 37.7188 69.4844C37.0469 69.776 36.349 69.9844 35.625 70.1094L35.1406 69.1406C35.9531 69.0208 36.737 68.776 37.4922 68.4062C38.2474 68.0365 38.8594 67.5833 39.3281 67.0469C39.7969 66.5052 40.0312 65.9375 40.0312 65.3438V65.25H35.5781V64.25H45.8438V65.25H41.4062V65.3438ZM47.0469 72.3125H41.2969V77.2656H40.0938V72.3125H34.3906V71.2969H47.0469V72.3125ZM59.25 65.5312C59.25 66.5156 59.2214 67.3984 59.1641 68.1797C59.112 68.9557 58.9766 69.8438 58.7578 70.8438H60.875V71.875H55.1875V77.2656H53.9531V71.875H48.2188V70.8438H57.5312C57.7448 69.9688 57.8958 69.0859 57.9844 68.1953L49.5938 68.625L49.4375 67.5469L58.0547 67.25L58.0938 65.875V65.5312V65.2656H49.8281V64.25H59.25V65.5312ZM77.0156 66.25C77.0156 67.0469 77.0052 67.7422 76.9844 68.3359C76.9688 68.9297 76.9245 69.6224 76.8516 70.4141C76.7786 71.2057 76.6615 72.0677 76.5 73L75.25 72.875C75.4219 71.9948 75.5495 71.1667 75.6328 70.3906C75.7161 69.6094 75.7656 68.9219 75.7812 68.3281C75.8021 67.7292 75.8125 67.0365 75.8125 66.25V65.875H67.4375V64.8594H77.0156V66.25ZM78.7188 75.2188H66.0625V74.2031H78.7188V75.2188ZM91.6875 73.7344H90.5156V68.5781H88.5625V73.3281H87.4219V63.6562H88.5625V67.5469H90.5156V63.3906H91.6875V73.7344ZM92.1094 76.9688H82.5781V72.7812H83.7969V75.9375H92.1094V76.9688ZM85.7656 68.5469H81.7188V70.6562C82.6927 70.651 83.5521 70.6198 84.2969 70.5625C85.0417 70.5 85.8073 70.3906 86.5938 70.2344L86.7344 71.2188C85.8802 71.3802 85.0521 71.4922 84.25 71.5547C83.4531 71.612 82.5156 71.6406 81.4375 71.6406H80.5312V67.5781H84.5938V65.5781H80.5V64.5781H85.7656V68.5469ZM104.938 71.0781H95.3438V64.6719H104.797V65.6875H96.5625V70.0625H104.938V71.0781ZM106.438 75.375H93.7188V74.3438H106.438V75.375ZM119.547 66.4531H108.172V65.4375H113.266V63.6094H114.469V65.4375H119.547V66.4531ZM120.266 75.6406H107.547V74.625H113.266V72.6719C112.443 72.6302 111.734 72.4974 111.141 72.2734C110.547 72.0495 110.091 71.7474 109.773 71.3672C109.461 70.9818 109.307 70.5312 109.312 70.0156C109.307 69.4688 109.487 69 109.852 68.6094C110.221 68.2135 110.75 67.9141 111.438 67.7109C112.125 67.5026 112.938 67.401 113.875 67.4062C114.802 67.401 115.609 67.5026 116.297 67.7109C116.984 67.9141 117.513 68.2135 117.883 68.6094C118.253 69 118.438 69.4688 118.438 70.0156C118.438 70.5312 118.276 70.9818 117.953 71.3672C117.635 71.7474 117.18 72.0495 116.586 72.2734C115.992 72.4974 115.286 72.6302 114.469 72.6719V74.625H120.266V75.6406ZM113.875 68.375C113.188 68.375 112.591 68.4401 112.086 68.5703C111.586 68.7005 111.203 68.8906 110.938 69.1406C110.672 69.3854 110.542 69.6771 110.547 70.0156C110.542 70.5417 110.831 70.9505 111.414 71.2422C112.003 71.5286 112.823 71.6771 113.875 71.6875C114.911 71.6771 115.721 71.5286 116.305 71.2422C116.893 70.9505 117.188 70.5417 117.188 70.0156C117.188 69.6771 117.055 69.3854 116.789 69.1406C116.523 68.8906 116.141 68.7005 115.641 68.5703C115.141 68.4401 114.552 68.375 113.875 68.375ZM127.328 65.2188H123.188V66.7188H126.75V67.6719H123.188V69.3281C124.198 69.3229 125.057 69.2969 125.766 69.25C126.479 69.2031 127.208 69.1094 127.953 68.9688L128.078 69.9219C127.245 70.0729 126.44 70.1771 125.664 70.2344C124.893 70.2865 123.974 70.3125 122.906 70.3125H122.031V64.2344H127.328V65.2188ZM133.172 70.8906H132V63.3906H133.172V70.8906ZM130.469 70.7812H129.281V67.5156H127.406V66.5156H129.281V63.6406H130.469V70.7812ZM133.172 74.7188H125.203V76.125H133.734V77.1094H123.984V73.7969H131.969V72.5156H123.953V71.5312H133.172V74.7188Z" fill="#1A1A1A"/>
<path id="2026.05.01 &#236;&#178;&#180;&#237;&#129;&#172;&#236;&#157;&#184; &#226;&#134;&#146; 2026.05.03 &#236;&#178;&#180;&#237;&#129;&#172;&#236;&#149;&#132;&#236;&#155;&#131;" d="M20.7852 98.2266L23.6797 95.1797C24.0625 94.7773 24.3535 94.4531 24.5527 94.207C24.7559 93.957 24.9082 93.7168 25.0098 93.4863C25.1152 93.252 25.168 93.0078 25.168 92.7539C25.168 92.4727 25.0938 92.2227 24.9453 92.0039C24.7969 91.7852 24.5938 91.6152 24.3359 91.4941C24.082 91.373 23.7969 91.3125 23.4805 91.3125C23.1484 91.3125 22.8574 91.3789 22.6074 91.5117C22.3574 91.6445 22.1641 91.832 22.0273 92.0742C21.8945 92.3164 21.8281 92.5938 21.8281 92.9062H20.832C20.8281 92.4141 20.9414 91.9785 21.1719 91.5996C21.4062 91.2207 21.7285 90.9258 22.1387 90.7148C22.5488 90.5039 23.0078 90.3984 23.5156 90.3984C24.0195 90.3984 24.4707 90.502 24.8691 90.709C25.2715 90.916 25.5859 91.1992 25.8125 91.5586C26.0391 91.918 26.1523 92.3164 26.1523 92.7539C26.1523 93.0781 26.0938 93.3887 25.9766 93.6855C25.8594 93.9785 25.6621 94.3047 25.3848 94.6641C25.1113 95.0195 24.7188 95.4609 24.207 95.9883L22.2617 97.9922V98.0625H26.3047V99H20.7969L20.7852 98.2266ZM30.8172 99.1172C30.1922 99.1172 29.657 98.9473 29.2117 98.6074C28.7703 98.2676 28.4324 97.7715 28.198 97.1191C27.9676 96.4668 27.8523 95.6797 27.8523 94.7578C27.8523 93.8477 27.9695 93.0664 28.2039 92.4141C28.4383 91.7578 28.7781 91.2578 29.2234 90.9141C29.6687 90.5703 30.2 90.3984 30.8172 90.3984C31.4344 90.3984 31.9656 90.5703 32.4109 90.9141C32.8562 91.2578 33.1961 91.7578 33.4305 92.4141C33.6648 93.0664 33.782 93.8477 33.782 94.7578C33.782 95.6797 33.6648 96.4668 33.4305 97.1191C33.2 97.7715 32.8621 98.2676 32.4168 98.6074C31.9715 98.9473 31.4383 99.1172 30.8172 99.1172ZM30.8172 98.1797C31.2234 98.1797 31.5711 98.0469 31.8602 97.7812C32.1492 97.5156 32.3699 97.127 32.5223 96.6152C32.6746 96.1035 32.7508 95.4844 32.7508 94.7578C32.7508 94.0312 32.6746 93.4102 32.5223 92.8945C32.3699 92.3789 32.1492 91.9863 31.8602 91.7168C31.5711 91.4473 31.2234 91.3125 30.8172 91.3125C30.4109 91.3125 30.0613 91.4473 29.7684 91.7168C29.4793 91.9863 29.2566 92.3789 29.1004 92.8945C28.948 93.4102 28.8719 94.0312 28.8719 94.7578C28.8719 95.4844 28.948 96.1035 29.1004 96.6152C29.2527 97.127 29.4734 97.5156 29.7625 97.7812C30.0555 98.0469 30.407 98.1797 30.8172 98.1797ZM35.3766 98.2266L38.2711 95.1797C38.6539 94.7773 38.9449 94.4531 39.1441 94.207C39.3473 93.957 39.4996 93.7168 39.6012 93.4863C39.7066 93.252 39.7594 93.0078 39.7594 92.7539C39.7594 92.4727 39.6852 92.2227 39.5367 92.0039C39.3883 91.7852 39.1852 91.6152 38.9273 91.4941C38.6734 91.373 38.3883 91.3125 38.0719 91.3125C37.7398 91.3125 37.4488 91.3789 37.1988 91.5117C36.9488 91.6445 36.7555 91.832 36.6187 92.0742C36.4859 92.3164 36.4195 92.5938 36.4195 92.9062H35.4234C35.4195 92.4141 35.5328 91.9785 35.7633 91.5996C35.9977 91.2207 36.3199 90.9258 36.7301 90.7148C37.1402 90.5039 37.5992 90.3984 38.107 90.3984C38.6109 90.3984 39.0621 90.502 39.4605 90.709C39.8629 90.916 40.1773 91.1992 40.4039 91.5586C40.6305 91.918 40.7437 92.3164 40.7437 92.7539C40.7437 93.0781 40.6852 93.3887 40.568 93.6855C40.4508 93.9785 40.2535 94.3047 39.9762 94.6641C39.7027 95.0195 39.3102 95.4609 38.7984 95.9883L36.8531 97.9922V98.0625H40.8961V99H35.3883L35.3766 98.2266ZM45.6078 99.1172C45.0609 99.1172 44.5531 98.9941 44.0844 98.748C43.6195 98.498 43.2367 98.0742 42.9359 97.4766C42.6391 96.875 42.4906 96.0781 42.4906 95.0859C42.4906 94.0977 42.6195 93.252 42.8773 92.5488C43.1391 91.8457 43.5102 91.3125 43.9906 90.9492C44.475 90.582 45.0492 90.3984 45.7133 90.3984C46.2016 90.3984 46.6391 90.4922 47.0258 90.6797C47.4164 90.8672 47.7348 91.1309 47.9809 91.4707C48.2309 91.8105 48.393 92.2031 48.4672 92.6484H47.4242C47.3188 92.2539 47.1195 91.9375 46.8266 91.6992C46.5375 91.457 46.1664 91.3359 45.7133 91.3359C45.2523 91.3359 44.8539 91.4648 44.518 91.7227C44.1859 91.9766 43.9301 92.3457 43.7504 92.8301C43.5746 93.3145 43.4867 93.8945 43.4867 94.5703H43.5922C43.8422 94.2148 44.1547 93.9395 44.5297 93.7441C44.9047 93.5449 45.3188 93.4453 45.7719 93.4453C46.2719 93.4453 46.7328 93.5664 47.1547 93.8086C47.5805 94.0508 47.9164 94.3867 48.1625 94.8164C48.4125 95.2422 48.5375 95.7227 48.5375 96.2578C48.5375 96.7852 48.4145 97.2676 48.1684 97.7051C47.9262 98.1387 47.5824 98.4824 47.1371 98.7363C46.6918 98.9902 46.182 99.1172 45.6078 99.1172ZM45.5844 98.1914C45.9438 98.1914 46.2699 98.1055 46.5629 97.9336C46.8559 97.7617 47.0863 97.5293 47.2543 97.2363C47.4262 96.9395 47.5141 96.6172 47.518 96.2695C47.5141 95.9219 47.4301 95.6035 47.266 95.3145C47.102 95.0254 46.8754 94.7969 46.5863 94.6289C46.2973 94.457 45.9711 94.3711 45.6078 94.3711C45.2445 94.3711 44.9125 94.459 44.6117 94.6348C44.3109 94.8105 44.0727 95.0469 43.8969 95.3438C43.7211 95.6367 43.6313 95.9492 43.6273 96.2812C43.6273 96.6133 43.7113 96.9258 43.8793 97.2188C44.0512 97.5117 44.2855 97.748 44.5824 97.9277C44.8832 98.1035 45.2172 98.1914 45.5844 98.1914ZM50.5187 99.0703C50.382 99.0703 50.2551 99.0371 50.1379 98.9707C50.0246 98.9004 49.9328 98.8066 49.8625 98.6895C49.7961 98.5723 49.7648 98.4453 49.7687 98.3086C49.7648 98.1758 49.7961 98.0527 49.8625 97.9395C49.9328 97.8223 50.0246 97.7305 50.1379 97.6641C50.2551 97.5938 50.382 97.5586 50.5187 97.5586C50.6516 97.5586 50.7746 97.5938 50.8879 97.6641C51.0051 97.7305 51.0969 97.8223 51.1633 97.9395C51.2336 98.0527 51.2687 98.1758 51.2687 98.3086C51.2687 98.4453 51.2336 98.5723 51.1633 98.6895C51.0969 98.8066 51.0051 98.9004 50.8879 98.9707C50.7746 99.0371 50.6516 99.0703 50.5187 99.0703ZM55.5117 99.1172C54.8867 99.1172 54.3516 98.9473 53.9062 98.6074C53.4648 98.2676 53.127 97.7715 52.8926 97.1191C52.6621 96.4668 52.5469 95.6797 52.5469 94.7578C52.5469 93.8477 52.6641 93.0664 52.8984 92.4141C53.1328 91.7578 53.4727 91.2578 53.918 90.9141C54.3633 90.5703 54.8945 90.3984 55.5117 90.3984C56.1289 90.3984 56.6602 90.5703 57.1055 90.9141C57.5508 91.2578 57.8906 91.7578 58.125 92.4141C58.3594 93.0664 58.4766 93.8477 58.4766 94.7578C58.4766 95.6797 58.3594 96.4668 58.125 97.1191C57.8945 97.7715 57.5566 98.2676 57.1113 98.6074C56.666 98.9473 56.1328 99.1172 55.5117 99.1172ZM55.5117 98.1797C55.918 98.1797 56.2656 98.0469 56.5547 97.7812C56.8438 97.5156 57.0645 97.127 57.2168 96.6152C57.3691 96.1035 57.4453 95.4844 57.4453 94.7578C57.4453 94.0312 57.3691 93.4102 57.2168 92.8945C57.0645 92.3789 56.8438 91.9863 56.5547 91.7168C56.2656 91.4473 55.918 91.3125 55.5117 91.3125C55.1055 91.3125 54.7559 91.4473 54.4629 91.7168C54.1738 91.9863 53.9512 92.3789 53.7949 92.8945C53.6426 93.4102 53.5664 94.0312 53.5664 94.7578C53.5664 95.4844 53.6426 96.1035 53.7949 96.6152C53.9473 97.127 54.168 97.5156 54.457 97.7812C54.75 98.0469 55.1016 98.1797 55.5117 98.1797ZM62.8484 99.1172C62.3445 99.1172 61.8855 99.0215 61.4715 98.8301C61.0613 98.6348 60.7332 98.3672 60.4871 98.0273C60.2449 97.6836 60.1141 97.2969 60.0945 96.8672H61.1141C61.1414 97.1172 61.2352 97.3438 61.3953 97.5469C61.5555 97.7461 61.7625 97.9043 62.0164 98.0215C62.2703 98.1348 62.5477 98.1914 62.8484 98.1914C63.2078 98.1914 63.532 98.1094 63.8211 97.9453C64.1102 97.7812 64.3367 97.5566 64.5008 97.2715C64.6648 96.9863 64.7469 96.668 64.7469 96.3164C64.7469 95.9531 64.6609 95.627 64.4891 95.3379C64.3211 95.0449 64.0867 94.8164 63.7859 94.6523C63.4891 94.4844 63.1531 94.3984 62.7781 94.3945C62.0242 94.3828 61.4969 94.6367 61.1961 95.1562H60.1766L60.7742 90.5156H65.368V91.4531H61.6531L61.3367 93.9375H61.4188C61.6102 93.7891 61.8426 93.6699 62.116 93.5801C62.3895 93.4902 62.6727 93.4453 62.9656 93.4453C63.4969 93.4453 63.9754 93.5684 64.4012 93.8145C64.8309 94.0566 65.1668 94.3945 65.409 94.8281C65.6551 95.2617 65.7781 95.75 65.7781 96.293C65.7781 96.832 65.6512 97.3164 65.3973 97.7461C65.1434 98.1758 64.7938 98.5117 64.3484 98.7539C63.9031 98.9961 63.4031 99.1172 62.8484 99.1172ZM67.8531 99.0703C67.7164 99.0703 67.5895 99.0371 67.4723 98.9707C67.359 98.9004 67.2672 98.8066 67.1969 98.6895C67.1305 98.5723 67.0992 98.4453 67.1031 98.3086C67.0992 98.1758 67.1305 98.0527 67.1969 97.9395C67.2672 97.8223 67.359 97.7305 67.4723 97.6641C67.5895 97.5938 67.7164 97.5586 67.8531 97.5586C67.9859 97.5586 68.109 97.5938 68.2223 97.6641C68.3395 97.7305 68.4313 97.8223 68.4977 97.9395C68.568 98.0527 68.6031 98.1758 68.6031 98.3086C68.6031 98.4453 68.568 98.5723 68.4977 98.6895C68.4313 98.8066 68.3395 98.9004 68.2223 98.9707C68.109 99.0371 67.9859 99.0703 67.8531 99.0703ZM72.8461 99.1172C72.2211 99.1172 71.6859 98.9473 71.2406 98.6074C70.7992 98.2676 70.4613 97.7715 70.227 97.1191C69.9965 96.4668 69.8812 95.6797 69.8812 94.7578C69.8812 93.8477 69.9984 93.0664 70.2328 92.4141C70.4672 91.7578 70.807 91.2578 71.2523 90.9141C71.6977 90.5703 72.2289 90.3984 72.8461 90.3984C73.4633 90.3984 73.9945 90.5703 74.4398 90.9141C74.8852 91.2578 75.225 91.7578 75.4594 92.4141C75.6937 93.0664 75.8109 93.8477 75.8109 94.7578C75.8109 95.6797 75.6937 96.4668 75.4594 97.1191C75.2289 97.7715 74.891 98.2676 74.4457 98.6074C74.0004 98.9473 73.4672 99.1172 72.8461 99.1172ZM72.8461 98.1797C73.2523 98.1797 73.6 98.0469 73.8891 97.7812C74.1781 97.5156 74.3988 97.127 74.5512 96.6152C74.7035 96.1035 74.7797 95.4844 74.7797 94.7578C74.7797 94.0312 74.7035 93.4102 74.5512 92.8945C74.3988 92.3789 74.1781 91.9863 73.8891 91.7168C73.6 91.4473 73.2523 91.3125 72.8461 91.3125C72.4398 91.3125 72.0902 91.4473 71.7973 91.7168C71.5082 91.9863 71.2855 92.3789 71.1293 92.8945C70.977 93.4102 70.9008 94.0312 70.9008 94.7578C70.9008 95.4844 70.977 96.1035 71.1293 96.6152C71.2816 97.127 71.5023 97.5156 71.7914 97.7812C72.0844 98.0469 72.4359 98.1797 72.8461 98.1797ZM80.4172 99H79.3508V91.6172H79.3039L77.2414 92.9883V91.9219L79.3508 90.5156H80.4172V99ZM88.7625 92.7422C88.7625 93.3008 88.8543 93.8516 89.0379 94.3945C89.2215 94.9375 89.4852 95.4277 89.8289 95.8652C90.1727 96.2988 90.575 96.6406 91.0359 96.8906L90.5086 97.582C90.0008 97.3086 89.5613 96.9199 89.1902 96.416C88.8191 95.9082 88.5359 95.332 88.3406 94.6875C88.1492 95.3711 87.868 95.9863 87.4969 96.5332C87.1297 97.0801 86.6922 97.5078 86.1844 97.8164L85.6336 97.1133C86.0945 96.8477 86.4949 96.4824 86.8348 96.0176C87.1746 95.5527 87.4344 95.0352 87.6141 94.4648C87.7977 93.8945 87.8914 93.3203 87.8953 92.7422V92.2266H85.9148V91.4648H87.8953V89.918H88.7742V91.4648H90.7195V92.2266H88.7625V92.7422ZM94.6219 99.9492H93.743V89.5312H94.6219V99.9492ZM92.5125 99.4102H91.6453V94.4297H90.0047V93.6445H91.6453V89.7891H92.5125V99.4102ZM104.595 91.8867C104.595 92.5586 104.588 93.123 104.572 93.5801C104.56 94.0371 104.523 94.5488 104.461 95.1152C104.398 95.6777 104.298 96.2891 104.162 96.9492L103.236 96.8672C103.443 95.9648 103.578 95.0723 103.64 94.1895L97.2828 94.5352L97.1539 93.7734L103.675 93.5039C103.683 93.2852 103.689 93.0684 103.693 92.8535C103.697 92.6348 103.701 92.418 103.705 92.2031V91.8867V91.3711H97.4352V90.5977H104.595V91.8867ZM105.779 98.4844H96.2867V97.7109H105.779V98.4844ZM115.459 97.1602H114.545V89.543H115.459V97.1602ZM115.787 99.7266H108.733V96.3867H109.647V98.9531H115.787V99.7266ZM109.834 90.2695C110.35 90.2695 110.815 90.3789 111.229 90.5977C111.647 90.8125 111.973 91.1152 112.207 91.5059C112.446 91.8926 112.565 92.332 112.565 92.8242C112.565 93.3242 112.446 93.7695 112.207 94.1602C111.973 94.5469 111.647 94.8496 111.229 95.0684C110.815 95.2832 110.35 95.3906 109.834 95.3906C109.319 95.3906 108.852 95.2832 108.434 95.0684C108.02 94.8496 107.694 94.5469 107.455 94.1602C107.221 93.7695 107.104 93.3242 107.104 92.8242C107.104 92.332 107.221 91.8926 107.455 91.5059C107.694 91.1152 108.02 90.8125 108.434 90.5977C108.852 90.3789 109.319 90.2695 109.834 90.2695ZM109.834 91.0781C109.487 91.0781 109.172 91.1523 108.891 91.3008C108.614 91.4492 108.395 91.6562 108.235 91.9219C108.079 92.1875 108.002 92.4883 108.006 92.8242C108.002 93.1641 108.079 93.4688 108.235 93.7383C108.395 94.0039 108.614 94.2109 108.891 94.3594C109.172 94.5078 109.487 94.582 109.834 94.582C110.174 94.582 110.483 94.5078 110.76 94.3594C111.041 94.2109 111.262 94.0039 111.422 93.7383C111.582 93.4688 111.662 93.1641 111.662 92.8242C111.662 92.4922 111.582 92.1934 111.422 91.9277C111.262 91.6621 111.041 91.4551 110.76 91.3066C110.483 91.1543 110.174 91.0781 109.834 91.0781ZM125.727 97.8516L128.352 95.2266H121.59V94.3008H128.352L125.727 91.6758L126.383 91.0312L130.109 94.7578L126.383 98.4844L125.727 97.8516ZM135.373 98.2266L138.267 95.1797C138.65 94.7773 138.941 94.4531 139.14 94.207C139.343 93.957 139.496 93.7168 139.597 93.4863C139.703 93.252 139.755 93.0078 139.755 92.7539C139.755 92.4727 139.681 92.2227 139.533 92.0039C139.384 91.7852 139.181 91.6152 138.923 91.4941C138.67 91.373 138.384 91.3125 138.068 91.3125C137.736 91.3125 137.445 91.3789 137.195 91.5117C136.945 91.6445 136.752 91.832 136.615 92.0742C136.482 92.3164 136.416 92.5938 136.416 92.9062H135.42C135.416 92.4141 135.529 91.9785 135.759 91.5996C135.994 91.2207 136.316 90.9258 136.726 90.7148C137.136 90.5039 137.595 90.3984 138.103 90.3984C138.607 90.3984 139.058 90.502 139.457 90.709C139.859 90.916 140.173 91.1992 140.4 91.5586C140.627 91.918 140.74 92.3164 140.74 92.7539C140.74 93.0781 140.681 93.3887 140.564 93.6855C140.447 93.9785 140.25 94.3047 139.972 94.6641C139.699 95.0195 139.306 95.4609 138.795 95.9883L136.849 97.9922V98.0625H140.892V99H135.384L135.373 98.2266ZM145.405 99.1172C144.78 99.1172 144.245 98.9473 143.799 98.6074C143.358 98.2676 143.02 97.7715 142.786 97.1191C142.555 96.4668 142.44 95.6797 142.44 94.7578C142.44 93.8477 142.557 93.0664 142.791 92.4141C143.026 91.7578 143.366 91.2578 143.811 90.9141C144.256 90.5703 144.787 90.3984 145.405 90.3984C146.022 90.3984 146.553 90.5703 146.998 90.9141C147.444 91.2578 147.784 91.7578 148.018 92.4141C148.252 93.0664 148.37 93.8477 148.37 94.7578C148.37 95.6797 148.252 96.4668 148.018 97.1191C147.787 97.7715 147.45 98.2676 147.004 98.6074C146.559 98.9473 146.026 99.1172 145.405 99.1172ZM145.405 98.1797C145.811 98.1797 146.159 98.0469 146.448 97.7812C146.737 97.5156 146.957 97.127 147.11 96.6152C147.262 96.1035 147.338 95.4844 147.338 94.7578C147.338 94.0312 147.262 93.4102 147.11 92.8945C146.957 92.3789 146.737 91.9863 146.448 91.7168C146.159 91.4473 145.811 91.3125 145.405 91.3125C144.998 91.3125 144.649 91.4473 144.356 91.7168C144.067 91.9863 143.844 92.3789 143.688 92.8945C143.536 93.4102 143.459 94.0312 143.459 94.7578C143.459 95.4844 143.536 96.1035 143.688 96.6152C143.84 97.127 144.061 97.5156 144.35 97.7812C144.643 98.0469 144.995 98.1797 145.405 98.1797ZM149.964 98.2266L152.859 95.1797C153.241 94.7773 153.532 94.4531 153.732 94.207C153.935 93.957 154.087 93.7168 154.189 93.4863C154.294 93.252 154.347 93.0078 154.347 92.7539C154.347 92.4727 154.273 92.2227 154.124 92.0039C153.976 91.7852 153.773 91.6152 153.515 91.4941C153.261 91.373 152.976 91.3125 152.659 91.3125C152.327 91.3125 152.036 91.3789 151.786 91.5117C151.536 91.6445 151.343 91.832 151.206 92.0742C151.073 92.3164 151.007 92.5938 151.007 92.9062H150.011C150.007 92.4141 150.12 91.9785 150.351 91.5996C150.585 91.2207 150.907 90.9258 151.318 90.7148C151.728 90.5039 152.187 90.3984 152.695 90.3984C153.198 90.3984 153.65 90.502 154.048 90.709C154.45 90.916 154.765 91.1992 154.991 91.5586C155.218 91.918 155.331 92.3164 155.331 92.7539C155.331 93.0781 155.273 93.3887 155.155 93.6855C155.038 93.9785 154.841 94.3047 154.564 94.6641C154.29 95.0195 153.898 95.4609 153.386 95.9883L151.441 97.9922V98.0625H155.484V99H149.976L149.964 98.2266ZM160.195 99.1172C159.648 99.1172 159.141 98.9941 158.672 98.748C158.207 98.498 157.824 98.0742 157.523 97.4766C157.227 96.875 157.078 96.0781 157.078 95.0859C157.078 94.0977 157.207 93.252 157.465 92.5488C157.727 91.8457 158.098 91.3125 158.578 90.9492C159.062 90.582 159.637 90.3984 160.301 90.3984C160.789 90.3984 161.227 90.4922 161.613 90.6797C162.004 90.8672 162.322 91.1309 162.568 91.4707C162.818 91.8105 162.98 92.2031 163.055 92.6484H162.012C161.906 92.2539 161.707 91.9375 161.414 91.6992C161.125 91.457 160.754 91.3359 160.301 91.3359C159.84 91.3359 159.441 91.4648 159.105 91.7227C158.773 91.9766 158.518 92.3457 158.338 92.8301C158.162 93.3145 158.074 93.8945 158.074 94.5703H158.18C158.43 94.2148 158.742 93.9395 159.117 93.7441C159.492 93.5449 159.906 93.4453 160.359 93.4453C160.859 93.4453 161.32 93.5664 161.742 93.8086C162.168 94.0508 162.504 94.3867 162.75 94.8164C163 95.2422 163.125 95.7227 163.125 96.2578C163.125 96.7852 163.002 97.2676 162.756 97.7051C162.514 98.1387 162.17 98.4824 161.725 98.7363C161.279 98.9902 160.77 99.1172 160.195 99.1172ZM160.172 98.1914C160.531 98.1914 160.857 98.1055 161.15 97.9336C161.443 97.7617 161.674 97.5293 161.842 97.2363C162.014 96.9395 162.102 96.6172 162.105 96.2695C162.102 95.9219 162.018 95.6035 161.854 95.3145C161.689 95.0254 161.463 94.7969 161.174 94.6289C160.885 94.457 160.559 94.3711 160.195 94.3711C159.832 94.3711 159.5 94.459 159.199 94.6348C158.898 94.8105 158.66 95.0469 158.484 95.3438C158.309 95.6367 158.219 95.9492 158.215 96.2812C158.215 96.6133 158.299 96.9258 158.467 97.2188C158.639 97.5117 158.873 97.748 159.17 97.9277C159.471 98.1035 159.805 98.1914 160.172 98.1914ZM165.106 99.0703C164.97 99.0703 164.843 99.0371 164.725 98.9707C164.612 98.9004 164.52 98.8066 164.45 98.6895C164.384 98.5723 164.352 98.4453 164.356 98.3086C164.352 98.1758 164.384 98.0527 164.45 97.9395C164.52 97.8223 164.612 97.7305 164.725 97.6641C164.843 97.5938 164.97 97.5586 165.106 97.5586C165.239 97.5586 165.362 97.5938 165.475 97.6641C165.593 97.7305 165.684 97.8223 165.751 97.9395C165.821 98.0527 165.856 98.1758 165.856 98.3086C165.856 98.4453 165.821 98.5723 165.751 98.6895C165.684 98.8066 165.593 98.9004 165.475 98.9707C165.362 99.0371 165.239 99.0703 165.106 99.0703ZM170.099 99.1172C169.474 99.1172 168.939 98.9473 168.494 98.6074C168.052 98.2676 167.714 97.7715 167.48 97.1191C167.25 96.4668 167.134 95.6797 167.134 94.7578C167.134 93.8477 167.252 93.0664 167.486 92.4141C167.72 91.7578 168.06 91.2578 168.505 90.9141C168.951 90.5703 169.482 90.3984 170.099 90.3984C170.716 90.3984 171.248 90.5703 171.693 90.9141C172.138 91.2578 172.478 91.7578 172.712 92.4141C172.947 93.0664 173.064 93.8477 173.064 94.7578C173.064 95.6797 172.947 96.4668 172.712 97.1191C172.482 97.7715 172.144 98.2676 171.699 98.6074C171.254 98.9473 170.72 99.1172 170.099 99.1172ZM170.099 98.1797C170.505 98.1797 170.853 98.0469 171.142 97.7812C171.431 97.5156 171.652 97.127 171.804 96.6152C171.957 96.1035 172.033 95.4844 172.033 94.7578C172.033 94.0312 171.957 93.4102 171.804 92.8945C171.652 92.3789 171.431 91.9863 171.142 91.7168C170.853 91.4473 170.505 91.3125 170.099 91.3125C169.693 91.3125 169.343 91.4473 169.05 91.7168C168.761 91.9863 168.539 92.3789 168.382 92.8945C168.23 93.4102 168.154 94.0312 168.154 94.7578C168.154 95.4844 168.23 96.1035 168.382 96.6152C168.535 97.127 168.755 97.5156 169.045 97.7812C169.337 98.0469 169.689 98.1797 170.099 98.1797ZM177.436 99.1172C176.932 99.1172 176.473 99.0215 176.059 98.8301C175.649 98.6348 175.321 98.3672 175.075 98.0273C174.832 97.6836 174.702 97.2969 174.682 96.8672H175.702C175.729 97.1172 175.823 97.3438 175.983 97.5469C176.143 97.7461 176.35 97.9043 176.604 98.0215C176.858 98.1348 177.135 98.1914 177.436 98.1914C177.795 98.1914 178.12 98.1094 178.409 97.9453C178.698 97.7812 178.924 97.5566 179.088 97.2715C179.252 96.9863 179.334 96.668 179.334 96.3164C179.334 95.9531 179.248 95.627 179.077 95.3379C178.909 95.0449 178.674 94.8164 178.373 94.6523C178.077 94.4844 177.741 94.3984 177.366 94.3945C176.612 94.3828 176.084 94.6367 175.784 95.1562H174.764L175.362 90.5156H179.955V91.4531H176.241L175.924 93.9375H176.006C176.198 93.7891 176.43 93.6699 176.704 93.5801C176.977 93.4902 177.26 93.4453 177.553 93.4453C178.084 93.4453 178.563 93.5684 178.989 93.8145C179.418 94.0566 179.754 94.3945 179.996 94.8281C180.243 95.2617 180.366 95.75 180.366 96.293C180.366 96.832 180.239 97.3164 179.985 97.7461C179.731 98.1758 179.381 98.5117 178.936 98.7539C178.491 98.9961 177.991 99.1172 177.436 99.1172ZM182.441 99.0703C182.304 99.0703 182.177 99.0371 182.06 98.9707C181.946 98.9004 181.855 98.8066 181.784 98.6895C181.718 98.5723 181.687 98.4453 181.691 98.3086C181.687 98.1758 181.718 98.0527 181.784 97.9395C181.855 97.8223 181.946 97.7305 182.06 97.6641C182.177 97.5938 182.304 97.5586 182.441 97.5586C182.573 97.5586 182.696 97.5938 182.81 97.6641C182.927 97.7305 183.019 97.8223 183.085 97.9395C183.155 98.0527 183.191 98.1758 183.191 98.3086C183.191 98.4453 183.155 98.5723 183.085 98.6895C183.019 98.8066 182.927 98.9004 182.81 98.9707C182.696 99.0371 182.573 99.0703 182.441 99.0703ZM187.434 99.1172C186.809 99.1172 186.273 98.9473 185.828 98.6074C185.387 98.2676 185.049 97.7715 184.814 97.1191C184.584 96.4668 184.469 95.6797 184.469 94.7578C184.469 93.8477 184.586 93.0664 184.82 92.4141C185.055 91.7578 185.395 91.2578 185.84 90.9141C186.285 90.5703 186.816 90.3984 187.434 90.3984C188.051 90.3984 188.582 90.5703 189.027 90.9141C189.473 91.2578 189.812 91.7578 190.047 92.4141C190.281 93.0664 190.398 93.8477 190.398 94.7578C190.398 95.6797 190.281 96.4668 190.047 97.1191C189.816 97.7715 189.479 98.2676 189.033 98.6074C188.588 98.9473 188.055 99.1172 187.434 99.1172ZM187.434 98.1797C187.84 98.1797 188.188 98.0469 188.477 97.7812C188.766 97.5156 188.986 97.127 189.139 96.6152C189.291 96.1035 189.367 95.4844 189.367 94.7578C189.367 94.0312 189.291 93.4102 189.139 92.8945C188.986 92.3789 188.766 91.9863 188.477 91.7168C188.188 91.4473 187.84 91.3125 187.434 91.3125C187.027 91.3125 186.678 91.4473 186.385 91.7168C186.096 91.9863 185.873 92.3789 185.717 92.8945C185.564 93.4102 185.488 94.0312 185.488 94.7578C185.488 95.4844 185.564 96.1035 185.717 96.6152C185.869 97.127 186.09 97.5156 186.379 97.7812C186.672 98.0469 187.023 98.1797 187.434 98.1797ZM194.934 99.1172C194.376 99.1172 193.876 99.0234 193.434 98.8359C192.997 98.6484 192.649 98.3848 192.391 98.0449C192.137 97.7051 192.001 97.3125 191.981 96.8672H193.048C193.067 97.1289 193.161 97.3594 193.329 97.5586C193.501 97.7578 193.725 97.9121 194.003 98.0215C194.28 98.127 194.587 98.1797 194.923 98.1797C195.29 98.1797 195.62 98.1172 195.913 97.9922C196.21 97.8633 196.44 97.6875 196.604 97.4648C196.772 97.2383 196.856 96.9805 196.856 96.6914C196.856 96.3789 196.774 96.1035 196.61 95.8652C196.45 95.627 196.216 95.4414 195.907 95.3086C195.598 95.1758 195.227 95.1094 194.794 95.1094H194.102V94.1836H194.794C195.134 94.1836 195.436 94.123 195.702 94.002C195.968 93.8809 196.173 93.7109 196.317 93.4922C196.466 93.2734 196.54 93.0195 196.54 92.7305C196.54 92.4531 196.473 92.207 196.341 91.9922C196.212 91.7773 196.028 91.6113 195.79 91.4941C195.552 91.373 195.274 91.3125 194.958 91.3125C194.653 91.3125 194.368 91.3672 194.102 91.4766C193.837 91.5859 193.62 91.7422 193.452 91.9453C193.284 92.1445 193.192 92.3789 193.177 92.6484H192.157C192.177 92.2109 192.313 91.8223 192.567 91.4824C192.821 91.1387 193.159 90.873 193.581 90.6855C194.003 90.4941 194.466 90.3984 194.97 90.3984C195.493 90.3984 195.95 90.502 196.341 90.709C196.735 90.9121 197.038 91.1875 197.249 91.5352C197.46 91.8828 197.563 92.2617 197.559 92.6719C197.563 93.1484 197.436 93.5566 197.179 93.8965C196.921 94.2363 196.567 94.4688 196.118 94.5938V94.6523C196.481 94.7109 196.796 94.834 197.061 95.0215C197.331 95.2051 197.536 95.4414 197.677 95.7305C197.821 96.0156 197.891 96.3359 197.887 96.6914C197.891 97.1484 197.764 97.5625 197.507 97.9336C197.249 98.3008 196.893 98.5898 196.44 98.8008C195.991 99.0117 195.489 99.1172 194.934 99.1172ZM205.495 92.7422C205.495 93.3008 205.586 93.8516 205.77 94.3945C205.954 94.9375 206.217 95.4277 206.561 95.8652C206.905 96.2988 207.307 96.6406 207.768 96.8906L207.241 97.582C206.733 97.3086 206.293 96.9199 205.922 96.416C205.551 95.9082 205.268 95.332 205.073 94.6875C204.881 95.3711 204.6 95.9863 204.229 96.5332C203.862 97.0801 203.424 97.5078 202.916 97.8164L202.366 97.1133C202.827 96.8477 203.227 96.4824 203.567 96.0176C203.907 95.5527 204.166 95.0352 204.346 94.4648C204.53 93.8945 204.623 93.3203 204.627 92.7422V92.2266H202.647V91.4648H204.627V89.918H205.506V91.4648H207.452V92.2266H205.495V92.7422ZM211.354 99.9492H210.475V89.5312H211.354V99.9492ZM209.245 99.4102H208.377V94.4297H206.737V93.6445H208.377V89.7891H209.245V99.4102ZM221.327 91.8867C221.327 92.5586 221.32 93.123 221.304 93.5801C221.292 94.0371 221.255 94.5488 221.193 95.1152C221.13 95.6777 221.03 96.2891 220.894 96.9492L219.968 96.8672C220.175 95.9648 220.31 95.0723 220.372 94.1895L214.015 94.5352L213.886 93.7734L220.407 93.5039C220.415 93.2852 220.421 93.0684 220.425 92.8535C220.429 92.6348 220.433 92.418 220.437 92.2031V91.8867V91.3711H214.167V90.5977H221.327V91.8867ZM222.511 98.4844H213.019V97.7109H222.511V98.4844ZM226.379 90.3398C226.891 90.3438 227.344 90.4961 227.738 90.7969C228.137 91.0938 228.447 91.5156 228.67 92.0625C228.896 92.6094 229.012 93.2461 229.016 93.9727C229.012 94.6992 228.896 95.3359 228.67 95.8828C228.447 96.4297 228.137 96.8516 227.738 97.1484C227.34 97.4453 226.887 97.5938 226.379 97.5938C225.867 97.5938 225.412 97.4453 225.014 97.1484C224.615 96.8516 224.305 96.4297 224.082 95.8828C223.863 95.3359 223.754 94.6992 223.754 93.9727C223.754 93.2461 223.863 92.6094 224.082 92.0625C224.305 91.5156 224.615 91.0938 225.014 90.7969C225.412 90.4961 225.867 90.3438 226.379 90.3398ZM226.379 91.1602C226.035 91.1641 225.73 91.2832 225.465 91.5176C225.199 91.748 224.992 92.0762 224.844 92.502C224.695 92.9238 224.621 93.4141 224.621 93.9727C224.621 94.5312 224.695 95.0234 224.844 95.4492C224.992 95.8711 225.199 96.1973 225.465 96.4277C225.734 96.6582 226.039 96.7734 226.379 96.7734C226.723 96.7734 227.025 96.6582 227.287 96.4277C227.553 96.1973 227.758 95.8711 227.902 95.4492C228.051 95.0234 228.125 94.5312 228.125 93.9727C228.125 93.4141 228.051 92.9238 227.902 92.502C227.758 92.0762 227.553 91.748 227.287 91.5176C227.025 91.2832 226.723 91.1641 226.379 91.1602ZM231.652 93.6914H233.398V94.4883H231.652V99.9492H230.738V89.5312H231.652V93.6914ZM243.688 95.0859H239.341V96.2227H238.438V95.0859H234.161V94.2891H243.688V95.0859ZM239.352 97.0312C239.352 97.4023 239.514 97.7422 239.839 98.0508C240.167 98.3555 240.602 98.6074 241.145 98.8066C241.692 99.0059 242.286 99.1367 242.927 99.1992L242.634 99.9023C241.782 99.8125 241.018 99.6094 240.343 99.293C239.671 98.9805 239.184 98.5801 238.884 98.0918C238.579 98.5762 238.091 98.9766 237.419 99.293C236.751 99.6094 235.997 99.8125 235.157 99.9023L234.852 99.1992C235.481 99.1367 236.067 99.0059 236.61 98.8066C237.157 98.6035 237.595 98.3496 237.923 98.0449C238.251 97.7363 238.415 97.3984 238.415 97.0312V96.6914H239.352V97.0312ZM238.907 89.707C239.669 89.707 240.325 89.7812 240.876 89.9297C241.427 90.0781 241.848 90.2949 242.141 90.5801C242.438 90.8613 242.587 91.2031 242.587 91.6055C242.587 92.0039 242.438 92.3477 242.141 92.6367C241.848 92.9219 241.425 93.1387 240.87 93.2871C240.319 93.4355 239.665 93.5078 238.907 93.5039C238.149 93.5078 237.493 93.4355 236.938 93.2871C236.384 93.1387 235.958 92.9219 235.661 92.6367C235.364 92.3477 235.216 92.0039 235.216 91.6055C235.216 91.2031 235.364 90.8613 235.661 90.5801C235.958 90.2949 236.382 90.0781 236.932 89.9297C237.487 89.7812 238.145 89.707 238.907 89.707ZM238.907 90.4102C238.345 90.4062 237.856 90.4531 237.442 90.5508C237.028 90.6445 236.71 90.7832 236.487 90.9668C236.268 91.1465 236.161 91.3594 236.165 91.6055C236.161 91.8477 236.268 92.0586 236.487 92.2383C236.71 92.418 237.028 92.5547 237.442 92.6484C237.856 92.7422 238.345 92.7891 238.907 92.7891C239.466 92.7891 239.95 92.7422 240.36 92.6484C240.774 92.5547 241.093 92.418 241.315 92.2383C241.538 92.0586 241.649 91.8477 241.649 91.6055C241.649 91.3594 241.538 91.1465 241.315 90.9668C241.093 90.7832 240.774 90.6445 240.36 90.5508C239.95 90.4531 239.466 90.4062 238.907 90.4102Z" fill="#888882"/>
<path id="&#235;&#148;&#148;&#235;&#159;&#173;&#236;&#138;&#164; &#235;&#141;&#148;&#235;&#184;&#148; &#194;&#183; 2 &#235;&#170;&#133;" d="M29.0117 119.973H28.0859V109.531H29.0117V119.973ZM26.0586 111.301H22.0273V116.586C23.0977 116.586 23.998 116.562 24.7285 116.516C25.4629 116.469 26.2031 116.379 26.9492 116.246L27.043 117.02C26.2773 117.156 25.5215 117.25 24.7754 117.301C24.0293 117.348 23.0859 117.375 21.9453 117.383H21.1016V110.527H26.0586V111.301ZM39.6297 115.906H38.7039V112.812H36.7234V112.051H38.7039V109.543H39.6297V115.906ZM39.6297 119.973H38.7039V117.242H32.6102V116.504H39.6297V119.973ZM36.0555 113.07H32.3523V114.594C33.3094 114.594 34.1277 114.574 34.8074 114.535C35.4871 114.492 36.1922 114.41 36.9227 114.289L37.0047 115.074C36.2312 115.191 35.4871 115.27 34.7723 115.309C34.0574 115.348 33.2078 115.367 32.2234 115.367H31.4383V112.332H35.1648V110.938H31.4148V110.176H36.0555V113.07ZM46.7555 111.066C46.7555 111.633 46.9449 112.182 47.3238 112.713C47.7066 113.24 48.1969 113.689 48.7945 114.061C49.3922 114.428 49.9977 114.668 50.6109 114.781L50.1891 115.555C49.6578 115.43 49.1344 115.227 48.6187 114.945C48.1031 114.664 47.6402 114.316 47.2301 113.902C46.8199 113.488 46.5055 113.033 46.2867 112.537C46.068 113.029 45.7535 113.482 45.3434 113.896C44.9332 114.311 44.4703 114.66 43.9547 114.945C43.443 115.227 42.9195 115.43 42.3844 115.555L41.9625 114.781C42.5758 114.66 43.1793 114.418 43.773 114.055C44.3668 113.688 44.8512 113.24 45.2262 112.713C45.6051 112.186 45.7945 111.637 45.7945 111.066V110.27H46.7555V111.066ZM51.1031 118.531H41.5641V117.77H51.1031V118.531ZM60.6555 111.301H56.8V116.609C57.7922 116.609 58.6262 116.586 59.302 116.539C59.9816 116.492 60.6672 116.402 61.3586 116.27L61.4758 117.031C60.7375 117.172 60.0148 117.268 59.3078 117.318C58.6008 117.369 57.7219 117.395 56.6711 117.395H55.8742V110.527H60.6555V111.301ZM63.9953 119.973H63.0695V114.09H60.0344V113.328H63.0695V109.531H63.9953V119.973ZM68.0977 110.727H73.2539V109.719H74.168V113.152H67.1836V109.719H68.0977V110.727ZM73.2539 112.449V111.43H68.0977V112.449H73.2539ZM75.4102 114.793H65.918V114.055H75.4102V114.793ZM74.1914 118.062H68.0039V119.105H74.5078V119.832H67.0898V117.383H73.2891V116.457H67.0664V115.754H74.1914V118.062ZM80.8023 116.047C80.6656 116.047 80.5387 116.014 80.4215 115.947C80.3082 115.877 80.2164 115.783 80.1461 115.666C80.0797 115.549 80.0484 115.422 80.0523 115.285C80.0484 115.152 80.0797 115.029 80.1461 114.916C80.2164 114.799 80.3082 114.707 80.4215 114.641C80.5387 114.57 80.6656 114.535 80.8023 114.535C80.9352 114.535 81.0582 114.57 81.1715 114.641C81.2887 114.707 81.3805 114.799 81.4469 114.916C81.5172 115.029 81.5523 115.152 81.5523 115.285C81.5523 115.422 81.5172 115.549 81.4469 115.666C81.3805 115.783 81.2887 115.877 81.1715 115.947C81.0582 116.014 80.9352 116.047 80.8023 116.047ZM86.5227 118.227L89.4172 115.18C89.8 114.777 90.091 114.453 90.2902 114.207C90.4934 113.957 90.6457 113.717 90.7473 113.486C90.8527 113.252 90.9055 113.008 90.9055 112.754C90.9055 112.473 90.8313 112.223 90.6828 112.004C90.5344 111.785 90.3313 111.615 90.0734 111.494C89.8195 111.373 89.5344 111.312 89.218 111.312C88.8859 111.312 88.5949 111.379 88.3449 111.512C88.0949 111.645 87.9016 111.832 87.7648 112.074C87.632 112.316 87.5656 112.594 87.5656 112.906H86.5695C86.5656 112.414 86.6789 111.979 86.9094 111.6C87.1438 111.221 87.466 110.926 87.8762 110.715C88.2863 110.504 88.7453 110.398 89.2531 110.398C89.757 110.398 90.2082 110.502 90.6066 110.709C91.009 110.916 91.3234 111.199 91.55 111.559C91.7766 111.918 91.8898 112.316 91.8898 112.754C91.8898 113.078 91.8313 113.389 91.7141 113.686C91.5969 113.979 91.3996 114.305 91.1223 114.664C90.8488 115.02 90.4563 115.461 89.9445 115.988L87.9992 117.992V118.062H92.0422V119H86.5344L86.5227 118.227ZM105.251 115.707H104.325V114.066H101.887V114.957H97.1062V110.328H101.887V111.23H104.325V109.531H105.251V115.707ZM98.0203 114.207H100.985V111.078H98.0203V114.207ZM101.794 116.012C102.516 116.012 103.139 116.09 103.663 116.246C104.186 116.398 104.587 116.623 104.864 116.92C105.145 117.213 105.286 117.566 105.286 117.98C105.286 118.391 105.145 118.74 104.864 119.029C104.587 119.322 104.186 119.545 103.663 119.697C103.139 119.85 102.516 119.926 101.794 119.926C101.071 119.926 100.448 119.85 99.9246 119.697C99.4012 119.545 98.9988 119.322 98.7176 119.029C98.4402 118.74 98.3016 118.391 98.3016 117.98C98.3016 117.566 98.4402 117.213 98.7176 116.92C98.9988 116.623 99.4012 116.398 99.9246 116.246C100.448 116.09 101.071 116.012 101.794 116.012ZM101.794 116.727C101.262 116.73 100.802 116.783 100.411 116.885C100.024 116.982 99.7273 117.125 99.5203 117.312C99.3133 117.5 99.2117 117.723 99.2156 117.98C99.2117 118.227 99.3133 118.441 99.5203 118.625C99.7312 118.809 100.03 118.949 100.417 119.047C100.807 119.148 101.266 119.199 101.794 119.199C102.321 119.199 102.778 119.148 103.165 119.047C103.552 118.949 103.848 118.811 104.055 118.631C104.266 118.447 104.372 118.23 104.372 117.98C104.372 117.723 104.268 117.5 104.061 117.312C103.854 117.125 103.557 116.982 103.171 116.885C102.784 116.783 102.325 116.73 101.794 116.727ZM104.325 113.293V111.992H101.887V113.293H104.325Z" fill="#888882"/>
</g>
<line id="Line 6" x1="20" y1="127.5" x2="325" y2="127.5" stroke="#888882"/>
<g id="3">
<g id="Frame 108">
<path id="&#226;&#130;&#169;240,000" d="M21.9844 147.047H20.2969V145.625H21.6328L20.4062 140.688H22.3281L23.4297 145.625H25.1875L26.375 140.688H28.2344L29.4219 145.625H31.1953L32.2969 140.688H34.2031L32.9766 145.625H34.3125V147.047H32.625L31.3906 152H29.3906L28.1719 147.047H26.4375L25.2188 152H23.2188L21.9844 147.047ZM24.2188 149.188H24.3281L24.8438 147.047H23.7422L24.2188 149.188ZM27.8281 145.625L27.3438 143.656H27.2656L26.7812 145.625H27.8281ZM30.2812 149.203H30.3906L30.875 147.047H29.7656L30.2812 149.203ZM35.2469 150.531L39.2469 146.672C39.6792 146.24 40.0125 145.885 40.2469 145.609C40.4865 145.328 40.6687 145.052 40.7937 144.781C40.9187 144.505 40.9812 144.214 40.9812 143.906C40.9812 143.562 40.8979 143.26 40.7312 143C40.5646 142.74 40.3328 142.539 40.0359 142.398C39.7443 142.258 39.4135 142.188 39.0437 142.188C38.6583 142.188 38.3198 142.266 38.0281 142.422C37.7417 142.573 37.5203 142.792 37.3641 143.078C37.2078 143.359 37.1323 143.688 37.1375 144.062H35.2C35.1948 143.359 35.3562 142.742 35.6844 142.211C36.0125 141.674 36.4682 141.26 37.0516 140.969C37.6401 140.677 38.3094 140.531 39.0594 140.531C39.8198 140.531 40.4917 140.672 41.075 140.953C41.6635 141.234 42.1193 141.625 42.4422 142.125C42.7703 142.62 42.9344 143.182 42.9344 143.812C42.9344 144.25 42.8484 144.672 42.6766 145.078C42.5099 145.484 42.2234 145.935 41.8172 146.43C41.4109 146.919 40.8354 147.516 40.0906 148.219L38.075 150.219V150.297H43.1062V152H35.2469V150.531ZM44.1344 148.266L49.025 140.688H51.5562V148.219H53.0406V149.891H51.5562V152H49.6187V149.891H44.1344V148.266ZM49.65 148.219V143H49.525L46.2125 148.141V148.219H49.65ZM58.5375 152.156C57.6312 152.156 56.8526 151.93 56.2016 151.477C55.5557 151.018 55.0583 150.354 54.7094 149.484C54.3656 148.615 54.1937 147.568 54.1937 146.344C54.1937 145.125 54.3656 144.081 54.7094 143.211C55.0583 142.336 55.5583 141.672 56.2094 141.219C56.8604 140.76 57.6365 140.531 58.5375 140.531C59.4333 140.531 60.2068 140.76 60.8578 141.219C61.5141 141.672 62.0141 142.336 62.3578 143.211C62.7068 144.081 62.8812 145.125 62.8812 146.344C62.8812 147.568 62.7068 148.615 62.3578 149.484C62.0141 150.354 61.5167 151.018 60.8656 151.477C60.2198 151.93 59.4437 152.156 58.5375 152.156ZM58.5375 150.453C59.0167 150.453 59.4255 150.299 59.7641 149.992C60.1078 149.68 60.3708 149.219 60.5531 148.609C60.7406 147.995 60.8344 147.24 60.8344 146.344C60.8344 145.458 60.7406 144.708 60.5531 144.094C60.3708 143.474 60.1078 143.008 59.7641 142.695C59.4203 142.378 59.0115 142.219 58.5375 142.219C58.0635 142.219 57.6547 142.378 57.3109 142.695C56.9672 143.008 56.7016 143.474 56.5141 144.094C56.3318 144.708 56.2406 145.458 56.2406 146.344C56.2406 147.24 56.3318 147.995 56.5141 148.609C56.7016 149.219 56.9646 149.68 57.3031 149.992C57.6469 150.299 58.0583 150.453 58.5375 150.453ZM64.8 155.266H63.3156L64.1281 150.891H66.1125L64.8 155.266ZM71.6875 152.156C70.7812 152.156 70.0026 151.93 69.3516 151.477C68.7057 151.018 68.2083 150.354 67.8594 149.484C67.5156 148.615 67.3438 147.568 67.3438 146.344C67.3438 145.125 67.5156 144.081 67.8594 143.211C68.2083 142.336 68.7083 141.672 69.3594 141.219C70.0104 140.76 70.7865 140.531 71.6875 140.531C72.5833 140.531 73.3568 140.76 74.0078 141.219C74.6641 141.672 75.1641 142.336 75.5078 143.211C75.8568 144.081 76.0312 145.125 76.0312 146.344C76.0312 147.568 75.8568 148.615 75.5078 149.484C75.1641 150.354 74.6667 151.018 74.0156 151.477C73.3698 151.93 72.5938 152.156 71.6875 152.156ZM71.6875 150.453C72.1667 150.453 72.5755 150.299 72.9141 149.992C73.2578 149.68 73.5208 149.219 73.7031 148.609C73.8906 147.995 73.9844 147.24 73.9844 146.344C73.9844 145.458 73.8906 144.708 73.7031 144.094C73.5208 143.474 73.2578 143.008 72.9141 142.695C72.5703 142.378 72.1615 142.219 71.6875 142.219C71.2135 142.219 70.8047 142.378 70.4609 142.695C70.1172 143.008 69.8516 143.474 69.6641 144.094C69.4818 144.708 69.3906 145.458 69.3906 146.344C69.3906 147.24 69.4818 147.995 69.6641 148.609C69.8516 149.219 70.1146 149.68 70.4531 149.992C70.7969 150.299 71.2083 150.453 71.6875 150.453ZM81.6063 152.156C80.7 152.156 79.9214 151.93 79.2703 151.477C78.6245 151.018 78.1271 150.354 77.7781 149.484C77.4344 148.615 77.2625 147.568 77.2625 146.344C77.2625 145.125 77.4344 144.081 77.7781 143.211C78.1271 142.336 78.6271 141.672 79.2781 141.219C79.9292 140.76 80.7052 140.531 81.6063 140.531C82.5021 140.531 83.2755 140.76 83.9266 141.219C84.5828 141.672 85.0828 142.336 85.4266 143.211C85.7755 144.081 85.95 145.125 85.95 146.344C85.95 147.568 85.7755 148.615 85.4266 149.484C85.0828 150.354 84.5854 151.018 83.9344 151.477C83.2885 151.93 82.5125 152.156 81.6063 152.156ZM81.6063 150.453C82.0854 150.453 82.4943 150.299 82.8328 149.992C83.1766 149.68 83.4396 149.219 83.6219 148.609C83.8094 147.995 83.9031 147.24 83.9031 146.344C83.9031 145.458 83.8094 144.708 83.6219 144.094C83.4396 143.474 83.1766 143.008 82.8328 142.695C82.4891 142.378 82.0802 142.219 81.6063 142.219C81.1323 142.219 80.7234 142.378 80.3797 142.695C80.0359 143.008 79.7703 143.474 79.5828 144.094C79.4005 144.708 79.3094 145.458 79.3094 146.344C79.3094 147.24 79.4005 147.995 79.5828 148.609C79.7703 149.219 80.0333 149.68 80.3719 149.992C80.7156 150.299 81.1271 150.453 81.6063 150.453ZM91.525 152.156C90.6188 152.156 89.8401 151.93 89.1891 151.477C88.5432 151.018 88.0458 150.354 87.6969 149.484C87.3531 148.615 87.1813 147.568 87.1813 146.344C87.1813 145.125 87.3531 144.081 87.6969 143.211C88.0458 142.336 88.5458 141.672 89.1969 141.219C89.8479 140.76 90.624 140.531 91.525 140.531C92.4208 140.531 93.1943 140.76 93.8453 141.219C94.5016 141.672 95.0016 142.336 95.3453 143.211C95.6943 144.081 95.8688 145.125 95.8688 146.344C95.8688 147.568 95.6943 148.615 95.3453 149.484C95.0016 150.354 94.5042 151.018 93.8531 151.477C93.2073 151.93 92.4313 152.156 91.525 152.156ZM91.525 150.453C92.0042 150.453 92.413 150.299 92.7516 149.992C93.0953 149.68 93.3583 149.219 93.5406 148.609C93.7281 147.995 93.8219 147.24 93.8219 146.344C93.8219 145.458 93.7281 144.708 93.5406 144.094C93.3583 143.474 93.0953 143.008 92.7516 142.695C92.4078 142.378 91.999 142.219 91.525 142.219C91.051 142.219 90.6422 142.378 90.2984 142.695C89.9547 143.008 89.6891 143.474 89.5016 144.094C89.3193 144.708 89.2281 145.458 89.2281 146.344C89.2281 147.24 89.3193 147.995 89.5016 148.609C89.6891 149.219 89.9521 149.68 90.2906 149.992C90.6344 150.299 91.0458 150.453 91.525 150.453Z" fill="#4A7C59"/>
<path id="&#236;&#152;&#136;&#236;&#149;&#189;&#235;&#178;&#136;&#237;&#152;&#184;: HT98765432" d="M28.6367 173.913H27.6592V164.288H28.6367V173.913ZM26.7031 173.44H25.7363V170.336H24.3398C24.168 170.819 23.9263 171.192 23.6147 171.453C23.3032 171.715 22.9434 171.843 22.5352 171.84C22.1198 171.843 21.7546 171.707 21.4395 171.432C21.1279 171.156 20.8862 170.762 20.7144 170.25C20.5461 169.734 20.4619 169.133 20.4619 168.445C20.4619 167.758 20.5461 167.158 20.7144 166.646C20.8862 166.134 21.1279 165.742 21.4395 165.47C21.7546 165.194 22.1198 165.058 22.5352 165.062C22.9434 165.058 23.3014 165.187 23.6094 165.448C23.9209 165.706 24.1644 166.075 24.3398 166.555H25.7363V164.471H26.7031V173.44ZM22.5352 166.018C22.2988 166.018 22.0947 166.114 21.9229 166.308C21.7546 166.497 21.6239 166.775 21.5308 167.14C21.4412 167.502 21.3965 167.937 21.3965 168.445C21.3965 168.954 21.4412 169.391 21.5308 169.756C21.6239 170.118 21.7546 170.395 21.9229 170.588C22.0947 170.778 22.2988 170.873 22.5352 170.873C22.7715 170.873 22.9756 170.778 23.1475 170.588C23.3229 170.395 23.4572 170.116 23.5503 169.75C23.647 169.385 23.6953 168.95 23.6953 168.445C23.6953 167.94 23.647 167.505 23.5503 167.14C23.4572 166.775 23.3229 166.497 23.1475 166.308C22.9756 166.114 22.7715 166.018 22.5352 166.018ZM24.5493 167.382C24.603 167.708 24.6299 168.062 24.6299 168.445C24.6299 168.825 24.603 169.176 24.5493 169.498H25.7363V167.382H24.5493ZM38.9881 166.533H37.6238V167.758H38.9881V168.617H37.6238V169.992H36.6033V164.288H37.6238V165.695H38.9881V166.533ZM37.6238 173.913H36.6033V171.249H31.2645V170.422H37.6238V173.913ZM32.7684 164.847C33.2553 164.847 33.6922 164.945 34.0789 165.142C34.4692 165.335 34.7754 165.608 34.9974 165.958C35.2194 166.306 35.3322 166.701 35.3357 167.146C35.3322 167.59 35.2194 167.987 34.9974 168.338C34.7754 168.685 34.4692 168.957 34.0789 169.154C33.6922 169.348 33.2553 169.444 32.7684 169.444C32.2814 169.444 31.8427 169.348 31.4524 169.154C31.0621 168.957 30.756 168.685 30.534 168.338C30.3156 167.987 30.2081 167.59 30.2117 167.146C30.2081 166.701 30.3156 166.306 30.534 165.958C30.756 165.608 31.0621 165.335 31.4524 165.142C31.8427 164.945 32.2814 164.847 32.7684 164.847ZM32.7684 165.717C32.4676 165.717 32.199 165.778 31.9627 165.899C31.7264 166.018 31.5402 166.184 31.4041 166.399C31.2716 166.614 31.2072 166.863 31.2107 167.146C31.2072 167.432 31.2716 167.684 31.4041 167.903C31.5402 168.118 31.7264 168.284 31.9627 168.402C32.199 168.521 32.4676 168.578 32.7684 168.574C33.0691 168.578 33.3377 168.521 33.574 168.402C33.8139 168.284 34.0001 168.118 34.1326 167.903C34.2687 167.684 34.3367 167.432 34.3367 167.146C34.3367 166.863 34.2687 166.614 34.1326 166.399C34.0001 166.181 33.8139 166.012 33.574 165.894C33.3377 165.776 33.0691 165.717 32.7684 165.717ZM47.7926 171.41H46.7721V167.779H44.6666V169.81H40.2301V164.933H41.2506V166.565H43.6568V164.933H44.6666V166.952H46.7721V164.299H47.7926V171.41ZM48.0074 173.709H41.5084V170.712H42.5396V172.882H48.0074V173.709ZM43.6568 168.982V167.35H41.2506V168.982H43.6568ZM57.8109 166.469H49.8939V165.642H53.3529V164.428H54.3627V165.642H57.8109V166.469ZM58.2836 172.828H49.475V172.001H53.3529V170.728C52.7908 170.692 52.3074 170.597 51.9027 170.443C51.4981 170.286 51.1866 170.076 50.9682 169.815C50.7533 169.55 50.6459 169.24 50.6459 168.886C50.6459 168.503 50.7748 168.173 51.0326 167.897C51.2904 167.622 51.661 167.412 52.1444 167.269C52.6278 167.122 53.199 167.049 53.8578 167.049C54.5131 167.049 55.0806 167.122 55.5604 167.269C56.0403 167.412 56.4091 167.622 56.6669 167.897C56.9283 168.173 57.059 168.503 57.059 168.886C57.059 169.237 56.9498 169.545 56.7313 169.81C56.5165 170.075 56.2068 170.286 55.8021 170.443C55.3975 170.597 54.9177 170.692 54.3627 170.728V172.001H58.2836V172.828ZM53.8578 167.854C53.1667 167.854 52.6314 167.944 52.2519 168.123C51.8723 168.302 51.6843 168.556 51.6879 168.886C51.6843 169.215 51.8705 169.469 52.2465 169.648C52.626 169.827 53.1632 169.921 53.8578 169.928C54.5417 169.921 55.0717 169.827 55.4477 169.648C55.8272 169.469 56.017 169.215 56.017 168.886C56.017 168.556 55.8272 168.302 55.4477 168.123C55.0681 167.944 54.5382 167.854 53.8578 167.854ZM60.2775 172.001C60.1415 172.001 60.0126 171.967 59.8908 171.899C59.7727 171.831 59.6796 171.738 59.6115 171.62C59.5435 171.501 59.5113 171.374 59.5148 171.238C59.5113 171.102 59.5435 170.975 59.6115 170.857C59.6796 170.739 59.7727 170.646 59.8908 170.578C60.0126 170.51 60.1415 170.476 60.2775 170.476C60.41 170.476 60.5354 170.51 60.6535 170.578C60.7717 170.646 60.8648 170.739 60.9328 170.857C61.0044 170.975 61.0402 171.102 61.0402 171.238C61.0402 171.374 61.0044 171.501 60.9328 171.62C60.8648 171.738 60.7717 171.831 60.6535 171.899C60.5354 171.967 60.41 172.001 60.2775 172.001ZM60.2775 167.758C60.1415 167.758 60.0126 167.724 59.8908 167.656C59.7727 167.588 59.6796 167.495 59.6115 167.376C59.5435 167.258 59.5113 167.131 59.5148 166.995C59.5113 166.859 59.5435 166.732 59.6115 166.614C59.6796 166.496 59.7727 166.403 59.8908 166.334C60.0126 166.266 60.1415 166.232 60.2775 166.232C60.41 166.232 60.5354 166.266 60.6535 166.334C60.7717 166.403 60.8648 166.496 60.9328 166.614C61.0044 166.732 61.0402 166.859 61.0402 166.995C61.0402 167.131 61.0044 167.258 60.9328 167.376C60.8648 167.495 60.7717 167.588 60.6535 167.656C60.5354 167.724 60.41 167.758 60.2775 167.758ZM65.6082 165.223H66.7898V168.596H70.657V165.223H71.8387V173H70.657V169.605H66.7898V173H65.6082V165.223ZM73.2418 165.223H79.2682V166.243H76.8512V173H75.6695V166.243H73.2418V165.223ZM83.2172 165.115C83.74 165.115 84.2216 165.233 84.662 165.47C85.106 165.702 85.4677 166.096 85.747 166.651C86.0298 167.203 86.1713 167.93 86.1713 168.832C86.1713 169.731 86.0478 170.501 85.8007 171.142C85.5572 171.783 85.2063 172.271 84.7479 172.608C84.2932 172.941 83.7543 173.107 83.1312 173.107C82.6622 173.107 82.2396 173.018 81.8637 172.839C81.4913 172.656 81.1869 172.404 80.9506 172.082C80.7178 171.756 80.571 171.382 80.5102 170.959H81.6811C81.7634 171.299 81.9299 171.571 82.1806 171.775C82.4348 171.976 82.7517 172.076 83.1312 172.076C83.5287 172.076 83.8689 171.965 84.1518 171.743C84.4382 171.518 84.6566 171.194 84.807 170.771C84.961 170.345 85.0398 169.838 85.0434 169.251H84.9467C84.7354 169.58 84.4543 169.838 84.1034 170.024C83.7561 170.211 83.3747 170.304 82.9594 170.304C82.4975 170.304 82.0749 170.194 81.6918 169.976C81.3087 169.758 81.0043 169.453 80.7787 169.063C80.5567 168.673 80.4457 168.234 80.4457 167.747C80.4457 167.257 80.5603 166.811 80.7895 166.41C81.0222 166.009 81.348 165.694 81.767 165.464C82.1895 165.232 82.6729 165.115 83.2172 165.115ZM83.2387 166.104C82.9307 166.104 82.6514 166.177 82.4008 166.324C82.1501 166.467 81.9532 166.664 81.81 166.915C81.6667 167.162 81.5951 167.432 81.5951 167.726C81.5951 168.023 81.6649 168.295 81.8046 168.542C81.9442 168.789 82.1376 168.984 82.3847 169.127C82.6317 169.267 82.9092 169.337 83.2172 169.337C83.5215 169.337 83.8008 169.262 84.0551 169.111C84.3093 168.961 84.5098 168.762 84.6566 168.515C84.807 168.264 84.8822 167.998 84.8822 167.715C84.8822 167.436 84.8106 167.172 84.6674 166.925C84.5277 166.678 84.3308 166.479 84.0766 166.329C83.8259 166.179 83.5466 166.104 83.2387 166.104ZM90.3352 173.107C89.7801 173.107 89.2842 173.014 88.8474 172.828C88.4141 172.642 88.0757 172.384 87.8322 172.055C87.5923 171.722 87.4742 171.346 87.4777 170.927C87.4742 170.601 87.544 170.298 87.6872 170.019C87.8304 169.736 88.0256 169.503 88.2727 169.321C88.5233 169.135 88.799 169.018 89.0998 168.972V168.929C88.8384 168.868 88.6057 168.755 88.4016 168.59C88.201 168.422 88.0453 168.216 87.9343 167.973C87.8233 167.729 87.7678 167.468 87.7678 167.188C87.7678 166.795 87.8788 166.44 88.1008 166.125C88.3228 165.81 88.6289 165.563 89.0192 165.384C89.4095 165.205 89.8482 165.115 90.3352 165.115C90.8186 165.115 91.2536 165.205 91.6403 165.384C92.0306 165.563 92.335 165.81 92.5534 166.125C92.7754 166.44 92.8882 166.795 92.8918 167.188C92.8882 167.468 92.8291 167.729 92.7146 167.973C92.6036 168.216 92.4478 168.422 92.2473 168.59C92.0467 168.755 91.8176 168.868 91.5598 168.929V168.972C91.857 169.018 92.1291 169.135 92.3762 169.321C92.6268 169.503 92.8238 169.736 92.967 170.019C93.1138 170.298 93.189 170.601 93.1926 170.927C93.189 171.346 93.0655 171.722 92.822 172.055C92.5785 172.384 92.2401 172.642 91.8068 172.828C91.3736 173.014 90.883 173.107 90.3352 173.107ZM90.3352 172.13C90.6682 172.13 90.9582 172.076 91.2053 171.969C91.4559 171.861 91.6493 171.711 91.7854 171.518C91.9214 171.321 91.9895 171.095 91.9895 170.841C91.9895 170.576 91.9178 170.338 91.7746 170.126C91.6314 169.915 91.4344 169.75 91.1838 169.632C90.9331 169.514 90.6503 169.455 90.3352 169.455C90.0165 169.455 89.73 169.514 89.4758 169.632C89.2216 169.75 89.0228 169.915 88.8796 170.126C88.7399 170.338 88.6737 170.576 88.6809 170.841C88.6737 171.095 88.7364 171.319 88.8689 171.512C89.0013 171.706 89.1929 171.858 89.4436 171.969C89.6978 172.076 89.995 172.13 90.3352 172.13ZM90.3352 168.521C90.6037 168.521 90.8436 168.47 91.0549 168.37C91.2697 168.266 91.4362 168.121 91.5544 167.935C91.6726 167.749 91.7316 167.536 91.7316 167.296C91.7316 167.06 91.6726 166.85 91.5544 166.667C91.4362 166.481 91.2715 166.338 91.0603 166.238C90.849 166.134 90.6073 166.082 90.3352 166.082C90.0523 166.082 89.8034 166.132 89.5886 166.232C89.3737 166.333 89.2072 166.476 89.0891 166.662C88.9745 166.845 88.9172 167.056 88.9172 167.296C88.9172 167.536 88.9781 167.749 89.0998 167.935C89.2216 168.121 89.3898 168.266 89.6047 168.37C89.8195 168.47 90.063 168.521 90.3352 168.521ZM98.3555 166.297V166.232H94.3486V165.223H99.5801V166.275L96.1211 173H94.8857L98.3555 166.297ZM103.637 173.107C103.107 173.107 102.62 172.991 102.176 172.758C101.735 172.522 101.373 172.126 101.091 171.571C100.811 171.016 100.672 170.282 100.672 169.369C100.672 168.478 100.793 167.713 101.037 167.076C101.284 166.435 101.635 165.948 102.09 165.615C102.548 165.282 103.089 165.115 103.712 165.115C104.177 165.115 104.596 165.207 104.969 165.389C105.345 165.568 105.649 165.819 105.882 166.141C106.114 166.463 106.261 166.83 106.322 167.242H105.151C105.072 166.913 104.908 166.648 104.657 166.447C104.406 166.247 104.091 166.146 103.712 166.146C103.314 166.146 102.972 166.259 102.686 166.485C102.403 166.707 102.186 167.029 102.036 167.452C101.886 167.871 101.81 168.37 101.81 168.95H101.896C102.108 168.621 102.387 168.363 102.734 168.177C103.085 167.991 103.472 167.897 103.894 167.897C104.353 167.897 104.773 168.008 105.157 168.23C105.54 168.449 105.842 168.753 106.064 169.144C106.286 169.53 106.397 169.967 106.397 170.454C106.397 170.952 106.283 171.403 106.054 171.808C105.824 172.209 105.5 172.526 105.081 172.758C104.662 172.991 104.181 173.107 103.637 173.107ZM103.604 172.119C103.912 172.119 104.192 172.046 104.442 171.899C104.693 171.752 104.89 171.553 105.033 171.303C105.176 171.052 105.248 170.776 105.248 170.476C105.248 170.182 105.178 169.912 105.038 169.665C104.899 169.417 104.705 169.222 104.458 169.079C104.215 168.936 103.941 168.864 103.637 168.864C103.325 168.864 103.04 168.939 102.783 169.09C102.528 169.237 102.326 169.435 102.176 169.686C102.029 169.933 101.954 170.2 101.95 170.486C101.954 170.773 102.027 171.041 102.17 171.292C102.313 171.543 102.51 171.743 102.761 171.894C103.015 172.044 103.296 172.119 103.604 172.119ZM110.497 173.107C110.013 173.107 109.575 173.016 109.181 172.833C108.787 172.647 108.474 172.393 108.241 172.071C108.008 171.745 107.883 171.378 107.865 170.97H109.014C109.036 171.188 109.115 171.385 109.251 171.561C109.387 171.736 109.564 171.874 109.782 171.974C110.001 172.071 110.239 172.119 110.497 172.119C110.808 172.119 111.086 172.049 111.329 171.91C111.576 171.77 111.77 171.578 111.909 171.335C112.049 171.088 112.119 170.812 112.119 170.508C112.119 170.196 112.047 169.917 111.904 169.67C111.761 169.419 111.562 169.224 111.308 169.084C111.053 168.941 110.765 168.868 110.443 168.864C109.788 168.864 109.333 169.093 109.079 169.552H107.962L108.466 165.223H112.871V166.232H109.444L109.186 168.413H109.261C109.426 168.256 109.637 168.128 109.895 168.032C110.157 167.935 110.432 167.887 110.722 167.887C111.202 167.887 111.635 167.998 112.022 168.22C112.412 168.442 112.717 168.75 112.935 169.144C113.157 169.537 113.268 169.981 113.268 170.476C113.268 170.98 113.15 171.433 112.914 171.834C112.677 172.236 112.348 172.549 111.925 172.774C111.506 172.996 111.03 173.107 110.497 173.107ZM114.553 170.529L117.991 165.223H119.452V170.486H120.515V171.485H119.452V173H118.334V171.485H114.553V170.529ZM118.334 170.486V166.63H118.248L115.799 170.422V170.486H118.334ZM124.668 173.107C124.138 173.107 123.662 173.018 123.239 172.839C122.821 172.66 122.489 172.409 122.246 172.087C122.006 171.761 121.879 171.389 121.864 170.97H123.068C123.082 171.195 123.159 171.392 123.299 171.561C123.442 171.729 123.632 171.86 123.868 171.953C124.104 172.042 124.367 172.087 124.657 172.087C124.965 172.087 125.243 172.033 125.49 171.926C125.737 171.818 125.93 171.67 126.07 171.48C126.21 171.287 126.279 171.066 126.279 170.819C126.279 170.565 126.21 170.338 126.07 170.137C125.93 169.937 125.728 169.781 125.463 169.67C125.202 169.555 124.89 169.498 124.529 169.498H123.863V168.531H124.529C124.819 168.531 125.078 168.479 125.307 168.375C125.536 168.272 125.714 168.127 125.839 167.94C125.968 167.754 126.032 167.539 126.032 167.296C126.032 167.06 125.977 166.852 125.866 166.673C125.755 166.494 125.597 166.354 125.393 166.254C125.189 166.154 124.951 166.104 124.679 166.104C124.414 166.104 124.169 166.15 123.943 166.243C123.717 166.336 123.535 166.469 123.395 166.641C123.259 166.812 123.186 167.013 123.175 167.242H122.036C122.047 166.83 122.171 166.463 122.407 166.141C122.647 165.815 122.967 165.563 123.368 165.384C123.769 165.205 124.21 165.115 124.69 165.115C125.184 165.115 125.619 165.21 125.995 165.4C126.374 165.59 126.666 165.847 126.87 166.173C127.074 166.496 127.175 166.848 127.171 167.231C127.175 167.668 127.051 168.041 126.8 168.349C126.553 168.653 126.219 168.857 125.796 168.961V169.015C126.322 169.09 126.732 169.292 127.026 169.622C127.323 169.951 127.472 170.365 127.472 170.862C127.472 171.288 127.35 171.673 127.107 172.017C126.863 172.357 126.528 172.624 126.102 172.817C125.676 173.011 125.198 173.107 124.668 173.107ZM128.972 172.141L131.668 169.423C131.994 169.079 132.243 168.803 132.415 168.596C132.586 168.388 132.717 168.186 132.807 167.989C132.9 167.788 132.946 167.579 132.946 167.36C132.946 167.11 132.884 166.889 132.758 166.7C132.633 166.51 132.461 166.363 132.243 166.259C132.024 166.155 131.779 166.104 131.507 166.104C131.224 166.104 130.975 166.161 130.76 166.275C130.545 166.39 130.379 166.551 130.261 166.759C130.146 166.966 130.089 167.206 130.089 167.479H128.972C128.968 167.013 129.076 166.601 129.294 166.243C129.512 165.885 129.817 165.608 130.207 165.411C130.597 165.214 131.038 165.115 131.528 165.115C132.022 165.115 132.461 165.212 132.844 165.405C133.231 165.595 133.532 165.858 133.747 166.195C133.961 166.531 134.071 166.909 134.074 167.328C134.071 167.625 134.013 167.912 133.902 168.188C133.791 168.46 133.602 168.764 133.333 169.101C133.064 169.434 132.685 169.842 132.194 170.325L130.615 171.926V171.99H134.203V173H128.972V172.141Z" fill="#888882"/>
</g>
<g id="Frame 109">
<g id="BookedByBadge(AI)">
<path d="M265 146.5C265 139.873 270.373 134.5 277 134.5H313C319.627 134.5 325 139.873 325 146.5V146.5C325 153.127 319.627 158.5 313 158.5H277C270.373 158.5 265 153.127 265 146.5V146.5Z" fill="#EAF4F1"/>
<path id="AI &#236;&#152;&#136;&#236;&#149;&#189;" d="M277.211 151L280.316 142.516H281.43L284.535 151H283.422L282.572 148.609H279.162L278.312 151H277.211ZM282.25 147.684L280.902 143.887H280.832L279.484 147.684H282.25ZM286.938 151H285.884V142.516H286.938V151ZM300.639 151.949H299.748V141.531H300.639V151.949ZM298.565 151.422H297.686V148H296.022C295.838 148.523 295.579 148.93 295.243 149.219C294.907 149.508 294.518 149.652 294.077 149.652C293.627 149.652 293.233 149.506 292.893 149.213C292.557 148.916 292.297 148.494 292.114 147.947C291.93 147.4 291.838 146.762 291.838 146.031C291.838 145.301 291.93 144.662 292.114 144.115C292.297 143.568 292.557 143.148 292.893 142.855C293.233 142.559 293.627 142.41 294.077 142.41C294.518 142.41 294.907 142.555 295.243 142.844C295.579 143.133 295.838 143.539 296.022 144.062H297.686V141.754H298.565V151.422ZM294.077 143.277C293.795 143.277 293.549 143.389 293.338 143.611C293.131 143.834 292.971 144.152 292.858 144.566C292.748 144.98 292.694 145.469 292.694 146.031C292.694 146.59 292.748 147.076 292.858 147.49C292.971 147.904 293.131 148.223 293.338 148.445C293.549 148.668 293.795 148.777 294.077 148.773C294.354 148.777 294.598 148.668 294.809 148.445C295.02 148.223 295.182 147.904 295.295 147.49C295.413 147.076 295.471 146.59 295.471 146.031C295.471 145.473 295.413 144.986 295.295 144.572C295.182 144.154 295.02 143.834 294.809 143.611C294.602 143.389 294.358 143.277 294.077 143.277ZM296.221 144.824C296.291 145.191 296.327 145.594 296.327 146.031C296.327 146.453 296.293 146.852 296.227 147.227H297.686V144.824H296.221ZM311.972 143.898H310.425V145.363H311.972V146.148H310.425V147.73H309.511V141.531H310.425V143.148H311.972V143.898ZM310.425 151.949H309.511V148.973H303.605V148.211H310.425V151.949ZM305.21 142.164C305.73 142.16 306.196 142.262 306.611 142.469C307.029 142.676 307.355 142.967 307.589 143.342C307.827 143.717 307.948 144.141 307.952 144.613C307.948 145.094 307.827 145.521 307.589 145.896C307.355 146.271 307.03 146.564 306.616 146.775C306.202 146.982 305.734 147.086 305.21 147.086C304.687 147.086 304.216 146.982 303.798 146.775C303.384 146.564 303.06 146.271 302.825 145.896C302.591 145.521 302.476 145.094 302.48 144.613C302.476 144.141 302.591 143.719 302.825 143.348C303.06 142.973 303.384 142.682 303.798 142.475C304.216 142.264 304.687 142.16 305.21 142.164ZM305.21 142.949C304.862 142.949 304.548 143.02 304.267 143.16C303.989 143.301 303.771 143.498 303.611 143.752C303.454 144.002 303.378 144.289 303.382 144.613C303.378 144.941 303.454 145.234 303.611 145.492C303.771 145.746 303.989 145.943 304.267 146.084C304.548 146.225 304.862 146.293 305.21 146.289C305.562 146.293 305.876 146.225 306.154 146.084C306.435 145.943 306.654 145.746 306.81 145.492C306.97 145.234 307.05 144.941 307.05 144.613C307.05 144.289 306.97 144.002 306.81 143.752C306.654 143.498 306.435 143.301 306.154 143.16C305.876 143.02 305.562 142.949 305.21 142.949Z" fill="#7EB8A4"/>
</g>
<path id="&#236;&#152;&#136;&#236;&#149;&#189;&#236;&#157;&#188; 2026.04.03" d="M240.637 175.413H239.659V165.788H240.637V175.413ZM238.703 174.94H237.736V171.836H236.34C236.168 172.319 235.926 172.692 235.615 172.953C235.303 173.215 234.943 173.343 234.535 173.34C234.12 173.343 233.755 173.207 233.439 172.932C233.128 172.656 232.886 172.262 232.714 171.75C232.546 171.234 232.462 170.633 232.462 169.945C232.462 169.258 232.546 168.658 232.714 168.146C232.886 167.634 233.128 167.242 233.439 166.97C233.755 166.694 234.12 166.558 234.535 166.562C234.943 166.558 235.301 166.687 235.609 166.948C235.921 167.206 236.164 167.575 236.34 168.055H237.736V165.971H238.703V174.94ZM234.535 167.518C234.299 167.518 234.095 167.614 233.923 167.808C233.755 167.997 233.624 168.275 233.531 168.64C233.441 169.002 233.396 169.437 233.396 169.945C233.396 170.454 233.441 170.891 233.531 171.256C233.624 171.618 233.755 171.895 233.923 172.088C234.095 172.278 234.299 172.373 234.535 172.373C234.771 172.373 234.976 172.278 235.147 172.088C235.323 171.895 235.457 171.616 235.55 171.25C235.647 170.885 235.695 170.45 235.695 169.945C235.695 169.44 235.647 169.005 235.55 168.64C235.457 168.275 235.323 167.997 235.147 167.808C234.976 167.614 234.771 167.518 234.535 167.518ZM236.549 168.882C236.603 169.208 236.63 169.562 236.63 169.945C236.63 170.325 236.603 170.676 236.549 170.998H237.736V168.882H236.549ZM250.988 168.033H249.624V169.258H250.988V170.117H249.624V171.492H248.603V165.788H249.624V167.195H250.988V168.033ZM249.624 175.413H248.603V172.749H243.264V171.922H249.624V175.413ZM244.768 166.347C245.255 166.347 245.692 166.445 246.079 166.642C246.469 166.835 246.775 167.108 246.997 167.458C247.219 167.806 247.332 168.201 247.336 168.646C247.332 169.09 247.219 169.487 246.997 169.838C246.775 170.185 246.469 170.457 246.079 170.654C245.692 170.848 245.255 170.944 244.768 170.944C244.281 170.944 243.843 170.848 243.452 170.654C243.062 170.457 242.756 170.185 242.534 169.838C242.316 169.487 242.208 169.09 242.212 168.646C242.208 168.201 242.316 167.806 242.534 167.458C242.756 167.108 243.062 166.835 243.452 166.642C243.843 166.445 244.281 166.347 244.768 166.347ZM244.768 167.217C244.468 167.217 244.199 167.278 243.963 167.399C243.726 167.518 243.54 167.684 243.404 167.899C243.272 168.114 243.207 168.363 243.211 168.646C243.207 168.932 243.272 169.184 243.404 169.403C243.54 169.618 243.726 169.784 243.963 169.902C244.199 170.021 244.468 170.078 244.768 170.074C245.069 170.078 245.338 170.021 245.574 169.902C245.814 169.784 246 169.618 246.133 169.403C246.269 169.184 246.337 168.932 246.337 168.646C246.337 168.363 246.269 168.114 246.133 167.899C246 167.681 245.814 167.512 245.574 167.394C245.338 167.276 245.069 167.217 244.768 167.217ZM254.497 166.11C254.976 166.114 255.406 166.209 255.786 166.395C256.169 166.578 256.47 166.834 256.688 167.163C256.907 167.489 257.018 167.858 257.021 168.27C257.018 168.685 256.907 169.056 256.688 169.381C256.47 169.707 256.169 169.961 255.786 170.144C255.406 170.327 254.976 170.418 254.497 170.418C254.013 170.418 253.578 170.327 253.192 170.144C252.808 169.961 252.508 169.707 252.289 169.381C252.071 169.056 251.962 168.685 251.962 168.27C251.962 167.858 252.071 167.489 252.289 167.163C252.508 166.834 252.808 166.578 253.192 166.395C253.578 166.209 254.013 166.114 254.497 166.11ZM254.497 166.97C254.203 166.966 253.938 167.018 253.702 167.125C253.469 167.233 253.286 167.387 253.154 167.587C253.021 167.784 252.957 168.012 252.961 168.27C252.957 168.531 253.02 168.762 253.149 168.962C253.281 169.163 253.464 169.319 253.696 169.43C253.933 169.537 254.199 169.591 254.497 169.591C254.79 169.591 255.053 169.535 255.286 169.424C255.519 169.313 255.702 169.159 255.834 168.962C255.967 168.762 256.033 168.531 256.033 168.27C256.033 168.012 255.967 167.784 255.834 167.587C255.702 167.387 255.517 167.233 255.281 167.125C255.048 167.018 254.787 166.966 254.497 166.97ZM259.75 170.687H258.729V165.788H259.75V170.687ZM259.75 173.555H254.443V174.479H260.072V175.295H253.455V172.792H258.74V171.943H253.422V171.127H259.75V173.555ZM264.694 173.641L267.39 170.923C267.716 170.579 267.965 170.303 268.136 170.096C268.308 169.888 268.439 169.686 268.529 169.489C268.622 169.288 268.668 169.079 268.668 168.86C268.668 168.61 268.606 168.389 268.48 168.2C268.355 168.01 268.183 167.863 267.965 167.759C267.746 167.655 267.501 167.604 267.229 167.604C266.946 167.604 266.697 167.661 266.482 167.775C266.267 167.89 266.101 168.051 265.983 168.259C265.868 168.466 265.811 168.706 265.811 168.979H264.694C264.69 168.513 264.797 168.101 265.016 167.743C265.234 167.385 265.539 167.108 265.929 166.911C266.319 166.714 266.76 166.615 267.25 166.615C267.744 166.615 268.183 166.712 268.566 166.905C268.953 167.095 269.254 167.358 269.468 167.695C269.683 168.031 269.793 168.409 269.796 168.828C269.793 169.125 269.735 169.412 269.624 169.688C269.513 169.96 269.323 170.264 269.055 170.601C268.786 170.934 268.407 171.342 267.916 171.825L266.337 173.426V173.49H269.925V174.5H264.694V173.641ZM274.143 174.607C273.545 174.607 273.031 174.452 272.601 174.14C272.175 173.829 271.849 173.374 271.624 172.776C271.398 172.174 271.285 171.453 271.285 170.611C271.285 169.777 271.398 169.061 271.624 168.463C271.853 167.861 272.182 167.403 272.612 167.088C273.042 166.773 273.552 166.615 274.143 166.615C274.733 166.615 275.244 166.773 275.673 167.088C276.103 167.403 276.431 167.861 276.656 168.463C276.885 169.061 277 169.777 277 170.611C277 171.453 276.887 172.173 276.662 172.771C276.436 173.368 276.108 173.825 275.679 174.14C275.249 174.452 274.737 174.607 274.143 174.607ZM274.143 173.587C274.493 173.587 274.794 173.474 275.045 173.249C275.296 173.019 275.487 172.683 275.62 172.239C275.752 171.795 275.818 171.252 275.818 170.611C275.818 169.974 275.75 169.431 275.614 168.984C275.482 168.533 275.29 168.193 275.04 167.963C274.789 167.731 274.49 167.614 274.143 167.614C273.795 167.614 273.496 167.731 273.246 167.963C272.995 168.193 272.802 168.533 272.666 168.984C272.533 169.431 272.467 169.974 272.467 170.611C272.467 171.252 272.533 171.795 272.666 172.239C272.798 172.683 272.99 173.019 273.24 173.249C273.491 173.474 273.792 173.587 274.143 173.587ZM278.425 173.641L281.121 170.923C281.447 170.579 281.696 170.303 281.867 170.096C282.039 169.888 282.17 169.686 282.26 169.489C282.353 169.288 282.399 169.079 282.399 168.86C282.399 168.61 282.337 168.389 282.211 168.2C282.086 168.01 281.914 167.863 281.696 167.759C281.477 167.655 281.232 167.604 280.96 167.604C280.677 167.604 280.428 167.661 280.213 167.775C279.998 167.89 279.832 168.051 279.714 168.259C279.599 168.466 279.542 168.706 279.542 168.979H278.425C278.421 168.513 278.528 168.101 278.747 167.743C278.965 167.385 279.27 167.108 279.66 166.911C280.05 166.714 280.491 166.615 280.981 166.615C281.475 166.615 281.914 166.712 282.297 166.905C282.684 167.095 282.985 167.358 283.2 167.695C283.414 168.031 283.524 168.409 283.527 168.828C283.524 169.125 283.466 169.412 283.355 169.688C283.244 169.96 283.054 170.264 282.786 170.601C282.517 170.934 282.138 171.342 281.647 171.825L280.068 173.426V173.49H283.656V174.5H278.425V173.641ZM288.003 174.607C287.473 174.607 286.986 174.491 286.542 174.258C286.101 174.022 285.74 173.626 285.457 173.071C285.177 172.516 285.038 171.782 285.038 170.869C285.038 169.978 285.159 169.213 285.403 168.576C285.65 167.935 286.001 167.448 286.456 167.115C286.914 166.782 287.455 166.615 288.078 166.615C288.543 166.615 288.962 166.707 289.335 166.889C289.711 167.068 290.015 167.319 290.248 167.641C290.48 167.963 290.627 168.33 290.688 168.742H289.517C289.438 168.413 289.274 168.148 289.023 167.947C288.772 167.747 288.457 167.646 288.078 167.646C287.68 167.646 287.338 167.759 287.052 167.985C286.769 168.207 286.552 168.529 286.402 168.952C286.252 169.371 286.176 169.87 286.176 170.45H286.262C286.474 170.121 286.753 169.863 287.1 169.677C287.451 169.491 287.838 169.397 288.26 169.397C288.719 169.397 289.139 169.508 289.523 169.73C289.906 169.949 290.208 170.253 290.43 170.644C290.652 171.03 290.763 171.467 290.763 171.954C290.763 172.452 290.649 172.903 290.42 173.308C290.19 173.709 289.866 174.026 289.447 174.258C289.028 174.491 288.547 174.607 288.003 174.607ZM287.97 173.619C288.278 173.619 288.558 173.546 288.808 173.399C289.059 173.252 289.256 173.053 289.399 172.803C289.542 172.552 289.614 172.276 289.614 171.976C289.614 171.682 289.544 171.412 289.404 171.165C289.265 170.917 289.071 170.722 288.824 170.579C288.581 170.436 288.307 170.364 288.003 170.364C287.691 170.364 287.406 170.439 287.149 170.59C286.894 170.737 286.692 170.935 286.542 171.186C286.395 171.433 286.32 171.7 286.316 171.986C286.32 172.273 286.393 172.541 286.536 172.792C286.679 173.043 286.876 173.243 287.127 173.394C287.381 173.544 287.662 173.619 287.97 173.619ZM292.628 174.575C292.492 174.575 292.363 174.541 292.242 174.473C292.123 174.405 292.03 174.312 291.962 174.194C291.894 174.076 291.862 173.949 291.866 173.812C291.862 173.676 291.894 173.549 291.962 173.431C292.03 173.313 292.123 173.22 292.242 173.152C292.363 173.084 292.492 173.05 292.628 173.05C292.761 173.05 292.886 173.084 293.004 173.152C293.122 173.22 293.216 173.313 293.284 173.431C293.355 173.549 293.391 173.676 293.391 173.812C293.391 173.949 293.355 174.076 293.284 174.194C293.216 174.312 293.122 174.405 293.004 174.473C292.886 174.541 292.761 174.575 292.628 174.575ZM297.383 174.607C296.785 174.607 296.271 174.452 295.842 174.14C295.415 173.829 295.09 173.374 294.864 172.776C294.638 172.174 294.526 171.453 294.526 170.611C294.526 169.777 294.638 169.061 294.864 168.463C295.093 167.861 295.423 167.403 295.852 167.088C296.282 166.773 296.792 166.615 297.383 166.615C297.974 166.615 298.484 166.773 298.914 167.088C299.343 167.403 299.671 167.861 299.897 168.463C300.126 169.061 300.24 169.777 300.24 170.611C300.24 171.453 300.128 172.173 299.902 172.771C299.676 173.368 299.349 173.825 298.919 174.14C298.489 174.452 297.977 174.607 297.383 174.607ZM297.383 173.587C297.734 173.587 298.035 173.474 298.285 173.249C298.536 173.019 298.728 172.683 298.86 172.239C298.993 171.795 299.059 171.252 299.059 170.611C299.059 169.974 298.991 169.431 298.855 168.984C298.722 168.533 298.531 168.193 298.28 167.963C298.029 167.731 297.73 167.614 297.383 167.614C297.036 167.614 296.737 167.731 296.486 167.963C296.235 168.193 296.042 168.533 295.906 168.984C295.773 169.431 295.707 169.974 295.707 170.611C295.707 171.252 295.773 171.795 295.906 172.239C296.038 172.683 296.23 173.019 296.481 173.249C296.731 173.474 297.032 173.587 297.383 173.587ZM301.493 172.029L304.931 166.723H306.392V171.986H307.455V172.985H306.392V174.5H305.274V172.985H301.493V172.029ZM305.274 171.986V168.13H305.188L302.739 171.922V171.986H305.274ZM309.32 174.575C309.184 174.575 309.055 174.541 308.933 174.473C308.815 174.405 308.722 174.312 308.654 174.194C308.586 174.076 308.554 173.949 308.557 173.812C308.554 173.676 308.586 173.549 308.654 173.431C308.722 173.313 308.815 173.22 308.933 173.152C309.055 173.084 309.184 173.05 309.32 173.05C309.453 173.05 309.578 173.084 309.696 173.152C309.814 173.22 309.907 173.313 309.975 173.431C310.047 173.549 310.083 173.676 310.083 173.812C310.083 173.949 310.047 174.076 309.975 174.194C309.907 174.312 309.814 174.405 309.696 174.473C309.578 174.541 309.453 174.575 309.32 174.575ZM314.075 174.607C313.477 174.607 312.963 174.452 312.533 174.14C312.107 173.829 311.781 173.374 311.556 172.776C311.33 172.174 311.217 171.453 311.217 170.611C311.217 169.777 311.33 169.061 311.556 168.463C311.785 167.861 312.114 167.403 312.544 167.088C312.974 166.773 313.484 166.615 314.075 166.615C314.666 166.615 315.176 166.773 315.606 167.088C316.035 167.403 316.363 167.861 316.588 168.463C316.818 169.061 316.932 169.777 316.932 170.611C316.932 171.453 316.819 172.173 316.594 172.771C316.368 173.368 316.041 173.825 315.611 174.14C315.181 174.452 314.669 174.607 314.075 174.607ZM314.075 173.587C314.426 173.587 314.726 173.474 314.977 173.249C315.228 173.019 315.419 172.683 315.552 172.239C315.684 171.795 315.751 171.252 315.751 170.611C315.751 169.974 315.683 169.431 315.546 168.984C315.414 168.533 315.222 168.193 314.972 167.963C314.721 167.731 314.422 167.614 314.075 167.614C313.727 167.614 313.428 167.731 313.178 167.963C312.927 168.193 312.734 168.533 312.598 168.984C312.465 169.431 312.399 169.974 312.399 170.611C312.399 171.252 312.465 171.795 312.598 172.239C312.73 172.683 312.922 173.019 313.172 173.249C313.423 173.474 313.724 173.587 314.075 173.587ZM321.118 174.607C320.588 174.607 320.111 174.518 319.689 174.339C319.27 174.16 318.939 173.909 318.695 173.587C318.455 173.261 318.328 172.889 318.314 172.47H319.517C319.531 172.695 319.608 172.892 319.748 173.061C319.891 173.229 320.081 173.36 320.317 173.453C320.554 173.542 320.817 173.587 321.107 173.587C321.415 173.587 321.692 173.533 321.939 173.426C322.186 173.318 322.38 173.17 322.519 172.98C322.659 172.787 322.729 172.566 322.729 172.319C322.729 172.065 322.659 171.838 322.519 171.637C322.38 171.437 322.177 171.281 321.912 171.17C321.651 171.055 321.34 170.998 320.978 170.998H320.312V170.031H320.978C321.268 170.031 321.528 169.979 321.757 169.875C321.986 169.772 322.163 169.627 322.288 169.44C322.417 169.254 322.482 169.039 322.482 168.796C322.482 168.56 322.426 168.352 322.315 168.173C322.204 167.994 322.047 167.854 321.843 167.754C321.639 167.654 321.4 167.604 321.128 167.604C320.863 167.604 320.618 167.65 320.392 167.743C320.167 167.836 319.984 167.969 319.845 168.141C319.709 168.312 319.635 168.513 319.624 168.742H318.486C318.496 168.33 318.62 167.963 318.856 167.641C319.096 167.315 319.417 167.063 319.818 166.884C320.219 166.705 320.659 166.615 321.139 166.615C321.633 166.615 322.068 166.71 322.444 166.9C322.824 167.09 323.116 167.347 323.32 167.673C323.524 167.996 323.624 168.348 323.621 168.731C323.624 169.168 323.501 169.541 323.25 169.849C323.003 170.153 322.668 170.357 322.246 170.461V170.515C322.772 170.59 323.182 170.792 323.475 171.122C323.773 171.451 323.921 171.865 323.921 172.362C323.921 172.788 323.8 173.173 323.556 173.517C323.313 173.857 322.978 174.124 322.552 174.317C322.126 174.511 321.648 174.607 321.118 174.607Z" fill="#888882"/>
</g>
</g>
</g>
</g>
<path d="M16 3.5H329.34C337.9 3.5 344.84 10.4396 344.84 19V174C344.84 182.56 337.9 189.5 329.34 189.5H16C7.43959 189.5 0.5 182.56 0.5 174V19C0.500002 10.4396 7.43959 3.5 16 3.5Z" stroke="#E2DDD5"/>
</g>
<defs>
<filter id="filter0_d_199_7141" x="-4" y="0" width="353.34" height="195" filterUnits="userSpaceOnUse" color-interpolation-filters="sRGB">
<feFlood flood-opacity="0" result="BackgroundImageFix"/>
<feColorMatrix in="SourceAlpha" type="matrix" values="0 0 0 0 0 0 0 0 0 0 0 0 0 0 0 0 0 0 127 0" result="hardAlpha"/>
<feOffset dy="1"/>
<feGaussianBlur stdDeviation="2"/>
<feColorMatrix type="matrix" values="0 0 0 0 0.118 0 0 0 0 0.157 0 0 0 0 0.133 0 0 0 0.06 0"/>
<feBlend mode="normal" in2="BackgroundImageFix" result="effect1_dropShadow_199_7141"/>
<feBlend mode="normal" in="SourceGraphic" in2="effect1_dropShadow_199_7141" result="shape"/>
</filter>
<clipPath id="clip0_199_7141">
<path d="M0 19C0 10.1634 7.16344 3 16 3H329.34C338.177 3 345.34 10.1634 345.34 19V174C345.34 182.837 338.177 190 329.34 190H16C7.16345 190 0 182.837 0 174V19Z" fill="white"/>
</clipPath>
</defs>
</svg>
