<svg width="320" height="222" viewBox="0 0 320 222" fill="none" xmlns="http://www.w3.org/2000/svg">
<g id="Property 1=Light" filter="url(#filter0_dd_272_5801)">
<g clip-path="url(#clip0_272_5801)">
<path d="M20 36C20 27.1634 27.1634 20 36 20H284C292.837 20 300 27.1634 300 36V166C300 174.837 292.837 182 284 182H36C27.1634 182 20 174.837 20 166V36Z" fill="#FAFAF7"/>
<g id="Frame 117">
<path id="Title" d="M48.7812 51.5625C48.7812 52.3073 48.8854 53.0286 49.0938 53.7266C49.3021 54.4245 49.6224 55.0573 50.0547 55.625C50.4922 56.1927 51.0312 56.6458 51.6719 56.9844L50.6875 58.2656C50.0469 57.9323 49.5 57.474 49.0469 56.8906C48.599 56.3073 48.2422 55.6302 47.9766 54.8594C47.7214 55.6875 47.3646 56.4245 46.9062 57.0703C46.4531 57.7109 45.9062 58.2135 45.2656 58.5781L44.2656 57.2969C44.901 56.9271 45.4323 56.4375 45.8594 55.8281C46.2917 55.2188 46.612 54.5469 46.8203 53.8125C47.0339 53.0781 47.1406 52.3281 47.1406 51.5625V51.1719H44.6719V49.75H47.1406V47.7656H48.7812V49.75H51.2188V51.1719H48.7812V51.5625ZM56.7188 61.3906H55.0625V54.2344H53.6094V60.7031H51.9688V47.5156H53.6094V52.7969H55.0625V47.2656H56.7188V61.3906ZM65.6062 49.6562H60.5437V51H65.2V52.3594H60.5437V53.7188H61.4187C62.5594 53.7188 63.5203 53.6953 64.3016 53.6484C65.088 53.6016 65.8719 53.5104 66.6531 53.375L66.825 54.75C65.9344 54.8958 65.0385 54.9948 64.1375 55.0469C63.2365 55.099 62.1167 55.125 60.7781 55.125H59.9812H58.7781V48.2812H65.6062V49.6562ZM69.7625 55.8906H68.0125V47.2812H69.7625V55.8906ZM64.9969 56.0938C65.9865 56.0938 66.8432 56.1979 67.5672 56.4062C68.2911 56.6146 68.8484 56.9167 69.2391 57.3125C69.6297 57.7083 69.825 58.1823 69.825 58.7344C69.825 59.2865 69.6297 59.7604 69.2391 60.1562C68.8484 60.5521 68.2911 60.8542 67.5672 61.0625C66.8432 61.2708 65.9865 61.375 64.9969 61.375C63.9969 61.375 63.1323 61.2708 62.4031 61.0625C61.6792 60.8542 61.1245 60.5521 60.7391 60.1562C60.3536 59.7604 60.1635 59.2865 60.1687 58.7344C60.1635 58.1823 60.3536 57.7083 60.7391 57.3125C61.1245 56.9167 61.6792 56.6146 62.4031 56.4062C63.1323 56.1979 63.9969 56.0938 64.9969 56.0938ZM64.9969 57.4375C63.9969 57.4375 63.2286 57.5495 62.6922 57.7734C62.1557 57.9974 61.8927 58.3177 61.9031 58.7344C61.8979 59.1562 62.1609 59.4792 62.6922 59.7031C63.2234 59.9219 63.9917 60.0312 64.9969 60.0312C65.9812 60.0312 66.7417 59.9193 67.2781 59.6953C67.8198 59.4714 68.0906 59.151 68.0906 58.7344C68.0906 58.3229 67.8198 58.0052 67.2781 57.7812C66.7365 57.5521 65.976 57.4375 64.9969 57.4375ZM86.7719 61.4062H85.0219V47.2656H86.7719V61.4062ZM79.1625 48.2969C79.8708 48.2969 80.501 48.5026 81.0531 48.9141C81.6104 49.3203 82.0479 49.901 82.3656 50.6562C82.6833 51.4062 82.8448 52.2812 82.85 53.2812C82.8448 54.2865 82.6833 55.1667 82.3656 55.9219C82.0531 56.6771 81.6182 57.2604 81.0609 57.6719C80.5036 58.0781 79.8708 58.2812 79.1625 58.2812C78.449 58.2812 77.8135 58.0781 77.2563 57.6719C76.699 57.2604 76.2615 56.6771 75.9438 55.9219C75.6313 55.1667 75.475 54.2865 75.475 53.2812C75.475 52.2812 75.6313 51.4062 75.9438 50.6562C76.2615 49.901 76.699 49.3203 77.2563 48.9141C77.8135 48.5026 78.449 48.2969 79.1625 48.2969ZM79.1625 49.8594C78.7615 49.8594 78.4073 49.9948 78.1 50.2656C77.7979 50.5365 77.5635 50.9297 77.3969 51.4453C77.2302 51.9609 77.1469 52.5729 77.1469 53.2812C77.1469 53.9948 77.2302 54.6094 77.3969 55.125C77.5635 55.6406 77.7979 56.0365 78.1 56.3125C78.4073 56.5833 78.7615 56.7188 79.1625 56.7188C79.5583 56.7188 79.9073 56.5833 80.2094 56.3125C80.5115 56.0365 80.7458 55.6406 80.9125 55.125C81.0792 54.6094 81.1625 53.9948 81.1625 53.2812C81.1625 52.5729 81.0792 51.9635 80.9125 51.4531C80.7458 50.9375 80.5115 50.5443 80.2094 50.2734C79.9073 49.9974 79.5583 49.8594 79.1625 49.8594ZM101.441 55.8281H88.5344V54.4531H101.441V55.8281ZM99.8469 51.1875H91.8937V52.2031H100.128V53.5312H90.175V49.9219H98.1125V48.9219H90.1281V47.5625H99.8469V51.1875ZM99.8937 61.2188H90.2219V56.8438H99.8937V61.2188ZM91.925 59.8125H98.175V58.2188H91.925V59.8125ZM117.403 57.7031H115.669V54.1562H112.825V55.4062H106.216V48.2031H107.95V50.4844H111.106V48.2031H112.825V49.7188H115.669V47.2812H117.403V57.7031ZM117.716 61.1094H108.091V56.6719H109.856V59.7031H117.716V61.1094ZM111.106 54.0312V51.8281H107.95V54.0312H111.106ZM115.669 52.75V51.125H112.825V52.75H115.669ZM130.931 55.5312H129.197V53.9688H125.838V52.5625H129.197V51.0469H125.97C125.528 52.1667 124.798 53.1198 123.783 53.9062C122.772 54.6875 121.494 55.2917 119.947 55.7188L119.244 54.3438C120.869 53.901 122.129 53.2786 123.025 52.4766C123.921 51.6745 124.439 50.7396 124.58 49.6719H119.994V48.2656H126.478C126.478 48.7708 126.436 49.2396 126.353 49.6719H129.197V47.2812H130.931V55.5312ZM126.259 55.6875C127.207 55.6875 128.041 55.8021 128.759 56.0312C129.478 56.2604 130.035 56.5859 130.431 57.0078C130.827 57.4297 131.025 57.9271 131.025 58.5C131.025 59.0729 130.827 59.5703 130.431 59.9922C130.035 60.4141 129.478 60.7396 128.759 60.9688C128.041 61.1979 127.207 61.3125 126.259 61.3125C125.301 61.3125 124.46 61.1979 123.736 60.9688C123.012 60.7396 122.452 60.4141 122.056 59.9922C121.66 59.5703 121.463 59.0729 121.463 58.5C121.463 57.9271 121.66 57.4297 122.056 57.0078C122.452 56.5859 123.012 56.2604 123.736 56.0312C124.46 55.8021 125.301 55.6875 126.259 55.6875ZM126.259 57.0469C125.296 57.0469 124.543 57.1745 124.002 57.4297C123.465 57.6797 123.197 58.0365 123.197 58.5C123.197 58.9583 123.468 59.3125 124.009 59.5625C124.551 59.8125 125.301 59.9375 126.259 59.9375C127.197 59.9375 127.936 59.8125 128.478 59.5625C129.02 59.3125 129.291 58.9583 129.291 58.5C129.291 58.0365 129.02 57.6797 128.478 57.4297C127.942 57.1745 127.202 57.0469 126.259 57.0469Z" fill="#1A1A1A"/>
<g id="TextInput">
<path d="M52 76.375H268C272.211 76.375 275.625 79.7888 275.625 84V110C275.625 114.211 272.211 117.625 268 117.625H52C47.7888 117.625 44.375 114.211 44.375 110V84C44.375 79.7888 47.7888 76.375 52 76.375Z" fill="#EDEAE3"/>
<path d="M52 76.375H268C272.211 76.375 275.625 79.7888 275.625 84V110C275.625 114.211 272.211 117.625 268 117.625H52C47.7888 117.625 44.375 114.211 44.375 110V84C44.375 79.7888 47.7888 76.375 52 76.375Z" stroke="#E2DDD5" stroke-width="0.75"/>
<path id="Placeholder" d="M66.541 103.107H65.4609V90.9531H66.541V103.107ZM62.9453 92.2793C62.9362 94.1159 62.4714 95.7656 61.5508 97.2285C60.6302 98.6868 59.1901 99.8854 57.2305 100.824L56.6426 99.9492C58.265 99.179 59.5068 98.222 60.3682 97.0781C61.234 95.9342 61.7285 94.6263 61.8516 93.1543H57.2031V92.2793H62.9453ZM74.8262 92.4707C74.8216 92.9538 75.0153 93.4095 75.4072 93.8379C75.7992 94.2617 76.3164 94.6195 76.959 94.9111C77.6016 95.1982 78.2852 95.3874 79.0098 95.4785L78.5859 96.3535C77.9206 96.2487 77.2894 96.0732 76.6924 95.8271C76.0954 95.5811 75.5713 95.2734 75.1201 94.9043C74.6735 94.5306 74.3431 94.1113 74.1289 93.6465C73.9147 94.1113 73.5843 94.5306 73.1377 94.9043C72.6911 95.2734 72.1693 95.5811 71.5723 95.8271C70.9753 96.0732 70.3418 96.2487 69.6719 96.3535L69.2754 95.4785C69.9954 95.3874 70.6745 95.1982 71.3125 94.9111C71.9505 94.6195 72.4632 94.2617 72.8506 93.8379C73.238 93.4095 73.4316 92.9538 73.4316 92.4707V92.4434H69.6035V91.5547H78.6816V92.4434H74.8262V92.4707ZM78.4355 102.848H70.0273V99.3887H71.1074V101.945H78.4355V102.848ZM79.707 98.4043H68.5918V97.5156H73.5957V95.4785H74.6484V97.5156H79.707V98.4043ZM87.7598 94.6855C87.7598 95.3372 87.8669 95.9775 88.0811 96.6064C88.2952 97.2354 88.6029 97.805 89.0039 98.3154C89.4095 98.8213 89.8835 99.2201 90.4258 99.5117L89.7969 100.318C89.2044 99.9948 88.6917 99.5391 88.2588 98.9512C87.8258 98.3633 87.4954 97.6956 87.2676 96.9482C87.0443 97.7458 86.7161 98.4613 86.2832 99.0947C85.8503 99.7282 85.3398 100.218 84.752 100.564L84.1094 99.7715C84.6426 99.4616 85.1074 99.0378 85.5039 98.5C85.9004 97.9577 86.2057 97.3561 86.4199 96.6953C86.6341 96.0299 86.7435 95.36 86.748 94.6855V94.125H84.3965V93.2363H86.748V91.4043H87.7734V93.2363H90.0977V94.125H87.7598V94.6855ZM94.6504 103.107H93.6113V96.791H91.957V102.492H90.9316V91.2129H91.957V95.875H93.6113V90.9531H94.6504V103.107ZM102.84 92.7305H98.0957V94.2617H102.498V95.1367H98.0957V96.7363C99.4766 96.7363 100.575 96.7158 101.391 96.6748C102.206 96.6292 103.022 96.5404 103.838 96.4082L103.947 97.2832C103.095 97.4199 102.245 97.5111 101.397 97.5566C100.55 97.6022 99.4173 97.625 98 97.625H97.0156V91.8555H102.84V92.7305ZM106.34 98.5H105.273V90.9668H106.34V98.5ZM102.307 98.6777C103.145 98.6732 103.872 98.7575 104.487 98.9307C105.103 99.0993 105.574 99.3499 105.902 99.6826C106.23 100.011 106.395 100.405 106.395 100.865C106.395 101.335 106.23 101.733 105.902 102.062C105.574 102.394 105.103 102.647 104.487 102.82C103.877 102.993 103.15 103.08 102.307 103.08C101.445 103.08 100.707 102.993 100.092 102.82C99.4766 102.652 99.0049 102.401 98.6768 102.068C98.3532 101.736 98.1914 101.335 98.1914 100.865C98.1914 100.405 98.3532 100.011 98.6768 99.6826C99.0049 99.3499 99.4766 99.0993 100.092 98.9307C100.712 98.7575 101.45 98.6732 102.307 98.6777ZM102.307 99.5254C101.673 99.5254 101.126 99.5801 100.666 99.6895C100.21 99.7943 99.8617 99.9469 99.6201 100.147C99.3786 100.348 99.2578 100.587 99.2578 100.865C99.2578 101.152 99.3786 101.398 99.6201 101.604C99.8617 101.809 100.21 101.964 100.666 102.068C101.126 102.178 101.673 102.232 102.307 102.232C102.926 102.232 103.464 102.178 103.92 102.068C104.376 101.959 104.727 101.802 104.973 101.597C105.219 101.392 105.342 101.148 105.342 100.865C105.342 100.592 105.219 100.355 104.973 100.154C104.727 99.9492 104.373 99.7943 103.913 99.6895C103.457 99.5801 102.922 99.5254 102.307 99.5254ZM121.939 103.135H120.859V90.9531H121.939V103.135ZM115.473 91.8965C116.074 91.901 116.61 92.0788 117.079 92.4297C117.549 92.776 117.915 93.2682 118.18 93.9062C118.444 94.5443 118.576 95.2871 118.576 96.1348C118.576 96.9824 118.444 97.7253 118.18 98.3633C117.915 99.0013 117.549 99.4935 117.079 99.8398C116.61 100.186 116.074 100.359 115.473 100.359C114.871 100.359 114.333 100.186 113.859 99.8398C113.39 99.4935 113.023 99.0013 112.759 98.3633C112.499 97.7253 112.369 96.9824 112.369 96.1348C112.369 95.2871 112.499 94.5443 112.759 93.9062C113.023 93.2682 113.39 92.776 113.859 92.4297C114.329 92.0788 114.867 91.901 115.473 91.8965ZM115.473 92.8535C115.067 92.8581 114.707 92.9971 114.393 93.2705C114.083 93.5394 113.841 93.9222 113.668 94.4189C113.495 94.9111 113.408 95.4831 113.408 96.1348C113.408 96.7865 113.495 97.3607 113.668 97.8574C113.841 98.3496 114.085 98.7301 114.399 98.999C114.714 99.2679 115.072 99.4023 115.473 99.4023C115.874 99.4023 116.231 99.2679 116.546 98.999C116.86 98.7301 117.104 98.3496 117.277 97.8574C117.451 97.3607 117.537 96.7865 117.537 96.1348C117.537 95.4831 117.451 94.9111 117.277 94.4189C117.104 93.9222 116.86 93.5394 116.546 93.2705C116.236 92.9971 115.878 92.8581 115.473 92.8535ZM135.133 98.1172H124.004V97.2285H135.133V98.1172ZM133.697 94.125H126.52V95.3418H133.957V96.1758H125.453V93.3184H132.617V92.1152H125.412V91.2539H133.697V94.125ZM133.697 102.943H125.521V99.2246H133.697V102.943ZM126.574 102.068H132.645V100.1H126.574V102.068Z" fill="#888882"/>
</g>
</g>
<g id="Frame 118">
<rect id="Divider" x="20" y="142" width="280" height="0.75" fill="#E2DDD5"/>
<g id="Frame 122">
<path id="Cancel" d="M82.9727 158.25C82.9727 158.651 83.0957 159.032 83.3418 159.392C83.5924 159.747 83.9388 160.057 84.3809 160.321C84.8275 160.581 85.3379 160.775 85.9121 160.902L85.4746 161.764C84.7728 161.595 84.1621 161.331 83.6426 160.971C83.123 160.611 82.7288 160.185 82.46 159.692C82.2002 160.23 81.806 160.693 81.2773 161.08C80.7487 161.467 80.1243 161.75 79.4043 161.928L78.9395 161.066C79.5182 160.939 80.0309 160.736 80.4775 160.458C80.9287 160.18 81.2796 159.85 81.5303 159.467C81.7809 159.084 81.9062 158.678 81.9062 158.25V158.195H79.1992V157.348H81.9062V155.994H82.9727V157.348H85.6797V158.195H82.9727V158.25ZM88.4141 168.121H87.3613V155.967H88.4141V168.121ZM78.3652 162.789C79.9147 162.789 81.3525 162.766 82.6787 162.721C84.0094 162.671 85.2741 162.57 86.4727 162.42L86.541 163.199C85.4746 163.372 84.2943 163.498 83 163.575V167.752H81.9336V163.63C81.013 163.671 79.8737 163.691 78.5156 163.691L78.3652 162.789ZM101.621 166.521H90.4922V165.633H95.4688V162.652H96.5215V165.633H101.621V166.521ZM96.5488 157.717C96.5488 158.364 96.7721 158.986 97.2188 159.583C97.6699 160.18 98.2441 160.686 98.9414 161.101C99.6432 161.511 100.354 161.777 101.074 161.9L100.596 162.789C99.9668 162.661 99.3493 162.44 98.7432 162.126C98.137 161.812 97.5902 161.42 97.1025 160.95C96.6195 160.481 96.2503 159.964 95.9951 159.398C95.7399 159.964 95.3708 160.481 94.8877 160.95C94.4046 161.42 93.86 161.812 93.2539 162.126C92.6523 162.44 92.0371 162.661 91.4082 162.789L90.9297 161.9C91.6497 161.777 92.3561 161.511 93.0488 161.101C93.7461 160.686 94.3158 160.182 94.7578 159.59C95.2044 158.993 95.4277 158.368 95.4277 157.717V156.787H96.5488V157.717Z" fill="#888882"/>
<rect id="VDivider" x="160" y="142" width="0.75" height="40" fill="#E2DDD5"/>
<path id="Save" d="M229.219 168.135H228.139V161.271H225.473V160.383H228.139V155.953H229.219V168.135ZM223.354 159.562C223.354 160.223 223.497 160.893 223.784 161.572C224.076 162.247 224.468 162.853 224.96 163.391C225.452 163.928 225.992 164.329 226.58 164.594L225.938 165.455C225.249 165.118 224.627 164.607 224.071 163.924C223.52 163.236 223.105 162.465 222.827 161.613C222.549 162.511 222.13 163.327 221.569 164.061C221.009 164.79 220.382 165.337 219.689 165.701L219.033 164.867C219.617 164.58 220.154 164.156 220.646 163.596C221.143 163.031 221.537 162.395 221.829 161.688C222.121 160.978 222.269 160.269 222.273 159.562V158.1H219.498V157.211H226.143V158.1H223.354V159.562ZM235.357 158.264C235.357 158.788 235.48 159.289 235.727 159.768C235.977 160.242 236.326 160.661 236.772 161.025C237.224 161.385 237.745 161.663 238.338 161.859L237.832 162.707C237.139 162.479 236.533 162.135 236.014 161.675C235.499 161.215 235.109 160.674 234.845 160.055C234.585 160.752 234.186 161.363 233.648 161.887C233.111 162.406 232.477 162.798 231.748 163.062L231.201 162.201C231.803 161.996 232.338 161.695 232.808 161.299C233.277 160.902 233.642 160.442 233.901 159.918C234.166 159.389 234.3 158.838 234.305 158.264V157.744H231.529V156.855H238.092V157.744H235.357V158.264ZM240.744 159.057H242.576V159.959H240.744V163.295H239.678V155.953H240.744V159.057ZM236.848 163.623C237.677 163.623 238.393 163.712 238.994 163.89C239.596 164.063 240.056 164.316 240.375 164.648C240.694 164.981 240.854 165.378 240.854 165.838C240.854 166.307 240.694 166.711 240.375 167.048C240.056 167.385 239.596 167.64 238.994 167.813C238.393 167.991 237.677 168.08 236.848 168.08C236.018 168.08 235.3 167.991 234.694 167.813C234.088 167.64 233.623 167.385 233.3 167.048C232.976 166.711 232.814 166.307 232.814 165.838C232.814 165.378 232.976 164.981 233.3 164.648C233.623 164.316 234.088 164.063 234.694 163.89C235.3 163.712 236.018 163.623 236.848 163.623ZM236.848 164.484C236.242 164.484 235.715 164.539 235.269 164.648C234.822 164.753 234.48 164.908 234.243 165.113C234.006 165.318 233.89 165.56 233.895 165.838C233.89 166.125 234.006 166.373 234.243 166.583C234.48 166.788 234.82 166.945 235.262 167.055C235.708 167.164 236.237 167.219 236.848 167.219C237.463 167.219 237.992 167.164 238.434 167.055C238.88 166.945 239.222 166.788 239.459 166.583C239.696 166.373 239.814 166.125 239.814 165.838C239.814 165.555 239.696 165.314 239.459 165.113C239.222 164.908 238.88 164.753 238.434 164.648C237.987 164.539 237.458 164.484 236.848 164.484Z" fill="#4A7C59"/>
</g>
</g>
</g>
<path d="M36 20.5H284C292.56 20.5 299.5 27.4396 299.5 36V166C299.5 174.56 292.56 181.5 284 181.5H36C27.4396 181.5 20.5 174.56 20.5 166V36C20.5 27.4396 27.4396 20.5 36 20.5Z" stroke="#E2DDD5"/>
</g>
<defs>
<filter id="filter0_dd_272_5801" x="-12" y="-4" width="344" height="226" filterUnits="userSpaceOnUse" color-interpolation-filters="sRGB">
<feFlood flood-opacity="0" result="BackgroundImageFix"/>
<feColorMatrix in="SourceAlpha" type="matrix" values="0 0 0 0 0 0 0 0 0 0 0 0 0 0 0 0 0 0 127 0" result="hardAlpha"/>
<feOffset dy="8"/>
<feGaussianBlur stdDeviation="16"/>
<feColorMatrix type="matrix" values="0 0 0 0 0.118 0 0 0 0 0.157 0 0 0 0 0.133 0 0 0 0.16 0"/>
<feBlend mode="normal" in2="BackgroundImageFix" result="effect1_dropShadow_272_5801"/>
<feColorMatrix in="SourceAlpha" type="matrix" values="0 0 0 0 0 0 0 0 0 0 0 0 0 0 0 0 0 0 127 0" result="hardAlpha"/>
<feOffset dy="2"/>
<feGaussianBlur stdDeviation="4"/>
<feColorMatrix type="matrix" values="0 0 0 0 0.118 0 0 0 0 0.157 0 0 0 0 0.133 0 0 0 0.08 0"/>
<feBlend mode="normal" in2="effect1_dropShadow_272_5801" result="effect2_dropShadow_272_5801"/>
<feBlend mode="normal" in="SourceGraphic" in2="effect2_dropShadow_272_5801" result="shape"/>
</filter>
<clipPath id="clip0_272_5801">
<path d="M20 36C20 27.1634 27.1634 20 36 20H284C292.837 20 300 27.1634 300 36V166C300 174.837 292.837 182 284 182H36C27.1634 182 20 174.837 20 166V36Z" fill="white"/>
</clipPath>
</defs>
</svg>
