<svg width="320" height="212" viewBox="0 0 320 212" fill="none" xmlns="http://www.w3.org/2000/svg">
<g id="Property 1=Dark" filter="url(#filter0_dd_272_5803)">
<path d="M20 40C20 31.1634 27.1634 24 36 24H284C292.837 24 300 31.1634 300 40V170C300 178.837 292.837 186 284 186H36C27.1634 186 20 178.837 20 170V40Z" fill="#262B28"/>
<path d="M36 24.5H284C292.56 24.5 299.5 31.4396 299.5 40V170C299.5 178.56 292.56 185.5 284 185.5H36C27.4396 185.5 20.5 178.56 20.5 170V40C20.5 31.4396 27.4396 24.5 36 24.5Z" stroke="#373F3B"/>
<g id="Frame 117">
<path id="Title" d="M48.7812 55.5625C48.7812 56.3073 48.8854 57.0286 49.0938 57.7266C49.3021 58.4245 49.6224 59.0573 50.0547 59.625C50.4922 60.1927 51.0312 60.6458 51.6719 60.9844L50.6875 62.2656C50.0469 61.9323 49.5 61.474 49.0469 60.8906C48.599 60.3073 48.2422 59.6302 47.9766 58.8594C47.7214 59.6875 47.3646 60.4245 46.9062 61.0703C46.4531 61.7109 45.9062 62.2135 45.2656 62.5781L44.2656 61.2969C44.901 60.9271 45.4323 60.4375 45.8594 59.8281C46.2917 59.2188 46.612 58.5469 46.8203 57.8125C47.0339 57.0781 47.1406 56.3281 47.1406 55.5625V55.1719H44.6719V53.75H47.1406V51.7656H48.7812V53.75H51.2188V55.1719H48.7812V55.5625ZM56.7188 65.3906H55.0625V58.2344H53.6094V64.7031H51.9688V51.5156H53.6094V56.7969H55.0625V51.2656H56.7188V65.3906ZM65.6062 53.6562H60.5437V55H65.2V56.3594H60.5437V57.7188H61.4187C62.5594 57.7188 63.5203 57.6953 64.3016 57.6484C65.088 57.6016 65.8719 57.5104 66.6531 57.375L66.825 58.75C65.9344 58.8958 65.0385 58.9948 64.1375 59.0469C63.2365 59.099 62.1167 59.125 60.7781 59.125H59.9812H58.7781V52.2812H65.6062V53.6562ZM69.7625 59.8906H68.0125V51.2812H69.7625V59.8906ZM64.9969 60.0938C65.9865 60.0938 66.8432 60.1979 67.5672 60.4062C68.2911 60.6146 68.8484 60.9167 69.2391 61.3125C69.6297 61.7083 69.825 62.1823 69.825 62.7344C69.825 63.2865 69.6297 63.7604 69.2391 64.1562C68.8484 64.5521 68.2911 64.8542 67.5672 65.0625C66.8432 65.2708 65.9865 65.375 64.9969 65.375C63.9969 65.375 63.1323 65.2708 62.4031 65.0625C61.6792 64.8542 61.1245 64.5521 60.7391 64.1562C60.3536 63.7604 60.1635 63.2865 60.1687 62.7344C60.1635 62.1823 60.3536 61.7083 60.7391 61.3125C61.1245 60.9167 61.6792 60.6146 62.4031 60.4062C63.1323 60.1979 63.9969 60.0938 64.9969 60.0938ZM64.9969 61.4375C63.9969 61.4375 63.2286 61.5495 62.6922 61.7734C62.1557 61.9974 61.8927 62.3177 61.9031 62.7344C61.8979 63.1562 62.1609 63.4792 62.6922 63.7031C63.2234 63.9219 63.9917 64.0312 64.9969 64.0312C65.9812 64.0312 66.7417 63.9193 67.2781 63.6953C67.8198 63.4714 68.0906 63.151 68.0906 62.7344C68.0906 62.3229 67.8198 62.0052 67.2781 61.7812C66.7365 61.5521 65.976 61.4375 64.9969 61.4375ZM86.7719 65.4062H85.0219V51.2656H86.7719V65.4062ZM79.1625 52.2969C79.8708 52.2969 80.501 52.5026 81.0531 52.9141C81.6104 53.3203 82.0479 53.901 82.3656 54.6562C82.6833 55.4062 82.8448 56.2812 82.85 57.2812C82.8448 58.2865 82.6833 59.1667 82.3656 59.9219C82.0531 60.6771 81.6182 61.2604 81.0609 61.6719C80.5036 62.0781 79.8708 62.2812 79.1625 62.2812C78.449 62.2812 77.8135 62.0781 77.2563 61.6719C76.699 61.2604 76.2615 60.6771 75.9438 59.9219C75.6313 59.1667 75.475 58.2865 75.475 57.2812C75.475 56.2812 75.6313 55.4062 75.9438 54.6562C76.2615 53.901 76.699 53.3203 77.2563 52.9141C77.8135 52.5026 78.449 52.2969 79.1625 52.2969ZM79.1625 53.8594C78.7615 53.8594 78.4073 53.9948 78.1 54.2656C77.7979 54.5365 77.5635 54.9297 77.3969 55.4453C77.2302 55.9609 77.1469 56.5729 77.1469 57.2812C77.1469 57.9948 77.2302 58.6094 77.3969 59.125C77.5635 59.6406 77.7979 60.0365 78.1 60.3125C78.4073 60.5833 78.7615 60.7188 79.1625 60.7188C79.5583 60.7188 79.9073 60.5833 80.2094 60.3125C80.5115 60.0365 80.7458 59.6406 80.9125 59.125C81.0792 58.6094 81.1625 57.9948 81.1625 57.2812C81.1625 56.5729 81.0792 55.9635 80.9125 55.4531C80.7458 54.9375 80.5115 54.5443 80.2094 54.2734C79.9073 53.9974 79.5583 53.8594 79.1625 53.8594ZM101.441 59.8281H88.5344V58.4531H101.441V59.8281ZM99.8469 55.1875H91.8937V56.2031H100.128V57.5312H90.175V53.9219H98.1125V52.9219H90.1281V51.5625H99.8469V55.1875ZM99.8937 65.2188H90.2219V60.8438H99.8937V65.2188ZM91.925 63.8125H98.175V62.2188H91.925V63.8125ZM117.403 61.7031H115.669V58.1562H112.825V59.4062H106.216V52.2031H107.95V54.4844H111.106V52.2031H112.825V53.7188H115.669V51.2812H117.403V61.7031ZM117.716 65.1094H108.091V60.6719H109.856V63.7031H117.716V65.1094ZM111.106 58.0312V55.8281H107.95V58.0312H111.106ZM115.669 56.75V55.125H112.825V56.75H115.669ZM130.931 59.5312H129.197V57.9688H125.838V56.5625H129.197V55.0469H125.97C125.528 56.1667 124.798 57.1198 123.783 57.9062C122.772 58.6875 121.494 59.2917 119.947 59.7188L119.244 58.3438C120.869 57.901 122.129 57.2786 123.025 56.4766C123.921 55.6745 124.439 54.7396 124.58 53.6719H119.994V52.2656H126.478C126.478 52.7708 126.436 53.2396 126.353 53.6719H129.197V51.2812H130.931V59.5312ZM126.259 59.6875C127.207 59.6875 128.041 59.8021 128.759 60.0312C129.478 60.2604 130.035 60.5859 130.431 61.0078C130.827 61.4297 131.025 61.9271 131.025 62.5C131.025 63.0729 130.827 63.5703 130.431 63.9922C130.035 64.4141 129.478 64.7396 128.759 64.9688C128.041 65.1979 127.207 65.3125 126.259 65.3125C125.301 65.3125 124.46 65.1979 123.736 64.9688C123.012 64.7396 122.452 64.4141 122.056 63.9922C121.66 63.5703 121.463 63.0729 121.463 62.5C121.463 61.9271 121.66 61.4297 122.056 61.0078C122.452 60.5859 123.012 60.2604 123.736 60.0312C124.46 59.8021 125.301 59.6875 126.259 59.6875ZM126.259 61.0469C125.296 61.0469 124.543 61.1745 124.002 61.4297C123.465 61.6797 123.197 62.0365 123.197 62.5C123.197 62.9583 123.468 63.3125 124.009 63.5625C124.551 63.8125 125.301 63.9375 126.259 63.9375C127.197 63.9375 127.936 63.8125 128.478 63.5625C129.02 63.3125 129.291 62.9583 129.291 62.5C129.291 62.0365 129.02 61.6797 128.478 61.4297C127.942 61.1745 127.202 61.0469 126.259 61.0469Z" fill="#E8E4DC"/>
<g id="TextInput">
<path d="M52 80.375H268C272.211 80.375 275.625 83.7888 275.625 88V114C275.625 118.211 272.211 121.625 268 121.625H52C47.7888 121.625 44.375 118.211 44.375 114V88C44.375 83.7888 47.7888 80.375 52 80.375Z" fill="#161A18"/>
<path d="M52 80.375H268C272.211 80.375 275.625 83.7888 275.625 88V114C275.625 118.211 272.211 121.625 268 121.625H52C47.7888 121.625 44.375 118.211 44.375 114V88C44.375 83.7888 47.7888 80.375 52 80.375Z" stroke="#373F3B" stroke-width="0.75"/>
<path id="Placeholder" d="M66.541 107.107H65.4609V94.9531H66.541V107.107ZM62.9453 96.2793C62.9362 98.1159 62.4714 99.7656 61.5508 101.229C60.6302 102.687 59.1901 103.885 57.2305 104.824L56.6426 103.949C58.265 103.179 59.5068 102.222 60.3682 101.078C61.234 99.9342 61.7285 98.6263 61.8516 97.1543H57.2031V96.2793H62.9453ZM74.8262 96.4707C74.8216 96.9538 75.0153 97.4095 75.4072 97.8379C75.7992 98.2617 76.3164 98.6195 76.959 98.9111C77.6016 99.1982 78.2852 99.3874 79.0098 99.4785L78.5859 100.354C77.9206 100.249 77.2894 100.073 76.6924 99.8271C76.0954 99.5811 75.5713 99.2734 75.1201 98.9043C74.6735 98.5306 74.3431 98.1113 74.1289 97.6465C73.9147 98.1113 73.5843 98.5306 73.1377 98.9043C72.6911 99.2734 72.1693 99.5811 71.5723 99.8271C70.9753 100.073 70.3418 100.249 69.6719 100.354L69.2754 99.4785C69.9954 99.3874 70.6745 99.1982 71.3125 98.9111C71.9505 98.6195 72.4632 98.2617 72.8506 97.8379C73.238 97.4095 73.4316 96.9538 73.4316 96.4707V96.4434H69.6035V95.5547H78.6816V96.4434H74.8262V96.4707ZM78.4355 106.848H70.0273V103.389H71.1074V105.945H78.4355V106.848ZM79.707 102.404H68.5918V101.516H73.5957V99.4785H74.6484V101.516H79.707V102.404ZM87.7598 98.6855C87.7598 99.3372 87.8669 99.9775 88.0811 100.606C88.2952 101.235 88.6029 101.805 89.0039 102.315C89.4095 102.821 89.8835 103.22 90.4258 103.512L89.7969 104.318C89.2044 103.995 88.6917 103.539 88.2588 102.951C87.8258 102.363 87.4954 101.696 87.2676 100.948C87.0443 101.746 86.7161 102.461 86.2832 103.095C85.8503 103.728 85.3398 104.218 84.752 104.564L84.1094 103.771C84.6426 103.462 85.1074 103.038 85.5039 102.5C85.9004 101.958 86.2057 101.356 86.4199 100.695C86.6341 100.03 86.7435 99.36 86.748 98.6855V98.125H84.3965V97.2363H86.748V95.4043H87.7734V97.2363H90.0977V98.125H87.7598V98.6855ZM94.6504 107.107H93.6113V100.791H91.957V106.492H90.9316V95.2129H91.957V99.875H93.6113V94.9531H94.6504V107.107ZM102.84 96.7305H98.0957V98.2617H102.498V99.1367H98.0957V100.736C99.4766 100.736 100.575 100.716 101.391 100.675C102.206 100.629 103.022 100.54 103.838 100.408L103.947 101.283C103.095 101.42 102.245 101.511 101.397 101.557C100.55 101.602 99.4173 101.625 98 101.625H97.0156V95.8555H102.84V96.7305ZM106.34 102.5H105.273V94.9668H106.34V102.5ZM102.307 102.678C103.145 102.673 103.872 102.757 104.487 102.931C105.103 103.099 105.574 103.35 105.902 103.683C106.23 104.011 106.395 104.405 106.395 104.865C106.395 105.335 106.23 105.733 105.902 106.062C105.574 106.394 105.103 106.647 104.487 106.82C103.877 106.993 103.15 107.08 102.307 107.08C101.445 107.08 100.707 106.993 100.092 106.82C99.4766 106.652 99.0049 106.401 98.6768 106.068C98.3532 105.736 98.1914 105.335 98.1914 104.865C98.1914 104.405 98.3532 104.011 98.6768 103.683C99.0049 103.35 99.4766 103.099 100.092 102.931C100.712 102.757 101.45 102.673 102.307 102.678ZM102.307 103.525C101.673 103.525 101.126 103.58 100.666 103.689C100.21 103.794 99.8617 103.947 99.6201 104.147C99.3786 104.348 99.2578 104.587 99.2578 104.865C99.2578 105.152 99.3786 105.398 99.6201 105.604C99.8617 105.809 100.21 105.964 100.666 106.068C101.126 106.178 101.673 106.232 102.307 106.232C102.926 106.232 103.464 106.178 103.92 106.068C104.376 105.959 104.727 105.802 104.973 105.597C105.219 105.392 105.342 105.148 105.342 104.865C105.342 104.592 105.219 104.355 104.973 104.154C104.727 103.949 104.373 103.794 103.913 103.689C103.457 103.58 102.922 103.525 102.307 103.525ZM121.939 107.135H120.859V94.9531H121.939V107.135ZM115.473 95.8965C116.074 95.901 116.61 96.0788 117.079 96.4297C117.549 96.776 117.915 97.2682 118.18 97.9062C118.444 98.5443 118.576 99.2871 118.576 100.135C118.576 100.982 118.444 101.725 118.18 102.363C117.915 103.001 117.549 103.493 117.079 103.84C116.61 104.186 116.074 104.359 115.473 104.359C114.871 104.359 114.333 104.186 113.859 103.84C113.39 103.493 113.023 103.001 112.759 102.363C112.499 101.725 112.369 100.982 112.369 100.135C112.369 99.2871 112.499 98.5443 112.759 97.9062C113.023 97.2682 113.39 96.776 113.859 96.4297C114.329 96.0788 114.867 95.901 115.473 95.8965ZM115.473 96.8535C115.067 96.8581 114.707 96.9971 114.393 97.2705C114.083 97.5394 113.841 97.9222 113.668 98.4189C113.495 98.9111 113.408 99.4831 113.408 100.135C113.408 100.786 113.495 101.361 113.668 101.857C113.841 102.35 114.085 102.73 114.399 102.999C114.714 103.268 115.072 103.402 115.473 103.402C115.874 103.402 116.231 103.268 116.546 102.999C116.86 102.73 117.104 102.35 117.277 101.857C117.451 101.361 117.537 100.786 117.537 100.135C117.537 99.4831 117.451 98.9111 117.277 98.4189C117.104 97.9222 116.86 97.5394 116.546 97.2705C116.236 96.9971 115.878 96.8581 115.473 96.8535ZM135.133 102.117H124.004V101.229H135.133V102.117ZM133.697 98.125H126.52V99.3418H133.957V100.176H125.453V97.3184H132.617V96.1152H125.412V95.2539H133.697V98.125ZM133.697 106.943H125.521V103.225H133.697V106.943ZM126.574 106.068H132.645V104.1H126.574V106.068Z" fill="#888882"/>
</g>
</g>
<g id="Frame 119">
<rect id="Divider" x="20" y="146" width="280" height="0.75" fill="#373F3B"/>
<g id="Frame 121">
<path id="Cancel" d="M82.9727 162.25C82.9727 162.651 83.0957 163.032 83.3418 163.392C83.5924 163.747 83.9388 164.057 84.3809 164.321C84.8275 164.581 85.3379 164.775 85.9121 164.902L85.4746 165.764C84.7728 165.595 84.1621 165.331 83.6426 164.971C83.123 164.611 82.7288 164.185 82.46 163.692C82.2002 164.23 81.806 164.693 81.2773 165.08C80.7487 165.467 80.1243 165.75 79.4043 165.928L78.9395 165.066C79.5182 164.939 80.0309 164.736 80.4775 164.458C80.9287 164.18 81.2796 163.85 81.5303 163.467C81.7809 163.084 81.9062 162.678 81.9062 162.25V162.195H79.1992V161.348H81.9062V159.994H82.9727V161.348H85.6797V162.195H82.9727V162.25ZM88.4141 172.121H87.3613V159.967H88.4141V172.121ZM78.3652 166.789C79.9147 166.789 81.3525 166.766 82.6787 166.721C84.0094 166.671 85.2741 166.57 86.4727 166.42L86.541 167.199C85.4746 167.372 84.2943 167.498 83 167.575V171.752H81.9336V167.63C81.013 167.671 79.8737 167.691 78.5156 167.691L78.3652 166.789ZM101.621 170.521H90.4922V169.633H95.4688V166.652H96.5215V169.633H101.621V170.521ZM96.5488 161.717C96.5488 162.364 96.7721 162.986 97.2188 163.583C97.6699 164.18 98.2441 164.686 98.9414 165.101C99.6432 165.511 100.354 165.777 101.074 165.9L100.596 166.789C99.9668 166.661 99.3493 166.44 98.7432 166.126C98.137 165.812 97.5902 165.42 97.1025 164.95C96.6195 164.481 96.2503 163.964 95.9951 163.398C95.7399 163.964 95.3708 164.481 94.8877 164.95C94.4046 165.42 93.86 165.812 93.2539 166.126C92.6523 166.44 92.0371 166.661 91.4082 166.789L90.9297 165.9C91.6497 165.777 92.3561 165.511 93.0488 165.101C93.7461 164.686 94.3158 164.182 94.7578 163.59C95.2044 162.993 95.4277 162.368 95.4277 161.717V160.787H96.5488V161.717Z" fill="#7A7873"/>
<rect id="VDivider" x="160" y="146" width="0.75" height="40" fill="#373F3B"/>
<path id="Save" d="M229.219 172.135H228.139V165.271H225.473V164.383H228.139V159.953H229.219V172.135ZM223.354 163.562C223.354 164.223 223.497 164.893 223.784 165.572C224.076 166.247 224.468 166.853 224.96 167.391C225.452 167.928 225.992 168.329 226.58 168.594L225.938 169.455C225.249 169.118 224.627 168.607 224.071 167.924C223.52 167.236 223.105 166.465 222.827 165.613C222.549 166.511 222.13 167.327 221.569 168.061C221.009 168.79 220.382 169.337 219.689 169.701L219.033 168.867C219.617 168.58 220.154 168.156 220.646 167.596C221.143 167.031 221.537 166.395 221.829 165.688C222.121 164.978 222.269 164.269 222.273 163.562V162.1H219.498V161.211H226.143V162.1H223.354V163.562ZM235.357 162.264C235.357 162.788 235.48 163.289 235.727 163.768C235.977 164.242 236.326 164.661 236.772 165.025C237.224 165.385 237.745 165.663 238.338 165.859L237.832 166.707C237.139 166.479 236.533 166.135 236.014 165.675C235.499 165.215 235.109 164.674 234.845 164.055C234.585 164.752 234.186 165.363 233.648 165.887C233.111 166.406 232.477 166.798 231.748 167.062L231.201 166.201C231.803 165.996 232.338 165.695 232.808 165.299C233.277 164.902 233.642 164.442 233.901 163.918C234.166 163.389 234.3 162.838 234.305 162.264V161.744H231.529V160.855H238.092V161.744H235.357V162.264ZM240.744 163.057H242.576V163.959H240.744V167.295H239.678V159.953H240.744V163.057ZM236.848 167.623C237.677 167.623 238.393 167.712 238.994 167.89C239.596 168.063 240.056 168.316 240.375 168.648C240.694 168.981 240.854 169.378 240.854 169.838C240.854 170.307 240.694 170.711 240.375 171.048C240.056 171.385 239.596 171.64 238.994 171.813C238.393 171.991 237.677 172.08 236.848 172.08C236.018 172.08 235.3 171.991 234.694 171.813C234.088 171.64 233.623 171.385 233.3 171.048C232.976 170.711 232.814 170.307 232.814 169.838C232.814 169.378 232.976 168.981 233.3 168.648C233.623 168.316 234.088 168.063 234.694 167.89C235.3 167.712 236.018 167.623 236.848 167.623ZM236.848 168.484C236.242 168.484 235.715 168.539 235.269 168.648C234.822 168.753 234.48 168.908 234.243 169.113C234.006 169.318 233.89 169.56 233.895 169.838C233.89 170.125 234.006 170.373 234.243 170.583C234.48 170.788 234.82 170.945 235.262 171.055C235.708 171.164 236.237 171.219 236.848 171.219C237.463 171.219 237.992 171.164 238.434 171.055C238.88 170.945 239.222 170.788 239.459 170.583C239.696 170.373 239.814 170.125 239.814 169.838C239.814 169.555 239.696 169.314 239.459 169.113C239.222 168.908 238.88 168.753 238.434 168.648C237.987 168.539 237.458 168.484 236.848 168.484Z" fill="#5E9E72"/>
</g>
</g>
</g>
<defs>
<filter id="filter0_dd_272_5803" x="-12" y="0" width="344.75" height="226" filterUnits="userSpaceOnUse" color-interpolation-filters="sRGB">
<feFlood flood-opacity="0" result="BackgroundImageFix"/>
<feColorMatrix in="SourceAlpha" type="matrix" values="0 0 0 0 0 0 0 0 0 0 0 0 0 0 0 0 0 0 127 0" result="hardAlpha"/>
<feOffset dy="8"/>
<feGaussianBlur stdDeviation="16"/>
<feColorMatrix type="matrix" values="0 0 0 0 0 0 0 0 0 0 0 0 0 0 0 0 0 0 0.5 0"/>
<feBlend mode="normal" in2="BackgroundImageFix" result="effect1_dropShadow_272_5803"/>
<feColorMatrix in="SourceAlpha" type="matrix" values="0 0 0 0 0 0 0 0 0 0 0 0 0 0 0 0 0 0 127 0" result="hardAlpha"/>
<feOffset dy="2"/>
<feGaussianBlur stdDeviation="4"/>
<feColorMatrix type="matrix" values="0 0 0 0 0 0 0 0 0 0 0 0 0 0 0 0 0 0 0.25 0"/>
<feBlend mode="normal" in2="effect1_dropShadow_272_5803" result="effect2_dropShadow_272_5803"/>
<feBlend mode="normal" in="SourceGraphic" in2="effect2_dropShadow_272_5803" result="shape"/>
</filter>
</defs>
</svg>
