<svg width="393" height="36" viewBox="0 0 393 36" fill="none" xmlns="http://www.w3.org/2000/svg">
<g id="selected=Light" clip-path="url(#clip0_197_5893)">
<rect width="393" height="36" fill="#FAFAF7"/>
<g id="Frame 88">
<mask id="path-1-inside-1_197_5893" fill="white">
<path d="M0 0H98.25V36H0V0Z"/>
</mask>
<path d="M98.25 36V35H0V36V37H98.25V36Z" fill="#4A7C59" mask="url(#path-1-inside-1_197_5893)"/>
<path id="&#236;&#160;&#132;&#236;&#178;&#180;" d="M47.1934 20.8809H46.1133V16.2188H43.6113V15.3301H46.1133V11.9668H47.1934V20.8809ZM47.5352 23.8477H39.3867V20.0742H40.4668V22.9453H47.5352V23.8477ZM41.3418 14.4688C41.3418 14.9883 41.4671 15.4964 41.7178 15.9932C41.973 16.4854 42.3262 16.9229 42.7773 17.3057C43.2331 17.6885 43.7526 17.9779 44.3359 18.1738L43.7754 19.0352C43.0964 18.7891 42.4993 18.4245 41.9844 17.9414C41.474 17.4538 41.0866 16.8932 40.8223 16.2598C40.5579 16.9616 40.1569 17.5814 39.6191 18.1191C39.0814 18.6523 38.4525 19.0534 37.7324 19.3223L37.1719 18.4473C37.7643 18.2376 38.2952 17.9323 38.7646 17.5312C39.234 17.1257 39.6009 16.6585 39.8652 16.1299C40.1296 15.5967 40.2617 15.043 40.2617 14.4688V13.8398H37.5137V12.9512H44.0625V13.8398H41.3418V14.4688ZM52.7715 15.6992C52.7715 16.3509 52.8786 16.9935 53.0928 17.627C53.307 18.2604 53.6146 18.8324 54.0156 19.3428C54.4167 19.8486 54.8861 20.2474 55.4238 20.5391L54.8086 21.3457C54.2161 21.0267 53.7035 20.5732 53.2705 19.9854C52.8376 19.3929 52.5072 18.7207 52.2793 17.9688C52.056 18.7663 51.7279 19.484 51.2949 20.1221C50.8665 20.7601 50.3561 21.2591 49.7637 21.6191L49.1211 20.7988C49.6589 20.4889 50.126 20.0628 50.5225 19.5205C50.9189 18.9782 51.222 18.3743 51.4316 17.709C51.6458 17.0436 51.7552 16.3737 51.7598 15.6992V15.0977H49.4492V14.209H51.7598V12.4043H52.7852V14.209H55.0547V15.0977H52.7715V15.6992ZM59.6074 24.1074H58.582V11.9531H59.6074V24.1074ZM57.1465 23.4785H56.1348V17.668H54.2207V16.752H56.1348V12.2539H57.1465V23.4785Z" fill="#1A1A1A"/>
</g>
<g id="Frame 89">
<mask id="path-4-inside-2_197_5893" fill="white">
<path d="M98.25 0H196.5V36H98.25V0Z"/>
</mask>
<path d="M196.5 36V35H98.25V36V37H196.5V36Z" fill="#C8DEC9" mask="url(#path-4-inside-2_197_5893)"/>
<path id="&#237;&#149;&#173;&#234;&#179;&#181;" d="M144.869 15.3438H146.701V16.2598H144.869V19.8008H143.803V11.9531H144.869V15.3438ZM141.027 19.8828C141.848 19.8828 142.556 19.9671 143.153 20.1357C143.75 20.2998 144.208 20.5413 144.527 20.8604C144.846 21.1748 145.006 21.5508 145.006 21.9883C145.006 22.4258 144.846 22.8018 144.527 23.1162C144.208 23.4307 143.75 23.6699 143.153 23.834C142.556 23.998 141.848 24.0801 141.027 24.0801C140.202 24.0801 139.492 23.998 138.895 23.834C138.298 23.6699 137.84 23.4307 137.521 23.1162C137.201 22.8018 137.044 22.4258 137.049 21.9883C137.044 21.5508 137.201 21.1748 137.521 20.8604C137.84 20.5413 138.298 20.2998 138.895 20.1357C139.496 19.9671 140.207 19.8828 141.027 19.8828ZM141.027 20.7305C140.111 20.7305 139.396 20.8398 138.881 21.0586C138.366 21.2773 138.111 21.5872 138.115 21.9883C138.111 22.248 138.225 22.4736 138.457 22.665C138.689 22.8519 139.024 22.9954 139.462 23.0957C139.904 23.196 140.426 23.2461 141.027 23.2461C141.629 23.2461 142.148 23.196 142.586 23.0957C143.023 22.9954 143.358 22.8519 143.591 22.665C143.823 22.4782 143.939 22.2526 143.939 21.9883C143.939 21.5872 143.682 21.2773 143.167 21.0586C142.657 20.8398 141.943 20.7305 141.027 20.7305ZM142.641 14.1953H135.395V13.3477H138.484V11.8574H139.551V13.3477H142.641V14.1953ZM139.018 14.8242C139.596 14.8242 140.104 14.9131 140.542 15.0908C140.984 15.2686 141.326 15.5192 141.567 15.8428C141.813 16.1663 141.939 16.5423 141.943 16.9707C141.939 17.4036 141.813 17.7819 141.567 18.1055C141.326 18.429 140.984 18.6797 140.542 18.8574C140.104 19.0306 139.596 19.1172 139.018 19.1172C138.434 19.1172 137.919 19.0306 137.473 18.8574C137.031 18.6797 136.689 18.429 136.447 18.1055C136.206 17.7819 136.087 17.4036 136.092 16.9707C136.087 16.5423 136.206 16.1663 136.447 15.8428C136.689 15.5192 137.031 15.2686 137.473 15.0908C137.919 14.9131 138.434 14.8242 139.018 14.8242ZM139.018 15.6309C138.639 15.6354 138.304 15.6947 138.013 15.8086C137.726 15.918 137.502 16.0752 137.343 16.2803C137.188 16.4808 137.113 16.7109 137.117 16.9707C137.113 17.2305 137.188 17.4606 137.343 17.6611C137.502 17.8571 137.726 18.0098 138.013 18.1191C138.304 18.2285 138.639 18.2832 139.018 18.2832C139.391 18.2832 139.722 18.2285 140.009 18.1191C140.3 18.0098 140.526 17.8571 140.686 17.6611C140.845 17.4606 140.927 17.2305 140.932 16.9707C140.927 16.7109 140.845 16.4808 140.686 16.2803C140.526 16.0752 140.3 15.918 140.009 15.8086C139.722 15.6947 139.391 15.6354 139.018 15.6309ZM152.963 19.6367C153.833 19.6367 154.588 19.7256 155.226 19.9033C155.868 20.0765 156.363 20.3317 156.709 20.6689C157.055 21.0016 157.229 21.4004 157.229 21.8652C157.229 22.3255 157.055 22.722 156.709 23.0547C156.363 23.3874 155.868 23.6403 155.226 23.8135C154.583 23.9912 153.829 24.0801 152.963 24.0801C152.097 24.0801 151.345 23.9912 150.707 23.8135C150.069 23.6403 149.577 23.3874 149.23 23.0547C148.884 22.722 148.711 22.3255 148.711 21.8652C148.711 21.4004 148.884 21.0016 149.23 20.6689C149.577 20.3317 150.069 20.0765 150.707 19.9033C151.345 19.7256 152.097 19.6367 152.963 19.6367ZM152.963 20.457C152.32 20.4616 151.757 20.5208 151.274 20.6348C150.791 20.7487 150.42 20.9128 150.16 21.127C149.9 21.3366 149.773 21.5827 149.777 21.8652C149.773 22.1432 149.9 22.387 150.16 22.5967C150.42 22.8018 150.791 22.959 151.274 23.0684C151.757 23.1777 152.32 23.2324 152.963 23.2324C153.605 23.2324 154.166 23.1777 154.645 23.0684C155.128 22.959 155.499 22.8018 155.759 22.5967C156.023 22.387 156.158 22.1432 156.162 21.8652C156.158 21.5827 156.023 21.3366 155.759 21.127C155.499 20.9128 155.128 20.7487 154.645 20.6348C154.166 20.5208 153.605 20.4616 152.963 20.457ZM157.133 13.6074C157.133 14.2637 157.112 14.8265 157.071 15.2959C157.035 15.7607 156.941 16.2734 156.791 16.834L155.738 16.7109C155.884 16.1504 155.975 15.6491 156.012 15.207C156.048 14.765 156.066 14.2318 156.066 13.6074V13.457H148.793V12.582H157.133V13.6074ZM158.541 18.502H147.48V17.627H152.061V15.2754H153.113V17.627H158.541V18.502Z" fill="#B0ADA7"/>
</g>
<g id="Frame 90">
<mask id="path-7-inside-3_197_5893" fill="white">
<path d="M196.5 0H294.75V36H196.5V0Z"/>
</mask>
<path d="M294.75 36V35H196.5V36V37H294.75V36Z" fill="#C8DEC9" mask="url(#path-7-inside-3_197_5893)"/>
<path id="&#236;&#136;&#153;&#236;&#134;&#140;" d="M239.715 12.6914C239.715 13.1882 239.924 13.6644 240.344 14.1201C240.763 14.5713 241.308 14.9564 241.978 15.2754C242.647 15.5898 243.342 15.7995 244.062 15.9043L243.639 16.7383C243.01 16.638 242.399 16.4671 241.807 16.2256C241.219 15.9795 240.692 15.6742 240.228 15.3096C239.767 14.945 239.412 14.5394 239.161 14.0928C238.91 14.5439 238.553 14.9518 238.088 15.3164C237.623 15.6764 237.094 15.9795 236.502 16.2256C235.914 16.4671 235.303 16.638 234.67 16.7383L234.26 15.9043C234.984 15.7995 235.682 15.5898 236.352 15.2754C237.021 14.9609 237.564 14.5781 237.979 14.127C238.398 13.6712 238.607 13.1927 238.607 12.6914V12.1172H239.715V12.6914ZM244.691 18.5977H239.674V20.1562H243.324V24.1074H242.244V21.0312H234.848V20.1562H238.621V18.5977H233.617V17.709H244.691V18.5977ZM256.846 22.5215H245.717V21.6328H250.693V18.6523H251.746V21.6328H256.846V22.5215ZM251.773 13.7168C251.773 14.3639 251.997 14.986 252.443 15.583C252.895 16.18 253.469 16.6859 254.166 17.1006C254.868 17.5107 255.579 17.7773 256.299 17.9004L255.82 18.7891C255.191 18.6615 254.574 18.4404 253.968 18.126C253.362 17.8115 252.815 17.4196 252.327 16.9502C251.844 16.4808 251.475 15.9635 251.22 15.3984C250.965 15.9635 250.595 16.4808 250.112 16.9502C249.629 17.4196 249.085 17.8115 248.479 18.126C247.877 18.4404 247.262 18.6615 246.633 18.7891L246.154 17.9004C246.874 17.7773 247.581 17.5107 248.273 17.1006C248.971 16.6859 249.54 16.1823 249.982 15.5898C250.429 14.9928 250.652 14.3685 250.652 13.7168V12.7871H251.773V13.7168Z" fill="#B0ADA7"/>
</g>
<g id="Frame 91">
<mask id="path-10-inside-4_197_5893" fill="white">
<path d="M294.75 0H393V36H294.75V0Z"/>
</mask>
<path d="M393 36V35H294.75V36V37H393V36Z" fill="#C8DEC9" mask="url(#path-10-inside-4_197_5893)"/>
<path id="&#235;&#160;&#140;&#237;&#138;&#184;&#236;&#185;&#180;" d="M330.734 16.4238H327.48V18.3379C328.342 18.3333 329.089 18.3083 329.723 18.2627C330.361 18.2126 331.017 18.1191 331.691 17.9824L331.814 18.8574C331.081 18.9987 330.37 19.0944 329.682 19.1445C328.998 19.1901 328.173 19.2129 327.207 19.2129H326.428V15.6035H329.695V13.8125H326.4V12.9512H330.734V16.4238ZM336.189 21.0996H335.164V11.9668H336.189V21.0996ZM333.783 20.7715H332.758V16.2461H331.24V15.3438H332.758V12.1855H333.783V20.7715ZM336.559 23.8477H328.219V20.1836H329.285V22.9453H336.559V23.8477ZM347.811 19.4043H339.402V13.0059H347.674V13.9082H340.496V15.7129H347.414V16.5742H340.496V18.5293H347.811V19.4043ZM349.096 22.5215H337.967V21.6328H349.096V22.5215ZM356.369 13.2246C356.365 14.487 356.194 15.6514 355.856 16.7178C355.519 17.7796 354.94 18.7708 354.12 19.6914C353.3 20.6074 352.19 21.4095 350.791 22.0977L350.189 21.2773C351.306 20.7396 352.224 20.1243 352.944 19.4316C353.664 18.7344 354.214 17.9642 354.592 17.1211L350.422 17.5176L350.244 16.5742L354.92 16.2598C355.125 15.5944 355.253 14.8789 355.303 14.1133H350.859V13.2246H356.369ZM359.473 16.9023H361.441V17.8047H359.473V24.1074H358.406V11.9531H359.473V16.9023Z" fill="#B0ADA7"/>
</g>
</g>
<defs>
<clipPath id="clip0_197_5893">
<rect width="393" height="36" fill="white"/>
</clipPath>
</defs>
</svg>
