<svg width="393" height="83" viewBox="0 0 393 83" fill="none" xmlns="http://www.w3.org/2000/svg">
<g id="Property 1=Dark">
<rect x="0.5" y="0.5" width="391.723" height="81.1913" fill="#262B28"/>
<rect x="0.5" y="0.5" width="391.723" height="81.1913" stroke="#373F3B"/>
<g id="Container">
<g id="Text Input">
<path d="M32 16.7385H308.746C317.375 16.7388 324.371 23.7342 324.371 32.3635V49.8284C324.371 58.4575 317.375 65.4531 308.746 65.4534H32C23.3707 65.4534 16.3752 58.4576 16.375 49.8284V32.3635C16.375 23.7341 23.3706 16.7385 32 16.7385Z" fill="#161A18"/>
<path d="M32 16.7385H308.746C317.375 16.7388 324.371 23.7342 324.371 32.3635V49.8284C324.371 58.4575 317.375 65.4531 308.746 65.4534H32C23.3707 65.4534 16.3752 58.4576 16.375 49.8284V32.3635C16.375 23.7341 23.3706 16.7385 32 16.7385Z" stroke="#373F3B" stroke-width="0.75"/>
<path id="&#236;&#151;&#134;&#236;&#150;&#180;. &#236;&#157;&#188;&#236;&#160;&#149; &#236;&#131;&#157;&#236;&#132;&#177;&#237;&#149;&#180;&#236;&#164;&#152;" d="M35.3281 44.3613H37.8594V42.627H39V48.1738H34.1719V42.627H35.3281V44.3613ZM37.8594 47.2051V45.2988H35.3281V47.2051H37.8594ZM42.9688 43.7207C42.9635 44.2207 43.0573 44.7103 43.25 45.1895C43.4479 45.6634 43.7396 46.0905 44.125 46.4707C44.5156 46.8509 44.9844 47.1426 45.5312 47.3457L44.8906 48.2832C44.2708 48.0332 43.7448 47.679 43.3125 47.2207C42.8854 46.7624 42.5625 46.2337 42.3438 45.6348C42.1146 46.2233 41.7865 46.7467 41.3594 47.2051C40.9323 47.6686 40.4219 48.028 39.8281 48.2832L39.1875 47.3457C39.7292 47.1217 40.1927 46.8171 40.5781 46.4316C40.9635 46.0462 41.2552 45.6191 41.4531 45.1504C41.651 44.6764 41.75 44.1999 41.75 43.7207V42.5332H42.9688V43.7207ZM36.3906 35.0957C37.0052 35.0957 37.5651 35.2051 38.0703 35.4238C38.5755 35.6426 38.9896 35.9551 39.3125 36.3613C39.6406 36.7624 39.849 37.2259 39.9375 37.752H42.8438V34.4707H44.0781V41.8301H42.8438V38.7676H39.9453C39.8672 39.3092 39.6641 39.7858 39.3359 40.1973C39.013 40.6087 38.5964 40.9264 38.0859 41.1504C37.5755 41.3743 37.0104 41.4863 36.3906 41.4863C35.6927 41.4863 35.0703 41.3535 34.5234 41.0879C33.9766 40.8171 33.5495 40.4395 33.2422 39.9551C32.9349 39.4655 32.7812 38.9082 32.7812 38.2832C32.7812 37.6634 32.9349 37.1113 33.2422 36.627C33.5495 36.1426 33.9766 35.7676 34.5234 35.502C35.0703 35.2311 35.6927 35.0957 36.3906 35.0957ZM36.3906 36.127C35.9219 36.127 35.5026 36.2181 35.1328 36.4004C34.763 36.5827 34.474 36.8379 34.2656 37.166C34.0573 37.4941 33.9531 37.8665 33.9531 38.2832C33.9531 38.7051 34.0573 39.0827 34.2656 39.416C34.474 39.7441 34.763 40.002 35.1328 40.1895C35.5026 40.377 35.9219 40.4707 36.3906 40.4707C36.8542 40.4707 37.2682 40.377 37.6328 40.1895C37.9974 40.002 38.2812 39.7441 38.4844 39.416C38.6927 39.0827 38.7969 38.7051 38.7969 38.2832C38.7969 37.8665 38.6927 37.4941 38.4844 37.166C38.2812 36.8379 37.9974 36.5827 37.6328 36.4004C37.2682 36.2181 36.8542 36.127 36.3906 36.127ZM50.125 35.5488C50.75 35.554 51.3099 35.7285 51.8047 36.0723C52.3047 36.416 52.7083 36.9056 53.0156 37.541C53.3229 38.1764 53.5078 38.9238 53.5703 39.7832H56.6875V34.4707H57.9062V48.3926H56.6875V40.7988H53.5859C53.5391 41.6947 53.3646 42.4759 53.0625 43.1426C52.7604 43.8092 52.3542 44.3223 51.8438 44.6816C51.3385 45.041 50.7656 45.2207 50.125 45.2207C49.4479 45.2207 48.8438 45.0228 48.3125 44.627C47.7865 44.2311 47.375 43.6686 47.0781 42.9395C46.7865 42.2103 46.6406 41.3613 46.6406 40.3926C46.6406 39.4238 46.7865 38.5749 47.0781 37.8457C47.375 37.1165 47.7865 36.554 48.3125 36.1582C48.8385 35.7572 49.4427 35.554 50.125 35.5488ZM50.125 36.6426C49.6719 36.6478 49.2682 36.8066 48.9141 37.1191C48.5651 37.4264 48.2943 37.8639 48.1016 38.4316C47.9089 38.9941 47.8125 39.6478 47.8125 40.3926C47.8125 41.1374 47.9089 41.7936 48.1016 42.3613C48.2943 42.9238 48.5651 43.3587 48.9141 43.666C49.2682 43.9733 49.6719 44.127 50.125 44.127C50.5729 44.127 50.9714 43.9733 51.3203 43.666C51.6745 43.3587 51.9479 42.9238 52.1406 42.3613C52.3385 41.7936 52.4375 41.1374 52.4375 40.3926C52.4375 39.6478 52.3385 38.9941 52.1406 38.4316C51.9479 37.8639 51.6771 37.4264 51.3281 37.1191C50.9792 36.8066 50.5781 36.6478 50.125 36.6426ZM61.6875 47.1895C61.5052 47.1895 61.3359 47.1452 61.1797 47.0566C61.0286 46.9629 60.9062 46.8379 60.8125 46.6816C60.724 46.5254 60.6823 46.3561 60.6875 46.1738C60.6823 45.9967 60.724 45.8327 60.8125 45.6816C60.9062 45.5254 61.0286 45.403 61.1797 45.3145C61.3359 45.2207 61.5052 45.1738 61.6875 45.1738C61.8646 45.1738 62.0286 45.2207 62.1797 45.3145C62.3359 45.403 62.4583 45.5254 62.5469 45.6816C62.6406 45.8327 62.6875 45.9967 62.6875 46.1738C62.6875 46.3561 62.6406 46.5254 62.5469 46.6816C62.4583 46.8379 62.3359 46.9629 62.1797 47.0566C62.0286 47.1452 61.8646 47.1895 61.6875 47.1895ZM72.2031 34.9863C72.8906 34.9915 73.5052 35.1243 74.0469 35.3848C74.5938 35.6452 75.0208 36.0098 75.3281 36.4785C75.6406 36.9421 75.7969 37.4707 75.7969 38.0645C75.7969 38.6582 75.6406 39.1895 75.3281 39.6582C75.0208 40.1217 74.5938 40.4837 74.0469 40.7441C73.5052 40.9993 72.8906 41.127 72.2031 41.127C71.5052 41.127 70.8828 40.9993 70.3359 40.7441C69.7891 40.4837 69.362 40.1217 69.0547 39.6582C68.7474 39.1895 68.5938 38.6582 68.5938 38.0645C68.5938 37.4707 68.7474 36.9421 69.0547 36.4785C69.362 36.0098 69.7891 35.6452 70.3359 35.3848C70.8828 35.1243 71.5052 34.9915 72.2031 34.9863ZM72.2031 36.0176C71.7448 36.0176 71.3307 36.1061 70.9609 36.2832C70.5964 36.4551 70.3099 36.6973 70.1016 37.0098C69.8932 37.3171 69.7917 37.6686 69.7969 38.0645C69.7917 38.4655 69.8932 38.8223 70.1016 39.1348C70.3099 39.4473 70.5964 39.6921 70.9609 39.8691C71.3307 40.041 71.7448 40.127 72.2031 40.127C72.6562 40.127 73.0651 40.041 73.4297 39.8691C73.7995 39.6921 74.0885 39.4473 74.2969 39.1348C74.5052 38.8223 74.6094 38.4655 74.6094 38.0645C74.6094 37.6686 74.5052 37.3171 74.2969 37.0098C74.0885 36.6973 73.7995 36.4551 73.4297 36.2832C73.0651 36.1061 72.6562 36.0176 72.2031 36.0176ZM79.7344 41.6113H78.5156V34.4707H79.7344V41.6113ZM79.7344 45.627H71.9375V47.1895H80.2344V48.1738H70.7344V44.7051H78.5156V43.2676H70.7031V42.2832H79.7344V45.627ZM93.6094 42.752H92.375V39.1113H89.5781V38.0957H92.375V34.4707H93.6094V42.752ZM89 43.1895C89.9635 43.1895 90.7943 43.291 91.4922 43.4941C92.1901 43.6973 92.724 43.9915 93.0938 44.377C93.4688 44.7624 93.6562 45.2259 93.6562 45.7676C93.6562 46.3092 93.4688 46.7728 93.0938 47.1582C92.724 47.5488 92.1901 47.8457 91.4922 48.0488C90.7943 48.252 89.9635 48.3561 89 48.3613C88.0365 48.3561 87.2057 48.252 86.5078 48.0488C85.8099 47.8457 85.2734 47.5488 84.8984 47.1582C84.5286 46.7728 84.3438 46.3092 84.3438 45.7676C84.3438 45.2259 84.5286 44.7624 84.8984 44.377C85.2734 43.9915 85.8099 43.6973 86.5078 43.4941C87.2057 43.291 88.0365 43.1895 89 43.1895ZM89 44.1426C88.2969 44.1426 87.6849 44.2077 87.1641 44.3379C86.6432 44.4681 86.2448 44.6556 85.9688 44.9004C85.6927 45.1452 85.5573 45.4342 85.5625 45.7676C85.5573 46.0957 85.6927 46.3822 85.9688 46.627C86.2448 46.8665 86.6432 47.0514 87.1641 47.1816C87.6849 47.3118 88.2969 47.377 89 47.377C89.7031 47.377 90.3125 47.3118 90.8281 47.1816C91.349 47.0514 91.7474 46.8665 92.0234 46.627C92.2995 46.3822 92.4375 46.0957 92.4375 45.7676C92.4375 45.4342 92.2995 45.1452 92.0234 44.9004C91.7474 44.6556 91.349 44.4681 90.8281 44.3379C90.3125 44.2077 89.7031 44.1426 89 44.1426ZM86.9219 37.0176C86.9219 37.6165 87.0651 38.1973 87.3516 38.7598C87.638 39.3171 88.0391 39.8145 88.5547 40.252C89.0755 40.6842 89.6719 41.0176 90.3438 41.252L89.7031 42.2363C88.9271 41.9551 88.2448 41.5384 87.6562 40.9863C87.0729 40.4342 86.6328 39.7962 86.3359 39.0723C86.0339 39.8848 85.5729 40.6035 84.9531 41.2285C84.3385 41.8483 83.6198 42.3145 82.7969 42.627L82.1562 41.6426C82.8385 41.3926 83.4479 41.0332 83.9844 40.5645C84.5208 40.0905 84.9375 39.5462 85.2344 38.9316C85.5365 38.3171 85.6875 37.6842 85.6875 37.0332V36.5176H82.5469V35.4863H90.0312V36.5176H86.9219V37.0176ZM104.078 37.2363C104.078 37.7467 104.193 38.2493 104.422 38.7441C104.656 39.2389 104.99 39.6842 105.422 40.0801C105.854 40.4759 106.359 40.7832 106.938 41.002L106.297 41.9395C105.641 41.6842 105.073 41.3223 104.594 40.8535C104.12 40.3848 103.755 39.8457 103.5 39.2363C103.234 39.9238 102.854 40.541 102.359 41.0879C101.865 41.6296 101.286 42.0436 100.625 42.3301L99.9531 41.377C100.547 41.1165 101.065 40.7624 101.508 40.3145C101.956 39.8613 102.299 39.3665 102.539 38.8301C102.784 38.2884 102.906 37.7572 102.906 37.2363V35.3457H104.078V37.2363ZM111.734 43.0645H110.562V39.2363H108.719V42.627H107.562V34.752H108.719V38.2207H110.562V34.4863H111.734V43.0645ZM107.141 43.377C108.099 43.377 108.927 43.4759 109.625 43.6738C110.328 43.8665 110.867 44.1504 111.242 44.5254C111.622 44.8952 111.812 45.3405 111.812 45.8613C111.812 46.377 111.622 46.8197 111.242 47.1895C110.867 47.5592 110.328 47.8405 109.625 48.0332C108.927 48.2311 108.099 48.3301 107.141 48.3301C106.182 48.3301 105.352 48.2311 104.648 48.0332C103.945 47.8405 103.406 47.5592 103.031 47.1895C102.661 46.8197 102.479 46.377 102.484 45.8613C102.479 45.3405 102.661 44.8952 103.031 44.5254C103.406 44.1504 103.943 43.8665 104.641 43.6738C105.344 43.4759 106.177 43.377 107.141 43.377ZM107.141 44.3145C106.438 44.3145 105.826 44.377 105.305 44.502C104.784 44.6217 104.385 44.7988 104.109 45.0332C103.833 45.2676 103.698 45.5436 103.703 45.8613C103.698 46.1738 103.833 46.4447 104.109 46.6738C104.385 46.903 104.781 47.0775 105.297 47.1973C105.818 47.3171 106.432 47.377 107.141 47.377C107.844 47.377 108.453 47.3171 108.969 47.1973C109.484 47.0775 109.883 46.903 110.164 46.6738C110.445 46.4447 110.589 46.1738 110.594 45.8613C110.589 45.5436 110.445 45.2676 110.164 45.0332C109.883 44.7988 109.482 44.6217 108.961 44.502C108.445 44.377 107.839 44.3145 107.141 44.3145ZM118.547 36.6582C118.542 37.3092 118.682 37.9316 118.969 38.5254C119.255 39.1139 119.659 39.6296 120.18 40.0723C120.706 40.515 121.307 40.8509 121.984 41.0801L121.297 42.0332C120.526 41.7415 119.852 41.3223 119.273 40.7754C118.695 40.2285 118.258 39.5905 117.961 38.8613C117.664 39.6947 117.208 40.4238 116.594 41.0488C115.979 41.6686 115.255 42.1374 114.422 42.4551L113.75 41.4551C114.458 41.2051 115.081 40.8457 115.617 40.377C116.159 39.903 116.578 39.3509 116.875 38.7207C117.172 38.0853 117.323 37.4134 117.328 36.7051V35.2676H118.547V36.6582ZM125.281 42.7051H124.047V38.4707H120.953V37.4551H124.047V34.4707H125.281V42.7051ZM120.672 43.1113C121.635 43.1113 122.466 43.2155 123.164 43.4238C123.862 43.627 124.396 43.9264 124.766 44.3223C125.141 44.7129 125.328 45.1842 125.328 45.7363C125.328 46.2832 125.141 46.7493 124.766 47.1348C124.396 47.5254 123.862 47.8223 123.164 48.0254C122.466 48.2285 121.635 48.3301 120.672 48.3301C119.708 48.3301 118.878 48.2285 118.18 48.0254C117.482 47.8223 116.945 47.5254 116.57 47.1348C116.201 46.7493 116.016 46.2832 116.016 45.7363C116.016 45.1842 116.201 44.7129 116.57 44.3223C116.945 43.9264 117.482 43.627 118.18 43.4238C118.878 43.2155 119.708 43.1113 120.672 43.1113ZM120.672 44.0801C119.969 44.0801 119.357 44.1478 118.836 44.2832C118.315 44.4134 117.917 44.6035 117.641 44.8535C117.365 45.1035 117.229 45.3978 117.234 45.7363C117.229 46.0645 117.365 46.3509 117.641 46.5957C117.917 46.8353 118.315 47.0202 118.836 47.1504C119.357 47.2806 119.969 47.3457 120.672 47.3457C121.375 47.3457 121.984 47.2806 122.5 47.1504C123.021 47.0202 123.419 46.8353 123.695 46.5957C123.971 46.3509 124.109 46.0645 124.109 45.7363C124.109 45.3978 123.971 45.1035 123.695 44.8535C123.419 44.6035 123.021 44.4134 122.5 44.2832C121.984 44.1478 121.375 44.0801 120.672 44.0801ZM134.531 37.877H127.562V36.877H130.453V34.8926H131.672V36.877H134.531V37.877ZM131.047 38.8145C131.625 38.8145 132.141 38.9499 132.594 39.2207C133.052 39.4863 133.409 39.8587 133.664 40.3379C133.924 40.8171 134.057 41.3613 134.062 41.9707C134.057 42.5853 133.924 43.1348 133.664 43.6191C133.409 44.0983 133.052 44.4759 132.594 44.752C132.141 45.0228 131.625 45.1582 131.047 45.1582C130.474 45.1582 129.961 45.0228 129.508 44.752C129.055 44.4759 128.701 44.0957 128.445 43.6113C128.19 43.127 128.062 42.5801 128.062 41.9707C128.062 41.3665 128.19 40.8249 128.445 40.3457C128.701 39.8613 129.055 39.4863 129.508 39.2207C129.961 38.9499 130.474 38.8145 131.047 38.8145ZM131.047 39.8457C130.688 39.8509 130.362 39.9473 130.07 40.1348C129.784 40.3171 129.56 40.5697 129.398 40.8926C129.237 41.2103 129.156 41.5697 129.156 41.9707C129.156 42.377 129.237 42.7415 129.398 43.0645C129.565 43.3874 129.792 43.64 130.078 43.8223C130.365 43.9993 130.688 44.0853 131.047 44.0801C131.411 44.0853 131.74 43.9993 132.031 43.8223C132.323 43.64 132.552 43.3874 132.719 43.0645C132.885 42.7415 132.969 42.377 132.969 41.9707C132.969 41.5697 132.885 41.2103 132.719 40.8926C132.552 40.5697 132.323 40.3171 132.031 40.1348C131.74 39.9473 131.411 39.8509 131.047 39.8457ZM139.422 48.3613H138.25V41.3457H136.406V47.6738H135.25V34.8145H136.406V40.3301H138.25V34.4707H139.422V48.3613ZM146.531 36.7676C146.531 37.1947 146.68 37.6035 146.977 37.9941C147.273 38.3796 147.682 38.7129 148.203 38.9941C148.729 39.2754 149.323 39.4811 149.984 39.6113L149.484 40.5645C148.667 40.3874 147.948 40.1035 147.328 39.7129C146.714 39.3223 146.25 38.8535 145.938 38.3066C145.63 38.9056 145.161 39.4212 144.531 39.8535C143.901 40.2806 143.161 40.5905 142.312 40.7832L141.797 39.8301C142.474 39.6895 143.078 39.4681 143.609 39.166C144.141 38.8587 144.555 38.4993 144.852 38.0879C145.148 37.6712 145.297 37.2311 145.297 36.7676V36.5176H142.266V35.502H149.625V36.5176H146.531V36.7676ZM152.922 48.377H151.672V45.002H148.469V44.0488H151.672V34.4863H152.922V48.377ZM142.297 41.8926C143.823 41.8926 145.279 41.8613 146.664 41.7988C148.055 41.7363 149.359 41.6165 150.578 41.4395L150.656 42.3613C149.396 42.5801 148.005 42.7311 146.484 42.8145V47.9395H145.25V42.877C144.375 42.9186 143.135 42.9447 141.531 42.9551L141.359 41.8926H142.297Z" fill="#E8E4DC"/>
</g>
<g id="ChatSendButton - enabled" filter="url(#filter0_dd_48_638)">
<path d="M332.74 35.1045C332.74 26.2679 339.904 19.1045 348.74 19.1045H360.723C369.559 19.1045 376.723 26.2679 376.723 35.1045V47.0871C376.723 55.9237 369.559 63.0871 360.723 63.0871H348.74C339.904 63.0871 332.74 55.9237 332.74 47.0871V35.1045Z" fill="#5E9E72"/>
<path d="M348.74 19.6045H360.723C369.283 19.6045 376.223 26.5441 376.223 35.1045V47.0869C376.223 55.6473 369.283 62.5869 360.723 62.5869H348.74C340.18 62.5869 333.24 55.6473 333.24 47.0869V35.1045C333.24 26.5441 340.18 19.6045 348.74 19.6045Z" stroke="#373F3B"/>
<g id="Icon">
<path id="Vector" d="M356.845 49.1671C356.877 49.246 356.932 49.3133 357.003 49.36C357.074 49.4067 357.157 49.4306 357.242 49.4284C357.327 49.4262 357.409 49.3981 357.478 49.3478C357.547 49.2975 357.598 49.2275 357.626 49.1471L363.042 33.3149C363.069 33.2411 363.074 33.1612 363.057 33.0846C363.039 33.008 363.001 32.9378 362.945 32.8823C362.89 32.8268 362.82 32.7882 362.743 32.7711C362.667 32.7541 362.587 32.7591 362.513 32.7858L346.681 38.2021C346.6 38.2296 346.53 38.2812 346.48 38.3497C346.43 38.4182 346.401 38.5005 346.399 38.5855C346.397 38.6705 346.421 38.7541 346.468 38.8251C346.514 38.8961 346.582 38.9512 346.661 38.9828L353.268 41.6326C353.477 41.7163 353.667 41.8413 353.826 42.0003C353.986 42.1593 354.111 42.3488 354.195 42.5576L356.845 49.1671Z" stroke="#FAFAF7" stroke-width="1.66654" stroke-linecap="round" stroke-linejoin="round"/>
<path id="Vector_2" d="M362.943 32.8857L353.827 42.0009" stroke="#FAFAF7" stroke-width="1.66654" stroke-linecap="round" stroke-linejoin="round"/>
</g>
</g>
</g>
</g>
<defs>
<filter id="filter0_dd_48_638" x="324.74" y="13.1045" width="59.9827" height="59.9827" filterUnits="userSpaceOnUse" color-interpolation-filters="sRGB">
<feFlood flood-opacity="0" result="BackgroundImageFix"/>
<feColorMatrix in="SourceAlpha" type="matrix" values="0 0 0 0 0 0 0 0 0 0 0 0 0 0 0 0 0 0 127 0" result="hardAlpha"/>
<feOffset dy="2"/>
<feGaussianBlur stdDeviation="4"/>
<feColorMatrix type="matrix" values="0 0 0 0 0 0 0 0 0 0 0 0 0 0 0 0 0 0 0.3 0"/>
<feBlend mode="normal" in2="BackgroundImageFix" result="effect1_dropShadow_48_638"/>
<feColorMatrix in="SourceAlpha" type="matrix" values="0 0 0 0 0 0 0 0 0 0 0 0 0 0 0 0 0 0 127 0" result="hardAlpha"/>
<feOffset dy="1"/>
<feGaussianBlur stdDeviation="1"/>
<feColorMatrix type="matrix" values="0 0 0 0 0 0 0 0 0 0 0 0 0 0 0 0 0 0 0.15 0"/>
<feBlend mode="normal" in2="effect1_dropShadow_48_638" result="effect2_dropShadow_48_638"/>
<feBlend mode="normal" in="SourceGraphic" in2="effect2_dropShadow_48_638" result="shape"/>
</filter>
</defs>
</svg>
