<svg width="393" height="83" viewBox="0 0 393 83" fill="none" xmlns="http://www.w3.org/2000/svg">
<g id="Property 1=Dark">
<mask id="path-1-inside-1_48_491" fill="white">
<path d="M0 0H392.723V82.1913H0V0Z"/>
</mask>
<path d="M0 0H392.723V82.1913H0V0Z" fill="#262B28"/>
<path d="M0 0V1H392.723V0V-1H0V0Z" fill="#373F3B" mask="url(#path-1-inside-1_48_491)"/>
<g id="Container">
<g id="Text Input">
<path d="M32 16.7385H308.746C317.375 16.7388 324.371 23.7342 324.371 32.3635V49.8284C324.371 58.4575 317.375 65.4531 308.746 65.4534H32C23.3707 65.4534 16.3752 58.4576 16.375 49.8284V32.3635C16.375 23.7341 23.3706 16.7385 32 16.7385Z" fill="#161A18"/>
<path d="M32 16.7385H308.746C317.375 16.7388 324.371 23.7342 324.371 32.3635V49.8284C324.371 58.4575 317.375 65.4531 308.746 65.4534H32C23.3707 65.4534 16.3752 58.4576 16.375 49.8284V32.3635C16.375 23.7341 23.3706 16.7385 32 16.7385Z" stroke="#373F3B" stroke-width="0.75"/>
<path id="&#235;&#169;&#148;&#236;&#139;&#156;&#236;&#167;&#128;&#235;&#165;&#188; &#236;&#158;&#133;&#235;&#160;&#165;&#237;&#149;&#152;&#236;&#132;&#184;&#236;&#154;&#148;" d="M38.3906 39.7207H40.5V34.7676H41.6719V47.6582H40.5V40.7363H38.3906V44.627H33.0781V36.0957H38.3906V39.7207ZM34.2344 43.6426H37.2344V37.0801H34.2344V43.6426ZM44.4688 48.3613H43.2812V34.4707H44.4688V48.3613ZM51.3281 38.2051C51.3229 39.028 51.4896 39.8457 51.8281 40.6582C52.1667 41.4655 52.625 42.1842 53.2031 42.8145C53.7812 43.4447 54.4115 43.9134 55.0938 44.2207L54.3438 45.1895C53.5521 44.7988 52.8333 44.2181 52.1875 43.4473C51.5469 42.6712 51.0625 41.791 50.7344 40.8066C50.4115 41.8535 49.9271 42.791 49.2812 43.6191C48.6354 44.4421 47.9062 45.0592 47.0938 45.4707L46.3125 44.4395C46.9948 44.1217 47.625 43.64 48.2031 42.9941C48.7812 42.3431 49.2422 41.5983 49.5859 40.7598C49.9297 39.916 50.1042 39.0645 50.1094 38.2051V35.6738H51.3281V38.2051ZM57.8438 48.3926H56.6094V34.4707H57.8438V48.3926ZM65.1875 38.7363C65.1875 39.502 65.3568 40.265 65.6953 41.0254C66.0339 41.7806 66.4896 42.4551 67.0625 43.0488C67.6406 43.6374 68.2708 44.0801 68.9531 44.377L68.2656 45.3457C67.4479 44.9707 66.7109 44.4056 66.0547 43.6504C65.3984 42.89 64.9089 42.0332 64.5859 41.0801C64.263 42.1009 63.7734 43.0254 63.1172 43.8535C62.4661 44.6764 61.7448 45.2884 60.9531 45.6895L60.2188 44.7207C60.875 44.403 61.487 43.9238 62.0547 43.2832C62.6276 42.6426 63.0859 41.9212 63.4297 41.1191C63.7734 40.3118 63.9479 39.5176 63.9531 38.7363V36.9238H60.6719V35.9082H68.5V36.9238H65.1875V38.7363ZM71.6719 48.3613H70.4375V34.4707H71.6719V48.3613ZM86.75 41.8926H74.0312V40.9238H86.75V41.8926ZM85.1562 45.9551H76.8125V47.2832H85.6094V48.1738H75.5781V45.1113H83.9375V43.9238H75.5625V43.002H85.1562V45.9551ZM85.1094 37.7676H76.9062V38.9863H85.3594V39.877H75.6875V36.9238H83.875V35.7832H75.6406V34.8926H85.1094V37.7676ZM103.359 41.9238H102.141V34.4707H103.359V41.9238ZM95.5781 44.3145H102.141V42.627H103.359V48.1738H94.3594V42.627H95.5781V44.3145ZM102.141 47.1738V45.2988H95.5781V47.1738H102.141ZM95.8594 35.1582C96.5573 35.153 97.1823 35.2832 97.7344 35.5488C98.2865 35.8145 98.7188 36.1921 99.0312 36.6816C99.3438 37.166 99.5 37.7207 99.5 38.3457C99.5 38.9655 99.3438 39.5176 99.0312 40.002C98.7188 40.4863 98.2865 40.8639 97.7344 41.1348C97.1823 41.4004 96.5573 41.5332 95.8594 41.5332C95.1615 41.5332 94.5365 41.4004 93.9844 41.1348C93.4323 40.8639 93 40.4863 92.6875 40.002C92.375 39.5176 92.2188 38.9655 92.2188 38.3457C92.2188 37.7207 92.375 37.166 92.6875 36.6816C93 36.1921 93.4323 35.8145 93.9844 35.5488C94.5365 35.2832 95.1615 35.153 95.8594 35.1582ZM95.8594 36.1895C95.3906 36.1842 94.9688 36.2754 94.5938 36.4629C94.224 36.6452 93.9349 36.9004 93.7266 37.2285C93.5182 37.5566 93.4167 37.929 93.4219 38.3457C93.4167 38.7624 93.5182 39.1374 93.7266 39.4707C93.9349 39.7988 94.224 40.0566 94.5938 40.2441C94.9688 40.4264 95.3906 40.5176 95.8594 40.5176C96.3229 40.5176 96.7396 40.4264 97.1094 40.2441C97.4792 40.0566 97.7682 39.7988 97.9766 39.4707C98.1901 39.1374 98.2969 38.7624 98.2969 38.3457C98.2969 37.929 98.1901 37.5566 97.9766 37.2285C97.7682 36.9004 97.4792 36.6452 97.1094 36.4629C96.7396 36.2754 96.3229 36.1842 95.8594 36.1895ZM112.312 39.2207H107.531V41.377C108.943 41.377 110.034 41.3561 110.805 41.3145C111.576 41.2728 112.349 41.179 113.125 41.0332L113.25 42.0488C112.422 42.1842 111.594 42.2728 110.766 42.3145C109.943 42.3561 108.786 42.377 107.297 42.377H106.312V38.2832H111.094V36.3145H106.281V35.3301H112.312V39.2207ZM117.234 43.0176H116V40.4395H113.234V39.4238H116V37.5488H113.234V36.5488H116V34.4863H117.234V43.0176ZM117.234 48.3926H116V44.7676H107.875V43.7676H117.234V48.3926ZM130.297 40.2051H132.625V41.2207H130.297V48.3613H129.078V34.4707H130.297V40.2051ZM127.734 37.7207H119.469V36.7051H123.047V34.6426H124.266V36.7051H127.734V37.7207ZM123.672 38.877C124.323 38.877 124.906 39.0124 125.422 39.2832C125.938 39.554 126.341 39.9316 126.633 40.416C126.924 40.9004 127.073 41.4499 127.078 42.0645C127.073 42.679 126.924 43.2285 126.633 43.7129C126.341 44.1973 125.938 44.5749 125.422 44.8457C124.906 45.1165 124.323 45.252 123.672 45.252C123.016 45.252 122.427 45.1165 121.906 44.8457C121.391 44.5749 120.987 44.1973 120.695 43.7129C120.404 43.2285 120.26 42.679 120.266 42.0645C120.26 41.4499 120.404 40.9004 120.695 40.416C120.987 39.9316 121.391 39.554 121.906 39.2832C122.427 39.0124 123.016 38.877 123.672 38.877ZM123.672 39.9082C123.245 39.9082 122.859 40.002 122.516 40.1895C122.177 40.3717 121.911 40.627 121.719 40.9551C121.526 41.2832 121.432 41.653 121.438 42.0645C121.432 42.4811 121.526 42.8535 121.719 43.1816C121.911 43.5046 122.177 43.7572 122.516 43.9395C122.859 44.1217 123.245 44.2103 123.672 44.2051C124.094 44.2103 124.474 44.1217 124.812 43.9395C125.151 43.7572 125.417 43.5046 125.609 43.1816C125.802 42.8535 125.901 42.4811 125.906 42.0645C125.901 41.653 125.802 41.2832 125.609 40.9551C125.417 40.627 125.151 40.3717 124.812 40.1895C124.474 40.002 124.094 39.9082 123.672 39.9082ZM137.5 38.4238C137.5 39.1634 137.617 39.903 137.852 40.6426C138.086 41.3822 138.422 42.0566 138.859 42.666C139.302 43.2754 139.823 43.7572 140.422 44.1113L139.719 45.0645C139.068 44.6686 138.503 44.1243 138.023 43.4316C137.549 42.7337 137.185 41.9499 136.93 41.0801C136.669 42.0176 136.286 42.8613 135.781 43.6113C135.276 44.3613 134.682 44.9447 134 45.3613L133.219 44.4395C133.844 44.0749 134.391 43.5775 134.859 42.9473C135.328 42.3118 135.688 41.6061 135.938 40.8301C136.188 40.0488 136.312 39.2624 136.312 38.4707V35.7832H137.5V38.4238ZM145.281 48.3613H144.094V34.4707H145.281V48.3613ZM142.406 47.6582H141.25V40.502H138.891V39.4551H141.25V34.7676H142.406V47.6582ZM159.922 46.5801H147.203V45.5488H150.359V41.7988C149.755 41.4863 149.286 41.0853 148.953 40.5957C148.62 40.1009 148.453 39.5436 148.453 38.9238C148.453 38.2155 148.669 37.5931 149.102 37.0566C149.534 36.515 150.133 36.0957 150.898 35.7988C151.669 35.502 152.547 35.3509 153.531 35.3457C154.516 35.3509 155.391 35.502 156.156 35.7988C156.927 36.0957 157.529 36.515 157.961 37.0566C158.393 37.5931 158.609 38.2155 158.609 38.9238C158.609 39.5332 158.448 40.0827 158.125 40.5723C157.802 41.0566 157.349 41.4551 156.766 41.7676V45.5488H159.922V46.5801ZM153.531 36.3613C152.776 36.3561 152.104 36.4603 151.516 36.6738C150.927 36.8874 150.466 37.1895 150.133 37.5801C149.805 37.9655 149.641 38.4134 149.641 38.9238C149.641 39.4342 149.805 39.8874 150.133 40.2832C150.466 40.6738 150.927 40.9785 151.516 41.1973C152.104 41.4108 152.776 41.5176 153.531 41.5176C154.281 41.5176 154.951 41.4082 155.539 41.1895C156.128 40.9707 156.589 40.666 156.922 40.2754C157.255 39.8848 157.422 39.4342 157.422 38.9238C157.422 38.4134 157.255 37.9655 156.922 37.5801C156.589 37.1895 156.128 36.8874 155.539 36.6738C154.951 36.4603 154.281 36.3561 153.531 36.3613ZM155.531 45.5488V42.2441C154.911 42.4056 154.245 42.4863 153.531 42.4863C152.812 42.4863 152.156 42.4082 151.562 42.252V45.5488H155.531Z" fill="#4A4845"/>
</g>
<g id="ChatSendButton - disabled">
<path d="M348.74 19.3545H360.723C369.421 19.3545 376.473 26.406 376.473 35.1045V47.0869C376.473 55.7854 369.421 62.8369 360.723 62.8369H348.74C340.042 62.8369 332.99 55.7854 332.99 47.0869V35.1045C332.99 26.406 340.042 19.3545 348.74 19.3545Z" fill="#161A18"/>
<path d="M348.74 19.3545H360.723C369.421 19.3545 376.473 26.406 376.473 35.1045V47.0869C376.473 55.7854 369.421 62.8369 360.723 62.8369H348.74C340.042 62.8369 332.99 55.7854 332.99 47.0869V35.1045C332.99 26.406 340.042 19.3545 348.74 19.3545Z" stroke="#373F3B" stroke-width="0.5"/>
<g id="Icon">
<path id="Vector" d="M356.845 49.1671C356.877 49.246 356.932 49.3133 357.003 49.36C357.074 49.4067 357.157 49.4306 357.242 49.4284C357.327 49.4262 357.409 49.3981 357.478 49.3478C357.547 49.2975 357.598 49.2275 357.626 49.1471L363.042 33.3149C363.069 33.2411 363.074 33.1612 363.057 33.0846C363.039 33.008 363.001 32.9378 362.945 32.8823C362.89 32.8268 362.82 32.7882 362.743 32.7711C362.667 32.7541 362.587 32.7591 362.513 32.7858L346.681 38.2021C346.6 38.2296 346.53 38.2812 346.48 38.3497C346.43 38.4182 346.401 38.5005 346.399 38.5855C346.397 38.6705 346.421 38.7541 346.468 38.8251C346.514 38.8961 346.582 38.9512 346.661 38.9828L353.268 41.6326C353.477 41.7163 353.667 41.8413 353.826 42.0003C353.986 42.1593 354.111 42.3488 354.195 42.5576L356.845 49.1671Z" stroke="#7A7873" stroke-width="1.66654" stroke-linecap="round" stroke-linejoin="round"/>
<path id="Vector_2" d="M362.943 32.8857L353.827 42.0009" stroke="#7A7873" stroke-width="1.66654" stroke-linecap="round" stroke-linejoin="round"/>
</g>
</g>
</g>
</g>
</svg>
