<svg width="349" height="88" viewBox="0 0 349 88" fill="none" xmlns="http://www.w3.org/2000/svg">
<g id="Property 1=Dark">
<g id="Container">
<g id="Text">
<path id="&#236;&#130;&#172;&#236;&#154;&#169;&#236;&#158;&#144;" d="M284.665 9.32422C284.665 9.92188 284.786 10.5195 285.029 11.1172C285.271 11.7109 285.597 12.2422 286.007 12.7109C286.421 13.1797 286.872 13.5352 287.361 13.7773L286.798 14.5156C286.224 14.2148 285.708 13.7734 285.251 13.1914C284.798 12.6094 284.456 11.957 284.226 11.2344C283.995 12.0039 283.648 12.6992 283.183 13.3203C282.718 13.9375 282.193 14.4023 281.607 14.7148L281.021 13.9766C281.525 13.7305 281.984 13.3613 282.398 12.8691C282.816 12.373 283.146 11.8145 283.388 11.1934C283.634 10.5684 283.759 9.94531 283.763 9.32422V7.42578H284.665V9.32422ZM289.236 10.7539H290.982V11.5508H289.236V16.9414H288.322V6.52344H289.236V10.7539ZM301.036 12.4414H291.544V11.6797H293.9V10.2148C293.478 10.0508 293.156 9.83789 292.933 9.57617C292.71 9.31055 292.599 9.00391 292.599 8.65625C292.599 8.25 292.747 7.90234 293.044 7.61328C293.341 7.32422 293.765 7.10352 294.316 6.95117C294.87 6.79883 295.529 6.72266 296.29 6.72266C297.044 6.72266 297.697 6.79883 298.247 6.95117C298.802 7.10352 299.228 7.32422 299.525 7.61328C299.822 7.90234 299.97 8.25 299.97 8.65625C299.97 9 299.859 9.30469 299.636 9.57031C299.417 9.83203 299.099 10.0449 298.681 10.209V11.6797H301.036V12.4414ZM296.29 13.2383C297.036 13.2383 297.677 13.3086 298.212 13.4492C298.747 13.5898 299.157 13.7988 299.443 14.0762C299.728 14.3496 299.872 14.6836 299.876 15.0781C299.872 15.4688 299.728 15.8008 299.443 16.0742C299.157 16.3516 298.747 16.5605 298.212 16.7012C297.677 16.8457 297.036 16.918 296.29 16.918C295.536 16.918 294.89 16.8457 294.351 16.7012C293.816 16.5605 293.406 16.3516 293.12 16.0742C292.835 15.8008 292.693 15.4688 292.693 15.0781C292.693 14.6836 292.833 14.3496 293.115 14.0762C293.4 13.7988 293.812 13.5898 294.351 13.4492C294.89 13.3086 295.536 13.2383 296.29 13.2383ZM296.29 13.9414C295.447 13.9492 294.79 14.0527 294.322 14.252C293.857 14.4473 293.626 14.7227 293.63 15.0781C293.626 15.3125 293.73 15.5137 293.941 15.6816C294.152 15.8496 294.456 15.9785 294.855 16.0684C295.257 16.1582 295.736 16.2031 296.29 16.2031C296.837 16.2031 297.31 16.1582 297.708 16.0684C298.111 15.9785 298.417 15.8496 298.628 15.6816C298.843 15.5137 298.95 15.3125 298.95 15.0781C298.95 14.7227 298.714 14.4473 298.241 14.252C297.773 14.0527 297.122 13.9492 296.29 13.9414ZM296.29 7.44922C295.728 7.44922 295.24 7.49805 294.825 7.5957C294.411 7.69336 294.093 7.83398 293.87 8.01758C293.652 8.19727 293.544 8.41016 293.548 8.65625C293.544 8.90625 293.652 9.12305 293.87 9.30664C294.093 9.48633 294.409 9.625 294.82 9.72266C295.234 9.81641 295.724 9.86328 296.29 9.86328C296.853 9.86328 297.339 9.81641 297.749 9.72266C298.159 9.625 298.476 9.48633 298.698 9.30664C298.921 9.12305 299.032 8.90625 299.032 8.65625C299.032 8.41016 298.921 8.19727 298.698 8.01758C298.476 7.83398 298.157 7.69336 297.743 7.5957C297.333 7.49805 296.849 7.44922 296.29 7.44922ZM297.767 11.6797V10.4609C297.318 10.5391 296.825 10.5781 296.29 10.5781C295.755 10.5781 295.263 10.5391 294.814 10.4609V11.6797H297.767ZM305.443 9.72266C305.439 10.2695 305.556 10.8262 305.794 11.3926C306.036 11.9551 306.365 12.4648 306.779 12.9219C307.193 13.375 307.65 13.7188 308.15 13.9531L307.622 14.6797C307.04 14.3984 306.515 13.9688 306.046 13.3906C305.581 12.8125 305.23 12.168 304.991 11.457C304.835 11.9648 304.62 12.4473 304.347 12.9043C304.073 13.3613 303.761 13.7656 303.409 14.1172C303.058 14.4648 302.689 14.7383 302.302 14.9375L301.74 14.2109C302.236 13.9727 302.697 13.6113 303.122 13.127C303.552 12.6426 303.894 12.0996 304.148 11.498C304.406 10.8965 304.536 10.3047 304.54 9.72266V8.36328H302.115V7.60156H307.786V8.36328H305.443V9.72266ZM309.978 10.7422H311.724V11.5273H309.978V16.9414H309.064V6.52344H309.978V10.7422Z" fill="#E8E4DC"/>
</g>
<g id="Container_2">
<path d="M320.746 11.9921C320.746 5.36904 326.115 0 332.738 0C339.361 0 344.73 5.36904 344.73 11.9921C344.73 18.6151 339.361 23.9842 332.738 23.9842C326.115 23.9842 320.746 18.6151 320.746 11.9921Z" fill="#5E9E72"/>
<g id="Group 24">
<path id="Subtract" fill-rule="evenodd" clip-rule="evenodd" d="M332.704 16.0007C336.052 16.0004 339.746 13.6345 339.746 17.4997C339.746 21.3657 336.094 23.9997 332.746 23.9997C329.397 23.9997 325.73 21.3664 325.73 17.5007C325.73 13.6347 329.355 16.0007 332.704 16.0007Z" fill="#E8E4DC"/>
<path id="Ellipse 1" d="M338.719 10C338.719 13.3137 336.032 16 332.719 16C329.405 16 326.719 13.3137 326.719 10C326.719 6.68629 329.405 4 332.719 4C336.032 4 338.719 6.68629 338.719 10Z" fill="#E8E4DC"/>
</g>
</g>
</g>
<g id="Container_3" filter="url(#filter0_d_48_458)">
<path d="M204.73 43.9841C204.73 35.1476 211.893 27.9841 220.73 27.9841H328.73C337.567 27.9841 344.73 35.1476 344.73 43.9841V51.9841C344.73 60.8207 337.567 67.9841 328.73 67.9841H220.73C211.893 67.9841 204.73 60.8207 204.73 51.9841V43.9841Z" fill="#161A18"/>
<path d="M220.73 28.4841H328.73C337.29 28.4841 344.23 35.4237 344.23 43.9841V51.9841C344.23 60.5445 337.29 67.4841 328.73 67.4841H220.73C212.17 67.4841 205.23 60.5445 205.23 51.9841V43.9841C205.23 35.4237 212.17 28.4841 220.73 28.4841Z" stroke="#373F3B"/>
<g id="Paragraph">
<path id="&#236;&#151;&#134;&#236;&#150;&#180;. &#236;&#157;&#188;&#236;&#160;&#149; &#236;&#131;&#157;&#236;&#132;&#177;&#237;&#149;&#180;&#236;&#164;&#152;" d="M223.642 50.5916H225.857V49.074H226.855V53.9275H222.63V49.074H223.642V50.5916ZM225.857 53.0798V51.4119H223.642V53.0798H225.857ZM230.328 50.031C230.323 50.4685 230.405 50.8969 230.574 51.3162C230.747 51.7309 231.002 52.1046 231.339 52.4373C231.681 52.7699 232.091 53.0251 232.57 53.2029L232.009 54.0232C231.467 53.8044 231.007 53.4945 230.628 53.0935C230.255 52.6925 229.972 52.2299 229.781 51.7058C229.58 52.2208 229.293 52.6788 228.919 53.0798C228.546 53.4854 228.099 53.7999 227.58 54.0232L227.019 53.2029C227.493 53.0069 227.899 52.7403 228.236 52.4031C228.573 52.0658 228.828 51.6921 229.001 51.282C229.175 50.8673 229.261 50.4503 229.261 50.031V48.9919H230.328V50.031ZM224.572 42.4841C225.11 42.4841 225.599 42.5798 226.042 42.7712C226.484 42.9626 226.846 43.2361 227.128 43.5916C227.416 43.9425 227.598 44.3481 227.675 44.8083H230.218V41.9373H231.298V48.3767H230.218V45.697H227.682C227.614 46.171 227.436 46.588 227.149 46.948C226.866 47.308 226.502 47.586 226.055 47.782C225.609 47.9779 225.114 48.0759 224.572 48.0759C223.961 48.0759 223.417 47.9597 222.938 47.7273C222.459 47.4903 222.086 47.1599 221.817 46.7361C221.548 46.3077 221.414 45.8201 221.414 45.2732C221.414 44.7309 221.548 44.2478 221.817 43.824C222.086 43.4001 222.459 43.072 222.938 42.8396C223.417 42.6026 223.961 42.4841 224.572 42.4841ZM224.572 43.3865C224.162 43.3865 223.795 43.4662 223.471 43.6257C223.148 43.7852 222.895 44.0085 222.712 44.2957C222.53 44.5828 222.439 44.9086 222.439 45.2732C222.439 45.6423 222.53 45.9727 222.712 46.2644C222.895 46.5515 223.148 46.7771 223.471 46.9412C223.795 47.1052 224.162 47.1873 224.572 47.1873C224.977 47.1873 225.34 47.1052 225.659 46.9412C225.978 46.7771 226.226 46.5515 226.404 46.2644C226.586 45.9727 226.677 45.6423 226.677 45.2732C226.677 44.9086 226.586 44.5828 226.404 44.2957C226.226 44.0085 225.978 43.7852 225.659 43.6257C225.34 43.4662 224.977 43.3865 224.572 43.3865ZM236.589 42.8806C237.136 42.8852 237.626 43.0378 238.059 43.3386C238.497 43.6394 238.85 44.0678 239.119 44.6238C239.388 45.1798 239.549 45.8337 239.604 46.5857H242.332V41.9373H243.398V54.1189H242.332V47.4744H239.618C239.577 48.2582 239.424 48.9418 239.16 49.5251C238.895 50.1085 238.54 50.5574 238.093 50.8718C237.651 51.1863 237.15 51.3435 236.589 51.3435C235.997 51.3435 235.468 51.1703 235.003 50.824C234.543 50.4776 234.183 49.9854 233.923 49.3474C233.668 48.7094 233.541 47.9666 233.541 47.1189C233.541 46.2712 233.668 45.5284 233.923 44.8904C234.183 44.2524 234.543 43.7602 235.003 43.4138C235.464 43.0629 235.992 42.8852 236.589 42.8806ZM236.589 43.8376C236.193 43.8422 235.84 43.9812 235.53 44.2546C235.224 44.5235 234.987 44.9063 234.819 45.4031C234.65 45.8953 234.566 46.4672 234.566 47.1189C234.566 47.7706 234.65 48.3448 234.819 48.8416C234.987 49.3337 235.224 49.7143 235.53 49.9832C235.84 50.252 236.193 50.3865 236.589 50.3865C236.981 50.3865 237.33 50.252 237.635 49.9832C237.945 49.7143 238.184 49.3337 238.353 48.8416C238.526 48.3448 238.613 47.7706 238.613 47.1189C238.613 46.4672 238.526 45.8953 238.353 45.4031C238.184 44.9063 237.947 44.5235 237.642 44.2546C237.337 43.9812 236.986 43.8422 236.589 43.8376ZM246.707 53.0662C246.547 53.0662 246.399 53.0274 246.262 52.95C246.13 52.8679 246.023 52.7585 245.941 52.6218C245.863 52.4851 245.827 52.337 245.832 52.1775C245.827 52.0225 245.863 51.879 245.941 51.7468C246.023 51.6101 246.13 51.503 246.262 51.4255C246.399 51.3435 246.547 51.3025 246.707 51.3025C246.861 51.3025 247.005 51.3435 247.137 51.4255C247.274 51.503 247.381 51.6101 247.458 51.7468C247.541 51.879 247.582 52.0225 247.582 52.1775C247.582 52.337 247.541 52.4851 247.458 52.6218C247.381 52.7585 247.274 52.8679 247.137 52.95C247.005 53.0274 246.861 53.0662 246.707 53.0662ZM255.908 42.3884C256.509 42.393 257.047 42.5092 257.521 42.7371C258 42.9649 258.373 43.2839 258.642 43.6941C258.916 44.0997 259.052 44.5623 259.052 45.0818C259.052 45.6013 258.916 46.0662 258.642 46.4763C258.373 46.8819 258 47.1986 257.521 47.4265C257.047 47.6498 256.509 47.7615 255.908 47.7615C255.297 47.7615 254.752 47.6498 254.274 47.4265C253.795 47.1986 253.422 46.8819 253.153 46.4763C252.884 46.0662 252.75 45.6013 252.75 45.0818C252.75 44.5623 252.884 44.0997 253.153 43.6941C253.422 43.2839 253.795 42.9649 254.274 42.7371C254.752 42.5092 255.297 42.393 255.908 42.3884ZM255.908 43.2908C255.507 43.2908 255.144 43.3682 254.821 43.5232C254.502 43.6736 254.251 43.8855 254.069 44.1589C253.887 44.4278 253.798 44.7354 253.802 45.0818C253.798 45.4327 253.887 45.7449 254.069 46.0183C254.251 46.2917 254.502 46.5059 254.821 46.6609C255.144 46.8113 255.507 46.8865 255.908 46.8865C256.304 46.8865 256.662 46.8113 256.981 46.6609C257.305 46.5059 257.557 46.2917 257.74 46.0183C257.922 45.7449 258.013 45.4327 258.013 45.0818C258.013 44.7354 257.922 44.4278 257.74 44.1589C257.557 43.8855 257.305 43.6736 256.981 43.5232C256.662 43.3682 256.304 43.2908 255.908 43.2908ZM262.498 48.1853H261.431V41.9373H262.498V48.1853ZM262.498 51.699H255.675V53.0662H262.935V53.9275H254.623V50.8923H261.431V49.6345H254.595V48.7732H262.498V51.699ZM274.638 49.1833H273.558V45.9978H271.111V45.1091H273.558V41.9373H274.638V49.1833ZM270.605 49.5662C271.448 49.5662 272.175 49.655 272.786 49.8328C273.396 50.0105 273.863 50.268 274.187 50.6052C274.515 50.9425 274.679 51.3481 274.679 51.822C274.679 52.296 274.515 52.7016 274.187 53.0388C273.863 53.3806 273.396 53.6404 272.786 53.8181C272.175 53.9958 271.448 54.087 270.605 54.0916C269.762 54.087 269.035 53.9958 268.424 53.8181C267.814 53.6404 267.344 53.3806 267.016 53.0388C266.693 52.7016 266.531 52.296 266.531 51.822C266.531 51.3481 266.693 50.9425 267.016 50.6052C267.344 50.268 267.814 50.0105 268.424 49.8328C269.035 49.655 269.762 49.5662 270.605 49.5662ZM270.605 50.4001C269.99 50.4001 269.454 50.4571 268.999 50.571C268.543 50.685 268.194 50.849 267.953 51.0632C267.711 51.2774 267.593 51.5304 267.597 51.822C267.593 52.1091 267.711 52.3598 267.953 52.574C268.194 52.7836 268.543 52.9454 268.999 53.0593C269.454 53.1733 269.99 53.2302 270.605 53.2302C271.22 53.2302 271.753 53.1733 272.205 53.0593C272.66 52.9454 273.009 52.7836 273.25 52.574C273.492 52.3598 273.613 52.1091 273.613 51.822C273.613 51.5304 273.492 51.2774 273.25 51.0632C273.009 50.849 272.66 50.685 272.205 50.571C271.753 50.4571 271.22 50.4001 270.605 50.4001ZM268.787 44.1658C268.787 44.6899 268.912 45.198 269.163 45.6902C269.413 46.1778 269.764 46.613 270.215 46.9958C270.671 47.3741 271.193 47.6658 271.781 47.8708L271.22 48.7322C270.541 48.4861 269.944 48.1215 269.429 47.6384C268.919 47.1554 268.534 46.5971 268.274 45.9636C268.01 46.6746 267.606 47.3035 267.064 47.8503C266.526 48.3927 265.897 48.8005 265.177 49.074L264.617 48.2126C265.214 47.9939 265.747 47.6794 266.216 47.2693C266.686 46.8546 267.05 46.3783 267.31 45.8406C267.574 45.3028 267.707 44.7491 267.707 44.1794V43.7283H264.958V42.8259H271.507V43.7283H268.787V44.1658ZM283.798 44.3572C283.798 44.8038 283.899 45.2436 284.099 45.6765C284.304 46.1095 284.596 46.4991 284.974 46.8455C285.352 47.1918 285.794 47.4607 286.3 47.6521L285.74 48.4724C285.166 48.2491 284.669 47.9324 284.25 47.5222C283.835 47.1121 283.516 46.6404 283.292 46.1072C283.06 46.7087 282.727 47.2488 282.294 47.7273C281.861 48.2013 281.356 48.5636 280.777 48.8142L280.189 47.9802C280.708 47.7524 281.162 47.4425 281.549 47.0505C281.941 46.6541 282.242 46.2211 282.452 45.7517C282.666 45.2778 282.773 44.8129 282.773 44.3572V42.7029H283.798V44.3572ZM290.498 49.4568H289.472V46.1072H287.859V49.074H286.847V42.1833H287.859V45.2185H289.472V41.9509H290.498V49.4568ZM286.478 49.7302C287.317 49.7302 288.041 49.8168 288.652 49.99C289.267 50.1586 289.739 50.407 290.067 50.7351C290.4 51.0587 290.566 51.4483 290.566 51.9041C290.566 52.3552 290.4 52.7426 290.067 53.0662C289.739 53.3897 289.267 53.6358 288.652 53.8044C288.041 53.9776 287.317 54.0642 286.478 54.0642C285.639 54.0642 284.913 53.9776 284.297 53.8044C283.682 53.6358 283.21 53.3897 282.882 53.0662C282.559 52.7426 282.399 52.3552 282.404 51.9041C282.399 51.4483 282.559 51.0587 282.882 50.7351C283.21 50.407 283.68 50.1586 284.291 49.99C284.906 49.8168 285.635 49.7302 286.478 49.7302ZM286.478 50.5505C285.863 50.5505 285.327 50.6052 284.872 50.7146C284.416 50.8194 284.067 50.9744 283.826 51.1794C283.584 51.3845 283.466 51.6261 283.47 51.9041C283.466 52.1775 283.584 52.4145 283.826 52.615C284.067 52.8155 284.414 52.9682 284.865 53.073C285.32 53.1778 285.858 53.2302 286.478 53.2302C287.093 53.2302 287.626 53.1778 288.078 53.073C288.529 52.9682 288.877 52.8155 289.124 52.615C289.37 52.4145 289.495 52.1775 289.5 51.9041C289.495 51.6261 289.37 51.3845 289.124 51.1794C288.877 50.9744 288.527 50.8194 288.071 50.7146C287.62 50.6052 287.089 50.5505 286.478 50.5505ZM296.458 43.8513C296.454 44.421 296.577 44.9656 296.828 45.4851C297.078 46.0001 297.431 46.4513 297.887 46.8386C298.347 47.226 298.874 47.5199 299.466 47.7205L298.865 48.5544C298.19 48.2992 297.6 47.9324 297.094 47.4539C296.588 46.9753 296.206 46.4171 295.946 45.7791C295.686 46.5082 295.287 47.1462 294.75 47.6931C294.212 48.2354 293.578 48.6456 292.849 48.9236L292.261 48.0486C292.881 47.8298 293.426 47.5154 293.895 47.1052C294.369 46.6905 294.736 46.2074 294.996 45.656C295.255 45.1 295.388 44.5121 295.392 43.8923V42.6345H296.458V43.8513ZM302.351 49.1423H301.271V45.4373H298.564V44.5486H301.271V41.9373H302.351V49.1423ZM298.318 49.4978C299.161 49.4978 299.888 49.5889 300.499 49.7712C301.109 49.949 301.576 50.211 301.9 50.5574C302.228 50.8992 302.392 51.3116 302.392 51.7947C302.392 52.2732 302.228 52.6811 301.9 53.0183C301.576 53.3601 301.109 53.6199 300.499 53.7976C299.888 53.9753 299.161 54.0642 298.318 54.0642C297.475 54.0642 296.748 53.9753 296.137 53.7976C295.527 53.6199 295.057 53.3601 294.729 53.0183C294.405 52.6811 294.244 52.2732 294.244 51.7947C294.244 51.3116 294.405 50.8992 294.729 50.5574C295.057 50.211 295.527 49.949 296.137 49.7712C296.748 49.5889 297.475 49.4978 298.318 49.4978ZM298.318 50.3455C297.703 50.3455 297.167 50.4047 296.711 50.5232C296.256 50.6371 295.907 50.8035 295.666 51.0222C295.424 51.241 295.306 51.4985 295.31 51.7947C295.306 52.0818 295.424 52.3324 295.666 52.5466C295.907 52.7563 296.256 52.9181 296.711 53.032C297.167 53.1459 297.703 53.2029 298.318 53.2029C298.933 53.2029 299.466 53.1459 299.917 53.032C300.373 52.9181 300.722 52.7563 300.963 52.5466C301.205 52.3324 301.326 52.0818 301.326 51.7947C301.326 51.4985 301.205 51.241 300.963 51.0222C300.722 50.8035 300.373 50.6371 299.917 50.5232C299.466 50.4047 298.933 50.3455 298.318 50.3455ZM310.445 44.9177H304.347V44.0427H306.876V42.3064H307.943V44.0427H310.445V44.9177ZM307.396 45.738C307.902 45.738 308.353 45.8565 308.75 46.0935C309.151 46.3259 309.463 46.6518 309.686 47.071C309.914 47.4903 310.03 47.9666 310.035 48.4998C310.03 49.0375 309.914 49.5183 309.686 49.9421C309.463 50.3614 309.151 50.6918 308.75 50.9333C308.353 51.1703 307.902 51.2888 307.396 51.2888C306.895 51.2888 306.446 51.1703 306.049 50.9333C305.653 50.6918 305.343 50.3591 305.12 49.9353C304.896 49.5115 304.785 49.033 304.785 48.4998C304.785 47.9711 304.896 47.4972 305.12 47.0779C305.343 46.6541 305.653 46.3259 306.049 46.0935C306.446 45.8565 306.895 45.738 307.396 45.738ZM307.396 46.6404C307.082 46.6449 306.797 46.7292 306.542 46.8933C306.291 47.0528 306.095 47.2738 305.954 47.5564C305.812 47.8344 305.742 48.1488 305.742 48.4998C305.742 48.8552 305.812 49.1742 305.954 49.4568C306.099 49.7393 306.298 49.9604 306.548 50.1199C306.799 50.2748 307.082 50.35 307.396 50.3455C307.715 50.35 308.002 50.2748 308.257 50.1199C308.513 49.9604 308.713 49.7393 308.859 49.4568C309.005 49.1742 309.078 48.8552 309.078 48.4998C309.078 48.1488 309.005 47.8344 308.859 47.5564C308.713 47.2738 308.513 47.0528 308.257 46.8933C308.002 46.7292 307.715 46.6449 307.396 46.6404ZM314.724 54.0916H313.699V47.9529H312.085V53.49H311.074V42.238H312.085V47.0642H313.699V41.9373H314.724V54.0916ZM320.945 43.947C320.945 44.3207 321.075 44.6785 321.334 45.0203C321.594 45.3575 321.952 45.6492 322.408 45.8953C322.868 46.1414 323.388 46.3214 323.966 46.4353L323.529 47.2693C322.813 47.1143 322.184 46.866 321.642 46.5242C321.104 46.1824 320.699 45.7722 320.425 45.2937C320.156 45.8178 319.746 46.269 319.195 46.6472C318.643 47.0209 317.996 47.2921 317.253 47.4607L316.802 46.6267C317.395 46.5037 317.923 46.31 318.388 46.0457C318.853 45.7768 319.215 45.4623 319.475 45.1023C319.735 44.7377 319.865 44.3526 319.865 43.947V43.7283H317.212V42.8396H323.652V43.7283H320.945V43.947ZM326.537 54.1052H325.443V51.1521H322.64V50.3181H325.443V41.9509H326.537V54.1052ZM317.24 48.4314C318.575 48.4314 319.849 48.4041 321.061 48.3494C322.278 48.2947 323.419 48.1899 324.486 48.0349L324.554 48.8416C323.451 49.033 322.235 49.1651 320.904 49.238V53.7224H319.824V49.2927C319.058 49.3292 317.973 49.352 316.57 49.3611L316.419 48.4314H317.24Z" fill="#E8E4DC"/>
</g>
</g>
<path id="10:30" d="M317.527 83.9841H316.46V76.6013H316.414L314.351 77.9724V76.906L316.46 75.4998H317.527V83.9841ZM322.566 84.1013C321.941 84.1013 321.406 83.9314 320.96 83.5916C320.519 83.2517 320.181 82.7556 319.947 82.1033C319.716 81.4509 319.601 80.6638 319.601 79.7419C319.601 78.8318 319.718 78.0505 319.953 77.3982C320.187 76.7419 320.527 76.2419 320.972 75.8982C321.417 75.5544 321.949 75.3826 322.566 75.3826C323.183 75.3826 323.714 75.5544 324.16 75.8982C324.605 76.2419 324.945 76.7419 325.179 77.3982C325.414 78.0505 325.531 78.8318 325.531 79.7419C325.531 80.6638 325.414 81.4509 325.179 82.1033C324.949 82.7556 324.611 83.2517 324.166 83.5916C323.72 83.9314 323.187 84.1013 322.566 84.1013ZM322.566 83.1638C322.972 83.1638 323.32 83.031 323.609 82.7654C323.898 82.4998 324.119 82.1111 324.271 81.5994C324.423 81.0876 324.5 80.4685 324.5 79.7419C324.5 79.0154 324.423 78.3943 324.271 77.8787C324.119 77.363 323.898 76.9705 323.609 76.7009C323.32 76.4314 322.972 76.2966 322.566 76.2966C322.16 76.2966 321.81 76.4314 321.517 76.7009C321.228 76.9705 321.005 77.363 320.849 77.8787C320.697 78.3943 320.621 79.0154 320.621 79.7419C320.621 80.4685 320.697 81.0876 320.849 81.5994C321.001 82.1111 321.222 82.4998 321.511 82.7654C321.804 83.031 322.156 83.1638 322.566 83.1638ZM327.664 82.8591C327.527 82.8591 327.4 82.8259 327.283 82.7595C327.169 82.6892 327.078 82.5955 327.007 82.4783C326.941 82.3611 326.91 82.2341 326.914 82.0974C326.91 81.9646 326.941 81.8416 327.007 81.7283C327.078 81.6111 327.169 81.5193 327.283 81.4529C327.4 81.3826 327.527 81.3474 327.664 81.3474C327.796 81.3474 327.919 81.3826 328.033 81.4529C328.15 81.5193 328.242 81.6111 328.308 81.7283C328.378 81.8416 328.414 81.9646 328.414 82.0974C328.414 82.2341 328.378 82.3611 328.308 82.4783C328.242 82.5955 328.15 82.6892 328.033 82.7595C327.919 82.8259 327.796 82.8591 327.664 82.8591ZM327.664 78.1482C327.527 78.1482 327.4 78.115 327.283 78.0486C327.169 77.9783 327.078 77.8845 327.007 77.7673C326.941 77.6501 326.91 77.5232 326.914 77.3865C326.91 77.2537 326.941 77.1306 327.007 77.0173C327.078 76.9001 327.169 76.8083 327.283 76.7419C327.4 76.6716 327.527 76.6365 327.664 76.6365C327.796 76.6365 327.919 76.6716 328.033 76.7419C328.15 76.8083 328.242 76.9001 328.308 77.0173C328.378 77.1306 328.414 77.2537 328.414 77.3865C328.414 77.5232 328.378 77.6501 328.308 77.7673C328.242 77.8845 328.15 77.9783 328.033 78.0486C327.919 78.115 327.796 78.1482 327.664 78.1482ZM332.914 84.1013C332.355 84.1013 331.855 84.0076 331.414 83.8201C330.976 83.6326 330.628 83.3689 330.371 83.0291C330.117 82.6892 329.98 82.2966 329.96 81.8513H331.027C331.046 82.113 331.14 82.3435 331.308 82.5427C331.48 82.7419 331.705 82.8962 331.982 83.0056C332.259 83.1111 332.566 83.1638 332.902 83.1638C333.269 83.1638 333.599 83.1013 333.892 82.9763C334.189 82.8474 334.419 82.6716 334.583 82.449C334.751 82.2224 334.835 81.9646 334.835 81.6755C334.835 81.363 334.753 81.0876 334.589 80.8494C334.429 80.6111 334.195 80.4255 333.886 80.2927C333.578 80.1599 333.207 80.0935 332.773 80.0935H332.082V79.1677H332.773C333.113 79.1677 333.416 79.1072 333.681 78.9861C333.947 78.865 334.152 78.6951 334.296 78.4763C334.445 78.2576 334.519 78.0037 334.519 77.7146C334.519 77.4373 334.453 77.1912 334.32 76.9763C334.191 76.7615 334.007 76.5955 333.769 76.4783C333.531 76.3572 333.253 76.2966 332.937 76.2966C332.632 76.2966 332.347 76.3513 332.082 76.4607C331.816 76.5701 331.599 76.7263 331.431 76.9294C331.263 77.1287 331.171 77.363 331.156 77.6326H330.136C330.156 77.1951 330.292 76.8064 330.546 76.4666C330.8 76.1228 331.138 75.8572 331.56 75.6697C331.982 75.4783 332.445 75.3826 332.949 75.3826C333.472 75.3826 333.929 75.4861 334.32 75.6931C334.714 75.8962 335.017 76.1716 335.228 76.5193C335.439 76.8669 335.542 77.2458 335.539 77.656C335.542 78.1326 335.416 78.5408 335.158 78.8806C334.9 79.2205 334.546 79.4529 334.097 79.5779V79.6365C334.46 79.6951 334.775 79.8181 335.041 80.0056C335.31 80.1892 335.515 80.4255 335.656 80.7146C335.8 80.9998 335.871 81.3201 335.867 81.6755C335.871 82.1326 335.744 82.5466 335.486 82.9177C335.228 83.2849 334.873 83.574 334.419 83.7849C333.97 83.9958 333.468 84.1013 332.914 84.1013ZM340.167 84.1013C339.542 84.1013 339.007 83.9314 338.562 83.5916C338.121 83.2517 337.783 82.7556 337.548 82.1033C337.318 81.4509 337.203 80.6638 337.203 79.7419C337.203 78.8318 337.32 78.0505 337.554 77.3982C337.789 76.7419 338.128 76.2419 338.574 75.8982C339.019 75.5544 339.55 75.3826 340.167 75.3826C340.785 75.3826 341.316 75.5544 341.761 75.8982C342.207 76.2419 342.546 76.7419 342.781 77.3982C343.015 78.0505 343.132 78.8318 343.132 79.7419C343.132 80.6638 343.015 81.4509 342.781 82.1033C342.55 82.7556 342.212 83.2517 341.767 83.5916C341.322 83.9314 340.789 84.1013 340.167 84.1013ZM340.167 83.1638C340.574 83.1638 340.921 83.031 341.21 82.7654C341.5 82.4998 341.72 82.1111 341.873 81.5994C342.025 81.0876 342.101 80.4685 342.101 79.7419C342.101 79.0154 342.025 78.3943 341.873 77.8787C341.72 77.363 341.5 76.9705 341.21 76.7009C340.921 76.4314 340.574 76.2966 340.167 76.2966C339.761 76.2966 339.412 76.4314 339.119 76.7009C338.83 76.9705 338.607 77.363 338.451 77.8787C338.298 78.3943 338.222 79.0154 338.222 79.7419C338.222 80.4685 338.298 81.0876 338.451 81.5994C338.603 82.1111 338.824 82.4998 339.113 82.7654C339.406 83.031 339.757 83.1638 340.167 83.1638Z" fill="#7A7873"/>
</g>
<defs>
<filter id="filter0_d_48_458" x="200.73" y="24.9841" width="148" height="48" filterUnits="userSpaceOnUse" color-interpolation-filters="sRGB">
<feFlood flood-opacity="0" result="BackgroundImageFix"/>
<feColorMatrix in="SourceAlpha" type="matrix" values="0 0 0 0 0 0 0 0 0 0 0 0 0 0 0 0 0 0 127 0" result="hardAlpha"/>
<feOffset dy="1"/>
<feGaussianBlur stdDeviation="2"/>
<feColorMatrix type="matrix" values="0 0 0 0 0 0 0 0 0 0 0 0 0 0 0 0 0 0 0.2 0"/>
<feBlend mode="normal" in2="BackgroundImageFix" result="effect1_dropShadow_48_458"/>
<feBlend mode="normal" in="SourceGraphic" in2="effect1_dropShadow_48_458" result="shape"/>
</filter>
</defs>
</svg>
