<svg width="410" height="296" viewBox="0 0 410 296" fill="none" xmlns="http://www.w3.org/2000/svg">
<g id="Property 1=Dark" filter="url(#filter0_dd_406_6404)">
<g id="Frame 69">
<g id="Container">
<g clip-path="url(#clip0_406_6404)">
<mask id="path-1-inside-1_406_6404" fill="white">
<path d="M8 6H401.34V286H8V6Z"/>
</mask>
<path d="M8 6H401.34V286H8V6Z" fill="#262B28"/>
<g id="Frame 129">
<g id="Button">
<g id="Icon">
<path id="Vector" d="M41.9973 48.8325L36.1655 43.0007L41.9973 37.1689" stroke="#5E9E72" stroke-width="1.66623" stroke-linecap="round" stroke-linejoin="round"/>
<path id="Vector_2" d="M47.8291 43H36.1655" stroke="#5E9E72" stroke-width="1.66623" stroke-linecap="round" stroke-linejoin="round"/>
</g>
<g id="Text">
<path id="&#235;&#146;&#164;&#235;&#161;&#156;&#234;&#176;&#128;&#234;&#184;&#176;" d="M76.3496 49.7803H75.1465V35.8896H76.3496V49.7803ZM64.834 43.4521C66.8236 43.4417 68.5345 43.4157 69.9668 43.374C71.3991 43.3271 72.7923 43.2282 74.1465 43.0771L74.209 44.0146C72.9434 44.1813 71.584 44.3037 70.1309 44.3818V49.3428H68.9121V44.4365C67.6829 44.4782 66.3757 44.499 64.9902 44.499L64.834 43.4521ZM73.084 41.6865H66.1621V36.6709H72.8965V37.6709H67.3965V40.6553H73.084V41.6865ZM91.4434 48.0459H78.7246V47.0146H84.4434V44.3896H80.3184V40.1084H88.6309V37.9209H80.2871V36.9053H89.834V41.1084H81.5371V43.374H90.1621V44.3896H85.6465V47.0146H91.4434V48.0459ZM103.303 41.5303H105.553V42.5615H103.303V49.7646H102.084V35.874H103.303V41.5303ZM99.709 37.374C99.709 39.4417 99.1908 41.3167 98.1543 42.999C97.1178 44.6761 95.5111 46.0511 93.334 47.124L92.6465 46.1553C94.4329 45.2646 95.8158 44.1657 96.7949 42.8584C97.7741 41.5459 98.334 40.0615 98.4746 38.4053H93.2871V37.374H99.709ZM117.865 49.7646H116.631V35.874H117.865V49.7646ZM113.756 37.3896C113.745 39.4886 113.214 41.374 112.162 43.0459C111.11 44.7126 109.464 46.0824 107.225 47.1553L106.553 46.1553C108.407 45.2751 109.826 44.1813 110.811 42.874C111.8 41.5667 112.365 40.0719 112.506 38.3896H107.193V37.3896H113.756Z" fill="#5E9E72"/>
</g>
</g>
</g>
<g id="Frame 131">
<g id="Frame 154">
<g id="Heading 1">
<path id="&#236;&#160;&#156;&#236;&#163;&#188;&#235;&#143;&#132; 3&#235;&#176;&#149; 4&#236;&#157;&#188;" d="M49.4883 95.9766H46.8887V76.4258H49.4883V95.9766ZM45.4922 95.0742H42.9141V85.3418H40.3359V83.1289H42.9141V76.748H45.4922V95.0742ZM38.7676 81.668C38.7676 83.444 39.0755 85.0589 39.6914 86.5127C40.3145 87.9593 41.2956 89.0658 42.6348 89.832L41.0234 91.8516C40.1784 91.3503 39.4587 90.6842 38.8643 89.8535C38.277 89.0228 37.8151 88.0632 37.4785 86.9746C37.1276 88.1634 36.6478 89.2126 36.0391 90.1221C35.4303 91.0316 34.6927 91.7513 33.8262 92.2812L32.1719 90.2617C33.0885 89.7031 33.8405 88.9691 34.4277 88.0596C35.0221 87.1429 35.4518 86.1403 35.7168 85.0518C35.9889 83.9632 36.125 82.8353 36.125 81.668V80.6152H32.9238V78.4238H41.7324V80.6152H38.7676V81.668ZM69.1258 89.4023H61.5203V95.9766H58.8133V89.4023H51.2938V87.2109H69.1258V89.4023ZM67.5359 79.6055H61.8318C61.9249 80.2643 62.2329 80.8945 62.7557 81.4961C63.2785 82.0905 64.0089 82.6061 64.9471 83.043C65.8852 83.4727 66.9988 83.7663 68.2879 83.9238L67.2996 86.0723C65.6095 85.8431 64.1557 85.3848 62.9383 84.6973C61.728 84.0098 60.8221 83.154 60.2205 82.1299C59.6118 83.154 58.7059 84.0098 57.5027 84.6973C56.2996 85.3848 54.8602 85.8431 53.1844 86.0723L52.1746 83.9238C53.4422 83.7663 54.5415 83.4727 55.4725 83.043C56.4106 82.6061 57.1411 82.0905 57.6639 81.4961C58.1938 80.8945 58.5089 80.2643 58.6092 79.6055H52.9051V77.457H67.5359V79.6055ZM85.9488 87.3398H80.277V91.5078H87.9039V93.7422H70.0074V91.5078H77.5484V87.3398H72.1129V77.8008H85.7984V79.9922H74.8629V85.1699H85.9488V87.3398ZM99.8937 94.2148C98.7694 94.2148 97.7596 94.0215 96.8645 93.6348C95.9764 93.2409 95.2746 92.6966 94.759 92.002C94.2505 91.3001 93.9855 90.5052 93.9641 89.6172H97.2297C97.2512 89.9967 97.3801 90.3333 97.6164 90.627C97.8527 90.9206 98.1714 91.1497 98.5725 91.3145C98.9735 91.472 99.4211 91.5508 99.9152 91.5508C100.424 91.5508 100.878 91.4613 101.279 91.2822C101.688 91.096 102.003 90.8418 102.225 90.5195C102.454 90.1973 102.565 89.832 102.558 89.4238C102.565 89.0013 102.447 88.6253 102.203 88.2959C101.967 87.9665 101.627 87.7122 101.183 87.5332C100.739 87.347 100.216 87.2539 99.6145 87.2539H98.175V84.8691H99.6145C100.116 84.8691 100.563 84.7832 100.957 84.6113C101.351 84.4395 101.659 84.196 101.881 83.8809C102.103 83.5658 102.214 83.2077 102.214 82.8066C102.214 82.4128 102.117 82.0654 101.924 81.7646C101.738 81.4639 101.473 81.2311 101.129 81.0664C100.785 80.8945 100.388 80.8086 99.9367 80.8086C99.4784 80.8086 99.0559 80.891 98.6691 81.0557C98.2896 81.2132 97.9816 81.4424 97.7453 81.7432C97.5161 82.0368 97.3944 82.377 97.3801 82.7637H94.2863C94.3007 81.8828 94.5549 81.0986 95.049 80.4111C95.5432 79.7236 96.2163 79.1901 97.0686 78.8105C97.9279 78.4238 98.884 78.2305 99.9367 78.2305C100.997 78.2305 101.935 78.4238 102.751 78.8105C103.575 79.1901 104.212 79.7165 104.663 80.3896C105.114 81.0557 105.336 81.7969 105.329 82.6133C105.336 83.179 105.215 83.6947 104.964 84.1602C104.721 84.6185 104.373 84.998 103.922 85.2988C103.478 85.5996 102.966 85.8001 102.386 85.9004V86.0293C103.138 86.1224 103.779 86.3301 104.309 86.6523C104.839 86.9746 105.24 87.3936 105.512 87.9092C105.784 88.4176 105.917 88.9941 105.909 89.6387C105.917 90.5124 105.662 91.3001 105.147 92.002C104.631 92.6966 103.915 93.2409 102.998 93.6348C102.082 94.0215 101.047 94.2148 99.8937 94.2148ZM122.754 81.2168H125.396V83.4297H122.754V88.1777H120.004V76.4258H122.754V81.2168ZM122.754 95.9766H120.004V91.207H109.584V89.0371H122.754V95.9766ZM110.551 80.25H114.547V77.6504H117.297V87.1465H107.822V77.6504H110.551V80.25ZM114.547 84.9766V82.377H110.551V84.9766H114.547ZM131.113 88.6934L137.687 78.4453H141.748V88.6504H143.724V91.25H141.748V94H138.675V91.25H131.113V88.6934ZM138.718 88.6504V81.9902H138.568L134.379 88.5215V88.6504H138.718ZM150.45 77.0059C151.431 77.0059 152.319 77.1956 153.114 77.5752C153.909 77.9548 154.532 78.4847 154.983 79.165C155.441 79.8454 155.67 80.6152 155.67 81.4746C155.67 82.3197 155.441 83.0824 154.983 83.7627C154.532 84.4359 153.909 84.9658 153.114 85.3525C152.319 85.7321 151.431 85.9219 150.45 85.9219C149.454 85.9219 148.555 85.7321 147.753 85.3525C146.951 84.9658 146.321 84.4359 145.863 83.7627C145.412 83.0824 145.186 82.3197 145.186 81.4746C145.186 80.6152 145.412 79.8454 145.863 79.165C146.321 78.4847 146.948 77.9548 147.743 77.5752C148.545 77.1956 149.447 77.0059 150.45 77.0059ZM150.45 79.2402C149.948 79.2402 149.497 79.3298 149.096 79.5088C148.702 79.6807 148.394 79.9385 148.172 80.2822C147.95 80.6188 147.843 81.0163 147.85 81.4746C147.843 81.9329 147.95 82.3304 148.172 82.667C148.394 83.0036 148.702 83.2614 149.096 83.4404C149.497 83.6195 149.948 83.709 150.45 83.709C150.944 83.709 151.384 83.6195 151.771 83.4404C152.165 83.2614 152.473 83.0036 152.695 82.667C152.917 82.3304 153.028 81.9329 153.028 81.4746C153.028 81.0091 152.917 80.6081 152.695 80.2715C152.473 79.9349 152.165 79.6807 151.771 79.5088C151.384 79.3298 150.944 79.2402 150.45 79.2402ZM161.256 86.2227H158.506V76.4258H161.256V86.2227ZM161.256 92.3457H150.858V93.6133H161.793V95.7617H148.172V90.3477H158.528V89.1445H148.129V87.0391H161.256V92.3457Z" fill="#E8E4DC"/>
</g>
<g id="Paragraph">
<path id="2026-05-10 &#226;&#128;&#162; &#236;&#160;&#156;&#236;&#163;&#188;&#235;&#143;&#132;" d="M33.0469 118.969L36.9062 114.906C37.4167 114.37 37.8047 113.938 38.0703 113.609C38.3411 113.276 38.5443 112.956 38.6797 112.648C38.8203 112.336 38.8906 112.01 38.8906 111.672C38.8906 111.297 38.7917 110.964 38.5938 110.672C38.3958 110.38 38.125 110.154 37.7812 109.992C37.4427 109.831 37.0625 109.75 36.6406 109.75C36.1979 109.75 35.8099 109.839 35.4766 110.016C35.1432 110.193 34.8854 110.443 34.7031 110.766C34.526 111.089 34.4375 111.458 34.4375 111.875H33.1094C33.1042 111.219 33.2552 110.638 33.5625 110.133C33.875 109.628 34.3047 109.234 34.8516 108.953C35.3984 108.672 36.0104 108.531 36.6875 108.531C37.3594 108.531 37.9609 108.669 38.4922 108.945C39.0286 109.221 39.4479 109.599 39.75 110.078C40.0521 110.557 40.2031 111.089 40.2031 111.672C40.2031 112.104 40.125 112.518 39.9688 112.914C39.8125 113.305 39.5495 113.74 39.1797 114.219C38.8151 114.693 38.2917 115.281 37.6094 115.984L35.0156 118.656V118.75H40.4062V120H33.0625L33.0469 118.969ZM46.1562 120.156C45.3229 120.156 44.6094 119.93 44.0156 119.477C43.4271 119.023 42.9766 118.362 42.6641 117.492C42.3568 116.622 42.2031 115.573 42.2031 114.344C42.2031 113.13 42.3594 112.089 42.6719 111.219C42.9844 110.344 43.4375 109.677 44.0312 109.219C44.625 108.76 45.3333 108.531 46.1562 108.531C46.9792 108.531 47.6875 108.76 48.2812 109.219C48.875 109.677 49.3281 110.344 49.6406 111.219C49.9531 112.089 50.1094 113.13 50.1094 114.344C50.1094 115.573 49.9531 116.622 49.6406 117.492C49.3333 118.362 48.8828 119.023 48.2891 119.477C47.6953 119.93 46.9844 120.156 46.1562 120.156ZM46.1562 118.906C46.6979 118.906 47.1615 118.729 47.5469 118.375C47.9323 118.021 48.2266 117.503 48.4297 116.82C48.6328 116.138 48.7344 115.312 48.7344 114.344C48.7344 113.375 48.6328 112.547 48.4297 111.859C48.2266 111.172 47.9323 110.648 47.5469 110.289C47.1615 109.93 46.6979 109.75 46.1562 109.75C45.6146 109.75 45.1484 109.93 44.7578 110.289C44.3724 110.648 44.0755 111.172 43.8672 111.859C43.6641 112.547 43.5625 113.375 43.5625 114.344C43.5625 115.312 43.6641 116.138 43.8672 116.82C44.0703 117.503 44.3646 118.021 44.75 118.375C45.1406 118.729 45.6094 118.906 46.1562 118.906ZM51.9688 118.969L55.8281 114.906C56.3385 114.37 56.7266 113.938 56.9922 113.609C57.263 113.276 57.4661 112.956 57.6016 112.648C57.7422 112.336 57.8125 112.01 57.8125 111.672C57.8125 111.297 57.7135 110.964 57.5156 110.672C57.3177 110.38 57.0469 110.154 56.7031 109.992C56.3646 109.831 55.9844 109.75 55.5625 109.75C55.1198 109.75 54.7318 109.839 54.3984 110.016C54.0651 110.193 53.8073 110.443 53.625 110.766C53.4479 111.089 53.3594 111.458 53.3594 111.875H52.0312C52.026 111.219 52.1771 110.638 52.4844 110.133C52.7969 109.628 53.2266 109.234 53.7734 108.953C54.3203 108.672 54.9323 108.531 55.6094 108.531C56.2812 108.531 56.8828 108.669 57.4141 108.945C57.9505 109.221 58.3698 109.599 58.6719 110.078C58.974 110.557 59.125 111.089 59.125 111.672C59.125 112.104 59.0469 112.518 58.8906 112.914C58.7344 113.305 58.4714 113.74 58.1016 114.219C57.737 114.693 57.2135 115.281 56.5312 115.984L53.9375 118.656V118.75H59.3281V120H51.9844L51.9688 118.969ZM65.3438 120.156C64.6146 120.156 63.9375 119.992 63.3125 119.664C62.6927 119.331 62.1823 118.766 61.7812 117.969C61.3854 117.167 61.1875 116.104 61.1875 114.781C61.1875 113.464 61.3594 112.336 61.7031 111.398C62.0521 110.461 62.5469 109.75 63.1875 109.266C63.8333 108.776 64.599 108.531 65.4844 108.531C66.1354 108.531 66.7188 108.656 67.2344 108.906C67.7552 109.156 68.1797 109.508 68.5078 109.961C68.8411 110.414 69.0573 110.938 69.1562 111.531H67.7656C67.625 111.005 67.3594 110.583 66.9688 110.266C66.5833 109.943 66.0885 109.781 65.4844 109.781C64.8698 109.781 64.3385 109.953 63.8906 110.297C63.4479 110.635 63.1068 111.128 62.8672 111.773C62.6328 112.419 62.5156 113.193 62.5156 114.094H62.6562C62.9896 113.62 63.4062 113.253 63.9062 112.992C64.4062 112.727 64.9583 112.594 65.5625 112.594C66.2292 112.594 66.8438 112.755 67.4062 113.078C67.974 113.401 68.4219 113.849 68.75 114.422C69.0833 114.99 69.25 115.63 69.25 116.344C69.25 117.047 69.0859 117.69 68.7578 118.273C68.4349 118.852 67.9766 119.31 67.3828 119.648C66.7891 119.987 66.1094 120.156 65.3438 120.156ZM65.3125 118.922C65.7917 118.922 66.2266 118.807 66.6172 118.578C67.0078 118.349 67.3151 118.039 67.5391 117.648C67.7682 117.253 67.8854 116.823 67.8906 116.359C67.8854 115.896 67.7734 115.471 67.5547 115.086C67.3359 114.701 67.0339 114.396 66.6484 114.172C66.263 113.943 65.8281 113.828 65.3438 113.828C64.8594 113.828 64.4167 113.945 64.0156 114.18C63.6146 114.414 63.2969 114.729 63.0625 115.125C62.8281 115.516 62.7083 115.932 62.7031 116.375C62.7031 116.818 62.8151 117.234 63.0391 117.625C63.2682 118.016 63.5807 118.331 63.9766 118.57C64.3776 118.805 64.8229 118.922 65.3125 118.922ZM76.0625 114.969H71.1094V113.734H76.0625V114.969ZM81.8125 120.156C80.9792 120.156 80.2656 119.93 79.6719 119.477C79.0833 119.023 78.6328 118.362 78.3203 117.492C78.013 116.622 77.8594 115.573 77.8594 114.344C77.8594 113.13 78.0156 112.089 78.3281 111.219C78.6406 110.344 79.0938 109.677 79.6875 109.219C80.2812 108.76 80.9896 108.531 81.8125 108.531C82.6354 108.531 83.3438 108.76 83.9375 109.219C84.5312 109.677 84.9844 110.344 85.2969 111.219C85.6094 112.089 85.7656 113.13 85.7656 114.344C85.7656 115.573 85.6094 116.622 85.2969 117.492C84.9896 118.362 84.5391 119.023 83.9453 119.477C83.3516 119.93 82.6406 120.156 81.8125 120.156ZM81.8125 118.906C82.3542 118.906 82.8177 118.729 83.2031 118.375C83.5885 118.021 83.8828 117.503 84.0859 116.82C84.2891 116.138 84.3906 115.312 84.3906 114.344C84.3906 113.375 84.2891 112.547 84.0859 111.859C83.8828 111.172 83.5885 110.648 83.2031 110.289C82.8177 109.93 82.3542 109.75 81.8125 109.75C81.2708 109.75 80.8047 109.93 80.4141 110.289C80.0286 110.648 79.7318 111.172 79.5234 111.859C79.3203 112.547 79.2188 113.375 79.2188 114.344C79.2188 115.312 79.3203 116.138 79.5234 116.82C79.7266 117.503 80.0208 118.021 80.4062 118.375C80.7969 118.729 81.2656 118.906 81.8125 118.906ZM91.3281 120.156C90.6562 120.156 90.0443 120.029 89.4922 119.773C88.9453 119.513 88.5078 119.156 88.1797 118.703C87.8568 118.245 87.6823 117.729 87.6562 117.156H89.0156C89.0521 117.49 89.1771 117.792 89.3906 118.062C89.6042 118.328 89.8802 118.539 90.2188 118.695C90.5573 118.846 90.9271 118.922 91.3281 118.922C91.8073 118.922 92.2396 118.812 92.625 118.594C93.0104 118.375 93.3125 118.076 93.5312 117.695C93.75 117.315 93.8594 116.891 93.8594 116.422C93.8594 115.938 93.7448 115.503 93.5156 115.117C93.2917 114.727 92.9792 114.422 92.5781 114.203C92.1823 113.979 91.7344 113.865 91.2344 113.859C90.2292 113.844 89.526 114.182 89.125 114.875H87.7656L88.5625 108.688H94.6875V109.938H89.7344L89.3125 113.25H89.4219C89.6771 113.052 89.987 112.893 90.3516 112.773C90.7161 112.654 91.0938 112.594 91.4844 112.594C92.1927 112.594 92.8307 112.758 93.3984 113.086C93.9714 113.409 94.4193 113.859 94.7422 114.438C95.0703 115.016 95.2344 115.667 95.2344 116.391C95.2344 117.109 95.0651 117.755 94.7266 118.328C94.388 118.901 93.9219 119.349 93.3281 119.672C92.7344 119.995 92.0677 120.156 91.3281 120.156ZM102.062 114.969H97.1094V113.734H102.062V114.969ZM108.109 120H106.688V110.156H106.625L103.875 111.984V110.562L106.688 108.688H108.109V120ZM114.828 120.156C113.995 120.156 113.281 119.93 112.688 119.477C112.099 119.023 111.648 118.362 111.336 117.492C111.029 116.622 110.875 115.573 110.875 114.344C110.875 113.13 111.031 112.089 111.344 111.219C111.656 110.344 112.109 109.677 112.703 109.219C113.297 108.76 114.005 108.531 114.828 108.531C115.651 108.531 116.359 108.76 116.953 109.219C117.547 109.677 118 110.344 118.312 111.219C118.625 112.089 118.781 113.13 118.781 114.344C118.781 115.573 118.625 116.622 118.312 117.492C118.005 118.362 117.555 119.023 116.961 119.477C116.367 119.93 115.656 120.156 114.828 120.156ZM114.828 118.906C115.37 118.906 115.833 118.729 116.219 118.375C116.604 118.021 116.898 117.503 117.102 116.82C117.305 116.138 117.406 115.312 117.406 114.344C117.406 113.375 117.305 112.547 117.102 111.859C116.898 111.172 116.604 110.648 116.219 110.289C115.833 109.93 115.37 109.75 114.828 109.75C114.286 109.75 113.82 109.93 113.43 110.289C113.044 110.648 112.747 111.172 112.539 111.859C112.336 112.547 112.234 113.375 112.234 114.344C112.234 115.312 112.336 116.138 112.539 116.82C112.742 117.503 113.036 118.021 113.422 118.375C113.812 118.729 114.281 118.906 114.828 118.906ZM127.625 115.938C127.339 115.938 127.073 115.867 126.828 115.727C126.583 115.581 126.388 115.385 126.242 115.141C126.102 114.891 126.031 114.62 126.031 114.328C126.031 114.042 126.102 113.776 126.242 113.531C126.388 113.286 126.583 113.094 126.828 112.953C127.073 112.807 127.339 112.734 127.625 112.734C127.917 112.734 128.185 112.807 128.43 112.953C128.68 113.094 128.875 113.286 129.016 113.531C129.161 113.776 129.234 114.042 129.234 114.328C129.234 114.62 129.161 114.891 129.016 115.141C128.875 115.385 128.68 115.581 128.43 115.727C128.185 115.867 127.917 115.938 127.625 115.938ZM148.219 121.266H147.047V107.375H148.219V121.266ZM145.406 120.547H144.25V113.391H141.906V112.391H144.25V107.719H145.406V120.547ZM140.422 111.344C140.422 112.151 140.539 112.94 140.773 113.711C141.008 114.477 141.352 115.169 141.805 115.789C142.258 116.404 142.797 116.891 143.422 117.25L142.672 118.156C142 117.755 141.424 117.201 140.945 116.492C140.466 115.779 140.102 114.971 139.852 114.07C139.596 115.044 139.219 115.917 138.719 116.688C138.224 117.458 137.635 118.057 136.953 118.484L136.172 117.562C136.802 117.188 137.349 116.674 137.812 116.023C138.276 115.372 138.628 114.643 138.867 113.836C139.112 113.023 139.234 112.193 139.234 111.344V110.031H136.562V109.016H142.969V110.031H140.422V111.344ZM157.188 109.344C157.182 109.938 157.414 110.505 157.883 111.047C158.352 111.583 158.964 112.036 159.719 112.406C160.474 112.776 161.26 113.021 162.078 113.141L161.625 114.109C160.891 113.984 160.182 113.776 159.5 113.484C158.823 113.193 158.221 112.828 157.695 112.391C157.169 111.948 156.771 111.456 156.5 110.914C156.229 111.456 155.831 111.945 155.305 112.383C154.779 112.82 154.177 113.188 153.5 113.484C152.828 113.776 152.13 113.984 151.406 114.109L150.922 113.141C151.734 113.021 152.518 112.776 153.273 112.406C154.029 112.036 154.641 111.583 155.109 111.047C155.578 110.505 155.812 109.938 155.812 109.344V109.25H151.359V108.25H161.625V109.25H157.188V109.344ZM162.828 116.312H157.078V121.266H155.875V116.312H150.172V115.297H162.828V116.312ZM175.219 114.891H170.922V118.484H176.719V119.516H164V118.484H169.719V114.891H165.625V108.516H175.078V109.516H166.859V113.891H175.219V114.891Z" fill="#7A7873"/>
</g>
</g>
<g id="Icon_2">
<path id="Vector_3" d="M372.341 101.999L367.343 97.0003L362.344 101.999" stroke="#E8E4DC" stroke-width="1.66623" stroke-linecap="round" stroke-linejoin="round"/>
</g>
</g>
<g id="Frame 158">
<path id="&#235;&#179;&#128;&#234;&#178;&#189; &#236;&#157;&#180;&#235;&#160;&#165;" d="M44.4141 159.672H43.1797V155.938H39.8984V157.297H33.6016V150.312H34.8203V152.781H38.6953V150.312H39.8984V151.938H43.1797V149.391H44.4141V159.672ZM44.7266 162.969H35.4297V158.656H36.6641V161.938H44.7266V162.969ZM38.6953 156.281V153.75H34.8203V156.281H38.6953ZM43.1797 154.922V152.969H39.8984V154.922H43.1797ZM58.2422 157.734H57.0078V155.859H53.3203V154.844H57.0078V152.969H53.4531C53.0052 154.073 52.2656 155.026 51.2344 155.828C50.2031 156.63 48.9349 157.255 47.4297 157.703L46.9141 156.734C48.0339 156.401 49.0052 155.977 49.8281 155.461C50.651 154.94 51.2995 154.341 51.7734 153.664C52.2474 152.987 52.526 152.25 52.6094 151.453H47.6172V150.422H53.9453C53.9453 150.958 53.8854 151.479 53.7656 151.984H57.0078V149.391H58.2422V157.734ZM53.6953 157.875C54.6276 157.875 55.4427 157.982 56.1406 158.195C56.8385 158.409 57.375 158.716 57.75 159.117C58.1302 159.513 58.3203 159.984 58.3203 160.531C58.3203 161.083 58.1302 161.56 57.75 161.961C57.375 162.362 56.8385 162.669 56.1406 162.883C55.4427 163.096 54.6276 163.203 53.6953 163.203C52.7526 163.203 51.9323 163.096 51.2344 162.883C50.5365 162.669 49.9974 162.362 49.6172 161.961C49.2422 161.56 49.0547 161.083 49.0547 160.531C49.0547 159.984 49.2422 159.513 49.6172 159.117C49.9974 158.716 50.5365 158.409 51.2344 158.195C51.9323 157.982 52.7526 157.875 53.6953 157.875ZM53.6953 158.859C53.0026 158.854 52.3958 158.919 51.875 159.055C51.3594 159.185 50.9609 159.378 50.6797 159.633C50.3984 159.888 50.2578 160.188 50.2578 160.531C50.2578 160.875 50.3984 161.174 50.6797 161.43C50.9609 161.68 51.3594 161.87 51.875 162C52.3906 162.135 52.9974 162.203 53.6953 162.203C54.3828 162.203 54.9818 162.135 55.4922 162C56.0026 161.87 56.3958 161.68 56.6719 161.43C56.9531 161.174 57.0964 160.875 57.1016 160.531C57.0964 160.188 56.9531 159.888 56.6719 159.633C56.3906 159.378 55.9948 159.185 55.4844 159.055C54.974 158.919 54.3776 158.854 53.6953 158.859ZM76.0234 163.297H74.7891V149.375H76.0234V163.297ZM68.6328 150.453C69.3203 150.458 69.9323 150.661 70.4688 151.062C71.0052 151.458 71.4245 152.021 71.7266 152.75C72.0286 153.479 72.1797 154.328 72.1797 155.297C72.1797 156.266 72.0286 157.115 71.7266 157.844C71.4245 158.573 71.0052 159.135 70.4688 159.531C69.9323 159.927 69.3203 160.125 68.6328 160.125C67.9453 160.125 67.3307 159.927 66.7891 159.531C66.2526 159.135 65.8333 158.573 65.5312 157.844C65.2344 157.115 65.0859 156.266 65.0859 155.297C65.0859 154.328 65.2344 153.479 65.5312 152.75C65.8333 152.021 66.2526 151.458 66.7891 151.062C67.3255 150.661 67.9401 150.458 68.6328 150.453ZM68.6328 151.547C68.1693 151.552 67.7578 151.711 67.3984 152.023C67.0443 152.331 66.7682 152.768 66.5703 153.336C66.3724 153.898 66.2734 154.552 66.2734 155.297C66.2734 156.042 66.3724 156.698 66.5703 157.266C66.7682 157.828 67.0469 158.263 67.4062 158.57C67.7656 158.878 68.1745 159.031 68.6328 159.031C69.0911 159.031 69.5 158.878 69.8594 158.57C70.2188 158.263 70.4974 157.828 70.6953 157.266C70.8932 156.698 70.9922 156.042 70.9922 155.297C70.9922 154.552 70.8932 153.898 70.6953 153.336C70.4974 152.768 70.2188 152.331 69.8594 152.023C69.5052 151.711 69.0964 151.552 68.6328 151.547ZM84.9922 154.125H80.2109V156.281C81.6224 156.281 82.7135 156.26 83.4844 156.219C84.2552 156.177 85.0286 156.083 85.8047 155.938L85.9297 156.953C85.1016 157.089 84.2734 157.177 83.4453 157.219C82.6224 157.26 81.4661 157.281 79.9766 157.281H78.9922V153.188H83.7734V151.219H78.9609V150.234H84.9922V154.125ZM89.9141 157.922H88.6797V155.344H85.9141V154.328H88.6797V152.453H85.9141V151.453H88.6797V149.391H89.9141V157.922ZM89.9141 163.297H88.6797V159.672H80.5547V158.672H89.9141V163.297Z" fill="#E8E4DC"/>
<g id="Frame 156">
<g id="Frame 155">
<g id="Button_2">
<path d="M32 185C32 178.373 37.3726 173 44 173H351C357.627 173 363 178.373 363 185V195C363 201.627 357.627 207 351 207H44C37.3726 207 32 201.627 32 195V185Z" fill="#161A18"/>
<path id="2026-05-09" d="M45.3516 194.969L49.2109 190.906C49.7214 190.37 50.1094 189.938 50.375 189.609C50.6458 189.276 50.849 188.956 50.9844 188.648C51.125 188.336 51.1953 188.01 51.1953 187.672C51.1953 187.297 51.0964 186.964 50.8984 186.672C50.7005 186.38 50.4297 186.154 50.0859 185.992C49.7474 185.831 49.3672 185.75 48.9453 185.75C48.5026 185.75 48.1146 185.839 47.7812 186.016C47.4479 186.193 47.1901 186.443 47.0078 186.766C46.8307 187.089 46.7422 187.458 46.7422 187.875H45.4141C45.4089 187.219 45.5599 186.638 45.8672 186.133C46.1797 185.628 46.6094 185.234 47.1562 184.953C47.7031 184.672 48.3151 184.531 48.9922 184.531C49.6641 184.531 50.2656 184.669 50.7969 184.945C51.3333 185.221 51.7526 185.599 52.0547 186.078C52.3568 186.557 52.5078 187.089 52.5078 187.672C52.5078 188.104 52.4297 188.518 52.2734 188.914C52.1172 189.305 51.8542 189.74 51.4844 190.219C51.1198 190.693 50.5964 191.281 49.9141 191.984L47.3203 194.656V194.75H52.7109V196H45.3672L45.3516 194.969ZM58.4609 196.156C57.6276 196.156 56.9141 195.93 56.3203 195.477C55.7318 195.023 55.2812 194.362 54.9688 193.492C54.6615 192.622 54.5078 191.573 54.5078 190.344C54.5078 189.13 54.6641 188.089 54.9766 187.219C55.2891 186.344 55.7422 185.677 56.3359 185.219C56.9297 184.76 57.638 184.531 58.4609 184.531C59.2839 184.531 59.9922 184.76 60.5859 185.219C61.1797 185.677 61.6328 186.344 61.9453 187.219C62.2578 188.089 62.4141 189.13 62.4141 190.344C62.4141 191.573 62.2578 192.622 61.9453 193.492C61.638 194.362 61.1875 195.023 60.5938 195.477C60 195.93 59.2891 196.156 58.4609 196.156ZM58.4609 194.906C59.0026 194.906 59.4661 194.729 59.8516 194.375C60.237 194.021 60.5312 193.503 60.7344 192.82C60.9375 192.138 61.0391 191.312 61.0391 190.344C61.0391 189.375 60.9375 188.547 60.7344 187.859C60.5312 187.172 60.237 186.648 59.8516 186.289C59.4661 185.93 59.0026 185.75 58.4609 185.75C57.9193 185.75 57.4531 185.93 57.0625 186.289C56.6771 186.648 56.3802 187.172 56.1719 187.859C55.9688 188.547 55.8672 189.375 55.8672 190.344C55.8672 191.312 55.9688 192.138 56.1719 192.82C56.375 193.503 56.6693 194.021 57.0547 194.375C57.4453 194.729 57.9141 194.906 58.4609 194.906ZM64.2734 194.969L68.1328 190.906C68.6432 190.37 69.0312 189.938 69.2969 189.609C69.5677 189.276 69.7708 188.956 69.9062 188.648C70.0469 188.336 70.1172 188.01 70.1172 187.672C70.1172 187.297 70.0182 186.964 69.8203 186.672C69.6224 186.38 69.3516 186.154 69.0078 185.992C68.6693 185.831 68.2891 185.75 67.8672 185.75C67.4245 185.75 67.0365 185.839 66.7031 186.016C66.3698 186.193 66.112 186.443 65.9297 186.766C65.7526 187.089 65.6641 187.458 65.6641 187.875H64.3359C64.3307 187.219 64.4818 186.638 64.7891 186.133C65.1016 185.628 65.5312 185.234 66.0781 184.953C66.625 184.672 67.237 184.531 67.9141 184.531C68.5859 184.531 69.1875 184.669 69.7188 184.945C70.2552 185.221 70.6745 185.599 70.9766 186.078C71.2786 186.557 71.4297 187.089 71.4297 187.672C71.4297 188.104 71.3516 188.518 71.1953 188.914C71.0391 189.305 70.776 189.74 70.4062 190.219C70.0417 190.693 69.5182 191.281 68.8359 191.984L66.2422 194.656V194.75H71.6328V196H64.2891L64.2734 194.969ZM77.6484 196.156C76.9193 196.156 76.2422 195.992 75.6172 195.664C74.9974 195.331 74.487 194.766 74.0859 193.969C73.6901 193.167 73.4922 192.104 73.4922 190.781C73.4922 189.464 73.6641 188.336 74.0078 187.398C74.3568 186.461 74.8516 185.75 75.4922 185.266C76.138 184.776 76.9036 184.531 77.7891 184.531C78.4401 184.531 79.0234 184.656 79.5391 184.906C80.0599 185.156 80.4844 185.508 80.8125 185.961C81.1458 186.414 81.362 186.938 81.4609 187.531H80.0703C79.9297 187.005 79.6641 186.583 79.2734 186.266C78.888 185.943 78.3932 185.781 77.7891 185.781C77.1745 185.781 76.6432 185.953 76.1953 186.297C75.7526 186.635 75.4115 187.128 75.1719 187.773C74.9375 188.419 74.8203 189.193 74.8203 190.094H74.9609C75.2943 189.62 75.7109 189.253 76.2109 188.992C76.7109 188.727 77.263 188.594 77.8672 188.594C78.5339 188.594 79.1484 188.755 79.7109 189.078C80.2786 189.401 80.7266 189.849 81.0547 190.422C81.388 190.99 81.5547 191.63 81.5547 192.344C81.5547 193.047 81.3906 193.69 81.0625 194.273C80.7396 194.852 80.2812 195.31 79.6875 195.648C79.0938 195.987 78.4141 196.156 77.6484 196.156ZM77.6172 194.922C78.0964 194.922 78.5312 194.807 78.9219 194.578C79.3125 194.349 79.6198 194.039 79.8438 193.648C80.0729 193.253 80.1901 192.823 80.1953 192.359C80.1901 191.896 80.0781 191.471 79.8594 191.086C79.6406 190.701 79.3385 190.396 78.9531 190.172C78.5677 189.943 78.1328 189.828 77.6484 189.828C77.1641 189.828 76.7214 189.945 76.3203 190.18C75.9193 190.414 75.6016 190.729 75.3672 191.125C75.1328 191.516 75.013 191.932 75.0078 192.375C75.0078 192.818 75.1198 193.234 75.3438 193.625C75.5729 194.016 75.8854 194.331 76.2812 194.57C76.6823 194.805 77.1276 194.922 77.6172 194.922ZM88.3672 190.969H83.4141V189.734H88.3672V190.969ZM94.1172 196.156C93.2839 196.156 92.5703 195.93 91.9766 195.477C91.388 195.023 90.9375 194.362 90.625 193.492C90.3177 192.622 90.1641 191.573 90.1641 190.344C90.1641 189.13 90.3203 188.089 90.6328 187.219C90.9453 186.344 91.3984 185.677 91.9922 185.219C92.5859 184.76 93.2943 184.531 94.1172 184.531C94.9401 184.531 95.6484 184.76 96.2422 185.219C96.8359 185.677 97.2891 186.344 97.6016 187.219C97.9141 188.089 98.0703 189.13 98.0703 190.344C98.0703 191.573 97.9141 192.622 97.6016 193.492C97.2943 194.362 96.8438 195.023 96.25 195.477C95.6562 195.93 94.9453 196.156 94.1172 196.156ZM94.1172 194.906C94.6589 194.906 95.1224 194.729 95.5078 194.375C95.8932 194.021 96.1875 193.503 96.3906 192.82C96.5938 192.138 96.6953 191.312 96.6953 190.344C96.6953 189.375 96.5938 188.547 96.3906 187.859C96.1875 187.172 95.8932 186.648 95.5078 186.289C95.1224 185.93 94.6589 185.75 94.1172 185.75C93.5755 185.75 93.1094 185.93 92.7188 186.289C92.3333 186.648 92.0365 187.172 91.8281 187.859C91.625 188.547 91.5234 189.375 91.5234 190.344C91.5234 191.312 91.625 192.138 91.8281 192.82C92.0312 193.503 92.3255 194.021 92.7109 194.375C93.1016 194.729 93.5703 194.906 94.1172 194.906ZM103.633 196.156C102.961 196.156 102.349 196.029 101.797 195.773C101.25 195.513 100.812 195.156 100.484 194.703C100.161 194.245 99.987 193.729 99.9609 193.156H101.32C101.357 193.49 101.482 193.792 101.695 194.062C101.909 194.328 102.185 194.539 102.523 194.695C102.862 194.846 103.232 194.922 103.633 194.922C104.112 194.922 104.544 194.812 104.93 194.594C105.315 194.375 105.617 194.076 105.836 193.695C106.055 193.315 106.164 192.891 106.164 192.422C106.164 191.938 106.049 191.503 105.82 191.117C105.596 190.727 105.284 190.422 104.883 190.203C104.487 189.979 104.039 189.865 103.539 189.859C102.534 189.844 101.831 190.182 101.43 190.875H100.07L100.867 184.688H106.992V185.938H102.039L101.617 189.25H101.727C101.982 189.052 102.292 188.893 102.656 188.773C103.021 188.654 103.398 188.594 103.789 188.594C104.497 188.594 105.135 188.758 105.703 189.086C106.276 189.409 106.724 189.859 107.047 190.438C107.375 191.016 107.539 191.667 107.539 192.391C107.539 193.109 107.37 193.755 107.031 194.328C106.693 194.901 106.227 195.349 105.633 195.672C105.039 195.995 104.372 196.156 103.633 196.156ZM114.367 190.969H109.414V189.734H114.367V190.969ZM120.117 196.156C119.284 196.156 118.57 195.93 117.977 195.477C117.388 195.023 116.938 194.362 116.625 193.492C116.318 192.622 116.164 191.573 116.164 190.344C116.164 189.13 116.32 188.089 116.633 187.219C116.945 186.344 117.398 185.677 117.992 185.219C118.586 184.76 119.294 184.531 120.117 184.531C120.94 184.531 121.648 184.76 122.242 185.219C122.836 185.677 123.289 186.344 123.602 187.219C123.914 188.089 124.07 189.13 124.07 190.344C124.07 191.573 123.914 192.622 123.602 193.492C123.294 194.362 122.844 195.023 122.25 195.477C121.656 195.93 120.945 196.156 120.117 196.156ZM120.117 194.906C120.659 194.906 121.122 194.729 121.508 194.375C121.893 194.021 122.188 193.503 122.391 192.82C122.594 192.138 122.695 191.312 122.695 190.344C122.695 189.375 122.594 188.547 122.391 187.859C122.188 187.172 121.893 186.648 121.508 186.289C121.122 185.93 120.659 185.75 120.117 185.75C119.576 185.75 119.109 185.93 118.719 186.289C118.333 186.648 118.036 187.172 117.828 187.859C117.625 188.547 117.523 189.375 117.523 190.344C117.523 191.312 117.625 192.138 117.828 192.82C118.031 193.503 118.326 194.021 118.711 194.375C119.102 194.729 119.57 194.906 120.117 194.906ZM129.68 184.531C130.404 184.531 131.076 184.698 131.695 185.031C132.315 185.359 132.823 185.922 133.219 186.719C133.62 187.516 133.82 188.573 133.82 189.891C133.82 191.214 133.646 192.346 133.297 193.289C132.953 194.227 132.458 194.94 131.812 195.43C131.172 195.914 130.409 196.156 129.523 196.156C128.872 196.156 128.286 196.031 127.766 195.781C127.245 195.526 126.818 195.172 126.484 194.719C126.156 194.266 125.945 193.74 125.852 193.141H127.242C127.372 193.672 127.633 194.099 128.023 194.422C128.414 194.745 128.914 194.906 129.523 194.906C130.138 194.906 130.667 194.737 131.109 194.398C131.557 194.055 131.901 193.557 132.141 192.906C132.38 192.255 132.503 191.474 132.508 190.562H132.352C132.018 191.036 131.602 191.406 131.102 191.672C130.602 191.932 130.055 192.062 129.461 192.062C128.789 192.062 128.169 191.904 127.602 191.586C127.034 191.263 126.583 190.818 126.25 190.25C125.922 189.682 125.758 189.042 125.758 188.328C125.758 187.63 125.919 186.992 126.242 186.414C126.57 185.836 127.031 185.378 127.625 185.039C128.219 184.701 128.904 184.531 129.68 184.531ZM129.711 185.766C129.232 185.766 128.794 185.88 128.398 186.109C128.008 186.333 127.698 186.638 127.469 187.023C127.245 187.409 127.133 187.828 127.133 188.281C127.133 188.755 127.24 189.188 127.453 189.578C127.667 189.964 127.966 190.268 128.352 190.492C128.737 190.716 129.174 190.828 129.664 190.828C130.143 190.828 130.583 190.711 130.984 190.477C131.385 190.237 131.703 189.922 131.938 189.531C132.172 189.135 132.289 188.719 132.289 188.281C132.289 187.849 132.177 187.44 131.953 187.055C131.729 186.664 131.419 186.352 131.023 186.117C130.633 185.883 130.195 185.766 129.711 185.766Z" fill="#4A4845"/>
</g>
<g id="Button_3">
<path d="M32 229C32 222.373 37.3726 217 44 217H351C357.627 217 363 222.373 363 229V239C363 245.627 357.627 251 351 251H44C37.3726 251 32 245.627 32 239V229Z" fill="#161A18"/>
<path id="2026-05-02" d="M45.0625 238.969L48.9219 234.906C49.4323 234.37 49.8203 233.938 50.0859 233.609C50.3568 233.276 50.5599 232.956 50.6953 232.648C50.8359 232.336 50.9062 232.01 50.9062 231.672C50.9062 231.297 50.8073 230.964 50.6094 230.672C50.4115 230.38 50.1406 230.154 49.7969 229.992C49.4583 229.831 49.0781 229.75 48.6562 229.75C48.2135 229.75 47.8255 229.839 47.4922 230.016C47.1589 230.193 46.901 230.443 46.7188 230.766C46.5417 231.089 46.4531 231.458 46.4531 231.875H45.125C45.1198 231.219 45.2708 230.638 45.5781 230.133C45.8906 229.628 46.3203 229.234 46.8672 228.953C47.4141 228.672 48.026 228.531 48.7031 228.531C49.375 228.531 49.9766 228.669 50.5078 228.945C51.0443 229.221 51.4635 229.599 51.7656 230.078C52.0677 230.557 52.2188 231.089 52.2188 231.672C52.2188 232.104 52.1406 232.518 51.9844 232.914C51.8281 233.305 51.5651 233.74 51.1953 234.219C50.8307 234.693 50.3073 235.281 49.625 235.984L47.0312 238.656V238.75H52.4219V240H45.0781L45.0625 238.969ZM58.1719 240.156C57.3385 240.156 56.625 239.93 56.0312 239.477C55.4427 239.023 54.9922 238.362 54.6797 237.492C54.3724 236.622 54.2188 235.573 54.2188 234.344C54.2188 233.13 54.375 232.089 54.6875 231.219C55 230.344 55.4531 229.677 56.0469 229.219C56.6406 228.76 57.349 228.531 58.1719 228.531C58.9948 228.531 59.7031 228.76 60.2969 229.219C60.8906 229.677 61.3438 230.344 61.6562 231.219C61.9688 232.089 62.125 233.13 62.125 234.344C62.125 235.573 61.9688 236.622 61.6562 237.492C61.349 238.362 60.8984 239.023 60.3047 239.477C59.7109 239.93 59 240.156 58.1719 240.156ZM58.1719 238.906C58.7135 238.906 59.1771 238.729 59.5625 238.375C59.9479 238.021 60.2422 237.503 60.4453 236.82C60.6484 236.138 60.75 235.312 60.75 234.344C60.75 233.375 60.6484 232.547 60.4453 231.859C60.2422 231.172 59.9479 230.648 59.5625 230.289C59.1771 229.93 58.7135 229.75 58.1719 229.75C57.6302 229.75 57.1641 229.93 56.7734 230.289C56.388 230.648 56.0911 231.172 55.8828 231.859C55.6797 232.547 55.5781 233.375 55.5781 234.344C55.5781 235.312 55.6797 236.138 55.8828 236.82C56.0859 237.503 56.3802 238.021 56.7656 238.375C57.1562 238.729 57.625 238.906 58.1719 238.906ZM63.9844 238.969L67.8438 234.906C68.3542 234.37 68.7422 233.938 69.0078 233.609C69.2786 233.276 69.4818 232.956 69.6172 232.648C69.7578 232.336 69.8281 232.01 69.8281 231.672C69.8281 231.297 69.7292 230.964 69.5312 230.672C69.3333 230.38 69.0625 230.154 68.7188 229.992C68.3802 229.831 68 229.75 67.5781 229.75C67.1354 229.75 66.7474 229.839 66.4141 230.016C66.0807 230.193 65.8229 230.443 65.6406 230.766C65.4635 231.089 65.375 231.458 65.375 231.875H64.0469C64.0417 231.219 64.1927 230.638 64.5 230.133C64.8125 229.628 65.2422 229.234 65.7891 228.953C66.3359 228.672 66.9479 228.531 67.625 228.531C68.2969 228.531 68.8984 228.669 69.4297 228.945C69.9661 229.221 70.3854 229.599 70.6875 230.078C70.9896 230.557 71.1406 231.089 71.1406 231.672C71.1406 232.104 71.0625 232.518 70.9062 232.914C70.75 233.305 70.487 233.74 70.1172 234.219C69.7526 234.693 69.2292 235.281 68.5469 235.984L65.9531 238.656V238.75H71.3438V240H64L63.9844 238.969ZM77.3594 240.156C76.6302 240.156 75.9531 239.992 75.3281 239.664C74.7083 239.331 74.1979 238.766 73.7969 237.969C73.401 237.167 73.2031 236.104 73.2031 234.781C73.2031 233.464 73.375 232.336 73.7188 231.398C74.0677 230.461 74.5625 229.75 75.2031 229.266C75.849 228.776 76.6146 228.531 77.5 228.531C78.151 228.531 78.7344 228.656 79.25 228.906C79.7708 229.156 80.1953 229.508 80.5234 229.961C80.8568 230.414 81.0729 230.938 81.1719 231.531H79.7812C79.6406 231.005 79.375 230.583 78.9844 230.266C78.599 229.943 78.1042 229.781 77.5 229.781C76.8854 229.781 76.3542 229.953 75.9062 230.297C75.4635 230.635 75.1224 231.128 74.8828 231.773C74.6484 232.419 74.5312 233.193 74.5312 234.094H74.6719C75.0052 233.62 75.4219 233.253 75.9219 232.992C76.4219 232.727 76.974 232.594 77.5781 232.594C78.2448 232.594 78.8594 232.755 79.4219 233.078C79.9896 233.401 80.4375 233.849 80.7656 234.422C81.099 234.99 81.2656 235.63 81.2656 236.344C81.2656 237.047 81.1016 237.69 80.7734 238.273C80.4505 238.852 79.9922 239.31 79.3984 239.648C78.8047 239.987 78.125 240.156 77.3594 240.156ZM77.3281 238.922C77.8073 238.922 78.2422 238.807 78.6328 238.578C79.0234 238.349 79.3307 238.039 79.5547 237.648C79.7839 237.253 79.901 236.823 79.9062 236.359C79.901 235.896 79.7891 235.471 79.5703 235.086C79.3516 234.701 79.0495 234.396 78.6641 234.172C78.2786 233.943 77.8438 233.828 77.3594 233.828C76.875 233.828 76.4323 233.945 76.0312 234.18C75.6302 234.414 75.3125 234.729 75.0781 235.125C74.8438 235.516 74.724 235.932 74.7188 236.375C74.7188 236.818 74.8307 237.234 75.0547 237.625C75.2839 238.016 75.5964 238.331 75.9922 238.57C76.3932 238.805 76.8385 238.922 77.3281 238.922ZM88.0781 234.969H83.125V233.734H88.0781V234.969ZM93.8281 240.156C92.9948 240.156 92.2812 239.93 91.6875 239.477C91.099 239.023 90.6484 238.362 90.3359 237.492C90.0286 236.622 89.875 235.573 89.875 234.344C89.875 233.13 90.0312 232.089 90.3438 231.219C90.6562 230.344 91.1094 229.677 91.7031 229.219C92.2969 228.76 93.0052 228.531 93.8281 228.531C94.651 228.531 95.3594 228.76 95.9531 229.219C96.5469 229.677 97 230.344 97.3125 231.219C97.625 232.089 97.7812 233.13 97.7812 234.344C97.7812 235.573 97.625 236.622 97.3125 237.492C97.0052 238.362 96.5547 239.023 95.9609 239.477C95.3672 239.93 94.6562 240.156 93.8281 240.156ZM93.8281 238.906C94.3698 238.906 94.8333 238.729 95.2188 238.375C95.6042 238.021 95.8984 237.503 96.1016 236.82C96.3047 236.138 96.4062 235.312 96.4062 234.344C96.4062 233.375 96.3047 232.547 96.1016 231.859C95.8984 231.172 95.6042 230.648 95.2188 230.289C94.8333 229.93 94.3698 229.75 93.8281 229.75C93.2865 229.75 92.8203 229.93 92.4297 230.289C92.0443 230.648 91.7474 231.172 91.5391 231.859C91.3359 232.547 91.2344 233.375 91.2344 234.344C91.2344 235.312 91.3359 236.138 91.5391 236.82C91.7422 237.503 92.0365 238.021 92.4219 238.375C92.8125 238.729 93.2812 238.906 93.8281 238.906ZM103.344 240.156C102.672 240.156 102.06 240.029 101.508 239.773C100.961 239.513 100.523 239.156 100.195 238.703C99.8724 238.245 99.6979 237.729 99.6719 237.156H101.031C101.068 237.49 101.193 237.792 101.406 238.062C101.62 238.328 101.896 238.539 102.234 238.695C102.573 238.846 102.943 238.922 103.344 238.922C103.823 238.922 104.255 238.812 104.641 238.594C105.026 238.375 105.328 238.076 105.547 237.695C105.766 237.315 105.875 236.891 105.875 236.422C105.875 235.938 105.76 235.503 105.531 235.117C105.307 234.727 104.995 234.422 104.594 234.203C104.198 233.979 103.75 233.865 103.25 233.859C102.245 233.844 101.542 234.182 101.141 234.875H99.7812L100.578 228.688H106.703V229.938H101.75L101.328 233.25H101.438C101.693 233.052 102.003 232.893 102.367 232.773C102.732 232.654 103.109 232.594 103.5 232.594C104.208 232.594 104.846 232.758 105.414 233.086C105.987 233.409 106.435 233.859 106.758 234.438C107.086 235.016 107.25 235.667 107.25 236.391C107.25 237.109 107.081 237.755 106.742 238.328C106.404 238.901 105.938 239.349 105.344 239.672C104.75 239.995 104.083 240.156 103.344 240.156ZM114.078 234.969H109.125V233.734H114.078V234.969ZM119.828 240.156C118.995 240.156 118.281 239.93 117.688 239.477C117.099 239.023 116.648 238.362 116.336 237.492C116.029 236.622 115.875 235.573 115.875 234.344C115.875 233.13 116.031 232.089 116.344 231.219C116.656 230.344 117.109 229.677 117.703 229.219C118.297 228.76 119.005 228.531 119.828 228.531C120.651 228.531 121.359 228.76 121.953 229.219C122.547 229.677 123 230.344 123.312 231.219C123.625 232.089 123.781 233.13 123.781 234.344C123.781 235.573 123.625 236.622 123.312 237.492C123.005 238.362 122.555 239.023 121.961 239.477C121.367 239.93 120.656 240.156 119.828 240.156ZM119.828 238.906C120.37 238.906 120.833 238.729 121.219 238.375C121.604 238.021 121.898 237.503 122.102 236.82C122.305 236.138 122.406 235.312 122.406 234.344C122.406 233.375 122.305 232.547 122.102 231.859C121.898 231.172 121.604 230.648 121.219 230.289C120.833 229.93 120.37 229.75 119.828 229.75C119.286 229.75 118.82 229.93 118.43 230.289C118.044 230.648 117.747 231.172 117.539 231.859C117.336 232.547 117.234 233.375 117.234 234.344C117.234 235.312 117.336 236.138 117.539 236.82C117.742 237.503 118.036 238.021 118.422 238.375C118.812 238.729 119.281 238.906 119.828 238.906ZM125.641 238.969L129.5 234.906C130.01 234.37 130.398 233.938 130.664 233.609C130.935 233.276 131.138 232.956 131.273 232.648C131.414 232.336 131.484 232.01 131.484 231.672C131.484 231.297 131.385 230.964 131.188 230.672C130.99 230.38 130.719 230.154 130.375 229.992C130.036 229.831 129.656 229.75 129.234 229.75C128.792 229.75 128.404 229.839 128.07 230.016C127.737 230.193 127.479 230.443 127.297 230.766C127.12 231.089 127.031 231.458 127.031 231.875H125.703C125.698 231.219 125.849 230.638 126.156 230.133C126.469 229.628 126.898 229.234 127.445 228.953C127.992 228.672 128.604 228.531 129.281 228.531C129.953 228.531 130.555 228.669 131.086 228.945C131.622 229.221 132.042 229.599 132.344 230.078C132.646 230.557 132.797 231.089 132.797 231.672C132.797 232.104 132.719 232.518 132.562 232.914C132.406 233.305 132.143 233.74 131.773 234.219C131.409 234.693 130.885 235.281 130.203 235.984L127.609 238.656V238.75H133V240H125.656L125.641 238.969Z" fill="#4A4845"/>
</g>
<g id="Button_4">
<path d="M32 273C32 266.373 37.3726 261 44 261H351C357.627 261 363 266.373 363 273V283C363 289.627 357.627 295 351 295H44C37.3726 295 32 289.627 32 283V273Z" fill="#161A18"/>
<path id="2026-04-27" d="M45.4531 282.969L49.3125 278.906C49.8229 278.37 50.2109 277.938 50.4766 277.609C50.7474 277.276 50.9505 276.956 51.0859 276.648C51.2266 276.336 51.2969 276.01 51.2969 275.672C51.2969 275.297 51.1979 274.964 51 274.672C50.8021 274.38 50.5312 274.154 50.1875 273.992C49.849 273.831 49.4688 273.75 49.0469 273.75C48.6042 273.75 48.2161 273.839 47.8828 274.016C47.5495 274.193 47.2917 274.443 47.1094 274.766C46.9323 275.089 46.8438 275.458 46.8438 275.875H45.5156C45.5104 275.219 45.6615 274.638 45.9688 274.133C46.2812 273.628 46.7109 273.234 47.2578 272.953C47.8047 272.672 48.4167 272.531 49.0938 272.531C49.7656 272.531 50.3672 272.669 50.8984 272.945C51.4349 273.221 51.8542 273.599 52.1562 274.078C52.4583 274.557 52.6094 275.089 52.6094 275.672C52.6094 276.104 52.5312 276.518 52.375 276.914C52.2188 277.305 51.9557 277.74 51.5859 278.219C51.2214 278.693 50.6979 279.281 50.0156 279.984L47.4219 282.656V282.75H52.8125V284H45.4688L45.4531 282.969ZM58.5625 284.156C57.7292 284.156 57.0156 283.93 56.4219 283.477C55.8333 283.023 55.3828 282.362 55.0703 281.492C54.763 280.622 54.6094 279.573 54.6094 278.344C54.6094 277.13 54.7656 276.089 55.0781 275.219C55.3906 274.344 55.8438 273.677 56.4375 273.219C57.0312 272.76 57.7396 272.531 58.5625 272.531C59.3854 272.531 60.0938 272.76 60.6875 273.219C61.2812 273.677 61.7344 274.344 62.0469 275.219C62.3594 276.089 62.5156 277.13 62.5156 278.344C62.5156 279.573 62.3594 280.622 62.0469 281.492C61.7396 282.362 61.2891 283.023 60.6953 283.477C60.1016 283.93 59.3906 284.156 58.5625 284.156ZM58.5625 282.906C59.1042 282.906 59.5677 282.729 59.9531 282.375C60.3385 282.021 60.6328 281.503 60.8359 280.82C61.0391 280.138 61.1406 279.312 61.1406 278.344C61.1406 277.375 61.0391 276.547 60.8359 275.859C60.6328 275.172 60.3385 274.648 59.9531 274.289C59.5677 273.93 59.1042 273.75 58.5625 273.75C58.0208 273.75 57.5547 273.93 57.1641 274.289C56.7786 274.648 56.4818 275.172 56.2734 275.859C56.0703 276.547 55.9688 277.375 55.9688 278.344C55.9688 279.312 56.0703 280.138 56.2734 280.82C56.4766 281.503 56.7708 282.021 57.1562 282.375C57.5469 282.729 58.0156 282.906 58.5625 282.906ZM64.375 282.969L68.2344 278.906C68.7448 278.37 69.1328 277.938 69.3984 277.609C69.6693 277.276 69.8724 276.956 70.0078 276.648C70.1484 276.336 70.2188 276.01 70.2188 275.672C70.2188 275.297 70.1198 274.964 69.9219 274.672C69.724 274.38 69.4531 274.154 69.1094 273.992C68.7708 273.831 68.3906 273.75 67.9688 273.75C67.526 273.75 67.138 273.839 66.8047 274.016C66.4714 274.193 66.2135 274.443 66.0312 274.766C65.8542 275.089 65.7656 275.458 65.7656 275.875H64.4375C64.4323 275.219 64.5833 274.638 64.8906 274.133C65.2031 273.628 65.6328 273.234 66.1797 272.953C66.7266 272.672 67.3385 272.531 68.0156 272.531C68.6875 272.531 69.2891 272.669 69.8203 272.945C70.3568 273.221 70.776 273.599 71.0781 274.078C71.3802 274.557 71.5312 275.089 71.5312 275.672C71.5312 276.104 71.4531 276.518 71.2969 276.914C71.1406 277.305 70.8776 277.74 70.5078 278.219C70.1432 278.693 69.6198 279.281 68.9375 279.984L66.3438 282.656V282.75H71.7344V284H64.3906L64.375 282.969ZM77.75 284.156C77.0208 284.156 76.3438 283.992 75.7188 283.664C75.099 283.331 74.5885 282.766 74.1875 281.969C73.7917 281.167 73.5938 280.104 73.5938 278.781C73.5938 277.464 73.7656 276.336 74.1094 275.398C74.4583 274.461 74.9531 273.75 75.5938 273.266C76.2396 272.776 77.0052 272.531 77.8906 272.531C78.5417 272.531 79.125 272.656 79.6406 272.906C80.1615 273.156 80.5859 273.508 80.9141 273.961C81.2474 274.414 81.4635 274.938 81.5625 275.531H80.1719C80.0312 275.005 79.7656 274.583 79.375 274.266C78.9896 273.943 78.4948 273.781 77.8906 273.781C77.276 273.781 76.7448 273.953 76.2969 274.297C75.8542 274.635 75.513 275.128 75.2734 275.773C75.0391 276.419 74.9219 277.193 74.9219 278.094H75.0625C75.3958 277.62 75.8125 277.253 76.3125 276.992C76.8125 276.727 77.3646 276.594 77.9688 276.594C78.6354 276.594 79.25 276.755 79.8125 277.078C80.3802 277.401 80.8281 277.849 81.1562 278.422C81.4896 278.99 81.6562 279.63 81.6562 280.344C81.6562 281.047 81.4922 281.69 81.1641 282.273C80.8411 282.852 80.3828 283.31 79.7891 283.648C79.1953 283.987 78.5156 284.156 77.75 284.156ZM77.7188 282.922C78.1979 282.922 78.6328 282.807 79.0234 282.578C79.4141 282.349 79.7214 282.039 79.9453 281.648C80.1745 281.253 80.2917 280.823 80.2969 280.359C80.2917 279.896 80.1797 279.471 79.9609 279.086C79.7422 278.701 79.4401 278.396 79.0547 278.172C78.6693 277.943 78.2344 277.828 77.75 277.828C77.2656 277.828 76.8229 277.945 76.4219 278.18C76.0208 278.414 75.7031 278.729 75.4688 279.125C75.2344 279.516 75.1146 279.932 75.1094 280.375C75.1094 280.818 75.2214 281.234 75.4453 281.625C75.6745 282.016 75.987 282.331 76.3828 282.57C76.7839 282.805 77.2292 282.922 77.7188 282.922ZM88.4688 278.969H83.5156V277.734H88.4688V278.969ZM94.2188 284.156C93.3854 284.156 92.6719 283.93 92.0781 283.477C91.4896 283.023 91.0391 282.362 90.7266 281.492C90.4193 280.622 90.2656 279.573 90.2656 278.344C90.2656 277.13 90.4219 276.089 90.7344 275.219C91.0469 274.344 91.5 273.677 92.0938 273.219C92.6875 272.76 93.3958 272.531 94.2188 272.531C95.0417 272.531 95.75 272.76 96.3438 273.219C96.9375 273.677 97.3906 274.344 97.7031 275.219C98.0156 276.089 98.1719 277.13 98.1719 278.344C98.1719 279.573 98.0156 280.622 97.7031 281.492C97.3958 282.362 96.9453 283.023 96.3516 283.477C95.7578 283.93 95.0469 284.156 94.2188 284.156ZM94.2188 282.906C94.7604 282.906 95.224 282.729 95.6094 282.375C95.9948 282.021 96.2891 281.503 96.4922 280.82C96.6953 280.138 96.7969 279.312 96.7969 278.344C96.7969 277.375 96.6953 276.547 96.4922 275.859C96.2891 275.172 95.9948 274.648 95.6094 274.289C95.224 273.93 94.7604 273.75 94.2188 273.75C93.6771 273.75 93.2109 273.93 92.8203 274.289C92.4349 274.648 92.138 275.172 91.9297 275.859C91.7266 276.547 91.625 277.375 91.625 278.344C91.625 279.312 91.7266 280.138 91.9297 280.82C92.1328 281.503 92.4271 282.021 92.8125 282.375C93.2031 282.729 93.6719 282.906 94.2188 282.906ZM99.7656 280.531L104.859 272.688H106.594V280.453H108.172V281.688H106.594V284H105.25V281.688H99.7656V280.531ZM105.25 280.453V274.469H105.109L101.281 280.359V280.453H105.25ZM114.906 278.969H109.953V277.734H114.906V278.969ZM116.422 282.969L120.281 278.906C120.792 278.37 121.18 277.938 121.445 277.609C121.716 277.276 121.919 276.956 122.055 276.648C122.195 276.336 122.266 276.01 122.266 275.672C122.266 275.297 122.167 274.964 121.969 274.672C121.771 274.38 121.5 274.154 121.156 273.992C120.818 273.831 120.438 273.75 120.016 273.75C119.573 273.75 119.185 273.839 118.852 274.016C118.518 274.193 118.26 274.443 118.078 274.766C117.901 275.089 117.812 275.458 117.812 275.875H116.484C116.479 275.219 116.63 274.638 116.938 274.133C117.25 273.628 117.68 273.234 118.227 272.953C118.773 272.672 119.385 272.531 120.062 272.531C120.734 272.531 121.336 272.669 121.867 272.945C122.404 273.221 122.823 273.599 123.125 274.078C123.427 274.557 123.578 275.089 123.578 275.672C123.578 276.104 123.5 276.518 123.344 276.914C123.188 277.305 122.924 277.74 122.555 278.219C122.19 278.693 121.667 279.281 120.984 279.984L118.391 282.656V282.75H123.781V284H116.438L116.422 282.969ZM131.375 274.016V273.938H125.391V272.688H132.828V274L127.656 284H126.188L131.375 274.016Z" fill="#4A4845"/>
</g>
</g>
<line id="Line 7" x1="370.5" y1="174.5" x2="370.5" y2="241.5" stroke="#4A4845" stroke-width="3" stroke-linecap="round"/>
</g>
</g>
</g>
<path d="M401.34 286V285H8V286V287H401.34V286Z" fill="#373F3B" mask="url(#path-1-inside-1_406_6404)"/>
</g>
</g>
</g>
<defs>
<filter id="filter0_dd_406_6404" x="0" y="0" width="409.34" height="296" filterUnits="userSpaceOnUse" color-interpolation-filters="sRGB">
<feFlood flood-opacity="0" result="BackgroundImageFix"/>
<feColorMatrix in="SourceAlpha" type="matrix" values="0 0 0 0 0 0 0 0 0 0 0 0 0 0 0 0 0 0 127 0" result="hardAlpha"/>
<feOffset dy="2"/>
<feGaussianBlur stdDeviation="4"/>
<feColorMatrix type="matrix" values="0 0 0 0 0 0 0 0 0 0 0 0 0 0 0 0 0 0 0.3 0"/>
<feBlend mode="normal" in2="BackgroundImageFix" result="effect1_dropShadow_406_6404"/>
<feColorMatrix in="SourceAlpha" type="matrix" values="0 0 0 0 0 0 0 0 0 0 0 0 0 0 0 0 0 0 127 0" result="hardAlpha"/>
<feOffset dy="1"/>
<feGaussianBlur stdDeviation="1"/>
<feColorMatrix type="matrix" values="0 0 0 0 0 0 0 0 0 0 0 0 0 0 0 0 0 0 0.15 0"/>
<feBlend mode="normal" in2="effect1_dropShadow_406_6404" result="effect2_dropShadow_406_6404"/>
<feBlend mode="normal" in="SourceGraphic" in2="effect2_dropShadow_406_6404" result="shape"/>
</filter>
<clipPath id="clip0_406_6404">
<path d="M8 6H401.34V286H8V6Z" fill="white"/>
</clipPath>
</defs>
</svg>
