<svg width="410" height="244" viewBox="0 0 410 244" fill="none" xmlns="http://www.w3.org/2000/svg">
<g id="Property 1=Light" filter="url(#filter0_dd_123_6082)">
<g id="Frame 69">
<g id="Container">
<mask id="path-1-inside-1_123_6082" fill="white">
<path d="M8 6H401.34V161.992H8V6Z"/>
</mask>
<path d="M8 6H401.34V161.992H8V6Z" fill="#FAFAF7"/>
<path d="M401.34 161.992V160.992H8V161.992V162.992H401.34V161.992Z" fill="#E2DDD5" mask="url(#path-1-inside-1_123_6082)"/>
<g id="Frame 129">
<g id="Button">
<g id="Icon">
<path id="Vector" d="M41.9973 48.832L36.1655 43.0002L41.9973 37.1685" stroke="#4A7C59" stroke-width="1.66623" stroke-linecap="round" stroke-linejoin="round"/>
<path id="Vector_2" d="M47.8291 43.0005H36.1655" stroke="#4A7C59" stroke-width="1.66623" stroke-linecap="round" stroke-linejoin="round"/>
</g>
<g id="Text">
<path id="&#235;&#146;&#164;&#235;&#161;&#156;&#234;&#176;&#128;&#234;&#184;&#176;" d="M76.3496 49.7808H75.1465V35.8901H76.3496V49.7808ZM64.834 43.4526C66.8236 43.4422 68.5345 43.4162 69.9668 43.3745C71.3991 43.3276 72.7923 43.2287 74.1465 43.0776L74.209 44.0151C72.9434 44.1818 71.584 44.3042 70.1309 44.3823V49.3433H68.9121V44.437C67.6829 44.4787 66.3757 44.4995 64.9902 44.4995L64.834 43.4526ZM73.084 41.687H66.1621V36.6714H72.8965V37.6714H67.3965V40.6558H73.084V41.687ZM91.4434 48.0464H78.7246V47.0151H84.4434V44.3901H80.3184V40.1089H88.6309V37.9214H80.2871V36.9058H89.834V41.1089H81.5371V43.3745H90.1621V44.3901H85.6465V47.0151H91.4434V48.0464ZM103.303 41.5308H105.553V42.562H103.303V49.7651H102.084V35.8745H103.303V41.5308ZM99.709 37.3745C99.709 39.4422 99.1908 41.3172 98.1543 42.9995C97.1178 44.6766 95.5111 46.0516 93.334 47.1245L92.6465 46.1558C94.4329 45.2651 95.8158 44.1662 96.7949 42.8589C97.7741 41.5464 98.334 40.062 98.4746 38.4058H93.2871V37.3745H99.709ZM117.865 49.7651H116.631V35.8745H117.865V49.7651ZM113.756 37.3901C113.745 39.4891 113.214 41.3745 112.162 43.0464C111.11 44.7131 109.464 46.0828 107.225 47.1558L106.553 46.1558C108.407 45.2756 109.826 44.1818 110.811 42.8745C111.8 41.5672 112.365 40.0724 112.506 38.3901H107.193V37.3901H113.756Z" fill="#4A7C59"/>
</g>
</g>
<path id="&#237;&#142;&#184;&#236;&#167;&#145;" d="M361.59 46.7188H360.356V42.6875H357.981V41.6562H360.356V40.0469H357.981V39.0312H360.356V36.375H361.59V46.7188ZM357.871 38.5156H356.449V43.3828C357.272 43.3255 357.897 43.2708 358.324 43.2188L358.387 44.1406C357.184 44.3281 355.9 44.4531 354.535 44.5156C353.171 44.5781 351.746 44.6094 350.262 44.6094L350.106 43.5625L351.902 43.5469V38.5156H350.496V37.5156H357.871V38.5156ZM361.965 49.9688H352.637V45.8594H353.871V48.9375H361.965V49.9688ZM353.09 43.5234C353.824 43.5078 354.548 43.4844 355.262 43.4531V38.5156H353.09V43.5234ZM368.902 38.6719C368.902 39.2656 369.056 39.8333 369.363 40.375C369.671 40.9167 370.095 41.3906 370.637 41.7969C371.179 42.2031 371.793 42.5104 372.481 42.7188L371.856 43.6875C371.043 43.4271 370.324 43.0312 369.699 42.5C369.08 41.9635 368.611 41.3385 368.293 40.625C367.991 41.3854 367.527 42.0547 366.902 42.6328C366.277 43.2057 365.548 43.6354 364.715 43.9219L364.074 42.9531C364.767 42.7344 365.384 42.4089 365.926 41.9766C366.473 41.5443 366.9 41.0417 367.207 40.4688C367.514 39.8958 367.668 39.2969 367.668 38.6719V38.3125H364.418V37.3125H372.106V38.3125H368.902V38.6719ZM375.371 43.8906H374.152V36.375H375.371V43.8906ZM367.59 46.2656H374.152V44.5781H375.371V50.0781H366.371V44.5781H367.59V46.2656ZM374.152 49.0781V47.25H367.59V49.0781H374.152Z" fill="#4A7C59"/>
</g>
<g id="Frame 131">
<g id="Heading 1">
<path id="&#236;&#160;&#156;&#236;&#163;&#188;&#235;&#143;&#132; 3&#235;&#176;&#149; 4&#236;&#157;&#188;" d="M49.4883 99.2275H46.8887V79.6768H49.4883V99.2275ZM45.4922 98.3252H42.9141V88.5928H40.3359V86.3799H42.9141V79.999H45.4922V98.3252ZM38.7676 84.9189C38.7676 86.695 39.0755 88.3099 39.6914 89.7637C40.3145 91.2103 41.2956 92.3167 42.6348 93.083L41.0234 95.1025C40.1784 94.6012 39.4587 93.9352 38.8643 93.1045C38.277 92.2738 37.8151 91.3141 37.4785 90.2256C37.1276 91.4144 36.6478 92.4635 36.0391 93.373C35.4303 94.2826 34.6927 95.0023 33.8262 95.5322L32.1719 93.5127C33.0885 92.9541 33.8405 92.2201 34.4277 91.3105C35.0221 90.3939 35.4518 89.3913 35.7168 88.3027C35.9889 87.2142 36.125 86.0863 36.125 84.9189V83.8662H32.9238V81.6748H41.7324V83.8662H38.7676V84.9189ZM69.1258 92.6533H61.5203V99.2275H58.8133V92.6533H51.2938V90.4619H69.1258V92.6533ZM67.5359 82.8564H61.8318C61.9249 83.5153 62.2329 84.1455 62.7557 84.7471C63.2785 85.3415 64.0089 85.8571 64.9471 86.2939C65.8852 86.7236 66.9988 87.0173 68.2879 87.1748L67.2996 89.3232C65.6095 89.0941 64.1557 88.6357 62.9383 87.9482C61.728 87.2607 60.8221 86.4049 60.2205 85.3809C59.6118 86.4049 58.7059 87.2607 57.5027 87.9482C56.2996 88.6357 54.8602 89.0941 53.1844 89.3232L52.1746 87.1748C53.4422 87.0173 54.5415 86.7236 55.4725 86.2939C56.4106 85.8571 57.1411 85.3415 57.6639 84.7471C58.1938 84.1455 58.5089 83.5153 58.6092 82.8564H52.9051V80.708H67.5359V82.8564ZM85.9488 90.5908H80.277V94.7588H87.9039V96.9932H70.0074V94.7588H77.5484V90.5908H72.1129V81.0518H85.7984V83.2432H74.8629V88.4209H85.9488V90.5908ZM99.8937 97.4658C98.7694 97.4658 97.7596 97.2725 96.8645 96.8857C95.9764 96.4919 95.2746 95.9476 94.759 95.2529C94.2505 94.5511 93.9855 93.7562 93.9641 92.8682H97.2297C97.2512 93.2477 97.3801 93.5843 97.6164 93.8779C97.8527 94.1715 98.1714 94.4007 98.5725 94.5654C98.9735 94.723 99.4211 94.8018 99.9152 94.8018C100.424 94.8018 100.878 94.7122 101.279 94.5332C101.688 94.347 102.003 94.0928 102.225 93.7705C102.454 93.4482 102.565 93.083 102.558 92.6748C102.565 92.2523 102.447 91.8763 102.203 91.5469C101.967 91.2174 101.627 90.9632 101.183 90.7842C100.739 90.598 100.216 90.5049 99.6145 90.5049H98.175V88.1201H99.6145C100.116 88.1201 100.563 88.0342 100.957 87.8623C101.351 87.6904 101.659 87.4469 101.881 87.1318C102.103 86.8167 102.214 86.4587 102.214 86.0576C102.214 85.6637 102.117 85.3164 101.924 85.0156C101.738 84.7148 101.473 84.4821 101.129 84.3174C100.785 84.1455 100.388 84.0596 99.9367 84.0596C99.4784 84.0596 99.0559 84.1419 98.6691 84.3066C98.2896 84.4642 97.9816 84.6934 97.7453 84.9941C97.5161 85.2878 97.3944 85.6279 97.3801 86.0146H94.2863C94.3007 85.1338 94.5549 84.3496 95.049 83.6621C95.5432 82.9746 96.2163 82.4411 97.0686 82.0615C97.9279 81.6748 98.884 81.4814 99.9367 81.4814C100.997 81.4814 101.935 81.6748 102.751 82.0615C103.575 82.4411 104.212 82.9674 104.663 83.6406C105.114 84.3066 105.336 85.0479 105.329 85.8643C105.336 86.43 105.215 86.9456 104.964 87.4111C104.721 87.8695 104.373 88.249 103.922 88.5498C103.478 88.8506 102.966 89.0511 102.386 89.1514V89.2803C103.138 89.3734 103.779 89.5811 104.309 89.9033C104.839 90.2256 105.24 90.6445 105.512 91.1602C105.784 91.6686 105.917 92.2451 105.909 92.8896C105.917 93.7633 105.662 94.5511 105.147 95.2529C104.631 95.9476 103.915 96.4919 102.998 96.8857C102.082 97.2725 101.047 97.4658 99.8937 97.4658ZM122.754 84.4678H125.396V86.6807H122.754V91.4287H120.004V79.6768H122.754V84.4678ZM122.754 99.2275H120.004V94.458H109.584V92.2881H122.754V99.2275ZM110.551 83.501H114.547V80.9014H117.297V90.3975H107.822V80.9014H110.551V83.501ZM114.547 88.2275V85.6279H110.551V88.2275H114.547ZM131.113 91.9443L137.687 81.6963H141.748V91.9014H143.724V94.501H141.748V97.251H138.675V94.501H131.113V91.9443ZM138.718 91.9014V85.2412H138.568L134.379 91.7725V91.9014H138.718ZM150.45 80.2568C151.431 80.2568 152.319 80.4466 153.114 80.8262C153.909 81.2057 154.532 81.7357 154.983 82.416C155.441 83.0964 155.67 83.8662 155.67 84.7256C155.67 85.5706 155.441 86.3333 154.983 87.0137C154.532 87.6868 153.909 88.2168 153.114 88.6035C152.319 88.9831 151.431 89.1729 150.45 89.1729C149.454 89.1729 148.555 88.9831 147.753 88.6035C146.951 88.2168 146.321 87.6868 145.863 87.0137C145.412 86.3333 145.186 85.5706 145.186 84.7256C145.186 83.8662 145.412 83.0964 145.863 82.416C146.321 81.7357 146.948 81.2057 147.743 80.8262C148.545 80.4466 149.447 80.2568 150.45 80.2568ZM150.45 82.4912C149.948 82.4912 149.497 82.5807 149.096 82.7598C148.702 82.9316 148.394 83.1895 148.172 83.5332C147.95 83.8698 147.843 84.2673 147.85 84.7256C147.843 85.1839 147.95 85.5814 148.172 85.918C148.394 86.2546 148.702 86.5124 149.096 86.6914C149.497 86.8704 149.948 86.96 150.45 86.96C150.944 86.96 151.384 86.8704 151.771 86.6914C152.165 86.5124 152.473 86.2546 152.695 85.918C152.917 85.5814 153.028 85.1839 153.028 84.7256C153.028 84.2601 152.917 83.859 152.695 83.5225C152.473 83.1859 152.165 82.9316 151.771 82.7598C151.384 82.5807 150.944 82.4912 150.45 82.4912ZM161.256 89.4736H158.506V79.6768H161.256V89.4736ZM161.256 95.5967H150.858V96.8643H161.793V99.0127H148.172V93.5986H158.528V92.3955H148.129V90.29H161.256V95.5967Z" fill="#1A1A1A"/>
</g>
<g id="Paragraph">
<path id="2026-05-10 &#226;&#128;&#162; &#236;&#160;&#156;&#236;&#163;&#188;&#235;&#143;&#132;" d="M33.0469 130.461L36.9062 126.398C37.4167 125.862 37.8047 125.43 38.0703 125.102C38.3411 124.768 38.5443 124.448 38.6797 124.141C38.8203 123.828 38.8906 123.503 38.8906 123.164C38.8906 122.789 38.7917 122.456 38.5938 122.164C38.3958 121.872 38.125 121.646 37.7812 121.484C37.4427 121.323 37.0625 121.242 36.6406 121.242C36.1979 121.242 35.8099 121.331 35.4766 121.508C35.1432 121.685 34.8854 121.935 34.7031 122.258C34.526 122.581 34.4375 122.951 34.4375 123.367H33.1094C33.1042 122.711 33.2552 122.13 33.5625 121.625C33.875 121.12 34.3047 120.727 34.8516 120.445C35.3984 120.164 36.0104 120.023 36.6875 120.023C37.3594 120.023 37.9609 120.161 38.4922 120.438C39.0286 120.714 39.4479 121.091 39.75 121.57C40.0521 122.049 40.2031 122.581 40.2031 123.164C40.2031 123.596 40.125 124.01 39.9688 124.406C39.8125 124.797 39.5495 125.232 39.1797 125.711C38.8151 126.185 38.2917 126.773 37.6094 127.477L35.0156 130.148V130.242H40.4062V131.492H33.0625L33.0469 130.461ZM46.1562 131.648C45.3229 131.648 44.6094 131.422 44.0156 130.969C43.4271 130.516 42.9766 129.854 42.6641 128.984C42.3568 128.115 42.2031 127.065 42.2031 125.836C42.2031 124.622 42.3594 123.581 42.6719 122.711C42.9844 121.836 43.4375 121.169 44.0312 120.711C44.625 120.253 45.3333 120.023 46.1562 120.023C46.9792 120.023 47.6875 120.253 48.2812 120.711C48.875 121.169 49.3281 121.836 49.6406 122.711C49.9531 123.581 50.1094 124.622 50.1094 125.836C50.1094 127.065 49.9531 128.115 49.6406 128.984C49.3333 129.854 48.8828 130.516 48.2891 130.969C47.6953 131.422 46.9844 131.648 46.1562 131.648ZM46.1562 130.398C46.6979 130.398 47.1615 130.221 47.5469 129.867C47.9323 129.513 48.2266 128.995 48.4297 128.312C48.6328 127.63 48.7344 126.805 48.7344 125.836C48.7344 124.867 48.6328 124.039 48.4297 123.352C48.2266 122.664 47.9323 122.141 47.5469 121.781C47.1615 121.422 46.6979 121.242 46.1562 121.242C45.6146 121.242 45.1484 121.422 44.7578 121.781C44.3724 122.141 44.0755 122.664 43.8672 123.352C43.6641 124.039 43.5625 124.867 43.5625 125.836C43.5625 126.805 43.6641 127.63 43.8672 128.312C44.0703 128.995 44.3646 129.513 44.75 129.867C45.1406 130.221 45.6094 130.398 46.1562 130.398ZM51.9688 130.461L55.8281 126.398C56.3385 125.862 56.7266 125.43 56.9922 125.102C57.263 124.768 57.4661 124.448 57.6016 124.141C57.7422 123.828 57.8125 123.503 57.8125 123.164C57.8125 122.789 57.7135 122.456 57.5156 122.164C57.3177 121.872 57.0469 121.646 56.7031 121.484C56.3646 121.323 55.9844 121.242 55.5625 121.242C55.1198 121.242 54.7318 121.331 54.3984 121.508C54.0651 121.685 53.8073 121.935 53.625 122.258C53.4479 122.581 53.3594 122.951 53.3594 123.367H52.0312C52.026 122.711 52.1771 122.13 52.4844 121.625C52.7969 121.12 53.2266 120.727 53.7734 120.445C54.3203 120.164 54.9323 120.023 55.6094 120.023C56.2812 120.023 56.8828 120.161 57.4141 120.438C57.9505 120.714 58.3698 121.091 58.6719 121.57C58.974 122.049 59.125 122.581 59.125 123.164C59.125 123.596 59.0469 124.01 58.8906 124.406C58.7344 124.797 58.4714 125.232 58.1016 125.711C57.737 126.185 57.2135 126.773 56.5312 127.477L53.9375 130.148V130.242H59.3281V131.492H51.9844L51.9688 130.461ZM65.3438 131.648C64.6146 131.648 63.9375 131.484 63.3125 131.156C62.6927 130.823 62.1823 130.258 61.7812 129.461C61.3854 128.659 61.1875 127.596 61.1875 126.273C61.1875 124.956 61.3594 123.828 61.7031 122.891C62.0521 121.953 62.5469 121.242 63.1875 120.758C63.8333 120.268 64.599 120.023 65.4844 120.023C66.1354 120.023 66.7188 120.148 67.2344 120.398C67.7552 120.648 68.1797 121 68.5078 121.453C68.8411 121.906 69.0573 122.43 69.1562 123.023H67.7656C67.625 122.497 67.3594 122.076 66.9688 121.758C66.5833 121.435 66.0885 121.273 65.4844 121.273C64.8698 121.273 64.3385 121.445 63.8906 121.789C63.4479 122.128 63.1068 122.62 62.8672 123.266C62.6328 123.911 62.5156 124.685 62.5156 125.586H62.6562C62.9896 125.112 63.4062 124.745 63.9062 124.484C64.4062 124.219 64.9583 124.086 65.5625 124.086C66.2292 124.086 66.8438 124.247 67.4062 124.57C67.974 124.893 68.4219 125.341 68.75 125.914C69.0833 126.482 69.25 127.122 69.25 127.836C69.25 128.539 69.0859 129.182 68.7578 129.766C68.4349 130.344 67.9766 130.802 67.3828 131.141C66.7891 131.479 66.1094 131.648 65.3438 131.648ZM65.3125 130.414C65.7917 130.414 66.2266 130.299 66.6172 130.07C67.0078 129.841 67.3151 129.531 67.5391 129.141C67.7682 128.745 67.8854 128.315 67.8906 127.852C67.8854 127.388 67.7734 126.964 67.5547 126.578C67.3359 126.193 67.0339 125.888 66.6484 125.664C66.263 125.435 65.8281 125.32 65.3438 125.32C64.8594 125.32 64.4167 125.438 64.0156 125.672C63.6146 125.906 63.2969 126.221 63.0625 126.617C62.8281 127.008 62.7083 127.424 62.7031 127.867C62.7031 128.31 62.8151 128.727 63.0391 129.117C63.2682 129.508 63.5807 129.823 63.9766 130.062C64.3776 130.297 64.8229 130.414 65.3125 130.414ZM76.0625 126.461H71.1094V125.227H76.0625V126.461ZM81.8125 131.648C80.9792 131.648 80.2656 131.422 79.6719 130.969C79.0833 130.516 78.6328 129.854 78.3203 128.984C78.013 128.115 77.8594 127.065 77.8594 125.836C77.8594 124.622 78.0156 123.581 78.3281 122.711C78.6406 121.836 79.0938 121.169 79.6875 120.711C80.2812 120.253 80.9896 120.023 81.8125 120.023C82.6354 120.023 83.3438 120.253 83.9375 120.711C84.5312 121.169 84.9844 121.836 85.2969 122.711C85.6094 123.581 85.7656 124.622 85.7656 125.836C85.7656 127.065 85.6094 128.115 85.2969 128.984C84.9896 129.854 84.5391 130.516 83.9453 130.969C83.3516 131.422 82.6406 131.648 81.8125 131.648ZM81.8125 130.398C82.3542 130.398 82.8177 130.221 83.2031 129.867C83.5885 129.513 83.8828 128.995 84.0859 128.312C84.2891 127.63 84.3906 126.805 84.3906 125.836C84.3906 124.867 84.2891 124.039 84.0859 123.352C83.8828 122.664 83.5885 122.141 83.2031 121.781C82.8177 121.422 82.3542 121.242 81.8125 121.242C81.2708 121.242 80.8047 121.422 80.4141 121.781C80.0286 122.141 79.7318 122.664 79.5234 123.352C79.3203 124.039 79.2188 124.867 79.2188 125.836C79.2188 126.805 79.3203 127.63 79.5234 128.312C79.7266 128.995 80.0208 129.513 80.4062 129.867C80.7969 130.221 81.2656 130.398 81.8125 130.398ZM91.3281 131.648C90.6562 131.648 90.0443 131.521 89.4922 131.266C88.9453 131.005 88.5078 130.648 88.1797 130.195C87.8568 129.737 87.6823 129.221 87.6562 128.648H89.0156C89.0521 128.982 89.1771 129.284 89.3906 129.555C89.6042 129.82 89.8802 130.031 90.2188 130.188C90.5573 130.339 90.9271 130.414 91.3281 130.414C91.8073 130.414 92.2396 130.305 92.625 130.086C93.0104 129.867 93.3125 129.568 93.5312 129.188C93.75 128.807 93.8594 128.383 93.8594 127.914C93.8594 127.43 93.7448 126.995 93.5156 126.609C93.2917 126.219 92.9792 125.914 92.5781 125.695C92.1823 125.471 91.7344 125.357 91.2344 125.352C90.2292 125.336 89.526 125.674 89.125 126.367H87.7656L88.5625 120.18H94.6875V121.43H89.7344L89.3125 124.742H89.4219C89.6771 124.544 89.987 124.385 90.3516 124.266C90.7161 124.146 91.0938 124.086 91.4844 124.086C92.1927 124.086 92.8307 124.25 93.3984 124.578C93.9714 124.901 94.4193 125.352 94.7422 125.93C95.0703 126.508 95.2344 127.159 95.2344 127.883C95.2344 128.602 95.0651 129.247 94.7266 129.82C94.388 130.393 93.9219 130.841 93.3281 131.164C92.7344 131.487 92.0677 131.648 91.3281 131.648ZM102.062 126.461H97.1094V125.227H102.062V126.461ZM108.109 131.492H106.688V121.648H106.625L103.875 123.477V122.055L106.688 120.18H108.109V131.492ZM114.828 131.648C113.995 131.648 113.281 131.422 112.688 130.969C112.099 130.516 111.648 129.854 111.336 128.984C111.029 128.115 110.875 127.065 110.875 125.836C110.875 124.622 111.031 123.581 111.344 122.711C111.656 121.836 112.109 121.169 112.703 120.711C113.297 120.253 114.005 120.023 114.828 120.023C115.651 120.023 116.359 120.253 116.953 120.711C117.547 121.169 118 121.836 118.312 122.711C118.625 123.581 118.781 124.622 118.781 125.836C118.781 127.065 118.625 128.115 118.312 128.984C118.005 129.854 117.555 130.516 116.961 130.969C116.367 131.422 115.656 131.648 114.828 131.648ZM114.828 130.398C115.37 130.398 115.833 130.221 116.219 129.867C116.604 129.513 116.898 128.995 117.102 128.312C117.305 127.63 117.406 126.805 117.406 125.836C117.406 124.867 117.305 124.039 117.102 123.352C116.898 122.664 116.604 122.141 116.219 121.781C115.833 121.422 115.37 121.242 114.828 121.242C114.286 121.242 113.82 121.422 113.43 121.781C113.044 122.141 112.747 122.664 112.539 123.352C112.336 124.039 112.234 124.867 112.234 125.836C112.234 126.805 112.336 127.63 112.539 128.312C112.742 128.995 113.036 129.513 113.422 129.867C113.812 130.221 114.281 130.398 114.828 130.398ZM127.625 127.43C127.339 127.43 127.073 127.359 126.828 127.219C126.583 127.073 126.388 126.878 126.242 126.633C126.102 126.383 126.031 126.112 126.031 125.82C126.031 125.534 126.102 125.268 126.242 125.023C126.388 124.779 126.583 124.586 126.828 124.445C127.073 124.299 127.339 124.227 127.625 124.227C127.917 124.227 128.185 124.299 128.43 124.445C128.68 124.586 128.875 124.779 129.016 125.023C129.161 125.268 129.234 125.534 129.234 125.82C129.234 126.112 129.161 126.383 129.016 126.633C128.875 126.878 128.68 127.073 128.43 127.219C128.185 127.359 127.917 127.43 127.625 127.43ZM148.219 132.758H147.047V118.867H148.219V132.758ZM145.406 132.039H144.25V124.883H141.906V123.883H144.25V119.211H145.406V132.039ZM140.422 122.836C140.422 123.643 140.539 124.432 140.773 125.203C141.008 125.969 141.352 126.661 141.805 127.281C142.258 127.896 142.797 128.383 143.422 128.742L142.672 129.648C142 129.247 141.424 128.693 140.945 127.984C140.466 127.271 140.102 126.464 139.852 125.562C139.596 126.536 139.219 127.409 138.719 128.18C138.224 128.951 137.635 129.549 136.953 129.977L136.172 129.055C136.802 128.68 137.349 128.167 137.812 127.516C138.276 126.865 138.628 126.135 138.867 125.328C139.112 124.516 139.234 123.685 139.234 122.836V121.523H136.562V120.508H142.969V121.523H140.422V122.836ZM157.188 120.836C157.182 121.43 157.414 121.997 157.883 122.539C158.352 123.076 158.964 123.529 159.719 123.898C160.474 124.268 161.26 124.513 162.078 124.633L161.625 125.602C160.891 125.477 160.182 125.268 159.5 124.977C158.823 124.685 158.221 124.32 157.695 123.883C157.169 123.44 156.771 122.948 156.5 122.406C156.229 122.948 155.831 123.438 155.305 123.875C154.779 124.312 154.177 124.68 153.5 124.977C152.828 125.268 152.13 125.477 151.406 125.602L150.922 124.633C151.734 124.513 152.518 124.268 153.273 123.898C154.029 123.529 154.641 123.076 155.109 122.539C155.578 121.997 155.812 121.43 155.812 120.836V120.742H151.359V119.742H161.625V120.742H157.188V120.836ZM162.828 127.805H157.078V132.758H155.875V127.805H150.172V126.789H162.828V127.805ZM175.219 126.383H170.922V129.977H176.719V131.008H164V129.977H169.719V126.383H165.625V120.008H175.078V121.008H166.859V125.383H175.219V126.383Z" fill="#888882"/>
</g>
</g>
</g>
<g id="Container_2">
<mask id="path-9-inside-2_123_6082" fill="white">
<path d="M8 161.992H401.34V233.992H8V161.992Z"/>
</mask>
<path d="M8 161.992H401.34V233.992H8V161.992Z" fill="#FAFAF7"/>
<path d="M401.34 233.992V232.992H8V233.992V234.992H401.34V233.992Z" fill="#E2DDD5" mask="url(#path-9-inside-2_123_6082)"/>
<g id="Container_3" clip-path="url(#clip0_123_6082)">
<g id="Button_2">
<path d="M44.4723 189.998C44.4723 183.37 49.8449 177.998 56.4723 177.998H106.574C113.202 177.998 118.574 183.37 118.574 189.998V205.987C118.574 212.614 113.202 217.987 106.574 217.987H56.4723C49.8449 217.987 44.4723 212.614 44.4723 205.987V189.998Z" fill="#4A7C59"/>
<path id="Day 1" d="M63.0493 202.492V191.179H66.8306C67.9347 191.179 68.8853 191.406 69.6821 191.859C70.4842 192.307 71.0962 192.955 71.5181 193.804C71.9451 194.648 72.1587 195.653 72.1587 196.82C72.1587 197.992 71.9425 199.005 71.5103 199.859C71.0832 200.708 70.4608 201.359 69.6431 201.812C68.8306 202.265 67.8566 202.492 66.7212 202.492H63.0493ZM66.6274 200.992C67.8931 200.992 68.8462 200.635 69.4868 199.921C70.1326 199.203 70.4556 198.169 70.4556 196.82C70.4556 195.481 70.1379 194.458 69.5024 193.75C68.8722 193.036 67.9451 192.679 66.7212 192.679H64.7681V200.992H66.6274ZM73.5649 200.101C73.5649 199.221 73.8618 198.593 74.4556 198.218C75.0493 197.843 75.8097 197.622 76.7368 197.554C77.091 197.528 77.4764 197.505 77.8931 197.484C78.3149 197.458 78.6717 197.44 78.9634 197.429L78.9556 196.757C78.9556 196.273 78.8097 195.901 78.5181 195.64C78.2264 195.375 77.7993 195.242 77.2368 195.242C76.7629 195.242 76.3748 195.341 76.0728 195.539C75.7707 195.731 75.5754 195.992 75.4868 196.32H73.8306C73.8826 195.851 74.0571 195.434 74.354 195.07C74.6509 194.7 75.0519 194.414 75.5571 194.21C76.0675 194.002 76.6483 193.898 77.2993 193.898C77.8358 193.898 78.3514 193.981 78.8462 194.148C79.3462 194.315 79.7681 194.617 80.1118 195.054C80.4556 195.492 80.6274 196.091 80.6274 196.851V202.492H79.0024V201.335H78.9399C78.7472 201.71 78.4399 202.028 78.0181 202.289C77.6014 202.549 77.0701 202.679 76.4243 202.679C75.8826 202.679 75.3957 202.578 74.9634 202.375C74.5311 202.171 74.1899 201.877 73.9399 201.492C73.6899 201.101 73.5649 200.638 73.5649 200.101ZM75.1899 200.117C75.1899 200.513 75.3358 200.817 75.6274 201.031C75.9243 201.244 76.3149 201.351 76.7993 201.351C77.2368 201.351 77.6196 201.265 77.9478 201.093C78.2759 200.916 78.5285 200.682 78.7056 200.39C78.8826 200.093 78.9712 199.773 78.9712 199.429L78.9634 198.656L76.9712 198.789C76.4035 198.83 75.9634 198.96 75.6509 199.179C75.3436 199.393 75.1899 199.705 75.1899 200.117ZM83.3618 205.679C82.9868 205.679 82.6899 205.664 82.4712 205.632V204.242C82.7212 204.263 82.9712 204.273 83.2212 204.273C83.4347 204.273 83.6118 204.252 83.7524 204.21C83.8931 204.169 84.0311 204.067 84.1665 203.906C84.3071 203.744 84.4399 203.497 84.5649 203.164L84.7681 202.601L81.6587 194.007H83.4399L85.5806 200.585H85.6743L87.8149 194.007H89.6118L86.1118 203.617C85.867 204.299 85.5181 204.812 85.0649 205.156C84.617 205.505 84.0493 205.679 83.3618 205.679ZM99.1587 202.492H97.4243V192.898H97.3618L94.6587 194.664V193.023L97.4712 191.179H99.1587V202.492Z" fill="#FAFAF7"/>
</g>
<g id="Button_3">
<path d="M126.57 189.998C126.57 183.37 131.943 177.998 138.57 177.998H188.672C195.3 177.998 200.672 183.37 200.672 189.998V205.987C200.672 212.614 195.3 217.987 188.672 217.987H138.57C131.943 217.987 126.57 212.614 126.57 205.987V189.998Z" fill="#EDEAE3"/>
<path id="Day 2" d="M143.975 202.492V191.179H147.756C148.861 191.179 149.811 191.406 150.608 191.859C151.41 192.307 152.022 192.955 152.444 193.804C152.871 194.648 153.085 195.653 153.085 196.82C153.085 197.992 152.868 199.005 152.436 199.859C152.009 200.708 151.387 201.359 150.569 201.812C149.756 202.265 148.783 202.492 147.647 202.492H143.975ZM147.553 200.992C148.819 200.992 149.772 200.635 150.413 199.921C151.059 199.203 151.381 198.169 151.381 196.82C151.381 195.481 151.064 194.458 150.428 193.75C149.798 193.036 148.871 192.679 147.647 192.679H145.694V200.992H147.553ZM154.491 200.101C154.491 199.221 154.788 198.593 155.381 198.218C155.975 197.843 156.736 197.622 157.663 197.554C158.017 197.528 158.402 197.505 158.819 197.484C159.241 197.458 159.598 197.44 159.889 197.429L159.881 196.757C159.881 196.273 159.736 195.901 159.444 195.64C159.152 195.375 158.725 195.242 158.163 195.242C157.689 195.242 157.301 195.341 156.999 195.539C156.697 195.731 156.501 195.992 156.413 196.32H154.756C154.809 195.851 154.983 195.434 155.28 195.07C155.577 194.7 155.978 194.414 156.483 194.21C156.993 194.002 157.574 193.898 158.225 193.898C158.762 193.898 159.277 193.981 159.772 194.148C160.272 194.315 160.694 194.617 161.038 195.054C161.381 195.492 161.553 196.091 161.553 196.851V202.492H159.928V201.335H159.866C159.673 201.71 159.366 202.028 158.944 202.289C158.527 202.549 157.996 202.679 157.35 202.679C156.809 202.679 156.322 202.578 155.889 202.375C155.457 202.171 155.116 201.877 154.866 201.492C154.616 201.101 154.491 200.638 154.491 200.101ZM156.116 200.117C156.116 200.513 156.262 200.817 156.553 201.031C156.85 201.244 157.241 201.351 157.725 201.351C158.163 201.351 158.546 201.265 158.874 201.093C159.202 200.916 159.454 200.682 159.631 200.39C159.809 200.093 159.897 199.773 159.897 199.429L159.889 198.656L157.897 198.789C157.329 198.83 156.889 198.96 156.577 199.179C156.269 199.393 156.116 199.705 156.116 200.117ZM164.288 205.679C163.913 205.679 163.616 205.664 163.397 205.632V204.242C163.647 204.263 163.897 204.273 164.147 204.273C164.361 204.273 164.538 204.252 164.678 204.21C164.819 204.169 164.957 204.067 165.092 203.906C165.233 203.744 165.366 203.497 165.491 203.164L165.694 202.601L162.585 194.007H164.366L166.506 200.585H166.6L168.741 194.007H170.538L167.038 203.617C166.793 204.299 166.444 204.812 165.991 205.156C165.543 205.505 164.975 205.679 164.288 205.679ZM175.788 201.242L179.71 197.289C180.184 196.789 180.546 196.388 180.796 196.085C181.046 195.783 181.236 195.489 181.366 195.203C181.501 194.911 181.569 194.606 181.569 194.289C181.569 193.924 181.478 193.604 181.296 193.328C181.113 193.052 180.863 192.838 180.546 192.687C180.228 192.536 179.871 192.46 179.475 192.46C179.064 192.46 178.702 192.544 178.389 192.71C178.077 192.877 177.835 193.111 177.663 193.414C177.496 193.716 177.413 194.065 177.413 194.46H175.788C175.783 193.783 175.939 193.184 176.256 192.664C176.574 192.143 177.017 191.739 177.585 191.453C178.152 191.166 178.793 191.023 179.506 191.023C180.225 191.023 180.863 191.164 181.421 191.445C181.983 191.721 182.421 192.104 182.733 192.593C183.046 193.083 183.204 193.632 183.21 194.242C183.204 194.674 183.121 195.091 182.96 195.492C182.798 195.888 182.522 196.33 182.131 196.82C181.741 197.304 181.189 197.898 180.475 198.601L178.178 200.929V201.023H183.397V202.492H175.788V201.242Z" fill="#B0ADA7"/>
</g>
<g id="Button_4">
<path d="M208.668 189.998C208.668 183.37 214.04 177.998 220.668 177.998H270.77C277.397 177.998 282.77 183.37 282.77 189.998V205.987C282.77 212.614 277.397 217.987 270.77 217.987H220.668C214.04 217.987 208.668 212.614 208.668 205.987V189.998Z" fill="#EDEAE3"/>
<path id="Day 3" d="M225.839 202.492V191.179H229.62C230.724 191.179 231.674 191.406 232.471 191.859C233.273 192.307 233.885 192.955 234.307 193.804C234.734 194.648 234.948 195.653 234.948 196.82C234.948 197.992 234.732 199.005 234.299 199.859C233.872 200.708 233.25 201.359 232.432 201.812C231.62 202.265 230.646 202.492 229.51 202.492H225.839ZM229.417 200.992C230.682 200.992 231.635 200.635 232.276 199.921C232.922 199.203 233.245 198.169 233.245 196.82C233.245 195.481 232.927 194.458 232.292 193.75C231.661 193.036 230.734 192.679 229.51 192.679H227.557V200.992H229.417ZM236.354 200.101C236.354 199.221 236.651 198.593 237.245 198.218C237.839 197.843 238.599 197.622 239.526 197.554C239.88 197.528 240.266 197.505 240.682 197.484C241.104 197.458 241.461 197.44 241.753 197.429L241.745 196.757C241.745 196.273 241.599 195.901 241.307 195.64C241.016 195.375 240.589 195.242 240.026 195.242C239.552 195.242 239.164 195.341 238.862 195.539C238.56 195.731 238.365 195.992 238.276 196.32H236.62C236.672 195.851 236.846 195.434 237.143 195.07C237.44 194.7 237.841 194.414 238.346 194.21C238.857 194.002 239.437 193.898 240.089 193.898C240.625 193.898 241.141 193.981 241.635 194.148C242.135 194.315 242.557 194.617 242.901 195.054C243.245 195.492 243.417 196.091 243.417 196.851V202.492H241.792V201.335H241.729C241.536 201.71 241.229 202.028 240.807 202.289C240.391 202.549 239.859 202.679 239.214 202.679C238.672 202.679 238.185 202.578 237.753 202.375C237.32 202.171 236.979 201.877 236.729 201.492C236.479 201.101 236.354 200.638 236.354 200.101ZM237.979 200.117C237.979 200.513 238.125 200.817 238.417 201.031C238.714 201.244 239.104 201.351 239.589 201.351C240.026 201.351 240.409 201.265 240.737 201.093C241.065 200.916 241.318 200.682 241.495 200.39C241.672 200.093 241.76 199.773 241.76 199.429L241.753 198.656L239.76 198.789C239.193 198.83 238.753 198.96 238.44 199.179C238.133 199.393 237.979 199.705 237.979 200.117ZM246.151 205.679C245.776 205.679 245.479 205.664 245.26 205.632V204.242C245.51 204.263 245.76 204.273 246.01 204.273C246.224 204.273 246.401 204.252 246.542 204.21C246.682 204.169 246.82 204.067 246.956 203.906C247.096 203.744 247.229 203.497 247.354 203.164L247.557 202.601L244.448 194.007H246.229L248.37 200.585H248.464L250.604 194.007H252.401L248.901 203.617C248.656 204.299 248.307 204.812 247.854 205.156C247.406 205.505 246.839 205.679 246.151 205.679ZM261.667 202.648C260.896 202.648 260.203 202.518 259.589 202.257C258.979 201.997 258.497 201.632 258.143 201.164C257.794 200.69 257.609 200.148 257.589 199.539H259.339C259.359 199.867 259.471 200.153 259.674 200.398C259.883 200.643 260.159 200.833 260.503 200.968C260.846 201.098 261.229 201.164 261.651 201.164C262.099 201.164 262.503 201.085 262.862 200.929C263.221 200.773 263.503 200.557 263.706 200.281C263.909 200 264.01 199.679 264.01 199.32C264.01 198.95 263.909 198.619 263.706 198.328C263.503 198.036 263.208 197.809 262.823 197.648C262.443 197.481 261.99 197.398 261.464 197.398H260.495V195.992H261.464C261.885 195.992 262.263 195.916 262.596 195.765C262.93 195.614 263.187 195.403 263.37 195.132C263.557 194.861 263.651 194.549 263.651 194.195C263.651 193.851 263.57 193.549 263.409 193.289C263.247 193.028 263.018 192.825 262.721 192.679C262.424 192.533 262.078 192.46 261.682 192.46C261.297 192.46 260.94 192.528 260.612 192.664C260.284 192.799 260.018 192.992 259.815 193.242C259.617 193.492 259.51 193.783 259.495 194.117H257.839C257.854 193.518 258.034 192.984 258.378 192.515C258.727 192.041 259.193 191.674 259.776 191.414C260.359 191.153 261 191.023 261.698 191.023C262.417 191.023 263.049 191.161 263.596 191.437C264.148 191.713 264.573 192.088 264.87 192.562C265.167 193.031 265.312 193.544 265.307 194.101C265.312 194.736 265.133 195.278 264.768 195.726C264.409 196.169 263.922 196.466 263.307 196.617V196.695C264.073 196.804 264.669 197.098 265.096 197.578C265.529 198.057 265.745 198.658 265.745 199.382C265.745 200.002 265.568 200.562 265.214 201.062C264.859 201.557 264.372 201.945 263.753 202.226C263.133 202.507 262.437 202.648 261.667 202.648Z" fill="#B0ADA7"/>
</g>
<g id="Button_5">
<path d="M290.765 189.998C290.765 183.37 296.138 177.998 302.765 177.998H352.868C359.495 177.998 364.868 183.37 364.868 189.998V205.987C364.868 212.614 359.495 217.987 352.868 217.987H302.765C296.138 217.987 290.765 212.614 290.765 205.987V189.998Z" fill="#EDEAE3"/>
<path id="Day 4" d="M308.35 202.492V191.179H312.131C313.236 191.179 314.186 191.406 314.983 191.859C315.785 192.307 316.397 192.955 316.819 193.804C317.246 194.648 317.46 195.653 317.46 196.82C317.46 197.992 317.243 199.005 316.811 199.859C316.384 200.708 315.762 201.359 314.944 201.812C314.131 202.265 313.158 202.492 312.022 202.492H308.35ZM311.928 200.992C313.194 200.992 314.147 200.635 314.788 199.921C315.434 199.203 315.756 198.169 315.756 196.82C315.756 195.481 315.439 194.458 314.803 193.75C314.173 193.036 313.246 192.679 312.022 192.679H310.069V200.992H311.928ZM318.866 200.101C318.866 199.221 319.163 198.593 319.756 198.218C320.35 197.843 321.111 197.622 322.038 197.554C322.392 197.528 322.777 197.505 323.194 197.484C323.616 197.458 323.973 197.44 324.264 197.429L324.256 196.757C324.256 196.273 324.111 195.901 323.819 195.64C323.527 195.375 323.1 195.242 322.538 195.242C322.064 195.242 321.676 195.341 321.374 195.539C321.072 195.731 320.876 195.992 320.788 196.32H319.131C319.184 195.851 319.358 195.434 319.655 195.07C319.952 194.7 320.353 194.414 320.858 194.21C321.368 194.002 321.949 193.898 322.6 193.898C323.137 193.898 323.652 193.981 324.147 194.148C324.647 194.315 325.069 194.617 325.413 195.054C325.756 195.492 325.928 196.091 325.928 196.851V202.492H324.303V201.335H324.241C324.048 201.71 323.741 202.028 323.319 202.289C322.902 202.549 322.371 202.679 321.725 202.679C321.184 202.679 320.697 202.578 320.264 202.375C319.832 202.171 319.491 201.877 319.241 201.492C318.991 201.101 318.866 200.638 318.866 200.101ZM320.491 200.117C320.491 200.513 320.637 200.817 320.928 201.031C321.225 201.244 321.616 201.351 322.1 201.351C322.538 201.351 322.921 201.265 323.249 201.093C323.577 200.916 323.829 200.682 324.006 200.39C324.184 200.093 324.272 199.773 324.272 199.429L324.264 198.656L322.272 198.789C321.704 198.83 321.264 198.96 320.952 199.179C320.644 199.393 320.491 199.705 320.491 200.117ZM328.663 205.679C328.288 205.679 327.991 205.664 327.772 205.632V204.242C328.022 204.263 328.272 204.273 328.522 204.273C328.736 204.273 328.913 204.252 329.053 204.21C329.194 204.169 329.332 204.067 329.467 203.906C329.608 203.744 329.741 203.497 329.866 203.164L330.069 202.601L326.96 194.007H328.741L330.881 200.585H330.975L333.116 194.007H334.913L331.413 203.617C331.168 204.299 330.819 204.812 330.366 205.156C329.918 205.505 329.35 205.679 328.663 205.679ZM339.913 198.898L344.913 191.179H347.038V198.835H348.585V200.289H347.038V202.492H345.413V200.289H339.913V198.898ZM345.413 198.835V193.226H345.288L341.725 198.742V198.835H345.413Z" fill="#B0ADA7"/>
</g>
</g>
</g>
</g>
</g>
<defs>
<filter id="filter0_dd_123_6082" x="0" y="0" width="409.34" height="243.992" filterUnits="userSpaceOnUse" color-interpolation-filters="sRGB">
<feFlood flood-opacity="0" result="BackgroundImageFix"/>
<feColorMatrix in="SourceAlpha" type="matrix" values="0 0 0 0 0 0 0 0 0 0 0 0 0 0 0 0 0 0 127 0" result="hardAlpha"/>
<feOffset dy="2"/>
<feGaussianBlur stdDeviation="4"/>
<feColorMatrix type="matrix" values="0 0 0 0 0.118 0 0 0 0 0.157 0 0 0 0 0.133 0 0 0 0.09 0"/>
<feBlend mode="normal" in2="BackgroundImageFix" result="effect1_dropShadow_123_6082"/>
<feColorMatrix in="SourceAlpha" type="matrix" values="0 0 0 0 0 0 0 0 0 0 0 0 0 0 0 0 0 0 127 0" result="hardAlpha"/>
<feOffset dy="1"/>
<feGaussianBlur stdDeviation="1"/>
<feColorMatrix type="matrix" values="0 0 0 0 0.118 0 0 0 0 0.157 0 0 0 0 0.133 0 0 0 0.04 0"/>
<feBlend mode="normal" in2="effect1_dropShadow_123_6082" result="effect2_dropShadow_123_6082"/>
<feBlend mode="normal" in="SourceGraphic" in2="effect2_dropShadow_123_6082" result="shape"/>
</filter>
<clipPath id="clip0_123_6082">
<rect width="320.395" height="39.9894" fill="white" transform="translate(44.4723 177.998)"/>
</clipPath>
</defs>
</svg>
