<svg width="401" height="87" viewBox="0 0 401 87" fill="none" xmlns="http://www.w3.org/2000/svg">
<g filter="url(#filter0_d_51_3930)">
<mask id="path-1-inside-1_51_3930" fill="white">
<path d="M4 3H396.723V81.7199H4V3Z"/>
</mask>
<path d="M4 3H396.723V81.7199H4V3Z" fill="#2E4D38"/>
<path d="M4 3V4H396.723V3V2H4V3Z" fill="#373F3B" mask="url(#path-1-inside-1_51_3930)"/>
<path d="M31.3171 42.8599H44.6495" stroke="#5E9E72" stroke-width="1.66654" stroke-linecap="round" stroke-linejoin="round"/>
<path d="M31.3171 37.8601H44.6495" stroke="#5E9E72" stroke-width="1.66654" stroke-linecap="round" stroke-linejoin="round"/>
<path d="M31.3171 47.8594H44.6495" stroke="#5E9E72" stroke-width="1.66654" stroke-linecap="round" stroke-linejoin="round"/>
<path d="M93.8679 51.6567H91.5046V33.8833H93.8679V51.6567ZM90.2351 50.8364H87.8914V41.9888H85.5476V39.9771H87.8914V34.1763H90.2351V50.8364ZM84.1218 38.6489C84.1218 40.2635 84.4018 41.7316 84.9617 43.0532C85.5281 44.3683 86.42 45.3742 87.6375 46.0708L86.1726 47.9067C85.4044 47.451 84.7501 46.8455 84.2097 46.0903C83.6759 45.3351 83.2559 44.4627 82.95 43.4731C82.6309 44.5539 82.1947 45.5076 81.6414 46.3345C81.088 47.1613 80.4174 47.8156 79.6296 48.2974L78.1257 46.4614C78.9591 45.9536 79.6427 45.2863 80.1765 44.4595C80.7169 43.6261 81.1075 42.7147 81.3484 41.7251C81.5958 40.7355 81.7195 39.7101 81.7195 38.6489V37.6919H78.8093V35.6997H86.8171V37.6919H84.1218V38.6489ZM111.693 45.6802H104.779V51.6567H102.318V45.6802H95.482V43.688H111.693V45.6802ZM110.248 36.7739H105.062C105.147 37.3729 105.427 37.9458 105.902 38.4927C106.377 39.033 107.041 39.5018 107.894 39.8989C108.747 40.2896 109.759 40.5565 110.931 40.6997L110.033 42.6528C108.496 42.4445 107.175 42.0278 106.068 41.4028C104.968 40.7778 104.144 39.9998 103.597 39.0688C103.044 39.9998 102.22 40.7778 101.127 41.4028C100.033 42.0278 98.7242 42.4445 97.2007 42.6528L96.2828 40.6997C97.4351 40.5565 98.4345 40.2896 99.2808 39.8989C100.134 39.5018 100.798 39.033 101.273 38.4927C101.755 37.9458 102.041 37.3729 102.132 36.7739H96.9468V34.8208H110.248V36.7739ZM126.959 43.8052H121.803V47.5942H128.737V49.6255H112.467V47.5942H119.323V43.8052H114.381V35.1333H126.823V37.1255H116.881V41.8325H126.959V43.8052ZM139.582 50.0552C138.56 50.0552 137.642 49.8794 136.828 49.5278C136.021 49.1698 135.383 48.675 134.914 48.0435C134.452 47.4054 134.211 46.6828 134.191 45.8755H137.16C137.18 46.2205 137.297 46.5265 137.512 46.7935C137.727 47.0604 138.016 47.2687 138.381 47.4185C138.745 47.5617 139.152 47.6333 139.602 47.6333C140.064 47.6333 140.477 47.5519 140.842 47.3892C141.213 47.2199 141.499 46.9888 141.701 46.6958C141.909 46.4028 142.01 46.0708 142.004 45.6997C142.01 45.3156 141.903 44.9738 141.682 44.6743C141.467 44.3748 141.158 44.1437 140.754 43.981C140.35 43.8117 139.875 43.7271 139.328 43.7271H138.019V41.5591H139.328C139.784 41.5591 140.191 41.481 140.549 41.3247C140.907 41.1685 141.187 40.9471 141.389 40.6606C141.59 40.3742 141.691 40.0487 141.691 39.6841C141.691 39.326 141.603 39.0103 141.428 38.7368C141.258 38.4634 141.018 38.2518 140.705 38.1021C140.393 37.9458 140.031 37.8677 139.621 37.8677C139.204 37.8677 138.82 37.9425 138.469 38.0923C138.124 38.2355 137.844 38.4438 137.629 38.7173C137.421 38.9842 137.31 39.2935 137.297 39.645H134.484C134.497 38.8442 134.728 38.1313 135.178 37.5063C135.627 36.8813 136.239 36.3963 137.014 36.0513C137.795 35.6997 138.664 35.5239 139.621 35.5239C140.585 35.5239 141.437 35.6997 142.18 36.0513C142.928 36.3963 143.508 36.8748 143.918 37.4868C144.328 38.0923 144.53 38.7661 144.523 39.5083C144.53 40.0226 144.419 40.4914 144.191 40.9146C143.97 41.3312 143.654 41.6763 143.244 41.9497C142.84 42.2231 142.375 42.4054 141.848 42.4966V42.6138C142.531 42.6984 143.114 42.8872 143.596 43.1802C144.077 43.4731 144.442 43.854 144.689 44.3228C144.937 44.785 145.057 45.3091 145.051 45.895C145.057 46.6893 144.826 47.4054 144.357 48.0435C143.889 48.675 143.238 49.1698 142.404 49.5278C141.571 49.8794 140.63 50.0552 139.582 50.0552ZM151.294 34.4106C152.186 34.4106 152.993 34.5832 153.716 34.9282C154.438 35.2733 155.005 35.755 155.415 36.3735C155.831 36.992 156.04 37.6919 156.04 38.4731C156.04 39.2414 155.831 39.9347 155.415 40.5532C155.005 41.1652 154.438 41.647 153.716 41.9985C152.993 42.3436 152.186 42.5161 151.294 42.5161C150.389 42.5161 149.572 42.3436 148.843 41.9985C148.113 41.647 147.54 41.1652 147.124 40.5532C146.714 39.9347 146.509 39.2414 146.509 38.4731C146.509 37.6919 146.714 36.992 147.124 36.3735C147.54 35.755 148.11 35.2733 148.833 34.9282C149.562 34.5832 150.382 34.4106 151.294 34.4106ZM151.294 36.4419C150.838 36.4419 150.428 36.5233 150.063 36.686C149.705 36.8423 149.425 37.0767 149.223 37.3892C149.022 37.6951 148.924 38.0565 148.93 38.4731C148.924 38.8898 149.022 39.2511 149.223 39.5571C149.425 39.8631 149.705 40.0975 150.063 40.2603C150.428 40.423 150.838 40.5044 151.294 40.5044C151.743 40.5044 152.143 40.423 152.495 40.2603C152.853 40.0975 153.133 39.8631 153.335 39.5571C153.537 39.2511 153.637 38.8898 153.637 38.4731C153.637 38.05 153.537 37.6854 153.335 37.3794C153.133 37.0734 152.853 36.8423 152.495 36.686C152.143 36.5233 151.743 36.4419 151.294 36.4419ZM161.118 42.7896H158.618V33.8833H161.118V42.7896ZM161.118 48.356H151.665V49.5083H161.606V51.4614H149.223V46.5396H158.637V45.4458H149.184V43.5317H161.118V48.356ZM172.432 35.1333C173.226 35.1333 173.942 35.3416 174.58 35.7583C175.225 36.175 175.752 36.7674 176.162 37.5356H180.069V33.8833H182.53V51.6958H180.069V45.0356H176.348C175.951 45.9211 175.41 46.6047 174.727 47.0864C174.05 47.5682 173.285 47.8091 172.432 47.8091C171.534 47.8091 170.733 47.5519 170.03 47.0376C169.333 46.5168 168.789 45.7778 168.399 44.8208C168.008 43.8573 167.816 42.7375 167.823 41.4614C167.816 40.1919 168.008 39.0819 168.399 38.1313C168.789 37.1743 169.333 36.4354 170.03 35.9146C170.733 35.3937 171.534 35.1333 172.432 35.1333ZM172.432 37.3794C171.989 37.3794 171.599 37.5389 171.26 37.8579C170.922 38.1704 170.658 38.6359 170.469 39.2544C170.287 39.8664 170.199 40.6021 170.205 41.4614C170.199 42.3273 170.287 43.0662 170.469 43.6782C170.658 44.2902 170.918 44.7557 171.25 45.0747C171.589 45.3872 171.983 45.5435 172.432 45.5435C172.881 45.5435 173.272 45.3872 173.604 45.0747C173.942 44.7622 174.203 44.3 174.385 43.688C174.567 43.076 174.659 42.3338 174.659 41.4614C174.659 40.5955 174.567 39.8566 174.385 39.2446C174.203 38.6326 173.942 38.1704 173.604 37.8579C173.272 37.5389 172.881 37.3794 172.432 37.3794ZM176.856 39.5474C176.98 40.1659 177.041 40.8039 177.041 41.4614C177.041 41.9497 177.002 42.4771 176.924 43.0435H180.069V39.5474H176.856ZM199.788 45.0356H197.425V40.3091H195.999V44.4497H193.675V34.2153H195.999V38.2778H197.425V33.8833H199.788V45.0356ZM193.148 37.6528H184.417V35.7192H187.562V34.0396H190.042V35.7192H193.148V37.6528ZM188.812 38.2388C189.56 38.2388 190.228 38.369 190.814 38.6294C191.4 38.8898 191.859 39.2544 192.191 39.7231C192.523 40.1919 192.692 40.7323 192.698 41.3442C192.692 41.9497 192.523 42.4868 192.191 42.9556C191.859 43.4178 191.4 43.7791 190.814 44.0396C190.228 44.3 189.56 44.4302 188.812 44.4302C188.076 44.4302 187.415 44.3 186.829 44.0396C186.243 43.7791 185.784 43.4178 185.452 42.9556C185.127 42.4868 184.964 41.9497 184.964 41.3442C184.964 40.7388 185.127 40.2017 185.452 39.7329C185.784 39.2576 186.243 38.8898 186.829 38.6294C187.415 38.369 188.076 38.2388 188.812 38.2388ZM188.812 40.0356C188.317 40.0356 187.923 40.1528 187.63 40.3872C187.337 40.6216 187.191 40.9406 187.191 41.3442C187.191 41.7544 187.337 42.0799 187.63 42.3208C187.93 42.5552 188.323 42.6659 188.812 42.6528C189.3 42.6659 189.694 42.5552 189.993 42.3208C190.293 42.0799 190.446 41.7544 190.452 41.3442C190.446 40.9341 190.293 40.6151 189.993 40.3872C189.7 40.1528 189.306 40.0356 188.812 40.0356ZM193.714 45.1919C194.997 45.1919 196.097 45.3188 197.015 45.5728C197.939 45.8267 198.646 46.1978 199.134 46.686C199.629 47.1678 199.879 47.7505 199.886 48.4341C199.879 49.1112 199.629 49.6906 199.134 50.1724C198.646 50.6541 197.939 51.022 197.015 51.2759C196.09 51.5298 194.99 51.6567 193.714 51.6567C192.438 51.6567 191.338 51.5298 190.413 51.2759C189.495 51.022 188.789 50.6541 188.294 50.1724C187.806 49.6906 187.562 49.1112 187.562 48.4341C187.562 47.7505 187.806 47.1678 188.294 46.686C188.789 46.1978 189.495 45.8267 190.413 45.5728C191.338 45.3188 192.438 45.1919 193.714 45.1919ZM193.714 47.0669C191.26 47.0669 190.042 47.5226 190.062 48.4341C190.055 48.8833 190.361 49.2218 190.98 49.4497C191.598 49.6711 192.51 49.7817 193.714 49.7817C196.149 49.7817 197.366 49.3325 197.366 48.4341C197.366 47.9718 197.064 47.63 196.458 47.4087C195.853 47.1808 194.938 47.0669 193.714 47.0669Z" fill="#E8E4DC"/>
<path d="M362.74 43.6932C363.2 43.6932 363.573 43.3201 363.573 42.8599C363.573 42.3997 363.2 42.0266 362.74 42.0266C362.279 42.0266 361.906 42.3997 361.906 42.8599C361.906 43.3201 362.279 43.6932 362.74 43.6932Z" stroke="#4A7C59" stroke-width="1.66654" stroke-linecap="round" stroke-linejoin="round"/>
<path d="M362.74 37.8601C363.2 37.8601 363.573 37.4871 363.573 37.0269C363.573 36.5667 363.2 36.1936 362.74 36.1936C362.279 36.1936 361.906 36.5667 361.906 37.0269C361.906 37.4871 362.279 37.8601 362.74 37.8601Z" stroke="#4A7C59" stroke-width="1.66654" stroke-linecap="round" stroke-linejoin="round"/>
<path d="M362.74 49.5259C363.2 49.5259 363.573 49.1528 363.573 48.6926C363.573 48.2324 363.2 47.8594 362.74 47.8594C362.279 47.8594 361.906 48.2324 361.906 48.6926C361.906 49.1528 362.279 49.5259 362.74 49.5259Z" stroke="#4A7C59" stroke-width="1.66654" stroke-linecap="round" stroke-linejoin="round"/>
</g>
<defs>
<filter id="filter0_d_51_3930" x="0" y="0" width="400.723" height="86.72" filterUnits="userSpaceOnUse" color-interpolation-filters="sRGB">
<feFlood flood-opacity="0" result="BackgroundImageFix"/>
<feColorMatrix in="SourceAlpha" type="matrix" values="0 0 0 0 0 0 0 0 0 0 0 0 0 0 0 0 0 0 127 0" result="hardAlpha"/>
<feOffset dy="1"/>
<feGaussianBlur stdDeviation="2"/>
<feColorMatrix type="matrix" values="0 0 0 0 0 0 0 0 0 0 0 0 0 0 0 0 0 0 0.2 0"/>
<feBlend mode="normal" in2="BackgroundImageFix" result="effect1_dropShadow_51_3930"/>
<feBlend mode="normal" in="SourceGraphic" in2="effect1_dropShadow_51_3930" result="shape"/>
</filter>
</defs>
</svg>
