<svg width="401" height="88" viewBox="0 0 401 88" fill="none" xmlns="http://www.w3.org/2000/svg">
<g filter="url(#filter0_d_51_3928)">
<mask id="path-1-outside-1_51_3928" maskUnits="userSpaceOnUse" x="4" y="3" width="393" height="80" fill="black">
<rect fill="white" x="4" y="3" width="393" height="80"/>
<path d="M4 3H396.723V81.7199H4V3Z"/>
</mask>
<path d="M4 3H396.723V81.7199H4V3Z" fill="#FAFAF7"/>
<path d="M396.723 81.7199V80.7199H4V81.7199V82.7199H396.723V81.7199Z" fill="#E2DDD5" mask="url(#path-1-outside-1_51_3928)"/>
<path d="M31.3171 42.3599H44.6495" stroke="#4A7C59" stroke-width="1.66654" stroke-linecap="round" stroke-linejoin="round"/>
<path d="M31.3171 37.3601H44.6495" stroke="#4A7C59" stroke-width="1.66654" stroke-linecap="round" stroke-linejoin="round"/>
<path d="M31.3171 47.3594H44.6495" stroke="#4A7C59" stroke-width="1.66654" stroke-linecap="round" stroke-linejoin="round"/>
<path d="M93.8679 51.1567H91.5046V33.3833H93.8679V51.1567ZM90.2351 50.3364H87.8914V41.4888H85.5476V39.4771H87.8914V33.6763H90.2351V50.3364ZM84.1218 38.1489C84.1218 39.7635 84.4018 41.2316 84.9617 42.5532C85.5281 43.8683 86.42 44.8742 87.6375 45.5708L86.1726 47.4067C85.4044 46.951 84.7501 46.3455 84.2097 45.5903C83.6759 44.8351 83.2559 43.9627 82.95 42.9731C82.6309 44.0539 82.1947 45.0076 81.6414 45.8345C81.088 46.6613 80.4174 47.3156 79.6296 47.7974L78.1257 45.9614C78.9591 45.4536 79.6427 44.7863 80.1765 43.9595C80.7169 43.1261 81.1075 42.2147 81.3484 41.2251C81.5958 40.2355 81.7195 39.2101 81.7195 38.1489V37.1919H78.8093V35.1997H86.8171V37.1919H84.1218V38.1489ZM111.693 45.1802H104.779V51.1567H102.318V45.1802H95.482V43.188H111.693V45.1802ZM110.248 36.2739H105.062C105.147 36.8729 105.427 37.4458 105.902 37.9927C106.377 38.533 107.041 39.0018 107.894 39.3989C108.747 39.7896 109.759 40.0565 110.931 40.1997L110.033 42.1528C108.496 41.9445 107.175 41.5278 106.068 40.9028C104.968 40.2778 104.144 39.4998 103.597 38.5688C103.044 39.4998 102.22 40.2778 101.127 40.9028C100.033 41.5278 98.7242 41.9445 97.2007 42.1528L96.2828 40.1997C97.4351 40.0565 98.4345 39.7896 99.2808 39.3989C100.134 39.0018 100.798 38.533 101.273 37.9927C101.755 37.4458 102.041 36.8729 102.132 36.2739H96.9468V34.3208H110.248V36.2739ZM126.959 43.3052H121.803V47.0942H128.737V49.1255H112.467V47.0942H119.323V43.3052H114.381V34.6333H126.823V36.6255H116.881V41.3325H126.959V43.3052ZM139.582 49.5552C138.56 49.5552 137.642 49.3794 136.828 49.0278C136.021 48.6698 135.383 48.175 134.914 47.5435C134.452 46.9054 134.211 46.1828 134.191 45.3755H137.16C137.18 45.7205 137.297 46.0265 137.512 46.2935C137.727 46.5604 138.016 46.7687 138.381 46.9185C138.745 47.0617 139.152 47.1333 139.602 47.1333C140.064 47.1333 140.477 47.0519 140.842 46.8892C141.213 46.7199 141.499 46.4888 141.701 46.1958C141.909 45.9028 142.01 45.5708 142.004 45.1997C142.01 44.8156 141.903 44.4738 141.682 44.1743C141.467 43.8748 141.158 43.6437 140.754 43.481C140.35 43.3117 139.875 43.2271 139.328 43.2271H138.019V41.0591H139.328C139.784 41.0591 140.191 40.981 140.549 40.8247C140.907 40.6685 141.187 40.4471 141.389 40.1606C141.59 39.8742 141.691 39.5487 141.691 39.1841C141.691 38.826 141.603 38.5103 141.428 38.2368C141.258 37.9634 141.018 37.7518 140.705 37.6021C140.393 37.4458 140.031 37.3677 139.621 37.3677C139.204 37.3677 138.82 37.4425 138.469 37.5923C138.124 37.7355 137.844 37.9438 137.629 38.2173C137.421 38.4842 137.31 38.7935 137.297 39.145H134.484C134.497 38.3442 134.728 37.6313 135.178 37.0063C135.627 36.3813 136.239 35.8963 137.014 35.5513C137.795 35.1997 138.664 35.0239 139.621 35.0239C140.585 35.0239 141.437 35.1997 142.18 35.5513C142.928 35.8963 143.508 36.3748 143.918 36.9868C144.328 37.5923 144.53 38.2661 144.523 39.0083C144.53 39.5226 144.419 39.9914 144.191 40.4146C143.97 40.8312 143.654 41.1763 143.244 41.4497C142.84 41.7231 142.375 41.9054 141.848 41.9966V42.1138C142.531 42.1984 143.114 42.3872 143.596 42.6802C144.077 42.9731 144.442 43.354 144.689 43.8228C144.937 44.285 145.057 44.8091 145.051 45.395C145.057 46.1893 144.826 46.9054 144.357 47.5435C143.889 48.175 143.238 48.6698 142.404 49.0278C141.571 49.3794 140.63 49.5552 139.582 49.5552ZM151.294 33.9106C152.186 33.9106 152.993 34.0832 153.716 34.4282C154.438 34.7733 155.005 35.255 155.415 35.8735C155.831 36.492 156.04 37.1919 156.04 37.9731C156.04 38.7414 155.831 39.4347 155.415 40.0532C155.005 40.6652 154.438 41.147 153.716 41.4985C152.993 41.8436 152.186 42.0161 151.294 42.0161C150.389 42.0161 149.572 41.8436 148.843 41.4985C148.113 41.147 147.54 40.6652 147.124 40.0532C146.714 39.4347 146.509 38.7414 146.509 37.9731C146.509 37.1919 146.714 36.492 147.124 35.8735C147.54 35.255 148.11 34.7733 148.833 34.4282C149.562 34.0832 150.382 33.9106 151.294 33.9106ZM151.294 35.9419C150.838 35.9419 150.428 36.0233 150.063 36.186C149.705 36.3423 149.425 36.5767 149.223 36.8892C149.022 37.1951 148.924 37.5565 148.93 37.9731C148.924 38.3898 149.022 38.7511 149.223 39.0571C149.425 39.3631 149.705 39.5975 150.063 39.7603C150.428 39.923 150.838 40.0044 151.294 40.0044C151.743 40.0044 152.143 39.923 152.495 39.7603C152.853 39.5975 153.133 39.3631 153.335 39.0571C153.537 38.7511 153.637 38.3898 153.637 37.9731C153.637 37.55 153.537 37.1854 153.335 36.8794C153.133 36.5734 152.853 36.3423 152.495 36.186C152.143 36.0233 151.743 35.9419 151.294 35.9419ZM161.118 42.2896H158.618V33.3833H161.118V42.2896ZM161.118 47.856H151.665V49.0083H161.606V50.9614H149.223V46.0396H158.637V44.9458H149.184V43.0317H161.118V47.856ZM172.432 34.6333C173.226 34.6333 173.942 34.8416 174.58 35.2583C175.225 35.675 175.752 36.2674 176.162 37.0356H180.069V33.3833H182.53V51.1958H180.069V44.5356H176.348C175.951 45.4211 175.41 46.1047 174.727 46.5864C174.05 47.0682 173.285 47.3091 172.432 47.3091C171.534 47.3091 170.733 47.0519 170.03 46.5376C169.333 46.0168 168.789 45.2778 168.399 44.3208C168.008 43.3573 167.816 42.2375 167.823 40.9614C167.816 39.6919 168.008 38.5819 168.399 37.6313C168.789 36.6743 169.333 35.9354 170.03 35.4146C170.733 34.8937 171.534 34.6333 172.432 34.6333ZM172.432 36.8794C171.989 36.8794 171.599 37.0389 171.26 37.3579C170.922 37.6704 170.658 38.1359 170.469 38.7544C170.287 39.3664 170.199 40.1021 170.205 40.9614C170.199 41.8273 170.287 42.5662 170.469 43.1782C170.658 43.7902 170.918 44.2557 171.25 44.5747C171.589 44.8872 171.983 45.0435 172.432 45.0435C172.881 45.0435 173.272 44.8872 173.604 44.5747C173.942 44.2622 174.203 43.8 174.385 43.188C174.567 42.576 174.659 41.8338 174.659 40.9614C174.659 40.0955 174.567 39.3566 174.385 38.7446C174.203 38.1326 173.942 37.6704 173.604 37.3579C173.272 37.0389 172.881 36.8794 172.432 36.8794ZM176.856 39.0474C176.98 39.6659 177.041 40.3039 177.041 40.9614C177.041 41.4497 177.002 41.9771 176.924 42.5435H180.069V39.0474H176.856ZM199.788 44.5356H197.425V39.8091H195.999V43.9497H193.675V33.7153H195.999V37.7778H197.425V33.3833H199.788V44.5356ZM193.148 37.1528H184.417V35.2192H187.562V33.5396H190.042V35.2192H193.148V37.1528ZM188.812 37.7388C189.56 37.7388 190.228 37.869 190.814 38.1294C191.4 38.3898 191.859 38.7544 192.191 39.2231C192.523 39.6919 192.692 40.2323 192.698 40.8442C192.692 41.4497 192.523 41.9868 192.191 42.4556C191.859 42.9178 191.4 43.2791 190.814 43.5396C190.228 43.8 189.56 43.9302 188.812 43.9302C188.076 43.9302 187.415 43.8 186.829 43.5396C186.243 43.2791 185.784 42.9178 185.452 42.4556C185.127 41.9868 184.964 41.4497 184.964 40.8442C184.964 40.2388 185.127 39.7017 185.452 39.2329C185.784 38.7576 186.243 38.3898 186.829 38.1294C187.415 37.869 188.076 37.7388 188.812 37.7388ZM188.812 39.5356C188.317 39.5356 187.923 39.6528 187.63 39.8872C187.337 40.1216 187.191 40.4406 187.191 40.8442C187.191 41.2544 187.337 41.5799 187.63 41.8208C187.93 42.0552 188.323 42.1659 188.812 42.1528C189.3 42.1659 189.694 42.0552 189.993 41.8208C190.293 41.5799 190.446 41.2544 190.452 40.8442C190.446 40.4341 190.293 40.1151 189.993 39.8872C189.7 39.6528 189.306 39.5356 188.812 39.5356ZM193.714 44.6919C194.997 44.6919 196.097 44.8188 197.015 45.0728C197.939 45.3267 198.646 45.6978 199.134 46.186C199.629 46.6678 199.879 47.2505 199.886 47.9341C199.879 48.6112 199.629 49.1906 199.134 49.6724C198.646 50.1541 197.939 50.522 197.015 50.7759C196.09 51.0298 194.99 51.1567 193.714 51.1567C192.438 51.1567 191.338 51.0298 190.413 50.7759C189.495 50.522 188.789 50.1541 188.294 49.6724C187.806 49.1906 187.562 48.6112 187.562 47.9341C187.562 47.2505 187.806 46.6678 188.294 46.186C188.789 45.6978 189.495 45.3267 190.413 45.0728C191.338 44.8188 192.438 44.6919 193.714 44.6919ZM193.714 46.5669C191.26 46.5669 190.042 47.0226 190.062 47.9341C190.055 48.3833 190.361 48.7218 190.98 48.9497C191.598 49.1711 192.51 49.2817 193.714 49.2817C196.149 49.2817 197.366 48.8325 197.366 47.9341C197.366 47.4718 197.064 47.13 196.458 46.9087C195.853 46.6808 194.938 46.5669 193.714 46.5669Z" fill="#1A1A1A"/>
<path d="M362.74 43.1932C363.2 43.1932 363.573 42.8201 363.573 42.3599C363.573 41.8997 363.2 41.5266 362.74 41.5266C362.279 41.5266 361.906 41.8997 361.906 42.3599C361.906 42.8201 362.279 43.1932 362.74 43.1932Z" stroke="#3B6347" stroke-width="1.66654" stroke-linecap="round" stroke-linejoin="round"/>
<path d="M362.74 37.3601C363.2 37.3601 363.573 36.9871 363.573 36.5269C363.573 36.0667 363.2 35.6936 362.74 35.6936C362.279 35.6936 361.906 36.0667 361.906 36.5269C361.906 36.9871 362.279 37.3601 362.74 37.3601Z" stroke="#3B6347" stroke-width="1.66654" stroke-linecap="round" stroke-linejoin="round"/>
<path d="M362.74 49.0259C363.2 49.0259 363.573 48.6528 363.573 48.1926C363.573 47.7324 363.2 47.3594 362.74 47.3594C362.279 47.3594 361.906 47.7324 361.906 48.1926C361.906 48.6528 362.279 49.0259 362.74 49.0259Z" stroke="#3B6347" stroke-width="1.66654" stroke-linecap="round" stroke-linejoin="round"/>
</g>
<defs>
<filter id="filter0_d_51_3928" x="0" y="0" width="400.723" height="87.72" filterUnits="userSpaceOnUse" color-interpolation-filters="sRGB">
<feFlood flood-opacity="0" result="BackgroundImageFix"/>
<feColorMatrix in="SourceAlpha" type="matrix" values="0 0 0 0 0 0 0 0 0 0 0 0 0 0 0 0 0 0 127 0" result="hardAlpha"/>
<feOffset dy="1"/>
<feGaussianBlur stdDeviation="2"/>
<feColorMatrix type="matrix" values="0 0 0 0 0.118 0 0 0 0 0.157 0 0 0 0 0.133 0 0 0 0.06 0"/>
<feBlend mode="normal" in2="BackgroundImageFix" result="effect1_dropShadow_51_3928"/>
<feBlend mode="normal" in="SourceGraphic" in2="effect1_dropShadow_51_3928" result="shape"/>
</filter>
</defs>
</svg>
