<svg width="409" height="153" viewBox="0 0 409 153" fill="none" xmlns="http://www.w3.org/2000/svg">
<g id="Tab=itinerary" filter="url(#filter0_dd_197_5348)">
<mask id="path-1-inside-1_197_5348" fill="white">
<path d="M8 6H401V143H8V6Z"/>
</mask>
<path d="M8 6H401V143H8V6Z" fill="#FAFAF7"/>
<path d="M401 143V142H8V143V144H401V143Z" fill="#E2DDD5" mask="url(#path-1-inside-1_197_5348)"/>
<g id="Frame 114">
<g id="LightMode-PlanList">
<g id="Icon">
<path id="Vector" d="M35 44.5H35.01" stroke="#1A1A1A" stroke-width="1.99986" stroke-linecap="round" stroke-linejoin="round"/>
<path id="Vector_2" d="M35 50.4995H35.01" stroke="#1A1A1A" stroke-width="1.99986" stroke-linecap="round" stroke-linejoin="round"/>
<path id="Vector_3" d="M35 38.5005H35.01" stroke="#1A1A1A" stroke-width="1.99986" stroke-linecap="round" stroke-linejoin="round"/>
<path id="Vector_4" d="M39.9995 44.5H52.9995" stroke="#1A1A1A" stroke-width="1.99986" stroke-linecap="round" stroke-linejoin="round"/>
<path id="Vector_5" d="M39.9995 50.4995H52.9995" stroke="#1A1A1A" stroke-width="1.99986" stroke-linecap="round" stroke-linejoin="round"/>
<path id="Vector_6" d="M39.9995 38.5005H52.9995" stroke="#1A1A1A" stroke-width="1.99986" stroke-linecap="round" stroke-linejoin="round"/>
</g>
</g>
<path id="&#236;&#151;&#172;&#237;&#150;&#137;&#235;&#170;&#169;&#235;&#161;&#157;" d="M71.9712 35.8008C72.8449 35.8008 73.6326 36.0299 74.3345 36.4883C75.0435 36.9466 75.6235 37.5983 76.0747 38.4434H80.3716V34.4258H83.0786V54.0195H80.3716V46.6934H76.2788C75.842 47.6673 75.2476 48.4193 74.4956 48.9492C73.7508 49.4792 72.9093 49.7441 71.9712 49.7441C70.9829 49.7441 70.1021 49.4613 69.3286 48.8955C68.5623 48.3226 67.9644 47.5098 67.5347 46.457C67.105 45.3971 66.8937 44.1654 66.9009 42.7617C66.8937 41.3652 67.105 40.1442 67.5347 39.0986C67.9644 38.0459 68.5623 37.2331 69.3286 36.6602C70.1021 36.0872 70.9829 35.8008 71.9712 35.8008ZM71.9712 38.2715C71.4842 38.2715 71.0545 38.4469 70.6821 38.7979C70.3097 39.1416 70.0197 39.6536 69.812 40.334C69.6115 41.0072 69.5148 41.8164 69.522 42.7617C69.5148 43.7142 69.6115 44.527 69.812 45.2002C70.0197 45.8734 70.3062 46.3854 70.6714 46.7363C71.0438 47.0801 71.4771 47.252 71.9712 47.252C72.4653 47.252 72.895 47.0801 73.2603 46.7363C73.6326 46.3926 73.9191 45.8841 74.1196 45.2109C74.3201 44.5378 74.4204 43.7214 74.4204 42.7617C74.4204 41.8092 74.3201 40.9964 74.1196 40.3232C73.9191 39.6501 73.6326 39.1416 73.2603 38.7979C72.895 38.4469 72.4653 38.2715 71.9712 38.2715ZM76.8374 40.6562C76.9735 41.3366 77.0415 42.0384 77.0415 42.7617C77.0415 43.2988 76.9985 43.8789 76.9126 44.502H80.3716V40.6562H76.8374ZM102.093 46.6934H99.4935V41.4941H97.9251V46.0488H95.3685V34.791H97.9251V39.2598H99.4935V34.4258H102.093V46.6934ZM94.7884 38.5723H85.1849V36.4453H88.6438V34.5977H91.3724V36.4453H94.7884V38.5723ZM90.0188 39.2168C90.8424 39.2168 91.5765 39.36 92.221 39.6465C92.8655 39.9329 93.3704 40.334 93.7356 40.8496C94.1009 41.3652 94.2871 41.9596 94.2942 42.6328C94.2871 43.2988 94.1009 43.8896 93.7356 44.4053C93.3704 44.9137 92.8655 45.3112 92.221 45.5977C91.5765 45.8841 90.8424 46.0273 90.0188 46.0273C89.2096 46.0273 88.4827 45.8841 87.8382 45.5977C87.1937 45.3112 86.6888 44.9137 86.3235 44.4053C85.9655 43.8896 85.7864 43.2988 85.7864 42.6328C85.7864 41.9668 85.9655 41.376 86.3235 40.8604C86.6888 40.3376 87.1937 39.9329 87.8382 39.6465C88.4827 39.36 89.2096 39.2168 90.0188 39.2168ZM90.0188 41.1934C89.4746 41.1934 89.0413 41.3223 88.719 41.5801C88.3968 41.8379 88.2356 42.1888 88.2356 42.6328C88.2356 43.084 88.3968 43.4421 88.719 43.707C89.0485 43.9648 89.4817 44.0866 90.0188 44.0723C90.556 44.0866 90.9892 43.9648 91.3187 43.707C91.6481 43.4421 91.8164 43.084 91.8235 42.6328C91.8164 42.1816 91.6481 41.8307 91.3187 41.5801C90.9964 41.3223 90.5631 41.1934 90.0188 41.1934ZM95.4114 46.8652C96.8222 46.8652 98.0325 47.0049 99.0423 47.2842C100.059 47.5635 100.836 47.9717 101.373 48.5088C101.918 49.0387 102.193 49.6797 102.2 50.4316C102.193 51.1764 101.918 51.8138 101.373 52.3438C100.836 52.8737 100.059 53.2783 99.0423 53.5576C98.0254 53.8369 96.8151 53.9766 95.4114 53.9766C94.0078 53.9766 92.7975 53.8369 91.7806 53.5576C90.7708 53.2783 89.9938 52.8737 89.4495 52.3438C88.9124 51.8138 88.6438 51.1764 88.6438 50.4316C88.6438 49.6797 88.9124 49.0387 89.4495 48.5088C89.9938 47.9717 90.7708 47.5635 91.7806 47.2842C92.7975 47.0049 94.0078 46.8652 95.4114 46.8652ZM95.4114 48.9277C92.7116 48.9277 91.3724 49.429 91.3938 50.4316C91.3867 50.9258 91.7233 51.2982 92.4036 51.5488C93.084 51.7923 94.0866 51.9141 95.4114 51.9141C98.0898 51.9141 99.429 51.4199 99.429 50.4316C99.429 49.9232 99.096 49.5472 98.43 49.3037C97.764 49.0531 96.7578 48.9277 95.4114 48.9277ZM119.582 42.0742H114.275V43.9434H121.838V46.1562H104.006V43.9434H111.525V42.0742H106.219V35.1992H119.582V42.0742ZM108.904 39.9258H116.897V37.3262H108.904V39.9258ZM119.668 53.9766H116.94V49.7441H105.983V47.5957H119.668V53.9766ZM140.595 47.1016H122.698V44.9102H130.282V43.4922H124.933V38.1211H135.675V36.918H124.89V34.791H138.425V40.0977H127.661V41.3867H138.79V43.4922H133.011V44.9102H140.595V47.1016ZM138.532 53.8906H135.761V50.3672H124.696V48.2188H138.532V53.8906Z" fill="#1A1A1A"/>
</g>
<g id="Frame 85">
<path d="M32 87C32 84.7909 33.7909 83 36 83H373C375.209 83 377 84.7909 377 87V115C377 117.209 375.209 119 373 119H36C33.7909 119 32 117.209 32 115V87Z" fill="#C8DEC9"/>
<g id="Frame 86">
<path d="M35 90C35 87.7909 36.7909 86 39 86H200.5C202.709 86 204.5 87.7909 204.5 90V112C204.5 114.209 202.709 116 200.5 116H39C36.7909 116 35 114.209 35 112V90Z" fill="#4A7C59"/>
<path id="&#236;&#151;&#172;&#237;&#150;&#137; &#236;&#157;&#188;&#236;&#160;&#149;" d="M97.5508 95.6914C98.1068 95.6914 98.6081 95.8372 99.0547 96.1289C99.5059 96.4206 99.875 96.8353 100.162 97.373H102.896V94.8164H104.619V107.285H102.896V102.623H100.292C100.014 103.243 99.6357 103.721 99.1572 104.059C98.6833 104.396 98.1478 104.564 97.5508 104.564C96.9219 104.564 96.3613 104.384 95.8691 104.024C95.3815 103.66 95.001 103.143 94.7275 102.473C94.4541 101.798 94.3197 101.014 94.3242 100.121C94.3197 99.2324 94.4541 98.4554 94.7275 97.79C95.001 97.1201 95.3815 96.6029 95.8691 96.2383C96.3613 95.8737 96.9219 95.6914 97.5508 95.6914ZM97.5508 97.2637C97.2409 97.2637 96.9674 97.3753 96.7305 97.5986C96.4935 97.8174 96.3089 98.1432 96.1768 98.5762C96.0492 99.0046 95.9876 99.5195 95.9922 100.121C95.9876 100.727 96.0492 101.244 96.1768 101.673C96.3089 102.101 96.4912 102.427 96.7236 102.65C96.9606 102.869 97.2363 102.979 97.5508 102.979C97.8652 102.979 98.1387 102.869 98.3711 102.65C98.6081 102.432 98.7904 102.108 98.918 101.68C99.0456 101.251 99.1094 100.732 99.1094 100.121C99.1094 99.515 99.0456 98.9977 98.918 98.5693C98.7904 98.141 98.6081 97.8174 98.3711 97.5986C98.1387 97.3753 97.8652 97.2637 97.5508 97.2637ZM100.647 98.7812C100.734 99.2142 100.777 99.6608 100.777 100.121C100.777 100.463 100.75 100.832 100.695 101.229H102.896V98.7812H100.647ZM116.91 102.623H115.256V99.3145H114.258V102.213H112.631V95.0488H114.258V97.8926H115.256V94.8164H116.91V102.623ZM112.262 97.4551H106.15V96.1016H108.352V94.9258H110.088V96.1016H112.262V97.4551ZM109.227 97.8652C109.751 97.8652 110.218 97.9564 110.628 98.1387C111.038 98.321 111.359 98.5762 111.592 98.9043C111.824 99.2324 111.943 99.6107 111.947 100.039C111.943 100.463 111.824 100.839 111.592 101.167C111.359 101.491 111.038 101.743 110.628 101.926C110.218 102.108 109.751 102.199 109.227 102.199C108.712 102.199 108.249 102.108 107.839 101.926C107.429 101.743 107.107 101.491 106.875 101.167C106.647 100.839 106.533 100.463 106.533 100.039C106.533 99.6152 106.647 99.2393 106.875 98.9111C107.107 98.5785 107.429 98.321 107.839 98.1387C108.249 97.9564 108.712 97.8652 109.227 97.8652ZM109.227 99.123C108.88 99.123 108.604 99.2051 108.399 99.3691C108.194 99.5332 108.092 99.7565 108.092 100.039C108.092 100.326 108.194 100.554 108.399 100.723C108.609 100.887 108.885 100.964 109.227 100.955C109.568 100.964 109.844 100.887 110.054 100.723C110.263 100.554 110.37 100.326 110.375 100.039C110.37 99.752 110.263 99.5286 110.054 99.3691C109.849 99.2051 109.573 99.123 109.227 99.123ZM112.658 102.732C113.556 102.732 114.326 102.821 114.969 102.999C115.616 103.177 116.11 103.437 116.452 103.778C116.799 104.116 116.974 104.523 116.979 105.002C116.974 105.476 116.799 105.882 116.452 106.219C116.11 106.556 115.616 106.813 114.969 106.991C114.322 107.169 113.551 107.258 112.658 107.258C111.765 107.258 110.995 107.169 110.348 106.991C109.705 106.813 109.211 106.556 108.864 106.219C108.522 105.882 108.352 105.476 108.352 105.002C108.352 104.523 108.522 104.116 108.864 103.778C109.211 103.437 109.705 103.177 110.348 102.999C110.995 102.821 111.765 102.732 112.658 102.732ZM112.658 104.045C110.94 104.045 110.088 104.364 110.102 105.002C110.097 105.316 110.311 105.553 110.744 105.713C111.177 105.868 111.815 105.945 112.658 105.945C114.363 105.945 115.215 105.631 115.215 105.002C115.215 104.678 115.003 104.439 114.579 104.284C114.155 104.125 113.515 104.045 112.658 104.045ZM125.086 95.1855C125.71 95.1855 126.275 95.3063 126.781 95.5479C127.287 95.7894 127.684 96.1266 127.971 96.5596C128.262 96.9925 128.408 97.4824 128.408 98.0293C128.408 98.5671 128.262 99.0524 127.971 99.4854C127.684 99.9137 127.287 100.251 126.781 100.497C126.275 100.739 125.71 100.859 125.086 100.859C124.452 100.859 123.881 100.739 123.37 100.497C122.86 100.251 122.459 99.9137 122.167 99.4854C121.88 99.0524 121.736 98.5671 121.736 98.0293C121.736 97.4824 121.88 96.9925 122.167 96.5596C122.459 96.1266 122.857 95.7894 123.363 95.5479C123.874 95.3063 124.448 95.1855 125.086 95.1855ZM125.086 96.6074C124.767 96.6074 124.48 96.6644 124.225 96.7783C123.974 96.8877 123.778 97.0518 123.637 97.2705C123.495 97.4847 123.427 97.7376 123.432 98.0293C123.427 98.321 123.495 98.5739 123.637 98.7881C123.778 99.0023 123.974 99.1663 124.225 99.2803C124.48 99.3942 124.767 99.4512 125.086 99.4512C125.4 99.4512 125.681 99.3942 125.927 99.2803C126.177 99.1663 126.373 99.0023 126.515 98.7881C126.656 98.5739 126.727 98.321 126.727 98.0293C126.727 97.7331 126.656 97.4779 126.515 97.2637C126.373 97.0495 126.177 96.8877 125.927 96.7783C125.681 96.6644 125.4 96.6074 125.086 96.6074ZM131.963 101.051H130.213V94.8164H131.963V101.051ZM131.963 104.947H125.346V105.754H132.305V107.121H123.637V103.676H130.227V102.91H123.609V101.57H131.963V104.947ZM144.131 102.199H142.395V99.2598H140.453V97.8516H142.395V94.8164H144.131V102.199ZM139.879 102.473C140.763 102.477 141.524 102.575 142.162 102.767C142.805 102.953 143.299 103.227 143.646 103.587C143.992 103.947 144.167 104.378 144.172 104.879C144.167 105.376 143.992 105.804 143.646 106.164C143.299 106.524 142.805 106.798 142.162 106.984C141.52 107.176 140.758 107.271 139.879 107.271C138.999 107.271 138.238 107.176 137.596 106.984C136.953 106.798 136.459 106.524 136.112 106.164C135.771 105.804 135.6 105.376 135.6 104.879C135.6 104.378 135.771 103.947 136.112 103.587C136.459 103.227 136.951 102.953 137.589 102.767C138.231 102.575 138.995 102.477 139.879 102.473ZM139.879 103.812C138.184 103.812 137.336 104.168 137.336 104.879C137.336 105.234 137.55 105.501 137.979 105.679C138.411 105.856 139.045 105.945 139.879 105.945C140.713 105.945 141.346 105.856 141.779 105.679C142.217 105.496 142.436 105.23 142.436 104.879C142.436 104.168 141.583 103.812 139.879 103.812ZM140.822 96.9629H138.348C138.361 97.4642 138.473 97.9473 138.683 98.4121C138.897 98.8724 139.214 99.2871 139.633 99.6562C140.057 100.025 140.581 100.312 141.205 100.518L140.344 101.885C139.678 101.671 139.104 101.352 138.621 100.928C138.143 100.499 137.764 99.9958 137.486 99.417C137.199 100.073 136.803 100.643 136.297 101.126C135.791 101.604 135.18 101.967 134.465 102.213L133.562 100.832C134.219 100.613 134.768 100.303 135.21 99.9023C135.657 99.4967 135.989 99.041 136.208 98.5352C136.431 98.0293 136.552 97.5052 136.57 96.9629H134.068V95.5684H140.822V96.9629Z" fill="#FAFAF7"/>
</g>
<g id="Frame 87">
<path id="&#236;&#152;&#136;&#236;&#149;&#189;" d="M287.906 107.258H286.238V94.8164H287.906V107.258ZM285.363 106.684H283.723V102.828H282.26C282.027 103.439 281.711 103.908 281.31 104.236C280.913 104.564 280.455 104.729 279.936 104.729C279.393 104.729 278.917 104.546 278.507 104.182C278.101 103.817 277.787 103.295 277.563 102.616C277.34 101.933 277.229 101.128 277.229 100.203C277.229 99.2826 277.34 98.485 277.563 97.8105C277.787 97.1315 278.101 96.612 278.507 96.252C278.917 95.8874 279.393 95.7051 279.936 95.7051C280.451 95.7051 280.906 95.8669 281.303 96.1904C281.704 96.514 282.021 96.9766 282.253 97.5781H283.723V94.9941H285.363V106.684ZM279.936 97.3457C279.571 97.3457 279.291 97.5872 279.095 98.0703C278.903 98.5534 278.81 99.2643 278.814 100.203C278.81 101.146 278.903 101.86 279.095 102.343C279.286 102.821 279.566 103.056 279.936 103.047C280.305 103.056 280.59 102.821 280.79 102.343C280.995 101.86 281.098 101.146 281.098 100.203C281.098 99.2734 280.995 98.5648 280.79 98.0771C280.585 97.5895 280.3 97.3457 279.936 97.3457ZM282.602 98.9727C282.656 99.3555 282.684 99.7656 282.684 100.203C282.684 100.636 282.656 101.042 282.602 101.42H283.723V98.9727H282.602ZM300.703 97.8652H299.09V99.1367H300.703V100.586H299.09V102.158H297.34V94.8164H299.09V96.457H300.703V97.8652ZM299.09 107.258H297.34V104.059H290.709V102.65H299.09V107.258ZM292.719 95.5C293.352 95.4954 293.926 95.623 294.441 95.8828C294.961 96.1426 295.369 96.5049 295.665 96.9697C295.961 97.43 296.109 97.9473 296.109 98.5215C296.109 99.1094 295.961 99.6357 295.665 100.101C295.369 100.561 294.963 100.921 294.448 101.181C293.933 101.44 293.357 101.57 292.719 101.57C292.076 101.57 291.495 101.44 290.976 101.181C290.456 100.921 290.046 100.561 289.745 100.101C289.449 99.6357 289.301 99.1094 289.301 98.5215C289.301 97.9473 289.449 97.43 289.745 96.9697C290.046 96.5049 290.456 96.1426 290.976 95.8828C291.5 95.623 292.081 95.4954 292.719 95.5ZM292.719 96.9902C292.391 96.9902 292.097 97.0518 291.837 97.1748C291.577 97.2933 291.374 97.4688 291.229 97.7012C291.087 97.9336 291.019 98.207 291.023 98.5215C291.019 98.8451 291.087 99.1253 291.229 99.3623C291.374 99.5993 291.577 99.7816 291.837 99.9092C292.097 100.032 292.391 100.094 292.719 100.094C293.038 100.094 293.325 100.032 293.58 99.9092C293.835 99.7816 294.036 99.5993 294.182 99.3623C294.332 99.1253 294.41 98.8451 294.414 98.5215C294.41 98.207 294.332 97.9336 294.182 97.7012C294.036 97.4688 293.835 97.2933 293.58 97.1748C293.325 97.0518 293.038 96.9902 292.719 96.9902Z" fill="#FAFAF7"/>
</g>
</g>
</g>
<defs>
<filter id="filter0_dd_197_5348" x="0" y="0" width="409" height="153" filterUnits="userSpaceOnUse" color-interpolation-filters="sRGB">
<feFlood flood-opacity="0" result="BackgroundImageFix"/>
<feColorMatrix in="SourceAlpha" type="matrix" values="0 0 0 0 0 0 0 0 0 0 0 0 0 0 0 0 0 0 127 0" result="hardAlpha"/>
<feOffset dy="2"/>
<feGaussianBlur stdDeviation="4"/>
<feColorMatrix type="matrix" values="0 0 0 0 0.118 0 0 0 0 0.157 0 0 0 0 0.133 0 0 0 0.09 0"/>
<feBlend mode="normal" in2="BackgroundImageFix" result="effect1_dropShadow_197_5348"/>
<feColorMatrix in="SourceAlpha" type="matrix" values="0 0 0 0 0 0 0 0 0 0 0 0 0 0 0 0 0 0 127 0" result="hardAlpha"/>
<feOffset dy="1"/>
<feGaussianBlur stdDeviation="1"/>
<feColorMatrix type="matrix" values="0 0 0 0 0.118 0 0 0 0 0.157 0 0 0 0 0.133 0 0 0 0.04 0"/>
<feBlend mode="normal" in2="effect1_dropShadow_197_5348" result="effect2_dropShadow_197_5348"/>
<feBlend mode="normal" in="SourceGraphic" in2="effect2_dropShadow_197_5348" result="shape"/>
</filter>
</defs>
</svg>
