<svg width="393" height="137" viewBox="0 0 393 137" fill="none" xmlns="http://www.w3.org/2000/svg">
<g id="Tab=reservation">
<mask id="path-1-inside-1_197_5569" fill="white">
<path d="M0 0H393V137H0V0Z"/>
</mask>
<path d="M0 0H393V137H0V0Z" fill="#262B28"/>
<path d="M393 137V136H0V137V138H393V137Z" fill="#373F3B" mask="url(#path-1-inside-1_197_5569)"/>
<g id="Frame 114">
<g id="LightMode-PlanList">
<g id="Icon">
<path id="Vector" d="M27 38.5H27.01" stroke="#E8E4DC" stroke-width="1.99986" stroke-linecap="round" stroke-linejoin="round"/>
<path id="Vector_2" d="M27 44.5H27.01" stroke="#E8E4DC" stroke-width="1.99986" stroke-linecap="round" stroke-linejoin="round"/>
<path id="Vector_3" d="M27 32.501H27.01" stroke="#E8E4DC" stroke-width="1.99986" stroke-linecap="round" stroke-linejoin="round"/>
<path id="Vector_4" d="M31.9995 38.5H44.9995" stroke="#E8E4DC" stroke-width="1.99986" stroke-linecap="round" stroke-linejoin="round"/>
<path id="Vector_5" d="M31.9995 44.5H44.9995" stroke="#E8E4DC" stroke-width="1.99986" stroke-linecap="round" stroke-linejoin="round"/>
<path id="Vector_6" d="M31.9995 32.501H44.9995" stroke="#E8E4DC" stroke-width="1.99986" stroke-linecap="round" stroke-linejoin="round"/>
</g>
</g>
<path id="&#236;&#151;&#172;&#237;&#150;&#137;&#235;&#170;&#169;&#235;&#161;&#157;" d="M63.9712 29.8008C64.8449 29.8008 65.6326 30.0299 66.3345 30.4883C67.0435 30.9466 67.6235 31.5983 68.0747 32.4434H72.3716V28.4258H75.0786V48.0195H72.3716V40.6934H68.2788C67.842 41.6673 67.2476 42.4193 66.4956 42.9492C65.7508 43.4792 64.9093 43.7441 63.9712 43.7441C62.9829 43.7441 62.1021 43.4613 61.3286 42.8955C60.5623 42.3226 59.9644 41.5098 59.5347 40.457C59.105 39.3971 58.8937 38.1654 58.9009 36.7617C58.8937 35.3652 59.105 34.1442 59.5347 33.0986C59.9644 32.0459 60.5623 31.2331 61.3286 30.6602C62.1021 30.0872 62.9829 29.8008 63.9712 29.8008ZM63.9712 32.2715C63.4842 32.2715 63.0545 32.4469 62.6821 32.7979C62.3097 33.1416 62.0197 33.6536 61.812 34.334C61.6115 35.0072 61.5148 35.8164 61.522 36.7617C61.5148 37.7142 61.6115 38.527 61.812 39.2002C62.0197 39.8734 62.3062 40.3854 62.6714 40.7363C63.0438 41.0801 63.4771 41.252 63.9712 41.252C64.4653 41.252 64.895 41.0801 65.2603 40.7363C65.6326 40.3926 65.9191 39.8841 66.1196 39.2109C66.3201 38.5378 66.4204 37.7214 66.4204 36.7617C66.4204 35.8092 66.3201 34.9964 66.1196 34.3232C65.9191 33.6501 65.6326 33.1416 65.2603 32.7979C64.895 32.4469 64.4653 32.2715 63.9712 32.2715ZM68.8374 34.6562C68.9735 35.3366 69.0415 36.0384 69.0415 36.7617C69.0415 37.2988 68.9985 37.8789 68.9126 38.502H72.3716V34.6562H68.8374ZM94.0931 40.6934H91.4935V35.4941H89.9251V40.0488H87.3685V28.791H89.9251V33.2598H91.4935V28.4258H94.0931V40.6934ZM86.7884 32.5723H77.1849V30.4453H80.6438V28.5977H83.3724V30.4453H86.7884V32.5723ZM82.0188 33.2168C82.8424 33.2168 83.5765 33.36 84.221 33.6465C84.8655 33.9329 85.3704 34.334 85.7356 34.8496C86.1009 35.3652 86.2871 35.9596 86.2942 36.6328C86.2871 37.2988 86.1009 37.8896 85.7356 38.4053C85.3704 38.9137 84.8655 39.3112 84.221 39.5977C83.5765 39.8841 82.8424 40.0273 82.0188 40.0273C81.2096 40.0273 80.4827 39.8841 79.8382 39.5977C79.1937 39.3112 78.6888 38.9137 78.3235 38.4053C77.9655 37.8896 77.7864 37.2988 77.7864 36.6328C77.7864 35.9668 77.9655 35.376 78.3235 34.8604C78.6888 34.3376 79.1937 33.9329 79.8382 33.6465C80.4827 33.36 81.2096 33.2168 82.0188 33.2168ZM82.0188 35.1934C81.4746 35.1934 81.0413 35.3223 80.719 35.5801C80.3968 35.8379 80.2356 36.1888 80.2356 36.6328C80.2356 37.084 80.3968 37.4421 80.719 37.707C81.0485 37.9648 81.4817 38.0866 82.0188 38.0723C82.556 38.0866 82.9892 37.9648 83.3187 37.707C83.6481 37.4421 83.8164 37.084 83.8235 36.6328C83.8164 36.1816 83.6481 35.8307 83.3187 35.5801C82.9964 35.3223 82.5631 35.1934 82.0188 35.1934ZM87.4114 40.8652C88.8222 40.8652 90.0325 41.0049 91.0423 41.2842C92.0592 41.5635 92.8362 41.9717 93.3733 42.5088C93.9176 43.0387 94.1933 43.6797 94.2005 44.4316C94.1933 45.1764 93.9176 45.8138 93.3733 46.3438C92.8362 46.8737 92.0592 47.2783 91.0423 47.5576C90.0254 47.8369 88.8151 47.9766 87.4114 47.9766C86.0078 47.9766 84.7975 47.8369 83.7806 47.5576C82.7708 47.2783 81.9938 46.8737 81.4495 46.3438C80.9124 45.8138 80.6438 45.1764 80.6438 44.4316C80.6438 43.6797 80.9124 43.0387 81.4495 42.5088C81.9938 41.9717 82.7708 41.5635 83.7806 41.2842C84.7975 41.0049 86.0078 40.8652 87.4114 40.8652ZM87.4114 42.9277C84.7116 42.9277 83.3724 43.429 83.3938 44.4316C83.3867 44.9258 83.7233 45.2982 84.4036 45.5488C85.084 45.7923 86.0866 45.9141 87.4114 45.9141C90.0898 45.9141 91.429 45.4199 91.429 44.4316C91.429 43.9232 91.096 43.5472 90.43 43.3037C89.764 43.0531 88.7578 42.9277 87.4114 42.9277ZM111.582 36.0742H106.275V37.9434H113.838V40.1562H96.006V37.9434H103.525V36.0742H98.2188V29.1992H111.582V36.0742ZM100.904 33.9258H108.897V31.3262H100.904V33.9258ZM111.668 47.9766H108.94V43.7441H97.9825V41.5957H111.668V47.9766ZM132.595 41.1016H114.698V38.9102H122.282V37.4922H116.933V32.1211H127.675V30.918H116.89V28.791H130.425V34.0977H119.661V35.3867H130.79V37.4922H125.011V38.9102H132.595V41.1016ZM130.532 47.8906H127.761V44.3672H116.696V42.2188H130.532V47.8906Z" fill="#E8E4DC"/>
</g>
<g id="Frame 85">
<path d="M24 81C24 78.7909 25.7909 77 28 77H365C367.209 77 369 78.7909 369 81V109C369 111.209 367.209 113 365 113H28C25.7909 113 24 111.209 24 109V81Z" fill="#2E4D38"/>
<g id="Frame 86">
<path id="&#236;&#151;&#172;&#237;&#150;&#137; &#236;&#157;&#188;&#236;&#160;&#149;" d="M89.5508 89.6914C90.1068 89.6914 90.6081 89.8372 91.0547 90.1289C91.5059 90.4206 91.875 90.8353 92.1621 91.373H94.8965V88.8164H96.6191V101.285H94.8965V96.623H92.292C92.014 97.2428 91.6357 97.7214 91.1572 98.0586C90.6833 98.3958 90.1478 98.5645 89.5508 98.5645C88.9219 98.5645 88.3613 98.3844 87.8691 98.0244C87.3815 97.6598 87.001 97.1426 86.7275 96.4727C86.4541 95.7982 86.3197 95.0143 86.3242 94.1211C86.3197 93.2324 86.4541 92.4554 86.7275 91.79C87.001 91.1201 87.3815 90.6029 87.8691 90.2383C88.3613 89.8737 88.9219 89.6914 89.5508 89.6914ZM89.5508 91.2637C89.2409 91.2637 88.9674 91.3753 88.7305 91.5986C88.4935 91.8174 88.3089 92.1432 88.1768 92.5762C88.0492 93.0046 87.9876 93.5195 87.9922 94.1211C87.9876 94.7272 88.0492 95.2445 88.1768 95.6729C88.3089 96.1012 88.4912 96.4271 88.7236 96.6504C88.9606 96.8691 89.2363 96.9785 89.5508 96.9785C89.8652 96.9785 90.1387 96.8691 90.3711 96.6504C90.6081 96.4316 90.7904 96.1081 90.918 95.6797C91.0456 95.2513 91.1094 94.7318 91.1094 94.1211C91.1094 93.515 91.0456 92.9977 90.918 92.5693C90.7904 92.141 90.6081 91.8174 90.3711 91.5986C90.1387 91.3753 89.8652 91.2637 89.5508 91.2637ZM92.6475 92.7812C92.734 93.2142 92.7773 93.6608 92.7773 94.1211C92.7773 94.4629 92.75 94.832 92.6953 95.2285H94.8965V92.7812H92.6475ZM108.91 96.623H107.256V93.3145H106.258V96.2129H104.631V89.0488H106.258V91.8926H107.256V88.8164H108.91V96.623ZM104.262 91.4551H98.1504V90.1016H100.352V88.9258H102.088V90.1016H104.262V91.4551ZM101.227 91.8652C101.751 91.8652 102.218 91.9564 102.628 92.1387C103.038 92.321 103.359 92.5762 103.592 92.9043C103.824 93.2324 103.943 93.6107 103.947 94.0391C103.943 94.4629 103.824 94.8389 103.592 95.167C103.359 95.4906 103.038 95.7435 102.628 95.9258C102.218 96.1081 101.751 96.1992 101.227 96.1992C100.712 96.1992 100.249 96.1081 99.8389 95.9258C99.4287 95.7435 99.1074 95.4906 98.875 95.167C98.6471 94.8389 98.5332 94.4629 98.5332 94.0391C98.5332 93.6152 98.6471 93.2393 98.875 92.9111C99.1074 92.5785 99.4287 92.321 99.8389 92.1387C100.249 91.9564 100.712 91.8652 101.227 91.8652ZM101.227 93.123C100.88 93.123 100.604 93.2051 100.399 93.3691C100.194 93.5332 100.092 93.7565 100.092 94.0391C100.092 94.3262 100.194 94.554 100.399 94.7227C100.609 94.8867 100.885 94.9642 101.227 94.9551C101.568 94.9642 101.844 94.8867 102.054 94.7227C102.263 94.554 102.37 94.3262 102.375 94.0391C102.37 93.752 102.263 93.5286 102.054 93.3691C101.849 93.2051 101.573 93.123 101.227 93.123ZM104.658 96.7324C105.556 96.7324 106.326 96.8213 106.969 96.999C107.616 97.1768 108.11 97.4365 108.452 97.7783C108.799 98.1156 108.974 98.5234 108.979 99.002C108.974 99.4759 108.799 99.8815 108.452 100.219C108.11 100.556 107.616 100.813 106.969 100.991C106.322 101.169 105.551 101.258 104.658 101.258C103.765 101.258 102.995 101.169 102.348 100.991C101.705 100.813 101.211 100.556 100.864 100.219C100.522 99.8815 100.352 99.4759 100.352 99.002C100.352 98.5234 100.522 98.1156 100.864 97.7783C101.211 97.4365 101.705 97.1768 102.348 96.999C102.995 96.8213 103.765 96.7324 104.658 96.7324ZM104.658 98.0449C102.94 98.0449 102.088 98.3639 102.102 99.002C102.097 99.3164 102.311 99.5534 102.744 99.7129C103.177 99.8678 103.815 99.9453 104.658 99.9453C106.363 99.9453 107.215 99.6309 107.215 99.002C107.215 98.6784 107.003 98.4391 106.579 98.2842C106.155 98.1247 105.515 98.0449 104.658 98.0449ZM117.086 89.1855C117.71 89.1855 118.275 89.3063 118.781 89.5479C119.287 89.7894 119.684 90.1266 119.971 90.5596C120.262 90.9925 120.408 91.4824 120.408 92.0293C120.408 92.5671 120.262 93.0524 119.971 93.4854C119.684 93.9137 119.287 94.251 118.781 94.4971C118.275 94.7386 117.71 94.8594 117.086 94.8594C116.452 94.8594 115.881 94.7386 115.37 94.4971C114.86 94.251 114.459 93.9137 114.167 93.4854C113.88 93.0524 113.736 92.5671 113.736 92.0293C113.736 91.4824 113.88 90.9925 114.167 90.5596C114.459 90.1266 114.857 89.7894 115.363 89.5479C115.874 89.3063 116.448 89.1855 117.086 89.1855ZM117.086 90.6074C116.767 90.6074 116.48 90.6644 116.225 90.7783C115.974 90.8877 115.778 91.0518 115.637 91.2705C115.495 91.4847 115.427 91.7376 115.432 92.0293C115.427 92.321 115.495 92.5739 115.637 92.7881C115.778 93.0023 115.974 93.1663 116.225 93.2803C116.48 93.3942 116.767 93.4512 117.086 93.4512C117.4 93.4512 117.681 93.3942 117.927 93.2803C118.177 93.1663 118.373 93.0023 118.515 92.7881C118.656 92.5739 118.727 92.321 118.727 92.0293C118.727 91.7331 118.656 91.4779 118.515 91.2637C118.373 91.0495 118.177 90.8877 117.927 90.7783C117.681 90.6644 117.4 90.6074 117.086 90.6074ZM123.963 95.0508H122.213V88.8164H123.963V95.0508ZM123.963 98.9473H117.346V99.7539H124.305V101.121H115.637V97.6758H122.227V96.9102H115.609V95.5703H123.963V98.9473ZM136.131 96.1992H134.395V93.2598H132.453V91.8516H134.395V88.8164H136.131V96.1992ZM131.879 96.4727C132.763 96.4772 133.524 96.5752 134.162 96.7666C134.805 96.9535 135.299 97.2269 135.646 97.5869C135.992 97.9469 136.167 98.3776 136.172 98.8789C136.167 99.3757 135.992 99.804 135.646 100.164C135.299 100.524 134.805 100.798 134.162 100.984C133.52 101.176 132.758 101.271 131.879 101.271C130.999 101.271 130.238 101.176 129.596 100.984C128.953 100.798 128.459 100.524 128.112 100.164C127.771 99.804 127.6 99.3757 127.6 98.8789C127.6 98.3776 127.771 97.9469 128.112 97.5869C128.459 97.2269 128.951 96.9535 129.589 96.7666C130.231 96.5752 130.995 96.4772 131.879 96.4727ZM131.879 97.8125C130.184 97.8125 129.336 98.168 129.336 98.8789C129.336 99.2344 129.55 99.501 129.979 99.6787C130.411 99.8564 131.045 99.9453 131.879 99.9453C132.713 99.9453 133.346 99.8564 133.779 99.6787C134.217 99.4964 134.436 99.2298 134.436 98.8789C134.436 98.168 133.583 97.8125 131.879 97.8125ZM132.822 90.9629H130.348C130.361 91.4642 130.473 91.9473 130.683 92.4121C130.897 92.8724 131.214 93.2871 131.633 93.6562C132.057 94.0254 132.581 94.3125 133.205 94.5176L132.344 95.8848C131.678 95.6706 131.104 95.3516 130.621 94.9277C130.143 94.4993 129.764 93.9958 129.486 93.417C129.199 94.0732 128.803 94.6429 128.297 95.126C127.791 95.6045 127.18 95.9668 126.465 96.2129L125.562 94.832C126.219 94.6133 126.768 94.3034 127.21 93.9023C127.657 93.4967 127.989 93.041 128.208 92.5352C128.431 92.0293 128.552 91.5052 128.57 90.9629H126.068V89.5684H132.822V90.9629Z" fill="#E8E4DC"/>
</g>
<g id="Frame 87">
<path d="M196.5 84C196.5 81.7909 198.291 80 200.5 80H362C364.209 80 366 81.7909 366 84V106C366 108.209 364.209 110 362 110H200.5C198.291 110 196.5 108.209 196.5 106V84Z" fill="#5E9E72"/>
<path id="&#236;&#152;&#136;&#236;&#149;&#189;" d="M279.906 101.258H278.238V88.8164H279.906V101.258ZM277.363 100.684H275.723V96.8281H274.26C274.027 97.4388 273.711 97.9082 273.31 98.2363C272.913 98.5645 272.455 98.7285 271.936 98.7285C271.393 98.7285 270.917 98.5462 270.507 98.1816C270.101 97.8171 269.787 97.2952 269.563 96.6162C269.34 95.9326 269.229 95.1283 269.229 94.2031C269.229 93.2826 269.34 92.485 269.563 91.8105C269.787 91.1315 270.101 90.612 270.507 90.252C270.917 89.8874 271.393 89.7051 271.936 89.7051C272.451 89.7051 272.906 89.8669 273.303 90.1904C273.704 90.514 274.021 90.9766 274.253 91.5781H275.723V88.9941H277.363V100.684ZM271.936 91.3457C271.571 91.3457 271.291 91.5872 271.095 92.0703C270.903 92.5534 270.81 93.2643 270.814 94.2031C270.81 95.1465 270.903 95.8597 271.095 96.3428C271.286 96.8213 271.566 97.056 271.936 97.0469C272.305 97.056 272.59 96.8213 272.79 96.3428C272.995 95.8597 273.098 95.1465 273.098 94.2031C273.098 93.2734 272.995 92.5648 272.79 92.0771C272.585 91.5895 272.3 91.3457 271.936 91.3457ZM274.602 92.9727C274.656 93.3555 274.684 93.7656 274.684 94.2031C274.684 94.6361 274.656 95.0417 274.602 95.4199H275.723V92.9727H274.602ZM292.703 91.8652H291.09V93.1367H292.703V94.5859H291.09V96.1582H289.34V88.8164H291.09V90.457H292.703V91.8652ZM291.09 101.258H289.34V98.0586H282.709V96.6504H291.09V101.258ZM284.719 89.5C285.352 89.4954 285.926 89.623 286.441 89.8828C286.961 90.1426 287.369 90.5049 287.665 90.9697C287.961 91.43 288.109 91.9473 288.109 92.5215C288.109 93.1094 287.961 93.6357 287.665 94.1006C287.369 94.5609 286.963 94.9209 286.448 95.1807C285.933 95.4404 285.357 95.5703 284.719 95.5703C284.076 95.5703 283.495 95.4404 282.976 95.1807C282.456 94.9209 282.046 94.5609 281.745 94.1006C281.449 93.6357 281.301 93.1094 281.301 92.5215C281.301 91.9473 281.449 91.43 281.745 90.9697C282.046 90.5049 282.456 90.1426 282.976 89.8828C283.5 89.623 284.081 89.4954 284.719 89.5ZM284.719 90.9902C284.391 90.9902 284.097 91.0518 283.837 91.1748C283.577 91.2933 283.374 91.4688 283.229 91.7012C283.087 91.9336 283.019 92.207 283.023 92.5215C283.019 92.8451 283.087 93.1253 283.229 93.3623C283.374 93.5993 283.577 93.7816 283.837 93.9092C284.097 94.0322 284.391 94.0938 284.719 94.0938C285.038 94.0938 285.325 94.0322 285.58 93.9092C285.835 93.7816 286.036 93.5993 286.182 93.3623C286.332 93.1253 286.41 92.8451 286.414 92.5215C286.41 92.207 286.332 91.9336 286.182 91.7012C286.036 91.4688 285.835 91.2933 285.58 91.1748C285.325 91.0518 285.038 90.9902 284.719 90.9902Z" fill="#E8E4DC"/>
</g>
</g>
</g>
</svg>
