<svg width="425" height="658" viewBox="0 0 425 658" fill="none" xmlns="http://www.w3.org/2000/svg">
<g id="PlanScreen-Non">
<rect width="393" height="638" transform="translate(16)" fill="white"/>
<g id="Main Content">
<rect width="393" height="565" transform="translate(16)" fill="#F5F3EE"/>
<g id="Frame 82">
<path id="&#236;&#152;&#164;&#235;&#138;&#152;&#236;&#157;&#128; &#236;&#151;&#172;&#237;&#150;&#137; &#236;&#157;&#188;&#236;&#160;&#149;&#236;&#157;&#180; &#236;&#151;&#134;&#236;&#150;&#180;&#236;&#154;&#148;" d="M118.133 236.441C119.402 236.441 120.545 236.643 121.561 237.047C122.576 237.451 123.374 238.023 123.953 238.766C124.533 239.501 124.826 240.348 124.832 241.305C124.826 242.177 124.591 242.958 124.129 243.648C123.667 244.339 123.022 244.898 122.195 245.328C121.375 245.751 120.431 246.025 119.363 246.148V249.176H126.297V251.227H110.027V249.176H116.883V246.139C115.822 246.021 114.881 245.748 114.061 245.318C113.24 244.889 112.599 244.332 112.137 243.648C111.681 242.958 111.453 242.177 111.453 241.305C111.453 240.348 111.74 239.501 112.312 238.766C112.892 238.023 113.689 237.451 114.705 237.047C115.721 236.643 116.863 236.441 118.133 236.441ZM118.133 238.434C117.306 238.434 116.574 238.551 115.936 238.785C115.298 239.013 114.799 239.345 114.441 239.781C114.09 240.217 113.914 240.725 113.914 241.305C113.914 241.917 114.09 242.444 114.441 242.887C114.799 243.323 115.294 243.658 115.926 243.893C116.564 244.12 117.299 244.234 118.133 244.234C118.973 244.234 119.708 244.12 120.34 243.893C120.978 243.665 121.473 243.329 121.824 242.887C122.182 242.444 122.365 241.917 122.371 241.305C122.365 240.719 122.182 240.211 121.824 239.781C121.473 239.345 120.978 239.013 120.34 238.785C119.702 238.551 118.966 238.434 118.133 238.434ZM141.388 241.09H129.024V235.738H131.505V239.117H141.388V241.09ZM143.263 244.254H126.993V242.281H143.263V244.254ZM141.309 250.055H131.388V251.188H141.856V253.102H128.888V248.258H138.829V247.242H128.848V245.328H141.309V250.055ZM160.209 246.598H143.998V244.605H160.209V246.598ZM158.373 252.984H145.951V247.789H148.451V250.992H158.373V252.984ZM152.103 236.07C153.392 236.064 154.522 236.207 155.492 236.5C156.468 236.793 157.224 237.213 157.757 237.76C158.291 238.307 158.561 238.954 158.568 239.703C158.561 240.452 158.291 241.103 157.757 241.656C157.224 242.21 156.468 242.636 155.492 242.936C154.522 243.229 153.392 243.375 152.103 243.375C150.801 243.375 149.662 243.229 148.685 242.936C147.709 242.636 146.953 242.21 146.42 241.656C145.886 241.103 145.619 240.452 145.619 239.703C145.619 238.954 145.886 238.307 146.42 237.76C146.953 237.213 147.709 236.793 148.685 236.5C149.662 236.207 150.801 236.064 152.103 236.07ZM152.103 238.023C150.86 238.036 149.899 238.186 149.222 238.473C148.545 238.759 148.21 239.169 148.216 239.703C148.21 240.25 148.542 240.663 149.213 240.943C149.89 241.223 150.853 241.363 152.103 241.363C153.353 241.363 154.313 241.223 154.984 240.943C155.655 240.663 155.99 240.25 155.99 239.703C155.99 239.169 155.651 238.759 154.974 238.473C154.297 238.186 153.34 238.036 152.103 238.023ZM170.195 236.773C170.989 236.773 171.705 236.982 172.343 237.398C172.987 237.815 173.515 238.408 173.925 239.176H177.831V235.523H180.292V253.336H177.831V246.676H174.111C173.713 247.561 173.173 248.245 172.489 248.727C171.812 249.208 171.047 249.449 170.195 249.449C169.296 249.449 168.495 249.192 167.792 248.678C167.096 248.157 166.552 247.418 166.161 246.461C165.771 245.497 165.579 244.378 165.585 243.102C165.579 241.832 165.771 240.722 166.161 239.771C166.552 238.814 167.096 238.076 167.792 237.555C168.495 237.034 169.296 236.773 170.195 236.773ZM170.195 239.02C169.752 239.02 169.361 239.179 169.023 239.498C168.684 239.811 168.42 240.276 168.232 240.895C168.049 241.507 167.961 242.242 167.968 243.102C167.961 243.967 168.049 244.706 168.232 245.318C168.42 245.93 168.681 246.396 169.013 246.715C169.351 247.027 169.745 247.184 170.195 247.184C170.644 247.184 171.034 247.027 171.366 246.715C171.705 246.402 171.965 245.94 172.148 245.328C172.33 244.716 172.421 243.974 172.421 243.102C172.421 242.236 172.33 241.497 172.148 240.885C171.965 240.273 171.705 239.811 171.366 239.498C171.034 239.179 170.644 239.02 170.195 239.02ZM174.618 241.188C174.742 241.806 174.804 242.444 174.804 243.102C174.804 243.59 174.765 244.117 174.687 244.684H177.831V241.188H174.618ZM197.551 246.676H195.188V241.949H193.762V246.09H191.438V235.855H193.762V239.918H195.188V235.523H197.551V246.676ZM190.91 239.293H182.18V237.359H185.324V235.68H187.805V237.359H190.91V239.293ZM186.574 239.879C187.323 239.879 187.99 240.009 188.576 240.27C189.162 240.53 189.621 240.895 189.953 241.363C190.285 241.832 190.454 242.372 190.461 242.984C190.454 243.59 190.285 244.127 189.953 244.596C189.621 245.058 189.162 245.419 188.576 245.68C187.99 245.94 187.323 246.07 186.574 246.07C185.839 246.07 185.178 245.94 184.592 245.68C184.006 245.419 183.547 245.058 183.215 244.596C182.889 244.127 182.727 243.59 182.727 242.984C182.727 242.379 182.889 241.842 183.215 241.373C183.547 240.898 184.006 240.53 184.592 240.27C185.178 240.009 185.839 239.879 186.574 239.879ZM186.574 241.676C186.079 241.676 185.686 241.793 185.393 242.027C185.1 242.262 184.953 242.581 184.953 242.984C184.953 243.395 185.1 243.72 185.393 243.961C185.692 244.195 186.086 244.306 186.574 244.293C187.062 244.306 187.456 244.195 187.756 243.961C188.055 243.72 188.208 243.395 188.215 242.984C188.208 242.574 188.055 242.255 187.756 242.027C187.463 241.793 187.069 241.676 186.574 241.676ZM191.477 246.832C192.759 246.832 193.859 246.959 194.777 247.213C195.702 247.467 196.408 247.838 196.896 248.326C197.391 248.808 197.642 249.391 197.648 250.074C197.642 250.751 197.391 251.331 196.896 251.812C196.408 252.294 195.702 252.662 194.777 252.916C193.853 253.17 192.753 253.297 191.477 253.297C190.201 253.297 189.1 253.17 188.176 252.916C187.258 252.662 186.551 252.294 186.057 251.812C185.568 251.331 185.324 250.751 185.324 250.074C185.324 249.391 185.568 248.808 186.057 248.326C186.551 247.838 187.258 247.467 188.176 247.213C189.1 246.959 190.201 246.832 191.477 246.832ZM191.477 248.707C189.022 248.707 187.805 249.163 187.824 250.074C187.818 250.523 188.124 250.862 188.742 251.09C189.361 251.311 190.272 251.422 191.477 251.422C193.911 251.422 195.129 250.973 195.129 250.074C195.129 249.612 194.826 249.27 194.221 249.049C193.615 248.821 192.701 248.707 191.477 248.707ZM208.63 236.051C209.522 236.051 210.33 236.223 211.052 236.568C211.775 236.913 212.341 237.395 212.752 238.014C213.168 238.632 213.377 239.332 213.377 240.113C213.377 240.882 213.168 241.575 212.752 242.193C212.341 242.805 211.775 243.287 211.052 243.639C210.33 243.984 209.522 244.156 208.63 244.156C207.726 244.156 206.908 243.984 206.179 243.639C205.45 243.287 204.877 242.805 204.461 242.193C204.05 241.575 203.845 240.882 203.845 240.113C203.845 239.332 204.05 238.632 204.461 238.014C204.877 237.395 205.447 236.913 206.17 236.568C206.899 236.223 207.719 236.051 208.63 236.051ZM208.63 238.082C208.175 238.082 207.765 238.163 207.4 238.326C207.042 238.482 206.762 238.717 206.56 239.029C206.358 239.335 206.261 239.697 206.267 240.113C206.261 240.53 206.358 240.891 206.56 241.197C206.762 241.503 207.042 241.738 207.4 241.9C207.765 242.063 208.175 242.145 208.63 242.145C209.08 242.145 209.48 242.063 209.832 241.9C210.19 241.738 210.47 241.503 210.671 241.197C210.873 240.891 210.974 240.53 210.974 240.113C210.974 239.69 210.873 239.326 210.671 239.02C210.47 238.714 210.19 238.482 209.832 238.326C209.48 238.163 209.08 238.082 208.63 238.082ZM218.455 244.43H215.955V235.523H218.455V244.43ZM218.455 249.996H209.002V251.148H218.943V253.102H206.56V248.18H215.974V247.086H206.521V245.172H218.455V249.996ZM235.537 246.07H233.057V241.871H230.284V239.859H233.057V235.523H235.537V246.07ZM229.463 246.461C230.726 246.467 231.814 246.607 232.725 246.881C233.643 247.148 234.349 247.538 234.844 248.053C235.339 248.567 235.59 249.182 235.596 249.898C235.59 250.608 235.339 251.22 234.844 251.734C234.349 252.249 233.643 252.639 232.725 252.906C231.807 253.18 230.72 253.316 229.463 253.316C228.207 253.316 227.12 253.18 226.202 252.906C225.284 252.639 224.577 252.249 224.082 251.734C223.594 251.22 223.35 250.608 223.35 249.898C223.35 249.182 223.594 248.567 224.082 248.053C224.577 247.538 225.28 247.148 226.192 246.881C227.11 246.607 228.2 246.467 229.463 246.461ZM229.463 248.375C227.041 248.375 225.83 248.883 225.83 249.898C225.83 250.406 226.136 250.787 226.748 251.041C227.367 251.295 228.272 251.422 229.463 251.422C230.655 251.422 231.56 251.295 232.178 251.041C232.803 250.781 233.116 250.4 233.116 249.898C233.116 248.883 231.898 248.375 229.463 248.375ZM230.811 238.59H227.276C227.295 239.306 227.455 239.996 227.754 240.66C228.06 241.318 228.513 241.91 229.112 242.438C229.717 242.965 230.466 243.375 231.358 243.668L230.127 245.621C229.177 245.315 228.357 244.859 227.666 244.254C226.983 243.642 226.442 242.923 226.045 242.096C225.635 243.033 225.069 243.847 224.346 244.537C223.623 245.221 222.751 245.738 221.729 246.09L220.44 244.117C221.377 243.805 222.162 243.362 222.793 242.789C223.431 242.21 223.907 241.559 224.219 240.836C224.538 240.113 224.711 239.365 224.737 238.59H221.162V236.598H230.811V238.59ZM252.425 253.336H249.905V235.523H252.425V253.336ZM242.777 236.773C243.668 236.773 244.466 237.034 245.169 237.555C245.879 238.076 246.435 238.814 246.839 239.771C247.243 240.729 247.445 241.839 247.445 243.102C247.445 244.378 247.243 245.497 246.839 246.461C246.435 247.418 245.879 248.157 245.169 248.678C244.466 249.192 243.668 249.449 242.777 249.449C241.865 249.449 241.051 249.192 240.335 248.678C239.619 248.157 239.059 247.418 238.655 246.461C238.258 245.497 238.063 244.378 238.07 243.102C238.063 241.839 238.258 240.729 238.655 239.771C239.059 238.814 239.619 238.076 240.335 237.555C241.051 237.034 241.865 236.773 242.777 236.773ZM242.777 239.02C242.314 239.02 241.907 239.179 241.556 239.498C241.211 239.811 240.944 240.273 240.755 240.885C240.566 241.497 240.472 242.236 240.472 243.102C240.472 243.974 240.566 244.716 240.755 245.328C240.944 245.94 241.211 246.402 241.556 246.715C241.907 247.027 242.314 247.184 242.777 247.184C243.232 247.184 243.629 247.027 243.968 246.715C244.307 246.396 244.57 245.93 244.759 245.318C244.948 244.706 245.042 243.967 245.042 243.102C245.042 242.242 244.948 241.507 244.759 240.895C244.57 240.276 244.303 239.811 243.958 239.498C243.62 239.179 243.226 239.02 242.777 239.02ZM263.114 247.691H265.028V245.914H267.333V251.314C268.27 250.891 268.973 250.309 269.442 249.566C269.911 248.818 270.145 248.01 270.145 247.145V245.777H272.645V247.145C272.632 248.115 272.88 248.98 273.387 249.742C273.895 250.504 274.677 251.057 275.731 251.402L274.442 253.258C273.003 252.763 271.975 251.826 271.356 250.445C271.044 251.09 270.637 251.653 270.136 252.135C269.634 252.617 269.039 252.991 268.348 253.258L267.333 251.725V253.102H260.809V245.914H263.114V247.691ZM265.028 251.207V249.527H263.114V251.207H265.028ZM263.798 236.188C264.546 236.188 265.236 236.318 265.868 236.578C266.499 236.839 267.03 237.206 267.46 237.682C267.896 238.157 268.195 238.707 268.358 239.332H271.337V235.523H273.817V244.938H271.337V241.383H268.368C268.212 242.021 267.915 242.581 267.479 243.062C267.05 243.544 266.516 243.919 265.878 244.186C265.24 244.452 264.546 244.586 263.798 244.586C262.893 244.586 262.079 244.407 261.356 244.049C260.64 243.691 260.077 243.193 259.667 242.555C259.263 241.91 259.065 241.181 259.071 240.367C259.065 239.566 259.263 238.85 259.667 238.219C260.077 237.581 260.64 237.083 261.356 236.725C262.079 236.367 262.893 236.188 263.798 236.188ZM263.798 238.238C263.335 238.238 262.922 238.326 262.557 238.502C262.199 238.671 261.919 238.919 261.718 239.244C261.522 239.563 261.428 239.938 261.434 240.367C261.428 240.81 261.522 241.194 261.718 241.52C261.919 241.845 262.199 242.099 262.557 242.281C262.922 242.457 263.335 242.548 263.798 242.555C264.247 242.548 264.647 242.457 264.999 242.281C265.35 242.099 265.624 241.845 265.819 241.52C266.021 241.194 266.122 240.81 266.122 240.367C266.122 239.938 266.021 239.563 265.819 239.244C265.624 238.919 265.35 238.671 264.999 238.502C264.647 238.326 264.247 238.238 263.798 238.238ZM280.724 236.773C281.518 236.773 282.238 236.985 282.882 237.408C283.527 237.825 284.054 238.424 284.464 239.205C284.881 239.98 285.148 240.895 285.265 241.949H288.361V235.523H290.822V253.336H288.361V243.941H285.295C285.21 245.068 284.962 246.048 284.552 246.881C284.142 247.708 283.608 248.342 282.951 248.785C282.293 249.228 281.551 249.449 280.724 249.449C279.826 249.449 279.025 249.192 278.322 248.678C277.625 248.157 277.082 247.418 276.691 246.461C276.3 245.497 276.108 244.378 276.115 243.102C276.108 241.832 276.3 240.722 276.691 239.771C277.082 238.814 277.625 238.076 278.322 237.555C279.025 237.034 279.826 236.773 280.724 236.773ZM280.724 239.02C280.282 239.02 279.891 239.179 279.552 239.498C279.214 239.811 278.95 240.276 278.761 240.895C278.579 241.507 278.491 242.242 278.498 243.102C278.491 243.967 278.579 244.706 278.761 245.318C278.95 245.93 279.211 246.396 279.543 246.715C279.881 247.027 280.275 247.184 280.724 247.184C281.173 247.184 281.564 247.027 281.896 246.715C282.235 246.402 282.495 245.94 282.677 245.328C282.86 244.716 282.951 243.974 282.951 243.102C282.951 242.236 282.86 241.497 282.677 240.885C282.495 240.273 282.235 239.811 281.896 239.498C281.564 239.179 281.173 239.02 280.724 239.02ZM309.077 251.227H292.807V249.176H296.44V244.83C295.737 244.407 295.193 243.886 294.809 243.268C294.425 242.643 294.233 241.943 294.233 241.168C294.233 240.224 294.519 239.391 295.092 238.668C295.665 237.945 296.456 237.385 297.465 236.988C298.481 236.585 299.63 236.383 300.913 236.383C302.189 236.383 303.331 236.585 304.34 236.988C305.356 237.385 306.153 237.945 306.733 238.668C307.312 239.391 307.605 240.224 307.612 241.168C307.605 241.923 307.413 242.61 307.036 243.229C306.664 243.84 306.14 244.358 305.463 244.781V249.176H309.077V251.227ZM300.913 238.355C300.066 238.355 299.324 238.466 298.686 238.688C298.054 238.909 297.563 239.231 297.211 239.654C296.866 240.071 296.694 240.576 296.694 241.168C296.694 241.741 296.866 242.239 297.211 242.662C297.563 243.085 298.058 243.411 298.696 243.639C299.334 243.867 300.073 243.98 300.913 243.98C301.746 243.98 302.482 243.867 303.12 243.639C303.758 243.411 304.252 243.085 304.604 242.662C304.962 242.239 305.144 241.741 305.151 241.168C305.144 240.582 304.965 240.077 304.614 239.654C304.262 239.231 303.767 238.909 303.129 238.688C302.491 238.466 301.752 238.355 300.913 238.355ZM302.944 249.176V245.729C302.273 245.852 301.596 245.914 300.913 245.914C300.183 245.914 299.513 245.852 298.901 245.729V249.176H302.944Z" fill="#1A1A1A"/>
<path id="&#235;&#167;&#136;&#236;&#139;&#164;&#236;&#157;&#132; &#235;&#150;&#160;&#235;&#130;&#160; &#236;&#164;&#128;&#235;&#185;&#132;&#234;&#176;&#128; &#235;&#144;&#144;&#235;&#130;&#152;&#236;&#154;&#148;?" d="M143.604 273.518H137.998V265.684H143.604V273.518ZM139.037 272.643H142.537V266.545H139.037V272.643ZM146.898 269.307H148.936V270.236H146.898V276.607H145.832V264.453H146.898V269.307ZM159.613 270.756H158.561V264.453H159.613V270.756ZM159.627 274.283H152.805V275.596H160.064V276.471H151.752V273.449H158.561V272.232H151.725V271.371H159.627V274.283ZM153.898 265.738C153.894 266.303 154.024 266.841 154.288 267.352C154.552 267.862 154.919 268.311 155.389 268.698C155.863 269.081 156.4 269.37 157.002 269.566L156.469 270.4C155.753 270.159 155.124 269.794 154.582 269.307C154.044 268.814 153.639 268.24 153.365 267.584C153.092 268.29 152.682 268.91 152.135 269.443C151.588 269.977 150.954 270.373 150.234 270.633L149.674 269.785C150.28 269.571 150.82 269.261 151.294 268.855C151.768 268.445 152.137 267.971 152.401 267.434C152.67 266.891 152.805 266.326 152.805 265.738V264.809H153.898V265.738ZM167.229 264.672C168.131 264.672 168.903 264.754 169.546 264.918C170.188 265.077 170.678 265.314 171.016 265.629C171.353 265.939 171.521 266.317 171.521 266.764C171.521 267.447 171.148 267.971 170.4 268.336C169.653 268.701 168.596 268.887 167.229 268.896C166.326 268.892 165.551 268.808 164.904 268.644C164.262 268.479 163.77 268.24 163.428 267.926C163.09 267.607 162.922 267.219 162.922 266.764C162.922 266.317 163.09 265.939 163.428 265.629C163.77 265.314 164.262 265.077 164.904 264.918C165.551 264.754 166.326 264.672 167.229 264.672ZM167.229 265.479C166.559 265.479 165.984 265.531 165.506 265.636C165.027 265.736 164.663 265.884 164.412 266.08C164.161 266.271 164.038 266.499 164.043 266.764C164.038 267.183 164.314 267.507 164.87 267.734C165.426 267.962 166.212 268.076 167.229 268.076C168.24 268.076 169.026 267.962 169.587 267.734C170.147 267.507 170.428 267.183 170.428 266.764C170.428 266.499 170.3 266.271 170.045 266.08C169.79 265.889 169.423 265.741 168.944 265.636C168.466 265.531 167.894 265.479 167.229 265.479ZM172.766 270.592H161.691V269.717H172.766V270.592ZM171.344 274.365H164.125V275.623H171.713V276.471H163.059V273.572H170.291V272.465H163.031V271.645H171.344V274.365ZM180.695 266.572H178.74V272.567C179.483 272.549 180.153 272.469 180.75 272.328L180.887 273.23C180.417 273.335 179.975 273.404 179.561 273.436C179.15 273.463 178.695 273.477 178.193 273.477H177.688V265.684H180.695V266.572ZM184.688 266.572H182.445V272.574C183.006 272.565 183.496 272.542 183.915 272.506C184.339 272.465 184.765 272.392 185.193 272.287L185.303 273.176C184.779 273.303 184.275 273.385 183.792 273.422C183.309 273.458 182.705 273.477 181.98 273.477H181.365V265.684H184.688V266.572ZM187.518 276.607H186.438V269.799H184.086V268.924H186.438V264.453H187.518V276.607ZM198.906 266.996H200.738V267.898H198.906V270.592H197.84V264.453H198.906V266.996ZM191.072 269.074C191.997 269.079 192.909 269.042 193.807 268.965C194.704 268.883 195.62 268.746 196.555 268.555L196.691 269.457C195.707 269.658 194.752 269.799 193.827 269.881C192.907 269.963 191.952 270.004 190.963 270.004H189.992V265H191.072V269.074ZM198.906 274.146H192.248V275.568H199.357V276.443H191.182V273.299H197.84V272.041H191.154V271.18H198.906V274.146ZM211.252 265.971C211.247 266.449 211.441 266.9 211.833 267.324C212.225 267.743 212.742 268.099 213.385 268.391C214.027 268.682 214.711 268.878 215.436 268.979L215.012 269.826C214.351 269.73 213.72 269.562 213.118 269.32C212.521 269.074 211.997 268.764 211.546 268.391C211.099 268.017 210.769 267.6 210.555 267.14C210.34 267.6 210.01 268.017 209.563 268.391C209.117 268.764 208.593 269.074 207.991 269.32C207.394 269.562 206.763 269.73 206.098 269.826L205.701 268.979C206.426 268.878 207.105 268.685 207.738 268.397C208.376 268.106 208.889 267.748 209.276 267.324C209.664 266.9 209.857 266.449 209.857 265.971V265.943H206.029V265.068H215.107V265.943H211.252V265.971ZM216.133 271.604H211.184V274.092H210.117V271.604H205.004V270.715H216.133V271.604ZM214.889 276.348H206.426V272.875H207.506V275.445H214.889V276.348ZM227.139 276.635H226.059V264.453H227.139V276.635ZM218.895 268.705H222.518V265.492H223.57V273.695H217.828V265.492H218.895V268.705ZM222.518 272.793V269.566H218.895V272.793H222.518ZM238.623 269.402H240.592V270.305H238.623V276.607H237.557V264.453H238.623V269.402ZM235.479 265.766C235.479 267.575 235.025 269.215 234.118 270.688C233.211 272.155 231.805 273.358 229.9 274.297L229.299 273.449C230.862 272.67 232.072 271.708 232.929 270.564C233.785 269.416 234.275 268.117 234.398 266.668H229.859V265.766H235.479ZM245.486 270.646C246.389 270.646 247.086 270.635 247.578 270.612V269.143H245.514V265.219H250.545V266.121H246.566V268.254H250.613V269.143H248.59V270.571C249.561 270.517 250.363 270.441 250.996 270.346L251.051 271.125C250.176 271.289 249.216 271.396 248.173 271.446C247.129 271.496 246.038 271.521 244.898 271.521L244.762 270.646H245.486ZM255.125 271.959H254.1V268.76H252.609V271.891H251.598V264.686H252.609V267.871H254.1V264.453H255.125V271.959ZM249.014 272.793C249.014 273.135 249.08 273.479 249.212 273.825C249.344 274.172 249.54 274.497 249.8 274.803C250.064 275.108 250.383 275.363 250.757 275.568C251.131 275.359 251.45 275.101 251.714 274.796C251.978 274.486 252.176 274.158 252.309 273.812C252.445 273.465 252.514 273.126 252.514 272.793V272.479H253.539V272.793C253.539 273.203 253.639 273.602 253.84 273.989C254.04 274.372 254.327 274.712 254.701 275.008C255.079 275.299 255.521 275.518 256.027 275.664L255.521 276.471C254.92 276.275 254.405 275.985 253.977 275.603C253.548 275.224 253.225 274.785 253.006 274.283C252.81 274.794 252.523 275.249 252.145 275.65C251.766 276.056 251.306 276.366 250.764 276.58C250.208 276.37 249.738 276.065 249.355 275.664C248.977 275.263 248.69 274.805 248.494 274.29C248.275 274.791 247.954 275.231 247.53 275.609C247.106 275.988 246.603 276.275 246.02 276.471L245.486 275.664C245.997 275.509 246.439 275.284 246.812 274.987C247.191 274.687 247.48 274.347 247.681 273.969C247.886 273.586 247.988 273.194 247.988 272.793V272.479H249.014V272.793ZM268.305 270.209H266.336V276.607H265.27V264.453H266.336V269.307H268.305V270.209ZM258.502 272.615C259.454 272.611 260.386 272.565 261.298 272.479C262.209 272.392 263.141 272.251 264.094 272.055L264.23 272.971C263.242 273.171 262.273 273.312 261.325 273.395C260.382 273.477 259.409 273.518 258.406 273.518H257.436V265.656H258.502V272.615ZM280.158 275.049H269.029V274.146H271.791V270.865C271.262 270.592 270.852 270.241 270.561 269.812C270.269 269.38 270.123 268.892 270.123 268.35C270.123 267.73 270.312 267.185 270.69 266.716C271.069 266.242 271.593 265.875 272.263 265.615C272.937 265.355 273.705 265.223 274.566 265.219C275.428 265.223 276.193 265.355 276.863 265.615C277.538 265.875 278.064 266.242 278.442 266.716C278.821 267.185 279.01 267.73 279.01 268.35C279.01 268.883 278.868 269.364 278.586 269.792C278.303 270.216 277.907 270.564 277.396 270.838V274.146H280.158V275.049ZM274.566 266.107C273.906 266.103 273.318 266.194 272.803 266.381C272.288 266.568 271.884 266.832 271.593 267.174C271.306 267.511 271.162 267.903 271.162 268.35C271.162 268.796 271.306 269.193 271.593 269.539C271.884 269.881 272.288 270.147 272.803 270.339C273.318 270.526 273.906 270.619 274.566 270.619C275.223 270.619 275.808 270.523 276.323 270.332C276.838 270.141 277.242 269.874 277.533 269.532C277.825 269.19 277.971 268.796 277.971 268.35C277.971 267.903 277.825 267.511 277.533 267.174C277.242 266.832 276.838 266.568 276.323 266.381C275.808 266.194 275.223 266.103 274.566 266.107ZM276.316 274.146V271.255C275.774 271.396 275.191 271.467 274.566 271.467C273.938 271.467 273.363 271.398 272.844 271.262V274.146H276.316ZM283.07 272.643C283.075 272.055 283.134 271.578 283.248 271.214C283.367 270.849 283.531 270.555 283.74 270.332C283.95 270.109 284.232 269.89 284.588 269.676C284.889 269.493 285.13 269.263 285.312 268.985C285.495 268.703 285.586 268.382 285.586 268.021C285.586 267.721 285.513 267.456 285.367 267.229C285.226 266.996 285.03 266.818 284.779 266.695C284.533 266.568 284.26 266.504 283.959 266.504C283.686 266.504 283.428 266.561 283.187 266.675C282.95 266.784 282.751 266.96 282.592 267.201C282.437 267.438 282.346 267.734 282.318 268.09H281.074C281.097 267.552 281.238 267.085 281.498 266.688C281.758 266.292 282.102 265.989 282.53 265.779C282.959 265.57 283.435 265.465 283.959 265.465C284.52 265.465 285.014 265.579 285.442 265.807C285.871 266.03 286.201 266.34 286.434 266.736C286.671 267.133 286.789 267.579 286.789 268.076C286.789 269.083 286.338 269.863 285.436 270.414C285.144 270.592 284.914 270.776 284.745 270.968C284.581 271.159 284.458 271.387 284.376 271.651C284.299 271.916 284.255 272.246 284.246 272.643V272.711H283.07V272.643ZM283.699 275.582C283.54 275.582 283.392 275.543 283.255 275.466C283.123 275.384 283.016 275.274 282.934 275.138C282.856 275.001 282.82 274.853 282.824 274.693C282.82 274.538 282.856 274.395 282.934 274.263C283.016 274.126 283.123 274.019 283.255 273.941C283.392 273.859 283.54 273.818 283.699 273.818C283.854 273.818 283.998 273.859 284.13 273.941C284.267 274.019 284.374 274.126 284.451 274.263C284.533 274.395 284.574 274.538 284.574 274.693C284.574 274.853 284.533 275.001 284.451 275.138C284.374 275.274 284.267 275.384 284.13 275.466C283.998 275.543 283.854 275.582 283.699 275.582Z" fill="#888882"/>
</g>
<g id="NewTravelGenerateButton" filter="url(#filter0_dd_123_6492)">
<path d="M147.5 313.5C147.5 304.663 154.663 297.5 163.5 297.5H261.5C270.337 297.5 277.5 304.663 277.5 313.5V317.5C277.5 326.337 270.337 333.5 261.5 333.5H163.5C154.663 333.5 147.5 326.337 147.5 317.5V313.5Z" fill="white"/>
<path d="M163.5 297.875H261.5C270.129 297.875 277.125 304.871 277.125 313.5V317.5C277.125 326.129 270.129 333.125 261.5 333.125H163.5C154.871 333.125 147.875 326.129 147.875 317.5V313.5C147.875 304.871 154.871 297.875 163.5 297.875Z" stroke="#E2DDD5" stroke-width="0.75"/>
<g id="Frame 144">
<path d="M163.5 298H261.5C270.06 298 277 304.94 277 313.5V317.5C277 326.06 270.06 333 261.5 333H163.5C154.94 333 148 326.06 148 317.5V313.5C148 304.94 154.94 298 163.5 298Z" fill="#4A7C59"/>
<path d="M163.5 298H261.5C270.06 298 277 304.94 277 313.5V317.5C277 326.06 270.06 333 261.5 333H163.5C154.94 333 148 326.06 148 317.5V313.5C148 304.94 154.94 298 163.5 298Z" stroke="#3B6347"/>
<path id="+ &#236;&#131;&#136; &#236;&#151;&#172;&#237;&#150;&#137; &#235;&#167;&#140;&#235;&#147;&#164;&#234;&#184;&#176;" d="M165.811 316.219H162.858V314.484H165.811V311.531H167.53V314.484H170.498V316.219H167.53V319.172H165.811V316.219ZM179.961 311.938C179.961 312.76 180.057 313.544 180.25 314.289C180.448 315.034 180.753 315.703 181.164 316.297C181.576 316.885 182.096 317.349 182.727 317.688L181.695 319.062C181.076 318.719 180.549 318.253 180.117 317.664C179.69 317.076 179.354 316.393 179.109 315.617C178.844 316.471 178.479 317.229 178.016 317.891C177.557 318.547 177.008 319.068 176.367 319.453L175.258 318.188C175.924 317.797 176.484 317.276 176.937 316.625C177.391 315.974 177.727 315.255 177.945 314.469C178.164 313.682 178.273 312.875 178.273 312.047V309.516H179.961V311.938ZM187.68 322.391H186.008V315.234H184.555V321.703H182.914V308.516H184.555V313.828H186.008V308.266H187.68V322.391ZM196.377 309.297C197.012 309.297 197.585 309.466 198.095 309.805C198.611 310.143 199.028 310.625 199.345 311.25H202.642V308.266H204.361V322.406H202.642V317.062H199.47C199.163 317.766 198.741 318.312 198.205 318.703C197.668 319.089 197.059 319.281 196.377 319.281C195.668 319.281 195.041 319.078 194.494 318.672C193.947 318.266 193.52 317.685 193.212 316.93C192.905 316.174 192.752 315.292 192.752 314.281C192.752 313.281 192.905 312.406 193.212 311.656C193.52 310.901 193.947 310.32 194.494 309.914C195.046 309.503 195.673 309.297 196.377 309.297ZM196.377 310.859C195.986 310.859 195.642 310.997 195.345 311.273C195.048 311.544 194.819 311.938 194.658 312.453C194.496 312.964 194.418 313.573 194.423 314.281C194.418 314.995 194.496 315.609 194.658 316.125C194.819 316.641 195.048 317.036 195.345 317.312C195.642 317.583 195.986 317.719 196.377 317.719C196.767 317.719 197.108 317.583 197.4 317.312C197.697 317.036 197.926 316.641 198.087 316.125C198.254 315.609 198.34 314.995 198.345 314.281C198.34 313.573 198.254 312.961 198.087 312.445C197.926 311.93 197.697 311.536 197.4 311.266C197.108 310.995 196.767 310.859 196.377 310.859ZM199.83 312.672C199.934 313.177 199.986 313.714 199.986 314.281C199.986 314.75 199.949 315.208 199.877 315.656H202.642V312.672H199.83ZM218.123 317.141H216.467V313.297H215.092V316.672H213.467V308.547H215.092V311.891H216.467V308.266H218.123V317.141ZM212.998 311.156H205.967V309.797H208.639V308.391H210.358V309.797H212.998V311.156ZM209.498 311.734C210.092 311.734 210.621 311.836 211.084 312.039C211.548 312.242 211.91 312.529 212.17 312.898C212.436 313.263 212.571 313.688 212.577 314.172C212.571 314.656 212.436 315.083 212.17 315.453C211.91 315.818 211.548 316.102 211.084 316.305C210.621 316.508 210.092 316.609 209.498 316.609C208.915 316.609 208.392 316.508 207.928 316.305C207.465 316.102 207.103 315.815 206.842 315.445C206.587 315.076 206.462 314.651 206.467 314.172C206.462 313.693 206.587 313.268 206.842 312.898C207.103 312.529 207.465 312.242 207.928 312.039C208.392 311.836 208.915 311.734 209.498 311.734ZM209.498 312.984C209.056 312.984 208.696 313.091 208.42 313.305C208.149 313.518 208.014 313.807 208.014 314.172C208.014 314.536 208.149 314.826 208.42 315.039C208.691 315.253 209.051 315.359 209.498 315.359C209.946 315.359 210.308 315.253 210.584 315.039C210.86 314.826 210.998 314.536 210.998 314.172C210.998 313.807 210.86 313.518 210.584 313.305C210.308 313.091 209.946 312.984 209.498 312.984ZM213.358 317.312C214.363 317.312 215.228 317.411 215.952 317.609C216.676 317.807 217.23 318.099 217.616 318.484C218.001 318.865 218.196 319.323 218.202 319.859C218.196 320.385 217.998 320.836 217.608 321.211C217.222 321.591 216.668 321.88 215.944 322.078C215.22 322.276 214.358 322.375 213.358 322.375C212.358 322.375 211.493 322.276 210.764 322.078C210.04 321.88 209.483 321.591 209.092 321.211C208.707 320.836 208.514 320.385 208.514 319.859C208.514 319.323 208.707 318.865 209.092 318.484C209.483 318.099 210.04 317.807 210.764 317.609C211.488 317.411 212.353 317.312 213.358 317.312ZM213.358 318.641C212.342 318.63 211.569 318.729 211.037 318.938C210.511 319.141 210.248 319.448 210.248 319.859C210.248 320.25 210.514 320.547 211.045 320.75C211.577 320.948 212.347 321.047 213.358 321.047C214.363 321.047 215.129 320.948 215.655 320.75C216.186 320.547 216.452 320.25 216.452 319.859C216.452 319.448 216.186 319.141 215.655 318.938C215.129 318.729 214.363 318.63 213.358 318.641ZM230.242 316.156H223.555V309.484H230.242V316.156ZM225.258 314.781H228.539V310.875H225.258V314.781ZM234.211 312.406H236.18V313.859H234.211V318.578H232.477V308.266H234.211V312.406ZM234.773 322.109H225.164V317.578H226.898V320.703H234.773V322.109ZM249.489 315.297H236.598V313.922H249.489V315.297ZM247.958 313.016H238.239V308.625H247.833V310.016H239.973V311.641H247.958V313.016ZM247.864 319.812H239.833V320.891H248.255V322.25H238.13V318.562H246.161V317.578H238.114V316.266H247.864V319.812ZM261.923 322.391H260.173V308.266H261.923V322.391ZM257.705 309.766C257.705 312.01 257.197 313.982 256.181 315.68C255.166 317.372 253.481 318.776 251.127 319.891L250.22 318.5C252.038 317.635 253.405 316.602 254.322 315.398C255.244 314.19 255.783 312.771 255.939 311.141H250.939V309.766H257.705Z" fill="#FAFAF7"/>
</g>
</g>
</g>
<g id="BottomNavigation" filter="url(#filter1_dd_123_6492)">
<mask id="path-7-outside-1_123_6492" maskUnits="userSpaceOnUse" x="16" y="565" width="393" height="73" fill="black">
<rect fill="white" x="16" y="565" width="393" height="73"/>
<path d="M16 566H409V638H16V566Z"/>
</mask>
<path d="M16 566H409V638H16V566Z" fill="#FAFAF7"/>
<path d="M16 566V567H409V566V565H16V566Z" fill="#E2DDD5" mask="url(#path-7-outside-1_123_6492)"/>
<g id="LightMode-Home">
<g id="Icon">
<path id="Vector" d="M66.9863 600.999V593.001C66.9863 592.736 66.8809 592.481 66.6934 592.294C66.5059 592.106 66.2516 592.001 65.9864 592.001H61.9871C61.722 592.001 61.4677 592.106 61.2801 592.294C61.0926 592.481 60.9873 592.736 60.9873 593.001V600.999" stroke="#B0ADA7" stroke-width="1.99965" stroke-linecap="round" stroke-linejoin="round"/>
<path id="Vector_2" d="M54.9883 590.001C54.9882 589.71 55.0516 589.423 55.174 589.159C55.2965 588.895 55.475 588.661 55.6972 588.473L62.6959 582.475C63.0569 582.17 63.5142 582.003 63.9867 582.003C64.4593 582.003 64.9166 582.17 65.2775 582.475L72.2763 588.473C72.4984 588.661 72.677 588.895 72.7994 589.159C72.9218 589.423 72.9852 589.71 72.9852 590.001V598.999C72.9852 599.53 72.7745 600.038 72.3995 600.413C72.0245 600.788 71.5159 600.999 70.9855 600.999H56.9879C56.4576 600.999 55.949 600.788 55.574 600.413C55.199 600.038 54.9883 599.53 54.9883 598.999V590.001Z" stroke="#B0ADA7" stroke-width="1.99965" stroke-linecap="round" stroke-linejoin="round"/>
</g>
<g id="Layout">
<path id="&#237;&#153;&#136;" d="M67.2412 621.805H60.0693V618.828H67.2412V621.805ZM60.9834 621.09H66.3389V619.543H60.9834V621.09ZM67.8506 613.121H59.4014V612.406H63.1982V611.375H64.1123V612.406H67.8506V613.121ZM63.6553 613.543C64.7451 613.551 65.5791 613.68 66.1572 613.93C66.7393 614.176 67.0303 614.539 67.0303 615.02C67.0303 615.473 66.7803 615.822 66.2803 616.068C65.7803 616.314 65.0576 616.455 64.1123 616.49V617.293H68.4014V618.031H58.9092V617.293H63.1982V616.49C62.249 616.455 61.5225 616.314 61.0186 616.068C60.5186 615.822 60.2686 615.473 60.2686 615.02C60.2686 614.539 60.5596 614.176 61.1416 613.93C61.7275 613.68 62.5654 613.551 63.6553 613.543ZM63.6553 614.188C62.8779 614.195 62.2822 614.27 61.8682 614.41C61.4541 614.551 61.249 614.754 61.2529 615.02C61.2451 615.285 61.4521 615.49 61.874 615.635C62.2959 615.779 62.8896 615.852 63.6553 615.852C64.417 615.852 65.0068 615.779 65.4248 615.635C65.8467 615.49 66.0576 615.285 66.0576 615.02C66.0576 614.754 65.8486 614.551 65.4307 614.41C65.0166 614.27 64.4248 614.195 63.6553 614.188Z" fill="#B0ADA7"/>
</g>
</g>
<g id="LightMode-Chat">
<g id="Icon_2">
<path id="Vector_3" d="M147.235 595C147.235 595.531 147.024 596.039 146.649 596.414C146.274 596.789 145.766 597 145.236 597H133.238L129.238 600.999V585.002C129.238 584.472 129.449 583.963 129.824 583.588C130.199 583.213 130.708 583.002 131.238 583.002H145.236C145.766 583.002 146.274 583.213 146.649 583.588C147.024 583.963 147.235 584.472 147.235 585.002V595Z" stroke="#B0ADA7" stroke-width="1.99965" stroke-linecap="round" stroke-linejoin="round"/>
</g>
<g id="Layout_2">
<path id="&#236;&#177;&#132;&#237;&#140;&#133;" d="M131.206 614.727C131.206 615.285 131.298 615.834 131.481 616.373C131.665 616.912 131.929 617.4 132.272 617.838C132.62 618.271 133.026 618.613 133.491 618.863L132.952 619.555C132.444 619.277 132.005 618.887 131.634 618.383C131.263 617.879 130.979 617.307 130.784 616.666C130.593 617.35 130.312 617.963 129.94 618.506C129.569 619.049 129.132 619.469 128.628 619.766L128.077 619.086C128.534 618.82 128.933 618.457 129.272 617.996C129.612 617.531 129.874 617.016 130.058 616.449C130.241 615.879 130.335 615.305 130.339 614.727V614.246H128.323V613.484H130.339V611.914H131.218V613.484H133.21V614.246H131.206V614.727ZM137.112 621.945H136.222V616.531H134.804V621.418H133.925V611.75H134.804V615.746H136.222V611.527H137.112V621.945ZM144.332 613.051H140.265V614.363H144.039V615.113H140.265V616.484C141.449 616.484 142.39 616.467 143.09 616.432C143.789 616.393 144.488 616.316 145.187 616.203L145.281 616.953C144.551 617.07 143.822 617.148 143.096 617.188C142.369 617.227 141.398 617.246 140.183 617.246H139.34V612.301H144.332V613.051ZM147.332 617.996H146.418V611.539H147.332V617.996ZM143.875 618.148C144.594 618.145 145.217 618.217 145.744 618.365C146.271 618.51 146.676 618.725 146.957 619.01C147.238 619.291 147.379 619.629 147.379 620.023C147.379 620.426 147.238 620.768 146.957 621.049C146.676 621.334 146.271 621.551 145.744 621.699C145.221 621.848 144.597 621.922 143.875 621.922C143.137 621.922 142.504 621.848 141.976 621.699C141.449 621.555 141.045 621.34 140.763 621.055C140.486 620.77 140.347 620.426 140.347 620.023C140.347 619.629 140.486 619.291 140.763 619.01C141.045 618.725 141.449 618.51 141.976 618.365C142.508 618.217 143.14 618.145 143.875 618.148ZM143.875 618.875C143.332 618.875 142.863 618.922 142.469 619.016C142.078 619.105 141.779 619.236 141.572 619.408C141.365 619.58 141.262 619.785 141.262 620.023C141.262 620.27 141.365 620.48 141.572 620.656C141.779 620.832 142.078 620.965 142.469 621.055C142.863 621.148 143.332 621.195 143.875 621.195C144.406 621.195 144.867 621.148 145.258 621.055C145.648 620.961 145.949 620.826 146.16 620.65C146.371 620.475 146.476 620.266 146.476 620.023C146.476 619.789 146.371 619.586 146.16 619.414C145.949 619.238 145.646 619.105 145.252 619.016C144.861 618.922 144.402 618.875 143.875 618.875Z" fill="#B0ADA7"/>
</g>
</g>
<g id="LightMode-Plan">
<g id="Icon_3">
<path id="Vector_4" d="M208.493 582.002V586.002" stroke="#B0ADA7" stroke-width="1.99965" stroke-linecap="round" stroke-linejoin="round"/>
<path id="Vector_5" d="M216.491 582.002V586.002" stroke="#B0ADA7" stroke-width="1.99965" stroke-linecap="round" stroke-linejoin="round"/>
<path id="Vector_6" d="M219.49 584.002H205.493C204.388 584.002 203.493 584.898 203.493 586.002V600C203.493 601.104 204.388 601.999 205.493 601.999H219.49C220.595 601.999 221.49 601.104 221.49 600V586.002C221.49 584.898 220.595 584.002 219.49 584.002Z" stroke="#B0ADA7" stroke-width="1.99965" stroke-linecap="round" stroke-linejoin="round"/>
<path id="Vector_7" d="M203.493 590.001H221.49" stroke="#B0ADA7" stroke-width="1.99965" stroke-linecap="round" stroke-linejoin="round"/>
</g>
<g id="Layout_3">
<path id="&#236;&#157;&#188;&#236;&#160;&#149;" d="M205.367 611.914C205.883 611.918 206.344 612.018 206.75 612.213C207.16 612.408 207.48 612.682 207.711 613.033C207.945 613.381 208.062 613.777 208.062 614.223C208.062 614.668 207.945 615.066 207.711 615.418C207.48 615.766 207.16 616.037 206.75 616.232C206.344 616.424 205.883 616.52 205.367 616.52C204.844 616.52 204.377 616.424 203.967 616.232C203.557 616.037 203.236 615.766 203.006 615.418C202.775 615.066 202.66 614.668 202.66 614.223C202.66 613.777 202.775 613.381 203.006 613.033C203.236 612.682 203.557 612.408 203.967 612.213C204.377 612.018 204.844 611.918 205.367 611.914ZM205.367 612.688C205.023 612.688 204.713 612.754 204.436 612.887C204.162 613.016 203.947 613.197 203.791 613.432C203.635 613.662 203.559 613.926 203.562 614.223C203.559 614.523 203.635 614.791 203.791 615.025C203.947 615.26 204.162 615.443 204.436 615.576C204.713 615.705 205.023 615.77 205.367 615.77C205.707 615.77 206.014 615.705 206.287 615.576C206.564 615.443 206.781 615.26 206.938 615.025C207.094 614.791 207.172 614.523 207.172 614.223C207.172 613.926 207.094 613.662 206.938 613.432C206.781 613.197 206.564 613.016 206.287 612.887C206.014 612.754 205.707 612.688 205.367 612.688ZM211.016 616.883H210.102V611.527H211.016V616.883ZM211.016 619.895H205.168V621.066H211.391V621.805H204.266V619.203H210.102V618.125H204.242V617.387H211.016V619.895ZM221.622 617.738H220.696V615.008H218.598V614.246H220.696V611.527H221.622V617.738ZM218.165 618.066C218.887 618.066 219.511 618.143 220.034 618.295C220.557 618.447 220.958 618.668 221.235 618.957C221.516 619.246 221.657 619.594 221.657 620C221.657 620.406 221.516 620.754 221.235 621.043C220.958 621.336 220.557 621.559 220.034 621.711C219.511 621.863 218.887 621.941 218.165 621.945C217.442 621.941 216.819 621.863 216.296 621.711C215.772 621.559 215.37 621.336 215.089 621.043C214.811 620.754 214.673 620.406 214.673 620C214.673 619.594 214.811 619.246 215.089 618.957C215.37 618.668 215.772 618.447 216.296 618.295C216.819 618.143 217.442 618.066 218.165 618.066ZM218.165 618.781C217.637 618.781 217.179 618.83 216.788 618.928C216.397 619.025 216.098 619.166 215.891 619.35C215.684 619.533 215.583 619.75 215.587 620C215.583 620.246 215.684 620.461 215.891 620.645C216.098 620.824 216.397 620.963 216.788 621.061C217.179 621.158 217.637 621.207 218.165 621.207C218.692 621.207 219.149 621.158 219.536 621.061C219.927 620.963 220.225 620.824 220.432 620.645C220.639 620.461 220.743 620.246 220.743 620C220.743 619.75 220.639 619.533 220.432 619.35C220.225 619.166 219.927 619.025 219.536 618.928C219.149 618.83 218.692 618.781 218.165 618.781ZM216.606 613.438C216.606 613.887 216.714 614.322 216.929 614.744C217.143 615.162 217.444 615.535 217.831 615.863C218.221 616.188 218.669 616.438 219.173 616.613L218.692 617.352C218.11 617.141 217.598 616.828 217.157 616.414C216.72 616 216.389 615.521 216.167 614.979C215.94 615.588 215.595 616.127 215.13 616.596C214.669 617.061 214.13 617.41 213.512 617.645L213.032 616.906C213.544 616.719 214.001 616.449 214.403 616.098C214.805 615.742 215.118 615.334 215.341 614.873C215.567 614.412 215.68 613.938 215.68 613.449V613.062H213.325V612.289H218.938V613.062H216.606V613.438Z" fill="#B0ADA7"/>
</g>
</g>
<g id="LightMode-PlanList">
<g id="Icon_4">
<path id="Vector_8" d="M277.751 592.008H277.761" stroke="#B0ADA7" stroke-width="1.99986" stroke-linecap="round" stroke-linejoin="round"/>
<path id="Vector_9" d="M277.751 598.008H277.761" stroke="#B0ADA7" stroke-width="1.99986" stroke-linecap="round" stroke-linejoin="round"/>
<path id="Vector_10" d="M277.751 586.009H277.761" stroke="#B0ADA7" stroke-width="1.99986" stroke-linecap="round" stroke-linejoin="round"/>
<path id="Vector_11" d="M282.75 592.008H295.75" stroke="#B0ADA7" stroke-width="1.99986" stroke-linecap="round" stroke-linejoin="round"/>
<path id="Vector_12" d="M282.75 598.008H295.75" stroke="#B0ADA7" stroke-width="1.99986" stroke-linecap="round" stroke-linejoin="round"/>
<path id="Vector_13" d="M282.75 586.009H295.75" stroke="#B0ADA7" stroke-width="1.99986" stroke-linecap="round" stroke-linejoin="round"/>
</g>
<g id="Layout_4">
<path id="&#236;&#151;&#172;&#237;&#150;&#137;&#235;&#170;&#169;&#235;&#161;&#157;" d="M268.242 612.5H271.53V613.316H268.242V612.5ZM268.242 615.932H271.53V616.748H268.242V615.932ZM266.25 610.916C266.778 610.916 267.246 611.072 267.654 611.384C268.062 611.688 268.378 612.124 268.602 612.692C268.834 613.26 268.95 613.928 268.95 614.696C268.95 615.464 268.834 616.132 268.602 616.7C268.378 617.268 268.062 617.708 267.654 618.02C267.246 618.332 266.778 618.488 266.25 618.488C265.73 618.488 265.262 618.332 264.846 618.02C264.438 617.708 264.118 617.268 263.886 616.7C263.662 616.132 263.55 615.464 263.55 614.696C263.55 613.928 263.662 613.26 263.886 612.692C264.118 612.124 264.438 611.688 264.846 611.384C265.262 611.072 265.73 610.916 266.25 610.916ZM266.25 611.804C265.906 611.804 265.602 611.924 265.338 612.164C265.074 612.396 264.866 612.732 264.714 613.172C264.57 613.604 264.498 614.112 264.498 614.696C264.498 615.28 264.57 615.792 264.714 616.232C264.866 616.664 265.074 617 265.338 617.24C265.602 617.48 265.906 617.6 266.25 617.6C266.602 617.6 266.91 617.48 267.174 617.24C267.438 617 267.642 616.664 267.786 616.232C267.938 615.792 268.014 615.28 268.014 614.696C268.014 614.112 267.938 613.604 267.786 613.172C267.642 612.732 267.438 612.396 267.174 612.164C266.91 611.924 266.602 611.804 266.25 611.804ZM271.302 610.076H272.286V620.948H271.302V610.076ZM282.593 610.076H283.541V616.94H282.593V610.076ZM280.817 613.028H282.869V613.844H280.817V613.028ZM280.265 610.292H281.201V616.556H280.265V610.292ZM274.337 611.372H279.833V612.164H274.337V611.372ZM277.097 612.728C277.553 612.728 277.953 612.804 278.297 612.956C278.649 613.108 278.921 613.324 279.113 613.604C279.313 613.884 279.413 614.212 279.413 614.588C279.413 614.964 279.313 615.292 279.113 615.572C278.921 615.844 278.649 616.056 278.297 616.208C277.953 616.36 277.553 616.436 277.097 616.436C276.649 616.436 276.249 616.36 275.897 616.208C275.545 616.056 275.273 615.844 275.081 615.572C274.889 615.292 274.793 614.964 274.793 614.588C274.793 614.212 274.889 613.884 275.081 613.604C275.273 613.324 275.545 613.108 275.897 612.956C276.249 612.804 276.649 612.728 277.097 612.728ZM277.097 613.472C276.681 613.472 276.341 613.572 276.077 613.772C275.813 613.972 275.681 614.244 275.681 614.588C275.681 614.924 275.809 615.196 276.065 615.404C276.329 615.604 276.673 615.704 277.097 615.704C277.521 615.704 277.861 615.604 278.117 615.404C278.381 615.196 278.513 614.924 278.513 614.588C278.513 614.244 278.381 613.972 278.117 613.772C277.861 613.572 277.521 613.472 277.097 613.472ZM276.605 610.16H277.589V611.828H276.605V610.16ZM279.977 617.132C281.113 617.132 282.001 617.296 282.641 617.624C283.281 617.952 283.601 618.42 283.601 619.028C283.601 619.628 283.281 620.092 282.641 620.42C282.001 620.748 281.113 620.912 279.977 620.912C278.841 620.912 277.953 620.748 277.313 620.42C276.673 620.092 276.353 619.628 276.353 619.028C276.353 618.42 276.673 617.952 277.313 617.624C277.953 617.296 278.841 617.132 279.977 617.132ZM279.977 617.9C279.145 617.9 278.497 617.996 278.033 618.188C277.569 618.38 277.337 618.66 277.337 619.028C277.337 619.388 277.569 619.664 278.033 619.856C278.497 620.048 279.145 620.144 279.977 620.144C280.801 620.144 281.445 620.048 281.909 619.856C282.373 619.664 282.605 619.388 282.605 619.028C282.605 618.66 282.373 618.38 281.909 618.188C281.445 617.996 280.801 617.9 279.977 617.9ZM286.696 610.532H293.98V614.216H286.696V610.532ZM293.008 611.324H287.668V613.412H293.008V611.324ZM285.436 615.572H295.24V616.388H285.436V615.572ZM289.84 614.012H290.836V615.884H289.84V614.012ZM286.528 617.504H294.028V620.936H293.032V618.308H286.528V617.504ZM296.463 616.052H306.303V616.868H296.463V616.052ZM297.711 610.352H305.043V612.992H298.719V614.444H297.735V612.248H304.059V611.144H297.711V610.352ZM297.735 614.12H305.271V614.912H297.735V614.12ZM300.891 614.528H301.875V616.448H300.891V614.528ZM297.567 617.696H305.103V620.828H304.107V618.5H297.567V617.696Z" fill="#B0ADA7"/>
</g>
</g>
<g id="LightMode-Setting">
<g id="Icon_5">
<path id="Vector_14" d="M361.226 582.002H360.786C360.256 582.002 359.747 582.213 359.372 582.588C358.997 582.963 358.787 583.472 358.787 584.002V584.182C358.786 584.533 358.694 584.877 358.518 585.181C358.343 585.484 358.09 585.736 357.787 585.912L357.357 586.162C357.053 586.337 356.708 586.43 356.357 586.43C356.006 586.43 355.661 586.337 355.357 586.162L355.207 586.082C354.748 585.817 354.203 585.745 353.692 585.882C353.18 586.019 352.743 586.353 352.478 586.812L352.258 587.192C351.993 587.65 351.921 588.196 352.058 588.707C352.195 589.219 352.529 589.656 352.988 589.921L353.138 590.021C353.44 590.196 353.691 590.446 353.867 590.748C354.042 591.049 354.135 591.392 354.137 591.741V592.251C354.139 592.603 354.047 592.949 353.872 593.255C353.696 593.561 353.443 593.814 353.138 593.99L352.988 594.08C352.529 594.346 352.195 594.782 352.058 595.294C351.921 595.806 351.993 596.351 352.258 596.81L352.478 597.19C352.743 597.648 353.18 597.982 353.692 598.119C354.203 598.256 354.748 598.184 355.207 597.92L355.357 597.84C355.661 597.664 356.006 597.572 356.357 597.572C356.708 597.572 357.053 597.664 357.357 597.84L357.787 598.09C358.09 598.265 358.343 598.517 358.518 598.821C358.694 599.124 358.786 599.469 358.787 599.819V599.999C358.787 600.53 358.997 601.038 359.372 601.413C359.747 601.788 360.256 601.999 360.786 601.999H361.226C361.757 601.999 362.265 601.788 362.64 601.413C363.015 601.038 363.226 600.53 363.226 599.999V599.819C363.226 599.469 363.319 599.124 363.494 598.821C363.67 598.517 363.922 598.265 364.226 598.09L364.656 597.84C364.96 597.664 365.304 597.572 365.655 597.572C366.006 597.572 366.351 597.664 366.655 597.84L366.805 597.92C367.264 598.184 367.809 598.256 368.321 598.119C368.833 597.982 369.269 597.648 369.535 597.19L369.755 596.8C370.019 596.341 370.091 595.796 369.954 595.284C369.818 594.772 369.483 594.336 369.025 594.07L368.875 593.99C368.57 593.814 368.317 593.561 368.141 593.255C367.965 592.949 367.874 592.603 367.875 592.251V591.751C367.874 591.398 367.965 591.052 368.141 590.746C368.317 590.441 368.57 590.187 368.875 590.011L369.025 589.921C369.483 589.656 369.818 589.219 369.954 588.707C370.091 588.196 370.019 587.65 369.755 587.192L369.535 586.812C369.269 586.353 368.833 586.019 368.321 585.882C367.809 585.745 367.264 585.817 366.805 586.082L366.655 586.162C366.351 586.337 366.006 586.43 365.655 586.43C365.304 586.43 364.96 586.337 364.656 586.162L364.226 585.912C363.922 585.736 363.67 585.484 363.494 585.181C363.319 584.877 363.226 584.533 363.226 584.182V584.002C363.226 583.472 363.015 582.963 362.64 582.588C362.265 582.213 361.757 582.002 361.226 582.002Z" stroke="#6A9E7A" stroke-width="1.99965" stroke-linecap="round" stroke-linejoin="round"/>
<path id="Vector_15" d="M361.006 595C362.663 595 364.006 593.658 364.006 592.001C364.006 590.344 362.663 589.001 361.006 589.001C359.35 589.001 358.007 590.344 358.007 592.001C358.007 593.658 359.35 595 361.006 595Z" stroke="#6A9E7A" stroke-width="1.99965" stroke-linecap="round" stroke-linejoin="round"/>
</g>
<g id="Layout_5">
<path id="&#236;&#132;&#164;&#236;&#160;&#149;" d="M359.565 616.918H358.64V614.211H356.319V613.449H358.64V611.527H359.565V616.918ZM359.565 619.93H353.741V621.066H359.952V621.805H352.839V619.227H358.651V618.184H352.815V617.445H359.565V619.93ZM354.479 612.852C354.476 613.301 354.583 613.732 354.802 614.146C355.021 614.561 355.327 614.926 355.722 615.242C356.116 615.559 356.565 615.801 357.069 615.969L356.577 616.684C355.999 616.477 355.489 616.176 355.048 615.781C354.606 615.387 354.271 614.928 354.04 614.404C353.821 614.994 353.485 615.51 353.032 615.951C352.579 616.389 352.042 616.719 351.421 616.941L350.917 616.203C351.437 616.031 351.896 615.779 352.294 615.447C352.696 615.111 353.009 614.721 353.231 614.275C353.458 613.826 353.573 613.352 353.577 612.852V611.867H354.479V612.852ZM370.137 617.738H369.211V615.008H367.113V614.246H369.211V611.527H370.137V617.738ZM366.679 618.066C367.402 618.066 368.025 618.143 368.549 618.295C369.072 618.447 369.472 618.668 369.75 618.957C370.031 619.246 370.172 619.594 370.172 620C370.172 620.406 370.031 620.754 369.75 621.043C369.472 621.336 369.072 621.559 368.549 621.711C368.025 621.863 367.402 621.941 366.679 621.945C365.957 621.941 365.334 621.863 364.81 621.711C364.287 621.559 363.885 621.336 363.603 621.043C363.326 620.754 363.187 620.406 363.187 620C363.187 619.594 363.326 619.246 363.603 618.957C363.885 618.668 364.287 618.447 364.81 618.295C365.334 618.143 365.957 618.066 366.679 618.066ZM366.679 618.781C366.152 618.781 365.693 618.83 365.303 618.928C364.912 619.025 364.613 619.166 364.406 619.35C364.199 619.533 364.097 619.75 364.101 620C364.097 620.246 364.199 620.461 364.406 620.645C364.613 620.824 364.912 620.963 365.303 621.061C365.693 621.158 366.152 621.207 366.679 621.207C367.207 621.207 367.664 621.158 368.051 621.061C368.441 620.963 368.74 620.824 368.947 620.645C369.154 620.461 369.258 620.246 369.258 620C369.258 619.75 369.154 619.533 368.947 619.35C368.74 619.166 368.441 619.025 368.051 618.928C367.664 618.83 367.207 618.781 366.679 618.781ZM365.121 613.438C365.121 613.887 365.228 614.322 365.443 614.744C365.658 615.162 365.959 615.535 366.346 615.863C366.736 616.188 367.183 616.438 367.687 616.613L367.207 617.352C366.625 617.141 366.113 616.828 365.672 616.414C365.234 616 364.904 615.521 364.681 614.979C364.455 615.588 364.109 616.127 363.644 616.596C363.183 617.061 362.644 617.41 362.027 617.645L361.547 616.906C362.058 616.719 362.515 616.449 362.918 616.098C363.32 615.742 363.633 615.334 363.855 614.873C364.082 614.412 364.195 613.938 364.195 613.449V613.062H361.84V612.289H367.453V613.062H365.121V613.438Z" fill="#6A9E7A"/>
</g>
</g>
</g>
</g>
<defs>
<filter id="filter0_dd_123_6492" x="139.5" y="291.5" width="146" height="52" filterUnits="userSpaceOnUse" color-interpolation-filters="sRGB">
<feFlood flood-opacity="0" result="BackgroundImageFix"/>
<feColorMatrix in="SourceAlpha" type="matrix" values="0 0 0 0 0 0 0 0 0 0 0 0 0 0 0 0 0 0 127 0" result="hardAlpha"/>
<feOffset dy="2"/>
<feGaussianBlur stdDeviation="4"/>
<feColorMatrix type="matrix" values="0 0 0 0 0.118 0 0 0 0 0.157 0 0 0 0 0.133 0 0 0 0.09 0"/>
<feBlend mode="normal" in2="BackgroundImageFix" result="effect1_dropShadow_123_6492"/>
<feColorMatrix in="SourceAlpha" type="matrix" values="0 0 0 0 0 0 0 0 0 0 0 0 0 0 0 0 0 0 127 0" result="hardAlpha"/>
<feOffset dy="1"/>
<feGaussianBlur stdDeviation="1"/>
<feColorMatrix type="matrix" values="0 0 0 0 0.118 0 0 0 0 0.157 0 0 0 0 0.133 0 0 0 0.04 0"/>
<feBlend mode="normal" in2="effect1_dropShadow_123_6492" result="effect2_dropShadow_123_6492"/>
<feBlend mode="normal" in="SourceGraphic" in2="effect2_dropShadow_123_6492" result="shape"/>
</filter>
<filter id="filter1_dd_123_6492" x="0" y="553" width="425" height="105" filterUnits="userSpaceOnUse" color-interpolation-filters="sRGB">
<feFlood flood-opacity="0" result="BackgroundImageFix"/>
<feColorMatrix in="SourceAlpha" type="matrix" values="0 0 0 0 0 0 0 0 0 0 0 0 0 0 0 0 0 0 127 0" result="hardAlpha"/>
<feOffset dy="4"/>
<feGaussianBlur stdDeviation="8"/>
<feColorMatrix type="matrix" values="0 0 0 0 0.118 0 0 0 0 0.157 0 0 0 0 0.133 0 0 0 0.12 0"/>
<feBlend mode="normal" in2="BackgroundImageFix" result="effect1_dropShadow_123_6492"/>
<feColorMatrix in="SourceAlpha" type="matrix" values="0 0 0 0 0 0 0 0 0 0 0 0 0 0 0 0 0 0 127 0" result="hardAlpha"/>
<feOffset dy="1"/>
<feGaussianBlur stdDeviation="2"/>
<feColorMatrix type="matrix" values="0 0 0 0 0.118 0 0 0 0 0.157 0 0 0 0 0.133 0 0 0 0.06 0"/>
<feBlend mode="normal" in2="effect1_dropShadow_123_6492" result="effect2_dropShadow_123_6492"/>
<feBlend mode="normal" in="SourceGraphic" in2="effect2_dropShadow_123_6492" result="shape"/>
</filter>
</defs>
</svg>
