<svg width="425" height="657" viewBox="0 0 425 657" fill="none" xmlns="http://www.w3.org/2000/svg">
<g id="PlanScreen-Non">
<rect width="393" height="637" transform="translate(16)" fill="white"/>
<g id="Main Content">
<rect width="393" height="565" transform="translate(16)" fill="#1C2120"/>
<g id="Frame 82">
<path id="&#236;&#152;&#164;&#235;&#138;&#152;&#236;&#157;&#128; &#236;&#151;&#172;&#237;&#150;&#137; &#236;&#157;&#188;&#236;&#160;&#149;&#236;&#157;&#180; &#236;&#151;&#134;&#236;&#150;&#180;&#236;&#154;&#148;" d="M118.133 236.441C119.402 236.441 120.545 236.643 121.561 237.047C122.576 237.451 123.374 238.023 123.953 238.766C124.533 239.501 124.826 240.348 124.832 241.305C124.826 242.177 124.591 242.958 124.129 243.648C123.667 244.339 123.022 244.898 122.195 245.328C121.375 245.751 120.431 246.025 119.363 246.148V249.176H126.297V251.227H110.027V249.176H116.883V246.139C115.822 246.021 114.881 245.748 114.061 245.318C113.24 244.889 112.599 244.332 112.137 243.648C111.681 242.958 111.453 242.177 111.453 241.305C111.453 240.348 111.74 239.501 112.312 238.766C112.892 238.023 113.689 237.451 114.705 237.047C115.721 236.643 116.863 236.441 118.133 236.441ZM118.133 238.434C117.306 238.434 116.574 238.551 115.936 238.785C115.298 239.013 114.799 239.345 114.441 239.781C114.09 240.217 113.914 240.725 113.914 241.305C113.914 241.917 114.09 242.444 114.441 242.887C114.799 243.323 115.294 243.658 115.926 243.893C116.564 244.12 117.299 244.234 118.133 244.234C118.973 244.234 119.708 244.12 120.34 243.893C120.978 243.665 121.473 243.329 121.824 242.887C122.182 242.444 122.365 241.917 122.371 241.305C122.365 240.719 122.182 240.211 121.824 239.781C121.473 239.345 120.978 239.013 120.34 238.785C119.702 238.551 118.966 238.434 118.133 238.434ZM141.388 241.09H129.024V235.738H131.505V239.117H141.388V241.09ZM143.263 244.254H126.993V242.281H143.263V244.254ZM141.309 250.055H131.388V251.188H141.856V253.102H128.888V248.258H138.829V247.242H128.848V245.328H141.309V250.055ZM160.209 246.598H143.998V244.605H160.209V246.598ZM158.373 252.984H145.951V247.789H148.451V250.992H158.373V252.984ZM152.103 236.07C153.392 236.064 154.522 236.207 155.492 236.5C156.468 236.793 157.224 237.213 157.757 237.76C158.291 238.307 158.561 238.954 158.568 239.703C158.561 240.452 158.291 241.103 157.757 241.656C157.224 242.21 156.468 242.636 155.492 242.936C154.522 243.229 153.392 243.375 152.103 243.375C150.801 243.375 149.662 243.229 148.685 242.936C147.709 242.636 146.953 242.21 146.42 241.656C145.886 241.103 145.619 240.452 145.619 239.703C145.619 238.954 145.886 238.307 146.42 237.76C146.953 237.213 147.709 236.793 148.685 236.5C149.662 236.207 150.801 236.064 152.103 236.07ZM152.103 238.023C150.86 238.036 149.899 238.186 149.222 238.473C148.545 238.759 148.21 239.169 148.216 239.703C148.21 240.25 148.542 240.663 149.213 240.943C149.89 241.223 150.853 241.363 152.103 241.363C153.353 241.363 154.313 241.223 154.984 240.943C155.655 240.663 155.99 240.25 155.99 239.703C155.99 239.169 155.651 238.759 154.974 238.473C154.297 238.186 153.34 238.036 152.103 238.023ZM170.195 236.773C170.989 236.773 171.705 236.982 172.343 237.398C172.987 237.815 173.515 238.408 173.925 239.176H177.831V235.523H180.292V253.336H177.831V246.676H174.111C173.713 247.561 173.173 248.245 172.489 248.727C171.812 249.208 171.047 249.449 170.195 249.449C169.296 249.449 168.495 249.192 167.792 248.678C167.096 248.157 166.552 247.418 166.161 246.461C165.771 245.497 165.579 244.378 165.585 243.102C165.579 241.832 165.771 240.722 166.161 239.771C166.552 238.814 167.096 238.076 167.792 237.555C168.495 237.034 169.296 236.773 170.195 236.773ZM170.195 239.02C169.752 239.02 169.361 239.179 169.023 239.498C168.684 239.811 168.42 240.276 168.232 240.895C168.049 241.507 167.961 242.242 167.968 243.102C167.961 243.967 168.049 244.706 168.232 245.318C168.42 245.93 168.681 246.396 169.013 246.715C169.351 247.027 169.745 247.184 170.195 247.184C170.644 247.184 171.034 247.027 171.366 246.715C171.705 246.402 171.965 245.94 172.148 245.328C172.33 244.716 172.421 243.974 172.421 243.102C172.421 242.236 172.33 241.497 172.148 240.885C171.965 240.273 171.705 239.811 171.366 239.498C171.034 239.179 170.644 239.02 170.195 239.02ZM174.618 241.188C174.742 241.806 174.804 242.444 174.804 243.102C174.804 243.59 174.765 244.117 174.687 244.684H177.831V241.188H174.618ZM197.551 246.676H195.188V241.949H193.762V246.09H191.438V235.855H193.762V239.918H195.188V235.523H197.551V246.676ZM190.91 239.293H182.18V237.359H185.324V235.68H187.805V237.359H190.91V239.293ZM186.574 239.879C187.323 239.879 187.99 240.009 188.576 240.27C189.162 240.53 189.621 240.895 189.953 241.363C190.285 241.832 190.454 242.372 190.461 242.984C190.454 243.59 190.285 244.127 189.953 244.596C189.621 245.058 189.162 245.419 188.576 245.68C187.99 245.94 187.323 246.07 186.574 246.07C185.839 246.07 185.178 245.94 184.592 245.68C184.006 245.419 183.547 245.058 183.215 244.596C182.889 244.127 182.727 243.59 182.727 242.984C182.727 242.379 182.889 241.842 183.215 241.373C183.547 240.898 184.006 240.53 184.592 240.27C185.178 240.009 185.839 239.879 186.574 239.879ZM186.574 241.676C186.079 241.676 185.686 241.793 185.393 242.027C185.1 242.262 184.953 242.581 184.953 242.984C184.953 243.395 185.1 243.72 185.393 243.961C185.692 244.195 186.086 244.306 186.574 244.293C187.062 244.306 187.456 244.195 187.756 243.961C188.055 243.72 188.208 243.395 188.215 242.984C188.208 242.574 188.055 242.255 187.756 242.027C187.463 241.793 187.069 241.676 186.574 241.676ZM191.477 246.832C192.759 246.832 193.859 246.959 194.777 247.213C195.702 247.467 196.408 247.838 196.896 248.326C197.391 248.808 197.642 249.391 197.648 250.074C197.642 250.751 197.391 251.331 196.896 251.812C196.408 252.294 195.702 252.662 194.777 252.916C193.853 253.17 192.753 253.297 191.477 253.297C190.201 253.297 189.1 253.17 188.176 252.916C187.258 252.662 186.551 252.294 186.057 251.812C185.568 251.331 185.324 250.751 185.324 250.074C185.324 249.391 185.568 248.808 186.057 248.326C186.551 247.838 187.258 247.467 188.176 247.213C189.1 246.959 190.201 246.832 191.477 246.832ZM191.477 248.707C189.022 248.707 187.805 249.163 187.824 250.074C187.818 250.523 188.124 250.862 188.742 251.09C189.361 251.311 190.272 251.422 191.477 251.422C193.911 251.422 195.129 250.973 195.129 250.074C195.129 249.612 194.826 249.27 194.221 249.049C193.615 248.821 192.701 248.707 191.477 248.707ZM208.63 236.051C209.522 236.051 210.33 236.223 211.052 236.568C211.775 236.913 212.341 237.395 212.752 238.014C213.168 238.632 213.377 239.332 213.377 240.113C213.377 240.882 213.168 241.575 212.752 242.193C212.341 242.805 211.775 243.287 211.052 243.639C210.33 243.984 209.522 244.156 208.63 244.156C207.726 244.156 206.908 243.984 206.179 243.639C205.45 243.287 204.877 242.805 204.461 242.193C204.05 241.575 203.845 240.882 203.845 240.113C203.845 239.332 204.05 238.632 204.461 238.014C204.877 237.395 205.447 236.913 206.17 236.568C206.899 236.223 207.719 236.051 208.63 236.051ZM208.63 238.082C208.175 238.082 207.765 238.163 207.4 238.326C207.042 238.482 206.762 238.717 206.56 239.029C206.358 239.335 206.261 239.697 206.267 240.113C206.261 240.53 206.358 240.891 206.56 241.197C206.762 241.503 207.042 241.738 207.4 241.9C207.765 242.063 208.175 242.145 208.63 242.145C209.08 242.145 209.48 242.063 209.832 241.9C210.19 241.738 210.47 241.503 210.671 241.197C210.873 240.891 210.974 240.53 210.974 240.113C210.974 239.69 210.873 239.326 210.671 239.02C210.47 238.714 210.19 238.482 209.832 238.326C209.48 238.163 209.08 238.082 208.63 238.082ZM218.455 244.43H215.955V235.523H218.455V244.43ZM218.455 249.996H209.002V251.148H218.943V253.102H206.56V248.18H215.974V247.086H206.521V245.172H218.455V249.996ZM235.537 246.07H233.057V241.871H230.284V239.859H233.057V235.523H235.537V246.07ZM229.463 246.461C230.726 246.467 231.814 246.607 232.725 246.881C233.643 247.148 234.349 247.538 234.844 248.053C235.339 248.567 235.59 249.182 235.596 249.898C235.59 250.608 235.339 251.22 234.844 251.734C234.349 252.249 233.643 252.639 232.725 252.906C231.807 253.18 230.72 253.316 229.463 253.316C228.207 253.316 227.12 253.18 226.202 252.906C225.284 252.639 224.577 252.249 224.082 251.734C223.594 251.22 223.35 250.608 223.35 249.898C223.35 249.182 223.594 248.567 224.082 248.053C224.577 247.538 225.28 247.148 226.192 246.881C227.11 246.607 228.2 246.467 229.463 246.461ZM229.463 248.375C227.041 248.375 225.83 248.883 225.83 249.898C225.83 250.406 226.136 250.787 226.748 251.041C227.367 251.295 228.272 251.422 229.463 251.422C230.655 251.422 231.56 251.295 232.178 251.041C232.803 250.781 233.116 250.4 233.116 249.898C233.116 248.883 231.898 248.375 229.463 248.375ZM230.811 238.59H227.276C227.295 239.306 227.455 239.996 227.754 240.66C228.06 241.318 228.513 241.91 229.112 242.438C229.717 242.965 230.466 243.375 231.358 243.668L230.127 245.621C229.177 245.315 228.357 244.859 227.666 244.254C226.983 243.642 226.442 242.923 226.045 242.096C225.635 243.033 225.069 243.847 224.346 244.537C223.623 245.221 222.751 245.738 221.729 246.09L220.44 244.117C221.377 243.805 222.162 243.362 222.793 242.789C223.431 242.21 223.907 241.559 224.219 240.836C224.538 240.113 224.711 239.365 224.737 238.59H221.162V236.598H230.811V238.59ZM252.425 253.336H249.905V235.523H252.425V253.336ZM242.777 236.773C243.668 236.773 244.466 237.034 245.169 237.555C245.879 238.076 246.435 238.814 246.839 239.771C247.243 240.729 247.445 241.839 247.445 243.102C247.445 244.378 247.243 245.497 246.839 246.461C246.435 247.418 245.879 248.157 245.169 248.678C244.466 249.192 243.668 249.449 242.777 249.449C241.865 249.449 241.051 249.192 240.335 248.678C239.619 248.157 239.059 247.418 238.655 246.461C238.258 245.497 238.063 244.378 238.07 243.102C238.063 241.839 238.258 240.729 238.655 239.771C239.059 238.814 239.619 238.076 240.335 237.555C241.051 237.034 241.865 236.773 242.777 236.773ZM242.777 239.02C242.314 239.02 241.907 239.179 241.556 239.498C241.211 239.811 240.944 240.273 240.755 240.885C240.566 241.497 240.472 242.236 240.472 243.102C240.472 243.974 240.566 244.716 240.755 245.328C240.944 245.94 241.211 246.402 241.556 246.715C241.907 247.027 242.314 247.184 242.777 247.184C243.232 247.184 243.629 247.027 243.968 246.715C244.307 246.396 244.57 245.93 244.759 245.318C244.948 244.706 245.042 243.967 245.042 243.102C245.042 242.242 244.948 241.507 244.759 240.895C244.57 240.276 244.303 239.811 243.958 239.498C243.62 239.179 243.226 239.02 242.777 239.02ZM263.114 247.691H265.028V245.914H267.333V251.314C268.27 250.891 268.973 250.309 269.442 249.566C269.911 248.818 270.145 248.01 270.145 247.145V245.777H272.645V247.145C272.632 248.115 272.88 248.98 273.387 249.742C273.895 250.504 274.677 251.057 275.731 251.402L274.442 253.258C273.003 252.763 271.975 251.826 271.356 250.445C271.044 251.09 270.637 251.653 270.136 252.135C269.634 252.617 269.039 252.991 268.348 253.258L267.333 251.725V253.102H260.809V245.914H263.114V247.691ZM265.028 251.207V249.527H263.114V251.207H265.028ZM263.798 236.188C264.546 236.188 265.236 236.318 265.868 236.578C266.499 236.839 267.03 237.206 267.46 237.682C267.896 238.157 268.195 238.707 268.358 239.332H271.337V235.523H273.817V244.938H271.337V241.383H268.368C268.212 242.021 267.915 242.581 267.479 243.062C267.05 243.544 266.516 243.919 265.878 244.186C265.24 244.452 264.546 244.586 263.798 244.586C262.893 244.586 262.079 244.407 261.356 244.049C260.64 243.691 260.077 243.193 259.667 242.555C259.263 241.91 259.065 241.181 259.071 240.367C259.065 239.566 259.263 238.85 259.667 238.219C260.077 237.581 260.64 237.083 261.356 236.725C262.079 236.367 262.893 236.188 263.798 236.188ZM263.798 238.238C263.335 238.238 262.922 238.326 262.557 238.502C262.199 238.671 261.919 238.919 261.718 239.244C261.522 239.563 261.428 239.938 261.434 240.367C261.428 240.81 261.522 241.194 261.718 241.52C261.919 241.845 262.199 242.099 262.557 242.281C262.922 242.457 263.335 242.548 263.798 242.555C264.247 242.548 264.647 242.457 264.999 242.281C265.35 242.099 265.624 241.845 265.819 241.52C266.021 241.194 266.122 240.81 266.122 240.367C266.122 239.938 266.021 239.563 265.819 239.244C265.624 238.919 265.35 238.671 264.999 238.502C264.647 238.326 264.247 238.238 263.798 238.238ZM280.724 236.773C281.518 236.773 282.238 236.985 282.882 237.408C283.527 237.825 284.054 238.424 284.464 239.205C284.881 239.98 285.148 240.895 285.265 241.949H288.361V235.523H290.822V253.336H288.361V243.941H285.295C285.21 245.068 284.962 246.048 284.552 246.881C284.142 247.708 283.608 248.342 282.951 248.785C282.293 249.228 281.551 249.449 280.724 249.449C279.826 249.449 279.025 249.192 278.322 248.678C277.625 248.157 277.082 247.418 276.691 246.461C276.3 245.497 276.108 244.378 276.115 243.102C276.108 241.832 276.3 240.722 276.691 239.771C277.082 238.814 277.625 238.076 278.322 237.555C279.025 237.034 279.826 236.773 280.724 236.773ZM280.724 239.02C280.282 239.02 279.891 239.179 279.552 239.498C279.214 239.811 278.95 240.276 278.761 240.895C278.579 241.507 278.491 242.242 278.498 243.102C278.491 243.967 278.579 244.706 278.761 245.318C278.95 245.93 279.211 246.396 279.543 246.715C279.881 247.027 280.275 247.184 280.724 247.184C281.173 247.184 281.564 247.027 281.896 246.715C282.235 246.402 282.495 245.94 282.677 245.328C282.86 244.716 282.951 243.974 282.951 243.102C282.951 242.236 282.86 241.497 282.677 240.885C282.495 240.273 282.235 239.811 281.896 239.498C281.564 239.179 281.173 239.02 280.724 239.02ZM309.077 251.227H292.807V249.176H296.44V244.83C295.737 244.407 295.193 243.886 294.809 243.268C294.425 242.643 294.233 241.943 294.233 241.168C294.233 240.224 294.519 239.391 295.092 238.668C295.665 237.945 296.456 237.385 297.465 236.988C298.481 236.585 299.63 236.383 300.913 236.383C302.189 236.383 303.331 236.585 304.34 236.988C305.356 237.385 306.153 237.945 306.733 238.668C307.312 239.391 307.605 240.224 307.612 241.168C307.605 241.923 307.413 242.61 307.036 243.229C306.664 243.84 306.14 244.358 305.463 244.781V249.176H309.077V251.227ZM300.913 238.355C300.066 238.355 299.324 238.466 298.686 238.688C298.054 238.909 297.563 239.231 297.211 239.654C296.866 240.071 296.694 240.576 296.694 241.168C296.694 241.741 296.866 242.239 297.211 242.662C297.563 243.085 298.058 243.411 298.696 243.639C299.334 243.867 300.073 243.98 300.913 243.98C301.746 243.98 302.482 243.867 303.12 243.639C303.758 243.411 304.252 243.085 304.604 242.662C304.962 242.239 305.144 241.741 305.151 241.168C305.144 240.582 304.965 240.077 304.614 239.654C304.262 239.231 303.767 238.909 303.129 238.688C302.491 238.466 301.752 238.355 300.913 238.355ZM302.944 249.176V245.729C302.273 245.852 301.596 245.914 300.913 245.914C300.183 245.914 299.513 245.852 298.901 245.729V249.176H302.944Z" fill="#E8E4DC"/>
<path id="&#235;&#167;&#136;&#236;&#139;&#164;&#236;&#157;&#132; &#235;&#150;&#160;&#235;&#130;&#160; &#236;&#164;&#128;&#235;&#185;&#132;&#234;&#176;&#128; &#235;&#144;&#144;&#235;&#130;&#152;&#236;&#154;&#148;?" d="M143.604 273.518H137.998V265.684H143.604V273.518ZM139.037 272.643H142.537V266.545H139.037V272.643ZM146.898 269.307H148.936V270.236H146.898V276.607H145.832V264.453H146.898V269.307ZM159.613 270.756H158.561V264.453H159.613V270.756ZM159.627 274.283H152.805V275.596H160.064V276.471H151.752V273.449H158.561V272.232H151.725V271.371H159.627V274.283ZM153.898 265.738C153.894 266.303 154.024 266.841 154.288 267.352C154.552 267.862 154.919 268.311 155.389 268.698C155.863 269.081 156.4 269.37 157.002 269.566L156.469 270.4C155.753 270.159 155.124 269.794 154.582 269.307C154.044 268.814 153.639 268.24 153.365 267.584C153.092 268.29 152.682 268.91 152.135 269.443C151.588 269.977 150.954 270.373 150.234 270.633L149.674 269.785C150.28 269.571 150.82 269.261 151.294 268.855C151.768 268.445 152.137 267.971 152.401 267.434C152.67 266.891 152.805 266.326 152.805 265.738V264.809H153.898V265.738ZM167.229 264.672C168.131 264.672 168.903 264.754 169.546 264.918C170.188 265.077 170.678 265.314 171.016 265.629C171.353 265.939 171.521 266.317 171.521 266.764C171.521 267.447 171.148 267.971 170.4 268.336C169.653 268.701 168.596 268.887 167.229 268.896C166.326 268.892 165.551 268.808 164.904 268.644C164.262 268.479 163.77 268.24 163.428 267.926C163.09 267.607 162.922 267.219 162.922 266.764C162.922 266.317 163.09 265.939 163.428 265.629C163.77 265.314 164.262 265.077 164.904 264.918C165.551 264.754 166.326 264.672 167.229 264.672ZM167.229 265.479C166.559 265.479 165.984 265.531 165.506 265.636C165.027 265.736 164.663 265.884 164.412 266.08C164.161 266.271 164.038 266.499 164.043 266.764C164.038 267.183 164.314 267.507 164.87 267.734C165.426 267.962 166.212 268.076 167.229 268.076C168.24 268.076 169.026 267.962 169.587 267.734C170.147 267.507 170.428 267.183 170.428 266.764C170.428 266.499 170.3 266.271 170.045 266.08C169.79 265.889 169.423 265.741 168.944 265.636C168.466 265.531 167.894 265.479 167.229 265.479ZM172.766 270.592H161.691V269.717H172.766V270.592ZM171.344 274.365H164.125V275.623H171.713V276.471H163.059V273.572H170.291V272.465H163.031V271.645H171.344V274.365ZM180.695 266.572H178.74V272.567C179.483 272.549 180.153 272.469 180.75 272.328L180.887 273.23C180.417 273.335 179.975 273.404 179.561 273.436C179.15 273.463 178.695 273.477 178.193 273.477H177.688V265.684H180.695V266.572ZM184.688 266.572H182.445V272.574C183.006 272.565 183.496 272.542 183.915 272.506C184.339 272.465 184.765 272.392 185.193 272.287L185.303 273.176C184.779 273.303 184.275 273.385 183.792 273.422C183.309 273.458 182.705 273.477 181.98 273.477H181.365V265.684H184.688V266.572ZM187.518 276.607H186.438V269.799H184.086V268.924H186.438V264.453H187.518V276.607ZM198.906 266.996H200.738V267.898H198.906V270.592H197.84V264.453H198.906V266.996ZM191.072 269.074C191.997 269.079 192.909 269.042 193.807 268.965C194.704 268.883 195.62 268.746 196.555 268.555L196.691 269.457C195.707 269.658 194.752 269.799 193.827 269.881C192.907 269.963 191.952 270.004 190.963 270.004H189.992V265H191.072V269.074ZM198.906 274.146H192.248V275.568H199.357V276.443H191.182V273.299H197.84V272.041H191.154V271.18H198.906V274.146ZM211.252 265.971C211.247 266.449 211.441 266.9 211.833 267.324C212.225 267.743 212.742 268.099 213.385 268.391C214.027 268.682 214.711 268.878 215.436 268.979L215.012 269.826C214.351 269.73 213.72 269.562 213.118 269.32C212.521 269.074 211.997 268.764 211.546 268.391C211.099 268.017 210.769 267.6 210.555 267.14C210.34 267.6 210.01 268.017 209.563 268.391C209.117 268.764 208.593 269.074 207.991 269.32C207.394 269.562 206.763 269.73 206.098 269.826L205.701 268.979C206.426 268.878 207.105 268.685 207.738 268.397C208.376 268.106 208.889 267.748 209.276 267.324C209.664 266.9 209.857 266.449 209.857 265.971V265.943H206.029V265.068H215.107V265.943H211.252V265.971ZM216.133 271.604H211.184V274.092H210.117V271.604H205.004V270.715H216.133V271.604ZM214.889 276.348H206.426V272.875H207.506V275.445H214.889V276.348ZM227.139 276.635H226.059V264.453H227.139V276.635ZM218.895 268.705H222.518V265.492H223.57V273.695H217.828V265.492H218.895V268.705ZM222.518 272.793V269.566H218.895V272.793H222.518ZM238.623 269.402H240.592V270.305H238.623V276.607H237.557V264.453H238.623V269.402ZM235.479 265.766C235.479 267.575 235.025 269.215 234.118 270.688C233.211 272.155 231.805 273.358 229.9 274.297L229.299 273.449C230.862 272.67 232.072 271.708 232.929 270.564C233.785 269.416 234.275 268.117 234.398 266.668H229.859V265.766H235.479ZM245.486 270.646C246.389 270.646 247.086 270.635 247.578 270.612V269.143H245.514V265.219H250.545V266.121H246.566V268.254H250.613V269.143H248.59V270.571C249.561 270.517 250.363 270.441 250.996 270.346L251.051 271.125C250.176 271.289 249.216 271.396 248.173 271.446C247.129 271.496 246.038 271.521 244.898 271.521L244.762 270.646H245.486ZM255.125 271.959H254.1V268.76H252.609V271.891H251.598V264.686H252.609V267.871H254.1V264.453H255.125V271.959ZM249.014 272.793C249.014 273.135 249.08 273.479 249.212 273.825C249.344 274.172 249.54 274.497 249.8 274.803C250.064 275.108 250.383 275.363 250.757 275.568C251.131 275.359 251.45 275.101 251.714 274.796C251.978 274.486 252.176 274.158 252.309 273.812C252.445 273.465 252.514 273.126 252.514 272.793V272.479H253.539V272.793C253.539 273.203 253.639 273.602 253.84 273.989C254.04 274.372 254.327 274.712 254.701 275.008C255.079 275.299 255.521 275.518 256.027 275.664L255.521 276.471C254.92 276.275 254.405 275.985 253.977 275.603C253.548 275.224 253.225 274.785 253.006 274.283C252.81 274.794 252.523 275.249 252.145 275.65C251.766 276.056 251.306 276.366 250.764 276.58C250.208 276.37 249.738 276.065 249.355 275.664C248.977 275.263 248.69 274.805 248.494 274.29C248.275 274.791 247.954 275.231 247.53 275.609C247.106 275.988 246.603 276.275 246.02 276.471L245.486 275.664C245.997 275.509 246.439 275.284 246.812 274.987C247.191 274.687 247.48 274.347 247.681 273.969C247.886 273.586 247.988 273.194 247.988 272.793V272.479H249.014V272.793ZM268.305 270.209H266.336V276.607H265.27V264.453H266.336V269.307H268.305V270.209ZM258.502 272.615C259.454 272.611 260.386 272.565 261.298 272.479C262.209 272.392 263.141 272.251 264.094 272.055L264.23 272.971C263.242 273.171 262.273 273.312 261.325 273.395C260.382 273.477 259.409 273.518 258.406 273.518H257.436V265.656H258.502V272.615ZM280.158 275.049H269.029V274.146H271.791V270.865C271.262 270.592 270.852 270.241 270.561 269.812C270.269 269.38 270.123 268.892 270.123 268.35C270.123 267.73 270.312 267.185 270.69 266.716C271.069 266.242 271.593 265.875 272.263 265.615C272.937 265.355 273.705 265.223 274.566 265.219C275.428 265.223 276.193 265.355 276.863 265.615C277.538 265.875 278.064 266.242 278.442 266.716C278.821 267.185 279.01 267.73 279.01 268.35C279.01 268.883 278.868 269.364 278.586 269.792C278.303 270.216 277.907 270.564 277.396 270.838V274.146H280.158V275.049ZM274.566 266.107C273.906 266.103 273.318 266.194 272.803 266.381C272.288 266.568 271.884 266.832 271.593 267.174C271.306 267.511 271.162 267.903 271.162 268.35C271.162 268.796 271.306 269.193 271.593 269.539C271.884 269.881 272.288 270.147 272.803 270.339C273.318 270.526 273.906 270.619 274.566 270.619C275.223 270.619 275.808 270.523 276.323 270.332C276.838 270.141 277.242 269.874 277.533 269.532C277.825 269.19 277.971 268.796 277.971 268.35C277.971 267.903 277.825 267.511 277.533 267.174C277.242 266.832 276.838 266.568 276.323 266.381C275.808 266.194 275.223 266.103 274.566 266.107ZM276.316 274.146V271.255C275.774 271.396 275.191 271.467 274.566 271.467C273.938 271.467 273.363 271.398 272.844 271.262V274.146H276.316ZM283.07 272.643C283.075 272.055 283.134 271.578 283.248 271.214C283.367 270.849 283.531 270.555 283.74 270.332C283.95 270.109 284.232 269.89 284.588 269.676C284.889 269.493 285.13 269.263 285.312 268.985C285.495 268.703 285.586 268.382 285.586 268.021C285.586 267.721 285.513 267.456 285.367 267.229C285.226 266.996 285.03 266.818 284.779 266.695C284.533 266.568 284.26 266.504 283.959 266.504C283.686 266.504 283.428 266.561 283.187 266.675C282.95 266.784 282.751 266.96 282.592 267.201C282.437 267.438 282.346 267.734 282.318 268.09H281.074C281.097 267.552 281.238 267.085 281.498 266.688C281.758 266.292 282.102 265.989 282.53 265.779C282.959 265.57 283.435 265.465 283.959 265.465C284.52 265.465 285.014 265.579 285.442 265.807C285.871 266.03 286.201 266.34 286.434 266.736C286.671 267.133 286.789 267.579 286.789 268.076C286.789 269.083 286.338 269.863 285.436 270.414C285.144 270.592 284.914 270.776 284.745 270.968C284.581 271.159 284.458 271.387 284.376 271.651C284.299 271.916 284.255 272.246 284.246 272.643V272.711H283.07V272.643ZM283.699 275.582C283.54 275.582 283.392 275.543 283.255 275.466C283.123 275.384 283.016 275.274 282.934 275.138C282.856 275.001 282.82 274.853 282.824 274.693C282.82 274.538 282.856 274.395 282.934 274.263C283.016 274.126 283.123 274.019 283.255 273.941C283.392 273.859 283.54 273.818 283.699 273.818C283.854 273.818 283.998 273.859 284.13 273.941C284.267 274.019 284.374 274.126 284.451 274.263C284.533 274.395 284.574 274.538 284.574 274.693C284.574 274.853 284.533 275.001 284.451 275.138C284.374 275.274 284.267 275.384 284.13 275.466C283.998 275.543 283.854 275.582 283.699 275.582Z" fill="#7A7873"/>
</g>
<g id="NewTravelGenerateButton" filter="url(#filter0_dd_123_8862)">
<path d="M163.5 297.875H261.5C270.129 297.875 277.125 304.871 277.125 313.5V317.5C277.125 326.129 270.129 333.125 261.5 333.125H163.5C154.871 333.125 147.875 326.129 147.875 317.5V313.5C147.875 304.871 154.871 297.875 163.5 297.875Z" stroke="#373F3B" stroke-width="0.75"/>
<g id="Frame 143">
<path d="M163.5 298H261.5C270.06 298 277 304.94 277 313.5V317.5C277 326.06 270.06 333 261.5 333H163.5C154.94 333 148 326.06 148 317.5V313.5C148 304.94 154.94 298 163.5 298Z" fill="#5E9E72"/>
<path d="M163.5 298H261.5C270.06 298 277 304.94 277 313.5V317.5C277 326.06 270.06 333 261.5 333H163.5C154.94 333 148 326.06 148 317.5V313.5C148 304.94 154.94 298 163.5 298Z" stroke="#4A7C59"/>
<path id="+ &#236;&#131;&#136; &#236;&#151;&#172;&#237;&#150;&#137; &#235;&#167;&#140;&#235;&#147;&#164;&#234;&#184;&#176;" d="M165.811 316.219H162.858V314.484H165.811V311.531H167.53V314.484H170.498V316.219H167.53V319.172H165.811V316.219ZM179.961 311.938C179.961 312.76 180.057 313.544 180.25 314.289C180.448 315.034 180.753 315.703 181.164 316.297C181.576 316.885 182.096 317.349 182.727 317.688L181.695 319.062C181.076 318.719 180.549 318.253 180.117 317.664C179.69 317.076 179.354 316.393 179.109 315.617C178.844 316.471 178.479 317.229 178.016 317.891C177.557 318.547 177.008 319.068 176.367 319.453L175.258 318.188C175.924 317.797 176.484 317.276 176.937 316.625C177.391 315.974 177.727 315.255 177.945 314.469C178.164 313.682 178.273 312.875 178.273 312.047V309.516H179.961V311.938ZM187.68 322.391H186.008V315.234H184.555V321.703H182.914V308.516H184.555V313.828H186.008V308.266H187.68V322.391ZM196.377 309.297C197.012 309.297 197.585 309.466 198.095 309.805C198.611 310.143 199.028 310.625 199.345 311.25H202.642V308.266H204.361V322.406H202.642V317.062H199.47C199.163 317.766 198.741 318.312 198.205 318.703C197.668 319.089 197.059 319.281 196.377 319.281C195.668 319.281 195.041 319.078 194.494 318.672C193.947 318.266 193.52 317.685 193.212 316.93C192.905 316.174 192.752 315.292 192.752 314.281C192.752 313.281 192.905 312.406 193.212 311.656C193.52 310.901 193.947 310.32 194.494 309.914C195.046 309.503 195.673 309.297 196.377 309.297ZM196.377 310.859C195.986 310.859 195.642 310.997 195.345 311.273C195.048 311.544 194.819 311.938 194.658 312.453C194.496 312.964 194.418 313.573 194.423 314.281C194.418 314.995 194.496 315.609 194.658 316.125C194.819 316.641 195.048 317.036 195.345 317.312C195.642 317.583 195.986 317.719 196.377 317.719C196.767 317.719 197.108 317.583 197.4 317.312C197.697 317.036 197.926 316.641 198.087 316.125C198.254 315.609 198.34 314.995 198.345 314.281C198.34 313.573 198.254 312.961 198.087 312.445C197.926 311.93 197.697 311.536 197.4 311.266C197.108 310.995 196.767 310.859 196.377 310.859ZM199.83 312.672C199.934 313.177 199.986 313.714 199.986 314.281C199.986 314.75 199.949 315.208 199.877 315.656H202.642V312.672H199.83ZM218.123 317.141H216.467V313.297H215.092V316.672H213.467V308.547H215.092V311.891H216.467V308.266H218.123V317.141ZM212.998 311.156H205.967V309.797H208.639V308.391H210.358V309.797H212.998V311.156ZM209.498 311.734C210.092 311.734 210.621 311.836 211.084 312.039C211.548 312.242 211.91 312.529 212.17 312.898C212.436 313.263 212.571 313.688 212.577 314.172C212.571 314.656 212.436 315.083 212.17 315.453C211.91 315.818 211.548 316.102 211.084 316.305C210.621 316.508 210.092 316.609 209.498 316.609C208.915 316.609 208.392 316.508 207.928 316.305C207.465 316.102 207.103 315.815 206.842 315.445C206.587 315.076 206.462 314.651 206.467 314.172C206.462 313.693 206.587 313.268 206.842 312.898C207.103 312.529 207.465 312.242 207.928 312.039C208.392 311.836 208.915 311.734 209.498 311.734ZM209.498 312.984C209.056 312.984 208.696 313.091 208.42 313.305C208.149 313.518 208.014 313.807 208.014 314.172C208.014 314.536 208.149 314.826 208.42 315.039C208.691 315.253 209.051 315.359 209.498 315.359C209.946 315.359 210.308 315.253 210.584 315.039C210.86 314.826 210.998 314.536 210.998 314.172C210.998 313.807 210.86 313.518 210.584 313.305C210.308 313.091 209.946 312.984 209.498 312.984ZM213.358 317.312C214.363 317.312 215.228 317.411 215.952 317.609C216.676 317.807 217.23 318.099 217.616 318.484C218.001 318.865 218.196 319.323 218.202 319.859C218.196 320.385 217.998 320.836 217.608 321.211C217.222 321.591 216.668 321.88 215.944 322.078C215.22 322.276 214.358 322.375 213.358 322.375C212.358 322.375 211.493 322.276 210.764 322.078C210.04 321.88 209.483 321.591 209.092 321.211C208.707 320.836 208.514 320.385 208.514 319.859C208.514 319.323 208.707 318.865 209.092 318.484C209.483 318.099 210.04 317.807 210.764 317.609C211.488 317.411 212.353 317.312 213.358 317.312ZM213.358 318.641C212.342 318.63 211.569 318.729 211.037 318.938C210.511 319.141 210.248 319.448 210.248 319.859C210.248 320.25 210.514 320.547 211.045 320.75C211.577 320.948 212.347 321.047 213.358 321.047C214.363 321.047 215.129 320.948 215.655 320.75C216.186 320.547 216.452 320.25 216.452 319.859C216.452 319.448 216.186 319.141 215.655 318.938C215.129 318.729 214.363 318.63 213.358 318.641ZM230.242 316.156H223.555V309.484H230.242V316.156ZM225.258 314.781H228.539V310.875H225.258V314.781ZM234.211 312.406H236.18V313.859H234.211V318.578H232.477V308.266H234.211V312.406ZM234.773 322.109H225.164V317.578H226.898V320.703H234.773V322.109ZM249.489 315.297H236.598V313.922H249.489V315.297ZM247.958 313.016H238.239V308.625H247.833V310.016H239.973V311.641H247.958V313.016ZM247.864 319.812H239.833V320.891H248.255V322.25H238.13V318.562H246.161V317.578H238.114V316.266H247.864V319.812ZM261.923 322.391H260.173V308.266H261.923V322.391ZM257.705 309.766C257.705 312.01 257.197 313.982 256.181 315.68C255.166 317.372 253.481 318.776 251.127 319.891L250.22 318.5C252.038 317.635 253.405 316.602 254.322 315.398C255.244 314.19 255.783 312.771 255.939 311.141H250.939V309.766H257.705Z" fill="#E8E4DC"/>
</g>
</g>
</g>
<g id="BottomNavigation" filter="url(#filter1_dd_123_8862)">
<mask id="path-7-inside-1_123_8862" fill="white">
<path d="M16 565H409V637H16V565Z"/>
</mask>
<path d="M16 565H409V637H16V565Z" fill="#161A18"/>
<path d="M16 565V566H409V565V564H16V565Z" fill="#373F3B" mask="url(#path-7-inside-1_123_8862)"/>
<g id="DarkMode-Home">
<g id="Icon">
<path id="Vector" d="M66.9863 600.499V592.501C66.9863 592.236 66.8809 591.981 66.6934 591.794C66.5059 591.606 66.2516 591.501 65.9864 591.501H61.9871C61.722 591.501 61.4677 591.606 61.2801 591.794C61.0926 591.981 60.9873 592.236 60.9873 592.501V600.499" stroke="#4A4845" stroke-width="1.99965" stroke-linecap="round" stroke-linejoin="round"/>
<path id="Vector_2" d="M54.9883 589.501C54.9882 589.21 55.0516 588.923 55.174 588.659C55.2965 588.395 55.475 588.161 55.6972 587.973L62.6959 581.975C63.0569 581.67 63.5142 581.503 63.9867 581.503C64.4593 581.503 64.9166 581.67 65.2775 581.975L72.2763 587.973C72.4984 588.161 72.677 588.395 72.7994 588.659C72.9218 588.923 72.9852 589.21 72.9852 589.501V598.499C72.9852 599.03 72.7745 599.538 72.3995 599.913C72.0245 600.288 71.5159 600.499 70.9855 600.499H56.9879C56.4576 600.499 55.949 600.288 55.574 599.913C55.199 599.538 54.9883 599.03 54.9883 598.499V589.501Z" stroke="#4A4845" stroke-width="1.99965" stroke-linecap="round" stroke-linejoin="round"/>
</g>
<g id="Layout">
<path id="&#237;&#153;&#136;" d="M66.7393 621.305H59.5674V618.328H66.7393V621.305ZM60.4814 620.59H65.8369V619.043H60.4814V620.59ZM67.3486 612.621H58.8994V611.906H62.6963V610.875H63.6104V611.906H67.3486V612.621ZM63.1533 613.043C64.2432 613.051 65.0771 613.18 65.6553 613.43C66.2373 613.676 66.5283 614.039 66.5283 614.52C66.5283 614.973 66.2783 615.322 65.7783 615.568C65.2783 615.814 64.5557 615.955 63.6104 615.99V616.793H67.8994V617.531H58.4072V616.793H62.6963V615.99C61.7471 615.955 61.0205 615.814 60.5166 615.568C60.0166 615.322 59.7666 614.973 59.7666 614.52C59.7666 614.039 60.0576 613.676 60.6396 613.43C61.2256 613.18 62.0635 613.051 63.1533 613.043ZM63.1533 613.688C62.376 613.695 61.7803 613.77 61.3662 613.91C60.9521 614.051 60.7471 614.254 60.751 614.52C60.7432 614.785 60.9502 614.99 61.3721 615.135C61.7939 615.279 62.3877 615.352 63.1533 615.352C63.915 615.352 64.5049 615.279 64.9229 615.135C65.3447 614.99 65.5557 614.785 65.5557 614.52C65.5557 614.254 65.3467 614.051 64.9287 613.91C64.5146 613.77 63.9229 613.695 63.1533 613.688Z" fill="#4A4845"/>
</g>
</g>
<g id="DarkMode-Chat">
<g id="Icon_2">
<path id="Vector_3" d="M147.235 594.5C147.235 595.031 147.024 595.539 146.649 595.914C146.274 596.289 145.766 596.5 145.236 596.5H133.238L129.238 600.499V584.502C129.238 583.972 129.449 583.463 129.824 583.088C130.199 582.713 130.708 582.502 131.238 582.502H145.236C145.766 582.502 146.274 582.713 146.649 583.088C147.024 583.463 147.235 583.972 147.235 584.502V594.5Z" stroke="#4A4845" stroke-width="1.99965" stroke-linecap="round" stroke-linejoin="round"/>
</g>
<g id="Layout_2">
<path id="&#236;&#177;&#132;&#237;&#140;&#133;" d="M129.702 614.227C129.702 614.785 129.794 615.334 129.978 615.873C130.161 616.412 130.425 616.9 130.769 617.338C131.116 617.771 131.522 618.113 131.987 618.363L131.448 619.055C130.94 618.777 130.501 618.387 130.13 617.883C129.759 617.379 129.476 616.807 129.28 616.166C129.089 616.85 128.808 617.463 128.437 618.006C128.065 618.549 127.628 618.969 127.124 619.266L126.573 618.586C127.03 618.32 127.429 617.957 127.769 617.496C128.108 617.031 128.37 616.516 128.554 615.949C128.737 615.379 128.831 614.805 128.835 614.227V613.746H126.819V612.984H128.835V611.414H129.714V612.984H131.706V613.746H129.702V614.227ZM135.608 621.445H134.718V616.031H133.3V620.918H132.421V611.25H133.3V615.246H134.718V611.027H135.608V621.445ZM142.828 612.551H138.762V613.863H142.535V614.613H138.762V615.984C139.945 615.984 140.887 615.967 141.586 615.932C142.285 615.893 142.984 615.816 143.683 615.703L143.777 616.453C143.047 616.57 142.318 616.648 141.592 616.688C140.865 616.727 139.894 616.746 138.679 616.746H137.836V611.801H142.828V612.551ZM145.828 617.496H144.914V611.039H145.828V617.496ZM142.371 617.648C143.09 617.645 143.713 617.717 144.24 617.865C144.767 618.01 145.172 618.225 145.453 618.51C145.734 618.791 145.875 619.129 145.875 619.523C145.875 619.926 145.734 620.268 145.453 620.549C145.172 620.834 144.767 621.051 144.24 621.199C143.717 621.348 143.094 621.422 142.371 621.422C141.633 621.422 141 621.348 140.472 621.199C139.945 621.055 139.541 620.84 139.26 620.555C138.982 620.27 138.844 619.926 138.844 619.523C138.844 619.129 138.982 618.791 139.26 618.51C139.541 618.225 139.945 618.01 140.472 617.865C141.004 617.717 141.637 617.645 142.371 617.648ZM142.371 618.375C141.828 618.375 141.359 618.422 140.965 618.516C140.574 618.605 140.275 618.736 140.068 618.908C139.861 619.08 139.758 619.285 139.758 619.523C139.758 619.77 139.861 619.98 140.068 620.156C140.275 620.332 140.574 620.465 140.965 620.555C141.359 620.648 141.828 620.695 142.371 620.695C142.902 620.695 143.363 620.648 143.754 620.555C144.144 620.461 144.445 620.326 144.656 620.15C144.867 619.975 144.972 619.766 144.972 619.523C144.972 619.289 144.867 619.086 144.656 618.914C144.445 618.738 144.142 618.605 143.748 618.516C143.357 618.422 142.898 618.375 142.371 618.375Z" fill="#4A4845"/>
</g>
</g>
<g id="DarkMode-Plan">
<g id="Icon_3">
<path id="Vector_4" d="M208.493 581.502V585.502" stroke="#5E9E72" stroke-width="1.99965" stroke-linecap="round" stroke-linejoin="round"/>
<path id="Vector_5" d="M216.491 581.502V585.502" stroke="#5E9E72" stroke-width="1.99965" stroke-linecap="round" stroke-linejoin="round"/>
<path id="Vector_6" d="M219.49 583.502H205.493C204.388 583.502 203.493 584.398 203.493 585.502V599.5C203.493 600.604 204.388 601.499 205.493 601.499H219.49C220.595 601.499 221.49 600.604 221.49 599.5V585.502C221.49 584.398 220.595 583.502 219.49 583.502Z" stroke="#5E9E72" stroke-width="1.99965" stroke-linecap="round" stroke-linejoin="round"/>
<path id="Vector_7" d="M203.493 589.501H221.49" stroke="#5E9E72" stroke-width="1.99965" stroke-linecap="round" stroke-linejoin="round"/>
</g>
<g id="Layout_3">
<path id="&#236;&#157;&#188;&#236;&#160;&#149;" d="M203.863 611.414C204.379 611.418 204.84 611.518 205.246 611.713C205.656 611.908 205.977 612.182 206.207 612.533C206.441 612.881 206.559 613.277 206.559 613.723C206.559 614.168 206.441 614.566 206.207 614.918C205.977 615.266 205.656 615.537 205.246 615.732C204.84 615.924 204.379 616.02 203.863 616.02C203.34 616.02 202.873 615.924 202.463 615.732C202.053 615.537 201.732 615.266 201.502 614.918C201.271 614.566 201.156 614.168 201.156 613.723C201.156 613.277 201.271 612.881 201.502 612.533C201.732 612.182 202.053 611.908 202.463 611.713C202.873 611.518 203.34 611.418 203.863 611.414ZM203.863 612.188C203.52 612.188 203.209 612.254 202.932 612.387C202.658 612.516 202.443 612.697 202.287 612.932C202.131 613.162 202.055 613.426 202.059 613.723C202.055 614.023 202.131 614.291 202.287 614.525C202.443 614.76 202.658 614.943 202.932 615.076C203.209 615.205 203.52 615.27 203.863 615.27C204.203 615.27 204.51 615.205 204.783 615.076C205.061 614.943 205.277 614.76 205.434 614.525C205.59 614.291 205.668 614.023 205.668 613.723C205.668 613.426 205.59 613.162 205.434 612.932C205.277 612.697 205.061 612.516 204.783 612.387C204.51 612.254 204.203 612.188 203.863 612.188ZM209.512 616.383H208.598V611.027H209.512V616.383ZM209.512 619.395H203.664V620.566H209.887V621.305H202.762V618.703H208.598V617.625H202.738V616.887H209.512V619.395ZM220.118 617.238H219.192V614.508H217.095V613.746H219.192V611.027H220.118V617.238ZM216.661 617.566C217.384 617.566 218.007 617.643 218.53 617.795C219.054 617.947 219.454 618.168 219.731 618.457C220.012 618.746 220.153 619.094 220.153 619.5C220.153 619.906 220.012 620.254 219.731 620.543C219.454 620.836 219.054 621.059 218.53 621.211C218.007 621.363 217.384 621.441 216.661 621.445C215.938 621.441 215.315 621.363 214.792 621.211C214.268 621.059 213.866 620.836 213.585 620.543C213.307 620.254 213.169 619.906 213.169 619.5C213.169 619.094 213.307 618.746 213.585 618.457C213.866 618.168 214.268 617.947 214.792 617.795C215.315 617.643 215.938 617.566 216.661 617.566ZM216.661 618.281C216.134 618.281 215.675 618.33 215.284 618.428C214.893 618.525 214.595 618.666 214.387 618.85C214.18 619.033 214.079 619.25 214.083 619.5C214.079 619.746 214.18 619.961 214.387 620.145C214.595 620.324 214.893 620.463 215.284 620.561C215.675 620.658 216.134 620.707 216.661 620.707C217.188 620.707 217.645 620.658 218.032 620.561C218.423 620.463 218.721 620.324 218.929 620.145C219.136 619.961 219.239 619.746 219.239 619.5C219.239 619.25 219.136 619.033 218.929 618.85C218.721 618.666 218.423 618.525 218.032 618.428C217.645 618.33 217.188 618.281 216.661 618.281ZM215.102 612.938C215.102 613.387 215.21 613.822 215.425 614.244C215.639 614.662 215.94 615.035 216.327 615.363C216.718 615.688 217.165 615.938 217.669 616.113L217.188 616.852C216.606 616.641 216.095 616.328 215.653 615.914C215.216 615.5 214.886 615.021 214.663 614.479C214.436 615.088 214.091 615.627 213.626 616.096C213.165 616.561 212.626 616.91 212.009 617.145L211.528 616.406C212.04 616.219 212.497 615.949 212.899 615.598C213.302 615.242 213.614 614.834 213.837 614.373C214.063 613.912 214.177 613.438 214.177 612.949V612.562H211.821V611.789H217.434V612.562H215.102V612.938Z" fill="#5E9E72"/>
</g>
</g>
<g id="DarkMode-PlanList">
<g id="Icon_4">
<path id="Vector_8" d="M277.751 591.508H277.761" stroke="#4A4845" stroke-width="1.99986" stroke-linecap="round" stroke-linejoin="round"/>
<path id="Vector_9" d="M277.751 597.508H277.761" stroke="#4A4845" stroke-width="1.99986" stroke-linecap="round" stroke-linejoin="round"/>
<path id="Vector_10" d="M277.751 585.509H277.761" stroke="#4A4845" stroke-width="1.99986" stroke-linecap="round" stroke-linejoin="round"/>
<path id="Vector_11" d="M282.75 591.508H295.75" stroke="#4A4845" stroke-width="1.99986" stroke-linecap="round" stroke-linejoin="round"/>
<path id="Vector_12" d="M282.75 597.508H295.75" stroke="#4A4845" stroke-width="1.99986" stroke-linecap="round" stroke-linejoin="round"/>
<path id="Vector_13" d="M282.75 585.509H295.75" stroke="#4A4845" stroke-width="1.99986" stroke-linecap="round" stroke-linejoin="round"/>
</g>
<g id="Layout_4">
<path id="&#236;&#151;&#172;&#237;&#150;&#137;&#235;&#170;&#169;&#235;&#161;&#157;" d="M268.242 612H271.53V612.816H268.242V612ZM268.242 615.432H271.53V616.248H268.242V615.432ZM266.25 610.416C266.778 610.416 267.246 610.572 267.654 610.884C268.062 611.188 268.378 611.624 268.602 612.192C268.834 612.76 268.95 613.428 268.95 614.196C268.95 614.964 268.834 615.632 268.602 616.2C268.378 616.768 268.062 617.208 267.654 617.52C267.246 617.832 266.778 617.988 266.25 617.988C265.73 617.988 265.262 617.832 264.846 617.52C264.438 617.208 264.118 616.768 263.886 616.2C263.662 615.632 263.55 614.964 263.55 614.196C263.55 613.428 263.662 612.76 263.886 612.192C264.118 611.624 264.438 611.188 264.846 610.884C265.262 610.572 265.73 610.416 266.25 610.416ZM266.25 611.304C265.906 611.304 265.602 611.424 265.338 611.664C265.074 611.896 264.866 612.232 264.714 612.672C264.57 613.104 264.498 613.612 264.498 614.196C264.498 614.78 264.57 615.292 264.714 615.732C264.866 616.164 265.074 616.5 265.338 616.74C265.602 616.98 265.906 617.1 266.25 617.1C266.602 617.1 266.91 616.98 267.174 616.74C267.438 616.5 267.642 616.164 267.786 615.732C267.938 615.292 268.014 614.78 268.014 614.196C268.014 613.612 267.938 613.104 267.786 612.672C267.642 612.232 267.438 611.896 267.174 611.664C266.91 611.424 266.602 611.304 266.25 611.304ZM271.302 609.576H272.286V620.448H271.302V609.576ZM282.593 609.576H283.541V616.44H282.593V609.576ZM280.817 612.528H282.869V613.344H280.817V612.528ZM280.265 609.792H281.201V616.056H280.265V609.792ZM274.337 610.872H279.833V611.664H274.337V610.872ZM277.097 612.228C277.553 612.228 277.953 612.304 278.297 612.456C278.649 612.608 278.921 612.824 279.113 613.104C279.313 613.384 279.413 613.712 279.413 614.088C279.413 614.464 279.313 614.792 279.113 615.072C278.921 615.344 278.649 615.556 278.297 615.708C277.953 615.86 277.553 615.936 277.097 615.936C276.649 615.936 276.249 615.86 275.897 615.708C275.545 615.556 275.273 615.344 275.081 615.072C274.889 614.792 274.793 614.464 274.793 614.088C274.793 613.712 274.889 613.384 275.081 613.104C275.273 612.824 275.545 612.608 275.897 612.456C276.249 612.304 276.649 612.228 277.097 612.228ZM277.097 612.972C276.681 612.972 276.341 613.072 276.077 613.272C275.813 613.472 275.681 613.744 275.681 614.088C275.681 614.424 275.809 614.696 276.065 614.904C276.329 615.104 276.673 615.204 277.097 615.204C277.521 615.204 277.861 615.104 278.117 614.904C278.381 614.696 278.513 614.424 278.513 614.088C278.513 613.744 278.381 613.472 278.117 613.272C277.861 613.072 277.521 612.972 277.097 612.972ZM276.605 609.66H277.589V611.328H276.605V609.66ZM279.977 616.632C281.113 616.632 282.001 616.796 282.641 617.124C283.281 617.452 283.601 617.92 283.601 618.528C283.601 619.128 283.281 619.592 282.641 619.92C282.001 620.248 281.113 620.412 279.977 620.412C278.841 620.412 277.953 620.248 277.313 619.92C276.673 619.592 276.353 619.128 276.353 618.528C276.353 617.92 276.673 617.452 277.313 617.124C277.953 616.796 278.841 616.632 279.977 616.632ZM279.977 617.4C279.145 617.4 278.497 617.496 278.033 617.688C277.569 617.88 277.337 618.16 277.337 618.528C277.337 618.888 277.569 619.164 278.033 619.356C278.497 619.548 279.145 619.644 279.977 619.644C280.801 619.644 281.445 619.548 281.909 619.356C282.373 619.164 282.605 618.888 282.605 618.528C282.605 618.16 282.373 617.88 281.909 617.688C281.445 617.496 280.801 617.4 279.977 617.4ZM286.696 610.032H293.98V613.716H286.696V610.032ZM293.008 610.824H287.668V612.912H293.008V610.824ZM285.436 615.072H295.24V615.888H285.436V615.072ZM289.84 613.512H290.836V615.384H289.84V613.512ZM286.528 617.004H294.028V620.436H293.032V617.808H286.528V617.004ZM296.463 615.552H306.303V616.368H296.463V615.552ZM297.711 609.852H305.043V612.492H298.719V613.944H297.735V611.748H304.059V610.644H297.711V609.852ZM297.735 613.62H305.271V614.412H297.735V613.62ZM300.891 614.028H301.875V615.948H300.891V614.028ZM297.567 617.196H305.103V620.328H304.107V618H297.567V617.196Z" fill="#4A4845"/>
</g>
</g>
<g id="DarkMode-Setting">
<g id="Icon_5">
<path id="Vector_14" d="M361.226 581.502H360.786C360.256 581.502 359.747 581.713 359.372 582.088C358.997 582.463 358.787 582.972 358.787 583.502V583.682C358.786 584.033 358.694 584.377 358.518 584.681C358.343 584.984 358.09 585.236 357.787 585.412L357.357 585.662C357.053 585.837 356.708 585.93 356.357 585.93C356.006 585.93 355.661 585.837 355.357 585.662L355.207 585.582C354.748 585.317 354.203 585.245 353.692 585.382C353.18 585.519 352.743 585.853 352.478 586.312L352.258 586.692C351.993 587.15 351.921 587.696 352.058 588.207C352.195 588.719 352.529 589.156 352.988 589.421L353.138 589.521C353.44 589.696 353.691 589.946 353.867 590.248C354.042 590.549 354.135 590.892 354.137 591.241V591.751C354.139 592.103 354.047 592.449 353.872 592.755C353.696 593.061 353.443 593.314 353.138 593.49L352.988 593.58C352.529 593.846 352.195 594.282 352.058 594.794C351.921 595.306 351.993 595.851 352.258 596.31L352.478 596.69C352.743 597.148 353.18 597.482 353.692 597.619C354.203 597.756 354.748 597.684 355.207 597.42L355.357 597.34C355.661 597.164 356.006 597.072 356.357 597.072C356.708 597.072 357.053 597.164 357.357 597.34L357.787 597.59C358.09 597.765 358.343 598.017 358.518 598.321C358.694 598.624 358.786 598.969 358.787 599.319V599.499C358.787 600.03 358.997 600.538 359.372 600.913C359.747 601.288 360.256 601.499 360.786 601.499H361.226C361.757 601.499 362.265 601.288 362.64 600.913C363.015 600.538 363.226 600.03 363.226 599.499V599.319C363.226 598.969 363.319 598.624 363.494 598.321C363.67 598.017 363.922 597.765 364.226 597.59L364.656 597.34C364.96 597.164 365.304 597.072 365.655 597.072C366.006 597.072 366.351 597.164 366.655 597.34L366.805 597.42C367.264 597.684 367.809 597.756 368.321 597.619C368.833 597.482 369.269 597.148 369.535 596.69L369.755 596.3C370.019 595.841 370.091 595.296 369.954 594.784C369.818 594.272 369.483 593.836 369.025 593.57L368.875 593.49C368.57 593.314 368.317 593.061 368.141 592.755C367.965 592.449 367.874 592.103 367.875 591.751V591.251C367.874 590.898 367.965 590.552 368.141 590.246C368.317 589.941 368.57 589.687 368.875 589.511L369.025 589.421C369.483 589.156 369.818 588.719 369.954 588.207C370.091 587.696 370.019 587.15 369.755 586.692L369.535 586.312C369.269 585.853 368.833 585.519 368.321 585.382C367.809 585.245 367.264 585.317 366.805 585.582L366.655 585.662C366.351 585.837 366.006 585.93 365.655 585.93C365.304 585.93 364.96 585.837 364.656 585.662L364.226 585.412C363.922 585.236 363.67 584.984 363.494 584.681C363.319 584.377 363.226 584.033 363.226 583.682V583.502C363.226 582.972 363.015 582.463 362.64 582.088C362.265 581.713 361.757 581.502 361.226 581.502Z" stroke="#4A4845" stroke-width="1.99965" stroke-linecap="round" stroke-linejoin="round"/>
<path id="Vector_15" d="M361.006 594.5C362.663 594.5 364.006 593.158 364.006 591.501C364.006 589.844 362.663 588.501 361.006 588.501C359.35 588.501 358.007 589.844 358.007 591.501C358.007 593.158 359.35 594.5 361.006 594.5Z" stroke="#4A4845" stroke-width="1.99965" stroke-linecap="round" stroke-linejoin="round"/>
</g>
<g id="Layout_5">
<path id="&#236;&#132;&#164;&#236;&#160;&#149;" d="M358.062 616.418H357.136V613.711H354.815V612.949H357.136V611.027H358.062V616.418ZM358.062 619.43H352.237V620.566H358.448V621.305H351.335V618.727H357.147V617.684H351.312V616.945H358.062V619.43ZM352.976 612.352C352.972 612.801 353.079 613.232 353.298 613.646C353.517 614.061 353.823 614.426 354.218 614.742C354.612 615.059 355.062 615.301 355.565 615.469L355.073 616.184C354.495 615.977 353.985 615.676 353.544 615.281C353.103 614.887 352.767 614.428 352.536 613.904C352.317 614.494 351.981 615.01 351.528 615.451C351.075 615.889 350.538 616.219 349.917 616.441L349.413 615.703C349.933 615.531 350.392 615.279 350.79 614.947C351.192 614.611 351.505 614.221 351.728 613.775C351.954 613.326 352.069 612.852 352.073 612.352V611.367H352.976V612.352ZM368.633 617.238H367.707V614.508H365.609V613.746H367.707V611.027H368.633V617.238ZM365.176 617.566C365.898 617.566 366.521 617.643 367.045 617.795C367.568 617.947 367.969 618.168 368.246 618.457C368.527 618.746 368.668 619.094 368.668 619.5C368.668 619.906 368.527 620.254 368.246 620.543C367.969 620.836 367.568 621.059 367.045 621.211C366.521 621.363 365.898 621.441 365.176 621.445C364.453 621.441 363.83 621.363 363.306 621.211C362.783 621.059 362.381 620.836 362.099 620.543C361.822 620.254 361.683 619.906 361.683 619.5C361.683 619.094 361.822 618.746 362.099 618.457C362.381 618.168 362.783 617.947 363.306 617.795C363.83 617.643 364.453 617.566 365.176 617.566ZM365.176 618.281C364.648 618.281 364.189 618.33 363.799 618.428C363.408 618.525 363.109 618.666 362.902 618.85C362.695 619.033 362.594 619.25 362.597 619.5C362.594 619.746 362.695 619.961 362.902 620.145C363.109 620.324 363.408 620.463 363.799 620.561C364.189 620.658 364.648 620.707 365.176 620.707C365.703 620.707 366.16 620.658 366.547 620.561C366.937 620.463 367.236 620.324 367.443 620.145C367.65 619.961 367.754 619.746 367.754 619.5C367.754 619.25 367.65 619.033 367.443 618.85C367.236 618.666 366.937 618.525 366.547 618.428C366.16 618.33 365.703 618.281 365.176 618.281ZM363.617 612.938C363.617 613.387 363.724 613.822 363.939 614.244C364.154 614.662 364.455 615.035 364.842 615.363C365.232 615.688 365.679 615.938 366.183 616.113L365.703 616.852C365.121 616.641 364.609 616.328 364.168 615.914C363.73 615.5 363.4 615.021 363.178 614.479C362.951 615.088 362.605 615.627 362.14 616.096C361.679 616.561 361.14 616.91 360.523 617.145L360.043 616.406C360.554 616.219 361.012 615.949 361.414 615.598C361.816 615.242 362.129 614.834 362.351 614.373C362.578 613.912 362.691 613.438 362.691 612.949V612.562H360.336V611.789H365.949V612.562H363.617V612.938Z" fill="#4A4845"/>
</g>
</g>
</g>
</g>
<defs>
<filter id="filter0_dd_123_8862" x="139.5" y="291.5" width="146" height="52" filterUnits="userSpaceOnUse" color-interpolation-filters="sRGB">
<feFlood flood-opacity="0" result="BackgroundImageFix"/>
<feColorMatrix in="SourceAlpha" type="matrix" values="0 0 0 0 0 0 0 0 0 0 0 0 0 0 0 0 0 0 127 0" result="hardAlpha"/>
<feOffset dy="2"/>
<feGaussianBlur stdDeviation="4"/>
<feColorMatrix type="matrix" values="0 0 0 0 0 0 0 0 0 0 0 0 0 0 0 0 0 0 0.3 0"/>
<feBlend mode="normal" in2="BackgroundImageFix" result="effect1_dropShadow_123_8862"/>
<feColorMatrix in="SourceAlpha" type="matrix" values="0 0 0 0 0 0 0 0 0 0 0 0 0 0 0 0 0 0 127 0" result="hardAlpha"/>
<feOffset dy="1"/>
<feGaussianBlur stdDeviation="1"/>
<feColorMatrix type="matrix" values="0 0 0 0 0 0 0 0 0 0 0 0 0 0 0 0 0 0 0.15 0"/>
<feBlend mode="normal" in2="effect1_dropShadow_123_8862" result="effect2_dropShadow_123_8862"/>
<feBlend mode="normal" in="SourceGraphic" in2="effect2_dropShadow_123_8862" result="shape"/>
</filter>
<filter id="filter1_dd_123_8862" x="0" y="553" width="425" height="104" filterUnits="userSpaceOnUse" color-interpolation-filters="sRGB">
<feFlood flood-opacity="0" result="BackgroundImageFix"/>
<feColorMatrix in="SourceAlpha" type="matrix" values="0 0 0 0 0 0 0 0 0 0 0 0 0 0 0 0 0 0 127 0" result="hardAlpha"/>
<feOffset dy="4"/>
<feGaussianBlur stdDeviation="8"/>
<feColorMatrix type="matrix" values="0 0 0 0 0 0 0 0 0 0 0 0 0 0 0 0 0 0 0.4 0"/>
<feBlend mode="normal" in2="BackgroundImageFix" result="effect1_dropShadow_123_8862"/>
<feColorMatrix in="SourceAlpha" type="matrix" values="0 0 0 0 0 0 0 0 0 0 0 0 0 0 0 0 0 0 127 0" result="hardAlpha"/>
<feOffset dy="1"/>
<feGaussianBlur stdDeviation="2"/>
<feColorMatrix type="matrix" values="0 0 0 0 0 0 0 0 0 0 0 0 0 0 0 0 0 0 0.2 0"/>
<feBlend mode="normal" in2="effect1_dropShadow_123_8862" result="effect2_dropShadow_123_8862"/>
<feBlend mode="normal" in="SourceGraphic" in2="effect2_dropShadow_123_8862" result="shape"/>
</filter>
</defs>
</svg>
