<svg width="401" height="212" viewBox="0 0 401 212" fill="none" xmlns="http://www.w3.org/2000/svg">
<g id="Property 1=Dark" filter="url(#filter0_d_48_2085)">
<rect width="392.723" height="203.935" transform="translate(4 3)" fill="#5E9E72"/>
<g id="Container">
<g id="Heading 2">
<path id="&#236;&#160;&#156;&#236;&#163;&#188;&#235;&#143;&#132; 3&#236;&#157;&#188; &#236;&#151;&#172;&#237;&#150;&#137;" d="M43.8984 51.5381H41.5352V33.7646H43.8984V51.5381ZM40.2656 50.7178H37.9219V41.8701H35.5781V39.8584H37.9219V34.0576H40.2656V50.7178ZM34.1523 38.5303C34.1523 40.1449 34.4323 41.613 34.9922 42.9346C35.5586 44.2497 36.4505 45.2555 37.668 45.9521L36.2031 47.7881C35.4349 47.3324 34.7806 46.7269 34.2402 45.9717C33.7064 45.2165 33.2865 44.3441 32.9805 43.3545C32.6615 44.4352 32.2253 45.389 31.6719 46.2158C31.1185 47.0426 30.4479 47.6969 29.6602 48.1787L28.1562 46.3428C28.9896 45.835 29.6732 45.1676 30.207 44.3408C30.7474 43.5075 31.138 42.596 31.3789 41.6064C31.6263 40.6169 31.75 39.5915 31.75 38.5303V37.5732H28.8398V35.5811H36.8477V37.5732H34.1523V38.5303ZM61.7234 45.5615H54.8094V51.5381H52.3484V45.5615H45.5125V43.5693H61.7234V45.5615ZM60.2781 36.6553H55.0926C55.1772 37.2542 55.4572 37.8271 55.9324 38.374C56.4077 38.9144 57.0717 39.3831 57.9246 39.7803C58.7775 40.1709 59.7898 40.4378 60.9617 40.5811L60.0633 42.5342C58.5268 42.3258 57.2052 41.9092 56.0984 41.2842C54.9982 40.6592 54.1746 39.8812 53.6277 38.9502C53.0743 39.8812 52.2508 40.6592 51.157 41.2842C50.0633 41.9092 48.7547 42.3258 47.2313 42.5342L46.3133 40.5811C47.4656 40.4378 48.465 40.1709 49.3113 39.7803C50.1642 39.3831 50.8283 38.9144 51.3035 38.374C51.7853 37.8271 52.0717 37.2542 52.1629 36.6553H46.9773V34.7021H60.2781V36.6553ZM76.9898 43.6865H71.8336V47.4756H78.7672V49.5068H62.4977V47.4756H69.3531V43.6865H64.4117V35.0146H76.8531V37.0068H66.9117V41.7139H76.9898V43.6865ZM89.6125 49.9365C88.5904 49.9365 87.6724 49.7607 86.8586 49.4092C86.0513 49.0511 85.4133 48.5563 84.9445 47.9248C84.4823 47.2868 84.2414 46.5641 84.2219 45.7568H87.1906C87.2102 46.1019 87.3273 46.4079 87.5422 46.6748C87.757 46.9417 88.0467 47.1501 88.4113 47.2998C88.7759 47.443 89.1828 47.5146 89.632 47.5146C90.0943 47.5146 90.5077 47.4333 90.8723 47.2705C91.2434 47.1012 91.5298 46.8701 91.7316 46.5771C91.94 46.2842 92.0409 45.9521 92.0344 45.5811C92.0409 45.1969 91.9335 44.8551 91.7121 44.5557C91.4973 44.2562 91.188 44.0251 90.7844 43.8623C90.3807 43.693 89.9055 43.6084 89.3586 43.6084H88.05V41.4404H89.3586C89.8143 41.4404 90.2212 41.3623 90.5793 41.2061C90.9374 41.0498 91.2173 40.8285 91.4191 40.542C91.621 40.2555 91.7219 39.93 91.7219 39.5654C91.7219 39.2074 91.634 38.8916 91.4582 38.6182C91.2889 38.3447 91.048 38.1331 90.7355 37.9834C90.423 37.8271 90.0617 37.749 89.6516 37.749C89.2349 37.749 88.8508 37.8239 88.4992 37.9736C88.1542 38.1169 87.8742 38.3252 87.6594 38.5986C87.451 38.8656 87.3404 39.1748 87.3273 39.5264H84.5148C84.5279 38.7256 84.759 38.0127 85.2082 37.3877C85.6574 36.7627 86.2694 36.2777 87.0441 35.9326C87.8254 35.5811 88.6945 35.4053 89.6516 35.4053C90.6151 35.4053 91.468 35.5811 92.2102 35.9326C92.9589 36.2777 93.5383 36.7562 93.9484 37.3682C94.3586 37.9736 94.5604 38.6475 94.5539 39.3896C94.5604 39.904 94.4497 40.3727 94.2219 40.7959C94.0005 41.2126 93.6848 41.5576 93.2746 41.8311C92.871 42.1045 92.4055 42.2868 91.8781 42.3779V42.4951C92.5617 42.5798 93.1444 42.7686 93.6262 43.0615C94.1079 43.3545 94.4725 43.7354 94.7199 44.2041C94.9673 44.6663 95.0878 45.1904 95.0812 45.7764C95.0878 46.5706 94.8566 47.2868 94.3879 47.9248C93.9191 48.5563 93.2681 49.0511 92.4348 49.4092C91.6014 49.7607 90.6607 49.9365 89.6125 49.9365ZM101.324 34.292C102.216 34.292 103.023 34.4645 103.746 34.8096C104.469 35.1546 105.035 35.6364 105.445 36.2549C105.862 36.8734 106.07 37.5732 106.07 38.3545C106.07 39.1227 105.862 39.8161 105.445 40.4346C105.035 41.0465 104.469 41.5283 103.746 41.8799C103.023 42.2249 102.216 42.3975 101.324 42.3975C100.419 42.3975 99.6022 42.2249 98.873 41.8799C98.1439 41.5283 97.571 41.0465 97.1543 40.4346C96.7441 39.8161 96.5391 39.1227 96.5391 38.3545C96.5391 37.5732 96.7441 36.8734 97.1543 36.2549C97.571 35.6364 98.1406 35.1546 98.8633 34.8096C99.5924 34.4645 100.413 34.292 101.324 34.292ZM101.324 36.3232C100.868 36.3232 100.458 36.4046 100.094 36.5674C99.7357 36.7236 99.4557 36.958 99.2539 37.2705C99.0521 37.5765 98.9544 37.9378 98.9609 38.3545C98.9544 38.7712 99.0521 39.1325 99.2539 39.4385C99.4557 39.7445 99.7357 39.9788 100.094 40.1416C100.458 40.3044 100.868 40.3857 101.324 40.3857C101.773 40.3857 102.174 40.3044 102.525 40.1416C102.883 39.9788 103.163 39.7445 103.365 39.4385C103.567 39.1325 103.668 38.7712 103.668 38.3545C103.668 37.9313 103.567 37.5667 103.365 37.2607C103.163 36.9548 102.883 36.7236 102.525 36.5674C102.174 36.4046 101.773 36.3232 101.324 36.3232ZM111.148 42.6709H108.648V33.7646H111.148V42.6709ZM111.148 48.2373H101.695V49.3896H111.637V51.3428H99.2539V46.4209H108.668V45.3271H99.2148V43.4131H111.148V48.2373ZM122.463 35.0146C123.257 35.0146 123.973 35.223 124.611 35.6396C125.255 36.0563 125.783 36.6488 126.193 37.417H130.099V33.7646H132.56V51.5771H130.099V44.917H126.379C125.981 45.8024 125.441 46.486 124.757 46.9678C124.08 47.4495 123.315 47.6904 122.463 47.6904C121.564 47.6904 120.763 47.4333 120.06 46.9189C119.364 46.3981 118.82 45.6592 118.429 44.7021C118.039 43.7386 117.847 42.6188 117.853 41.3428C117.847 40.0732 118.039 38.9632 118.429 38.0127C118.82 37.0557 119.364 36.3167 120.06 35.7959C120.763 35.2751 121.564 35.0146 122.463 35.0146ZM122.463 37.2607C122.02 37.2607 121.629 37.4202 121.291 37.7393C120.952 38.0518 120.688 38.5173 120.5 39.1357C120.317 39.7477 120.229 40.4834 120.236 41.3428C120.229 42.2087 120.317 42.9476 120.5 43.5596C120.688 44.1715 120.949 44.637 121.281 44.9561C121.619 45.2686 122.013 45.4248 122.463 45.4248C122.912 45.4248 123.302 45.2686 123.634 44.9561C123.973 44.6436 124.233 44.1813 124.416 43.5693C124.598 42.9574 124.689 42.2152 124.689 41.3428C124.689 40.4769 124.598 39.738 124.416 39.126C124.233 38.514 123.973 38.0518 123.634 37.7393C123.302 37.4202 122.912 37.2607 122.463 37.2607ZM126.886 39.4287C127.01 40.0472 127.072 40.6852 127.072 41.3428C127.072 41.8311 127.033 42.3584 126.955 42.9248H130.099V39.4287H126.886ZM149.819 44.917H147.455V40.1904H146.03V44.3311H143.705V34.0967H146.03V38.1592H147.455V33.7646H149.819V44.917ZM143.178 37.5342H134.448V35.6006H137.592V33.9209H140.073V35.6006H143.178V37.5342ZM138.842 38.1201C139.591 38.1201 140.258 38.2503 140.844 38.5107C141.43 38.7712 141.889 39.1357 142.221 39.6045C142.553 40.0732 142.722 40.6136 142.729 41.2256C142.722 41.8311 142.553 42.3682 142.221 42.8369C141.889 43.2992 141.43 43.6605 140.844 43.9209C140.258 44.1813 139.591 44.3115 138.842 44.3115C138.107 44.3115 137.446 44.1813 136.86 43.9209C136.274 43.6605 135.815 43.2992 135.483 42.8369C135.157 42.3682 134.995 41.8311 134.995 41.2256C134.995 40.6201 135.157 40.083 135.483 39.6143C135.815 39.139 136.274 38.7712 136.86 38.5107C137.446 38.2503 138.107 38.1201 138.842 38.1201ZM138.842 39.917C138.347 39.917 137.954 40.0342 137.661 40.2686C137.368 40.5029 137.221 40.8219 137.221 41.2256C137.221 41.6357 137.368 41.9613 137.661 42.2021C137.96 42.4365 138.354 42.5472 138.842 42.5342C139.33 42.5472 139.724 42.4365 140.024 42.2021C140.323 41.9613 140.476 41.6357 140.483 41.2256C140.476 40.8154 140.323 40.4964 140.024 40.2686C139.731 40.0342 139.337 39.917 138.842 39.917ZM143.745 45.0732C145.027 45.0732 146.127 45.2002 147.045 45.4541C147.97 45.708 148.676 46.0791 149.164 46.5674C149.659 47.0492 149.91 47.6318 149.916 48.3154C149.91 48.9925 149.659 49.5719 149.164 50.0537C148.676 50.5355 147.97 50.9033 147.045 51.1572C146.121 51.4111 145.021 51.5381 143.745 51.5381C142.468 51.5381 141.368 51.4111 140.444 51.1572C139.526 50.9033 138.819 50.5355 138.325 50.0537C137.836 49.5719 137.592 48.9925 137.592 48.3154C137.592 47.6318 137.836 47.0492 138.325 46.5674C138.819 46.0791 139.526 45.708 140.444 45.4541C141.368 45.2002 142.468 45.0732 143.745 45.0732ZM143.745 46.9482C141.29 46.9482 140.073 47.404 140.092 48.3154C140.086 48.7646 140.392 49.1032 141.01 49.3311C141.629 49.5524 142.54 49.6631 143.745 49.6631C146.179 49.6631 147.397 49.2139 147.397 48.3154C147.397 47.8532 147.094 47.5114 146.489 47.29C145.883 47.0622 144.968 46.9482 143.745 46.9482Z" fill="#E8E4DC"/>
</g>
</g>
<g id="Container_2" clip-path="url(#clip0_48_2085)">
<g id="Button">
<path d="M37.0308 90.9732C37.0308 84.3457 42.4033 78.9731 49.0308 78.9731H128.588C135.215 78.9731 140.588 84.3457 140.588 90.9731V118.962C140.588 125.59 135.215 130.962 128.588 130.962H49.0308C42.4033 130.962 37.0308 125.59 37.0308 118.962V90.9732Z" fill="#262B28"/>
<g id="Container_3">
<path id="1&#236;&#157;&#188;&#236;&#176;&#168;" d="M78.0701 102.968H76.826V94.3545H76.7713L74.365 95.9541V94.71L76.826 93.0693H78.0701V102.968ZM83.7166 92.3721C84.3181 92.3766 84.8559 92.4928 85.3299 92.7207C85.8084 92.9486 86.1821 93.2676 86.451 93.6777C86.7244 94.0833 86.8611 94.5459 86.8611 95.0654C86.8611 95.585 86.7244 96.0498 86.451 96.46C86.1821 96.8656 85.8084 97.1823 85.3299 97.4102C84.8559 97.6335 84.3181 97.7451 83.7166 97.7451C83.1059 97.7451 82.5613 97.6335 82.0828 97.4102C81.6043 97.1823 81.2306 96.8656 80.9617 96.46C80.6928 96.0498 80.5584 95.585 80.5584 95.0654C80.5584 94.5459 80.6928 94.0833 80.9617 93.6777C81.2306 93.2676 81.6043 92.9486 82.0828 92.7207C82.5613 92.4928 83.1059 92.3766 83.7166 92.3721ZM83.7166 93.2744C83.3155 93.2744 82.9532 93.3519 82.6297 93.5068C82.3107 93.6572 82.06 93.8691 81.8777 94.1426C81.6954 94.4115 81.6066 94.7191 81.6111 95.0654C81.6066 95.4163 81.6954 95.7285 81.8777 96.002C82.06 96.2754 82.3107 96.4896 82.6297 96.6445C82.9532 96.7949 83.3155 96.8701 83.7166 96.8701C84.1131 96.8701 84.4708 96.7949 84.7898 96.6445C85.1134 96.4896 85.3663 96.2754 85.5486 96.002C85.7309 95.7285 85.8221 95.4163 85.8221 95.0654C85.8221 94.7191 85.7309 94.4115 85.5486 94.1426C85.3663 93.8691 85.1134 93.6572 84.7898 93.5068C84.4708 93.3519 84.1131 93.2744 83.7166 93.2744ZM90.3064 98.1689H89.24V91.9209H90.3064V98.1689ZM90.3064 101.683H83.4842V103.05H90.7439V103.911H82.4314V100.876H89.24V99.6182H82.4041V98.7568H90.3064V101.683ZM96.4178 95.8857C96.4178 96.5238 96.5476 97.1595 96.8074 97.793C97.0672 98.4219 97.4272 98.9893 97.8875 99.4951C98.3523 100.001 98.8741 100.393 99.4529 100.671L98.824 101.505C98.1586 101.181 97.5708 100.707 97.0603 100.083C96.5545 99.4541 96.1739 98.7454 95.9187 97.957C95.6544 98.8001 95.2534 99.5566 94.7156 100.227C94.1824 100.892 93.5695 101.391 92.8767 101.724L92.2615 100.89C92.8494 100.616 93.378 100.217 93.8474 99.6934C94.3214 99.1693 94.6928 98.5768 94.9617 97.916C95.2351 97.2507 95.3741 96.5739 95.3787 95.8857V94.915H92.5896V94.04H95.365V92.1533H96.4451V94.04H99.1795V94.915H96.4178V95.8857ZM101.777 96.9111H103.814V97.8271H101.777V104.075H100.711V91.9209H101.777V96.9111Z" fill="#E8E4DC"/>
</g>
<g id="Container_4" opacity="0.8">
<path id="4&#236;&#155;&#148; 10&#236;&#157;&#188; (&#235;&#170;&#169;)" d="M54.0987 117.365L57.919 111.482H59.2197V117.306H60.4033V118.232H59.2197V119.966H58.2119V118.232H54.0987V117.365ZM58.2119 117.306V112.818H58.1065L55.2354 117.236V117.306H58.2119ZM70.2127 116.65H69.2869V116.076H67.1776V115.466H69.2869V110.509H70.2127V116.65ZM62.3729 114.435C64.8065 114.435 66.826 114.349 68.4315 114.177L68.4901 114.775C67.5682 114.908 66.5291 115.003 65.3729 115.062V116.685H64.4705V115.097C63.6229 115.117 62.8924 115.126 62.2791 115.126H61.6932L61.5877 114.435H62.3729ZM70.2127 119.181H64.1307V120.119H70.5526V120.798H63.2283V118.537H69.2987V117.693H63.1815V117.025H70.2127V119.181ZM64.9862 110.708C65.4979 110.708 65.949 110.773 66.3397 110.902C66.7303 111.031 67.033 111.214 67.2479 111.453C67.4627 111.687 67.5721 111.962 67.576 112.279C67.5721 112.599 67.4627 112.876 67.2479 113.111C67.033 113.345 66.7303 113.525 66.3397 113.65C65.953 113.775 65.5018 113.837 64.9862 113.837C64.4627 113.837 64.0057 113.775 63.6151 113.65C63.2283 113.525 62.9276 113.345 62.7127 113.111C62.5018 112.876 62.3963 112.599 62.3963 112.279C62.3963 111.962 62.5018 111.687 62.7127 111.453C62.9276 111.214 63.2303 111.031 63.6209 110.902C64.0115 110.773 64.4666 110.708 64.9862 110.708ZM64.9862 111.353C64.6385 111.353 64.3338 111.392 64.0721 111.47C63.8104 111.544 63.6092 111.652 63.4686 111.792C63.328 111.929 63.2596 112.091 63.2635 112.279C63.2596 112.462 63.328 112.625 63.4686 112.765C63.6092 112.902 63.8104 113.009 64.0721 113.087C64.3338 113.166 64.6385 113.205 64.9862 113.205C65.3299 113.205 65.6307 113.166 65.8885 113.087C66.1502 113.009 66.3514 112.902 66.492 112.765C66.6365 112.625 66.7088 112.462 66.7088 112.279C66.7088 112.091 66.6365 111.929 66.492 111.792C66.3514 111.652 66.1502 111.544 65.8885 111.47C65.6307 111.392 65.3299 111.353 64.9862 111.353ZM78.7807 119.966H77.7143V112.583H77.6674L75.6049 113.955V112.888L77.7143 111.482H78.7807V119.966ZM84.0197 120.083C83.3947 120.083 82.8596 119.914 82.4143 119.574C81.9729 119.234 81.635 118.738 81.4006 118.085C81.1701 117.433 81.0549 116.646 81.0549 115.724C81.0549 114.814 81.1721 114.033 81.4065 113.38C81.6408 112.724 81.9807 112.224 82.426 111.88C82.8713 111.537 83.4026 111.365 84.0197 111.365C84.6369 111.365 85.1682 111.537 85.6135 111.88C86.0588 112.224 86.3987 112.724 86.633 113.38C86.8674 114.033 86.9846 114.814 86.9846 115.724C86.9846 116.646 86.8674 117.433 86.633 118.085C86.4026 118.738 86.0647 119.234 85.6194 119.574C85.174 119.914 84.6408 120.083 84.0197 120.083ZM84.0197 119.146C84.426 119.146 84.7737 119.013 85.0627 118.748C85.3518 118.482 85.5725 118.093 85.7248 117.582C85.8772 117.07 85.9533 116.451 85.9533 115.724C85.9533 114.998 85.8772 114.376 85.7248 113.861C85.5725 113.345 85.3518 112.953 85.0627 112.683C84.7737 112.414 84.426 112.279 84.0197 112.279C83.6135 112.279 83.2639 112.414 82.9709 112.683C82.6819 112.953 82.4592 113.345 82.303 113.861C82.1506 114.376 82.0744 114.998 82.0744 115.724C82.0744 116.451 82.1506 117.07 82.303 117.582C82.4553 118.093 82.676 118.482 82.9651 118.748C83.258 119.013 83.6096 119.146 84.0197 119.146ZM91.169 110.884C91.6846 110.888 92.1455 110.988 92.5518 111.183C92.9619 111.378 93.2822 111.652 93.5127 112.003C93.7471 112.351 93.8643 112.748 93.8643 113.193C93.8643 113.638 93.7471 114.037 93.5127 114.388C93.2822 114.736 92.9619 115.007 92.5518 115.203C92.1455 115.394 91.6846 115.49 91.169 115.49C90.6455 115.49 90.1787 115.394 89.7686 115.203C89.3584 115.007 89.0381 114.736 88.8076 114.388C88.5772 114.037 88.4619 113.638 88.4619 113.193C88.4619 112.748 88.5772 112.351 88.8076 112.003C89.0381 111.652 89.3584 111.378 89.7686 111.183C90.1787 110.988 90.6455 110.888 91.169 110.884ZM91.169 111.658C90.8252 111.658 90.5147 111.724 90.2373 111.857C89.9639 111.986 89.749 112.167 89.5928 112.402C89.4365 112.632 89.3604 112.896 89.3643 113.193C89.3604 113.494 89.4365 113.761 89.5928 113.996C89.749 114.23 89.9639 114.414 90.2373 114.546C90.5147 114.675 90.8252 114.74 91.169 114.74C91.5088 114.74 91.8155 114.675 92.0889 114.546C92.3662 114.414 92.583 114.23 92.7393 113.996C92.8955 113.761 92.9737 113.494 92.9737 113.193C92.9737 112.896 92.8955 112.632 92.7393 112.402C92.583 112.167 92.3662 111.986 92.0889 111.857C91.8155 111.724 91.5088 111.658 91.169 111.658ZM96.8174 115.853H95.9033V110.498H96.8174V115.853ZM96.8174 118.865H90.9697V120.037H97.1924V120.775H90.0674V118.173H95.9033V117.095H90.044V116.357H96.8174V118.865ZM102.643 116.732C102.655 114.599 103.217 112.728 104.331 111.119H105.221C104.952 111.509 104.7 112.015 104.465 112.636C104.231 113.257 104.042 113.927 103.897 114.646C103.756 115.365 103.686 116.06 103.686 116.732C103.686 117.404 103.756 118.101 103.897 118.824C104.042 119.546 104.231 120.218 104.465 120.839C104.7 121.46 104.952 121.966 105.221 122.357H104.331C103.78 121.556 103.362 120.691 103.077 119.761C102.792 118.832 102.647 117.822 102.643 116.732ZM114.574 114.458H111.492V115.794H115.781V116.544H106.288V115.794H110.578V114.458H107.519V110.943H114.574V114.458ZM108.421 113.72H113.66V111.681H108.421V113.72ZM114.609 120.916H113.683V118.373H107.343V117.634H114.609V120.916ZM119.461 116.732C119.457 117.822 119.313 118.832 119.028 119.761C118.742 120.691 118.324 121.556 117.774 122.357H116.883C117.153 121.966 117.405 121.46 117.639 120.839C117.873 120.218 118.061 119.546 118.201 118.824C118.346 118.101 118.418 117.404 118.418 116.732C118.418 116.06 118.346 115.365 118.201 114.646C118.061 113.927 117.873 113.257 117.639 112.636C117.405 112.015 117.153 111.509 116.883 111.119H117.774C118.887 112.728 119.449 114.599 119.461 116.732Z" fill="#E8E4DC"/>
</g>
</g>
<g id="Button_2">
<path d="M148.583 90.9732C148.583 84.3457 153.955 78.9731 160.583 78.9731H240.14C246.768 78.9731 252.14 84.3457 252.14 90.9731V118.962C252.14 125.59 246.767 130.962 240.14 130.962H160.583C153.955 130.962 148.583 125.59 148.583 118.962V90.9732Z" fill="#4A7C59"/>
<g id="Container_5">
<path id="2&#236;&#157;&#188;&#236;&#176;&#168;" d="M185.069 102.065L188.446 98.5107C188.893 98.0413 189.233 97.6631 189.465 97.376C189.702 97.0843 189.88 96.804 189.998 96.5352C190.121 96.2617 190.183 95.9769 190.183 95.6807C190.183 95.3525 190.096 95.0609 189.923 94.8057C189.75 94.5505 189.513 94.3522 189.212 94.2109C188.916 94.0697 188.583 93.999 188.214 93.999C187.827 93.999 187.487 94.0765 187.195 94.2314C186.904 94.3864 186.678 94.6051 186.519 94.8877C186.364 95.1702 186.286 95.4938 186.286 95.8584H185.124C185.12 95.2842 185.252 94.776 185.521 94.334C185.794 93.8919 186.17 93.5479 186.649 93.3018C187.127 93.0557 187.663 92.9326 188.255 92.9326C188.843 92.9326 189.369 93.0534 189.834 93.2949C190.304 93.5365 190.67 93.8669 190.935 94.2861C191.199 94.7054 191.331 95.1702 191.331 95.6807C191.331 96.0589 191.263 96.4212 191.126 96.7676C190.989 97.1094 190.759 97.4899 190.436 97.9092C190.117 98.3239 189.659 98.8389 189.062 99.4541L186.792 101.792V101.874H191.509V102.968H185.083L185.069 102.065ZM196.308 92.3721C196.909 92.3766 197.447 92.4928 197.921 92.7207C198.4 92.9486 198.773 93.2676 199.042 93.6777C199.316 94.0833 199.452 94.5459 199.452 95.0654C199.452 95.585 199.316 96.0498 199.042 96.46C198.773 96.8656 198.4 97.1823 197.921 97.4102C197.447 97.6335 196.909 97.7451 196.308 97.7451C195.697 97.7451 195.153 97.6335 194.674 97.4102C194.195 97.1823 193.822 96.8656 193.553 96.46C193.284 96.0498 193.15 95.585 193.15 95.0654C193.15 94.5459 193.284 94.0833 193.553 93.6777C193.822 93.2676 194.195 92.9486 194.674 92.7207C195.153 92.4928 195.697 92.3766 196.308 92.3721ZM196.308 93.2744C195.907 93.2744 195.544 93.3519 195.221 93.5068C194.902 93.6572 194.651 93.8691 194.469 94.1426C194.287 94.4115 194.198 94.7191 194.202 95.0654C194.198 95.4163 194.287 95.7285 194.469 96.002C194.651 96.2754 194.902 96.4896 195.221 96.6445C195.544 96.7949 195.907 96.8701 196.308 96.8701C196.704 96.8701 197.062 96.7949 197.381 96.6445C197.705 96.4896 197.958 96.2754 198.14 96.002C198.322 95.7285 198.413 95.4163 198.413 95.0654C198.413 94.7191 198.322 94.4115 198.14 94.1426C197.958 93.8691 197.705 93.6572 197.381 93.5068C197.062 93.3519 196.704 93.2744 196.308 93.2744ZM202.898 98.1689H201.831V91.9209H202.898V98.1689ZM202.898 101.683H196.075V103.05H203.335V103.911H195.023V100.876H201.831V99.6182H194.995V98.7568H202.898V101.683ZM209.009 95.8857C209.009 96.5238 209.139 97.1595 209.399 97.793C209.658 98.4219 210.018 98.9893 210.479 99.4951C210.944 100.001 211.465 100.393 212.044 100.671L211.415 101.505C210.75 101.181 210.162 100.707 209.652 100.083C209.146 99.4541 208.765 98.7454 208.51 97.957C208.246 98.8001 207.845 99.5566 207.307 100.227C206.774 100.892 206.161 101.391 205.468 101.724L204.853 100.89C205.441 100.616 205.969 100.217 206.439 99.6934C206.913 99.1693 207.284 98.5768 207.553 97.916C207.826 97.2507 207.965 96.5739 207.97 95.8857V94.915H205.181V94.04H207.956V92.1533H209.036V94.04H211.771V94.915H209.009V95.8857ZM214.368 96.9111H216.405V97.8271H214.368V104.075H213.302V91.9209H214.368V96.9111Z" fill="#4A4845"/>
</g>
<g id="Container_6" opacity="0.8">
<path id="4&#236;&#155;&#148; 11&#236;&#157;&#188; (&#234;&#184;&#136;)" d="M165.594 117.365L169.414 111.482H170.715V117.306H171.899V118.232H170.715V119.966H169.707V118.232H165.594V117.365ZM169.707 117.306V112.818H169.602L166.731 117.236V117.306H169.707ZM181.708 116.65H180.782V116.076H178.673V115.466H180.782V110.509H181.708V116.65ZM173.868 114.435C176.302 114.435 178.321 114.349 179.927 114.177L179.986 114.775C179.064 114.908 178.025 115.003 176.868 115.062V116.685H175.966V115.097C175.118 115.117 174.388 115.126 173.775 115.126H173.189L173.083 114.435H173.868ZM181.708 119.181H175.626V120.119H182.048V120.798H174.724V118.537H180.794V117.693H174.677V117.025H181.708V119.181ZM176.482 110.708C176.993 110.708 177.445 110.773 177.835 110.902C178.226 111.031 178.529 111.214 178.743 111.453C178.958 111.687 179.068 111.962 179.071 112.279C179.068 112.599 178.958 112.876 178.743 113.111C178.529 113.345 178.226 113.525 177.835 113.65C177.448 113.775 176.997 113.837 176.482 113.837C175.958 113.837 175.501 113.775 175.111 113.65C174.724 113.525 174.423 113.345 174.208 113.111C173.997 112.876 173.892 112.599 173.892 112.279C173.892 111.962 173.997 111.687 174.208 111.453C174.423 111.214 174.726 111.031 175.116 110.902C175.507 110.773 175.962 110.708 176.482 110.708ZM176.482 111.353C176.134 111.353 175.829 111.392 175.568 111.47C175.306 111.544 175.105 111.652 174.964 111.792C174.823 111.929 174.755 112.091 174.759 112.279C174.755 112.462 174.823 112.625 174.964 112.765C175.105 112.902 175.306 113.009 175.568 113.087C175.829 113.166 176.134 113.205 176.482 113.205C176.825 113.205 177.126 113.166 177.384 113.087C177.646 113.009 177.847 112.902 177.987 112.765C178.132 112.625 178.204 112.462 178.204 112.279C178.204 112.091 178.132 111.929 177.987 111.792C177.847 111.652 177.646 111.544 177.384 111.47C177.126 111.392 176.825 111.353 176.482 111.353ZM190.276 119.966H189.21V112.583H189.163L187.1 113.955V112.888L189.21 111.482H190.276V119.966ZM195.738 119.966H194.671V112.583H194.625L192.562 113.955V112.888L194.671 111.482H195.738V119.966ZM200.778 110.884C201.293 110.888 201.754 110.988 202.161 111.183C202.571 111.378 202.891 111.652 203.121 112.003C203.356 112.351 203.473 112.748 203.473 113.193C203.473 113.638 203.356 114.037 203.121 114.388C202.891 114.736 202.571 115.007 202.161 115.203C201.754 115.394 201.293 115.49 200.778 115.49C200.254 115.49 199.787 115.394 199.377 115.203C198.967 115.007 198.647 114.736 198.416 114.388C198.186 114.037 198.071 113.638 198.071 113.193C198.071 112.748 198.186 112.351 198.416 112.003C198.647 111.652 198.967 111.378 199.377 111.183C199.787 110.988 200.254 110.888 200.778 110.884ZM200.778 111.658C200.434 111.658 200.123 111.724 199.846 111.857C199.573 111.986 199.358 112.167 199.202 112.402C199.045 112.632 198.969 112.896 198.973 113.193C198.969 113.494 199.045 113.761 199.202 113.996C199.358 114.23 199.573 114.414 199.846 114.546C200.123 114.675 200.434 114.74 200.778 114.74C201.118 114.74 201.424 114.675 201.698 114.546C201.975 114.414 202.192 114.23 202.348 113.996C202.504 113.761 202.582 113.494 202.582 113.193C202.582 112.896 202.504 112.632 202.348 112.402C202.192 112.167 201.975 111.986 201.698 111.857C201.424 111.724 201.118 111.658 200.778 111.658ZM206.426 115.853H205.512V110.498H206.426V115.853ZM206.426 118.865H200.579V120.037H206.801V120.775H199.676V118.173H205.512V117.095H199.653V116.357H206.426V118.865ZM212.252 116.732C212.264 114.599 212.826 112.728 213.939 111.119H214.83C214.561 111.509 214.309 112.015 214.074 112.636C213.84 113.257 213.65 113.927 213.506 114.646C213.365 115.365 213.295 116.06 213.295 116.732C213.295 117.404 213.365 118.101 213.506 118.824C213.65 119.546 213.84 120.218 214.074 120.839C214.309 121.46 214.561 121.966 214.83 122.357H213.939C213.389 121.556 212.971 120.691 212.686 119.761C212.4 118.832 212.256 117.822 212.252 116.732ZM224.182 111.833C224.182 112.396 224.167 112.904 224.136 113.357C224.104 113.806 224.028 114.318 223.907 114.892H225.436V115.654H215.897V114.892H222.981C223.106 114.314 223.184 113.8 223.216 113.351C223.251 112.902 223.268 112.396 223.268 111.833V111.822H217.104V111.06H224.182V111.833ZM224.229 120.775H217.069V117.095H224.229V120.775ZM217.983 120.025H223.315V117.822H217.983V120.025ZM229.07 116.732C229.066 117.822 228.921 118.832 228.636 119.761C228.351 120.691 227.933 121.556 227.382 122.357H226.492C226.761 121.966 227.013 121.46 227.248 120.839C227.482 120.218 227.67 119.546 227.81 118.824C227.955 118.101 228.027 117.404 228.027 116.732C228.027 116.06 227.955 115.365 227.81 114.646C227.67 113.927 227.482 113.257 227.248 112.636C227.013 112.015 226.761 111.509 226.492 111.119H227.382C228.496 112.728 229.058 114.599 229.07 116.732Z" fill="#4A4845"/>
</g>
</g>
<g id="Button_3">
<path d="M260.135 90.9732C260.135 84.3457 265.507 78.9731 272.135 78.9731H351.692C358.32 78.9731 363.692 84.3457 363.692 90.9731V118.962C363.692 125.59 358.319 130.962 351.692 130.962H272.135C265.507 130.962 260.135 125.59 260.135 118.962V90.9732Z" fill="#4A7C59"/>
<g id="Container_7">
<path id="3&#236;&#157;&#188;&#236;&#176;&#168;" d="M299.841 103.104C299.189 103.104 298.606 102.995 298.091 102.776C297.581 102.558 297.175 102.25 296.874 101.854C296.578 101.457 296.419 100.999 296.396 100.479H297.64C297.663 100.785 297.772 101.054 297.968 101.286C298.169 101.519 298.431 101.699 298.754 101.826C299.078 101.949 299.435 102.011 299.827 102.011C300.256 102.011 300.641 101.938 300.983 101.792C301.329 101.642 301.598 101.437 301.789 101.177C301.985 100.912 302.083 100.612 302.083 100.274C302.083 99.9098 301.988 99.5885 301.796 99.3105C301.609 99.0326 301.336 98.8161 300.976 98.6611C300.616 98.5062 300.183 98.4287 299.677 98.4287H298.87V97.3486H299.677C300.074 97.3486 300.427 97.278 300.737 97.1367C301.047 96.9954 301.286 96.7972 301.454 96.542C301.628 96.2868 301.714 95.9906 301.714 95.6533C301.714 95.3298 301.637 95.0426 301.482 94.792C301.331 94.5413 301.117 94.3477 300.839 94.2109C300.561 94.0697 300.238 93.999 299.868 93.999C299.513 93.999 299.18 94.0628 298.87 94.1904C298.56 94.318 298.308 94.5003 298.112 94.7373C297.916 94.9697 297.809 95.2432 297.79 95.5576H296.601C296.624 95.0472 296.783 94.5938 297.079 94.1973C297.376 93.7962 297.77 93.4863 298.262 93.2676C298.754 93.0443 299.294 92.9326 299.882 92.9326C300.493 92.9326 301.026 93.0534 301.482 93.2949C301.942 93.5319 302.295 93.8532 302.541 94.2588C302.787 94.6644 302.908 95.1064 302.904 95.585C302.908 96.141 302.76 96.6172 302.459 97.0137C302.158 97.4102 301.746 97.6813 301.222 97.8271V97.8955C301.646 97.9639 302.013 98.1074 302.323 98.3262C302.637 98.5404 302.876 98.8161 303.04 99.1533C303.209 99.486 303.291 99.8597 303.286 100.274C303.291 100.808 303.143 101.291 302.842 101.724C302.541 102.152 302.127 102.489 301.598 102.735C301.074 102.981 300.488 103.104 299.841 103.104ZM308.072 92.3721C308.673 92.3766 309.211 92.4928 309.685 92.7207C310.163 92.9486 310.537 93.2676 310.806 93.6777C311.079 94.0833 311.216 94.5459 311.216 95.0654C311.216 95.585 311.079 96.0498 310.806 96.46C310.537 96.8656 310.163 97.1823 309.685 97.4102C309.211 97.6335 308.673 97.7451 308.072 97.7451C307.461 97.7451 306.916 97.6335 306.438 97.4102C305.959 97.1823 305.586 96.8656 305.317 96.46C305.048 96.0498 304.913 95.585 304.913 95.0654C304.913 94.5459 305.048 94.0833 305.317 93.6777C305.586 93.2676 305.959 92.9486 306.438 92.7207C306.916 92.4928 307.461 92.3766 308.072 92.3721ZM308.072 93.2744C307.671 93.2744 307.308 93.3519 306.985 93.5068C306.666 93.6572 306.415 93.8691 306.233 94.1426C306.05 94.4115 305.962 94.7191 305.966 95.0654C305.962 95.4163 306.05 95.7285 306.233 96.002C306.415 96.2754 306.666 96.4896 306.985 96.6445C307.308 96.7949 307.671 96.8701 308.072 96.8701C308.468 96.8701 308.826 96.7949 309.145 96.6445C309.468 96.4896 309.721 96.2754 309.904 96.002C310.086 95.7285 310.177 95.4163 310.177 95.0654C310.177 94.7191 310.086 94.4115 309.904 94.1426C309.721 93.8691 309.468 93.6572 309.145 93.5068C308.826 93.3519 308.468 93.2744 308.072 93.2744ZM314.661 98.1689H313.595V91.9209H314.661V98.1689ZM314.661 101.683H307.839V103.05H315.099V103.911H306.786V100.876H313.595V99.6182H306.759V98.7568H314.661V101.683ZM320.773 95.8857C320.773 96.5238 320.903 97.1595 321.162 97.793C321.422 98.4219 321.782 98.9893 322.242 99.4951C322.707 100.001 323.229 100.393 323.808 100.671L323.179 101.505C322.514 101.181 321.926 100.707 321.415 100.083C320.909 99.4541 320.529 98.7454 320.274 97.957C320.009 98.8001 319.608 99.5566 319.071 100.227C318.537 100.892 317.924 101.391 317.232 101.724L316.616 100.89C317.204 100.616 317.733 100.217 318.202 99.6934C318.676 99.1693 319.048 98.5768 319.317 97.916C319.59 97.2507 319.729 96.5739 319.734 95.8857V94.915H316.945V94.04H319.72V92.1533H320.8V94.04H323.534V94.915H320.773V95.8857ZM326.132 96.9111H328.169V97.8271H326.132V104.075H325.066V91.9209H326.132V96.9111Z" fill="#4A4845"/>
</g>
<g id="Container_8" opacity="0.8">
<path id="4&#236;&#155;&#148; 12&#236;&#157;&#188; (&#237;&#134;&#160;)" d="M276.755 117.365L280.576 111.482H281.876V117.306H283.06V118.232H281.876V119.966H280.869V118.232H276.755V117.365ZM280.869 117.306V112.818H280.763L277.892 117.236V117.306H280.869ZM292.869 116.65H291.944V116.076H289.834V115.466H291.944V110.509H292.869V116.65ZM285.03 114.435C287.463 114.435 289.483 114.349 291.088 114.177L291.147 114.775C290.225 114.908 289.186 115.003 288.03 115.062V116.685H287.127V115.097C286.28 115.117 285.549 115.126 284.936 115.126H284.35L284.244 114.435H285.03ZM292.869 119.181H286.787V120.119H293.209V120.798H285.885V118.537H291.955V117.693H285.838V117.025H292.869V119.181ZM287.643 110.708C288.155 110.708 288.606 110.773 288.996 110.902C289.387 111.031 289.69 111.214 289.905 111.453C290.119 111.687 290.229 111.962 290.233 112.279C290.229 112.599 290.119 112.876 289.905 113.111C289.69 113.345 289.387 113.525 288.996 113.65C288.61 113.775 288.159 113.837 287.643 113.837C287.119 113.837 286.662 113.775 286.272 113.65C285.885 113.525 285.584 113.345 285.369 113.111C285.159 112.876 285.053 112.599 285.053 112.279C285.053 111.962 285.159 111.687 285.369 111.453C285.584 111.214 285.887 111.031 286.278 110.902C286.668 110.773 287.123 110.708 287.643 110.708ZM287.643 111.353C287.295 111.353 286.991 111.392 286.729 111.47C286.467 111.544 286.266 111.652 286.125 111.792C285.985 111.929 285.916 112.091 285.92 112.279C285.916 112.462 285.985 112.625 286.125 112.765C286.266 112.902 286.467 113.009 286.729 113.087C286.991 113.166 287.295 113.205 287.643 113.205C287.987 113.205 288.287 113.166 288.545 113.087C288.807 113.009 289.008 112.902 289.149 112.765C289.293 112.625 289.366 112.462 289.366 112.279C289.366 112.091 289.293 111.929 289.149 111.792C289.008 111.652 288.807 111.544 288.545 111.47C288.287 111.392 287.987 111.353 287.643 111.353ZM301.437 119.966H300.371V112.583H300.324L298.262 113.955V112.888L300.371 111.482H301.437V119.966ZM303.887 119.193L306.782 116.146C307.165 115.744 307.456 115.419 307.655 115.173C307.858 114.923 308.01 114.683 308.112 114.453C308.218 114.218 308.27 113.974 308.27 113.72C308.27 113.439 308.196 113.189 308.048 112.97C307.899 112.751 307.696 112.582 307.438 112.46C307.184 112.339 306.899 112.279 306.583 112.279C306.251 112.279 305.96 112.345 305.71 112.478C305.46 112.611 305.266 112.798 305.13 113.041C304.997 113.283 304.93 113.56 304.93 113.873H303.934C303.93 113.38 304.044 112.945 304.274 112.566C304.509 112.187 304.831 111.892 305.241 111.681C305.651 111.47 306.11 111.365 306.618 111.365C307.122 111.365 307.573 111.468 307.971 111.675C308.374 111.882 308.688 112.166 308.915 112.525C309.141 112.884 309.255 113.283 309.255 113.72C309.255 114.044 309.196 114.355 309.079 114.652C308.962 114.945 308.764 115.271 308.487 115.63C308.214 115.986 307.821 116.427 307.309 116.955L305.364 118.958V119.029H309.407V119.966H303.899L303.887 119.193ZM313.72 110.884C314.236 110.888 314.697 110.988 315.103 111.183C315.513 111.378 315.834 111.652 316.064 112.003C316.298 112.351 316.416 112.748 316.416 113.193C316.416 113.638 316.298 114.037 316.064 114.388C315.834 114.736 315.513 115.007 315.103 115.203C314.697 115.394 314.236 115.49 313.72 115.49C313.197 115.49 312.73 115.394 312.32 115.203C311.91 115.007 311.589 114.736 311.359 114.388C311.128 114.037 311.013 113.638 311.013 113.193C311.013 112.748 311.128 112.351 311.359 112.003C311.589 111.652 311.91 111.378 312.32 111.183C312.73 110.988 313.197 110.888 313.72 110.884ZM313.72 111.658C313.376 111.658 313.066 111.724 312.789 111.857C312.515 111.986 312.3 112.167 312.144 112.402C311.988 112.632 311.912 112.896 311.916 113.193C311.912 113.494 311.988 113.761 312.144 113.996C312.3 114.23 312.515 114.414 312.789 114.546C313.066 114.675 313.376 114.74 313.72 114.74C314.06 114.74 314.367 114.675 314.64 114.546C314.918 114.414 315.134 114.23 315.291 113.996C315.447 113.761 315.525 113.494 315.525 113.193C315.525 112.896 315.447 112.632 315.291 112.402C315.134 112.167 314.918 111.986 314.64 111.857C314.367 111.724 314.06 111.658 313.72 111.658ZM319.369 115.853H318.455V110.498H319.369V115.853ZM319.369 118.865H313.521V120.037H319.744V120.775H312.619V118.173H318.455V117.095H312.595V116.357H319.369V118.865ZM325.194 116.732C325.206 114.599 325.769 112.728 326.882 111.119H327.773C327.503 111.509 327.251 112.015 327.017 112.636C326.782 113.257 326.593 113.927 326.448 114.646C326.308 115.365 326.237 116.06 326.237 116.732C326.237 117.404 326.308 118.101 326.448 118.824C326.593 119.546 326.782 120.218 327.017 120.839C327.251 121.46 327.503 121.966 327.773 122.357H326.882C326.331 121.556 325.913 120.691 325.628 119.761C325.343 118.832 325.198 117.822 325.194 116.732ZM337.277 116.673H334.043V118.853H338.379V119.615H328.84V118.853H333.129V116.673H330.07V111.353H337.16V112.115H331.008V113.603H336.937V114.353H331.008V115.923H337.277V116.673ZM342.012 116.732C342.009 117.822 341.864 118.832 341.579 119.761C341.294 120.691 340.876 121.556 340.325 122.357H339.434C339.704 121.966 339.956 121.46 340.19 120.839C340.425 120.218 340.612 119.546 340.753 118.824C340.897 118.101 340.969 117.404 340.969 116.732C340.969 116.06 340.897 115.365 340.753 114.646C340.612 113.927 340.425 113.257 340.19 112.636C339.956 112.015 339.704 111.509 339.434 111.119H340.325C341.438 112.728 342.001 114.599 342.012 116.732Z" fill="#4A4845"/>
</g>
</g>
</g>
<g id="Container_9">
<g id="Container_10">
<g id="Text">
<path id="&#236;&#167;&#132;&#237;&#150;&#137; &#236;&#131;&#129;&#237;&#153;&#169;" d="M32.8672 154.516C32.8672 155.054 32.9993 155.571 33.2637 156.068C33.528 156.56 33.8971 156.993 34.3711 157.367C34.8451 157.736 35.3828 158.016 35.9844 158.208L35.4375 159.069C34.7266 158.827 34.1022 158.467 33.5645 157.989C33.0267 157.51 32.6211 156.95 32.3477 156.307C32.0833 157 31.6777 157.608 31.1309 158.132C30.5885 158.656 29.9551 159.051 29.2305 159.315L28.6699 158.454C29.2715 158.239 29.8092 157.932 30.2832 157.531C30.7572 157.13 31.1263 156.669 31.3906 156.15C31.6549 155.626 31.7871 155.081 31.7871 154.516V153.805H28.9434V152.93H35.6699V153.805H32.8672V154.516ZM38.5273 160.833H37.4609V151.918H38.5273V160.833ZM38.9102 163.799H30.6797V159.985H31.7461V162.897H38.9102V163.799ZM50.9141 159.602H49.8887V156.116H48.2617V159.165H47.25V152.151H48.2617V155.227H49.8887V151.905H50.9141V159.602ZM46.7578 154.229H40.5234V153.368H43.1211V152H44.1875V153.368H46.7578V154.229ZM43.6543 154.885C44.1647 154.885 44.6159 154.972 45.0078 155.145C45.4043 155.314 45.7119 155.555 45.9307 155.87C46.1494 156.18 46.2611 156.544 46.2656 156.963C46.2611 157.374 46.1494 157.736 45.9307 158.05C45.7119 158.36 45.4043 158.602 45.0078 158.775C44.6159 158.944 44.1647 159.028 43.6543 159.028C43.1484 159.028 42.6973 158.944 42.3008 158.775C41.9043 158.602 41.5967 158.36 41.3779 158.05C41.1592 157.736 41.0521 157.374 41.0566 156.963C41.0521 156.549 41.1592 156.184 41.3779 155.87C41.5967 155.555 41.902 155.314 42.2939 155.145C42.6904 154.972 43.1439 154.885 43.6543 154.885ZM43.6543 155.678C43.3353 155.678 43.0505 155.733 42.7998 155.842C42.5537 155.947 42.36 156.097 42.2188 156.293C42.082 156.489 42.0137 156.713 42.0137 156.963C42.0137 157.209 42.082 157.428 42.2188 157.62C42.36 157.811 42.5537 157.959 42.7998 158.064C43.0505 158.169 43.3353 158.221 43.6543 158.221C43.9733 158.221 44.2559 158.169 44.502 158.064C44.7526 157.959 44.9463 157.811 45.083 157.62C45.2243 157.428 45.2949 157.209 45.2949 156.963C45.2949 156.713 45.2243 156.489 45.083 156.293C44.9463 156.097 44.7526 155.947 44.502 155.842C44.2559 155.733 43.9733 155.678 43.6543 155.678ZM46.8945 159.807C47.7467 159.807 48.4782 159.891 49.0889 160.06C49.6995 160.224 50.1667 160.466 50.4902 160.785C50.8184 161.104 50.9824 161.489 50.9824 161.94C50.9824 162.377 50.8184 162.753 50.4902 163.068C50.1667 163.382 49.6973 163.622 49.082 163.786C48.4714 163.95 47.7422 164.032 46.8945 164.032C46.0469 164.032 45.3154 163.95 44.7002 163.786C44.0895 163.622 43.6224 163.382 43.2988 163.068C42.9753 162.753 42.8158 162.377 42.8203 161.94C42.8158 161.489 42.9753 161.104 43.2988 160.785C43.6224 160.466 44.0895 160.224 44.7002 160.06C45.3109 159.891 46.0423 159.807 46.8945 159.807ZM46.8945 160.655C46.2656 160.65 45.7256 160.698 45.2744 160.798C44.8232 160.894 44.4769 161.04 44.2354 161.236C43.9984 161.432 43.8822 161.667 43.8867 161.94C43.8822 162.204 43.9984 162.43 44.2354 162.617C44.4769 162.804 44.8232 162.947 45.2744 163.047C45.7301 163.148 46.2702 163.198 46.8945 163.198C47.5189 163.198 48.0566 163.148 48.5078 163.047C48.959 162.947 49.3053 162.804 49.5469 162.617C49.7884 162.43 49.9115 162.204 49.916 161.94C49.9115 161.525 49.6426 161.206 49.1094 160.983C48.5807 160.755 47.8424 160.646 46.8945 160.655ZM60.2656 153.874C60.2656 154.416 60.3932 154.94 60.6484 155.446C60.9082 155.947 61.266 156.389 61.7217 156.772C62.182 157.155 62.7038 157.446 63.2871 157.647L62.6992 158.495C62.0293 158.249 61.4391 157.886 60.9287 157.408C60.4183 156.925 60.0286 156.366 59.7598 155.733C59.5 156.453 59.1081 157.082 58.584 157.62C58.0599 158.157 57.4447 158.563 56.7383 158.836L56.1641 157.975C56.7656 157.747 57.2943 157.424 57.75 157.004C58.2103 156.585 58.568 156.1 58.8232 155.548C59.0785 154.992 59.2083 154.407 59.2129 153.792V152.534H60.2656V153.874ZM65.707 155.077H67.5391V155.979H65.707V159.301H64.6406V151.905H65.707V155.077ZM61.8105 159.616C62.64 159.616 63.3555 159.702 63.957 159.875C64.5586 160.049 65.0189 160.302 65.3379 160.634C65.6569 160.962 65.8164 161.357 65.8164 161.817C65.8164 162.286 65.6569 162.687 65.3379 163.02C65.0189 163.353 64.5586 163.603 63.957 163.772C63.36 163.945 62.6445 164.032 61.8105 164.032C60.9766 164.032 60.2565 163.945 59.6504 163.772C59.0488 163.599 58.5863 163.346 58.2627 163.013C57.9391 162.685 57.7773 162.286 57.7773 161.817C57.7773 161.357 57.9391 160.962 58.2627 160.634C58.5863 160.302 59.0511 160.049 59.6572 159.875C60.2633 159.702 60.9811 159.616 61.8105 159.616ZM61.8105 160.477C61.2044 160.477 60.6781 160.532 60.2314 160.641C59.7848 160.746 59.443 160.901 59.2061 161.106C58.9691 161.306 58.8529 161.543 58.8574 161.817C58.8529 162.099 58.9691 162.343 59.2061 162.548C59.443 162.753 59.7826 162.908 60.2246 163.013C60.6712 163.123 61.1999 163.18 61.8105 163.184C62.7402 163.175 63.4671 163.052 63.9912 162.815C64.5153 162.578 64.7773 162.245 64.7773 161.817C64.7773 161.539 64.6589 161.3 64.4219 161.099C64.1849 160.899 63.8431 160.746 63.3965 160.641C62.9499 160.532 62.4212 160.477 61.8105 160.477ZM77.793 155.583H79.6113V156.485H77.793V160.163H76.7129V151.918H77.793V155.583ZM73.8691 160.313C74.7122 160.308 75.4323 160.379 76.0293 160.525C76.6263 160.666 77.082 160.878 77.3965 161.161C77.7109 161.443 77.8704 161.785 77.875 162.186C77.8704 162.788 77.5195 163.248 76.8223 163.567C76.1296 163.886 75.1452 164.05 73.8691 164.059C72.5885 164.05 71.6019 163.886 70.9092 163.567C70.221 163.248 69.877 162.788 69.877 162.186C69.877 161.78 70.0319 161.439 70.3418 161.161C70.6562 160.878 71.112 160.666 71.709 160.525C72.306 160.379 73.026 160.308 73.8691 160.313ZM73.8691 161.12C72.9349 161.115 72.2126 161.206 71.7021 161.393C71.1963 161.58 70.9479 161.844 70.957 162.186C70.9479 162.514 71.1986 162.772 71.709 162.958C72.2194 163.145 72.9395 163.239 73.8691 163.239C74.7943 163.239 75.5098 163.145 76.0156 162.958C76.526 162.772 76.7812 162.514 76.7812 162.186C76.7812 161.844 76.526 161.58 76.0156 161.393C75.5098 161.206 74.7943 161.115 73.8691 161.12ZM68.25 158.741C69.4987 158.741 70.597 158.727 71.5449 158.7V157.736C71.071 157.695 70.6585 157.599 70.3076 157.449C69.9613 157.298 69.6924 157.102 69.501 156.861C69.3141 156.615 69.2207 156.334 69.2207 156.02C69.2207 155.665 69.3369 155.357 69.5693 155.097C69.8018 154.837 70.1322 154.639 70.5605 154.502C70.9889 154.366 71.4902 154.297 72.0645 154.297C72.6432 154.297 73.1445 154.366 73.5684 154.502C73.9967 154.639 74.3271 154.837 74.5596 155.097C74.7965 155.357 74.9173 155.665 74.9219 156.02C74.9173 156.494 74.71 156.884 74.2998 157.189C73.8896 157.49 73.3268 157.672 72.6113 157.736V158.652C73.8965 158.588 75.013 158.49 75.9609 158.358L76.0566 159.11C74.8945 159.31 73.68 159.443 72.4131 159.506C71.1507 159.57 69.804 159.602 68.373 159.602L68.25 158.741ZM75.5918 153.792H68.5508V152.958H71.5449V151.809H72.6113V152.958H75.5918V153.792ZM72.0645 155.049C71.5085 155.049 71.0664 155.138 70.7383 155.316C70.4102 155.489 70.2461 155.724 70.2461 156.02C70.2461 156.325 70.4079 156.567 70.7314 156.745C71.0596 156.918 71.5039 157.004 72.0645 157.004C72.6296 157.004 73.0762 156.918 73.4043 156.745C73.7324 156.567 73.8965 156.325 73.8965 156.02C73.8965 155.824 73.8213 155.653 73.6709 155.507C73.5205 155.361 73.3063 155.25 73.0283 155.172C72.7549 155.09 72.4336 155.049 72.0645 155.049Z" fill="#E8E4DC"/>
</g>
<g id="Text_2">
<path id="2 / 6" d="M342.817 162.049L346.194 158.495C346.641 158.025 346.98 157.647 347.213 157.36C347.45 157.068 347.628 156.788 347.746 156.519C347.869 156.246 347.931 155.961 347.931 155.665C347.931 155.336 347.844 155.045 347.671 154.79C347.498 154.534 347.261 154.336 346.96 154.195C346.664 154.054 346.331 153.983 345.962 153.983C345.575 153.983 345.235 154.06 344.943 154.215C344.652 154.37 344.426 154.589 344.267 154.872C344.112 155.154 344.034 155.478 344.034 155.842H342.872C342.868 155.268 343 154.76 343.269 154.318C343.542 153.876 343.918 153.532 344.396 153.286C344.875 153.04 345.41 152.917 346.003 152.917C346.591 152.917 347.117 153.037 347.582 153.279C348.051 153.52 348.418 153.851 348.683 154.27C348.947 154.689 349.079 155.154 349.079 155.665C349.079 156.043 349.011 156.405 348.874 156.751C348.737 157.093 348.507 157.474 348.184 157.893C347.865 158.308 347.407 158.823 346.81 159.438L344.54 161.776V161.858H349.257V162.952H342.831L342.817 162.049ZM354.903 164.442H353.837L357.022 152.588H358.103L354.903 164.442ZM366.224 163.088C365.586 163.088 364.993 162.945 364.446 162.658C363.904 162.366 363.457 161.872 363.106 161.174C362.76 160.472 362.587 159.543 362.587 158.385C362.587 157.232 362.737 156.246 363.038 155.425C363.343 154.605 363.776 153.983 364.337 153.559C364.902 153.131 365.572 152.917 366.347 152.917C366.916 152.917 367.427 153.026 367.878 153.245C368.334 153.463 368.705 153.771 368.992 154.167C369.284 154.564 369.473 155.022 369.56 155.542H368.343C368.22 155.081 367.987 154.712 367.646 154.434C367.308 154.152 366.875 154.01 366.347 154.01C365.809 154.01 365.344 154.161 364.952 154.461C364.565 154.758 364.266 155.188 364.057 155.753C363.852 156.319 363.749 156.995 363.749 157.784H363.872C364.164 157.369 364.528 157.048 364.966 156.82C365.403 156.587 365.886 156.471 366.415 156.471C366.998 156.471 367.536 156.612 368.028 156.895C368.525 157.178 368.917 157.569 369.204 158.071C369.496 158.568 369.642 159.128 369.642 159.752C369.642 160.368 369.498 160.931 369.211 161.441C368.928 161.947 368.527 162.348 368.008 162.644C367.488 162.94 366.894 163.088 366.224 163.088ZM366.196 162.008C366.616 162.008 366.996 161.908 367.338 161.708C367.68 161.507 367.949 161.236 368.145 160.894C368.345 160.548 368.448 160.172 368.452 159.766C368.448 159.361 368.35 158.989 368.158 158.652C367.967 158.315 367.702 158.048 367.365 157.852C367.028 157.652 366.647 157.551 366.224 157.551C365.8 157.551 365.412 157.654 365.062 157.859C364.711 158.064 364.433 158.34 364.228 158.686C364.022 159.028 363.918 159.392 363.913 159.78C363.913 160.167 364.011 160.532 364.207 160.874C364.408 161.215 364.681 161.491 365.027 161.701C365.378 161.906 365.768 162.008 366.196 162.008Z" fill="#E8E4DC"/>
</g>
</g>
<g id="Container_11">
<g clip-path="url(#clip1_48_2085)">
<path d="M28 178.942C28 176.735 29.7897 174.945 31.9974 174.945H368.726C370.933 174.945 372.723 176.735 372.723 178.942C372.723 181.15 370.933 182.94 368.726 182.94H31.9974C29.7897 182.94 28 181.15 28 178.942Z" fill="white" fill-opacity="0.2"/>
<g id="Container_12">
<rect width="114.898" height="7.99472" transform="translate(28 174.945)" fill="#E8E4DC"/>
</g>
</g>
</g>
</g>
</g>
<defs>
<filter id="filter0_d_48_2085" x="0" y="0" width="400.723" height="211.936" filterUnits="userSpaceOnUse" color-interpolation-filters="sRGB">
<feFlood flood-opacity="0" result="BackgroundImageFix"/>
<feColorMatrix in="SourceAlpha" type="matrix" values="0 0 0 0 0 0 0 0 0 0 0 0 0 0 0 0 0 0 127 0" result="hardAlpha"/>
<feOffset dy="1"/>
<feGaussianBlur stdDeviation="2"/>
<feColorMatrix type="matrix" values="0 0 0 0 0 0 0 0 0 0 0 0 0 0 0 0 0 0 0.2 0"/>
<feBlend mode="normal" in2="BackgroundImageFix" result="effect1_dropShadow_48_2085"/>
<feBlend mode="normal" in="SourceGraphic" in2="effect1_dropShadow_48_2085" result="shape"/>
</filter>
<clipPath id="clip0_48_2085">
<rect width="326.661" height="51.989" fill="white" transform="translate(37.0308 78.9731)"/>
</clipPath>
<clipPath id="clip1_48_2085">
<path d="M28 178.942C28 176.735 29.7897 174.945 31.9974 174.945H368.726C370.933 174.945 372.723 176.735 372.723 178.942C372.723 181.15 370.933 182.94 368.726 182.94H31.9974C29.7897 182.94 28 181.15 28 178.942Z" fill="white"/>
</clipPath>
</defs>
</svg>
