<svg width="60" height="60" viewBox="0 0 60 60" fill="none" xmlns="http://www.w3.org/2000/svg">
<g id="Property 1=Dark" filter="url(#filter0_dd_48_506)">
<path d="M8 22C8 13.1634 15.1634 6 24 6H36C44.8366 6 52 13.1634 52 22V34C52 42.8366 44.8366 50 36 50H24C15.1634 50 8 42.8366 8 34V22Z" fill="#5E9E72"/>
<path d="M24 6.5H36C44.5604 6.5 51.5 13.4396 51.5 22V34C51.5 42.5604 44.5604 49.5 36 49.5H24C15.4396 49.5 8.5 42.5604 8.5 34V22C8.5 13.4396 15.4396 6.5 24 6.5Z" stroke="#373F3B"/>
<g id="Icon" clip-path="url(#clip0_48_506)">
<path id="Vector" d="M32.1133 36.0716C32.145 36.1505 32.2 36.2179 32.2711 36.2646C32.3421 36.3113 32.4257 36.3352 32.5107 36.333C32.5957 36.3308 32.678 36.3027 32.7465 36.2524C32.8151 36.2021 32.8666 36.1321 32.8942 36.0516L38.3108 20.2183C38.3375 20.1445 38.3426 20.0646 38.3255 19.9879C38.3084 19.9113 38.2699 19.8411 38.2144 19.7856C38.1588 19.7301 38.0887 19.6915 38.012 19.6745C37.9354 19.6574 37.8555 19.6625 37.7817 19.6891L21.9483 25.1058C21.8679 25.1334 21.7979 25.1849 21.7476 25.2534C21.6973 25.322 21.6692 25.4043 21.667 25.4893C21.6648 25.5743 21.6887 25.6579 21.7354 25.7289C21.7821 25.7999 21.8494 25.855 21.9283 25.8866L28.5367 28.5366C28.7456 28.6203 28.9354 28.7453 29.0946 28.9043C29.2539 29.0633 29.3793 29.2529 29.4633 29.4616L32.1133 36.0716Z" stroke="#E8E4DC" stroke-width="1.66654" stroke-linecap="round" stroke-linejoin="round"/>
<path id="Vector_2" d="M38.2117 19.7891L29.095 28.9042" stroke="#E8E4DC" stroke-width="1.66654" stroke-linecap="round" stroke-linejoin="round"/>
</g>
</g>
<defs>
<filter id="filter0_dd_48_506" x="0" y="0" width="60" height="60" filterUnits="userSpaceOnUse" color-interpolation-filters="sRGB">
<feFlood flood-opacity="0" result="BackgroundImageFix"/>
<feColorMatrix in="SourceAlpha" type="matrix" values="0 0 0 0 0 0 0 0 0 0 0 0 0 0 0 0 0 0 127 0" result="hardAlpha"/>
<feOffset dy="2"/>
<feGaussianBlur stdDeviation="4"/>
<feColorMatrix type="matrix" values="0 0 0 0 0 0 0 0 0 0 0 0 0 0 0 0 0 0 0.3 0"/>
<feBlend mode="normal" in2="BackgroundImageFix" result="effect1_dropShadow_48_506"/>
<feColorMatrix in="SourceAlpha" type="matrix" values="0 0 0 0 0 0 0 0 0 0 0 0 0 0 0 0 0 0 127 0" result="hardAlpha"/>
<feOffset dy="1"/>
<feGaussianBlur stdDeviation="1"/>
<feColorMatrix type="matrix" values="0 0 0 0 0 0 0 0 0 0 0 0 0 0 0 0 0 0 0.15 0"/>
<feBlend mode="normal" in2="effect1_dropShadow_48_506" result="effect2_dropShadow_48_506"/>
<feBlend mode="normal" in="SourceGraphic" in2="effect2_dropShadow_48_506" result="shape"/>
</filter>
<clipPath id="clip0_48_506">
<rect width="20" height="20" fill="white" transform="translate(20 18)"/>
</clipPath>
</defs>
</svg>
