<svg width="44" height="44" viewBox="0 0 44 44" fill="none" xmlns="http://www.w3.org/2000/svg">
<g id="Property 1=Light">
<path d="M16 0.5H28C36.5604 0.5 43.5 7.43959 43.5 16V28C43.5 36.5604 36.5604 43.5 28 43.5H16C7.43959 43.5 0.5 36.5604 0.5 28V16C0.5 7.43959 7.43959 0.5 16 0.5Z" fill="#EDEAE3"/>
<path d="M16 0.5H28C36.5604 0.5 43.5 7.43959 43.5 16V28C43.5 36.5604 36.5604 43.5 28 43.5H16C7.43959 43.5 0.5 36.5604 0.5 28V16C0.5 7.43959 7.43959 0.5 16 0.5Z" stroke="#E2DDD5"/>
<g id="Icon" clip-path="url(#clip0_48_525)">
<path id="Vector" d="M24.1133 30.0716C24.145 30.1505 24.2 30.2179 24.2711 30.2646C24.3421 30.3113 24.4257 30.3352 24.5107 30.333C24.5957 30.3308 24.678 30.3027 24.7465 30.2524C24.8151 30.2021 24.8666 30.1321 24.8942 30.0516L30.3108 14.2183C30.3375 14.1445 30.3426 14.0646 30.3255 13.9879C30.3084 13.9113 30.2699 13.8411 30.2144 13.7856C30.1588 13.7301 30.0887 13.6915 30.012 13.6745C29.9354 13.6574 29.8555 13.6625 29.7817 13.6891L13.9483 19.1058C13.8679 19.1334 13.7979 19.1849 13.7476 19.2534C13.6973 19.322 13.6692 19.4043 13.667 19.4893C13.6648 19.5743 13.6887 19.6579 13.7354 19.7289C13.7821 19.7999 13.8494 19.855 13.9283 19.8866L20.5367 22.5366C20.7456 22.6203 20.9354 22.7453 21.0946 22.9043C21.2539 23.0633 21.3793 23.2529 21.4633 23.4616L24.1133 30.0716Z" stroke="#888882" stroke-width="1.66654" stroke-linecap="round" stroke-linejoin="round"/>
<path id="Vector_2" d="M30.2117 13.7891L21.095 22.9042" stroke="#888882" stroke-width="1.66654" stroke-linecap="round" stroke-linejoin="round"/>
</g>
</g>
<defs>
<clipPath id="clip0_48_525">
<rect width="20" height="20" fill="white" transform="translate(12 12)"/>
</clipPath>
</defs>
</svg>
