<svg width="146" height="52" viewBox="0 0 146 52" fill="none" xmlns="http://www.w3.org/2000/svg">
<g id="Property 1=Light" filter="url(#filter0_dd_156_4589)">
<g id="Frame 144">
<path d="M24 6.5H122C130.56 6.5 137.5 13.4396 137.5 22V26C137.5 34.5604 130.56 41.5 122 41.5H24C15.4396 41.5 8.5 34.5604 8.5 26V22C8.5 13.4396 15.4396 6.5 24 6.5Z" fill="#4A7C59"/>
<path d="M24 6.5H122C130.56 6.5 137.5 13.4396 137.5 22V26C137.5 34.5604 130.56 41.5 122 41.5H24C15.4396 41.5 8.5 34.5604 8.5 26V22C8.5 13.4396 15.4396 6.5 24 6.5Z" stroke="#3B6347"/>
<path id="+ &#236;&#131;&#136; &#236;&#151;&#172;&#237;&#150;&#137; &#235;&#167;&#140;&#235;&#147;&#164;&#234;&#184;&#176;" d="M28.0073 24.6348H25.2681V22.8037H28.0073V20.0645H29.8384V22.8037H32.5776V24.6348H29.8384V27.374H28.0073V24.6348ZM42.0112 20.3281C42.0112 21.5781 42.2065 22.6816 42.5972 23.6387C42.9927 24.5957 43.6323 25.3086 44.5161 25.7773L43.4175 27.2568C42.3286 26.666 41.5474 25.6553 41.0737 24.2246C40.8247 24.9912 40.4951 25.6675 40.085 26.2534C39.6748 26.8345 39.1792 27.3008 38.5981 27.6523L37.4263 26.29C38.3687 25.7236 39.062 24.9204 39.5063 23.8804C39.9556 22.8354 40.1851 21.6953 40.1948 20.46V18.1602H42.0112V20.3281ZM49.2329 30.3477H47.4458V23.7119H46.2886V29.7324H44.5308V17.208H46.2886V22.2178H47.4458V17.0176H49.2329V30.3477ZM57.7729 17.9551C58.3687 17.9551 58.9058 18.1113 59.3843 18.4238C59.8677 18.7363 60.2632 19.1807 60.5708 19.7568H63.5005V17.0176H65.3462V30.377H63.5005V25.3818H60.71C60.4121 26.0459 60.0068 26.5586 59.4941 26.9199C58.9863 27.2812 58.4126 27.4619 57.7729 27.4619C57.0991 27.4619 56.4985 27.269 55.9712 26.8833C55.4487 26.4927 55.041 25.9385 54.748 25.2207C54.4551 24.498 54.311 23.6582 54.3159 22.7012C54.311 21.749 54.4551 20.9165 54.748 20.2036C55.041 19.4858 55.4487 18.9316 55.9712 18.541C56.4985 18.1504 57.0991 17.9551 57.7729 17.9551ZM57.7729 19.6396C57.4409 19.6396 57.1479 19.7593 56.894 19.9985C56.6401 20.2329 56.4424 20.582 56.3008 21.0459C56.1641 21.5049 56.0981 22.0566 56.103 22.7012C56.0981 23.3506 56.1641 23.9048 56.3008 24.3638C56.4424 24.8228 56.6377 25.1719 56.8867 25.4111C57.1406 25.6455 57.436 25.7627 57.7729 25.7627C58.1099 25.7627 58.4028 25.6455 58.6519 25.4111C58.9058 25.1768 59.1011 24.8301 59.2378 24.3711C59.3745 23.9121 59.4429 23.3555 59.4429 22.7012C59.4429 22.0518 59.3745 21.4976 59.2378 21.0386C59.1011 20.5796 58.9058 20.2329 58.6519 19.9985C58.4028 19.7593 58.1099 19.6396 57.7729 19.6396ZM61.0908 21.2656C61.1836 21.7295 61.23 22.208 61.23 22.7012C61.23 23.0674 61.2007 23.4629 61.1421 23.8877H63.5005V21.2656H61.0908ZM78.5151 25.3818H76.7427V21.8369H75.6733V24.9424H73.9302V17.2666H75.6733V20.3135H76.7427V17.0176H78.5151V25.3818ZM73.5347 19.8447H66.9868V18.3945H69.3452V17.1348H71.2056V18.3945H73.5347V19.8447ZM70.2827 20.2842C70.8442 20.2842 71.3447 20.3818 71.7842 20.5771C72.2236 20.7725 72.5679 21.0459 72.8169 21.3975C73.0659 21.749 73.1929 22.1543 73.1978 22.6133C73.1929 23.0674 73.0659 23.4702 72.8169 23.8218C72.5679 24.1685 72.2236 24.4395 71.7842 24.6348C71.3447 24.8301 70.8442 24.9277 70.2827 24.9277C69.731 24.9277 69.2354 24.8301 68.7959 24.6348C68.3564 24.4395 68.0122 24.1685 67.7632 23.8218C67.519 23.4702 67.397 23.0674 67.397 22.6133C67.397 22.1592 67.519 21.7563 67.7632 21.4048C68.0122 21.0483 68.3564 20.7725 68.7959 20.5771C69.2354 20.3818 69.731 20.2842 70.2827 20.2842ZM70.2827 21.6318C69.9116 21.6318 69.6162 21.7197 69.3965 21.8955C69.1768 22.0713 69.0669 22.3105 69.0669 22.6133C69.0669 22.9209 69.1768 23.165 69.3965 23.3457C69.6211 23.5215 69.9165 23.6045 70.2827 23.5947C70.6489 23.6045 70.9443 23.5215 71.1689 23.3457C71.3936 23.165 71.5083 22.9209 71.5132 22.6133C71.5083 22.3057 71.3936 22.0664 71.1689 21.8955C70.9492 21.7197 70.6538 21.6318 70.2827 21.6318ZM73.9595 25.499C74.9214 25.499 75.7466 25.5942 76.4351 25.7847C77.1284 25.9751 77.6582 26.2534 78.0244 26.6196C78.3955 26.981 78.5835 27.418 78.5884 27.9307C78.5835 28.4385 78.3955 28.873 78.0244 29.2344C77.6582 29.5957 77.1284 29.8716 76.4351 30.062C75.7417 30.2524 74.9165 30.3477 73.9595 30.3477C73.0024 30.3477 72.1772 30.2524 71.4839 30.062C70.7954 29.8716 70.2656 29.5957 69.8945 29.2344C69.5283 28.873 69.3452 28.4385 69.3452 27.9307C69.3452 27.418 69.5283 26.981 69.8945 26.6196C70.2656 26.2534 70.7954 25.9751 71.4839 25.7847C72.1772 25.5942 73.0024 25.499 73.9595 25.499ZM73.9595 26.9053C72.1187 26.9053 71.2056 27.2471 71.2202 27.9307C71.2153 28.2676 71.4448 28.5215 71.9087 28.6924C72.3726 28.8584 73.0562 28.9414 73.9595 28.9414C75.7856 28.9414 76.6987 28.6045 76.6987 27.9307C76.6987 27.584 76.4717 27.3276 76.0176 27.1616C75.5635 26.9907 74.8774 26.9053 73.9595 26.9053ZM90.2778 24.5176H83.8765V18.1162H90.2778V24.5176ZM85.7222 23.0527H88.4321V19.6104H85.7222V23.0527ZM94.0571 20.8555H95.8589V22.3936H94.0571V26.7441H92.1821V17.0176H94.0571V20.8555ZM94.5405 30.1133H85.4146V25.792H87.2749V28.6191H94.5405V30.1133ZM108.632 23.6826H96.4448V22.2178H108.632V23.6826ZM107.182 21.4854H97.9683V17.2812H107.08V18.7754H99.8286V20.0205H107.182V21.4854ZM107.124 27.96H99.6968V28.7803H107.475V30.2305H97.8657V26.627H105.278V25.8799H97.8511V24.4736H107.124V27.96ZM120.615 30.3477H118.725V17.0176H120.615V30.3477ZM116.616 18.4092C116.616 19.835 116.423 21.1313 116.037 22.2983C115.656 23.4653 115.012 24.5371 114.104 25.5137C113.195 26.4854 111.972 27.335 110.434 28.0625L109.453 26.5684C110.59 26.0312 111.528 25.4331 112.265 24.7739C113.007 24.1147 113.574 23.3848 113.964 22.584C114.36 21.7783 114.609 20.875 114.711 19.874H110.17V18.4092H116.616Z" fill="#FAFAF7"/>
</g>
</g>
<defs>
<filter id="filter0_dd_156_4589" x="0" y="0" width="146" height="52" filterUnits="userSpaceOnUse" color-interpolation-filters="sRGB">
<feFlood flood-opacity="0" result="BackgroundImageFix"/>
<feColorMatrix in="SourceAlpha" type="matrix" values="0 0 0 0 0 0 0 0 0 0 0 0 0 0 0 0 0 0 127 0" result="hardAlpha"/>
<feOffset dy="2"/>
<feGaussianBlur stdDeviation="4"/>
<feColorMatrix type="matrix" values="0 0 0 0 0.118 0 0 0 0 0.157 0 0 0 0 0.133 0 0 0 0.09 0"/>
<feBlend mode="normal" in2="BackgroundImageFix" result="effect1_dropShadow_156_4589"/>
<feColorMatrix in="SourceAlpha" type="matrix" values="0 0 0 0 0 0 0 0 0 0 0 0 0 0 0 0 0 0 127 0" result="hardAlpha"/>
<feOffset dy="1"/>
<feGaussianBlur stdDeviation="1"/>
<feColorMatrix type="matrix" values="0 0 0 0 0.118 0 0 0 0 0.157 0 0 0 0 0.133 0 0 0 0.04 0"/>
<feBlend mode="normal" in2="effect1_dropShadow_156_4589" result="effect2_dropShadow_156_4589"/>
<feBlend mode="normal" in="SourceGraphic" in2="effect2_dropShadow_156_4589" result="shape"/>
</filter>
</defs>
</svg>
