<svg width="146" height="52" viewBox="0 0 146 52" fill="none" xmlns="http://www.w3.org/2000/svg">
<g id="Property 1=Dark" filter="url(#filter0_dd_156_4591)">
<g id="Frame 143">
<path d="M24 6.5H122C130.56 6.5 137.5 13.4396 137.5 22V26C137.5 34.5604 130.56 41.5 122 41.5H24C15.4396 41.5 8.5 34.5604 8.5 26V22C8.5 13.4396 15.4396 6.5 24 6.5Z" fill="#5E9E72"/>
<path d="M24 6.5H122C130.56 6.5 137.5 13.4396 137.5 22V26C137.5 34.5604 130.56 41.5 122 41.5H24C15.4396 41.5 8.5 34.5604 8.5 26V22C8.5 13.4396 15.4396 6.5 24 6.5Z" stroke="#4A7C59"/>
<path id="+ &#236;&#131;&#136; &#236;&#151;&#172;&#237;&#150;&#137; &#235;&#167;&#140;&#235;&#147;&#164;&#234;&#184;&#176;" d="M26.3109 24.7188H23.3578V22.9844H26.3109V20.0312H28.0297V22.9844H30.9984V24.7188H28.0297V27.6719H26.3109V24.7188ZM40.4609 20.4375C40.4609 21.2604 40.5573 22.0443 40.75 22.7891C40.9479 23.5339 41.2526 24.2031 41.6641 24.7969C42.0755 25.3854 42.5964 25.849 43.2266 26.1875L42.1953 27.5625C41.5755 27.2188 41.0495 26.7526 40.6172 26.1641C40.1901 25.5755 39.8542 24.8932 39.6094 24.1172C39.3437 24.9714 38.9792 25.7292 38.5156 26.3906C38.0573 27.0469 37.5078 27.5677 36.8672 27.9531L35.7578 26.6875C36.4245 26.2969 36.9844 25.776 37.4375 25.125C37.8906 24.474 38.2266 23.7552 38.4453 22.9688C38.6641 22.1823 38.7734 21.375 38.7734 20.5469V18.0156H40.4609V20.4375ZM48.1797 30.8906H46.5078V23.7344H45.0547V30.2031H43.4141V17.0156H45.0547V22.3281H46.5078V16.7656H48.1797V30.8906ZM56.8766 17.7969C57.512 17.7969 58.0849 17.9661 58.5953 18.3047C59.1109 18.6432 59.5276 19.125 59.8453 19.75H63.1422V16.7656H64.8609V30.9062H63.1422V25.5625H59.9703C59.663 26.2656 59.2411 26.8125 58.7047 27.2031C58.1682 27.5885 57.5589 27.7812 56.8766 27.7812C56.1682 27.7812 55.5406 27.5781 54.9937 27.1719C54.4469 26.7656 54.0198 26.1849 53.7125 25.4297C53.4052 24.6745 53.2516 23.7917 53.2516 22.7812C53.2516 21.7812 53.4052 20.9062 53.7125 20.1562C54.0198 19.401 54.4469 18.8203 54.9937 18.4141C55.5458 18.0026 56.1734 17.7969 56.8766 17.7969ZM56.8766 19.3594C56.4859 19.3594 56.1422 19.4974 55.8453 19.7734C55.5484 20.0443 55.3193 20.4375 55.1578 20.9531C54.9964 21.4635 54.9182 22.0729 54.9234 22.7812C54.9182 23.4948 54.9964 24.1094 55.1578 24.625C55.3193 25.1406 55.5484 25.5365 55.8453 25.8125C56.1422 26.0833 56.4859 26.2188 56.8766 26.2188C57.2672 26.2188 57.6083 26.0833 57.9 25.8125C58.1969 25.5365 58.426 25.1406 58.5875 24.625C58.7542 24.1094 58.8401 23.4948 58.8453 22.7812C58.8401 22.0729 58.7542 21.4609 58.5875 20.9453C58.426 20.4297 58.1969 20.0365 57.9 19.7656C57.6083 19.4948 57.2672 19.3594 56.8766 19.3594ZM60.3297 21.1719C60.4339 21.6771 60.4859 22.2135 60.4859 22.7812C60.4859 23.25 60.4495 23.7083 60.3766 24.1562H63.1422V21.1719H60.3297ZM78.6234 25.6406H76.9672V21.7969H75.5922V25.1719H73.9672V17.0469H75.5922V20.3906H76.9672V16.7656H78.6234V25.6406ZM73.4984 19.6562H66.4672V18.2969H69.1391V16.8906H70.8578V18.2969H73.4984V19.6562ZM69.9984 20.2344C70.5922 20.2344 71.1208 20.3359 71.5844 20.5391C72.0479 20.7422 72.4099 21.0286 72.6703 21.3984C72.9359 21.763 73.0714 22.1875 73.0766 22.6719C73.0714 23.1562 72.9359 23.5833 72.6703 23.9531C72.4099 24.3177 72.0479 24.6016 71.5844 24.8047C71.1208 25.0078 70.5922 25.1094 69.9984 25.1094C69.4151 25.1094 68.8917 25.0078 68.4281 24.8047C67.9646 24.6016 67.6026 24.3151 67.3422 23.9453C67.087 23.5755 66.962 23.151 66.9672 22.6719C66.962 22.1927 67.087 21.7682 67.3422 21.3984C67.6026 21.0286 67.9646 20.7422 68.4281 20.5391C68.8917 20.3359 69.4151 20.2344 69.9984 20.2344ZM69.9984 21.4844C69.5557 21.4844 69.1964 21.5911 68.9203 21.8047C68.6495 22.0182 68.5141 22.3073 68.5141 22.6719C68.5141 23.0365 68.6495 23.3255 68.9203 23.5391C69.1911 23.7526 69.5505 23.8594 69.9984 23.8594C70.4464 23.8594 70.8083 23.7526 71.0844 23.5391C71.3604 23.3255 71.4984 23.0365 71.4984 22.6719C71.4984 22.3073 71.3604 22.0182 71.0844 21.8047C70.8083 21.5911 70.4464 21.4844 69.9984 21.4844ZM73.8578 25.8125C74.863 25.8125 75.7276 25.9115 76.4516 26.1094C77.1755 26.3073 77.7302 26.599 78.1156 26.9844C78.501 27.3646 78.6964 27.8229 78.7016 28.3594C78.6964 28.8854 78.4984 29.3359 78.1078 29.7109C77.7224 30.0911 77.1677 30.3802 76.4437 30.5781C75.7198 30.776 74.8578 30.875 73.8578 30.875C72.8578 30.875 71.9932 30.776 71.2641 30.5781C70.5401 30.3802 69.9828 30.0911 69.5922 29.7109C69.2068 29.3359 69.0141 28.8854 69.0141 28.3594C69.0141 27.8229 69.2068 27.3646 69.5922 26.9844C69.9828 26.599 70.5401 26.3073 71.2641 26.1094C71.988 25.9115 72.8526 25.8125 73.8578 25.8125ZM73.8578 27.1406C72.8422 27.1302 72.0687 27.2292 71.5375 27.4375C71.0115 27.6406 70.7484 27.9479 70.7484 28.3594C70.7484 28.75 71.0141 29.0469 71.5453 29.25C72.0766 29.4479 72.8474 29.5469 73.8578 29.5469C74.863 29.5469 75.6286 29.4479 76.1547 29.25C76.6859 29.0469 76.9516 28.75 76.9516 28.3594C76.9516 27.9479 76.6859 27.6406 76.1547 27.4375C75.6286 27.2292 74.863 27.1302 73.8578 27.1406ZM90.7422 24.6562H84.0547V17.9844H90.7422V24.6562ZM85.7578 23.2812H89.0391V19.375H85.7578V23.2812ZM94.7109 20.9062H96.6797V22.3594H94.7109V27.0781H92.9766V16.7656H94.7109V20.9062ZM95.2734 30.6094H85.6641V26.0781H87.3984V29.2031H95.2734V30.6094ZM109.989 23.7969H97.0984V22.4219H109.989V23.7969ZM108.458 21.5156H98.7391V17.125H108.333V18.5156H100.473V20.1406H108.458V21.5156ZM108.364 28.3125H100.333V29.3906H108.755V30.75H98.6297V27.0625H106.661V26.0781H98.6141V24.7656H108.364V28.3125ZM122.423 30.8906H120.673V16.7656H122.423V30.8906ZM118.205 18.2656C118.205 20.5104 117.697 22.4818 116.681 24.1797C115.666 25.8724 113.981 27.276 111.627 28.3906L110.72 27C112.538 26.1354 113.905 25.1016 114.822 23.8984C115.744 22.6901 116.283 21.2708 116.439 19.6406H111.439V18.2656H118.205Z" fill="#E8E4DC"/>
</g>
</g>
<defs>
<filter id="filter0_dd_156_4591" x="0" y="0" width="146" height="52" filterUnits="userSpaceOnUse" color-interpolation-filters="sRGB">
<feFlood flood-opacity="0" result="BackgroundImageFix"/>
<feColorMatrix in="SourceAlpha" type="matrix" values="0 0 0 0 0 0 0 0 0 0 0 0 0 0 0 0 0 0 127 0" result="hardAlpha"/>
<feOffset dy="2"/>
<feGaussianBlur stdDeviation="4"/>
<feColorMatrix type="matrix" values="0 0 0 0 0 0 0 0 0 0 0 0 0 0 0 0 0 0 0.3 0"/>
<feBlend mode="normal" in2="BackgroundImageFix" result="effect1_dropShadow_156_4591"/>
<feColorMatrix in="SourceAlpha" type="matrix" values="0 0 0 0 0 0 0 0 0 0 0 0 0 0 0 0 0 0 127 0" result="hardAlpha"/>
<feOffset dy="1"/>
<feGaussianBlur stdDeviation="1"/>
<feColorMatrix type="matrix" values="0 0 0 0 0 0 0 0 0 0 0 0 0 0 0 0 0 0 0.15 0"/>
<feBlend mode="normal" in2="effect1_dropShadow_156_4591" result="effect2_dropShadow_156_4591"/>
<feBlend mode="normal" in="SourceGraphic" in2="effect2_dropShadow_156_4591" result="shape"/>
</filter>
</defs>
</svg>
