<svg width="410" height="244" viewBox="0 0 410 244" fill="none" xmlns="http://www.w3.org/2000/svg">
<g id="Property 1=Dark" filter="url(#filter0_dd_283_6094)">
<g id="Frame 68">
<g id="Container">
<mask id="path-1-inside-1_283_6094" fill="white">
<path d="M8 6H401.34V161.992H8V6Z"/>
</mask>
<path d="M8 6H401.34V161.992H8V6Z" fill="#262B28"/>
<path d="M401.34 161.992V161.243H8V161.992V162.741H401.34V161.992Z" fill="#373F3B" mask="url(#path-1-inside-1_283_6094)"/>
<g id="Frame 131">
<g id="Button">
<g id="Icon">
<path id="Vector" d="M41.9973 48.832L36.1655 43.0002L41.9973 37.1685" stroke="#5E9E72" stroke-width="1.66623" stroke-linecap="round" stroke-linejoin="round"/>
<path id="Vector_2" d="M47.8291 43.0005H36.1655" stroke="#5E9E72" stroke-width="1.66623" stroke-linecap="round" stroke-linejoin="round"/>
</g>
<g id="Text">
<path id="&#235;&#146;&#164;&#235;&#161;&#156;&#234;&#176;&#128;&#234;&#184;&#176;" d="M76.3496 49.7808H75.1465V35.8901H76.3496V49.7808ZM64.834 43.4526C66.8236 43.4422 68.5345 43.4162 69.9668 43.3745C71.3991 43.3276 72.7923 43.2287 74.1465 43.0776L74.209 44.0151C72.9434 44.1818 71.584 44.3042 70.1309 44.3823V49.3433H68.9121V44.437C67.6829 44.4787 66.3757 44.4995 64.9902 44.4995L64.834 43.4526ZM73.084 41.687H66.1621V36.6714H72.8965V37.6714H67.3965V40.6558H73.084V41.687ZM91.4434 48.0464H78.7246V47.0151H84.4434V44.3901H80.3184V40.1089H88.6309V37.9214H80.2871V36.9058H89.834V41.1089H81.5371V43.3745H90.1621V44.3901H85.6465V47.0151H91.4434V48.0464ZM103.303 41.5308H105.553V42.562H103.303V49.7651H102.084V35.8745H103.303V41.5308ZM99.709 37.3745C99.709 39.4422 99.1908 41.3172 98.1543 42.9995C97.1178 44.6766 95.5111 46.0516 93.334 47.1245L92.6465 46.1558C94.4329 45.2651 95.8158 44.1662 96.7949 42.8589C97.7741 41.5464 98.334 40.062 98.4746 38.4058H93.2871V37.3745H99.709ZM117.865 49.7651H116.631V35.8745H117.865V49.7651ZM113.756 37.3901C113.745 39.4891 113.214 41.3745 112.162 43.0464C111.11 44.7131 109.464 46.0828 107.225 47.1558L106.553 46.1558C108.407 45.2756 109.826 44.1818 110.811 42.8745C111.8 41.5672 112.365 40.0724 112.506 38.3901H107.193V37.3901H113.756Z" fill="#5E9E72"/>
</g>
</g>
<g id="Frame 134">
<path id="&#236;&#183;&#168;&#236;&#134;&#140;" d="M303.309 39C303.309 39.4583 303.449 39.8932 303.731 40.3047C304.017 40.7109 304.413 41.0651 304.918 41.3672C305.429 41.6641 306.012 41.8854 306.668 42.0312L306.168 43.0156C305.366 42.8229 304.668 42.5208 304.074 42.1094C303.481 41.6979 303.03 41.2109 302.723 40.6484C302.426 41.263 301.975 41.7917 301.371 42.2344C300.767 42.6771 300.054 43 299.231 43.2031L298.699 42.2188C299.361 42.0729 299.947 41.8411 300.457 41.5234C300.973 41.2057 301.374 40.8281 301.66 40.3906C301.947 39.9531 302.09 39.4896 302.09 39V38.9375H298.996V37.9688H302.09V36.4219H303.309V37.9688H306.402V38.9375H303.309V39ZM309.527 50.2812H308.324V36.3906H309.527V50.2812ZM298.043 44.1875C299.814 44.1875 301.457 44.1615 302.973 44.1094C304.494 44.0521 305.939 43.9375 307.309 43.7656L307.387 44.6562C306.168 44.8542 304.819 44.9974 303.34 45.0859V49.8594H302.121V45.1484C301.069 45.1953 299.767 45.2188 298.215 45.2188L298.043 44.1875ZM324.621 48.4531H311.902V47.4375H317.59V44.0312H318.793V47.4375H324.621V48.4531ZM318.824 38.3906C318.824 39.1302 319.08 39.8411 319.59 40.5234C320.106 41.2057 320.762 41.7839 321.559 42.2578C322.361 42.7266 323.173 43.0312 323.996 43.1719L323.449 44.1875C322.731 44.0417 322.025 43.7891 321.332 43.4297C320.639 43.0703 320.014 42.6224 319.457 42.0859C318.905 41.5495 318.483 40.9583 318.192 40.3125C317.9 40.9583 317.478 41.5495 316.926 42.0859C316.374 42.6224 315.751 43.0703 315.059 43.4297C314.371 43.7891 313.668 44.0417 312.949 44.1875L312.402 43.1719C313.225 43.0312 314.033 42.7266 314.824 42.2578C315.621 41.7839 316.272 41.2083 316.777 40.5312C317.288 39.849 317.543 39.1354 317.543 38.3906V37.3281H318.824V38.3906Z" fill="#C45650"/>
<path id="&#236;&#153;&#132;&#235;&#163;&#140;" d="M354.309 37.0312C354.981 37.0312 355.577 37.1458 356.098 37.375C356.624 37.6042 357.033 37.9271 357.324 38.3438C357.616 38.7552 357.762 39.2344 357.762 39.7812C357.762 40.25 357.645 40.6745 357.41 41.0547C357.181 41.4349 356.853 41.7474 356.426 41.9922C356.004 42.237 355.517 42.3932 354.965 42.4609V43.8203C356.376 43.7526 357.652 43.6302 358.793 43.4531L358.887 44.375C357.585 44.6094 356.225 44.763 354.809 44.8359C353.397 44.9036 351.866 44.9375 350.215 44.9375L350.059 43.9219H350.777C351.699 43.9219 352.684 43.9062 353.731 43.875V42.4688C353.163 42.4062 352.66 42.2552 352.223 42.0156C351.79 41.7708 351.455 41.4583 351.215 41.0781C350.981 40.6927 350.866 40.2604 350.871 39.7812C350.866 39.2396 351.007 38.7604 351.293 38.3438C351.585 37.9271 351.991 37.6042 352.512 37.375C353.038 37.1458 353.637 37.0312 354.309 37.0312ZM354.309 37.9844C353.866 37.9844 353.47 38.0599 353.121 38.2109C352.772 38.362 352.501 38.5729 352.309 38.8438C352.116 39.1146 352.022 39.4271 352.027 39.7812C352.022 40.125 352.116 40.4323 352.309 40.7031C352.501 40.9688 352.772 41.1771 353.121 41.3281C353.47 41.4792 353.866 41.5573 354.309 41.5625C354.757 41.5573 355.152 41.4792 355.496 41.3281C355.845 41.1771 356.116 40.9688 356.309 40.7031C356.501 40.4323 356.6 40.125 356.606 39.7812C356.6 39.4271 356.501 39.1146 356.309 38.8438C356.116 38.5677 355.845 38.3568 355.496 38.2109C355.152 38.0599 354.757 37.9844 354.309 37.9844ZM360.918 41.0938H362.996V42.1406H360.918V47.0156H359.684V36.3906H360.918V41.0938ZM361.418 49.9531H352.09V46.0938H353.324V48.9219H361.418V49.9531ZM376.621 48.5469H363.902V47.5156H367.481V44.875H365.496V40.5938H373.809V38.4219H365.465V37.4062H375.012V41.6094H366.715V43.8594H375.34V44.875H373.168V47.5156H376.621V48.5469ZM371.965 47.5156V44.875H368.684V47.5156H371.965Z" fill="#5E9E72"/>
</g>
</g>
<g id="Frame 130">
<g id="Heading 1">
<path id="&#236;&#160;&#156;&#236;&#163;&#188;&#235;&#143;&#132; 3&#235;&#176;&#149; 4&#236;&#157;&#188;" d="M49.4883 99.2275H46.8887V79.6768H49.4883V99.2275ZM45.4922 98.3252H42.9141V88.5928H40.3359V86.3799H42.9141V79.999H45.4922V98.3252ZM38.7676 84.9189C38.7676 86.695 39.0755 88.3099 39.6914 89.7637C40.3145 91.2103 41.2956 92.3167 42.6348 93.083L41.0234 95.1025C40.1784 94.6012 39.4587 93.9352 38.8643 93.1045C38.277 92.2738 37.8151 91.3141 37.4785 90.2256C37.1276 91.4144 36.6478 92.4635 36.0391 93.373C35.4303 94.2826 34.6927 95.0023 33.8262 95.5322L32.1719 93.5127C33.0885 92.9541 33.8405 92.2201 34.4277 91.3105C35.0221 90.3939 35.4518 89.3913 35.7168 88.3027C35.9889 87.2142 36.125 86.0863 36.125 84.9189V83.8662H32.9238V81.6748H41.7324V83.8662H38.7676V84.9189ZM69.1258 92.6533H61.5203V99.2275H58.8133V92.6533H51.2938V90.4619H69.1258V92.6533ZM67.5359 82.8564H61.8318C61.9249 83.5153 62.2329 84.1455 62.7557 84.7471C63.2785 85.3415 64.0089 85.8571 64.9471 86.2939C65.8852 86.7236 66.9988 87.0173 68.2879 87.1748L67.2996 89.3232C65.6095 89.0941 64.1557 88.6357 62.9383 87.9482C61.728 87.2607 60.8221 86.4049 60.2205 85.3809C59.6118 86.4049 58.7059 87.2607 57.5027 87.9482C56.2996 88.6357 54.8602 89.0941 53.1844 89.3232L52.1746 87.1748C53.4422 87.0173 54.5415 86.7236 55.4725 86.2939C56.4106 85.8571 57.1411 85.3415 57.6639 84.7471C58.1938 84.1455 58.5089 83.5153 58.6092 82.8564H52.9051V80.708H67.5359V82.8564ZM85.9488 90.5908H80.277V94.7588H87.9039V96.9932H70.0074V94.7588H77.5484V90.5908H72.1129V81.0518H85.7984V83.2432H74.8629V88.4209H85.9488V90.5908ZM99.8937 97.4658C98.7694 97.4658 97.7596 97.2725 96.8645 96.8857C95.9764 96.4919 95.2746 95.9476 94.759 95.2529C94.2505 94.5511 93.9855 93.7562 93.9641 92.8682H97.2297C97.2512 93.2477 97.3801 93.5843 97.6164 93.8779C97.8527 94.1715 98.1714 94.4007 98.5725 94.5654C98.9735 94.723 99.4211 94.8018 99.9152 94.8018C100.424 94.8018 100.878 94.7122 101.279 94.5332C101.688 94.347 102.003 94.0928 102.225 93.7705C102.454 93.4482 102.565 93.083 102.558 92.6748C102.565 92.2523 102.447 91.8763 102.203 91.5469C101.967 91.2174 101.627 90.9632 101.183 90.7842C100.739 90.598 100.216 90.5049 99.6145 90.5049H98.175V88.1201H99.6145C100.116 88.1201 100.563 88.0342 100.957 87.8623C101.351 87.6904 101.659 87.4469 101.881 87.1318C102.103 86.8167 102.214 86.4587 102.214 86.0576C102.214 85.6637 102.117 85.3164 101.924 85.0156C101.738 84.7148 101.473 84.4821 101.129 84.3174C100.785 84.1455 100.388 84.0596 99.9367 84.0596C99.4784 84.0596 99.0559 84.1419 98.6691 84.3066C98.2896 84.4642 97.9816 84.6934 97.7453 84.9941C97.5161 85.2878 97.3944 85.6279 97.3801 86.0146H94.2863C94.3007 85.1338 94.5549 84.3496 95.049 83.6621C95.5432 82.9746 96.2163 82.4411 97.0686 82.0615C97.9279 81.6748 98.884 81.4814 99.9367 81.4814C100.997 81.4814 101.935 81.6748 102.751 82.0615C103.575 82.4411 104.212 82.9674 104.663 83.6406C105.114 84.3066 105.336 85.0479 105.329 85.8643C105.336 86.43 105.215 86.9456 104.964 87.4111C104.721 87.8695 104.373 88.249 103.922 88.5498C103.478 88.8506 102.966 89.0511 102.386 89.1514V89.2803C103.138 89.3734 103.779 89.5811 104.309 89.9033C104.839 90.2256 105.24 90.6445 105.512 91.1602C105.784 91.6686 105.917 92.2451 105.909 92.8896C105.917 93.7633 105.662 94.5511 105.147 95.2529C104.631 95.9476 103.915 96.4919 102.998 96.8857C102.082 97.2725 101.047 97.4658 99.8937 97.4658ZM122.754 84.4678H125.396V86.6807H122.754V91.4287H120.004V79.6768H122.754V84.4678ZM122.754 99.2275H120.004V94.458H109.584V92.2881H122.754V99.2275ZM110.551 83.501H114.547V80.9014H117.297V90.3975H107.822V80.9014H110.551V83.501ZM114.547 88.2275V85.6279H110.551V88.2275H114.547ZM131.113 91.9443L137.687 81.6963H141.748V91.9014H143.724V94.501H141.748V97.251H138.675V94.501H131.113V91.9443ZM138.718 91.9014V85.2412H138.568L134.379 91.7725V91.9014H138.718ZM150.45 80.2568C151.431 80.2568 152.319 80.4466 153.114 80.8262C153.909 81.2057 154.532 81.7357 154.983 82.416C155.441 83.0964 155.67 83.8662 155.67 84.7256C155.67 85.5706 155.441 86.3333 154.983 87.0137C154.532 87.6868 153.909 88.2168 153.114 88.6035C152.319 88.9831 151.431 89.1729 150.45 89.1729C149.454 89.1729 148.555 88.9831 147.753 88.6035C146.951 88.2168 146.321 87.6868 145.863 87.0137C145.412 86.3333 145.186 85.5706 145.186 84.7256C145.186 83.8662 145.412 83.0964 145.863 82.416C146.321 81.7357 146.948 81.2057 147.743 80.8262C148.545 80.4466 149.447 80.2568 150.45 80.2568ZM150.45 82.4912C149.948 82.4912 149.497 82.5807 149.096 82.7598C148.702 82.9316 148.394 83.1895 148.172 83.5332C147.95 83.8698 147.843 84.2673 147.85 84.7256C147.843 85.1839 147.95 85.5814 148.172 85.918C148.394 86.2546 148.702 86.5124 149.096 86.6914C149.497 86.8704 149.948 86.96 150.45 86.96C150.944 86.96 151.384 86.8704 151.771 86.6914C152.165 86.5124 152.473 86.2546 152.695 85.918C152.917 85.5814 153.028 85.1839 153.028 84.7256C153.028 84.2601 152.917 83.859 152.695 83.5225C152.473 83.1859 152.165 82.9316 151.771 82.7598C151.384 82.5807 150.944 82.4912 150.45 82.4912ZM161.256 89.4736H158.506V79.6768H161.256V89.4736ZM161.256 95.5967H150.858V96.8643H161.793V99.0127H148.172V93.5986H158.528V92.3955H148.129V90.29H161.256V95.5967Z" fill="#E8E4DC"/>
</g>
<g id="Paragraph">
<path id="2026-05-10 &#226;&#128;&#162; &#236;&#160;&#156;&#236;&#163;&#188;&#235;&#143;&#132;" d="M33.0469 130.461L36.9062 126.398C37.4167 125.862 37.8047 125.43 38.0703 125.102C38.3411 124.768 38.5443 124.448 38.6797 124.141C38.8203 123.828 38.8906 123.503 38.8906 123.164C38.8906 122.789 38.7917 122.456 38.5938 122.164C38.3958 121.872 38.125 121.646 37.7812 121.484C37.4427 121.323 37.0625 121.242 36.6406 121.242C36.1979 121.242 35.8099 121.331 35.4766 121.508C35.1432 121.685 34.8854 121.935 34.7031 122.258C34.526 122.581 34.4375 122.951 34.4375 123.367H33.1094C33.1042 122.711 33.2552 122.13 33.5625 121.625C33.875 121.12 34.3047 120.727 34.8516 120.445C35.3984 120.164 36.0104 120.023 36.6875 120.023C37.3594 120.023 37.9609 120.161 38.4922 120.438C39.0286 120.714 39.4479 121.091 39.75 121.57C40.0521 122.049 40.2031 122.581 40.2031 123.164C40.2031 123.596 40.125 124.01 39.9688 124.406C39.8125 124.797 39.5495 125.232 39.1797 125.711C38.8151 126.185 38.2917 126.773 37.6094 127.477L35.0156 130.148V130.242H40.4062V131.492H33.0625L33.0469 130.461ZM46.1562 131.648C45.3229 131.648 44.6094 131.422 44.0156 130.969C43.4271 130.516 42.9766 129.854 42.6641 128.984C42.3568 128.115 42.2031 127.065 42.2031 125.836C42.2031 124.622 42.3594 123.581 42.6719 122.711C42.9844 121.836 43.4375 121.169 44.0312 120.711C44.625 120.253 45.3333 120.023 46.1562 120.023C46.9792 120.023 47.6875 120.253 48.2812 120.711C48.875 121.169 49.3281 121.836 49.6406 122.711C49.9531 123.581 50.1094 124.622 50.1094 125.836C50.1094 127.065 49.9531 128.115 49.6406 128.984C49.3333 129.854 48.8828 130.516 48.2891 130.969C47.6953 131.422 46.9844 131.648 46.1562 131.648ZM46.1562 130.398C46.6979 130.398 47.1615 130.221 47.5469 129.867C47.9323 129.513 48.2266 128.995 48.4297 128.312C48.6328 127.63 48.7344 126.805 48.7344 125.836C48.7344 124.867 48.6328 124.039 48.4297 123.352C48.2266 122.664 47.9323 122.141 47.5469 121.781C47.1615 121.422 46.6979 121.242 46.1562 121.242C45.6146 121.242 45.1484 121.422 44.7578 121.781C44.3724 122.141 44.0755 122.664 43.8672 123.352C43.6641 124.039 43.5625 124.867 43.5625 125.836C43.5625 126.805 43.6641 127.63 43.8672 128.312C44.0703 128.995 44.3646 129.513 44.75 129.867C45.1406 130.221 45.6094 130.398 46.1562 130.398ZM51.9688 130.461L55.8281 126.398C56.3385 125.862 56.7266 125.43 56.9922 125.102C57.263 124.768 57.4661 124.448 57.6016 124.141C57.7422 123.828 57.8125 123.503 57.8125 123.164C57.8125 122.789 57.7135 122.456 57.5156 122.164C57.3177 121.872 57.0469 121.646 56.7031 121.484C56.3646 121.323 55.9844 121.242 55.5625 121.242C55.1198 121.242 54.7318 121.331 54.3984 121.508C54.0651 121.685 53.8073 121.935 53.625 122.258C53.4479 122.581 53.3594 122.951 53.3594 123.367H52.0312C52.026 122.711 52.1771 122.13 52.4844 121.625C52.7969 121.12 53.2266 120.727 53.7734 120.445C54.3203 120.164 54.9323 120.023 55.6094 120.023C56.2812 120.023 56.8828 120.161 57.4141 120.438C57.9505 120.714 58.3698 121.091 58.6719 121.57C58.974 122.049 59.125 122.581 59.125 123.164C59.125 123.596 59.0469 124.01 58.8906 124.406C58.7344 124.797 58.4714 125.232 58.1016 125.711C57.737 126.185 57.2135 126.773 56.5312 127.477L53.9375 130.148V130.242H59.3281V131.492H51.9844L51.9688 130.461ZM65.3438 131.648C64.6146 131.648 63.9375 131.484 63.3125 131.156C62.6927 130.823 62.1823 130.258 61.7812 129.461C61.3854 128.659 61.1875 127.596 61.1875 126.273C61.1875 124.956 61.3594 123.828 61.7031 122.891C62.0521 121.953 62.5469 121.242 63.1875 120.758C63.8333 120.268 64.599 120.023 65.4844 120.023C66.1354 120.023 66.7188 120.148 67.2344 120.398C67.7552 120.648 68.1797 121 68.5078 121.453C68.8411 121.906 69.0573 122.43 69.1562 123.023H67.7656C67.625 122.497 67.3594 122.076 66.9688 121.758C66.5833 121.435 66.0885 121.273 65.4844 121.273C64.8698 121.273 64.3385 121.445 63.8906 121.789C63.4479 122.128 63.1068 122.62 62.8672 123.266C62.6328 123.911 62.5156 124.685 62.5156 125.586H62.6562C62.9896 125.112 63.4062 124.745 63.9062 124.484C64.4062 124.219 64.9583 124.086 65.5625 124.086C66.2292 124.086 66.8438 124.247 67.4062 124.57C67.974 124.893 68.4219 125.341 68.75 125.914C69.0833 126.482 69.25 127.122 69.25 127.836C69.25 128.539 69.0859 129.182 68.7578 129.766C68.4349 130.344 67.9766 130.802 67.3828 131.141C66.7891 131.479 66.1094 131.648 65.3438 131.648ZM65.3125 130.414C65.7917 130.414 66.2266 130.299 66.6172 130.07C67.0078 129.841 67.3151 129.531 67.5391 129.141C67.7682 128.745 67.8854 128.315 67.8906 127.852C67.8854 127.388 67.7734 126.964 67.5547 126.578C67.3359 126.193 67.0339 125.888 66.6484 125.664C66.263 125.435 65.8281 125.32 65.3438 125.32C64.8594 125.32 64.4167 125.438 64.0156 125.672C63.6146 125.906 63.2969 126.221 63.0625 126.617C62.8281 127.008 62.7083 127.424 62.7031 127.867C62.7031 128.31 62.8151 128.727 63.0391 129.117C63.2682 129.508 63.5807 129.823 63.9766 130.062C64.3776 130.297 64.8229 130.414 65.3125 130.414ZM76.0625 126.461H71.1094V125.227H76.0625V126.461ZM81.8125 131.648C80.9792 131.648 80.2656 131.422 79.6719 130.969C79.0833 130.516 78.6328 129.854 78.3203 128.984C78.013 128.115 77.8594 127.065 77.8594 125.836C77.8594 124.622 78.0156 123.581 78.3281 122.711C78.6406 121.836 79.0938 121.169 79.6875 120.711C80.2812 120.253 80.9896 120.023 81.8125 120.023C82.6354 120.023 83.3438 120.253 83.9375 120.711C84.5312 121.169 84.9844 121.836 85.2969 122.711C85.6094 123.581 85.7656 124.622 85.7656 125.836C85.7656 127.065 85.6094 128.115 85.2969 128.984C84.9896 129.854 84.5391 130.516 83.9453 130.969C83.3516 131.422 82.6406 131.648 81.8125 131.648ZM81.8125 130.398C82.3542 130.398 82.8177 130.221 83.2031 129.867C83.5885 129.513 83.8828 128.995 84.0859 128.312C84.2891 127.63 84.3906 126.805 84.3906 125.836C84.3906 124.867 84.2891 124.039 84.0859 123.352C83.8828 122.664 83.5885 122.141 83.2031 121.781C82.8177 121.422 82.3542 121.242 81.8125 121.242C81.2708 121.242 80.8047 121.422 80.4141 121.781C80.0286 122.141 79.7318 122.664 79.5234 123.352C79.3203 124.039 79.2188 124.867 79.2188 125.836C79.2188 126.805 79.3203 127.63 79.5234 128.312C79.7266 128.995 80.0208 129.513 80.4062 129.867C80.7969 130.221 81.2656 130.398 81.8125 130.398ZM91.3281 131.648C90.6562 131.648 90.0443 131.521 89.4922 131.266C88.9453 131.005 88.5078 130.648 88.1797 130.195C87.8568 129.737 87.6823 129.221 87.6562 128.648H89.0156C89.0521 128.982 89.1771 129.284 89.3906 129.555C89.6042 129.82 89.8802 130.031 90.2188 130.188C90.5573 130.339 90.9271 130.414 91.3281 130.414C91.8073 130.414 92.2396 130.305 92.625 130.086C93.0104 129.867 93.3125 129.568 93.5312 129.188C93.75 128.807 93.8594 128.383 93.8594 127.914C93.8594 127.43 93.7448 126.995 93.5156 126.609C93.2917 126.219 92.9792 125.914 92.5781 125.695C92.1823 125.471 91.7344 125.357 91.2344 125.352C90.2292 125.336 89.526 125.674 89.125 126.367H87.7656L88.5625 120.18H94.6875V121.43H89.7344L89.3125 124.742H89.4219C89.6771 124.544 89.987 124.385 90.3516 124.266C90.7161 124.146 91.0938 124.086 91.4844 124.086C92.1927 124.086 92.8307 124.25 93.3984 124.578C93.9714 124.901 94.4193 125.352 94.7422 125.93C95.0703 126.508 95.2344 127.159 95.2344 127.883C95.2344 128.602 95.0651 129.247 94.7266 129.82C94.388 130.393 93.9219 130.841 93.3281 131.164C92.7344 131.487 92.0677 131.648 91.3281 131.648ZM102.062 126.461H97.1094V125.227H102.062V126.461ZM108.109 131.492H106.688V121.648H106.625L103.875 123.477V122.055L106.688 120.18H108.109V131.492ZM114.828 131.648C113.995 131.648 113.281 131.422 112.688 130.969C112.099 130.516 111.648 129.854 111.336 128.984C111.029 128.115 110.875 127.065 110.875 125.836C110.875 124.622 111.031 123.581 111.344 122.711C111.656 121.836 112.109 121.169 112.703 120.711C113.297 120.253 114.005 120.023 114.828 120.023C115.651 120.023 116.359 120.253 116.953 120.711C117.547 121.169 118 121.836 118.312 122.711C118.625 123.581 118.781 124.622 118.781 125.836C118.781 127.065 118.625 128.115 118.312 128.984C118.005 129.854 117.555 130.516 116.961 130.969C116.367 131.422 115.656 131.648 114.828 131.648ZM114.828 130.398C115.37 130.398 115.833 130.221 116.219 129.867C116.604 129.513 116.898 128.995 117.102 128.312C117.305 127.63 117.406 126.805 117.406 125.836C117.406 124.867 117.305 124.039 117.102 123.352C116.898 122.664 116.604 122.141 116.219 121.781C115.833 121.422 115.37 121.242 114.828 121.242C114.286 121.242 113.82 121.422 113.43 121.781C113.044 122.141 112.747 122.664 112.539 123.352C112.336 124.039 112.234 124.867 112.234 125.836C112.234 126.805 112.336 127.63 112.539 128.312C112.742 128.995 113.036 129.513 113.422 129.867C113.812 130.221 114.281 130.398 114.828 130.398ZM127.625 127.43C127.339 127.43 127.073 127.359 126.828 127.219C126.583 127.073 126.388 126.878 126.242 126.633C126.102 126.383 126.031 126.112 126.031 125.82C126.031 125.534 126.102 125.268 126.242 125.023C126.388 124.779 126.583 124.586 126.828 124.445C127.073 124.299 127.339 124.227 127.625 124.227C127.917 124.227 128.185 124.299 128.43 124.445C128.68 124.586 128.875 124.779 129.016 125.023C129.161 125.268 129.234 125.534 129.234 125.82C129.234 126.112 129.161 126.383 129.016 126.633C128.875 126.878 128.68 127.073 128.43 127.219C128.185 127.359 127.917 127.43 127.625 127.43ZM148.219 132.758H147.047V118.867H148.219V132.758ZM145.406 132.039H144.25V124.883H141.906V123.883H144.25V119.211H145.406V132.039ZM140.422 122.836C140.422 123.643 140.539 124.432 140.773 125.203C141.008 125.969 141.352 126.661 141.805 127.281C142.258 127.896 142.797 128.383 143.422 128.742L142.672 129.648C142 129.247 141.424 128.693 140.945 127.984C140.466 127.271 140.102 126.464 139.852 125.562C139.596 126.536 139.219 127.409 138.719 128.18C138.224 128.951 137.635 129.549 136.953 129.977L136.172 129.055C136.802 128.68 137.349 128.167 137.812 127.516C138.276 126.865 138.628 126.135 138.867 125.328C139.112 124.516 139.234 123.685 139.234 122.836V121.523H136.562V120.508H142.969V121.523H140.422V122.836ZM157.188 120.836C157.182 121.43 157.414 121.997 157.883 122.539C158.352 123.076 158.964 123.529 159.719 123.898C160.474 124.268 161.26 124.513 162.078 124.633L161.625 125.602C160.891 125.477 160.182 125.268 159.5 124.977C158.823 124.685 158.221 124.32 157.695 123.883C157.169 123.44 156.771 122.948 156.5 122.406C156.229 122.948 155.831 123.438 155.305 123.875C154.779 124.312 154.177 124.68 153.5 124.977C152.828 125.268 152.13 125.477 151.406 125.602L150.922 124.633C151.734 124.513 152.518 124.268 153.273 123.898C154.029 123.529 154.641 123.076 155.109 122.539C155.578 121.997 155.812 121.43 155.812 120.836V120.742H151.359V119.742H161.625V120.742H157.188V120.836ZM162.828 127.805H157.078V132.758H155.875V127.805H150.172V126.789H162.828V127.805ZM175.219 126.383H170.922V129.977H176.719V131.008H164V129.977H169.719V126.383H165.625V120.008H175.078V121.008H166.859V125.383H175.219V126.383Z" fill="#7A7873"/>
</g>
</g>
</g>
<g id="Container_2">
<mask id="path-10-inside-2_283_6094" fill="white">
<path d="M8 161.992H401.34V233.982H8V161.992Z"/>
</mask>
<path d="M8 161.992H401.34V233.982H8V161.992Z" fill="#262B28"/>
<path d="M401.34 233.982V232.982H8V233.982V234.982H401.34V233.982Z" fill="#373F3B" mask="url(#path-10-inside-2_283_6094)"/>
<g id="Container_3" clip-path="url(#clip0_283_6094)">
<g id="Button_2">
<path d="M44.4723 189.992C44.4723 183.365 49.8449 177.992 56.4723 177.992H106.574C113.202 177.992 118.574 183.365 118.574 189.992V205.982C118.574 212.609 113.202 217.982 106.574 217.982H56.4723C49.8449 217.982 44.4723 212.609 44.4723 205.982V189.992Z" fill="#5E9E72"/>
<path id="Day 1" d="M63.854 203.486V192.174H67.5103C68.5988 192.174 69.5363 192.4 70.3228 192.854C71.1144 193.301 71.7186 193.95 72.1353 194.799C72.5519 195.643 72.7603 196.648 72.7603 197.814C72.7603 198.992 72.5493 200.005 72.1274 200.854C71.7056 201.702 71.091 202.354 70.2837 202.807C69.4764 203.26 68.505 203.486 67.3696 203.486H63.854ZM67.2759 202.236C68.6405 202.236 69.6665 201.851 70.354 201.08C71.0415 200.309 71.3853 199.221 71.3853 197.814C71.3853 196.424 71.0493 195.346 70.3774 194.58C69.7056 193.809 68.7186 193.424 67.4165 193.424H65.2603V202.236H67.2759ZM74.2446 201.08C74.2446 200.2 74.5441 199.58 75.1431 199.221C75.7472 198.861 76.5103 198.648 77.4321 198.58C77.7863 198.554 78.1821 198.531 78.6196 198.51C79.0623 198.484 79.4321 198.465 79.729 198.455V197.768C79.729 197.221 79.5649 196.801 79.2368 196.51C78.9139 196.213 78.4373 196.064 77.8071 196.064C77.2915 196.064 76.8696 196.171 76.5415 196.385C76.2134 196.593 75.9998 196.867 75.9009 197.205H74.4946C74.5519 196.752 74.729 196.351 75.0259 196.002C75.3228 195.653 75.716 195.382 76.2056 195.189C76.7004 194.992 77.255 194.893 77.8696 194.893C78.6821 194.893 79.4165 195.101 80.0728 195.518C80.729 195.929 81.0571 196.721 81.0571 197.893V203.486H79.729V202.33H79.6665C79.5623 202.549 79.4009 202.762 79.1821 202.971C78.9686 203.174 78.6873 203.346 78.3384 203.486C77.9946 203.622 77.5936 203.689 77.1353 203.689C76.5936 203.689 76.104 203.585 75.6665 203.377C75.229 203.169 74.8826 202.869 74.6274 202.479C74.3722 202.083 74.2446 201.617 74.2446 201.08ZM75.5884 201.143C75.5884 201.575 75.7498 201.908 76.0728 202.143C76.4009 202.372 76.8332 202.486 77.3696 202.486C77.854 202.486 78.2733 202.39 78.6274 202.197C78.9868 202.005 79.2603 201.749 79.4478 201.432C79.6353 201.114 79.729 200.773 79.729 200.408V199.557L77.5884 199.705C76.953 199.747 76.4608 199.885 76.1118 200.119C75.7629 200.354 75.5884 200.695 75.5884 201.143ZM83.7603 206.674C83.4894 206.674 83.2394 206.663 83.0103 206.643V205.439C83.1978 205.46 83.4165 205.471 83.6665 205.471C83.8905 205.471 84.078 205.447 84.229 205.4C84.38 205.354 84.5311 205.236 84.6821 205.049C84.8332 204.867 84.979 204.58 85.1196 204.189L85.3696 203.549L82.229 195.002H83.6978L86.0103 201.736H86.104L88.4165 195.002H89.8853L86.2915 204.705C86.0415 205.367 85.7082 205.859 85.2915 206.182C84.8748 206.51 84.3644 206.674 83.7603 206.674ZM99.3696 203.486H97.9478V193.643H97.8853L95.1353 195.471V194.049L97.9478 192.174H99.3696V203.486Z" fill="#E8E4DC"/>
</g>
<g id="Button_3">
<path d="M126.57 189.992C126.57 183.365 131.943 177.992 138.57 177.992H188.672C195.3 177.992 200.672 183.365 200.672 189.992V205.982C200.672 212.609 195.3 217.982 188.672 217.982H138.57C131.943 217.982 126.57 212.609 126.57 205.982V189.992Z" fill="#161A18"/>
<path id="Day 2" d="M144.264 203.486V192.174H147.921C149.009 192.174 149.947 192.4 150.733 192.854C151.525 193.301 152.129 193.95 152.546 194.799C152.962 195.643 153.171 196.648 153.171 197.814C153.171 198.992 152.96 200.005 152.538 200.854C152.116 201.702 151.501 202.354 150.694 202.807C149.887 203.26 148.915 203.486 147.78 203.486H144.264ZM147.686 202.236C149.051 202.236 150.077 201.851 150.764 201.08C151.452 200.309 151.796 199.221 151.796 197.814C151.796 196.424 151.46 195.346 150.788 194.58C150.116 193.809 149.129 193.424 147.827 193.424H145.671V202.236H147.686ZM154.655 201.08C154.655 200.2 154.954 199.58 155.553 199.221C156.158 198.861 156.921 198.648 157.842 198.58C158.197 198.554 158.592 198.531 159.03 198.51C159.473 198.484 159.842 198.465 160.139 198.455V197.768C160.139 197.221 159.975 196.801 159.647 196.51C159.324 196.213 158.848 196.064 158.217 196.064C157.702 196.064 157.28 196.171 156.952 196.385C156.624 196.593 156.41 196.867 156.311 197.205H154.905C154.962 196.752 155.139 196.351 155.436 196.002C155.733 195.653 156.126 195.382 156.616 195.189C157.111 194.992 157.665 194.893 158.28 194.893C159.092 194.893 159.827 195.101 160.483 195.518C161.139 195.929 161.467 196.721 161.467 197.893V203.486H160.139V202.33H160.077C159.973 202.549 159.811 202.762 159.592 202.971C159.379 203.174 159.098 203.346 158.749 203.486C158.405 203.622 158.004 203.689 157.546 203.689C157.004 203.689 156.514 203.585 156.077 203.377C155.639 203.169 155.293 202.869 155.038 202.479C154.783 202.083 154.655 201.617 154.655 201.08ZM155.999 201.143C155.999 201.575 156.16 201.908 156.483 202.143C156.811 202.372 157.243 202.486 157.78 202.486C158.264 202.486 158.684 202.39 159.038 202.197C159.397 202.005 159.671 201.749 159.858 201.432C160.046 201.114 160.139 200.773 160.139 200.408V199.557L157.999 199.705C157.363 199.747 156.871 199.885 156.522 200.119C156.173 200.354 155.999 200.695 155.999 201.143ZM164.171 206.674C163.9 206.674 163.65 206.663 163.421 206.643V205.439C163.608 205.46 163.827 205.471 164.077 205.471C164.301 205.471 164.488 205.447 164.639 205.4C164.79 205.354 164.941 205.236 165.092 205.049C165.243 204.867 165.389 204.58 165.53 204.189L165.78 203.549L162.639 195.002H164.108L166.421 201.736H166.514L168.827 195.002H170.296L166.702 204.705C166.452 205.367 166.118 205.859 165.702 206.182C165.285 206.51 164.775 206.674 164.171 206.674ZM175.764 202.455L179.624 198.393C180.134 197.856 180.522 197.424 180.788 197.096C181.059 196.762 181.262 196.442 181.397 196.135C181.538 195.822 181.608 195.497 181.608 195.158C181.608 194.783 181.509 194.45 181.311 194.158C181.113 193.867 180.842 193.64 180.499 193.479C180.16 193.317 179.78 193.236 179.358 193.236C178.915 193.236 178.527 193.325 178.194 193.502C177.861 193.679 177.603 193.929 177.421 194.252C177.243 194.575 177.155 194.945 177.155 195.361H175.827C175.822 194.705 175.973 194.124 176.28 193.619C176.592 193.114 177.022 192.721 177.569 192.439C178.116 192.158 178.728 192.018 179.405 192.018C180.077 192.018 180.678 192.156 181.21 192.432C181.746 192.708 182.165 193.085 182.467 193.564C182.769 194.044 182.921 194.575 182.921 195.158C182.921 195.59 182.842 196.005 182.686 196.4C182.53 196.791 182.267 197.226 181.897 197.705C181.533 198.179 181.009 198.768 180.327 199.471L177.733 202.143V202.236H183.124V203.486H175.78L175.764 202.455Z" fill="#4A4845"/>
</g>
<g id="Button_4">
<path d="M208.668 189.992C208.668 183.365 214.04 177.992 220.668 177.992H270.77C277.397 177.992 282.77 183.365 282.77 189.992V205.982C282.77 212.609 277.397 217.982 270.77 217.982H220.668C214.04 217.982 208.668 212.609 208.668 205.982V189.992Z" fill="#161A18"/>
<path id="Day 3" d="M226.12 203.486V192.174H229.776C230.865 192.174 231.802 192.4 232.589 192.854C233.38 193.301 233.984 193.95 234.401 194.799C234.818 195.643 235.026 196.648 235.026 197.814C235.026 198.992 234.815 200.005 234.393 200.854C233.971 201.702 233.357 202.354 232.549 202.807C231.742 203.26 230.771 203.486 229.635 203.486H226.12ZM229.542 202.236C230.906 202.236 231.932 201.851 232.62 201.08C233.307 200.309 233.651 199.221 233.651 197.814C233.651 196.424 233.315 195.346 232.643 194.58C231.971 193.809 230.984 193.424 229.682 193.424H227.526V202.236H229.542ZM236.51 201.08C236.51 200.2 236.81 199.58 237.409 199.221C238.013 198.861 238.776 198.648 239.698 198.58C240.052 198.554 240.448 198.531 240.885 198.51C241.328 198.484 241.698 198.465 241.995 198.455V197.768C241.995 197.221 241.831 196.801 241.503 196.51C241.18 196.213 240.703 196.064 240.073 196.064C239.557 196.064 239.135 196.171 238.807 196.385C238.479 196.593 238.266 196.867 238.167 197.205H236.76C236.818 196.752 236.995 196.351 237.292 196.002C237.589 195.653 237.982 195.382 238.471 195.189C238.966 194.992 239.521 194.893 240.135 194.893C240.948 194.893 241.682 195.101 242.339 195.518C242.995 195.929 243.323 196.721 243.323 197.893V203.486H241.995V202.33H241.932C241.828 202.549 241.667 202.762 241.448 202.971C241.234 203.174 240.953 203.346 240.604 203.486C240.26 203.622 239.859 203.689 239.401 203.689C238.859 203.689 238.37 203.585 237.932 203.377C237.495 203.169 237.148 202.869 236.893 202.479C236.638 202.083 236.51 201.617 236.51 201.08ZM237.854 201.143C237.854 201.575 238.016 201.908 238.339 202.143C238.667 202.372 239.099 202.486 239.635 202.486C240.12 202.486 240.539 202.39 240.893 202.197C241.253 202.005 241.526 201.749 241.714 201.432C241.901 201.114 241.995 200.773 241.995 200.408V199.557L239.854 199.705C239.219 199.747 238.727 199.885 238.378 200.119C238.029 200.354 237.854 200.695 237.854 201.143ZM246.026 206.674C245.755 206.674 245.505 206.663 245.276 206.643V205.439C245.464 205.46 245.682 205.471 245.932 205.471C246.156 205.471 246.344 205.447 246.495 205.4C246.646 205.354 246.797 205.236 246.948 205.049C247.099 204.867 247.245 204.58 247.385 204.189L247.635 203.549L244.495 195.002H245.964L248.276 201.736H248.37L250.682 195.002H252.151L248.557 204.705C248.307 205.367 247.974 205.859 247.557 206.182C247.141 206.51 246.63 206.674 246.026 206.674ZM261.542 203.643C260.797 203.643 260.13 203.518 259.542 203.268C258.958 203.018 258.495 202.666 258.151 202.213C257.812 201.76 257.63 201.236 257.604 200.643H259.026C259.052 200.992 259.177 201.299 259.401 201.564C259.63 201.83 259.93 202.036 260.299 202.182C260.669 202.322 261.078 202.393 261.526 202.393C262.016 202.393 262.456 202.309 262.846 202.143C263.242 201.971 263.549 201.736 263.768 201.439C263.992 201.137 264.104 200.794 264.104 200.408C264.104 199.992 263.995 199.624 263.776 199.307C263.562 198.989 263.25 198.742 262.839 198.564C262.427 198.387 261.932 198.299 261.354 198.299H260.432V197.064H261.354C261.807 197.064 262.211 196.984 262.565 196.822C262.919 196.661 263.193 196.434 263.385 196.143C263.583 195.851 263.682 195.512 263.682 195.127C263.682 194.757 263.594 194.429 263.417 194.143C263.245 193.856 263 193.635 262.682 193.479C262.365 193.317 261.995 193.236 261.573 193.236C261.167 193.236 260.786 193.309 260.432 193.455C260.078 193.601 259.789 193.809 259.565 194.08C259.341 194.346 259.219 194.658 259.198 195.018H257.839C257.865 194.434 258.047 193.916 258.385 193.463C258.724 193.005 259.174 192.65 259.737 192.4C260.299 192.145 260.917 192.018 261.589 192.018C262.286 192.018 262.896 192.156 263.417 192.432C263.943 192.702 264.346 193.07 264.628 193.533C264.909 193.997 265.047 194.502 265.042 195.049C265.047 195.684 264.878 196.229 264.534 196.682C264.19 197.135 263.719 197.445 263.12 197.611V197.689C263.604 197.768 264.023 197.932 264.378 198.182C264.737 198.426 265.01 198.742 265.198 199.127C265.391 199.507 265.484 199.934 265.479 200.408C265.484 201.018 265.315 201.57 264.971 202.064C264.628 202.554 264.154 202.939 263.549 203.221C262.95 203.502 262.281 203.643 261.542 203.643Z" fill="#4A4845"/>
</g>
<g id="Button_5">
<path d="M290.765 189.992C290.765 183.365 296.138 177.992 302.765 177.992H352.868C359.495 177.992 364.868 183.365 364.868 189.992V205.982C364.868 212.609 359.495 217.982 352.868 217.982H302.765C296.138 217.982 290.765 212.609 290.765 205.982V189.992Z" fill="#161A18"/>
<path id="Day 4" d="M308.163 203.486V192.174H311.819C312.908 192.174 313.845 192.4 314.631 192.854C315.423 193.301 316.027 193.95 316.444 194.799C316.861 195.643 317.069 196.648 317.069 197.814C317.069 198.992 316.858 200.005 316.436 200.854C316.014 201.702 315.4 202.354 314.592 202.807C313.785 203.26 312.814 203.486 311.678 203.486H308.163ZM311.585 202.236C312.949 202.236 313.975 201.851 314.663 201.08C315.35 200.309 315.694 199.221 315.694 197.814C315.694 196.424 315.358 195.346 314.686 194.58C314.014 193.809 313.027 193.424 311.725 193.424H309.569V202.236H311.585ZM318.553 201.08C318.553 200.2 318.853 199.58 319.452 199.221C320.056 198.861 320.819 198.648 321.741 198.58C322.095 198.554 322.491 198.531 322.928 198.51C323.371 198.484 323.741 198.465 324.038 198.455V197.768C324.038 197.221 323.874 196.801 323.546 196.51C323.223 196.213 322.746 196.064 322.116 196.064C321.6 196.064 321.178 196.171 320.85 196.385C320.522 196.593 320.309 196.867 320.21 197.205H318.803C318.861 196.752 319.038 196.351 319.335 196.002C319.631 195.653 320.025 195.382 320.514 195.189C321.009 194.992 321.564 194.893 322.178 194.893C322.991 194.893 323.725 195.101 324.381 195.518C325.038 195.929 325.366 196.721 325.366 197.893V203.486H324.038V202.33H323.975C323.871 202.549 323.71 202.762 323.491 202.971C323.277 203.174 322.996 203.346 322.647 203.486C322.303 203.622 321.902 203.689 321.444 203.689C320.902 203.689 320.413 203.585 319.975 203.377C319.538 203.169 319.191 202.869 318.936 202.479C318.681 202.083 318.553 201.617 318.553 201.08ZM319.897 201.143C319.897 201.575 320.059 201.908 320.381 202.143C320.71 202.372 321.142 202.486 321.678 202.486C322.163 202.486 322.582 202.39 322.936 202.197C323.296 202.005 323.569 201.749 323.756 201.432C323.944 201.114 324.038 200.773 324.038 200.408V199.557L321.897 199.705C321.262 199.747 320.769 199.885 320.421 200.119C320.072 200.354 319.897 200.695 319.897 201.143ZM328.069 206.674C327.798 206.674 327.548 206.663 327.319 206.643V205.439C327.506 205.46 327.725 205.471 327.975 205.471C328.199 205.471 328.387 205.447 328.538 205.4C328.689 205.354 328.84 205.236 328.991 205.049C329.142 204.867 329.288 204.58 329.428 204.189L329.678 203.549L326.538 195.002H328.006L330.319 201.736H330.413L332.725 195.002H334.194L330.6 204.705C330.35 205.367 330.017 205.859 329.6 206.182C329.184 206.51 328.673 206.674 328.069 206.674ZM339.397 200.018L344.491 192.174H346.225V199.939H347.803V201.174H346.225V203.486H344.881V201.174H339.397V200.018ZM344.881 199.939V193.955H344.741L340.913 199.846V199.939H344.881Z" fill="#4A4845"/>
</g>
</g>
</g>
</g>
</g>
<defs>
<filter id="filter0_dd_283_6094" x="0" y="0" width="409.34" height="243.981" filterUnits="userSpaceOnUse" color-interpolation-filters="sRGB">
<feFlood flood-opacity="0" result="BackgroundImageFix"/>
<feColorMatrix in="SourceAlpha" type="matrix" values="0 0 0 0 0 0 0 0 0 0 0 0 0 0 0 0 0 0 127 0" result="hardAlpha"/>
<feOffset dy="2"/>
<feGaussianBlur stdDeviation="4"/>
<feColorMatrix type="matrix" values="0 0 0 0 0 0 0 0 0 0 0 0 0 0 0 0 0 0 0.3 0"/>
<feBlend mode="normal" in2="BackgroundImageFix" result="effect1_dropShadow_283_6094"/>
<feColorMatrix in="SourceAlpha" type="matrix" values="0 0 0 0 0 0 0 0 0 0 0 0 0 0 0 0 0 0 127 0" result="hardAlpha"/>
<feOffset dy="1"/>
<feGaussianBlur stdDeviation="1"/>
<feColorMatrix type="matrix" values="0 0 0 0 0 0 0 0 0 0 0 0 0 0 0 0 0 0 0.15 0"/>
<feBlend mode="normal" in2="effect1_dropShadow_283_6094" result="effect2_dropShadow_283_6094"/>
<feBlend mode="normal" in="SourceGraphic" in2="effect2_dropShadow_283_6094" result="shape"/>
</filter>
<clipPath id="clip0_283_6094">
<rect width="320.395" height="39.9894" fill="white" transform="translate(44.4723 177.992)"/>
</clipPath>
</defs>
</svg>
