<svg width="409" height="67" viewBox="0 0 409 67" fill="none" xmlns="http://www.w3.org/2000/svg">
<g id="selected=Dark" filter="url(#filter0_dd_197_5922)">
<mask id="path-1-inside-1_197_5922" fill="white">
<path d="M8 6H401V60H8V6Z"/>
</mask>
<path d="M8 6H401V60H8V6Z" fill="#262B28"/>
<path d="M401 60V59H8V60V61H401V60Z" fill="#373F3B" mask="url(#path-1-inside-1_197_5922)"/>
<g id="Frame 93">
<path d="M39 18.25H54C62.1462 18.25 68.75 24.8538 68.75 33C68.75 41.1462 62.1462 47.75 54 47.75H39C30.8538 47.75 24.25 41.1462 24.25 33C24.25 24.8538 30.8538 18.25 39 18.25Z" fill="#5E9E72"/>
<path d="M39 18.25H54C62.1462 18.25 68.75 24.8538 68.75 33C68.75 41.1462 62.1462 47.75 54 47.75H39C30.8538 47.75 24.25 41.1462 24.25 33C24.25 24.8538 30.8538 18.25 39 18.25Z" stroke="#373F3B" stroke-width="0.5"/>
<path id="&#236;&#160;&#132;&#236;&#178;&#180;" d="M44.5684 35.8809H43.4883V31.2188H40.9863V30.3301H43.4883V26.9668H44.5684V35.8809ZM44.9102 38.8477H36.7617V35.0742H37.8418V37.9453H44.9102V38.8477ZM38.7168 29.4688C38.7168 29.9883 38.8421 30.4964 39.0928 30.9932C39.348 31.4854 39.7012 31.9229 40.1523 32.3057C40.6081 32.6885 41.1276 32.9779 41.7109 33.1738L41.1504 34.0352C40.4714 33.7891 39.8743 33.4245 39.3594 32.9414C38.849 32.4538 38.4616 31.8932 38.1973 31.2598C37.9329 31.9616 37.5319 32.5814 36.9941 33.1191C36.4564 33.6523 35.8275 34.0534 35.1074 34.3223L34.5469 33.4473C35.1393 33.2376 35.6702 32.9323 36.1396 32.5312C36.609 32.1257 36.9759 31.6585 37.2402 31.1299C37.5046 30.5967 37.6367 30.043 37.6367 29.4688V28.8398H34.8887V27.9512H41.4375V28.8398H38.7168V29.4688ZM50.1465 30.6992C50.1465 31.3509 50.2536 31.9935 50.4678 32.627C50.682 33.2604 50.9896 33.8324 51.3906 34.3428C51.7917 34.8486 52.2611 35.2474 52.7988 35.5391L52.1836 36.3457C51.5911 36.0267 51.0785 35.5732 50.6455 34.9854C50.2126 34.3929 49.8822 33.7207 49.6543 32.9688C49.431 33.7663 49.1029 34.484 48.6699 35.1221C48.2415 35.7601 47.7311 36.2591 47.1387 36.6191L46.4961 35.7988C47.0339 35.4889 47.501 35.0628 47.8975 34.5205C48.2939 33.9782 48.597 33.3743 48.8066 32.709C49.0208 32.0436 49.1302 31.3737 49.1348 30.6992V30.0977H46.8242V29.209H49.1348V27.4043H50.1602V29.209H52.4297V30.0977H50.1465V30.6992ZM56.9824 39.1074H55.957V26.9531H56.9824V39.1074ZM54.5215 38.4785H53.5098V32.668H51.5957V31.752H53.5098V27.2539H54.5215V38.4785Z" fill="#E8E4DC"/>
</g>
<g id="Frame 94">
<path d="M94 18.25H109C117.146 18.25 123.75 24.8538 123.75 33C123.75 41.1462 117.146 47.75 109 47.75H94C85.8538 47.75 79.25 41.1462 79.25 33C79.25 24.8538 85.8538 18.25 94 18.25Z" fill="#161A18"/>
<path d="M94 18.25H109C117.146 18.25 123.75 24.8538 123.75 33C123.75 41.1462 117.146 47.75 109 47.75H94C85.8538 47.75 79.25 41.1462 79.25 33C79.25 24.8538 85.8538 18.25 94 18.25Z" stroke="#373F3B" stroke-width="0.5"/>
<path id="&#237;&#153;&#149;&#236;&#160;&#149;" d="M98.9805 30.6445H100.799V31.5469H98.9805V35.1152H97.9004V26.9668H98.9805V30.6445ZM89.4375 33.8711C90.8411 33.8711 91.9395 33.8574 92.7324 33.8301V32.9482C92.263 32.9072 91.8529 32.8092 91.502 32.6543C91.151 32.4948 90.8799 32.2874 90.6885 32.0322C90.5016 31.777 90.4082 31.4831 90.4082 31.1504C90.4082 30.7858 90.5244 30.4691 90.7568 30.2002C90.9938 29.9313 91.3265 29.724 91.7549 29.5781C92.1878 29.4323 92.6868 29.3594 93.252 29.3594C93.8216 29.3594 94.3206 29.4323 94.749 29.5781C95.182 29.724 95.5146 29.9313 95.7471 30.2002C95.984 30.4691 96.1048 30.7858 96.1094 31.1504C96.1048 31.6471 95.8952 32.055 95.4805 32.374C95.0703 32.6885 94.5098 32.8776 93.7988 32.9414V33.7891C95.0977 33.7253 96.2142 33.625 97.1484 33.4883L97.2441 34.2676C96.082 34.4727 94.8857 34.6048 93.6553 34.6641C92.4294 34.7188 91.0645 34.7461 89.5605 34.7461L89.4375 33.8711ZM98.9805 39.1074H97.9004V36.5781H90.9277V35.7168H98.9805V39.1074ZM96.7793 28.8945H89.7383V28.0742H92.7324V26.8574H93.7988V28.0742H96.7793V28.8945ZM93.252 30.125C92.6914 30.1204 92.2471 30.2093 91.9189 30.3916C91.5954 30.5739 91.4336 30.8268 91.4336 31.1504C91.4336 31.36 91.5065 31.5446 91.6523 31.7041C91.8027 31.8636 92.0146 31.9889 92.2881 32.0801C92.5615 32.1667 92.8828 32.2077 93.252 32.2031C93.6211 32.2077 93.9424 32.1667 94.2158 32.0801C94.4938 31.9889 94.708 31.8636 94.8584 31.7041C95.0088 31.5446 95.084 31.36 95.084 31.1504C95.084 30.8314 94.9176 30.5785 94.585 30.3916C94.2568 30.2048 93.8125 30.1159 93.252 30.125ZM111.668 34.1992H110.588V31.0137H108.141V30.125H110.588V26.9531H111.668V34.1992ZM107.635 34.582C108.478 34.582 109.205 34.6709 109.815 34.8486C110.426 35.0264 110.893 35.2839 111.217 35.6211C111.545 35.9583 111.709 36.3639 111.709 36.8379C111.709 37.3118 111.545 37.7174 111.217 38.0547C110.893 38.3965 110.426 38.6562 109.815 38.834C109.205 39.0117 108.478 39.1029 107.635 39.1074C106.792 39.1029 106.065 39.0117 105.454 38.834C104.843 38.6562 104.374 38.3965 104.046 38.0547C103.722 37.7174 103.561 37.3118 103.561 36.8379C103.561 36.3639 103.722 35.9583 104.046 35.6211C104.374 35.2839 104.843 35.0264 105.454 34.8486C106.065 34.6709 106.792 34.582 107.635 34.582ZM107.635 35.416C107.02 35.416 106.484 35.473 106.028 35.5869C105.573 35.7008 105.224 35.8649 104.982 36.0791C104.741 36.2933 104.622 36.5462 104.627 36.8379C104.622 37.125 104.741 37.3757 104.982 37.5898C105.224 37.7995 105.573 37.9613 106.028 38.0752C106.484 38.1891 107.02 38.2461 107.635 38.2461C108.25 38.2461 108.783 38.1891 109.234 38.0752C109.69 37.9613 110.039 37.7995 110.28 37.5898C110.522 37.3757 110.643 37.125 110.643 36.8379C110.643 36.5462 110.522 36.2933 110.28 36.0791C110.039 35.8649 109.69 35.7008 109.234 35.5869C108.783 35.473 108.25 35.416 107.635 35.416ZM105.816 29.1816C105.816 29.7057 105.942 30.2139 106.192 30.7061C106.443 31.1937 106.794 31.6289 107.245 32.0117C107.701 32.39 108.223 32.6816 108.811 32.8867L108.25 33.748C107.571 33.502 106.974 33.1374 106.459 32.6543C105.949 32.1712 105.563 31.613 105.304 30.9795C105.039 31.6904 104.636 32.3193 104.094 32.8662C103.556 33.4085 102.927 33.8164 102.207 34.0898L101.646 33.2285C102.243 33.0098 102.777 32.6953 103.246 32.2852C103.715 31.8704 104.08 31.3942 104.34 30.8564C104.604 30.3187 104.736 29.765 104.736 29.1953V28.7441H101.988V27.8418H108.537V28.7441H105.816V29.1816Z" fill="#4A4845"/>
</g>
<g id="Frame 95">
<path d="M149 18.25H164C172.146 18.25 178.75 24.8538 178.75 33C178.75 41.1462 172.146 47.75 164 47.75H149C140.854 47.75 134.25 41.1462 134.25 33C134.25 24.8538 140.854 18.25 149 18.25Z" fill="#161A18"/>
<path d="M149 18.25H164C172.146 18.25 178.75 24.8538 178.75 33C178.75 41.1462 172.146 47.75 164 47.75H149C140.854 47.75 134.25 41.1462 134.25 33C134.25 24.8538 140.854 18.25 149 18.25Z" stroke="#373F3B" stroke-width="0.5"/>
<path id="&#235;&#179;&#128;&#234;&#178;&#189;" d="M154.568 35.9629H153.488V32.6953H150.617V33.8848H145.107V27.7734H146.174V29.9336H149.564V27.7734H150.617V29.1953H153.488V26.9668H154.568V35.9629ZM154.842 38.8477H146.707V35.0742H147.787V37.9453H154.842V38.8477ZM149.564 32.9961V30.7812H146.174V32.9961H149.564ZM153.488 31.8066V30.0977H150.617V31.8066H153.488ZM166.668 34.2676H165.588V32.627H162.361V31.7383H165.588V30.0977H162.478C162.086 31.0638 161.438 31.8978 160.536 32.5996C159.634 33.3014 158.524 33.8483 157.207 34.2402L156.756 33.3926C157.736 33.1009 158.586 32.7295 159.306 32.2783C160.026 31.8226 160.593 31.2985 161.008 30.7061C161.423 30.1136 161.666 29.4688 161.739 28.7715H157.371V27.8691H162.908C162.908 28.3385 162.856 28.7943 162.751 29.2363H165.588V26.9668H166.668V34.2676ZM162.689 34.3906C163.505 34.3906 164.218 34.484 164.829 34.6709C165.44 34.8577 165.909 35.1266 166.237 35.4775C166.57 35.8239 166.736 36.2363 166.736 36.7148C166.736 37.1979 166.57 37.6149 166.237 37.9658C165.909 38.3167 165.44 38.5856 164.829 38.7725C164.218 38.9593 163.505 39.0527 162.689 39.0527C161.865 39.0527 161.147 38.9593 160.536 38.7725C159.925 38.5856 159.454 38.3167 159.121 37.9658C158.793 37.6149 158.629 37.1979 158.629 36.7148C158.629 36.2363 158.793 35.8239 159.121 35.4775C159.454 35.1266 159.925 34.8577 160.536 34.6709C161.147 34.484 161.865 34.3906 162.689 34.3906ZM162.689 35.252C162.083 35.2474 161.552 35.3044 161.097 35.4229C160.646 35.5368 160.297 35.7054 160.051 35.9287C159.805 36.152 159.682 36.4141 159.682 36.7148C159.682 37.0156 159.805 37.2777 160.051 37.501C160.297 37.7197 160.646 37.8861 161.097 38C161.548 38.1185 162.079 38.1777 162.689 38.1777C163.291 38.1777 163.815 38.1185 164.262 38C164.708 37.8861 165.052 37.7197 165.294 37.501C165.54 37.2777 165.665 37.0156 165.67 36.7148C165.665 36.4141 165.54 36.152 165.294 35.9287C165.048 35.7054 164.701 35.5368 164.255 35.4229C163.808 35.3044 163.286 35.2474 162.689 35.252Z" fill="#4A4845"/>
</g>
<g id="Frame 96">
<path d="M204 18.25H219C227.146 18.25 233.75 24.8538 233.75 33C233.75 41.1462 227.146 47.75 219 47.75H204C195.854 47.75 189.25 41.1462 189.25 33C189.25 24.8538 195.854 18.25 204 18.25Z" fill="#161A18"/>
<path d="M204 18.25H219C227.146 18.25 233.75 24.8538 233.75 33C233.75 41.1462 227.146 47.75 219 47.75H204C195.854 47.75 189.25 41.1462 189.25 33C189.25 24.8538 195.854 18.25 204 18.25Z" stroke="#373F3B" stroke-width="0.5"/>
<path id="&#236;&#183;&#168;&#236;&#134;&#140;" d="M204.072 29.25C204.072 29.651 204.195 30.0316 204.441 30.3916C204.692 30.7471 205.038 31.057 205.48 31.3213C205.927 31.5811 206.438 31.7747 207.012 31.9023L206.574 32.7637C205.872 32.5951 205.262 32.3307 204.742 31.9707C204.223 31.6107 203.828 31.1846 203.56 30.6924C203.3 31.2301 202.906 31.6927 202.377 32.0801C201.848 32.4674 201.224 32.75 200.504 32.9277L200.039 32.0664C200.618 31.9388 201.131 31.736 201.577 31.458C202.028 31.18 202.379 30.8496 202.63 30.4668C202.881 30.084 203.006 29.6784 203.006 29.25V29.1953H200.299V28.3477H203.006V26.9941H204.072V28.3477H206.779V29.1953H204.072V29.25ZM209.514 39.1211H208.461V26.9668H209.514V39.1211ZM199.465 33.7891C201.014 33.7891 202.452 33.7663 203.778 33.7207C205.109 33.6706 206.374 33.5703 207.572 33.4199L207.641 34.1992C206.574 34.3724 205.394 34.4977 204.1 34.5752V38.752H203.033V34.6299C202.113 34.6709 200.973 34.6914 199.615 34.6914L199.465 33.7891ZM222.721 37.5215H211.592V36.6328H216.568V33.6523H217.621V36.6328H222.721V37.5215ZM217.648 28.7168C217.648 29.3639 217.872 29.986 218.318 30.583C218.77 31.18 219.344 31.6859 220.041 32.1006C220.743 32.5107 221.454 32.7773 222.174 32.9004L221.695 33.7891C221.066 33.6615 220.449 33.4404 219.843 33.126C219.237 32.8115 218.69 32.4196 218.202 31.9502C217.719 31.4808 217.35 30.9635 217.095 30.3984C216.84 30.9635 216.47 31.4808 215.987 31.9502C215.504 32.4196 214.96 32.8115 214.354 33.126C213.752 33.4404 213.137 33.6615 212.508 33.7891L212.029 32.9004C212.749 32.7773 213.456 32.5107 214.148 32.1006C214.846 31.6859 215.415 31.1823 215.857 30.5898C216.304 29.9928 216.527 29.3685 216.527 28.7168V27.7871H217.648V28.7168Z" fill="#4A4845"/>
</g>
</g>
<defs>
<filter id="filter0_dd_197_5922" x="0" y="0" width="409" height="70" filterUnits="userSpaceOnUse" color-interpolation-filters="sRGB">
<feFlood flood-opacity="0" result="BackgroundImageFix"/>
<feColorMatrix in="SourceAlpha" type="matrix" values="0 0 0 0 0 0 0 0 0 0 0 0 0 0 0 0 0 0 127 0" result="hardAlpha"/>
<feOffset dy="2"/>
<feGaussianBlur stdDeviation="4"/>
<feColorMatrix type="matrix" values="0 0 0 0 0 0 0 0 0 0 0 0 0 0 0 0 0 0 0.3 0"/>
<feBlend mode="normal" in2="BackgroundImageFix" result="effect1_dropShadow_197_5922"/>
<feColorMatrix in="SourceAlpha" type="matrix" values="0 0 0 0 0 0 0 0 0 0 0 0 0 0 0 0 0 0 127 0" result="hardAlpha"/>
<feOffset dy="1"/>
<feGaussianBlur stdDeviation="1"/>
<feColorMatrix type="matrix" values="0 0 0 0 0 0 0 0 0 0 0 0 0 0 0 0 0 0 0.15 0"/>
<feBlend mode="normal" in2="effect1_dropShadow_197_5922" result="effect2_dropShadow_197_5922"/>
<feBlend mode="normal" in="SourceGraphic" in2="effect2_dropShadow_197_5922" result="shape"/>
</filter>
</defs>
</svg>
