<svg width="425" height="104" viewBox="0 0 425 104" fill="none" xmlns="http://www.w3.org/2000/svg">
<g id="Property 1=Dark" filter="url(#filter0_dd_43_18)">
<mask id="path-1-inside-1_43_18" fill="white">
<path d="M16 12H409V84H16V12Z"/>
</mask>
<path d="M16 12H409V84H16V12Z" fill="#161A18"/>
<path d="M16 12V13H409V12V11H16V12Z" fill="#373F3B" mask="url(#path-1-inside-1_43_18)"/>
<g id="DarkMode-Home">
<g id="Icon">
<path id="Vector" d="M66.987 47.4994V39.5008C66.987 39.2356 66.8817 38.9813 66.6942 38.7938C66.5067 38.6063 66.2523 38.501 65.9872 38.501H61.9879C61.7227 38.501 61.4684 38.6063 61.2809 38.7938C61.0934 38.9813 60.988 39.2356 60.988 39.5008V47.4994" stroke="#5E9E72" stroke-width="1.99965" stroke-linecap="round" stroke-linejoin="round"/>
<path id="Vector_2" d="M54.989 36.501C54.9889 36.2101 55.0523 35.9227 55.1748 35.6589C55.2972 35.395 55.4757 35.1611 55.6979 34.9733L62.6967 28.9753C63.0576 28.6703 63.5149 28.5029 63.9875 28.5029C64.46 28.5029 64.9173 28.6703 65.2782 28.9753L72.277 34.9733C72.4992 35.1611 72.6777 35.395 72.8001 35.6589C72.9226 35.9227 72.986 36.2101 72.9859 36.501V45.4995C72.9859 46.0298 72.7752 46.5384 72.4002 46.9134C72.0252 47.2884 71.5166 47.4991 70.9862 47.4991H56.9887C56.4583 47.4991 55.9497 47.2884 55.5747 46.9134C55.1997 46.5384 54.989 46.0298 54.989 45.4995V36.501Z" stroke="#5E9E72" stroke-width="1.99965" stroke-linecap="round" stroke-linejoin="round"/>
</g>
<g id="Layout">
<path id="&#237;&#153;&#136;" d="M66.7393 68.3047H59.5674V65.3281H66.7393V68.3047ZM60.4814 67.5898H65.8369V66.043H60.4814V67.5898ZM67.3486 59.6211H58.8994V58.9062H62.6963V57.875H63.6104V58.9062H67.3486V59.6211ZM63.1533 60.043C64.2432 60.0508 65.0771 60.1797 65.6553 60.4297C66.2373 60.6758 66.5283 61.0391 66.5283 61.5195C66.5283 61.9727 66.2783 62.3223 65.7783 62.5684C65.2783 62.8145 64.5557 62.9551 63.6104 62.9902V63.793H67.8994V64.5312H58.4072V63.793H62.6963V62.9902C61.7471 62.9551 61.0205 62.8145 60.5166 62.5684C60.0166 62.3223 59.7666 61.9727 59.7666 61.5195C59.7666 61.0391 60.0576 60.6758 60.6396 60.4297C61.2256 60.1797 62.0635 60.0508 63.1533 60.043ZM63.1533 60.6875C62.376 60.6953 61.7803 60.7695 61.3662 60.9102C60.9521 61.0508 60.7471 61.2539 60.751 61.5195C60.7432 61.7852 60.9502 61.9902 61.3721 62.1348C61.7939 62.2793 62.3877 62.3516 63.1533 62.3516C63.915 62.3516 64.5049 62.2793 64.9229 62.1348C65.3447 61.9902 65.5557 61.7852 65.5557 61.5195C65.5557 61.2539 65.3467 61.0508 64.9287 60.9102C64.5146 60.7695 63.9229 60.6953 63.1533 60.6875Z" fill="#5E9E72"/>
</g>
</g>
<g id="DarkMode-Chat">
<g id="Icon_2">
<path id="Vector_3" d="M147.235 41.5004C147.235 42.0307 147.025 42.5393 146.65 42.9143C146.275 43.2893 145.766 43.5 145.236 43.5H133.238L129.239 47.4993V31.5021C129.239 30.9718 129.449 30.4631 129.824 30.0881C130.199 29.7131 130.708 29.5024 131.238 29.5024H145.236C145.766 29.5024 146.275 29.7131 146.65 30.0881C147.025 30.4631 147.235 30.9718 147.235 31.5021V41.5004Z" stroke="#4A4845" stroke-width="1.99965" stroke-linecap="round" stroke-linejoin="round"/>
</g>
<g id="Layout_2">
<path id="&#236;&#177;&#132;&#237;&#140;&#133;" d="M129.702 61.2266C129.702 61.7852 129.794 62.334 129.977 62.873C130.161 63.4121 130.425 63.9004 130.768 64.3379C131.116 64.7715 131.522 65.1133 131.987 65.3633L131.448 66.0547C130.94 65.7773 130.501 65.3867 130.13 64.8828C129.759 64.3789 129.475 63.8066 129.28 63.166C129.089 63.8496 128.807 64.4629 128.436 65.0059C128.065 65.5488 127.628 65.9688 127.124 66.2656L126.573 65.5859C127.03 65.3203 127.428 64.957 127.768 64.4961C128.108 64.0312 128.37 63.5156 128.553 62.9492C128.737 62.3789 128.831 61.8047 128.835 61.2266V60.7461H126.819V59.9844H128.835V58.4141H129.714V59.9844H131.706V60.7461H129.702V61.2266ZM135.608 68.4453H134.718V63.0312H133.3V67.918H132.421V58.25H133.3V62.2461H134.718V58.0273H135.608V68.4453ZM142.828 59.5508H138.761V60.8633H142.535V61.6133H138.761V62.9844C139.945 62.9844 140.886 62.9668 141.585 62.9316C142.285 62.8926 142.984 62.8164 143.683 62.7031L143.777 63.4531C143.046 63.5703 142.318 63.6484 141.591 63.6875C140.865 63.7266 139.894 63.7461 138.679 63.7461H137.835V58.8008H142.828V59.5508ZM145.828 64.4961H144.914V58.0391H145.828V64.4961ZM142.371 64.6484C143.089 64.6445 143.712 64.7168 144.24 64.8652C144.767 65.0098 145.171 65.2246 145.453 65.5098C145.734 65.791 145.875 66.1289 145.875 66.5234C145.875 66.9258 145.734 67.2676 145.453 67.5488C145.171 67.834 144.767 68.0508 144.24 68.1992C143.716 68.3477 143.093 68.4219 142.371 68.4219C141.632 68.4219 141 68.3477 140.472 68.1992C139.945 68.0547 139.541 67.8398 139.259 67.5547C138.982 67.2695 138.843 66.9258 138.843 66.5234C138.843 66.1289 138.982 65.791 139.259 65.5098C139.541 65.2246 139.945 65.0098 140.472 64.8652C141.003 64.7168 141.636 64.6445 142.371 64.6484ZM142.371 65.375C141.828 65.375 141.359 65.4219 140.964 65.5156C140.574 65.6055 140.275 65.7363 140.068 65.9082C139.861 66.0801 139.757 66.2852 139.757 66.5234C139.757 66.7695 139.861 66.9805 140.068 67.1562C140.275 67.332 140.574 67.4648 140.964 67.5547C141.359 67.6484 141.828 67.6953 142.371 67.6953C142.902 67.6953 143.363 67.6484 143.753 67.5547C144.144 67.4609 144.445 67.3262 144.656 67.1504C144.867 66.9746 144.972 66.7656 144.972 66.5234C144.972 66.2891 144.867 66.0859 144.656 65.9141C144.445 65.7383 144.142 65.6055 143.748 65.5156C143.357 65.4219 142.898 65.375 142.371 65.375Z" fill="#4A4845"/>
</g>
</g>
<g id="DarkMode-Plan">
<g id="Icon_3">
<path id="Vector_4" d="M208.493 28.5024V32.5024" stroke="#4A4845" stroke-width="1.99965" stroke-linecap="round" stroke-linejoin="round"/>
<path id="Vector_5" d="M216.492 28.5024V32.5024" stroke="#4A4845" stroke-width="1.99965" stroke-linecap="round" stroke-linejoin="round"/>
<path id="Vector_6" d="M219.491 30.5024H205.494C204.389 30.5024 203.494 31.3977 203.494 32.5021V46.4997C203.494 47.604 204.389 48.4993 205.494 48.4993H219.491C220.596 48.4993 221.491 47.604 221.491 46.4997V32.5021C221.491 31.3977 220.596 30.5024 219.491 30.5024Z" stroke="#4A4845" stroke-width="1.99965" stroke-linecap="round" stroke-linejoin="round"/>
<path id="Vector_7" d="M203.494 36.501H221.491" stroke="#4A4845" stroke-width="1.99965" stroke-linecap="round" stroke-linejoin="round"/>
</g>
<g id="Layout_3">
<path id="&#236;&#157;&#188;&#236;&#160;&#149;" d="M203.864 58.4141C204.379 58.418 204.84 58.5176 205.246 58.7129C205.656 58.9082 205.977 59.1816 206.207 59.5332C206.442 59.8809 206.559 60.2773 206.559 60.7227C206.559 61.168 206.442 61.5664 206.207 61.918C205.977 62.2656 205.656 62.5371 205.246 62.7324C204.84 62.9238 204.379 63.0195 203.864 63.0195C203.34 63.0195 202.873 62.9238 202.463 62.7324C202.053 62.5371 201.733 62.2656 201.502 61.918C201.272 61.5664 201.156 61.168 201.156 60.7227C201.156 60.2773 201.272 59.8809 201.502 59.5332C201.733 59.1816 202.053 58.9082 202.463 58.7129C202.873 58.5176 203.34 58.418 203.864 58.4141ZM203.864 59.1875C203.52 59.1875 203.209 59.2539 202.932 59.3867C202.658 59.5156 202.444 59.6973 202.287 59.9316C202.131 60.1621 202.055 60.4258 202.059 60.7227C202.055 61.0234 202.131 61.291 202.287 61.5254C202.444 61.7598 202.658 61.9434 202.932 62.0762C203.209 62.2051 203.52 62.2695 203.864 62.2695C204.203 62.2695 204.51 62.2051 204.783 62.0762C205.061 61.9434 205.278 61.7598 205.434 61.5254C205.59 61.291 205.668 61.0234 205.668 60.7227C205.668 60.4258 205.59 60.1621 205.434 59.9316C205.278 59.6973 205.061 59.5156 204.783 59.3867C204.51 59.2539 204.203 59.1875 203.864 59.1875ZM209.512 63.3828H208.598V58.0273H209.512V63.3828ZM209.512 66.3945H203.664V67.5664H209.887V68.3047H202.762V65.7031H208.598V64.625H202.739V63.8867H209.512V66.3945ZM220.118 64.2383H219.192V61.5078H217.095V60.7461H219.192V58.0273H220.118V64.2383ZM216.661 64.5664C217.384 64.5664 218.007 64.6426 218.53 64.7949C219.054 64.9473 219.454 65.168 219.731 65.457C220.013 65.7461 220.153 66.0938 220.153 66.5C220.153 66.9062 220.013 67.2539 219.731 67.543C219.454 67.8359 219.054 68.0586 218.53 68.2109C218.007 68.3633 217.384 68.4414 216.661 68.4453C215.939 68.4414 215.315 68.3633 214.792 68.2109C214.269 68.0586 213.866 67.8359 213.585 67.543C213.308 67.2539 213.169 66.9062 213.169 66.5C213.169 66.0938 213.308 65.7461 213.585 65.457C213.866 65.168 214.269 64.9473 214.792 64.7949C215.315 64.6426 215.939 64.5664 216.661 64.5664ZM216.661 65.2812C216.134 65.2812 215.675 65.3301 215.284 65.4277C214.894 65.5254 214.595 65.666 214.388 65.8496C214.181 66.0332 214.079 66.25 214.083 66.5C214.079 66.7461 214.181 66.9609 214.388 67.1445C214.595 67.3242 214.894 67.4629 215.284 67.5605C215.675 67.6582 216.134 67.707 216.661 67.707C217.189 67.707 217.646 67.6582 218.032 67.5605C218.423 67.4629 218.722 67.3242 218.929 67.1445C219.136 66.9609 219.239 66.7461 219.239 66.5C219.239 66.25 219.136 66.0332 218.929 65.8496C218.722 65.666 218.423 65.5254 218.032 65.4277C217.646 65.3301 217.189 65.2812 216.661 65.2812ZM215.103 59.9375C215.103 60.3867 215.21 60.8223 215.425 61.2441C215.64 61.6621 215.94 62.0352 216.327 62.3633C216.718 62.6875 217.165 62.9375 217.669 63.1133L217.189 63.8516C216.606 63.6406 216.095 63.3281 215.653 62.9141C215.216 62.5 214.886 62.0215 214.663 61.4785C214.437 62.0879 214.091 62.627 213.626 63.0957C213.165 63.5605 212.626 63.9102 212.009 64.1445L211.528 63.4062C212.04 63.2188 212.497 62.9492 212.899 62.5977C213.302 62.2422 213.614 61.834 213.837 61.373C214.064 60.9121 214.177 60.4375 214.177 59.9492V59.5625H211.821V58.7891H217.435V59.5625H215.103V59.9375Z" fill="#4A4845"/>
</g>
</g>
<g id="DarkMode-PlanList">
<g id="Icon_4">
<path id="Vector_8" d="M277.75 38.5083H277.76" stroke="#4A4845" stroke-width="1.99986" stroke-linecap="round" stroke-linejoin="round"/>
<path id="Vector_9" d="M277.75 44.5078H277.76" stroke="#4A4845" stroke-width="1.99986" stroke-linecap="round" stroke-linejoin="round"/>
<path id="Vector_10" d="M277.75 32.5088H277.76" stroke="#4A4845" stroke-width="1.99986" stroke-linecap="round" stroke-linejoin="round"/>
<path id="Vector_11" d="M282.75 38.5083H295.75" stroke="#4A4845" stroke-width="1.99986" stroke-linecap="round" stroke-linejoin="round"/>
<path id="Vector_12" d="M282.75 44.5078H295.75" stroke="#4A4845" stroke-width="1.99986" stroke-linecap="round" stroke-linejoin="round"/>
<path id="Vector_13" d="M282.75 32.5088H295.75" stroke="#4A4845" stroke-width="1.99986" stroke-linecap="round" stroke-linejoin="round"/>
</g>
<g id="Layout_4">
<path id="&#236;&#151;&#172;&#237;&#150;&#137;&#235;&#170;&#169;&#235;&#161;&#157;" d="M268.241 58.9995H271.529V59.8155H268.241V58.9995ZM268.241 62.4315H271.529V63.2475H268.241V62.4315ZM266.249 57.4155C266.777 57.4155 267.245 57.5715 267.653 57.8835C268.061 58.1875 268.377 58.6235 268.601 59.1915C268.833 59.7595 268.949 60.4275 268.949 61.1955C268.949 61.9635 268.833 62.6315 268.601 63.1995C268.377 63.7675 268.061 64.2075 267.653 64.5195C267.245 64.8315 266.777 64.9875 266.249 64.9875C265.729 64.9875 265.261 64.8315 264.845 64.5195C264.437 64.2075 264.117 63.7675 263.885 63.1995C263.661 62.6315 263.549 61.9635 263.549 61.1955C263.549 60.4275 263.661 59.7595 263.885 59.1915C264.117 58.6235 264.437 58.1875 264.845 57.8835C265.261 57.5715 265.729 57.4155 266.249 57.4155ZM266.249 58.3035C265.905 58.3035 265.601 58.4235 265.337 58.6635C265.073 58.8955 264.865 59.2315 264.713 59.6715C264.569 60.1035 264.497 60.6115 264.497 61.1955C264.497 61.7795 264.569 62.2915 264.713 62.7315C264.865 63.1635 265.073 63.4995 265.337 63.7395C265.601 63.9795 265.905 64.0995 266.249 64.0995C266.601 64.0995 266.909 63.9795 267.173 63.7395C267.437 63.4995 267.641 63.1635 267.785 62.7315C267.937 62.2915 268.013 61.7795 268.013 61.1955C268.013 60.6115 267.937 60.1035 267.785 59.6715C267.641 59.2315 267.437 58.8955 267.173 58.6635C266.909 58.4235 266.601 58.3035 266.249 58.3035ZM271.301 56.5755H272.285V67.4475H271.301V56.5755ZM282.592 56.5755H283.54V63.4395H282.592V56.5755ZM280.816 59.5275H282.868V60.3435H280.816V59.5275ZM280.264 56.7915H281.2V63.0555H280.264V56.7915ZM274.336 57.8715H279.832V58.6635H274.336V57.8715ZM277.096 59.2275C277.552 59.2275 277.952 59.3035 278.296 59.4555C278.648 59.6075 278.92 59.8235 279.112 60.1035C279.312 60.3835 279.412 60.7115 279.412 61.0875C279.412 61.4635 279.312 61.7915 279.112 62.0715C278.92 62.3435 278.648 62.5555 278.296 62.7075C277.952 62.8595 277.552 62.9355 277.096 62.9355C276.648 62.9355 276.248 62.8595 275.896 62.7075C275.544 62.5555 275.272 62.3435 275.08 62.0715C274.888 61.7915 274.792 61.4635 274.792 61.0875C274.792 60.7115 274.888 60.3835 275.08 60.1035C275.272 59.8235 275.544 59.6075 275.896 59.4555C276.248 59.3035 276.648 59.2275 277.096 59.2275ZM277.096 59.9715C276.68 59.9715 276.34 60.0715 276.076 60.2715C275.812 60.4715 275.68 60.7435 275.68 61.0875C275.68 61.4235 275.808 61.6955 276.064 61.9035C276.328 62.1035 276.672 62.2035 277.096 62.2035C277.52 62.2035 277.86 62.1035 278.116 61.9035C278.38 61.6955 278.512 61.4235 278.512 61.0875C278.512 60.7435 278.38 60.4715 278.116 60.2715C277.86 60.0715 277.52 59.9715 277.096 59.9715ZM276.604 56.6595H277.588V58.3275H276.604V56.6595ZM279.976 63.6315C281.112 63.6315 282 63.7955 282.64 64.1235C283.28 64.4515 283.6 64.9195 283.6 65.5275C283.6 66.1275 283.28 66.5915 282.64 66.9195C282 67.2475 281.112 67.4115 279.976 67.4115C278.84 67.4115 277.952 67.2475 277.312 66.9195C276.672 66.5915 276.352 66.1275 276.352 65.5275C276.352 64.9195 276.672 64.4515 277.312 64.1235C277.952 63.7955 278.84 63.6315 279.976 63.6315ZM279.976 64.3995C279.144 64.3995 278.496 64.4955 278.032 64.6875C277.568 64.8795 277.336 65.1595 277.336 65.5275C277.336 65.8875 277.568 66.1635 278.032 66.3555C278.496 66.5475 279.144 66.6435 279.976 66.6435C280.8 66.6435 281.444 66.5475 281.908 66.3555C282.372 66.1635 282.604 65.8875 282.604 65.5275C282.604 65.1595 282.372 64.8795 281.908 64.6875C281.444 64.4955 280.8 64.3995 279.976 64.3995ZM286.695 57.0315H293.979V60.7155H286.695V57.0315ZM293.007 57.8235H287.667V59.9115H293.007V57.8235ZM285.435 62.0715H295.239V62.8875H285.435V62.0715ZM289.839 60.5115H290.835V62.3835H289.839V60.5115ZM286.527 64.0035H294.027V67.4355H293.031V64.8075H286.527V64.0035ZM296.462 62.5515H306.302V63.3675H296.462V62.5515ZM297.71 56.8515H305.042V59.4915H298.718V60.9435H297.734V58.7475H304.058V57.6435H297.71V56.8515ZM297.734 60.6195H305.27V61.4115H297.734V60.6195ZM300.89 61.0275H301.874V62.9475H300.89V61.0275ZM297.566 64.1955H305.102V67.3275H304.106V64.9995H297.566V64.1955Z" fill="#4A4845"/>
</g>
</g>
<g id="DarkMode-Setting">
<g id="Icon_5">
<path id="Vector_14" d="M361.227 28.5024H360.787C360.256 28.5024 359.748 28.7131 359.373 29.0881C358.998 29.4631 358.787 29.9718 358.787 30.5021V30.6821C358.787 31.0327 358.694 31.3771 358.519 31.6807C358.343 31.9843 358.091 32.2364 357.787 32.4118L357.357 32.6617C357.053 32.8372 356.709 32.9296 356.358 32.9296C356.007 32.9296 355.662 32.8372 355.358 32.6617L355.208 32.5817C354.749 32.317 354.204 32.2452 353.692 32.3821C353.18 32.5189 352.744 32.8532 352.478 33.3116L352.258 33.6915C351.994 34.1504 351.922 34.6955 352.059 35.2073C352.195 35.719 352.53 36.1556 352.988 36.4211L353.138 36.5211C353.44 36.6955 353.692 36.9461 353.867 37.2478C354.042 37.5494 354.136 37.8918 354.138 38.2408V38.7507C354.139 39.103 354.048 39.4495 353.872 39.755C353.696 40.0605 353.443 40.3142 353.138 40.4904L352.988 40.5803C352.53 40.8459 352.195 41.2824 352.059 41.7941C351.922 42.3059 351.994 42.851 352.258 43.3099L352.478 43.6898C352.744 44.1482 353.18 44.4825 353.692 44.6193C354.204 44.7562 354.749 44.6844 355.208 44.4197L355.358 44.3397C355.662 44.1642 356.007 44.0718 356.358 44.0718C356.709 44.0718 357.053 44.1642 357.357 44.3397L357.787 44.5897C358.091 44.765 358.343 45.0171 358.519 45.3207C358.694 45.6243 358.787 45.9687 358.787 46.3194V46.4993C358.787 47.0297 358.998 47.5383 359.373 47.9133C359.748 48.2883 360.256 48.499 360.787 48.499H361.227C361.757 48.499 362.266 48.2883 362.641 47.9133C363.016 47.5383 363.226 47.0297 363.226 46.4993V46.3194C363.227 45.9687 363.319 45.6243 363.495 45.3207C363.67 45.0171 363.922 44.765 364.226 44.5897L364.656 44.3397C364.96 44.1642 365.305 44.0718 365.656 44.0718C366.007 44.0718 366.352 44.1642 366.656 44.3397L366.806 44.4197C367.265 44.6844 367.81 44.7562 368.321 44.6193C368.833 44.4825 369.27 44.1482 369.535 43.6898L369.755 43.2999C370.02 42.841 370.092 42.2959 369.955 41.7841C369.818 41.2724 369.484 40.8359 369.025 40.5703L368.875 40.4904C368.57 40.3142 368.317 40.0605 368.141 39.755C367.966 39.4495 367.874 39.103 367.876 38.7507V38.2508C367.874 37.8984 367.966 37.5519 368.141 37.2464C368.317 36.9409 368.57 36.6872 368.875 36.5111L369.025 36.4211C369.484 36.1556 369.818 35.719 369.955 35.2073C370.092 34.6955 370.02 34.1504 369.755 33.6915L369.535 33.3116C369.27 32.8532 368.833 32.5189 368.321 32.3821C367.81 32.2452 367.265 32.317 366.806 32.5817L366.656 32.6617C366.352 32.8372 366.007 32.9296 365.656 32.9296C365.305 32.9296 364.96 32.8372 364.656 32.6617L364.226 32.4118C363.922 32.2364 363.67 31.9843 363.495 31.6807C363.319 31.3771 363.227 31.0327 363.226 30.6821V30.5021C363.226 29.9718 363.016 29.4631 362.641 29.0881C362.266 28.7131 361.757 28.5024 361.227 28.5024Z" stroke="#4A4845" stroke-width="1.99965" stroke-linecap="round" stroke-linejoin="round"/>
<path id="Vector_15" d="M361.007 41.5004C362.663 41.5004 364.006 40.1575 364.006 38.5009C364.006 36.8444 362.663 35.5015 361.007 35.5015C359.35 35.5015 358.007 36.8444 358.007 38.5009C358.007 40.1575 359.35 41.5004 361.007 41.5004Z" stroke="#4A4845" stroke-width="1.99965" stroke-linecap="round" stroke-linejoin="round"/>
</g>
<g id="Layout_5">
<path id="&#236;&#132;&#164;&#236;&#160;&#149;" d="M358.062 63.418H357.136V60.7109H354.816V59.9492H357.136V58.0273H358.062V63.418ZM358.062 66.4297H352.238V67.5664H358.448V68.3047H351.335V65.7266H357.148V64.6836H351.312V63.9453H358.062V66.4297ZM352.976 59.3516C352.972 59.8008 353.079 60.2324 353.298 60.6465C353.517 61.0605 353.823 61.4258 354.218 61.7422C354.613 62.0586 355.062 62.3008 355.566 62.4688L355.073 63.1836C354.495 62.9766 353.986 62.6758 353.544 62.2812C353.103 61.8867 352.767 61.4277 352.536 60.9043C352.318 61.4941 351.982 62.0098 351.529 62.4512C351.075 62.8887 350.538 63.2188 349.917 63.4414L349.413 62.7031C349.933 62.5312 350.392 62.2793 350.79 61.9473C351.193 61.6113 351.505 61.2207 351.728 60.7754C351.954 60.3262 352.07 59.8516 352.073 59.3516V58.3672H352.976V59.3516ZM368.633 64.2383H367.707V61.5078H365.609V60.7461H367.707V58.0273H368.633V64.2383ZM365.176 64.5664C365.898 64.5664 366.522 64.6426 367.045 64.7949C367.568 64.9473 367.969 65.168 368.246 65.457C368.527 65.7461 368.668 66.0938 368.668 66.5C368.668 66.9062 368.527 67.2539 368.246 67.543C367.969 67.8359 367.568 68.0586 367.045 68.2109C366.522 68.3633 365.898 68.4414 365.176 68.4453C364.453 68.4414 363.83 68.3633 363.307 68.2109C362.783 68.0586 362.381 67.8359 362.1 67.543C361.822 67.2539 361.684 66.9062 361.684 66.5C361.684 66.0938 361.822 65.7461 362.1 65.457C362.381 65.168 362.783 64.9473 363.307 64.7949C363.83 64.6426 364.453 64.5664 365.176 64.5664ZM365.176 65.2812C364.648 65.2812 364.19 65.3301 363.799 65.4277C363.408 65.5254 363.109 65.666 362.902 65.8496C362.695 66.0332 362.594 66.25 362.598 66.5C362.594 66.7461 362.695 66.9609 362.902 67.1445C363.109 67.3242 363.408 67.4629 363.799 67.5605C364.19 67.6582 364.648 67.707 365.176 67.707C365.703 67.707 366.16 67.6582 366.547 67.5605C366.938 67.4629 367.236 67.3242 367.443 67.1445C367.65 66.9609 367.754 66.7461 367.754 66.5C367.754 66.25 367.65 66.0332 367.443 65.8496C367.236 65.666 366.938 65.5254 366.547 65.4277C366.16 65.3301 365.703 65.2812 365.176 65.2812ZM363.617 59.9375C363.617 60.3867 363.725 60.8223 363.94 61.2441C364.154 61.6621 364.455 62.0352 364.842 62.3633C365.232 62.6875 365.68 62.9375 366.184 63.1133L365.703 63.8516C365.121 63.6406 364.609 63.3281 364.168 62.9141C363.731 62.5 363.4 62.0215 363.178 61.4785C362.951 62.0879 362.606 62.627 362.141 63.0957C361.68 63.5605 361.141 63.9102 360.523 64.1445L360.043 63.4062C360.555 63.2188 361.012 62.9492 361.414 62.5977C361.816 62.2422 362.129 61.834 362.352 61.373C362.578 60.9121 362.691 60.4375 362.691 59.9492V59.5625H360.336V58.7891H365.949V59.5625H363.617V59.9375Z" fill="#4A4845"/>
</g>
</g>
</g>
<defs>
<filter id="filter0_dd_43_18" x="0" y="0" width="425" height="104" filterUnits="userSpaceOnUse" color-interpolation-filters="sRGB">
<feFlood flood-opacity="0" result="BackgroundImageFix"/>
<feColorMatrix in="SourceAlpha" type="matrix" values="0 0 0 0 0 0 0 0 0 0 0 0 0 0 0 0 0 0 127 0" result="hardAlpha"/>
<feOffset dy="4"/>
<feGaussianBlur stdDeviation="8"/>
<feColorMatrix type="matrix" values="0 0 0 0 0 0 0 0 0 0 0 0 0 0 0 0 0 0 0.4 0"/>
<feBlend mode="normal" in2="BackgroundImageFix" result="effect1_dropShadow_43_18"/>
<feColorMatrix in="SourceAlpha" type="matrix" values="0 0 0 0 0 0 0 0 0 0 0 0 0 0 0 0 0 0 127 0" result="hardAlpha"/>
<feOffset dy="1"/>
<feGaussianBlur stdDeviation="2"/>
<feColorMatrix type="matrix" values="0 0 0 0 0 0 0 0 0 0 0 0 0 0 0 0 0 0 0.2 0"/>
<feBlend mode="normal" in2="effect1_dropShadow_43_18" result="effect2_dropShadow_43_18"/>
<feBlend mode="normal" in="SourceGraphic" in2="effect2_dropShadow_43_18" result="shape"/>
</filter>
</defs>
</svg>
