<svg width="425" height="105" viewBox="0 0 425 105" fill="none" xmlns="http://www.w3.org/2000/svg">
<g id="Property 1=Light" filter="url(#filter0_dd_81_2302)">
<mask id="path-1-outside-1_81_2302" maskUnits="userSpaceOnUse" x="16" y="12" width="393" height="73" fill="black">
<rect fill="white" x="16" y="12" width="393" height="73"/>
<path d="M16 13H409V85H16V13Z"/>
</mask>
<path d="M16 13H409V85H16V13Z" fill="#FAFAF7"/>
<path d="M16 13V14H409V13V12H16V13Z" fill="#E2DDD5" mask="url(#path-1-outside-1_81_2302)"/>
<g id="LightMode-Home">
<g id="Icon">
<path id="Vector" d="M66.987 47.9994V40.0008C66.987 39.7356 66.8817 39.4813 66.6942 39.2938C66.5067 39.1063 66.2523 39.001 65.9872 39.001H61.9879C61.7227 39.001 61.4684 39.1063 61.2809 39.2938C61.0934 39.4813 60.988 39.7356 60.988 40.0008V47.9994" stroke="#6A9E7A" stroke-width="1.99965" stroke-linecap="round" stroke-linejoin="round"/>
<path id="Vector_2" d="M54.989 37.001C54.9889 36.7101 55.0523 36.4227 55.1748 36.1589C55.2972 35.895 55.4757 35.6611 55.6979 35.4733L62.6967 29.4753C63.0576 29.1703 63.5149 29.0029 63.9875 29.0029C64.46 29.0029 64.9173 29.1703 65.2782 29.4753L72.277 35.4733C72.4992 35.6611 72.6777 35.895 72.8001 36.1589C72.9226 36.4227 72.986 36.7101 72.9859 37.001V45.9995C72.9859 46.5298 72.7752 47.0384 72.4002 47.4134C72.0252 47.7884 71.5166 47.9991 70.9862 47.9991H56.9887C56.4583 47.9991 55.9497 47.7884 55.5747 47.4134C55.1997 47.0384 54.989 46.5298 54.989 45.9995V37.001Z" stroke="#6A9E7A" stroke-width="1.99965" stroke-linecap="round" stroke-linejoin="round"/>
</g>
<g id="Layout">
<path id="&#237;&#153;&#136;" d="M67.2412 68.8047H60.0693V65.8281H67.2412V68.8047ZM60.9834 68.0898H66.3389V66.543H60.9834V68.0898ZM67.8506 60.1211H59.4014V59.4062H63.1982V58.375H64.1123V59.4062H67.8506V60.1211ZM63.6553 60.543C64.7451 60.5508 65.5791 60.6797 66.1572 60.9297C66.7393 61.1758 67.0303 61.5391 67.0303 62.0195C67.0303 62.4727 66.7803 62.8223 66.2803 63.0684C65.7803 63.3145 65.0576 63.4551 64.1123 63.4902V64.293H68.4014V65.0312H58.9092V64.293H63.1982V63.4902C62.249 63.4551 61.5225 63.3145 61.0186 63.0684C60.5186 62.8223 60.2686 62.4727 60.2686 62.0195C60.2686 61.5391 60.5596 61.1758 61.1416 60.9297C61.7275 60.6797 62.5654 60.5508 63.6553 60.543ZM63.6553 61.1875C62.8779 61.1953 62.2822 61.2695 61.8682 61.4102C61.4541 61.5508 61.249 61.7539 61.2529 62.0195C61.2451 62.2852 61.4521 62.4902 61.874 62.6348C62.2959 62.7793 62.8896 62.8516 63.6553 62.8516C64.417 62.8516 65.0068 62.7793 65.4248 62.6348C65.8467 62.4902 66.0576 62.2852 66.0576 62.0195C66.0576 61.7539 65.8486 61.5508 65.4307 61.4102C65.0166 61.2695 64.4248 61.1953 63.6553 61.1875Z" fill="#6A9E7A"/>
</g>
</g>
<g id="LightMode-Chat">
<g id="Icon_2">
<path id="Vector_3" d="M147.235 42.0004C147.235 42.5307 147.025 43.0393 146.65 43.4143C146.275 43.7893 145.766 44 145.236 44H133.238L129.239 47.9993V32.0021C129.239 31.4718 129.449 30.9631 129.824 30.5881C130.199 30.2131 130.708 30.0024 131.238 30.0024H145.236C145.766 30.0024 146.275 30.2131 146.65 30.5881C147.025 30.9631 147.235 31.4718 147.235 32.0021V42.0004Z" stroke="#B0ADA7" stroke-width="1.99965" stroke-linecap="round" stroke-linejoin="round"/>
</g>
<g id="Layout_2">
<path id="&#236;&#177;&#132;&#237;&#140;&#133;" d="M131.206 61.7266C131.206 62.2852 131.297 62.834 131.481 63.373C131.665 63.9121 131.928 64.4004 132.272 64.8379C132.62 65.2715 133.026 65.6133 133.491 65.8633L132.952 66.5547C132.444 66.2773 132.004 65.8867 131.633 65.3828C131.262 64.8789 130.979 64.3066 130.784 63.666C130.592 64.3496 130.311 64.9629 129.94 65.5059C129.569 66.0488 129.131 66.4688 128.627 66.7656L128.077 66.0859C128.534 65.8203 128.932 65.457 129.272 64.9961C129.612 64.5312 129.874 64.0156 130.057 63.4492C130.241 62.8789 130.334 62.3047 130.338 61.7266V61.2461H128.323V60.4844H130.338V58.9141H131.217V60.4844H133.209V61.2461H131.206V61.7266ZM137.112 68.9453H136.221V63.5312H134.803V68.418H133.924V58.75H134.803V62.7461H136.221V58.5273H137.112V68.9453ZM144.331 60.0508H140.265V61.3633H144.038V62.1133H140.265V63.4844C141.449 63.4844 142.39 63.4668 143.089 63.4316C143.788 63.3926 144.488 63.3164 145.187 63.2031L145.281 63.9531C144.55 64.0703 143.822 64.1484 143.095 64.1875C142.368 64.2266 141.398 64.2461 140.183 64.2461H139.339V59.3008H144.331V60.0508ZM147.331 64.9961H146.417V58.5391H147.331V64.9961ZM143.874 65.1484C144.593 65.1445 145.216 65.2168 145.743 65.3652C146.271 65.5098 146.675 65.7246 146.956 66.0098C147.238 66.291 147.378 66.6289 147.378 67.0234C147.378 67.4258 147.238 67.7676 146.956 68.0488C146.675 68.334 146.271 68.5508 145.743 68.6992C145.22 68.8477 144.597 68.9219 143.874 68.9219C143.136 68.9219 142.503 68.8477 141.976 68.6992C141.449 68.5547 141.044 68.3398 140.763 68.0547C140.486 67.7695 140.347 67.4258 140.347 67.0234C140.347 66.6289 140.486 66.291 140.763 66.0098C141.044 65.7246 141.449 65.5098 141.976 65.3652C142.507 65.2168 143.14 65.1445 143.874 65.1484ZM143.874 65.875C143.331 65.875 142.863 65.9219 142.468 66.0156C142.077 66.1055 141.779 66.2363 141.572 66.4082C141.365 66.5801 141.261 66.7852 141.261 67.0234C141.261 67.2695 141.365 67.4805 141.572 67.6562C141.779 67.832 142.077 67.9648 142.468 68.0547C142.863 68.1484 143.331 68.1953 143.874 68.1953C144.406 68.1953 144.867 68.1484 145.257 68.0547C145.648 67.9609 145.949 67.8262 146.159 67.6504C146.37 67.4746 146.476 67.2656 146.476 67.0234C146.476 66.7891 146.37 66.5859 146.159 66.4141C145.949 66.2383 145.646 66.1055 145.251 66.0156C144.861 65.9219 144.402 65.875 143.874 65.875Z" fill="#B0ADA7"/>
</g>
</g>
<g id="LightMode-Plan">
<g id="Icon_3">
<path id="Vector_4" d="M208.493 29.0024V33.0024" stroke="#B0ADA7" stroke-width="1.99965" stroke-linecap="round" stroke-linejoin="round"/>
<path id="Vector_5" d="M216.492 29.0024V33.0024" stroke="#B0ADA7" stroke-width="1.99965" stroke-linecap="round" stroke-linejoin="round"/>
<path id="Vector_6" d="M219.491 31.0024H205.494C204.389 31.0024 203.494 31.8977 203.494 33.0021V46.9997C203.494 48.104 204.389 48.9993 205.494 48.9993H219.491C220.596 48.9993 221.491 48.104 221.491 46.9997V33.0021C221.491 31.8977 220.596 31.0024 219.491 31.0024Z" stroke="#B0ADA7" stroke-width="1.99965" stroke-linecap="round" stroke-linejoin="round"/>
<path id="Vector_7" d="M203.494 37.001H221.491" stroke="#B0ADA7" stroke-width="1.99965" stroke-linecap="round" stroke-linejoin="round"/>
</g>
<g id="Layout_3">
<path id="&#236;&#157;&#188;&#236;&#160;&#149;" d="M205.367 58.9141C205.883 58.918 206.344 59.0176 206.75 59.2129C207.16 59.4082 207.48 59.6816 207.711 60.0332C207.945 60.3809 208.062 60.7773 208.062 61.2227C208.062 61.668 207.945 62.0664 207.711 62.418C207.48 62.7656 207.16 63.0371 206.75 63.2324C206.344 63.4238 205.883 63.5195 205.367 63.5195C204.844 63.5195 204.377 63.4238 203.967 63.2324C203.557 63.0371 203.236 62.7656 203.006 62.418C202.775 62.0664 202.66 61.668 202.66 61.2227C202.66 60.7773 202.775 60.3809 203.006 60.0332C203.236 59.6816 203.557 59.4082 203.967 59.2129C204.377 59.0176 204.844 58.918 205.367 58.9141ZM205.367 59.6875C205.023 59.6875 204.713 59.7539 204.436 59.8867C204.162 60.0156 203.947 60.1973 203.791 60.4316C203.635 60.6621 203.559 60.9258 203.562 61.2227C203.559 61.5234 203.635 61.791 203.791 62.0254C203.947 62.2598 204.162 62.4434 204.436 62.5762C204.713 62.7051 205.023 62.7695 205.367 62.7695C205.707 62.7695 206.014 62.7051 206.287 62.5762C206.564 62.4434 206.781 62.2598 206.938 62.0254C207.094 61.791 207.172 61.5234 207.172 61.2227C207.172 60.9258 207.094 60.6621 206.938 60.4316C206.781 60.1973 206.564 60.0156 206.287 59.8867C206.014 59.7539 205.707 59.6875 205.367 59.6875ZM211.016 63.8828H210.102V58.5273H211.016V63.8828ZM211.016 66.8945H205.168V68.0664H211.391V68.8047H204.266V66.2031H210.102V65.125H204.242V64.3867H211.016V66.8945ZM221.622 64.7383H220.696V62.0078H218.598V61.2461H220.696V58.5273H221.622V64.7383ZM218.165 65.0664C218.887 65.0664 219.511 65.1426 220.034 65.2949C220.557 65.4473 220.958 65.668 221.235 65.957C221.516 66.2461 221.657 66.5938 221.657 67C221.657 67.4062 221.516 67.7539 221.235 68.043C220.958 68.3359 220.557 68.5586 220.034 68.7109C219.511 68.8633 218.887 68.9414 218.165 68.9453C217.442 68.9414 216.819 68.8633 216.296 68.7109C215.772 68.5586 215.37 68.3359 215.089 68.043C214.811 67.7539 214.673 67.4062 214.673 67C214.673 66.5938 214.811 66.2461 215.089 65.957C215.37 65.668 215.772 65.4473 216.296 65.2949C216.819 65.1426 217.442 65.0664 218.165 65.0664ZM218.165 65.7812C217.637 65.7812 217.179 65.8301 216.788 65.9277C216.397 66.0254 216.098 66.166 215.891 66.3496C215.684 66.5332 215.583 66.75 215.587 67C215.583 67.2461 215.684 67.4609 215.891 67.6445C216.098 67.8242 216.397 67.9629 216.788 68.0605C217.179 68.1582 217.637 68.207 218.165 68.207C218.692 68.207 219.149 68.1582 219.536 68.0605C219.927 67.9629 220.225 67.8242 220.432 67.6445C220.639 67.4609 220.743 67.2461 220.743 67C220.743 66.75 220.639 66.5332 220.432 66.3496C220.225 66.166 219.927 66.0254 219.536 65.9277C219.149 65.8301 218.692 65.7812 218.165 65.7812ZM216.606 60.4375C216.606 60.8867 216.714 61.3223 216.929 61.7441C217.143 62.1621 217.444 62.5352 217.831 62.8633C218.221 63.1875 218.669 63.4375 219.173 63.6133L218.692 64.3516C218.11 64.1406 217.598 63.8281 217.157 63.4141C216.72 63 216.389 62.5215 216.167 61.9785C215.94 62.5879 215.595 63.127 215.13 63.5957C214.669 64.0605 214.13 64.4102 213.512 64.6445L213.032 63.9062C213.544 63.7188 214.001 63.4492 214.403 63.0977C214.805 62.7422 215.118 62.334 215.341 61.873C215.567 61.4121 215.68 60.9375 215.68 60.4492V60.0625H213.325V59.2891H218.938V60.0625H216.606V60.4375Z" fill="#B0ADA7"/>
</g>
</g>
<g id="LightMode-PlanList">
<g id="Icon_4">
<path id="Vector_8" d="M277.75 39.0083H277.76" stroke="#B0ADA7" stroke-width="1.99986" stroke-linecap="round" stroke-linejoin="round"/>
<path id="Vector_9" d="M277.75 45.0078H277.76" stroke="#B0ADA7" stroke-width="1.99986" stroke-linecap="round" stroke-linejoin="round"/>
<path id="Vector_10" d="M277.75 33.0088H277.76" stroke="#B0ADA7" stroke-width="1.99986" stroke-linecap="round" stroke-linejoin="round"/>
<path id="Vector_11" d="M282.75 39.0083H295.75" stroke="#B0ADA7" stroke-width="1.99986" stroke-linecap="round" stroke-linejoin="round"/>
<path id="Vector_12" d="M282.75 45.0078H295.75" stroke="#B0ADA7" stroke-width="1.99986" stroke-linecap="round" stroke-linejoin="round"/>
<path id="Vector_13" d="M282.75 33.0088H295.75" stroke="#B0ADA7" stroke-width="1.99986" stroke-linecap="round" stroke-linejoin="round"/>
</g>
<g id="Layout_4">
<path id="&#236;&#151;&#172;&#237;&#150;&#137;&#235;&#170;&#169;&#235;&#161;&#157;" d="M268.241 59.4995H271.529V60.3155H268.241V59.4995ZM268.241 62.9315H271.529V63.7475H268.241V62.9315ZM266.249 57.9155C266.777 57.9155 267.245 58.0715 267.653 58.3835C268.061 58.6875 268.377 59.1235 268.601 59.6915C268.833 60.2595 268.949 60.9275 268.949 61.6955C268.949 62.4635 268.833 63.1315 268.601 63.6995C268.377 64.2675 268.061 64.7075 267.653 65.0195C267.245 65.3315 266.777 65.4875 266.249 65.4875C265.729 65.4875 265.261 65.3315 264.845 65.0195C264.437 64.7075 264.117 64.2675 263.885 63.6995C263.661 63.1315 263.549 62.4635 263.549 61.6955C263.549 60.9275 263.661 60.2595 263.885 59.6915C264.117 59.1235 264.437 58.6875 264.845 58.3835C265.261 58.0715 265.729 57.9155 266.249 57.9155ZM266.249 58.8035C265.905 58.8035 265.601 58.9235 265.337 59.1635C265.073 59.3955 264.865 59.7315 264.713 60.1715C264.569 60.6035 264.497 61.1115 264.497 61.6955C264.497 62.2795 264.569 62.7915 264.713 63.2315C264.865 63.6635 265.073 63.9995 265.337 64.2395C265.601 64.4795 265.905 64.5995 266.249 64.5995C266.601 64.5995 266.909 64.4795 267.173 64.2395C267.437 63.9995 267.641 63.6635 267.785 63.2315C267.937 62.7915 268.013 62.2795 268.013 61.6955C268.013 61.1115 267.937 60.6035 267.785 60.1715C267.641 59.7315 267.437 59.3955 267.173 59.1635C266.909 58.9235 266.601 58.8035 266.249 58.8035ZM271.301 57.0755H272.285V67.9475H271.301V57.0755ZM282.592 57.0755H283.54V63.9395H282.592V57.0755ZM280.816 60.0275H282.868V60.8435H280.816V60.0275ZM280.264 57.2915H281.2V63.5555H280.264V57.2915ZM274.336 58.3715H279.832V59.1635H274.336V58.3715ZM277.096 59.7275C277.552 59.7275 277.952 59.8035 278.296 59.9555C278.648 60.1075 278.92 60.3235 279.112 60.6035C279.312 60.8835 279.412 61.2115 279.412 61.5875C279.412 61.9635 279.312 62.2915 279.112 62.5715C278.92 62.8435 278.648 63.0555 278.296 63.2075C277.952 63.3595 277.552 63.4355 277.096 63.4355C276.648 63.4355 276.248 63.3595 275.896 63.2075C275.544 63.0555 275.272 62.8435 275.08 62.5715C274.888 62.2915 274.792 61.9635 274.792 61.5875C274.792 61.2115 274.888 60.8835 275.08 60.6035C275.272 60.3235 275.544 60.1075 275.896 59.9555C276.248 59.8035 276.648 59.7275 277.096 59.7275ZM277.096 60.4715C276.68 60.4715 276.34 60.5715 276.076 60.7715C275.812 60.9715 275.68 61.2435 275.68 61.5875C275.68 61.9235 275.808 62.1955 276.064 62.4035C276.328 62.6035 276.672 62.7035 277.096 62.7035C277.52 62.7035 277.86 62.6035 278.116 62.4035C278.38 62.1955 278.512 61.9235 278.512 61.5875C278.512 61.2435 278.38 60.9715 278.116 60.7715C277.86 60.5715 277.52 60.4715 277.096 60.4715ZM276.604 57.1595H277.588V58.8275H276.604V57.1595ZM279.976 64.1315C281.112 64.1315 282 64.2955 282.64 64.6235C283.28 64.9515 283.6 65.4195 283.6 66.0275C283.6 66.6275 283.28 67.0915 282.64 67.4195C282 67.7475 281.112 67.9115 279.976 67.9115C278.84 67.9115 277.952 67.7475 277.312 67.4195C276.672 67.0915 276.352 66.6275 276.352 66.0275C276.352 65.4195 276.672 64.9515 277.312 64.6235C277.952 64.2955 278.84 64.1315 279.976 64.1315ZM279.976 64.8995C279.144 64.8995 278.496 64.9955 278.032 65.1875C277.568 65.3795 277.336 65.6595 277.336 66.0275C277.336 66.3875 277.568 66.6635 278.032 66.8555C278.496 67.0475 279.144 67.1435 279.976 67.1435C280.8 67.1435 281.444 67.0475 281.908 66.8555C282.372 66.6635 282.604 66.3875 282.604 66.0275C282.604 65.6595 282.372 65.3795 281.908 65.1875C281.444 64.9955 280.8 64.8995 279.976 64.8995ZM286.695 57.5315H293.979V61.2155H286.695V57.5315ZM293.007 58.3235H287.667V60.4115H293.007V58.3235ZM285.435 62.5715H295.239V63.3875H285.435V62.5715ZM289.839 61.0115H290.835V62.8835H289.839V61.0115ZM286.527 64.5035H294.027V67.9355H293.031V65.3075H286.527V64.5035ZM296.462 63.0515H306.302V63.8675H296.462V63.0515ZM297.71 57.3515H305.042V59.9915H298.718V61.4435H297.734V59.2475H304.058V58.1435H297.71V57.3515ZM297.734 61.1195H305.27V61.9115H297.734V61.1195ZM300.89 61.5275H301.874V63.4475H300.89V61.5275ZM297.566 64.6955H305.102V67.8275H304.106V65.4995H297.566V64.6955Z" fill="#B0ADA7"/>
</g>
</g>
<g id="LightMode-Setting">
<g id="Icon_5">
<path id="Vector_14" d="M361.227 29.0024H360.787C360.256 29.0024 359.748 29.2131 359.373 29.5881C358.998 29.9631 358.787 30.4718 358.787 31.0021V31.1821C358.787 31.5327 358.694 31.8771 358.519 32.1807C358.343 32.4843 358.091 32.7364 357.787 32.9118L357.357 33.1617C357.053 33.3372 356.709 33.4296 356.358 33.4296C356.007 33.4296 355.662 33.3372 355.358 33.1617L355.208 33.0817C354.749 32.817 354.204 32.7452 353.692 32.8821C353.18 33.0189 352.744 33.3532 352.478 33.8116L352.258 34.1915C351.994 34.6504 351.922 35.1955 352.059 35.7073C352.195 36.219 352.53 36.6556 352.988 36.9211L353.138 37.0211C353.44 37.1955 353.692 37.4461 353.867 37.7478C354.042 38.0494 354.136 38.3918 354.138 38.7408V39.2507C354.139 39.603 354.048 39.9495 353.872 40.255C353.696 40.5605 353.443 40.8142 353.138 40.9904L352.988 41.0803C352.53 41.3459 352.195 41.7824 352.059 42.2941C351.922 42.8059 351.994 43.351 352.258 43.8099L352.478 44.1898C352.744 44.6482 353.18 44.9825 353.692 45.1193C354.204 45.2562 354.749 45.1844 355.208 44.9197L355.358 44.8397C355.662 44.6642 356.007 44.5718 356.358 44.5718C356.709 44.5718 357.053 44.6642 357.357 44.8397L357.787 45.0897C358.091 45.265 358.343 45.5171 358.519 45.8207C358.694 46.1243 358.787 46.4687 358.787 46.8194V46.9993C358.787 47.5297 358.998 48.0383 359.373 48.4133C359.748 48.7883 360.256 48.999 360.787 48.999H361.227C361.757 48.999 362.266 48.7883 362.641 48.4133C363.016 48.0383 363.226 47.5297 363.226 46.9993V46.8194C363.227 46.4687 363.319 46.1243 363.495 45.8207C363.67 45.5171 363.922 45.265 364.226 45.0897L364.656 44.8397C364.96 44.6642 365.305 44.5718 365.656 44.5718C366.007 44.5718 366.352 44.6642 366.656 44.8397L366.806 44.9197C367.265 45.1844 367.81 45.2562 368.321 45.1193C368.833 44.9825 369.27 44.6482 369.535 44.1898L369.755 43.7999C370.02 43.341 370.092 42.7959 369.955 42.2841C369.818 41.7724 369.484 41.3359 369.025 41.0703L368.875 40.9904C368.57 40.8142 368.317 40.5605 368.141 40.255C367.966 39.9495 367.874 39.603 367.876 39.2507V38.7508C367.874 38.3984 367.966 38.0519 368.141 37.7464C368.317 37.4409 368.57 37.1872 368.875 37.0111L369.025 36.9211C369.484 36.6556 369.818 36.219 369.955 35.7073C370.092 35.1955 370.02 34.6504 369.755 34.1915L369.535 33.8116C369.27 33.3532 368.833 33.0189 368.321 32.8821C367.81 32.7452 367.265 32.817 366.806 33.0817L366.656 33.1617C366.352 33.3372 366.007 33.4296 365.656 33.4296C365.305 33.4296 364.96 33.3372 364.656 33.1617L364.226 32.9118C363.922 32.7364 363.67 32.4843 363.495 32.1807C363.319 31.8771 363.227 31.5327 363.226 31.1821V31.0021C363.226 30.4718 363.016 29.9631 362.641 29.5881C362.266 29.2131 361.757 29.0024 361.227 29.0024Z" stroke="#B0ADA7" stroke-width="1.99965" stroke-linecap="round" stroke-linejoin="round"/>
<path id="Vector_15" d="M361.007 42.0004C362.663 42.0004 364.006 40.6575 364.006 39.0009C364.006 37.3444 362.663 36.0015 361.007 36.0015C359.35 36.0015 358.007 37.3444 358.007 39.0009C358.007 40.6575 359.35 42.0004 361.007 42.0004Z" stroke="#B0ADA7" stroke-width="1.99965" stroke-linecap="round" stroke-linejoin="round"/>
</g>
<g id="Layout_5">
<path id="&#236;&#132;&#164;&#236;&#160;&#149;" d="M359.565 63.918H358.64V61.2109H356.319V60.4492H358.64V58.5273H359.565V63.918ZM359.565 66.9297H353.741V68.0664H359.952V68.8047H352.839V66.2266H358.651V65.1836H352.815V64.4453H359.565V66.9297ZM354.479 59.8516C354.476 60.3008 354.583 60.7324 354.802 61.1465C355.021 61.5605 355.327 61.9258 355.722 62.2422C356.116 62.5586 356.565 62.8008 357.069 62.9688L356.577 63.6836C355.999 63.4766 355.489 63.1758 355.048 62.7812C354.606 62.3867 354.271 61.9277 354.04 61.4043C353.821 61.9941 353.485 62.5098 353.032 62.9512C352.579 63.3887 352.042 63.7188 351.421 63.9414L350.917 63.2031C351.437 63.0312 351.896 62.7793 352.294 62.4473C352.696 62.1113 353.009 61.7207 353.231 61.2754C353.458 60.8262 353.573 60.3516 353.577 59.8516V58.8672H354.479V59.8516ZM370.137 64.7383H369.211V62.0078H367.113V61.2461H369.211V58.5273H370.137V64.7383ZM366.679 65.0664C367.402 65.0664 368.025 65.1426 368.549 65.2949C369.072 65.4473 369.472 65.668 369.75 65.957C370.031 66.2461 370.172 66.5938 370.172 67C370.172 67.4062 370.031 67.7539 369.75 68.043C369.472 68.3359 369.072 68.5586 368.549 68.7109C368.025 68.8633 367.402 68.9414 366.679 68.9453C365.957 68.9414 365.334 68.8633 364.81 68.7109C364.287 68.5586 363.885 68.3359 363.603 68.043C363.326 67.7539 363.187 67.4062 363.187 67C363.187 66.5938 363.326 66.2461 363.603 65.957C363.885 65.668 364.287 65.4473 364.81 65.2949C365.334 65.1426 365.957 65.0664 366.679 65.0664ZM366.679 65.7812C366.152 65.7812 365.693 65.8301 365.303 65.9277C364.912 66.0254 364.613 66.166 364.406 66.3496C364.199 66.5332 364.097 66.75 364.101 67C364.097 67.2461 364.199 67.4609 364.406 67.6445C364.613 67.8242 364.912 67.9629 365.303 68.0605C365.693 68.1582 366.152 68.207 366.679 68.207C367.207 68.207 367.664 68.1582 368.051 68.0605C368.441 67.9629 368.74 67.8242 368.947 67.6445C369.154 67.4609 369.258 67.2461 369.258 67C369.258 66.75 369.154 66.5332 368.947 66.3496C368.74 66.166 368.441 66.0254 368.051 65.9277C367.664 65.8301 367.207 65.7812 366.679 65.7812ZM365.121 60.4375C365.121 60.8867 365.228 61.3223 365.443 61.7441C365.658 62.1621 365.959 62.5352 366.346 62.8633C366.736 63.1875 367.183 63.4375 367.687 63.6133L367.207 64.3516C366.625 64.1406 366.113 63.8281 365.672 63.4141C365.234 63 364.904 62.5215 364.681 61.9785C364.455 62.5879 364.109 63.127 363.644 63.5957C363.183 64.0605 362.644 64.4102 362.027 64.6445L361.547 63.9062C362.058 63.7188 362.515 63.4492 362.918 63.0977C363.32 62.7422 363.633 62.334 363.855 61.873C364.082 61.4121 364.195 60.9375 364.195 60.4492V60.0625H361.84V59.2891H367.453V60.0625H365.121V60.4375Z" fill="#B0ADA7"/>
</g>
</g>
</g>
<defs>
<filter id="filter0_dd_81_2302" x="0" y="0" width="425" height="105" filterUnits="userSpaceOnUse" color-interpolation-filters="sRGB">
<feFlood flood-opacity="0" result="BackgroundImageFix"/>
<feColorMatrix in="SourceAlpha" type="matrix" values="0 0 0 0 0 0 0 0 0 0 0 0 0 0 0 0 0 0 127 0" result="hardAlpha"/>
<feOffset dy="4"/>
<feGaussianBlur stdDeviation="8"/>
<feColorMatrix type="matrix" values="0 0 0 0 0.118 0 0 0 0 0.157 0 0 0 0 0.133 0 0 0 0.12 0"/>
<feBlend mode="normal" in2="BackgroundImageFix" result="effect1_dropShadow_81_2302"/>
<feColorMatrix in="SourceAlpha" type="matrix" values="0 0 0 0 0 0 0 0 0 0 0 0 0 0 0 0 0 0 127 0" result="hardAlpha"/>
<feOffset dy="1"/>
<feGaussianBlur stdDeviation="2"/>
<feColorMatrix type="matrix" values="0 0 0 0 0.118 0 0 0 0 0.157 0 0 0 0 0.133 0 0 0 0.06 0"/>
<feBlend mode="normal" in2="effect1_dropShadow_81_2302" result="effect2_dropShadow_81_2302"/>
<feBlend mode="normal" in="SourceGraphic" in2="effect2_dropShadow_81_2302" result="shape"/>
</filter>
</defs>
</svg>
