<svg width="320" height="52" viewBox="0 0 320 52" fill="none" xmlns="http://www.w3.org/2000/svg">
<g id="Property 1=Dark">
<g clip-path="url(#clip0_145_4644)">
<g id="Frame 141">
<rect width="320" height="52" fill="#161A18"/>
<path id="&#236;&#177;&#132;&#237;&#140;&#133;&#235;&#176;&#169; &#236;&#131;&#157;&#236;&#132;&#177;&#237;&#149;&#152;&#234;&#184;&#176;" d="M115.534 23.0625C115.534 23.8073 115.639 24.5286 115.847 25.2266C116.055 25.9245 116.376 26.5573 116.808 27.125C117.245 27.6927 117.784 28.1458 118.425 28.4844L117.441 29.7656C116.8 29.4323 116.253 28.974 115.8 28.3906C115.352 27.8073 114.995 27.1302 114.73 26.3594C114.474 27.1875 114.118 27.9245 113.659 28.5703C113.206 29.2109 112.659 29.7135 112.019 30.0781L111.019 28.7969C111.654 28.4271 112.185 27.9375 112.612 27.3281C113.045 26.7188 113.365 26.0469 113.573 25.3125C113.787 24.5781 113.894 23.8281 113.894 23.0625V22.6719H111.425V21.25H113.894V19.2656H115.534V21.25H117.972V22.6719H115.534V23.0625ZM123.472 32.8906H121.816V25.7344H120.362V32.2031H118.722V19.0156H120.362V24.2969H121.816V18.7656H123.472V32.8906ZM132.359 21.1562H127.297V22.5H131.953V23.8594H127.297V25.2188H128.172C129.312 25.2188 130.273 25.1953 131.055 25.1484C131.841 25.1016 132.625 25.0104 133.406 24.875L133.578 26.25C132.687 26.3958 131.792 26.4948 130.891 26.5469C129.99 26.599 128.87 26.625 127.531 26.625H126.734H125.531V19.7812H132.359V21.1562ZM136.516 27.3906H134.766V18.7812H136.516V27.3906ZM131.75 27.5938C132.74 27.5938 133.596 27.6979 134.32 27.9062C135.044 28.1146 135.602 28.4167 135.992 28.8125C136.383 29.2083 136.578 29.6823 136.578 30.2344C136.578 30.7865 136.383 31.2604 135.992 31.6562C135.602 32.0521 135.044 32.3542 134.32 32.5625C133.596 32.7708 132.74 32.875 131.75 32.875C130.75 32.875 129.885 32.7708 129.156 32.5625C128.432 32.3542 127.878 32.0521 127.492 31.6562C127.107 31.2604 126.917 30.7865 126.922 30.2344C126.917 29.6823 127.107 29.2083 127.492 28.8125C127.878 28.4167 128.432 28.1146 129.156 27.9062C129.885 27.6979 130.75 27.5938 131.75 27.5938ZM131.75 28.9375C130.75 28.9375 129.982 29.0495 129.445 29.2734C128.909 29.4974 128.646 29.8177 128.656 30.2344C128.651 30.6562 128.914 30.9792 129.445 31.2031C129.977 31.4219 130.745 31.5312 131.75 31.5312C132.734 31.5312 133.495 31.4193 134.031 31.1953C134.573 30.9714 134.844 30.651 134.844 30.2344C134.844 29.8229 134.573 29.5052 134.031 29.2812C133.49 29.0521 132.729 28.9375 131.75 28.9375ZM144.825 27.4844C145.794 27.4844 146.632 27.5911 147.341 27.8047C148.054 28.013 148.601 28.3203 148.981 28.7266C149.361 29.1276 149.554 29.6094 149.559 30.1719C149.554 30.7396 149.361 31.2266 148.981 31.6328C148.601 32.0443 148.054 32.3568 147.341 32.5703C146.632 32.7839 145.794 32.8906 144.825 32.8906C143.846 32.8906 142.997 32.7839 142.278 32.5703C141.559 32.3568 141.007 32.0443 140.622 31.6328C140.236 31.2266 140.044 30.7396 140.044 30.1719C140.044 29.6094 140.236 29.1276 140.622 28.7266C141.007 28.3203 141.557 28.013 142.27 27.8047C142.989 27.5911 143.841 27.4844 144.825 27.4844ZM144.825 28.8438C143.846 28.8438 143.093 28.9583 142.567 29.1875C142.041 29.4115 141.778 29.7396 141.778 30.1719C141.778 30.6094 142.041 30.9427 142.567 31.1719C143.098 31.401 143.851 31.5156 144.825 31.5156C145.799 31.5156 146.544 31.401 147.059 31.1719C147.58 30.9427 147.841 30.6094 147.841 30.1719C147.841 29.7396 147.58 29.4115 147.059 29.1875C146.544 28.9583 145.799 28.8438 144.825 28.8438ZM149.419 22.1406H151.387V23.5938H149.419V27.1406H147.684V18.7656H149.419V22.1406ZM140.481 21.5625H143.778V19.6562H145.497V26.25H138.762V19.6562H140.481V21.5625ZM143.778 24.875V22.9219H140.481V24.875H143.778ZM159.709 21.3906C159.709 21.9115 159.811 22.4167 160.014 22.9062C160.217 23.3958 160.524 23.8359 160.936 24.2266C161.353 24.6172 161.86 24.9271 162.459 25.1562L161.537 26.4844C160.923 26.25 160.394 25.9193 159.952 25.4922C159.509 25.0651 159.157 24.5677 158.897 24C158.626 24.6562 158.256 25.237 157.787 25.7422C157.324 26.2474 156.767 26.6354 156.116 26.9062L155.178 25.5781C155.798 25.3021 156.321 24.9375 156.748 24.4844C157.176 24.0312 157.496 23.5391 157.709 23.0078C157.923 22.4714 158.032 21.9323 158.037 21.3906V19.6406H159.709V21.3906ZM167.381 27.4375H165.725V23.7656H164.319V27H162.694V19.0469H164.319V22.3438H165.725V18.7812H167.381V27.4375ZM162.616 27.6719C163.595 27.6719 164.446 27.776 165.17 27.9844C165.899 28.1875 166.462 28.4844 166.858 28.875C167.254 29.2656 167.454 29.7292 167.459 30.2656C167.454 30.8021 167.254 31.2656 166.858 31.6562C166.462 32.0521 165.899 32.3542 165.17 32.5625C164.446 32.7708 163.595 32.875 162.616 32.875C161.626 32.875 160.767 32.7708 160.037 32.5625C159.308 32.3542 158.748 32.0521 158.358 31.6562C157.967 31.2656 157.772 30.8021 157.772 30.2656C157.772 29.7292 157.967 29.2656 158.358 28.875C158.748 28.4844 159.308 28.1875 160.037 27.9844C160.767 27.776 161.626 27.6719 162.616 27.6719ZM162.616 28.9844C161.631 28.9844 160.866 29.0964 160.319 29.3203C159.777 29.5391 159.506 29.8542 159.506 30.2656C159.506 30.6823 159.777 31 160.319 31.2188C160.86 31.4375 161.626 31.5469 162.616 31.5469C163.595 31.5469 164.355 31.4375 164.897 31.2188C165.439 31 165.709 30.6823 165.709 30.2656C165.709 29.8542 165.436 29.5391 164.889 29.3203C164.347 29.0964 163.59 28.9844 162.616 28.9844ZM174.003 20.7969C173.998 21.4479 174.12 22.0625 174.37 22.6406C174.62 23.2188 174.995 23.7292 175.495 24.1719C176.001 24.6094 176.612 24.9427 177.331 25.1719L176.394 26.5312C175.633 26.2656 174.982 25.8854 174.441 25.3906C173.904 24.8958 173.482 24.3073 173.175 23.625C172.857 24.4115 172.402 25.0938 171.808 25.6719C171.214 26.2448 170.498 26.6771 169.659 26.9688L168.737 25.5625C169.498 25.3125 170.141 24.9505 170.667 24.4766C171.193 24.0026 171.589 23.4557 171.855 22.8359C172.12 22.2161 172.253 21.5625 172.253 20.875V19.5312H174.003V20.7969ZM180.659 27.0781H178.925V22.9219H176.112V21.5H178.925V18.7656H180.659V27.0781ZM175.878 27.4531C176.873 27.4531 177.732 27.5599 178.456 27.7734C179.185 27.987 179.743 28.2995 180.128 28.7109C180.514 29.1172 180.706 29.6042 180.706 30.1719C180.706 30.7396 180.514 31.2266 180.128 31.6328C179.743 32.0391 179.188 32.3464 178.464 32.5547C177.74 32.7682 176.878 32.875 175.878 32.875C174.883 32.875 174.024 32.7682 173.3 32.5547C172.581 32.3464 172.029 32.0391 171.644 31.6328C171.264 31.2266 171.076 30.7396 171.081 30.1719C171.076 29.6042 171.264 29.1172 171.644 28.7109C172.029 28.2995 172.584 27.987 173.308 27.7734C174.032 27.5599 174.889 27.4531 175.878 27.4531ZM175.878 28.7969C174.889 28.7969 174.128 28.9167 173.597 29.1562C173.066 29.3906 172.8 29.7292 172.8 30.1719C172.8 30.6042 173.066 30.9375 173.597 31.1719C174.133 31.401 174.894 31.5156 175.878 31.5156C176.862 31.5156 177.623 31.3984 178.159 31.1641C178.701 30.9297 178.972 30.599 178.972 30.1719C178.972 29.7292 178.704 29.3906 178.167 29.1562C177.631 28.9167 176.868 28.7969 175.878 28.7969ZM193.422 24.3906H195.594V25.8281H193.422V32.8906H191.703V18.7656H193.422V24.3906ZM190.609 22.3281H182.281V20.9375H185.625V18.9688H187.359V20.9375H190.609V22.3281ZM186.5 23.25C187.172 23.25 187.776 23.3932 188.312 23.6797C188.854 23.9609 189.279 24.3542 189.586 24.8594C189.893 25.3646 190.047 25.9375 190.047 26.5781C190.047 27.2188 189.893 27.7917 189.586 28.2969C189.279 28.7969 188.854 29.1875 188.312 29.4688C187.776 29.75 187.172 29.8906 186.5 29.8906C185.818 29.8906 185.206 29.75 184.664 29.4688C184.122 29.1875 183.698 28.7969 183.391 28.2969C183.083 27.7917 182.932 27.2188 182.938 26.5781C182.932 25.9375 183.083 25.3646 183.391 24.8594C183.698 24.3542 184.122 23.9609 184.664 23.6797C185.206 23.3932 185.818 23.25 186.5 23.25ZM186.5 24.6719C186.13 24.6719 185.799 24.75 185.508 24.9062C185.221 25.0625 184.997 25.2865 184.836 25.5781C184.674 25.8646 184.594 26.1979 184.594 26.5781C184.594 26.9583 184.674 27.2917 184.836 27.5781C184.997 27.8594 185.221 28.0781 185.508 28.2344C185.799 28.3854 186.13 28.4583 186.5 28.4531C186.859 28.4583 187.18 28.3854 187.461 28.2344C187.747 28.0781 187.971 27.8594 188.133 27.5781C188.299 27.2917 188.385 26.9583 188.391 26.5781C188.385 26.1979 188.299 25.8646 188.133 25.5781C187.971 25.2917 187.747 25.0703 187.461 24.9141C187.18 24.7526 186.859 24.6719 186.5 24.6719ZM207.684 32.8906H205.934V18.7656H207.684V32.8906ZM203.466 20.2656C203.466 22.5104 202.958 24.4818 201.942 26.1797C200.927 27.8724 199.242 29.276 196.887 30.3906L195.981 29C197.799 28.1354 199.166 27.1016 200.083 25.8984C201.005 24.6901 201.544 23.2708 201.7 21.6406H196.7V20.2656H203.466Z" fill="#7A7873"/>
</g>
</g>
<path d="M12 0.5H308C314.351 0.5 319.5 5.64873 319.5 12V40C319.5 46.3513 314.351 51.5 308 51.5H12C5.64873 51.5 0.5 46.3513 0.5 40V12C0.5 5.64873 5.64873 0.500001 12 0.5Z" stroke="#373F3B"/>
</g>
<defs>
<clipPath id="clip0_145_4644">
<path d="M0 12C0 5.37258 5.37258 0 12 0H308C314.627 0 320 5.37258 320 12V40C320 46.6274 314.627 52 308 52H12C5.37259 52 0 46.6274 0 40V12Z" fill="white"/>
</clipPath>
</defs>
</svg>
