<svg width="336" height="68" viewBox="0 0 336 68" fill="none" xmlns="http://www.w3.org/2000/svg">
<g id="Property 1=Dark" filter="url(#filter0_dd_145_4639)">
<g clip-path="url(#clip0_145_4639)">
<g id="Frame 136">
<g id="Vector">
<path id="Vector_2" d="M316 6H20C13.3726 6 8 11.3726 8 18V46C8 52.6274 13.3726 58 20 58H316C322.627 58 328 52.6274 328 46V18C328 11.3726 322.627 6 316 6Z" fill="#5E9E72"/>
</g>
<path id="&#236;&#177;&#132;&#237;&#140;&#133;&#235;&#176;&#169; &#236;&#131;&#157;&#236;&#132;&#177;&#237;&#149;&#152;&#234;&#184;&#176;" d="M123.534 29.0625C123.534 29.8073 123.639 30.5286 123.847 31.2266C124.055 31.9245 124.376 32.5573 124.808 33.125C125.245 33.6927 125.784 34.1458 126.425 34.4844L125.441 35.7656C124.8 35.4323 124.253 34.974 123.8 34.3906C123.352 33.8073 122.995 33.1302 122.73 32.3594C122.474 33.1875 122.118 33.9245 121.659 34.5703C121.206 35.2109 120.659 35.7135 120.019 36.0781L119.019 34.7969C119.654 34.4271 120.185 33.9375 120.612 33.3281C121.045 32.7188 121.365 32.0469 121.573 31.3125C121.787 30.5781 121.894 29.8281 121.894 29.0625V28.6719H119.425V27.25H121.894V25.2656H123.534V27.25H125.972V28.6719H123.534V29.0625ZM131.472 38.8906H129.816V31.7344H128.362V38.2031H126.722V25.0156H128.362V30.2969H129.816V24.7656H131.472V38.8906ZM140.359 27.1562H135.297V28.5H139.953V29.8594H135.297V31.2188H136.172C137.312 31.2188 138.273 31.1953 139.055 31.1484C139.841 31.1016 140.625 31.0104 141.406 30.875L141.578 32.25C140.687 32.3958 139.792 32.4948 138.891 32.5469C137.99 32.599 136.87 32.625 135.531 32.625H134.734H133.531V25.7812H140.359V27.1562ZM144.516 33.3906H142.766V24.7812H144.516V33.3906ZM139.75 33.5938C140.74 33.5938 141.596 33.6979 142.32 33.9062C143.044 34.1146 143.602 34.4167 143.992 34.8125C144.383 35.2083 144.578 35.6823 144.578 36.2344C144.578 36.7865 144.383 37.2604 143.992 37.6562C143.602 38.0521 143.044 38.3542 142.32 38.5625C141.596 38.7708 140.74 38.875 139.75 38.875C138.75 38.875 137.885 38.7708 137.156 38.5625C136.432 38.3542 135.878 38.0521 135.492 37.6562C135.107 37.2604 134.917 36.7865 134.922 36.2344C134.917 35.6823 135.107 35.2083 135.492 34.8125C135.878 34.4167 136.432 34.1146 137.156 33.9062C137.885 33.6979 138.75 33.5938 139.75 33.5938ZM139.75 34.9375C138.75 34.9375 137.982 35.0495 137.445 35.2734C136.909 35.4974 136.646 35.8177 136.656 36.2344C136.651 36.6562 136.914 36.9792 137.445 37.2031C137.977 37.4219 138.745 37.5312 139.75 37.5312C140.734 37.5312 141.495 37.4193 142.031 37.1953C142.573 36.9714 142.844 36.651 142.844 36.2344C142.844 35.8229 142.573 35.5052 142.031 35.2812C141.49 35.0521 140.729 34.9375 139.75 34.9375ZM152.825 33.4844C153.794 33.4844 154.632 33.5911 155.341 33.8047C156.054 34.013 156.601 34.3203 156.981 34.7266C157.361 35.1276 157.554 35.6094 157.559 36.1719C157.554 36.7396 157.361 37.2266 156.981 37.6328C156.601 38.0443 156.054 38.3568 155.341 38.5703C154.632 38.7839 153.794 38.8906 152.825 38.8906C151.846 38.8906 150.997 38.7839 150.278 38.5703C149.559 38.3568 149.007 38.0443 148.622 37.6328C148.236 37.2266 148.044 36.7396 148.044 36.1719C148.044 35.6094 148.236 35.1276 148.622 34.7266C149.007 34.3203 149.557 34.013 150.27 33.8047C150.989 33.5911 151.841 33.4844 152.825 33.4844ZM152.825 34.8438C151.846 34.8438 151.093 34.9583 150.567 35.1875C150.041 35.4115 149.778 35.7396 149.778 36.1719C149.778 36.6094 150.041 36.9427 150.567 37.1719C151.098 37.401 151.851 37.5156 152.825 37.5156C153.799 37.5156 154.544 37.401 155.059 37.1719C155.58 36.9427 155.841 36.6094 155.841 36.1719C155.841 35.7396 155.58 35.4115 155.059 35.1875C154.544 34.9583 153.799 34.8438 152.825 34.8438ZM157.419 28.1406H159.387V29.5938H157.419V33.1406H155.684V24.7656H157.419V28.1406ZM148.481 27.5625H151.778V25.6562H153.497V32.25H146.762V25.6562H148.481V27.5625ZM151.778 30.875V28.9219H148.481V30.875H151.778ZM167.709 27.3906C167.709 27.9115 167.811 28.4167 168.014 28.9062C168.217 29.3958 168.524 29.8359 168.936 30.2266C169.353 30.6172 169.86 30.9271 170.459 31.1562L169.537 32.4844C168.923 32.25 168.394 31.9193 167.952 31.4922C167.509 31.0651 167.157 30.5677 166.897 30C166.626 30.6562 166.256 31.237 165.787 31.7422C165.324 32.2474 164.767 32.6354 164.116 32.9062L163.178 31.5781C163.798 31.3021 164.321 30.9375 164.748 30.4844C165.176 30.0312 165.496 29.5391 165.709 29.0078C165.923 28.4714 166.032 27.9323 166.037 27.3906V25.6406H167.709V27.3906ZM175.381 33.4375H173.725V29.7656H172.319V33H170.694V25.0469H172.319V28.3438H173.725V24.7812H175.381V33.4375ZM170.616 33.6719C171.595 33.6719 172.446 33.776 173.17 33.9844C173.899 34.1875 174.462 34.4844 174.858 34.875C175.254 35.2656 175.454 35.7292 175.459 36.2656C175.454 36.8021 175.254 37.2656 174.858 37.6562C174.462 38.0521 173.899 38.3542 173.17 38.5625C172.446 38.7708 171.595 38.875 170.616 38.875C169.626 38.875 168.767 38.7708 168.037 38.5625C167.308 38.3542 166.748 38.0521 166.358 37.6562C165.967 37.2656 165.772 36.8021 165.772 36.2656C165.772 35.7292 165.967 35.2656 166.358 34.875C166.748 34.4844 167.308 34.1875 168.037 33.9844C168.767 33.776 169.626 33.6719 170.616 33.6719ZM170.616 34.9844C169.631 34.9844 168.866 35.0964 168.319 35.3203C167.777 35.5391 167.506 35.8542 167.506 36.2656C167.506 36.6823 167.777 37 168.319 37.2188C168.86 37.4375 169.626 37.5469 170.616 37.5469C171.595 37.5469 172.355 37.4375 172.897 37.2188C173.439 37 173.709 36.6823 173.709 36.2656C173.709 35.8542 173.436 35.5391 172.889 35.3203C172.347 35.0964 171.59 34.9844 170.616 34.9844ZM182.003 26.7969C181.998 27.4479 182.12 28.0625 182.37 28.6406C182.62 29.2188 182.995 29.7292 183.495 30.1719C184.001 30.6094 184.612 30.9427 185.331 31.1719L184.394 32.5312C183.633 32.2656 182.982 31.8854 182.441 31.3906C181.904 30.8958 181.482 30.3073 181.175 29.625C180.857 30.4115 180.402 31.0938 179.808 31.6719C179.214 32.2448 178.498 32.6771 177.659 32.9688L176.737 31.5625C177.498 31.3125 178.141 30.9505 178.667 30.4766C179.193 30.0026 179.589 29.4557 179.855 28.8359C180.12 28.2161 180.253 27.5625 180.253 26.875V25.5312H182.003V26.7969ZM188.659 33.0781H186.925V28.9219H184.112V27.5H186.925V24.7656H188.659V33.0781ZM183.878 33.4531C184.873 33.4531 185.732 33.5599 186.456 33.7734C187.185 33.987 187.743 34.2995 188.128 34.7109C188.514 35.1172 188.706 35.6042 188.706 36.1719C188.706 36.7396 188.514 37.2266 188.128 37.6328C187.743 38.0391 187.188 38.3464 186.464 38.5547C185.74 38.7682 184.878 38.875 183.878 38.875C182.883 38.875 182.024 38.7682 181.3 38.5547C180.581 38.3464 180.029 38.0391 179.644 37.6328C179.264 37.2266 179.076 36.7396 179.081 36.1719C179.076 35.6042 179.264 35.1172 179.644 34.7109C180.029 34.2995 180.584 33.987 181.308 33.7734C182.032 33.5599 182.889 33.4531 183.878 33.4531ZM183.878 34.7969C182.889 34.7969 182.128 34.9167 181.597 35.1562C181.066 35.3906 180.8 35.7292 180.8 36.1719C180.8 36.6042 181.066 36.9375 181.597 37.1719C182.133 37.401 182.894 37.5156 183.878 37.5156C184.862 37.5156 185.623 37.3984 186.159 37.1641C186.701 36.9297 186.972 36.599 186.972 36.1719C186.972 35.7292 186.704 35.3906 186.167 35.1562C185.631 34.9167 184.868 34.7969 183.878 34.7969ZM201.422 30.3906H203.594V31.8281H201.422V38.8906H199.703V24.7656H201.422V30.3906ZM198.609 28.3281H190.281V26.9375H193.625V24.9688H195.359V26.9375H198.609V28.3281ZM194.5 29.25C195.172 29.25 195.776 29.3932 196.312 29.6797C196.854 29.9609 197.279 30.3542 197.586 30.8594C197.893 31.3646 198.047 31.9375 198.047 32.5781C198.047 33.2188 197.893 33.7917 197.586 34.2969C197.279 34.7969 196.854 35.1875 196.312 35.4688C195.776 35.75 195.172 35.8906 194.5 35.8906C193.818 35.8906 193.206 35.75 192.664 35.4688C192.122 35.1875 191.698 34.7969 191.391 34.2969C191.083 33.7917 190.932 33.2188 190.938 32.5781C190.932 31.9375 191.083 31.3646 191.391 30.8594C191.698 30.3542 192.122 29.9609 192.664 29.6797C193.206 29.3932 193.818 29.25 194.5 29.25ZM194.5 30.6719C194.13 30.6719 193.799 30.75 193.508 30.9062C193.221 31.0625 192.997 31.2865 192.836 31.5781C192.674 31.8646 192.594 32.1979 192.594 32.5781C192.594 32.9583 192.674 33.2917 192.836 33.5781C192.997 33.8594 193.221 34.0781 193.508 34.2344C193.799 34.3854 194.13 34.4583 194.5 34.4531C194.859 34.4583 195.18 34.3854 195.461 34.2344C195.747 34.0781 195.971 33.8594 196.133 33.5781C196.299 33.2917 196.385 32.9583 196.391 32.5781C196.385 32.1979 196.299 31.8646 196.133 31.5781C195.971 31.2917 195.747 31.0703 195.461 30.9141C195.18 30.7526 194.859 30.6719 194.5 30.6719ZM215.684 38.8906H213.934V24.7656H215.684V38.8906ZM211.466 26.2656C211.466 28.5104 210.958 30.4818 209.942 32.1797C208.927 33.8724 207.242 35.276 204.887 36.3906L203.981 35C205.799 34.1354 207.166 33.1016 208.083 31.8984C209.005 30.6901 209.544 29.2708 209.7 27.6406H204.7V26.2656H211.466Z" fill="#FAFAF7"/>
</g>
</g>
<path d="M20 6.5H316C322.351 6.5 327.5 11.6487 327.5 18V46C327.5 52.3513 322.351 57.5 316 57.5H20C13.6487 57.5 8.5 52.3513 8.5 46V18C8.5 11.6487 13.6487 6.5 20 6.5Z" stroke="#4A7C59"/>
</g>
<defs>
<filter id="filter0_dd_145_4639" x="0" y="0" width="336" height="68" filterUnits="userSpaceOnUse" color-interpolation-filters="sRGB">
<feFlood flood-opacity="0" result="BackgroundImageFix"/>
<feColorMatrix in="SourceAlpha" type="matrix" values="0 0 0 0 0 0 0 0 0 0 0 0 0 0 0 0 0 0 127 0" result="hardAlpha"/>
<feOffset dy="2"/>
<feGaussianBlur stdDeviation="4"/>
<feColorMatrix type="matrix" values="0 0 0 0 0 0 0 0 0 0 0 0 0 0 0 0 0 0 0.3 0"/>
<feBlend mode="normal" in2="BackgroundImageFix" result="effect1_dropShadow_145_4639"/>
<feColorMatrix in="SourceAlpha" type="matrix" values="0 0 0 0 0 0 0 0 0 0 0 0 0 0 0 0 0 0 127 0" result="hardAlpha"/>
<feOffset dy="1"/>
<feGaussianBlur stdDeviation="1"/>
<feColorMatrix type="matrix" values="0 0 0 0 0 0 0 0 0 0 0 0 0 0 0 0 0 0 0.15 0"/>
<feBlend mode="normal" in2="effect1_dropShadow_145_4639" result="effect2_dropShadow_145_4639"/>
<feBlend mode="normal" in="SourceGraphic" in2="effect2_dropShadow_145_4639" result="shape"/>
</filter>
<clipPath id="clip0_145_4639">
<path d="M8 18C8 11.3726 13.3726 6 20 6H316C322.627 6 328 11.3726 328 18V46C328 52.6274 322.627 58 316 58H20C13.3726 58 8 52.6274 8 46V18Z" fill="white"/>
</clipPath>
</defs>
</svg>
