<svg width="336" height="68" viewBox="0 0 336 68" fill="none" xmlns="http://www.w3.org/2000/svg">
<g filter="url(#filter0_dd_156_5924)">
<g clip-path="url(#clip0_156_5924)">
<path d="M316 6H20C13.3726 6 8 11.3726 8 18V46C8 52.6274 13.3726 58 20 58H316C322.627 58 328 52.6274 328 46V18C328 11.3726 322.627 6 316 6Z" fill="#5E9E72"/>
<path d="M148.622 25.9375C148.622 26.5312 148.83 27.1094 149.247 27.6719C149.669 28.2344 150.257 28.7161 151.013 29.1172C151.773 29.5182 152.643 29.7812 153.622 29.9062L152.934 31.3125C151.747 31.1354 150.695 30.7708 149.778 30.2188C148.861 29.6615 148.171 28.9818 147.708 28.1797C147.244 28.9818 146.557 29.6615 145.645 30.2188C144.734 30.7708 143.69 31.1354 142.513 31.3125L141.825 29.9062C142.794 29.7812 143.656 29.5182 144.411 29.1172C145.166 28.7161 145.752 28.2344 146.169 27.6719C146.585 27.1094 146.794 26.5312 146.794 25.9375V25.2188H148.622V25.9375ZM154.138 33.9688H148.528V38.8906H146.809V33.9688H141.263V32.5312H154.138V33.9688ZM166.619 33.1562H164.884V29.7031H162.478V28.2812H164.884V24.7656H166.619V33.1562ZM161.838 33.5156C162.832 33.5156 163.692 33.6224 164.416 33.8359C165.145 34.0443 165.702 34.3516 166.088 34.7578C166.473 35.1589 166.666 35.6406 166.666 36.2031C166.666 36.7656 166.473 37.2474 166.088 37.6484C165.702 38.0547 165.145 38.362 164.416 38.5703C163.692 38.7839 162.832 38.8906 161.838 38.8906C160.848 38.8906 159.991 38.7839 159.267 38.5703C158.543 38.362 157.989 38.0547 157.603 37.6484C157.223 37.2474 157.035 36.7656 157.041 36.2031C157.035 35.6406 157.223 35.1589 157.603 34.7578C157.989 34.3516 158.543 34.0443 159.267 33.8359C159.991 33.6224 160.848 33.5156 161.838 33.5156ZM161.838 34.8438C160.848 34.8438 160.088 34.9609 159.556 35.1953C159.025 35.4245 158.759 35.7604 158.759 36.2031C158.759 36.6406 159.025 36.974 159.556 37.2031C160.088 37.4323 160.848 37.5469 161.838 37.5469C162.827 37.5469 163.59 37.4323 164.127 37.2031C164.663 36.974 164.931 36.6406 164.931 36.2031C164.931 35.7604 164.663 35.4245 164.127 35.1953C163.59 34.9609 162.827 34.8438 161.838 34.8438ZM159.978 27.1875C159.978 27.7708 160.106 28.3385 160.361 28.8906C160.616 29.4375 160.994 29.9297 161.494 30.3672C161.994 30.7995 162.598 31.1354 163.306 31.375L162.431 32.75C161.666 32.4896 161.002 32.1068 160.439 31.6016C159.882 31.0911 159.444 30.4974 159.127 29.8203C158.809 30.5859 158.356 31.2552 157.767 31.8281C157.179 32.3958 156.473 32.8281 155.65 33.125L154.744 31.75C155.478 31.5 156.106 31.138 156.627 30.6641C157.147 30.1849 157.541 29.6458 157.806 29.0469C158.077 28.4479 158.213 27.8333 158.213 27.2031V27.0938H155.275V25.6875H162.9V27.0938H159.978V27.1875ZM179.381 30.3906H181.553V31.8281H179.381V38.8906H177.663V24.7656H179.381V30.3906ZM176.569 28.3281H168.241V26.9375H171.584V24.9688H173.319V26.9375H176.569V28.3281ZM172.459 29.25C173.131 29.25 173.735 29.3932 174.272 29.6797C174.814 29.9609 175.238 30.3542 175.545 30.8594C175.853 31.3646 176.006 31.9375 176.006 32.5781C176.006 33.2188 175.853 33.7917 175.545 34.2969C175.238 34.7969 174.814 35.1875 174.272 35.4688C173.735 35.75 173.131 35.8906 172.459 35.8906C171.777 35.8906 171.165 35.75 170.623 35.4688C170.082 35.1875 169.657 34.7969 169.35 34.2969C169.043 33.7917 168.892 33.2188 168.897 32.5781C168.892 31.9375 169.043 31.3646 169.35 30.8594C169.657 30.3542 170.082 29.9609 170.623 29.6797C171.165 29.3932 171.777 29.25 172.459 29.25ZM172.459 30.6719C172.09 30.6719 171.759 30.75 171.467 30.9062C171.181 31.0625 170.957 31.2865 170.795 31.5781C170.634 31.8646 170.553 32.1979 170.553 32.5781C170.553 32.9583 170.634 33.2917 170.795 33.5781C170.957 33.8594 171.181 34.0781 171.467 34.2344C171.759 34.3854 172.09 34.4583 172.459 34.4531C172.819 34.4583 173.139 34.3854 173.42 34.2344C173.707 34.0781 173.931 33.8594 174.092 33.5781C174.259 33.2917 174.345 32.9583 174.35 32.5781C174.345 32.1979 174.259 31.8646 174.092 31.5781C173.931 31.2917 173.707 31.0703 173.42 30.9141C173.139 30.7526 172.819 30.6719 172.459 30.6719ZM193.644 38.8906H191.894V24.7656H193.644V38.8906ZM189.425 26.2656C189.425 28.5104 188.917 30.4818 187.902 32.1797C186.886 33.8724 185.201 35.276 182.847 36.3906L181.941 35C183.758 34.1354 185.126 33.1016 186.042 31.8984C186.964 30.6901 187.503 29.2708 187.659 27.6406H182.659V26.2656H189.425Z" fill="#FAFAF7"/>
</g>
<path d="M20 6.5H316C322.351 6.5 327.5 11.6487 327.5 18V46C327.5 52.3513 322.351 57.5 316 57.5H20C13.6487 57.5 8.5 52.3513 8.5 46V18C8.5 11.6487 13.6487 6.5 20 6.5Z" stroke="#4A7C59"/>
</g>
<defs>
<filter id="filter0_dd_156_5924" x="0" y="0" width="336" height="68" filterUnits="userSpaceOnUse" color-interpolation-filters="sRGB">
<feFlood flood-opacity="0" result="BackgroundImageFix"/>
<feColorMatrix in="SourceAlpha" type="matrix" values="0 0 0 0 0 0 0 0 0 0 0 0 0 0 0 0 0 0 127 0" result="hardAlpha"/>
<feOffset dy="2"/>
<feGaussianBlur stdDeviation="4"/>
<feColorMatrix type="matrix" values="0 0 0 0 0 0 0 0 0 0 0 0 0 0 0 0 0 0 0.3 0"/>
<feBlend mode="normal" in2="BackgroundImageFix" result="effect1_dropShadow_156_5924"/>
<feColorMatrix in="SourceAlpha" type="matrix" values="0 0 0 0 0 0 0 0 0 0 0 0 0 0 0 0 0 0 127 0" result="hardAlpha"/>
<feOffset dy="1"/>
<feGaussianBlur stdDeviation="1"/>
<feColorMatrix type="matrix" values="0 0 0 0 0 0 0 0 0 0 0 0 0 0 0 0 0 0 0.15 0"/>
<feBlend mode="normal" in2="effect1_dropShadow_156_5924" result="effect2_dropShadow_156_5924"/>
<feBlend mode="normal" in="SourceGraphic" in2="effect2_dropShadow_156_5924" result="shape"/>
</filter>
<clipPath id="clip0_156_5924">
<path d="M8 18C8 11.3726 13.3726 6 20 6H316C322.627 6 328 11.3726 328 18V46C328 52.6274 322.627 58 316 58H20C13.3726 58 8 52.6274 8 46V18Z" fill="white"/>
</clipPath>
</defs>
</svg>
