<svg width="320" height="52" viewBox="0 0 320 52" fill="none" xmlns="http://www.w3.org/2000/svg">
<g clip-path="url(#clip0_156_5934)">
<rect width="320" height="52" fill="#161A18"/>
<path d="M140.622 19.9375C140.622 20.5312 140.83 21.1094 141.247 21.6719C141.669 22.2344 142.257 22.7161 143.013 23.1172C143.773 23.5182 144.643 23.7812 145.622 23.9062L144.934 25.3125C143.747 25.1354 142.695 24.7708 141.778 24.2188C140.861 23.6615 140.171 22.9818 139.708 22.1797C139.244 22.9818 138.557 23.6615 137.645 24.2188C136.734 24.7708 135.69 25.1354 134.513 25.3125L133.825 23.9062C134.794 23.7812 135.656 23.5182 136.411 23.1172C137.166 22.7161 137.752 22.2344 138.169 21.6719C138.585 21.1094 138.794 20.5312 138.794 19.9375V19.2188H140.622V19.9375ZM146.138 27.9688H140.528V32.8906H138.809V27.9688H133.263V26.5312H146.138V27.9688ZM158.619 27.1562H156.884V23.7031H154.478V22.2812H156.884V18.7656H158.619V27.1562ZM153.838 27.5156C154.832 27.5156 155.692 27.6224 156.416 27.8359C157.145 28.0443 157.702 28.3516 158.088 28.7578C158.473 29.1589 158.666 29.6406 158.666 30.2031C158.666 30.7656 158.473 31.2474 158.088 31.6484C157.702 32.0547 157.145 32.362 156.416 32.5703C155.692 32.7839 154.832 32.8906 153.838 32.8906C152.848 32.8906 151.991 32.7839 151.267 32.5703C150.543 32.362 149.989 32.0547 149.603 31.6484C149.223 31.2474 149.035 30.7656 149.041 30.2031C149.035 29.6406 149.223 29.1589 149.603 28.7578C149.989 28.3516 150.543 28.0443 151.267 27.8359C151.991 27.6224 152.848 27.5156 153.838 27.5156ZM153.838 28.8438C152.848 28.8438 152.088 28.9609 151.556 29.1953C151.025 29.4245 150.759 29.7604 150.759 30.2031C150.759 30.6406 151.025 30.974 151.556 31.2031C152.088 31.4323 152.848 31.5469 153.838 31.5469C154.827 31.5469 155.59 31.4323 156.127 31.2031C156.663 30.974 156.931 30.6406 156.931 30.2031C156.931 29.7604 156.663 29.4245 156.127 29.1953C155.59 28.9609 154.827 28.8438 153.838 28.8438ZM151.978 21.1875C151.978 21.7708 152.106 22.3385 152.361 22.8906C152.616 23.4375 152.994 23.9297 153.494 24.3672C153.994 24.7995 154.598 25.1354 155.306 25.375L154.431 26.75C153.666 26.4896 153.002 26.1068 152.439 25.6016C151.882 25.0911 151.444 24.4974 151.127 23.8203C150.809 24.5859 150.356 25.2552 149.767 25.8281C149.179 26.3958 148.473 26.8281 147.65 27.125L146.744 25.75C147.478 25.5 148.106 25.138 148.627 24.6641C149.147 24.1849 149.541 23.6458 149.806 23.0469C150.077 22.4479 150.213 21.8333 150.213 21.2031V21.0938H147.275V19.6875H154.9V21.0938H151.978V21.1875ZM171.381 24.3906H173.553V25.8281H171.381V32.8906H169.663V18.7656H171.381V24.3906ZM168.569 22.3281H160.241V20.9375H163.584V18.9688H165.319V20.9375H168.569V22.3281ZM164.459 23.25C165.131 23.25 165.735 23.3932 166.272 23.6797C166.814 23.9609 167.238 24.3542 167.545 24.8594C167.853 25.3646 168.006 25.9375 168.006 26.5781C168.006 27.2188 167.853 27.7917 167.545 28.2969C167.238 28.7969 166.814 29.1875 166.272 29.4688C165.735 29.75 165.131 29.8906 164.459 29.8906C163.777 29.8906 163.165 29.75 162.623 29.4688C162.082 29.1875 161.657 28.7969 161.35 28.2969C161.043 27.7917 160.892 27.2188 160.897 26.5781C160.892 25.9375 161.043 25.3646 161.35 24.8594C161.657 24.3542 162.082 23.9609 162.623 23.6797C163.165 23.3932 163.777 23.25 164.459 23.25ZM164.459 24.6719C164.09 24.6719 163.759 24.75 163.467 24.9062C163.181 25.0625 162.957 25.2865 162.795 25.5781C162.634 25.8646 162.553 26.1979 162.553 26.5781C162.553 26.9583 162.634 27.2917 162.795 27.5781C162.957 27.8594 163.181 28.0781 163.467 28.2344C163.759 28.3854 164.09 28.4583 164.459 28.4531C164.819 28.4583 165.139 28.3854 165.42 28.2344C165.707 28.0781 165.931 27.8594 166.092 27.5781C166.259 27.2917 166.345 26.9583 166.35 26.5781C166.345 26.1979 166.259 25.8646 166.092 25.5781C165.931 25.2917 165.707 25.0703 165.42 24.9141C165.139 24.7526 164.819 24.6719 164.459 24.6719ZM185.644 32.8906H183.894V18.7656H185.644V32.8906ZM181.425 20.2656C181.425 22.5104 180.917 24.4818 179.902 26.1797C178.886 27.8724 177.201 29.276 174.847 30.3906L173.941 29C175.758 28.1354 177.126 27.1016 178.042 25.8984C178.964 24.6901 179.503 23.2708 179.659 21.6406H174.659V20.2656H181.425Z" fill="#7A7873"/>
</g>
<path d="M12 0.5H308C314.351 0.5 319.5 5.64873 319.5 12V40C319.5 46.3513 314.351 51.5 308 51.5H12C5.64873 51.5 0.5 46.3513 0.5 40V12C0.5 5.64873 5.64873 0.500001 12 0.5Z" stroke="#373F3B"/>
<defs>
<clipPath id="clip0_156_5934">
<path d="M0 12C0 5.37258 5.37258 0 12 0H308C314.627 0 320 5.37258 320 12V40C320 46.6274 314.627 52 308 52H12C5.37259 52 0 46.6274 0 40V12Z" fill="white"/>
</clipPath>
</defs>
</svg>
