<svg width="320" height="177" viewBox="0 0 320 177" fill="none" xmlns="http://www.w3.org/2000/svg">
<g id="Property 1=Dark" filter="url(#filter0_dd_133_4981)">
<path d="M20 40C20 31.1634 27.1634 24 36 24H284C292.837 24 300 31.1634 300 40V141C300 149.837 292.837 157 284 157H36C27.1634 157 20 149.837 20 141V40Z" fill="#262B28"/>
<path d="M36 24.5H284C292.56 24.5 299.5 31.4396 299.5 40V141C299.5 149.56 292.56 156.5 284 156.5H36C27.4396 156.5 20.5 149.56 20.5 141V40C20.5 31.4396 27.4396 24.5 36 24.5Z" stroke="#373F3B"/>
<g id="Frame 81">
<path id="&#236;&#177;&#132;&#237;&#140;&#133;&#235;&#176;&#169;&#236;&#157;&#132; &#236;&#130;&#173;&#236;&#160;&#156;&#237;&#149;&#160;&#234;&#185;&#140;&#236;&#154;&#148;?" d="M96.5547 58.6406C96.5547 59.3854 96.6771 60.1172 96.9219 60.8359C97.1667 61.5547 97.5182 62.2057 97.9766 62.7891C98.4401 63.3672 98.9818 63.8229 99.6016 64.1562L98.8828 65.0781C98.2057 64.7083 97.6198 64.1875 97.125 63.5156C96.6302 62.8438 96.2526 62.0807 95.9922 61.2266C95.737 62.138 95.362 62.9557 94.8672 63.6797C94.3724 64.4036 93.7891 64.9635 93.1172 65.3594L92.3828 64.4531C92.9922 64.099 93.5234 63.6146 93.9766 63C94.4297 62.3802 94.7786 61.6927 95.0234 60.9375C95.2682 60.1771 95.3932 59.4115 95.3984 58.6406V58H92.7109V56.9844H95.3984V54.8906H96.5703V56.9844H99.2266V58H96.5547V58.6406ZM104.43 68.2656H103.242V61.0469H101.352V67.5625H100.18V54.6719H101.352V60H103.242V54.375H104.43V68.2656ZM113.789 56.4062H108.367V58.1562H113.398V59.1562H108.367V60.9844C109.945 60.9844 111.201 60.9609 112.133 60.9141C113.065 60.862 113.997 60.7604 114.93 60.6094L115.055 61.6094C114.081 61.7656 113.109 61.8698 112.141 61.9219C111.172 61.974 109.878 62 108.258 62H107.133V55.4062H113.789V56.4062ZM117.789 63H116.57V54.3906H117.789V63ZM113.18 63.2031C114.138 63.1979 114.969 63.2943 115.672 63.4922C116.375 63.6849 116.914 63.9714 117.289 64.3516C117.664 64.7266 117.852 65.1771 117.852 65.7031C117.852 66.2396 117.664 66.6953 117.289 67.0703C116.914 67.4505 116.375 67.7396 115.672 67.9375C114.974 68.1354 114.143 68.2344 113.18 68.2344C112.195 68.2344 111.352 68.1354 110.648 67.9375C109.945 67.7448 109.406 67.4583 109.031 67.0781C108.661 66.6979 108.477 66.2396 108.477 65.7031C108.477 65.1771 108.661 64.7266 109.031 64.3516C109.406 63.9714 109.945 63.6849 110.648 63.4922C111.357 63.2943 112.201 63.1979 113.18 63.2031ZM113.18 64.1719C112.456 64.1719 111.831 64.2344 111.305 64.3594C110.784 64.4792 110.385 64.6536 110.109 64.8828C109.833 65.112 109.695 65.3854 109.695 65.7031C109.695 66.0312 109.833 66.3125 110.109 66.5469C110.385 66.7812 110.784 66.9583 111.305 67.0781C111.831 67.2031 112.456 67.2656 113.18 67.2656C113.888 67.2656 114.503 67.2031 115.023 67.0781C115.544 66.9531 115.945 66.7734 116.227 66.5391C116.508 66.3047 116.648 66.026 116.648 65.7031C116.648 65.3906 116.508 65.1198 116.227 64.8906C115.945 64.6562 115.542 64.4792 115.016 64.3594C114.495 64.2344 113.883 64.1719 113.18 64.1719ZM126.555 63.1094C127.503 63.1094 128.32 63.2109 129.008 63.4141C129.695 63.612 130.221 63.9036 130.586 64.2891C130.951 64.6745 131.133 65.1354 131.133 65.6719C131.133 66.2135 130.951 66.6771 130.586 67.0625C130.221 67.4531 129.695 67.75 129.008 67.9531C128.326 68.1562 127.508 68.2604 126.555 68.2656C125.602 68.2604 124.779 68.1562 124.086 67.9531C123.398 67.75 122.87 67.4531 122.5 67.0625C122.13 66.6771 121.945 66.2135 121.945 65.6719C121.945 65.1354 122.13 64.6745 122.5 64.2891C122.87 63.9036 123.401 63.612 124.094 63.4141C124.786 63.2109 125.607 63.1094 126.555 63.1094ZM126.555 64.0781C125.857 64.0833 125.253 64.151 124.742 64.2812C124.237 64.4062 123.849 64.5885 123.578 64.8281C123.307 65.0625 123.174 65.3438 123.18 65.6719C123.174 66 123.307 66.2839 123.578 66.5234C123.849 66.763 124.24 66.9453 124.75 67.0703C125.26 67.2005 125.862 67.2656 126.555 67.2656C127.253 67.2656 127.857 67.2005 128.367 67.0703C128.878 66.9453 129.268 66.763 129.539 66.5234C129.81 66.2839 129.945 66 129.945 65.6719C129.945 65.3438 129.81 65.0625 129.539 64.8281C129.268 64.5885 128.878 64.4062 128.367 64.2812C127.862 64.151 127.258 64.0833 126.555 64.0781ZM131.008 57.875H133.102V58.9219H131.008V62.7344H129.789V54.375H131.008V57.875ZM121.945 57.375H125.992V55.25H127.211V61.6562H120.742V55.25H121.945V57.375ZM125.992 60.6562V58.3438H121.945V60.6562H125.992ZM140.305 54.625C141.336 54.625 142.219 54.7188 142.953 54.9062C143.688 55.0885 144.247 55.3594 144.633 55.7188C145.018 56.0729 145.211 56.5052 145.211 57.0156C145.211 57.7969 144.784 58.3958 143.93 58.8125C143.076 59.2292 141.867 59.4427 140.305 59.4531C139.273 59.4479 138.388 59.3516 137.648 59.1641C136.914 58.9766 136.352 58.7031 135.961 58.3438C135.576 57.9792 135.383 57.5365 135.383 57.0156C135.383 56.5052 135.576 56.0729 135.961 55.7188C136.352 55.3594 136.914 55.0885 137.648 54.9062C138.388 54.7188 139.273 54.625 140.305 54.625ZM140.305 55.5469C139.539 55.5469 138.883 55.6068 138.336 55.7266C137.789 55.8411 137.372 56.0104 137.086 56.2344C136.799 56.4531 136.659 56.7135 136.664 57.0156C136.659 57.4948 136.974 57.8646 137.609 58.125C138.245 58.3854 139.143 58.5156 140.305 58.5156C141.461 58.5156 142.359 58.3854 143 58.125C143.641 57.8646 143.961 57.4948 143.961 57.0156C143.961 56.7135 143.815 56.4531 143.523 56.2344C143.232 56.0156 142.812 55.8464 142.266 55.7266C141.719 55.6068 141.065 55.5469 140.305 55.5469ZM146.633 61.3906H133.977V60.3906H146.633V61.3906ZM145.008 65.7031H136.758V67.1406H145.43V68.1094H135.539V64.7969H143.805V63.5312H135.508V62.5938H145.008V65.7031ZM156.492 56.6094C156.487 57.2292 156.63 57.8281 156.922 58.4062C157.214 58.9792 157.622 59.487 158.148 59.9297C158.68 60.3672 159.284 60.7031 159.961 60.9375L159.32 61.9062C158.539 61.625 157.852 61.2057 157.258 60.6484C156.669 60.0859 156.221 59.4349 155.914 58.6953C155.622 59.5078 155.174 60.2188 154.57 60.8281C153.966 61.4323 153.253 61.8854 152.43 62.1875L151.789 61.2031C152.482 60.9531 153.091 60.5964 153.617 60.1328C154.143 59.6641 154.552 59.1198 154.844 58.5C155.135 57.8802 155.284 57.224 155.289 56.5312V55.0938H156.492V56.6094ZM162.68 58.0625H164.773V59.1094H162.68V62.7969H161.461V54.375H162.68V58.0625ZM162.68 68.2656H161.461V64.4844H153.586V63.4844H162.68V68.2656ZM177.523 68.2656H176.352V54.375H177.523V68.2656ZM174.711 67.5469H173.555V60.3906H171.211V59.3906H173.555V54.7188H174.711V67.5469ZM169.727 58.3438C169.727 59.151 169.844 59.9401 170.078 60.7109C170.312 61.4766 170.656 62.1693 171.109 62.7891C171.562 63.4036 172.102 63.8906 172.727 64.25L171.977 65.1562C171.305 64.7552 170.729 64.2005 170.25 63.4922C169.771 62.7786 169.406 61.9714 169.156 61.0703C168.901 62.0443 168.523 62.9167 168.023 63.6875C167.529 64.4583 166.94 65.0573 166.258 65.4844L165.477 64.5625C166.107 64.1875 166.654 63.6745 167.117 63.0234C167.581 62.3724 167.932 61.6432 168.172 60.8359C168.417 60.0234 168.539 59.1927 168.539 58.3438V57.0312H165.867V56.0156H172.273V57.0312H169.727V58.3438ZM190.336 57.7031H192.445V58.7188H190.336V62.0156H189.117V54.3281H190.336V57.7031ZM190.336 65.8125H182.711V67.1719H190.852V68.1094H181.508V64.9062H189.117V63.6562H181.477V62.7344H190.336V65.8125ZM187.789 56.625H179.508V55.6406H183.039V54.2344H184.258V55.6406H187.789V56.625ZM183.648 57.25C184.315 57.25 184.898 57.3438 185.398 57.5312C185.904 57.7135 186.294 57.9766 186.57 58.3203C186.846 58.6641 186.987 59.0677 186.992 59.5312C186.987 59.9948 186.846 60.3984 186.57 60.7422C186.294 61.0859 185.904 61.3516 185.398 61.5391C184.898 61.7214 184.315 61.8125 183.648 61.8125C182.977 61.8125 182.385 61.7214 181.875 61.5391C181.37 61.3516 180.979 61.0859 180.703 60.7422C180.432 60.3984 180.299 59.9948 180.305 59.5312C180.299 59.0677 180.432 58.6641 180.703 58.3203C180.979 57.9766 181.37 57.7135 181.875 57.5312C182.385 57.3438 182.977 57.25 183.648 57.25ZM183.648 58.1562C183.216 58.1562 182.833 58.2135 182.5 58.3281C182.172 58.4427 181.917 58.6042 181.734 58.8125C181.557 59.0208 181.471 59.2604 181.477 59.5312C181.471 59.8073 181.557 60.0495 181.734 60.2578C181.917 60.4609 182.172 60.6172 182.5 60.7266C182.828 60.8359 183.211 60.8906 183.648 60.8906C184.31 60.8906 184.839 60.7708 185.234 60.5312C185.63 60.2865 185.831 59.9531 185.836 59.5312C185.831 59.2552 185.737 59.0156 185.555 58.8125C185.372 58.6042 185.117 58.4427 184.789 58.3281C184.461 58.2135 184.081 58.1562 183.648 58.1562ZM204.305 60.1094H206.414V61.1406H204.305V68.2656H203.07V54.375H204.305V60.1094ZM197.523 55.8906C197.513 57.7031 197.258 59.3828 196.758 60.9297C196.263 62.4714 195.424 63.8698 194.242 65.125L193.258 64.4219C194.263 63.3958 195.01 62.2578 195.5 61.0078C195.99 59.7526 196.276 58.3906 196.359 56.9219H193.695V55.8906H197.523ZM201.336 55.8906C201.326 57.8698 201.102 59.7135 200.664 61.4219C200.227 63.125 199.419 64.6667 198.242 66.0469L197.242 65.3594C198.247 64.224 198.971 62.9427 199.414 61.5156C199.862 60.0885 200.117 58.5573 200.18 56.9219H197.961V55.8906H201.336ZM219.852 66.4844H207.133V65.4531H210.289V61.7031C209.685 61.3906 209.216 60.9896 208.883 60.5C208.549 60.0052 208.383 59.4479 208.383 58.8281C208.383 58.1198 208.599 57.4974 209.031 56.9609C209.464 56.4193 210.062 56 210.828 55.7031C211.599 55.4062 212.477 55.2552 213.461 55.25C214.445 55.2552 215.32 55.4062 216.086 55.7031C216.857 56 217.458 56.4193 217.891 56.9609C218.323 57.4974 218.539 58.1198 218.539 58.8281C218.539 59.4375 218.378 59.987 218.055 60.4766C217.732 60.9609 217.279 61.3594 216.695 61.6719V65.4531H219.852V66.4844ZM213.461 56.2656C212.706 56.2604 212.034 56.3646 211.445 56.5781C210.857 56.7917 210.396 57.0938 210.062 57.4844C209.734 57.8698 209.57 58.3177 209.57 58.8281C209.57 59.3385 209.734 59.7917 210.062 60.1875C210.396 60.5781 210.857 60.8828 211.445 61.1016C212.034 61.3151 212.706 61.4219 213.461 61.4219C214.211 61.4219 214.88 61.3125 215.469 61.0938C216.057 60.875 216.518 60.5703 216.852 60.1797C217.185 59.7891 217.352 59.3385 217.352 58.8281C217.352 58.3177 217.185 57.8698 216.852 57.4844C216.518 57.0938 216.057 56.7917 215.469 56.5781C214.88 56.3646 214.211 56.2604 213.461 56.2656ZM215.461 65.4531V62.1484C214.841 62.3099 214.174 62.3906 213.461 62.3906C212.742 62.3906 212.086 62.3125 211.492 62.1562V65.4531H215.461ZM223.18 63.7344C223.185 63.0625 223.253 62.5182 223.383 62.1016C223.518 61.6849 223.706 61.349 223.945 61.0938C224.185 60.8385 224.508 60.5885 224.914 60.3438C225.258 60.1354 225.534 59.8724 225.742 59.5547C225.951 59.2318 226.055 58.8646 226.055 58.4531C226.055 58.1094 225.971 57.8073 225.805 57.5469C225.643 57.2812 225.419 57.0781 225.133 56.9375C224.852 56.7917 224.539 56.7188 224.195 56.7188C223.883 56.7188 223.589 56.7839 223.312 56.9141C223.042 57.0391 222.815 57.2396 222.633 57.5156C222.456 57.7865 222.352 58.125 222.32 58.5312H220.898C220.924 57.9167 221.086 57.3828 221.383 56.9297C221.68 56.4766 222.073 56.1302 222.562 55.8906C223.052 55.651 223.596 55.5312 224.195 55.5312C224.836 55.5312 225.401 55.6615 225.891 55.9219C226.38 56.1771 226.758 56.5312 227.023 56.9844C227.294 57.4375 227.43 57.9479 227.43 58.5156C227.43 59.6667 226.914 60.5573 225.883 61.1875C225.549 61.3906 225.286 61.6016 225.094 61.8203C224.906 62.0391 224.766 62.2995 224.672 62.6016C224.583 62.9036 224.534 63.2812 224.523 63.7344V63.8125H223.18V63.7344ZM223.898 67.0938C223.716 67.0938 223.547 67.0495 223.391 66.9609C223.24 66.8672 223.117 66.7422 223.023 66.5859C222.935 66.4297 222.893 66.2604 222.898 66.0781C222.893 65.901 222.935 65.737 223.023 65.5859C223.117 65.4297 223.24 65.3073 223.391 65.2188C223.547 65.125 223.716 65.0781 223.898 65.0781C224.076 65.0781 224.24 65.125 224.391 65.2188C224.547 65.3073 224.669 65.4297 224.758 65.5859C224.852 65.737 224.898 65.901 224.898 66.0781C224.898 66.2604 224.852 66.4297 224.758 66.5859C224.669 66.7422 224.547 66.8672 224.391 66.9609C224.24 67.0495 224.076 67.0938 223.898 67.0938Z" fill="#E8E4DC"/>
<path id="&#236;&#130;&#173;&#236;&#160;&#156;&#235;&#144;&#156; &#236;&#177;&#132;&#237;&#140;&#133;&#235;&#176;&#169;&#236;&#157;&#128; &#235;&#179;&#181;&#234;&#181;&#172;&#237;&#149;&#160; &#236;&#136;&#152; &#236;&#151;&#134;&#236;&#150;&#180;&#236;&#154;&#148;." d="M77.4297 86.5576C77.4255 87.0612 77.5418 87.5479 77.7788 88.0176C78.0158 88.4831 78.348 88.8957 78.7754 89.2554C79.207 89.6108 79.6979 89.8838 80.248 90.0742L79.7275 90.8613C79.0928 90.6328 78.5342 90.2922 78.0518 89.8394C77.5736 89.3823 77.2096 88.8534 76.96 88.2524C76.723 88.9126 76.359 89.4902 75.8682 89.9854C75.3773 90.4762 74.7975 90.8444 74.1289 91.0898L73.6084 90.29C74.1712 90.0869 74.6663 89.797 75.0938 89.4204C75.5212 89.0396 75.8534 88.5973 76.0903 88.0938C76.3273 87.5902 76.4479 87.057 76.4521 86.4941V85.3262H77.4297V86.5576ZM82.457 87.7383H84.1582V88.5889H82.457V91.585H81.4668V84.7422H82.457V87.7383ZM82.457 96.0283H81.4668V92.9561H75.0684V92.1436H82.457V96.0283ZM94.5176 96.0283H93.5654V84.7422H94.5176V96.0283ZM92.2324 95.4443H91.293V89.6299H89.3887V88.8174H91.293V85.0215H92.2324V95.4443ZM88.1826 87.9668C88.1826 88.6227 88.2778 89.2638 88.4683 89.8901C88.6587 90.5122 88.938 91.075 89.3062 91.5786C89.6743 92.078 90.1123 92.4736 90.6201 92.7656L90.0107 93.502C89.4648 93.1761 88.9972 92.7254 88.6079 92.1499C88.2186 91.5701 87.9224 90.9142 87.7192 90.1821C87.5119 90.9735 87.2051 91.6823 86.7988 92.3086C86.3968 92.9349 85.9186 93.4215 85.3643 93.7686L84.7295 93.0195C85.2415 92.7148 85.6859 92.298 86.0625 91.769C86.4391 91.2401 86.7248 90.6476 86.9194 89.9917C87.1183 89.3315 87.2178 88.6566 87.2178 87.9668V86.9004H85.0469V86.0752H90.252V86.9004H88.1826V87.9668ZM102.668 89.2617H100.383V90.8423C101.517 90.7873 102.545 90.709 103.468 90.6074L103.544 91.3438C101.555 91.6146 99.1429 91.75 96.3076 91.75L96.1553 90.9375C97.4206 90.929 98.4997 90.91 99.3926 90.8804V89.2617H97.1836V85.4785H102.579V86.3037H98.1865V88.4492H102.668V89.2617ZM105.41 93.1973H104.407V84.7549H105.41V93.1973ZM105.778 95.7871H98.085V92.6133H99.0752V94.9492H105.778V95.7871ZM113.903 88.208C113.903 88.8132 114.003 89.4077 114.202 89.9917C114.401 90.5757 114.686 91.1047 115.059 91.5786C115.435 92.0483 115.875 92.4186 116.379 92.6895L115.795 93.4385C115.245 93.138 114.769 92.7148 114.367 92.1689C113.965 91.623 113.658 91.0031 113.446 90.3091C113.239 91.0496 112.934 91.714 112.532 92.3022C112.13 92.8905 111.656 93.3454 111.11 93.667L110.514 92.9307C111.009 92.6429 111.44 92.2493 111.809 91.75C112.177 91.2464 112.46 90.6878 112.659 90.0742C112.858 89.4564 112.96 88.8343 112.964 88.208V87.6875H110.78V86.8623H112.964V85.1611H113.916V86.8623H116.074V87.6875H113.903V88.208ZM120.302 96.0283H119.337V90.1631H117.801V95.457H116.849V84.9834H117.801V89.3125H119.337V84.7422H120.302V96.0283ZM127.906 86.3926H123.501V87.8145H127.589V88.627H123.501V90.1123C124.783 90.1123 125.803 90.0933 126.561 90.0552C127.318 90.0129 128.076 89.9303 128.833 89.8076L128.935 90.6201C128.143 90.7471 127.354 90.8317 126.567 90.874C125.78 90.9163 124.728 90.9375 123.412 90.9375H122.498V85.5801H127.906V86.3926ZM131.156 91.75H130.166V84.7549H131.156V91.75ZM127.411 91.915C128.19 91.9108 128.865 91.9891 129.436 92.1499C130.007 92.3065 130.445 92.5392 130.75 92.8481C131.055 93.1528 131.207 93.5189 131.207 93.9463C131.207 94.3822 131.055 94.7524 130.75 95.0571C130.445 95.366 130.007 95.6009 129.436 95.7617C128.869 95.9225 128.194 96.0029 127.411 96.0029C126.611 96.0029 125.926 95.9225 125.354 95.7617C124.783 95.6051 124.345 95.3724 124.041 95.0635C123.74 94.7546 123.59 94.3822 123.59 93.9463C123.59 93.5189 123.74 93.1528 124.041 92.8481C124.345 92.5392 124.783 92.3065 125.354 92.1499C125.93 91.9891 126.616 91.9108 127.411 91.915ZM127.411 92.7021C126.823 92.7021 126.315 92.7529 125.888 92.8545C125.465 92.9518 125.141 93.0936 124.917 93.2798C124.692 93.466 124.58 93.6882 124.58 93.9463C124.58 94.2129 124.692 94.4414 124.917 94.6318C125.141 94.8223 125.465 94.9661 125.888 95.0635C126.315 95.165 126.823 95.2158 127.411 95.2158C127.987 95.2158 128.486 95.165 128.909 95.0635C129.332 94.9619 129.658 94.8159 129.887 94.6255C130.115 94.4351 130.229 94.2087 130.229 93.9463C130.229 93.6924 130.115 93.4723 129.887 93.2861C129.658 93.0957 129.33 92.9518 128.903 92.8545C128.48 92.7529 127.982 92.7021 127.411 92.7021ZM138.278 91.8389C139.049 91.8389 139.713 91.9214 140.271 92.0864C140.83 92.2472 141.257 92.4842 141.554 92.7974C141.85 93.1105 141.998 93.485 141.998 93.9209C141.998 94.361 141.85 94.7376 141.554 95.0508C141.257 95.3682 140.83 95.6094 140.271 95.7744C139.717 95.9395 139.053 96.0241 138.278 96.0283C137.504 96.0241 136.835 95.9395 136.272 95.7744C135.714 95.6094 135.284 95.3682 134.984 95.0508C134.683 94.7376 134.533 94.361 134.533 93.9209C134.533 93.485 134.683 93.1105 134.984 92.7974C135.284 92.4842 135.716 92.2472 136.279 92.0864C136.842 91.9214 137.508 91.8389 138.278 91.8389ZM138.278 92.626C137.711 92.6302 137.22 92.6852 136.806 92.791C136.395 92.8926 136.08 93.0407 135.86 93.2354C135.64 93.4258 135.532 93.6543 135.536 93.9209C135.532 94.1875 135.64 94.4181 135.86 94.6128C136.08 94.8075 136.397 94.9556 136.812 95.0571C137.227 95.1629 137.715 95.2158 138.278 95.2158C138.845 95.2158 139.336 95.1629 139.751 95.0571C140.166 94.9556 140.483 94.8075 140.703 94.6128C140.923 94.4181 141.033 94.1875 141.033 93.9209C141.033 93.6543 140.923 93.4258 140.703 93.2354C140.483 93.0407 140.166 92.8926 139.751 92.791C139.34 92.6852 138.85 92.6302 138.278 92.626ZM141.896 87.5859H143.598V88.4365H141.896V91.5342H140.906V84.7422H141.896V87.5859ZM134.533 87.1797H137.821V85.4531H138.812V90.6582H133.556V85.4531H134.533V87.1797ZM137.821 89.8457V87.9668H134.533V89.8457H137.821ZM154.592 91.5088H144.309V90.6963H154.592V91.5088ZM153.449 95.7871H145.642V92.499H146.645V94.9492H153.449V95.7871ZM149.45 85.1484C150.254 85.1442 150.957 85.231 151.558 85.4087C152.159 85.5864 152.622 85.8446 152.948 86.1831C153.274 86.5174 153.437 86.9173 153.437 87.3828C153.437 87.8483 153.274 88.2503 152.948 88.5889C152.622 88.9232 152.159 89.1813 151.558 89.3633C150.957 89.541 150.254 89.6299 149.45 89.6299C148.638 89.6299 147.931 89.541 147.33 89.3633C146.729 89.1813 146.266 88.9232 145.94 88.5889C145.614 88.2503 145.451 87.8483 145.451 87.3828C145.451 86.9173 145.614 86.5174 145.94 86.1831C146.266 85.8446 146.729 85.5864 147.33 85.4087C147.931 85.231 148.638 85.1442 149.45 85.1484ZM149.45 85.9482C148.849 85.9482 148.325 86.0075 147.876 86.126C147.427 86.2402 147.08 86.4053 146.835 86.6211C146.594 86.8369 146.475 87.0908 146.479 87.3828C146.475 87.6748 146.594 87.9287 146.835 88.1445C147.08 88.3604 147.427 88.5275 147.876 88.646C148.325 88.7603 148.849 88.8174 149.45 88.8174C150.047 88.8174 150.569 88.7603 151.018 88.646C151.467 88.5275 151.812 88.3604 152.053 88.1445C152.298 87.9287 152.421 87.6748 152.421 87.3828C152.421 87.0908 152.298 86.8369 152.053 86.6211C151.812 86.4053 151.467 86.2402 151.018 86.126C150.569 86.0075 150.047 85.9482 149.45 85.9482ZM169.09 91.4072H158.807V90.582H163.453V89.2236H160.178V85.0088H161.168V86.3164H166.754V85.0088H167.744V89.2236H164.443V90.582H169.09V91.4072ZM167.82 96.0283H166.817V93.3242H159.949V92.5244H167.82V96.0283ZM166.754 88.4238V87.0781H161.168V88.4238H166.754ZM178.967 86.4688C178.967 87.1966 178.948 87.842 178.91 88.4048C178.876 88.9676 178.787 89.6087 178.643 90.3281H180.325V91.1533H175.666V96.0537H174.663V91.1533H170.042V90.3281H177.634C177.786 89.6087 177.881 88.9655 177.919 88.3984C177.958 87.8314 177.977 87.1882 177.977 86.4688V86.3037H171.337V85.4785H178.967V86.4688ZM190.101 87.4463H191.814V88.2715H190.101V90.9502H189.11V84.7041H190.101V87.4463ZM190.101 94.0352H183.905V95.1396H190.52V95.9014H182.928V93.2988H189.11V92.2832H182.902V91.5342H190.101V94.0352ZM188.031 86.5703H181.303V85.7705H184.172V84.6279H185.162V85.7705H188.031V86.5703ZM184.667 87.0781C185.209 87.0781 185.683 87.1543 186.089 87.3066C186.499 87.4548 186.817 87.6685 187.041 87.9478C187.265 88.2271 187.38 88.555 187.384 88.9316C187.38 89.3083 187.265 89.6362 187.041 89.9155C186.817 90.1948 186.499 90.4106 186.089 90.563C185.683 90.7111 185.209 90.7852 184.667 90.7852C184.121 90.7852 183.641 90.7111 183.226 90.563C182.816 90.4106 182.498 90.1948 182.274 89.9155C182.054 89.6362 181.946 89.3083 181.95 88.9316C181.946 88.555 182.054 88.2271 182.274 87.9478C182.498 87.6685 182.816 87.4548 183.226 87.3066C183.641 87.1543 184.121 87.0781 184.667 87.0781ZM184.667 87.8145C184.316 87.8145 184.005 87.861 183.734 87.9541C183.467 88.0472 183.26 88.1784 183.112 88.3477C182.968 88.5169 182.898 88.7116 182.902 88.9316C182.898 89.1559 182.968 89.3527 183.112 89.522C183.26 89.687 183.467 89.814 183.734 89.9028C184 89.9917 184.312 90.0361 184.667 90.0361C185.204 90.0361 185.634 89.9388 185.956 89.7441C186.277 89.5452 186.44 89.2744 186.444 88.9316C186.44 88.7074 186.364 88.5127 186.216 88.3477C186.068 88.1784 185.86 88.0472 185.594 87.9541C185.327 87.861 185.018 87.8145 184.667 87.8145ZM201.438 85.7959C201.438 86.3037 201.634 86.7904 202.028 87.2559C202.426 87.7214 202.942 88.1128 203.577 88.4302C204.211 88.7476 204.869 88.9528 205.551 89.0459L205.145 89.8584C204.552 89.7611 203.979 89.5918 203.424 89.3506C202.87 89.1051 202.375 88.8005 201.939 88.4365C201.503 88.0684 201.167 87.66 200.93 87.2114C200.697 87.66 200.361 88.0684 199.92 88.4365C199.485 88.8005 198.989 89.1051 198.435 89.3506C197.881 89.5918 197.307 89.7611 196.715 89.8584L196.309 89.0459C196.994 88.9528 197.652 88.7497 198.283 88.4365C198.913 88.1191 199.425 87.7298 199.819 87.2686C200.212 86.8031 200.409 86.3122 200.409 85.7959V85.1484H201.438V85.7959ZM206.059 91.9404H201.387V96.0283H200.409V91.9404H195.775V91.1025H206.059V91.9404ZM212.521 92.7783H214.577V91.3691H215.504V95.876H211.581V91.3691H212.521V92.7783ZM214.577 95.0889V93.54H212.521V95.0889H214.577ZM218.729 92.2578C218.724 92.6641 218.8 93.0618 218.957 93.4512C219.118 93.8363 219.355 94.1833 219.668 94.4922C219.985 94.8011 220.366 95.0381 220.811 95.2031L220.29 95.9648C219.786 95.7617 219.359 95.474 219.008 95.1016C218.661 94.7292 218.398 94.2996 218.221 93.813C218.035 94.2912 217.768 94.7165 217.421 95.0889C217.074 95.4655 216.659 95.7575 216.177 95.9648L215.656 95.2031C216.096 95.0212 216.473 94.7736 216.786 94.4604C217.099 94.1473 217.336 93.8003 217.497 93.4194C217.658 93.0343 217.738 92.6471 217.738 92.2578V91.293H218.729V92.2578ZM213.384 85.25C213.883 85.25 214.338 85.3389 214.749 85.5166C215.159 85.6943 215.495 85.9482 215.758 86.2783C216.024 86.6042 216.194 86.9808 216.266 87.4082H218.627V84.7422H219.63V90.7217H218.627V88.2334H216.272C216.208 88.6735 216.043 89.0607 215.777 89.395C215.514 89.7293 215.176 89.9875 214.761 90.1694C214.347 90.3514 213.887 90.4424 213.384 90.4424C212.817 90.4424 212.311 90.3345 211.867 90.1187C211.422 89.8986 211.075 89.5918 210.826 89.1982C210.576 88.8005 210.451 88.3477 210.451 87.8398C210.451 87.3363 210.576 86.8877 210.826 86.4941C211.075 86.1006 211.422 85.7959 211.867 85.5801C212.311 85.36 212.817 85.25 213.384 85.25ZM213.384 86.0879C213.003 86.0879 212.662 86.1619 212.362 86.3101C212.061 86.4582 211.826 86.6655 211.657 86.9321C211.488 87.1987 211.403 87.5013 211.403 87.8398C211.403 88.1826 211.488 88.4894 211.657 88.7603C211.826 89.0269 212.061 89.2363 212.362 89.3887C212.662 89.541 213.003 89.6172 213.384 89.6172C213.76 89.6172 214.097 89.541 214.393 89.3887C214.689 89.2363 214.92 89.0269 215.085 88.7603C215.254 88.4894 215.339 88.1826 215.339 87.8398C215.339 87.5013 215.254 87.1987 215.085 86.9321C214.92 86.6655 214.689 86.4582 214.393 86.3101C214.097 86.1619 213.76 86.0879 213.384 86.0879ZM224.543 85.6182C225.051 85.6224 225.506 85.7642 225.908 86.0435C226.314 86.3228 226.642 86.7205 226.892 87.2368C227.141 87.7531 227.292 88.3604 227.342 89.0586H229.875V84.7422H230.865V96.0537H229.875V89.8838H227.355C227.317 90.6117 227.175 91.2464 226.93 91.7881C226.684 92.3298 226.354 92.7466 225.939 93.0386C225.529 93.3306 225.063 93.4766 224.543 93.4766C223.993 93.4766 223.502 93.3158 223.07 92.9941C222.643 92.6725 222.309 92.2155 222.067 91.623C221.83 91.0306 221.712 90.3408 221.712 89.5537C221.712 88.7666 221.83 88.0768 222.067 87.4844C222.309 86.8919 222.643 86.4349 223.07 86.1133C223.498 85.7874 223.989 85.6224 224.543 85.6182ZM224.543 86.5068C224.175 86.5111 223.847 86.6401 223.559 86.894C223.276 87.1437 223.056 87.4992 222.899 87.9604C222.742 88.4175 222.664 88.9486 222.664 89.5537C222.664 90.1589 222.742 90.6921 222.899 91.1533C223.056 91.6104 223.276 91.9637 223.559 92.2134C223.847 92.4631 224.175 92.5879 224.543 92.5879C224.907 92.5879 225.231 92.4631 225.514 92.2134C225.802 91.9637 226.024 91.6104 226.181 91.1533C226.341 90.6921 226.422 90.1589 226.422 89.5537C226.422 88.9486 226.341 88.4175 226.181 87.9604C226.024 87.4992 225.804 87.1437 225.521 86.894C225.237 86.6401 224.911 86.5111 224.543 86.5068ZM243.078 94.5811H232.744V93.7432H235.309V90.6963C234.818 90.4424 234.437 90.1165 234.166 89.7188C233.895 89.3167 233.76 88.8639 233.76 88.3604C233.76 87.7848 233.935 87.2791 234.287 86.8433C234.638 86.4032 235.125 86.0625 235.747 85.8213C236.373 85.5801 237.086 85.4574 237.886 85.4531C238.686 85.4574 239.396 85.5801 240.019 85.8213C240.645 86.0625 241.134 86.4032 241.485 86.8433C241.836 87.2791 242.012 87.7848 242.012 88.3604C242.012 88.8555 241.881 89.3019 241.618 89.6997C241.356 90.0933 240.988 90.417 240.514 90.6709V93.7432H243.078V94.5811ZM237.886 86.2783C237.272 86.2741 236.726 86.3587 236.248 86.5322C235.77 86.7057 235.395 86.9512 235.125 87.2686C234.858 87.5817 234.725 87.9456 234.725 88.3604C234.725 88.7751 234.858 89.1432 235.125 89.4648C235.395 89.7822 235.77 90.0298 236.248 90.2075C236.726 90.381 237.272 90.4678 237.886 90.4678C238.495 90.4678 239.039 90.3789 239.517 90.2012C239.995 90.0234 240.37 89.7759 240.641 89.4585C240.911 89.1411 241.047 88.7751 241.047 88.3604C241.047 87.9456 240.911 87.5817 240.641 87.2686C240.37 86.9512 239.995 86.7057 239.517 86.5322C239.039 86.3587 238.495 86.2741 237.886 86.2783ZM239.511 93.7432V91.0581C239.007 91.1893 238.465 91.2549 237.886 91.2549C237.302 91.2549 236.769 91.1914 236.286 91.0645V93.7432H239.511ZM245.173 95.0762C245.025 95.0762 244.887 95.0402 244.76 94.9683C244.638 94.8921 244.538 94.7905 244.462 94.6636C244.39 94.5366 244.356 94.3991 244.36 94.251C244.356 94.1071 244.39 93.9738 244.462 93.8511C244.538 93.7241 244.638 93.6247 244.76 93.5527C244.887 93.4766 245.025 93.4385 245.173 93.4385C245.317 93.4385 245.45 93.4766 245.573 93.5527C245.7 93.6247 245.799 93.7241 245.871 93.8511C245.947 93.9738 245.985 94.1071 245.985 94.251C245.985 94.3991 245.947 94.5366 245.871 94.6636C245.799 94.7905 245.7 94.8921 245.573 94.9683C245.45 95.0402 245.317 95.0762 245.173 95.0762Z" fill="#7A7873"/>
</g>
<g id="Frame 80">
<path id="Vector" d="M20 121H300" stroke="#373F3B" stroke-width="0.5"/>
<g id="Frame 125">
<path id="&#236;&#183;&#168;&#236;&#134;&#140;" d="M82.9727 135.25C82.9727 135.651 83.0957 136.032 83.3418 136.392C83.5924 136.747 83.9388 137.057 84.3809 137.321C84.8275 137.581 85.3379 137.775 85.9121 137.902L85.4746 138.764C84.7728 138.595 84.1621 138.331 83.6426 137.971C83.123 137.611 82.7288 137.185 82.46 136.692C82.2002 137.23 81.806 137.693 81.2773 138.08C80.7487 138.467 80.1243 138.75 79.4043 138.928L78.9395 138.066C79.5182 137.939 80.0309 137.736 80.4775 137.458C80.9287 137.18 81.2796 136.85 81.5303 136.467C81.7809 136.084 81.9062 135.678 81.9062 135.25V135.195H79.1992V134.348H81.9062V132.994H82.9727V134.348H85.6797V135.195H82.9727V135.25ZM88.4141 145.121H87.3613V132.967H88.4141V145.121ZM78.3652 139.789C79.9147 139.789 81.3525 139.766 82.6787 139.721C84.0094 139.671 85.2741 139.57 86.4727 139.42L86.541 140.199C85.4746 140.372 84.2943 140.498 83 140.575V144.752H81.9336V140.63C81.013 140.671 79.8737 140.691 78.5156 140.691L78.3652 139.789ZM101.621 143.521H90.4922V142.633H95.4688V139.652H96.5215V142.633H101.621V143.521ZM96.5488 134.717C96.5488 135.364 96.7721 135.986 97.2188 136.583C97.6699 137.18 98.2441 137.686 98.9414 138.101C99.6432 138.511 100.354 138.777 101.074 138.9L100.596 139.789C99.9668 139.661 99.3493 139.44 98.7432 139.126C98.137 138.812 97.5902 138.42 97.1025 137.95C96.6195 137.481 96.2503 136.964 95.9951 136.398C95.7399 136.964 95.3708 137.481 94.8877 137.95C94.4046 138.42 93.86 138.812 93.2539 139.126C92.6523 139.44 92.0371 139.661 91.4082 139.789L90.9297 138.9C91.6497 138.777 92.3561 138.511 93.0488 138.101C93.7461 137.686 94.3158 137.182 94.7578 136.59C95.2044 135.993 95.4277 135.368 95.4277 134.717V133.787H96.5488V134.717Z" fill="#7A7873"/>
<path id="Vector_2" d="M160 121V157" stroke="#373F3B" stroke-width="0.5"/>
<path id="&#236;&#130;&#173;&#236;&#160;&#156;" d="M222.48 134.908C222.476 135.451 222.601 135.975 222.856 136.48C223.112 136.982 223.469 137.426 223.93 137.813C224.395 138.196 224.923 138.49 225.516 138.695L224.955 139.543C224.271 139.297 223.67 138.93 223.15 138.442C222.635 137.95 222.243 137.381 221.975 136.733C221.719 137.444 221.327 138.066 220.799 138.6C220.27 139.128 219.646 139.525 218.926 139.789L218.365 138.928C218.971 138.709 219.505 138.397 219.965 137.991C220.425 137.581 220.783 137.105 221.038 136.562C221.293 136.02 221.423 135.446 221.428 134.84V133.582H222.48V134.908ZM227.895 136.18H229.727V137.096H227.895V140.322H226.828V132.953H227.895V136.18ZM227.895 145.107H226.828V141.799H219.938V140.924H227.895V145.107ZM240.883 145.107H239.857V132.953H240.883V145.107ZM238.422 144.479H237.41V138.217H235.359V137.342H237.41V133.254H238.422V144.479ZM234.061 136.426C234.061 137.132 234.163 137.823 234.368 138.497C234.573 139.167 234.874 139.773 235.271 140.315C235.667 140.853 236.139 141.279 236.686 141.594L236.029 142.387C235.441 142.036 234.938 141.55 234.519 140.931C234.099 140.306 233.78 139.6 233.562 138.812C233.338 139.664 233.008 140.427 232.57 141.102C232.137 141.776 231.622 142.3 231.025 142.674L230.342 141.867C230.893 141.539 231.372 141.09 231.777 140.521C232.183 139.951 232.491 139.313 232.7 138.606C232.914 137.896 233.021 137.169 233.021 136.426V135.277H230.684V134.389H236.289V135.277H234.061V136.426Z" fill="#C45650"/>
</g>
</g>
</g>
<defs>
<filter id="filter0_dd_133_4981" x="-12" y="0" width="344" height="197" filterUnits="userSpaceOnUse" color-interpolation-filters="sRGB">
<feFlood flood-opacity="0" result="BackgroundImageFix"/>
<feColorMatrix in="SourceAlpha" type="matrix" values="0 0 0 0 0 0 0 0 0 0 0 0 0 0 0 0 0 0 127 0" result="hardAlpha"/>
<feOffset dy="8"/>
<feGaussianBlur stdDeviation="16"/>
<feColorMatrix type="matrix" values="0 0 0 0 0 0 0 0 0 0 0 0 0 0 0 0 0 0 0.5 0"/>
<feBlend mode="normal" in2="BackgroundImageFix" result="effect1_dropShadow_133_4981"/>
<feColorMatrix in="SourceAlpha" type="matrix" values="0 0 0 0 0 0 0 0 0 0 0 0 0 0 0 0 0 0 127 0" result="hardAlpha"/>
<feOffset dy="2"/>
<feGaussianBlur stdDeviation="4"/>
<feColorMatrix type="matrix" values="0 0 0 0 0 0 0 0 0 0 0 0 0 0 0 0 0 0 0.25 0"/>
<feBlend mode="normal" in2="effect1_dropShadow_133_4981" result="effect2_dropShadow_133_4981"/>
<feBlend mode="normal" in="SourceGraphic" in2="effect2_dropShadow_133_4981" result="shape"/>
</filter>
</defs>
</svg>
