<svg width="320" height="193" viewBox="0 0 320 193" fill="none" xmlns="http://www.w3.org/2000/svg">
<g id="Property 1=Light" filter="url(#filter0_dd_133_4951)">
<path d="M20 36C20 27.1634 27.1634 20 36 20H284C292.837 20 300 27.1634 300 36V137C300 145.837 292.837 153 284 153H36C27.1634 153 20 145.837 20 137V36Z" fill="#FAFAF7"/>
<path d="M36 20.5H284C292.56 20.5 299.5 27.4396 299.5 36V137C299.5 145.56 292.56 152.5 284 152.5H36C27.4396 152.5 20.5 145.56 20.5 137V36C20.5 27.4396 27.4396 20.5 36 20.5Z" stroke="#E2DDD5"/>
<g id="Frame 81">
<path id="&#236;&#177;&#132;&#237;&#140;&#133;&#235;&#176;&#169;&#236;&#157;&#132; &#236;&#130;&#173;&#236;&#160;&#156;&#237;&#149;&#160;&#234;&#185;&#140;&#236;&#154;&#148;?" d="M96.5547 54.6406C96.5547 55.3854 96.6771 56.1172 96.9219 56.8359C97.1667 57.5547 97.5182 58.2057 97.9766 58.7891C98.4401 59.3672 98.9818 59.8229 99.6016 60.1562L98.8828 61.0781C98.2057 60.7083 97.6198 60.1875 97.125 59.5156C96.6302 58.8438 96.2526 58.0807 95.9922 57.2266C95.737 58.138 95.362 58.9557 94.8672 59.6797C94.3724 60.4036 93.7891 60.9635 93.1172 61.3594L92.3828 60.4531C92.9922 60.099 93.5234 59.6146 93.9766 59C94.4297 58.3802 94.7786 57.6927 95.0234 56.9375C95.2682 56.1771 95.3932 55.4115 95.3984 54.6406V54H92.7109V52.9844H95.3984V50.8906H96.5703V52.9844H99.2266V54H96.5547V54.6406ZM104.43 64.2656H103.242V57.0469H101.352V63.5625H100.18V50.6719H101.352V56H103.242V50.375H104.43V64.2656ZM113.789 52.4062H108.367V54.1562H113.398V55.1562H108.367V56.9844C109.945 56.9844 111.201 56.9609 112.133 56.9141C113.065 56.862 113.997 56.7604 114.93 56.6094L115.055 57.6094C114.081 57.7656 113.109 57.8698 112.141 57.9219C111.172 57.974 109.878 58 108.258 58H107.133V51.4062H113.789V52.4062ZM117.789 59H116.57V50.3906H117.789V59ZM113.18 59.2031C114.138 59.1979 114.969 59.2943 115.672 59.4922C116.375 59.6849 116.914 59.9714 117.289 60.3516C117.664 60.7266 117.852 61.1771 117.852 61.7031C117.852 62.2396 117.664 62.6953 117.289 63.0703C116.914 63.4505 116.375 63.7396 115.672 63.9375C114.974 64.1354 114.143 64.2344 113.18 64.2344C112.195 64.2344 111.352 64.1354 110.648 63.9375C109.945 63.7448 109.406 63.4583 109.031 63.0781C108.661 62.6979 108.477 62.2396 108.477 61.7031C108.477 61.1771 108.661 60.7266 109.031 60.3516C109.406 59.9714 109.945 59.6849 110.648 59.4922C111.357 59.2943 112.201 59.1979 113.18 59.2031ZM113.18 60.1719C112.456 60.1719 111.831 60.2344 111.305 60.3594C110.784 60.4792 110.385 60.6536 110.109 60.8828C109.833 61.112 109.695 61.3854 109.695 61.7031C109.695 62.0312 109.833 62.3125 110.109 62.5469C110.385 62.7812 110.784 62.9583 111.305 63.0781C111.831 63.2031 112.456 63.2656 113.18 63.2656C113.888 63.2656 114.503 63.2031 115.023 63.0781C115.544 62.9531 115.945 62.7734 116.227 62.5391C116.508 62.3047 116.648 62.026 116.648 61.7031C116.648 61.3906 116.508 61.1198 116.227 60.8906C115.945 60.6562 115.542 60.4792 115.016 60.3594C114.495 60.2344 113.883 60.1719 113.18 60.1719ZM126.555 59.1094C127.503 59.1094 128.32 59.2109 129.008 59.4141C129.695 59.612 130.221 59.9036 130.586 60.2891C130.951 60.6745 131.133 61.1354 131.133 61.6719C131.133 62.2135 130.951 62.6771 130.586 63.0625C130.221 63.4531 129.695 63.75 129.008 63.9531C128.326 64.1562 127.508 64.2604 126.555 64.2656C125.602 64.2604 124.779 64.1562 124.086 63.9531C123.398 63.75 122.87 63.4531 122.5 63.0625C122.13 62.6771 121.945 62.2135 121.945 61.6719C121.945 61.1354 122.13 60.6745 122.5 60.2891C122.87 59.9036 123.401 59.612 124.094 59.4141C124.786 59.2109 125.607 59.1094 126.555 59.1094ZM126.555 60.0781C125.857 60.0833 125.253 60.151 124.742 60.2812C124.237 60.4062 123.849 60.5885 123.578 60.8281C123.307 61.0625 123.174 61.3438 123.18 61.6719C123.174 62 123.307 62.2839 123.578 62.5234C123.849 62.763 124.24 62.9453 124.75 63.0703C125.26 63.2005 125.862 63.2656 126.555 63.2656C127.253 63.2656 127.857 63.2005 128.367 63.0703C128.878 62.9453 129.268 62.763 129.539 62.5234C129.81 62.2839 129.945 62 129.945 61.6719C129.945 61.3438 129.81 61.0625 129.539 60.8281C129.268 60.5885 128.878 60.4062 128.367 60.2812C127.862 60.151 127.258 60.0833 126.555 60.0781ZM131.008 53.875H133.102V54.9219H131.008V58.7344H129.789V50.375H131.008V53.875ZM121.945 53.375H125.992V51.25H127.211V57.6562H120.742V51.25H121.945V53.375ZM125.992 56.6562V54.3438H121.945V56.6562H125.992ZM140.305 50.625C141.336 50.625 142.219 50.7188 142.953 50.9062C143.688 51.0885 144.247 51.3594 144.633 51.7188C145.018 52.0729 145.211 52.5052 145.211 53.0156C145.211 53.7969 144.784 54.3958 143.93 54.8125C143.076 55.2292 141.867 55.4427 140.305 55.4531C139.273 55.4479 138.388 55.3516 137.648 55.1641C136.914 54.9766 136.352 54.7031 135.961 54.3438C135.576 53.9792 135.383 53.5365 135.383 53.0156C135.383 52.5052 135.576 52.0729 135.961 51.7188C136.352 51.3594 136.914 51.0885 137.648 50.9062C138.388 50.7188 139.273 50.625 140.305 50.625ZM140.305 51.5469C139.539 51.5469 138.883 51.6068 138.336 51.7266C137.789 51.8411 137.372 52.0104 137.086 52.2344C136.799 52.4531 136.659 52.7135 136.664 53.0156C136.659 53.4948 136.974 53.8646 137.609 54.125C138.245 54.3854 139.143 54.5156 140.305 54.5156C141.461 54.5156 142.359 54.3854 143 54.125C143.641 53.8646 143.961 53.4948 143.961 53.0156C143.961 52.7135 143.815 52.4531 143.523 52.2344C143.232 52.0156 142.812 51.8464 142.266 51.7266C141.719 51.6068 141.065 51.5469 140.305 51.5469ZM146.633 57.3906H133.977V56.3906H146.633V57.3906ZM145.008 61.7031H136.758V63.1406H145.43V64.1094H135.539V60.7969H143.805V59.5312H135.508V58.5938H145.008V61.7031ZM156.492 52.6094C156.487 53.2292 156.63 53.8281 156.922 54.4062C157.214 54.9792 157.622 55.487 158.148 55.9297C158.68 56.3672 159.284 56.7031 159.961 56.9375L159.32 57.9062C158.539 57.625 157.852 57.2057 157.258 56.6484C156.669 56.0859 156.221 55.4349 155.914 54.6953C155.622 55.5078 155.174 56.2188 154.57 56.8281C153.966 57.4323 153.253 57.8854 152.43 58.1875L151.789 57.2031C152.482 56.9531 153.091 56.5964 153.617 56.1328C154.143 55.6641 154.552 55.1198 154.844 54.5C155.135 53.8802 155.284 53.224 155.289 52.5312V51.0938H156.492V52.6094ZM162.68 54.0625H164.773V55.1094H162.68V58.7969H161.461V50.375H162.68V54.0625ZM162.68 64.2656H161.461V60.4844H153.586V59.4844H162.68V64.2656ZM177.523 64.2656H176.352V50.375H177.523V64.2656ZM174.711 63.5469H173.555V56.3906H171.211V55.3906H173.555V50.7188H174.711V63.5469ZM169.727 54.3438C169.727 55.151 169.844 55.9401 170.078 56.7109C170.312 57.4766 170.656 58.1693 171.109 58.7891C171.562 59.4036 172.102 59.8906 172.727 60.25L171.977 61.1562C171.305 60.7552 170.729 60.2005 170.25 59.4922C169.771 58.7786 169.406 57.9714 169.156 57.0703C168.901 58.0443 168.523 58.9167 168.023 59.6875C167.529 60.4583 166.94 61.0573 166.258 61.4844L165.477 60.5625C166.107 60.1875 166.654 59.6745 167.117 59.0234C167.581 58.3724 167.932 57.6432 168.172 56.8359C168.417 56.0234 168.539 55.1927 168.539 54.3438V53.0312H165.867V52.0156H172.273V53.0312H169.727V54.3438ZM190.336 53.7031H192.445V54.7188H190.336V58.0156H189.117V50.3281H190.336V53.7031ZM190.336 61.8125H182.711V63.1719H190.852V64.1094H181.508V60.9062H189.117V59.6562H181.477V58.7344H190.336V61.8125ZM187.789 52.625H179.508V51.6406H183.039V50.2344H184.258V51.6406H187.789V52.625ZM183.648 53.25C184.315 53.25 184.898 53.3438 185.398 53.5312C185.904 53.7135 186.294 53.9766 186.57 54.3203C186.846 54.6641 186.987 55.0677 186.992 55.5312C186.987 55.9948 186.846 56.3984 186.57 56.7422C186.294 57.0859 185.904 57.3516 185.398 57.5391C184.898 57.7214 184.315 57.8125 183.648 57.8125C182.977 57.8125 182.385 57.7214 181.875 57.5391C181.37 57.3516 180.979 57.0859 180.703 56.7422C180.432 56.3984 180.299 55.9948 180.305 55.5312C180.299 55.0677 180.432 54.6641 180.703 54.3203C180.979 53.9766 181.37 53.7135 181.875 53.5312C182.385 53.3438 182.977 53.25 183.648 53.25ZM183.648 54.1562C183.216 54.1562 182.833 54.2135 182.5 54.3281C182.172 54.4427 181.917 54.6042 181.734 54.8125C181.557 55.0208 181.471 55.2604 181.477 55.5312C181.471 55.8073 181.557 56.0495 181.734 56.2578C181.917 56.4609 182.172 56.6172 182.5 56.7266C182.828 56.8359 183.211 56.8906 183.648 56.8906C184.31 56.8906 184.839 56.7708 185.234 56.5312C185.63 56.2865 185.831 55.9531 185.836 55.5312C185.831 55.2552 185.737 55.0156 185.555 54.8125C185.372 54.6042 185.117 54.4427 184.789 54.3281C184.461 54.2135 184.081 54.1562 183.648 54.1562ZM204.305 56.1094H206.414V57.1406H204.305V64.2656H203.07V50.375H204.305V56.1094ZM197.523 51.8906C197.513 53.7031 197.258 55.3828 196.758 56.9297C196.263 58.4714 195.424 59.8698 194.242 61.125L193.258 60.4219C194.263 59.3958 195.01 58.2578 195.5 57.0078C195.99 55.7526 196.276 54.3906 196.359 52.9219H193.695V51.8906H197.523ZM201.336 51.8906C201.326 53.8698 201.102 55.7135 200.664 57.4219C200.227 59.125 199.419 60.6667 198.242 62.0469L197.242 61.3594C198.247 60.224 198.971 58.9427 199.414 57.5156C199.862 56.0885 200.117 54.5573 200.18 52.9219H197.961V51.8906H201.336ZM219.852 62.4844H207.133V61.4531H210.289V57.7031C209.685 57.3906 209.216 56.9896 208.883 56.5C208.549 56.0052 208.383 55.4479 208.383 54.8281C208.383 54.1198 208.599 53.4974 209.031 52.9609C209.464 52.4193 210.062 52 210.828 51.7031C211.599 51.4062 212.477 51.2552 213.461 51.25C214.445 51.2552 215.32 51.4062 216.086 51.7031C216.857 52 217.458 52.4193 217.891 52.9609C218.323 53.4974 218.539 54.1198 218.539 54.8281C218.539 55.4375 218.378 55.987 218.055 56.4766C217.732 56.9609 217.279 57.3594 216.695 57.6719V61.4531H219.852V62.4844ZM213.461 52.2656C212.706 52.2604 212.034 52.3646 211.445 52.5781C210.857 52.7917 210.396 53.0938 210.062 53.4844C209.734 53.8698 209.57 54.3177 209.57 54.8281C209.57 55.3385 209.734 55.7917 210.062 56.1875C210.396 56.5781 210.857 56.8828 211.445 57.1016C212.034 57.3151 212.706 57.4219 213.461 57.4219C214.211 57.4219 214.88 57.3125 215.469 57.0938C216.057 56.875 216.518 56.5703 216.852 56.1797C217.185 55.7891 217.352 55.3385 217.352 54.8281C217.352 54.3177 217.185 53.8698 216.852 53.4844C216.518 53.0938 216.057 52.7917 215.469 52.5781C214.88 52.3646 214.211 52.2604 213.461 52.2656ZM215.461 61.4531V58.1484C214.841 58.3099 214.174 58.3906 213.461 58.3906C212.742 58.3906 212.086 58.3125 211.492 58.1562V61.4531H215.461ZM223.18 59.7344C223.185 59.0625 223.253 58.5182 223.383 58.1016C223.518 57.6849 223.706 57.349 223.945 57.0938C224.185 56.8385 224.508 56.5885 224.914 56.3438C225.258 56.1354 225.534 55.8724 225.742 55.5547C225.951 55.2318 226.055 54.8646 226.055 54.4531C226.055 54.1094 225.971 53.8073 225.805 53.5469C225.643 53.2812 225.419 53.0781 225.133 52.9375C224.852 52.7917 224.539 52.7188 224.195 52.7188C223.883 52.7188 223.589 52.7839 223.312 52.9141C223.042 53.0391 222.815 53.2396 222.633 53.5156C222.456 53.7865 222.352 54.125 222.32 54.5312H220.898C220.924 53.9167 221.086 53.3828 221.383 52.9297C221.68 52.4766 222.073 52.1302 222.562 51.8906C223.052 51.651 223.596 51.5312 224.195 51.5312C224.836 51.5312 225.401 51.6615 225.891 51.9219C226.38 52.1771 226.758 52.5312 227.023 52.9844C227.294 53.4375 227.43 53.9479 227.43 54.5156C227.43 55.6667 226.914 56.5573 225.883 57.1875C225.549 57.3906 225.286 57.6016 225.094 57.8203C224.906 58.0391 224.766 58.2995 224.672 58.6016C224.583 58.9036 224.534 59.2812 224.523 59.7344V59.8125H223.18V59.7344ZM223.898 63.0938C223.716 63.0938 223.547 63.0495 223.391 62.9609C223.24 62.8672 223.117 62.7422 223.023 62.5859C222.935 62.4297 222.893 62.2604 222.898 62.0781C222.893 61.901 222.935 61.737 223.023 61.5859C223.117 61.4297 223.24 61.3073 223.391 61.2188C223.547 61.125 223.716 61.0781 223.898 61.0781C224.076 61.0781 224.24 61.125 224.391 61.2188C224.547 61.3073 224.669 61.4297 224.758 61.5859C224.852 61.737 224.898 61.901 224.898 62.0781C224.898 62.2604 224.852 62.4297 224.758 62.5859C224.669 62.7422 224.547 62.8672 224.391 62.9609C224.24 63.0495 224.076 63.0938 223.898 63.0938Z" fill="#1A1A1A"/>
<path id="&#236;&#130;&#173;&#236;&#160;&#156;&#235;&#144;&#156; &#236;&#177;&#132;&#237;&#140;&#133;&#235;&#176;&#169;&#236;&#157;&#128; &#235;&#179;&#181;&#234;&#181;&#172;&#237;&#149;&#160; &#236;&#136;&#152; &#236;&#151;&#134;&#236;&#150;&#180;&#236;&#154;&#148;." d="M77.4297 82.5576C77.4255 83.0612 77.5418 83.5479 77.7788 84.0176C78.0158 84.4831 78.348 84.8957 78.7754 85.2554C79.207 85.6108 79.6979 85.8838 80.248 86.0742L79.7275 86.8613C79.0928 86.6328 78.5342 86.2922 78.0518 85.8394C77.5736 85.3823 77.2096 84.8534 76.96 84.2524C76.723 84.9126 76.359 85.4902 75.8682 85.9854C75.3773 86.4762 74.7975 86.8444 74.1289 87.0898L73.6084 86.29C74.1712 86.0869 74.6663 85.797 75.0938 85.4204C75.5212 85.0396 75.8534 84.5973 76.0903 84.0938C76.3273 83.5902 76.4479 83.057 76.4521 82.4941V81.3262H77.4297V82.5576ZM82.457 83.7383H84.1582V84.5889H82.457V87.585H81.4668V80.7422H82.457V83.7383ZM82.457 92.0283H81.4668V88.9561H75.0684V88.1436H82.457V92.0283ZM94.5176 92.0283H93.5654V80.7422H94.5176V92.0283ZM92.2324 91.4443H91.293V85.6299H89.3887V84.8174H91.293V81.0215H92.2324V91.4443ZM88.1826 83.9668C88.1826 84.6227 88.2778 85.2638 88.4683 85.8901C88.6587 86.5122 88.938 87.075 89.3062 87.5786C89.6743 88.078 90.1123 88.4736 90.6201 88.7656L90.0107 89.502C89.4648 89.1761 88.9972 88.7254 88.6079 88.1499C88.2186 87.5701 87.9224 86.9142 87.7192 86.1821C87.5119 86.9735 87.2051 87.6823 86.7988 88.3086C86.3968 88.9349 85.9186 89.4215 85.3643 89.7686L84.7295 89.0195C85.2415 88.7148 85.6859 88.298 86.0625 87.769C86.4391 87.2401 86.7248 86.6476 86.9194 85.9917C87.1183 85.3315 87.2178 84.6566 87.2178 83.9668V82.9004H85.0469V82.0752H90.252V82.9004H88.1826V83.9668ZM102.668 85.2617H100.383V86.8423C101.517 86.7873 102.545 86.709 103.468 86.6074L103.544 87.3438C101.555 87.6146 99.1429 87.75 96.3076 87.75L96.1553 86.9375C97.4206 86.929 98.4997 86.91 99.3926 86.8804V85.2617H97.1836V81.4785H102.579V82.3037H98.1865V84.4492H102.668V85.2617ZM105.41 89.1973H104.407V80.7549H105.41V89.1973ZM105.778 91.7871H98.085V88.6133H99.0752V90.9492H105.778V91.7871ZM113.903 84.208C113.903 84.8132 114.003 85.4077 114.202 85.9917C114.401 86.5757 114.686 87.1047 115.059 87.5786C115.435 88.0483 115.875 88.4186 116.379 88.6895L115.795 89.4385C115.245 89.138 114.769 88.7148 114.367 88.1689C113.965 87.623 113.658 87.0031 113.446 86.3091C113.239 87.0496 112.934 87.714 112.532 88.3022C112.13 88.8905 111.656 89.3454 111.11 89.667L110.514 88.9307C111.009 88.6429 111.44 88.2493 111.809 87.75C112.177 87.2464 112.46 86.6878 112.659 86.0742C112.858 85.4564 112.96 84.8343 112.964 84.208V83.6875H110.78V82.8623H112.964V81.1611H113.916V82.8623H116.074V83.6875H113.903V84.208ZM120.302 92.0283H119.337V86.1631H117.801V91.457H116.849V80.9834H117.801V85.3125H119.337V80.7422H120.302V92.0283ZM127.906 82.3926H123.501V83.8145H127.589V84.627H123.501V86.1123C124.783 86.1123 125.803 86.0933 126.561 86.0552C127.318 86.0129 128.076 85.9303 128.833 85.8076L128.935 86.6201C128.143 86.7471 127.354 86.8317 126.567 86.874C125.78 86.9163 124.728 86.9375 123.412 86.9375H122.498V81.5801H127.906V82.3926ZM131.156 87.75H130.166V80.7549H131.156V87.75ZM127.411 87.915C128.19 87.9108 128.865 87.9891 129.436 88.1499C130.007 88.3065 130.445 88.5392 130.75 88.8481C131.055 89.1528 131.207 89.5189 131.207 89.9463C131.207 90.3822 131.055 90.7524 130.75 91.0571C130.445 91.366 130.007 91.6009 129.436 91.7617C128.869 91.9225 128.194 92.0029 127.411 92.0029C126.611 92.0029 125.926 91.9225 125.354 91.7617C124.783 91.6051 124.345 91.3724 124.041 91.0635C123.74 90.7546 123.59 90.3822 123.59 89.9463C123.59 89.5189 123.74 89.1528 124.041 88.8481C124.345 88.5392 124.783 88.3065 125.354 88.1499C125.93 87.9891 126.616 87.9108 127.411 87.915ZM127.411 88.7021C126.823 88.7021 126.315 88.7529 125.888 88.8545C125.465 88.9518 125.141 89.0936 124.917 89.2798C124.692 89.466 124.58 89.6882 124.58 89.9463C124.58 90.2129 124.692 90.4414 124.917 90.6318C125.141 90.8223 125.465 90.9661 125.888 91.0635C126.315 91.165 126.823 91.2158 127.411 91.2158C127.987 91.2158 128.486 91.165 128.909 91.0635C129.332 90.9619 129.658 90.8159 129.887 90.6255C130.115 90.4351 130.229 90.2087 130.229 89.9463C130.229 89.6924 130.115 89.4723 129.887 89.2861C129.658 89.0957 129.33 88.9518 128.903 88.8545C128.48 88.7529 127.982 88.7021 127.411 88.7021ZM138.278 87.8389C139.049 87.8389 139.713 87.9214 140.271 88.0864C140.83 88.2472 141.257 88.4842 141.554 88.7974C141.85 89.1105 141.998 89.485 141.998 89.9209C141.998 90.361 141.85 90.7376 141.554 91.0508C141.257 91.3682 140.83 91.6094 140.271 91.7744C139.717 91.9395 139.053 92.0241 138.278 92.0283C137.504 92.0241 136.835 91.9395 136.272 91.7744C135.714 91.6094 135.284 91.3682 134.984 91.0508C134.683 90.7376 134.533 90.361 134.533 89.9209C134.533 89.485 134.683 89.1105 134.984 88.7974C135.284 88.4842 135.716 88.2472 136.279 88.0864C136.842 87.9214 137.508 87.8389 138.278 87.8389ZM138.278 88.626C137.711 88.6302 137.22 88.6852 136.806 88.791C136.395 88.8926 136.08 89.0407 135.86 89.2354C135.64 89.4258 135.532 89.6543 135.536 89.9209C135.532 90.1875 135.64 90.4181 135.86 90.6128C136.08 90.8075 136.397 90.9556 136.812 91.0571C137.227 91.1629 137.715 91.2158 138.278 91.2158C138.845 91.2158 139.336 91.1629 139.751 91.0571C140.166 90.9556 140.483 90.8075 140.703 90.6128C140.923 90.4181 141.033 90.1875 141.033 89.9209C141.033 89.6543 140.923 89.4258 140.703 89.2354C140.483 89.0407 140.166 88.8926 139.751 88.791C139.34 88.6852 138.85 88.6302 138.278 88.626ZM141.896 83.5859H143.598V84.4365H141.896V87.5342H140.906V80.7422H141.896V83.5859ZM134.533 83.1797H137.821V81.4531H138.812V86.6582H133.556V81.4531H134.533V83.1797ZM137.821 85.8457V83.9668H134.533V85.8457H137.821ZM154.592 87.5088H144.309V86.6963H154.592V87.5088ZM153.449 91.7871H145.642V88.499H146.645V90.9492H153.449V91.7871ZM149.45 81.1484C150.254 81.1442 150.957 81.231 151.558 81.4087C152.159 81.5864 152.622 81.8446 152.948 82.1831C153.274 82.5174 153.437 82.9173 153.437 83.3828C153.437 83.8483 153.274 84.2503 152.948 84.5889C152.622 84.9232 152.159 85.1813 151.558 85.3633C150.957 85.541 150.254 85.6299 149.45 85.6299C148.638 85.6299 147.931 85.541 147.33 85.3633C146.729 85.1813 146.266 84.9232 145.94 84.5889C145.614 84.2503 145.451 83.8483 145.451 83.3828C145.451 82.9173 145.614 82.5174 145.94 82.1831C146.266 81.8446 146.729 81.5864 147.33 81.4087C147.931 81.231 148.638 81.1442 149.45 81.1484ZM149.45 81.9482C148.849 81.9482 148.325 82.0075 147.876 82.126C147.427 82.2402 147.08 82.4053 146.835 82.6211C146.594 82.8369 146.475 83.0908 146.479 83.3828C146.475 83.6748 146.594 83.9287 146.835 84.1445C147.08 84.3604 147.427 84.5275 147.876 84.646C148.325 84.7603 148.849 84.8174 149.45 84.8174C150.047 84.8174 150.569 84.7603 151.018 84.646C151.467 84.5275 151.812 84.3604 152.053 84.1445C152.298 83.9287 152.421 83.6748 152.421 83.3828C152.421 83.0908 152.298 82.8369 152.053 82.6211C151.812 82.4053 151.467 82.2402 151.018 82.126C150.569 82.0075 150.047 81.9482 149.45 81.9482ZM169.09 87.4072H158.807V86.582H163.453V85.2236H160.178V81.0088H161.168V82.3164H166.754V81.0088H167.744V85.2236H164.443V86.582H169.09V87.4072ZM167.82 92.0283H166.817V89.3242H159.949V88.5244H167.82V92.0283ZM166.754 84.4238V83.0781H161.168V84.4238H166.754ZM178.967 82.4688C178.967 83.1966 178.948 83.842 178.91 84.4048C178.876 84.9676 178.787 85.6087 178.643 86.3281H180.325V87.1533H175.666V92.0537H174.663V87.1533H170.042V86.3281H177.634C177.786 85.6087 177.881 84.9655 177.919 84.3984C177.958 83.8314 177.977 83.1882 177.977 82.4688V82.3037H171.337V81.4785H178.967V82.4688ZM190.101 83.4463H191.814V84.2715H190.101V86.9502H189.11V80.7041H190.101V83.4463ZM190.101 90.0352H183.905V91.1396H190.52V91.9014H182.928V89.2988H189.11V88.2832H182.902V87.5342H190.101V90.0352ZM188.031 82.5703H181.303V81.7705H184.172V80.6279H185.162V81.7705H188.031V82.5703ZM184.667 83.0781C185.209 83.0781 185.683 83.1543 186.089 83.3066C186.499 83.4548 186.817 83.6685 187.041 83.9478C187.265 84.2271 187.38 84.555 187.384 84.9316C187.38 85.3083 187.265 85.6362 187.041 85.9155C186.817 86.1948 186.499 86.4106 186.089 86.563C185.683 86.7111 185.209 86.7852 184.667 86.7852C184.121 86.7852 183.641 86.7111 183.226 86.563C182.816 86.4106 182.498 86.1948 182.274 85.9155C182.054 85.6362 181.946 85.3083 181.95 84.9316C181.946 84.555 182.054 84.2271 182.274 83.9478C182.498 83.6685 182.816 83.4548 183.226 83.3066C183.641 83.1543 184.121 83.0781 184.667 83.0781ZM184.667 83.8145C184.316 83.8145 184.005 83.861 183.734 83.9541C183.467 84.0472 183.26 84.1784 183.112 84.3477C182.968 84.5169 182.898 84.7116 182.902 84.9316C182.898 85.1559 182.968 85.3527 183.112 85.522C183.26 85.687 183.467 85.814 183.734 85.9028C184 85.9917 184.312 86.0361 184.667 86.0361C185.204 86.0361 185.634 85.9388 185.956 85.7441C186.277 85.5452 186.44 85.2744 186.444 84.9316C186.44 84.7074 186.364 84.5127 186.216 84.3477C186.068 84.1784 185.86 84.0472 185.594 83.9541C185.327 83.861 185.018 83.8145 184.667 83.8145ZM201.438 81.7959C201.438 82.3037 201.634 82.7904 202.028 83.2559C202.426 83.7214 202.942 84.1128 203.577 84.4302C204.211 84.7476 204.869 84.9528 205.551 85.0459L205.145 85.8584C204.552 85.7611 203.979 85.5918 203.424 85.3506C202.87 85.1051 202.375 84.8005 201.939 84.4365C201.503 84.0684 201.167 83.66 200.93 83.2114C200.697 83.66 200.361 84.0684 199.92 84.4365C199.485 84.8005 198.989 85.1051 198.435 85.3506C197.881 85.5918 197.307 85.7611 196.715 85.8584L196.309 85.0459C196.994 84.9528 197.652 84.7497 198.283 84.4365C198.913 84.1191 199.425 83.7298 199.819 83.2686C200.212 82.8031 200.409 82.3122 200.409 81.7959V81.1484H201.438V81.7959ZM206.059 87.9404H201.387V92.0283H200.409V87.9404H195.775V87.1025H206.059V87.9404ZM212.521 88.7783H214.577V87.3691H215.504V91.876H211.581V87.3691H212.521V88.7783ZM214.577 91.0889V89.54H212.521V91.0889H214.577ZM218.729 88.2578C218.724 88.6641 218.8 89.0618 218.957 89.4512C219.118 89.8363 219.355 90.1833 219.668 90.4922C219.985 90.8011 220.366 91.0381 220.811 91.2031L220.29 91.9648C219.786 91.7617 219.359 91.474 219.008 91.1016C218.661 90.7292 218.398 90.2996 218.221 89.813C218.035 90.2912 217.768 90.7165 217.421 91.0889C217.074 91.4655 216.659 91.7575 216.177 91.9648L215.656 91.2031C216.096 91.0212 216.473 90.7736 216.786 90.4604C217.099 90.1473 217.336 89.8003 217.497 89.4194C217.658 89.0343 217.738 88.6471 217.738 88.2578V87.293H218.729V88.2578ZM213.384 81.25C213.883 81.25 214.338 81.3389 214.749 81.5166C215.159 81.6943 215.495 81.9482 215.758 82.2783C216.024 82.6042 216.194 82.9808 216.266 83.4082H218.627V80.7422H219.63V86.7217H218.627V84.2334H216.272C216.208 84.6735 216.043 85.0607 215.777 85.395C215.514 85.7293 215.176 85.9875 214.761 86.1694C214.347 86.3514 213.887 86.4424 213.384 86.4424C212.817 86.4424 212.311 86.3345 211.867 86.1187C211.422 85.8986 211.075 85.5918 210.826 85.1982C210.576 84.8005 210.451 84.3477 210.451 83.8398C210.451 83.3363 210.576 82.8877 210.826 82.4941C211.075 82.1006 211.422 81.7959 211.867 81.5801C212.311 81.36 212.817 81.25 213.384 81.25ZM213.384 82.0879C213.003 82.0879 212.662 82.1619 212.362 82.3101C212.061 82.4582 211.826 82.6655 211.657 82.9321C211.488 83.1987 211.403 83.5013 211.403 83.8398C211.403 84.1826 211.488 84.4894 211.657 84.7603C211.826 85.0269 212.061 85.2363 212.362 85.3887C212.662 85.541 213.003 85.6172 213.384 85.6172C213.76 85.6172 214.097 85.541 214.393 85.3887C214.689 85.2363 214.92 85.0269 215.085 84.7603C215.254 84.4894 215.339 84.1826 215.339 83.8398C215.339 83.5013 215.254 83.1987 215.085 82.9321C214.92 82.6655 214.689 82.4582 214.393 82.3101C214.097 82.1619 213.76 82.0879 213.384 82.0879ZM224.543 81.6182C225.051 81.6224 225.506 81.7642 225.908 82.0435C226.314 82.3228 226.642 82.7205 226.892 83.2368C227.141 83.7531 227.292 84.3604 227.342 85.0586H229.875V80.7422H230.865V92.0537H229.875V85.8838H227.355C227.317 86.6117 227.175 87.2464 226.93 87.7881C226.684 88.3298 226.354 88.7466 225.939 89.0386C225.529 89.3306 225.063 89.4766 224.543 89.4766C223.993 89.4766 223.502 89.3158 223.07 88.9941C222.643 88.6725 222.309 88.2155 222.067 87.623C221.83 87.0306 221.712 86.3408 221.712 85.5537C221.712 84.7666 221.83 84.0768 222.067 83.4844C222.309 82.8919 222.643 82.4349 223.07 82.1133C223.498 81.7874 223.989 81.6224 224.543 81.6182ZM224.543 82.5068C224.175 82.5111 223.847 82.6401 223.559 82.894C223.276 83.1437 223.056 83.4992 222.899 83.9604C222.742 84.4175 222.664 84.9486 222.664 85.5537C222.664 86.1589 222.742 86.6921 222.899 87.1533C223.056 87.6104 223.276 87.9637 223.559 88.2134C223.847 88.4631 224.175 88.5879 224.543 88.5879C224.907 88.5879 225.231 88.4631 225.514 88.2134C225.802 87.9637 226.024 87.6104 226.181 87.1533C226.341 86.6921 226.422 86.1589 226.422 85.5537C226.422 84.9486 226.341 84.4175 226.181 83.9604C226.024 83.4992 225.804 83.1437 225.521 82.894C225.237 82.6401 224.911 82.5111 224.543 82.5068ZM243.078 90.5811H232.744V89.7432H235.309V86.6963C234.818 86.4424 234.437 86.1165 234.166 85.7188C233.895 85.3167 233.76 84.8639 233.76 84.3604C233.76 83.7848 233.935 83.2791 234.287 82.8433C234.638 82.4032 235.125 82.0625 235.747 81.8213C236.373 81.5801 237.086 81.4574 237.886 81.4531C238.686 81.4574 239.396 81.5801 240.019 81.8213C240.645 82.0625 241.134 82.4032 241.485 82.8433C241.836 83.2791 242.012 83.7848 242.012 84.3604C242.012 84.8555 241.881 85.3019 241.618 85.6997C241.356 86.0933 240.988 86.417 240.514 86.6709V89.7432H243.078V90.5811ZM237.886 82.2783C237.272 82.2741 236.726 82.3587 236.248 82.5322C235.77 82.7057 235.395 82.9512 235.125 83.2686C234.858 83.5817 234.725 83.9456 234.725 84.3604C234.725 84.7751 234.858 85.1432 235.125 85.4648C235.395 85.7822 235.77 86.0298 236.248 86.2075C236.726 86.381 237.272 86.4678 237.886 86.4678C238.495 86.4678 239.039 86.3789 239.517 86.2012C239.995 86.0234 240.37 85.7759 240.641 85.4585C240.911 85.1411 241.047 84.7751 241.047 84.3604C241.047 83.9456 240.911 83.5817 240.641 83.2686C240.37 82.9512 239.995 82.7057 239.517 82.5322C239.039 82.3587 238.495 82.2741 237.886 82.2783ZM239.511 89.7432V87.0581C239.007 87.1893 238.465 87.2549 237.886 87.2549C237.302 87.2549 236.769 87.1914 236.286 87.0645V89.7432H239.511ZM245.173 91.0762C245.025 91.0762 244.887 91.0402 244.76 90.9683C244.638 90.8921 244.538 90.7905 244.462 90.6636C244.39 90.5366 244.356 90.3991 244.36 90.251C244.356 90.1071 244.39 89.9738 244.462 89.8511C244.538 89.7241 244.638 89.6247 244.76 89.5527C244.887 89.4766 245.025 89.4385 245.173 89.4385C245.317 89.4385 245.45 89.4766 245.573 89.5527C245.7 89.6247 245.799 89.7241 245.871 89.8511C245.947 89.9738 245.985 90.1071 245.985 90.251C245.985 90.3991 245.947 90.5366 245.871 90.6636C245.799 90.7905 245.7 90.8921 245.573 90.9683C245.45 91.0402 245.317 91.0762 245.173 91.0762Z" fill="#888882"/>
</g>
<g id="Frame 80">
<path id="Vector" d="M20 117H300" stroke="#E2DDD5" stroke-width="0.5"/>
<g id="Frame 126">
<path id="&#236;&#183;&#168;&#236;&#134;&#140;" d="M82.9727 131.25C82.9727 131.651 83.0957 132.032 83.3418 132.392C83.5924 132.747 83.9388 133.057 84.3809 133.321C84.8275 133.581 85.3379 133.775 85.9121 133.902L85.4746 134.764C84.7728 134.595 84.1621 134.331 83.6426 133.971C83.123 133.611 82.7288 133.185 82.46 132.692C82.2002 133.23 81.806 133.693 81.2773 134.08C80.7487 134.467 80.1243 134.75 79.4043 134.928L78.9395 134.066C79.5182 133.939 80.0309 133.736 80.4775 133.458C80.9287 133.18 81.2796 132.85 81.5303 132.467C81.7809 132.084 81.9062 131.678 81.9062 131.25V131.195H79.1992V130.348H81.9062V128.994H82.9727V130.348H85.6797V131.195H82.9727V131.25ZM88.4141 141.121H87.3613V128.967H88.4141V141.121ZM78.3652 135.789C79.9147 135.789 81.3525 135.766 82.6787 135.721C84.0094 135.671 85.2741 135.57 86.4727 135.42L86.541 136.199C85.4746 136.372 84.2943 136.498 83 136.575V140.752H81.9336V136.63C81.013 136.671 79.8737 136.691 78.5156 136.691L78.3652 135.789ZM101.621 139.521H90.4922V138.633H95.4688V135.652H96.5215V138.633H101.621V139.521ZM96.5488 130.717C96.5488 131.364 96.7721 131.986 97.2188 132.583C97.6699 133.18 98.2441 133.686 98.9414 134.101C99.6432 134.511 100.354 134.777 101.074 134.9L100.596 135.789C99.9668 135.661 99.3493 135.44 98.7432 135.126C98.137 134.812 97.5902 134.42 97.1025 133.95C96.6195 133.481 96.2503 132.964 95.9951 132.398C95.7399 132.964 95.3708 133.481 94.8877 133.95C94.4046 134.42 93.86 134.812 93.2539 135.126C92.6523 135.44 92.0371 135.661 91.4082 135.789L90.9297 134.9C91.6497 134.777 92.3561 134.511 93.0488 134.101C93.7461 133.686 94.3158 133.182 94.7578 132.59C95.2044 131.993 95.4277 131.368 95.4277 130.717V129.787H96.5488V130.717Z" fill="#888882"/>
<path id="Vector_2" d="M160 117V153" stroke="#E2DDD5" stroke-width="0.5"/>
<path id="&#236;&#130;&#173;&#236;&#160;&#156;" d="M222.48 130.908C222.476 131.451 222.601 131.975 222.856 132.48C223.112 132.982 223.469 133.426 223.93 133.813C224.395 134.196 224.923 134.49 225.516 134.695L224.955 135.543C224.271 135.297 223.67 134.93 223.15 134.442C222.635 133.95 222.243 133.381 221.975 132.733C221.719 133.444 221.327 134.066 220.799 134.6C220.27 135.128 219.646 135.525 218.926 135.789L218.365 134.928C218.971 134.709 219.505 134.397 219.965 133.991C220.425 133.581 220.783 133.105 221.038 132.562C221.293 132.02 221.423 131.446 221.428 130.84V129.582H222.48V130.908ZM227.895 132.18H229.727V133.096H227.895V136.322H226.828V128.953H227.895V132.18ZM227.895 141.107H226.828V137.799H219.938V136.924H227.895V141.107ZM240.883 141.107H239.857V128.953H240.883V141.107ZM238.422 140.479H237.41V134.217H235.359V133.342H237.41V129.254H238.422V140.479ZM234.061 132.426C234.061 133.132 234.163 133.823 234.368 134.497C234.573 135.167 234.874 135.773 235.271 136.315C235.667 136.853 236.139 137.279 236.686 137.594L236.029 138.387C235.441 138.036 234.938 137.55 234.519 136.931C234.099 136.306 233.78 135.6 233.562 134.812C233.338 135.664 233.008 136.427 232.57 137.102C232.137 137.776 231.622 138.3 231.025 138.674L230.342 137.867C230.893 137.539 231.372 137.09 231.777 136.521C232.183 135.951 232.491 135.313 232.7 134.606C232.914 133.896 233.021 133.169 233.021 132.426V131.277H230.684V130.389H236.289V131.277H234.061V132.426Z" fill="#E8635A"/>
</g>
</g>
</g>
<defs>
<filter id="filter0_dd_133_4951" x="-12" y="-4" width="344" height="197" filterUnits="userSpaceOnUse" color-interpolation-filters="sRGB">
<feFlood flood-opacity="0" result="BackgroundImageFix"/>
<feColorMatrix in="SourceAlpha" type="matrix" values="0 0 0 0 0 0 0 0 0 0 0 0 0 0 0 0 0 0 127 0" result="hardAlpha"/>
<feOffset dy="8"/>
<feGaussianBlur stdDeviation="16"/>
<feColorMatrix type="matrix" values="0 0 0 0 0.118 0 0 0 0 0.157 0 0 0 0 0.133 0 0 0 0.16 0"/>
<feBlend mode="normal" in2="BackgroundImageFix" result="effect1_dropShadow_133_4951"/>
<feColorMatrix in="SourceAlpha" type="matrix" values="0 0 0 0 0 0 0 0 0 0 0 0 0 0 0 0 0 0 127 0" result="hardAlpha"/>
<feOffset dy="2"/>
<feGaussianBlur stdDeviation="4"/>
<feColorMatrix type="matrix" values="0 0 0 0 0.118 0 0 0 0 0.157 0 0 0 0 0.133 0 0 0 0.08 0"/>
<feBlend mode="normal" in2="effect1_dropShadow_133_4951" result="effect2_dropShadow_133_4951"/>
<feBlend mode="normal" in="SourceGraphic" in2="effect2_dropShadow_133_4951" result="shape"/>
</filter>
</defs>
</svg>
