<svg width="320" height="179" viewBox="0 0 320 179" fill="none" xmlns="http://www.w3.org/2000/svg">
<g filter="url(#filter0_dd_219_5831)">
<path d="M20 40C20 31.1634 27.1634 24 36 24H284C292.837 24 300 31.1634 300 40V141C300 149.837 292.837 157 284 157H36C27.1634 157 20 149.837 20 141V40Z" fill="#262B28"/>
<path d="M36 24.5H284C292.56 24.5 299.5 31.4396 299.5 40V141C299.5 149.56 292.56 156.5 284 156.5H36C27.4396 156.5 20.5 149.56 20.5 141V40C20.5 31.4396 27.4396 24.5 36 24.5Z" stroke="#373F3B"/>
<path d="M104.008 62.6562H102.773V59.0156H99.9766V58H102.773V54.375H104.008V62.6562ZM99.3984 63.0938C100.362 63.0938 101.193 63.1953 101.891 63.3984C102.589 63.6016 103.122 63.8958 103.492 64.2812C103.867 64.6667 104.055 65.1302 104.055 65.6719C104.055 66.2135 103.867 66.6771 103.492 67.0625C103.122 67.4531 102.589 67.75 101.891 67.9531C101.193 68.1562 100.362 68.2604 99.3984 68.2656C98.4349 68.2604 97.6042 68.1562 96.9062 67.9531C96.2083 67.75 95.6719 67.4531 95.2969 67.0625C94.9271 66.6771 94.7422 66.2135 94.7422 65.6719C94.7422 65.1302 94.9271 64.6667 95.2969 64.2812C95.6719 63.8958 96.2083 63.6016 96.9062 63.3984C97.6042 63.1953 98.4349 63.0938 99.3984 63.0938ZM99.3984 64.0469C98.6953 64.0469 98.0833 64.112 97.5625 64.2422C97.0417 64.3724 96.6432 64.5599 96.3672 64.8047C96.0911 65.0495 95.9557 65.3385 95.9609 65.6719C95.9557 66 96.0911 66.2865 96.3672 66.5312C96.6432 66.7708 97.0417 66.9557 97.5625 67.0859C98.0833 67.2161 98.6953 67.2812 99.3984 67.2812C100.102 67.2812 100.711 67.2161 101.227 67.0859C101.747 66.9557 102.146 66.7708 102.422 66.5312C102.698 66.2865 102.836 66 102.836 65.6719C102.836 65.3385 102.698 65.0495 102.422 64.8047C102.146 64.5599 101.747 64.3724 101.227 64.2422C100.711 64.112 100.102 64.0469 99.3984 64.0469ZM97.3203 56.9219C97.3203 57.5208 97.4635 58.1016 97.75 58.6641C98.0365 59.2214 98.4375 59.7188 98.9531 60.1562C99.474 60.5885 100.07 60.9219 100.742 61.1562L100.102 62.1406C99.3255 61.8594 98.6432 61.4427 98.0547 60.8906C97.4714 60.3385 97.0312 59.7005 96.7344 58.9766C96.4323 59.7891 95.9714 60.5078 95.3516 61.1328C94.737 61.7526 94.0182 62.2188 93.1953 62.5312L92.5547 61.5469C93.237 61.2969 93.8464 60.9375 94.3828 60.4688C94.9193 59.9948 95.3359 59.4505 95.6328 58.8359C95.9349 58.2214 96.0859 57.5885 96.0859 56.9375V56.4219H92.9453V55.3906H100.43V56.4219H97.3203V56.9219ZM117.18 57.3906H119.273V58.4219H117.18V61.4531H115.961V54.375H117.18V57.3906ZM113.336 60.7188H106.914V55.1719H113.336V60.7188ZM108.117 59.7344H112.148V56.1719H108.117V59.7344ZM117.18 65.5H109.555V67.0938H117.695V68.0781H108.352V64.5625H115.961V63.0938H108.32V62.1094H117.18V65.5ZM131.211 56.0781H126.039V57.5781H130.945V58.5312H126.039V60.1406C127.503 60.1406 128.667 60.1172 129.531 60.0703C130.401 60.0234 131.279 59.9271 132.164 59.7812L132.289 60.7656C131.372 60.9219 130.464 61.0234 129.562 61.0703C128.667 61.1172 127.435 61.1406 125.867 61.1406H124.82V55.0781H131.211V56.0781ZM135.023 57.4219H137.117V58.4375H135.023V61.6406H133.805V54.375H135.023V57.4219ZM135.023 65.5781H127.398V67.125H135.539V68.1094H126.195V64.6406H133.805V63.2969H126.164V62.3125H135.023V65.5781ZM146.414 62.0781H143.273V64.3359C144.805 64.2578 146.128 64.1354 147.242 63.9688L147.336 64.875C146.393 65.0469 145.411 65.1771 144.391 65.2656C143.375 65.349 142.435 65.4036 141.57 65.4297C140.706 65.4505 139.685 65.4635 138.508 65.4688H138.242L138.07 64.4375H138.648C139.18 64.4323 139.755 64.4271 140.375 64.4219C141 64.4115 141.56 64.3984 142.055 64.3828V62.0781H139.133V55.6406H146.352V56.6406H140.367V58.3438H146.055V59.3125H140.367V61.0781H146.414V62.0781ZM149.383 68.2969H148.164V54.375H149.383V68.2969ZM162.57 60.1094H164.898V61.125H162.57V68.2656H161.352V54.375H162.57V60.1094ZM160.008 57.625H151.742V56.6094H155.32V54.5469H156.539V56.6094H160.008V57.625ZM155.945 58.7812C156.596 58.7812 157.18 58.9167 157.695 59.1875C158.211 59.4583 158.615 59.8359 158.906 60.3203C159.198 60.8047 159.346 61.3542 159.352 61.9688C159.346 62.5833 159.198 63.1328 158.906 63.6172C158.615 64.1016 158.211 64.4792 157.695 64.75C157.18 65.0208 156.596 65.1562 155.945 65.1562C155.289 65.1562 154.701 65.0208 154.18 64.75C153.664 64.4792 153.26 64.1016 152.969 63.6172C152.677 63.1328 152.534 62.5833 152.539 61.9688C152.534 61.3542 152.677 60.8047 152.969 60.3203C153.26 59.8359 153.664 59.4583 154.18 59.1875C154.701 58.9167 155.289 58.7812 155.945 58.7812ZM155.945 59.8125C155.518 59.8125 155.133 59.9062 154.789 60.0938C154.451 60.276 154.185 60.5312 153.992 60.8594C153.799 61.1875 153.706 61.5573 153.711 61.9688C153.706 62.3854 153.799 62.7578 153.992 63.0859C154.185 63.4089 154.451 63.6615 154.789 63.8438C155.133 64.026 155.518 64.1146 155.945 64.1094C156.367 64.1146 156.747 64.026 157.086 63.8438C157.424 63.6615 157.69 63.4089 157.883 63.0859C158.076 62.7578 158.174 62.3854 158.18 61.9688C158.174 61.5573 158.076 61.1875 157.883 60.8594C157.69 60.5312 157.424 60.276 157.086 60.0938C156.747 59.9062 156.367 59.8125 155.945 59.8125ZM170.586 58.1094C170.581 58.9323 170.747 59.75 171.086 60.5625C171.424 61.3698 171.883 62.0885 172.461 62.7188C173.039 63.349 173.669 63.8177 174.352 64.125L173.602 65.0938C172.81 64.7031 172.091 64.1224 171.445 63.3516C170.805 62.5755 170.32 61.6953 169.992 60.7109C169.669 61.7578 169.185 62.6953 168.539 63.5234C167.893 64.3464 167.164 64.9635 166.352 65.375L165.57 64.3438C166.253 64.026 166.883 63.5443 167.461 62.8984C168.039 62.2474 168.5 61.5026 168.844 60.6641C169.188 59.8203 169.362 58.9688 169.367 58.1094V55.5781H170.586V58.1094ZM177.102 68.2969H175.867V54.375H177.102V68.2969ZM185.633 55.4062C185.633 56.4688 185.44 57.4479 185.055 58.3438H187.305V54.6875H188.477V62.2031H187.305V59.3594H184.508C183.612 60.75 182.195 61.8594 180.258 62.6875L179.617 61.7812C181.044 61.1979 182.161 60.4531 182.969 59.5469C183.776 58.6406 184.242 57.599 184.367 56.4219H180.211V55.4062H185.633ZM191.273 62.4219H190.102V54.3906H191.273V62.4219ZM184.32 63.8281C184.31 64.474 184.474 65.0938 184.812 65.6875C185.156 66.2812 185.648 66.763 186.289 67.1328C186.716 66.8672 187.078 66.5469 187.375 66.1719C187.677 65.7917 187.906 65.3984 188.062 64.9922C188.219 64.5807 188.299 64.1927 188.305 63.8281V62.8906H189.492V63.8281C189.492 64.3073 189.607 64.7786 189.836 65.2422C190.065 65.7005 190.393 66.112 190.82 66.4766C191.253 66.8411 191.758 67.1198 192.336 67.3125L191.727 68.2188C191.044 67.9792 190.461 67.6276 189.977 67.1641C189.492 66.7057 189.125 66.1745 188.875 65.5703C188.651 66.1745 188.323 66.7214 187.891 67.2109C187.458 67.7005 186.935 68.0781 186.32 68.3438C185.669 68.0833 185.125 67.7135 184.688 67.2344C184.25 66.7604 183.924 66.2161 183.711 65.6016C183.456 66.1849 183.089 66.7057 182.609 67.1641C182.13 67.6224 181.57 67.974 180.93 68.2188L180.305 67.3125C180.872 67.1042 181.37 66.8125 181.797 66.4375C182.229 66.0625 182.562 65.6458 182.797 65.1875C183.031 64.7292 183.148 64.276 183.148 63.8281V62.8906H184.32V63.8281ZM197.039 55.4531C197.664 55.4583 198.224 55.6328 198.719 55.9766C199.219 56.3203 199.622 56.8099 199.93 57.4453C200.237 58.0807 200.422 58.8281 200.484 59.6875H203.602V54.375H204.82V68.2969H203.602V60.7031H200.5C200.453 61.599 200.279 62.3802 199.977 63.0469C199.674 63.7135 199.268 64.2266 198.758 64.5859C198.253 64.9453 197.68 65.125 197.039 65.125C196.362 65.125 195.758 64.9271 195.227 64.5312C194.701 64.1354 194.289 63.5729 193.992 62.8438C193.701 62.1146 193.555 61.2656 193.555 60.2969C193.555 59.3281 193.701 58.4792 193.992 57.75C194.289 57.0208 194.701 56.4583 195.227 56.0625C195.753 55.6615 196.357 55.4583 197.039 55.4531ZM197.039 56.5469C196.586 56.5521 196.182 56.7109 195.828 57.0234C195.479 57.3307 195.208 57.7682 195.016 58.3359C194.823 58.8984 194.727 59.5521 194.727 60.2969C194.727 61.0417 194.823 61.6979 195.016 62.2656C195.208 62.8281 195.479 63.263 195.828 63.5703C196.182 63.8776 196.586 64.0312 197.039 64.0312C197.487 64.0312 197.885 63.8776 198.234 63.5703C198.589 63.263 198.862 62.8281 199.055 62.2656C199.253 61.6979 199.352 61.0417 199.352 60.2969C199.352 59.5521 199.253 58.8984 199.055 58.3359C198.862 57.7682 198.591 57.3307 198.242 57.0234C197.893 56.7109 197.492 56.5521 197.039 56.5469ZM219.852 66.4844H207.133V65.4531H210.289V61.7031C209.685 61.3906 209.216 60.9896 208.883 60.5C208.549 60.0052 208.383 59.4479 208.383 58.8281C208.383 58.1198 208.599 57.4974 209.031 56.9609C209.464 56.4193 210.062 56 210.828 55.7031C211.599 55.4062 212.477 55.2552 213.461 55.25C214.445 55.2552 215.32 55.4062 216.086 55.7031C216.857 56 217.458 56.4193 217.891 56.9609C218.323 57.4974 218.539 58.1198 218.539 58.8281C218.539 59.4375 218.378 59.987 218.055 60.4766C217.732 60.9609 217.279 61.3594 216.695 61.6719V65.4531H219.852V66.4844ZM213.461 56.2656C212.706 56.2604 212.034 56.3646 211.445 56.5781C210.857 56.7917 210.396 57.0938 210.062 57.4844C209.734 57.8698 209.57 58.3177 209.57 58.8281C209.57 59.3385 209.734 59.7917 210.062 60.1875C210.396 60.5781 210.857 60.8828 211.445 61.1016C212.034 61.3151 212.706 61.4219 213.461 61.4219C214.211 61.4219 214.88 61.3125 215.469 61.0938C216.057 60.875 216.518 60.5703 216.852 60.1797C217.185 59.7891 217.352 59.3385 217.352 58.8281C217.352 58.3177 217.185 57.8698 216.852 57.4844C216.518 57.0938 216.057 56.7917 215.469 56.5781C214.88 56.3646 214.211 56.2604 213.461 56.2656ZM215.461 65.4531V62.1484C214.841 62.3099 214.174 62.3906 213.461 62.3906C212.742 62.3906 212.086 62.3125 211.492 62.1562V65.4531H215.461ZM223.18 63.7344C223.185 63.0625 223.253 62.5182 223.383 62.1016C223.518 61.6849 223.706 61.349 223.945 61.0938C224.185 60.8385 224.508 60.5885 224.914 60.3438C225.258 60.1354 225.534 59.8724 225.742 59.5547C225.951 59.2318 226.055 58.8646 226.055 58.4531C226.055 58.1094 225.971 57.8073 225.805 57.5469C225.643 57.2812 225.419 57.0781 225.133 56.9375C224.852 56.7917 224.539 56.7188 224.195 56.7188C223.883 56.7188 223.589 56.7839 223.312 56.9141C223.042 57.0391 222.815 57.2396 222.633 57.5156C222.456 57.7865 222.352 58.125 222.32 58.5312H220.898C220.924 57.9167 221.086 57.3828 221.383 56.9297C221.68 56.4766 222.073 56.1302 222.562 55.8906C223.052 55.651 223.596 55.5312 224.195 55.5312C224.836 55.5312 225.401 55.6615 225.891 55.9219C226.38 56.1771 226.758 56.5312 227.023 56.9844C227.294 57.4375 227.43 57.9479 227.43 58.5156C227.43 59.6667 226.914 60.5573 225.883 61.1875C225.549 61.3906 225.286 61.6016 225.094 61.8203C224.906 62.0391 224.766 62.2995 224.672 62.6016C224.583 62.9036 224.534 63.2812 224.523 63.7344V63.8125H223.18V63.7344ZM223.898 67.0938C223.716 67.0938 223.547 67.0495 223.391 66.9609C223.24 66.8672 223.117 66.7422 223.023 66.5859C222.935 66.4297 222.893 66.2604 222.898 66.0781C222.893 65.901 222.935 65.737 223.023 65.5859C223.117 65.4297 223.24 65.3073 223.391 65.2188C223.547 65.125 223.716 65.0781 223.898 65.0781C224.076 65.0781 224.24 65.125 224.391 65.2188C224.547 65.3073 224.669 65.4297 224.758 65.5859C224.852 65.737 224.898 65.901 224.898 66.0781C224.898 66.2604 224.852 66.4297 224.758 66.5859C224.669 66.7422 224.547 66.8672 224.391 66.9609C224.24 67.0495 224.076 67.0938 223.898 67.0938Z" fill="#E8E4DC"/>
<path d="M79.3594 86.126H75.1572V87.3447H79.1436V88.1191H75.1572V89.4268C76.3464 89.4268 77.2922 89.4077 77.9946 89.3696C78.7013 89.3315 79.4144 89.2533 80.1338 89.1348L80.2354 89.9346C79.4906 90.0615 78.7521 90.144 78.02 90.1821C77.2922 90.2202 76.2913 90.2393 75.0176 90.2393H74.167V85.3135H79.3594V86.126ZM82.457 87.2178H84.1582V88.043H82.457V90.6455H81.4668V84.7422H82.457V87.2178ZM82.457 93.8447H76.2617V95.1016H82.876V95.9014H75.2842V93.083H81.4668V91.9912H75.2588V91.1914H82.457V93.8447ZM91.7119 91.001H89.1602V92.8354C90.4043 92.772 91.4792 92.6725 92.3848 92.5371L92.4609 93.2734C91.695 93.4131 90.8973 93.5189 90.0679 93.5908C89.2427 93.6585 88.4788 93.703 87.7764 93.7241C87.0739 93.741 86.2445 93.7516 85.2881 93.7559H85.0723L84.9326 92.918H85.4023C85.834 92.9137 86.3016 92.9095 86.8052 92.9053C87.313 92.8968 87.7679 92.8862 88.1699 92.8735V91.001H85.7959V85.7705H91.6611V86.583H86.7988V87.9668H91.4199V88.7539H86.7988V90.1885H91.7119V91.001ZM94.124 96.0537H93.1338V84.7422H94.124V96.0537ZM103.379 87.7764C103.375 88.445 103.51 89.1094 103.785 89.7695C104.06 90.4255 104.433 91.0094 104.902 91.5215C105.372 92.0335 105.884 92.4144 106.438 92.6641L105.829 93.4512C105.186 93.1338 104.602 92.6619 104.077 92.0356C103.557 91.4051 103.163 90.6899 102.896 89.8901C102.634 90.7407 102.241 91.5024 101.716 92.1753C101.191 92.8439 100.599 93.3454 99.9385 93.6797L99.3037 92.8418C99.8581 92.5837 100.37 92.1922 100.84 91.6675C101.31 91.1385 101.684 90.5334 101.963 89.8521C102.243 89.1665 102.384 88.4746 102.389 87.7764V85.7197H103.379V87.7764ZM108.673 96.0537H107.67V84.7422H108.673V96.0537ZM124.199 94.5811H113.865V93.7432H118.512V90.9883H115.084V85.6943H122.917V90.9883H119.489V93.7432H124.199V94.5811ZM116.062 90.1885H121.952V86.4941H116.062V90.1885ZM135.396 91.2549H125.101V90.4424H135.396V91.2549ZM134.216 89.1982H126.408V85.2373H134.114V86.0498H127.398V88.373H134.216V89.1982ZM134.305 95.7744H126.434V92.4736H127.424V94.9365H134.305V95.7744ZM149.26 96.0283H148.295V84.7422H149.26V96.0283ZM146.949 95.4443H145.997V89.8965H143.534V89.0586H145.997V85.0215H146.949V95.4443ZM144.296 86.9639H141.008V92.4736C141.854 92.4694 142.563 92.444 143.134 92.3975C143.71 92.3467 144.292 92.2578 144.88 92.1309L144.981 92.9814C144.364 93.1084 143.75 93.193 143.141 93.2354C142.531 93.2777 141.736 93.3031 140.754 93.3115H140.043V86.1387H144.296V86.9639ZM160.14 96.0537H159.137V84.7422H160.14V96.0537ZM154.135 85.6182C154.693 85.6224 155.191 85.7874 155.626 86.1133C156.062 86.4349 156.403 86.8919 156.648 87.4844C156.894 88.0768 157.017 88.7666 157.017 89.5537C157.017 90.3408 156.894 91.0306 156.648 91.623C156.403 92.2155 156.062 92.6725 155.626 92.9941C155.191 93.3158 154.693 93.4766 154.135 93.4766C153.576 93.4766 153.077 93.3158 152.637 92.9941C152.201 92.6725 151.86 92.2155 151.615 91.623C151.374 91.0306 151.253 90.3408 151.253 89.5537C151.253 88.7666 151.374 88.0768 151.615 87.4844C151.86 86.8919 152.201 86.4349 152.637 86.1133C153.073 85.7874 153.572 85.6224 154.135 85.6182ZM154.135 86.5068C153.758 86.5111 153.424 86.6401 153.132 86.894C152.844 87.1437 152.62 87.4992 152.459 87.9604C152.298 88.4175 152.218 88.9486 152.218 89.5537C152.218 90.1589 152.298 90.6921 152.459 91.1533C152.62 91.6104 152.846 91.9637 153.138 92.2134C153.43 92.4631 153.762 92.5879 154.135 92.5879C154.507 92.5879 154.839 92.4631 155.131 92.2134C155.423 91.9637 155.65 91.6104 155.811 91.1533C155.971 90.6921 156.052 90.1589 156.052 89.5537C156.052 88.9486 155.971 88.4175 155.811 87.9604C155.65 87.4992 155.423 87.1437 155.131 86.894C154.844 86.6401 154.511 86.5111 154.135 86.5068ZM171.426 96.0537H170.436V89.833H168.049V89.0078H170.436V84.7422H171.426V96.0537ZM167.858 86.6084H163.593V88.957H167.363V89.7695H163.593V92.499C164.672 92.499 165.577 92.4757 166.31 92.4292C167.046 92.3784 167.791 92.2874 168.544 92.1562L168.658 92.9814C167.858 93.1126 167.071 93.2036 166.297 93.2544C165.522 93.3009 164.575 93.3242 163.453 93.3242H162.59V85.7832H167.858V86.6084ZM182.039 89.3379H183.867V90.1758H182.039V96.0283H181.049V84.7422H182.039V89.3379ZM179.119 85.9609C179.119 87.641 178.698 89.1644 177.856 90.5312C177.014 91.8939 175.708 93.0111 173.939 93.8828L173.381 93.0957C174.832 92.3721 175.956 91.4792 176.751 90.417C177.547 89.3506 178.002 88.1445 178.116 86.7988H173.901V85.9609H179.119ZM191.599 86.5576C191.594 87.0612 191.711 87.5479 191.948 88.0176C192.185 88.4831 192.517 88.8957 192.944 89.2554C193.376 89.6108 193.867 89.8838 194.417 90.0742L193.896 90.8613C193.262 90.6328 192.703 90.2922 192.221 89.8394C191.743 89.3823 191.379 88.8534 191.129 88.2524C190.892 88.9126 190.528 89.4902 190.037 89.9854C189.546 90.4762 188.966 90.8444 188.298 91.0898L187.777 90.29C188.34 90.0869 188.835 89.797 189.263 89.4204C189.69 89.0396 190.022 88.5973 190.259 88.0938C190.496 87.5902 190.617 87.057 190.621 86.4941V85.3262H191.599V86.5576ZM196.626 87.7383H198.327V88.5889H196.626V91.585H195.636V84.7422H196.626V87.7383ZM196.626 96.0283H195.636V92.9561H189.237V92.1436H196.626V96.0283ZM208.687 96.0283H207.734V84.7422H208.687V96.0283ZM206.401 95.4443H205.462V89.6299H203.558V88.8174H205.462V85.0215H206.401V95.4443ZM202.352 87.9668C202.352 88.6227 202.447 89.2638 202.637 89.8901C202.828 90.5122 203.107 91.075 203.475 91.5786C203.843 92.078 204.281 92.4736 204.789 92.7656L204.18 93.502C203.634 93.1761 203.166 92.7254 202.777 92.1499C202.388 91.5701 202.091 90.9142 201.888 90.1821C201.681 90.9735 201.374 91.6823 200.968 92.3086C200.566 92.9349 200.088 93.4215 199.533 93.7686L198.898 93.0195C199.41 92.7148 199.855 92.298 200.231 91.769C200.608 91.2401 200.894 90.6476 201.088 89.9917C201.287 89.3315 201.387 88.6566 201.387 87.9668V86.9004H199.216V86.0752H204.421V86.9004H202.352V87.9668ZM219.592 91.2422H218.589V84.7549H219.592V91.2422ZM210.312 90.1377C211.568 90.1377 212.647 90.1229 213.549 90.0933V88.8809H211.34V85.3135H216.697V86.1387H212.343V88.0811H216.799V88.8809H214.552V90.0552C215.665 90.0002 216.697 89.9092 217.649 89.7822L217.713 90.5059C216.613 90.6921 215.466 90.8148 214.272 90.874C213.079 90.9333 211.81 90.9629 210.464 90.9629L210.312 90.1377ZM213.143 92.9561H218.614V91.75H219.592V95.876H212.152V91.75H213.143V92.9561ZM218.614 95.0635V93.7305H213.143V95.0635H218.614ZM230.814 96.0283H229.824V84.7422H230.814V96.0283ZM223.223 92.2578C225.131 92.2493 226.93 92.0674 228.618 91.7119L228.758 92.5625C227.797 92.7614 226.862 92.9053 225.952 92.9941C225.042 93.0788 224.111 93.1211 223.159 93.1211H222.245V85.8594H223.223V92.2578ZM241.479 89.2109H243.37V90.0488H241.479V96.0537H240.488V84.7422H241.479V89.2109ZM238.508 86.6719H234.229V92.3848C235.283 92.3848 236.204 92.3551 236.991 92.2959C237.778 92.2367 238.58 92.1309 239.396 91.9785L239.523 92.8418C238.69 92.9941 237.871 93.0957 237.067 93.1465C236.263 93.1973 235.283 93.2227 234.128 93.2227H233.239V85.8467H238.508V86.6719ZM245.173 95.0762C245.025 95.0762 244.887 95.0402 244.76 94.9683C244.638 94.8921 244.538 94.7905 244.462 94.6636C244.39 94.5366 244.356 94.3991 244.36 94.251C244.356 94.1071 244.39 93.9738 244.462 93.8511C244.538 93.7241 244.638 93.6247 244.76 93.5527C244.887 93.4766 245.025 93.4385 245.173 93.4385C245.317 93.4385 245.45 93.4766 245.573 93.5527C245.7 93.6247 245.799 93.7241 245.871 93.8511C245.947 93.9738 245.985 94.1071 245.985 94.251C245.985 94.3991 245.947 94.5366 245.871 94.6636C245.799 94.7905 245.7 94.8921 245.573 94.9683C245.45 95.0402 245.317 95.0762 245.173 95.0762Z" fill="#7A7873"/>
<path d="M20 121H300" stroke="#373F3B" stroke-width="0.5"/>
<g clip-path="url(#clip0_219_5831)">
<path d="M82.9727 135.25C82.9727 135.651 83.0957 136.032 83.3418 136.392C83.5924 136.747 83.9388 137.057 84.3809 137.321C84.8275 137.581 85.3379 137.775 85.9121 137.902L85.4746 138.764C84.7728 138.595 84.1621 138.331 83.6426 137.971C83.123 137.611 82.7288 137.185 82.46 136.692C82.2002 137.23 81.806 137.693 81.2773 138.08C80.7487 138.467 80.1243 138.75 79.4043 138.928L78.9395 138.066C79.5182 137.939 80.0309 137.736 80.4775 137.458C80.9287 137.18 81.2796 136.85 81.5303 136.467C81.7809 136.084 81.9062 135.678 81.9062 135.25V135.195H79.1992V134.348H81.9062V132.994H82.9727V134.348H85.6797V135.195H82.9727V135.25ZM88.4141 145.121H87.3613V132.967H88.4141V145.121ZM78.3652 139.789C79.9147 139.789 81.3525 139.766 82.6787 139.721C84.0094 139.671 85.2741 139.57 86.4727 139.42L86.541 140.199C85.4746 140.372 84.2943 140.498 83 140.575V144.752H81.9336V140.63C81.013 140.671 79.8737 140.691 78.5156 140.691L78.3652 139.789ZM101.621 143.521H90.4922V142.633H95.4688V139.652H96.5215V142.633H101.621V143.521ZM96.5488 134.717C96.5488 135.364 96.7721 135.986 97.2188 136.583C97.6699 137.18 98.2441 137.686 98.9414 138.101C99.6432 138.511 100.354 138.777 101.074 138.9L100.596 139.789C99.9668 139.661 99.3493 139.44 98.7432 139.126C98.137 138.812 97.5902 138.42 97.1025 137.95C96.6195 137.481 96.2503 136.964 95.9951 136.398C95.7399 136.964 95.3708 137.481 94.8877 137.95C94.4046 138.42 93.86 138.812 93.2539 139.126C92.6523 139.44 92.0371 139.661 91.4082 139.789L90.9297 138.9C91.6497 138.777 92.3561 138.511 93.0488 138.101C93.7461 137.686 94.3158 137.182 94.7578 136.59C95.2044 135.993 95.4277 135.368 95.4277 134.717V133.787H96.5488V134.717Z" fill="#7A7873"/>
<path d="M160 121V157" stroke="#373F3B" stroke-width="0.5"/>
<path d="M212.459 134.443H207.934V135.756H212.227V136.59H207.934V137.998C209.214 137.998 210.233 137.978 210.989 137.937C211.75 137.896 212.518 137.811 213.293 137.684L213.402 138.545C212.6 138.682 211.805 138.771 211.017 138.812C210.233 138.853 209.155 138.873 207.783 138.873H206.867V133.568H212.459V134.443ZM215.795 135.619H217.627V136.508H215.795V139.311H214.729V132.953H215.795V135.619ZM215.795 142.756H209.123V144.109H216.246V144.971H208.07V141.936H214.729V140.76H208.043V139.898H215.795V142.756ZM225.762 139.693H223.014V141.669C224.354 141.601 225.511 141.493 226.486 141.348L226.568 142.141C225.743 142.291 224.884 142.405 223.991 142.482C223.103 142.555 222.28 142.603 221.523 142.626C220.767 142.644 219.874 142.656 218.844 142.66H218.611L218.461 141.758H218.967C219.432 141.753 219.935 141.749 220.478 141.744C221.024 141.735 221.514 141.724 221.947 141.71V139.693H219.391V134.061H225.707V134.936H220.471V136.426H225.447V137.273H220.471V138.818H225.762V139.693ZM228.359 145.135H227.293V132.953H228.359V145.135ZM239.898 137.971H241.936V138.859H239.898V145.107H238.832V132.953H239.898V137.971ZM237.656 135.797H230.424V134.908H233.555V133.104H234.621V134.908H237.656V135.797ZM234.102 136.809C234.671 136.809 235.182 136.927 235.633 137.164C236.084 137.401 236.437 137.731 236.692 138.155C236.948 138.579 237.077 139.06 237.082 139.598C237.077 140.135 236.948 140.616 236.692 141.04C236.437 141.464 236.084 141.794 235.633 142.031C235.182 142.268 234.671 142.387 234.102 142.387C233.527 142.387 233.012 142.268 232.557 142.031C232.105 141.794 231.752 141.464 231.497 141.04C231.242 140.616 231.117 140.135 231.121 139.598C231.117 139.06 231.242 138.579 231.497 138.155C231.752 137.731 232.105 137.401 232.557 137.164C233.012 136.927 233.527 136.809 234.102 136.809ZM234.102 137.711C233.728 137.711 233.391 137.793 233.09 137.957C232.794 138.117 232.561 138.34 232.393 138.627C232.224 138.914 232.142 139.238 232.146 139.598C232.142 139.962 232.224 140.288 232.393 140.575C232.561 140.858 232.794 141.079 233.09 141.238C233.391 141.398 233.728 141.475 234.102 141.471C234.471 141.475 234.803 141.398 235.1 141.238C235.396 141.079 235.628 140.858 235.797 140.575C235.965 140.288 236.052 139.962 236.057 139.598C236.052 139.238 235.965 138.914 235.797 138.627C235.628 138.34 235.396 138.117 235.1 137.957C234.803 137.793 234.471 137.711 234.102 137.711ZM252.641 145.107H251.561V132.953H252.641V145.107ZM249.045 134.279C249.036 136.116 248.571 137.766 247.65 139.229C246.73 140.687 245.29 141.885 243.33 142.824L242.742 141.949C244.365 141.179 245.606 140.222 246.468 139.078C247.334 137.934 247.828 136.626 247.951 135.154H243.303V134.279H249.045Z" fill="#C45650"/>
</g>
</g>
<defs>
<filter id="filter0_dd_219_5831" x="-12" y="0" width="344" height="197" filterUnits="userSpaceOnUse" color-interpolation-filters="sRGB">
<feFlood flood-opacity="0" result="BackgroundImageFix"/>
<feColorMatrix in="SourceAlpha" type="matrix" values="0 0 0 0 0 0 0 0 0 0 0 0 0 0 0 0 0 0 127 0" result="hardAlpha"/>
<feOffset dy="8"/>
<feGaussianBlur stdDeviation="16"/>
<feColorMatrix type="matrix" values="0 0 0 0 0 0 0 0 0 0 0 0 0 0 0 0 0 0 0.5 0"/>
<feBlend mode="normal" in2="BackgroundImageFix" result="effect1_dropShadow_219_5831"/>
<feColorMatrix in="SourceAlpha" type="matrix" values="0 0 0 0 0 0 0 0 0 0 0 0 0 0 0 0 0 0 127 0" result="hardAlpha"/>
<feOffset dy="2"/>
<feGaussianBlur stdDeviation="4"/>
<feColorMatrix type="matrix" values="0 0 0 0 0 0 0 0 0 0 0 0 0 0 0 0 0 0 0.25 0"/>
<feBlend mode="normal" in2="effect1_dropShadow_219_5831" result="effect2_dropShadow_219_5831"/>
<feBlend mode="normal" in="SourceGraphic" in2="effect2_dropShadow_219_5831" result="shape"/>
</filter>
<clipPath id="clip0_219_5831">
<rect width="280" height="36" fill="white" transform="translate(20 121)"/>
</clipPath>
</defs>
</svg>
