<svg width="320" height="193" viewBox="0 0 320 193" fill="none" xmlns="http://www.w3.org/2000/svg">
<g id="Property 1=Light" filter="url(#filter0_dd_219_5822)">
<path d="M20 36C20 27.1634 27.1634 20 36 20H284C292.837 20 300 27.1634 300 36V137C300 145.837 292.837 153 284 153H36C27.1634 153 20 145.837 20 137V36Z" fill="#FAFAF7"/>
<path d="M36 20.5H284C292.56 20.5 299.5 27.4396 299.5 36V137C299.5 145.56 292.56 152.5 284 152.5H36C27.4396 152.5 20.5 145.56 20.5 137V36C20.5 27.4396 27.4396 20.5 36 20.5Z" stroke="#E2DDD5"/>
<g id="Frame 81">
<path id="&#236;&#160;&#149;&#235;&#167;&#144; &#237;&#131;&#136;&#237;&#135;&#180;&#237;&#149;&#152;&#236;&#139;&#156;&#234;&#178;&#160;&#236;&#150;&#180;&#236;&#154;&#148;?" d="M104.008 58.6562H102.773V55.0156H99.9766V54H102.773V50.375H104.008V58.6562ZM99.3984 59.0938C100.362 59.0938 101.193 59.1953 101.891 59.3984C102.589 59.6016 103.122 59.8958 103.492 60.2812C103.867 60.6667 104.055 61.1302 104.055 61.6719C104.055 62.2135 103.867 62.6771 103.492 63.0625C103.122 63.4531 102.589 63.75 101.891 63.9531C101.193 64.1562 100.362 64.2604 99.3984 64.2656C98.4349 64.2604 97.6042 64.1562 96.9062 63.9531C96.2083 63.75 95.6719 63.4531 95.2969 63.0625C94.9271 62.6771 94.7422 62.2135 94.7422 61.6719C94.7422 61.1302 94.9271 60.6667 95.2969 60.2812C95.6719 59.8958 96.2083 59.6016 96.9062 59.3984C97.6042 59.1953 98.4349 59.0938 99.3984 59.0938ZM99.3984 60.0469C98.6953 60.0469 98.0833 60.112 97.5625 60.2422C97.0417 60.3724 96.6432 60.5599 96.3672 60.8047C96.0911 61.0495 95.9557 61.3385 95.9609 61.6719C95.9557 62 96.0911 62.2865 96.3672 62.5312C96.6432 62.7708 97.0417 62.9557 97.5625 63.0859C98.0833 63.2161 98.6953 63.2812 99.3984 63.2812C100.102 63.2812 100.711 63.2161 101.227 63.0859C101.747 62.9557 102.146 62.7708 102.422 62.5312C102.698 62.2865 102.836 62 102.836 61.6719C102.836 61.3385 102.698 61.0495 102.422 60.8047C102.146 60.5599 101.747 60.3724 101.227 60.2422C100.711 60.112 100.102 60.0469 99.3984 60.0469ZM97.3203 52.9219C97.3203 53.5208 97.4635 54.1016 97.75 54.6641C98.0365 55.2214 98.4375 55.7188 98.9531 56.1562C99.474 56.5885 100.07 56.9219 100.742 57.1562L100.102 58.1406C99.3255 57.8594 98.6432 57.4427 98.0547 56.8906C97.4714 56.3385 97.0312 55.7005 96.7344 54.9766C96.4323 55.7891 95.9714 56.5078 95.3516 57.1328C94.737 57.7526 94.0182 58.2188 93.1953 58.5312L92.5547 57.5469C93.237 57.2969 93.8464 56.9375 94.3828 56.4688C94.9193 55.9948 95.3359 55.4505 95.6328 54.8359C95.9349 54.2214 96.0859 53.5885 96.0859 52.9375V52.4219H92.9453V51.3906H100.43V52.4219H97.3203V52.9219ZM117.18 53.3906H119.273V54.4219H117.18V57.4531H115.961V50.375H117.18V53.3906ZM113.336 56.7188H106.914V51.1719H113.336V56.7188ZM108.117 55.7344H112.148V52.1719H108.117V55.7344ZM117.18 61.5H109.555V63.0938H117.695V64.0781H108.352V60.5625H115.961V59.0938H108.32V58.1094H117.18V61.5ZM131.211 52.0781H126.039V53.5781H130.945V54.5312H126.039V56.1406C127.503 56.1406 128.667 56.1172 129.531 56.0703C130.401 56.0234 131.279 55.9271 132.164 55.7812L132.289 56.7656C131.372 56.9219 130.464 57.0234 129.562 57.0703C128.667 57.1172 127.435 57.1406 125.867 57.1406H124.82V51.0781H131.211V52.0781ZM135.023 53.4219H137.117V54.4375H135.023V57.6406H133.805V50.375H135.023V53.4219ZM135.023 61.5781H127.398V63.125H135.539V64.1094H126.195V60.6406H133.805V59.2969H126.164V58.3125H135.023V61.5781ZM146.414 58.0781H143.273V60.3359C144.805 60.2578 146.128 60.1354 147.242 59.9688L147.336 60.875C146.393 61.0469 145.411 61.1771 144.391 61.2656C143.375 61.349 142.435 61.4036 141.57 61.4297C140.706 61.4505 139.685 61.4635 138.508 61.4688H138.242L138.07 60.4375H138.648C139.18 60.4323 139.755 60.4271 140.375 60.4219C141 60.4115 141.56 60.3984 142.055 60.3828V58.0781H139.133V51.6406H146.352V52.6406H140.367V54.3438H146.055V55.3125H140.367V57.0781H146.414V58.0781ZM149.383 64.2969H148.164V50.375H149.383V64.2969ZM162.57 56.1094H164.898V57.125H162.57V64.2656H161.352V50.375H162.57V56.1094ZM160.008 53.625H151.742V52.6094H155.32V50.5469H156.539V52.6094H160.008V53.625ZM155.945 54.7812C156.596 54.7812 157.18 54.9167 157.695 55.1875C158.211 55.4583 158.615 55.8359 158.906 56.3203C159.198 56.8047 159.346 57.3542 159.352 57.9688C159.346 58.5833 159.198 59.1328 158.906 59.6172C158.615 60.1016 158.211 60.4792 157.695 60.75C157.18 61.0208 156.596 61.1562 155.945 61.1562C155.289 61.1562 154.701 61.0208 154.18 60.75C153.664 60.4792 153.26 60.1016 152.969 59.6172C152.677 59.1328 152.534 58.5833 152.539 57.9688C152.534 57.3542 152.677 56.8047 152.969 56.3203C153.26 55.8359 153.664 55.4583 154.18 55.1875C154.701 54.9167 155.289 54.7812 155.945 54.7812ZM155.945 55.8125C155.518 55.8125 155.133 55.9062 154.789 56.0938C154.451 56.276 154.185 56.5312 153.992 56.8594C153.799 57.1875 153.706 57.5573 153.711 57.9688C153.706 58.3854 153.799 58.7578 153.992 59.0859C154.185 59.4089 154.451 59.6615 154.789 59.8438C155.133 60.026 155.518 60.1146 155.945 60.1094C156.367 60.1146 156.747 60.026 157.086 59.8438C157.424 59.6615 157.69 59.4089 157.883 59.0859C158.076 58.7578 158.174 58.3854 158.18 57.9688C158.174 57.5573 158.076 57.1875 157.883 56.8594C157.69 56.5312 157.424 56.276 157.086 56.0938C156.747 55.9062 156.367 55.8125 155.945 55.8125ZM170.586 54.1094C170.581 54.9323 170.747 55.75 171.086 56.5625C171.424 57.3698 171.883 58.0885 172.461 58.7188C173.039 59.349 173.669 59.8177 174.352 60.125L173.602 61.0938C172.81 60.7031 172.091 60.1224 171.445 59.3516C170.805 58.5755 170.32 57.6953 169.992 56.7109C169.669 57.7578 169.185 58.6953 168.539 59.5234C167.893 60.3464 167.164 60.9635 166.352 61.375L165.57 60.3438C166.253 60.026 166.883 59.5443 167.461 58.8984C168.039 58.2474 168.5 57.5026 168.844 56.6641C169.188 55.8203 169.362 54.9688 169.367 54.1094V51.5781H170.586V54.1094ZM177.102 64.2969H175.867V50.375H177.102V64.2969ZM185.633 51.4062C185.633 52.4688 185.44 53.4479 185.055 54.3438H187.305V50.6875H188.477V58.2031H187.305V55.3594H184.508C183.612 56.75 182.195 57.8594 180.258 58.6875L179.617 57.7812C181.044 57.1979 182.161 56.4531 182.969 55.5469C183.776 54.6406 184.242 53.599 184.367 52.4219H180.211V51.4062H185.633ZM191.273 58.4219H190.102V50.3906H191.273V58.4219ZM184.32 59.8281C184.31 60.474 184.474 61.0938 184.812 61.6875C185.156 62.2812 185.648 62.763 186.289 63.1328C186.716 62.8672 187.078 62.5469 187.375 62.1719C187.677 61.7917 187.906 61.3984 188.062 60.9922C188.219 60.5807 188.299 60.1927 188.305 59.8281V58.8906H189.492V59.8281C189.492 60.3073 189.607 60.7786 189.836 61.2422C190.065 61.7005 190.393 62.112 190.82 62.4766C191.253 62.8411 191.758 63.1198 192.336 63.3125L191.727 64.2188C191.044 63.9792 190.461 63.6276 189.977 63.1641C189.492 62.7057 189.125 62.1745 188.875 61.5703C188.651 62.1745 188.323 62.7214 187.891 63.2109C187.458 63.7005 186.935 64.0781 186.32 64.3438C185.669 64.0833 185.125 63.7135 184.688 63.2344C184.25 62.7604 183.924 62.2161 183.711 61.6016C183.456 62.1849 183.089 62.7057 182.609 63.1641C182.13 63.6224 181.57 63.974 180.93 64.2188L180.305 63.3125C180.872 63.1042 181.37 62.8125 181.797 62.4375C182.229 62.0625 182.562 61.6458 182.797 61.1875C183.031 60.7292 183.148 60.276 183.148 59.8281V58.8906H184.32V59.8281ZM197.039 51.4531C197.664 51.4583 198.224 51.6328 198.719 51.9766C199.219 52.3203 199.622 52.8099 199.93 53.4453C200.237 54.0807 200.422 54.8281 200.484 55.6875H203.602V50.375H204.82V64.2969H203.602V56.7031H200.5C200.453 57.599 200.279 58.3802 199.977 59.0469C199.674 59.7135 199.268 60.2266 198.758 60.5859C198.253 60.9453 197.68 61.125 197.039 61.125C196.362 61.125 195.758 60.9271 195.227 60.5312C194.701 60.1354 194.289 59.5729 193.992 58.8438C193.701 58.1146 193.555 57.2656 193.555 56.2969C193.555 55.3281 193.701 54.4792 193.992 53.75C194.289 53.0208 194.701 52.4583 195.227 52.0625C195.753 51.6615 196.357 51.4583 197.039 51.4531ZM197.039 52.5469C196.586 52.5521 196.182 52.7109 195.828 53.0234C195.479 53.3307 195.208 53.7682 195.016 54.3359C194.823 54.8984 194.727 55.5521 194.727 56.2969C194.727 57.0417 194.823 57.6979 195.016 58.2656C195.208 58.8281 195.479 59.263 195.828 59.5703C196.182 59.8776 196.586 60.0312 197.039 60.0312C197.487 60.0312 197.885 59.8776 198.234 59.5703C198.589 59.263 198.862 58.8281 199.055 58.2656C199.253 57.6979 199.352 57.0417 199.352 56.2969C199.352 55.5521 199.253 54.8984 199.055 54.3359C198.862 53.7682 198.591 53.3307 198.242 53.0234C197.893 52.7109 197.492 52.5521 197.039 52.5469ZM219.852 62.4844H207.133V61.4531H210.289V57.7031C209.685 57.3906 209.216 56.9896 208.883 56.5C208.549 56.0052 208.383 55.4479 208.383 54.8281C208.383 54.1198 208.599 53.4974 209.031 52.9609C209.464 52.4193 210.062 52 210.828 51.7031C211.599 51.4062 212.477 51.2552 213.461 51.25C214.445 51.2552 215.32 51.4062 216.086 51.7031C216.857 52 217.458 52.4193 217.891 52.9609C218.323 53.4974 218.539 54.1198 218.539 54.8281C218.539 55.4375 218.378 55.987 218.055 56.4766C217.732 56.9609 217.279 57.3594 216.695 57.6719V61.4531H219.852V62.4844ZM213.461 52.2656C212.706 52.2604 212.034 52.3646 211.445 52.5781C210.857 52.7917 210.396 53.0938 210.062 53.4844C209.734 53.8698 209.57 54.3177 209.57 54.8281C209.57 55.3385 209.734 55.7917 210.062 56.1875C210.396 56.5781 210.857 56.8828 211.445 57.1016C212.034 57.3151 212.706 57.4219 213.461 57.4219C214.211 57.4219 214.88 57.3125 215.469 57.0938C216.057 56.875 216.518 56.5703 216.852 56.1797C217.185 55.7891 217.352 55.3385 217.352 54.8281C217.352 54.3177 217.185 53.8698 216.852 53.4844C216.518 53.0938 216.057 52.7917 215.469 52.5781C214.88 52.3646 214.211 52.2604 213.461 52.2656ZM215.461 61.4531V58.1484C214.841 58.3099 214.174 58.3906 213.461 58.3906C212.742 58.3906 212.086 58.3125 211.492 58.1562V61.4531H215.461ZM223.18 59.7344C223.185 59.0625 223.253 58.5182 223.383 58.1016C223.518 57.6849 223.706 57.349 223.945 57.0938C224.185 56.8385 224.508 56.5885 224.914 56.3438C225.258 56.1354 225.534 55.8724 225.742 55.5547C225.951 55.2318 226.055 54.8646 226.055 54.4531C226.055 54.1094 225.971 53.8073 225.805 53.5469C225.643 53.2812 225.419 53.0781 225.133 52.9375C224.852 52.7917 224.539 52.7188 224.195 52.7188C223.883 52.7188 223.589 52.7839 223.312 52.9141C223.042 53.0391 222.815 53.2396 222.633 53.5156C222.456 53.7865 222.352 54.125 222.32 54.5312H220.898C220.924 53.9167 221.086 53.3828 221.383 52.9297C221.68 52.4766 222.073 52.1302 222.562 51.8906C223.052 51.651 223.596 51.5312 224.195 51.5312C224.836 51.5312 225.401 51.6615 225.891 51.9219C226.38 52.1771 226.758 52.5312 227.023 52.9844C227.294 53.4375 227.43 53.9479 227.43 54.5156C227.43 55.6667 226.914 56.5573 225.883 57.1875C225.549 57.3906 225.286 57.6016 225.094 57.8203C224.906 58.0391 224.766 58.2995 224.672 58.6016C224.583 58.9036 224.534 59.2812 224.523 59.7344V59.8125H223.18V59.7344ZM223.898 63.0938C223.716 63.0938 223.547 63.0495 223.391 62.9609C223.24 62.8672 223.117 62.7422 223.023 62.5859C222.935 62.4297 222.893 62.2604 222.898 62.0781C222.893 61.901 222.935 61.737 223.023 61.5859C223.117 61.4297 223.24 61.3073 223.391 61.2188C223.547 61.125 223.716 61.0781 223.898 61.0781C224.076 61.0781 224.24 61.125 224.391 61.2188C224.547 61.3073 224.669 61.4297 224.758 61.5859C224.852 61.737 224.898 61.901 224.898 62.0781C224.898 62.2604 224.852 62.4297 224.758 62.5859C224.669 62.7422 224.547 62.8672 224.391 62.9609C224.24 63.0495 224.076 63.0938 223.898 63.0938Z" fill="#1A1A1A"/>
<path id="&#237;&#131;&#136;&#237;&#135;&#180; &#236;&#139;&#156; &#235;&#170;&#168;&#235;&#147;&#160; &#235;&#141;&#176;&#236;&#157;&#180;&#237;&#132;&#176;&#234;&#176;&#128; &#236;&#130;&#173;&#236;&#160;&#156;&#235;&#144;&#169;&#235;&#139;&#136;&#235;&#139;&#164;." d="M79.3594 82.126H75.1572V83.3447H79.1436V84.1191H75.1572V85.4268C76.3464 85.4268 77.2922 85.4077 77.9946 85.3696C78.7013 85.3315 79.4144 85.2533 80.1338 85.1348L80.2354 85.9346C79.4906 86.0615 78.7521 86.144 78.02 86.1821C77.2922 86.2202 76.2913 86.2393 75.0176 86.2393H74.167V81.3135H79.3594V82.126ZM82.457 83.2178H84.1582V84.043H82.457V86.6455H81.4668V80.7422H82.457V83.2178ZM82.457 89.8447H76.2617V91.1016H82.876V91.9014H75.2842V89.083H81.4668V87.9912H75.2588V87.1914H82.457V89.8447ZM91.7119 87.001H89.1602V88.8354C90.4043 88.772 91.4792 88.6725 92.3848 88.5371L92.4609 89.2734C91.695 89.4131 90.8973 89.5189 90.0679 89.5908C89.2427 89.6585 88.4788 89.703 87.7764 89.7241C87.0739 89.741 86.2445 89.7516 85.2881 89.7559H85.0723L84.9326 88.918H85.4023C85.834 88.9137 86.3016 88.9095 86.8052 88.9053C87.313 88.8968 87.7679 88.8862 88.1699 88.8735V87.001H85.7959V81.7705H91.6611V82.583H86.7988V83.9668H91.4199V84.7539H86.7988V86.1885H91.7119V87.001ZM94.124 92.0537H93.1338V80.7422H94.124V92.0537ZM103.379 83.7764C103.375 84.445 103.51 85.1094 103.785 85.7695C104.06 86.4255 104.433 87.0094 104.902 87.5215C105.372 88.0335 105.884 88.4144 106.438 88.6641L105.829 89.4512C105.186 89.1338 104.602 88.6619 104.077 88.0356C103.557 87.4051 103.163 86.6899 102.896 85.8901C102.634 86.7407 102.241 87.5024 101.716 88.1753C101.191 88.8439 100.599 89.3454 99.9385 89.6797L99.3037 88.8418C99.8581 88.5837 100.37 88.1922 100.84 87.6675C101.31 87.1385 101.684 86.5334 101.963 85.8521C102.243 85.1665 102.384 84.4746 102.389 83.7764V81.7197H103.379V83.7764ZM108.673 92.0537H107.67V80.7422H108.673V92.0537ZM124.199 90.5811H113.865V89.7432H118.512V86.9883H115.084V81.6943H122.917V86.9883H119.489V89.7432H124.199V90.5811ZM116.062 86.1885H121.952V82.4941H116.062V86.1885ZM135.396 87.2549H125.101V86.4424H135.396V87.2549ZM134.216 85.1982H126.408V81.2373H134.114V82.0498H127.398V84.373H134.216V85.1982ZM134.305 91.7744H126.434V88.4736H127.424V90.9365H134.305V91.7744ZM149.26 92.0283H148.295V80.7422H149.26V92.0283ZM146.949 91.4443H145.997V85.8965H143.534V85.0586H145.997V81.0215H146.949V91.4443ZM144.296 82.9639H141.008V88.4736C141.854 88.4694 142.563 88.444 143.134 88.3975C143.71 88.3467 144.292 88.2578 144.88 88.1309L144.981 88.9814C144.364 89.1084 143.75 89.193 143.141 89.2354C142.531 89.2777 141.736 89.3031 140.754 89.3115H140.043V82.1387H144.296V82.9639ZM160.14 92.0537H159.137V80.7422H160.14V92.0537ZM154.135 81.6182C154.693 81.6224 155.191 81.7874 155.626 82.1133C156.062 82.4349 156.403 82.8919 156.648 83.4844C156.894 84.0768 157.017 84.7666 157.017 85.5537C157.017 86.3408 156.894 87.0306 156.648 87.623C156.403 88.2155 156.062 88.6725 155.626 88.9941C155.191 89.3158 154.693 89.4766 154.135 89.4766C153.576 89.4766 153.077 89.3158 152.637 88.9941C152.201 88.6725 151.86 88.2155 151.615 87.623C151.374 87.0306 151.253 86.3408 151.253 85.5537C151.253 84.7666 151.374 84.0768 151.615 83.4844C151.86 82.8919 152.201 82.4349 152.637 82.1133C153.073 81.7874 153.572 81.6224 154.135 81.6182ZM154.135 82.5068C153.758 82.5111 153.424 82.6401 153.132 82.894C152.844 83.1437 152.62 83.4992 152.459 83.9604C152.298 84.4175 152.218 84.9486 152.218 85.5537C152.218 86.1589 152.298 86.6921 152.459 87.1533C152.62 87.6104 152.846 87.9637 153.138 88.2134C153.43 88.4631 153.762 88.5879 154.135 88.5879C154.507 88.5879 154.839 88.4631 155.131 88.2134C155.423 87.9637 155.65 87.6104 155.811 87.1533C155.971 86.6921 156.052 86.1589 156.052 85.5537C156.052 84.9486 155.971 84.4175 155.811 83.9604C155.65 83.4992 155.423 83.1437 155.131 82.894C154.844 82.6401 154.511 82.5111 154.135 82.5068ZM171.426 92.0537H170.436V85.833H168.049V85.0078H170.436V80.7422H171.426V92.0537ZM167.858 82.6084H163.593V84.957H167.363V85.7695H163.593V88.499C164.672 88.499 165.577 88.4757 166.31 88.4292C167.046 88.3784 167.791 88.2874 168.544 88.1562L168.658 88.9814C167.858 89.1126 167.071 89.2036 166.297 89.2544C165.522 89.3009 164.575 89.3242 163.453 89.3242H162.59V81.7832H167.858V82.6084ZM182.039 85.3379H183.867V86.1758H182.039V92.0283H181.049V80.7422H182.039V85.3379ZM179.119 81.9609C179.119 83.641 178.698 85.1644 177.856 86.5312C177.014 87.8939 175.708 89.0111 173.939 89.8828L173.381 89.0957C174.832 88.3721 175.956 87.4792 176.751 86.417C177.547 85.3506 178.002 84.1445 178.116 82.7988H173.901V81.9609H179.119ZM191.599 82.5576C191.594 83.0612 191.711 83.5479 191.948 84.0176C192.185 84.4831 192.517 84.8957 192.944 85.2554C193.376 85.6108 193.867 85.8838 194.417 86.0742L193.896 86.8613C193.262 86.6328 192.703 86.2922 192.221 85.8394C191.743 85.3823 191.379 84.8534 191.129 84.2524C190.892 84.9126 190.528 85.4902 190.037 85.9854C189.546 86.4762 188.966 86.8444 188.298 87.0898L187.777 86.29C188.34 86.0869 188.835 85.797 189.263 85.4204C189.69 85.0396 190.022 84.5973 190.259 84.0938C190.496 83.5902 190.617 83.057 190.621 82.4941V81.3262H191.599V82.5576ZM196.626 83.7383H198.327V84.5889H196.626V87.585H195.636V80.7422H196.626V83.7383ZM196.626 92.0283H195.636V88.9561H189.237V88.1436H196.626V92.0283ZM208.687 92.0283H207.734V80.7422H208.687V92.0283ZM206.401 91.4443H205.462V85.6299H203.558V84.8174H205.462V81.0215H206.401V91.4443ZM202.352 83.9668C202.352 84.6227 202.447 85.2638 202.637 85.8901C202.828 86.5122 203.107 87.075 203.475 87.5786C203.843 88.078 204.281 88.4736 204.789 88.7656L204.18 89.502C203.634 89.1761 203.166 88.7254 202.777 88.1499C202.388 87.5701 202.091 86.9142 201.888 86.1821C201.681 86.9735 201.374 87.6823 200.968 88.3086C200.566 88.9349 200.088 89.4215 199.533 89.7686L198.898 89.0195C199.41 88.7148 199.855 88.298 200.231 87.769C200.608 87.2401 200.894 86.6476 201.088 85.9917C201.287 85.3315 201.387 84.6566 201.387 83.9668V82.9004H199.216V82.0752H204.421V82.9004H202.352V83.9668ZM219.592 87.2422H218.589V80.7549H219.592V87.2422ZM210.312 86.1377C211.568 86.1377 212.647 86.1229 213.549 86.0933V84.8809H211.34V81.3135H216.697V82.1387H212.343V84.0811H216.799V84.8809H214.552V86.0552C215.665 86.0002 216.697 85.9092 217.649 85.7822L217.713 86.5059C216.613 86.6921 215.466 86.8148 214.272 86.874C213.079 86.9333 211.81 86.9629 210.464 86.9629L210.312 86.1377ZM213.143 88.9561H218.614V87.75H219.592V91.876H212.152V87.75H213.143V88.9561ZM218.614 91.0635V89.7305H213.143V91.0635H218.614ZM230.814 92.0283H229.824V80.7422H230.814V92.0283ZM223.223 88.2578C225.131 88.2493 226.93 88.0674 228.618 87.7119L228.758 88.5625C227.797 88.7614 226.862 88.9053 225.952 88.9941C225.042 89.0788 224.111 89.1211 223.159 89.1211H222.245V81.8594H223.223V88.2578ZM241.479 85.2109H243.37V86.0488H241.479V92.0537H240.488V80.7422H241.479V85.2109ZM238.508 82.6719H234.229V88.3848C235.283 88.3848 236.204 88.3551 236.991 88.2959C237.778 88.2367 238.58 88.1309 239.396 87.9785L239.523 88.8418C238.69 88.9941 237.871 89.0957 237.067 89.1465C236.263 89.1973 235.283 89.2227 234.128 89.2227H233.239V81.8467H238.508V82.6719ZM245.173 91.0762C245.025 91.0762 244.887 91.0402 244.76 90.9683C244.638 90.8921 244.538 90.7905 244.462 90.6636C244.39 90.5366 244.356 90.3991 244.36 90.251C244.356 90.1071 244.39 89.9738 244.462 89.8511C244.538 89.7241 244.638 89.6247 244.76 89.5527C244.887 89.4766 245.025 89.4385 245.173 89.4385C245.317 89.4385 245.45 89.4766 245.573 89.5527C245.7 89.6247 245.799 89.7241 245.871 89.8511C245.947 89.9738 245.985 90.1071 245.985 90.251C245.985 90.3991 245.947 90.5366 245.871 90.6636C245.799 90.7905 245.7 90.8921 245.573 90.9683C245.45 91.0402 245.317 91.0762 245.173 91.0762Z" fill="#888882"/>
</g>
<g id="Frame 80">
<path id="Vector" d="M20 117H300" stroke="#E2DDD5" stroke-width="0.5"/>
<g id="Frame 123" clip-path="url(#clip0_219_5822)">
<path id="&#236;&#183;&#168;&#236;&#134;&#140;" d="M82.9727 131.25C82.9727 131.651 83.0957 132.032 83.3418 132.392C83.5924 132.747 83.9388 133.057 84.3809 133.321C84.8275 133.581 85.3379 133.775 85.9121 133.902L85.4746 134.764C84.7728 134.595 84.1621 134.331 83.6426 133.971C83.123 133.611 82.7288 133.185 82.46 132.692C82.2002 133.23 81.806 133.693 81.2773 134.08C80.7487 134.467 80.1243 134.75 79.4043 134.928L78.9395 134.066C79.5182 133.939 80.0309 133.736 80.4775 133.458C80.9287 133.18 81.2796 132.85 81.5303 132.467C81.7809 132.084 81.9062 131.678 81.9062 131.25V131.195H79.1992V130.348H81.9062V128.994H82.9727V130.348H85.6797V131.195H82.9727V131.25ZM88.4141 141.121H87.3613V128.967H88.4141V141.121ZM78.3652 135.789C79.9147 135.789 81.3525 135.766 82.6787 135.721C84.0094 135.671 85.2741 135.57 86.4727 135.42L86.541 136.199C85.4746 136.372 84.2943 136.498 83 136.575V140.752H81.9336V136.63C81.013 136.671 79.8737 136.691 78.5156 136.691L78.3652 135.789ZM101.621 139.521H90.4922V138.633H95.4688V135.652H96.5215V138.633H101.621V139.521ZM96.5488 130.717C96.5488 131.364 96.7721 131.986 97.2188 132.583C97.6699 133.18 98.2441 133.686 98.9414 134.101C99.6432 134.511 100.354 134.777 101.074 134.9L100.596 135.789C99.9668 135.661 99.3493 135.44 98.7432 135.126C98.137 134.812 97.5902 134.42 97.1025 133.95C96.6195 133.481 96.2503 132.964 95.9951 132.398C95.7399 132.964 95.3708 133.481 94.8877 133.95C94.4046 134.42 93.86 134.812 93.2539 135.126C92.6523 135.44 92.0371 135.661 91.4082 135.789L90.9297 134.9C91.6497 134.777 92.3561 134.511 93.0488 134.101C93.7461 133.686 94.3158 133.182 94.7578 132.59C95.2044 131.993 95.4277 131.368 95.4277 130.717V129.787H96.5488V130.717Z" fill="#888882"/>
<path id="Vector_2" d="M160 117V153" stroke="#E2DDD5" stroke-width="0.5"/>
<path id="&#237;&#131;&#136;&#237;&#135;&#180;&#237;&#149;&#152;&#234;&#184;&#176;" d="M212.459 130.443H207.934V131.756H212.227V132.59H207.934V133.998C209.214 133.998 210.233 133.978 210.989 133.937C211.75 133.896 212.518 133.811 213.293 133.684L213.402 134.545C212.6 134.682 211.805 134.771 211.017 134.812C210.233 134.853 209.155 134.873 207.783 134.873H206.867V129.568H212.459V130.443ZM215.795 131.619H217.627V132.508H215.795V135.311H214.729V128.953H215.795V131.619ZM215.795 138.756H209.123V140.109H216.246V140.971H208.07V137.936H214.729V136.76H208.043V135.898H215.795V138.756ZM225.762 135.693H223.014V137.669C224.354 137.601 225.511 137.493 226.486 137.348L226.568 138.141C225.743 138.291 224.884 138.405 223.991 138.482C223.103 138.555 222.28 138.603 221.523 138.626C220.767 138.644 219.874 138.656 218.844 138.66H218.611L218.461 137.758H218.967C219.432 137.753 219.935 137.749 220.478 137.744C221.024 137.735 221.514 137.724 221.947 137.71V135.693H219.391V130.061H225.707V130.936H220.471V132.426H225.447V133.273H220.471V134.818H225.762V135.693ZM228.359 141.135H227.293V128.953H228.359V141.135ZM239.898 133.971H241.936V134.859H239.898V141.107H238.832V128.953H239.898V133.971ZM237.656 131.797H230.424V130.908H233.555V129.104H234.621V130.908H237.656V131.797ZM234.102 132.809C234.671 132.809 235.182 132.927 235.633 133.164C236.084 133.401 236.437 133.731 236.692 134.155C236.948 134.579 237.077 135.06 237.082 135.598C237.077 136.135 236.948 136.616 236.692 137.04C236.437 137.464 236.084 137.794 235.633 138.031C235.182 138.268 234.671 138.387 234.102 138.387C233.527 138.387 233.012 138.268 232.557 138.031C232.105 137.794 231.752 137.464 231.497 137.04C231.242 136.616 231.117 136.135 231.121 135.598C231.117 135.06 231.242 134.579 231.497 134.155C231.752 133.731 232.105 133.401 232.557 133.164C233.012 132.927 233.527 132.809 234.102 132.809ZM234.102 133.711C233.728 133.711 233.391 133.793 233.09 133.957C232.794 134.117 232.561 134.34 232.393 134.627C232.224 134.914 232.142 135.238 232.146 135.598C232.142 135.962 232.224 136.288 232.393 136.575C232.561 136.858 232.794 137.079 233.09 137.238C233.391 137.398 233.728 137.475 234.102 137.471C234.471 137.475 234.803 137.398 235.1 137.238C235.396 137.079 235.628 136.858 235.797 136.575C235.965 136.288 236.052 135.962 236.057 135.598C236.052 135.238 235.965 134.914 235.797 134.627C235.628 134.34 235.396 134.117 235.1 133.957C234.803 133.793 234.471 133.711 234.102 133.711ZM252.641 141.107H251.561V128.953H252.641V141.107ZM249.045 130.279C249.036 132.116 248.571 133.766 247.65 135.229C246.73 136.687 245.29 137.885 243.33 138.824L242.742 137.949C244.365 137.179 245.606 136.222 246.468 135.078C247.334 133.934 247.828 132.626 247.951 131.154H243.303V130.279H249.045Z" fill="#E8635A"/>
</g>
</g>
</g>
<defs>
<filter id="filter0_dd_219_5822" x="-12" y="-4" width="344" height="197" filterUnits="userSpaceOnUse" color-interpolation-filters="sRGB">
<feFlood flood-opacity="0" result="BackgroundImageFix"/>
<feColorMatrix in="SourceAlpha" type="matrix" values="0 0 0 0 0 0 0 0 0 0 0 0 0 0 0 0 0 0 127 0" result="hardAlpha"/>
<feOffset dy="8"/>
<feGaussianBlur stdDeviation="16"/>
<feColorMatrix type="matrix" values="0 0 0 0 0.118 0 0 0 0 0.157 0 0 0 0 0.133 0 0 0 0.16 0"/>
<feBlend mode="normal" in2="BackgroundImageFix" result="effect1_dropShadow_219_5822"/>
<feColorMatrix in="SourceAlpha" type="matrix" values="0 0 0 0 0 0 0 0 0 0 0 0 0 0 0 0 0 0 127 0" result="hardAlpha"/>
<feOffset dy="2"/>
<feGaussianBlur stdDeviation="4"/>
<feColorMatrix type="matrix" values="0 0 0 0 0.118 0 0 0 0 0.157 0 0 0 0 0.133 0 0 0 0.08 0"/>
<feBlend mode="normal" in2="effect1_dropShadow_219_5822" result="effect2_dropShadow_219_5822"/>
<feBlend mode="normal" in="SourceGraphic" in2="effect2_dropShadow_219_5822" result="shape"/>
</filter>
<clipPath id="clip0_219_5822">
<rect width="280" height="36" fill="white" transform="translate(20 117)"/>
</clipPath>
</defs>
</svg>
