<svg width="320" height="193" viewBox="0 0 320 193" fill="none" xmlns="http://www.w3.org/2000/svg">
<g id="Property 1=Light" filter="url(#filter0_dd_133_4950)">
<path d="M20 36C20 27.1634 27.1634 20 36 20H284C292.837 20 300 27.1634 300 36V137C300 145.837 292.837 153 284 153H36C27.1634 153 20 145.837 20 137V36Z" fill="#FAFAF7"/>
<path d="M36 20.5H284C292.56 20.5 299.5 27.4396 299.5 36V137C299.5 145.56 292.56 152.5 284 152.5H36C27.4396 152.5 20.5 145.56 20.5 137V36C20.5 27.4396 27.4396 20.5 36 20.5Z" stroke="#E2DDD5"/>
<g id="Frame 78">
<path id="&#235;&#161;&#156;&#234;&#183;&#184;&#236;&#149;&#132;&#236;&#155;&#131; &#237;&#149;&#160;&#234;&#185;&#140;&#236;&#154;&#148;?" d="M119.039 62.5469H106.32V61.5156H112.039V58.8906H107.914V54.6094H116.227V52.4219H107.883V51.4062H117.43V55.6094H109.133V57.875H117.758V58.8906H113.242V61.5156H119.039V62.5469ZM131.102 53.25C131.102 54.0469 131.091 54.7422 131.07 55.3359C131.055 55.9297 131.01 56.6224 130.938 57.4141C130.865 58.2057 130.747 59.0677 130.586 60L129.336 59.875C129.508 58.9948 129.635 58.1667 129.719 57.3906C129.802 56.6094 129.852 55.9219 129.867 55.3281C129.888 54.7292 129.898 54.0365 129.898 53.25V52.875H121.523V51.8594H131.102V53.25ZM132.805 62.2188H120.148V61.2031H132.805V62.2188ZM137.695 51.4531C138.378 51.4583 138.982 51.6615 139.508 52.0625C140.039 52.4583 140.453 53.0208 140.75 53.75C141.052 54.4792 141.206 55.3281 141.211 56.2969C141.206 57.2656 141.052 58.1146 140.75 58.8438C140.453 59.5729 140.039 60.1354 139.508 60.5312C138.977 60.9271 138.372 61.125 137.695 61.125C137.013 61.125 136.406 60.9271 135.875 60.5312C135.344 60.1354 134.93 59.5729 134.633 58.8438C134.341 58.1146 134.195 57.2656 134.195 56.2969C134.195 55.3281 134.341 54.4792 134.633 53.75C134.93 53.0208 135.344 52.4583 135.875 52.0625C136.406 51.6615 137.013 51.4583 137.695 51.4531ZM137.695 52.5469C137.237 52.5521 136.831 52.7109 136.477 53.0234C136.122 53.3307 135.846 53.7682 135.648 54.3359C135.451 54.8984 135.352 55.5521 135.352 56.2969C135.352 57.0417 135.451 57.6979 135.648 58.2656C135.846 58.8281 136.122 59.263 136.477 59.5703C136.836 59.8776 137.242 60.0312 137.695 60.0312C138.154 60.0312 138.557 59.8776 138.906 59.5703C139.26 59.263 139.534 58.8281 139.727 58.2656C139.924 57.6979 140.023 57.0417 140.023 56.2969C140.023 55.5521 139.924 54.8984 139.727 54.3359C139.534 53.7682 139.26 53.3307 138.906 53.0234C138.557 52.7109 138.154 52.5521 137.695 52.5469ZM144.727 55.9219H147.055V56.9844H144.727V64.2656H143.508V50.375H144.727V55.9219ZM160.508 57.7812H154.711V59.2969H153.508V57.7812H147.805V56.7188H160.508V57.7812ZM154.727 60.375C154.727 60.8698 154.943 61.3229 155.375 61.7344C155.812 62.1406 156.393 62.4766 157.117 62.7422C157.846 63.0078 158.638 63.1823 159.492 63.2656L159.102 64.2031C157.966 64.0833 156.948 63.8125 156.047 63.3906C155.151 62.974 154.503 62.4401 154.102 61.7891C153.695 62.4349 153.044 62.9688 152.148 63.3906C151.258 63.8125 150.253 64.0833 149.133 64.2031L148.727 63.2656C149.565 63.1823 150.346 63.0078 151.07 62.7422C151.799 62.4714 152.383 62.1328 152.82 61.7266C153.258 61.3151 153.477 60.8646 153.477 60.375V59.9219H154.727V60.375ZM154.133 50.6094C155.148 50.6094 156.023 50.7083 156.758 50.9062C157.492 51.1042 158.055 51.3932 158.445 51.7734C158.841 52.1484 159.039 52.6042 159.039 53.1406C159.039 53.6719 158.841 54.1302 158.445 54.5156C158.055 54.8958 157.49 55.1849 156.75 55.3828C156.016 55.5807 155.143 55.6771 154.133 55.6719C153.122 55.6771 152.247 55.5807 151.508 55.3828C150.768 55.1849 150.201 54.8958 149.805 54.5156C149.409 54.1302 149.211 53.6719 149.211 53.1406C149.211 52.6042 149.409 52.1484 149.805 51.7734C150.201 51.3932 150.766 51.1042 151.5 50.9062C152.24 50.7083 153.117 50.6094 154.133 50.6094ZM154.133 51.5469C153.383 51.5417 152.732 51.6042 152.18 51.7344C151.628 51.8594 151.203 52.0443 150.906 52.2891C150.615 52.5286 150.471 52.8125 150.477 53.1406C150.471 53.4635 150.615 53.7448 150.906 53.9844C151.203 54.224 151.628 54.4062 152.18 54.5312C152.732 54.6562 153.383 54.7188 154.133 54.7188C154.878 54.7188 155.523 54.6562 156.07 54.5312C156.622 54.4062 157.047 54.224 157.344 53.9844C157.641 53.7448 157.789 53.4635 157.789 53.1406C157.789 52.8125 157.641 52.5286 157.344 52.2891C157.047 52.0443 156.622 51.8594 156.07 51.7344C155.523 51.6042 154.878 51.5417 154.133 51.5469ZM176.508 53.7031H178.617V54.7188H176.508V58.0156H175.289V50.3281H176.508V53.7031ZM176.508 61.8125H168.883V63.1719H177.023V64.1094H167.68V60.9062H175.289V59.6562H167.648V58.7344H176.508V61.8125ZM173.961 52.625H165.68V51.6406H169.211V50.2344H170.43V51.6406H173.961V52.625ZM169.82 53.25C170.487 53.25 171.07 53.3438 171.57 53.5312C172.076 53.7135 172.466 53.9766 172.742 54.3203C173.018 54.6641 173.159 55.0677 173.164 55.5312C173.159 55.9948 173.018 56.3984 172.742 56.7422C172.466 57.0859 172.076 57.3516 171.57 57.5391C171.07 57.7214 170.487 57.8125 169.82 57.8125C169.148 57.8125 168.557 57.7214 168.047 57.5391C167.542 57.3516 167.151 57.0859 166.875 56.7422C166.604 56.3984 166.471 55.9948 166.477 55.5312C166.471 55.0677 166.604 54.6641 166.875 54.3203C167.151 53.9766 167.542 53.7135 168.047 53.5312C168.557 53.3438 169.148 53.25 169.82 53.25ZM169.82 54.1562C169.388 54.1562 169.005 54.2135 168.672 54.3281C168.344 54.4427 168.089 54.6042 167.906 54.8125C167.729 55.0208 167.643 55.2604 167.648 55.5312C167.643 55.8073 167.729 56.0495 167.906 56.2578C168.089 56.4609 168.344 56.6172 168.672 56.7266C169 56.8359 169.383 56.8906 169.82 56.8906C170.482 56.8906 171.01 56.7708 171.406 56.5312C171.802 56.2865 172.003 55.9531 172.008 55.5312C172.003 55.2552 171.909 55.0156 171.727 54.8125C171.544 54.6042 171.289 54.4427 170.961 54.3281C170.633 54.2135 170.253 54.1562 169.82 54.1562ZM190.477 56.1094H192.586V57.1406H190.477V64.2656H189.242V50.375H190.477V56.1094ZM183.695 51.8906C183.685 53.7031 183.43 55.3828 182.93 56.9297C182.435 58.4714 181.596 59.8698 180.414 61.125L179.43 60.4219C180.435 59.3958 181.182 58.2578 181.672 57.0078C182.161 55.7526 182.448 54.3906 182.531 52.9219H179.867V51.8906H183.695ZM187.508 51.8906C187.497 53.8698 187.273 55.7135 186.836 57.4219C186.398 59.125 185.591 60.6667 184.414 62.0469L183.414 61.3594C184.419 60.224 185.143 58.9427 185.586 57.5156C186.034 56.0885 186.289 54.5573 186.352 52.9219H184.133V51.8906H187.508ZM206.023 62.4844H193.305V61.4531H196.461V57.7031C195.857 57.3906 195.388 56.9896 195.055 56.5C194.721 56.0052 194.555 55.4479 194.555 54.8281C194.555 54.1198 194.771 53.4974 195.203 52.9609C195.635 52.4193 196.234 52 197 51.7031C197.771 51.4062 198.648 51.2552 199.633 51.25C200.617 51.2552 201.492 51.4062 202.258 51.7031C203.029 52 203.63 52.4193 204.062 52.9609C204.495 53.4974 204.711 54.1198 204.711 54.8281C204.711 55.4375 204.549 55.987 204.227 56.4766C203.904 56.9609 203.451 57.3594 202.867 57.6719V61.4531H206.023V62.4844ZM199.633 52.2656C198.878 52.2604 198.206 52.3646 197.617 52.5781C197.029 52.7917 196.568 53.0938 196.234 53.4844C195.906 53.8698 195.742 54.3177 195.742 54.8281C195.742 55.3385 195.906 55.7917 196.234 56.1875C196.568 56.5781 197.029 56.8828 197.617 57.1016C198.206 57.3151 198.878 57.4219 199.633 57.4219C200.383 57.4219 201.052 57.3125 201.641 57.0938C202.229 56.875 202.69 56.5703 203.023 56.1797C203.357 55.7891 203.523 55.3385 203.523 54.8281C203.523 54.3177 203.357 53.8698 203.023 53.4844C202.69 53.0938 202.229 52.7917 201.641 52.5781C201.052 52.3646 200.383 52.2604 199.633 52.2656ZM201.633 61.4531V58.1484C201.013 58.3099 200.346 58.3906 199.633 58.3906C198.914 58.3906 198.258 58.3125 197.664 58.1562V61.4531H201.633ZM209.352 59.7344C209.357 59.0625 209.424 58.5182 209.555 58.1016C209.69 57.6849 209.878 57.349 210.117 57.0938C210.357 56.8385 210.68 56.5885 211.086 56.3438C211.43 56.1354 211.706 55.8724 211.914 55.5547C212.122 55.2318 212.227 54.8646 212.227 54.4531C212.227 54.1094 212.143 53.8073 211.977 53.5469C211.815 53.2812 211.591 53.0781 211.305 52.9375C211.023 52.7917 210.711 52.7188 210.367 52.7188C210.055 52.7188 209.76 52.7839 209.484 52.9141C209.214 53.0391 208.987 53.2396 208.805 53.5156C208.628 53.7865 208.523 54.125 208.492 54.5312H207.07C207.096 53.9167 207.258 53.3828 207.555 52.9297C207.852 52.4766 208.245 52.1302 208.734 51.8906C209.224 51.651 209.768 51.5312 210.367 51.5312C211.008 51.5312 211.573 51.6615 212.062 51.9219C212.552 52.1771 212.93 52.5312 213.195 52.9844C213.466 53.4375 213.602 53.9479 213.602 54.5156C213.602 55.6667 213.086 56.5573 212.055 57.1875C211.721 57.3906 211.458 57.6016 211.266 57.8203C211.078 58.0391 210.938 58.2995 210.844 58.6016C210.755 58.9036 210.706 59.2812 210.695 59.7344V59.8125H209.352V59.7344ZM210.07 63.0938C209.888 63.0938 209.719 63.0495 209.562 62.9609C209.411 62.8672 209.289 62.7422 209.195 62.5859C209.107 62.4297 209.065 62.2604 209.07 62.0781C209.065 61.901 209.107 61.737 209.195 61.5859C209.289 61.4297 209.411 61.3073 209.562 61.2188C209.719 61.125 209.888 61.0781 210.07 61.0781C210.247 61.0781 210.411 61.125 210.562 61.2188C210.719 61.3073 210.841 61.4297 210.93 61.5859C211.023 61.737 211.07 61.901 211.07 62.0781C211.07 62.2604 211.023 62.4297 210.93 62.5859C210.841 62.7422 210.719 62.8672 210.562 62.9609C210.411 63.0495 210.247 63.0938 210.07 63.0938Z" fill="#1A1A1A"/>
<path id="&#236;&#150;&#184;&#236;&#160;&#156;&#235;&#147;&#160; &#235;&#139;&#164;&#236;&#139;&#156; &#235;&#161;&#156;&#234;&#183;&#184;&#236;&#157;&#184;&#237;&#149;&#160; &#236;&#136;&#152; &#236;&#158;&#136;&#236;&#150;&#180;&#236;&#154;&#148;." d="M88.6079 89.0703H87.605V84.7158H85.2437C85.1717 85.1729 85.0024 85.5791 84.7358 85.9346C84.4692 86.2858 84.1286 86.5609 83.7139 86.7598C83.3034 86.9544 82.8527 87.0518 82.3618 87.0518C81.8032 87.0518 81.3018 86.9333 80.8574 86.6963C80.4131 86.4593 80.064 86.1292 79.8101 85.7061C79.5562 85.2786 79.4292 84.7962 79.4292 84.2588C79.4292 83.7214 79.5562 83.241 79.8101 82.8179C80.064 82.3947 80.4131 82.0667 80.8574 81.834C81.3018 81.597 81.8032 81.4785 82.3618 81.4785C82.8654 81.4785 83.3245 81.5801 83.7393 81.7832C84.1582 81.9821 84.501 82.2656 84.7676 82.6338C85.0342 82.9977 85.1971 83.4167 85.2563 83.8906H87.605V80.7549H88.6079V89.0703ZM88.9253 91.7871H81.3589V88.2197H82.3618V90.9492H88.9253V91.7871ZM82.3618 82.3545C81.9894 82.3587 81.6509 82.4434 81.3462 82.6084C81.0457 82.7692 80.8088 82.9935 80.6353 83.2812C80.466 83.569 80.3813 83.8949 80.3813 84.2588C80.3813 84.627 80.466 84.957 80.6353 85.249C80.8088 85.5368 81.0457 85.7653 81.3462 85.9346C81.6509 86.0996 81.9894 86.1842 82.3618 86.1885C82.7257 86.1842 83.0558 86.0996 83.3521 85.9346C83.6525 85.7653 83.8874 85.5347 84.0566 85.2427C84.2301 84.9507 84.3169 84.6227 84.3169 84.2588C84.3169 83.8949 84.2301 83.569 84.0566 83.2812C83.8874 82.9935 83.6525 82.7692 83.3521 82.6084C83.0558 82.4434 82.7257 82.3587 82.3618 82.3545ZM100.135 92.0283H99.1831V80.7422H100.135V92.0283ZM97.8501 91.4443H96.9106V85.6299H95.0063V84.8174H96.9106V81.0215H97.8501V91.4443ZM93.8003 83.9668C93.8003 84.6227 93.8955 85.2638 94.0859 85.8901C94.2764 86.5122 94.5557 87.075 94.9238 87.5786C95.292 88.078 95.73 88.4736 96.2378 88.7656L95.6284 89.502C95.0825 89.1761 94.6149 88.7254 94.2256 88.1499C93.8363 87.5701 93.54 86.9142 93.3369 86.1821C93.1296 86.9735 92.8228 87.6823 92.4165 88.3086C92.0145 88.9349 91.5363 89.4215 90.9819 89.7686L90.3472 89.0195C90.8592 88.7148 91.3035 88.298 91.6802 87.769C92.0568 87.2401 92.3424 86.6476 92.5371 85.9917C92.736 85.3315 92.8354 84.6566 92.8354 83.9668V82.9004H90.6646V82.0752H95.8696V82.9004H93.8003V83.9668ZM112.018 87.2549H101.722V86.4424H112.018V87.2549ZM110.837 85.1982H103.03V81.2373H110.736V82.0498H104.02V84.373H110.837V85.1982ZM110.926 91.7744H103.055V88.4736H104.045V90.9365H110.926V91.7744ZM124.955 85.2109H126.846V86.0488H124.955V92.0537H123.964V80.7422H124.955V85.2109ZM121.984 82.6719H117.706V88.3848C118.759 88.3848 119.68 88.3551 120.467 88.2959C121.254 88.2367 122.056 88.1309 122.873 87.9785L123 88.8418C122.166 88.9941 121.347 89.0957 120.543 89.1465C119.739 89.1973 118.759 89.2227 117.604 89.2227H116.715V81.8467H121.984V82.6719ZM131.467 83.7764C131.463 84.445 131.598 85.1094 131.874 85.7695C132.149 86.4255 132.521 87.0094 132.991 87.5215C133.46 88.0335 133.972 88.4144 134.527 88.6641L133.917 89.4512C133.274 89.1338 132.69 88.6619 132.166 88.0356C131.645 87.4051 131.251 86.6899 130.985 85.8901C130.722 86.7407 130.329 87.5024 129.804 88.1753C129.279 88.8439 128.687 89.3454 128.027 89.6797L127.392 88.8418C127.946 88.5837 128.458 88.1922 128.928 87.6675C129.398 87.1385 129.772 86.5334 130.052 85.8521C130.331 85.1665 130.473 84.4746 130.477 83.7764V81.7197H131.467V83.7764ZM136.761 92.0537H135.758V80.7422H136.761V92.0537ZM152.288 90.6318H141.954V89.7939H146.6V87.6611H143.249V84.1826H150.002V82.4053H143.223V81.5801H150.98V84.9951H144.239V86.8359H151.247V87.6611H147.578V89.7939H152.288V90.6318ZM162.088 83.0781C162.088 83.7256 162.08 84.2905 162.063 84.7729C162.05 85.2554 162.014 85.8182 161.955 86.4614C161.896 87.1047 161.801 87.805 161.669 88.5625L160.654 88.4609C160.793 87.7458 160.897 87.0729 160.965 86.4424C161.033 85.8076 161.073 85.249 161.085 84.7666C161.102 84.2799 161.111 83.7171 161.111 83.0781V82.7734H154.306V81.9482H162.088V83.0781ZM163.472 90.3652H153.189V89.54H163.472V90.3652ZM173.743 89.0068H172.752V80.7549H173.743V89.0068ZM174.098 91.7871H166.456V88.1689H167.446V90.9492H174.098V91.7871ZM167.649 81.542C168.208 81.542 168.711 81.6605 169.16 81.8975C169.612 82.1302 169.966 82.4582 170.22 82.8813C170.478 83.3003 170.607 83.7764 170.607 84.3096C170.607 84.8512 170.478 85.3337 170.22 85.7568C169.966 86.1758 169.612 86.5037 169.16 86.7407C168.711 86.9735 168.208 87.0898 167.649 87.0898C167.09 87.0898 166.585 86.9735 166.132 86.7407C165.683 86.5037 165.33 86.1758 165.072 85.7568C164.818 85.3337 164.691 84.8512 164.691 84.3096C164.691 83.7764 164.818 83.3003 165.072 82.8813C165.33 82.4582 165.683 82.1302 166.132 81.8975C166.585 81.6605 167.09 81.542 167.649 81.542ZM167.649 82.418C167.272 82.418 166.932 82.4984 166.627 82.6592C166.326 82.82 166.09 83.0443 165.916 83.332C165.747 83.6198 165.664 83.9456 165.668 84.3096C165.664 84.6777 165.747 85.0078 165.916 85.2998C166.09 85.5876 166.326 85.8118 166.627 85.9727C166.932 86.1335 167.272 86.2139 167.649 86.2139C168.017 86.2139 168.351 86.1335 168.652 85.9727C168.957 85.8118 169.196 85.5876 169.369 85.2998C169.543 85.0078 169.629 84.6777 169.629 84.3096C169.629 83.9499 169.543 83.6261 169.369 83.3384C169.196 83.0506 168.957 82.8263 168.652 82.6655C168.351 82.5005 168.017 82.418 167.649 82.418ZM184.483 83.4463H186.197V84.2715H184.483V86.9502H183.493V80.7041H184.483V83.4463ZM184.483 90.0352H178.288V91.1396H184.902V91.9014H177.31V89.2988H183.493V88.2832H177.285V87.5342H184.483V90.0352ZM182.414 82.5703H175.685V81.7705H178.554V80.6279H179.544V81.7705H182.414V82.5703ZM179.049 83.0781C179.591 83.0781 180.065 83.1543 180.471 83.3066C180.882 83.4548 181.199 83.6685 181.423 83.9478C181.648 84.2271 181.762 84.555 181.766 84.9316C181.762 85.3083 181.648 85.6362 181.423 85.9155C181.199 86.1948 180.882 86.4106 180.471 86.563C180.065 86.7111 179.591 86.7852 179.049 86.7852C178.503 86.7852 178.023 86.7111 177.608 86.563C177.198 86.4106 176.881 86.1948 176.656 85.9155C176.436 85.6362 176.328 85.3083 176.333 84.9316C176.328 84.555 176.436 84.2271 176.656 83.9478C176.881 83.6685 177.198 83.4548 177.608 83.3066C178.023 83.1543 178.503 83.0781 179.049 83.0781ZM179.049 83.8145C178.698 83.8145 178.387 83.861 178.116 83.9541C177.85 84.0472 177.642 84.1784 177.494 84.3477C177.35 84.5169 177.28 84.7116 177.285 84.9316C177.28 85.1559 177.35 85.3527 177.494 85.522C177.642 85.687 177.85 85.814 178.116 85.9028C178.383 85.9917 178.694 86.0361 179.049 86.0361C179.587 86.0361 180.016 85.9388 180.338 85.7441C180.66 85.5452 180.822 85.2744 180.827 84.9316C180.822 84.7074 180.746 84.5127 180.598 84.3477C180.45 84.1784 180.243 84.0472 179.976 83.9541C179.709 83.861 179.401 83.8145 179.049 83.8145ZM195.82 81.7959C195.82 82.3037 196.017 82.7904 196.41 83.2559C196.808 83.7214 197.324 84.1128 197.959 84.4302C198.594 84.7476 199.252 84.9528 199.933 85.0459L199.527 85.8584C198.934 85.7611 198.361 85.5918 197.807 85.3506C197.252 85.1051 196.757 84.8005 196.321 84.4365C195.885 84.0684 195.549 83.66 195.312 83.2114C195.079 83.66 194.743 84.0684 194.303 84.4365C193.867 84.8005 193.372 85.1051 192.817 85.3506C192.263 85.5918 191.69 85.7611 191.097 85.8584L190.691 85.0459C191.376 84.9528 192.035 84.7497 192.665 84.4365C193.296 84.1191 193.808 83.7298 194.201 83.2686C194.595 82.8031 194.792 82.3122 194.792 81.7959V81.1484H195.82V81.7959ZM200.441 87.9404H195.769V92.0283H194.792V87.9404H190.158V87.1025H200.441V87.9404ZM208.477 88.3213C208.477 88.8418 208.615 89.3433 208.89 89.8257C209.169 90.3081 209.567 90.6953 210.083 90.9873C210.426 90.7715 210.722 90.5133 210.972 90.2129C211.221 89.9082 211.41 89.5929 211.537 89.2671C211.664 88.937 211.727 88.6217 211.727 88.3213V87.6992H212.705V88.3213C212.705 88.7106 212.796 89.0915 212.978 89.4639C213.164 89.832 213.43 90.1642 213.777 90.4604C214.124 90.7524 214.533 90.9788 215.002 91.1396L214.507 91.876C213.953 91.6813 213.479 91.3978 213.085 91.0254C212.692 90.653 212.396 90.2256 212.197 89.7432C212.011 90.2256 211.742 90.6636 211.391 91.0571C211.039 91.4507 210.614 91.7533 210.115 91.9648C209.586 91.7617 209.141 91.4676 208.782 91.0825C208.426 90.7017 208.16 90.2637 207.982 89.7686C207.775 90.2383 207.478 90.6572 207.093 91.0254C206.708 91.3936 206.251 91.6771 205.722 91.876L205.214 91.1396C205.676 90.9661 206.078 90.7292 206.42 90.4287C206.767 90.124 207.034 89.7876 207.22 89.4194C207.411 89.0513 207.508 88.6852 207.512 88.3213V87.6992H208.477V88.3213ZM213.974 87.2041H212.984V80.7549H213.974V87.2041ZM207.88 81.415C208.447 81.415 208.955 81.5272 209.404 81.7515C209.852 81.9715 210.204 82.2826 210.458 82.6846C210.711 83.0824 210.838 83.5394 210.838 84.0557C210.838 84.5635 210.711 85.0163 210.458 85.4141C210.204 85.8118 209.852 86.1208 209.404 86.3408C208.955 86.5609 208.447 86.6709 207.88 86.6709C207.313 86.6709 206.806 86.5609 206.357 86.3408C205.908 86.1208 205.557 85.8118 205.303 85.4141C205.049 85.0163 204.922 84.5635 204.922 84.0557C204.922 83.5394 205.049 83.0824 205.303 82.6846C205.557 82.2826 205.908 81.9715 206.357 81.7515C206.806 81.5272 207.313 81.415 207.88 81.415ZM207.88 82.2656C207.5 82.2614 207.157 82.3354 206.852 82.4878C206.552 82.6401 206.317 82.8538 206.147 83.1289C205.978 83.3997 205.896 83.7087 205.9 84.0557C205.896 84.3984 205.978 84.7052 206.147 84.9761C206.317 85.2469 206.552 85.4585 206.852 85.6108C207.157 85.7632 207.5 85.8415 207.88 85.8457C208.257 85.8415 208.596 85.7632 208.896 85.6108C209.196 85.4585 209.431 85.2469 209.601 84.9761C209.774 84.7052 209.861 84.3984 209.861 84.0557C209.861 83.7087 209.774 83.3997 209.601 83.1289C209.431 82.8538 209.196 82.6401 208.896 82.4878C208.596 82.3354 208.257 82.2614 207.88 82.2656ZM218.925 81.6182C219.433 81.6224 219.888 81.7642 220.29 82.0435C220.696 82.3228 221.024 82.7205 221.274 83.2368C221.524 83.7531 221.674 84.3604 221.725 85.0586H224.257V80.7422H225.248V92.0537H224.257V85.8838H221.737C221.699 86.6117 221.557 87.2464 221.312 87.7881C221.067 88.3298 220.736 88.7466 220.322 89.0386C219.911 89.3306 219.446 89.4766 218.925 89.4766C218.375 89.4766 217.884 89.3158 217.453 88.9941C217.025 88.6725 216.691 88.2155 216.45 87.623C216.213 87.0306 216.094 86.3408 216.094 85.5537C216.094 84.7666 216.213 84.0768 216.45 83.4844C216.691 82.8919 217.025 82.4349 217.453 82.1133C217.88 81.7874 218.371 81.6224 218.925 81.6182ZM218.925 82.5068C218.557 82.5111 218.229 82.6401 217.941 82.894C217.658 83.1437 217.438 83.4992 217.281 83.9604C217.125 84.4175 217.046 84.9486 217.046 85.5537C217.046 86.1589 217.125 86.6921 217.281 87.1533C217.438 87.6104 217.658 87.9637 217.941 88.2134C218.229 88.4631 218.557 88.5879 218.925 88.5879C219.289 88.5879 219.613 88.4631 219.896 88.2134C220.184 87.9637 220.406 87.6104 220.563 87.1533C220.724 86.6921 220.804 86.1589 220.804 85.5537C220.804 84.9486 220.724 84.4175 220.563 83.9604C220.406 83.4992 220.186 83.1437 219.903 82.894C219.619 82.6401 219.293 82.5111 218.925 82.5068ZM237.46 90.5811H227.126V89.7432H229.691V86.6963C229.2 86.4424 228.819 86.1165 228.548 85.7188C228.278 85.3167 228.142 84.8639 228.142 84.3604C228.142 83.7848 228.318 83.2791 228.669 82.8433C229.02 82.4032 229.507 82.0625 230.129 81.8213C230.755 81.5801 231.468 81.4574 232.268 81.4531C233.068 81.4574 233.779 81.5801 234.401 81.8213C235.027 82.0625 235.516 82.4032 235.867 82.8433C236.218 83.2791 236.394 83.7848 236.394 84.3604C236.394 84.8555 236.263 85.3019 236 85.6997C235.738 86.0933 235.37 86.417 234.896 86.6709V89.7432H237.46V90.5811ZM232.268 82.2783C231.654 82.2741 231.109 82.3587 230.63 82.5322C230.152 82.7057 229.778 82.9512 229.507 83.2686C229.24 83.5817 229.107 83.9456 229.107 84.3604C229.107 84.7751 229.24 85.1432 229.507 85.4648C229.778 85.7822 230.152 86.0298 230.63 86.2075C231.109 86.381 231.654 86.4678 232.268 86.4678C232.877 86.4678 233.421 86.3789 233.899 86.2012C234.378 86.0234 234.752 85.7759 235.023 85.4585C235.294 85.1411 235.429 84.7751 235.429 84.3604C235.429 83.9456 235.294 83.5817 235.023 83.2686C234.752 82.9512 234.378 82.7057 233.899 82.5322C233.421 82.3587 232.877 82.2741 232.268 82.2783ZM233.893 89.7432V87.0581C233.389 87.1893 232.848 87.2549 232.268 87.2549C231.684 87.2549 231.151 87.1914 230.668 87.0645V89.7432H233.893ZM239.555 91.0762C239.407 91.0762 239.27 91.0402 239.143 90.9683C239.02 90.8921 238.92 90.7905 238.844 90.6636C238.772 90.5366 238.738 90.3991 238.743 90.251C238.738 90.1071 238.772 89.9738 238.844 89.8511C238.92 89.7241 239.02 89.6247 239.143 89.5527C239.27 89.4766 239.407 89.4385 239.555 89.4385C239.699 89.4385 239.832 89.4766 239.955 89.5527C240.082 89.6247 240.181 89.7241 240.253 89.8511C240.33 89.9738 240.368 90.1071 240.368 90.251C240.368 90.3991 240.33 90.5366 240.253 90.6636C240.181 90.7905 240.082 90.8921 239.955 90.9683C239.832 91.0402 239.699 91.0762 239.555 91.0762Z" fill="#7A7873"/>
</g>
<g id="Frame 79">
<path id="Vector" d="M20 117H300" stroke="#E2DDD5" stroke-width="0.5"/>
<g id="Frame 127">
<path id="&#236;&#183;&#168;&#236;&#134;&#140;" d="M82.9727 131.25C82.9727 131.651 83.0957 132.032 83.3418 132.392C83.5924 132.747 83.9388 133.057 84.3809 133.321C84.8275 133.581 85.3379 133.775 85.9121 133.902L85.4746 134.764C84.7728 134.595 84.1621 134.331 83.6426 133.971C83.123 133.611 82.7288 133.185 82.46 132.692C82.2002 133.23 81.806 133.693 81.2773 134.08C80.7487 134.467 80.1243 134.75 79.4043 134.928L78.9395 134.066C79.5182 133.939 80.0309 133.736 80.4775 133.458C80.9287 133.18 81.2796 132.85 81.5303 132.467C81.7809 132.084 81.9062 131.678 81.9062 131.25V131.195H79.1992V130.348H81.9062V128.994H82.9727V130.348H85.6797V131.195H82.9727V131.25ZM88.4141 141.121H87.3613V128.967H88.4141V141.121ZM78.3652 135.789C79.9147 135.789 81.3525 135.766 82.6787 135.721C84.0094 135.671 85.2741 135.57 86.4727 135.42L86.541 136.199C85.4746 136.372 84.2943 136.498 83 136.575V140.752H81.9336V136.63C81.013 136.671 79.8737 136.691 78.5156 136.691L78.3652 135.789ZM101.621 139.521H90.4922V138.633H95.4688V135.652H96.5215V138.633H101.621V139.521ZM96.5488 130.717C96.5488 131.364 96.7721 131.986 97.2188 132.583C97.6699 133.18 98.2441 133.686 98.9414 134.101C99.6432 134.511 100.354 134.777 101.074 134.9L100.596 135.789C99.9668 135.661 99.3493 135.44 98.7432 135.126C98.137 134.812 97.5902 134.42 97.1025 133.95C96.6195 133.481 96.2503 132.964 95.9951 132.398C95.7399 132.964 95.3708 133.481 94.8877 133.95C94.4046 134.42 93.86 134.812 93.2539 135.126C92.6523 135.44 92.0371 135.661 91.4082 135.789L90.9297 134.9C91.6497 134.777 92.3561 134.511 93.0488 134.101C93.7461 133.686 94.3158 133.182 94.7578 132.59C95.2044 131.993 95.4277 131.368 95.4277 130.717V129.787H96.5488V130.717Z" fill="#7A7873"/>
<path id="Vector_2" d="M160 117V153" stroke="#E2DDD5" stroke-width="0.5"/>
<path id="&#235;&#161;&#156;&#234;&#183;&#184;&#236;&#149;&#132;&#236;&#155;&#131;" d="M217.422 139.604H206.293V138.701H211.297V136.404H207.688V132.658H214.961V130.744H207.66V129.855H216.014V133.533H208.754V135.516H216.301V136.404H212.35V138.701H217.422V139.604ZM227.977 131.469C227.977 132.166 227.967 132.774 227.949 133.294C227.936 133.813 227.897 134.42 227.833 135.112C227.769 135.805 227.667 136.559 227.525 137.375L226.432 137.266C226.582 136.495 226.694 135.771 226.767 135.092C226.84 134.408 226.883 133.807 226.896 133.287C226.915 132.763 226.924 132.157 226.924 131.469V131.141H219.596V130.252H227.977V131.469ZM229.467 139.316H218.393V138.428H229.467V139.316ZM233.746 129.896C234.343 129.901 234.872 130.079 235.332 130.43C235.797 130.776 236.159 131.268 236.419 131.906C236.683 132.544 236.818 133.287 236.822 134.135C236.818 134.982 236.683 135.725 236.419 136.363C236.159 137.001 235.797 137.493 235.332 137.84C234.867 138.186 234.339 138.359 233.746 138.359C233.149 138.359 232.618 138.186 232.153 137.84C231.688 137.493 231.326 137.001 231.066 136.363C230.811 135.725 230.684 134.982 230.684 134.135C230.684 133.287 230.811 132.544 231.066 131.906C231.326 131.268 231.688 130.776 232.153 130.43C232.618 130.079 233.149 129.901 233.746 129.896ZM233.746 130.854C233.345 130.858 232.99 130.997 232.68 131.271C232.37 131.539 232.128 131.922 231.955 132.419C231.782 132.911 231.695 133.483 231.695 134.135C231.695 134.786 231.782 135.361 231.955 135.857C232.128 136.35 232.37 136.73 232.68 136.999C232.994 137.268 233.35 137.402 233.746 137.402C234.147 137.402 234.5 137.268 234.806 136.999C235.116 136.73 235.355 136.35 235.523 135.857C235.697 135.361 235.783 134.786 235.783 134.135C235.783 133.483 235.697 132.911 235.523 132.419C235.355 131.922 235.116 131.539 234.806 131.271C234.5 130.997 234.147 130.858 233.746 130.854ZM239.898 133.807H241.936V134.736H239.898V141.107H238.832V128.953H239.898V133.807ZM253.707 135.434H248.635V136.76H247.582V135.434H242.592V134.504H253.707V135.434ZM248.648 137.703C248.648 138.136 248.838 138.533 249.216 138.893C249.599 139.248 250.107 139.542 250.74 139.774C251.378 140.007 252.071 140.16 252.818 140.232L252.477 141.053C251.483 140.948 250.592 140.711 249.804 140.342C249.02 139.977 248.452 139.51 248.102 138.94C247.746 139.506 247.176 139.973 246.393 140.342C245.613 140.711 244.734 140.948 243.754 141.053L243.398 140.232C244.132 140.16 244.816 140.007 245.449 139.774C246.087 139.537 246.598 139.241 246.98 138.886C247.363 138.526 247.555 138.132 247.555 137.703V137.307H248.648V137.703ZM248.129 129.158C249.018 129.158 249.783 129.245 250.426 129.418C251.068 129.591 251.561 129.844 251.902 130.177C252.249 130.505 252.422 130.904 252.422 131.373C252.422 131.838 252.249 132.239 251.902 132.576C251.561 132.909 251.066 133.162 250.419 133.335C249.776 133.508 249.013 133.592 248.129 133.588C247.245 133.592 246.479 133.508 245.832 133.335C245.185 133.162 244.688 132.909 244.342 132.576C243.995 132.239 243.822 131.838 243.822 131.373C243.822 130.904 243.995 130.505 244.342 130.177C244.688 129.844 245.183 129.591 245.825 129.418C246.472 129.245 247.24 129.158 248.129 129.158ZM248.129 129.979C247.473 129.974 246.903 130.029 246.42 130.143C245.937 130.252 245.565 130.414 245.306 130.628C245.05 130.838 244.925 131.086 244.93 131.373C244.925 131.656 245.05 131.902 245.306 132.111C245.565 132.321 245.937 132.48 246.42 132.59C246.903 132.699 247.473 132.754 248.129 132.754C248.781 132.754 249.346 132.699 249.824 132.59C250.307 132.48 250.679 132.321 250.938 132.111C251.198 131.902 251.328 131.656 251.328 131.373C251.328 131.086 251.198 130.838 250.938 130.628C250.679 130.414 250.307 130.252 249.824 130.143C249.346 130.029 248.781 129.974 248.129 129.979Z" fill="#E8635A"/>
</g>
</g>
</g>
<defs>
<filter id="filter0_dd_133_4950" x="-12" y="-4" width="344" height="197" filterUnits="userSpaceOnUse" color-interpolation-filters="sRGB">
<feFlood flood-opacity="0" result="BackgroundImageFix"/>
<feColorMatrix in="SourceAlpha" type="matrix" values="0 0 0 0 0 0 0 0 0 0 0 0 0 0 0 0 0 0 127 0" result="hardAlpha"/>
<feOffset dy="8"/>
<feGaussianBlur stdDeviation="16"/>
<feColorMatrix type="matrix" values="0 0 0 0 0.118 0 0 0 0 0.157 0 0 0 0 0.133 0 0 0 0.16 0"/>
<feBlend mode="normal" in2="BackgroundImageFix" result="effect1_dropShadow_133_4950"/>
<feColorMatrix in="SourceAlpha" type="matrix" values="0 0 0 0 0 0 0 0 0 0 0 0 0 0 0 0 0 0 127 0" result="hardAlpha"/>
<feOffset dy="2"/>
<feGaussianBlur stdDeviation="4"/>
<feColorMatrix type="matrix" values="0 0 0 0 0.118 0 0 0 0 0.157 0 0 0 0 0.133 0 0 0 0.08 0"/>
<feBlend mode="normal" in2="effect1_dropShadow_133_4950" result="effect2_dropShadow_133_4950"/>
<feBlend mode="normal" in="SourceGraphic" in2="effect2_dropShadow_133_4950" result="shape"/>
</filter>
</defs>
</svg>
