<svg width="320" height="177" viewBox="0 0 320 177" fill="none" xmlns="http://www.w3.org/2000/svg">
<g id="Property 1=Dark" filter="url(#filter0_dd_133_4972)">
<path d="M20 40C20 31.1634 27.1634 24 36 24H284C292.837 24 300 31.1634 300 40V141C300 149.837 292.837 157 284 157H36C27.1634 157 20 149.837 20 141V40Z" fill="#262B28"/>
<path d="M36 24.5H284C292.56 24.5 299.5 31.4396 299.5 40V141C299.5 149.56 292.56 156.5 284 156.5H36C27.4396 156.5 20.5 149.56 20.5 141V40C20.5 31.4396 27.4396 24.5 36 24.5Z" stroke="#373F3B"/>
<g id="Frame 78">
<path id="&#235;&#161;&#156;&#234;&#183;&#184;&#236;&#149;&#132;&#236;&#155;&#131; &#237;&#149;&#160;&#234;&#185;&#140;&#236;&#154;&#148;?" d="M119.039 66.5469H106.32V65.5156H112.039V62.8906H107.914V58.6094H116.227V56.4219H107.883V55.4062H117.43V59.6094H109.133V61.875H117.758V62.8906H113.242V65.5156H119.039V66.5469ZM131.102 57.25C131.102 58.0469 131.091 58.7422 131.07 59.3359C131.055 59.9297 131.01 60.6224 130.938 61.4141C130.865 62.2057 130.747 63.0677 130.586 64L129.336 63.875C129.508 62.9948 129.635 62.1667 129.719 61.3906C129.802 60.6094 129.852 59.9219 129.867 59.3281C129.888 58.7292 129.898 58.0365 129.898 57.25V56.875H121.523V55.8594H131.102V57.25ZM132.805 66.2188H120.148V65.2031H132.805V66.2188ZM137.695 55.4531C138.378 55.4583 138.982 55.6615 139.508 56.0625C140.039 56.4583 140.453 57.0208 140.75 57.75C141.052 58.4792 141.206 59.3281 141.211 60.2969C141.206 61.2656 141.052 62.1146 140.75 62.8438C140.453 63.5729 140.039 64.1354 139.508 64.5312C138.977 64.9271 138.372 65.125 137.695 65.125C137.013 65.125 136.406 64.9271 135.875 64.5312C135.344 64.1354 134.93 63.5729 134.633 62.8438C134.341 62.1146 134.195 61.2656 134.195 60.2969C134.195 59.3281 134.341 58.4792 134.633 57.75C134.93 57.0208 135.344 56.4583 135.875 56.0625C136.406 55.6615 137.013 55.4583 137.695 55.4531ZM137.695 56.5469C137.237 56.5521 136.831 56.7109 136.477 57.0234C136.122 57.3307 135.846 57.7682 135.648 58.3359C135.451 58.8984 135.352 59.5521 135.352 60.2969C135.352 61.0417 135.451 61.6979 135.648 62.2656C135.846 62.8281 136.122 63.263 136.477 63.5703C136.836 63.8776 137.242 64.0312 137.695 64.0312C138.154 64.0312 138.557 63.8776 138.906 63.5703C139.26 63.263 139.534 62.8281 139.727 62.2656C139.924 61.6979 140.023 61.0417 140.023 60.2969C140.023 59.5521 139.924 58.8984 139.727 58.3359C139.534 57.7682 139.26 57.3307 138.906 57.0234C138.557 56.7109 138.154 56.5521 137.695 56.5469ZM144.727 59.9219H147.055V60.9844H144.727V68.2656H143.508V54.375H144.727V59.9219ZM160.508 61.7812H154.711V63.2969H153.508V61.7812H147.805V60.7188H160.508V61.7812ZM154.727 64.375C154.727 64.8698 154.943 65.3229 155.375 65.7344C155.812 66.1406 156.393 66.4766 157.117 66.7422C157.846 67.0078 158.638 67.1823 159.492 67.2656L159.102 68.2031C157.966 68.0833 156.948 67.8125 156.047 67.3906C155.151 66.974 154.503 66.4401 154.102 65.7891C153.695 66.4349 153.044 66.9688 152.148 67.3906C151.258 67.8125 150.253 68.0833 149.133 68.2031L148.727 67.2656C149.565 67.1823 150.346 67.0078 151.07 66.7422C151.799 66.4714 152.383 66.1328 152.82 65.7266C153.258 65.3151 153.477 64.8646 153.477 64.375V63.9219H154.727V64.375ZM154.133 54.6094C155.148 54.6094 156.023 54.7083 156.758 54.9062C157.492 55.1042 158.055 55.3932 158.445 55.7734C158.841 56.1484 159.039 56.6042 159.039 57.1406C159.039 57.6719 158.841 58.1302 158.445 58.5156C158.055 58.8958 157.49 59.1849 156.75 59.3828C156.016 59.5807 155.143 59.6771 154.133 59.6719C153.122 59.6771 152.247 59.5807 151.508 59.3828C150.768 59.1849 150.201 58.8958 149.805 58.5156C149.409 58.1302 149.211 57.6719 149.211 57.1406C149.211 56.6042 149.409 56.1484 149.805 55.7734C150.201 55.3932 150.766 55.1042 151.5 54.9062C152.24 54.7083 153.117 54.6094 154.133 54.6094ZM154.133 55.5469C153.383 55.5417 152.732 55.6042 152.18 55.7344C151.628 55.8594 151.203 56.0443 150.906 56.2891C150.615 56.5286 150.471 56.8125 150.477 57.1406C150.471 57.4635 150.615 57.7448 150.906 57.9844C151.203 58.224 151.628 58.4062 152.18 58.5312C152.732 58.6562 153.383 58.7188 154.133 58.7188C154.878 58.7188 155.523 58.6562 156.07 58.5312C156.622 58.4062 157.047 58.224 157.344 57.9844C157.641 57.7448 157.789 57.4635 157.789 57.1406C157.789 56.8125 157.641 56.5286 157.344 56.2891C157.047 56.0443 156.622 55.8594 156.07 55.7344C155.523 55.6042 154.878 55.5417 154.133 55.5469ZM176.508 57.7031H178.617V58.7188H176.508V62.0156H175.289V54.3281H176.508V57.7031ZM176.508 65.8125H168.883V67.1719H177.023V68.1094H167.68V64.9062H175.289V63.6562H167.648V62.7344H176.508V65.8125ZM173.961 56.625H165.68V55.6406H169.211V54.2344H170.43V55.6406H173.961V56.625ZM169.82 57.25C170.487 57.25 171.07 57.3438 171.57 57.5312C172.076 57.7135 172.466 57.9766 172.742 58.3203C173.018 58.6641 173.159 59.0677 173.164 59.5312C173.159 59.9948 173.018 60.3984 172.742 60.7422C172.466 61.0859 172.076 61.3516 171.57 61.5391C171.07 61.7214 170.487 61.8125 169.82 61.8125C169.148 61.8125 168.557 61.7214 168.047 61.5391C167.542 61.3516 167.151 61.0859 166.875 60.7422C166.604 60.3984 166.471 59.9948 166.477 59.5312C166.471 59.0677 166.604 58.6641 166.875 58.3203C167.151 57.9766 167.542 57.7135 168.047 57.5312C168.557 57.3438 169.148 57.25 169.82 57.25ZM169.82 58.1562C169.388 58.1562 169.005 58.2135 168.672 58.3281C168.344 58.4427 168.089 58.6042 167.906 58.8125C167.729 59.0208 167.643 59.2604 167.648 59.5312C167.643 59.8073 167.729 60.0495 167.906 60.2578C168.089 60.4609 168.344 60.6172 168.672 60.7266C169 60.8359 169.383 60.8906 169.82 60.8906C170.482 60.8906 171.01 60.7708 171.406 60.5312C171.802 60.2865 172.003 59.9531 172.008 59.5312C172.003 59.2552 171.909 59.0156 171.727 58.8125C171.544 58.6042 171.289 58.4427 170.961 58.3281C170.633 58.2135 170.253 58.1562 169.82 58.1562ZM190.477 60.1094H192.586V61.1406H190.477V68.2656H189.242V54.375H190.477V60.1094ZM183.695 55.8906C183.685 57.7031 183.43 59.3828 182.93 60.9297C182.435 62.4714 181.596 63.8698 180.414 65.125L179.43 64.4219C180.435 63.3958 181.182 62.2578 181.672 61.0078C182.161 59.7526 182.448 58.3906 182.531 56.9219H179.867V55.8906H183.695ZM187.508 55.8906C187.497 57.8698 187.273 59.7135 186.836 61.4219C186.398 63.125 185.591 64.6667 184.414 66.0469L183.414 65.3594C184.419 64.224 185.143 62.9427 185.586 61.5156C186.034 60.0885 186.289 58.5573 186.352 56.9219H184.133V55.8906H187.508ZM206.023 66.4844H193.305V65.4531H196.461V61.7031C195.857 61.3906 195.388 60.9896 195.055 60.5C194.721 60.0052 194.555 59.4479 194.555 58.8281C194.555 58.1198 194.771 57.4974 195.203 56.9609C195.635 56.4193 196.234 56 197 55.7031C197.771 55.4062 198.648 55.2552 199.633 55.25C200.617 55.2552 201.492 55.4062 202.258 55.7031C203.029 56 203.63 56.4193 204.062 56.9609C204.495 57.4974 204.711 58.1198 204.711 58.8281C204.711 59.4375 204.549 59.987 204.227 60.4766C203.904 60.9609 203.451 61.3594 202.867 61.6719V65.4531H206.023V66.4844ZM199.633 56.2656C198.878 56.2604 198.206 56.3646 197.617 56.5781C197.029 56.7917 196.568 57.0938 196.234 57.4844C195.906 57.8698 195.742 58.3177 195.742 58.8281C195.742 59.3385 195.906 59.7917 196.234 60.1875C196.568 60.5781 197.029 60.8828 197.617 61.1016C198.206 61.3151 198.878 61.4219 199.633 61.4219C200.383 61.4219 201.052 61.3125 201.641 61.0938C202.229 60.875 202.69 60.5703 203.023 60.1797C203.357 59.7891 203.523 59.3385 203.523 58.8281C203.523 58.3177 203.357 57.8698 203.023 57.4844C202.69 57.0938 202.229 56.7917 201.641 56.5781C201.052 56.3646 200.383 56.2604 199.633 56.2656ZM201.633 65.4531V62.1484C201.013 62.3099 200.346 62.3906 199.633 62.3906C198.914 62.3906 198.258 62.3125 197.664 62.1562V65.4531H201.633ZM209.352 63.7344C209.357 63.0625 209.424 62.5182 209.555 62.1016C209.69 61.6849 209.878 61.349 210.117 61.0938C210.357 60.8385 210.68 60.5885 211.086 60.3438C211.43 60.1354 211.706 59.8724 211.914 59.5547C212.122 59.2318 212.227 58.8646 212.227 58.4531C212.227 58.1094 212.143 57.8073 211.977 57.5469C211.815 57.2812 211.591 57.0781 211.305 56.9375C211.023 56.7917 210.711 56.7188 210.367 56.7188C210.055 56.7188 209.76 56.7839 209.484 56.9141C209.214 57.0391 208.987 57.2396 208.805 57.5156C208.628 57.7865 208.523 58.125 208.492 58.5312H207.07C207.096 57.9167 207.258 57.3828 207.555 56.9297C207.852 56.4766 208.245 56.1302 208.734 55.8906C209.224 55.651 209.768 55.5312 210.367 55.5312C211.008 55.5312 211.573 55.6615 212.062 55.9219C212.552 56.1771 212.93 56.5312 213.195 56.9844C213.466 57.4375 213.602 57.9479 213.602 58.5156C213.602 59.6667 213.086 60.5573 212.055 61.1875C211.721 61.3906 211.458 61.6016 211.266 61.8203C211.078 62.0391 210.938 62.2995 210.844 62.6016C210.755 62.9036 210.706 63.2812 210.695 63.7344V63.8125H209.352V63.7344ZM210.07 67.0938C209.888 67.0938 209.719 67.0495 209.562 66.9609C209.411 66.8672 209.289 66.7422 209.195 66.5859C209.107 66.4297 209.065 66.2604 209.07 66.0781C209.065 65.901 209.107 65.737 209.195 65.5859C209.289 65.4297 209.411 65.3073 209.562 65.2188C209.719 65.125 209.888 65.0781 210.07 65.0781C210.247 65.0781 210.411 65.125 210.562 65.2188C210.719 65.3073 210.841 65.4297 210.93 65.5859C211.023 65.737 211.07 65.901 211.07 66.0781C211.07 66.2604 211.023 66.4297 210.93 66.5859C210.841 66.7422 210.719 66.8672 210.562 66.9609C210.411 67.0495 210.247 67.0938 210.07 67.0938Z" fill="#E8E4DC"/>
<path id="&#236;&#150;&#184;&#236;&#160;&#156;&#235;&#147;&#160; &#235;&#139;&#164;&#236;&#139;&#156; &#235;&#161;&#156;&#234;&#183;&#184;&#236;&#157;&#184;&#237;&#149;&#160; &#236;&#136;&#152; &#236;&#158;&#136;&#236;&#150;&#180;&#236;&#154;&#148;." d="M88.6079 93.0703H87.605V88.7158H85.2437C85.1717 89.1729 85.0024 89.5791 84.7358 89.9346C84.4692 90.2858 84.1286 90.5609 83.7139 90.7598C83.3034 90.9544 82.8527 91.0518 82.3618 91.0518C81.8032 91.0518 81.3018 90.9333 80.8574 90.6963C80.4131 90.4593 80.064 90.1292 79.8101 89.7061C79.5562 89.2786 79.4292 88.7962 79.4292 88.2588C79.4292 87.7214 79.5562 87.241 79.8101 86.8179C80.064 86.3947 80.4131 86.0667 80.8574 85.834C81.3018 85.597 81.8032 85.4785 82.3618 85.4785C82.8654 85.4785 83.3245 85.5801 83.7393 85.7832C84.1582 85.9821 84.501 86.2656 84.7676 86.6338C85.0342 86.9977 85.1971 87.4167 85.2563 87.8906H87.605V84.7549H88.6079V93.0703ZM88.9253 95.7871H81.3589V92.2197H82.3618V94.9492H88.9253V95.7871ZM82.3618 86.3545C81.9894 86.3587 81.6509 86.4434 81.3462 86.6084C81.0457 86.7692 80.8088 86.9935 80.6353 87.2812C80.466 87.569 80.3813 87.8949 80.3813 88.2588C80.3813 88.627 80.466 88.957 80.6353 89.249C80.8088 89.5368 81.0457 89.7653 81.3462 89.9346C81.6509 90.0996 81.9894 90.1842 82.3618 90.1885C82.7257 90.1842 83.0558 90.0996 83.3521 89.9346C83.6525 89.7653 83.8874 89.5347 84.0566 89.2427C84.2301 88.9507 84.3169 88.6227 84.3169 88.2588C84.3169 87.8949 84.2301 87.569 84.0566 87.2812C83.8874 86.9935 83.6525 86.7692 83.3521 86.6084C83.0558 86.4434 82.7257 86.3587 82.3618 86.3545ZM100.135 96.0283H99.1831V84.7422H100.135V96.0283ZM97.8501 95.4443H96.9106V89.6299H95.0063V88.8174H96.9106V85.0215H97.8501V95.4443ZM93.8003 87.9668C93.8003 88.6227 93.8955 89.2638 94.0859 89.8901C94.2764 90.5122 94.5557 91.075 94.9238 91.5786C95.292 92.078 95.73 92.4736 96.2378 92.7656L95.6284 93.502C95.0825 93.1761 94.6149 92.7254 94.2256 92.1499C93.8363 91.5701 93.54 90.9142 93.3369 90.1821C93.1296 90.9735 92.8228 91.6823 92.4165 92.3086C92.0145 92.9349 91.5363 93.4215 90.9819 93.7686L90.3472 93.0195C90.8592 92.7148 91.3035 92.298 91.6802 91.769C92.0568 91.2401 92.3424 90.6476 92.5371 89.9917C92.736 89.3315 92.8354 88.6566 92.8354 87.9668V86.9004H90.6646V86.0752H95.8696V86.9004H93.8003V87.9668ZM112.018 91.2549H101.722V90.4424H112.018V91.2549ZM110.837 89.1982H103.03V85.2373H110.736V86.0498H104.02V88.373H110.837V89.1982ZM110.926 95.7744H103.055V92.4736H104.045V94.9365H110.926V95.7744ZM124.955 89.2109H126.846V90.0488H124.955V96.0537H123.964V84.7422H124.955V89.2109ZM121.984 86.6719H117.706V92.3848C118.759 92.3848 119.68 92.3551 120.467 92.2959C121.254 92.2367 122.056 92.1309 122.873 91.9785L123 92.8418C122.166 92.9941 121.347 93.0957 120.543 93.1465C119.739 93.1973 118.759 93.2227 117.604 93.2227H116.715V85.8467H121.984V86.6719ZM131.467 87.7764C131.463 88.445 131.598 89.1094 131.874 89.7695C132.149 90.4255 132.521 91.0094 132.991 91.5215C133.46 92.0335 133.972 92.4144 134.527 92.6641L133.917 93.4512C133.274 93.1338 132.69 92.6619 132.166 92.0356C131.645 91.4051 131.251 90.6899 130.985 89.8901C130.722 90.7407 130.329 91.5024 129.804 92.1753C129.279 92.8439 128.687 93.3454 128.027 93.6797L127.392 92.8418C127.946 92.5837 128.458 92.1922 128.928 91.6675C129.398 91.1385 129.772 90.5334 130.052 89.8521C130.331 89.1665 130.473 88.4746 130.477 87.7764V85.7197H131.467V87.7764ZM136.761 96.0537H135.758V84.7422H136.761V96.0537ZM152.288 94.6318H141.954V93.7939H146.6V91.6611H143.249V88.1826H150.002V86.4053H143.223V85.5801H150.98V88.9951H144.239V90.8359H151.247V91.6611H147.578V93.7939H152.288V94.6318ZM162.088 87.0781C162.088 87.7256 162.08 88.2905 162.063 88.7729C162.05 89.2554 162.014 89.8182 161.955 90.4614C161.896 91.1047 161.801 91.805 161.669 92.5625L160.654 92.4609C160.793 91.7458 160.897 91.0729 160.965 90.4424C161.033 89.8076 161.073 89.249 161.085 88.7666C161.102 88.2799 161.111 87.7171 161.111 87.0781V86.7734H154.306V85.9482H162.088V87.0781ZM163.472 94.3652H153.189V93.54H163.472V94.3652ZM173.743 93.0068H172.752V84.7549H173.743V93.0068ZM174.098 95.7871H166.456V92.1689H167.446V94.9492H174.098V95.7871ZM167.649 85.542C168.208 85.542 168.711 85.6605 169.16 85.8975C169.612 86.1302 169.966 86.4582 170.22 86.8813C170.478 87.3003 170.607 87.7764 170.607 88.3096C170.607 88.8512 170.478 89.3337 170.22 89.7568C169.966 90.1758 169.612 90.5037 169.16 90.7407C168.711 90.9735 168.208 91.0898 167.649 91.0898C167.09 91.0898 166.585 90.9735 166.132 90.7407C165.683 90.5037 165.33 90.1758 165.072 89.7568C164.818 89.3337 164.691 88.8512 164.691 88.3096C164.691 87.7764 164.818 87.3003 165.072 86.8813C165.33 86.4582 165.683 86.1302 166.132 85.8975C166.585 85.6605 167.09 85.542 167.649 85.542ZM167.649 86.418C167.272 86.418 166.932 86.4984 166.627 86.6592C166.326 86.82 166.09 87.0443 165.916 87.332C165.747 87.6198 165.664 87.9456 165.668 88.3096C165.664 88.6777 165.747 89.0078 165.916 89.2998C166.09 89.5876 166.326 89.8118 166.627 89.9727C166.932 90.1335 167.272 90.2139 167.649 90.2139C168.017 90.2139 168.351 90.1335 168.652 89.9727C168.957 89.8118 169.196 89.5876 169.369 89.2998C169.543 89.0078 169.629 88.6777 169.629 88.3096C169.629 87.9499 169.543 87.6261 169.369 87.3384C169.196 87.0506 168.957 86.8263 168.652 86.6655C168.351 86.5005 168.017 86.418 167.649 86.418ZM184.483 87.4463H186.197V88.2715H184.483V90.9502H183.493V84.7041H184.483V87.4463ZM184.483 94.0352H178.288V95.1396H184.902V95.9014H177.31V93.2988H183.493V92.2832H177.285V91.5342H184.483V94.0352ZM182.414 86.5703H175.685V85.7705H178.554V84.6279H179.544V85.7705H182.414V86.5703ZM179.049 87.0781C179.591 87.0781 180.065 87.1543 180.471 87.3066C180.882 87.4548 181.199 87.6685 181.423 87.9478C181.648 88.2271 181.762 88.555 181.766 88.9316C181.762 89.3083 181.648 89.6362 181.423 89.9155C181.199 90.1948 180.882 90.4106 180.471 90.563C180.065 90.7111 179.591 90.7852 179.049 90.7852C178.503 90.7852 178.023 90.7111 177.608 90.563C177.198 90.4106 176.881 90.1948 176.656 89.9155C176.436 89.6362 176.328 89.3083 176.333 88.9316C176.328 88.555 176.436 88.2271 176.656 87.9478C176.881 87.6685 177.198 87.4548 177.608 87.3066C178.023 87.1543 178.503 87.0781 179.049 87.0781ZM179.049 87.8145C178.698 87.8145 178.387 87.861 178.116 87.9541C177.85 88.0472 177.642 88.1784 177.494 88.3477C177.35 88.5169 177.28 88.7116 177.285 88.9316C177.28 89.1559 177.35 89.3527 177.494 89.522C177.642 89.687 177.85 89.814 178.116 89.9028C178.383 89.9917 178.694 90.0361 179.049 90.0361C179.587 90.0361 180.016 89.9388 180.338 89.7441C180.66 89.5452 180.822 89.2744 180.827 88.9316C180.822 88.7074 180.746 88.5127 180.598 88.3477C180.45 88.1784 180.243 88.0472 179.976 87.9541C179.709 87.861 179.401 87.8145 179.049 87.8145ZM195.82 85.7959C195.82 86.3037 196.017 86.7904 196.41 87.2559C196.808 87.7214 197.324 88.1128 197.959 88.4302C198.594 88.7476 199.252 88.9528 199.933 89.0459L199.527 89.8584C198.934 89.7611 198.361 89.5918 197.807 89.3506C197.252 89.1051 196.757 88.8005 196.321 88.4365C195.885 88.0684 195.549 87.66 195.312 87.2114C195.079 87.66 194.743 88.0684 194.303 88.4365C193.867 88.8005 193.372 89.1051 192.817 89.3506C192.263 89.5918 191.69 89.7611 191.097 89.8584L190.691 89.0459C191.376 88.9528 192.035 88.7497 192.665 88.4365C193.296 88.1191 193.808 87.7298 194.201 87.2686C194.595 86.8031 194.792 86.3122 194.792 85.7959V85.1484H195.82V85.7959ZM200.441 91.9404H195.769V96.0283H194.792V91.9404H190.158V91.1025H200.441V91.9404ZM208.477 92.3213C208.477 92.8418 208.615 93.3433 208.89 93.8257C209.169 94.3081 209.567 94.6953 210.083 94.9873C210.426 94.7715 210.722 94.5133 210.972 94.2129C211.221 93.9082 211.41 93.5929 211.537 93.2671C211.664 92.937 211.727 92.6217 211.727 92.3213V91.6992H212.705V92.3213C212.705 92.7106 212.796 93.0915 212.978 93.4639C213.164 93.832 213.43 94.1642 213.777 94.4604C214.124 94.7524 214.533 94.9788 215.002 95.1396L214.507 95.876C213.953 95.6813 213.479 95.3978 213.085 95.0254C212.692 94.653 212.396 94.2256 212.197 93.7432C212.011 94.2256 211.742 94.6636 211.391 95.0571C211.039 95.4507 210.614 95.7533 210.115 95.9648C209.586 95.7617 209.141 95.4676 208.782 95.0825C208.426 94.7017 208.16 94.2637 207.982 93.7686C207.775 94.2383 207.478 94.6572 207.093 95.0254C206.708 95.3936 206.251 95.6771 205.722 95.876L205.214 95.1396C205.676 94.9661 206.078 94.7292 206.42 94.4287C206.767 94.124 207.034 93.7876 207.22 93.4194C207.411 93.0513 207.508 92.6852 207.512 92.3213V91.6992H208.477V92.3213ZM213.974 91.2041H212.984V84.7549H213.974V91.2041ZM207.88 85.415C208.447 85.415 208.955 85.5272 209.404 85.7515C209.852 85.9715 210.204 86.2826 210.458 86.6846C210.711 87.0824 210.838 87.5394 210.838 88.0557C210.838 88.5635 210.711 89.0163 210.458 89.4141C210.204 89.8118 209.852 90.1208 209.404 90.3408C208.955 90.5609 208.447 90.6709 207.88 90.6709C207.313 90.6709 206.806 90.5609 206.357 90.3408C205.908 90.1208 205.557 89.8118 205.303 89.4141C205.049 89.0163 204.922 88.5635 204.922 88.0557C204.922 87.5394 205.049 87.0824 205.303 86.6846C205.557 86.2826 205.908 85.9715 206.357 85.7515C206.806 85.5272 207.313 85.415 207.88 85.415ZM207.88 86.2656C207.5 86.2614 207.157 86.3354 206.852 86.4878C206.552 86.6401 206.317 86.8538 206.147 87.1289C205.978 87.3997 205.896 87.7087 205.9 88.0557C205.896 88.3984 205.978 88.7052 206.147 88.9761C206.317 89.2469 206.552 89.4585 206.852 89.6108C207.157 89.7632 207.5 89.8415 207.88 89.8457C208.257 89.8415 208.596 89.7632 208.896 89.6108C209.196 89.4585 209.431 89.2469 209.601 88.9761C209.774 88.7052 209.861 88.3984 209.861 88.0557C209.861 87.7087 209.774 87.3997 209.601 87.1289C209.431 86.8538 209.196 86.6401 208.896 86.4878C208.596 86.3354 208.257 86.2614 207.88 86.2656ZM218.925 85.6182C219.433 85.6224 219.888 85.7642 220.29 86.0435C220.696 86.3228 221.024 86.7205 221.274 87.2368C221.524 87.7531 221.674 88.3604 221.725 89.0586H224.257V84.7422H225.248V96.0537H224.257V89.8838H221.737C221.699 90.6117 221.557 91.2464 221.312 91.7881C221.067 92.3298 220.736 92.7466 220.322 93.0386C219.911 93.3306 219.446 93.4766 218.925 93.4766C218.375 93.4766 217.884 93.3158 217.453 92.9941C217.025 92.6725 216.691 92.2155 216.45 91.623C216.213 91.0306 216.094 90.3408 216.094 89.5537C216.094 88.7666 216.213 88.0768 216.45 87.4844C216.691 86.8919 217.025 86.4349 217.453 86.1133C217.88 85.7874 218.371 85.6224 218.925 85.6182ZM218.925 86.5068C218.557 86.5111 218.229 86.6401 217.941 86.894C217.658 87.1437 217.438 87.4992 217.281 87.9604C217.125 88.4175 217.046 88.9486 217.046 89.5537C217.046 90.1589 217.125 90.6921 217.281 91.1533C217.438 91.6104 217.658 91.9637 217.941 92.2134C218.229 92.4631 218.557 92.5879 218.925 92.5879C219.289 92.5879 219.613 92.4631 219.896 92.2134C220.184 91.9637 220.406 91.6104 220.563 91.1533C220.724 90.6921 220.804 90.1589 220.804 89.5537C220.804 88.9486 220.724 88.4175 220.563 87.9604C220.406 87.4992 220.186 87.1437 219.903 86.894C219.619 86.6401 219.293 86.5111 218.925 86.5068ZM237.46 94.5811H227.126V93.7432H229.691V90.6963C229.2 90.4424 228.819 90.1165 228.548 89.7188C228.278 89.3167 228.142 88.8639 228.142 88.3604C228.142 87.7848 228.318 87.2791 228.669 86.8433C229.02 86.4032 229.507 86.0625 230.129 85.8213C230.755 85.5801 231.468 85.4574 232.268 85.4531C233.068 85.4574 233.779 85.5801 234.401 85.8213C235.027 86.0625 235.516 86.4032 235.867 86.8433C236.218 87.2791 236.394 87.7848 236.394 88.3604C236.394 88.8555 236.263 89.3019 236 89.6997C235.738 90.0933 235.37 90.417 234.896 90.6709V93.7432H237.46V94.5811ZM232.268 86.2783C231.654 86.2741 231.109 86.3587 230.63 86.5322C230.152 86.7057 229.778 86.9512 229.507 87.2686C229.24 87.5817 229.107 87.9456 229.107 88.3604C229.107 88.7751 229.24 89.1432 229.507 89.4648C229.778 89.7822 230.152 90.0298 230.63 90.2075C231.109 90.381 231.654 90.4678 232.268 90.4678C232.877 90.4678 233.421 90.3789 233.899 90.2012C234.378 90.0234 234.752 89.7759 235.023 89.4585C235.294 89.1411 235.429 88.7751 235.429 88.3604C235.429 87.9456 235.294 87.5817 235.023 87.2686C234.752 86.9512 234.378 86.7057 233.899 86.5322C233.421 86.3587 232.877 86.2741 232.268 86.2783ZM233.893 93.7432V91.0581C233.389 91.1893 232.848 91.2549 232.268 91.2549C231.684 91.2549 231.151 91.1914 230.668 91.0645V93.7432H233.893ZM239.555 95.0762C239.407 95.0762 239.27 95.0402 239.143 94.9683C239.02 94.8921 238.92 94.7905 238.844 94.6636C238.772 94.5366 238.738 94.3991 238.743 94.251C238.738 94.1071 238.772 93.9738 238.844 93.8511C238.92 93.7241 239.02 93.6247 239.143 93.5527C239.27 93.4766 239.407 93.4385 239.555 93.4385C239.699 93.4385 239.832 93.4766 239.955 93.5527C240.082 93.6247 240.181 93.7241 240.253 93.8511C240.33 93.9738 240.368 94.1071 240.368 94.251C240.368 94.3991 240.33 94.5366 240.253 94.6636C240.181 94.7905 240.082 94.8921 239.955 94.9683C239.832 95.0402 239.699 95.0762 239.555 95.0762Z" fill="#7A7873"/>
</g>
<g id="Frame 79">
<path id="Vector" d="M20 121H300" stroke="#373F3B" stroke-width="0.5"/>
<g id="Frame 128">
<path id="&#236;&#183;&#168;&#236;&#134;&#140;" d="M82.9727 135.25C82.9727 135.651 83.0957 136.032 83.3418 136.392C83.5924 136.747 83.9388 137.057 84.3809 137.321C84.8275 137.581 85.3379 137.775 85.9121 137.902L85.4746 138.764C84.7728 138.595 84.1621 138.331 83.6426 137.971C83.123 137.611 82.7288 137.185 82.46 136.692C82.2002 137.23 81.806 137.693 81.2773 138.08C80.7487 138.467 80.1243 138.75 79.4043 138.928L78.9395 138.066C79.5182 137.939 80.0309 137.736 80.4775 137.458C80.9287 137.18 81.2796 136.85 81.5303 136.467C81.7809 136.084 81.9062 135.678 81.9062 135.25V135.195H79.1992V134.348H81.9062V132.994H82.9727V134.348H85.6797V135.195H82.9727V135.25ZM88.4141 145.121H87.3613V132.967H88.4141V145.121ZM78.3652 139.789C79.9147 139.789 81.3525 139.766 82.6787 139.721C84.0094 139.671 85.2741 139.57 86.4727 139.42L86.541 140.199C85.4746 140.372 84.2943 140.498 83 140.575V144.752H81.9336V140.63C81.013 140.671 79.8737 140.691 78.5156 140.691L78.3652 139.789ZM101.621 143.521H90.4922V142.633H95.4688V139.652H96.5215V142.633H101.621V143.521ZM96.5488 134.717C96.5488 135.364 96.7721 135.986 97.2188 136.583C97.6699 137.18 98.2441 137.686 98.9414 138.101C99.6432 138.511 100.354 138.777 101.074 138.9L100.596 139.789C99.9668 139.661 99.3493 139.44 98.7432 139.126C98.137 138.812 97.5902 138.42 97.1025 137.95C96.6195 137.481 96.2503 136.964 95.9951 136.398C95.7399 136.964 95.3708 137.481 94.8877 137.95C94.4046 138.42 93.86 138.812 93.2539 139.126C92.6523 139.44 92.0371 139.661 91.4082 139.789L90.9297 138.9C91.6497 138.777 92.3561 138.511 93.0488 138.101C93.7461 137.686 94.3158 137.182 94.7578 136.59C95.2044 135.993 95.4277 135.368 95.4277 134.717V133.787H96.5488V134.717Z" fill="#7A7873"/>
<path id="Vector_2" d="M160 121V157" stroke="#373F3B" stroke-width="0.5"/>
<path id="&#235;&#161;&#156;&#234;&#183;&#184;&#236;&#149;&#132;&#236;&#155;&#131;" d="M217.422 143.604H206.293V142.701H211.297V140.404H207.688V136.658H214.961V134.744H207.66V133.855H216.014V137.533H208.754V139.516H216.301V140.404H212.35V142.701H217.422V143.604ZM227.977 135.469C227.977 136.166 227.967 136.774 227.949 137.294C227.936 137.813 227.897 138.42 227.833 139.112C227.769 139.805 227.667 140.559 227.525 141.375L226.432 141.266C226.582 140.495 226.694 139.771 226.767 139.092C226.84 138.408 226.883 137.807 226.896 137.287C226.915 136.763 226.924 136.157 226.924 135.469V135.141H219.596V134.252H227.977V135.469ZM229.467 143.316H218.393V142.428H229.467V143.316ZM233.746 133.896C234.343 133.901 234.872 134.079 235.332 134.43C235.797 134.776 236.159 135.268 236.419 135.906C236.683 136.544 236.818 137.287 236.822 138.135C236.818 138.982 236.683 139.725 236.419 140.363C236.159 141.001 235.797 141.493 235.332 141.84C234.867 142.186 234.339 142.359 233.746 142.359C233.149 142.359 232.618 142.186 232.153 141.84C231.688 141.493 231.326 141.001 231.066 140.363C230.811 139.725 230.684 138.982 230.684 138.135C230.684 137.287 230.811 136.544 231.066 135.906C231.326 135.268 231.688 134.776 232.153 134.43C232.618 134.079 233.149 133.901 233.746 133.896ZM233.746 134.854C233.345 134.858 232.99 134.997 232.68 135.271C232.37 135.539 232.128 135.922 231.955 136.419C231.782 136.911 231.695 137.483 231.695 138.135C231.695 138.786 231.782 139.361 231.955 139.857C232.128 140.35 232.37 140.73 232.68 140.999C232.994 141.268 233.35 141.402 233.746 141.402C234.147 141.402 234.5 141.268 234.806 140.999C235.116 140.73 235.355 140.35 235.523 139.857C235.697 139.361 235.783 138.786 235.783 138.135C235.783 137.483 235.697 136.911 235.523 136.419C235.355 135.922 235.116 135.539 234.806 135.271C234.5 134.997 234.147 134.858 233.746 134.854ZM239.898 137.807H241.936V138.736H239.898V145.107H238.832V132.953H239.898V137.807ZM253.707 139.434H248.635V140.76H247.582V139.434H242.592V138.504H253.707V139.434ZM248.648 141.703C248.648 142.136 248.838 142.533 249.216 142.893C249.599 143.248 250.107 143.542 250.74 143.774C251.378 144.007 252.071 144.16 252.818 144.232L252.477 145.053C251.483 144.948 250.592 144.711 249.804 144.342C249.02 143.977 248.452 143.51 248.102 142.94C247.746 143.506 247.176 143.973 246.393 144.342C245.613 144.711 244.734 144.948 243.754 145.053L243.398 144.232C244.132 144.16 244.816 144.007 245.449 143.774C246.087 143.537 246.598 143.241 246.98 142.886C247.363 142.526 247.555 142.132 247.555 141.703V141.307H248.648V141.703ZM248.129 133.158C249.018 133.158 249.783 133.245 250.426 133.418C251.068 133.591 251.561 133.844 251.902 134.177C252.249 134.505 252.422 134.904 252.422 135.373C252.422 135.838 252.249 136.239 251.902 136.576C251.561 136.909 251.066 137.162 250.419 137.335C249.776 137.508 249.013 137.592 248.129 137.588C247.245 137.592 246.479 137.508 245.832 137.335C245.185 137.162 244.688 136.909 244.342 136.576C243.995 136.239 243.822 135.838 243.822 135.373C243.822 134.904 243.995 134.505 244.342 134.177C244.688 133.844 245.183 133.591 245.825 133.418C246.472 133.245 247.24 133.158 248.129 133.158ZM248.129 133.979C247.473 133.974 246.903 134.029 246.42 134.143C245.937 134.252 245.565 134.414 245.306 134.628C245.05 134.838 244.925 135.086 244.93 135.373C244.925 135.656 245.05 135.902 245.306 136.111C245.565 136.321 245.937 136.48 246.42 136.59C246.903 136.699 247.473 136.754 248.129 136.754C248.781 136.754 249.346 136.699 249.824 136.59C250.307 136.48 250.679 136.321 250.938 136.111C251.198 135.902 251.328 135.656 251.328 135.373C251.328 135.086 251.198 134.838 250.938 134.628C250.679 134.414 250.307 134.252 249.824 134.143C249.346 134.029 248.781 133.974 248.129 133.979Z" fill="#C45650"/>
</g>
</g>
</g>
<defs>
<filter id="filter0_dd_133_4972" x="-12" y="0" width="344" height="197" filterUnits="userSpaceOnUse" color-interpolation-filters="sRGB">
<feFlood flood-opacity="0" result="BackgroundImageFix"/>
<feColorMatrix in="SourceAlpha" type="matrix" values="0 0 0 0 0 0 0 0 0 0 0 0 0 0 0 0 0 0 127 0" result="hardAlpha"/>
<feOffset dy="8"/>
<feGaussianBlur stdDeviation="16"/>
<feColorMatrix type="matrix" values="0 0 0 0 0 0 0 0 0 0 0 0 0 0 0 0 0 0 0.5 0"/>
<feBlend mode="normal" in2="BackgroundImageFix" result="effect1_dropShadow_133_4972"/>
<feColorMatrix in="SourceAlpha" type="matrix" values="0 0 0 0 0 0 0 0 0 0 0 0 0 0 0 0 0 0 127 0" result="hardAlpha"/>
<feOffset dy="2"/>
<feGaussianBlur stdDeviation="4"/>
<feColorMatrix type="matrix" values="0 0 0 0 0 0 0 0 0 0 0 0 0 0 0 0 0 0 0.25 0"/>
<feBlend mode="normal" in2="effect1_dropShadow_133_4972" result="effect2_dropShadow_133_4972"/>
<feBlend mode="normal" in="SourceGraphic" in2="effect2_dropShadow_133_4972" result="shape"/>
</filter>
</defs>
</svg>
