<svg width="354" height="477" viewBox="0 0 354 477" fill="none" xmlns="http://www.w3.org/2000/svg">
<g id="Property 1=Dark">
<g id="Container">
<g id="Button" filter="url(#filter0_d_122_5659)">
<path d="M4 19C4 10.1635 11.1634 3 20 3H333.342C342.178 3 349.342 10.1634 349.342 19V132.453C349.342 141.29 342.178 148.453 333.342 148.453H20C11.1635 148.453 4 141.29 4 132.453V19Z" fill="#262B28"/>
<path d="M20 3.5H333.342C341.902 3.5 348.842 10.4396 348.842 19V132.453C348.842 141.014 341.902 147.953 333.342 147.953H20C11.4396 147.953 4.5 141.014 4.5 132.453V19C4.50001 10.4396 11.4396 3.5 20 3.5Z" stroke="#373F3B"/>
<g id="Container_2">
<g id="Container_3">
<g id="Heading 3">
<path id="&#236;&#132;&#156;&#236;&#154;&#184; &#235;&#139;&#185;&#236;&#157;&#188;&#236;&#185;&#152;&#234;&#184;&#176;" d="M31.1426 29.7297C31.1426 30.7258 31.2949 31.6897 31.5996 32.6213C31.9102 33.5471 32.3613 34.3674 32.9531 35.0823C33.5508 35.7971 34.2598 36.3333 35.0801 36.6907L33.9023 38.2551C33.0234 37.8274 32.2646 37.2122 31.626 36.4094C30.9932 35.6067 30.5039 34.675 30.1582 33.6145C29.8008 34.7395 29.2969 35.7297 28.6465 36.5852C28.002 37.4407 27.2344 38.0969 26.3438 38.554L25.1133 36.9719C25.9512 36.5793 26.6719 36.0051 27.2754 35.2493C27.8848 34.4934 28.3477 33.635 28.6641 32.6741C28.9863 31.7131 29.1504 30.7317 29.1562 29.7297V27.1985H31.1426V29.7297ZM38.5957 41.8235H36.6621V32.6301H33.3223V31.0481H36.6621V25.9153H38.5957V41.8235ZM47.7527 26.0735C48.9598 26.0735 49.9881 26.179 50.8377 26.3899C51.6932 26.6008 52.3465 26.9114 52.7977 27.3215C53.2488 27.7258 53.4773 28.218 53.4832 28.7981C53.4773 29.677 52.9764 30.3508 51.9803 30.8196C50.9842 31.2883 49.575 31.5286 47.7527 31.5403C45.9246 31.5286 44.5125 31.2883 43.5164 30.8196C42.5203 30.3508 42.0223 29.677 42.0223 28.7981C42.0223 28.218 42.2479 27.7258 42.699 27.3215C43.1502 26.9114 43.8035 26.6008 44.659 26.3899C45.5145 26.179 46.5457 26.0735 47.7527 26.0735ZM47.7527 27.5325C46.5398 27.5325 45.6199 27.6409 44.993 27.8577C44.3719 28.0686 44.0672 28.3821 44.0789 28.7981C44.073 29.2317 44.3748 29.554 44.9842 29.7649C45.5994 29.9758 46.5223 30.0872 47.7527 30.0989C48.9949 30.0872 49.9236 29.9758 50.5389 29.7649C51.1541 29.554 51.4617 29.2317 51.4617 28.7981C51.4617 28.3821 51.1482 28.0686 50.5213 27.8577C49.9002 27.6409 48.9773 27.5325 47.7527 27.5325ZM55.0125 33.8958H48.7195V35.1086H53.202V38.9934H44.1668V40.1711H53.6414V41.6653H42.2508V37.6047H51.2859V36.55H42.2332V35.1086H46.7684V33.8958H40.5281V32.3665H55.0125V33.8958ZM72.307 29.8176H74.5043V31.4172H72.307V35.1965H70.3383V25.9153H72.307V29.8176ZM67.1215 35.4954C68.1996 35.4954 69.1371 35.6213 69.934 35.8733C70.7367 36.1194 71.3549 36.4768 71.7885 36.9456C72.2221 37.4143 72.4418 37.9739 72.4477 38.6243C72.4418 39.2864 72.2221 39.8547 71.7885 40.3293C71.3549 40.804 70.7396 41.1643 69.9428 41.4104C69.1459 41.6624 68.2055 41.7883 67.1215 41.7883C66.0258 41.7883 65.0736 41.6624 64.265 41.4104C63.4564 41.1643 62.8324 40.804 62.393 40.3293C61.9594 39.8547 61.7426 39.2864 61.7426 38.6243C61.7426 37.9739 61.9594 37.4143 62.393 36.9456C62.8324 36.4768 63.4564 36.1194 64.265 35.8733C65.0795 35.6213 66.0316 35.4954 67.1215 35.4954ZM67.1215 37.0598C66.0199 37.0598 65.1674 37.1946 64.5639 37.4641C63.9662 37.7336 63.6703 38.1204 63.6762 38.6243C63.6703 39.1399 63.9662 39.5354 64.5639 39.8108C65.1674 40.0862 66.0199 40.2239 67.1215 40.2239C68.2055 40.2239 69.0463 40.0862 69.6439 39.8108C70.2475 39.5354 70.5492 39.1399 70.5492 38.6243C70.5492 38.1204 70.2475 37.7336 69.6439 37.4641C69.0463 37.1946 68.2055 37.0598 67.1215 37.0598ZM67.4906 28.6223H62.3051V32.6125C63.8988 32.6067 65.1732 32.5715 66.1283 32.5071C67.0834 32.4368 68.0121 32.3079 68.9145 32.1204L69.1078 33.6848C68.1293 33.8958 67.1127 34.0334 66.058 34.0979C65.0033 34.1624 63.5355 34.1946 61.6547 34.1946H60.3715V27.0403H67.4906V28.6223ZM79.5129 26.425C80.3098 26.425 81.0275 26.5803 81.6662 26.8909C82.3049 27.1956 82.8059 27.6204 83.1691 28.1653C83.5383 28.7102 83.7258 29.3254 83.7316 30.011C83.7258 30.7024 83.5383 31.3206 83.1691 31.8655C82.8059 32.4104 82.3049 32.8352 81.6662 33.1399C81.0275 33.4446 80.3098 33.5969 79.5129 33.5969C78.7102 33.5969 77.9865 33.4446 77.342 33.1399C76.7033 32.8352 76.2023 32.4104 75.8391 31.8655C75.4758 31.3206 75.2941 30.7024 75.2941 30.011C75.2941 29.3254 75.4758 28.7102 75.8391 28.1653C76.2023 27.6204 76.7062 27.1956 77.3508 26.8909C77.9953 26.5803 78.716 26.425 79.5129 26.425ZM79.5129 28.0422C79.0676 28.0422 78.6691 28.1243 78.3176 28.2883C77.966 28.4465 77.6906 28.675 77.4914 28.9739C77.2922 29.2668 77.1926 29.6125 77.1926 30.011C77.1926 30.4153 77.2922 30.7698 77.4914 31.0745C77.6906 31.3733 77.966 31.6047 78.3176 31.7688C78.6691 31.9329 79.0676 32.0149 79.5129 32.0149C79.9582 32.0149 80.3566 31.9329 80.7082 31.7688C81.0598 31.6047 81.3352 31.3733 81.5344 31.0745C81.7336 30.7698 81.8332 30.4153 81.8332 30.011C81.8332 29.6125 81.7336 29.2668 81.5344 28.9739C81.3352 28.675 81.0598 28.4465 80.7082 28.2883C80.3566 28.1243 79.9582 28.0422 79.5129 28.0422ZM88.2492 33.9485H86.2805V25.9153H88.2492V33.9485ZM88.2492 38.7825H79.6535V40.0657H88.7238V41.6125H77.7375V37.3411H86.298V36.1633H77.7023V34.634H88.2492V38.7825ZM103.471 41.8059H101.52V25.9153H103.471V41.8059ZM96.3691 30.9602C96.3691 31.7747 96.5303 32.5833 96.8525 33.386C97.1748 34.1887 97.6406 34.9124 98.25 35.5569C98.8594 36.2014 99.5801 36.6965 100.412 37.0422L99.3398 38.5364C98.4434 38.1614 97.6582 37.6018 96.9844 36.8577C96.3164 36.1135 95.7949 35.2522 95.4199 34.2737C95.0566 35.3108 94.5352 36.2278 93.8555 37.0247C93.1816 37.8157 92.3906 38.4075 91.4824 38.8L90.4277 37.2883C91.248 36.925 91.96 36.4094 92.5635 35.7415C93.167 35.0676 93.627 34.3147 93.9434 33.4827C94.2598 32.6506 94.418 31.8098 94.418 30.9602V30.134H90.9199V28.5696H94.418V26.2493H96.3516V28.5696H99.7793V30.134H96.3691V30.9602ZM118.798 41.8059H116.829V25.9153H118.798V41.8059ZM114.052 27.6028C114.052 30.1282 113.48 32.3459 112.338 34.2561C111.195 36.1604 109.3 37.7395 106.651 38.9934L105.632 37.429C107.677 36.4563 109.215 35.2932 110.246 33.9397C111.283 32.5803 111.889 30.9836 112.065 29.1497H106.44V27.6028H114.052Z" fill="#E8E4DC"/>
</g>
<g id="StatusToggleDark">
<path d="M271.598 26.2439H316.598C322.949 26.2439 328.098 31.3926 328.098 37.7439C328.098 44.0952 322.949 49.2439 316.598 49.2439H271.598C265.247 49.2439 260.098 44.0952 260.098 37.7439C260.098 31.3926 265.247 26.2439 271.598 26.2439Z" fill="#2E2410"/>
<path d="M271.598 26.2439H316.598C322.949 26.2439 328.098 31.3926 328.098 37.7439C328.098 44.0952 322.949 49.2439 316.598 49.2439H271.598C265.247 49.2439 260.098 44.0952 260.098 37.7439C260.098 31.3926 265.247 26.2439 271.598 26.2439Z" stroke="#373F3B"/>
<path id="&#236;&#152;&#136;&#236;&#160;&#149;" d="M281.161 43.322H279.731V32.658H281.161V43.322ZM278.981 42.8298H277.575V39.5251H276.321C276.122 40.0486 275.85 40.4509 275.506 40.7322C275.167 41.0134 274.774 41.1541 274.329 41.1541C273.864 41.1541 273.456 40.9978 273.104 40.6853C272.756 40.3728 272.487 39.9255 272.295 39.3435C272.104 38.7576 272.008 38.0681 272.008 37.2751C272.008 36.4861 272.104 35.8025 272.295 35.2244C272.487 34.6423 272.756 34.197 273.104 33.8884C273.456 33.5759 273.864 33.4197 274.329 33.4197C274.77 33.4197 275.161 33.5583 275.5 33.8357C275.844 34.113 276.116 34.5095 276.315 35.0251H277.575V32.8103H278.981V42.8298ZM274.329 34.8259C274.016 34.8259 273.776 35.033 273.608 35.447C273.444 35.8611 273.364 36.4705 273.368 37.2751C273.364 38.0837 273.444 38.6951 273.608 39.1091C273.772 39.5193 274.012 39.7205 274.329 39.7126C274.645 39.7205 274.889 39.5193 275.061 39.1091C275.237 38.6951 275.325 38.0837 275.325 37.2751C275.325 36.4783 275.237 35.8708 275.061 35.4529C274.885 35.0349 274.641 34.8259 274.329 34.8259ZM276.614 36.2205C276.661 36.5486 276.684 36.9001 276.684 37.2751C276.684 37.6462 276.661 37.9939 276.614 38.3181H277.575V36.2205H276.614ZM291.474 38.9861H289.986V36.4666H288.322V35.2595H289.986V32.658H291.474V38.9861ZM287.829 39.2205C288.587 39.2244 289.24 39.3083 289.786 39.4724C290.337 39.6326 290.761 39.8669 291.058 40.1755C291.355 40.4841 291.505 40.8533 291.509 41.283C291.505 41.7087 291.355 42.0759 291.058 42.3845C290.761 42.6931 290.337 42.9275 289.786 43.0876C289.236 43.2517 288.583 43.3337 287.829 43.3337C287.075 43.3337 286.423 43.2517 285.872 43.0876C285.322 42.9275 284.898 42.6931 284.601 42.3845C284.308 42.0759 284.161 41.7087 284.161 41.283C284.161 40.8533 284.308 40.4841 284.601 40.1755C284.898 39.8669 285.32 39.6326 285.867 39.4724C286.417 39.3083 287.072 39.2244 287.829 39.2205ZM287.829 40.3689C286.376 40.3689 285.65 40.6736 285.65 41.283C285.65 41.5876 285.833 41.8162 286.2 41.9685C286.572 42.1208 287.115 42.197 287.829 42.197C288.544 42.197 289.087 42.1208 289.458 41.9685C289.833 41.8123 290.021 41.5837 290.021 41.283C290.021 40.6736 289.29 40.3689 287.829 40.3689ZM288.638 34.4978H286.517C286.529 34.9275 286.624 35.3416 286.804 35.74C286.988 36.1345 287.259 36.49 287.618 36.8064C287.982 37.1228 288.431 37.3689 288.966 37.5447L288.228 38.7166C287.658 38.533 287.165 38.2595 286.751 37.8962C286.341 37.5291 286.017 37.0974 285.779 36.6013C285.533 37.1638 285.193 37.6521 284.759 38.0662C284.325 38.4763 283.802 38.7869 283.189 38.9978L282.415 37.8142C282.978 37.6267 283.449 37.3611 283.827 37.0173C284.21 36.6697 284.495 36.2791 284.683 35.8455C284.874 35.4119 284.978 34.9626 284.993 34.4978H282.849V33.3025H288.638V34.4978Z" fill="#B08A42"/>
<g id="Ellipse 6" filter="url(#filter1_d_122_5659)">
<circle cx="311.598" cy="37.7439" r="9" fill="#E8E4DC"/>
</g>
</g>
</g>
<g id="Frame 55">
<g id="Container_4">
<g id="Container_5">
<g id="Icon" clip-path="url(#clip0_122_5659)">
<path id="Vector" d="M30.0747 63.0737V65.7389" stroke="#7A7873" stroke-width="1.33259" stroke-linecap="round" stroke-linejoin="round"/>
<path id="Vector_2" d="M35.4048 63.0737V65.7389" stroke="#7A7873" stroke-width="1.33259" stroke-linecap="round" stroke-linejoin="round"/>
<path id="Vector_3" d="M37.4039 64.4065H28.0758C27.3398 64.4065 26.7432 65.0031 26.7432 65.7391V75.0672C26.7432 75.8032 27.3398 76.3998 28.0758 76.3998H37.4039C38.1399 76.3998 38.7365 75.8032 38.7365 75.0672V65.7391C38.7365 65.0031 38.1399 64.4065 37.4039 64.4065Z" stroke="#7A7873" stroke-width="1.33259" stroke-linecap="round" stroke-linejoin="round"/>
<path id="Vector_4" d="M26.7432 68.4041H38.7365" stroke="#7A7873" stroke-width="1.33259" stroke-linecap="round" stroke-linejoin="round"/>
</g>
<g id="Text">
<path id="2026-04-15" d="M49.647 74.8372L53.0239 71.2825C53.4705 70.8131 53.8101 70.4348 54.0425 70.1477C54.2795 69.856 54.4572 69.5758 54.5757 69.3069C54.6987 69.0334 54.7603 68.7486 54.7603 68.4524C54.7603 68.1243 54.6737 67.8326 54.5005 67.5774C54.3273 67.3222 54.0903 67.1239 53.7896 66.9827C53.4933 66.8414 53.1606 66.7708 52.7915 66.7708C52.4041 66.7708 52.0646 66.8482 51.7729 67.0032C51.4813 67.1581 51.2557 67.3769 51.0962 67.6594C50.9412 67.942 50.8638 68.2655 50.8638 68.6301H49.7017C49.6971 68.0559 49.8293 67.5478 50.0981 67.1057C50.3716 66.6637 50.7476 66.3196 51.2261 66.0735C51.7046 65.8274 52.2401 65.7043 52.8325 65.7043C53.4204 65.7043 53.9468 65.8251 54.4116 66.0667C54.881 66.3082 55.2479 66.6386 55.5122 67.0579C55.7765 67.4771 55.9087 67.942 55.9087 68.4524C55.9087 68.8306 55.8403 69.193 55.7036 69.5393C55.5669 69.8811 55.3368 70.2616 55.0132 70.6809C54.6942 71.0956 54.2362 71.6106 53.6392 72.2258L51.3696 74.5637V74.6458H56.0864V75.7395H49.6606L49.647 74.8372ZM61.1177 75.8762C60.3885 75.8762 59.7642 75.678 59.2446 75.2815C58.7297 74.885 58.3354 74.3062 58.062 73.5452C57.7931 72.7841 57.6587 71.8658 57.6587 70.7903C57.6587 69.7284 57.7954 68.817 58.0688 68.0559C58.3423 67.2903 58.7388 66.7069 59.2583 66.3059C59.7778 65.9049 60.3976 65.7043 61.1177 65.7043C61.8377 65.7043 62.4575 65.9049 62.9771 66.3059C63.4966 66.7069 63.8931 67.2903 64.1665 68.0559C64.4399 68.817 64.5767 69.7284 64.5767 70.7903C64.5767 71.8658 64.4399 72.7841 64.1665 73.5452C63.8976 74.3062 63.5034 74.885 62.9839 75.2815C62.4644 75.678 61.8423 75.8762 61.1177 75.8762ZM61.1177 74.7825C61.5916 74.7825 61.9972 74.6275 62.3345 74.3176C62.6717 74.0077 62.9292 73.5543 63.1069 72.9573C63.2847 72.3603 63.3735 71.6379 63.3735 70.7903C63.3735 69.9426 63.2847 69.218 63.1069 68.6165C62.9292 68.0149 62.6717 67.5569 62.3345 67.2424C61.9972 66.928 61.5916 66.7708 61.1177 66.7708C60.6437 66.7708 60.2358 66.928 59.894 67.2424C59.5568 67.5569 59.297 68.0149 59.1147 68.6165C58.937 69.218 58.8481 69.9426 58.8481 70.7903C58.8481 71.6379 58.937 72.3603 59.1147 72.9573C59.2925 73.5543 59.55 74.0077 59.8872 74.3176C60.229 74.6275 60.6392 74.7825 61.1177 74.7825ZM66.2036 74.8372L69.5806 71.2825C70.0272 70.8131 70.3667 70.4348 70.5991 70.1477C70.8361 69.856 71.0138 69.5758 71.1323 69.3069C71.2554 69.0334 71.3169 68.7486 71.3169 68.4524C71.3169 68.1243 71.2303 67.8326 71.0571 67.5774C70.884 67.3222 70.647 67.1239 70.3462 66.9827C70.05 66.8414 69.7173 66.7708 69.3481 66.7708C68.9608 66.7708 68.6213 66.8482 68.3296 67.0032C68.0379 67.1581 67.8123 67.3769 67.6528 67.6594C67.4979 67.942 67.4204 68.2655 67.4204 68.6301H66.2583C66.2537 68.0559 66.3859 67.5478 66.6548 67.1057C66.9282 66.6637 67.3042 66.3196 67.7827 66.0735C68.2612 65.8274 68.7967 65.7043 69.3892 65.7043C69.9771 65.7043 70.5034 65.8251 70.9683 66.0667C71.4377 66.3082 71.8045 66.6386 72.0688 67.0579C72.3332 67.4771 72.4653 67.942 72.4653 68.4524C72.4653 68.8306 72.397 69.193 72.2603 69.5393C72.1235 69.8811 71.8934 70.2616 71.5698 70.6809C71.2508 71.0956 70.7928 71.6106 70.1958 72.2258L67.9263 74.5637V74.6458H72.6431V75.7395H66.2173L66.2036 74.8372ZM77.9067 75.8762C77.2687 75.8762 76.6763 75.7327 76.1294 75.4456C75.5871 75.1539 75.1405 74.6594 74.7896 73.9622C74.4432 73.2603 74.27 72.3306 74.27 71.1731C74.27 70.0201 74.4204 69.0334 74.7212 68.2131C75.0265 67.3928 75.4595 66.7708 76.02 66.3469C76.5851 65.9185 77.255 65.7043 78.0298 65.7043C78.5994 65.7043 79.1099 65.8137 79.561 66.0325C80.0168 66.2512 80.3882 66.5588 80.6753 66.9553C80.967 67.3518 81.1561 67.8098 81.2427 68.3293H80.0259C79.9028 67.8691 79.6704 67.4999 79.3286 67.2219C78.9914 66.9394 78.5584 66.7981 78.0298 66.7981C77.492 66.7981 77.0272 66.9485 76.6353 67.2493C76.2479 67.5455 75.9494 67.9762 75.7397 68.5413C75.5347 69.1064 75.4321 69.7831 75.4321 70.5715H75.5552C75.8468 70.1568 76.2114 69.8355 76.6489 69.6077C77.0864 69.3752 77.5695 69.259 78.0981 69.259C78.6815 69.259 79.2192 69.4003 79.7114 69.6829C80.2082 69.9654 80.6001 70.3573 80.8872 70.8586C81.1789 71.3554 81.3247 71.9159 81.3247 72.5403C81.3247 73.1555 81.1812 73.7183 80.894 74.2288C80.6115 74.7346 80.2104 75.1357 79.6909 75.4319C79.1714 75.7281 78.5767 75.8762 77.9067 75.8762ZM77.8794 74.7961C78.2987 74.7961 78.6792 74.6959 79.021 74.4954C79.3628 74.2948 79.6317 74.0237 79.8276 73.6819C80.0282 73.3355 80.1307 72.9596 80.1353 72.554C80.1307 72.1484 80.0327 71.7769 79.8413 71.4397C79.6499 71.1025 79.3856 70.8359 79.0483 70.6399C78.7111 70.4394 78.3306 70.3391 77.9067 70.3391C77.4829 70.3391 77.0955 70.4417 76.7446 70.6467C76.3937 70.8518 76.1157 71.1275 75.9106 71.4739C75.7056 71.8157 75.6007 72.1803 75.5962 72.5676C75.5962 72.955 75.6942 73.3196 75.8901 73.6614C76.0907 74.0032 76.3641 74.2789 76.7104 74.4885C77.0614 74.6936 77.451 74.7961 77.8794 74.7961ZM87.2856 71.3372H82.9517V70.2571H87.2856V71.3372ZM92.3169 75.8762C91.5877 75.8762 90.9634 75.678 90.4438 75.2815C89.9289 74.885 89.5347 74.3062 89.2612 73.5452C88.9924 72.7841 88.8579 71.8658 88.8579 70.7903C88.8579 69.7284 88.9946 68.817 89.2681 68.0559C89.5415 67.2903 89.938 66.7069 90.4575 66.3059C90.9771 65.9049 91.5968 65.7043 92.3169 65.7043C93.0369 65.7043 93.6567 65.9049 94.1763 66.3059C94.6958 66.7069 95.0923 67.2903 95.3657 68.0559C95.6392 68.817 95.7759 69.7284 95.7759 70.7903C95.7759 71.8658 95.6392 72.7841 95.3657 73.5452C95.0968 74.3062 94.7026 74.885 94.1831 75.2815C93.6636 75.678 93.0415 75.8762 92.3169 75.8762ZM92.3169 74.7825C92.7909 74.7825 93.1965 74.6275 93.5337 74.3176C93.8709 74.0077 94.1284 73.5543 94.3062 72.9573C94.4839 72.3603 94.5728 71.6379 94.5728 70.7903C94.5728 69.9426 94.4839 69.218 94.3062 68.6165C94.1284 68.0149 93.8709 67.5569 93.5337 67.2424C93.1965 66.928 92.7909 66.7708 92.3169 66.7708C91.8429 66.7708 91.4351 66.928 91.0933 67.2424C90.756 67.5569 90.4963 68.0149 90.314 68.6165C90.1362 69.218 90.0474 69.9426 90.0474 70.7903C90.0474 71.6379 90.1362 72.3603 90.314 72.9573C90.4917 73.5543 90.7492 74.0077 91.0864 74.3176C91.4282 74.6275 91.8384 74.7825 92.3169 74.7825ZM97.1704 72.7043L101.627 65.8411H103.145V72.636H104.526V73.7161H103.145V75.7395H101.969V73.7161H97.1704V72.7043ZM101.969 72.636V67.3997H101.846L98.4966 72.554V72.636H101.969ZM110.418 71.3372H106.084V70.2571H110.418V71.3372ZM115.709 75.7395H114.465V67.1262H114.411L112.004 68.7258V67.4817L114.465 65.8411H115.709V75.7395ZM121.575 75.8762C120.987 75.8762 120.451 75.7646 119.968 75.5413C119.49 75.3134 119.107 75.0012 118.82 74.6047C118.537 74.2037 118.385 73.7525 118.362 73.2512H119.551C119.583 73.5429 119.693 73.8072 119.879 74.0442C120.066 74.2766 120.308 74.4612 120.604 74.5979C120.9 74.7301 121.224 74.7961 121.575 74.7961C121.994 74.7961 122.372 74.7004 122.709 74.509C123.047 74.3176 123.311 74.0556 123.502 73.7229C123.694 73.3902 123.79 73.0188 123.79 72.6086C123.79 72.1848 123.689 71.8043 123.489 71.467C123.293 71.1252 123.019 70.8586 122.668 70.6672C122.322 70.4713 121.93 70.371 121.493 70.3665C120.613 70.3528 119.998 70.649 119.647 71.2551H118.458L119.155 65.8411H124.514V66.9348H120.18L119.811 69.8333H119.907C120.13 69.6601 120.401 69.5211 120.72 69.4163C121.039 69.3114 121.37 69.259 121.711 69.259C122.331 69.259 122.889 69.4026 123.386 69.6897C123.888 69.9722 124.279 70.3665 124.562 70.8723C124.849 71.3782 124.993 71.9478 124.993 72.5813C124.993 73.2102 124.845 73.7753 124.548 74.2766C124.252 74.7779 123.844 75.1698 123.325 75.4524C122.805 75.7349 122.222 75.8762 121.575 75.8762Z" fill="#7A7873"/>
</g>
</g>
<g id="Container_6">
<g id="Icon_2" clip-path="url(#clip1_122_5659)">
<path id="Vector_5" d="M38.0699 92.3907C38.0699 95.7175 34.3793 99.1822 33.14 100.252C33.0245 100.339 32.884 100.386 32.7395 100.386C32.5951 100.386 32.4546 100.339 32.3391 100.252C31.0998 99.1822 27.4092 95.7175 27.4092 92.3907C27.4092 90.977 27.9708 89.6212 28.9704 88.6215C29.97 87.6219 31.3258 87.0603 32.7395 87.0603C34.1532 87.0603 35.509 87.6219 36.5087 88.6215C37.5083 89.6212 38.0699 90.977 38.0699 92.3907Z" stroke="#7A7873" stroke-width="1.33259" stroke-linecap="round" stroke-linejoin="round"/>
<path id="Vector_6" d="M32.7396 94.3896C33.8436 94.3896 34.7385 93.4947 34.7385 92.3907C34.7385 91.2868 33.8436 90.3918 32.7396 90.3918C31.6357 90.3918 30.7407 91.2868 30.7407 92.3907C30.7407 93.4947 31.6357 94.3896 32.7396 94.3896Z" stroke="#7A7873" stroke-width="1.33259" stroke-linecap="round" stroke-linejoin="round"/>
</g>
<g id="Text_2">
<path id="&#236;&#132;&#156;&#236;&#154;&#184;" d="M53.5024 91.9468C53.5024 92.6668 53.6437 93.3778 53.9263 94.0796C54.2088 94.7814 54.5916 95.4058 55.0747 95.9526C55.5578 96.495 56.091 96.9006 56.6743 97.1694L56.0317 98.0444C55.3436 97.689 54.7284 97.1672 54.186 96.479C53.6437 95.7909 53.2381 95.0138 52.9692 94.1479C52.6958 95.064 52.2879 95.8866 51.7456 96.6157C51.2078 97.3449 50.5949 97.894 49.9067 98.2632L49.2095 97.4019C49.7974 97.1147 50.3351 96.6841 50.8228 96.1099C51.3104 95.5311 51.6955 94.8771 51.978 94.1479C52.2651 93.4142 52.4087 92.6805 52.4087 91.9468V89.7319H53.5024V91.9468ZM59.2993 100.861H58.2329V93.7104H55.3481V92.8354H58.2329V88.6792H59.2993V100.861ZM66.8599 88.8296C67.7622 88.8296 68.5347 88.9116 69.1772 89.0757C69.8198 89.2397 70.3097 89.479 70.647 89.7935C70.9842 90.1079 71.1528 90.4884 71.1528 90.9351C71.1528 91.3862 70.9842 91.769 70.647 92.0835C70.3097 92.3979 69.8198 92.6372 69.1772 92.8013C68.5347 92.9653 67.7622 93.0496 66.8599 93.0542C65.9575 93.0496 65.1828 92.9653 64.5356 92.8013C63.8931 92.6372 63.4009 92.3979 63.0591 92.0835C62.7218 91.769 62.5532 91.3862 62.5532 90.9351C62.5532 90.4884 62.7218 90.1079 63.0591 89.7935C63.4009 89.479 63.8931 89.2397 64.5356 89.0757C65.1828 88.9116 65.9575 88.8296 66.8599 88.8296ZM66.8599 89.6499C65.8436 89.659 65.0575 89.7752 64.5015 89.9985C63.9455 90.2218 63.6698 90.534 63.6743 90.9351C63.6698 91.3498 63.9432 91.6688 64.4946 91.8921C65.0506 92.1108 65.839 92.2248 66.8599 92.2339C67.8761 92.2248 68.6623 92.1108 69.2183 91.8921C69.7788 91.6688 70.0591 91.3498 70.0591 90.9351C70.0591 90.534 69.7765 90.2218 69.2114 89.9985C68.6509 89.7752 67.867 89.659 66.8599 89.6499ZM72.397 94.7222H67.3794V95.8706H70.9751V98.5913H63.7563V99.8491H71.3442V100.697H62.6899V97.7983H69.9224V96.6909H62.6626V95.8706H66.313V94.7222H61.3228V93.8608H72.397V94.7222Z" fill="#7A7873"/>
</g>
</g>
<g id="Container_7">
<g id="Icon_3" clip-path="url(#clip2_122_5659)">
<path id="Vector_7" d="M32.7396 124.373C36.4195 124.373 39.4026 121.39 39.4026 117.71C39.4026 114.03 36.4195 111.047 32.7396 111.047C29.0598 111.047 26.0767 114.03 26.0767 117.71C26.0767 121.39 29.0598 124.373 32.7396 124.373Z" stroke="#7A7873" stroke-width="1.33259" stroke-linecap="round" stroke-linejoin="round"/>
<path id="Vector_8" d="M32.7397 113.712V117.71L35.4049 119.043" stroke="#7A7873" stroke-width="1.33259" stroke-linecap="round" stroke-linejoin="round"/>
</g>
<g id="Text_3">
<path id="&#235;&#139;&#185;&#236;&#157;&#188;" d="M58.7388 115.838H60.5571V116.74H58.7388V119.926H57.6587V112.666H58.7388V115.838ZM54.8286 120.158C55.6489 120.158 56.3599 120.252 56.9614 120.438C57.563 120.621 58.0256 120.885 58.3491 121.231C58.6727 121.578 58.8345 121.99 58.8345 122.469C58.8345 122.956 58.6727 123.373 58.3491 123.72C58.0256 124.071 57.563 124.337 56.9614 124.52C56.3644 124.702 55.6535 124.793 54.8286 124.793C53.9992 124.793 53.2814 124.702 52.6753 124.52C52.0737 124.337 51.6089 124.071 51.2808 123.72C50.9572 123.373 50.7954 122.956 50.7954 122.469C50.7954 121.99 50.9572 121.578 51.2808 121.231C51.6089 120.885 52.076 120.621 52.6821 120.438C53.2882 120.252 54.0037 120.158 54.8286 120.158ZM54.8286 121.047C54.2225 121.042 53.6938 121.097 53.2427 121.211C52.7961 121.325 52.452 121.491 52.2104 121.71C51.9689 121.924 51.8481 122.177 51.8481 122.469C51.8481 122.765 51.9689 123.025 52.2104 123.248C52.452 123.467 52.7961 123.635 53.2427 123.754C53.6938 123.872 54.2225 123.932 54.8286 123.932C55.4302 123.932 55.9543 123.872 56.4009 123.754C56.8475 123.635 57.1916 123.467 57.4331 123.248C57.6746 123.025 57.7954 122.765 57.7954 122.469C57.7954 122.177 57.6746 121.924 57.4331 121.71C57.1916 121.491 56.8475 121.325 56.4009 121.211C55.9543 121.097 55.4302 121.042 54.8286 121.047ZM55.1841 114.484H50.8364V118.053C52.1353 118.044 53.1834 118.012 53.981 117.957C54.7785 117.898 55.5669 117.788 56.3462 117.629L56.4556 118.518C55.6444 118.682 54.8263 118.791 54.0015 118.846C53.1766 118.9 52.0851 118.928 50.7271 118.928H49.7837V113.596H55.1841V114.484ZM64.7681 113.117C65.3696 113.122 65.9074 113.238 66.3813 113.466C66.8599 113.694 67.2336 114.013 67.5024 114.423C67.7759 114.828 67.9126 115.291 67.9126 115.811C67.9126 116.33 67.7759 116.795 67.5024 117.205C67.2336 117.611 66.8599 117.927 66.3813 118.155C65.9074 118.379 65.3696 118.49 64.7681 118.49C64.1574 118.49 63.6128 118.379 63.1343 118.155C62.6558 117.927 62.2821 117.611 62.0132 117.205C61.7443 116.795 61.6099 116.33 61.6099 115.811C61.6099 115.291 61.7443 114.828 62.0132 114.423C62.2821 114.013 62.6558 113.694 63.1343 113.466C63.6128 113.238 64.1574 113.122 64.7681 113.117ZM64.7681 114.02C64.367 114.02 64.0047 114.097 63.6812 114.252C63.3621 114.402 63.1115 114.614 62.9292 114.888C62.7469 115.157 62.658 115.464 62.6626 115.811C62.658 116.161 62.7469 116.474 62.9292 116.747C63.1115 117.021 63.3621 117.235 63.6812 117.39C64.0047 117.54 64.367 117.615 64.7681 117.615C65.1646 117.615 65.5223 117.54 65.8413 117.39C66.1649 117.235 66.4178 117.021 66.6001 116.747C66.7824 116.474 66.8735 116.161 66.8735 115.811C66.8735 115.464 66.7824 115.157 66.6001 114.888C66.4178 114.614 66.1649 114.402 65.8413 114.252C65.5223 114.097 65.1646 114.02 64.7681 114.02ZM71.3579 118.914H70.2915V112.666H71.3579V118.914ZM71.3579 122.428H64.5356V123.795H71.7954V124.656H63.4829V121.621H70.2915V120.363H63.4556V119.502H71.3579V122.428Z" fill="#7A7873"/>
</g>
</g>
</g>
</g>
</g>
</g>
<g id="Button_2" filter="url(#filter2_d_122_5659)">
<path d="M4 180.444C4 171.608 11.1634 164.444 20 164.444H333.342C342.178 164.444 349.342 171.608 349.342 180.444V293.898C349.342 302.734 342.178 309.898 333.342 309.898H20C11.1635 309.898 4 302.734 4 293.898V180.444Z" fill="#262B28"/>
<path d="M20 164.944H333.342C341.902 164.944 348.842 171.884 348.842 180.444V293.897C348.842 302.458 341.902 309.397 333.342 309.397H20C11.4396 309.397 4.5 302.458 4.5 293.897V180.444C4.50001 171.884 11.4396 164.944 20 164.944Z" stroke="#373F3B"/>
<g id="Container_8">
<g id="Container_9">
<g id="Container_10">
<g id="Heading 3_2">
<path id="&#236;&#160;&#156;&#236;&#163;&#188;&#235;&#143;&#132; 3&#235;&#176;&#149; 4&#236;&#157;&#188;" d="M38.9473 203.25H37.084V187.36H38.9473V203.25ZM35.7129 202.477H33.8672V194.479H31.582V192.897H33.8672V187.658H35.7129V202.477ZM30.1758 191.701C30.1758 192.633 30.29 193.527 30.5186 194.382C30.7529 195.238 31.1104 196.014 31.5908 196.711C32.0771 197.408 32.6836 197.965 33.4102 198.381L32.25 199.823C31.5352 199.395 30.9287 198.823 30.4307 198.109C29.9326 197.388 29.54 196.559 29.2529 195.621C28.9658 196.635 28.5645 197.537 28.0488 198.328C27.5332 199.114 26.9121 199.735 26.1855 200.192L24.9902 198.733C25.7285 198.287 26.3438 197.693 26.8359 196.948C27.334 196.204 27.7002 195.384 27.9346 194.488C28.1748 193.585 28.2949 192.656 28.2949 191.701V190.647H25.5352V189.065H32.7422V190.647H30.1758V191.701ZM55.0125 197.801H48.702V203.233H46.7684V197.801H40.5281V196.219H55.0125V197.801ZM53.6766 189.803H48.9041C48.9451 190.383 49.1941 190.943 49.6512 191.482C50.1082 192.015 50.7352 192.472 51.532 192.853C52.3289 193.234 53.2371 193.489 54.2566 193.617L53.5535 195.147C52.2059 194.959 51.0252 194.573 50.0115 193.987C49.0037 193.401 48.2566 192.674 47.7703 191.807C47.284 192.668 46.5369 193.395 45.5291 193.987C44.5213 194.573 43.3523 194.959 42.0223 195.147L41.284 193.617C42.2977 193.489 43.2 193.234 43.991 192.853C44.7879 192.472 45.4148 192.015 45.8719 191.482C46.3348 190.943 46.5896 190.383 46.6365 189.803H41.8641V188.256H53.6766V189.803ZM68.6871 196.131H63.9762V199.77H70.3043V201.369H55.7848V199.77H62.0426V196.131H57.5426V188.537H68.5641V190.102H59.4937V194.584H68.6871V196.131ZM80.1633 201.862C79.2668 201.862 78.4641 201.709 77.7551 201.405C77.0461 201.1 76.4895 200.675 76.0852 200.13C75.6809 199.579 75.4699 198.949 75.4523 198.24H77.7551C77.7785 198.574 77.8957 198.87 78.1066 199.128C78.3234 199.38 78.6105 199.576 78.968 199.717C79.3254 199.858 79.7238 199.928 80.1633 199.928C80.6262 199.928 81.0393 199.849 81.4025 199.691C81.7717 199.527 82.0588 199.301 82.2639 199.014C82.4689 198.727 82.5715 198.399 82.5715 198.03C82.5715 197.649 82.466 197.309 82.2551 197.01C82.0441 196.711 81.7395 196.48 81.341 196.316C80.9426 196.146 80.4738 196.061 79.9348 196.061H78.7922V194.303H79.9348C80.3801 194.303 80.7756 194.227 81.1213 194.074C81.4729 193.916 81.7453 193.697 81.9387 193.415C82.132 193.128 82.2258 192.803 82.2199 192.44C82.2258 192.088 82.1437 191.778 81.9738 191.508C81.8098 191.233 81.5725 191.022 81.2619 190.875C80.9514 190.723 80.591 190.647 80.1809 190.647C79.7824 190.647 79.4104 190.72 79.0646 190.866C78.7248 191.007 78.4494 191.209 78.2385 191.473C78.0334 191.737 77.925 192.041 77.9133 192.387H75.716C75.7336 191.684 75.9387 191.06 76.3312 190.515C76.7297 189.97 77.2658 189.545 77.9396 189.24C78.6193 188.936 79.3723 188.783 80.1984 188.783C81.0363 188.783 81.7775 188.942 82.4221 189.258C83.0666 189.569 83.5646 189.993 83.9162 190.532C84.2678 191.072 84.4406 191.666 84.4348 192.317C84.4406 192.785 84.3469 193.21 84.1535 193.591C83.9602 193.972 83.6877 194.288 83.3361 194.54C82.9846 194.792 82.5773 194.965 82.1145 195.059V195.164C82.7062 195.246 83.2131 195.422 83.635 195.692C84.0568 195.955 84.3762 196.298 84.593 196.72C84.8098 197.142 84.9152 197.619 84.9094 198.153C84.9152 198.856 84.7131 199.491 84.3029 200.06C83.8986 200.622 83.3332 201.065 82.6066 201.387C81.8859 201.703 81.0715 201.862 80.1633 201.862ZM98.6191 191.332H100.834V192.932H98.6191V196.922H96.668V187.36H98.6191V191.332ZM98.6191 203.25H96.668V199.225H88.0371V197.66H98.6191V203.25ZM88.5645 190.612H92.2734V188.362H94.207V195.99H86.6309V188.362H88.5645V190.612ZM92.2734 194.444V192.141H88.5645V194.444H92.2734ZM105.613 197.485L111.115 188.959H113.963V197.432H115.632V199.313H113.963V201.686H111.783V199.313H105.613V197.485ZM111.818 197.432V191.561H111.677L107.951 197.344V197.432H111.818ZM121.133 187.869C121.93 187.869 122.648 188.025 123.287 188.335C123.925 188.64 124.426 189.065 124.789 189.61C125.159 190.155 125.346 190.77 125.352 191.455C125.346 192.147 125.159 192.765 124.789 193.31C124.426 193.855 123.925 194.28 123.287 194.584C122.648 194.889 121.93 195.041 121.133 195.041C120.33 195.041 119.607 194.889 118.962 194.584C118.324 194.28 117.823 193.855 117.459 193.31C117.096 192.765 116.914 192.147 116.914 191.455C116.914 190.77 117.096 190.155 117.459 189.61C117.823 189.065 118.327 188.64 118.971 188.335C119.616 188.025 120.336 187.869 121.133 187.869ZM121.133 189.487C120.688 189.487 120.289 189.569 119.938 189.733C119.586 189.891 119.311 190.119 119.112 190.418C118.912 190.711 118.813 191.057 118.813 191.455C118.813 191.86 118.912 192.214 119.112 192.519C119.311 192.818 119.586 193.049 119.938 193.213C120.289 193.377 120.688 193.459 121.133 193.459C121.579 193.459 121.977 193.377 122.329 193.213C122.68 193.049 122.955 192.818 123.155 192.519C123.354 192.214 123.454 191.86 123.454 191.455C123.454 191.057 123.354 190.711 123.155 190.418C122.955 190.119 122.68 189.891 122.329 189.733C121.977 189.569 121.579 189.487 121.133 189.487ZM129.87 195.393H127.901V187.36H129.87V195.393ZM129.87 200.227H121.274V201.51H130.344V203.057H119.358V198.785H127.918V197.608H119.323V196.078H129.87V200.227Z" fill="#E8E4DC"/>
</g>
<g id="StatusToggleDark_2">
<path d="M271.598 187.688H316.598C322.949 187.688 328.098 192.837 328.098 199.188C328.098 205.54 322.949 210.688 316.598 210.688H271.598C265.247 210.688 260.098 205.54 260.098 199.188C260.098 192.837 265.247 187.688 271.598 187.688Z" fill="#2E2410"/>
<path d="M271.598 187.688H316.598C322.949 187.688 328.098 192.837 328.098 199.188C328.098 205.54 322.949 210.688 316.598 210.688H271.598C265.247 210.688 260.098 205.54 260.098 199.188C260.098 192.837 265.247 187.688 271.598 187.688Z" stroke="#373F3B"/>
<path id="&#236;&#152;&#136;&#236;&#160;&#149;_2" d="M281.161 204.766H279.731V194.102H281.161V204.766ZM278.981 204.274H277.575V200.969H276.321C276.122 201.493 275.85 201.895 275.506 202.177C275.167 202.458 274.774 202.598 274.329 202.598C273.864 202.598 273.456 202.442 273.104 202.13C272.756 201.817 272.487 201.37 272.295 200.788C272.104 200.202 272.008 199.512 272.008 198.719C272.008 197.93 272.104 197.247 272.295 196.669C272.487 196.087 272.756 195.641 273.104 195.333C273.456 195.02 273.864 194.864 274.329 194.864C274.77 194.864 275.161 195.003 275.5 195.28C275.844 195.557 276.116 195.954 276.315 196.469H277.575V194.255H278.981V204.274ZM274.329 196.27C274.016 196.27 273.776 196.477 273.608 196.891C273.444 197.305 273.364 197.915 273.368 198.719C273.364 199.528 273.444 200.139 273.608 200.553C273.772 200.964 274.012 201.165 274.329 201.157C274.645 201.165 274.889 200.964 275.061 200.553C275.237 200.139 275.325 199.528 275.325 198.719C275.325 197.923 275.237 197.315 275.061 196.897C274.885 196.479 274.641 196.27 274.329 196.27ZM276.614 197.665C276.661 197.993 276.684 198.344 276.684 198.719C276.684 199.091 276.661 199.438 276.614 199.762H277.575V197.665H276.614ZM291.474 200.43H289.986V197.911H288.322V196.704H289.986V194.102H291.474V200.43ZM287.829 200.665C288.587 200.669 289.24 200.753 289.786 200.917C290.337 201.077 290.761 201.311 291.058 201.62C291.355 201.928 291.505 202.298 291.509 202.727C291.505 203.153 291.355 203.52 291.058 203.829C290.761 204.137 290.337 204.372 289.786 204.532C289.236 204.696 288.583 204.778 287.829 204.778C287.075 204.778 286.423 204.696 285.872 204.532C285.322 204.372 284.898 204.137 284.601 203.829C284.308 203.52 284.161 203.153 284.161 202.727C284.161 202.298 284.308 201.928 284.601 201.62C284.898 201.311 285.32 201.077 285.867 200.917C286.417 200.753 287.072 200.669 287.829 200.665ZM287.829 201.813C286.376 201.813 285.65 202.118 285.65 202.727C285.65 203.032 285.833 203.26 286.2 203.413C286.572 203.565 287.115 203.641 287.829 203.641C288.544 203.641 289.087 203.565 289.458 203.413C289.833 203.257 290.021 203.028 290.021 202.727C290.021 202.118 289.29 201.813 287.829 201.813ZM288.638 195.942H286.517C286.529 196.372 286.624 196.786 286.804 197.184C286.988 197.579 287.259 197.934 287.618 198.251C287.982 198.567 288.431 198.813 288.966 198.989L288.228 200.161C287.658 199.977 287.165 199.704 286.751 199.341C286.341 198.973 286.017 198.542 285.779 198.046C285.533 198.608 285.193 199.096 284.759 199.51C284.325 199.921 283.802 200.231 283.189 200.442L282.415 199.259C282.978 199.071 283.449 198.805 283.827 198.462C284.21 198.114 284.495 197.723 284.683 197.29C284.874 196.856 284.978 196.407 284.993 195.942H282.849V194.747H288.638V195.942Z" fill="#B08A42"/>
<g id="Ellipse 6_2" filter="url(#filter3_d_122_5659)">
<circle cx="311.598" cy="199.188" r="9" fill="#E8E4DC"/>
</g>
</g>
</g>
<g id="Container_11">
<g id="Container_12">
<g id="Icon_4" clip-path="url(#clip3_122_5659)">
<path id="Vector_9" d="M30.0747 224.518V227.183" stroke="#7A7873" stroke-width="1.33259" stroke-linecap="round" stroke-linejoin="round"/>
<path id="Vector_10" d="M35.4048 224.518V227.183" stroke="#7A7873" stroke-width="1.33259" stroke-linecap="round" stroke-linejoin="round"/>
<path id="Vector_11" d="M37.4039 225.851H28.0758C27.3398 225.851 26.7432 226.447 26.7432 227.183V236.512C26.7432 237.248 27.3398 237.844 28.0758 237.844H37.4039C38.1399 237.844 38.7365 237.248 38.7365 236.512V227.183C38.7365 226.447 38.1399 225.851 37.4039 225.851Z" stroke="#7A7873" stroke-width="1.33259" stroke-linecap="round" stroke-linejoin="round"/>
<path id="Vector_12" d="M26.7432 229.848H38.7365" stroke="#7A7873" stroke-width="1.33259" stroke-linecap="round" stroke-linejoin="round"/>
</g>
<g id="Text_4">
<path id="2026-05-10" d="M49.647 236.281L53.0239 232.727C53.4705 232.257 53.8101 231.879 54.0425 231.592C54.2795 231.3 54.4572 231.02 54.5757 230.751C54.6987 230.478 54.7603 230.193 54.7603 229.897C54.7603 229.569 54.6737 229.277 54.5005 229.022C54.3273 228.767 54.0903 228.568 53.7896 228.427C53.4933 228.286 53.1606 228.215 52.7915 228.215C52.4041 228.215 52.0646 228.293 51.7729 228.448C51.4813 228.602 51.2557 228.821 51.0962 229.104C50.9412 229.386 50.8638 229.71 50.8638 230.074H49.7017C49.6971 229.5 49.8293 228.992 50.0981 228.55C50.3716 228.108 50.7476 227.764 51.2261 227.518C51.7046 227.272 52.2401 227.149 52.8325 227.149C53.4204 227.149 53.9468 227.269 54.4116 227.511C54.881 227.753 55.2479 228.083 55.5122 228.502C55.7765 228.921 55.9087 229.386 55.9087 229.897C55.9087 230.275 55.8403 230.637 55.7036 230.984C55.5669 231.325 55.3368 231.706 55.0132 232.125C54.6942 232.54 54.2362 233.055 53.6392 233.67L51.3696 236.008V236.09H56.0864V237.184H49.6606L49.647 236.281ZM61.1177 237.321C60.3885 237.321 59.7642 237.122 59.2446 236.726C58.7297 236.329 58.3354 235.751 58.062 234.99C57.7931 234.228 57.6587 233.31 57.6587 232.235C57.6587 231.173 57.7954 230.261 58.0688 229.5C58.3423 228.735 58.7388 228.151 59.2583 227.75C59.7778 227.349 60.3976 227.149 61.1177 227.149C61.8377 227.149 62.4575 227.349 62.9771 227.75C63.4966 228.151 63.8931 228.735 64.1665 229.5C64.4399 230.261 64.5767 231.173 64.5767 232.235C64.5767 233.31 64.4399 234.228 64.1665 234.99C63.8976 235.751 63.5034 236.329 62.9839 236.726C62.4644 237.122 61.8423 237.321 61.1177 237.321ZM61.1177 236.227C61.5916 236.227 61.9972 236.072 62.3345 235.762C62.6717 235.452 62.9292 234.999 63.1069 234.402C63.2847 233.805 63.3735 233.082 63.3735 232.235C63.3735 231.387 63.2847 230.662 63.1069 230.061C62.9292 229.459 62.6717 229.001 62.3345 228.687C61.9972 228.372 61.5916 228.215 61.1177 228.215C60.6437 228.215 60.2358 228.372 59.894 228.687C59.5568 229.001 59.297 229.459 59.1147 230.061C58.937 230.662 58.8481 231.387 58.8481 232.235C58.8481 233.082 58.937 233.805 59.1147 234.402C59.2925 234.999 59.55 235.452 59.8872 235.762C60.229 236.072 60.6392 236.227 61.1177 236.227ZM66.2036 236.281L69.5806 232.727C70.0272 232.257 70.3667 231.879 70.5991 231.592C70.8361 231.3 71.0138 231.02 71.1323 230.751C71.2554 230.478 71.3169 230.193 71.3169 229.897C71.3169 229.569 71.2303 229.277 71.0571 229.022C70.884 228.767 70.647 228.568 70.3462 228.427C70.05 228.286 69.7173 228.215 69.3481 228.215C68.9608 228.215 68.6213 228.293 68.3296 228.448C68.0379 228.602 67.8123 228.821 67.6528 229.104C67.4979 229.386 67.4204 229.71 67.4204 230.074H66.2583C66.2537 229.5 66.3859 228.992 66.6548 228.55C66.9282 228.108 67.3042 227.764 67.7827 227.518C68.2612 227.272 68.7967 227.149 69.3892 227.149C69.9771 227.149 70.5034 227.269 70.9683 227.511C71.4377 227.753 71.8045 228.083 72.0688 228.502C72.3332 228.921 72.4653 229.386 72.4653 229.897C72.4653 230.275 72.397 230.637 72.2603 230.984C72.1235 231.325 71.8934 231.706 71.5698 232.125C71.2508 232.54 70.7928 233.055 70.1958 233.67L67.9263 236.008V236.09H72.6431V237.184H66.2173L66.2036 236.281ZM77.9067 237.321C77.2687 237.321 76.6763 237.177 76.1294 236.89C75.5871 236.598 75.1405 236.104 74.7896 235.406C74.4432 234.705 74.27 233.775 74.27 232.617C74.27 231.464 74.4204 230.478 74.7212 229.657C75.0265 228.837 75.4595 228.215 76.02 227.791C76.5851 227.363 77.255 227.149 78.0298 227.149C78.5994 227.149 79.1099 227.258 79.561 227.477C80.0168 227.696 80.3882 228.003 80.6753 228.4C80.967 228.796 81.1561 229.254 81.2427 229.774H80.0259C79.9028 229.313 79.6704 228.944 79.3286 228.666C78.9914 228.384 78.5584 228.242 78.0298 228.242C77.492 228.242 77.0272 228.393 76.6353 228.694C76.2479 228.99 75.9494 229.42 75.7397 229.986C75.5347 230.551 75.4321 231.227 75.4321 232.016H75.5552C75.8468 231.601 76.2114 231.28 76.6489 231.052C77.0864 230.82 77.5695 230.703 78.0981 230.703C78.6815 230.703 79.2192 230.845 79.7114 231.127C80.2082 231.41 80.6001 231.802 80.8872 232.303C81.1789 232.8 81.3247 233.36 81.3247 233.985C81.3247 234.6 81.1812 235.163 80.894 235.673C80.6115 236.179 80.2104 236.58 79.6909 236.876C79.1714 237.172 78.5767 237.321 77.9067 237.321ZM77.8794 236.24C78.2987 236.24 78.6792 236.14 79.021 235.94C79.3628 235.739 79.6317 235.468 79.8276 235.126C80.0282 234.78 80.1307 234.404 80.1353 233.998C80.1307 233.593 80.0327 233.221 79.8413 232.884C79.6499 232.547 79.3856 232.28 79.0483 232.084C78.7111 231.884 78.3306 231.783 77.9067 231.783C77.4829 231.783 77.0955 231.886 76.7446 232.091C76.3937 232.296 76.1157 232.572 75.9106 232.918C75.7056 233.26 75.6007 233.625 75.5962 234.012C75.5962 234.399 75.6942 234.764 75.8901 235.106C76.0907 235.448 76.3641 235.723 76.7104 235.933C77.0614 236.138 77.451 236.24 77.8794 236.24ZM87.2856 232.781H82.9517V231.701H87.2856V232.781ZM92.3169 237.321C91.5877 237.321 90.9634 237.122 90.4438 236.726C89.9289 236.329 89.5347 235.751 89.2612 234.99C88.9924 234.228 88.8579 233.31 88.8579 232.235C88.8579 231.173 88.9946 230.261 89.2681 229.5C89.5415 228.735 89.938 228.151 90.4575 227.75C90.9771 227.349 91.5968 227.149 92.3169 227.149C93.0369 227.149 93.6567 227.349 94.1763 227.75C94.6958 228.151 95.0923 228.735 95.3657 229.5C95.6392 230.261 95.7759 231.173 95.7759 232.235C95.7759 233.31 95.6392 234.228 95.3657 234.99C95.0968 235.751 94.7026 236.329 94.1831 236.726C93.6636 237.122 93.0415 237.321 92.3169 237.321ZM92.3169 236.227C92.7909 236.227 93.1965 236.072 93.5337 235.762C93.8709 235.452 94.1284 234.999 94.3062 234.402C94.4839 233.805 94.5728 233.082 94.5728 232.235C94.5728 231.387 94.4839 230.662 94.3062 230.061C94.1284 229.459 93.8709 229.001 93.5337 228.687C93.1965 228.372 92.7909 228.215 92.3169 228.215C91.8429 228.215 91.4351 228.372 91.0933 228.687C90.756 229.001 90.4963 229.459 90.314 230.061C90.1362 230.662 90.0474 231.387 90.0474 232.235C90.0474 233.082 90.1362 233.805 90.314 234.402C90.4917 234.999 90.7492 235.452 91.0864 235.762C91.4282 236.072 91.8384 236.227 92.3169 236.227ZM100.643 237.321C100.055 237.321 99.5197 237.209 99.0366 236.986C98.5581 236.758 98.1753 236.446 97.8882 236.049C97.6056 235.648 97.453 235.197 97.4302 234.696H98.6196C98.6515 234.987 98.7609 235.252 98.9478 235.489C99.1346 235.721 99.3761 235.906 99.6724 236.042C99.9686 236.174 100.292 236.24 100.643 236.24C101.062 236.24 101.441 236.145 101.778 235.953C102.115 235.762 102.379 235.5 102.571 235.167C102.762 234.835 102.858 234.463 102.858 234.053C102.858 233.629 102.758 233.249 102.557 232.911C102.361 232.57 102.088 232.303 101.737 232.112C101.39 231.916 100.999 231.815 100.561 231.811C99.6815 231.797 99.0662 232.093 98.7153 232.699H97.5259L98.2231 227.285H103.583V228.379H99.2485L98.8794 231.278H98.9751C99.1984 231.104 99.4696 230.965 99.7886 230.861C100.108 230.756 100.438 230.703 100.78 230.703C101.4 230.703 101.958 230.847 102.455 231.134C102.956 231.417 103.348 231.811 103.63 232.317C103.917 232.823 104.061 233.392 104.061 234.026C104.061 234.655 103.913 235.22 103.617 235.721C103.32 236.222 102.913 236.614 102.393 236.897C101.874 237.179 101.29 237.321 100.643 237.321ZM110.036 232.781H105.702V231.701H110.036V232.781ZM115.327 237.184H114.083V228.571H114.028L111.622 230.17V228.926L114.083 227.285H115.327V237.184ZM121.206 237.321C120.476 237.321 119.852 237.122 119.333 236.726C118.818 236.329 118.423 235.751 118.15 234.99C117.881 234.228 117.747 233.31 117.747 232.235C117.747 231.173 117.883 230.261 118.157 229.5C118.43 228.735 118.827 228.151 119.346 227.75C119.866 227.349 120.486 227.149 121.206 227.149C121.926 227.149 122.545 227.349 123.065 227.75C123.584 228.151 123.981 228.735 124.254 229.5C124.528 230.261 124.665 231.173 124.665 232.235C124.665 233.31 124.528 234.228 124.254 234.99C123.986 235.751 123.591 236.329 123.072 236.726C122.552 237.122 121.93 237.321 121.206 237.321ZM121.206 236.227C121.68 236.227 122.085 236.072 122.422 235.762C122.76 235.452 123.017 234.999 123.195 234.402C123.373 233.805 123.461 233.082 123.461 232.235C123.461 231.387 123.373 230.662 123.195 230.061C123.017 229.459 122.76 229.001 122.422 228.687C122.085 228.372 121.68 228.215 121.206 228.215C120.732 228.215 120.324 228.372 119.982 228.687C119.645 229.001 119.385 229.459 119.203 230.061C119.025 230.662 118.936 231.387 118.936 232.235C118.936 233.082 119.025 233.805 119.203 234.402C119.38 234.999 119.638 235.452 119.975 235.762C120.317 236.072 120.727 236.227 121.206 236.227Z" fill="#7A7873"/>
</g>
</g>
<g id="Container_13">
<g id="Icon_5" clip-path="url(#clip4_122_5659)">
<path id="Vector_13" d="M38.0699 253.835C38.0699 257.162 34.3793 260.627 33.14 261.697C33.0245 261.783 32.884 261.83 32.7395 261.83C32.5951 261.83 32.4546 261.783 32.3391 261.697C31.0998 260.627 27.4092 257.162 27.4092 253.835C27.4092 252.421 27.9708 251.066 28.9704 250.066C29.97 249.066 31.3258 248.505 32.7395 248.505C34.1532 248.505 35.509 249.066 36.5087 250.066C37.5083 251.066 38.0699 252.421 38.0699 253.835Z" stroke="#7A7873" stroke-width="1.33259" stroke-linecap="round" stroke-linejoin="round"/>
<path id="Vector_14" d="M32.7396 255.834C33.8436 255.834 34.7385 254.939 34.7385 253.835C34.7385 252.731 33.8436 251.836 32.7396 251.836C31.6357 251.836 30.7407 252.731 30.7407 253.835C30.7407 254.939 31.6357 255.834 32.7396 255.834Z" stroke="#7A7873" stroke-width="1.33259" stroke-linecap="round" stroke-linejoin="round"/>
</g>
<g id="Text_5">
<path id="&#236;&#160;&#156;&#236;&#163;&#188;&#235;&#143;&#132;" d="M59.6138 262.278H58.5884V250.124H59.6138V262.278ZM57.1528 261.649H56.1411V255.387H54.0903V254.512H56.1411V250.424H57.1528V261.649ZM52.7915 253.596C52.7915 254.303 52.894 254.993 53.0991 255.667C53.3042 256.337 53.605 256.944 54.0015 257.486C54.3979 258.024 54.8696 258.45 55.4165 258.764L54.7603 259.557C54.1724 259.206 53.6688 258.721 53.2495 258.101C52.8302 257.477 52.5112 256.77 52.2925 255.982C52.0692 256.834 51.7388 257.597 51.3013 258.272C50.8683 258.946 50.3534 259.471 49.7563 259.844L49.0728 259.038C49.6242 258.709 50.1027 258.261 50.5083 257.691C50.9139 257.121 51.2215 256.483 51.4312 255.777C51.6453 255.066 51.7524 254.339 51.7524 253.596V252.448H49.4146V251.559H55.02V252.448H52.7915V253.596ZM67.4614 251.846C67.4569 252.366 67.6597 252.862 68.0698 253.336C68.48 253.806 69.0155 254.202 69.6763 254.526C70.3371 254.849 71.0252 255.064 71.7407 255.168L71.3442 256.016C70.7017 255.907 70.0819 255.724 69.4849 255.469C68.8924 255.214 68.366 254.895 67.9058 254.512C67.4455 254.125 67.0968 253.694 66.8599 253.22C66.6229 253.694 66.2743 254.123 65.814 254.505C65.3537 254.888 64.8273 255.209 64.2349 255.469C63.647 255.724 63.0363 255.907 62.4028 256.016L61.979 255.168C62.6899 255.064 63.3758 254.849 64.0366 254.526C64.6974 254.202 65.2329 253.806 65.6431 253.336C66.0532 252.862 66.2583 252.366 66.2583 251.846V251.764H62.3618V250.889H71.3442V251.764H67.4614V251.846ZM72.397 257.944H67.3657V262.278H66.313V257.944H61.3228V257.055H72.397V257.944ZM83.2388 256.7H79.479V259.844H84.5513V260.747H73.4224V259.844H78.4263V256.7H74.8442V251.122H83.1157V251.997H75.9243V255.825H83.2388V256.7Z" fill="#888882"/>
</g>
</g>
<g id="Container_14">
<g id="Icon_6" clip-path="url(#clip5_122_5659)">
<path id="Vector_15" d="M32.7396 285.817C36.4195 285.817 39.4026 282.834 39.4026 279.154C39.4026 275.474 36.4195 272.491 32.7396 272.491C29.0598 272.491 26.0767 275.474 26.0767 279.154C26.0767 282.834 29.0598 285.817 32.7396 285.817Z" stroke="#7A7873" stroke-width="1.33259" stroke-linecap="round" stroke-linejoin="round"/>
<path id="Vector_16" d="M32.7397 275.156V279.154L35.4049 280.487" stroke="#7A7873" stroke-width="1.33259" stroke-linecap="round" stroke-linejoin="round"/>
</g>
<g id="Text_6">
<path id="3&#235;&#176;&#149; 4&#236;&#157;&#188;" d="M53.0786 285.294C52.4269 285.294 51.8436 285.184 51.3286 284.966C50.8182 284.747 50.4126 284.439 50.1118 284.043C49.8156 283.646 49.6561 283.188 49.6333 282.669H50.8774C50.9002 282.974 51.0096 283.243 51.2056 283.475C51.4061 283.708 51.6681 283.888 51.9917 284.015C52.3153 284.138 52.673 284.2 53.0649 284.2C53.4933 284.2 53.8784 284.127 54.2202 283.981C54.5666 283.831 54.8354 283.626 55.0269 283.366C55.2228 283.102 55.3208 282.801 55.3208 282.464C55.3208 282.099 55.2251 281.778 55.0337 281.5C54.8468 281.222 54.5734 281.005 54.2134 280.85C53.8534 280.695 53.4204 280.618 52.9146 280.618H52.1079V279.538H52.9146C53.311 279.538 53.6642 279.467 53.9741 279.326C54.284 279.185 54.5233 278.986 54.6919 278.731C54.8651 278.476 54.9517 278.18 54.9517 277.843C54.9517 277.519 54.8742 277.232 54.7192 276.981C54.5688 276.731 54.3547 276.537 54.0767 276.4C53.7987 276.259 53.4751 276.188 53.106 276.188C52.7505 276.188 52.4178 276.252 52.1079 276.38C51.798 276.507 51.5451 276.69 51.3491 276.927C51.1532 277.159 51.0461 277.432 51.0278 277.747H49.8384C49.8612 277.236 50.0207 276.783 50.3169 276.386C50.6131 275.985 51.0073 275.676 51.4995 275.457C51.9917 275.233 52.5317 275.122 53.1196 275.122C53.7303 275.122 54.2635 275.243 54.7192 275.484C55.1795 275.721 55.5327 276.042 55.7788 276.448C56.0249 276.854 56.1457 277.296 56.1411 277.774C56.1457 278.33 55.9976 278.806 55.6968 279.203C55.396 279.599 54.9836 279.871 54.4595 280.016V280.085C54.8833 280.153 55.2502 280.297 55.5601 280.515C55.8745 280.73 56.1138 281.005 56.2778 281.343C56.4465 281.675 56.5285 282.049 56.5239 282.464C56.5285 282.997 56.3804 283.48 56.0796 283.913C55.7788 284.341 55.3641 284.678 54.8354 284.925C54.3114 285.171 53.7257 285.294 53.0786 285.294ZM67.3657 277.282H69.1978V278.171H67.3657V281.466H66.2993V274.11H67.3657V277.282ZM67.3657 286.264H66.2993V282.983H59.4087V282.108H67.3657V286.264ZM59.436 276.79H62.9771V274.876H64.0435V280.618H58.3833V274.876H59.436V276.79ZM62.9771 279.743V277.651H59.436V279.743H62.9771ZM73.6685 282.122L78.1255 275.259H79.6431V282.053H81.0239V283.134H79.6431V285.157H78.4673V283.134H73.6685V282.122ZM78.4673 282.053V276.817H78.3442L74.9946 281.971V282.053H78.4673ZM85.6587 274.561C86.2603 274.566 86.798 274.682 87.272 274.91C87.7505 275.138 88.1242 275.457 88.3931 275.867C88.6665 276.273 88.8032 276.735 88.8032 277.255C88.8032 277.774 88.6665 278.239 88.3931 278.649C88.1242 279.055 87.7505 279.372 87.272 279.599C86.798 279.823 86.2603 279.934 85.6587 279.934C85.048 279.934 84.5034 279.823 84.0249 279.599C83.5464 279.372 83.1727 279.055 82.9038 278.649C82.6349 278.239 82.5005 277.774 82.5005 277.255C82.5005 276.735 82.6349 276.273 82.9038 275.867C83.1727 275.457 83.5464 275.138 84.0249 274.91C84.5034 274.682 85.048 274.566 85.6587 274.561ZM85.6587 275.464C85.2576 275.464 84.8953 275.541 84.5718 275.696C84.2528 275.846 84.0021 276.058 83.8198 276.332C83.6375 276.601 83.5487 276.908 83.5532 277.255C83.5487 277.606 83.6375 277.918 83.8198 278.191C84.0021 278.465 84.2528 278.679 84.5718 278.834C84.8953 278.984 85.2576 279.059 85.6587 279.059C86.0552 279.059 86.4129 278.984 86.7319 278.834C87.0555 278.679 87.3084 278.465 87.4907 278.191C87.673 277.918 87.7642 277.606 87.7642 277.255C87.7642 276.908 87.673 276.601 87.4907 276.332C87.3084 276.058 87.0555 275.846 86.7319 275.696C86.4129 275.541 86.0552 275.464 85.6587 275.464ZM92.2485 280.358H91.1821V274.11H92.2485V280.358ZM92.2485 283.872H85.4263V285.239H92.686V286.1H84.3735V283.065H91.1821V281.807H84.3462V280.946H92.2485V283.872Z" fill="#7A7873"/>
</g>
</g>
</g>
</g>
</g>
</g>
<g id="Button_3" filter="url(#filter4_d_122_5659)">
<path d="M4 341.889C4 333.052 11.1634 325.889 20 325.889H333.342C342.178 325.889 349.342 333.052 349.342 341.889V455.342C349.342 464.179 342.178 471.342 333.342 471.342H20C11.1635 471.342 4 464.179 4 455.342V341.889Z" fill="#262B28"/>
<path d="M20 326.389H333.342C341.902 326.389 348.842 333.329 348.842 341.889V455.342C348.842 463.902 341.902 470.842 333.342 470.842H20C11.4396 470.842 4.5 463.902 4.5 455.342V341.889C4.50001 333.329 11.4396 326.389 20 326.389Z" stroke="#373F3B"/>
<g id="Container_15">
<g id="Container_16">
<g id="Container_17">
<g id="Heading 3_3">
<path id="&#235;&#182;&#128;&#236;&#130;&#176; 2&#235;&#176;&#149; 3&#236;&#157;&#188;" d="M39.7734 359.597H33.4453V364.695H31.5117V359.597H25.2539V358.05H39.7734V359.597ZM28.9453 351.388H36.0469V349.437H38.0156V356.398H27.0117V349.437H28.9453V351.388ZM36.0469 354.816V352.935H28.9453V354.816H36.0469ZM46.2234 351.617C46.2176 352.32 46.3582 352.997 46.6453 353.647C46.9383 354.292 47.3719 354.863 47.9461 355.361C48.5203 355.859 49.2117 356.24 50.0203 356.503L49.0008 358.05C48.1336 357.757 47.3865 357.327 46.7596 356.758C46.1385 356.184 45.6492 355.507 45.2918 354.728C44.9285 355.589 44.4187 356.333 43.7625 356.96C43.1121 357.587 42.3328 358.062 41.4246 358.384L40.3348 356.837C41.1844 356.562 41.9021 356.161 42.4881 355.633C43.074 355.1 43.5135 354.488 43.8064 353.796C44.1053 353.099 44.2547 352.367 44.2547 351.599V349.789H46.2234V351.617ZM53.0613 353.498H55.2762V355.15H53.0613V360.476H51.1102V348.804H53.0613V353.498ZM53.6941 364.378H42.8836V359.333H44.8875V362.796H53.6941V364.378ZM60.2836 361.478L64.7836 357.136C65.2699 356.65 65.6449 356.251 65.9086 355.941C66.1781 355.625 66.3832 355.314 66.5238 355.009C66.6645 354.699 66.7348 354.371 66.7348 354.025C66.7348 353.638 66.641 353.298 66.4535 353.005C66.266 352.712 66.0053 352.487 65.6713 352.329C65.3432 352.17 64.9711 352.091 64.5551 352.091C64.1215 352.091 63.7406 352.179 63.4125 352.355C63.0902 352.525 62.8412 352.771 62.6654 353.093C62.4896 353.41 62.4047 353.779 62.4105 354.201H60.2309C60.225 353.41 60.4066 352.715 60.7758 352.118C61.1449 351.514 61.6576 351.048 62.3139 350.72C62.976 350.392 63.7289 350.228 64.5727 350.228C65.4281 350.228 66.184 350.386 66.8402 350.703C67.5023 351.019 68.015 351.458 68.3783 352.021C68.7475 352.578 68.932 353.21 68.932 353.919C68.932 354.412 68.8354 354.886 68.642 355.343C68.4545 355.8 68.1322 356.307 67.6752 356.864C67.2182 357.415 66.5707 358.085 65.7328 358.876L63.4652 361.126V361.214H69.1254V363.13H60.2836V361.478ZM82.8352 352.777H85.05V354.376H82.8352V358.367H80.884V348.804H82.8352V352.777ZM82.8352 364.695H80.884V360.669H72.2531V359.105H82.8352V364.695ZM72.7805 352.056H76.4895V349.806H78.423V357.435H70.8469V349.806H72.7805V352.056ZM76.4895 355.888V353.585H72.7805V355.888H76.4895ZM94.6805 363.306C93.784 363.306 92.9812 363.154 92.2723 362.849C91.5633 362.544 91.0066 362.12 90.6023 361.575C90.198 361.024 89.9871 360.394 89.9695 359.685H92.2723C92.2957 360.019 92.4129 360.315 92.6238 360.573C92.8406 360.825 93.1277 361.021 93.4852 361.162C93.8426 361.302 94.241 361.373 94.6805 361.373C95.1434 361.373 95.5564 361.293 95.9197 361.135C96.2889 360.971 96.576 360.746 96.7811 360.458C96.9861 360.171 97.0887 359.843 97.0887 359.474C97.0887 359.093 96.9832 358.753 96.7723 358.455C96.5613 358.156 96.2566 357.924 95.8582 357.76C95.4598 357.59 94.991 357.505 94.452 357.505H93.3094V355.748H94.452C94.8973 355.748 95.2928 355.671 95.6385 355.519C95.99 355.361 96.2625 355.141 96.4559 354.86C96.6492 354.573 96.743 354.248 96.7371 353.884C96.743 353.533 96.6609 353.222 96.491 352.953C96.327 352.677 96.0896 352.466 95.7791 352.32C95.4686 352.167 95.1082 352.091 94.698 352.091C94.2996 352.091 93.9275 352.165 93.5818 352.311C93.242 352.452 92.9666 352.654 92.7557 352.917C92.5506 353.181 92.4422 353.486 92.4305 353.832H90.2332C90.2508 353.128 90.4559 352.504 90.8484 351.959C91.2469 351.415 91.783 350.99 92.4568 350.685C93.1365 350.38 93.8895 350.228 94.7156 350.228C95.5535 350.228 96.2947 350.386 96.9393 350.703C97.5838 351.013 98.0818 351.438 98.4334 351.977C98.785 352.516 98.9578 353.111 98.952 353.761C98.9578 354.23 98.8641 354.655 98.6707 355.036C98.4773 355.417 98.2049 355.733 97.8533 355.985C97.5018 356.237 97.0945 356.41 96.6316 356.503V356.609C97.2234 356.691 97.7303 356.867 98.1521 357.136C98.574 357.4 98.8934 357.743 99.1102 358.165C99.327 358.586 99.4324 359.064 99.4266 359.597C99.4324 360.3 99.2303 360.936 98.8201 361.504C98.4158 362.067 97.8504 362.509 97.1238 362.832C96.4031 363.148 95.5887 363.306 94.6805 363.306ZM105.103 349.314C105.9 349.314 106.618 349.469 107.256 349.78C107.895 350.084 108.396 350.509 108.759 351.054C109.129 351.599 109.316 352.214 109.322 352.9C109.316 353.591 109.129 354.209 108.759 354.754C108.396 355.299 107.895 355.724 107.256 356.029C106.618 356.333 105.9 356.486 105.103 356.486C104.3 356.486 103.577 356.333 102.932 356.029C102.294 355.724 101.793 355.299 101.429 354.754C101.066 354.209 100.884 353.591 100.884 352.9C100.884 352.214 101.066 351.599 101.429 351.054C101.793 350.509 102.296 350.084 102.941 349.78C103.586 349.469 104.306 349.314 105.103 349.314ZM105.103 350.931C104.658 350.931 104.259 351.013 103.908 351.177C103.556 351.335 103.281 351.564 103.082 351.863C102.882 352.156 102.783 352.501 102.783 352.9C102.783 353.304 102.882 353.659 103.082 353.963C103.281 354.262 103.556 354.494 103.908 354.658C104.259 354.822 104.658 354.904 105.103 354.904C105.548 354.904 105.947 354.822 106.298 354.658C106.65 354.494 106.925 354.262 107.125 353.963C107.324 353.659 107.423 353.304 107.423 352.9C107.423 352.501 107.324 352.156 107.125 351.863C106.925 351.564 106.65 351.335 106.298 351.177C105.947 351.013 105.548 350.931 105.103 350.931ZM113.839 356.837H111.871V348.804H113.839V356.837ZM113.839 361.671H105.244V362.955H114.314V364.501H103.328V360.23H111.888V359.052H103.293V357.523H113.839V361.671Z" fill="#E8E4DC"/>
</g>
<g id="StatusToggleDark_3">
<path d="M271.598 349.133H316.598C322.949 349.133 328.098 354.282 328.098 360.633C328.098 366.984 322.949 372.133 316.598 372.133H271.598C265.247 372.133 260.098 366.984 260.098 360.633C260.098 354.282 265.247 349.133 271.598 349.133Z" fill="#1A3326"/>
<path d="M271.598 349.133H316.598C322.949 349.133 328.098 354.282 328.098 360.633C328.098 366.984 322.949 372.133 316.598 372.133H271.598C265.247 372.133 260.098 366.984 260.098 360.633C260.098 354.282 265.247 349.133 271.598 349.133Z" stroke="#373F3B"/>
<g id="Ellipse 6_3" filter="url(#filter5_d_122_5659)">
<circle cx="276.598" cy="360.633" r="9" fill="#E8E4DC"/>
</g>
<path id="&#236;&#153;&#132;&#235;&#163;&#140;" d="M299.125 355.98C299.641 355.98 300.102 356.072 300.508 356.256C300.915 356.436 301.233 356.691 301.463 357.023C301.694 357.352 301.809 357.727 301.809 358.148C301.809 358.492 301.729 358.807 301.569 359.092C301.413 359.377 301.19 359.619 300.901 359.818C300.612 360.014 300.278 360.152 299.899 360.234V361.014C300.817 360.955 301.633 360.875 302.348 360.773L302.465 361.863C301.485 362.035 300.458 362.15 299.383 362.209C298.313 362.268 297.2 362.297 296.043 362.297L295.891 361.113C296.836 361.113 297.672 361.102 298.399 361.078V360.246C298.008 360.168 297.665 360.031 297.368 359.836C297.071 359.637 296.84 359.393 296.676 359.104C296.516 358.814 296.438 358.496 296.442 358.148C296.438 357.727 296.549 357.352 296.776 357.023C297.006 356.691 297.325 356.436 297.731 356.256C298.141 356.072 298.606 355.98 299.125 355.98ZM299.125 357.105C298.735 357.113 298.42 357.209 298.182 357.393C297.948 357.572 297.833 357.824 297.836 358.148C297.833 358.465 297.95 358.717 298.188 358.904C298.426 359.088 298.739 359.18 299.125 359.18C299.512 359.18 299.821 359.088 300.051 358.904C300.286 358.721 300.403 358.469 300.403 358.148C300.403 357.82 300.288 357.566 300.057 357.387C299.827 357.207 299.516 357.113 299.125 357.105ZM304.446 358.91H305.805V360.152H304.446V363.691H302.946V355.559H304.446V358.91ZM304.809 366.012H297.297V362.977H298.797V364.816H304.809V366.012ZM316.247 365.027H306.486V363.797H308.982V362.168H307.611V358.582H313.646V357.434H307.599V356.238H315.122V359.777H309.111V360.961H315.368V362.168H313.857V363.797H316.247V365.027ZM312.392 363.797V362.168H310.435V363.797H312.392Z" fill="#56B979"/>
</g>
</g>
<g id="Container_18">
<g id="Container_19">
<g id="Icon_7">
<path id="Vector_17" d="M30.0747 385.963V388.628" stroke="#7A7873" stroke-width="1.33259" stroke-linecap="round" stroke-linejoin="round"/>
<path id="Vector_18" d="M35.4048 385.963V388.628" stroke="#7A7873" stroke-width="1.33259" stroke-linecap="round" stroke-linejoin="round"/>
<path id="Vector_19" d="M37.4039 387.296H28.0758C27.3398 387.296 26.7432 387.892 26.7432 388.628V397.956C26.7432 398.692 27.3398 399.289 28.0758 399.289H37.4039C38.1399 399.289 38.7365 398.692 38.7365 397.956V388.628C38.7365 387.892 38.1399 387.296 37.4039 387.296Z" stroke="#7A7873" stroke-width="1.33259" stroke-linecap="round" stroke-linejoin="round"/>
<path id="Vector_20" d="M26.7432 391.293H38.7365" stroke="#7A7873" stroke-width="1.33259" stroke-linecap="round" stroke-linejoin="round"/>
</g>
<g id="Text_7">
<path id="2026-03-20" d="M49.647 397.726L53.0239 394.171C53.4705 393.702 53.8101 393.324 54.0425 393.037C54.2795 392.745 54.4572 392.465 54.5757 392.196C54.6987 391.922 54.7603 391.638 54.7603 391.341C54.7603 391.013 54.6737 390.722 54.5005 390.466C54.3273 390.211 54.0903 390.013 53.7896 389.872C53.4933 389.73 53.1606 389.66 52.7915 389.66C52.4041 389.66 52.0646 389.737 51.7729 389.892C51.4813 390.047 51.2557 390.266 51.0962 390.548C50.9412 390.831 50.8638 391.154 50.8638 391.519H49.7017C49.6971 390.945 49.8293 390.437 50.0981 389.995C50.3716 389.553 50.7476 389.208 51.2261 388.962C51.7046 388.716 52.2401 388.593 52.8325 388.593C53.4204 388.593 53.9468 388.714 54.4116 388.956C54.881 389.197 55.2479 389.528 55.5122 389.947C55.7765 390.366 55.9087 390.831 55.9087 391.341C55.9087 391.72 55.8403 392.082 55.7036 392.428C55.5669 392.77 55.3368 393.151 55.0132 393.57C54.6942 393.985 54.2362 394.5 53.6392 395.115L51.3696 397.453V397.535H56.0864V398.628H49.6606L49.647 397.726ZM61.1177 398.765C60.3885 398.765 59.7642 398.567 59.2446 398.17C58.7297 397.774 58.3354 397.195 58.062 396.434C57.7931 395.673 57.6587 394.755 57.6587 393.679C57.6587 392.617 57.7954 391.706 58.0688 390.945C58.3423 390.179 58.7388 389.596 59.2583 389.195C59.7778 388.794 60.3976 388.593 61.1177 388.593C61.8377 388.593 62.4575 388.794 62.9771 389.195C63.4966 389.596 63.8931 390.179 64.1665 390.945C64.4399 391.706 64.5767 392.617 64.5767 393.679C64.5767 394.755 64.4399 395.673 64.1665 396.434C63.8976 397.195 63.5034 397.774 62.9839 398.17C62.4644 398.567 61.8423 398.765 61.1177 398.765ZM61.1177 397.671C61.5916 397.671 61.9972 397.516 62.3345 397.207C62.6717 396.897 62.9292 396.443 63.1069 395.846C63.2847 395.249 63.3735 394.527 63.3735 393.679C63.3735 392.832 63.2847 392.107 63.1069 391.505C62.9292 390.904 62.6717 390.446 62.3345 390.131C61.9972 389.817 61.5916 389.66 61.1177 389.66C60.6437 389.66 60.2358 389.817 59.894 390.131C59.5568 390.446 59.297 390.904 59.1147 391.505C58.937 392.107 58.8481 392.832 58.8481 393.679C58.8481 394.527 58.937 395.249 59.1147 395.846C59.2925 396.443 59.55 396.897 59.8872 397.207C60.229 397.516 60.6392 397.671 61.1177 397.671ZM66.2036 397.726L69.5806 394.171C70.0272 393.702 70.3667 393.324 70.5991 393.037C70.8361 392.745 71.0138 392.465 71.1323 392.196C71.2554 391.922 71.3169 391.638 71.3169 391.341C71.3169 391.013 71.2303 390.722 71.0571 390.466C70.884 390.211 70.647 390.013 70.3462 389.872C70.05 389.73 69.7173 389.66 69.3481 389.66C68.9608 389.66 68.6213 389.737 68.3296 389.892C68.0379 390.047 67.8123 390.266 67.6528 390.548C67.4979 390.831 67.4204 391.154 67.4204 391.519H66.2583C66.2537 390.945 66.3859 390.437 66.6548 389.995C66.9282 389.553 67.3042 389.208 67.7827 388.962C68.2612 388.716 68.7967 388.593 69.3892 388.593C69.9771 388.593 70.5034 388.714 70.9683 388.956C71.4377 389.197 71.8045 389.528 72.0688 389.947C72.3332 390.366 72.4653 390.831 72.4653 391.341C72.4653 391.72 72.397 392.082 72.2603 392.428C72.1235 392.77 71.8934 393.151 71.5698 393.57C71.2508 393.985 70.7928 394.5 70.1958 395.115L67.9263 397.453V397.535H72.6431V398.628H66.2173L66.2036 397.726ZM77.9067 398.765C77.2687 398.765 76.6763 398.622 76.1294 398.334C75.5871 398.043 75.1405 397.548 74.7896 396.851C74.4432 396.149 74.27 395.22 74.27 394.062C74.27 392.909 74.4204 391.922 74.7212 391.102C75.0265 390.282 75.4595 389.66 76.02 389.236C76.5851 388.807 77.255 388.593 78.0298 388.593C78.5994 388.593 79.1099 388.703 79.561 388.921C80.0168 389.14 80.3882 389.448 80.6753 389.844C80.967 390.241 81.1561 390.699 81.2427 391.218H80.0259C79.9028 390.758 79.6704 390.389 79.3286 390.111C78.9914 389.828 78.5584 389.687 78.0298 389.687C77.492 389.687 77.0272 389.837 76.6353 390.138C76.2479 390.434 75.9494 390.865 75.7397 391.43C75.5347 391.995 75.4321 392.672 75.4321 393.46H75.5552C75.8468 393.046 76.2114 392.724 76.6489 392.497C77.0864 392.264 77.5695 392.148 78.0981 392.148C78.6815 392.148 79.2192 392.289 79.7114 392.572C80.2082 392.854 80.6001 393.246 80.8872 393.748C81.1789 394.244 81.3247 394.805 81.3247 395.429C81.3247 396.044 81.1812 396.607 80.894 397.118C80.6115 397.624 80.2104 398.025 79.6909 398.321C79.1714 398.617 78.5767 398.765 77.9067 398.765ZM77.8794 397.685C78.2987 397.685 78.6792 397.585 79.021 397.384C79.3628 397.184 79.6317 396.913 79.8276 396.571C80.0282 396.224 80.1307 395.848 80.1353 395.443C80.1307 395.037 80.0327 394.666 79.8413 394.329C79.6499 393.991 79.3856 393.725 79.0483 393.529C78.7111 393.328 78.3306 393.228 77.9067 393.228C77.4829 393.228 77.0955 393.331 76.7446 393.536C76.3937 393.741 76.1157 394.016 75.9106 394.363C75.7056 394.705 75.6007 395.069 75.5962 395.457C75.5962 395.844 75.6942 396.208 75.8901 396.55C76.0907 396.892 76.3641 397.168 76.7104 397.377C77.0614 397.583 77.451 397.685 77.8794 397.685ZM87.2856 394.226H82.9517V393.146H87.2856V394.226ZM92.3169 398.765C91.5877 398.765 90.9634 398.567 90.4438 398.17C89.9289 397.774 89.5347 397.195 89.2612 396.434C88.9924 395.673 88.8579 394.755 88.8579 393.679C88.8579 392.617 88.9946 391.706 89.2681 390.945C89.5415 390.179 89.938 389.596 90.4575 389.195C90.9771 388.794 91.5968 388.593 92.3169 388.593C93.0369 388.593 93.6567 388.794 94.1763 389.195C94.6958 389.596 95.0923 390.179 95.3657 390.945C95.6392 391.706 95.7759 392.617 95.7759 393.679C95.7759 394.755 95.6392 395.673 95.3657 396.434C95.0968 397.195 94.7026 397.774 94.1831 398.17C93.6636 398.567 93.0415 398.765 92.3169 398.765ZM92.3169 397.671C92.7909 397.671 93.1965 397.516 93.5337 397.207C93.8709 396.897 94.1284 396.443 94.3062 395.846C94.4839 395.249 94.5728 394.527 94.5728 393.679C94.5728 392.832 94.4839 392.107 94.3062 391.505C94.1284 390.904 93.8709 390.446 93.5337 390.131C93.1965 389.817 92.7909 389.66 92.3169 389.66C91.8429 389.66 91.4351 389.817 91.0933 390.131C90.756 390.446 90.4963 390.904 90.314 391.505C90.1362 392.107 90.0474 392.832 90.0474 393.679C90.0474 394.527 90.1362 395.249 90.314 395.846C90.4917 396.443 90.7492 396.897 91.0864 397.207C91.4282 397.516 91.8384 397.671 92.3169 397.671ZM100.834 398.765C100.183 398.765 99.5994 398.656 99.0845 398.437C98.5741 398.218 98.1685 397.911 97.8677 397.514C97.5715 397.118 97.4119 396.66 97.3892 396.14H98.6333C98.6561 396.445 98.7655 396.714 98.9614 396.947C99.1619 397.179 99.424 397.359 99.7476 397.487C100.071 397.61 100.429 397.671 100.821 397.671C101.249 397.671 101.634 397.598 101.976 397.453C102.322 397.302 102.591 397.097 102.783 396.837C102.979 396.573 103.077 396.272 103.077 395.935C103.077 395.57 102.981 395.249 102.79 394.971C102.603 394.693 102.329 394.477 101.969 394.322C101.609 394.167 101.176 394.089 100.67 394.089H99.8638V393.009H100.67C101.067 393.009 101.42 392.939 101.73 392.797C102.04 392.656 102.279 392.458 102.448 392.203C102.621 391.947 102.708 391.651 102.708 391.314C102.708 390.99 102.63 390.703 102.475 390.453C102.325 390.202 102.111 390.008 101.833 389.872C101.555 389.73 101.231 389.66 100.862 389.66C100.506 389.66 100.174 389.723 99.8638 389.851C99.5539 389.979 99.3009 390.161 99.105 390.398C98.909 390.63 98.8019 390.904 98.7837 391.218H97.5942C97.617 390.708 97.7765 390.254 98.0728 389.858C98.369 389.457 98.7632 389.147 99.2554 388.928C99.7476 388.705 100.288 388.593 100.875 388.593C101.486 388.593 102.019 388.714 102.475 388.956C102.935 389.193 103.289 389.514 103.535 389.919C103.781 390.325 103.902 390.767 103.897 391.246C103.902 391.802 103.753 392.278 103.453 392.674C103.152 393.071 102.739 393.342 102.215 393.488V393.556C102.639 393.625 103.006 393.768 103.316 393.987C103.63 394.201 103.87 394.477 104.034 394.814C104.202 395.147 104.284 395.52 104.28 395.935C104.284 396.468 104.136 396.951 103.835 397.384C103.535 397.813 103.12 398.15 102.591 398.396C102.067 398.642 101.482 398.765 100.834 398.765ZM110.323 394.226H105.989V393.146H110.323V394.226ZM111.649 397.726L115.026 394.171C115.472 393.702 115.812 393.324 116.044 393.037C116.281 392.745 116.459 392.465 116.578 392.196C116.701 391.922 116.762 391.638 116.762 391.341C116.762 391.013 116.676 390.722 116.502 390.466C116.329 390.211 116.092 390.013 115.792 389.872C115.495 389.73 115.163 389.66 114.793 389.66C114.406 389.66 114.067 389.737 113.775 389.892C113.483 390.047 113.258 390.266 113.098 390.548C112.943 390.831 112.866 391.154 112.866 391.519H111.704C111.699 390.945 111.831 390.437 112.1 389.995C112.374 389.553 112.75 389.208 113.228 388.962C113.707 388.716 114.242 388.593 114.834 388.593C115.422 388.593 115.949 388.714 116.414 388.956C116.883 389.197 117.25 389.528 117.514 389.947C117.778 390.366 117.911 390.831 117.911 391.341C117.911 391.72 117.842 392.082 117.706 392.428C117.569 392.77 117.339 393.151 117.015 393.57C116.696 393.985 116.238 394.5 115.641 395.115L113.372 397.453V397.535H118.088V398.628H111.663L111.649 397.726ZM123.12 398.765C122.39 398.765 121.766 398.567 121.247 398.17C120.732 397.774 120.337 397.195 120.064 396.434C119.795 395.673 119.661 394.755 119.661 393.679C119.661 392.617 119.797 391.706 120.071 390.945C120.344 390.179 120.741 389.596 121.26 389.195C121.78 388.794 122.4 388.593 123.12 388.593C123.84 388.593 124.459 388.794 124.979 389.195C125.499 389.596 125.895 390.179 126.168 390.945C126.442 391.706 126.579 392.617 126.579 393.679C126.579 394.755 126.442 395.673 126.168 396.434C125.9 397.195 125.505 397.774 124.986 398.17C124.466 398.567 123.844 398.765 123.12 398.765ZM123.12 397.671C123.594 397.671 123.999 397.516 124.336 397.207C124.674 396.897 124.931 396.443 125.109 395.846C125.287 395.249 125.375 394.527 125.375 393.679C125.375 392.832 125.287 392.107 125.109 391.505C124.931 390.904 124.674 390.446 124.336 390.131C123.999 389.817 123.594 389.66 123.12 389.66C122.646 389.66 122.238 389.817 121.896 390.131C121.559 390.446 121.299 390.904 121.117 391.505C120.939 392.107 120.85 392.832 120.85 393.679C120.85 394.527 120.939 395.249 121.117 395.846C121.294 396.443 121.552 396.897 121.889 397.207C122.231 397.516 122.641 397.671 123.12 397.671Z" fill="#7A7873"/>
</g>
</g>
<g id="Container_20">
<g id="Icon_8">
<path id="Vector_21" d="M38.0699 415.28C38.0699 418.606 34.3793 422.071 33.14 423.141C33.0245 423.228 32.884 423.275 32.7395 423.275C32.5951 423.275 32.4546 423.228 32.3391 423.141C31.0998 422.071 27.4092 418.606 27.4092 415.28C27.4092 413.866 27.9708 412.51 28.9704 411.51C29.97 410.511 31.3258 409.949 32.7395 409.949C34.1532 409.949 35.509 410.511 36.5087 411.51C37.5083 412.51 38.0699 413.866 38.0699 415.28Z" stroke="#7A7873" stroke-width="1.33259" stroke-linecap="round" stroke-linejoin="round"/>
<path id="Vector_22" d="M32.7396 417.279C33.8436 417.279 34.7385 416.384 34.7385 415.28C34.7385 414.176 33.8436 413.281 32.7396 413.281C31.6357 413.281 30.7407 414.176 30.7407 415.28C30.7407 416.384 31.6357 417.279 32.7396 417.279Z" stroke="#7A7873" stroke-width="1.33259" stroke-linecap="round" stroke-linejoin="round"/>
</g>
<g id="Text_8">
<path id="&#235;&#182;&#128;&#236;&#130;&#176;" d="M60.3384 419.662H55.2661V423.722H54.2134V419.662H49.2095V418.787H60.3384V419.662ZM51.6978 413.756H57.8228V412.074H58.9028V417.31H50.6313V412.074H51.6978V413.756ZM57.8228 416.435V414.631H51.6978V416.435H57.8228ZM65.4106 413.865C65.4061 414.412 65.5314 414.941 65.7866 415.451C66.0464 415.961 66.4087 416.413 66.8735 416.804C67.3384 417.196 67.867 417.497 68.4595 417.707L67.9126 418.568C67.2244 418.322 66.6206 417.953 66.1011 417.461C65.5861 416.969 65.1919 416.397 64.9185 415.745C64.6632 416.469 64.2713 417.103 63.7427 417.645C63.214 418.183 62.5897 418.591 61.8696 418.869L61.2817 418.008C61.8924 417.789 62.4279 417.472 62.8882 417.057C63.353 416.638 63.7131 416.15 63.9683 415.594C64.2235 415.038 64.3534 414.448 64.3579 413.824V412.32H65.4106V413.865ZM70.8247 415.301H72.6567V416.217H70.8247V420.551H69.7583V411.568H70.8247V415.301ZM71.3853 423.463H63.2368V419.689H64.3306V422.56H71.3853V423.463Z" fill="#7A7873"/>
</g>
</g>
<g id="Container_21">
<g id="Icon_9" clip-path="url(#clip6_122_5659)">
<path id="Vector_23" d="M32.7396 447.262C36.4195 447.262 39.4026 444.279 39.4026 440.599C39.4026 436.919 36.4195 433.936 32.7396 433.936C29.0598 433.936 26.0767 436.919 26.0767 440.599C26.0767 444.279 29.0598 447.262 32.7396 447.262Z" stroke="#7A7873" stroke-width="1.33259" stroke-linecap="round" stroke-linejoin="round"/>
<path id="Vector_24" d="M32.7397 436.601V440.599L35.4049 441.932" stroke="#7A7873" stroke-width="1.33259" stroke-linecap="round" stroke-linejoin="round"/>
</g>
<g id="Text_9">
<path id="2&#235;&#176;&#149; 3&#236;&#157;&#188;" d="M49.647 445.699L53.0239 442.145C53.4705 441.675 53.8101 441.297 54.0425 441.01C54.2795 440.718 54.4572 440.438 54.5757 440.169C54.6987 439.896 54.7603 439.611 54.7603 439.314C54.7603 438.986 54.6737 438.695 54.5005 438.439C54.3273 438.184 54.0903 437.986 53.7896 437.845C53.4933 437.703 53.1606 437.633 52.7915 437.633C52.4041 437.633 52.0646 437.71 51.7729 437.865C51.4813 438.02 51.2557 438.239 51.0962 438.521C50.9412 438.804 50.8638 439.128 50.8638 439.492H49.7017C49.6971 438.918 49.8293 438.41 50.0981 437.968C50.3716 437.526 50.7476 437.182 51.2261 436.936C51.7046 436.689 52.2401 436.566 52.8325 436.566C53.4204 436.566 53.9468 436.687 54.4116 436.929C54.881 437.17 55.2479 437.501 55.5122 437.92C55.7765 438.339 55.9087 438.804 55.9087 439.314C55.9087 439.693 55.8403 440.055 55.7036 440.401C55.5669 440.743 55.3368 441.124 55.0132 441.543C54.6942 441.958 54.2362 442.473 53.6392 443.088L51.3696 445.426V445.508H56.0864V446.602H49.6606L49.647 445.699ZM66.9419 438.727H68.7739V439.615H66.9419V442.91H65.8755V435.555H66.9419V438.727ZM66.9419 447.709H65.8755V444.428H58.9849V443.553H66.9419V447.709ZM59.0122 438.234H62.5532V436.32H63.6196V442.062H57.9595V436.32H59.0122V438.234ZM62.5532 441.188V439.096H59.0122V441.188H62.5532ZM76.9087 446.738C76.257 446.738 75.6737 446.629 75.1587 446.41C74.6483 446.191 74.2427 445.884 73.9419 445.487C73.6457 445.091 73.4862 444.633 73.4634 444.113H74.7075C74.7303 444.419 74.8397 444.688 75.0356 444.92C75.2362 445.152 75.4982 445.332 75.8218 445.46C76.1453 445.583 76.5031 445.645 76.895 445.645C77.3234 445.645 77.7085 445.572 78.0503 445.426C78.3966 445.275 78.6655 445.07 78.8569 444.811C79.0529 444.546 79.1509 444.245 79.1509 443.908C79.1509 443.544 79.0552 443.222 78.8638 442.944C78.6769 442.666 78.4035 442.45 78.0435 442.295C77.6834 442.14 77.2505 442.062 76.7446 442.062H75.938V440.982H76.7446C77.1411 440.982 77.4943 440.912 77.8042 440.771C78.1141 440.629 78.3534 440.431 78.522 440.176C78.6951 439.921 78.7817 439.624 78.7817 439.287C78.7817 438.964 78.7043 438.676 78.5493 438.426C78.3989 438.175 78.1847 437.981 77.9067 437.845C77.6287 437.703 77.3052 437.633 76.936 437.633C76.5806 437.633 76.2479 437.697 75.938 437.824C75.6281 437.952 75.3752 438.134 75.1792 438.371C74.9832 438.604 74.8761 438.877 74.8579 439.191H73.6685C73.6912 438.681 73.8507 438.228 74.147 437.831C74.4432 437.43 74.8374 437.12 75.3296 436.901C75.8218 436.678 76.3618 436.566 76.9497 436.566C77.5604 436.566 78.0936 436.687 78.5493 436.929C79.0096 437.166 79.3628 437.487 79.6089 437.893C79.855 438.298 79.9757 438.74 79.9712 439.219C79.9757 439.775 79.8276 440.251 79.5269 440.647C79.2261 441.044 78.8136 441.315 78.2896 441.461V441.529C78.7134 441.598 79.0802 441.741 79.3901 441.96C79.7046 442.174 79.9438 442.45 80.1079 442.787C80.2765 443.12 80.3586 443.493 80.354 443.908C80.3586 444.441 80.2104 444.924 79.9097 445.357C79.6089 445.786 79.1942 446.123 78.6655 446.369C78.1414 446.615 77.5558 446.738 76.9087 446.738ZM85.1392 436.006C85.7407 436.01 86.2785 436.127 86.7524 436.354C87.231 436.582 87.6047 436.901 87.8735 437.312C88.147 437.717 88.2837 438.18 88.2837 438.699C88.2837 439.219 88.147 439.684 87.8735 440.094C87.6047 440.499 87.231 440.816 86.7524 441.044C86.2785 441.267 85.7407 441.379 85.1392 441.379C84.5285 441.379 83.9839 441.267 83.5054 441.044C83.0269 440.816 82.6532 440.499 82.3843 440.094C82.1154 439.684 81.981 439.219 81.981 438.699C81.981 438.18 82.1154 437.717 82.3843 437.312C82.6532 436.901 83.0269 436.582 83.5054 436.354C83.9839 436.127 84.5285 436.01 85.1392 436.006ZM85.1392 436.908C84.7381 436.908 84.3758 436.986 84.0522 437.141C83.7332 437.291 83.4826 437.503 83.3003 437.776C83.118 438.045 83.0291 438.353 83.0337 438.699C83.0291 439.05 83.118 439.362 83.3003 439.636C83.4826 439.909 83.7332 440.123 84.0522 440.278C84.3758 440.429 84.7381 440.504 85.1392 440.504C85.5356 440.504 85.8934 440.429 86.2124 440.278C86.536 440.123 86.7889 439.909 86.9712 439.636C87.1535 439.362 87.2446 439.05 87.2446 438.699C87.2446 438.353 87.1535 438.045 86.9712 437.776C86.7889 437.503 86.536 437.291 86.2124 437.141C85.8934 436.986 85.5356 436.908 85.1392 436.908ZM91.729 441.803H90.6626V435.555H91.729V441.803ZM91.729 445.316H84.9067V446.684H92.1665V447.545H83.854V444.51H90.6626V443.252H83.8267V442.391H91.729V445.316Z" fill="#7A7873"/>
</g>
</g>
</g>
</g>
</g>
</g>
</g>
</g>
<defs>
<filter id="filter0_d_122_5659" x="0" y="0" width="353.342" height="153.453" filterUnits="userSpaceOnUse" color-interpolation-filters="sRGB">
<feFlood flood-opacity="0" result="BackgroundImageFix"/>
<feColorMatrix in="SourceAlpha" type="matrix" values="0 0 0 0 0 0 0 0 0 0 0 0 0 0 0 0 0 0 127 0" result="hardAlpha"/>
<feOffset dy="1"/>
<feGaussianBlur stdDeviation="2"/>
<feColorMatrix type="matrix" values="0 0 0 0 0 0 0 0 0 0 0 0 0 0 0 0 0 0 0.2 0"/>
<feBlend mode="normal" in2="BackgroundImageFix" result="effect1_dropShadow_122_5659"/>
<feBlend mode="normal" in="SourceGraphic" in2="effect1_dropShadow_122_5659" result="shape"/>
</filter>
<filter id="filter1_d_122_5659" x="298.598" y="25.7439" width="26" height="26" filterUnits="userSpaceOnUse" color-interpolation-filters="sRGB">
<feFlood flood-opacity="0" result="BackgroundImageFix"/>
<feColorMatrix in="SourceAlpha" type="matrix" values="0 0 0 0 0 0 0 0 0 0 0 0 0 0 0 0 0 0 127 0" result="hardAlpha"/>
<feOffset dy="1"/>
<feGaussianBlur stdDeviation="2"/>
<feColorMatrix type="matrix" values="0 0 0 0 0.118 0 0 0 0 0.157 0 0 0 0 0.133 0 0 0 0.06 0"/>
<feBlend mode="normal" in2="BackgroundImageFix" result="effect1_dropShadow_122_5659"/>
<feBlend mode="normal" in="SourceGraphic" in2="effect1_dropShadow_122_5659" result="shape"/>
</filter>
<filter id="filter2_d_122_5659" x="0" y="161.444" width="353.342" height="153.453" filterUnits="userSpaceOnUse" color-interpolation-filters="sRGB">
<feFlood flood-opacity="0" result="BackgroundImageFix"/>
<feColorMatrix in="SourceAlpha" type="matrix" values="0 0 0 0 0 0 0 0 0 0 0 0 0 0 0 0 0 0 127 0" result="hardAlpha"/>
<feOffset dy="1"/>
<feGaussianBlur stdDeviation="2"/>
<feColorMatrix type="matrix" values="0 0 0 0 0 0 0 0 0 0 0 0 0 0 0 0 0 0 0.2 0"/>
<feBlend mode="normal" in2="BackgroundImageFix" result="effect1_dropShadow_122_5659"/>
<feBlend mode="normal" in="SourceGraphic" in2="effect1_dropShadow_122_5659" result="shape"/>
</filter>
<filter id="filter3_d_122_5659" x="298.598" y="187.188" width="26" height="26" filterUnits="userSpaceOnUse" color-interpolation-filters="sRGB">
<feFlood flood-opacity="0" result="BackgroundImageFix"/>
<feColorMatrix in="SourceAlpha" type="matrix" values="0 0 0 0 0 0 0 0 0 0 0 0 0 0 0 0 0 0 127 0" result="hardAlpha"/>
<feOffset dy="1"/>
<feGaussianBlur stdDeviation="2"/>
<feColorMatrix type="matrix" values="0 0 0 0 0.118 0 0 0 0 0.157 0 0 0 0 0.133 0 0 0 0.06 0"/>
<feBlend mode="normal" in2="BackgroundImageFix" result="effect1_dropShadow_122_5659"/>
<feBlend mode="normal" in="SourceGraphic" in2="effect1_dropShadow_122_5659" result="shape"/>
</filter>
<filter id="filter4_d_122_5659" x="0" y="322.889" width="353.342" height="153.453" filterUnits="userSpaceOnUse" color-interpolation-filters="sRGB">
<feFlood flood-opacity="0" result="BackgroundImageFix"/>
<feColorMatrix in="SourceAlpha" type="matrix" values="0 0 0 0 0 0 0 0 0 0 0 0 0 0 0 0 0 0 127 0" result="hardAlpha"/>
<feOffset dy="1"/>
<feGaussianBlur stdDeviation="2"/>
<feColorMatrix type="matrix" values="0 0 0 0 0 0 0 0 0 0 0 0 0 0 0 0 0 0 0.2 0"/>
<feBlend mode="normal" in2="BackgroundImageFix" result="effect1_dropShadow_122_5659"/>
<feBlend mode="normal" in="SourceGraphic" in2="effect1_dropShadow_122_5659" result="shape"/>
</filter>
<filter id="filter5_d_122_5659" x="263.598" y="348.633" width="26" height="26" filterUnits="userSpaceOnUse" color-interpolation-filters="sRGB">
<feFlood flood-opacity="0" result="BackgroundImageFix"/>
<feColorMatrix in="SourceAlpha" type="matrix" values="0 0 0 0 0 0 0 0 0 0 0 0 0 0 0 0 0 0 127 0" result="hardAlpha"/>
<feOffset dy="1"/>
<feGaussianBlur stdDeviation="2"/>
<feColorMatrix type="matrix" values="0 0 0 0 0.118 0 0 0 0 0.157 0 0 0 0 0.133 0 0 0 0.06 0"/>
<feBlend mode="normal" in2="BackgroundImageFix" result="effect1_dropShadow_122_5659"/>
<feBlend mode="normal" in="SourceGraphic" in2="effect1_dropShadow_122_5659" result="shape"/>
</filter>
<clipPath id="clip0_122_5659">
<rect width="15.9911" height="15.9911" fill="white" transform="translate(24.7441 61.7412)"/>
</clipPath>
<clipPath id="clip1_122_5659">
<rect width="15.9911" height="15.9911" fill="white" transform="translate(24.7441 85.7278)"/>
</clipPath>
<clipPath id="clip2_122_5659">
<rect width="15.9911" height="15.9911" fill="white" transform="translate(24.7441 109.715)"/>
</clipPath>
<clipPath id="clip3_122_5659">
<rect width="15.9911" height="15.9911" fill="white" transform="translate(24.7441 223.186)"/>
</clipPath>
<clipPath id="clip4_122_5659">
<rect width="15.9911" height="15.9911" fill="white" transform="translate(24.7441 247.172)"/>
</clipPath>
<clipPath id="clip5_122_5659">
<rect width="15.9911" height="15.9911" fill="white" transform="translate(24.7441 271.159)"/>
</clipPath>
<clipPath id="clip6_122_5659">
<rect width="15.9911" height="15.9911" fill="white" transform="translate(24.7441 432.604)"/>
</clipPath>
</defs>
</svg>
