<svg width="354" height="477" viewBox="0 0 354 477" fill="none" xmlns="http://www.w3.org/2000/svg">
<g id="Property 1=Light">
<g id="Container">
<g id="Button" filter="url(#filter0_d_122_5616)">
<path d="M4 19C4 10.1635 11.1634 3 20 3H333.342C342.178 3 349.342 10.1634 349.342 19V132.453C349.342 141.29 342.178 148.453 333.342 148.453H20C11.1635 148.453 4 141.29 4 132.453V19Z" fill="#FAFAF7"/>
<path d="M20 3.5H333.342C341.902 3.5 348.842 10.4396 348.842 19V132.453C348.842 141.014 341.902 147.953 333.342 147.953H20C11.4396 147.953 4.5 141.014 4.5 132.453V19C4.50001 10.4396 11.4396 3.5 20 3.5Z" stroke="#E2DDD5"/>
<g id="Container_2">
<g id="Container_3">
<g id="Heading 3">
<path id="&#236;&#132;&#156;&#236;&#154;&#184; &#235;&#139;&#185;&#236;&#157;&#188;&#236;&#185;&#152;&#234;&#184;&#176;" d="M31.1423 29.7297C31.1423 30.7258 31.2947 31.6897 31.5994 32.6213C31.9099 33.5471 32.3611 34.3674 32.9529 35.0823C33.5505 35.7971 34.2595 36.3333 35.0798 36.6907L33.9021 38.2551C33.0232 37.8274 32.2644 37.2122 31.6257 36.4094C30.9929 35.6067 30.5037 34.675 30.158 33.6145C29.8005 34.7395 29.2966 35.7297 28.6462 36.5852C28.0017 37.4407 27.2341 38.0969 26.3435 38.554L25.113 36.9719C25.9509 36.5793 26.6716 36.0051 27.2751 35.2493C27.8845 34.4934 28.3474 33.635 28.6638 32.6741C28.9861 31.7131 29.1501 30.7317 29.156 29.7297V27.1985H31.1423V29.7297ZM38.5955 41.8235H36.6619V32.6301H33.322V31.0481H36.6619V25.9153H38.5955V41.8235ZM47.7525 26.0735C48.9595 26.0735 49.9878 26.179 50.8375 26.3899C51.6929 26.6008 52.3462 26.9114 52.7974 27.3215C53.2486 27.7258 53.4771 28.218 53.483 28.7981C53.4771 29.677 52.9761 30.3508 51.98 30.8196C50.9839 31.2883 49.5748 31.5286 47.7525 31.5403C45.9244 31.5286 44.5123 31.2883 43.5162 30.8196C42.5201 30.3508 42.022 29.677 42.022 28.7981C42.022 28.218 42.2476 27.7258 42.6988 27.3215C43.15 26.9114 43.8033 26.6008 44.6587 26.3899C45.5142 26.179 46.5455 26.0735 47.7525 26.0735ZM47.7525 27.5325C46.5396 27.5325 45.6197 27.6409 44.9927 27.8577C44.3716 28.0686 44.0669 28.3821 44.0787 28.7981C44.0728 29.2317 44.3746 29.554 44.9839 29.7649C45.5992 29.9758 46.522 30.0872 47.7525 30.0989C48.9947 30.0872 49.9234 29.9758 50.5386 29.7649C51.1539 29.554 51.4615 29.2317 51.4615 28.7981C51.4615 28.3821 51.148 28.0686 50.521 27.8577C49.9 27.6409 48.9771 27.5325 47.7525 27.5325ZM55.0123 33.8958H48.7193V35.1086H53.2017V38.9934H44.1666V40.1711H53.6412V41.6653H42.2505V37.6047H51.2857V36.55H42.233V35.1086H46.7681V33.8958H40.5279V32.3665H55.0123V33.8958ZM72.3068 29.8176H74.5041V31.4172H72.3068V35.1965H70.338V25.9153H72.3068V29.8176ZM67.1212 35.4954C68.1994 35.4954 69.1369 35.6213 69.9337 35.8733C70.7365 36.1194 71.3546 36.4768 71.7882 36.9456C72.2218 37.4143 72.4416 37.9739 72.4474 38.6243C72.4416 39.2864 72.2218 39.8547 71.7882 40.3293C71.3546 40.804 70.7394 41.1643 69.9425 41.4104C69.1457 41.6624 68.2052 41.7883 67.1212 41.7883C66.0255 41.7883 65.0734 41.6624 64.2648 41.4104C63.4562 41.1643 62.8322 40.804 62.3927 40.3293C61.9591 39.8547 61.7423 39.2864 61.7423 38.6243C61.7423 37.9739 61.9591 37.4143 62.3927 36.9456C62.8322 36.4768 63.4562 36.1194 64.2648 35.8733C65.0792 35.6213 66.0314 35.4954 67.1212 35.4954ZM67.1212 37.0598C66.0197 37.0598 65.1671 37.1946 64.5636 37.4641C63.966 37.7336 63.6701 38.1204 63.6759 38.6243C63.6701 39.1399 63.966 39.5354 64.5636 39.8108C65.1671 40.0862 66.0197 40.2239 67.1212 40.2239C68.2052 40.2239 69.046 40.0862 69.6437 39.8108C70.2472 39.5354 70.549 39.1399 70.549 38.6243C70.549 38.1204 70.2472 37.7336 69.6437 37.4641C69.046 37.1946 68.2052 37.0598 67.1212 37.0598ZM67.4904 28.6223H62.3048V32.6125C63.8986 32.6067 65.173 32.5715 66.1281 32.5071C67.0832 32.4368 68.0119 32.3079 68.9142 32.1204L69.1076 33.6848C68.1291 33.8958 67.1124 34.0334 66.0578 34.0979C65.0031 34.1624 63.5353 34.1946 61.6544 34.1946H60.3712V27.0403H67.4904V28.6223ZM79.5126 26.425C80.3095 26.425 81.0273 26.5803 81.666 26.8909C82.3046 27.1956 82.8056 27.6204 83.1689 28.1653C83.538 28.7102 83.7255 29.3254 83.7314 30.011C83.7255 30.7024 83.538 31.3206 83.1689 31.8655C82.8056 32.4104 82.3046 32.8352 81.666 33.1399C81.0273 33.4446 80.3095 33.5969 79.5126 33.5969C78.7099 33.5969 77.9863 33.4446 77.3417 33.1399C76.7031 32.8352 76.2021 32.4104 75.8388 31.8655C75.4755 31.3206 75.2939 30.7024 75.2939 30.011C75.2939 29.3254 75.4755 28.7102 75.8388 28.1653C76.2021 27.6204 76.706 27.1956 77.3505 26.8909C77.9951 26.5803 78.7158 26.425 79.5126 26.425ZM79.5126 28.0422C79.0673 28.0422 78.6689 28.1243 78.3173 28.2883C77.9658 28.4465 77.6904 28.675 77.4912 28.9739C77.2919 29.2668 77.1923 29.6125 77.1923 30.011C77.1923 30.4153 77.2919 30.7698 77.4912 31.0745C77.6904 31.3733 77.9658 31.6047 78.3173 31.7688C78.6689 31.9329 79.0673 32.0149 79.5126 32.0149C79.958 32.0149 80.3564 31.9329 80.708 31.7688C81.0595 31.6047 81.3349 31.3733 81.5341 31.0745C81.7333 30.7698 81.833 30.4153 81.833 30.011C81.833 29.6125 81.7333 29.2668 81.5341 28.9739C81.3349 28.675 81.0595 28.4465 80.708 28.2883C80.3564 28.1243 79.958 28.0422 79.5126 28.0422ZM88.249 33.9485H86.2802V25.9153H88.249V33.9485ZM88.249 38.7825H79.6533V40.0657H88.7236V41.6125H77.7373V37.3411H86.2978V36.1633H77.7021V34.634H88.249V38.7825ZM103.47 41.8059H101.519V25.9153H103.47V41.8059ZM96.3689 30.9602C96.3689 31.7747 96.53 32.5833 96.8523 33.386C97.1746 34.1887 97.6404 34.9124 98.2498 35.5569C98.8591 36.2014 99.5798 36.6965 100.412 37.0422L99.3396 38.5364C98.4431 38.1614 97.658 37.6018 96.9841 36.8577C96.3162 36.1135 95.7947 35.2522 95.4197 34.2737C95.0564 35.3108 94.5349 36.2278 93.8552 37.0247C93.1814 37.8157 92.3904 38.4075 91.4822 38.8L90.4275 37.2883C91.2478 36.925 91.9597 36.4094 92.5632 35.7415C93.1667 35.0676 93.6267 34.3147 93.9431 33.4827C94.2595 32.6506 94.4177 31.8098 94.4177 30.9602V30.134H90.9197V28.5696H94.4177V26.2493H96.3513V28.5696H99.7791V30.134H96.3689V30.9602ZM118.797 41.8059H116.829V25.9153H118.797V41.8059ZM114.051 27.6028C114.051 30.1282 113.48 32.3459 112.337 34.2561C111.195 36.1604 109.299 37.7395 106.651 38.9934L105.631 37.429C107.676 36.4563 109.214 35.2932 110.246 33.9397C111.283 32.5803 111.889 30.9836 112.065 29.1497H106.44V27.6028H114.051Z" fill="#1A1A1A"/>
</g>
<g id="StatusToggleLight">
<path d="M271.598 26.2439H316.598C322.949 26.2439 328.098 31.3926 328.098 37.7439C328.098 44.0952 322.949 49.2439 316.598 49.2439H271.598C265.247 49.2439 260.098 44.0952 260.098 37.7439C260.098 31.3926 265.247 26.2439 271.598 26.2439Z" fill="#FDF5E6"/>
<path d="M271.598 26.2439H316.598C322.949 26.2439 328.098 31.3926 328.098 37.7439C328.098 44.0952 322.949 49.2439 316.598 49.2439H271.598C265.247 49.2439 260.098 44.0952 260.098 37.7439C260.098 31.3926 265.247 26.2439 271.598 26.2439Z" stroke="#E2DDD5"/>
<path id="&#236;&#152;&#136;&#236;&#160;&#149;" d="M281.161 43.322H279.731V32.658H281.161V43.322ZM278.981 42.8298H277.575V39.5251H276.321C276.122 40.0486 275.85 40.4509 275.506 40.7322C275.167 41.0134 274.774 41.1541 274.329 41.1541C273.864 41.1541 273.456 40.9978 273.104 40.6853C272.756 40.3728 272.487 39.9255 272.295 39.3435C272.104 38.7576 272.008 38.0681 272.008 37.2751C272.008 36.4861 272.104 35.8025 272.295 35.2244C272.487 34.6423 272.756 34.197 273.104 33.8884C273.456 33.5759 273.864 33.4197 274.329 33.4197C274.77 33.4197 275.161 33.5583 275.5 33.8357C275.844 34.113 276.116 34.5095 276.315 35.0251H277.575V32.8103H278.981V42.8298ZM274.329 34.8259C274.016 34.8259 273.776 35.033 273.608 35.447C273.444 35.8611 273.364 36.4705 273.368 37.2751C273.364 38.0837 273.444 38.6951 273.608 39.1091C273.772 39.5193 274.012 39.7205 274.329 39.7126C274.645 39.7205 274.889 39.5193 275.061 39.1091C275.237 38.6951 275.325 38.0837 275.325 37.2751C275.325 36.4783 275.237 35.8708 275.061 35.4529C274.885 35.0349 274.641 34.8259 274.329 34.8259ZM276.614 36.2205C276.661 36.5486 276.684 36.9001 276.684 37.2751C276.684 37.6462 276.661 37.9939 276.614 38.3181H277.575V36.2205H276.614ZM291.474 38.9861H289.986V36.4666H288.322V35.2595H289.986V32.658H291.474V38.9861ZM287.829 39.2205C288.587 39.2244 289.24 39.3083 289.786 39.4724C290.337 39.6326 290.761 39.8669 291.058 40.1755C291.355 40.4841 291.505 40.8533 291.509 41.283C291.505 41.7087 291.355 42.0759 291.058 42.3845C290.761 42.6931 290.337 42.9275 289.786 43.0876C289.236 43.2517 288.583 43.3337 287.829 43.3337C287.075 43.3337 286.423 43.2517 285.872 43.0876C285.322 42.9275 284.898 42.6931 284.601 42.3845C284.308 42.0759 284.161 41.7087 284.161 41.283C284.161 40.8533 284.308 40.4841 284.601 40.1755C284.898 39.8669 285.32 39.6326 285.867 39.4724C286.417 39.3083 287.072 39.2244 287.829 39.2205ZM287.829 40.3689C286.376 40.3689 285.65 40.6736 285.65 41.283C285.65 41.5876 285.833 41.8162 286.2 41.9685C286.572 42.1208 287.115 42.197 287.829 42.197C288.544 42.197 289.087 42.1208 289.458 41.9685C289.833 41.8123 290.021 41.5837 290.021 41.283C290.021 40.6736 289.29 40.3689 287.829 40.3689ZM288.638 34.4978H286.517C286.529 34.9275 286.624 35.3416 286.804 35.74C286.988 36.1345 287.259 36.49 287.618 36.8064C287.982 37.1228 288.431 37.3689 288.966 37.5447L288.228 38.7166C287.658 38.533 287.165 38.2595 286.751 37.8962C286.341 37.5291 286.017 37.0974 285.779 36.6013C285.533 37.1638 285.193 37.6521 284.759 38.0662C284.325 38.4763 283.802 38.7869 283.189 38.9978L282.415 37.8142C282.978 37.6267 283.449 37.3611 283.827 37.0173C284.21 36.6697 284.495 36.2791 284.683 35.8455C284.874 35.4119 284.978 34.9626 284.993 34.4978H282.849V33.3025H288.638V34.4978Z" fill="#D4A85C"/>
<g id="Ellipse 6" filter="url(#filter1_d_122_5616)">
<circle cx="311.598" cy="37.7439" r="9" fill="#FAFAF7"/>
</g>
</g>
</g>
<g id="Frame 55">
<g id="Container_4">
<g id="Container_5">
<g id="Icon" clip-path="url(#clip0_122_5616)">
<path id="Vector" d="M30.0742 63.0737V65.7389" stroke="#888882" stroke-width="1.33259" stroke-linecap="round" stroke-linejoin="round"/>
<path id="Vector_2" d="M35.4045 63.0737V65.7389" stroke="#888882" stroke-width="1.33259" stroke-linecap="round" stroke-linejoin="round"/>
<path id="Vector_3" d="M37.4034 64.4065H28.0753C27.3393 64.4065 26.7427 65.0031 26.7427 65.7391V75.0672C26.7427 75.8032 27.3393 76.3998 28.0753 76.3998H37.4034C38.1394 76.3998 38.736 75.8032 38.736 75.0672V65.7391C38.736 65.0031 38.1394 64.4065 37.4034 64.4065Z" stroke="#888882" stroke-width="1.33259" stroke-linecap="round" stroke-linejoin="round"/>
<path id="Vector_4" d="M26.7427 68.4041H38.736" stroke="#888882" stroke-width="1.33259" stroke-linecap="round" stroke-linejoin="round"/>
</g>
<g id="Text">
<path id="2026-04-15" d="M49.6465 74.8372L53.0234 71.2825C53.4701 70.8131 53.8096 70.4348 54.042 70.1477C54.279 69.856 54.4567 69.5758 54.5752 69.3069C54.6982 69.0334 54.7598 68.7486 54.7598 68.4524C54.7598 68.1243 54.6732 67.8326 54.5 67.5774C54.3268 67.3222 54.0898 67.1239 53.7891 66.9827C53.4928 66.8414 53.1602 66.7708 52.791 66.7708C52.4036 66.7708 52.0641 66.8482 51.7725 67.0032C51.4808 67.1581 51.2552 67.3769 51.0957 67.6594C50.9408 67.942 50.8633 68.2655 50.8633 68.6301H49.7012C49.6966 68.0559 49.8288 67.5478 50.0977 67.1057C50.3711 66.6637 50.7471 66.3196 51.2256 66.0735C51.7041 65.8274 52.2396 65.7043 52.832 65.7043C53.4199 65.7043 53.9463 65.8251 54.4111 66.0667C54.8805 66.3082 55.2474 66.6386 55.5117 67.0579C55.776 67.4771 55.9082 67.942 55.9082 68.4524C55.9082 68.8306 55.8398 69.193 55.7031 69.5393C55.5664 69.8811 55.3363 70.2616 55.0127 70.6809C54.6937 71.0956 54.2357 71.6106 53.6387 72.2258L51.3691 74.5637V74.6458H56.0859V75.7395H49.6602L49.6465 74.8372ZM61.1172 75.8762C60.388 75.8762 59.7637 75.678 59.2441 75.2815C58.7292 74.885 58.335 74.3062 58.0615 73.5452C57.7926 72.7841 57.6582 71.8658 57.6582 70.7903C57.6582 69.7284 57.7949 68.817 58.0684 68.0559C58.3418 67.2903 58.7383 66.7069 59.2578 66.3059C59.7773 65.9049 60.3971 65.7043 61.1172 65.7043C61.8372 65.7043 62.457 65.9049 62.9766 66.3059C63.4961 66.7069 63.8926 67.2903 64.166 68.0559C64.4395 68.817 64.5762 69.7284 64.5762 70.7903C64.5762 71.8658 64.4395 72.7841 64.166 73.5452C63.8971 74.3062 63.5029 74.885 62.9834 75.2815C62.4639 75.678 61.8418 75.8762 61.1172 75.8762ZM61.1172 74.7825C61.5911 74.7825 61.9967 74.6275 62.334 74.3176C62.6712 74.0077 62.9287 73.5543 63.1064 72.9573C63.2842 72.3603 63.373 71.6379 63.373 70.7903C63.373 69.9426 63.2842 69.218 63.1064 68.6165C62.9287 68.0149 62.6712 67.5569 62.334 67.2424C61.9967 66.928 61.5911 66.7708 61.1172 66.7708C60.6432 66.7708 60.2354 66.928 59.8936 67.2424C59.5563 67.5569 59.2965 68.0149 59.1143 68.6165C58.9365 69.218 58.8477 69.9426 58.8477 70.7903C58.8477 71.6379 58.9365 72.3603 59.1143 72.9573C59.292 73.5543 59.5495 74.0077 59.8867 74.3176C60.2285 74.6275 60.6387 74.7825 61.1172 74.7825ZM66.2031 74.8372L69.5801 71.2825C70.0267 70.8131 70.3662 70.4348 70.5986 70.1477C70.8356 69.856 71.0133 69.5758 71.1318 69.3069C71.2549 69.0334 71.3164 68.7486 71.3164 68.4524C71.3164 68.1243 71.2298 67.8326 71.0566 67.5774C70.8835 67.3222 70.6465 67.1239 70.3457 66.9827C70.0495 66.8414 69.7168 66.7708 69.3477 66.7708C68.9603 66.7708 68.6208 66.8482 68.3291 67.0032C68.0374 67.1581 67.8118 67.3769 67.6523 67.6594C67.4974 67.942 67.4199 68.2655 67.4199 68.6301H66.2578C66.2533 68.0559 66.3854 67.5478 66.6543 67.1057C66.9277 66.6637 67.3037 66.3196 67.7822 66.0735C68.2607 65.8274 68.7962 65.7043 69.3887 65.7043C69.9766 65.7043 70.5029 65.8251 70.9678 66.0667C71.4372 66.3082 71.804 66.6386 72.0684 67.0579C72.3327 67.4771 72.4648 67.942 72.4648 68.4524C72.4648 68.8306 72.3965 69.193 72.2598 69.5393C72.123 69.8811 71.8929 70.2616 71.5693 70.6809C71.2503 71.0956 70.7923 71.6106 70.1953 72.2258L67.9258 74.5637V74.6458H72.6426V75.7395H66.2168L66.2031 74.8372ZM77.9062 75.8762C77.2682 75.8762 76.6758 75.7327 76.1289 75.4456C75.5866 75.1539 75.14 74.6594 74.7891 73.9622C74.4427 73.2603 74.2695 72.3306 74.2695 71.1731C74.2695 70.0201 74.4199 69.0334 74.7207 68.2131C75.026 67.3928 75.459 66.7708 76.0195 66.3469C76.5846 65.9185 77.2546 65.7043 78.0293 65.7043C78.599 65.7043 79.1094 65.8137 79.5605 66.0325C80.0163 66.2512 80.3877 66.5588 80.6748 66.9553C80.9665 67.3518 81.1556 67.8098 81.2422 68.3293H80.0254C79.9023 67.8691 79.6699 67.4999 79.3281 67.2219C78.9909 66.9394 78.5579 66.7981 78.0293 66.7981C77.4915 66.7981 77.0267 66.9485 76.6348 67.2493C76.2474 67.5455 75.9489 67.9762 75.7393 68.5413C75.5342 69.1064 75.4316 69.7831 75.4316 70.5715H75.5547C75.8464 70.1568 76.2109 69.8355 76.6484 69.6077C77.0859 69.3752 77.569 69.259 78.0977 69.259C78.681 69.259 79.2188 69.4003 79.7109 69.6829C80.2077 69.9654 80.5996 70.3573 80.8867 70.8586C81.1784 71.3554 81.3242 71.9159 81.3242 72.5403C81.3242 73.1555 81.1807 73.7183 80.8936 74.2288C80.611 74.7346 80.21 75.1357 79.6904 75.4319C79.1709 75.7281 78.5762 75.8762 77.9062 75.8762ZM77.8789 74.7961C78.2982 74.7961 78.6787 74.6959 79.0205 74.4954C79.3623 74.2948 79.6312 74.0237 79.8271 73.6819C80.0277 73.3355 80.1302 72.9596 80.1348 72.554C80.1302 72.1484 80.0322 71.7769 79.8408 71.4397C79.6494 71.1025 79.3851 70.8359 79.0479 70.6399C78.7106 70.4394 78.3301 70.3391 77.9062 70.3391C77.4824 70.3391 77.0951 70.4417 76.7441 70.6467C76.3932 70.8518 76.1152 71.1275 75.9102 71.4739C75.7051 71.8157 75.6003 72.1803 75.5957 72.5676C75.5957 72.955 75.6937 73.3196 75.8896 73.6614C76.0902 74.0032 76.3636 74.2789 76.71 74.4885C77.0609 74.6936 77.4505 74.7961 77.8789 74.7961ZM87.2852 71.3372H82.9512V70.2571H87.2852V71.3372ZM92.3164 75.8762C91.5872 75.8762 90.9629 75.678 90.4434 75.2815C89.9284 74.885 89.5342 74.3062 89.2607 73.5452C88.9919 72.7841 88.8574 71.8658 88.8574 70.7903C88.8574 69.7284 88.9941 68.817 89.2676 68.0559C89.541 67.2903 89.9375 66.7069 90.457 66.3059C90.9766 65.9049 91.5964 65.7043 92.3164 65.7043C93.0365 65.7043 93.6562 65.9049 94.1758 66.3059C94.6953 66.7069 95.0918 67.2903 95.3652 68.0559C95.6387 68.817 95.7754 69.7284 95.7754 70.7903C95.7754 71.8658 95.6387 72.7841 95.3652 73.5452C95.0964 74.3062 94.7021 74.885 94.1826 75.2815C93.6631 75.678 93.041 75.8762 92.3164 75.8762ZM92.3164 74.7825C92.7904 74.7825 93.196 74.6275 93.5332 74.3176C93.8704 74.0077 94.1279 73.5543 94.3057 72.9573C94.4834 72.3603 94.5723 71.6379 94.5723 70.7903C94.5723 69.9426 94.4834 69.218 94.3057 68.6165C94.1279 68.0149 93.8704 67.5569 93.5332 67.2424C93.196 66.928 92.7904 66.7708 92.3164 66.7708C91.8424 66.7708 91.4346 66.928 91.0928 67.2424C90.7555 67.5569 90.4958 68.0149 90.3135 68.6165C90.1357 69.218 90.0469 69.9426 90.0469 70.7903C90.0469 71.6379 90.1357 72.3603 90.3135 72.9573C90.4912 73.5543 90.7487 74.0077 91.0859 74.3176C91.4277 74.6275 91.8379 74.7825 92.3164 74.7825ZM97.1699 72.7043L101.627 65.8411H103.145V72.636H104.525V73.7161H103.145V75.7395H101.969V73.7161H97.1699V72.7043ZM101.969 72.636V67.3997H101.846L98.4961 72.554V72.636H101.969ZM110.418 71.3372H106.084V70.2571H110.418V71.3372ZM115.709 75.7395H114.465V67.1262H114.41L112.004 68.7258V67.4817L114.465 65.8411H115.709V75.7395ZM121.574 75.8762C120.986 75.8762 120.451 75.7646 119.968 75.5413C119.489 75.3134 119.106 75.0012 118.819 74.6047C118.537 74.2037 118.384 73.7525 118.361 73.2512H119.551C119.583 73.5429 119.692 73.8072 119.879 74.0442C120.066 74.2766 120.307 74.4612 120.604 74.5979C120.9 74.7301 121.223 74.7961 121.574 74.7961C121.993 74.7961 122.372 74.7004 122.709 74.509C123.046 74.3176 123.311 74.0556 123.502 73.7229C123.693 73.3902 123.789 73.0188 123.789 72.6086C123.789 72.1848 123.689 71.8043 123.488 71.467C123.292 71.1252 123.019 70.8586 122.668 70.6672C122.322 70.4713 121.93 70.371 121.492 70.3665C120.613 70.3528 119.997 70.649 119.646 71.2551H118.457L119.154 65.8411H124.514V66.9348H120.18L119.811 69.8333H119.906C120.13 69.6601 120.401 69.5211 120.72 69.4163C121.039 69.3114 121.369 69.259 121.711 69.259C122.331 69.259 122.889 69.4026 123.386 69.6897C123.887 69.9722 124.279 70.3665 124.562 70.8723C124.849 71.3782 124.992 71.9478 124.992 72.5813C124.992 73.2102 124.844 73.7753 124.548 74.2766C124.252 74.7779 123.844 75.1698 123.324 75.4524C122.805 75.7349 122.221 75.8762 121.574 75.8762Z" fill="#888882"/>
</g>
</g>
<g id="Container_6">
<g id="Icon_2" clip-path="url(#clip1_122_5616)">
<path id="Vector_5" d="M38.0699 92.3907C38.0699 95.7175 34.3793 99.1822 33.14 100.252C33.0245 100.339 32.884 100.386 32.7395 100.386C32.5951 100.386 32.4546 100.339 32.3391 100.252C31.0998 99.1822 27.4092 95.7175 27.4092 92.3907C27.4092 90.977 27.9708 89.6212 28.9704 88.6215C29.97 87.6219 31.3258 87.0603 32.7395 87.0603C34.1532 87.0603 35.509 87.6219 36.5087 88.6215C37.5083 89.6212 38.0699 90.977 38.0699 92.3907Z" stroke="#888882" stroke-width="1.33259" stroke-linecap="round" stroke-linejoin="round"/>
<path id="Vector_6" d="M32.7394 94.3896C33.8433 94.3896 34.7382 93.4947 34.7382 92.3907C34.7382 91.2868 33.8433 90.3918 32.7394 90.3918C31.6354 90.3918 30.7405 91.2868 30.7405 92.3907C30.7405 93.4947 31.6354 94.3896 32.7394 94.3896Z" stroke="#888882" stroke-width="1.33259" stroke-linecap="round" stroke-linejoin="round"/>
</g>
<g id="Text_2">
<path id="&#236;&#132;&#156;&#236;&#154;&#184;" d="M53.502 91.9468C53.502 92.6668 53.6432 93.3778 53.9258 94.0796C54.2083 94.7814 54.5911 95.4058 55.0742 95.9526C55.5573 96.495 56.0905 96.9006 56.6738 97.1694L56.0312 98.0444C55.3431 97.689 54.7279 97.1672 54.1855 96.479C53.6432 95.7909 53.2376 95.0138 52.9688 94.1479C52.6953 95.064 52.2874 95.8866 51.7451 96.6157C51.2074 97.3449 50.5944 97.894 49.9062 98.2632L49.209 97.4019C49.7969 97.1147 50.3346 96.6841 50.8223 96.1099C51.3099 95.5311 51.695 94.8771 51.9775 94.1479C52.2646 93.4142 52.4082 92.6805 52.4082 91.9468V89.7319H53.502V91.9468ZM59.2988 100.861H58.2324V93.7104H55.3477V92.8354H58.2324V88.6792H59.2988V100.861ZM66.8594 88.8296C67.7617 88.8296 68.5342 88.9116 69.1768 89.0757C69.8193 89.2397 70.3092 89.479 70.6465 89.7935C70.9837 90.1079 71.1523 90.4884 71.1523 90.9351C71.1523 91.3862 70.9837 91.769 70.6465 92.0835C70.3092 92.3979 69.8193 92.6372 69.1768 92.8013C68.5342 92.9653 67.7617 93.0496 66.8594 93.0542C65.957 93.0496 65.1823 92.9653 64.5352 92.8013C63.8926 92.6372 63.4004 92.3979 63.0586 92.0835C62.7214 91.769 62.5527 91.3862 62.5527 90.9351C62.5527 90.4884 62.7214 90.1079 63.0586 89.7935C63.4004 89.479 63.8926 89.2397 64.5352 89.0757C65.1823 88.9116 65.957 88.8296 66.8594 88.8296ZM66.8594 89.6499C65.8431 89.659 65.057 89.7752 64.501 89.9985C63.945 90.2218 63.6693 90.534 63.6738 90.9351C63.6693 91.3498 63.9427 91.6688 64.4941 91.8921C65.0501 92.1108 65.8385 92.2248 66.8594 92.2339C67.8757 92.2248 68.6618 92.1108 69.2178 91.8921C69.7783 91.6688 70.0586 91.3498 70.0586 90.9351C70.0586 90.534 69.776 90.2218 69.2109 89.9985C68.6504 89.7752 67.8665 89.659 66.8594 89.6499ZM72.3965 94.7222H67.3789V95.8706H70.9746V98.5913H63.7559V99.8491H71.3438V100.697H62.6895V97.7983H69.9219V96.6909H62.6621V95.8706H66.3125V94.7222H61.3223V93.8608H72.3965V94.7222Z" fill="#888882"/>
</g>
</g>
<g id="Container_7">
<g id="Icon_3" clip-path="url(#clip2_122_5616)">
<path id="Vector_7" d="M32.7394 124.373C36.4192 124.373 39.4023 121.39 39.4023 117.71C39.4023 114.03 36.4192 111.047 32.7394 111.047C29.0595 111.047 26.0764 114.03 26.0764 117.71C26.0764 121.39 29.0595 124.373 32.7394 124.373Z" stroke="#888882" stroke-width="1.33259" stroke-linecap="round" stroke-linejoin="round"/>
<path id="Vector_8" d="M32.7395 113.712V117.71L35.4047 119.043" stroke="#888882" stroke-width="1.33259" stroke-linecap="round" stroke-linejoin="round"/>
</g>
<g id="Text_3">
<path id="&#235;&#139;&#185;&#236;&#157;&#188;" d="M58.7383 115.838H60.5566V116.74H58.7383V119.926H57.6582V112.666H58.7383V115.838ZM54.8281 120.158C55.6484 120.158 56.3594 120.252 56.9609 120.438C57.5625 120.621 58.0251 120.885 58.3486 121.231C58.6722 121.578 58.834 121.99 58.834 122.469C58.834 122.956 58.6722 123.373 58.3486 123.72C58.0251 124.071 57.5625 124.337 56.9609 124.52C56.3639 124.702 55.653 124.793 54.8281 124.793C53.9987 124.793 53.2809 124.702 52.6748 124.52C52.0732 124.337 51.6084 124.071 51.2803 123.72C50.9567 123.373 50.7949 122.956 50.7949 122.469C50.7949 121.99 50.9567 121.578 51.2803 121.231C51.6084 120.885 52.0755 120.621 52.6816 120.438C53.2878 120.252 54.0033 120.158 54.8281 120.158ZM54.8281 121.047C54.222 121.042 53.6934 121.097 53.2422 121.211C52.7956 121.325 52.4515 121.491 52.21 121.71C51.9684 121.924 51.8477 122.177 51.8477 122.469C51.8477 122.765 51.9684 123.025 52.21 123.248C52.4515 123.467 52.7956 123.635 53.2422 123.754C53.6934 123.872 54.222 123.932 54.8281 123.932C55.4297 123.932 55.9538 123.872 56.4004 123.754C56.847 123.635 57.1911 123.467 57.4326 123.248C57.6742 123.025 57.7949 122.765 57.7949 122.469C57.7949 122.177 57.6742 121.924 57.4326 121.71C57.1911 121.491 56.847 121.325 56.4004 121.211C55.9538 121.097 55.4297 121.042 54.8281 121.047ZM55.1836 114.484H50.8359V118.053C52.1348 118.044 53.1829 118.012 53.9805 117.957C54.778 117.898 55.5664 117.788 56.3457 117.629L56.4551 118.518C55.6439 118.682 54.8258 118.791 54.001 118.846C53.1761 118.9 52.0846 118.928 50.7266 118.928H49.7832V113.596H55.1836V114.484ZM64.7676 113.117C65.3691 113.122 65.9069 113.238 66.3809 113.466C66.8594 113.694 67.2331 114.013 67.502 114.423C67.7754 114.828 67.9121 115.291 67.9121 115.811C67.9121 116.33 67.7754 116.795 67.502 117.205C67.2331 117.611 66.8594 117.927 66.3809 118.155C65.9069 118.379 65.3691 118.49 64.7676 118.49C64.1569 118.49 63.6123 118.379 63.1338 118.155C62.6553 117.927 62.2816 117.611 62.0127 117.205C61.7438 116.795 61.6094 116.33 61.6094 115.811C61.6094 115.291 61.7438 114.828 62.0127 114.423C62.2816 114.013 62.6553 113.694 63.1338 113.466C63.6123 113.238 64.1569 113.122 64.7676 113.117ZM64.7676 114.02C64.3665 114.02 64.0042 114.097 63.6807 114.252C63.3617 114.402 63.111 114.614 62.9287 114.888C62.7464 115.157 62.6576 115.464 62.6621 115.811C62.6576 116.161 62.7464 116.474 62.9287 116.747C63.111 117.021 63.3617 117.235 63.6807 117.39C64.0042 117.54 64.3665 117.615 64.7676 117.615C65.1641 117.615 65.5218 117.54 65.8408 117.39C66.1644 117.235 66.4173 117.021 66.5996 116.747C66.7819 116.474 66.873 116.161 66.873 115.811C66.873 115.464 66.7819 115.157 66.5996 114.888C66.4173 114.614 66.1644 114.402 65.8408 114.252C65.5218 114.097 65.1641 114.02 64.7676 114.02ZM71.3574 118.914H70.291V112.666H71.3574V118.914ZM71.3574 122.428H64.5352V123.795H71.7949V124.656H63.4824V121.621H70.291V120.363H63.4551V119.502H71.3574V122.428Z" fill="#888882"/>
</g>
</g>
</g>
</g>
</g>
</g>
<g id="Button_2" filter="url(#filter2_d_122_5616)">
<path d="M4 180.444C4 171.608 11.1634 164.444 20 164.444H333.342C342.178 164.444 349.342 171.608 349.342 180.444V293.898C349.342 302.734 342.178 309.898 333.342 309.898H20C11.1635 309.898 4 302.734 4 293.898V180.444Z" fill="#FAFAF7"/>
<path d="M20 164.944H333.342C341.902 164.944 348.842 171.884 348.842 180.444V293.897C348.842 302.458 341.902 309.397 333.342 309.397H20C11.4396 309.397 4.5 302.458 4.5 293.897V180.444C4.50001 171.884 11.4396 164.944 20 164.944Z" stroke="#E2DDD5"/>
<g id="Container_8">
<g id="Container_9">
<g id="Container_10">
<g id="Heading 3_2">
<path id="&#236;&#160;&#156;&#236;&#163;&#188;&#235;&#143;&#132; 3&#235;&#176;&#149; 4&#236;&#157;&#188;" d="M38.947 203.25H37.0837V187.36H38.947V203.25ZM35.7126 202.477H33.8669V194.479H31.5818V192.897H33.8669V187.658H35.7126V202.477ZM30.1755 191.701C30.1755 192.633 30.2898 193.527 30.5183 194.382C30.7527 195.238 31.1101 196.014 31.5906 196.711C32.0769 197.408 32.6833 197.965 33.4099 198.381L32.2498 199.823C31.5349 199.395 30.9285 198.823 30.4304 198.109C29.9324 197.388 29.5398 196.559 29.2527 195.621C28.9656 196.635 28.5642 197.537 28.0486 198.328C27.533 199.114 26.9119 199.735 26.1853 200.192L24.99 198.733C25.7283 198.287 26.3435 197.693 26.8357 196.948C27.3337 196.204 27.7 195.384 27.9343 194.488C28.1746 193.585 28.2947 192.656 28.2947 191.701V190.647H25.5349V189.065H32.7419V190.647H30.1755V191.701ZM55.0123 197.801H48.7017V203.233H46.7681V197.801H40.5279V196.219H55.0123V197.801ZM53.6763 189.803H48.9039C48.9449 190.383 49.1939 190.943 49.6509 191.482C50.108 192.015 50.7349 192.472 51.5318 192.853C52.3287 193.234 53.2369 193.489 54.2564 193.617L53.5533 195.147C52.2056 194.959 51.025 194.573 50.0113 193.987C49.0035 193.401 48.2564 192.674 47.7701 191.807C47.2837 192.668 46.5367 193.395 45.5289 193.987C44.521 194.573 43.3521 194.959 42.022 195.147L41.2837 193.617C42.2974 193.489 43.1998 193.234 43.9908 192.853C44.7876 192.472 45.4146 192.015 45.8716 191.482C46.3345 190.943 46.5894 190.383 46.6363 189.803H41.8638V188.256H53.6763V189.803ZM68.6869 196.131H63.9759V199.77H70.3041V201.369H55.7845V199.77H62.0423V196.131H57.5423V188.537H68.5638V190.102H59.4935V194.584H68.6869V196.131ZM80.163 201.862C79.2666 201.862 78.4638 201.709 77.7548 201.405C77.0458 201.1 76.4892 200.675 76.0849 200.13C75.6806 199.579 75.4697 198.949 75.4521 198.24H77.7548C77.7783 198.574 77.8955 198.87 78.1064 199.128C78.3232 199.38 78.6103 199.576 78.9677 199.717C79.3251 199.858 79.7236 199.928 80.163 199.928C80.6259 199.928 81.039 199.849 81.4023 199.691C81.7714 199.527 82.0585 199.301 82.2636 199.014C82.4687 198.727 82.5712 198.399 82.5712 198.03C82.5712 197.649 82.4658 197.309 82.2548 197.01C82.0439 196.711 81.7392 196.48 81.3408 196.316C80.9423 196.146 80.4736 196.061 79.9345 196.061H78.7919V194.303H79.9345C80.3798 194.303 80.7753 194.227 81.121 194.074C81.4726 193.916 81.7451 193.697 81.9384 193.415C82.1318 193.128 82.2255 192.803 82.2197 192.44C82.2255 192.088 82.1435 191.778 81.9736 191.508C81.8095 191.233 81.5722 191.022 81.2617 190.875C80.9511 190.723 80.5908 190.647 80.1806 190.647C79.7822 190.647 79.4101 190.72 79.0644 190.866C78.7246 191.007 78.4492 191.209 78.2382 191.473C78.0332 191.737 77.9248 192.041 77.913 192.387H75.7158C75.7333 191.684 75.9384 191.06 76.331 190.515C76.7294 189.97 77.2656 189.545 77.9394 189.24C78.6191 188.936 79.372 188.783 80.1982 188.783C81.0361 188.783 81.7773 188.942 82.4218 189.258C83.0664 189.569 83.5644 189.993 83.916 190.532C84.2675 191.072 84.4404 191.666 84.4345 192.317C84.4404 192.785 84.3466 193.21 84.1533 193.591C83.9599 193.972 83.6875 194.288 83.3359 194.54C82.9843 194.792 82.5771 194.965 82.1142 195.059V195.164C82.706 195.246 83.2128 195.422 83.6347 195.692C84.0566 195.955 84.3759 196.298 84.5927 196.72C84.8095 197.142 84.915 197.619 84.9091 198.153C84.915 198.856 84.7128 199.491 84.3027 200.06C83.8984 200.622 83.333 201.065 82.6064 201.387C81.8857 201.703 81.0712 201.862 80.163 201.862ZM98.6189 191.332H100.834V192.932H98.6189V196.922H96.6677V187.36H98.6189V191.332ZM98.6189 203.25H96.6677V199.225H88.0369V197.66H98.6189V203.25ZM88.5642 190.612H92.2732V188.362H94.2068V195.99H86.6306V188.362H88.5642V190.612ZM92.2732 194.444V192.141H88.5642V194.444H92.2732ZM105.613 197.485L111.115 188.959H113.962V197.432H115.632V199.313H113.962V201.686H111.783V199.313H105.613V197.485ZM111.818 197.432V191.561H111.677L107.951 197.344V197.432H111.818ZM121.133 187.869C121.93 187.869 122.648 188.025 123.286 188.335C123.925 188.64 124.426 189.065 124.789 189.61C125.158 190.155 125.346 190.77 125.352 191.455C125.346 192.147 125.158 192.765 124.789 193.31C124.426 193.855 123.925 194.28 123.286 194.584C122.648 194.889 121.93 195.041 121.133 195.041C120.33 195.041 119.607 194.889 118.962 194.584C118.323 194.28 117.822 193.855 117.459 193.31C117.096 192.765 116.914 192.147 116.914 191.455C116.914 190.77 117.096 190.155 117.459 189.61C117.822 189.065 118.326 188.64 118.971 188.335C119.615 188.025 120.336 187.869 121.133 187.869ZM121.133 189.487C120.688 189.487 120.289 189.569 119.938 189.733C119.586 189.891 119.311 190.119 119.111 190.418C118.912 190.711 118.813 191.057 118.813 191.455C118.813 191.86 118.912 192.214 119.111 192.519C119.311 192.818 119.586 193.049 119.938 193.213C120.289 193.377 120.688 193.459 121.133 193.459C121.578 193.459 121.977 193.377 122.328 193.213C122.68 193.049 122.955 192.818 123.154 192.519C123.354 192.214 123.453 191.86 123.453 191.455C123.453 191.057 123.354 190.711 123.154 190.418C122.955 190.119 122.68 189.891 122.328 189.733C121.977 189.569 121.578 189.487 121.133 189.487ZM129.869 195.393H127.901V187.36H129.869V195.393ZM129.869 200.227H121.274V201.51H130.344V203.057H119.358V198.785H127.918V197.608H119.322V196.078H129.869V200.227Z" fill="#1A1A1A"/>
</g>
<g id="StatusToggleLight_2">
<path d="M271.598 187.688H316.598C322.949 187.688 328.098 192.837 328.098 199.188C328.098 205.54 322.949 210.688 316.598 210.688H271.598C265.247 210.688 260.098 205.54 260.098 199.188C260.098 192.837 265.247 187.688 271.598 187.688Z" fill="#FDF5E6"/>
<path d="M271.598 187.688H316.598C322.949 187.688 328.098 192.837 328.098 199.188C328.098 205.54 322.949 210.688 316.598 210.688H271.598C265.247 210.688 260.098 205.54 260.098 199.188C260.098 192.837 265.247 187.688 271.598 187.688Z" stroke="#E2DDD5"/>
<path id="&#236;&#152;&#136;&#236;&#160;&#149;_2" d="M281.161 204.766H279.731V194.102H281.161V204.766ZM278.981 204.274H277.575V200.969H276.321C276.122 201.493 275.85 201.895 275.506 202.177C275.167 202.458 274.774 202.598 274.329 202.598C273.864 202.598 273.456 202.442 273.104 202.13C272.756 201.817 272.487 201.37 272.295 200.788C272.104 200.202 272.008 199.512 272.008 198.719C272.008 197.93 272.104 197.247 272.295 196.669C272.487 196.087 272.756 195.641 273.104 195.333C273.456 195.02 273.864 194.864 274.329 194.864C274.77 194.864 275.161 195.003 275.5 195.28C275.844 195.557 276.116 195.954 276.315 196.469H277.575V194.255H278.981V204.274ZM274.329 196.27C274.016 196.27 273.776 196.477 273.608 196.891C273.444 197.305 273.364 197.915 273.368 198.719C273.364 199.528 273.444 200.139 273.608 200.553C273.772 200.964 274.012 201.165 274.329 201.157C274.645 201.165 274.889 200.964 275.061 200.553C275.237 200.139 275.325 199.528 275.325 198.719C275.325 197.923 275.237 197.315 275.061 196.897C274.885 196.479 274.641 196.27 274.329 196.27ZM276.614 197.665C276.661 197.993 276.684 198.344 276.684 198.719C276.684 199.091 276.661 199.438 276.614 199.762H277.575V197.665H276.614ZM291.474 200.43H289.986V197.911H288.322V196.704H289.986V194.102H291.474V200.43ZM287.829 200.665C288.587 200.669 289.24 200.753 289.786 200.917C290.337 201.077 290.761 201.311 291.058 201.62C291.355 201.928 291.505 202.298 291.509 202.727C291.505 203.153 291.355 203.52 291.058 203.829C290.761 204.137 290.337 204.372 289.786 204.532C289.236 204.696 288.583 204.778 287.829 204.778C287.075 204.778 286.423 204.696 285.872 204.532C285.322 204.372 284.898 204.137 284.601 203.829C284.308 203.52 284.161 203.153 284.161 202.727C284.161 202.298 284.308 201.928 284.601 201.62C284.898 201.311 285.32 201.077 285.867 200.917C286.417 200.753 287.072 200.669 287.829 200.665ZM287.829 201.813C286.376 201.813 285.65 202.118 285.65 202.727C285.65 203.032 285.833 203.26 286.2 203.413C286.572 203.565 287.115 203.641 287.829 203.641C288.544 203.641 289.087 203.565 289.458 203.413C289.833 203.257 290.021 203.028 290.021 202.727C290.021 202.118 289.29 201.813 287.829 201.813ZM288.638 195.942H286.517C286.529 196.372 286.624 196.786 286.804 197.184C286.988 197.579 287.259 197.934 287.618 198.251C287.982 198.567 288.431 198.813 288.966 198.989L288.228 200.161C287.658 199.977 287.165 199.704 286.751 199.341C286.341 198.973 286.017 198.542 285.779 198.046C285.533 198.608 285.193 199.096 284.759 199.51C284.325 199.921 283.802 200.231 283.189 200.442L282.415 199.259C282.978 199.071 283.449 198.805 283.827 198.462C284.21 198.114 284.495 197.723 284.683 197.29C284.874 196.856 284.978 196.407 284.993 195.942H282.849V194.747H288.638V195.942Z" fill="#D4A85C"/>
<g id="Ellipse 6_2" filter="url(#filter3_d_122_5616)">
<circle cx="311.598" cy="199.188" r="9" fill="#FAFAF7"/>
</g>
</g>
</g>
<g id="Container_11">
<g id="Container_12">
<g id="Icon_4" clip-path="url(#clip3_122_5616)">
<path id="Vector_9" d="M30.0742 224.518V227.183" stroke="#888882" stroke-width="1.33259" stroke-linecap="round" stroke-linejoin="round"/>
<path id="Vector_10" d="M35.4045 224.518V227.183" stroke="#888882" stroke-width="1.33259" stroke-linecap="round" stroke-linejoin="round"/>
<path id="Vector_11" d="M37.4034 225.851H28.0753C27.3393 225.851 26.7427 226.447 26.7427 227.183V236.512C26.7427 237.248 27.3393 237.844 28.0753 237.844H37.4034C38.1394 237.844 38.736 237.248 38.736 236.512V227.183C38.736 226.447 38.1394 225.851 37.4034 225.851Z" stroke="#888882" stroke-width="1.33259" stroke-linecap="round" stroke-linejoin="round"/>
<path id="Vector_12" d="M26.7427 229.848H38.736" stroke="#888882" stroke-width="1.33259" stroke-linecap="round" stroke-linejoin="round"/>
</g>
<g id="Text_4">
<path id="2026-05-10" d="M49.6465 236.281L53.0234 232.727C53.4701 232.257 53.8096 231.879 54.042 231.592C54.279 231.3 54.4567 231.02 54.5752 230.751C54.6982 230.478 54.7598 230.193 54.7598 229.897C54.7598 229.569 54.6732 229.277 54.5 229.022C54.3268 228.767 54.0898 228.568 53.7891 228.427C53.4928 228.286 53.1602 228.215 52.791 228.215C52.4036 228.215 52.0641 228.293 51.7725 228.448C51.4808 228.602 51.2552 228.821 51.0957 229.104C50.9408 229.386 50.8633 229.71 50.8633 230.074H49.7012C49.6966 229.5 49.8288 228.992 50.0977 228.55C50.3711 228.108 50.7471 227.764 51.2256 227.518C51.7041 227.272 52.2396 227.149 52.832 227.149C53.4199 227.149 53.9463 227.269 54.4111 227.511C54.8805 227.753 55.2474 228.083 55.5117 228.502C55.776 228.921 55.9082 229.386 55.9082 229.897C55.9082 230.275 55.8398 230.637 55.7031 230.984C55.5664 231.325 55.3363 231.706 55.0127 232.125C54.6937 232.54 54.2357 233.055 53.6387 233.67L51.3691 236.008V236.09H56.0859V237.184H49.6602L49.6465 236.281ZM61.1172 237.321C60.388 237.321 59.7637 237.122 59.2441 236.726C58.7292 236.329 58.335 235.751 58.0615 234.99C57.7926 234.228 57.6582 233.31 57.6582 232.235C57.6582 231.173 57.7949 230.261 58.0684 229.5C58.3418 228.735 58.7383 228.151 59.2578 227.75C59.7773 227.349 60.3971 227.149 61.1172 227.149C61.8372 227.149 62.457 227.349 62.9766 227.75C63.4961 228.151 63.8926 228.735 64.166 229.5C64.4395 230.261 64.5762 231.173 64.5762 232.235C64.5762 233.31 64.4395 234.228 64.166 234.99C63.8971 235.751 63.5029 236.329 62.9834 236.726C62.4639 237.122 61.8418 237.321 61.1172 237.321ZM61.1172 236.227C61.5911 236.227 61.9967 236.072 62.334 235.762C62.6712 235.452 62.9287 234.999 63.1064 234.402C63.2842 233.805 63.373 233.082 63.373 232.235C63.373 231.387 63.2842 230.662 63.1064 230.061C62.9287 229.459 62.6712 229.001 62.334 228.687C61.9967 228.372 61.5911 228.215 61.1172 228.215C60.6432 228.215 60.2354 228.372 59.8936 228.687C59.5563 229.001 59.2965 229.459 59.1143 230.061C58.9365 230.662 58.8477 231.387 58.8477 232.235C58.8477 233.082 58.9365 233.805 59.1143 234.402C59.292 234.999 59.5495 235.452 59.8867 235.762C60.2285 236.072 60.6387 236.227 61.1172 236.227ZM66.2031 236.281L69.5801 232.727C70.0267 232.257 70.3662 231.879 70.5986 231.592C70.8356 231.3 71.0133 231.02 71.1318 230.751C71.2549 230.478 71.3164 230.193 71.3164 229.897C71.3164 229.569 71.2298 229.277 71.0566 229.022C70.8835 228.767 70.6465 228.568 70.3457 228.427C70.0495 228.286 69.7168 228.215 69.3477 228.215C68.9603 228.215 68.6208 228.293 68.3291 228.448C68.0374 228.602 67.8118 228.821 67.6523 229.104C67.4974 229.386 67.4199 229.71 67.4199 230.074H66.2578C66.2533 229.5 66.3854 228.992 66.6543 228.55C66.9277 228.108 67.3037 227.764 67.7822 227.518C68.2607 227.272 68.7962 227.149 69.3887 227.149C69.9766 227.149 70.5029 227.269 70.9678 227.511C71.4372 227.753 71.804 228.083 72.0684 228.502C72.3327 228.921 72.4648 229.386 72.4648 229.897C72.4648 230.275 72.3965 230.637 72.2598 230.984C72.123 231.325 71.8929 231.706 71.5693 232.125C71.2503 232.54 70.7923 233.055 70.1953 233.67L67.9258 236.008V236.09H72.6426V237.184H66.2168L66.2031 236.281ZM77.9062 237.321C77.2682 237.321 76.6758 237.177 76.1289 236.89C75.5866 236.598 75.14 236.104 74.7891 235.406C74.4427 234.705 74.2695 233.775 74.2695 232.617C74.2695 231.464 74.4199 230.478 74.7207 229.657C75.026 228.837 75.459 228.215 76.0195 227.791C76.5846 227.363 77.2546 227.149 78.0293 227.149C78.599 227.149 79.1094 227.258 79.5605 227.477C80.0163 227.696 80.3877 228.003 80.6748 228.4C80.9665 228.796 81.1556 229.254 81.2422 229.774H80.0254C79.9023 229.313 79.6699 228.944 79.3281 228.666C78.9909 228.384 78.5579 228.242 78.0293 228.242C77.4915 228.242 77.0267 228.393 76.6348 228.694C76.2474 228.99 75.9489 229.42 75.7393 229.986C75.5342 230.551 75.4316 231.227 75.4316 232.016H75.5547C75.8464 231.601 76.2109 231.28 76.6484 231.052C77.0859 230.82 77.569 230.703 78.0977 230.703C78.681 230.703 79.2188 230.845 79.7109 231.127C80.2077 231.41 80.5996 231.802 80.8867 232.303C81.1784 232.8 81.3242 233.36 81.3242 233.985C81.3242 234.6 81.1807 235.163 80.8936 235.673C80.611 236.179 80.21 236.58 79.6904 236.876C79.1709 237.172 78.5762 237.321 77.9062 237.321ZM77.8789 236.24C78.2982 236.24 78.6787 236.14 79.0205 235.94C79.3623 235.739 79.6312 235.468 79.8271 235.126C80.0277 234.78 80.1302 234.404 80.1348 233.998C80.1302 233.593 80.0322 233.221 79.8408 232.884C79.6494 232.547 79.3851 232.28 79.0479 232.084C78.7106 231.884 78.3301 231.783 77.9062 231.783C77.4824 231.783 77.0951 231.886 76.7441 232.091C76.3932 232.296 76.1152 232.572 75.9102 232.918C75.7051 233.26 75.6003 233.625 75.5957 234.012C75.5957 234.399 75.6937 234.764 75.8896 235.106C76.0902 235.448 76.3636 235.723 76.71 235.933C77.0609 236.138 77.4505 236.24 77.8789 236.24ZM87.2852 232.781H82.9512V231.701H87.2852V232.781ZM92.3164 237.321C91.5872 237.321 90.9629 237.122 90.4434 236.726C89.9284 236.329 89.5342 235.751 89.2607 234.99C88.9919 234.228 88.8574 233.31 88.8574 232.235C88.8574 231.173 88.9941 230.261 89.2676 229.5C89.541 228.735 89.9375 228.151 90.457 227.75C90.9766 227.349 91.5964 227.149 92.3164 227.149C93.0365 227.149 93.6562 227.349 94.1758 227.75C94.6953 228.151 95.0918 228.735 95.3652 229.5C95.6387 230.261 95.7754 231.173 95.7754 232.235C95.7754 233.31 95.6387 234.228 95.3652 234.99C95.0964 235.751 94.7021 236.329 94.1826 236.726C93.6631 237.122 93.041 237.321 92.3164 237.321ZM92.3164 236.227C92.7904 236.227 93.196 236.072 93.5332 235.762C93.8704 235.452 94.1279 234.999 94.3057 234.402C94.4834 233.805 94.5723 233.082 94.5723 232.235C94.5723 231.387 94.4834 230.662 94.3057 230.061C94.1279 229.459 93.8704 229.001 93.5332 228.687C93.196 228.372 92.7904 228.215 92.3164 228.215C91.8424 228.215 91.4346 228.372 91.0928 228.687C90.7555 229.001 90.4958 229.459 90.3135 230.061C90.1357 230.662 90.0469 231.387 90.0469 232.235C90.0469 233.082 90.1357 233.805 90.3135 234.402C90.4912 234.999 90.7487 235.452 91.0859 235.762C91.4277 236.072 91.8379 236.227 92.3164 236.227ZM100.643 237.321C100.055 237.321 99.5192 237.209 99.0361 236.986C98.5576 236.758 98.1748 236.446 97.8877 236.049C97.6051 235.648 97.4525 235.197 97.4297 234.696H98.6191C98.651 234.987 98.7604 235.252 98.9473 235.489C99.1341 235.721 99.3757 235.906 99.6719 236.042C99.9681 236.174 100.292 236.24 100.643 236.24C101.062 236.24 101.44 236.145 101.777 235.953C102.115 235.762 102.379 235.5 102.57 235.167C102.762 234.835 102.857 234.463 102.857 234.053C102.857 233.629 102.757 233.249 102.557 232.911C102.361 232.57 102.087 232.303 101.736 232.112C101.39 231.916 100.998 231.815 100.561 231.811C99.681 231.797 99.0658 232.093 98.7148 232.699H97.5254L98.2227 227.285H103.582V228.379H99.248L98.8789 231.278H98.9746C99.1979 231.104 99.4691 230.965 99.7881 230.861C100.107 230.756 100.438 230.703 100.779 230.703C101.399 230.703 101.957 230.847 102.454 231.134C102.955 231.417 103.347 231.811 103.63 232.317C103.917 232.823 104.061 233.392 104.061 234.026C104.061 234.655 103.912 235.22 103.616 235.721C103.32 236.222 102.912 236.614 102.393 236.897C101.873 237.179 101.29 237.321 100.643 237.321ZM110.035 232.781H105.701V231.701H110.035V232.781ZM115.326 237.184H114.082V228.571H114.027L111.621 230.17V228.926L114.082 227.285H115.326V237.184ZM121.205 237.321C120.476 237.321 119.852 237.122 119.332 236.726C118.817 236.329 118.423 235.751 118.149 234.99C117.881 234.228 117.746 233.31 117.746 232.235C117.746 231.173 117.883 230.261 118.156 229.5C118.43 228.735 118.826 228.151 119.346 227.75C119.865 227.349 120.485 227.149 121.205 227.149C121.925 227.149 122.545 227.349 123.064 227.75C123.584 228.151 123.98 228.735 124.254 229.5C124.527 230.261 124.664 231.173 124.664 232.235C124.664 233.31 124.527 234.228 124.254 234.99C123.985 235.751 123.591 236.329 123.071 236.726C122.552 237.122 121.93 237.321 121.205 237.321ZM121.205 236.227C121.679 236.227 122.085 236.072 122.422 235.762C122.759 235.452 123.017 234.999 123.194 234.402C123.372 233.805 123.461 233.082 123.461 232.235C123.461 231.387 123.372 230.662 123.194 230.061C123.017 229.459 122.759 229.001 122.422 228.687C122.085 228.372 121.679 228.215 121.205 228.215C120.731 228.215 120.323 228.372 119.981 228.687C119.644 229.001 119.384 229.459 119.202 230.061C119.024 230.662 118.936 231.387 118.936 232.235C118.936 233.082 119.024 233.805 119.202 234.402C119.38 234.999 119.637 235.452 119.975 235.762C120.316 236.072 120.727 236.227 121.205 236.227Z" fill="#888882"/>
</g>
</g>
<g id="Container_13">
<g id="Icon_5" clip-path="url(#clip4_122_5616)">
<path id="Vector_13" d="M38.0699 253.835C38.0699 257.162 34.3793 260.627 33.14 261.697C33.0245 261.783 32.884 261.83 32.7395 261.83C32.5951 261.83 32.4546 261.783 32.3391 261.697C31.0998 260.627 27.4092 257.162 27.4092 253.835C27.4092 252.421 27.9708 251.066 28.9704 250.066C29.97 249.066 31.3258 248.505 32.7395 248.505C34.1532 248.505 35.509 249.066 36.5087 250.066C37.5083 251.066 38.0699 252.421 38.0699 253.835Z" stroke="#888882" stroke-width="1.33259" stroke-linecap="round" stroke-linejoin="round"/>
<path id="Vector_14" d="M32.7394 255.834C33.8433 255.834 34.7382 254.939 34.7382 253.835C34.7382 252.731 33.8433 251.836 32.7394 251.836C31.6354 251.836 30.7405 252.731 30.7405 253.835C30.7405 254.939 31.6354 255.834 32.7394 255.834Z" stroke="#888882" stroke-width="1.33259" stroke-linecap="round" stroke-linejoin="round"/>
</g>
<g id="Text_5">
<path id="&#236;&#160;&#156;&#236;&#163;&#188;&#235;&#143;&#132;" d="M59.6133 262.278H58.5879V250.124H59.6133V262.278ZM57.1523 261.649H56.1406V255.387H54.0898V254.512H56.1406V250.424H57.1523V261.649ZM52.791 253.596C52.791 254.303 52.8936 254.993 53.0986 255.667C53.3037 256.337 53.6045 256.944 54.001 257.486C54.3975 258.024 54.8691 258.45 55.416 258.764L54.7598 259.557C54.1719 259.206 53.6683 258.721 53.249 258.101C52.8298 257.477 52.5107 256.77 52.292 255.982C52.0687 256.834 51.7383 257.597 51.3008 258.272C50.8678 258.946 50.3529 259.471 49.7559 259.844L49.0723 259.038C49.6237 258.709 50.1022 258.261 50.5078 257.691C50.9134 257.121 51.221 256.483 51.4307 255.777C51.6449 255.066 51.752 254.339 51.752 253.596V252.448H49.4141V251.559H55.0195V252.448H52.791V253.596ZM67.4609 251.846C67.4564 252.366 67.6592 252.862 68.0693 253.336C68.4795 253.806 69.015 254.202 69.6758 254.526C70.3366 254.849 71.0247 255.064 71.7402 255.168L71.3438 256.016C70.7012 255.907 70.0814 255.724 69.4844 255.469C68.8919 255.214 68.3656 254.895 67.9053 254.512C67.445 254.125 67.0964 253.694 66.8594 253.22C66.6224 253.694 66.2738 254.123 65.8135 254.505C65.3532 254.888 64.8268 255.209 64.2344 255.469C63.6465 255.724 63.0358 255.907 62.4023 256.016L61.9785 255.168C62.6895 255.064 63.3753 254.849 64.0361 254.526C64.6969 254.202 65.2324 253.806 65.6426 253.336C66.0527 252.862 66.2578 252.366 66.2578 251.846V251.764H62.3613V250.889H71.3438V251.764H67.4609V251.846ZM72.3965 257.944H67.3652V262.278H66.3125V257.944H61.3223V257.055H72.3965V257.944ZM83.2383 256.7H79.4785V259.844H84.5508V260.747H73.4219V259.844H78.4258V256.7H74.8438V251.122H83.1152V251.997H75.9238V255.825H83.2383V256.7Z" fill="#888882"/>
</g>
</g>
<g id="Container_14">
<g id="Icon_6" clip-path="url(#clip5_122_5616)">
<path id="Vector_15" d="M32.7394 285.817C36.4192 285.817 39.4023 282.834 39.4023 279.154C39.4023 275.474 36.4192 272.491 32.7394 272.491C29.0595 272.491 26.0764 275.474 26.0764 279.154C26.0764 282.834 29.0595 285.817 32.7394 285.817Z" stroke="#888882" stroke-width="1.33259" stroke-linecap="round" stroke-linejoin="round"/>
<path id="Vector_16" d="M32.7395 275.156V279.154L35.4047 280.487" stroke="#888882" stroke-width="1.33259" stroke-linecap="round" stroke-linejoin="round"/>
</g>
<g id="Text_6">
<path id="3&#235;&#176;&#149; 4&#236;&#157;&#188;" d="M53.0781 285.294C52.4264 285.294 51.8431 285.184 51.3281 284.966C50.8177 284.747 50.4121 284.439 50.1113 284.043C49.8151 283.646 49.6556 283.188 49.6328 282.669H50.877C50.8997 282.974 51.0091 283.243 51.2051 283.475C51.4056 283.708 51.6676 283.888 51.9912 284.015C52.3148 284.138 52.6725 284.2 53.0645 284.2C53.4928 284.2 53.8779 284.127 54.2197 283.981C54.5661 283.831 54.835 283.626 55.0264 283.366C55.2223 283.102 55.3203 282.801 55.3203 282.464C55.3203 282.099 55.2246 281.778 55.0332 281.5C54.8464 281.222 54.5729 281.005 54.2129 280.85C53.8529 280.695 53.4199 280.618 52.9141 280.618H52.1074V279.538H52.9141C53.3105 279.538 53.6637 279.467 53.9736 279.326C54.2835 279.185 54.5228 278.986 54.6914 278.731C54.8646 278.476 54.9512 278.18 54.9512 277.843C54.9512 277.519 54.8737 277.232 54.7188 276.981C54.5684 276.731 54.3542 276.537 54.0762 276.4C53.7982 276.259 53.4746 276.188 53.1055 276.188C52.75 276.188 52.4173 276.252 52.1074 276.38C51.7975 276.507 51.5446 276.69 51.3486 276.927C51.1527 277.159 51.0456 277.432 51.0273 277.747H49.8379C49.8607 277.236 50.0202 276.783 50.3164 276.386C50.6126 275.985 51.0068 275.676 51.499 275.457C51.9912 275.233 52.5312 275.122 53.1191 275.122C53.7298 275.122 54.263 275.243 54.7188 275.484C55.179 275.721 55.5322 276.042 55.7783 276.448C56.0244 276.854 56.1452 277.296 56.1406 277.774C56.1452 278.33 55.9971 278.806 55.6963 279.203C55.3955 279.599 54.9831 279.871 54.459 280.016V280.085C54.8828 280.153 55.2497 280.297 55.5596 280.515C55.874 280.73 56.1133 281.005 56.2773 281.343C56.446 281.675 56.528 282.049 56.5234 282.464C56.528 282.997 56.3799 283.48 56.0791 283.913C55.7783 284.341 55.3636 284.678 54.835 284.925C54.3109 285.171 53.7253 285.294 53.0781 285.294ZM67.3652 277.282H69.1973V278.171H67.3652V281.466H66.2988V274.11H67.3652V277.282ZM67.3652 286.264H66.2988V282.983H59.4082V282.108H67.3652V286.264ZM59.4355 276.79H62.9766V274.876H64.043V280.618H58.3828V274.876H59.4355V276.79ZM62.9766 279.743V277.651H59.4355V279.743H62.9766ZM73.668 282.122L78.125 275.259H79.6426V282.053H81.0234V283.134H79.6426V285.157H78.4668V283.134H73.668V282.122ZM78.4668 282.053V276.817H78.3438L74.9941 281.971V282.053H78.4668ZM85.6582 274.561C86.2598 274.566 86.7975 274.682 87.2715 274.91C87.75 275.138 88.1237 275.457 88.3926 275.867C88.666 276.273 88.8027 276.735 88.8027 277.255C88.8027 277.774 88.666 278.239 88.3926 278.649C88.1237 279.055 87.75 279.372 87.2715 279.599C86.7975 279.823 86.2598 279.934 85.6582 279.934C85.0475 279.934 84.5029 279.823 84.0244 279.599C83.5459 279.372 83.1722 279.055 82.9033 278.649C82.6344 278.239 82.5 277.774 82.5 277.255C82.5 276.735 82.6344 276.273 82.9033 275.867C83.1722 275.457 83.5459 275.138 84.0244 274.91C84.5029 274.682 85.0475 274.566 85.6582 274.561ZM85.6582 275.464C85.2572 275.464 84.8949 275.541 84.5713 275.696C84.2523 275.846 84.0016 276.058 83.8193 276.332C83.637 276.601 83.5482 276.908 83.5527 277.255C83.5482 277.606 83.637 277.918 83.8193 278.191C84.0016 278.465 84.2523 278.679 84.5713 278.834C84.8949 278.984 85.2572 279.059 85.6582 279.059C86.0547 279.059 86.4124 278.984 86.7314 278.834C87.055 278.679 87.3079 278.465 87.4902 278.191C87.6725 277.918 87.7637 277.606 87.7637 277.255C87.7637 276.908 87.6725 276.601 87.4902 276.332C87.3079 276.058 87.055 275.846 86.7314 275.696C86.4124 275.541 86.0547 275.464 85.6582 275.464ZM92.248 280.358H91.1816V274.11H92.248V280.358ZM92.248 283.872H85.4258V285.239H92.6855V286.1H84.373V283.065H91.1816V281.807H84.3457V280.946H92.248V283.872Z" fill="#888882"/>
</g>
</g>
</g>
</g>
</g>
</g>
<g id="Button_3" filter="url(#filter4_d_122_5616)">
<path d="M4 341.889C4 333.052 11.1634 325.889 20 325.889H333.342C342.178 325.889 349.342 333.052 349.342 341.889V455.342C349.342 464.179 342.178 471.342 333.342 471.342H20C11.1635 471.342 4 464.179 4 455.342V341.889Z" fill="#FAFAF7"/>
<path d="M20 326.389H333.342C341.902 326.389 348.842 333.329 348.842 341.889V455.342C348.842 463.902 341.902 470.842 333.342 470.842H20C11.4396 470.842 4.5 463.902 4.5 455.342V341.889C4.50001 333.329 11.4396 326.389 20 326.389Z" stroke="#E2DDD5"/>
<g id="Container_15">
<g id="Container_16">
<g id="Container_17">
<g id="Heading 3_3">
<path id="&#235;&#182;&#128;&#236;&#130;&#176; 2&#235;&#176;&#149; 3&#236;&#157;&#188;" d="M39.7732 359.597H33.4451V364.695H31.5115V359.597H25.2537V358.05H39.7732V359.597ZM28.9451 351.388H36.0466V349.437H38.0154V356.398H27.0115V349.437H28.9451V351.388ZM36.0466 354.816V352.935H28.9451V354.816H36.0466ZM46.2232 351.617C46.2173 352.32 46.358 352.997 46.6451 353.647C46.938 354.292 47.3716 354.863 47.9458 355.361C48.5201 355.859 49.2115 356.24 50.0201 356.503L49.0005 358.05C48.1333 357.757 47.3863 357.327 46.7593 356.758C46.1382 356.184 45.649 355.507 45.2916 354.728C44.9283 355.589 44.4185 356.333 43.7623 356.96C43.1119 357.587 42.3326 358.062 41.4244 358.384L40.3345 356.837C41.1841 356.562 41.9019 356.161 42.4878 355.633C43.0738 355.1 43.5132 354.488 43.8062 353.796C44.105 353.099 44.2544 352.367 44.2544 351.599V349.789H46.2232V351.617ZM53.0611 353.498H55.2759V355.15H53.0611V360.476H51.1099V348.804H53.0611V353.498ZM53.6939 364.378H42.8833V359.333H44.8873V362.796H53.6939V364.378ZM60.2833 361.478L64.7833 357.136C65.2697 356.65 65.6447 356.251 65.9083 355.941C66.1779 355.625 66.383 355.314 66.5236 355.009C66.6642 354.699 66.7345 354.371 66.7345 354.025C66.7345 353.638 66.6408 353.298 66.4533 353.005C66.2658 352.712 66.005 352.487 65.671 352.329C65.3429 352.17 64.9708 352.091 64.5548 352.091C64.1212 352.091 63.7404 352.179 63.4123 352.355C63.09 352.525 62.841 352.771 62.6652 353.093C62.4894 353.41 62.4044 353.779 62.4103 354.201H60.2306C60.2248 353.41 60.4064 352.715 60.7755 352.118C61.1447 351.514 61.6574 351.048 62.3136 350.72C62.9757 350.392 63.7287 350.228 64.5724 350.228C65.4279 350.228 66.1837 350.386 66.84 350.703C67.5021 351.019 68.0148 351.458 68.3781 352.021C68.7472 352.578 68.9318 353.21 68.9318 353.919C68.9318 354.412 68.8351 354.886 68.6417 355.343C68.4542 355.8 68.132 356.307 67.6749 356.864C67.2179 357.415 66.5705 358.085 65.7326 358.876L63.465 361.126V361.214H69.1251V363.13H60.2833V361.478ZM82.8349 352.777H85.0498V354.376H82.8349V358.367H80.8837V348.804H82.8349V352.777ZM82.8349 364.695H80.8837V360.669H72.2529V359.105H82.8349V364.695ZM72.7802 352.056H76.4892V349.806H78.4228V357.435H70.8466V349.806H72.7802V352.056ZM76.4892 355.888V353.585H72.7802V355.888H76.4892ZM94.6802 363.306C93.7837 363.306 92.981 363.154 92.272 362.849C91.563 362.544 91.0064 362.12 90.6021 361.575C90.1978 361.024 89.9869 360.394 89.9693 359.685H92.272C92.2955 360.019 92.4126 360.315 92.6236 360.573C92.8404 360.825 93.1275 361.021 93.4849 361.162C93.8423 361.302 94.2408 361.373 94.6802 361.373C95.1431 361.373 95.5562 361.293 95.9195 361.135C96.2886 360.971 96.5757 360.746 96.7808 360.458C96.9859 360.171 97.0884 359.843 97.0884 359.474C97.0884 359.093 96.983 358.753 96.772 358.455C96.5611 358.156 96.2564 357.924 95.858 357.76C95.4595 357.59 94.9908 357.505 94.4517 357.505H93.3091V355.748H94.4517C94.897 355.748 95.2925 355.671 95.6382 355.519C95.9898 355.361 96.2623 355.141 96.4556 354.86C96.649 354.573 96.7427 354.248 96.7369 353.884C96.7427 353.533 96.6607 353.222 96.4908 352.953C96.3267 352.677 96.0894 352.466 95.7789 352.32C95.4683 352.167 95.108 352.091 94.6978 352.091C94.2994 352.091 93.9273 352.165 93.5816 352.311C93.2417 352.452 92.9664 352.654 92.7554 352.917C92.5503 353.181 92.4419 353.486 92.4302 353.832H90.233C90.2505 353.128 90.4556 352.504 90.8482 351.959C91.2466 351.415 91.7828 350.99 92.4566 350.685C93.1363 350.38 93.8892 350.228 94.7154 350.228C95.5533 350.228 96.2945 350.386 96.939 350.703C97.5835 351.013 98.0816 351.438 98.4332 351.977C98.7847 352.516 98.9576 353.111 98.9517 353.761C98.9576 354.23 98.8638 354.655 98.6705 355.036C98.4771 355.417 98.2046 355.733 97.8531 355.985C97.5015 356.237 97.0943 356.41 96.6314 356.503V356.609C97.2232 356.691 97.73 356.867 98.1519 357.136C98.5738 357.4 98.8931 357.743 99.1099 358.165C99.3267 358.586 99.4322 359.064 99.4263 359.597C99.4322 360.3 99.23 360.936 98.8199 361.504C98.4156 362.067 97.8501 362.509 97.1236 362.832C96.4029 363.148 95.5884 363.306 94.6802 363.306ZM105.103 349.314C105.9 349.314 106.618 349.469 107.256 349.78C107.895 350.084 108.396 350.509 108.759 351.054C109.128 351.599 109.316 352.214 109.322 352.9C109.316 353.591 109.128 354.209 108.759 354.754C108.396 355.299 107.895 355.724 107.256 356.029C106.618 356.333 105.9 356.486 105.103 356.486C104.3 356.486 103.577 356.333 102.932 356.029C102.293 355.724 101.792 355.299 101.429 354.754C101.066 354.209 100.884 353.591 100.884 352.9C100.884 352.214 101.066 351.599 101.429 351.054C101.792 350.509 102.296 350.084 102.941 349.78C103.585 349.469 104.306 349.314 105.103 349.314ZM105.103 350.931C104.658 350.931 104.259 351.013 103.908 351.177C103.556 351.335 103.281 351.564 103.081 351.863C102.882 352.156 102.783 352.501 102.783 352.9C102.783 353.304 102.882 353.659 103.081 353.963C103.281 354.262 103.556 354.494 103.908 354.658C104.259 354.822 104.658 354.904 105.103 354.904C105.548 354.904 105.947 354.822 106.298 354.658C106.65 354.494 106.925 354.262 107.124 353.963C107.324 353.659 107.423 353.304 107.423 352.9C107.423 352.501 107.324 352.156 107.124 351.863C106.925 351.564 106.65 351.335 106.298 351.177C105.947 351.013 105.548 350.931 105.103 350.931ZM113.839 356.837H111.87V348.804H113.839V356.837ZM113.839 361.671H105.244V362.955H114.314V364.501H103.327V360.23H111.888V359.052H103.292V357.523H113.839V361.671Z" fill="#1A1A1A"/>
</g>
<g id="StatusToggleLight_3">
<path d="M271.598 349.133H316.598C322.949 349.133 328.098 354.282 328.098 360.633C328.098 366.984 322.949 372.133 316.598 372.133H271.598C265.247 372.133 260.098 366.984 260.098 360.633C260.098 354.282 265.247 349.133 271.598 349.133Z" fill="#EBF5EE"/>
<path d="M271.598 349.133H316.598C322.949 349.133 328.098 354.282 328.098 360.633C328.098 366.984 322.949 372.133 316.598 372.133H271.598C265.247 372.133 260.098 366.984 260.098 360.633C260.098 354.282 265.247 349.133 271.598 349.133Z" stroke="#E2DDD5"/>
<g id="Ellipse 6_3" filter="url(#filter5_d_122_5616)">
<circle cx="276.598" cy="360.633" r="9" fill="#FAFAF7"/>
</g>
<path id="&#236;&#153;&#132;&#235;&#163;&#140;" d="M299.125 355.98C299.641 355.98 300.102 356.072 300.508 356.256C300.915 356.436 301.233 356.691 301.463 357.023C301.694 357.352 301.809 357.727 301.809 358.148C301.809 358.492 301.729 358.807 301.569 359.092C301.413 359.377 301.19 359.619 300.901 359.818C300.612 360.014 300.278 360.152 299.899 360.234V361.014C300.817 360.955 301.633 360.875 302.348 360.773L302.465 361.863C301.485 362.035 300.458 362.15 299.383 362.209C298.313 362.268 297.2 362.297 296.043 362.297L295.891 361.113C296.836 361.113 297.672 361.102 298.399 361.078V360.246C298.008 360.168 297.665 360.031 297.368 359.836C297.071 359.637 296.84 359.393 296.676 359.104C296.516 358.814 296.438 358.496 296.442 358.148C296.438 357.727 296.549 357.352 296.776 357.023C297.006 356.691 297.325 356.436 297.731 356.256C298.141 356.072 298.606 355.98 299.125 355.98ZM299.125 357.105C298.735 357.113 298.42 357.209 298.182 357.393C297.948 357.572 297.833 357.824 297.836 358.148C297.833 358.465 297.95 358.717 298.188 358.904C298.426 359.088 298.739 359.18 299.125 359.18C299.512 359.18 299.821 359.088 300.051 358.904C300.286 358.721 300.403 358.469 300.403 358.148C300.403 357.82 300.288 357.566 300.057 357.387C299.827 357.207 299.516 357.113 299.125 357.105ZM304.446 358.91H305.805V360.152H304.446V363.691H302.946V355.559H304.446V358.91ZM304.809 366.012H297.297V362.977H298.797V364.816H304.809V366.012ZM316.247 365.027H306.486V363.797H308.982V362.168H307.611V358.582H313.646V357.434H307.599V356.238H315.122V359.777H309.111V360.961H315.368V362.168H313.857V363.797H316.247V365.027ZM312.392 363.797V362.168H310.435V363.797H312.392Z" fill="#5D9E75"/>
</g>
</g>
<g id="Container_18">
<g id="Container_19">
<g id="Icon_7">
<path id="Vector_17" d="M30.0742 385.963V388.628" stroke="#888882" stroke-width="1.33259" stroke-linecap="round" stroke-linejoin="round"/>
<path id="Vector_18" d="M35.4045 385.963V388.628" stroke="#888882" stroke-width="1.33259" stroke-linecap="round" stroke-linejoin="round"/>
<path id="Vector_19" d="M37.4034 387.296H28.0753C27.3393 387.296 26.7427 387.892 26.7427 388.628V397.956C26.7427 398.692 27.3393 399.289 28.0753 399.289H37.4034C38.1394 399.289 38.736 398.692 38.736 397.956V388.628C38.736 387.892 38.1394 387.296 37.4034 387.296Z" stroke="#888882" stroke-width="1.33259" stroke-linecap="round" stroke-linejoin="round"/>
<path id="Vector_20" d="M26.7427 391.293H38.736" stroke="#888882" stroke-width="1.33259" stroke-linecap="round" stroke-linejoin="round"/>
</g>
<g id="Text_7">
<path id="2026-03-20" d="M49.6465 397.726L53.0234 394.171C53.4701 393.702 53.8096 393.324 54.042 393.037C54.279 392.745 54.4567 392.465 54.5752 392.196C54.6982 391.922 54.7598 391.638 54.7598 391.341C54.7598 391.013 54.6732 390.722 54.5 390.466C54.3268 390.211 54.0898 390.013 53.7891 389.872C53.4928 389.73 53.1602 389.66 52.791 389.66C52.4036 389.66 52.0641 389.737 51.7725 389.892C51.4808 390.047 51.2552 390.266 51.0957 390.548C50.9408 390.831 50.8633 391.154 50.8633 391.519H49.7012C49.6966 390.945 49.8288 390.437 50.0977 389.995C50.3711 389.553 50.7471 389.208 51.2256 388.962C51.7041 388.716 52.2396 388.593 52.832 388.593C53.4199 388.593 53.9463 388.714 54.4111 388.956C54.8805 389.197 55.2474 389.528 55.5117 389.947C55.776 390.366 55.9082 390.831 55.9082 391.341C55.9082 391.72 55.8398 392.082 55.7031 392.428C55.5664 392.77 55.3363 393.151 55.0127 393.57C54.6937 393.985 54.2357 394.5 53.6387 395.115L51.3691 397.453V397.535H56.0859V398.628H49.6602L49.6465 397.726ZM61.1172 398.765C60.388 398.765 59.7637 398.567 59.2441 398.17C58.7292 397.774 58.335 397.195 58.0615 396.434C57.7926 395.673 57.6582 394.755 57.6582 393.679C57.6582 392.617 57.7949 391.706 58.0684 390.945C58.3418 390.179 58.7383 389.596 59.2578 389.195C59.7773 388.794 60.3971 388.593 61.1172 388.593C61.8372 388.593 62.457 388.794 62.9766 389.195C63.4961 389.596 63.8926 390.179 64.166 390.945C64.4395 391.706 64.5762 392.617 64.5762 393.679C64.5762 394.755 64.4395 395.673 64.166 396.434C63.8971 397.195 63.5029 397.774 62.9834 398.17C62.4639 398.567 61.8418 398.765 61.1172 398.765ZM61.1172 397.671C61.5911 397.671 61.9967 397.516 62.334 397.207C62.6712 396.897 62.9287 396.443 63.1064 395.846C63.2842 395.249 63.373 394.527 63.373 393.679C63.373 392.832 63.2842 392.107 63.1064 391.505C62.9287 390.904 62.6712 390.446 62.334 390.131C61.9967 389.817 61.5911 389.66 61.1172 389.66C60.6432 389.66 60.2354 389.817 59.8936 390.131C59.5563 390.446 59.2965 390.904 59.1143 391.505C58.9365 392.107 58.8477 392.832 58.8477 393.679C58.8477 394.527 58.9365 395.249 59.1143 395.846C59.292 396.443 59.5495 396.897 59.8867 397.207C60.2285 397.516 60.6387 397.671 61.1172 397.671ZM66.2031 397.726L69.5801 394.171C70.0267 393.702 70.3662 393.324 70.5986 393.037C70.8356 392.745 71.0133 392.465 71.1318 392.196C71.2549 391.922 71.3164 391.638 71.3164 391.341C71.3164 391.013 71.2298 390.722 71.0566 390.466C70.8835 390.211 70.6465 390.013 70.3457 389.872C70.0495 389.73 69.7168 389.66 69.3477 389.66C68.9603 389.66 68.6208 389.737 68.3291 389.892C68.0374 390.047 67.8118 390.266 67.6523 390.548C67.4974 390.831 67.4199 391.154 67.4199 391.519H66.2578C66.2533 390.945 66.3854 390.437 66.6543 389.995C66.9277 389.553 67.3037 389.208 67.7822 388.962C68.2607 388.716 68.7962 388.593 69.3887 388.593C69.9766 388.593 70.5029 388.714 70.9678 388.956C71.4372 389.197 71.804 389.528 72.0684 389.947C72.3327 390.366 72.4648 390.831 72.4648 391.341C72.4648 391.72 72.3965 392.082 72.2598 392.428C72.123 392.77 71.8929 393.151 71.5693 393.57C71.2503 393.985 70.7923 394.5 70.1953 395.115L67.9258 397.453V397.535H72.6426V398.628H66.2168L66.2031 397.726ZM77.9062 398.765C77.2682 398.765 76.6758 398.622 76.1289 398.334C75.5866 398.043 75.14 397.548 74.7891 396.851C74.4427 396.149 74.2695 395.22 74.2695 394.062C74.2695 392.909 74.4199 391.922 74.7207 391.102C75.026 390.282 75.459 389.66 76.0195 389.236C76.5846 388.807 77.2546 388.593 78.0293 388.593C78.599 388.593 79.1094 388.703 79.5605 388.921C80.0163 389.14 80.3877 389.448 80.6748 389.844C80.9665 390.241 81.1556 390.699 81.2422 391.218H80.0254C79.9023 390.758 79.6699 390.389 79.3281 390.111C78.9909 389.828 78.5579 389.687 78.0293 389.687C77.4915 389.687 77.0267 389.837 76.6348 390.138C76.2474 390.434 75.9489 390.865 75.7393 391.43C75.5342 391.995 75.4316 392.672 75.4316 393.46H75.5547C75.8464 393.046 76.2109 392.724 76.6484 392.497C77.0859 392.264 77.569 392.148 78.0977 392.148C78.681 392.148 79.2188 392.289 79.7109 392.572C80.2077 392.854 80.5996 393.246 80.8867 393.748C81.1784 394.244 81.3242 394.805 81.3242 395.429C81.3242 396.044 81.1807 396.607 80.8936 397.118C80.611 397.624 80.21 398.025 79.6904 398.321C79.1709 398.617 78.5762 398.765 77.9062 398.765ZM77.8789 397.685C78.2982 397.685 78.6787 397.585 79.0205 397.384C79.3623 397.184 79.6312 396.913 79.8271 396.571C80.0277 396.224 80.1302 395.848 80.1348 395.443C80.1302 395.037 80.0322 394.666 79.8408 394.329C79.6494 393.991 79.3851 393.725 79.0479 393.529C78.7106 393.328 78.3301 393.228 77.9062 393.228C77.4824 393.228 77.0951 393.331 76.7441 393.536C76.3932 393.741 76.1152 394.016 75.9102 394.363C75.7051 394.705 75.6003 395.069 75.5957 395.457C75.5957 395.844 75.6937 396.208 75.8896 396.55C76.0902 396.892 76.3636 397.168 76.71 397.377C77.0609 397.583 77.4505 397.685 77.8789 397.685ZM87.2852 394.226H82.9512V393.146H87.2852V394.226ZM92.3164 398.765C91.5872 398.765 90.9629 398.567 90.4434 398.17C89.9284 397.774 89.5342 397.195 89.2607 396.434C88.9919 395.673 88.8574 394.755 88.8574 393.679C88.8574 392.617 88.9941 391.706 89.2676 390.945C89.541 390.179 89.9375 389.596 90.457 389.195C90.9766 388.794 91.5964 388.593 92.3164 388.593C93.0365 388.593 93.6562 388.794 94.1758 389.195C94.6953 389.596 95.0918 390.179 95.3652 390.945C95.6387 391.706 95.7754 392.617 95.7754 393.679C95.7754 394.755 95.6387 395.673 95.3652 396.434C95.0964 397.195 94.7021 397.774 94.1826 398.17C93.6631 398.567 93.041 398.765 92.3164 398.765ZM92.3164 397.671C92.7904 397.671 93.196 397.516 93.5332 397.207C93.8704 396.897 94.1279 396.443 94.3057 395.846C94.4834 395.249 94.5723 394.527 94.5723 393.679C94.5723 392.832 94.4834 392.107 94.3057 391.505C94.1279 390.904 93.8704 390.446 93.5332 390.131C93.196 389.817 92.7904 389.66 92.3164 389.66C91.8424 389.66 91.4346 389.817 91.0928 390.131C90.7555 390.446 90.4958 390.904 90.3135 391.505C90.1357 392.107 90.0469 392.832 90.0469 393.679C90.0469 394.527 90.1357 395.249 90.3135 395.846C90.4912 396.443 90.7487 396.897 91.0859 397.207C91.4277 397.516 91.8379 397.671 92.3164 397.671ZM100.834 398.765C100.182 398.765 99.599 398.656 99.084 398.437C98.5736 398.218 98.168 397.911 97.8672 397.514C97.571 397.118 97.4115 396.66 97.3887 396.14H98.6328C98.6556 396.445 98.765 396.714 98.9609 396.947C99.1615 397.179 99.4235 397.359 99.7471 397.487C100.071 397.61 100.428 397.671 100.82 397.671C101.249 397.671 101.634 397.598 101.976 397.453C102.322 397.302 102.591 397.097 102.782 396.837C102.978 396.573 103.076 396.272 103.076 395.935C103.076 395.57 102.98 395.249 102.789 394.971C102.602 394.693 102.329 394.477 101.969 394.322C101.609 394.167 101.176 394.089 100.67 394.089H99.8633V393.009H100.67C101.066 393.009 101.42 392.939 101.729 392.797C102.039 392.656 102.279 392.458 102.447 392.203C102.62 391.947 102.707 391.651 102.707 391.314C102.707 390.99 102.63 390.703 102.475 390.453C102.324 390.202 102.11 390.008 101.832 389.872C101.554 389.73 101.23 389.66 100.861 389.66C100.506 389.66 100.173 389.723 99.8633 389.851C99.5534 389.979 99.3005 390.161 99.1045 390.398C98.9085 390.63 98.8014 390.904 98.7832 391.218H97.5938C97.6165 390.708 97.776 390.254 98.0723 389.858C98.3685 389.457 98.7627 389.147 99.2549 388.928C99.7471 388.705 100.287 388.593 100.875 388.593C101.486 388.593 102.019 388.714 102.475 388.956C102.935 389.193 103.288 389.514 103.534 389.919C103.78 390.325 103.901 390.767 103.896 391.246C103.901 391.802 103.753 392.278 103.452 392.674C103.151 393.071 102.739 393.342 102.215 393.488V393.556C102.639 393.625 103.006 393.768 103.315 393.987C103.63 394.201 103.869 394.477 104.033 394.814C104.202 395.147 104.284 395.52 104.279 395.935C104.284 396.468 104.136 396.951 103.835 397.384C103.534 397.813 103.119 398.15 102.591 398.396C102.067 398.642 101.481 398.765 100.834 398.765ZM110.322 394.226H105.988V393.146H110.322V394.226ZM111.648 397.726L115.025 394.171C115.472 393.702 115.812 393.324 116.044 393.037C116.281 392.745 116.459 392.465 116.577 392.196C116.7 391.922 116.762 391.638 116.762 391.341C116.762 391.013 116.675 390.722 116.502 390.466C116.329 390.211 116.092 390.013 115.791 389.872C115.495 389.73 115.162 389.66 114.793 389.66C114.406 389.66 114.066 389.737 113.774 389.892C113.483 390.047 113.257 390.266 113.098 390.548C112.943 390.831 112.865 391.154 112.865 391.519H111.703C111.699 390.945 111.831 390.437 112.1 389.995C112.373 389.553 112.749 389.208 113.228 388.962C113.706 388.716 114.242 388.593 114.834 388.593C115.422 388.593 115.948 388.714 116.413 388.956C116.882 389.197 117.249 389.528 117.514 389.947C117.778 390.366 117.91 390.831 117.91 391.341C117.91 391.72 117.842 392.082 117.705 392.428C117.568 392.77 117.338 393.151 117.015 393.57C116.696 393.985 116.238 394.5 115.641 395.115L113.371 397.453V397.535H118.088V398.628H111.662L111.648 397.726ZM123.119 398.765C122.39 398.765 121.766 398.567 121.246 398.17C120.731 397.774 120.337 397.195 120.063 396.434C119.795 395.673 119.66 394.755 119.66 393.679C119.66 392.617 119.797 391.706 120.07 390.945C120.344 390.179 120.74 389.596 121.26 389.195C121.779 388.794 122.399 388.593 123.119 388.593C123.839 388.593 124.459 388.794 124.979 389.195C125.498 389.596 125.895 390.179 126.168 390.945C126.441 391.706 126.578 392.617 126.578 393.679C126.578 394.755 126.441 395.673 126.168 396.434C125.899 397.195 125.505 397.774 124.985 398.17C124.466 398.567 123.844 398.765 123.119 398.765ZM123.119 397.671C123.593 397.671 123.999 397.516 124.336 397.207C124.673 396.897 124.931 396.443 125.108 395.846C125.286 395.249 125.375 394.527 125.375 393.679C125.375 392.832 125.286 392.107 125.108 391.505C124.931 390.904 124.673 390.446 124.336 390.131C123.999 389.817 123.593 389.66 123.119 389.66C122.645 389.66 122.237 389.817 121.896 390.131C121.558 390.446 121.299 390.904 121.116 391.505C120.938 392.107 120.85 392.832 120.85 393.679C120.85 394.527 120.938 395.249 121.116 395.846C121.294 396.443 121.551 396.897 121.889 397.207C122.23 397.516 122.641 397.671 123.119 397.671Z" fill="#888882"/>
</g>
</g>
<g id="Container_20">
<g id="Icon_8">
<path id="Vector_21" d="M38.0699 415.28C38.0699 418.606 34.3793 422.071 33.14 423.141C33.0245 423.228 32.884 423.275 32.7395 423.275C32.5951 423.275 32.4546 423.228 32.3391 423.141C31.0998 422.071 27.4092 418.606 27.4092 415.28C27.4092 413.866 27.9708 412.51 28.9704 411.51C29.97 410.511 31.3258 409.949 32.7395 409.949C34.1532 409.949 35.509 410.511 36.5087 411.51C37.5083 412.51 38.0699 413.866 38.0699 415.28Z" stroke="#888882" stroke-width="1.33259" stroke-linecap="round" stroke-linejoin="round"/>
<path id="Vector_22" d="M32.7394 417.279C33.8433 417.279 34.7382 416.384 34.7382 415.28C34.7382 414.176 33.8433 413.281 32.7394 413.281C31.6354 413.281 30.7405 414.176 30.7405 415.28C30.7405 416.384 31.6354 417.279 32.7394 417.279Z" stroke="#888882" stroke-width="1.33259" stroke-linecap="round" stroke-linejoin="round"/>
</g>
<g id="Text_8">
<path id="&#235;&#182;&#128;&#236;&#130;&#176;" d="M60.3379 419.662H55.2656V423.722H54.2129V419.662H49.209V418.787H60.3379V419.662ZM51.6973 413.756H57.8223V412.074H58.9023V417.31H50.6309V412.074H51.6973V413.756ZM57.8223 416.435V414.631H51.6973V416.435H57.8223ZM65.4102 413.865C65.4056 414.412 65.5309 414.941 65.7861 415.451C66.0459 415.961 66.4082 416.413 66.873 416.804C67.3379 417.196 67.8665 417.497 68.459 417.707L67.9121 418.568C67.224 418.322 66.6201 417.953 66.1006 417.461C65.5856 416.969 65.1914 416.397 64.918 415.745C64.6628 416.469 64.2708 417.103 63.7422 417.645C63.2135 418.183 62.5892 418.591 61.8691 418.869L61.2812 418.008C61.8919 417.789 62.4274 417.472 62.8877 417.057C63.3525 416.638 63.7126 416.15 63.9678 415.594C64.223 415.038 64.3529 414.448 64.3574 413.824V412.32H65.4102V413.865ZM70.8242 415.301H72.6562V416.217H70.8242V420.551H69.7578V411.568H70.8242V415.301ZM71.3848 423.463H63.2363V419.689H64.3301V422.56H71.3848V423.463Z" fill="#888882"/>
</g>
</g>
<g id="Container_21">
<g id="Icon_9" clip-path="url(#clip6_122_5616)">
<path id="Vector_23" d="M32.7394 447.262C36.4192 447.262 39.4023 444.279 39.4023 440.599C39.4023 436.919 36.4192 433.936 32.7394 433.936C29.0595 433.936 26.0764 436.919 26.0764 440.599C26.0764 444.279 29.0595 447.262 32.7394 447.262Z" stroke="#888882" stroke-width="1.33259" stroke-linecap="round" stroke-linejoin="round"/>
<path id="Vector_24" d="M32.7395 436.601V440.599L35.4047 441.932" stroke="#888882" stroke-width="1.33259" stroke-linecap="round" stroke-linejoin="round"/>
</g>
<g id="Text_9">
<path id="2&#235;&#176;&#149; 3&#236;&#157;&#188;" d="M49.6465 445.699L53.0234 442.145C53.4701 441.675 53.8096 441.297 54.042 441.01C54.279 440.718 54.4567 440.438 54.5752 440.169C54.6982 439.896 54.7598 439.611 54.7598 439.314C54.7598 438.986 54.6732 438.695 54.5 438.439C54.3268 438.184 54.0898 437.986 53.7891 437.845C53.4928 437.703 53.1602 437.633 52.791 437.633C52.4036 437.633 52.0641 437.71 51.7725 437.865C51.4808 438.02 51.2552 438.239 51.0957 438.521C50.9408 438.804 50.8633 439.128 50.8633 439.492H49.7012C49.6966 438.918 49.8288 438.41 50.0977 437.968C50.3711 437.526 50.7471 437.182 51.2256 436.936C51.7041 436.689 52.2396 436.566 52.832 436.566C53.4199 436.566 53.9463 436.687 54.4111 436.929C54.8805 437.17 55.2474 437.501 55.5117 437.92C55.776 438.339 55.9082 438.804 55.9082 439.314C55.9082 439.693 55.8398 440.055 55.7031 440.401C55.5664 440.743 55.3363 441.124 55.0127 441.543C54.6937 441.958 54.2357 442.473 53.6387 443.088L51.3691 445.426V445.508H56.0859V446.602H49.6602L49.6465 445.699ZM66.9414 438.727H68.7734V439.615H66.9414V442.91H65.875V435.555H66.9414V438.727ZM66.9414 447.709H65.875V444.428H58.9844V443.553H66.9414V447.709ZM59.0117 438.234H62.5527V436.32H63.6191V442.062H57.959V436.32H59.0117V438.234ZM62.5527 441.188V439.096H59.0117V441.188H62.5527ZM76.9082 446.738C76.2565 446.738 75.6732 446.629 75.1582 446.41C74.6478 446.191 74.2422 445.884 73.9414 445.487C73.6452 445.091 73.4857 444.633 73.4629 444.113H74.707C74.7298 444.419 74.8392 444.688 75.0352 444.92C75.2357 445.152 75.4977 445.332 75.8213 445.46C76.1449 445.583 76.5026 445.645 76.8945 445.645C77.3229 445.645 77.708 445.572 78.0498 445.426C78.3962 445.275 78.665 445.07 78.8564 444.811C79.0524 444.546 79.1504 444.245 79.1504 443.908C79.1504 443.544 79.0547 443.222 78.8633 442.944C78.6764 442.666 78.403 442.45 78.043 442.295C77.6829 442.14 77.25 442.062 76.7441 442.062H75.9375V440.982H76.7441C77.1406 440.982 77.4938 440.912 77.8037 440.771C78.1136 440.629 78.3529 440.431 78.5215 440.176C78.6947 439.921 78.7812 439.624 78.7812 439.287C78.7812 438.964 78.7038 438.676 78.5488 438.426C78.3984 438.175 78.1842 437.981 77.9062 437.845C77.6283 437.703 77.3047 437.633 76.9355 437.633C76.5801 437.633 76.2474 437.697 75.9375 437.824C75.6276 437.952 75.3747 438.134 75.1787 438.371C74.9827 438.604 74.8757 438.877 74.8574 439.191H73.668C73.6908 438.681 73.8503 438.228 74.1465 437.831C74.4427 437.43 74.8369 437.12 75.3291 436.901C75.8213 436.678 76.3613 436.566 76.9492 436.566C77.5599 436.566 78.0931 436.687 78.5488 436.929C79.0091 437.166 79.3623 437.487 79.6084 437.893C79.8545 438.298 79.9753 438.74 79.9707 439.219C79.9753 439.775 79.8271 440.251 79.5264 440.647C79.2256 441.044 78.8132 441.315 78.2891 441.461V441.529C78.7129 441.598 79.0798 441.741 79.3896 441.96C79.7041 442.174 79.9434 442.45 80.1074 442.787C80.276 443.12 80.3581 443.493 80.3535 443.908C80.3581 444.441 80.21 444.924 79.9092 445.357C79.6084 445.786 79.1937 446.123 78.665 446.369C78.141 446.615 77.5553 446.738 76.9082 446.738ZM85.1387 436.006C85.7402 436.01 86.278 436.127 86.752 436.354C87.2305 436.582 87.6042 436.901 87.873 437.312C88.1465 437.717 88.2832 438.18 88.2832 438.699C88.2832 439.219 88.1465 439.684 87.873 440.094C87.6042 440.499 87.2305 440.816 86.752 441.044C86.278 441.267 85.7402 441.379 85.1387 441.379C84.528 441.379 83.9834 441.267 83.5049 441.044C83.0264 440.816 82.6527 440.499 82.3838 440.094C82.1149 439.684 81.9805 439.219 81.9805 438.699C81.9805 438.18 82.1149 437.717 82.3838 437.312C82.6527 436.901 83.0264 436.582 83.5049 436.354C83.9834 436.127 84.528 436.01 85.1387 436.006ZM85.1387 436.908C84.7376 436.908 84.3753 436.986 84.0518 437.141C83.7327 437.291 83.4821 437.503 83.2998 437.776C83.1175 438.045 83.0286 438.353 83.0332 438.699C83.0286 439.05 83.1175 439.362 83.2998 439.636C83.4821 439.909 83.7327 440.123 84.0518 440.278C84.3753 440.429 84.7376 440.504 85.1387 440.504C85.5352 440.504 85.8929 440.429 86.2119 440.278C86.5355 440.123 86.7884 439.909 86.9707 439.636C87.153 439.362 87.2441 439.05 87.2441 438.699C87.2441 438.353 87.153 438.045 86.9707 437.776C86.7884 437.503 86.5355 437.291 86.2119 437.141C85.8929 436.986 85.5352 436.908 85.1387 436.908ZM91.7285 441.803H90.6621V435.555H91.7285V441.803ZM91.7285 445.316H84.9062V446.684H92.166V447.545H83.8535V444.51H90.6621V443.252H83.8262V442.391H91.7285V445.316Z" fill="#888882"/>
</g>
</g>
</g>
</g>
</g>
</g>
</g>
</g>
<defs>
<filter id="filter0_d_122_5616" x="0" y="0" width="353.342" height="153.453" filterUnits="userSpaceOnUse" color-interpolation-filters="sRGB">
<feFlood flood-opacity="0" result="BackgroundImageFix"/>
<feColorMatrix in="SourceAlpha" type="matrix" values="0 0 0 0 0 0 0 0 0 0 0 0 0 0 0 0 0 0 127 0" result="hardAlpha"/>
<feOffset dy="1"/>
<feGaussianBlur stdDeviation="2"/>
<feColorMatrix type="matrix" values="0 0 0 0 0.118 0 0 0 0 0.157 0 0 0 0 0.133 0 0 0 0.06 0"/>
<feBlend mode="normal" in2="BackgroundImageFix" result="effect1_dropShadow_122_5616"/>
<feBlend mode="normal" in="SourceGraphic" in2="effect1_dropShadow_122_5616" result="shape"/>
</filter>
<filter id="filter1_d_122_5616" x="298.598" y="25.7439" width="26" height="26" filterUnits="userSpaceOnUse" color-interpolation-filters="sRGB">
<feFlood flood-opacity="0" result="BackgroundImageFix"/>
<feColorMatrix in="SourceAlpha" type="matrix" values="0 0 0 0 0 0 0 0 0 0 0 0 0 0 0 0 0 0 127 0" result="hardAlpha"/>
<feOffset dy="1"/>
<feGaussianBlur stdDeviation="2"/>
<feColorMatrix type="matrix" values="0 0 0 0 0.118 0 0 0 0 0.157 0 0 0 0 0.133 0 0 0 0.06 0"/>
<feBlend mode="normal" in2="BackgroundImageFix" result="effect1_dropShadow_122_5616"/>
<feBlend mode="normal" in="SourceGraphic" in2="effect1_dropShadow_122_5616" result="shape"/>
</filter>
<filter id="filter2_d_122_5616" x="0" y="161.444" width="353.342" height="153.453" filterUnits="userSpaceOnUse" color-interpolation-filters="sRGB">
<feFlood flood-opacity="0" result="BackgroundImageFix"/>
<feColorMatrix in="SourceAlpha" type="matrix" values="0 0 0 0 0 0 0 0 0 0 0 0 0 0 0 0 0 0 127 0" result="hardAlpha"/>
<feOffset dy="1"/>
<feGaussianBlur stdDeviation="2"/>
<feColorMatrix type="matrix" values="0 0 0 0 0.118 0 0 0 0 0.157 0 0 0 0 0.133 0 0 0 0.06 0"/>
<feBlend mode="normal" in2="BackgroundImageFix" result="effect1_dropShadow_122_5616"/>
<feBlend mode="normal" in="SourceGraphic" in2="effect1_dropShadow_122_5616" result="shape"/>
</filter>
<filter id="filter3_d_122_5616" x="298.598" y="187.188" width="26" height="26" filterUnits="userSpaceOnUse" color-interpolation-filters="sRGB">
<feFlood flood-opacity="0" result="BackgroundImageFix"/>
<feColorMatrix in="SourceAlpha" type="matrix" values="0 0 0 0 0 0 0 0 0 0 0 0 0 0 0 0 0 0 127 0" result="hardAlpha"/>
<feOffset dy="1"/>
<feGaussianBlur stdDeviation="2"/>
<feColorMatrix type="matrix" values="0 0 0 0 0.118 0 0 0 0 0.157 0 0 0 0 0.133 0 0 0 0.06 0"/>
<feBlend mode="normal" in2="BackgroundImageFix" result="effect1_dropShadow_122_5616"/>
<feBlend mode="normal" in="SourceGraphic" in2="effect1_dropShadow_122_5616" result="shape"/>
</filter>
<filter id="filter4_d_122_5616" x="0" y="322.889" width="353.342" height="153.453" filterUnits="userSpaceOnUse" color-interpolation-filters="sRGB">
<feFlood flood-opacity="0" result="BackgroundImageFix"/>
<feColorMatrix in="SourceAlpha" type="matrix" values="0 0 0 0 0 0 0 0 0 0 0 0 0 0 0 0 0 0 127 0" result="hardAlpha"/>
<feOffset dy="1"/>
<feGaussianBlur stdDeviation="2"/>
<feColorMatrix type="matrix" values="0 0 0 0 0.118 0 0 0 0 0.157 0 0 0 0 0.133 0 0 0 0.06 0"/>
<feBlend mode="normal" in2="BackgroundImageFix" result="effect1_dropShadow_122_5616"/>
<feBlend mode="normal" in="SourceGraphic" in2="effect1_dropShadow_122_5616" result="shape"/>
</filter>
<filter id="filter5_d_122_5616" x="263.598" y="348.633" width="26" height="26" filterUnits="userSpaceOnUse" color-interpolation-filters="sRGB">
<feFlood flood-opacity="0" result="BackgroundImageFix"/>
<feColorMatrix in="SourceAlpha" type="matrix" values="0 0 0 0 0 0 0 0 0 0 0 0 0 0 0 0 0 0 127 0" result="hardAlpha"/>
<feOffset dy="1"/>
<feGaussianBlur stdDeviation="2"/>
<feColorMatrix type="matrix" values="0 0 0 0 0.118 0 0 0 0 0.157 0 0 0 0 0.133 0 0 0 0.06 0"/>
<feBlend mode="normal" in2="BackgroundImageFix" result="effect1_dropShadow_122_5616"/>
<feBlend mode="normal" in="SourceGraphic" in2="effect1_dropShadow_122_5616" result="shape"/>
</filter>
<clipPath id="clip0_122_5616">
<rect width="15.9911" height="15.9911" fill="white" transform="translate(24.7439 61.7412)"/>
</clipPath>
<clipPath id="clip1_122_5616">
<rect width="15.9911" height="15.9911" fill="white" transform="translate(24.7439 85.7278)"/>
</clipPath>
<clipPath id="clip2_122_5616">
<rect width="15.9911" height="15.9911" fill="white" transform="translate(24.7439 109.715)"/>
</clipPath>
<clipPath id="clip3_122_5616">
<rect width="15.9911" height="15.9911" fill="white" transform="translate(24.7439 223.186)"/>
</clipPath>
<clipPath id="clip4_122_5616">
<rect width="15.9911" height="15.9911" fill="white" transform="translate(24.7439 247.172)"/>
</clipPath>
<clipPath id="clip5_122_5616">
<rect width="15.9911" height="15.9911" fill="white" transform="translate(24.7439 271.159)"/>
</clipPath>
<clipPath id="clip6_122_5616">
<rect width="15.9911" height="15.9911" fill="white" transform="translate(24.7439 432.604)"/>
</clipPath>
</defs>
</svg>
