<svg width="344" height="216" viewBox="0 0 344 216" fill="none" xmlns="http://www.w3.org/2000/svg">
<g id="Property 1=Light" filter="url(#filter0_dd_48_2)">
<path d="M8 22C8 13.1635 15.1634 6 24 6H319.526C328.363 6 335.526 13.1634 335.526 22V189.95C335.526 198.786 328.363 205.95 319.526 205.95H24C15.1634 205.95 8 198.786 8 189.95V22Z" fill="#4A7C59"/>
<g id="Container">
<g id="Icon">
<path id="Vector" d="M41.9312 47.4921C41.8419 47.146 41.6616 46.8303 41.4089 46.5776C41.1562 46.3249 40.8404 46.1446 40.4944 46.0553L34.3605 44.4736C34.2558 44.4439 34.1637 44.3808 34.0981 44.294C34.0326 44.2073 33.9971 44.1014 33.9971 43.9927C33.9971 43.8839 34.0326 43.7781 34.0981 43.6913C34.1637 43.6045 34.2558 43.5414 34.3605 43.5117L40.4944 41.929C40.8403 41.8398 41.156 41.6596 41.4087 41.4071C41.6613 41.1547 41.8418 40.8391 41.9312 40.4933L43.5129 34.3593C43.5423 34.2543 43.6053 34.1617 43.6922 34.0958C43.7791 34.0298 43.8852 33.9941 43.9943 33.9941C44.1034 33.9941 44.2095 34.0298 44.2964 34.0958C44.3834 34.1617 44.4463 34.2543 44.4757 34.3593L46.0565 40.4933C46.1457 40.8393 46.3261 41.155 46.5787 41.4077C46.8314 41.6604 47.1472 41.8408 47.4932 41.93L53.6271 43.5107C53.7326 43.5398 53.8256 43.6027 53.8919 43.6898C53.9582 43.7768 53.9941 43.8832 53.9941 43.9927C53.9941 44.1021 53.9582 44.2085 53.8919 44.2955C53.8256 44.3826 53.7326 44.4455 53.6271 44.4746L47.4932 46.0553C47.1472 46.1446 46.8314 46.3249 46.5787 46.5776C46.3261 46.8303 46.1457 47.146 46.0565 47.4921L44.4747 53.626C44.4453 53.7311 44.3824 53.8236 44.2954 53.8895C44.2085 53.9555 44.1024 53.9912 43.9933 53.9912C43.8842 53.9912 43.7781 53.9555 43.6912 53.8895C43.6043 53.8236 43.5413 53.7311 43.5119 53.626L41.9312 47.4921Z" stroke="#FAFAF7" stroke-width="1.99965" stroke-linecap="round" stroke-linejoin="round"/>
<path id="Vector_2" d="M51.9924 34.9941V38.9941" stroke="#FAFAF7" stroke-width="1.99965" stroke-linecap="round" stroke-linejoin="round"/>
<path id="Vector_3" d="M53.9927 36.9937H49.9927" stroke="#FAFAF7" stroke-width="1.99965" stroke-linecap="round" stroke-linejoin="round"/>
<path id="Vector_4" d="M35.9951 48.9917V50.9917" stroke="#FAFAF7" stroke-width="1.99965" stroke-linecap="round" stroke-linejoin="round"/>
<path id="Vector_5" d="M36.9954 49.9915H34.9954" stroke="#FAFAF7" stroke-width="1.99965" stroke-linecap="round" stroke-linejoin="round"/>
</g>
<g id="Heading 2">
<path id="AI &#236;&#151;&#172;&#237;&#150;&#137; &#237;&#148;&#140;&#235;&#158;&#152;&#235;&#132;&#136;" d="M64.3771 48.7439L69.2794 34.6033H73.049L77.9318 48.7439H74.7872L73.7228 45.4822H68.6056L67.5411 48.7439H64.3771ZM72.9806 43.197L71.213 37.7869H71.1154L69.3478 43.197H72.9806ZM82.163 48.7439H79.2333V34.6033H82.163V48.7439ZM92.7935 34.0173C93.5878 34.0173 94.3039 34.2257 94.9419 34.6423C95.5865 35.059 96.1138 35.6514 96.524 36.4197H100.43V32.7673H102.891V50.5798H100.43V43.9197H96.7095C96.3124 44.8051 95.772 45.4887 95.0884 45.9705C94.4113 46.4522 93.6463 46.6931 92.7935 46.6931C91.895 46.6931 91.0943 46.436 90.3911 45.9216C89.6945 45.4008 89.1509 44.6619 88.7603 43.7048C88.3697 42.7413 88.1776 41.6215 88.1841 40.3455C88.1776 39.0759 88.3697 37.9659 88.7603 37.0154C89.1509 36.0583 89.6945 35.3194 90.3911 34.7986C91.0943 34.2778 91.895 34.0173 92.7935 34.0173ZM92.7935 36.2634C92.3508 36.2634 91.9601 36.4229 91.6216 36.7419C91.2831 37.0544 91.0194 37.5199 90.8306 38.1384C90.6483 38.7504 90.5604 39.4861 90.5669 40.3455C90.5604 41.2113 90.6483 41.9503 90.8306 42.5623C91.0194 43.1742 91.2798 43.6397 91.6118 43.9587C91.9504 44.2712 92.3443 44.4275 92.7935 44.4275C93.2427 44.4275 93.6333 44.2712 93.9654 43.9587C94.3039 43.6462 94.5643 43.184 94.7466 42.572C94.9289 41.96 95.02 41.2179 95.02 40.3455C95.02 39.4796 94.9289 38.7406 94.7466 38.1287C94.5643 37.5167 94.3039 37.0544 93.9654 36.7419C93.6333 36.4229 93.2427 36.2634 92.7935 36.2634ZM97.2173 38.4314C97.341 39.0499 97.4029 39.6879 97.4029 40.3455C97.4029 40.8337 97.3638 41.3611 97.2857 41.9275H100.43V38.4314H97.2173ZM120.15 43.9197H117.786V39.1931H116.361V43.3337H114.036V33.0994H116.361V37.1619H117.786V32.7673H120.15V43.9197ZM113.509 36.5369H104.779V34.6033H107.923V32.9236H110.404V34.6033H113.509V36.5369ZM109.173 37.1228C109.922 37.1228 110.589 37.253 111.175 37.5134C111.761 37.7738 112.22 38.1384 112.552 38.6072C112.884 39.0759 113.053 39.6163 113.06 40.2283C113.053 40.8337 112.884 41.3708 112.552 41.8396C112.22 42.3018 111.761 42.6632 111.175 42.9236C110.589 43.184 109.922 43.3142 109.173 43.3142C108.437 43.3142 107.777 43.184 107.191 42.9236C106.605 42.6632 106.146 42.3018 105.814 41.8396C105.488 41.3708 105.326 40.8337 105.326 40.2283C105.326 39.6228 105.488 39.0857 105.814 38.6169C106.146 38.1417 106.605 37.7738 107.191 37.5134C107.777 37.253 108.437 37.1228 109.173 37.1228ZM109.173 38.9197C108.678 38.9197 108.284 39.0369 107.992 39.2712C107.699 39.5056 107.552 39.8246 107.552 40.2283C107.552 40.6384 107.699 40.9639 107.992 41.2048C108.291 41.4392 108.685 41.5499 109.173 41.5369C109.661 41.5499 110.055 41.4392 110.355 41.2048C110.654 40.9639 110.807 40.6384 110.814 40.2283C110.807 39.8181 110.654 39.4991 110.355 39.2712C110.062 39.0369 109.668 38.9197 109.173 38.9197ZM114.076 44.0759C115.358 44.0759 116.458 44.2029 117.376 44.4568C118.301 44.7107 119.007 45.0818 119.495 45.5701C119.99 46.0518 120.241 46.6345 120.247 47.3181C120.241 47.9952 119.99 48.5746 119.495 49.0564C119.007 49.5382 118.301 49.906 117.376 50.1599C116.452 50.4138 115.352 50.5408 114.076 50.5408C112.799 50.5408 111.699 50.4138 110.775 50.1599C109.857 49.906 109.15 49.5382 108.656 49.0564C108.167 48.5746 107.923 47.9952 107.923 47.3181C107.923 46.6345 108.167 46.0518 108.656 45.5701C109.15 45.0818 109.857 44.7107 110.775 44.4568C111.699 44.2029 112.799 44.0759 114.076 44.0759ZM114.076 45.9509C111.621 45.9509 110.404 46.4067 110.423 47.3181C110.417 47.7673 110.723 48.1059 111.341 48.3337C111.96 48.5551 112.871 48.6658 114.076 48.6658C116.51 48.6658 117.728 48.2166 117.728 47.3181C117.728 46.8559 117.425 46.5141 116.82 46.2927C116.214 46.0649 115.299 45.9509 114.076 45.9509ZM140.936 35.1111H138.612V37.4548H140.819V39.3103H127.714V37.4548H129.901V35.1111H127.597V33.2556H140.936V35.1111ZM142.382 42.2009H126.171V40.2478H142.382V42.2009ZM140.409 47.6111H130.507V48.5876H140.878V50.4236H128.065V45.9119H137.948V45.0134H128.046V43.2166H140.409V47.6111ZM136.112 37.4548V35.1111H132.401V37.4548H136.112ZM150.402 41.3416H146.047V44.5251C147.004 44.5121 147.886 44.4796 148.693 44.4275C149.5 44.3754 150.324 44.2843 151.164 44.1541L151.34 46.1462C150.265 46.3285 149.237 46.449 148.254 46.5076C147.277 46.5662 146.157 46.5955 144.894 46.5955H143.664V39.3494H148V36.4978H143.644V34.4861H150.402V41.3416ZM158.527 50.5408H156.164V41.4978H154.445V49.6814H152.16V33.0603H154.445V39.4861H156.164V32.7673H158.527V50.5408ZM175.161 50.5798H172.68V40.2869H167.817V38.2556H172.68V32.7673H175.161V50.5798ZM163.559 44.3201C166.007 44.281 168.338 44.0499 170.551 43.6267L170.825 45.658C169.49 45.9379 168.152 46.1332 166.811 46.2439C165.476 46.3481 164.06 46.4001 162.563 46.4001H161.059V34.6619H163.559V44.3201Z" fill="#FAFAF7"/>
</g>
</g>
<g id="Paragraph">
<path id="AI&#236;&#153;&#128; &#237;&#149;&#168;&#234;&#187;&#152; &#236;&#153;&#132;&#235;&#178;&#189;&#237;&#149;&#156; &#236;&#151;&#172;&#237;&#150;&#137; &#234;&#179;&#132;&#237;&#154;&#141;&#236;&#157;&#132; &#236;&#132;&#184;&#236;&#155;&#140;&#235;&#179;&#180;&#236;&#132;&#184;&#236;&#154;&#148;. &#236;&#139;&#164;&#236;&#139;&#156;&#234;&#176;&#132;&#236;&#156;&#188;&#235;&#161;&#156; &#236;&#157;&#188;&#236;&#160;&#149;&#236;&#157;&#132; &#234;&#180;&#128;&#235;&#166;&#172;&#237;&#149;&#152;&#234;&#179;&#160; &#235;&#167;&#158;&#236;&#182;&#164; &#236;&#182;&#148;&#236;&#178;&#156;&#236;&#157;&#132; &#235;&#176;&#155;&#236;&#156;&#188;&#236;&#132;&#184;" d="M32.2419 85.9812L35.865 76.0828H37.1638L40.7869 85.9812H39.488L38.4968 83.1921H34.5183L33.5271 85.9812H32.2419ZM38.1208 82.1121L36.5486 77.6824H36.4666L34.8943 82.1121H38.1208ZM43.3572 85.9812H42.1267V76.0828H43.3572V85.9812ZM48.6072 75.7273C49.227 75.7319 49.7807 75.8549 50.2683 76.0964C50.7605 76.338 51.1456 76.6752 51.4236 77.1082C51.7016 77.5365 51.8429 78.0287 51.8474 78.5847C51.8429 79.086 51.7266 79.5372 51.4988 79.9382C51.2709 80.3393 50.9542 80.6674 50.5486 80.9226C50.1475 81.1733 49.6827 81.3305 49.1541 81.3943V83.4656C50.4483 83.4018 51.5603 83.3106 52.49 83.1921L52.5583 83.9988C51.5238 84.172 50.4324 84.2904 49.2839 84.3542C48.1355 84.4181 46.9438 84.45 45.7087 84.45H44.9705L44.7927 83.5476C46.2328 83.5385 47.3266 83.5225 48.074 83.4998V81.3943C47.5362 81.3305 47.0623 81.1733 46.6521 80.9226C46.2419 80.672 45.9229 80.3461 45.6951 79.9451C45.4718 79.5395 45.3624 79.086 45.3669 78.5847C45.3624 78.0287 45.4968 77.5365 45.7703 77.1082C46.0483 76.6752 46.4333 76.338 46.9255 76.0964C47.4177 75.8549 47.9783 75.7319 48.6072 75.7273ZM48.6072 76.657C48.1879 76.657 47.8097 76.739 47.4724 76.9031C47.1397 77.0671 46.88 77.295 46.6931 77.5867C46.5063 77.8783 46.4151 78.211 46.4197 78.5847C46.4151 78.9584 46.5063 79.2911 46.6931 79.5828C46.88 79.8744 47.1397 80.1023 47.4724 80.2664C47.8097 80.4304 48.1879 80.5125 48.6072 80.5125C49.0219 80.5125 49.3933 80.4304 49.7214 80.2664C50.0541 80.1023 50.3139 79.8744 50.5007 79.5828C50.6921 79.2911 50.7901 78.9584 50.7947 78.5847C50.7901 78.211 50.6921 77.8783 50.5007 77.5867C50.3139 77.295 50.0541 77.0671 49.7214 76.9031C49.3933 76.739 49.0219 76.657 48.6072 76.657ZM54.3357 79.9519H56.3181V80.8816H54.3357V87.0886H53.2693V74.9343H54.3357V79.9519ZM70.0583 78.1746H71.8904V79.0906H70.0583V82.2625H68.9919V74.9343H70.0583V78.1746ZM70.0583 86.9246H62.3884V82.9597H70.0583V86.9246ZM63.4412 86.0496H68.9919V83.821H63.4412V86.0496ZM67.8298 77.1218H60.5837V76.2332H63.6736V74.8386H64.74V76.2332H67.8298V77.1218ZM64.2068 77.7234C64.7856 77.7234 65.2937 77.8145 65.7312 77.9968C66.1733 78.1746 66.5151 78.4275 66.7566 78.7556C67.0027 79.0792 67.128 79.4552 67.1326 79.8835C67.128 80.321 67.0027 80.7039 66.7566 81.032C66.5151 81.3601 66.1733 81.613 65.7312 81.7908C65.2937 81.9685 64.7856 82.0574 64.2068 82.0574C63.6235 82.0574 63.1085 81.9685 62.6619 81.7908C62.2198 81.613 61.878 81.3601 61.6365 81.032C61.3949 80.7039 61.2764 80.321 61.281 79.8835C61.2764 79.4552 61.3949 79.0792 61.6365 78.7556C61.878 78.4275 62.2198 78.1746 62.6619 77.9968C63.1085 77.8145 63.6235 77.7234 64.2068 77.7234ZM64.2068 78.5574C63.8285 78.5574 63.4936 78.6143 63.2019 78.7283C62.9148 78.8376 62.6915 78.9926 62.532 79.1931C62.377 79.3936 62.3018 79.6238 62.3064 79.8835C62.3018 80.157 62.377 80.3962 62.532 80.6013C62.6915 80.8018 62.9148 80.9568 63.2019 81.0662C63.489 81.1755 63.824 81.2325 64.2068 81.2371C64.585 81.2325 64.9177 81.1755 65.2048 81.0662C65.4919 80.9568 65.7153 80.8018 65.8748 80.6013C66.0343 80.3962 66.1163 80.157 66.1208 79.8835C66.1163 79.6238 66.032 79.3936 65.8679 79.1931C65.7084 78.9926 65.4851 78.8376 65.198 78.7283C64.9109 78.6143 64.5805 78.5574 64.2068 78.5574ZM75.6775 76.4109C75.6684 77.9194 75.5111 79.3253 75.2058 80.6287C74.9005 81.9275 74.3422 83.1147 73.531 84.1902L72.6833 83.698C73.3943 82.8093 73.9024 81.8341 74.2078 80.7722C74.5177 79.7104 74.6954 78.5528 74.741 77.2996H72.9294V76.4109H75.6775ZM78.3708 76.4109C78.3663 77.0398 78.3526 77.6163 78.3298 78.1404C78.307 78.6645 78.2615 79.1908 78.1931 79.7195H79.8064V75.2625H80.8318V86.4734H79.8064V80.6082H78.0496C77.7351 82.3445 77.1358 83.8074 76.2517 84.9968L75.4177 84.491C75.9418 83.821 76.3474 83.0828 76.6345 82.2761C76.9262 81.4695 77.1267 80.6651 77.2361 79.863C77.3455 79.0564 77.4093 78.2019 77.4275 77.2996H76.0603V76.4109H78.3708ZM83.115 87.0886H82.0759V74.9343H83.115V87.0886ZM91.9744 75.5085C92.5623 75.5085 93.0841 75.6088 93.5398 75.8093C94.0001 76.0098 94.3578 76.2924 94.613 76.657C94.8682 77.017 94.9958 77.4363 94.9958 77.9148C94.9958 78.325 94.8933 78.6964 94.6882 79.0291C94.4877 79.3617 94.2006 79.6352 93.8269 79.8494C93.4578 80.0636 93.0317 80.2003 92.5486 80.2595V81.449C93.7836 81.3897 94.9001 81.2826 95.8982 81.1277L95.9802 81.9343C94.8409 82.1394 93.6514 82.2738 92.4119 82.3376C91.1768 82.3969 89.837 82.4265 88.3923 82.4265L88.2556 81.5378H88.8845C89.6912 81.5378 90.5525 81.5242 91.4685 81.4968V80.2664C90.9718 80.2117 90.532 80.0795 90.1492 79.8699C89.7709 79.6557 89.477 79.3822 89.2673 79.0496C89.0623 78.7123 88.962 78.3341 88.9666 77.9148C88.962 77.4408 89.085 77.0216 89.3357 76.657C89.5909 76.2924 89.9464 76.0098 90.4021 75.8093C90.8624 75.6088 91.3865 75.5085 91.9744 75.5085ZM91.9744 76.3425C91.587 76.3425 91.2406 76.4086 90.9353 76.5408C90.63 76.6729 90.393 76.8575 90.2244 77.0945C90.0557 77.3315 89.9737 77.6049 89.9783 77.9148C89.9737 78.2156 90.0557 78.4845 90.2244 78.7214C90.393 78.9539 90.63 79.1361 90.9353 79.2683C91.2406 79.4005 91.587 79.4688 91.9744 79.4734C92.3663 79.4688 92.7126 79.4005 93.0134 79.2683C93.3188 79.1361 93.5557 78.9539 93.7244 78.7214C93.893 78.4845 93.9796 78.2156 93.9841 77.9148C93.9796 77.6049 93.893 77.3315 93.7244 77.0945C93.5557 76.8529 93.3188 76.6684 93.0134 76.5408C92.7126 76.4086 92.3663 76.3425 91.9744 76.3425ZM97.7576 79.0632H99.5759V79.9792H97.7576V84.2449H96.6775V74.948H97.7576V79.0632ZM98.1951 86.8152H90.033V83.4382H91.113V85.9128H98.1951V86.8152ZM102.051 77.6824H105.441V75.6589H106.494V76.8894H109.365V74.9343H110.445V82.1667H109.365V80.2527H106.494V81.4695H100.984V75.6589H102.051V77.6824ZM105.441 80.5808V78.53H102.051V80.5808H105.441ZM110.445 87.0886H109.365V83.6843H102.269V82.8093H110.445V87.0886ZM109.365 79.364V77.7781H106.494V79.364H109.365ZM121.97 78.9539H123.802V79.8562H121.97V84.0535H120.904V74.948H121.97V78.9539ZM119.742 77.3132H112.496V76.4382H115.586V74.948H116.652V76.4382H119.742V77.3132ZM116.119 77.9832C116.693 77.9832 117.199 78.0766 117.636 78.2634C118.079 78.4503 118.423 78.7146 118.669 79.0564C118.915 79.3982 119.04 79.797 119.045 80.2527C119.04 80.7039 118.915 81.0981 118.669 81.4353C118.423 81.7725 118.079 82.0346 117.636 82.2214C117.199 82.4037 116.693 82.4949 116.119 82.4949C115.54 82.4949 115.027 82.4037 114.581 82.2214C114.139 82.0346 113.795 81.7725 113.549 81.4353C113.307 81.0981 113.189 80.7039 113.193 80.2527C113.189 79.797 113.307 79.3982 113.549 79.0564C113.795 78.7146 114.139 78.4503 114.581 78.2634C115.027 78.0766 115.54 77.9832 116.119 77.9832ZM116.119 78.8308C115.741 78.8308 115.406 78.8901 115.114 79.0085C114.827 79.1225 114.604 79.2888 114.444 79.5076C114.289 79.7218 114.214 79.9701 114.219 80.2527C114.214 80.5352 114.289 80.7836 114.444 80.9978C114.604 81.2074 114.827 81.3692 115.114 81.4832C115.406 81.5971 115.741 81.6518 116.119 81.6472C116.493 81.6518 116.823 81.5971 117.11 81.4832C117.402 81.3692 117.627 81.2074 117.787 80.9978C117.946 80.7836 118.028 80.5352 118.033 80.2527C118.028 79.9701 117.946 79.7218 117.787 79.5076C117.627 79.2888 117.402 79.1225 117.11 79.0085C116.823 78.8901 116.493 78.8308 116.119 78.8308ZM122.531 86.8289H114.369V83.3289H115.422V85.9265H122.531V86.8289ZM131.349 75.8777C131.905 75.8822 132.402 76.0395 132.84 76.3494C133.277 76.6547 133.628 77.0899 133.892 77.655H137.092V74.9343H138.158V87.116H137.092V82.3992H133.968C133.712 83.019 133.357 83.4975 132.901 83.8347C132.45 84.172 131.933 84.3406 131.349 84.3406C130.757 84.3406 130.228 84.1674 129.763 83.821C129.303 83.4747 128.943 82.9825 128.683 82.3445C128.428 81.7065 128.301 80.9636 128.301 80.116C128.301 79.2683 128.428 78.5255 128.683 77.8875C128.943 77.2494 129.303 76.7572 129.763 76.4109C130.224 76.06 130.752 75.8822 131.349 75.8777ZM131.349 76.8347C130.953 76.8393 130.6 76.9783 130.29 77.2517C129.984 77.5206 129.747 77.9034 129.579 78.4001C129.41 78.8923 129.326 79.4643 129.326 80.116C129.326 80.7677 129.41 81.3419 129.579 81.8386C129.747 82.3308 129.984 82.7113 130.29 82.9802C130.6 83.2491 130.953 83.3835 131.349 83.3835C131.741 83.3835 132.09 83.2491 132.395 82.9802C132.705 82.7113 132.944 82.3308 133.113 81.8386C133.286 81.3419 133.373 80.7677 133.373 80.116C133.373 79.4643 133.286 78.8923 133.113 78.4001C132.944 77.9034 132.707 77.5206 132.402 77.2517C132.097 76.9783 131.746 76.8393 131.349 76.8347ZM134.207 78.5574C134.325 79.0678 134.385 79.5873 134.385 80.116C134.385 80.5899 134.337 81.0548 134.241 81.5105H137.092V78.5574H134.207ZM150.504 82.6316H149.478V79.1453H147.851V82.1941H146.84V75.1804H147.851V78.2566H149.478V74.9343H150.504V82.6316ZM146.347 77.2585H140.113V76.3972H142.711V75.03H143.777V76.3972H146.347V77.2585ZM143.244 77.9148C143.754 77.9148 144.205 78.0014 144.597 78.1746C144.994 78.3432 145.302 78.5847 145.52 78.8992C145.739 79.2091 145.851 79.5736 145.855 79.9929C145.851 80.4031 145.739 80.7654 145.52 81.0798C145.302 81.3897 144.994 81.6313 144.597 81.8044C144.205 81.9731 143.754 82.0574 143.244 82.0574C142.738 82.0574 142.287 81.9731 141.89 81.8044C141.494 81.6313 141.186 81.3897 140.968 81.0798C140.749 80.7654 140.642 80.4031 140.646 79.9929C140.642 79.5782 140.749 79.2136 140.968 78.8992C141.186 78.5847 141.492 78.3432 141.884 78.1746C142.28 78.0014 142.733 77.9148 143.244 77.9148ZM143.244 78.7078C142.925 78.7078 142.64 78.7625 142.389 78.8718C142.143 78.9766 141.95 79.127 141.808 79.323C141.672 79.519 141.603 79.7423 141.603 79.9929C141.603 80.239 141.672 80.4578 141.808 80.6492C141.95 80.8406 142.143 80.9887 142.389 81.0935C142.64 81.1983 142.925 81.2507 143.244 81.2507C143.563 81.2507 143.845 81.1983 144.092 81.0935C144.342 80.9887 144.536 80.8406 144.673 80.6492C144.814 80.4578 144.885 80.239 144.885 79.9929C144.885 79.7423 144.814 79.519 144.673 79.323C144.536 79.127 144.342 78.9766 144.092 78.8718C143.845 78.7625 143.563 78.7078 143.244 78.7078ZM146.484 82.8367C147.336 82.8367 148.068 82.921 148.678 83.0896C149.289 83.2537 149.756 83.4952 150.08 83.8142C150.408 84.1332 150.572 84.5183 150.572 84.9695C150.572 85.407 150.408 85.783 150.08 86.0974C149.756 86.4119 149.287 86.6511 148.672 86.8152C148.061 86.9792 147.332 87.0613 146.484 87.0613C145.636 87.0613 144.905 86.9792 144.29 86.8152C143.679 86.6511 143.212 86.4119 142.888 86.0974C142.565 85.783 142.405 85.407 142.41 84.9695C142.405 84.5183 142.565 84.1332 142.888 83.8142C143.212 83.4952 143.679 83.2537 144.29 83.0896C144.9 82.921 145.632 82.8367 146.484 82.8367ZM146.484 83.6843C145.855 83.6798 145.315 83.7276 144.864 83.8279C144.413 83.9236 144.066 84.0694 143.825 84.2654C143.588 84.4613 143.472 84.696 143.476 84.9695C143.472 85.2338 143.588 85.4594 143.825 85.6462C144.066 85.8331 144.413 85.9766 144.864 86.0769C145.32 86.1772 145.86 86.2273 146.484 86.2273C147.108 86.2273 147.646 86.1772 148.097 86.0769C148.549 85.9766 148.895 85.8331 149.136 85.6462C149.378 85.4594 149.501 85.2338 149.506 84.9695C149.501 84.5548 149.232 84.2358 148.699 84.0125C148.17 83.7846 147.432 83.6752 146.484 83.6843ZM166.199 87.0886H165.174V74.9343H166.199V87.0886ZM163.738 86.4734H162.713V82.2625H160.457V81.3738H162.713V79.2136H160.655C160.354 80.2755 159.855 81.2485 159.158 82.1326C158.461 83.0167 157.554 83.7937 156.437 84.4636L155.781 83.6843C157.08 82.9187 158.073 82.0027 158.761 80.9363C159.454 79.8653 159.855 78.6804 159.965 77.3816H156.328V76.4929H161.031C161.031 77.1173 160.976 77.7279 160.867 78.325H162.713V75.2625H163.738V86.4734ZM175.537 76.8757H168.359V76.0554H171.408V74.866H172.474V76.0554H175.537V76.8757ZM171.955 77.3406C172.529 77.3406 173.035 77.4158 173.472 77.5662C173.914 77.712 174.256 77.9216 174.498 78.1951C174.739 78.4685 174.862 78.7898 174.867 79.1589C174.862 79.4871 174.762 79.7764 174.566 80.0271C174.37 80.2778 174.092 80.4806 173.732 80.6355C173.372 80.7904 172.953 80.8884 172.474 80.9294V81.7361C173.755 81.6723 174.872 81.5743 175.824 81.4421L175.906 82.2078C174.721 82.4037 173.486 82.5336 172.201 82.5974C170.92 82.6567 169.558 82.6863 168.113 82.6863L167.949 81.825C169.293 81.825 170.446 81.809 171.408 81.7771V80.9294C170.674 80.8656 170.098 80.6788 169.678 80.3689C169.259 80.0544 169.052 79.6511 169.056 79.1589C169.052 78.7898 169.168 78.4685 169.405 78.1951C169.642 77.9216 169.979 77.712 170.417 77.5662C170.859 77.4158 171.372 77.3406 171.955 77.3406ZM171.955 78.1062C171.581 78.1016 171.251 78.1427 170.964 78.2292C170.681 78.3113 170.46 78.4343 170.301 78.5984C170.146 78.7579 170.068 78.9447 170.068 79.1589C170.068 79.3686 170.146 79.5509 170.301 79.7058C170.46 79.8608 170.681 79.9815 170.964 80.0681C171.251 80.1501 171.581 80.1889 171.955 80.1843C172.324 80.1889 172.65 80.1501 172.932 80.0681C173.219 79.9815 173.441 79.8608 173.595 79.7058C173.75 79.5509 173.828 79.3686 173.828 79.1589C173.828 78.9447 173.75 78.7579 173.595 78.5984C173.441 78.4343 173.219 78.3113 172.932 78.2292C172.65 78.1427 172.324 78.1016 171.955 78.1062ZM177.916 83.0691H176.836V74.9753H177.916V83.0691ZM177.916 87.0886H176.836V84.5046H169.713V83.6433H177.916V87.0886ZM185.531 75.1531C186.433 75.1531 187.206 75.2351 187.848 75.3992C188.491 75.5587 188.981 75.7957 189.318 76.1101C189.655 76.42 189.824 76.7983 189.824 77.2449C189.824 77.9285 189.45 78.4526 188.703 78.8171C187.955 79.1817 186.898 79.3686 185.531 79.3777C184.629 79.3731 183.854 79.2888 183.207 79.1248C182.564 78.9607 182.072 78.7214 181.73 78.407C181.393 78.088 181.224 77.7006 181.224 77.2449C181.224 76.7983 181.393 76.42 181.73 76.1101C182.072 75.7957 182.564 75.5587 183.207 75.3992C183.854 75.2351 184.629 75.1531 185.531 75.1531ZM185.531 75.9597C184.861 75.9597 184.287 76.0121 183.808 76.1169C183.33 76.2172 182.965 76.3653 182.715 76.5613C182.464 76.7527 182.341 76.9806 182.345 77.2449C182.341 77.6641 182.617 77.9877 183.173 78.2156C183.729 78.4434 184.515 78.5574 185.531 78.5574C186.543 78.5574 187.329 78.4434 187.889 78.2156C188.45 77.9877 188.73 77.6641 188.73 77.2449C188.73 76.9806 188.603 76.7527 188.347 76.5613C188.092 76.3699 187.725 76.2218 187.247 76.1169C186.768 76.0121 186.196 75.9597 185.531 75.9597ZM191.068 81.073H179.994V80.198H191.068V81.073ZM189.646 84.8464H182.427V86.1042H190.015V86.9519H181.361V84.0535H188.594V82.946H181.334V82.1257H189.646V84.8464ZM199.217 78.3933C199.217 79.0404 199.319 79.6876 199.524 80.3347C199.729 80.9819 200.023 81.572 200.406 82.1052C200.793 82.6384 201.249 83.06 201.773 83.3699L201.158 84.2039C200.588 83.8575 200.094 83.3813 199.675 82.7751C199.26 82.1645 198.941 81.4786 198.718 80.7175C198.49 81.5378 198.155 82.2761 197.713 82.9324C197.271 83.5886 196.751 84.099 196.154 84.4636L195.47 83.657C196.017 83.338 196.496 82.9028 196.906 82.3513C197.316 81.7953 197.631 81.1778 197.849 80.4988C198.068 79.8152 198.177 79.127 198.177 78.4343V76.0828H199.217V78.3933ZM206.025 87.0886H204.986V74.9343H206.025V87.0886ZM203.51 86.4734H202.498V80.2117H200.433V79.2957H202.498V75.1941H203.51V86.4734ZM217.769 87.1023H216.676V84.0808H213.873V83.2605H216.676V74.948H217.769V87.1023ZM207.652 81.3464C209.265 81.3464 210.719 81.3236 212.013 81.2781C213.308 81.2279 214.547 81.1186 215.732 80.95L215.801 81.7566C214.693 81.9434 213.472 82.0756 212.136 82.1531V86.7195H211.056V82.2078C210.168 82.2442 209.083 82.2625 207.802 82.2625L207.652 81.3464ZM211.658 75.5496C212.255 75.5496 212.784 75.6498 213.244 75.8503C213.709 76.0509 214.071 76.3334 214.331 76.698C214.591 77.058 214.72 77.4727 214.72 77.9421C214.72 78.4161 214.591 78.8331 214.331 79.1931C214.076 79.5531 213.716 79.8311 213.251 80.0271C212.786 80.2231 212.255 80.321 211.658 80.321C211.056 80.321 210.523 80.2231 210.058 80.0271C209.594 79.8311 209.231 79.5531 208.971 79.1931C208.712 78.8331 208.582 78.4161 208.582 77.9421C208.582 77.4727 208.712 77.058 208.971 76.698C209.231 76.3334 209.594 76.0509 210.058 75.8503C210.523 75.6498 211.056 75.5496 211.658 75.5496ZM211.658 76.3835C211.252 76.3835 210.892 76.4496 210.578 76.5818C210.263 76.7139 210.02 76.8985 209.846 77.1355C209.673 77.3725 209.589 77.6414 209.594 77.9421C209.589 78.2475 209.673 78.5186 209.846 78.7556C210.02 78.988 210.263 79.1681 210.578 79.2957C210.892 79.4233 211.252 79.4871 211.658 79.4871C212.05 79.4871 212.401 79.4233 212.711 79.2957C213.025 79.1681 213.269 78.988 213.442 78.7556C213.62 78.5186 213.709 78.2475 213.709 77.9421C213.709 77.6414 213.62 77.3725 213.442 77.1355C213.269 76.8985 213.025 76.7139 212.711 76.5818C212.401 76.4496 212.05 76.3835 211.658 76.3835ZM230.935 85.53H219.806V84.6414H224.81V82.0164H221.119V75.7957H222.199V77.9968H228.515V75.7957H229.568V82.0164H225.863V84.6414H230.935V85.53ZM228.515 81.1414V78.8718H222.199V81.1414H228.515ZM235.515 78.3933C235.515 79.0404 235.618 79.6876 235.823 80.3347C236.028 80.9819 236.322 81.572 236.705 82.1052C237.092 82.6384 237.548 83.06 238.072 83.3699L237.457 84.2039C236.887 83.8575 236.393 83.3813 235.973 82.7751C235.559 82.1645 235.24 81.4786 235.016 80.7175C234.788 81.5378 234.454 82.2761 234.011 82.9324C233.569 83.5886 233.05 84.099 232.453 84.4636L231.769 83.657C232.316 83.338 232.795 82.9028 233.205 82.3513C233.615 81.7953 233.929 81.1778 234.148 80.4988C234.367 79.8152 234.476 79.127 234.476 78.4343V76.0828H235.515V78.3933ZM242.324 87.0886H241.285V74.9343H242.324V87.0886ZM239.808 86.4734H238.797V80.2117H236.732V79.2957H238.797V75.1941H239.808V86.4734ZM255.135 85.53H244.006V84.6277H246.767V81.3464C246.239 81.073 245.829 80.7221 245.537 80.2937C245.245 79.8608 245.099 79.3731 245.099 78.8308C245.099 78.211 245.288 77.6664 245.667 77.197C246.045 76.7231 246.569 76.3562 247.239 76.0964C247.913 75.8367 248.681 75.7045 249.543 75.7C250.404 75.7045 251.17 75.8367 251.84 76.0964C252.514 76.3562 253.04 76.7231 253.419 77.197C253.797 77.6664 253.986 78.211 253.986 78.8308C253.986 79.364 253.845 79.8448 253.562 80.2732C253.28 80.697 252.883 81.0457 252.373 81.3191V84.6277H255.135V85.53ZM249.543 76.5886C248.882 76.5841 248.294 76.6752 247.779 76.8621C247.264 77.0489 246.861 77.3132 246.569 77.655C246.282 77.9923 246.138 78.3842 246.138 78.8308C246.138 79.2774 246.282 79.6739 246.569 80.0203C246.861 80.3621 247.264 80.6287 247.779 80.8201C248.294 81.0069 248.882 81.1003 249.543 81.1003C250.199 81.1003 250.785 81.0046 251.3 80.8132C251.815 80.6218 252.218 80.3552 252.51 80.0134C252.801 79.6716 252.947 79.2774 252.947 78.8308C252.947 78.3842 252.801 77.9923 252.51 77.655C252.218 77.3132 251.815 77.0489 251.3 76.8621C250.785 76.6752 250.199 76.5841 249.543 76.5886ZM251.293 84.6277V81.7361C250.75 81.8774 250.167 81.948 249.543 81.948C248.914 81.948 248.34 81.8796 247.82 81.7429V84.6277H251.293ZM257.39 86.0632C257.231 86.0632 257.083 86.0245 256.946 85.947C256.814 85.865 256.707 85.7556 256.625 85.6189C256.547 85.4822 256.511 85.3341 256.515 85.1746C256.511 85.0196 256.547 84.8761 256.625 84.7439C256.707 84.6072 256.814 84.5001 256.946 84.4226C257.083 84.3406 257.231 84.2996 257.39 84.2996C257.545 84.2996 257.689 84.3406 257.821 84.4226C257.958 84.5001 258.065 84.6072 258.142 84.7439C258.224 84.8761 258.265 85.0196 258.265 85.1746C258.265 85.3341 258.224 85.4822 258.142 85.6189C258.065 85.7556 257.958 85.865 257.821 85.947C257.689 86.0245 257.545 86.0632 257.39 86.0632ZM273.168 81.2371H272.115V74.9343H273.168V81.2371ZM273.181 84.7644H266.359V86.0769H273.619V86.9519H265.306V83.9304H272.115V82.7136H265.279V81.8523H273.181V84.7644ZM267.453 76.2195C267.448 76.7846 267.578 77.3223 267.843 77.8328C268.107 78.3432 268.474 78.7921 268.943 79.1794C269.417 79.5623 269.955 79.8516 270.556 80.0476L270.023 80.8816C269.308 80.6401 268.679 80.2755 268.136 79.7878C267.599 79.2957 267.193 78.7214 266.92 78.0652C266.646 78.7716 266.236 79.3914 265.689 79.9246C265.142 80.4578 264.509 80.8542 263.789 81.114L263.228 80.2664C263.834 80.0522 264.374 79.7423 264.848 79.3367C265.322 78.9265 265.691 78.4526 265.956 77.9148C266.225 77.3725 266.359 76.8074 266.359 76.2195V75.2898H267.453V76.2195ZM279.566 78.2019C279.562 78.922 279.707 79.6375 280.004 80.3484C280.3 81.0548 280.701 81.6837 281.207 82.2351C281.713 82.7865 282.264 83.1967 282.861 83.4656L282.205 84.3132C281.512 83.9714 280.883 83.4633 280.318 82.7888C279.758 82.1098 279.334 81.3396 279.047 80.4783C278.764 81.3943 278.34 82.2146 277.775 82.9392C277.21 83.6593 276.572 84.1993 275.861 84.5593L275.177 83.657C275.774 83.379 276.326 82.9574 276.832 82.3923C277.338 81.8227 277.741 81.171 278.042 80.4373C278.343 79.699 278.495 78.9539 278.5 78.2019V75.9871H279.566V78.2019ZM285.267 87.116H284.187V74.9343H285.267V87.116ZM296.847 78.6394H298.679V79.5417H296.847V83.8347H295.767V74.9343H296.847V78.6394ZM293.566 75.8777C293.566 76.9031 293.331 77.8442 292.862 78.7009C292.397 79.5577 291.734 80.3005 290.873 80.9294C290.016 81.5583 289 82.0574 287.824 82.4265L287.359 81.5652C288.33 81.2598 289.18 80.8702 289.909 80.3962C290.638 79.9177 291.217 79.3731 291.645 78.7625C292.074 78.1472 292.324 77.4864 292.397 76.78H287.865V75.8777H293.566ZM297.408 86.8289H289.232V82.9324H290.299V85.9265H297.408V86.8289ZM304.982 75.7273C305.825 75.7273 306.584 75.8663 307.259 76.1443C307.933 76.4223 308.462 76.8142 308.844 77.3201C309.232 77.8259 309.426 78.407 309.426 79.0632C309.426 79.724 309.232 80.3097 308.844 80.8201C308.462 81.3259 307.933 81.7179 307.259 81.9958C306.584 82.2693 305.825 82.4037 304.982 82.3992C304.139 82.4037 303.38 82.2693 302.706 81.9958C302.031 81.7179 301.5 81.3259 301.113 80.8201C300.73 80.3097 300.539 79.724 300.539 79.0632C300.539 78.407 300.73 77.8259 301.113 77.3201C301.5 76.8142 302.031 76.4223 302.706 76.1443C303.38 75.8663 304.139 75.7273 304.982 75.7273ZM304.982 76.6023C304.335 76.5977 303.749 76.7003 303.225 76.9099C302.706 77.1195 302.298 77.4135 302.002 77.7917C301.705 78.1654 301.56 78.5893 301.564 79.0632C301.56 79.5463 301.705 79.9747 302.002 80.3484C302.298 80.7221 302.706 81.0115 303.225 81.2166C303.749 81.4216 304.335 81.5242 304.982 81.5242C305.625 81.5242 306.204 81.4216 306.719 81.2166C307.238 81.0115 307.646 80.7221 307.942 80.3484C308.238 79.9747 308.386 79.5463 308.386 79.0632C308.386 78.5893 308.238 78.1654 307.942 77.7917C307.646 77.4135 307.238 77.1195 306.719 76.9099C306.204 76.7003 305.625 76.5977 304.982 76.6023ZM310.574 85.4753H299.445V84.573H310.574V85.4753ZM43.6169 107.585H32.488V106.682H37.4919V104.385H33.8826V100.639H41.156V98.7253H33.8552V97.8367H42.2087V101.514H34.949V103.497H42.4958V104.385H38.5447V106.682H43.6169V107.585ZM51.5466 97.3855C52.1482 97.3901 52.686 97.5063 53.1599 97.7341C53.6384 97.962 54.0121 98.281 54.281 98.6912C54.5544 99.0968 54.6912 99.5593 54.6912 100.079C54.6912 100.598 54.5544 101.063 54.281 101.473C54.0121 101.879 53.6384 102.196 53.1599 102.424C52.686 102.647 52.1482 102.759 51.5466 102.759C50.936 102.759 50.3914 102.647 49.9128 102.424C49.4343 102.196 49.0606 101.879 48.7917 101.473C48.5229 101.063 48.3884 100.598 48.3884 100.079C48.3884 99.5593 48.5229 99.0968 48.7917 98.6912C49.0606 98.281 49.4343 97.962 49.9128 97.7341C50.3914 97.5063 50.936 97.3901 51.5466 97.3855ZM51.5466 98.2878C51.1456 98.2878 50.7833 98.3653 50.4597 98.5203C50.1407 98.6707 49.8901 98.8826 49.7078 99.156C49.5255 99.4249 49.4366 99.7325 49.4412 100.079C49.4366 100.43 49.5255 100.742 49.7078 101.015C49.8901 101.289 50.1407 101.503 50.4597 101.658C50.7833 101.808 51.1456 101.884 51.5466 101.884C51.9431 101.884 52.3009 101.808 52.6199 101.658C52.9434 101.503 53.1964 101.289 53.3787 101.015C53.561 100.742 53.6521 100.43 53.6521 100.079C53.6521 99.7325 53.561 99.4249 53.3787 99.156C53.1964 98.8826 52.9434 98.6707 52.6199 98.5203C52.3009 98.3653 51.9431 98.2878 51.5466 98.2878ZM58.1365 103.182H57.0701V96.9343H58.1365V103.182ZM58.1365 106.696H51.3142V108.063H58.574V108.925H50.2615V105.889H57.0701V104.632H50.2341V103.77H58.1365V106.696ZM70.2771 104.18H69.197V100.995H66.7498V100.106H69.197V96.9343H70.2771V104.18ZM66.2439 104.563C67.087 104.563 67.8139 104.652 68.4246 104.83C69.0352 105.008 69.5024 105.265 69.8259 105.602C70.1541 105.94 70.3181 106.345 70.3181 106.819C70.3181 107.293 70.1541 107.699 69.8259 108.036C69.5024 108.378 69.0352 108.637 68.4246 108.815C67.8139 108.993 67.087 109.084 66.2439 109.089C65.4008 109.084 64.6739 108.993 64.0632 108.815C63.4526 108.637 62.9832 108.378 62.655 108.036C62.3315 107.699 62.1697 107.293 62.1697 106.819C62.1697 106.345 62.3315 105.94 62.655 105.602C62.9832 105.265 63.4526 105.008 64.0632 104.83C64.6739 104.652 65.4008 104.563 66.2439 104.563ZM66.2439 105.397C65.6287 105.397 65.0932 105.454 64.6375 105.568C64.1817 105.682 63.8331 105.846 63.5916 106.06C63.35 106.274 63.2315 106.527 63.2361 106.819C63.2315 107.106 63.35 107.357 63.5916 107.571C63.8331 107.781 64.1817 107.942 64.6375 108.056C65.0932 108.17 65.6287 108.227 66.2439 108.227C66.8591 108.227 67.3923 108.17 67.8435 108.056C68.2992 107.942 68.6479 107.781 68.8894 107.571C69.1309 107.357 69.2517 107.106 69.2517 106.819C69.2517 106.527 69.1309 106.274 68.8894 106.06C68.6479 105.846 68.2992 105.682 67.8435 105.568C67.3923 105.454 66.8591 105.397 66.2439 105.397ZM64.4255 99.1628C64.4255 99.6869 64.5509 100.195 64.8015 100.687C65.0522 101.175 65.4031 101.61 65.8542 101.993C66.31 102.371 66.8318 102.663 67.4197 102.868L66.8591 103.729C66.1801 103.483 65.5831 103.119 65.0681 102.635C64.5577 102.152 64.1726 101.594 63.9128 100.961C63.6485 101.672 63.2452 102.301 62.7029 102.847C62.1651 103.39 61.5362 103.798 60.8162 104.071L60.2556 103.21C60.8526 102.991 61.3858 102.677 61.8552 102.266C62.3246 101.852 62.6892 101.375 62.949 100.838C63.2133 100.3 63.3455 99.7462 63.3455 99.1765V98.7253H60.5974V97.823H67.1462V98.7253H64.4255V99.1628ZM77.8376 97.1531C78.74 97.1531 79.5125 97.2351 80.155 97.3992C80.7976 97.5587 81.2875 97.7957 81.6248 98.1101C81.962 98.42 82.1306 98.7983 82.1306 99.2449C82.1306 99.9285 81.7569 100.453 81.0095 100.817C80.2621 101.182 79.2048 101.369 77.8376 101.378C76.9353 101.373 76.1606 101.289 75.5134 101.125C74.8708 100.961 74.3787 100.721 74.0369 100.407C73.6996 100.088 73.531 99.7006 73.531 99.2449C73.531 98.7983 73.6996 98.42 74.0369 98.1101C74.3787 97.7957 74.8708 97.5587 75.5134 97.3992C76.1606 97.2351 76.9353 97.1531 77.8376 97.1531ZM77.8376 97.9597C77.1677 97.9597 76.5935 98.0121 76.115 98.1169C75.6365 98.2172 75.2719 98.3653 75.0212 98.5613C74.7706 98.7527 74.6475 98.9806 74.6521 99.2449C74.6475 99.6641 74.9233 99.9877 75.4792 100.216C76.0352 100.443 76.8214 100.557 77.8376 100.557C78.8494 100.557 79.6355 100.443 80.196 100.216C80.7566 99.9877 81.0369 99.6641 81.0369 99.2449C81.0369 98.9806 80.9093 98.7527 80.6541 98.5613C80.3988 98.3699 80.032 98.2218 79.5535 98.1169C79.075 98.0121 78.503 97.9597 77.8376 97.9597ZM83.3748 103.073H72.3005V102.198H83.3748V103.073ZM81.9529 106.846H74.7341V108.104H82.322V108.952H73.6677V106.053H80.9001V104.946H73.6404V104.126H81.9529V106.846ZM94.6541 98.5203V98.6843C94.6449 99.2904 94.6222 99.851 94.5857 100.366C94.5492 100.881 94.4672 101.464 94.3396 102.116L93.2595 102.034C93.3871 101.391 93.4714 100.822 93.5125 100.325C93.558 99.8282 93.5854 99.3132 93.5945 98.78H88.5974V97.8777H94.6541V98.5203ZM91.5232 103.182C93.0909 103.119 94.4262 103.009 95.5291 102.854L95.5974 103.647C94.4626 103.843 93.2527 103.975 91.9675 104.044C90.6869 104.108 89.3494 104.139 87.9548 104.139L87.8455 103.251H87.9958L90.4568 103.217V100.571H91.5232V103.182ZM97.4431 100.899H99.2205V101.815H97.4431V106.081H96.3494V96.9343H97.4431V100.899ZM97.8396 108.829H89.7185V105.26H90.7986V107.927H97.8396V108.829ZM110.049 109.116H108.982V96.9343H110.049V109.116ZM106.357 102.389H101.818V105.26C102.907 105.26 103.919 105.229 104.853 105.165C105.792 105.101 106.776 104.987 107.806 104.823L107.916 105.725C106.863 105.894 105.856 106.01 104.894 106.074C103.933 106.133 102.88 106.163 101.736 106.163H100.724V101.514H105.277V98.9578H100.697V98.0691H106.357V102.389ZM121.519 101.952H123.556V102.841H121.519V109.089H120.453V96.9343H121.519V101.952ZM119.277 99.7781H112.045V98.8894H115.176V97.0847H116.242V98.8894H119.277V99.7781ZM115.722 100.79C116.292 100.79 116.802 100.908 117.254 101.145C117.705 101.382 118.058 101.713 118.313 102.136C118.568 102.56 118.698 103.041 118.703 103.579C118.698 104.117 118.568 104.597 118.313 105.021C118.058 105.445 117.705 105.775 117.254 106.012C116.802 106.249 116.292 106.368 115.722 106.368C115.148 106.368 114.633 106.249 114.177 106.012C113.726 105.775 113.373 105.445 113.118 105.021C112.863 104.597 112.737 104.117 112.742 103.579C112.737 103.041 112.863 102.56 113.118 102.136C113.373 101.713 113.726 101.382 114.177 101.145C114.633 100.908 115.148 100.79 115.722 100.79ZM115.722 101.692C115.349 101.692 115.011 101.774 114.711 101.938C114.414 102.098 114.182 102.321 114.013 102.608C113.845 102.895 113.763 103.219 113.767 103.579C113.763 103.943 113.845 104.269 114.013 104.556C114.182 104.839 114.414 105.06 114.711 105.219C115.011 105.379 115.349 105.456 115.722 105.452C116.092 105.456 116.424 105.379 116.72 105.219C117.017 105.06 117.249 104.839 117.418 104.556C117.586 104.269 117.673 103.943 117.677 103.579C117.673 103.219 117.586 102.895 117.418 102.608C117.249 102.321 117.017 102.098 116.72 101.938C116.424 101.774 116.092 101.692 115.722 101.692ZM133.961 99.3816V99.532C133.952 100.535 133.92 101.435 133.865 102.232C133.815 103.025 133.696 103.943 133.51 104.987L132.416 104.864C132.562 104.144 132.666 103.465 132.73 102.827C132.799 102.189 132.84 101.622 132.853 101.125C132.872 100.628 132.881 100.047 132.881 99.3816V99.0535H125.388V98.1648H133.961V99.3816ZM135.287 107.366H124.213V106.477H128.56V102.13H129.613V106.477H135.287V107.366ZM145.965 102.964H140.345V97.7683H145.965V102.964ZM141.398 102.089H144.926V98.6433H141.398V102.089ZM149.328 99.8601H151.16V100.762H149.328V103.88H148.261V96.9343H149.328V99.8601ZM149.547 105.466H146.094C146.135 105.885 146.341 106.286 146.71 106.669C147.079 107.052 147.555 107.38 148.138 107.653C148.726 107.922 149.351 108.109 150.011 108.214L149.615 109.048C148.708 108.897 147.885 108.61 147.147 108.186C146.409 107.762 145.869 107.252 145.527 106.655C145.19 107.257 144.654 107.767 143.921 108.186C143.191 108.606 142.373 108.888 141.467 109.034L141.056 108.214C141.731 108.109 142.358 107.922 142.936 107.653C143.52 107.384 143.994 107.061 144.358 106.682C144.727 106.3 144.932 105.894 144.973 105.466H141.535V104.591H149.547V105.466ZM163 103.825H157.982V105.165H161.646V108.925H153.279V105.165H156.929V103.825H151.926V102.95H163V103.825ZM157.982 98.0828H161.879V98.9441H158.051C158.073 99.3816 158.278 99.7758 158.666 100.127C159.058 100.473 159.575 100.758 160.218 100.981C160.86 101.2 161.569 101.346 162.344 101.419L162.029 102.225C160.967 102.116 160.028 101.881 159.213 101.521C158.401 101.161 157.818 100.69 157.463 100.106C157.103 100.69 156.515 101.161 155.699 101.521C154.888 101.881 153.954 102.116 152.896 102.225L152.568 101.419C153.347 101.346 154.058 101.2 154.701 100.981C155.344 100.758 155.858 100.473 156.246 100.127C156.638 99.7758 156.847 99.3816 156.875 98.9441H153.074V98.0828H156.929V96.866H157.982V98.0828ZM154.345 108.05H160.594V106.026H154.345V108.05ZM178.613 105.192H173.595V109.116H172.543V105.192H167.539V104.29H178.613V105.192ZM173.609 99.3406C173.609 99.8282 173.812 100.295 174.218 100.742C174.623 101.184 175.156 101.56 175.817 101.87C176.478 102.18 177.173 102.385 177.902 102.485L177.506 103.346C176.877 103.251 176.271 103.084 175.687 102.847C175.108 102.61 174.591 102.316 174.135 101.966C173.684 101.615 173.333 101.223 173.083 100.79C172.832 101.227 172.477 101.622 172.016 101.972C171.561 102.323 171.041 102.617 170.458 102.854C169.874 103.087 169.266 103.251 168.633 103.346L168.236 102.485C168.965 102.385 169.66 102.182 170.321 101.877C170.982 101.567 171.517 101.191 171.927 100.749C172.338 100.302 172.543 99.8328 172.543 99.3406V99.3269H168.619V98.4519H172.543V96.9343H173.595V98.4519H177.547V99.3269H173.609V99.3406ZM183.781 99.8464C183.781 100.375 183.911 100.881 184.171 101.364C184.435 101.843 184.8 102.262 185.264 102.622C185.734 102.982 186.269 103.255 186.871 103.442L186.338 104.303C185.631 104.076 185.011 103.729 184.478 103.264C183.95 102.8 183.549 102.257 183.275 101.637C183.011 102.303 182.612 102.886 182.079 103.387C181.55 103.884 180.928 104.258 180.213 104.509L179.679 103.675C180.272 103.474 180.798 103.182 181.259 102.8C181.723 102.412 182.083 101.963 182.339 101.453C182.598 100.942 182.728 100.407 182.728 99.8464V99.45H179.98V98.575H182.728V97.0164H183.808V98.575H186.529V99.45H183.781V99.8464ZM189.715 106.026H188.635V101.583H186.105V100.694H188.635V96.948H189.715V106.026ZM190.056 108.829H181.908V105.206H182.988V107.927H190.056V108.829ZM197.275 97.1531C198.177 97.1531 198.95 97.2351 199.593 97.3992C200.235 97.5587 200.725 97.7957 201.062 98.1101C201.399 98.42 201.568 98.7983 201.568 99.2449C201.568 99.9285 201.194 100.453 200.447 100.817C199.7 101.182 198.642 101.369 197.275 101.378C196.373 101.373 195.598 101.289 194.951 101.125C194.308 100.961 193.816 100.721 193.474 100.407C193.137 100.088 192.969 99.7006 192.969 99.2449C192.969 98.7983 193.137 98.42 193.474 98.1101C193.816 97.7957 194.308 97.5587 194.951 97.3992C195.598 97.2351 196.373 97.1531 197.275 97.1531ZM197.275 97.9597C196.605 97.9597 196.031 98.0121 195.552 98.1169C195.074 98.2172 194.709 98.3653 194.459 98.5613C194.208 98.7527 194.085 98.9806 194.09 99.2449C194.085 99.6641 194.361 99.9877 194.917 100.216C195.473 100.443 196.259 100.557 197.275 100.557C198.287 100.557 199.073 100.443 199.634 100.216C200.194 99.9877 200.474 99.6641 200.474 99.2449C200.474 98.9806 200.347 98.7527 200.092 98.5613C199.836 98.3699 199.469 98.2218 198.991 98.1169C198.512 98.0121 197.941 97.9597 197.275 97.9597ZM202.812 103.073H191.738V102.198H202.812V103.073ZM201.39 106.846H194.172V108.104H201.76V108.952H193.105V106.053H200.338V104.946H193.078V104.126H201.39V106.846ZM216.853 99.8738H218.685V100.776H216.853V104.044H215.787V96.9343H216.853V99.8738ZM208.924 99.491H212.465V97.6316H213.531V103.278H207.871V97.6316H208.924V99.491ZM212.465 102.417V100.352H208.924V102.417H212.465ZM216.949 105.589H210.291V108.05H217.181V108.925H209.224V104.727H216.949V105.589ZM224.988 97.7273C225.831 97.7273 226.59 97.8663 227.264 98.1443C227.939 98.4223 228.468 98.8142 228.85 99.3201C229.238 99.8259 229.431 100.407 229.431 101.063C229.431 101.724 229.238 102.31 228.85 102.82C228.468 103.326 227.939 103.718 227.264 103.996C226.59 104.269 225.831 104.404 224.988 104.399C224.145 104.404 223.386 104.269 222.712 103.996C222.037 103.718 221.506 103.326 221.119 102.82C220.736 102.31 220.545 101.724 220.545 101.063C220.545 100.407 220.736 99.8259 221.119 99.3201C221.506 98.8142 222.037 98.4223 222.712 98.1443C223.386 97.8663 224.145 97.7273 224.988 97.7273ZM224.988 98.6023C224.341 98.5977 223.755 98.7003 223.231 98.9099C222.712 99.1195 222.304 99.4135 222.008 99.7917C221.711 100.165 221.566 100.589 221.57 101.063C221.566 101.546 221.711 101.975 222.008 102.348C222.304 102.722 222.712 103.011 223.231 103.217C223.755 103.422 224.341 103.524 224.988 103.524C225.631 103.524 226.209 103.422 226.724 103.217C227.244 103.011 227.652 102.722 227.948 102.348C228.244 101.975 228.392 101.546 228.392 101.063C228.392 100.589 228.244 100.165 227.948 99.7917C227.652 99.4135 227.244 99.1195 226.724 98.9099C226.209 98.7003 225.631 98.5977 224.988 98.6023ZM230.58 107.475H219.451V106.573H230.58V107.475ZM235.16 100.393C235.16 101.04 235.262 101.688 235.468 102.335C235.673 102.982 235.967 103.572 236.349 104.105C236.737 104.638 237.192 105.06 237.717 105.37L237.101 106.204C236.532 105.858 236.037 105.381 235.618 104.775C235.203 104.164 234.884 103.479 234.661 102.718C234.433 103.538 234.098 104.276 233.656 104.932C233.214 105.589 232.694 106.099 232.097 106.464L231.414 105.657C231.961 105.338 232.439 104.903 232.849 104.351C233.26 103.795 233.574 103.178 233.793 102.499C234.011 101.815 234.121 101.127 234.121 100.434V98.0828H235.16V100.393ZM241.969 109.089H240.929V96.9343H241.969V109.089ZM239.453 108.473H238.441V102.212H236.377V101.296H238.441V97.1941H239.453V108.473ZM254.779 107.53H243.65V106.628H246.412V103.346C245.883 103.073 245.473 102.722 245.181 102.294C244.89 101.861 244.744 101.373 244.744 100.831C244.744 100.211 244.933 99.6664 245.311 99.197C245.69 98.7231 246.214 98.3562 246.884 98.0964C247.558 97.8367 248.326 97.7045 249.187 97.7C250.049 97.7045 250.814 97.8367 251.484 98.0964C252.159 98.3562 252.685 98.7231 253.063 99.197C253.441 99.6664 253.631 100.211 253.631 100.831C253.631 101.364 253.489 101.845 253.207 102.273C252.924 102.697 252.528 103.046 252.017 103.319V106.628H254.779V107.53ZM249.187 98.5886C248.526 98.5841 247.939 98.6752 247.424 98.8621C246.909 99.0489 246.505 99.3132 246.214 99.655C245.927 99.9923 245.783 100.384 245.783 100.831C245.783 101.277 245.927 101.674 246.214 102.02C246.505 102.362 246.909 102.629 247.424 102.82C247.939 103.007 248.526 103.1 249.187 103.1C249.844 103.1 250.429 103.005 250.944 102.813C251.459 102.622 251.862 102.355 252.154 102.013C252.446 101.672 252.592 101.277 252.592 100.831C252.592 100.384 252.446 99.9923 252.154 99.655C251.862 99.3132 251.459 99.0489 250.944 98.8621C250.429 98.6752 249.844 98.5841 249.187 98.5886ZM250.937 106.628V103.736C250.395 103.877 249.812 103.948 249.187 103.948C248.558 103.948 247.984 103.88 247.465 103.743V106.628H250.937ZM257.035 108.063C256.875 108.063 256.727 108.024 256.591 107.947C256.458 107.865 256.351 107.756 256.269 107.619C256.192 107.482 256.155 107.334 256.16 107.175C256.155 107.02 256.192 106.876 256.269 106.744C256.351 106.607 256.458 106.5 256.591 106.423C256.727 106.341 256.875 106.3 257.035 106.3C257.19 106.3 257.333 106.341 257.466 106.423C257.602 106.5 257.709 106.607 257.787 106.744C257.869 106.876 257.91 107.02 257.91 107.175C257.91 107.334 257.869 107.482 257.787 107.619C257.709 107.756 257.602 107.865 257.466 107.947C257.333 108.024 257.19 108.063 257.035 108.063Z" fill="#FAFAF7"/>
</g>
<g id="Link" filter="url(#filter1_dd_48_2)">
<path d="M31.9958 153.969C31.9958 147.341 37.3684 141.969 43.9958 141.969H194.996C201.623 141.969 206.996 147.341 206.996 153.969V167.969C206.996 174.596 201.623 179.969 194.996 179.969H43.9959C37.3684 179.969 31.9958 174.596 31.9958 167.969V153.969Z" fill="#FAFAF7"/>
<path id="&#236;&#151;&#172;&#237;&#150;&#137; &#234;&#179;&#132;&#237;&#154;&#141; &#236;&#139;&#156;&#236;&#158;&#145;&#237;&#149;&#152;&#234;&#184;&#176;" d="M64.2927 155.422C64.9281 155.427 65.4958 155.607 65.9958 155.961C66.4958 156.31 66.8969 156.807 67.199 157.453H70.8552V154.344H72.074V168.266H70.8552V162.875H67.2849C66.9932 163.583 66.587 164.13 66.0662 164.516C65.5505 164.901 64.9594 165.094 64.2927 165.094C63.6156 165.094 63.0115 164.896 62.4802 164.5C61.9542 164.104 61.5427 163.542 61.2458 162.812C60.9542 162.083 60.8083 161.234 60.8083 160.266C60.8083 159.297 60.9542 158.448 61.2458 157.719C61.5427 156.99 61.9542 156.427 62.4802 156.031C63.0063 155.63 63.6104 155.427 64.2927 155.422ZM64.2927 156.516C63.8396 156.521 63.436 156.68 63.0818 156.992C62.7328 157.299 62.462 157.737 62.2693 158.305C62.0766 158.867 61.9802 159.521 61.9802 160.266C61.9802 161.01 62.0766 161.667 62.2693 162.234C62.462 162.797 62.7328 163.232 63.0818 163.539C63.436 163.846 63.8396 164 64.2927 164C64.7406 164 65.1391 163.846 65.488 163.539C65.8422 163.232 66.1156 162.797 66.3083 162.234C66.5063 161.667 66.6052 161.01 66.6052 160.266C66.6052 159.521 66.5063 158.867 66.3083 158.305C66.1156 157.737 65.8448 157.299 65.4958 156.992C65.1469 156.68 64.7458 156.521 64.2927 156.516ZM67.5583 158.484C67.6938 159.068 67.7615 159.661 67.7615 160.266C67.7615 160.807 67.7068 161.339 67.5974 161.859H70.8552V158.484H67.5583ZM86.1833 163.141H85.0115V159.156H83.1521V162.641H81.9958V154.625H83.1521V158.141H85.0115V154.344H86.1833V163.141ZM81.4333 157H74.3083V156.016H77.2771V154.453H78.4958V156.016H81.4333V157ZM77.8865 157.75C78.4698 157.75 78.9854 157.849 79.4333 158.047C79.8865 158.24 80.238 158.516 80.488 158.875C80.738 159.229 80.8656 159.646 80.8708 160.125C80.8656 160.594 80.738 161.008 80.488 161.367C80.238 161.721 79.8865 161.997 79.4333 162.195C78.9854 162.388 78.4698 162.484 77.8865 162.484C77.3083 162.484 76.7927 162.388 76.3396 162.195C75.8865 161.997 75.5349 161.721 75.2849 161.367C75.0349 161.008 74.9125 160.594 74.9177 160.125C74.9125 159.651 75.0349 159.234 75.2849 158.875C75.5349 158.516 75.8839 158.24 76.3318 158.047C76.7849 157.849 77.3031 157.75 77.8865 157.75ZM77.8865 158.656C77.5219 158.656 77.1964 158.719 76.9099 158.844C76.6287 158.964 76.4073 159.135 76.2458 159.359C76.0896 159.583 76.0115 159.839 76.0115 160.125C76.0115 160.406 76.0896 160.656 76.2458 160.875C76.4073 161.094 76.6287 161.263 76.9099 161.383C77.1964 161.503 77.5219 161.562 77.8865 161.562C78.2511 161.562 78.574 161.503 78.8552 161.383C79.1417 161.263 79.363 161.094 79.5193 160.875C79.6807 160.656 79.7615 160.406 79.7615 160.125C79.7615 159.839 79.6807 159.583 79.5193 159.359C79.363 159.135 79.1417 158.964 78.8552 158.844C78.574 158.719 78.2511 158.656 77.8865 158.656ZM81.5896 163.375C82.5636 163.375 83.3995 163.471 84.0974 163.664C84.7953 163.852 85.3292 164.128 85.699 164.492C86.074 164.857 86.2615 165.297 86.2615 165.812C86.2615 166.312 86.074 166.742 85.699 167.102C85.3292 167.461 84.7927 167.734 84.0896 167.922C83.3917 168.109 82.5583 168.203 81.5896 168.203C80.6208 168.203 79.7849 168.109 79.0818 167.922C78.3839 167.734 77.85 167.461 77.4802 167.102C77.1104 166.742 76.9281 166.312 76.9333 165.812C76.9281 165.297 77.1104 164.857 77.4802 164.492C77.85 164.128 78.3839 163.852 79.0818 163.664C79.7797 163.471 80.6156 163.375 81.5896 163.375ZM81.5896 164.344C80.8708 164.339 80.2537 164.393 79.738 164.508C79.2224 164.617 78.8266 164.784 78.5505 165.008C78.2797 165.232 78.1469 165.5 78.1521 165.812C78.1469 166.115 78.2797 166.372 78.5505 166.586C78.8266 166.799 79.2224 166.964 79.738 167.078C80.2589 167.193 80.8761 167.25 81.5896 167.25C82.3031 167.25 82.9177 167.193 83.4333 167.078C83.949 166.964 84.3448 166.799 84.6208 166.586C84.8969 166.372 85.0375 166.115 85.0427 165.812C85.0375 165.339 84.7302 164.974 84.1208 164.719C83.5167 164.458 82.6729 164.333 81.5896 164.344ZM104.121 168.234H102.949V154.344H104.121V168.234ZM101.308 167.531H100.136V162.719H97.5583V161.703H100.136V159.234H97.7849C97.4412 160.448 96.8708 161.56 96.074 162.57C95.2771 163.581 94.2406 164.469 92.9646 165.234L92.2146 164.344C93.699 163.469 94.8344 162.422 95.6208 161.203C96.4125 159.979 96.8708 158.625 96.9958 157.141H92.8396V156.125H98.2146C98.2146 156.839 98.1521 157.536 98.0271 158.219H100.136V154.719H101.308V167.531ZM114.793 156.562H106.59V155.625H110.074V154.266H111.293V155.625H114.793V156.562ZM110.699 157.094C111.355 157.094 111.933 157.18 112.433 157.352C112.939 157.518 113.329 157.758 113.605 158.07C113.881 158.383 114.022 158.75 114.027 159.172C114.022 159.547 113.907 159.878 113.683 160.164C113.459 160.451 113.142 160.682 112.73 160.859C112.319 161.036 111.84 161.148 111.293 161.195V162.117C112.756 162.044 114.032 161.932 115.121 161.781L115.215 162.656C113.86 162.88 112.449 163.029 110.98 163.102C109.517 163.169 107.959 163.203 106.308 163.203L106.121 162.219C107.657 162.219 108.975 162.201 110.074 162.164V161.195C109.235 161.122 108.577 160.909 108.097 160.555C107.618 160.195 107.381 159.734 107.386 159.172C107.381 158.75 107.514 158.383 107.785 158.07C108.056 157.758 108.441 157.518 108.941 157.352C109.446 157.18 110.032 157.094 110.699 157.094ZM110.699 157.969C110.272 157.964 109.894 158.01 109.566 158.109C109.243 158.203 108.991 158.344 108.808 158.531C108.631 158.714 108.543 158.927 108.543 159.172C108.543 159.411 108.631 159.62 108.808 159.797C108.991 159.974 109.243 160.112 109.566 160.211C109.894 160.305 110.272 160.349 110.699 160.344C111.121 160.349 111.493 160.305 111.816 160.211C112.144 160.112 112.397 159.974 112.574 159.797C112.751 159.62 112.84 159.411 112.84 159.172C112.84 158.927 112.751 158.714 112.574 158.531C112.397 158.344 112.144 158.203 111.816 158.109C111.493 158.01 111.121 157.964 110.699 157.969ZM117.511 163.641H116.277V154.391H117.511V163.641ZM117.511 168.234H116.277V165.281H108.136V164.297H117.511V168.234ZM128.84 158.078C128.834 158.901 129.001 159.719 129.34 160.531C129.678 161.339 130.136 162.057 130.715 162.688C131.293 163.318 131.923 163.786 132.605 164.094L131.855 165.062C131.064 164.672 130.345 164.091 129.699 163.32C129.058 162.544 128.574 161.664 128.246 160.68C127.923 161.727 127.439 162.664 126.793 163.492C126.147 164.315 125.418 164.932 124.605 165.344L123.824 164.312C124.506 163.995 125.136 163.513 125.715 162.867C126.293 162.216 126.754 161.471 127.097 160.633C127.441 159.789 127.616 158.938 127.621 158.078V155.547H128.84V158.078ZM135.355 168.266H134.121V154.344H135.355V168.266ZM142.433 156.922C142.433 157.531 142.574 158.117 142.855 158.68C143.142 159.237 143.543 159.732 144.058 160.164C144.574 160.596 145.173 160.932 145.855 161.172L145.23 162.125C144.444 161.844 143.756 161.432 143.168 160.891C142.579 160.344 142.136 159.711 141.84 158.992C141.543 159.773 141.09 160.461 140.48 161.055C139.871 161.643 139.157 162.089 138.34 162.391L137.683 161.438C138.371 161.193 138.983 160.841 139.519 160.383C140.056 159.924 140.472 159.396 140.769 158.797C141.071 158.198 141.225 157.573 141.23 156.922V156.328H138.058V155.328H145.558V156.328H142.433V156.922ZM148.59 158.016H150.683V159.062H148.59V162.719H147.371V154.344H148.59V158.016ZM148.59 168.234H147.371V164.453H139.496V163.453H148.59V168.234ZM162.308 160.078H164.636V161.094H162.308V168.234H161.09V154.344H162.308V160.078ZM159.746 157.594H151.48V156.578H155.058V154.516H156.277V156.578H159.746V157.594ZM155.683 158.75C156.334 158.75 156.918 158.885 157.433 159.156C157.949 159.427 158.353 159.805 158.644 160.289C158.936 160.773 159.084 161.323 159.09 161.938C159.084 162.552 158.936 163.102 158.644 163.586C158.353 164.07 157.949 164.448 157.433 164.719C156.918 164.99 156.334 165.125 155.683 165.125C155.027 165.125 154.439 164.99 153.918 164.719C153.402 164.448 152.998 164.07 152.707 163.586C152.415 163.102 152.272 162.552 152.277 161.938C152.272 161.323 152.415 160.773 152.707 160.289C152.998 159.805 153.402 159.427 153.918 159.156C154.439 158.885 155.027 158.75 155.683 158.75ZM155.683 159.781C155.256 159.781 154.871 159.875 154.527 160.062C154.189 160.245 153.923 160.5 153.73 160.828C153.538 161.156 153.444 161.526 153.449 161.938C153.444 162.354 153.538 162.727 153.73 163.055C153.923 163.378 154.189 163.63 154.527 163.812C154.871 163.995 155.256 164.083 155.683 164.078C156.105 164.083 156.485 163.995 156.824 163.812C157.163 163.63 157.428 163.378 157.621 163.055C157.814 162.727 157.913 162.354 157.918 161.938C157.913 161.526 157.814 161.156 157.621 160.828C157.428 160.5 157.163 160.245 156.824 160.062C156.485 159.875 156.105 159.781 155.683 159.781ZM176.871 168.234H175.636V154.344H176.871V168.234ZM172.761 155.859C172.751 157.958 172.22 159.844 171.168 161.516C170.116 163.182 168.47 164.552 166.23 165.625L165.558 164.625C167.413 163.745 168.832 162.651 169.816 161.344C170.806 160.036 171.371 158.542 171.511 156.859H166.199V155.859H172.761Z" fill="#4A7C59"/>
</g>
</g>
<defs>
<filter id="filter0_dd_48_2" x="0" y="0" width="343.526" height="215.95" filterUnits="userSpaceOnUse" color-interpolation-filters="sRGB">
<feFlood flood-opacity="0" result="BackgroundImageFix"/>
<feColorMatrix in="SourceAlpha" type="matrix" values="0 0 0 0 0 0 0 0 0 0 0 0 0 0 0 0 0 0 127 0" result="hardAlpha"/>
<feOffset dy="2"/>
<feGaussianBlur stdDeviation="4"/>
<feColorMatrix type="matrix" values="0 0 0 0 0.118 0 0 0 0 0.157 0 0 0 0 0.133 0 0 0 0.09 0"/>
<feBlend mode="normal" in2="BackgroundImageFix" result="effect1_dropShadow_48_2"/>
<feColorMatrix in="SourceAlpha" type="matrix" values="0 0 0 0 0 0 0 0 0 0 0 0 0 0 0 0 0 0 127 0" result="hardAlpha"/>
<feOffset dy="1"/>
<feGaussianBlur stdDeviation="1"/>
<feColorMatrix type="matrix" values="0 0 0 0 0.118 0 0 0 0 0.157 0 0 0 0 0.133 0 0 0 0.04 0"/>
<feBlend mode="normal" in2="effect1_dropShadow_48_2" result="effect2_dropShadow_48_2"/>
<feBlend mode="normal" in="SourceGraphic" in2="effect2_dropShadow_48_2" result="shape"/>
</filter>
<filter id="filter1_dd_48_2" x="23.9958" y="135.969" width="191" height="54" filterUnits="userSpaceOnUse" color-interpolation-filters="sRGB">
<feFlood flood-opacity="0" result="BackgroundImageFix"/>
<feColorMatrix in="SourceAlpha" type="matrix" values="0 0 0 0 0 0 0 0 0 0 0 0 0 0 0 0 0 0 127 0" result="hardAlpha"/>
<feOffset dy="2"/>
<feGaussianBlur stdDeviation="4"/>
<feColorMatrix type="matrix" values="0 0 0 0 0.118 0 0 0 0 0.157 0 0 0 0 0.133 0 0 0 0.09 0"/>
<feBlend mode="normal" in2="BackgroundImageFix" result="effect1_dropShadow_48_2"/>
<feColorMatrix in="SourceAlpha" type="matrix" values="0 0 0 0 0 0 0 0 0 0 0 0 0 0 0 0 0 0 127 0" result="hardAlpha"/>
<feOffset dy="1"/>
<feGaussianBlur stdDeviation="1"/>
<feColorMatrix type="matrix" values="0 0 0 0 0.118 0 0 0 0 0.157 0 0 0 0 0.133 0 0 0 0.04 0"/>
<feBlend mode="normal" in2="effect1_dropShadow_48_2" result="effect2_dropShadow_48_2"/>
<feBlend mode="normal" in="SourceGraphic" in2="effect2_dropShadow_48_2" result="shape"/>
</filter>
</defs>
</svg>
