<svg width="255" height="118" viewBox="0 0 255 118" fill="none" xmlns="http://www.w3.org/2000/svg">
<g id="Property 1=Dark">
<g id="Link" filter="url(#filter0_dd_43_75)">
<path d="M8 22C8 13.1635 15.1634 6 24 6H93.1729C102.009 6 109.173 13.1634 109.173 22V91.4534C109.173 100.29 102.009 107.453 93.1729 107.453H24C15.1635 107.453 8 100.29 8 91.4534V22Z" fill="#262B28"/>
<path d="M24 6.5H93.1729C101.733 6.5 108.673 13.4396 108.673 22V91.4531C108.673 100.014 101.733 106.953 93.1729 106.953H24C15.4396 106.953 8.5 100.014 8.5 91.4531V22C8.50001 13.4396 15.4396 6.5 24 6.5Z" stroke="#373F3B"/>
<g id="Home">
<path d="M36.5951 44.9808C36.5951 32.8353 46.4409 22.9895 58.5864 22.9895C70.7319 22.9895 80.5777 32.8353 80.5777 44.9808C80.5777 57.1263 70.7319 66.9721 58.5864 66.9721C46.4409 66.9721 36.5951 57.1263 36.5951 44.9808Z" fill="#5E9E72"/>
<g id="Icon">
<path id="Vector" d="M66.0858 47.4804C66.0858 47.9224 65.9102 48.3463 65.5977 48.6589C65.2851 48.9714 64.8612 49.147 64.4192 49.147H54.42L51.0869 52.4801V39.1477C51.0869 38.7057 51.2625 38.2819 51.575 37.9693C51.8876 37.6568 52.3115 37.4812 52.7535 37.4812H64.4192C64.8612 37.4812 65.2851 37.6568 65.5977 37.9693C65.9102 38.2819 66.0858 38.7057 66.0858 39.1477V47.4804Z" stroke="#E8E4DC" stroke-width="1.66654" stroke-linecap="round" stroke-linejoin="round"/>
</g>
</g>
<g id="Home_2">
<path id="AI&#236;&#153;&#128; &#236;&#177;&#132;&#237;&#140;&#133;" d="M36.397 86.9668L39.5024 78.4824H40.6157L43.7212 86.9668H42.6079L41.7583 84.5762H38.3481L37.4985 86.9668H36.397ZM41.436 83.6504L40.0884 79.8535H40.0181L38.6704 83.6504H41.436ZM45.9243 86.9668H44.8696V78.4824H45.9243V86.9668ZM50.4243 78.1777C50.9556 78.1816 51.4302 78.2871 51.8481 78.4941C52.27 78.7012 52.6001 78.9902 52.8384 79.3613C53.0766 79.7285 53.1977 80.1504 53.2016 80.627C53.1977 81.0566 53.0981 81.4434 52.9028 81.7871C52.7075 82.1309 52.436 82.4121 52.0884 82.6309C51.7446 82.8457 51.3462 82.9805 50.8931 83.0352V84.8105C52.0024 84.7559 52.9556 84.6777 53.7524 84.5762L53.811 85.2676C52.9243 85.416 51.9888 85.5176 51.0044 85.5723C50.02 85.627 48.9985 85.6543 47.9399 85.6543H47.3071L47.1548 84.8809C48.3891 84.873 49.3266 84.8594 49.9673 84.8398V83.0352C49.5063 82.9805 49.1001 82.8457 48.7485 82.6309C48.397 82.416 48.1235 82.1367 47.9282 81.793C47.7368 81.4453 47.6431 81.0566 47.647 80.627C47.6431 80.1504 47.7583 79.7285 47.9927 79.3613C48.2309 78.9902 48.561 78.7012 48.9829 78.4941C49.4048 78.2871 49.8852 78.1816 50.4243 78.1777ZM50.4243 78.9746C50.0649 78.9746 49.7407 79.0449 49.4516 79.1855C49.1665 79.3262 48.9438 79.5215 48.7837 79.7715C48.6235 80.0215 48.5454 80.3066 48.5493 80.627C48.5454 80.9473 48.6235 81.2324 48.7837 81.4824C48.9438 81.7324 49.1665 81.9277 49.4516 82.0684C49.7407 82.209 50.0649 82.2793 50.4243 82.2793C50.7798 82.2793 51.0981 82.209 51.3794 82.0684C51.6645 81.9277 51.8872 81.7324 52.0473 81.4824C52.2114 81.2324 52.2954 80.9473 52.2993 80.627C52.2954 80.3066 52.2114 80.0215 52.0473 79.7715C51.8872 79.5215 51.6645 79.3262 51.3794 79.1855C51.0981 79.0449 50.7798 78.9746 50.4243 78.9746ZM55.3345 81.7988H57.0337V82.5957H55.3345V87.916H54.4204V77.498H55.3345V81.7988ZM63.7134 80.6973C63.7134 81.2559 63.8052 81.8047 63.9888 82.3438C64.1723 82.8828 64.436 83.3711 64.7798 83.8086C65.1274 84.2422 65.5337 84.584 65.9985 84.834L65.4595 85.5254C64.9516 85.248 64.5122 84.8574 64.1411 84.3535C63.77 83.8496 63.4868 83.2773 63.2915 82.6367C63.1001 83.3203 62.8188 83.9336 62.4477 84.4766C62.0766 85.0195 61.6391 85.4395 61.1352 85.7363L60.5845 85.0566C61.0415 84.791 61.4399 84.4277 61.7798 83.9668C62.1196 83.502 62.3813 82.9863 62.5649 82.4199C62.7485 81.8496 62.8423 81.2754 62.8462 80.6973V80.2168H60.8306V79.4551H62.8462V77.8848H63.7251V79.4551H65.7173V80.2168H63.7134V80.6973ZM69.6196 87.916H68.729V82.502H67.311V87.3887H66.4321V77.7207H67.311V81.7168H68.729V77.498H69.6196V87.916ZM76.6391 79.0215H72.5727V80.334H76.3462V81.084H72.5727V82.4551C73.7563 82.4551 74.6977 82.4375 75.397 82.4023C76.0962 82.3633 76.7954 82.2871 77.4946 82.1738L77.5884 82.9238C76.8579 83.041 76.1294 83.1191 75.4028 83.1582C74.6763 83.1973 73.7056 83.2168 72.4907 83.2168H71.647V78.2715H76.6391V79.0215ZM79.6391 83.9668H78.7251V77.5098H79.6391V83.9668ZM76.1821 84.1191C76.9009 84.1152 77.5239 84.1875 78.0513 84.3359C78.5786 84.4805 78.9829 84.6953 79.2641 84.9805C79.5454 85.2617 79.686 85.5996 79.686 85.9941C79.686 86.3965 79.5454 86.7383 79.2641 87.0195C78.9829 87.3047 78.5786 87.5215 78.0513 87.6699C77.5278 87.8184 76.9048 87.8926 76.1821 87.8926C75.4438 87.8926 74.811 87.8184 74.2837 87.6699C73.7563 87.5254 73.352 87.3105 73.0708 87.0254C72.7934 86.7402 72.6548 86.3965 72.6548 85.9941C72.6548 85.5996 72.7934 85.2617 73.0708 84.9805C73.352 84.6953 73.7563 84.4805 74.2837 84.3359C74.8149 84.1875 75.4477 84.1152 76.1821 84.1191ZM76.1821 84.8457C75.6391 84.8457 75.1704 84.8926 74.7759 84.9863C74.3852 85.0762 74.0864 85.207 73.8794 85.3789C73.6723 85.5508 73.5688 85.7559 73.5688 85.9941C73.5688 86.2402 73.6723 86.4512 73.8794 86.627C74.0864 86.8027 74.3852 86.9355 74.7759 87.0254C75.1704 87.1191 75.6391 87.166 76.1821 87.166C76.7134 87.166 77.1743 87.1191 77.5649 87.0254C77.9556 86.9316 78.2563 86.7969 78.4673 86.6211C78.6782 86.4453 78.7837 86.2363 78.7837 85.9941C78.7837 85.7598 78.6782 85.5566 78.4673 85.3848C78.2563 85.209 77.9536 85.0762 77.5591 84.9863C77.1684 84.8926 76.7095 84.8457 76.1821 84.8457Z" fill="#E8E4DC"/>
</g>
</g>
<g id="Link_2" filter="url(#filter1_dd_43_75)">
<path d="M145.173 22C145.173 13.1635 152.336 6 161.173 6H230.358C239.194 6 246.358 13.1634 246.358 22V91.4534C246.358 100.29 239.194 107.453 230.358 107.453H161.173C152.336 107.453 145.173 100.29 145.173 91.4534V22Z" fill="#262B28"/>
<path d="M161.173 6.5H230.358C238.918 6.5 245.858 13.4396 245.858 22V91.4531C245.858 100.014 238.918 106.953 230.358 106.953H161.173C152.613 106.953 145.673 100.014 145.673 91.4531V22C145.673 13.4396 152.613 6.5 161.173 6.5Z" stroke="#373F3B"/>
<g id="Home_3">
<path d="M173.774 44.9808C173.774 32.8353 183.62 22.9895 195.765 22.9895C207.911 22.9895 217.757 32.8353 217.757 44.9808C217.757 57.1263 207.911 66.9721 195.765 66.9721C183.62 66.9721 173.774 57.1263 173.774 44.9808Z" fill="#5E9E72"/>
<g id="Icon_2" clip-path="url(#clip0_43_75)">
<path id="Vector_2" d="M192.432 36.6479V39.981" stroke="#E8E4DC" stroke-width="1.66654" stroke-linecap="round" stroke-linejoin="round"/>
<path id="Vector_3" d="M199.098 36.6479V39.981" stroke="#E8E4DC" stroke-width="1.66654" stroke-linecap="round" stroke-linejoin="round"/>
<path id="Vector_4" d="M201.598 38.3145H189.932C189.012 38.3145 188.266 39.0606 188.266 39.981V51.6468C188.266 52.5672 189.012 53.3133 189.932 53.3133H201.598C202.518 53.3133 203.265 52.5672 203.265 51.6468V39.981C203.265 39.0606 202.518 38.3145 201.598 38.3145Z" stroke="#E8E4DC" stroke-width="1.66654" stroke-linecap="round" stroke-linejoin="round"/>
<path id="Vector_5" d="M188.266 43.3142H203.265" stroke="#E8E4DC" stroke-width="1.66654" stroke-linecap="round" stroke-linejoin="round"/>
</g>
</g>
<g id="Home_4">
<path id="&#236;&#157;&#188;&#236;&#160;&#149; &#235;&#179;&#180;&#234;&#184;&#176;" d="M176.892 77.8848C177.408 77.8887 177.869 77.9883 178.275 78.1836C178.685 78.3789 179.006 78.6523 179.236 79.0039C179.47 79.3516 179.588 79.748 179.588 80.1934C179.588 80.6387 179.47 81.0371 179.236 81.3887C179.006 81.7363 178.685 82.0078 178.275 82.2031C177.869 82.3945 177.408 82.4902 176.892 82.4902C176.369 82.4902 175.902 82.3945 175.492 82.2031C175.082 82.0078 174.761 81.7363 174.531 81.3887C174.3 81.0371 174.185 80.6387 174.185 80.1934C174.185 79.748 174.3 79.3516 174.531 79.0039C174.761 78.6523 175.082 78.3789 175.492 78.1836C175.902 77.9883 176.369 77.8887 176.892 77.8848ZM176.892 78.6582C176.549 78.6582 176.238 78.7246 175.961 78.8574C175.687 78.9863 175.472 79.168 175.316 79.4023C175.16 79.6328 175.084 79.8965 175.088 80.1934C175.084 80.4941 175.16 80.7617 175.316 80.9961C175.472 81.2305 175.687 81.4141 175.961 81.5469C176.238 81.6758 176.549 81.7402 176.892 81.7402C177.232 81.7402 177.539 81.6758 177.812 81.5469C178.09 81.4141 178.306 81.2305 178.463 80.9961C178.619 80.7617 178.697 80.4941 178.697 80.1934C178.697 79.8965 178.619 79.6328 178.463 79.4023C178.306 79.168 178.09 78.9863 177.812 78.8574C177.539 78.7246 177.232 78.6582 176.892 78.6582ZM182.541 82.8535H181.627V77.498H182.541V82.8535ZM182.541 85.8652H176.693V87.0371H182.916V87.7754H175.791V85.1738H181.627V84.0957H175.767V83.3574H182.541V85.8652ZM192.947 83.709H192.021V80.9785H189.924V80.2168H192.021V77.498H192.947V83.709ZM189.49 84.0371C190.213 84.0371 190.836 84.1133 191.359 84.2656C191.883 84.418 192.283 84.6387 192.56 84.9277C192.842 85.2168 192.982 85.5645 192.982 85.9707C192.982 86.377 192.842 86.7246 192.56 87.0137C192.283 87.3066 191.883 87.5293 191.359 87.6816C190.836 87.834 190.213 87.9121 189.49 87.916C188.767 87.9121 188.144 87.834 187.621 87.6816C187.097 87.5293 186.695 87.3066 186.414 87.0137C186.136 86.7246 185.998 86.377 185.998 85.9707C185.998 85.5645 186.136 85.2168 186.414 84.9277C186.695 84.6387 187.097 84.418 187.621 84.2656C188.144 84.1133 188.767 84.0371 189.49 84.0371ZM189.49 84.752C188.963 84.752 188.504 84.8008 188.113 84.8984C187.722 84.9961 187.424 85.1367 187.217 85.3203C187.009 85.5039 186.908 85.7207 186.912 85.9707C186.908 86.2168 187.009 86.4316 187.217 86.6152C187.424 86.7949 187.722 86.9336 188.113 87.0312C188.504 87.1289 188.963 87.1777 189.49 87.1777C190.017 87.1777 190.474 87.1289 190.861 87.0312C191.252 86.9336 191.55 86.7949 191.758 86.6152C191.965 86.4316 192.068 86.2168 192.068 85.9707C192.068 85.7207 191.965 85.5039 191.758 85.3203C191.55 85.1367 191.252 84.9961 190.861 84.8984C190.474 84.8008 190.017 84.752 189.49 84.752ZM187.931 79.4082C187.931 79.8574 188.039 80.293 188.254 80.7148C188.468 81.1328 188.769 81.5059 189.156 81.834C189.547 82.1582 189.994 82.4082 190.498 82.584L190.017 83.3223C189.435 83.1113 188.924 82.7988 188.482 82.3848C188.045 81.9707 187.715 81.4922 187.492 80.9492C187.265 81.5586 186.92 82.0977 186.455 82.5664C185.994 83.0312 185.455 83.3809 184.838 83.6152L184.357 82.877C184.869 82.6895 185.326 82.4199 185.728 82.0684C186.131 81.7129 186.443 81.3047 186.666 80.8438C186.892 80.3828 187.006 79.9082 187.006 79.4199V79.0332H184.65V78.2598H190.263V79.0332H187.931V79.4082ZM207.232 86.5801H197.693V85.8184H201.982V83.5684H198.818V78.2363H199.744V80.123H205.158V78.2363H206.06V83.5684H202.884V85.8184H207.232V86.5801ZM205.158 82.8184V80.873H199.744V82.8184H205.158ZM216.677 87.916H215.752V77.498H216.677V87.916ZM213.595 78.6348C213.588 80.209 213.189 81.623 212.4 82.877C211.611 84.127 210.377 85.1543 208.697 85.959L208.193 85.209C209.584 84.5488 210.648 83.7285 211.386 82.748C212.129 81.7676 212.552 80.6465 212.658 79.3848H208.674V78.6348H213.595Z" fill="#E8E4DC"/>
</g>
</g>
</g>
<defs>
<filter id="filter0_dd_43_75" x="0" y="0" width="117.173" height="117.453" filterUnits="userSpaceOnUse" color-interpolation-filters="sRGB">
<feFlood flood-opacity="0" result="BackgroundImageFix"/>
<feColorMatrix in="SourceAlpha" type="matrix" values="0 0 0 0 0 0 0 0 0 0 0 0 0 0 0 0 0 0 127 0" result="hardAlpha"/>
<feOffset dy="2"/>
<feGaussianBlur stdDeviation="4"/>
<feColorMatrix type="matrix" values="0 0 0 0 0 0 0 0 0 0 0 0 0 0 0 0 0 0 0.3 0"/>
<feBlend mode="normal" in2="BackgroundImageFix" result="effect1_dropShadow_43_75"/>
<feColorMatrix in="SourceAlpha" type="matrix" values="0 0 0 0 0 0 0 0 0 0 0 0 0 0 0 0 0 0 127 0" result="hardAlpha"/>
<feOffset dy="1"/>
<feGaussianBlur stdDeviation="1"/>
<feColorMatrix type="matrix" values="0 0 0 0 0 0 0 0 0 0 0 0 0 0 0 0 0 0 0.15 0"/>
<feBlend mode="normal" in2="effect1_dropShadow_43_75" result="effect2_dropShadow_43_75"/>
<feBlend mode="normal" in="SourceGraphic" in2="effect2_dropShadow_43_75" result="shape"/>
</filter>
<filter id="filter1_dd_43_75" x="137.173" y="0" width="117.185" height="117.453" filterUnits="userSpaceOnUse" color-interpolation-filters="sRGB">
<feFlood flood-opacity="0" result="BackgroundImageFix"/>
<feColorMatrix in="SourceAlpha" type="matrix" values="0 0 0 0 0 0 0 0 0 0 0 0 0 0 0 0 0 0 127 0" result="hardAlpha"/>
<feOffset dy="2"/>
<feGaussianBlur stdDeviation="4"/>
<feColorMatrix type="matrix" values="0 0 0 0 0 0 0 0 0 0 0 0 0 0 0 0 0 0 0.3 0"/>
<feBlend mode="normal" in2="BackgroundImageFix" result="effect1_dropShadow_43_75"/>
<feColorMatrix in="SourceAlpha" type="matrix" values="0 0 0 0 0 0 0 0 0 0 0 0 0 0 0 0 0 0 127 0" result="hardAlpha"/>
<feOffset dy="1"/>
<feGaussianBlur stdDeviation="1"/>
<feColorMatrix type="matrix" values="0 0 0 0 0 0 0 0 0 0 0 0 0 0 0 0 0 0 0.15 0"/>
<feBlend mode="normal" in2="effect1_dropShadow_43_75" result="effect2_dropShadow_43_75"/>
<feBlend mode="normal" in="SourceGraphic" in2="effect2_dropShadow_43_75" result="shape"/>
</filter>
<clipPath id="clip0_43_75">
<rect width="19.9985" height="19.9985" fill="white" transform="translate(185.766 34.9814)"/>
</clipPath>
</defs>
</svg>
