<svg width="336" height="305" viewBox="0 0 336 305" fill="none" xmlns="http://www.w3.org/2000/svg">
<g id="Property 1=Light">
<g id="Container">
<g id="Heading 3">
<path id="&#236;&#181;&#156;&#234;&#183;&#188; &#236;&#177;&#132;&#237;&#140;&#133;" d="M10.7852 16.7566C12.3086 16.6687 13.668 16.5369 14.8633 16.3611L15.0215 17.8025C13.4453 18.0896 11.834 18.2771 10.1875 18.365C8.54688 18.447 6.76562 18.488 4.84375 18.488L4.59766 16.906C6.44336 16.8943 7.85547 16.8738 8.83398 16.8445V14.1814H10.7852V16.7566ZM14.2129 9.20679H10.8115C10.8467 9.78101 11.0166 10.323 11.3213 10.8328C11.626 11.3367 12.0625 11.782 12.6309 12.1687C13.1992 12.5496 13.873 12.8396 14.6523 13.0388L13.7559 14.5681C12.8301 14.3162 12.0332 13.9294 11.3652 13.408C10.6973 12.8865 10.1787 12.2654 9.80957 11.5447C9.45801 12.3064 8.94824 12.9597 8.28027 13.5046C7.61816 14.0437 6.82422 14.4392 5.89844 14.6912L4.9668 13.2146C5.75195 12.9978 6.42285 12.6902 6.97949 12.2917C7.54199 11.8933 7.97559 11.4304 8.28027 10.9031C8.58496 10.3757 8.75488 9.8103 8.79004 9.20679H5.44141V7.62476H8.83398V5.81421H10.7852V7.62476H14.2129V9.20679ZM17.7637 21.5818H15.8125V5.67358H17.7637V21.5818ZM32.5281 7.90601C32.5281 8.83179 32.5076 9.65503 32.4666 10.3757C32.4256 11.0964 32.326 11.9021 32.1678 12.7927H34.3035V14.3923H19.784V12.7927H30.1814C30.3455 11.9314 30.451 11.1492 30.4979 10.446C30.5506 9.74292 30.577 8.98413 30.577 8.16968H21.577V6.58765H32.5281V7.90601ZM32.9852 21.2302H21.6648V15.9041H23.5984V19.6482H32.9852V21.2302ZM43.8637 10.5076C43.8637 11.3455 43.9809 12.157 44.2152 12.9421C44.4496 13.7273 44.81 14.4392 45.2963 15.0779C45.7885 15.7166 46.3949 16.2263 47.1156 16.6072L46.0082 18.0486C45.2875 17.6736 44.6723 17.158 44.1625 16.5017C43.6586 15.8455 43.2572 15.0837 42.9584 14.2166C42.6713 15.1482 42.2699 15.9773 41.7543 16.7039C41.2445 17.4246 40.6293 17.99 39.9086 18.4001L38.7836 16.9587C39.4984 16.5427 40.0961 15.9919 40.5766 15.3064C41.0629 14.6208 41.4232 13.865 41.6576 13.0388C41.8979 12.2126 42.018 11.3689 42.018 10.5076V10.0681H39.2406V8.46851H42.018V6.23608H43.8637V8.46851H46.6059V10.0681H43.8637V10.5076ZM52.7934 21.5642H50.9301V13.5134H49.2953V20.7908H47.4496V5.95483H49.2953V11.8962H50.9301V5.67358H52.7934V21.5642ZM62.8293 8.36304H57.134V9.87476H62.3723V11.4041H57.134V12.9333H58.1184C59.4016 12.9333 60.4826 12.907 61.3615 12.8542C62.2463 12.8015 63.1281 12.699 64.007 12.5466L64.2004 14.0935C63.1984 14.2576 62.1906 14.3689 61.177 14.4275C60.1633 14.4861 58.9035 14.5154 57.3977 14.5154H56.5012H55.1477V6.81616H62.8293V8.36304ZM67.5051 15.3767H65.5363V5.69116H67.5051V15.3767ZM62.1437 15.6052C63.257 15.6052 64.2209 15.7224 65.0354 15.9568C65.8498 16.1912 66.4768 16.531 66.9162 16.9763C67.3557 17.4216 67.5754 17.9548 67.5754 18.5759C67.5754 19.197 67.3557 19.7302 66.9162 20.1755C66.4768 20.6208 65.8498 20.9607 65.0354 21.1951C64.2209 21.4294 63.257 21.5466 62.1437 21.5466C61.0187 21.5466 60.0461 21.4294 59.2258 21.1951C58.4113 20.9607 57.7873 20.6208 57.3537 20.1755C56.9201 19.7302 56.7062 19.197 56.7121 18.5759C56.7062 17.9548 56.9201 17.4216 57.3537 16.9763C57.7873 16.531 58.4113 16.1912 59.2258 15.9568C60.0461 15.7224 61.0187 15.6052 62.1437 15.6052ZM62.1437 17.1169C61.0187 17.1169 60.1545 17.2429 59.551 17.4949C58.9475 17.7468 58.6516 18.1072 58.6633 18.5759C58.6574 19.0505 58.9533 19.4138 59.551 19.6658C60.1486 19.9119 61.0129 20.0349 62.1437 20.0349C63.2512 20.0349 64.1066 19.9089 64.7102 19.657C65.3195 19.405 65.6242 19.0447 65.6242 18.5759C65.6242 18.113 65.3195 17.7556 64.7102 17.5037C64.1008 17.2458 63.2453 17.1169 62.1437 17.1169Z" fill="#4A4A4A"/>
</g>
<g id="Link">
<path id="&#236;&#160;&#132;&#236;&#178;&#180;&#235;&#179;&#180;&#234;&#184;&#176;" d="M293.095 16.3806H292.015V11.7185H289.513V10.8298H292.015V7.46655H293.095V16.3806ZM293.437 19.3474H285.288V15.574H286.368V18.4451H293.437V19.3474ZM287.243 9.96851C287.243 10.488 287.368 10.9962 287.619 11.4929C287.874 11.9851 288.228 12.4226 288.679 12.8054C289.134 13.1882 289.654 13.4776 290.237 13.6736L289.677 14.5349C288.998 14.2888 288.401 13.9242 287.886 13.4412C287.375 12.9535 286.988 12.393 286.724 11.7595C286.459 12.4613 286.058 13.0811 285.521 13.6189C284.983 14.1521 284.354 14.5531 283.634 14.822L283.073 13.947C283.666 13.7374 284.197 13.432 284.666 13.031C285.135 12.6254 285.502 12.1583 285.767 11.6296C286.031 11.0964 286.163 10.5427 286.163 9.96851V9.3396H283.415V8.45093H289.964V9.3396H287.243V9.96851ZM298.673 11.199C298.673 11.8507 298.78 12.4932 298.994 13.1267C299.208 13.7602 299.516 14.3321 299.917 14.8425C300.318 15.3484 300.787 15.7472 301.325 16.0388L300.71 16.8455C300.118 16.5264 299.605 16.073 299.172 15.4851C298.739 14.8927 298.409 14.2205 298.181 13.4685C297.957 14.266 297.629 14.9838 297.196 15.6218C296.768 16.2598 296.257 16.7589 295.665 17.1189L295.022 16.2986C295.56 15.9887 296.027 15.5626 296.424 15.0203C296.82 14.4779 297.123 13.8741 297.333 13.2087C297.547 12.5434 297.657 11.8735 297.661 11.199V10.5974H295.351V9.70874H297.661V7.90405H298.687V9.70874H300.956V10.5974H298.673V11.199ZM305.509 19.6072H304.483V7.45288H305.509V19.6072ZM303.048 18.9783H302.036V13.1677H300.122V12.2517H302.036V7.75366H303.048V18.9783ZM318.347 18.0486H307.218V17.1599H312.222V14.5349H308.53V8.31421H309.61V10.5154H315.927V8.31421H316.979V14.5349H313.274V17.1599H318.347V18.0486ZM315.927 13.6599V11.3904H309.61V13.6599H315.927ZM329.366 19.6072H328.286V7.45288H329.366V19.6072ZM325.771 8.77905C325.761 10.6156 325.297 12.2654 324.376 13.7283C323.455 15.1866 322.015 16.3852 320.056 17.324L319.468 16.449C321.09 15.6788 322.332 14.7218 323.193 13.5779C324.059 12.434 324.554 11.1261 324.677 9.65405H320.028V8.77905H325.771Z" fill="#4A7C59"/>
</g>
</g>
<g id="Container_2">
<g id="Link_2" filter="url(#filter0_d_48_276)">
<path d="M4 54.9917C4 46.1552 11.1634 38.9917 20 38.9917H315.526C324.363 38.9917 331.526 46.1551 331.526 54.9917V104.458C331.526 113.295 324.363 120.458 315.526 120.458H20C11.1634 120.458 4 113.295 4 104.458V54.9917Z" fill="#FAFAF7"/>
<path d="M20 39.4917H315.526C324.087 39.4917 331.026 46.4313 331.026 54.9917V104.458C331.026 113.019 324.087 119.958 315.526 119.958H20C11.4396 119.958 4.50008 113.019 4.5 104.458V54.9917C4.50001 46.5652 11.2242 39.7089 19.5996 39.4966L20 39.4917Z" stroke="#E2DDD5"/>
<g id="Home">
<g id="Container_3">
<path d="M20.7375 67.7292C20.7375 61.1018 26.1101 55.7292 32.7375 55.7292H40.7164C47.3438 55.7292 52.7164 61.1018 52.7164 67.7292V75.7081C52.7164 82.3355 47.3438 87.7081 40.7164 87.7081H32.7375C26.1101 87.7081 20.7375 82.3355 20.7375 75.7081V67.7292Z" fill="#C8DEC9"/>
<g id="Icon">
<path id="Vector" d="M42.719 73.7227C42.719 74.0761 42.5787 74.415 42.329 74.6649C42.0793 74.9148 41.7406 75.0552 41.3874 75.0552H33.398L30.7349 77.7201V67.0605C30.7349 66.7071 30.8752 66.3682 31.1249 66.1183C31.3746 65.8684 31.7133 65.728 32.0664 65.728H41.3874C41.7406 65.728 42.0793 65.8684 42.329 66.1183C42.5787 66.3682 42.719 66.7071 42.719 67.0605V73.7227Z" stroke="#6A9E7A" stroke-width="1.33245" stroke-linecap="round" stroke-linejoin="round"/>
</g>
</g>
<g id="Container_4">
<g id="Container_5">
<g id="Heading 4" clip-path="url(#clip0_48_276)">
<path id="&#236;&#160;&#156;&#236;&#163;&#188;&#235;&#143;&#132; 3&#236;&#157;&#188; &#236;&#151;&#172;&#237;&#150;&#137;" d="M77.146 74.491H75.9741V60.6003H77.146V74.491ZM74.3335 73.7722H73.1772V66.616H70.8335V65.616H73.1772V60.9441H74.3335V73.7722ZM69.3491 64.5691C69.3491 65.3764 69.4663 66.1654 69.7007 66.9363C69.9351 67.7019 70.2788 68.3946 70.7319 69.0144C71.1851 69.629 71.7241 70.116 72.3491 70.4753L71.5991 71.3816C70.9272 70.9806 70.3517 70.4259 69.8726 69.7175C69.3934 69.004 69.0288 68.1967 68.7788 67.2957C68.5236 68.2696 68.146 69.142 67.646 69.9128C67.1512 70.6837 66.5627 71.2826 65.8804 71.7097L65.0991 70.7878C65.7293 70.4128 66.2762 69.8998 66.7397 69.2488C67.2033 68.5977 67.5549 67.8686 67.7944 67.0613C68.0392 66.2488 68.1616 65.4181 68.1616 64.5691V63.2566H65.4897V62.241H71.896V63.2566H69.3491V64.5691ZM86.1147 62.5691C86.1095 63.1628 86.3413 63.7306 86.8101 64.2722C87.2788 64.8087 87.8908 65.2618 88.646 65.6316C89.4012 66.0014 90.1877 66.2462 91.0054 66.366L90.5522 67.3347C89.8179 67.2097 89.1095 67.0014 88.4272 66.7097C87.7502 66.4181 87.1486 66.0535 86.6226 65.616C86.0965 65.1733 85.6981 64.6811 85.4272 64.1394C85.1564 64.6811 84.758 65.1707 84.2319 65.6082C83.7059 66.0457 83.1043 66.4128 82.4272 66.7097C81.7554 67.0014 81.0575 67.2097 80.3335 67.3347L79.8491 66.366C80.6616 66.2462 81.4455 66.0014 82.2007 65.6316C82.9559 65.2618 83.5679 64.8087 84.0366 64.2722C84.5054 63.7306 84.7397 63.1628 84.7397 62.5691V62.4753H80.2866V61.4753H90.5522V62.4753H86.1147V62.5691ZM91.7554 69.5378H86.0054V74.491H84.8022V69.5378H79.0991V68.5222H91.7554V69.5378ZM104.146 68.116H99.8491V71.7097H105.646V72.741H92.9272V71.7097H98.646V68.116H94.5522V61.741H104.005V62.741H95.7866V67.116H104.146V68.116ZM115.177 73.3816C114.432 73.3816 113.766 73.2566 113.177 73.0066C112.594 72.7566 112.13 72.405 111.787 71.9519C111.448 71.4988 111.266 70.9753 111.24 70.3816H112.662C112.688 70.7306 112.813 71.0378 113.037 71.3035C113.266 71.5691 113.565 71.7748 113.935 71.9207C114.305 72.0613 114.714 72.1316 115.162 72.1316C115.651 72.1316 116.091 72.0483 116.482 71.8816C116.878 71.7097 117.185 71.4753 117.404 71.1785C117.628 70.8764 117.74 70.5326 117.74 70.1472C117.74 69.7306 117.63 69.3634 117.412 69.0457C117.198 68.7279 116.886 68.4806 116.474 68.3035C116.063 68.1264 115.568 68.0378 114.99 68.0378H114.068V66.8035H114.99C115.443 66.8035 115.847 66.7227 116.201 66.5613C116.555 66.3998 116.828 66.1733 117.021 65.8816C117.219 65.5899 117.318 65.2514 117.318 64.866C117.318 64.4962 117.229 64.1681 117.052 63.8816C116.88 63.5951 116.636 63.3738 116.318 63.2175C116 63.0561 115.63 62.9753 115.208 62.9753C114.802 62.9753 114.422 63.0483 114.068 63.1941C113.714 63.3399 113.425 63.5483 113.201 63.8191C112.977 64.0847 112.854 64.3972 112.833 64.7566H111.474C111.5 64.1733 111.682 63.655 112.021 63.2019C112.36 62.7436 112.81 62.3894 113.373 62.1394C113.935 61.8842 114.552 61.7566 115.224 61.7566C115.922 61.7566 116.531 61.8946 117.052 62.1707C117.578 62.4415 117.982 62.8087 118.263 63.2722C118.544 63.7358 118.682 64.241 118.677 64.7878C118.682 65.4233 118.513 65.9675 118.169 66.4207C117.826 66.8738 117.354 67.1837 116.755 67.3503V67.4285C117.24 67.5066 117.659 67.6707 118.013 67.9207C118.373 68.1654 118.646 68.4806 118.833 68.866C119.026 69.2462 119.12 69.6733 119.115 70.1472C119.12 70.7566 118.951 71.3087 118.607 71.8035C118.263 72.2931 117.789 72.6785 117.185 72.9597C116.586 73.241 115.917 73.3816 115.177 73.3816ZM124.583 61.116C125.271 61.1212 125.886 61.254 126.427 61.5144C126.974 61.7748 127.401 62.1394 127.708 62.6082C128.021 63.0717 128.177 63.6003 128.177 64.1941C128.177 64.7878 128.021 65.3191 127.708 65.7878C127.401 66.2514 126.974 66.6134 126.427 66.8738C125.886 67.129 125.271 67.2566 124.583 67.2566C123.886 67.2566 123.263 67.129 122.716 66.8738C122.169 66.6134 121.742 66.2514 121.435 65.7878C121.128 65.3191 120.974 64.7878 120.974 64.1941C120.974 63.6003 121.128 63.0717 121.435 62.6082C121.742 62.1394 122.169 61.7748 122.716 61.5144C123.263 61.254 123.886 61.1212 124.583 61.116ZM124.583 62.1472C124.125 62.1472 123.711 62.2358 123.341 62.4128C122.977 62.5847 122.69 62.8269 122.482 63.1394C122.274 63.4467 122.172 63.7983 122.177 64.1941C122.172 64.5951 122.274 64.9519 122.482 65.2644C122.69 65.5769 122.977 65.8217 123.341 65.9988C123.711 66.1707 124.125 66.2566 124.583 66.2566C125.037 66.2566 125.445 66.1707 125.81 65.9988C126.18 65.8217 126.469 65.5769 126.677 65.2644C126.886 64.9519 126.99 64.5951 126.99 64.1941C126.99 63.7983 126.886 63.4467 126.677 63.1394C126.469 62.8269 126.18 62.5847 125.81 62.4128C125.445 62.2358 125.037 62.1472 124.583 62.1472ZM132.115 67.741H130.896V60.6003H132.115V67.741ZM132.115 71.7566H124.318V73.3191H132.615V74.3035H123.115V70.8347H130.896V69.3972H123.083V68.4128H132.115V71.7566ZM142.224 61.6785C142.86 61.6837 143.427 61.8634 143.927 62.2175C144.427 62.5665 144.828 63.0639 145.13 63.7097H148.787V60.6003H150.005V74.5222H148.787V69.1316H145.216C144.925 69.8399 144.518 70.3868 143.998 70.7722C143.482 71.1576 142.891 71.3503 142.224 71.3503C141.547 71.3503 140.943 71.1524 140.412 70.7566C139.886 70.3608 139.474 69.7983 139.177 69.0691C138.886 68.3399 138.74 67.491 138.74 66.5222C138.74 65.5535 138.886 64.7045 139.177 63.9753C139.474 63.2462 139.886 62.6837 140.412 62.2878C140.938 61.8868 141.542 61.6837 142.224 61.6785ZM142.224 62.7722C141.771 62.7774 141.367 62.9363 141.013 63.2488C140.664 63.5561 140.393 63.9936 140.201 64.5613C140.008 65.1238 139.912 65.7774 139.912 66.5222C139.912 67.267 140.008 67.9233 140.201 68.491C140.393 69.0535 140.664 69.4884 141.013 69.7957C141.367 70.1029 141.771 70.2566 142.224 70.2566C142.672 70.2566 143.07 70.1029 143.419 69.7957C143.774 69.4884 144.047 69.0535 144.24 68.491C144.438 67.9233 144.537 67.267 144.537 66.5222C144.537 65.7774 144.438 65.1238 144.24 64.5613C144.047 63.9936 143.776 63.5561 143.427 63.2488C143.078 62.9363 142.677 62.7774 142.224 62.7722ZM145.49 64.741C145.625 65.3243 145.693 65.9181 145.693 66.5222C145.693 67.0639 145.638 67.5951 145.529 68.116H148.787V64.741H145.49ZM164.115 69.3972H162.943V65.4128H161.083V68.8972H159.927V60.8816H161.083V64.3972H162.943V60.6003H164.115V69.3972ZM159.365 63.2566H152.24V62.2722H155.208V60.7097H156.427V62.2722H159.365V63.2566ZM155.818 64.0066C156.401 64.0066 156.917 64.1056 157.365 64.3035C157.818 64.4962 158.169 64.7722 158.419 65.1316C158.669 65.4858 158.797 65.9024 158.802 66.3816C158.797 66.8503 158.669 67.2644 158.419 67.6238C158.169 67.9779 157.818 68.254 157.365 68.4519C156.917 68.6446 156.401 68.741 155.818 68.741C155.24 68.741 154.724 68.6446 154.271 68.4519C153.818 68.254 153.466 67.9779 153.216 67.6238C152.966 67.2644 152.844 66.8503 152.849 66.3816C152.844 65.9076 152.966 65.491 153.216 65.1316C153.466 64.7722 153.815 64.4962 154.263 64.3035C154.716 64.1056 155.235 64.0066 155.818 64.0066ZM155.818 64.9128C155.453 64.9128 155.128 64.9753 154.841 65.1003C154.56 65.2201 154.339 65.392 154.177 65.616C154.021 65.8399 153.943 66.0951 153.943 66.3816C153.943 66.6628 154.021 66.9128 154.177 67.1316C154.339 67.3503 154.56 67.5196 154.841 67.6394C155.128 67.7592 155.453 67.8191 155.818 67.8191C156.182 67.8191 156.505 67.7592 156.787 67.6394C157.073 67.5196 157.294 67.3503 157.451 67.1316C157.612 66.9128 157.693 66.6628 157.693 66.3816C157.693 66.0951 157.612 65.8399 157.451 65.616C157.294 65.392 157.073 65.2201 156.787 65.1003C156.505 64.9753 156.182 64.9128 155.818 64.9128ZM159.521 69.6316C160.495 69.6316 161.331 69.7279 162.029 69.9207C162.727 70.1082 163.261 70.3842 163.63 70.7488C164.005 71.1134 164.193 71.5535 164.193 72.0691C164.193 72.5691 164.005 72.9988 163.63 73.3582C163.261 73.7175 162.724 73.991 162.021 74.1785C161.323 74.366 160.49 74.4597 159.521 74.4597C158.552 74.4597 157.716 74.366 157.013 74.1785C156.315 73.991 155.781 73.7175 155.412 73.3582C155.042 72.9988 154.86 72.5691 154.865 72.0691C154.86 71.5535 155.042 71.1134 155.412 70.7488C155.781 70.3842 156.315 70.1082 157.013 69.9207C157.711 69.7279 158.547 69.6316 159.521 69.6316ZM159.521 70.6003C158.802 70.5951 158.185 70.6498 157.669 70.7644C157.154 70.8738 156.758 71.0404 156.482 71.2644C156.211 71.4884 156.078 71.7566 156.083 72.0691C156.078 72.3712 156.211 72.629 156.482 72.8425C156.758 73.0561 157.154 73.2201 157.669 73.3347C158.19 73.4493 158.807 73.5066 159.521 73.5066C160.235 73.5066 160.849 73.4493 161.365 73.3347C161.88 73.2201 162.276 73.0561 162.552 72.8425C162.828 72.629 162.969 72.3712 162.974 72.0691C162.969 71.5951 162.662 71.2306 162.052 70.9753C161.448 70.7149 160.604 70.5899 159.521 70.6003Z" fill="#1A1A1A"/>
</g>
<g id="Text">
<path id="10&#235;&#182;&#132; &#236;&#160;&#132;" d="M277.151 72.7266H276.085V65.3438H276.038L273.975 66.7148V65.6484L276.085 64.2422H277.151V72.7266ZM282.39 72.8438C281.765 72.8438 281.23 72.6738 280.785 72.334C280.343 71.9941 280.005 71.498 279.771 70.8457C279.541 70.1934 279.425 69.4062 279.425 68.4844C279.425 67.5742 279.543 66.793 279.777 66.1406C280.011 65.4844 280.351 64.9844 280.796 64.6406C281.242 64.2969 281.773 64.125 282.39 64.125C283.007 64.125 283.539 64.2969 283.984 64.6406C284.429 64.9844 284.769 65.4844 285.003 66.1406C285.238 66.793 285.355 67.5742 285.355 68.4844C285.355 69.4062 285.238 70.1934 285.003 70.8457C284.773 71.498 284.435 71.9941 283.99 72.334C283.544 72.6738 283.011 72.8438 282.39 72.8438ZM282.39 71.9062C282.796 71.9062 283.144 71.7734 283.433 71.5078C283.722 71.2422 283.943 70.8535 284.095 70.3418C284.248 69.8301 284.324 69.2109 284.324 68.4844C284.324 67.7578 284.248 67.1367 284.095 66.6211C283.943 66.1055 283.722 65.7129 283.433 65.4434C283.144 65.1738 282.796 65.0391 282.39 65.0391C281.984 65.0391 281.634 65.1738 281.341 65.4434C281.052 65.7129 280.83 66.1055 280.673 66.6211C280.521 67.1367 280.445 67.7578 280.445 68.4844C280.445 69.2109 280.521 69.8301 280.673 70.3418C280.826 70.8535 281.046 71.2422 281.335 71.5078C281.628 71.7734 281.98 71.9062 282.39 71.9062ZM296.114 69.5273H291.871V71.5664H290.957V69.5273H286.575V68.7773H296.114V69.5273ZM295.047 73.4531H287.793V70.6055H288.707V72.6797H295.047V73.4531ZM288.766 64.9336H293.922V63.5977H294.836V67.7578H287.852V63.5977H288.766V64.9336ZM293.922 67.0078V65.6367H288.766V67.0078H293.922ZM309.006 70.9102H308.08V66.9141H305.935V66.1523H308.08V63.2695H309.006V70.9102ZM309.299 73.4531H302.314V70.2188H303.24V72.6797H309.299V73.4531ZM303.99 65.4141C303.99 65.8594 304.098 66.2949 304.312 66.7207C304.531 67.1426 304.834 67.5176 305.221 67.8457C305.611 68.1738 306.057 68.4219 306.557 68.5898L306.076 69.3281C305.494 69.1172 304.982 68.8047 304.541 68.3906C304.103 67.9727 303.771 67.4922 303.545 66.9492C303.318 67.5508 302.975 68.082 302.514 68.543C302.053 69 301.514 69.3438 300.896 69.5742L300.416 68.8242C300.924 68.6445 301.379 68.3828 301.781 68.0391C302.184 67.6914 302.498 67.291 302.725 66.8379C302.951 66.3809 303.064 65.9062 303.064 65.4141V64.875H300.709V64.1133H306.322V64.875H303.99V65.4141Z" fill="#888882"/>
</g>
</g>
<g id="Paragraph" clip-path="url(#clip1_48_276)">
<path id="3&#236;&#157;&#188; &#236;&#157;&#188;&#236;&#160;&#149;&#236;&#156;&#188;&#235;&#161;&#156; &#236;&#182;&#148;&#236;&#178;&#156;&#237;&#149;&#180;&#235;&#147;&#156;&#235;&#160;&#184;&#236;&#138;&#181;&#235;&#139;&#136;&#235;&#139;&#164;" d="M69.0562 99.8591C68.4045 99.8591 67.8211 99.7498 67.3062 99.531C66.7957 99.3123 66.3901 99.0046 66.0894 98.6082C65.7931 98.2117 65.6336 97.7537 65.6108 97.2341H66.855C66.8778 97.5395 66.9871 97.8083 67.1831 98.0408C67.3836 98.2732 67.6457 98.4532 67.9692 98.5808C68.2928 98.7039 68.6506 98.7654 69.0425 98.7654C69.4709 98.7654 69.856 98.6925 70.1978 98.5466C70.5441 98.3962 70.813 98.1912 71.0044 97.9314C71.2004 97.6671 71.2983 97.3663 71.2983 97.0291C71.2983 96.6645 71.2026 96.3432 71.0112 96.0652C70.8244 95.7872 70.5509 95.5707 70.1909 95.4158C69.8309 95.2608 69.3979 95.1833 68.8921 95.1833H68.0854V94.1033H68.8921C69.2886 94.1033 69.6418 94.0326 69.9517 93.8914C70.2616 93.7501 70.5008 93.5518 70.6694 93.2966C70.8426 93.0414 70.9292 92.7452 70.9292 92.408C70.9292 92.0844 70.8517 91.7973 70.6968 91.5466C70.5464 91.296 70.3322 91.1023 70.0542 90.9656C69.7762 90.8243 69.4526 90.7537 69.0835 90.7537C68.728 90.7537 68.3953 90.8175 68.0854 90.9451C67.7756 91.0727 67.5226 91.255 67.3267 91.4919C67.1307 91.7244 67.0236 91.9978 67.0054 92.3123H65.8159C65.8387 91.8018 65.9982 91.3484 66.2944 90.9519C66.5907 90.5509 66.9849 90.241 67.4771 90.0222C67.9692 89.7989 68.5093 89.6873 69.0972 89.6873C69.7078 89.6873 70.241 89.808 70.6968 90.0496C71.1571 90.2865 71.5103 90.6078 71.7563 91.0134C72.0024 91.419 72.1232 91.8611 72.1187 92.3396C72.1232 92.8956 71.9751 93.3718 71.6743 93.7683C71.3735 94.1648 70.9611 94.436 70.437 94.5818V94.6501C70.8608 94.7185 71.2277 94.8621 71.5376 95.0808C71.8521 95.295 72.0913 95.5707 72.2554 95.908C72.424 96.2406 72.506 96.6143 72.5015 97.0291C72.506 97.5623 72.3579 98.0453 72.0571 98.4783C71.7563 98.9067 71.3416 99.2439 70.813 99.49C70.2889 99.7361 69.7033 99.8591 69.0562 99.8591ZM77.2866 89.1267C77.8882 89.1313 78.4259 89.2475 78.8999 89.4753C79.3784 89.7032 79.7521 90.0222 80.021 90.4324C80.2944 90.838 80.4312 91.3005 80.4312 91.8201C80.4312 92.3396 80.2944 92.8044 80.021 93.2146C79.7521 93.6202 79.3784 93.9369 78.8999 94.1648C78.4259 94.3881 77.8882 94.4998 77.2866 94.4998C76.6759 94.4998 76.1313 94.3881 75.6528 94.1648C75.1743 93.9369 74.8006 93.6202 74.5317 93.2146C74.2629 92.8044 74.1284 92.3396 74.1284 91.8201C74.1284 91.3005 74.2629 90.838 74.5317 90.4324C74.8006 90.0222 75.1743 89.7032 75.6528 89.4753C76.1313 89.2475 76.6759 89.1313 77.2866 89.1267ZM77.2866 90.0291C76.8856 90.0291 76.5233 90.1065 76.1997 90.2615C75.8807 90.4119 75.63 90.6238 75.4478 90.8972C75.2655 91.1661 75.1766 91.4737 75.1812 91.8201C75.1766 92.171 75.2655 92.4832 75.4478 92.7566C75.63 93.03 75.8807 93.2442 76.1997 93.3992C76.5233 93.5496 76.8856 93.6248 77.2866 93.6248C77.6831 93.6248 78.0409 93.5496 78.3599 93.3992C78.6834 93.2442 78.9364 93.03 79.1187 92.7566C79.3009 92.4832 79.3921 92.171 79.3921 91.8201C79.3921 91.4737 79.3009 91.1661 79.1187 90.8972C78.9364 90.6238 78.6834 90.4119 78.3599 90.2615C78.0409 90.1065 77.6831 90.0291 77.2866 90.0291ZM83.8765 94.9236H82.8101V88.6755H83.8765V94.9236ZM83.8765 98.4373H77.0542V99.8044H84.314V100.666H76.0015V97.6306H82.8101V96.3728H75.9741V95.5115H83.8765V98.4373ZM92.8999 89.1267C93.5015 89.1313 94.0392 89.2475 94.5132 89.4753C94.9917 89.7032 95.3654 90.0222 95.6343 90.4324C95.9077 90.838 96.0444 91.3005 96.0444 91.8201C96.0444 92.3396 95.9077 92.8044 95.6343 93.2146C95.3654 93.6202 94.9917 93.9369 94.5132 94.1648C94.0392 94.3881 93.5015 94.4998 92.8999 94.4998C92.2892 94.4998 91.7446 94.3881 91.2661 94.1648C90.7876 93.9369 90.4139 93.6202 90.145 93.2146C89.8761 92.8044 89.7417 92.3396 89.7417 91.8201C89.7417 91.3005 89.8761 90.838 90.145 90.4324C90.4139 90.0222 90.7876 89.7032 91.2661 89.4753C91.7446 89.2475 92.2892 89.1313 92.8999 89.1267ZM92.8999 90.0291C92.4989 90.0291 92.1366 90.1065 91.813 90.2615C91.494 90.4119 91.2433 90.6238 91.061 90.8972C90.8787 91.1661 90.7899 91.4737 90.7944 91.8201C90.7899 92.171 90.8787 92.4832 91.061 92.7566C91.2433 93.03 91.494 93.2442 91.813 93.3992C92.1366 93.5496 92.4989 93.6248 92.8999 93.6248C93.2964 93.6248 93.6541 93.5496 93.9731 93.3992C94.2967 93.2442 94.5496 93.03 94.7319 92.7566C94.9142 92.4832 95.0054 92.171 95.0054 91.8201C95.0054 91.4737 94.9142 91.1661 94.7319 90.8972C94.5496 90.6238 94.2967 90.4119 93.9731 90.2615C93.6541 90.1065 93.2964 90.0291 92.8999 90.0291ZM99.4897 94.9236H98.4233V88.6755H99.4897V94.9236ZM99.4897 98.4373H92.6675V99.8044H99.9272V100.666H91.6147V97.6306H98.4233V96.3728H91.5874V95.5115H99.4897V98.4373ZM111.63 95.9216H110.55V92.7361H108.103V91.8474H110.55V88.6755H111.63V95.9216ZM107.597 96.3044C108.44 96.3044 109.167 96.3933 109.778 96.571C110.389 96.7488 110.856 97.0063 111.179 97.3435C111.507 97.6807 111.671 98.0863 111.671 98.5603C111.671 99.0343 111.507 99.4399 111.179 99.7771C110.856 100.119 110.389 100.379 109.778 100.556C109.167 100.734 108.44 100.825 107.597 100.83C106.754 100.825 106.027 100.734 105.417 100.556C104.806 100.379 104.336 100.119 104.008 99.7771C103.685 99.4399 103.523 99.0343 103.523 98.5603C103.523 98.0863 103.685 97.6807 104.008 97.3435C104.336 97.0063 104.806 96.7488 105.417 96.571C106.027 96.3933 106.754 96.3044 107.597 96.3044ZM107.597 97.1384C106.982 97.1384 106.446 97.1954 105.991 97.3093C105.535 97.4233 105.186 97.5873 104.945 97.8015C104.703 98.0157 104.585 98.2686 104.589 98.5603C104.585 98.8474 104.703 99.0981 104.945 99.3123C105.186 99.5219 105.535 99.6837 105.991 99.7976C106.446 99.9115 106.982 99.9685 107.597 99.9685C108.212 99.9685 108.746 99.9115 109.197 99.7976C109.653 99.6837 110.001 99.5219 110.243 99.3123C110.484 99.0981 110.605 98.8474 110.605 98.5603C110.605 98.2686 110.484 98.0157 110.243 97.8015C110.001 97.5873 109.653 97.4233 109.197 97.3093C108.746 97.1954 108.212 97.1384 107.597 97.1384ZM105.779 90.9041C105.779 91.4281 105.904 91.9363 106.155 92.4285C106.405 92.9161 106.756 93.3513 107.208 93.7341C107.663 94.1124 108.185 94.4041 108.773 94.6091L108.212 95.4705C107.533 95.2244 106.936 94.8598 106.421 94.3767C105.911 93.8936 105.526 93.3354 105.266 92.7019C105.002 93.4128 104.598 94.0417 104.056 94.5886C103.518 95.1309 102.889 95.5388 102.169 95.8123L101.609 94.9509C102.206 94.7322 102.739 94.4177 103.208 94.0076C103.678 93.5929 104.042 93.1166 104.302 92.5789C104.567 92.0411 104.699 91.4874 104.699 90.9177V90.4666H101.951V89.5642H108.5V90.4666H105.779V90.9041ZM119.191 89.4685C120.034 89.4685 120.793 89.6075 121.467 89.8855C122.142 90.1635 122.67 90.5554 123.053 91.0613C123.441 91.5671 123.634 92.1482 123.634 92.8044C123.634 93.4653 123.441 94.0509 123.053 94.5613C122.67 95.0671 122.142 95.4591 121.467 95.7371C120.793 96.0105 120.034 96.1449 119.191 96.1404C118.348 96.1449 117.589 96.0105 116.915 95.7371C116.24 95.4591 115.709 95.0671 115.322 94.5613C114.939 94.0509 114.748 93.4653 114.748 92.8044C114.748 92.1482 114.939 91.5671 115.322 91.0613C115.709 90.5554 116.24 90.1635 116.915 89.8855C117.589 89.6075 118.348 89.4685 119.191 89.4685ZM119.191 90.3435C118.544 90.3389 117.958 90.4415 117.434 90.6511C116.915 90.8608 116.507 91.1547 116.21 91.533C115.914 91.9067 115.768 92.3305 115.773 92.8044C115.768 93.2875 115.914 93.7159 116.21 94.0896C116.507 94.4633 116.915 94.7527 117.434 94.9578C117.958 95.1628 118.544 95.2654 119.191 95.2654C119.833 95.2654 120.412 95.1628 120.927 94.9578C121.447 94.7527 121.855 94.4633 122.151 94.0896C122.447 93.7159 122.595 93.2875 122.595 92.8044C122.595 92.3305 122.447 91.9067 122.151 91.533C121.855 91.1547 121.447 90.8608 120.927 90.6511C120.412 90.4415 119.833 90.3389 119.191 90.3435ZM124.783 99.2166H113.654V98.3142H124.783V99.2166ZM136.882 99.3259H125.753V98.4236H130.757V96.1267H127.148V92.3806H134.421V90.4666H127.121V89.5779H135.474V93.2556H128.214V95.238H135.761V96.1267H131.81V98.4236H136.882V99.3259ZM152.441 96.9333H147.423V100.857H146.371V96.9333H141.367V96.031H152.441V96.9333ZM147.437 91.0818C147.437 91.5694 147.64 92.0365 148.045 92.4832C148.451 92.9252 148.984 93.3012 149.645 93.6111C150.306 93.921 151.001 94.1261 151.73 94.2263L151.333 95.0876C150.705 94.9919 150.098 94.8256 149.515 94.5886C148.936 94.3516 148.419 94.0577 147.963 93.7068C147.512 93.3559 147.161 92.9639 146.911 92.531C146.66 92.9685 146.305 93.3627 145.844 93.7136C145.389 94.0645 144.869 94.3585 144.286 94.5955C143.702 94.8279 143.094 94.9919 142.46 95.0876L142.064 94.2263C142.793 94.1261 143.488 93.9233 144.149 93.6179C144.81 93.308 145.345 92.932 145.755 92.49C146.166 92.0434 146.371 91.574 146.371 91.0818V91.0681H142.447V90.1931H146.371V88.6755H147.423V90.1931H151.375V91.0681H147.437V91.0818ZM157.609 91.5876C157.609 92.1163 157.739 92.6222 157.999 93.1052C158.263 93.5837 158.627 94.003 159.092 94.363C159.562 94.7231 160.097 94.9965 160.699 95.1833L160.166 96.0447C159.459 95.8168 158.839 95.4705 158.306 95.0056C157.778 94.5408 157.376 93.9985 157.103 93.3787C156.839 94.044 156.44 94.6274 155.907 95.1287C155.378 95.6254 154.756 95.9991 154.041 96.2498L153.507 95.4158C154.1 95.2153 154.626 94.9236 155.086 94.5408C155.551 94.1534 155.911 93.7045 156.167 93.1941C156.426 92.6837 156.556 92.1482 156.556 91.5876V91.1912H153.808V90.3162H156.556V88.7576H157.636V90.3162H160.357V91.1912H157.609V91.5876ZM163.542 97.7673H162.462V93.324H159.933V92.4353H162.462V88.6892H163.542V97.7673ZM163.884 100.57H155.736V96.947H156.816V99.6677H163.884V100.57ZM171.636 91.656H165.539V90.781H168.068V89.0447H169.134V90.781H171.636V91.656ZM168.587 92.4763C169.093 92.4763 169.544 92.5948 169.941 92.8318C170.342 93.0642 170.654 93.3901 170.877 93.8093C171.105 94.2286 171.222 94.7048 171.226 95.238C171.222 95.7758 171.105 96.2566 170.877 96.6804C170.654 97.0997 170.342 97.4301 169.941 97.6716C169.544 97.9086 169.093 98.0271 168.587 98.0271C168.086 98.0271 167.637 97.9086 167.241 97.6716C166.844 97.4301 166.534 97.0974 166.311 96.6736C166.088 96.2498 165.976 95.7712 165.976 95.238C165.976 94.7094 166.088 94.2354 166.311 93.8162C166.534 93.3923 166.844 93.0642 167.241 92.8318C167.637 92.5948 168.086 92.4763 168.587 92.4763ZM168.587 93.3787C168.273 93.3832 167.988 93.4675 167.733 93.6316C167.482 93.7911 167.286 94.0121 167.145 94.2947C167.004 94.5727 166.933 94.8871 166.933 95.238C166.933 95.5935 167.004 95.9125 167.145 96.1951C167.291 96.4776 167.489 96.6986 167.74 96.8582C167.99 97.0131 168.273 97.0883 168.587 97.0837C168.906 97.0883 169.194 97.0131 169.449 96.8582C169.704 96.6986 169.904 96.4776 170.05 96.1951C170.196 95.9125 170.269 95.5935 170.269 95.238C170.269 94.8871 170.196 94.5727 170.05 94.2947C169.904 94.0121 169.704 93.7911 169.449 93.6316C169.194 93.4675 168.906 93.3832 168.587 93.3787ZM175.916 100.83H174.89V94.6912H173.277V100.228H172.265V88.9763H173.277V93.8025H174.89V88.6755H175.916V100.83ZM187.482 95.4158H179.087V89.8103H187.359V90.699H180.154V94.5271H187.482V95.4158ZM188.794 99.1755H177.666V98.2732H188.794V99.1755ZM195.535 92.7087H191.351V94.5271C192.536 94.5271 193.472 94.5089 194.161 94.4724C194.853 94.4314 195.548 94.3494 196.246 94.2263L196.355 95.1013C195.69 95.2198 195.033 95.2996 194.386 95.3406C193.739 95.3816 192.905 95.4021 191.884 95.4021H191.146H190.285V91.8748H194.468V90.1931H190.257V89.3044H195.535V92.7087ZM199.841 95.9763H198.761V93.8025H196.355V92.9275H198.761V91.2595H196.355V90.3845H198.761V88.6892H199.841V95.9763ZM193.908 96.988C193.908 97.5577 194.056 98.1069 194.352 98.6355C194.653 99.1596 195.081 99.5811 195.637 99.9001C196.011 99.6677 196.33 99.3875 196.594 99.0593C196.863 98.7266 197.066 98.3803 197.203 98.0203C197.339 97.6557 197.408 97.3116 197.408 96.988V96.2771H198.46V96.988C198.46 97.4164 198.558 97.8311 198.754 98.2322C198.95 98.6332 199.235 98.9932 199.609 99.3123C199.983 99.6313 200.425 99.8774 200.935 100.051L200.388 100.857C199.796 100.643 199.288 100.333 198.864 99.9275C198.444 99.5219 198.128 99.057 197.914 98.533C197.713 99.0616 197.421 99.5378 197.039 99.9617C196.66 100.39 196.2 100.72 195.658 100.953C195.097 100.734 194.625 100.415 194.243 99.9958C193.86 99.5811 193.57 99.1072 193.375 98.574C193.151 99.0844 192.832 99.5378 192.417 99.9343C192.003 100.335 191.515 100.643 190.955 100.857L190.394 100.051C190.891 99.8682 191.328 99.613 191.707 99.2849C192.085 98.9568 192.374 98.5922 192.575 98.1912C192.78 97.7856 192.882 97.3845 192.882 96.988V96.2771H193.908V96.988ZM204.339 97.3982H210.41V95.9763H211.49V100.666H203.273V95.9763H204.339V97.3982ZM210.41 99.8044V98.2458H204.339V99.8044H210.41ZM212.939 95.115H201.865V94.2263H212.939V95.115ZM207.962 89.3865C207.962 89.8695 208.172 90.3344 208.591 90.781C209.011 91.2231 209.555 91.599 210.225 91.9089C210.9 92.2143 211.595 92.4125 212.31 92.5037L211.914 93.365C211.28 93.2693 210.665 93.1029 210.068 92.866C209.475 92.6244 208.947 92.3236 208.482 91.9636C208.017 91.6036 207.659 91.2026 207.409 90.7605C207.158 91.2026 206.798 91.6036 206.329 91.9636C205.864 92.3236 205.335 92.6244 204.743 92.866C204.15 93.1029 203.537 93.2693 202.904 93.365L202.494 92.5037C203.223 92.408 203.922 92.2097 204.592 91.9089C205.267 91.6036 205.811 91.2322 206.226 90.7947C206.645 90.3526 206.855 89.8832 206.855 89.3865V88.8123H207.962V89.3865ZM223.986 100.83H222.919V88.6755H223.986V100.83ZM215.81 96.7693C217.865 96.7602 219.802 96.5642 221.621 96.1814L221.771 97.0974C220.736 97.3116 219.729 97.4666 218.75 97.5623C217.77 97.6534 216.767 97.699 215.742 97.699H214.757V89.8787H215.81V96.7693ZM235.47 93.488H237.507V94.3904H235.47V100.857H234.404V88.6755H235.47V93.488ZM232.271 90.7537H227.664V96.906C228.798 96.906 229.79 96.8741 230.637 96.8103C231.485 96.7465 232.348 96.6326 233.228 96.4685L233.365 97.3982C232.467 97.5623 231.585 97.6716 230.719 97.7263C229.853 97.781 228.798 97.8083 227.554 97.8083H226.597V89.865H232.271V90.7537Z" fill="#7A7873"/>
</g>
</g>
</g>
</g>
<g id="Link_3" filter="url(#filter1_d_48_276)">
<path d="M4 144.453C4 135.617 11.1634 128.453 20 128.453H315.526C324.363 128.453 331.526 135.617 331.526 144.453V193.92C331.526 202.756 324.363 209.92 315.526 209.92H20C11.1634 209.92 4 202.756 4 193.92V144.453Z" fill="#FAFAF7"/>
<path d="M20 128.953H315.526C324.087 128.953 331.026 135.893 331.026 144.453V193.92C331.026 202.48 324.087 209.42 315.526 209.42H20C11.4396 209.42 4.50008 202.48 4.5 193.92V144.453C4.50001 136.027 11.2242 129.17 19.5996 128.958L20 128.953Z" stroke="#E2DDD5"/>
<g id="Home_2">
<g id="Container_6">
<path d="M20.7375 157.191C20.7375 150.563 26.1101 145.191 32.7375 145.191H40.7164C47.3438 145.191 52.7164 150.563 52.7164 157.191V165.17C52.7164 171.797 47.3438 177.17 40.7164 177.17H32.7375C26.1101 177.17 20.7375 171.797 20.7375 165.17V157.191Z" fill="#C8DEC9"/>
<g id="Icon_2">
<path id="Vector_2" d="M42.719 163.184C42.719 163.538 42.5787 163.876 42.329 164.126C42.0793 164.376 41.7406 164.517 41.3874 164.517H33.398L30.7349 167.182V156.522C30.7349 156.169 30.8752 155.83 31.1249 155.58C31.3746 155.33 31.7133 155.189 32.0664 155.189H41.3874C41.7406 155.189 42.0793 155.33 42.329 155.58C42.5787 155.83 42.719 156.169 42.719 156.522V163.184Z" stroke="#6A9E7A" stroke-width="1.33245" stroke-linecap="round" stroke-linejoin="round"/>
</g>
</g>
<g id="Container_7">
<g id="Container_8">
<g id="Heading 4_2" clip-path="url(#clip2_48_276)">
<path id="&#236;&#132;&#156;&#236;&#154;&#184; &#235;&#167;&#155;&#236;&#167;&#145; &#236;&#182;&#148;&#236;&#178;&#156;" d="M70.1616 153.796C70.1616 154.619 70.3231 155.432 70.646 156.234C70.9689 157.036 71.4064 157.749 71.9585 158.374C72.5106 158.994 73.12 159.458 73.7866 159.765L73.0522 160.765C72.2658 160.359 71.5627 159.762 70.9429 158.976C70.3231 158.189 69.8595 157.301 69.5522 156.312C69.2397 157.359 68.7736 158.299 68.1538 159.132C67.5392 159.965 66.8387 160.593 66.0522 161.015L65.2554 160.031C65.9272 159.702 66.5418 159.21 67.0991 158.554C67.6564 157.892 68.0965 157.145 68.4194 156.312C68.7476 155.473 68.9116 154.635 68.9116 153.796V151.265H70.1616V153.796ZM76.7866 163.984H75.5679V155.812H72.271V154.812H75.5679V150.062H76.7866V163.984ZM85.4272 150.234C86.4585 150.234 87.3413 150.327 88.0757 150.515C88.8101 150.702 89.37 150.976 89.7554 151.335C90.1408 151.695 90.3335 152.129 90.3335 152.64C90.3335 153.156 90.1408 153.593 89.7554 153.952C89.37 154.312 88.8101 154.585 88.0757 154.773C87.3413 154.96 86.4585 155.057 85.4272 155.062C84.396 155.057 83.5106 154.96 82.771 154.773C82.0366 154.585 81.4741 154.312 81.0835 153.952C80.6981 153.593 80.5054 153.156 80.5054 152.64C80.5054 152.129 80.6981 151.695 81.0835 151.335C81.4741 150.976 82.0366 150.702 82.771 150.515C83.5106 150.327 84.396 150.234 85.4272 150.234ZM85.4272 151.171C84.2658 151.182 83.3674 151.314 82.7319 151.57C82.0965 151.825 81.7814 152.182 81.7866 152.64C81.7814 153.114 82.0939 153.478 82.7241 153.734C83.3595 153.984 84.2606 154.114 85.4272 154.124C86.5887 154.114 87.4871 153.984 88.1226 153.734C88.7632 153.478 89.0835 153.114 89.0835 152.64C89.0835 152.182 88.7606 151.825 88.1147 151.57C87.4741 151.314 86.5783 151.182 85.4272 151.171ZM91.7554 156.968H86.021V158.281H90.1304V161.39H81.8804V162.827H90.5522V163.796H80.6616V160.484H88.9272V159.218H80.6304V158.281H84.8022V156.968H79.0991V155.984H91.7554V156.968ZM103.818 157.296H97.5366V151.124H103.818V157.296ZM98.7397 156.296H102.599V152.14H98.7397V156.296ZM107.802 153.874H109.896V154.906H107.802V159.312H106.583V150.062H107.802V153.874ZM104.193 159.046C104.188 159.687 104.401 160.278 104.833 160.82C105.266 161.356 105.841 161.807 106.56 162.171C107.279 162.531 108.057 162.781 108.896 162.921L108.396 163.89C107.328 163.697 106.362 163.335 105.498 162.804C104.633 162.278 104 161.629 103.599 160.859C103.193 161.629 102.555 162.278 101.685 162.804C100.815 163.335 99.8439 163.697 98.771 163.89L98.2866 162.921C99.12 162.781 99.8934 162.531 100.607 162.171C101.326 161.807 101.899 161.356 102.326 160.82C102.758 160.278 102.974 159.687 102.974 159.046V158.624H104.193V159.046ZM115.771 152.359C115.771 152.952 115.925 153.52 116.232 154.062C116.539 154.603 116.964 155.077 117.505 155.484C118.047 155.89 118.662 156.197 119.349 156.406L118.724 157.374C117.912 157.114 117.193 156.718 116.568 156.187C115.948 155.65 115.479 155.025 115.162 154.312C114.86 155.072 114.396 155.741 113.771 156.32C113.146 156.892 112.417 157.322 111.583 157.609L110.943 156.64C111.636 156.421 112.253 156.096 112.794 155.663C113.341 155.231 113.768 154.728 114.076 154.156C114.383 153.583 114.537 152.984 114.537 152.359V151.999H111.287V150.999H118.974V151.999H115.771V152.359ZM122.24 157.577H121.021V150.062H122.24V157.577ZM114.458 159.952H121.021V158.265H122.24V163.765H113.24V158.265H114.458V159.952ZM121.021 162.765V160.937H114.458V162.765H121.021ZM141.271 159.499H135.537V163.984H134.333V159.499H128.615V158.468H141.271V159.499ZM135.552 152.812C135.552 153.369 135.784 153.903 136.248 154.413C136.711 154.919 137.32 155.348 138.076 155.702C138.831 156.057 139.625 156.291 140.458 156.406L140.005 157.39C139.287 157.281 138.594 157.09 137.927 156.82C137.266 156.549 136.675 156.213 136.154 155.812C135.638 155.411 135.237 154.963 134.951 154.468C134.664 154.968 134.258 155.419 133.732 155.82C133.211 156.221 132.617 156.557 131.951 156.827C131.284 157.093 130.589 157.281 129.865 157.39L129.412 156.406C130.245 156.291 131.039 156.059 131.794 155.71C132.55 155.356 133.162 154.926 133.63 154.421C134.099 153.911 134.333 153.374 134.333 152.812V152.796H129.849V151.796H134.333V150.062H135.537V151.796H140.052V152.796H135.552V152.812ZM147.177 153.39C147.177 153.994 147.326 154.572 147.623 155.124C147.925 155.671 148.341 156.15 148.873 156.562C149.409 156.973 150.021 157.286 150.708 157.499L150.099 158.484C149.292 158.223 148.583 157.827 147.974 157.296C147.37 156.765 146.912 156.145 146.599 155.437C146.297 156.197 145.841 156.864 145.232 157.437C144.628 158.004 143.917 158.432 143.099 158.718L142.49 157.765C143.167 157.536 143.768 157.202 144.294 156.765C144.826 156.322 145.237 155.809 145.529 155.226C145.826 154.642 145.974 154.031 145.974 153.39V152.937H142.833V151.937H145.974V150.156H147.208V151.937H150.318V152.937H147.177V153.39ZM153.958 160.452H152.724V155.374H149.833V154.359H152.724V150.077H153.958V160.452ZM154.349 163.656H145.037V159.515H146.271V162.624H154.349V163.656Z" fill="#1A1A1A"/>
</g>
<g id="Text_2">
<path id="2&#236;&#139;&#156;&#234;&#176;&#132; &#236;&#160;&#132;" d="M268.751 161.415L271.646 158.368C272.029 157.965 272.32 157.641 272.519 157.395C272.722 157.145 272.874 156.905 272.976 156.674C273.081 156.44 273.134 156.196 273.134 155.942C273.134 155.661 273.06 155.411 272.911 155.192C272.763 154.973 272.56 154.803 272.302 154.682C272.048 154.561 271.763 154.5 271.447 154.5C271.115 154.5 270.823 154.567 270.573 154.7C270.323 154.833 270.13 155.02 269.993 155.262C269.861 155.504 269.794 155.782 269.794 156.094H268.798C268.794 155.602 268.907 155.167 269.138 154.788C269.372 154.409 269.695 154.114 270.105 153.903C270.515 153.692 270.974 153.586 271.482 153.586C271.986 153.586 272.437 153.69 272.835 153.897C273.238 154.104 273.552 154.387 273.779 154.747C274.005 155.106 274.118 155.504 274.118 155.942C274.118 156.266 274.06 156.577 273.943 156.874C273.825 157.167 273.628 157.493 273.351 157.852C273.077 158.208 272.685 158.649 272.173 159.176L270.228 161.18V161.25H274.271V162.188H268.763L268.751 161.415ZM279.334 155.52C279.33 156.137 279.455 156.75 279.709 157.36C279.963 157.965 280.307 158.504 280.74 158.977C281.174 159.45 281.647 159.801 282.158 160.032L281.596 160.758C281.002 160.465 280.463 160.03 279.979 159.452C279.498 158.87 279.135 158.209 278.889 157.471C278.647 158.256 278.283 158.959 277.799 159.581C277.315 160.198 276.768 160.661 276.158 160.969L275.572 160.196C276.084 159.958 276.557 159.596 276.99 159.112C277.424 158.624 277.77 158.065 278.027 157.436C278.285 156.803 278.416 156.165 278.42 155.52V153.622H279.334V155.52ZM284.221 163.161H283.295V152.719H284.221V163.161ZM294.347 155.895H295.917V156.668H294.347V160.348H293.421V152.719H294.347V155.895ZM291.534 153.528C291.534 154.407 291.333 155.213 290.931 155.948C290.532 156.682 289.964 157.319 289.225 157.858C288.491 158.397 287.62 158.825 286.612 159.141L286.214 158.403C287.046 158.141 287.774 157.807 288.399 157.401C289.024 156.991 289.52 156.524 289.888 156C290.255 155.473 290.47 154.907 290.532 154.301H286.647V153.528H291.534ZM294.827 162.915H287.819V159.575H288.733V162.141H294.827V162.915ZM308.622 160.372H307.696V156.375H305.551V155.614H307.696V152.731H308.622V160.372ZM308.915 162.915H301.93V159.68H302.856V162.141H308.915V162.915ZM303.606 154.875C303.606 155.321 303.713 155.756 303.928 156.182C304.147 156.604 304.45 156.979 304.836 157.307C305.227 157.635 305.672 157.883 306.172 158.051L305.692 158.79C305.11 158.579 304.598 158.266 304.157 157.852C303.719 157.434 303.387 156.954 303.161 156.411C302.934 157.012 302.59 157.543 302.129 158.004C301.668 158.461 301.129 158.805 300.512 159.036L300.032 158.286C300.54 158.106 300.995 157.844 301.397 157.5C301.799 157.153 302.114 156.752 302.34 156.299C302.567 155.842 302.68 155.368 302.68 154.875V154.336H300.325V153.575H305.938V154.336H303.606V154.875Z" fill="#888882"/>
</g>
</g>
<g id="Paragraph_2" clip-path="url(#clip3_48_276)">
<path id="&#234;&#176;&#149;&#235;&#130;&#168; &#236;&#167;&#128;&#236;&#151;&#173; &#235;&#167;&#155;&#236;&#167;&#145;&#236;&#157;&#132; &#236;&#160;&#149;&#235;&#166;&#172;&#237;&#149;&#180;&#235;&#147;&#156;&#235;&#160;&#184;&#236;&#138;&#181;&#235;&#139;&#136;&#235;&#139;&#164;" d="M74.7026 181.309H76.5347V182.198H74.7026V185.438H73.6362V178.137H74.7026V181.309ZM71.394 179.039C71.394 180.056 71.1639 180.985 70.7036 181.828C70.2433 182.671 69.5848 183.401 68.728 184.016C67.8713 184.627 66.8504 185.105 65.6655 185.451L65.2144 184.576C66.1896 184.294 67.0418 183.925 67.771 183.469C68.5002 183.009 69.0744 182.478 69.4937 181.876C69.9175 181.275 70.1659 180.625 70.2388 179.928H65.7476V179.039H71.394ZM70.8608 185.574C71.672 185.574 72.3761 185.67 72.9731 185.862C73.5747 186.048 74.035 186.317 74.354 186.668C74.6776 187.019 74.8394 187.434 74.8394 187.912C74.8394 188.4 74.6776 188.822 74.354 189.177C74.035 189.528 73.5747 189.797 72.9731 189.984C72.3761 190.17 71.672 190.264 70.8608 190.264C70.0542 190.264 69.3501 190.17 68.7485 189.984C68.1515 189.797 67.689 189.528 67.3608 189.177C67.0373 188.822 66.8778 188.4 66.8823 187.912C66.8778 187.434 67.0373 187.019 67.3608 186.668C67.689 186.317 68.1538 186.048 68.7554 185.862C69.3569 185.67 70.0588 185.574 70.8608 185.574ZM70.8608 186.436C70.2729 186.431 69.758 186.488 69.3159 186.607C68.8784 186.725 68.5389 186.898 68.2974 187.126C68.0604 187.35 67.9442 187.612 67.9487 187.912C67.9442 188.213 68.0604 188.477 68.2974 188.705C68.5343 188.929 68.8739 189.1 69.3159 189.218C69.758 189.341 70.2729 189.403 70.8608 189.403C71.4533 189.403 71.9705 189.341 72.4126 189.218C72.8547 189.1 73.1965 188.929 73.438 188.705C73.6795 188.477 73.8003 188.213 73.8003 187.912C73.8003 187.612 73.6795 187.35 73.438 187.126C73.1965 186.898 72.8547 186.725 72.4126 186.607C71.9705 186.488 71.4533 186.431 70.8608 186.436ZM86.8022 180.94H88.6479V181.842H86.8022V185.014H85.7358V178.151H86.8022V180.94ZM86.8022 190.127H79.105V185.684H86.8022V190.127ZM80.1577 189.252H85.7632V186.531H80.1577V189.252ZM78.9683 183.182C79.8888 183.177 80.798 183.134 81.6958 183.052C82.5936 182.965 83.5119 182.826 84.4507 182.635L84.5874 183.537C83.5985 183.733 82.6392 183.875 81.7095 183.961C80.7798 184.043 79.8296 184.084 78.8589 184.084H77.8882V178.766H78.9683V183.182ZM97.2612 181.869C97.2612 182.539 97.4093 183.207 97.7056 183.872C98.0018 184.533 98.4006 185.123 98.9019 185.643C99.4077 186.158 99.9591 186.545 100.556 186.805L99.9546 187.653C99.2391 187.324 98.5942 186.83 98.02 186.169C97.4458 185.504 97.0174 184.754 96.7349 183.92C96.4523 184.813 96.0239 185.622 95.4497 186.347C94.88 187.067 94.2489 187.602 93.5562 187.953L92.9136 187.106C93.4878 186.828 94.0233 186.408 94.52 185.848C95.0213 185.287 95.4224 184.656 95.7231 183.954C96.0239 183.248 96.1766 182.553 96.1812 181.869V180.283H93.3101V179.395H100.16V180.283H97.2612V181.869ZM102.935 190.291H101.855V178.137H102.935V190.291ZM115.089 190.291H114.009V186.832H106.914V185.971H115.089V190.291ZM115.089 185.301H114.009V183.551H110.872C110.589 183.902 110.229 184.173 109.792 184.365C109.354 184.551 108.869 184.645 108.335 184.645C107.738 184.645 107.201 184.522 106.722 184.276C106.248 184.025 105.877 183.679 105.608 183.237C105.339 182.795 105.205 182.293 105.205 181.733C105.205 181.177 105.341 180.68 105.615 180.242C105.888 179.8 106.264 179.456 106.743 179.21C107.221 178.96 107.761 178.834 108.363 178.834C108.882 178.834 109.359 178.93 109.792 179.121C110.224 179.313 110.584 179.582 110.872 179.928H114.009V178.137H115.089V185.301ZM108.363 179.75C107.953 179.75 107.586 179.837 107.262 180.01C106.939 180.179 106.686 180.413 106.503 180.714C106.321 181.015 106.23 181.354 106.23 181.733C106.23 182.125 106.321 182.473 106.503 182.779C106.686 183.084 106.939 183.321 107.262 183.49C107.586 183.658 107.953 183.742 108.363 183.742C108.755 183.742 109.11 183.658 109.429 183.49C109.753 183.316 110.006 183.077 110.188 182.772C110.375 182.466 110.468 182.12 110.468 181.733C110.468 181.354 110.375 181.015 110.188 180.714C110.006 180.413 109.753 180.179 109.429 180.01C109.11 179.837 108.755 179.75 108.363 179.75ZM114.009 182.662V180.817H111.357C111.457 181.117 111.507 181.423 111.507 181.733C111.507 182.052 111.457 182.362 111.357 182.662H114.009ZM126.642 184.467H121.146V179.067H126.642V184.467ZM122.199 183.592H125.576V179.955H122.199V183.592ZM130.128 181.473H131.96V182.375H130.128V186.231H129.062V178.137H130.128V181.473ZM126.97 185.998C126.966 186.559 127.153 187.076 127.531 187.55C127.909 188.019 128.413 188.414 129.042 188.733C129.67 189.047 130.352 189.266 131.085 189.389L130.648 190.237C129.714 190.068 128.868 189.751 128.112 189.286C127.355 188.826 126.802 188.259 126.451 187.584C126.095 188.259 125.537 188.826 124.776 189.286C124.015 189.751 123.165 190.068 122.226 190.237L121.802 189.389C122.531 189.266 123.208 189.047 123.833 188.733C124.461 188.414 124.963 188.019 125.336 187.55C125.715 187.076 125.904 186.559 125.904 185.998V185.629H126.97V185.998ZM137.101 180.147C137.101 180.666 137.236 181.163 137.504 181.637C137.773 182.111 138.145 182.526 138.619 182.881C139.093 183.237 139.63 183.505 140.232 183.688L139.685 184.535C138.974 184.308 138.345 183.961 137.798 183.496C137.256 183.027 136.846 182.48 136.568 181.856C136.304 182.521 135.898 183.107 135.351 183.613C134.804 184.114 134.166 184.49 133.437 184.74L132.876 183.893C133.483 183.701 134.023 183.417 134.497 183.038C134.975 182.66 135.349 182.22 135.618 181.719C135.887 181.218 136.021 180.694 136.021 180.147V179.832H133.177V178.957H139.904V179.832H137.101V180.147ZM142.761 184.713H141.695V178.137H142.761V184.713ZM135.953 186.791H141.695V185.315H142.761V190.127H134.886V185.315H135.953V186.791ZM141.695 189.252V187.653H135.953V189.252H141.695ZM150.363 178.356C151.265 178.356 152.038 178.438 152.68 178.602C153.323 178.761 153.813 178.998 154.15 179.313C154.487 179.623 154.656 180.001 154.656 180.448C154.656 181.131 154.282 181.655 153.535 182.02C152.787 182.384 151.73 182.571 150.363 182.58C149.46 182.576 148.686 182.491 148.039 182.327C147.396 182.163 146.904 181.924 146.562 181.61C146.225 181.291 146.056 180.903 146.056 180.448C146.056 180.001 146.225 179.623 146.562 179.313C146.904 178.998 147.396 178.761 148.039 178.602C148.686 178.438 149.46 178.356 150.363 178.356ZM150.363 179.162C149.693 179.162 149.119 179.215 148.64 179.32C148.162 179.42 147.797 179.568 147.546 179.764C147.296 179.955 147.173 180.183 147.177 180.448C147.173 180.867 147.448 181.19 148.004 181.418C148.56 181.646 149.347 181.76 150.363 181.76C151.375 181.76 152.161 181.646 152.721 181.418C153.282 181.19 153.562 180.867 153.562 180.448C153.562 180.183 153.434 179.955 153.179 179.764C152.924 179.573 152.557 179.424 152.079 179.32C151.6 179.215 151.028 179.162 150.363 179.162ZM155.9 184.276H144.826V183.401H155.9V184.276ZM154.478 188.049H147.259V189.307H154.847V190.155H146.193V187.256H153.425V186.149H146.166V185.328H154.478V188.049ZM170.515 185.383H169.435V182.198H166.988V181.309H169.435V178.137H170.515V185.383ZM166.482 185.766C167.325 185.766 168.052 185.855 168.663 186.032C169.273 186.21 169.74 186.468 170.064 186.805C170.392 187.142 170.556 187.548 170.556 188.022C170.556 188.496 170.392 188.901 170.064 189.239C169.74 189.58 169.273 189.84 168.663 190.018C168.052 190.196 167.325 190.287 166.482 190.291C165.639 190.287 164.912 190.196 164.301 190.018C163.691 189.84 163.221 189.58 162.893 189.239C162.569 188.901 162.408 188.496 162.408 188.022C162.408 187.548 162.569 187.142 162.893 186.805C163.221 186.468 163.691 186.21 164.301 186.032C164.912 185.855 165.639 185.766 166.482 185.766ZM166.482 186.6C165.867 186.6 165.331 186.657 164.875 186.771C164.42 186.885 164.071 187.049 163.83 187.263C163.588 187.477 163.47 187.73 163.474 188.022C163.47 188.309 163.588 188.559 163.83 188.774C164.071 188.983 164.42 189.145 164.875 189.259C165.331 189.373 165.867 189.43 166.482 189.43C167.097 189.43 167.63 189.373 168.082 189.259C168.537 189.145 168.886 188.983 169.127 188.774C169.369 188.559 169.49 188.309 169.49 188.022C169.49 187.73 169.369 187.477 169.127 187.263C168.886 187.049 168.537 186.885 168.082 186.771C167.63 186.657 167.097 186.6 166.482 186.6ZM164.664 180.365C164.664 180.89 164.789 181.398 165.04 181.89C165.29 182.378 165.641 182.813 166.092 183.196C166.548 183.574 167.07 183.865 167.658 184.071L167.097 184.932C166.418 184.686 165.821 184.321 165.306 183.838C164.796 183.355 164.411 182.797 164.151 182.163C163.887 182.874 163.483 183.503 162.941 184.05C162.403 184.592 161.774 185 161.054 185.274L160.494 184.412C161.091 184.194 161.624 183.879 162.093 183.469C162.563 183.054 162.927 182.578 163.187 182.04C163.451 181.503 163.583 180.949 163.583 180.379V179.928H160.835V179.026H167.384V179.928H164.664V180.365ZM182.574 190.319H181.507V178.137H182.574V190.319ZM178.882 183.592H174.343V186.463C175.432 186.463 176.444 186.431 177.378 186.367C178.317 186.304 179.302 186.19 180.332 186.026L180.441 186.928C179.388 187.097 178.381 187.213 177.419 187.277C176.458 187.336 175.405 187.365 174.261 187.365H173.25V182.717H177.802V180.16H173.222V179.272H178.882V183.592ZM190.708 181.117H184.611V180.242H187.14V178.506H188.207V180.242H190.708V181.117ZM187.66 181.938C188.166 181.938 188.617 182.056 189.013 182.293C189.414 182.526 189.726 182.851 189.95 183.271C190.178 183.69 190.294 184.166 190.298 184.699C190.294 185.237 190.178 185.718 189.95 186.142C189.726 186.561 189.414 186.892 189.013 187.133C188.617 187.37 188.166 187.489 187.66 187.489C187.158 187.489 186.709 187.37 186.313 187.133C185.917 186.892 185.607 186.559 185.383 186.135C185.16 185.711 185.048 185.233 185.048 184.699C185.048 184.171 185.16 183.697 185.383 183.278C185.607 182.854 185.917 182.526 186.313 182.293C186.709 182.056 187.158 181.938 187.66 181.938ZM187.66 182.84C187.345 182.845 187.06 182.929 186.805 183.093C186.555 183.253 186.359 183.474 186.217 183.756C186.076 184.034 186.005 184.349 186.005 184.699C186.005 185.055 186.076 185.374 186.217 185.656C186.363 185.939 186.561 186.16 186.812 186.32C187.063 186.475 187.345 186.55 187.66 186.545C187.979 186.55 188.266 186.475 188.521 186.32C188.776 186.16 188.977 185.939 189.123 185.656C189.268 185.374 189.341 185.055 189.341 184.699C189.341 184.349 189.268 184.034 189.123 183.756C188.977 183.474 188.776 183.253 188.521 183.093C188.266 182.929 187.979 182.845 187.66 182.84ZM194.988 190.291H193.962V184.153H192.349V189.69H191.337V178.438H192.349V183.264H193.962V178.137H194.988V190.291ZM206.554 184.877H198.16V179.272H206.431V180.16H199.226V183.989H206.554V184.877ZM207.867 188.637H196.738V187.735H207.867V188.637ZM214.607 182.17H210.423V183.989C211.608 183.989 212.545 183.97 213.233 183.934C213.926 183.893 214.621 183.811 215.318 183.688L215.427 184.563C214.762 184.681 214.106 184.761 213.458 184.802C212.811 184.843 211.977 184.864 210.957 184.864H210.218H209.357V181.336H213.541V179.655H209.33V178.766H214.607V182.17ZM218.914 185.438H217.833V183.264H215.427V182.389H217.833V180.721H215.427V179.846H217.833V178.151H218.914V185.438ZM212.98 186.449C212.98 187.019 213.128 187.568 213.424 188.097C213.725 188.621 214.153 189.043 214.709 189.362C215.083 189.129 215.402 188.849 215.667 188.521C215.935 188.188 216.138 187.842 216.275 187.482C216.412 187.117 216.48 186.773 216.48 186.449V185.739H217.533V186.449C217.533 186.878 217.631 187.293 217.827 187.694C218.023 188.095 218.307 188.455 218.681 188.774C219.055 189.093 219.497 189.339 220.007 189.512L219.46 190.319C218.868 190.104 218.36 189.795 217.936 189.389C217.517 188.983 217.2 188.518 216.986 187.994C216.785 188.523 216.494 188.999 216.111 189.423C215.733 189.851 215.272 190.182 214.73 190.414C214.169 190.196 213.698 189.877 213.315 189.457C212.932 189.043 212.643 188.569 212.447 188.035C212.223 188.546 211.904 188.999 211.49 189.396C211.075 189.797 210.587 190.104 210.027 190.319L209.466 189.512C209.963 189.33 210.401 189.074 210.779 188.746C211.157 188.418 211.446 188.054 211.647 187.653C211.852 187.247 211.955 186.846 211.955 186.449V185.739H212.98V186.449ZM223.412 186.86H229.482V185.438H230.562V190.127H222.345V185.438H223.412V186.86ZM229.482 189.266V187.707H223.412V189.266H229.482ZM232.011 184.576H220.937V183.688H232.011V184.576ZM227.035 178.848C227.035 179.331 227.244 179.796 227.664 180.242C228.083 180.684 228.627 181.06 229.297 181.37C229.972 181.676 230.667 181.874 231.382 181.965L230.986 182.826C230.352 182.731 229.737 182.564 229.14 182.327C228.548 182.086 228.019 181.785 227.554 181.425C227.089 181.065 226.732 180.664 226.481 180.222C226.23 180.664 225.87 181.065 225.401 181.425C224.936 181.785 224.407 182.086 223.815 182.327C223.222 182.564 222.61 182.731 221.976 182.826L221.566 181.965C222.295 181.869 222.995 181.671 223.665 181.37C224.339 181.065 224.884 180.694 225.298 180.256C225.718 179.814 225.927 179.345 225.927 178.848V178.274H227.035V178.848ZM243.058 190.291H241.992V178.137H243.058V190.291ZM234.882 186.231C236.938 186.222 238.875 186.026 240.693 185.643L240.843 186.559C239.809 186.773 238.802 186.928 237.822 187.024C236.842 187.115 235.839 187.16 234.814 187.16H233.83V179.34H234.882V186.231ZM254.542 182.949H256.58V183.852H254.542V190.319H253.476V178.137H254.542V182.949ZM251.343 180.215H246.736V186.367C247.871 186.367 248.862 186.336 249.709 186.272C250.557 186.208 251.421 186.094 252.3 185.93L252.437 186.86C251.539 187.024 250.657 187.133 249.792 187.188C248.926 187.242 247.871 187.27 246.626 187.27H245.669V179.326H251.343V180.215Z" fill="#888882"/>
</g>
</g>
</g>
</g>
<g id="Link_4" filter="url(#filter2_d_48_276)">
<path d="M4 233.915C4 225.078 11.1634 217.915 20 217.915H315.526C324.363 217.915 331.526 225.078 331.526 233.915V283.381C331.526 292.218 324.363 299.381 315.526 299.381H20C11.1634 299.381 4 292.218 4 283.381V233.915Z" fill="#FAFAF7"/>
<path d="M20 218.415H315.526C324.087 218.415 331.026 225.354 331.026 233.915V283.381C331.026 291.942 324.087 298.881 315.526 298.881H20C11.4396 298.881 4.50008 291.942 4.5 283.381V233.915C4.50001 225.488 11.2242 218.632 19.5996 218.419L20 218.415Z" stroke="#E2DDD5"/>
<g id="Home_3">
<g id="Container_9">
<path d="M20.7375 246.652C20.7375 240.024 26.1101 234.652 32.7375 234.652H40.7164C47.3438 234.652 52.7164 240.024 52.7164 246.652V254.631C52.7164 261.258 47.3438 266.631 40.7164 266.631H32.7375C26.1101 266.631 20.7375 261.258 20.7375 254.631V246.652Z" fill="#C8DEC9"/>
<g id="Icon_3">
<path id="Vector_3" d="M42.719 252.645C42.719 252.999 42.5787 253.338 42.329 253.588C42.0793 253.837 41.7406 253.978 41.3874 253.978H33.398L30.7349 256.643V245.983C30.7349 245.63 30.8752 245.291 31.1249 245.041C31.3746 244.791 31.7133 244.651 32.0664 244.651H41.3874C41.7406 244.651 42.0793 244.791 42.329 245.041C42.5787 245.291 42.719 245.63 42.719 245.983V252.645Z" stroke="#6A9E7A" stroke-width="1.33245" stroke-linecap="round" stroke-linejoin="round"/>
</g>
</g>
<g id="Container_10">
<g id="Container_11">
<g id="Heading 4_3" clip-path="url(#clip4_48_276)">
<path id="&#235;&#180;&#132; &#236;&#151;&#172;&#237;&#150;&#137;&#236;&#167;&#128;" d="M77.9272 247.492H65.271V246.476H70.9897V244.929H66.9585V239.82H68.1772V241.414H75.0522V239.82H76.271V244.929H72.2085V246.476H77.9272V247.492ZM75.0522 243.945V242.351H68.1772V243.945H75.0522ZM76.3804 253.226H66.8179V248.789H76.3804V253.226ZM68.0366 252.226H75.1772V249.757H68.0366V252.226ZM86.8491 240.601C87.4845 240.606 88.0522 240.786 88.5522 241.14C89.0522 241.489 89.4533 241.986 89.7554 242.632H93.4116V239.523H94.6304V253.445H93.4116V248.054H89.8413C89.5496 248.763 89.1434 249.309 88.6226 249.695C88.1069 250.08 87.5158 250.273 86.8491 250.273C86.172 250.273 85.5679 250.075 85.0366 249.679C84.5106 249.283 84.0991 248.721 83.8022 247.992C83.5106 247.263 83.3647 246.414 83.3647 245.445C83.3647 244.476 83.5106 243.627 83.8022 242.898C84.0991 242.169 84.5106 241.606 85.0366 241.21C85.5627 240.809 86.1668 240.606 86.8491 240.601ZM86.8491 241.695C86.396 241.7 85.9924 241.859 85.6382 242.171C85.2892 242.479 85.0184 242.916 84.8257 243.484C84.633 244.046 84.5366 244.7 84.5366 245.445C84.5366 246.19 84.633 246.846 84.8257 247.414C85.0184 247.976 85.2892 248.411 85.6382 248.718C85.9924 249.026 86.396 249.179 86.8491 249.179C87.297 249.179 87.6955 249.026 88.0444 248.718C88.3986 248.411 88.672 247.976 88.8647 247.414C89.0627 246.846 89.1616 246.19 89.1616 245.445C89.1616 244.7 89.0627 244.046 88.8647 243.484C88.672 242.916 88.4012 242.479 88.0522 242.171C87.7033 241.859 87.3022 241.7 86.8491 241.695ZM90.1147 243.664C90.2502 244.247 90.3179 244.841 90.3179 245.445C90.3179 245.986 90.2632 246.518 90.1538 247.039H93.4116V243.664H90.1147ZM108.74 248.32H107.568V244.335H105.708V247.82H104.552V239.804H105.708V243.32H107.568V239.523H108.74V248.32ZM103.99 242.179H96.8647V241.195H99.8335V239.632H101.052V241.195H103.99V242.179ZM100.443 242.929C101.026 242.929 101.542 243.028 101.99 243.226C102.443 243.419 102.794 243.695 103.044 244.054C103.294 244.408 103.422 244.825 103.427 245.304C103.422 245.773 103.294 246.187 103.044 246.546C102.794 246.901 102.443 247.177 101.99 247.375C101.542 247.567 101.026 247.664 100.443 247.664C99.8647 247.664 99.3491 247.567 98.896 247.375C98.4429 247.177 98.0913 246.901 97.8413 246.546C97.5913 246.187 97.4689 245.773 97.4741 245.304C97.4689 244.83 97.5913 244.414 97.8413 244.054C98.0913 243.695 98.4403 243.419 98.8882 243.226C99.3413 243.028 99.8595 242.929 100.443 242.929ZM100.443 243.835C100.078 243.835 99.7528 243.898 99.4663 244.023C99.1851 244.143 98.9637 244.315 98.8022 244.539C98.646 244.763 98.5679 245.018 98.5679 245.304C98.5679 245.585 98.646 245.835 98.8022 246.054C98.9637 246.273 99.1851 246.442 99.4663 246.562C99.7528 246.682 100.078 246.742 100.443 246.742C100.807 246.742 101.13 246.682 101.412 246.562C101.698 246.442 101.919 246.273 102.076 246.054C102.237 245.835 102.318 245.585 102.318 245.304C102.318 245.018 102.237 244.763 102.076 244.539C101.919 244.315 101.698 244.143 101.412 244.023C101.13 243.898 100.807 243.835 100.443 243.835ZM104.146 248.554C105.12 248.554 105.956 248.651 106.654 248.843C107.352 249.031 107.886 249.307 108.255 249.671C108.63 250.036 108.818 250.476 108.818 250.992C108.818 251.492 108.63 251.921 108.255 252.281C107.886 252.64 107.349 252.914 106.646 253.101C105.948 253.289 105.115 253.382 104.146 253.382C103.177 253.382 102.341 253.289 101.638 253.101C100.94 252.914 100.406 252.64 100.037 252.281C99.6668 251.921 99.4845 251.492 99.4897 250.992C99.4845 250.476 99.6668 250.036 100.037 249.671C100.406 249.307 100.94 249.031 101.638 248.843C102.336 248.651 103.172 248.554 104.146 248.554ZM104.146 249.523C103.427 249.518 102.81 249.572 102.294 249.687C101.779 249.796 101.383 249.963 101.107 250.187C100.836 250.411 100.703 250.679 100.708 250.992C100.703 251.294 100.836 251.552 101.107 251.765C101.383 251.979 101.779 252.143 102.294 252.257C102.815 252.372 103.432 252.429 104.146 252.429C104.86 252.429 105.474 252.372 105.99 252.257C106.505 252.143 106.901 251.979 107.177 251.765C107.453 251.552 107.594 251.294 107.599 250.992C107.594 250.518 107.287 250.153 106.677 249.898C106.073 249.638 105.229 249.513 104.146 249.523ZM115.74 243.789C115.74 244.554 115.909 245.317 116.248 246.078C116.586 246.833 117.042 247.507 117.615 248.101C118.193 248.69 118.823 249.132 119.505 249.429L118.818 250.398C118 250.023 117.263 249.458 116.607 248.703C115.951 247.942 115.461 247.085 115.138 246.132C114.815 247.153 114.326 248.078 113.669 248.906C113.018 249.729 112.297 250.341 111.505 250.742L110.771 249.773C111.427 249.455 112.039 248.976 112.607 248.335C113.18 247.695 113.638 246.973 113.982 246.171C114.326 245.364 114.5 244.57 114.505 243.789V241.976H111.224V240.96H119.052V241.976H115.74V243.789ZM122.224 253.414H120.99V239.523H122.224V253.414Z" fill="#1A1A1A"/>
</g>
<g id="Text_3">
<path id="&#236;&#150;&#180;&#236;&#160;&#156;" d="M294.004 242.989C294.473 242.993 294.893 243.124 295.264 243.382C295.639 243.639 295.941 244.007 296.172 244.483C296.402 244.96 296.541 245.52 296.588 246.165H298.926V242.18H299.84V252.622H298.926V246.927H296.6C296.564 247.598 296.434 248.184 296.207 248.684C295.98 249.184 295.676 249.569 295.293 249.839C294.914 250.108 294.484 250.243 294.004 250.243C293.496 250.243 293.043 250.094 292.645 249.798C292.25 249.501 291.941 249.079 291.719 248.532C291.5 247.985 291.391 247.348 291.391 246.622C291.391 245.895 291.5 245.259 291.719 244.712C291.941 244.165 292.25 243.743 292.645 243.446C293.039 243.145 293.492 242.993 294.004 242.989ZM294.004 243.809C293.664 243.813 293.361 243.932 293.096 244.167C292.834 244.397 292.631 244.725 292.486 245.151C292.342 245.573 292.27 246.063 292.27 246.622C292.27 247.18 292.342 247.673 292.486 248.098C292.631 248.52 292.834 248.846 293.096 249.077C293.361 249.307 293.664 249.423 294.004 249.423C294.34 249.423 294.639 249.307 294.9 249.077C295.166 248.846 295.371 248.52 295.516 248.098C295.664 247.673 295.738 247.18 295.738 246.622C295.738 246.063 295.664 245.573 295.516 245.151C295.371 244.725 295.168 244.397 294.906 244.167C294.645 243.932 294.344 243.813 294.004 243.809ZM310.68 252.598H309.802V242.18H310.68V252.598ZM308.571 252.059H307.704V246.692H305.946V245.942H307.704V242.438H308.571V252.059ZM304.833 245.157C304.833 245.762 304.921 246.354 305.096 246.932C305.272 247.507 305.53 248.026 305.87 248.491C306.21 248.952 306.614 249.317 307.083 249.587L306.52 250.266C306.016 249.966 305.585 249.55 305.225 249.018C304.866 248.483 304.593 247.878 304.405 247.202C304.214 247.932 303.93 248.587 303.555 249.165C303.184 249.743 302.743 250.192 302.231 250.512L301.645 249.821C302.118 249.54 302.528 249.155 302.876 248.667C303.223 248.178 303.487 247.632 303.667 247.026C303.85 246.417 303.942 245.794 303.942 245.157V244.173H301.938V243.411H306.743V244.173H304.833V245.157Z" fill="#888882"/>
</g>
</g>
<g id="Paragraph_3" clip-path="url(#clip5_48_276)">
<path id="&#235;&#178;&#154;&#234;&#189;&#131; &#235;&#170;&#133;&#236;&#134;&#140;&#235;&#165;&#188; &#236;&#182;&#148;&#236;&#178;&#156;&#235;&#147;&#156;&#235;&#166;&#189;&#235;&#139;&#136;&#235;&#139;&#164;" d="M66.8823 270.237H70.2729V268.323H71.3257V270.729H74.1968V267.598H75.2769V274.694H74.1968V271.631H71.3257V273.969H65.8159V268.323H66.8823V270.237ZM70.2729 273.081V271.098H66.8823V273.081H70.2729ZM75.4409 276.211H72.0024C72.048 276.626 72.2554 277.023 72.6245 277.401C72.9937 277.775 73.4699 278.094 74.0532 278.358C74.6366 278.618 75.2586 278.795 75.9194 278.891L75.5093 279.725C74.5978 279.579 73.7707 279.294 73.0278 278.871C72.2896 278.447 71.7518 277.936 71.4146 277.339C71.0819 277.936 70.5464 278.444 69.8081 278.864C69.0744 279.283 68.2495 279.57 67.3335 279.725L66.937 278.891C67.5933 278.795 68.2108 278.618 68.7896 278.358C69.3683 278.098 69.8423 277.781 70.2114 277.408C70.5851 277.034 70.797 276.635 70.8472 276.211H67.4155V275.323H75.4409V276.211ZM87.1167 268.555C87.1167 269.107 87.0962 269.658 87.0552 270.209C87.0142 270.756 86.9162 271.381 86.7612 272.083L85.7222 271.946C85.8452 271.344 85.9295 270.806 85.9751 270.333C86.0252 269.859 86.0549 269.403 86.064 268.965H82.9878V268.077H87.1167V268.555ZM88.3745 273.709H77.314V272.821H82.5503V270.715H83.6167V272.821H88.3745V273.709ZM81.9761 268.528C81.9761 269.075 81.9419 269.626 81.8735 270.182C81.8097 270.734 81.6571 271.367 81.4155 272.083L80.3628 271.905C80.5679 271.303 80.7091 270.765 80.7866 270.292C80.8641 269.818 80.9074 269.375 80.9165 268.965H78.271V268.077H81.9761V268.528ZM86.9116 276.252H83.3638C83.4139 276.667 83.6326 277.059 84.02 277.428C84.4074 277.793 84.9019 278.103 85.5034 278.358C86.105 278.609 86.743 278.777 87.4175 278.864L87.021 279.684C86.0913 279.547 85.2459 279.276 84.4849 278.871C83.7284 278.465 83.1746 277.968 82.8237 277.38C82.4728 277.964 81.9168 278.458 81.1558 278.864C80.3993 279.274 79.5607 279.547 78.6401 279.684L78.2573 278.864C78.9227 278.777 79.5539 278.609 80.1509 278.358C80.7479 278.103 81.2378 277.793 81.6206 277.428C82.008 277.059 82.2267 276.667 82.2769 276.252H78.7358V275.391H82.2905V274.133H83.3569V275.391H86.9116V276.252ZM102.99 274.803H101.91V272.889H99.0659V273.928H93.4878V268.528H99.0659V269.581H101.91V267.598H102.99V274.803ZM94.5542 273.053H98.0132V269.403H94.5542V273.053ZM98.9565 275.159C99.7996 275.159 100.527 275.25 101.137 275.432C101.748 275.61 102.215 275.872 102.539 276.218C102.867 276.56 103.031 276.972 103.031 277.456C103.031 277.934 102.867 278.342 102.539 278.679C102.215 279.021 101.748 279.281 101.137 279.458C100.527 279.636 99.7996 279.725 98.9565 279.725C98.1134 279.725 97.3866 279.636 96.7759 279.458C96.1652 279.281 95.6958 279.021 95.3677 278.679C95.0441 278.342 94.8823 277.934 94.8823 277.456C94.8823 276.972 95.0441 276.56 95.3677 276.218C95.6958 275.872 96.1652 275.61 96.7759 275.432C97.3866 275.25 98.1134 275.159 98.9565 275.159ZM98.9565 275.993C98.3368 275.997 97.799 276.059 97.3433 276.177C96.8921 276.291 96.5457 276.458 96.3042 276.676C96.0627 276.895 95.9442 277.155 95.9487 277.456C95.9442 277.743 96.0627 277.993 96.3042 278.208C96.5503 278.422 96.8989 278.586 97.3501 278.7C97.8058 278.818 98.3413 278.877 98.9565 278.877C99.5718 278.877 100.105 278.818 100.556 278.7C101.007 278.586 101.354 278.424 101.595 278.214C101.841 278 101.964 277.747 101.964 277.456C101.964 277.155 101.844 276.895 101.602 276.676C101.361 276.458 101.014 276.291 100.563 276.177C100.112 276.059 99.5763 275.997 98.9565 275.993ZM101.91 271.987V270.469H99.0659V271.987H101.91ZM116.142 278.167H105.013V277.278H109.99V274.297H111.042V277.278H116.142V278.167ZM111.07 269.362C111.07 270.009 111.293 270.631 111.74 271.228C112.191 271.825 112.765 272.331 113.462 272.746C114.164 273.156 114.875 273.422 115.595 273.545L115.117 274.434C114.488 274.306 113.87 274.085 113.264 273.771C112.658 273.457 112.111 273.065 111.624 272.595C111.14 272.126 110.771 271.609 110.516 271.043C110.261 271.609 109.892 272.126 109.409 272.595C108.926 273.065 108.381 273.457 107.775 273.771C107.173 274.085 106.558 274.306 105.929 274.434L105.451 273.545C106.171 273.422 106.877 273.156 107.57 272.746C108.267 272.331 108.837 271.827 109.279 271.235C109.725 270.638 109.949 270.014 109.949 269.362V268.432H111.07V269.362ZM128.228 274.092H117.099V273.245H128.228V274.092ZM126.833 277.647H119.533V278.809H127.23V279.588H118.453V276.909H125.767V275.87H118.439V275.063H126.833V277.647ZM126.792 270.483H119.615V271.549H127.011V272.329H118.548V269.745H125.712V268.747H118.507V267.967H126.792V270.483ZM143.8 275.856H138.783V279.78H137.73V275.856H132.726V274.954H143.8V275.856ZM138.796 270.004C138.796 270.492 138.999 270.959 139.405 271.406C139.81 271.848 140.344 272.224 141.004 272.534C141.665 272.844 142.36 273.049 143.089 273.149L142.693 274.01C142.064 273.915 141.458 273.748 140.875 273.511C140.296 273.274 139.778 272.98 139.323 272.629C138.872 272.278 138.521 271.887 138.27 271.454C138.019 271.891 137.664 272.285 137.204 272.636C136.748 272.987 136.228 273.281 135.645 273.518C135.062 273.75 134.453 273.915 133.82 274.01L133.423 273.149C134.153 273.049 134.847 272.846 135.508 272.541C136.169 272.231 136.705 271.855 137.115 271.413C137.525 270.966 137.73 270.497 137.73 270.004V269.991H133.806V269.116H137.73V267.598H138.783V269.116H142.734V269.991H138.796V270.004ZM148.968 270.51C148.968 271.039 149.098 271.545 149.358 272.028C149.622 272.506 149.987 272.926 150.452 273.286C150.921 273.646 151.457 273.919 152.058 274.106L151.525 274.967C150.819 274.739 150.199 274.393 149.666 273.928C149.137 273.463 148.736 272.921 148.462 272.301C148.198 272.967 147.799 273.55 147.266 274.051C146.737 274.548 146.115 274.922 145.4 275.172L144.867 274.338C145.459 274.138 145.986 273.846 146.446 273.463C146.911 273.076 147.271 272.627 147.526 272.117C147.786 271.606 147.916 271.071 147.916 270.51V270.114H145.167V269.239H147.916V267.68H148.996V269.239H151.716V270.114H148.968V270.51ZM154.902 276.69H153.822V272.247H151.292V271.358H153.822V267.612H154.902V276.69ZM155.244 279.493H147.095V275.87H148.175V278.59H155.244V279.493ZM166.742 274.338H158.347V268.733H166.619V269.622H159.414V273.45H166.742V274.338ZM168.054 278.098H156.925V277.196H168.054V278.098ZM179.06 274.284H177.994V267.612H179.06V274.284ZM175.191 271.481H170.707V273.135C171.964 273.126 173.013 273.099 173.851 273.053C174.694 273.003 175.569 272.903 176.476 272.752L176.599 273.641C175.651 273.792 174.737 273.894 173.858 273.949C172.978 273.999 171.91 274.028 170.652 274.038H169.667V270.633H174.125V269.088H169.64V268.2H175.191V271.481ZM172.238 276.348H177.994V274.899H179.06V279.588H171.158V274.899H172.238V276.348ZM177.994 278.713V277.209H172.238V278.713H177.994ZM191.146 279.752H190.08V267.598H191.146V279.752ZM182.97 275.692C185.026 275.683 186.962 275.487 188.781 275.104L188.931 276.02C187.897 276.234 186.889 276.389 185.91 276.485C184.93 276.576 183.927 276.622 182.902 276.622H181.917V268.801H182.97V275.692ZM202.63 272.411H204.667V273.313H202.63V279.78H201.564V267.598H202.63V272.411ZM199.431 269.676H194.824V275.829C195.958 275.829 196.95 275.797 197.797 275.733C198.645 275.669 199.509 275.555 200.388 275.391L200.525 276.321C199.627 276.485 198.745 276.594 197.879 276.649C197.014 276.704 195.958 276.731 194.714 276.731H193.757V268.788H199.431V269.676Z" fill="#888882"/>
</g>
</g>
</g>
</g>
</g>
</g>
<defs>
<filter id="filter0_d_48_276" x="0" y="35.9917" width="335.526" height="89.4666" filterUnits="userSpaceOnUse" color-interpolation-filters="sRGB">
<feFlood flood-opacity="0" result="BackgroundImageFix"/>
<feColorMatrix in="SourceAlpha" type="matrix" values="0 0 0 0 0 0 0 0 0 0 0 0 0 0 0 0 0 0 127 0" result="hardAlpha"/>
<feOffset dy="1"/>
<feGaussianBlur stdDeviation="2"/>
<feColorMatrix type="matrix" values="0 0 0 0 0.118 0 0 0 0 0.157 0 0 0 0 0.133 0 0 0 0.06 0"/>
<feBlend mode="normal" in2="BackgroundImageFix" result="effect1_dropShadow_48_276"/>
<feBlend mode="normal" in="SourceGraphic" in2="effect1_dropShadow_48_276" result="shape"/>
</filter>
<filter id="filter1_d_48_276" x="0" y="125.453" width="335.526" height="89.4666" filterUnits="userSpaceOnUse" color-interpolation-filters="sRGB">
<feFlood flood-opacity="0" result="BackgroundImageFix"/>
<feColorMatrix in="SourceAlpha" type="matrix" values="0 0 0 0 0 0 0 0 0 0 0 0 0 0 0 0 0 0 127 0" result="hardAlpha"/>
<feOffset dy="1"/>
<feGaussianBlur stdDeviation="2"/>
<feColorMatrix type="matrix" values="0 0 0 0 0.118 0 0 0 0 0.157 0 0 0 0 0.133 0 0 0 0.06 0"/>
<feBlend mode="normal" in2="BackgroundImageFix" result="effect1_dropShadow_48_276"/>
<feBlend mode="normal" in="SourceGraphic" in2="effect1_dropShadow_48_276" result="shape"/>
</filter>
<filter id="filter2_d_48_276" x="0" y="214.915" width="335.526" height="89.4666" filterUnits="userSpaceOnUse" color-interpolation-filters="sRGB">
<feFlood flood-opacity="0" result="BackgroundImageFix"/>
<feColorMatrix in="SourceAlpha" type="matrix" values="0 0 0 0 0 0 0 0 0 0 0 0 0 0 0 0 0 0 127 0" result="hardAlpha"/>
<feOffset dy="1"/>
<feGaussianBlur stdDeviation="2"/>
<feColorMatrix type="matrix" values="0 0 0 0 0.118 0 0 0 0 0.157 0 0 0 0 0.133 0 0 0 0.06 0"/>
<feBlend mode="normal" in2="BackgroundImageFix" result="effect1_dropShadow_48_276"/>
<feBlend mode="normal" in="SourceGraphic" in2="effect1_dropShadow_48_276" result="shape"/>
</filter>
<clipPath id="clip0_48_276">
<rect width="123.205" height="23.9958" fill="white" transform="translate(64.7085 55.7292)"/>
</clipPath>
<clipPath id="clip1_48_276">
<rect width="250.08" height="19.9985" fill="white" transform="translate(64.7085 83.7224)"/>
</clipPath>
<clipPath id="clip2_48_276">
<rect width="107.216" height="23.9958" fill="white" transform="translate(64.7085 145.191)"/>
</clipPath>
<clipPath id="clip3_48_276">
<rect width="250.08" height="19.9985" fill="white" transform="translate(64.7085 173.184)"/>
</clipPath>
<clipPath id="clip4_48_276">
<rect width="69.6031" height="23.9958" fill="white" transform="translate(64.7085 234.652)"/>
</clipPath>
<clipPath id="clip5_48_276">
<rect width="250.08" height="19.9985" fill="white" transform="translate(64.7085 262.645)"/>
</clipPath>
</defs>
</svg>
