<svg width="200" height="210" viewBox="0 0 200 210" fill="none" xmlns="http://www.w3.org/2000/svg">
<g id="Property 1=Dark" filter="url(#filter0_dd_51_4058)">
<path d="M20 36C20 29.3726 25.3726 24 32 24H168C174.627 24 180 29.3726 180 36V158C180 164.627 174.627 170 168 170H32C25.3726 170 20 164.627 20 158V36Z" fill="#161A18"/>
<path d="M32 24.5H168C174.351 24.5 179.5 29.6487 179.5 36V158C179.5 164.351 174.351 169.5 168 169.5H32C25.6487 169.5 20.5 164.351 20.5 158V36C20.5 29.6487 25.6487 24.5 32 24.5Z" stroke="#373F3B"/>
<g id="Frame 31">
<path id="&#236;&#177;&#132;&#237;&#140;&#133; &#236;&#157;&#180;&#235;&#166;&#132; &#235;&#179;&#128;&#234;&#178;&#189;" d="M37.4688 39.7305C37.4688 40.2891 37.5605 40.8379 37.7441 41.377C37.9277 41.916 38.1914 42.4043 38.5352 42.8418C38.8828 43.2754 39.2891 43.6172 39.7539 43.8672L39.2148 44.5586C38.707 44.2812 38.2676 43.8906 37.8965 43.3867C37.5254 42.8828 37.2422 42.3105 37.0469 41.6699C36.8555 42.3535 36.5742 42.9668 36.2031 43.5098C35.832 44.0527 35.3945 44.4727 34.8906 44.7695L34.3398 44.0898C34.7969 43.8242 35.1953 43.4609 35.5352 43C35.875 42.5352 36.1367 42.0195 36.3203 41.4531C36.5039 40.8828 36.5977 40.3086 36.6016 39.7305V39.25H34.5859V38.4883H36.6016V36.918H37.4805V38.4883H39.4727V39.25H37.4688V39.7305ZM43.375 46.9492H42.4844V41.5352H41.0664V46.4219H40.1875V36.7539H41.0664V40.75H42.4844V36.5312H43.375V46.9492ZM50.5945 38.0547H46.5281V39.3672H50.3016V40.1172H46.5281V41.4883C47.7117 41.4883 48.6531 41.4707 49.3523 41.4355C50.0516 41.3965 50.7508 41.3203 51.45 41.207L51.5437 41.957C50.8133 42.0742 50.0848 42.1523 49.3582 42.1914C48.6316 42.2305 47.6609 42.25 46.4461 42.25H45.6023V37.3047H50.5945V38.0547ZM53.5945 43H52.6805V36.543H53.5945V43ZM50.1375 43.1523C50.8562 43.1484 51.4793 43.2207 52.0066 43.3691C52.534 43.5137 52.9383 43.7285 53.2195 44.0137C53.5008 44.2949 53.6414 44.6328 53.6414 45.0273C53.6414 45.4297 53.5008 45.7715 53.2195 46.0527C52.9383 46.3379 52.534 46.5547 52.0066 46.7031C51.4832 46.8516 50.8602 46.9258 50.1375 46.9258C49.3992 46.9258 48.7664 46.8516 48.2391 46.7031C47.7117 46.5586 47.3074 46.3438 47.0262 46.0586C46.7488 45.7734 46.6102 45.4297 46.6102 45.0273C46.6102 44.6328 46.7488 44.2949 47.0262 44.0137C47.3074 43.7285 47.7117 43.5137 48.2391 43.3691C48.7703 43.2207 49.4031 43.1484 50.1375 43.1523ZM50.1375 43.8789C49.5945 43.8789 49.1258 43.9258 48.7312 44.0195C48.3406 44.1094 48.0418 44.2402 47.8348 44.4121C47.6277 44.584 47.5242 44.7891 47.5242 45.0273C47.5242 45.2734 47.6277 45.4844 47.8348 45.6602C48.0418 45.8359 48.3406 45.9688 48.7312 46.0586C49.1258 46.1523 49.5945 46.1992 50.1375 46.1992C50.6687 46.1992 51.1297 46.1523 51.5203 46.0586C51.9109 45.9648 52.2117 45.8301 52.4227 45.6543C52.6336 45.4785 52.7391 45.2695 52.7391 45.0273C52.7391 44.793 52.6336 44.5898 52.4227 44.418C52.2117 44.2422 51.909 44.1094 51.5145 44.0195C51.1238 43.9258 50.6648 43.8789 50.1375 43.8789ZM67.3656 46.9727H66.4398V36.5312H67.3656V46.9727ZM61.8227 37.3398C62.3383 37.3438 62.7973 37.4961 63.1996 37.7969C63.602 38.0938 63.9164 38.5156 64.143 39.0625C64.3695 39.6094 64.4828 40.2461 64.4828 40.9727C64.4828 41.6992 64.3695 42.3359 64.143 42.8828C63.9164 43.4297 63.602 43.8516 63.1996 44.1484C62.7973 44.4453 62.3383 44.5938 61.8227 44.5938C61.307 44.5938 60.8461 44.4453 60.4398 44.1484C60.0375 43.8516 59.723 43.4297 59.4965 42.8828C59.2738 42.3359 59.1625 41.6992 59.1625 40.9727C59.1625 40.2461 59.2738 39.6094 59.4965 39.0625C59.723 38.5156 60.0375 38.0938 60.4398 37.7969C60.8422 37.4961 61.3031 37.3438 61.8227 37.3398ZM61.8227 38.1602C61.475 38.1641 61.1664 38.2832 60.8969 38.5176C60.6313 38.748 60.4242 39.0762 60.2758 39.502C60.1273 39.9238 60.0531 40.4141 60.0531 40.9727C60.0531 41.5312 60.1273 42.0234 60.2758 42.4492C60.4242 42.8711 60.6332 43.1973 60.9027 43.4277C61.1723 43.6582 61.4789 43.7734 61.8227 43.7734C62.1664 43.7734 62.473 43.6582 62.7426 43.4277C63.0121 43.1973 63.2211 42.8711 63.3695 42.4492C63.518 42.0234 63.5922 41.5312 63.5922 40.9727C63.5922 40.4141 63.518 39.9238 63.3695 39.502C63.2211 39.0762 63.0121 38.748 62.7426 38.5176C62.477 38.2832 62.1703 38.1641 61.8227 38.1602ZM78.8742 42.6719H69.3352V41.9102H78.8742V42.6719ZM77.6437 39.25H71.4914V40.293H77.8664V41.0078H70.5773V38.5586H76.718V37.5273H70.5422V36.7891H77.6437V39.25ZM77.6437 46.8086H70.6359V43.6211H77.6437V46.8086ZM71.5383 46.0586H76.7414V44.3711H71.5383V46.0586ZM91.7664 44.2539H90.8406V41.4531H88.3797V42.4727H83.657V37.2344H84.5711V39.0859H87.4773V37.2344H88.3797V38.4531H90.8406V36.543H91.7664V44.2539ZM92.0008 46.7266H85.0281V43.4922H85.9539V45.9531H92.0008V46.7266ZM87.4773 41.7109V39.8125H84.5711V41.7109H87.4773ZM90.8406 40.6914V39.2266H88.3797V40.6914H90.8406ZM102.338 42.8008H101.412V41.3945H98.6461V40.6328H101.412V39.2266H98.7457C98.4098 40.0547 97.8551 40.7695 97.0816 41.3711C96.3082 41.9727 95.357 42.4414 94.2281 42.7773L93.8414 42.0508C94.6813 41.8008 95.4098 41.4824 96.027 41.0957C96.6441 40.7051 97.1305 40.2559 97.4859 39.748C97.8414 39.2402 98.0504 38.6875 98.1129 38.0898H94.3688V37.3164H99.1148C99.1148 37.7188 99.0699 38.1094 98.9801 38.4883H101.412V36.543H102.338V42.8008ZM98.9273 42.9062C99.6266 42.9062 100.238 42.9863 100.761 43.1465C101.285 43.3066 101.687 43.5371 101.968 43.8379C102.254 44.1348 102.396 44.4883 102.396 44.8984C102.396 45.3125 102.254 45.6699 101.968 45.9707C101.687 46.2715 101.285 46.502 100.761 46.6621C100.238 46.8223 99.6266 46.9023 98.9273 46.9023C98.2203 46.9023 97.6051 46.8223 97.0816 46.6621C96.5582 46.502 96.1539 46.2715 95.8688 45.9707C95.5875 45.6699 95.4469 45.3125 95.4469 44.8984C95.4469 44.4883 95.5875 44.1348 95.8688 43.8379C96.1539 43.5371 96.5582 43.3066 97.0816 43.1465C97.6051 42.9863 98.2203 42.9062 98.9273 42.9062ZM98.9273 43.6445C98.4078 43.6406 97.9527 43.6895 97.5621 43.791C97.1754 43.8887 96.8766 44.0332 96.6656 44.2246C96.4547 44.416 96.3492 44.6406 96.3492 44.8984C96.3492 45.1562 96.4547 45.3809 96.6656 45.5723C96.8766 45.7598 97.1754 45.9023 97.5621 46C97.9488 46.1016 98.4039 46.1523 98.9273 46.1523C99.443 46.1523 99.8922 46.1016 100.275 46C100.658 45.9023 100.953 45.7598 101.16 45.5723C101.371 45.3809 101.478 45.1562 101.482 44.8984C101.478 44.6406 101.371 44.416 101.16 44.2246C100.949 44.0332 100.652 43.8887 100.269 43.791C99.8863 43.6895 99.4391 43.6406 98.9273 43.6445Z" fill="#E8E4DC"/>
<g id="Frame">
<path id="Vector" d="M159.167 34.8335H153.333C152.873 34.8335 152.5 35.2066 152.5 35.6668V48.1668C152.5 48.6271 152.873 49.0002 153.333 49.0002H165.833C166.294 49.0002 166.667 48.6271 166.667 47.3335V41.5002" stroke="#E8E4DC" stroke-width="1.5" stroke-linecap="round" stroke-linejoin="round"/>
<path id="Vector_2" d="M165.417 33.5832C166.107 32.8928 167.226 32.8928 167.917 33.5832C168.607 34.2736 168.607 35.3928 167.917 36.0832L160 43.9999L156.667 44.8332L157.5 41.4999L165.417 33.5832Z" stroke="#E8E4DC" stroke-width="1.5" stroke-linecap="round" stroke-linejoin="round"/>
</g>
</g>
<line id="Line 1" x1="20" y1="59.75" x2="180" y2="59.75" stroke="#373F3B" stroke-width="0.5"/>
<g id="Frame 34">
<path id="&#234;&#184;&#176;&#235;&#179;&#184; &#236;&#160;&#149;&#235;&#179;&#180; &#236;&#136;&#152;&#236;&#160;&#149;" d="M43.0352 83.4492H42.1094V73.0312H43.0352V83.4492ZM39.9531 74.168C39.9453 75.7422 39.5469 77.1562 38.7578 78.4102C37.9688 79.6602 36.7344 80.6875 35.0547 81.4922L34.5508 80.7422C35.9414 80.082 37.0059 79.2617 37.7441 78.2812C38.4863 77.3008 38.9102 76.1797 39.0156 74.918H35.0312V74.168H39.9531ZM46.9727 74.7773H52.1289V73.4531H53.043V77.6133H49.9961V78.7266H54.2852V79.4883H44.793V78.7266H49.082V77.6133H46.0586V73.4531H46.9727V74.7773ZM52.1289 76.875V75.5039H46.9727V76.875H52.1289ZM53.2305 83.2266H46.0234V80.3203H46.9492V82.4531H53.2305V83.2266ZM66.8125 79.2422H65.8867V76.5117H63.7891V75.75H65.8867V73.0312H66.8125V79.2422ZM63.3555 79.5703C64.0781 79.5703 64.7012 79.6465 65.2246 79.7988C65.748 79.9512 66.1484 80.1719 66.4258 80.4609C66.707 80.75 66.8477 81.0977 66.8477 81.5039C66.8477 81.9102 66.707 82.2578 66.4258 82.5469C66.1484 82.8398 65.748 83.0625 65.2246 83.2148C64.7012 83.3672 64.0781 83.4453 63.3555 83.4492C62.6328 83.4453 62.0098 83.3672 61.4863 83.2148C60.9629 83.0625 60.5605 82.8398 60.2793 82.5469C60.002 82.2578 59.8633 81.9102 59.8633 81.5039C59.8633 81.0977 60.002 80.75 60.2793 80.4609C60.5605 80.1719 60.9629 79.9512 61.4863 79.7988C62.0098 79.6465 62.6328 79.5703 63.3555 79.5703ZM63.3555 80.2852C62.8281 80.2852 62.3691 80.334 61.9785 80.4316C61.5879 80.5293 61.2891 80.6699 61.082 80.8535C60.875 81.0371 60.7734 81.2539 60.7773 81.5039C60.7734 81.75 60.875 81.9648 61.082 82.1484C61.2891 82.3281 61.5879 82.4668 61.9785 82.5645C62.3691 82.6621 62.8281 82.7109 63.3555 82.7109C63.8828 82.7109 64.3398 82.6621 64.7266 82.5645C65.1172 82.4668 65.416 82.3281 65.623 82.1484C65.8301 81.9648 65.9336 81.75 65.9336 81.5039C65.9336 81.2539 65.8301 81.0371 65.623 80.8535C65.416 80.6699 65.1172 80.5293 64.7266 80.4316C64.3398 80.334 63.8828 80.2852 63.3555 80.2852ZM61.7969 74.9414C61.7969 75.3906 61.9043 75.8262 62.1191 76.248C62.334 76.666 62.6348 77.0391 63.0215 77.3672C63.4121 77.6914 63.8594 77.9414 64.3633 78.1172L63.8828 78.8555C63.3008 78.6445 62.7891 78.332 62.3477 77.918C61.9102 77.5039 61.5801 77.0254 61.3574 76.4824C61.1309 77.0918 60.7852 77.6309 60.3203 78.0996C59.8594 78.5645 59.3203 78.9141 58.7031 79.1484L58.2227 78.4102C58.7344 78.2227 59.1914 77.9531 59.5938 77.6016C59.9961 77.2461 60.3086 76.8379 60.5312 76.377C60.7578 75.916 60.8711 75.4414 60.8711 74.9531V74.5664H58.5156V73.793H64.1289V74.5664H61.7969V74.9414ZM78.0859 82.1133H68.5469V81.3516H72.8359V79.1016H69.6719V73.7695H70.5977V75.6562H76.0117V73.7695H76.9141V79.1016H73.7383V81.3516H78.0859V82.1133ZM76.0117 78.3516V76.4062H70.5977V78.3516H76.0117ZM87.1562 74.0039C87.1562 74.4727 87.3379 74.9219 87.7012 75.3516C88.0684 75.7812 88.5449 76.1426 89.1309 76.4355C89.7168 76.7285 90.3242 76.918 90.9531 77.0039L90.5781 77.7539C90.0312 77.6641 89.502 77.5078 88.9902 77.2852C88.4785 77.0586 88.0215 76.7773 87.6191 76.4414C87.2168 76.1016 86.9062 75.7246 86.6875 75.3105C86.4727 75.7246 86.1621 76.1016 85.7559 76.4414C85.3535 76.7773 84.8965 77.0586 84.3848 77.2852C83.873 77.5078 83.3438 77.6641 82.7969 77.7539L82.4219 77.0039C83.0547 76.918 83.6621 76.7305 84.2441 76.4414C84.8262 76.1484 85.2988 75.7891 85.6621 75.3633C86.0254 74.9336 86.207 74.4805 86.207 74.0039V73.4062H87.1562V74.0039ZM91.4219 79.6758H87.1094V83.4492H86.207V79.6758H81.9297V78.9023H91.4219V79.6758ZM100.938 79.2422H100.012V76.5117H97.9141V75.75H100.012V73.0312H100.938V79.2422ZM97.4805 79.5703C98.2031 79.5703 98.8262 79.6465 99.3496 79.7988C99.873 79.9512 100.273 80.1719 100.551 80.4609C100.832 80.75 100.973 81.0977 100.973 81.5039C100.973 81.9102 100.832 82.2578 100.551 82.5469C100.273 82.8398 99.873 83.0625 99.3496 83.2148C98.8262 83.3672 98.2031 83.4453 97.4805 83.4492C96.7578 83.4453 96.1348 83.3672 95.6113 83.2148C95.0879 83.0625 94.6855 82.8398 94.4043 82.5469C94.127 82.2578 93.9883 81.9102 93.9883 81.5039C93.9883 81.0977 94.127 80.75 94.4043 80.4609C94.6855 80.1719 95.0879 79.9512 95.6113 79.7988C96.1348 79.6465 96.7578 79.5703 97.4805 79.5703ZM97.4805 80.2852C96.9531 80.2852 96.4941 80.334 96.1035 80.4316C95.7129 80.5293 95.4141 80.6699 95.207 80.8535C95 81.0371 94.8984 81.2539 94.9023 81.5039C94.8984 81.75 95 81.9648 95.207 82.1484C95.4141 82.3281 95.7129 82.4668 96.1035 82.5645C96.4941 82.6621 96.9531 82.7109 97.4805 82.7109C98.0078 82.7109 98.4648 82.6621 98.8516 82.5645C99.2422 82.4668 99.541 82.3281 99.748 82.1484C99.9551 81.9648 100.059 81.75 100.059 81.5039C100.059 81.2539 99.9551 81.0371 99.748 80.8535C99.541 80.6699 99.2422 80.5293 98.8516 80.4316C98.4648 80.334 98.0078 80.2852 97.4805 80.2852ZM95.9219 74.9414C95.9219 75.3906 96.0293 75.8262 96.2441 76.248C96.459 76.666 96.7598 77.0391 97.1465 77.3672C97.5371 77.6914 97.9844 77.9414 98.4883 78.1172L98.0078 78.8555C97.4258 78.6445 96.9141 78.332 96.4727 77.918C96.0352 77.5039 95.7051 77.0254 95.4824 76.4824C95.2559 77.0918 94.9102 77.6309 94.4453 78.0996C93.9844 78.5645 93.4453 78.9141 92.8281 79.1484L92.3477 78.4102C92.8594 78.2227 93.3164 77.9531 93.7188 77.6016C94.1211 77.2461 94.4336 76.8379 94.6562 76.377C94.8828 75.916 94.9961 75.4414 94.9961 74.9531V74.5664H92.6406V73.793H98.2539V74.5664H95.9219V74.9414Z" fill="#E8E4DC"/>
<g id="Frame_2">
<path id="Vector_3" d="M149 72.5H169" stroke="#E8E4DC" stroke-width="1.8" stroke-linecap="round"/>
<path id="Vector_4" d="M149 78.5H169" stroke="#E8E4DC" stroke-width="1.8" stroke-linecap="round"/>
<path id="Vector_5" d="M149 84.5H169" stroke="#E8E4DC" stroke-width="1.8" stroke-linecap="round"/>
<path id="Vector_6" d="M154 75C155.381 75 156.5 73.8807 156.5 72.5C156.5 71.1193 155.381 70 154 70C152.619 70 151.5 71.1193 151.5 72.5C151.5 73.8807 152.619 75 154 75Z" fill="#262B28" stroke="#E8E4DC" stroke-width="1.8"/>
<path id="Vector_7" d="M163 81C164.381 81 165.5 79.8807 165.5 78.5C165.5 77.1193 164.381 76 163 76C161.619 76 160.5 77.1193 160.5 78.5C160.5 79.8807 161.619 81 163 81Z" fill="#262B28" stroke="#E8E4DC" stroke-width="1.8"/>
<path id="Vector_8" d="M156 87C157.381 87 158.5 85.8807 158.5 84.5C158.5 83.1193 157.381 82 156 82C154.619 82 153.5 83.1193 153.5 84.5C153.5 85.8807 154.619 87 156 87Z" fill="#262B28" stroke="#E8E4DC" stroke-width="1.8"/>
</g>
</g>
<line id="Line 3" x1="20" y1="96.75" x2="180" y2="96.75" stroke="#373F3B" stroke-width="0.5"/>
<g id="Frame 32">
<path id="&#236;&#157;&#188;&#236;&#160;&#149; &#235;&#179;&#180;&#234;&#184;&#176;" d="M37.375 110.418C37.8906 110.422 38.3516 110.521 38.7578 110.717C39.168 110.912 39.4883 111.186 39.7188 111.537C39.9531 111.885 40.0703 112.281 40.0703 112.727C40.0703 113.172 39.9531 113.57 39.7188 113.922C39.4883 114.27 39.168 114.541 38.7578 114.736C38.3516 114.928 37.8906 115.023 37.375 115.023C36.8516 115.023 36.3848 114.928 35.9746 114.736C35.5645 114.541 35.2441 114.27 35.0137 113.922C34.7832 113.57 34.668 113.172 34.668 112.727C34.668 112.281 34.7832 111.885 35.0137 111.537C35.2441 111.186 35.5645 110.912 35.9746 110.717C36.3848 110.521 36.8516 110.422 37.375 110.418ZM37.375 111.191C37.0312 111.191 36.7207 111.258 36.4434 111.391C36.1699 111.52 35.9551 111.701 35.7988 111.936C35.6426 112.166 35.5664 112.43 35.5703 112.727C35.5664 113.027 35.6426 113.295 35.7988 113.529C35.9551 113.764 36.1699 113.947 36.4434 114.08C36.7207 114.209 37.0312 114.273 37.375 114.273C37.7148 114.273 38.0215 114.209 38.2949 114.08C38.5723 113.947 38.7891 113.764 38.9453 113.529C39.1016 113.295 39.1797 113.027 39.1797 112.727C39.1797 112.43 39.1016 112.166 38.9453 111.936C38.7891 111.701 38.5723 111.52 38.2949 111.391C38.0215 111.258 37.7148 111.191 37.375 111.191ZM43.0234 115.387H42.1094V110.031H43.0234V115.387ZM43.0234 118.398H37.1758V119.57H43.3984V120.309H36.2734V117.707H42.1094V116.629H36.25V115.891H43.0234V118.398ZM53.4297 116.242H52.5039V113.512H50.4062V112.75H52.5039V110.031H53.4297V116.242ZM49.9727 116.57C50.6953 116.57 51.3184 116.646 51.8418 116.799C52.3652 116.951 52.7656 117.172 53.043 117.461C53.3242 117.75 53.4648 118.098 53.4648 118.504C53.4648 118.91 53.3242 119.258 53.043 119.547C52.7656 119.84 52.3652 120.062 51.8418 120.215C51.3184 120.367 50.6953 120.445 49.9727 120.449C49.25 120.445 48.627 120.367 48.1035 120.215C47.5801 120.062 47.1777 119.84 46.8965 119.547C46.6191 119.258 46.4805 118.91 46.4805 118.504C46.4805 118.098 46.6191 117.75 46.8965 117.461C47.1777 117.172 47.5801 116.951 48.1035 116.799C48.627 116.646 49.25 116.57 49.9727 116.57ZM49.9727 117.285C49.4453 117.285 48.9863 117.334 48.5957 117.432C48.2051 117.529 47.9062 117.67 47.6992 117.854C47.4922 118.037 47.3906 118.254 47.3945 118.504C47.3906 118.75 47.4922 118.965 47.6992 119.148C47.9062 119.328 48.2051 119.467 48.5957 119.564C48.9863 119.662 49.4453 119.711 49.9727 119.711C50.5 119.711 50.957 119.662 51.3438 119.564C51.7344 119.467 52.0332 119.328 52.2402 119.148C52.4473 118.965 52.5508 118.75 52.5508 118.504C52.5508 118.254 52.4473 118.037 52.2402 117.854C52.0332 117.67 51.7344 117.529 51.3438 117.432C50.957 117.334 50.5 117.285 49.9727 117.285ZM48.4141 111.941C48.4141 112.391 48.5215 112.826 48.7363 113.248C48.9512 113.666 49.252 114.039 49.6387 114.367C50.0293 114.691 50.4766 114.941 50.9805 115.117L50.5 115.855C49.918 115.645 49.4062 115.332 48.9648 114.918C48.5273 114.504 48.1973 114.025 47.9746 113.482C47.748 114.092 47.4023 114.631 46.9375 115.1C46.4766 115.564 45.9375 115.914 45.3203 116.148L44.8398 115.41C45.3516 115.223 45.8086 114.953 46.2109 114.602C46.6133 114.246 46.9258 113.838 47.1484 113.377C47.375 112.916 47.4883 112.441 47.4883 111.953V111.566H45.1328V110.793H50.7461V111.566H48.4141V111.941ZM67.7148 119.113H58.1758V118.352H62.4648V116.102H59.3008V110.77H60.2266V112.656H65.6406V110.77H66.543V116.102H63.3672V118.352H67.7148V119.113ZM65.6406 115.352V113.406H60.2266V115.352H65.6406ZM77.1602 120.449H76.2344V110.031H77.1602V120.449ZM74.0781 111.168C74.0703 112.742 73.6719 114.156 72.8828 115.41C72.0938 116.66 70.8594 117.688 69.1797 118.492L68.6758 117.742C70.0664 117.082 71.1309 116.262 71.8691 115.281C72.6113 114.301 73.0352 113.18 73.1406 111.918H69.1562V111.168H74.0781Z" fill="#E8E4DC"/>
<g id="Frame_3">
<path id="Vector_9" d="M164.833 108.833H153.167C152.246 108.833 151.5 109.58 151.5 110.5V122.167C151.5 123.087 152.246 123.833 153.167 123.833H164.833C165.754 123.833 166.5 123.087 166.5 122.167V110.5C166.5 109.58 165.754 108.833 164.833 108.833Z" stroke="#E8E4DC" stroke-width="1.5" stroke-linecap="round" stroke-linejoin="round"/>
<path id="Vector_10" d="M162.333 107.167V110.5" stroke="#E8E4DC" stroke-width="1.5" stroke-linecap="round" stroke-linejoin="round"/>
<path id="Vector_11" d="M155.667 107.167V110.5" stroke="#E8E4DC" stroke-width="1.5" stroke-linecap="round" stroke-linejoin="round"/>
<path id="Vector_12" d="M151.5 113.833H166.5" stroke="#E8E4DC" stroke-width="1.5" stroke-linecap="round" stroke-linejoin="round"/>
<path id="Vector_13" d="M155.667 117.167H162.333" stroke="#E8E4DC" stroke-width="1.5" stroke-linecap="round" stroke-linejoin="round"/>
<path id="Vector_14" d="M155.667 120.5H159" stroke="#E8E4DC" stroke-width="1.5" stroke-linecap="round" stroke-linejoin="round"/>
</g>
</g>
<line id="Line 2" x1="20" y1="133.75" x2="180" y2="133.75" stroke="#373F3B" stroke-width="0.5"/>
<g id="Frame 33">
<path id="&#236;&#130;&#173;&#236;&#160;&#156;" d="M37.9258 148.707C37.9219 149.172 38.0293 149.621 38.248 150.055C38.4668 150.484 38.7734 150.865 39.168 151.197C39.5664 151.525 40.0195 151.777 40.5273 151.953L40.0469 152.68C39.4609 152.469 38.9453 152.154 38.5 151.736C38.0586 151.314 37.7227 150.826 37.4922 150.271C37.2734 150.881 36.9375 151.414 36.4844 151.871C36.0312 152.324 35.4961 152.664 34.8789 152.891L34.3984 152.152C34.918 151.965 35.375 151.697 35.7695 151.35C36.1641 150.998 36.4707 150.59 36.6895 150.125C36.9082 149.66 37.0195 149.168 37.0234 148.648V147.57H37.9258V148.707ZM42.5664 149.797H44.1367V150.582H42.5664V153.348H41.6523V147.031H42.5664V149.797ZM42.5664 157.449H41.6523V154.613H35.7461V153.863H42.5664V157.449ZM53.6992 157.449H52.8203V147.031H53.6992V157.449ZM51.5898 156.91H50.7227V151.543H48.9648V150.793H50.7227V147.289H51.5898V156.91ZM47.8516 150.008C47.8516 150.613 47.9395 151.205 48.1152 151.783C48.291 152.357 48.5488 152.877 48.8887 153.342C49.2285 153.803 49.6328 154.168 50.1016 154.438L49.5391 155.117C49.0352 154.816 48.6035 154.4 48.2441 153.869C47.8848 153.334 47.6113 152.729 47.4238 152.053C47.2324 152.783 46.9492 153.438 46.5742 154.016C46.2031 154.594 45.7617 155.043 45.25 155.363L44.6641 154.672C45.1367 154.391 45.5469 154.006 45.8945 153.518C46.2422 153.029 46.5059 152.482 46.6855 151.877C46.8691 151.268 46.9609 150.645 46.9609 150.008V149.023H44.957V148.262H49.7617V149.023H47.8516V150.008Z" fill="#C45650"/>
<g id="Frame_4">
<path id="Vector_15" d="M151.5 147.5H166.5" stroke="#C45650" stroke-width="1.5" stroke-linecap="round" stroke-linejoin="round"/>
<path id="Vector_16" d="M155.667 147.5V145.833C155.667 145.373 156.04 145 156.5 145H161.5C161.96 145 162.333 145.373 162.333 145.833V147.5" stroke="#C45650" stroke-width="1.5" stroke-linecap="round" stroke-linejoin="round"/>
<path id="Vector_17" d="M164.833 147.5L164 159.167C164 159.627 163.627 160 163.167 160H154.833C154.373 160 154 159.627 154 159.167L153.167 147.5" stroke="#C45650" stroke-width="1.5" stroke-linecap="round" stroke-linejoin="round"/>
<path id="Vector_18" d="M157.333 151.667V156.667" stroke="#C45650" stroke-width="1.5" stroke-linecap="round" stroke-linejoin="round"/>
<path id="Vector_19" d="M160.667 151.667V156.667" stroke="#C45650" stroke-width="1.5" stroke-linecap="round" stroke-linejoin="round"/>
</g>
</g>
</g>
<defs>
<filter id="filter0_dd_51_4058" x="-12" y="0" width="224" height="210" filterUnits="userSpaceOnUse" color-interpolation-filters="sRGB">
<feFlood flood-opacity="0" result="BackgroundImageFix"/>
<feColorMatrix in="SourceAlpha" type="matrix" values="0 0 0 0 0 0 0 0 0 0 0 0 0 0 0 0 0 0 127 0" result="hardAlpha"/>
<feOffset dy="8"/>
<feGaussianBlur stdDeviation="16"/>
<feColorMatrix type="matrix" values="0 0 0 0 0 0 0 0 0 0 0 0 0 0 0 0 0 0 0.5 0"/>
<feBlend mode="normal" in2="BackgroundImageFix" result="effect1_dropShadow_51_4058"/>
<feColorMatrix in="SourceAlpha" type="matrix" values="0 0 0 0 0 0 0 0 0 0 0 0 0 0 0 0 0 0 127 0" result="hardAlpha"/>
<feOffset dy="2"/>
<feGaussianBlur stdDeviation="4"/>
<feColorMatrix type="matrix" values="0 0 0 0 0 0 0 0 0 0 0 0 0 0 0 0 0 0 0.25 0"/>
<feBlend mode="normal" in2="effect1_dropShadow_51_4058" result="effect2_dropShadow_51_4058"/>
<feBlend mode="normal" in="SourceGraphic" in2="effect2_dropShadow_51_4058" result="shape"/>
</filter>
</defs>
</svg>
