<svg width="200" height="206" viewBox="0 0 200 206" fill="none" xmlns="http://www.w3.org/2000/svg">
<g id="Property 1=Light" filter="url(#filter0_dd_51_4056)">
<path d="M20 32C20 25.3726 25.3726 20 32 20H168C174.627 20 180 25.3726 180 32V154C180 160.627 174.627 166 168 166H32C25.3726 166 20 160.627 20 154V32Z" fill="#FAFAF7"/>
<path d="M32 20.5H168C174.351 20.5 179.5 25.6487 179.5 32V154C179.5 160.351 174.351 165.5 168 165.5H32C25.6487 165.5 20.5 160.351 20.5 154V32C20.5 25.6487 25.6487 20.5 32 20.5Z" stroke="#E2DDD5"/>
<g id="Frame 31">
<path id="&#236;&#177;&#132;&#237;&#140;&#133; &#236;&#157;&#180;&#235;&#166;&#132; &#235;&#179;&#128;&#234;&#178;&#189;" d="M37.4688 35.7305C37.4688 36.2891 37.5605 36.8379 37.7441 37.377C37.9277 37.916 38.1914 38.4043 38.5352 38.8418C38.8828 39.2754 39.2891 39.6172 39.7539 39.8672L39.2148 40.5586C38.707 40.2812 38.2676 39.8906 37.8965 39.3867C37.5254 38.8828 37.2422 38.3105 37.0469 37.6699C36.8555 38.3535 36.5742 38.9668 36.2031 39.5098C35.832 40.0527 35.3945 40.4727 34.8906 40.7695L34.3398 40.0898C34.7969 39.8242 35.1953 39.4609 35.5352 39C35.875 38.5352 36.1367 38.0195 36.3203 37.4531C36.5039 36.8828 36.5977 36.3086 36.6016 35.7305V35.25H34.5859V34.4883H36.6016V32.918H37.4805V34.4883H39.4727V35.25H37.4688V35.7305ZM43.375 42.9492H42.4844V37.5352H41.0664V42.4219H40.1875V32.7539H41.0664V36.75H42.4844V32.5312H43.375V42.9492ZM50.5945 34.0547H46.5281V35.3672H50.3016V36.1172H46.5281V37.4883C47.7117 37.4883 48.6531 37.4707 49.3523 37.4355C50.0516 37.3965 50.7508 37.3203 51.45 37.207L51.5437 37.957C50.8133 38.0742 50.0848 38.1523 49.3582 38.1914C48.6316 38.2305 47.6609 38.25 46.4461 38.25H45.6023V33.3047H50.5945V34.0547ZM53.5945 39H52.6805V32.543H53.5945V39ZM50.1375 39.1523C50.8562 39.1484 51.4793 39.2207 52.0066 39.3691C52.534 39.5137 52.9383 39.7285 53.2195 40.0137C53.5008 40.2949 53.6414 40.6328 53.6414 41.0273C53.6414 41.4297 53.5008 41.7715 53.2195 42.0527C52.9383 42.3379 52.534 42.5547 52.0066 42.7031C51.4832 42.8516 50.8602 42.9258 50.1375 42.9258C49.3992 42.9258 48.7664 42.8516 48.2391 42.7031C47.7117 42.5586 47.3074 42.3438 47.0262 42.0586C46.7488 41.7734 46.6102 41.4297 46.6102 41.0273C46.6102 40.6328 46.7488 40.2949 47.0262 40.0137C47.3074 39.7285 47.7117 39.5137 48.2391 39.3691C48.7703 39.2207 49.4031 39.1484 50.1375 39.1523ZM50.1375 39.8789C49.5945 39.8789 49.1258 39.9258 48.7312 40.0195C48.3406 40.1094 48.0418 40.2402 47.8348 40.4121C47.6277 40.584 47.5242 40.7891 47.5242 41.0273C47.5242 41.2734 47.6277 41.4844 47.8348 41.6602C48.0418 41.8359 48.3406 41.9688 48.7312 42.0586C49.1258 42.1523 49.5945 42.1992 50.1375 42.1992C50.6687 42.1992 51.1297 42.1523 51.5203 42.0586C51.9109 41.9648 52.2117 41.8301 52.4227 41.6543C52.6336 41.4785 52.7391 41.2695 52.7391 41.0273C52.7391 40.793 52.6336 40.5898 52.4227 40.418C52.2117 40.2422 51.909 40.1094 51.5145 40.0195C51.1238 39.9258 50.6648 39.8789 50.1375 39.8789ZM67.3656 42.9727H66.4398V32.5312H67.3656V42.9727ZM61.8227 33.3398C62.3383 33.3438 62.7973 33.4961 63.1996 33.7969C63.602 34.0938 63.9164 34.5156 64.143 35.0625C64.3695 35.6094 64.4828 36.2461 64.4828 36.9727C64.4828 37.6992 64.3695 38.3359 64.143 38.8828C63.9164 39.4297 63.602 39.8516 63.1996 40.1484C62.7973 40.4453 62.3383 40.5938 61.8227 40.5938C61.307 40.5938 60.8461 40.4453 60.4398 40.1484C60.0375 39.8516 59.723 39.4297 59.4965 38.8828C59.2738 38.3359 59.1625 37.6992 59.1625 36.9727C59.1625 36.2461 59.2738 35.6094 59.4965 35.0625C59.723 34.5156 60.0375 34.0938 60.4398 33.7969C60.8422 33.4961 61.3031 33.3438 61.8227 33.3398ZM61.8227 34.1602C61.475 34.1641 61.1664 34.2832 60.8969 34.5176C60.6313 34.748 60.4242 35.0762 60.2758 35.502C60.1273 35.9238 60.0531 36.4141 60.0531 36.9727C60.0531 37.5312 60.1273 38.0234 60.2758 38.4492C60.4242 38.8711 60.6332 39.1973 60.9027 39.4277C61.1723 39.6582 61.4789 39.7734 61.8227 39.7734C62.1664 39.7734 62.473 39.6582 62.7426 39.4277C63.0121 39.1973 63.2211 38.8711 63.3695 38.4492C63.518 38.0234 63.5922 37.5312 63.5922 36.9727C63.5922 36.4141 63.518 35.9238 63.3695 35.502C63.2211 35.0762 63.0121 34.748 62.7426 34.5176C62.477 34.2832 62.1703 34.1641 61.8227 34.1602ZM78.8742 38.6719H69.3352V37.9102H78.8742V38.6719ZM77.6437 35.25H71.4914V36.293H77.8664V37.0078H70.5773V34.5586H76.718V33.5273H70.5422V32.7891H77.6437V35.25ZM77.6437 42.8086H70.6359V39.6211H77.6437V42.8086ZM71.5383 42.0586H76.7414V40.3711H71.5383V42.0586ZM91.7664 40.2539H90.8406V37.4531H88.3797V38.4727H83.657V33.2344H84.5711V35.0859H87.4773V33.2344H88.3797V34.4531H90.8406V32.543H91.7664V40.2539ZM92.0008 42.7266H85.0281V39.4922H85.9539V41.9531H92.0008V42.7266ZM87.4773 37.7109V35.8125H84.5711V37.7109H87.4773ZM90.8406 36.6914V35.2266H88.3797V36.6914H90.8406ZM102.338 38.8008H101.412V37.3945H98.6461V36.6328H101.412V35.2266H98.7457C98.4098 36.0547 97.8551 36.7695 97.0816 37.3711C96.3082 37.9727 95.357 38.4414 94.2281 38.7773L93.8414 38.0508C94.6813 37.8008 95.4098 37.4824 96.027 37.0957C96.6441 36.7051 97.1305 36.2559 97.4859 35.748C97.8414 35.2402 98.0504 34.6875 98.1129 34.0898H94.3688V33.3164H99.1148C99.1148 33.7188 99.0699 34.1094 98.9801 34.4883H101.412V32.543H102.338V38.8008ZM98.9273 38.9062C99.6266 38.9062 100.238 38.9863 100.761 39.1465C101.285 39.3066 101.687 39.5371 101.968 39.8379C102.254 40.1348 102.396 40.4883 102.396 40.8984C102.396 41.3125 102.254 41.6699 101.968 41.9707C101.687 42.2715 101.285 42.502 100.761 42.6621C100.238 42.8223 99.6266 42.9023 98.9273 42.9023C98.2203 42.9023 97.6051 42.8223 97.0816 42.6621C96.5582 42.502 96.1539 42.2715 95.8688 41.9707C95.5875 41.6699 95.4469 41.3125 95.4469 40.8984C95.4469 40.4883 95.5875 40.1348 95.8688 39.8379C96.1539 39.5371 96.5582 39.3066 97.0816 39.1465C97.6051 38.9863 98.2203 38.9062 98.9273 38.9062ZM98.9273 39.6445C98.4078 39.6406 97.9527 39.6895 97.5621 39.791C97.1754 39.8887 96.8766 40.0332 96.6656 40.2246C96.4547 40.416 96.3492 40.6406 96.3492 40.8984C96.3492 41.1562 96.4547 41.3809 96.6656 41.5723C96.8766 41.7598 97.1754 41.9023 97.5621 42C97.9488 42.1016 98.4039 42.1523 98.9273 42.1523C99.443 42.1523 99.8922 42.1016 100.275 42C100.658 41.9023 100.953 41.7598 101.16 41.5723C101.371 41.3809 101.478 41.1562 101.482 40.8984C101.478 40.6406 101.371 40.416 101.16 40.2246C100.949 40.0332 100.652 39.8887 100.269 39.791C99.8863 39.6895 99.4391 39.6406 98.9273 39.6445Z" fill="#1A1A1A"/>
<g id="Frame">
<path id="Vector" d="M159.167 30.8335H153.333C152.873 30.8335 152.5 31.2066 152.5 31.6668V44.1668C152.5 44.6271 152.873 45.0002 153.333 45.0002H165.833C166.294 45.0002 166.667 44.6271 166.667 43.3335V37.5002" stroke="#1A1A1A" stroke-width="1.5" stroke-linecap="round" stroke-linejoin="round"/>
<path id="Vector_2" d="M165.417 29.5832C166.107 28.8928 167.226 28.8928 167.917 29.5832C168.607 30.2736 168.607 31.3928 167.917 32.0832L160 39.9999L156.667 40.8332L157.5 37.4999L165.417 29.5832Z" stroke="#1A1A1A" stroke-width="1.5" stroke-linecap="round" stroke-linejoin="round"/>
</g>
</g>
<line id="Line 1" x1="20" y1="55.75" x2="180" y2="55.75" stroke="#E2DDD5" stroke-width="0.5"/>
<g id="Frame 32">
<path id="&#234;&#184;&#176;&#235;&#179;&#184; &#236;&#160;&#149;&#235;&#179;&#180; &#236;&#136;&#152;&#236;&#160;&#149;" d="M43.0352 79.9492H42.1094V69.5312H43.0352V79.9492ZM39.9531 70.668C39.9453 72.2422 39.5469 73.6562 38.7578 74.9102C37.9688 76.1602 36.7344 77.1875 35.0547 77.9922L34.5508 77.2422C35.9414 76.582 37.0059 75.7617 37.7441 74.7812C38.4863 73.8008 38.9102 72.6797 39.0156 71.418H35.0312V70.668H39.9531ZM47.1727 71.2773H52.3289V69.9531H53.243V74.1133H50.1961V75.2266H54.4852V75.9883H44.993V75.2266H49.282V74.1133H46.2586V69.9531H47.1727V71.2773ZM52.3289 73.375V72.0039H47.1727V73.375H52.3289ZM53.4305 79.7266H46.2234V76.8203H47.1492V78.9531H53.4305V79.7266ZM67.4125 75.7422H66.4867V73.0117H64.3891V72.25H66.4867V69.5312H67.4125V75.7422ZM63.9555 76.0703C64.6781 76.0703 65.3012 76.1465 65.8246 76.2988C66.348 76.4512 66.7484 76.6719 67.0258 76.9609C67.307 77.25 67.4477 77.5977 67.4477 78.0039C67.4477 78.4102 67.307 78.7578 67.0258 79.0469C66.7484 79.3398 66.348 79.5625 65.8246 79.7148C65.3012 79.8672 64.6781 79.9453 63.9555 79.9492C63.2328 79.9453 62.6098 79.8672 62.0863 79.7148C61.5629 79.5625 61.1605 79.3398 60.8793 79.0469C60.602 78.7578 60.4633 78.4102 60.4633 78.0039C60.4633 77.5977 60.602 77.25 60.8793 76.9609C61.1605 76.6719 61.5629 76.4512 62.0863 76.2988C62.6098 76.1465 63.2328 76.0703 63.9555 76.0703ZM63.9555 76.7852C63.4281 76.7852 62.9691 76.834 62.5785 76.9316C62.1879 77.0293 61.8891 77.1699 61.682 77.3535C61.475 77.5371 61.3734 77.7539 61.3773 78.0039C61.3734 78.25 61.475 78.4648 61.682 78.6484C61.8891 78.8281 62.1879 78.9668 62.5785 79.0645C62.9691 79.1621 63.4281 79.2109 63.9555 79.2109C64.4828 79.2109 64.9398 79.1621 65.3266 79.0645C65.7172 78.9668 66.016 78.8281 66.223 78.6484C66.4301 78.4648 66.5336 78.25 66.5336 78.0039C66.5336 77.7539 66.4301 77.5371 66.223 77.3535C66.016 77.1699 65.7172 77.0293 65.3266 76.9316C64.9398 76.834 64.4828 76.7852 63.9555 76.7852ZM62.3969 71.4414C62.3969 71.8906 62.5043 72.3262 62.7191 72.748C62.934 73.166 63.2348 73.5391 63.6215 73.8672C64.0121 74.1914 64.4594 74.4414 64.9633 74.6172L64.4828 75.3555C63.9008 75.1445 63.3891 74.832 62.9477 74.418C62.5102 74.0039 62.1801 73.5254 61.9574 72.9824C61.7309 73.5918 61.3852 74.1309 60.9203 74.5996C60.4594 75.0645 59.9203 75.4141 59.3031 75.6484L58.8227 74.9102C59.3344 74.7227 59.7914 74.4531 60.1938 74.1016C60.5961 73.7461 60.9086 73.3379 61.1313 72.877C61.3578 72.416 61.4711 71.9414 61.4711 71.4531V71.0664H59.1156V70.293H64.7289V71.0664H62.3969V71.4414ZM78.8859 78.6133H69.3469V77.8516H73.6359V75.6016H70.4719V70.2695H71.3977V72.1562H76.8117V70.2695H77.7141V75.6016H74.5383V77.8516H78.8859V78.6133ZM76.8117 74.8516V72.9062H71.3977V74.8516H76.8117ZM88.3563 70.5039C88.3563 70.9727 88.5379 71.4219 88.9012 71.8516C89.2684 72.2812 89.7449 72.6426 90.3309 72.9355C90.9168 73.2285 91.5242 73.418 92.1531 73.5039L91.7781 74.2539C91.2313 74.1641 90.702 74.0078 90.1902 73.7852C89.6785 73.5586 89.2215 73.2773 88.8191 72.9414C88.4168 72.6016 88.1063 72.2246 87.8875 71.8105C87.6727 72.2246 87.3621 72.6016 86.9559 72.9414C86.5535 73.2773 86.0965 73.5586 85.5848 73.7852C85.073 74.0078 84.5438 74.1641 83.9969 74.2539L83.6219 73.5039C84.2547 73.418 84.8621 73.2305 85.4441 72.9414C86.0262 72.6484 86.4988 72.2891 86.8621 71.8633C87.2254 71.4336 87.407 70.9805 87.407 70.5039V69.9062H88.3563V70.5039ZM92.6219 76.1758H88.3094V79.9492H87.407V76.1758H83.1297V75.4023H92.6219V76.1758ZM102.338 75.7422H101.412V73.0117H99.3141V72.25H101.412V69.5312H102.338V75.7422ZM98.8805 76.0703C99.6031 76.0703 100.226 76.1465 100.75 76.2988C101.273 76.4512 101.673 76.6719 101.951 76.9609C102.232 77.25 102.373 77.5977 102.373 78.0039C102.373 78.4102 102.232 78.7578 101.951 79.0469C101.673 79.3398 101.273 79.5625 100.75 79.7148C100.226 79.8672 99.6031 79.9453 98.8805 79.9492C98.1578 79.9453 97.5348 79.8672 97.0113 79.7148C96.4879 79.5625 96.0855 79.3398 95.8043 79.0469C95.527 78.7578 95.3883 78.4102 95.3883 78.0039C95.3883 77.5977 95.527 77.25 95.8043 76.9609C96.0855 76.6719 96.4879 76.4512 97.0113 76.2988C97.5348 76.1465 98.1578 76.0703 98.8805 76.0703ZM98.8805 76.7852C98.3531 76.7852 97.8941 76.834 97.5035 76.9316C97.1129 77.0293 96.8141 77.1699 96.607 77.3535C96.4 77.5371 96.2984 77.7539 96.3023 78.0039C96.2984 78.25 96.4 78.4648 96.607 78.6484C96.8141 78.8281 97.1129 78.9668 97.5035 79.0645C97.8941 79.1621 98.3531 79.2109 98.8805 79.2109C99.4078 79.2109 99.8648 79.1621 100.252 79.0645C100.642 78.9668 100.941 78.8281 101.148 78.6484C101.355 78.4648 101.459 78.25 101.459 78.0039C101.459 77.7539 101.355 77.5371 101.148 77.3535C100.941 77.1699 100.642 77.0293 100.252 76.9316C99.8648 76.834 99.4078 76.7852 98.8805 76.7852ZM97.3219 71.4414C97.3219 71.8906 97.4293 72.3262 97.6441 72.748C97.859 73.166 98.1598 73.5391 98.5465 73.8672C98.9371 74.1914 99.3844 74.4414 99.8883 74.6172L99.4078 75.3555C98.8258 75.1445 98.3141 74.832 97.8727 74.418C97.4352 74.0039 97.1051 73.5254 96.8824 72.9824C96.6559 73.5918 96.3102 74.1309 95.8453 74.5996C95.3844 75.0645 94.8453 75.4141 94.2281 75.6484L93.7477 74.9102C94.2594 74.7227 94.7164 74.4531 95.1188 74.1016C95.5211 73.7461 95.8336 73.3379 96.0563 72.877C96.2828 72.416 96.3961 71.9414 96.3961 71.4531V71.0664H94.0406V70.293H99.6539V71.0664H97.3219V71.4414Z" fill="#1A1A1A"/>
<g id="Frame_2">
<path id="Vector_3" d="M150 68.5H170" stroke="#1A1A1A" stroke-width="1.8" stroke-linecap="round"/>
<path id="Vector_4" d="M150 74.5H170" stroke="#1A1A1A" stroke-width="1.8" stroke-linecap="round"/>
<path id="Vector_5" d="M150 80.5H170" stroke="#1A1A1A" stroke-width="1.8" stroke-linecap="round"/>
<path id="Vector_6" d="M155 71C156.381 71 157.5 69.8807 157.5 68.5C157.5 67.1193 156.381 66 155 66C153.619 66 152.5 67.1193 152.5 68.5C152.5 69.8807 153.619 71 155 71Z" fill="#FAFAF7" stroke="#1A1A1A" stroke-width="1.8"/>
<path id="Vector_7" d="M164 77C165.381 77 166.5 75.8807 166.5 74.5C166.5 73.1193 165.381 72 164 72C162.619 72 161.5 73.1193 161.5 74.5C161.5 75.8807 162.619 77 164 77Z" fill="#FAFAF7" stroke="#1A1A1A" stroke-width="1.8"/>
<path id="Vector_8" d="M157 83C158.381 83 159.5 81.8807 159.5 80.5C159.5 79.1193 158.381 78 157 78C155.619 78 154.5 79.1193 154.5 80.5C154.5 81.8807 155.619 83 157 83Z" fill="#FAFAF7" stroke="#1A1A1A" stroke-width="1.8"/>
</g>
</g>
<line id="Line 3" x1="20" y1="92.75" x2="180" y2="92.75" stroke="#E2DDD5" stroke-width="0.5"/>
<g id="Frame 34">
<path id="&#236;&#157;&#188;&#236;&#160;&#149; &#235;&#179;&#180;&#234;&#184;&#176;" d="M37.375 106.418C37.8906 106.422 38.3516 106.521 38.7578 106.717C39.168 106.912 39.4883 107.186 39.7188 107.537C39.9531 107.885 40.0703 108.281 40.0703 108.727C40.0703 109.172 39.9531 109.57 39.7188 109.922C39.4883 110.27 39.168 110.541 38.7578 110.736C38.3516 110.928 37.8906 111.023 37.375 111.023C36.8516 111.023 36.3848 110.928 35.9746 110.736C35.5645 110.541 35.2441 110.27 35.0137 109.922C34.7832 109.57 34.668 109.172 34.668 108.727C34.668 108.281 34.7832 107.885 35.0137 107.537C35.2441 107.186 35.5645 106.912 35.9746 106.717C36.3848 106.521 36.8516 106.422 37.375 106.418ZM37.375 107.191C37.0312 107.191 36.7207 107.258 36.4434 107.391C36.1699 107.52 35.9551 107.701 35.7988 107.936C35.6426 108.166 35.5664 108.43 35.5703 108.727C35.5664 109.027 35.6426 109.295 35.7988 109.529C35.9551 109.764 36.1699 109.947 36.4434 110.08C36.7207 110.209 37.0312 110.273 37.375 110.273C37.7148 110.273 38.0215 110.209 38.2949 110.08C38.5723 109.947 38.7891 109.764 38.9453 109.529C39.1016 109.295 39.1797 109.027 39.1797 108.727C39.1797 108.43 39.1016 108.166 38.9453 107.936C38.7891 107.701 38.5723 107.52 38.2949 107.391C38.0215 107.258 37.7148 107.191 37.375 107.191ZM43.0234 111.387H42.1094V106.031H43.0234V111.387ZM43.0234 114.398H37.1758V115.57H43.3984V116.309H36.2734V113.707H42.1094V112.629H36.25V111.891H43.0234V114.398ZM53.4297 112.242H52.5039V109.512H50.4062V108.75H52.5039V106.031H53.4297V112.242ZM49.9727 112.57C50.6953 112.57 51.3184 112.646 51.8418 112.799C52.3652 112.951 52.7656 113.172 53.043 113.461C53.3242 113.75 53.4648 114.098 53.4648 114.504C53.4648 114.91 53.3242 115.258 53.043 115.547C52.7656 115.84 52.3652 116.062 51.8418 116.215C51.3184 116.367 50.6953 116.445 49.9727 116.449C49.25 116.445 48.627 116.367 48.1035 116.215C47.5801 116.062 47.1777 115.84 46.8965 115.547C46.6191 115.258 46.4805 114.91 46.4805 114.504C46.4805 114.098 46.6191 113.75 46.8965 113.461C47.1777 113.172 47.5801 112.951 48.1035 112.799C48.627 112.646 49.25 112.57 49.9727 112.57ZM49.9727 113.285C49.4453 113.285 48.9863 113.334 48.5957 113.432C48.2051 113.529 47.9062 113.67 47.6992 113.854C47.4922 114.037 47.3906 114.254 47.3945 114.504C47.3906 114.75 47.4922 114.965 47.6992 115.148C47.9062 115.328 48.2051 115.467 48.5957 115.564C48.9863 115.662 49.4453 115.711 49.9727 115.711C50.5 115.711 50.957 115.662 51.3438 115.564C51.7344 115.467 52.0332 115.328 52.2402 115.148C52.4473 114.965 52.5508 114.75 52.5508 114.504C52.5508 114.254 52.4473 114.037 52.2402 113.854C52.0332 113.67 51.7344 113.529 51.3438 113.432C50.957 113.334 50.5 113.285 49.9727 113.285ZM48.4141 107.941C48.4141 108.391 48.5215 108.826 48.7363 109.248C48.9512 109.666 49.252 110.039 49.6387 110.367C50.0293 110.691 50.4766 110.941 50.9805 111.117L50.5 111.855C49.918 111.645 49.4062 111.332 48.9648 110.918C48.5273 110.504 48.1973 110.025 47.9746 109.482C47.748 110.092 47.4023 110.631 46.9375 111.1C46.4766 111.564 45.9375 111.914 45.3203 112.148L44.8398 111.41C45.3516 111.223 45.8086 110.953 46.2109 110.602C46.6133 110.246 46.9258 109.838 47.1484 109.377C47.375 108.916 47.4883 108.441 47.4883 107.953V107.566H45.1328V106.793H50.7461V107.566H48.4141V107.941ZM67.7148 115.113H58.1758V114.352H62.4648V112.102H59.3008V106.77H60.2266V108.656H65.6406V106.77H66.543V112.102H63.3672V114.352H67.7148V115.113ZM65.6406 111.352V109.406H60.2266V111.352H65.6406ZM77.1602 116.449H76.2344V106.031H77.1602V116.449ZM74.0781 107.168C74.0703 108.742 73.6719 110.156 72.8828 111.41C72.0938 112.66 70.8594 113.688 69.1797 114.492L68.6758 113.742C70.0664 113.082 71.1309 112.262 71.8691 111.281C72.6113 110.301 73.0352 109.18 73.1406 107.918H69.1562V107.168H74.0781Z" fill="#1A1A1A"/>
<g id="Frame_3">
<path id="Vector_9" d="M164.833 104.833H153.167C152.246 104.833 151.5 105.58 151.5 106.5V118.167C151.5 119.087 152.246 119.833 153.167 119.833H164.833C165.754 119.833 166.5 119.087 166.5 118.167V106.5C166.5 105.58 165.754 104.833 164.833 104.833Z" stroke="#1A1A1A" stroke-width="1.5" stroke-linecap="round" stroke-linejoin="round"/>
<path id="Vector_10" d="M162.333 103.167V106.5" stroke="#1A1A1A" stroke-width="1.5" stroke-linecap="round" stroke-linejoin="round"/>
<path id="Vector_11" d="M155.667 103.167V106.5" stroke="#1A1A1A" stroke-width="1.5" stroke-linecap="round" stroke-linejoin="round"/>
<path id="Vector_12" d="M151.5 109.833H166.5" stroke="#1A1A1A" stroke-width="1.5" stroke-linecap="round" stroke-linejoin="round"/>
<path id="Vector_13" d="M155.667 113.167H162.333" stroke="#1A1A1A" stroke-width="1.5" stroke-linecap="round" stroke-linejoin="round"/>
<path id="Vector_14" d="M155.667 116.5H159" stroke="#1A1A1A" stroke-width="1.5" stroke-linecap="round" stroke-linejoin="round"/>
</g>
</g>
<line id="Line 2" x1="20" y1="129.75" x2="180" y2="129.75" stroke="#E2DDD5" stroke-width="0.5"/>
<g id="Frame 33">
<path id="&#236;&#130;&#173;&#236;&#160;&#156;" d="M37.9258 144.707C37.9219 145.172 38.0293 145.621 38.248 146.055C38.4668 146.484 38.7734 146.865 39.168 147.197C39.5664 147.525 40.0195 147.777 40.5273 147.953L40.0469 148.68C39.4609 148.469 38.9453 148.154 38.5 147.736C38.0586 147.314 37.7227 146.826 37.4922 146.271C37.2734 146.881 36.9375 147.414 36.4844 147.871C36.0312 148.324 35.4961 148.664 34.8789 148.891L34.3984 148.152C34.918 147.965 35.375 147.697 35.7695 147.35C36.1641 146.998 36.4707 146.59 36.6895 146.125C36.9082 145.66 37.0195 145.168 37.0234 144.648V143.57H37.9258V144.707ZM42.5664 145.797H44.1367V146.582H42.5664V149.348H41.6523V143.031H42.5664V145.797ZM42.5664 153.449H41.6523V150.613H35.7461V149.863H42.5664V153.449ZM53.6992 153.449H52.8203V143.031H53.6992V153.449ZM51.5898 152.91H50.7227V147.543H48.9648V146.793H50.7227V143.289H51.5898V152.91ZM47.8516 146.008C47.8516 146.613 47.9395 147.205 48.1152 147.783C48.291 148.357 48.5488 148.877 48.8887 149.342C49.2285 149.803 49.6328 150.168 50.1016 150.438L49.5391 151.117C49.0352 150.816 48.6035 150.4 48.2441 149.869C47.8848 149.334 47.6113 148.729 47.4238 148.053C47.2324 148.783 46.9492 149.438 46.5742 150.016C46.2031 150.594 45.7617 151.043 45.25 151.363L44.6641 150.672C45.1367 150.391 45.5469 150.006 45.8945 149.518C46.2422 149.029 46.5059 148.482 46.6855 147.877C46.8691 147.268 46.9609 146.645 46.9609 146.008V145.023H44.957V144.262H49.7617V145.023H47.8516V146.008Z" fill="#E8635A"/>
<g id="Frame_4">
<path id="Vector_15" d="M151.5 143.5H166.5" stroke="#E8635A" stroke-width="1.5" stroke-linecap="round" stroke-linejoin="round"/>
<path id="Vector_16" d="M155.667 143.5V141.833C155.667 141.373 156.04 141 156.5 141H161.5C161.96 141 162.333 141.373 162.333 141.833V143.5" stroke="#E8635A" stroke-width="1.5" stroke-linecap="round" stroke-linejoin="round"/>
<path id="Vector_17" d="M164.833 143.5L164 155.167C164 155.627 163.627 156 163.167 156H154.833C154.373 156 154 155.627 154 155.167L153.167 143.5" stroke="#E8635A" stroke-width="1.5" stroke-linecap="round" stroke-linejoin="round"/>
<path id="Vector_18" d="M157.333 147.667V152.667" stroke="#E8635A" stroke-width="1.5" stroke-linecap="round" stroke-linejoin="round"/>
<path id="Vector_19" d="M160.667 147.667V152.667" stroke="#E8635A" stroke-width="1.5" stroke-linecap="round" stroke-linejoin="round"/>
</g>
</g>
</g>
<defs>
<filter id="filter0_dd_51_4056" x="-12" y="-4" width="224" height="210" filterUnits="userSpaceOnUse" color-interpolation-filters="sRGB">
<feFlood flood-opacity="0" result="BackgroundImageFix"/>
<feColorMatrix in="SourceAlpha" type="matrix" values="0 0 0 0 0 0 0 0 0 0 0 0 0 0 0 0 0 0 127 0" result="hardAlpha"/>
<feOffset dy="8"/>
<feGaussianBlur stdDeviation="16"/>
<feColorMatrix type="matrix" values="0 0 0 0 0.118 0 0 0 0 0.157 0 0 0 0 0.133 0 0 0 0.16 0"/>
<feBlend mode="normal" in2="BackgroundImageFix" result="effect1_dropShadow_51_4056"/>
<feColorMatrix in="SourceAlpha" type="matrix" values="0 0 0 0 0 0 0 0 0 0 0 0 0 0 0 0 0 0 127 0" result="hardAlpha"/>
<feOffset dy="2"/>
<feGaussianBlur stdDeviation="4"/>
<feColorMatrix type="matrix" values="0 0 0 0 0.118 0 0 0 0 0.157 0 0 0 0 0.133 0 0 0 0.08 0"/>
<feBlend mode="normal" in2="effect1_dropShadow_51_4056" result="effect2_dropShadow_51_4056"/>
<feBlend mode="normal" in="SourceGraphic" in2="effect2_dropShadow_51_4056" result="shape"/>
</filter>
</defs>
</svg>
