<svg width="69" height="26" viewBox="0 0 69 26" fill="none" xmlns="http://www.w3.org/2000/svg">
<g id="Property 1=Completed">
<path d="M12 0.5H57C63.3513 0.500001 68.5 5.64873 68.5 12C68.5 18.3513 63.3513 23.5 57 23.5H12C5.64873 23.5 0.5 18.3513 0.5 12C0.5 5.64873 5.64873 0.5 12 0.5Z" fill="#EBF5EE"/>
<path d="M12 0.5H57C63.3513 0.500001 68.5 5.64873 68.5 12C68.5 18.3513 63.3513 23.5 57 23.5H12C5.64873 23.5 0.5 18.3513 0.5 12C0.5 5.64873 5.64873 0.5 12 0.5Z" stroke="#E2DDD5"/>
<g id="Ellipse 6" filter="url(#filter0_d_122_5620)">
<circle cx="17" cy="12" r="9" fill="#FAFAF7"/>
</g>
<path id="&#236;&#153;&#132;&#235;&#163;&#140;" d="M39.5273 7.34766C40.043 7.34766 40.5039 7.43945 40.9102 7.62305C41.3164 7.80273 41.6348 8.05859 41.8652 8.39062C42.0957 8.71875 42.2109 9.09375 42.2109 9.51562C42.2109 9.85938 42.1309 10.1738 41.9707 10.459C41.8145 10.7441 41.5918 10.9863 41.3027 11.1855C41.0137 11.3809 40.6797 11.5195 40.3008 11.6016V12.3809C41.2188 12.3223 42.0352 12.2422 42.75 12.1406L42.8672 13.2305C41.8867 13.4023 40.8594 13.5176 39.7852 13.5762C38.7148 13.6348 37.6016 13.6641 36.4453 13.6641L36.293 12.4805C37.2383 12.4805 38.0742 12.4688 38.8008 12.4453V11.6133C38.4102 11.5352 38.0664 11.3984 37.7695 11.2031C37.4727 11.0039 37.2422 10.7598 37.0781 10.4707C36.918 10.1816 36.8398 9.86328 36.8438 9.51562C36.8398 9.09375 36.9512 8.71875 37.1777 8.39062C37.4082 8.05859 37.7266 7.80273 38.1328 7.62305C38.543 7.43945 39.0078 7.34766 39.5273 7.34766ZM39.5273 8.47266C39.1367 8.48047 38.8223 8.57617 38.584 8.75977C38.3496 8.93945 38.2344 9.19141 38.2383 9.51562C38.2344 9.83203 38.3516 10.084 38.5898 10.2715C38.8281 10.4551 39.1406 10.5469 39.5273 10.5469C39.9141 10.5469 40.2227 10.4551 40.4531 10.2715C40.6875 10.0879 40.8047 9.83594 40.8047 9.51562C40.8047 9.1875 40.6895 8.93359 40.459 8.75391C40.2285 8.57422 39.918 8.48047 39.5273 8.47266ZM44.8477 10.2773H46.207V11.5195H44.8477V15.0586H43.3477V6.92578H44.8477V10.2773ZM45.2109 17.3789H37.6992V14.3438H39.1992V16.1836H45.2109V17.3789ZM56.6492 16.3945H46.8875V15.1641H49.3836V13.5352H48.0125V9.94922H54.0477V8.80078H48.0008V7.60547H55.5242V11.1445H49.5125V12.3281H55.7703V13.5352H54.2586V15.1641H56.6492V16.3945ZM52.7937 15.1641V13.5352H50.8367V15.1641H52.7937Z" fill="#5D9E75"/>
</g>
<defs>
<filter id="filter0_d_122_5620" x="4" y="0" width="26" height="26" filterUnits="userSpaceOnUse" color-interpolation-filters="sRGB">
<feFlood flood-opacity="0" result="BackgroundImageFix"/>
<feColorMatrix in="SourceAlpha" type="matrix" values="0 0 0 0 0 0 0 0 0 0 0 0 0 0 0 0 0 0 127 0" result="hardAlpha"/>
<feOffset dy="1"/>
<feGaussianBlur stdDeviation="2"/>
<feColorMatrix type="matrix" values="0 0 0 0 0.118 0 0 0 0 0.157 0 0 0 0 0.133 0 0 0 0.06 0"/>
<feBlend mode="normal" in2="BackgroundImageFix" result="effect1_dropShadow_122_5620"/>
<feBlend mode="normal" in="SourceGraphic" in2="effect1_dropShadow_122_5620" result="shape"/>
</filter>
</defs>
</svg>
