<svg width="69" height="26" viewBox="0 0 69 26" fill="none" xmlns="http://www.w3.org/2000/svg">
<g id="Property 1=Draft">
<path d="M12 0.5H57C63.3513 0.500001 68.5 5.64873 68.5 12C68.5 18.3513 63.3513 23.5 57 23.5H12C5.64873 23.5 0.5 18.3513 0.5 12C0.5 5.64873 5.64873 0.5 12 0.5Z" fill="#FDF5E6"/>
<path d="M12 0.5H57C63.3513 0.500001 68.5 5.64873 68.5 12C68.5 18.3513 63.3513 23.5 57 23.5H12C5.64873 23.5 0.5 18.3513 0.5 12C0.5 5.64873 5.64873 0.5 12 0.5Z" stroke="#E2DDD5"/>
<path id="&#236;&#152;&#136;&#236;&#160;&#149;" d="M21.5625 17.5781H20.1328V6.91406H21.5625V17.5781ZM19.3828 17.0859H17.9766V13.7812H16.7227C16.5234 14.3047 16.252 14.707 15.9082 14.9883C15.5684 15.2695 15.1758 15.4102 14.7305 15.4102C14.2656 15.4102 13.8574 15.2539 13.5059 14.9414C13.1582 14.6289 12.8887 14.1816 12.6973 13.5996C12.5059 13.0137 12.4102 12.3242 12.4102 11.5312C12.4102 10.7422 12.5059 10.0586 12.6973 9.48047C12.8887 8.89844 13.1582 8.45312 13.5059 8.14453C13.8574 7.83203 14.2656 7.67578 14.7305 7.67578C15.1719 7.67578 15.5625 7.81445 15.9023 8.0918C16.2461 8.36914 16.5176 8.76562 16.7168 9.28125H17.9766V7.06641H19.3828V17.0859ZM14.7305 9.08203C14.418 9.08203 14.1777 9.28906 14.0098 9.70312C13.8457 10.1172 13.7656 10.7266 13.7695 11.5312C13.7656 12.3398 13.8457 12.9512 14.0098 13.3652C14.1738 13.7754 14.4141 13.9766 14.7305 13.9688C15.0469 13.9766 15.291 13.7754 15.4629 13.3652C15.6387 12.9512 15.7266 12.3398 15.7266 11.5312C15.7266 10.7344 15.6387 10.127 15.4629 9.70898C15.2871 9.29102 15.043 9.08203 14.7305 9.08203ZM17.0156 10.4766C17.0625 10.8047 17.0859 11.1562 17.0859 11.5312C17.0859 11.9023 17.0625 12.25 17.0156 12.5742H17.9766V10.4766H17.0156ZM31.8758 13.2422H30.3875V10.7227H28.7234V9.51562H30.3875V6.91406H31.8758V13.2422ZM28.2312 13.4766C28.9891 13.4805 29.6414 13.5645 30.1883 13.7285C30.7391 13.8887 31.1629 14.123 31.4598 14.4316C31.7566 14.7402 31.907 15.1094 31.9109 15.5391C31.907 15.9648 31.7566 16.332 31.4598 16.6406C31.1629 16.9492 30.7391 17.1836 30.1883 17.3438C29.6375 17.5078 28.9852 17.5898 28.2312 17.5898C27.4773 17.5898 26.825 17.5078 26.2742 17.3438C25.7234 17.1836 25.2996 16.9492 25.0027 16.6406C24.7098 16.332 24.5633 15.9648 24.5633 15.5391C24.5633 15.1094 24.7098 14.7402 25.0027 14.4316C25.2996 14.123 25.7215 13.8887 26.2684 13.7285C26.8191 13.5645 27.4734 13.4805 28.2312 13.4766ZM28.2312 14.625C26.7781 14.625 26.0516 14.9297 26.0516 15.5391C26.0516 15.8438 26.2352 16.0723 26.6023 16.2246C26.9734 16.377 27.5164 16.4531 28.2312 16.4531C28.9461 16.4531 29.4891 16.377 29.8602 16.2246C30.2352 16.0684 30.4227 15.8398 30.4227 15.5391C30.4227 14.9297 29.6922 14.625 28.2312 14.625ZM29.0398 8.75391H26.9187C26.9305 9.18359 27.0262 9.59766 27.2059 9.99609C27.3895 10.3906 27.6609 10.7461 28.0203 11.0625C28.3836 11.3789 28.8328 11.625 29.368 11.8008L28.6297 12.9727C28.0594 12.7891 27.5672 12.5156 27.1531 12.1523C26.743 11.7852 26.4187 11.3535 26.1805 10.8574C25.9344 11.4199 25.5945 11.9082 25.1609 12.3223C24.7273 12.7324 24.2039 13.043 23.5906 13.2539L22.8172 12.0703C23.3797 11.8828 23.8504 11.6172 24.2293 11.2734C24.6121 10.9258 24.8973 10.5352 25.0848 10.1016C25.2762 9.66797 25.3797 9.21875 25.3953 8.75391H23.2508V7.55859H29.0398V8.75391Z" fill="#D4A85C"/>
<g id="Ellipse 6" filter="url(#filter0_d_122_5618)">
<circle cx="52" cy="12" r="9" fill="#FAFAF7"/>
</g>
</g>
<defs>
<filter id="filter0_d_122_5618" x="39" y="0" width="26" height="26" filterUnits="userSpaceOnUse" color-interpolation-filters="sRGB">
<feFlood flood-opacity="0" result="BackgroundImageFix"/>
<feColorMatrix in="SourceAlpha" type="matrix" values="0 0 0 0 0 0 0 0 0 0 0 0 0 0 0 0 0 0 127 0" result="hardAlpha"/>
<feOffset dy="1"/>
<feGaussianBlur stdDeviation="2"/>
<feColorMatrix type="matrix" values="0 0 0 0 0.118 0 0 0 0 0.157 0 0 0 0 0.133 0 0 0 0.06 0"/>
<feBlend mode="normal" in2="BackgroundImageFix" result="effect1_dropShadow_122_5618"/>
<feBlend mode="normal" in="SourceGraphic" in2="effect1_dropShadow_122_5618" result="shape"/>
</filter>
</defs>
</svg>
