<svg width="425" height="945" viewBox="0 0 425 945" fill="none" xmlns="http://www.w3.org/2000/svg">
<g id="NewChatScreen">
<g id="NewChatScreen_2">
<rect width="393" height="853" transform="translate(16)" fill="white"/>
<g id="Chat" clip-path="url(#clip0_123_8598)">
<rect width="393" height="853" transform="translate(16)" fill="white"/>
<g id="Container">
<g id="ChatHeaderDefault">
<mask id="path-1-inside-1_123_8598" fill="white">
<path d="M16 0H408.723V78.7199H16V0Z"/>
</mask>
<path d="M16 0H408.723V78.7199H16V0Z" fill="#2E4D38"/>
<path d="M408.723 78.7199V77.7199H16V78.7199V79.7199H408.723V78.7199Z" fill="#373F3B" mask="url(#path-1-inside-1_123_8598)"/>
<g id="Button">
<g id="Icon">
<path id="Vector" d="M43.3174 38.86H56.6497" stroke="#5E9E72" stroke-width="1.66654" stroke-linecap="round" stroke-linejoin="round"/>
<path id="Vector_2" d="M43.3174 33.8604H56.6497" stroke="#5E9E72" stroke-width="1.66654" stroke-linecap="round" stroke-linejoin="round"/>
<path id="Vector_3" d="M43.3174 43.8596H56.6497" stroke="#5E9E72" stroke-width="1.66654" stroke-linecap="round" stroke-linejoin="round"/>
</g>
</g>
</g>
<g id="Container_2">
<rect width="393" height="844" transform="translate(16 78.72)" fill="#1C2120"/>
</g>
</g>
</g>
</g>
<rect id="scrim" x="16" width="393" height="853" fill="#1E2822" fill-opacity="0.48"/>
<g id="TripInfoBottomSheetCreateDark">
<path d="M16 466C16 457.163 23.1634 450 32 450H393C401.837 450 409 457.163 409 466V853H16V466Z" fill="#1C2120"/>
<g id="Frame 63">
<g id="Heading 2">
<path id="&#236;&#151;&#172;&#237;&#150;&#137; &#236;&#160;&#149;&#235;&#179;&#180;&#235;&#165;&#188; &#236;&#158;&#133;&#235;&#160;&#165;&#237;&#149;&#180;&#236;&#163;&#188;&#236;&#132;&#184;&#236;&#154;&#148;" d="M48.1272 521.793C49.0008 521.793 49.7886 522.022 50.4904 522.48C51.1994 522.939 51.7795 523.59 52.2307 524.436H56.5275V520.418H59.2346V540.012H56.5275V532.686H52.4348C51.9979 533.66 51.4035 534.411 50.6516 534.941C49.9068 535.471 49.0653 535.736 48.1272 535.736C47.1389 535.736 46.258 535.453 45.4846 534.888C44.7183 534.315 44.1203 533.502 43.6906 532.449C43.2609 531.389 43.0497 530.158 43.0568 528.754C43.0497 527.357 43.2609 526.136 43.6906 525.091C44.1203 524.038 44.7183 523.225 45.4846 522.652C46.258 522.079 47.1389 521.793 48.1272 521.793ZM48.1272 524.264C47.6402 524.264 47.2105 524.439 46.8381 524.79C46.4657 525.134 46.1757 525.646 45.968 526.326C45.7675 526.999 45.6708 527.809 45.6779 528.754C45.6708 529.706 45.7675 530.519 45.968 531.192C46.1757 531.866 46.4621 532.378 46.8273 532.729C47.1997 533.072 47.633 533.244 48.1272 533.244C48.6213 533.244 49.051 533.072 49.4162 532.729C49.7886 532.385 50.0751 531.876 50.2756 531.203C50.4761 530.53 50.5764 529.714 50.5764 528.754C50.5764 527.801 50.4761 526.989 50.2756 526.315C50.0751 525.642 49.7886 525.134 49.4162 524.79C49.051 524.439 48.6213 524.264 48.1272 524.264ZM52.9934 526.648C53.1294 527.329 53.1975 528.031 53.1975 528.754C53.1975 529.291 53.1545 529.871 53.0686 530.494H56.5275V526.648H52.9934ZM78.249 532.686H75.6494V527.486H74.0811V532.041H71.5244V520.783H74.0811V525.252H75.6494V520.418H78.249V532.686ZM70.9443 524.564H61.3408V522.438H64.7998V520.59H67.5283V522.438H70.9443V524.564ZM66.1748 525.209C66.9984 525.209 67.7324 525.352 68.377 525.639C69.0215 525.925 69.5264 526.326 69.8916 526.842C70.2568 527.357 70.443 527.952 70.4502 528.625C70.443 529.291 70.2568 529.882 69.8916 530.397C69.5264 530.906 69.0215 531.303 68.377 531.59C67.7324 531.876 66.9984 532.02 66.1748 532.02C65.3656 532.02 64.6387 531.876 63.9941 531.59C63.3496 531.303 62.8447 530.906 62.4795 530.397C62.1214 529.882 61.9424 529.291 61.9424 528.625C61.9424 527.959 62.1214 527.368 62.4795 526.853C62.8447 526.33 63.3496 525.925 63.9941 525.639C64.6387 525.352 65.3656 525.209 66.1748 525.209ZM66.1748 527.186C65.6305 527.186 65.1973 527.314 64.875 527.572C64.5527 527.83 64.3916 528.181 64.3916 528.625C64.3916 529.076 64.5527 529.434 64.875 529.699C65.2044 529.957 65.6377 530.079 66.1748 530.064C66.7119 530.079 67.1452 529.957 67.4746 529.699C67.804 529.434 67.9723 529.076 67.9795 528.625C67.9723 528.174 67.804 527.823 67.4746 527.572C67.1523 527.314 66.7191 527.186 66.1748 527.186ZM71.5674 532.857C72.9782 532.857 74.1885 532.997 75.1982 533.276C76.2152 533.556 76.9922 533.964 77.5293 534.501C78.0736 535.031 78.3493 535.672 78.3564 536.424C78.3493 537.169 78.0736 537.806 77.5293 538.336C76.9922 538.866 76.2152 539.271 75.1982 539.55C74.1813 539.829 72.971 539.969 71.5674 539.969C70.1637 539.969 68.9535 539.829 67.9365 539.55C66.9268 539.271 66.1497 538.866 65.6055 538.336C65.0684 537.806 64.7998 537.169 64.7998 536.424C64.7998 535.672 65.0684 535.031 65.6055 534.501C66.1497 533.964 66.9268 533.556 67.9365 533.276C68.9535 532.997 70.1637 532.857 71.5674 532.857ZM71.5674 534.92C68.8675 534.92 67.5283 535.421 67.5498 536.424C67.5426 536.918 67.8792 537.29 68.5596 537.541C69.2399 537.785 70.2425 537.906 71.5674 537.906C74.2458 537.906 75.585 537.412 75.585 536.424C75.585 535.915 75.252 535.539 74.5859 535.296C73.9199 535.045 72.9137 534.92 71.5674 534.92ZM101.411 532.02H98.6822V527.4H95.6314V525.188H98.6822V520.418H101.411V532.02ZM94.7291 532.449C96.1184 532.456 97.3144 532.61 98.317 532.911C99.3268 533.205 100.104 533.634 100.648 534.2C101.192 534.766 101.468 535.443 101.475 536.23C101.468 537.011 101.192 537.684 100.648 538.25C100.104 538.816 99.3268 539.245 98.317 539.539C97.3072 539.84 96.1113 539.99 94.7291 539.99C93.3469 539.99 92.151 539.84 91.1412 539.539C90.1314 539.245 89.3544 538.816 88.8102 538.25C88.273 537.684 88.0045 537.011 88.0045 536.23C88.0045 535.443 88.273 534.766 88.8102 534.2C89.3544 533.634 90.1279 533.205 91.1305 532.911C92.1402 532.61 93.3398 532.456 94.7291 532.449ZM94.7291 534.555C92.065 534.555 90.733 535.113 90.733 536.23C90.733 536.789 91.0696 537.208 91.7428 537.487C92.4231 537.767 93.4186 537.906 94.7291 537.906C96.0396 537.906 97.0351 537.767 97.7154 537.487C98.4029 537.201 98.7467 536.782 98.7467 536.23C98.7467 535.113 97.4075 534.555 94.7291 534.555ZM96.2115 523.791H92.3229C92.3443 524.579 92.5198 525.338 92.8492 526.068C93.1858 526.792 93.6835 527.443 94.3424 528.023C95.0084 528.604 95.832 529.055 96.8131 529.377L95.4596 531.525C94.414 531.189 93.5117 530.688 92.7525 530.021C92.0006 529.348 91.4062 528.557 90.9693 527.647C90.5182 528.679 89.8951 529.574 89.1002 530.333C88.3053 531.085 87.3456 531.654 86.2213 532.041L84.8033 529.871C85.8346 529.527 86.6975 529.04 87.3922 528.41C88.094 527.773 88.6168 527.057 88.9605 526.262C89.3115 525.467 89.5012 524.643 89.5299 523.791H85.5982V521.6H96.2115V523.791ZM121.542 537.691H103.646V535.457H111.187V531.848H105.537V521.664H108.287V524.693H116.816V521.664H119.544V531.848H113.915V535.457H121.542V537.691ZM116.816 529.656V526.885H108.287V529.656H116.816ZM140.235 531.225H122.338V529.184H140.235V531.225ZM138.086 536.811H127.129V537.928H138.666V539.797H124.401V535.07H135.379V534.082H124.379V532.191H138.086V536.811ZM138.065 525.359H127.301V526.412H138.408V528.26H124.572V523.619H135.315V522.631H124.529V520.762H138.065V525.359ZM162.215 530.924H159.465V520.418H162.215V530.924ZM151.838 533.609H159.486V531.783H162.215V539.754H149.131V531.783H151.838V533.609ZM159.486 537.541V535.736H151.838V537.541H159.486ZM151.494 521.234C152.504 521.227 153.413 521.421 154.222 521.814C155.039 522.208 155.68 522.76 156.145 523.469C156.611 524.171 156.844 524.973 156.844 525.875C156.844 526.749 156.611 527.533 156.145 528.228C155.68 528.922 155.039 529.466 154.222 529.86C153.413 530.254 152.504 530.451 151.494 530.451C150.484 530.451 149.571 530.254 148.755 529.86C147.945 529.466 147.308 528.922 146.843 528.228C146.377 527.533 146.144 526.749 146.144 525.875C146.144 524.973 146.377 524.171 146.843 523.469C147.308 522.76 147.945 522.208 148.755 521.814C149.571 521.421 150.484 521.227 151.494 521.234ZM151.494 523.512C150.971 523.512 150.506 523.608 150.097 523.802C149.696 523.988 149.381 524.26 149.152 524.618C148.93 524.969 148.823 525.388 148.83 525.875C148.823 526.355 148.93 526.77 149.152 527.121C149.381 527.465 149.696 527.73 150.097 527.916C150.506 528.102 150.971 528.195 151.494 528.195C152.002 528.195 152.457 528.102 152.858 527.916C153.259 527.73 153.571 527.465 153.793 527.121C154.022 526.77 154.137 526.355 154.137 525.875C154.137 525.388 154.022 524.969 153.793 524.618C153.571 524.26 153.259 523.988 152.858 523.802C152.457 523.608 152.002 523.512 151.494 523.512ZM173.946 527.658H168.038V529.742C169.542 529.742 170.777 529.71 171.744 529.646C172.718 529.574 173.688 529.449 174.655 529.27L174.913 531.461C173.831 531.654 172.714 531.783 171.561 531.848C170.415 531.905 168.825 531.934 166.792 531.934H165.331V525.617H171.196V523.705H165.288V521.557H173.946V527.658ZM181.036 532.471H178.307V529.463H175.063V527.293H178.307V525.316H175.063V523.146H178.307V520.439H181.036V532.471ZM181.036 539.969H178.307V535.543H167.565V533.352H181.036V539.969ZM192.703 525.574H183.249V523.404H186.644V520.955H189.351V523.404H192.703V525.574ZM188.019 526.455C188.843 526.455 189.577 526.656 190.221 527.057C190.873 527.451 191.381 527.998 191.746 528.7C192.119 529.402 192.309 530.201 192.316 531.096C192.309 531.991 192.119 532.793 191.746 533.502C191.381 534.211 190.873 534.766 190.221 535.167C189.577 535.561 188.843 535.758 188.019 535.758C187.195 535.758 186.454 535.561 185.795 535.167C185.144 534.766 184.632 534.211 184.259 533.502C183.887 532.793 183.701 531.991 183.701 531.096C183.701 530.208 183.887 529.413 184.259 528.711C184.632 528.002 185.144 527.451 185.795 527.057C186.454 526.656 187.195 526.455 188.019 526.455ZM188.019 528.732C187.439 528.732 186.973 528.944 186.622 529.366C186.279 529.789 186.107 530.365 186.107 531.096C186.107 531.826 186.279 532.399 186.622 532.814C186.973 533.23 187.439 533.438 188.019 533.438C188.578 533.438 189.029 533.23 189.372 532.814C189.723 532.399 189.902 531.826 189.91 531.096C189.902 530.365 189.723 529.789 189.372 529.366C189.029 528.944 188.578 528.732 188.019 528.732ZM200.179 539.969H197.579V530.559H195.99V539.131H193.433V520.805H195.99V528.367H197.579V520.418H200.179V539.969ZM219.817 533.395H212.211V539.969H209.504V533.395H201.985V531.203H219.817V533.395ZM218.227 523.598H212.523C212.616 524.257 212.924 524.887 213.446 525.488C213.969 526.083 214.7 526.598 215.638 527.035C216.576 527.465 217.69 527.758 218.979 527.916L217.99 530.064C216.3 529.835 214.847 529.377 213.629 528.689C212.419 528.002 211.513 527.146 210.911 526.122C210.303 527.146 209.397 528.002 208.194 528.689C206.99 529.377 205.551 529.835 203.875 530.064L202.865 527.916C204.133 527.758 205.232 527.465 206.163 527.035C207.101 526.598 207.832 526.083 208.355 525.488C208.885 524.887 209.2 524.257 209.3 523.598H203.596V521.449H218.227V523.598ZM226.972 525.338C226.972 527.085 227.251 528.679 227.81 530.118C228.368 531.558 229.271 532.678 230.517 533.48L229.034 535.607C227.459 534.655 226.331 533.09 225.65 530.913C225.285 532.059 224.802 533.072 224.2 533.953C223.599 534.827 222.868 535.521 222.009 536.037L220.333 534.018C221.701 533.165 222.703 531.98 223.341 530.462C223.985 528.937 224.308 527.271 224.308 525.467V522.094H226.972V525.338ZM237.649 539.969H235.028V520.418H237.649V539.969ZM233.546 539.066H230.989V529.248H228.454V527.014H230.989V520.697H233.546V539.066ZM257.308 537.691H239.412V535.436H243.408V530.655C242.635 530.19 242.037 529.617 241.614 528.937C241.192 528.249 240.98 527.479 240.98 526.627C240.98 525.589 241.295 524.672 241.926 523.877C242.556 523.082 243.426 522.466 244.536 522.029C245.653 521.585 246.917 521.363 248.328 521.363C249.732 521.363 250.988 521.585 252.098 522.029C253.216 522.466 254.093 523.082 254.73 523.877C255.368 524.672 255.69 525.589 255.697 526.627C255.69 527.458 255.479 528.213 255.063 528.894C254.655 529.567 254.079 530.136 253.334 530.602V535.436H257.308V537.691ZM248.328 523.533C247.397 523.533 246.581 523.655 245.879 523.898C245.184 524.142 244.643 524.496 244.257 524.962C243.877 525.42 243.687 525.975 243.687 526.627C243.687 527.257 243.877 527.805 244.257 528.271C244.643 528.736 245.188 529.094 245.889 529.345C246.591 529.595 247.404 529.721 248.328 529.721C249.245 529.721 250.054 529.595 250.756 529.345C251.457 529.094 252.002 528.736 252.388 528.271C252.782 527.805 252.983 527.257 252.99 526.627C252.983 525.982 252.786 525.427 252.399 524.962C252.012 524.496 251.468 524.142 250.766 523.898C250.065 523.655 249.252 523.533 248.328 523.533ZM250.562 535.436V531.644C249.825 531.78 249.08 531.848 248.328 531.848C247.526 531.848 246.788 531.78 246.115 531.644V535.436H250.562Z" fill="#E8E4DC"/>
</g>
<g id="Container_3">
<g id="DestinationField">
<g id="Paragraph">
<path id="&#236;&#151;&#172;&#237;&#150;&#137;&#236;&#167;&#128;" d="M43.7871 577.754C44.3431 577.754 44.8444 577.903 45.291 578.199C45.7422 578.495 46.1068 578.917 46.3848 579.463H49.2695V576.852H50.7734V589.225H49.2695V584.549H46.4941C46.2253 585.165 45.8561 585.643 45.3867 585.985C44.9173 586.322 44.3841 586.491 43.7871 586.491C43.1673 586.491 42.6182 586.313 42.1396 585.958C41.6611 585.602 41.2874 585.094 41.0186 584.433C40.7497 583.772 40.6152 583 40.6152 582.116C40.6152 581.241 40.7497 580.475 41.0186 579.819C41.2874 579.158 41.6611 578.65 42.1396 578.294C42.6227 577.934 43.1719 577.754 43.7871 577.754ZM43.7871 579.122C43.4453 579.122 43.1445 579.242 42.8848 579.484C42.625 579.721 42.4245 580.065 42.2832 580.516C42.1419 580.963 42.0736 581.496 42.0781 582.116C42.0736 582.74 42.1419 583.278 42.2832 583.729C42.4245 584.18 42.625 584.527 42.8848 584.768C43.1445 585.005 43.4453 585.124 43.7871 585.124C44.1289 585.124 44.4274 585.005 44.6826 584.768C44.9424 584.527 45.1429 584.18 45.2842 583.729C45.43 583.278 45.5052 582.74 45.5098 582.116C45.5052 581.496 45.43 580.96 45.2842 580.509C45.1429 580.058 44.9424 579.714 44.6826 579.477C44.4274 579.24 44.1289 579.122 43.7871 579.122ZM46.8086 580.708C46.8997 581.15 46.9453 581.619 46.9453 582.116C46.9453 582.526 46.9134 582.927 46.8496 583.319H49.2695V580.708H46.8086ZM63.0781 584.618H61.6289V581.254H60.4258V584.208H59.0039V577.098H60.4258V580.024H61.6289V576.852H63.0781V584.618ZM58.5938 579.381H52.4414V578.192H54.7793V576.961H56.2832V578.192H58.5938V579.381ZM55.5312 579.887C56.0508 579.887 56.5133 579.976 56.9189 580.154C57.3245 580.332 57.6413 580.582 57.8691 580.906C58.1016 581.225 58.2201 581.596 58.2246 582.02C58.2201 582.444 58.1016 582.818 57.8691 583.141C57.6413 583.46 57.3245 583.708 56.9189 583.886C56.5133 584.064 56.0508 584.153 55.5312 584.153C55.0208 584.153 54.5628 584.064 54.1572 583.886C53.7516 583.708 53.4349 583.458 53.207 583.134C52.9837 582.811 52.8743 582.439 52.8789 582.02C52.8743 581.601 52.9837 581.229 53.207 580.906C53.4349 580.582 53.7516 580.332 54.1572 580.154C54.5628 579.976 55.0208 579.887 55.5312 579.887ZM55.5312 580.981C55.1439 580.981 54.8294 581.074 54.5879 581.261C54.3509 581.448 54.2324 581.701 54.2324 582.02C54.2324 582.339 54.3509 582.592 54.5879 582.779C54.8249 582.966 55.1393 583.059 55.5312 583.059C55.9232 583.059 56.2399 582.966 56.4814 582.779C56.723 582.592 56.8438 582.339 56.8438 582.02C56.8438 581.701 56.723 581.448 56.4814 581.261C56.2399 581.074 55.9232 580.981 55.5312 580.981ZM58.9082 584.768C59.7878 584.768 60.5443 584.855 61.1777 585.028C61.8112 585.201 62.2965 585.456 62.6338 585.793C62.971 586.126 63.1419 586.527 63.1465 586.997C63.1419 587.457 62.9688 587.851 62.627 588.179C62.2897 588.512 61.8044 588.765 61.1709 588.938C60.5374 589.111 59.7832 589.198 58.9082 589.198C58.0332 589.198 57.2767 589.111 56.6387 588.938C56.0052 588.765 55.5176 588.512 55.1758 588.179C54.8385 587.851 54.6699 587.457 54.6699 586.997C54.6699 586.527 54.8385 586.126 55.1758 585.793C55.5176 585.456 56.0052 585.201 56.6387 585.028C57.2721 584.855 58.0286 584.768 58.9082 584.768ZM58.9082 585.93C58.0195 585.921 57.3428 586.008 56.8779 586.19C56.4176 586.368 56.1875 586.637 56.1875 586.997C56.1875 587.338 56.4199 587.598 56.8848 587.776C57.3496 587.949 58.0241 588.036 58.9082 588.036C59.7878 588.036 60.4577 587.949 60.918 587.776C61.3828 587.598 61.6152 587.338 61.6152 586.997C61.6152 586.637 61.3828 586.368 60.918 586.19C60.4577 586.008 59.7878 585.921 58.9082 585.93ZM69.2715 580.366C69.2715 581.045 69.3991 581.717 69.6543 582.382C69.9141 583.043 70.2832 583.638 70.7617 584.167C71.2448 584.691 71.8099 585.087 72.457 585.356L71.623 586.559C70.9076 586.254 70.2855 585.796 69.7568 585.185C69.2282 584.574 68.818 583.866 68.5264 583.059C68.2347 583.925 67.8223 584.693 67.2891 585.363C66.7604 586.028 66.1406 586.527 65.4297 586.86L64.5547 585.67C65.1882 585.379 65.7441 584.95 66.2227 584.385C66.7057 583.82 67.0771 583.187 67.3369 582.485C67.5967 581.778 67.7266 581.072 67.7266 580.366V579.327H65.0059V578.069H71.9785V579.327H69.2715V580.366ZM74.8906 589.211H73.3594V576.852H74.8906V589.211Z" fill="#B8B5AE"/>
</g>
<g id="Container_4" filter="url(#filter0_dd_123_8598)">
<path d="M40 619.992C40 611.155 47.1634 603.992 56 603.992H369.342C378.178 603.992 385.342 611.155 385.342 619.992V642.965C385.342 651.802 378.178 658.965 369.342 658.965H56C47.1635 658.965 40 651.802 40 642.965V619.992Z" fill="#262B28"/>
<path d="M56 604.492H369.342C377.902 604.492 384.842 611.431 384.842 619.992V642.965C384.842 651.526 377.902 658.465 369.342 658.465H56C47.4396 658.465 40.5 651.526 40.5 642.965V619.992C40.5 611.431 47.4396 604.492 56 604.492Z" stroke="#373F3B"/>
<g id="Text Input">
<path id="&#236;&#151;&#172;&#237;&#150;&#137;&#236;&#167;&#128;&#235;&#165;&#188; &#236;&#158;&#133;&#235;&#160;&#165;&#237;&#149;&#152;&#236;&#132;&#184;&#236;&#154;&#148;" d="M63.8193 625.276C64.4548 625.276 65.0277 625.445 65.5381 625.783C66.0537 626.122 66.4704 626.604 66.7881 627.229H70.085V624.244H71.8037V638.385H70.085V633.041H66.9131C66.6058 633.744 66.1839 634.291 65.6475 634.682C65.111 635.067 64.5016 635.26 63.8193 635.26C63.111 635.26 62.4834 635.057 61.9365 634.651C61.3896 634.244 60.9626 633.664 60.6553 632.908C60.348 632.153 60.1943 631.27 60.1943 630.26C60.1943 629.26 60.348 628.385 60.6553 627.635C60.9626 626.88 61.3896 626.299 61.9365 625.893C62.4886 625.481 63.1162 625.276 63.8193 625.276ZM63.8193 626.838C63.4287 626.838 63.085 626.976 62.7881 627.252C62.4912 627.523 62.262 627.916 62.1006 628.432C61.9391 628.942 61.861 629.552 61.8662 630.26C61.861 630.974 61.9391 631.588 62.1006 632.104C62.262 632.619 62.4912 633.015 62.7881 633.291C63.085 633.562 63.4287 633.698 63.8193 633.698C64.21 633.698 64.5511 633.562 64.8428 633.291C65.1396 633.015 65.3688 632.619 65.5303 632.104C65.6969 631.588 65.7829 630.974 65.7881 630.26C65.7829 629.552 65.6969 628.94 65.5303 628.424C65.3688 627.908 65.1396 627.515 64.8428 627.244C64.5511 626.974 64.21 626.838 63.8193 626.838ZM67.2725 628.651C67.3766 629.156 67.4287 629.692 67.4287 630.26C67.4287 630.729 67.3923 631.187 67.3193 631.635H70.085V628.651H67.2725ZM85.5662 633.119H83.91V629.276H82.535V632.651H80.91V624.526H82.535V627.869H83.91V624.244H85.5662V633.119ZM80.4412 627.135H73.41V625.776H76.0818V624.369H77.8006V625.776H80.4412V627.135ZM76.9412 627.713C77.535 627.713 78.0636 627.815 78.5271 628.018C78.9907 628.221 79.3527 628.507 79.6131 628.877C79.8787 629.242 80.0141 629.666 80.0193 630.151C80.0141 630.635 79.8787 631.062 79.6131 631.432C79.3527 631.796 78.9907 632.08 78.5271 632.283C78.0636 632.487 77.535 632.588 76.9412 632.588C76.3579 632.588 75.8344 632.487 75.3709 632.283C74.9074 632.08 74.5454 631.794 74.285 631.424C74.0298 631.054 73.9048 630.63 73.91 630.151C73.9048 629.671 74.0298 629.247 74.285 628.877C74.5454 628.507 74.9074 628.221 75.3709 628.018C75.8344 627.815 76.3579 627.713 76.9412 627.713ZM76.9412 628.963C76.4985 628.963 76.1391 629.07 75.8631 629.283C75.5923 629.497 75.4568 629.786 75.4568 630.151C75.4568 630.515 75.5923 630.804 75.8631 631.018C76.1339 631.231 76.4933 631.338 76.9412 631.338C77.3891 631.338 77.7511 631.231 78.0271 631.018C78.3032 630.804 78.4412 630.515 78.4412 630.151C78.4412 629.786 78.3032 629.497 78.0271 629.283C77.7511 629.07 77.3891 628.963 76.9412 628.963ZM80.8006 633.291C81.8058 633.291 82.6704 633.39 83.3943 633.588C84.1183 633.786 84.673 634.078 85.0584 634.463C85.4438 634.843 85.6391 635.302 85.6443 635.838C85.6391 636.364 85.4412 636.815 85.0506 637.19C84.6652 637.57 84.1105 637.859 83.3865 638.057C82.6626 638.255 81.8006 638.354 80.8006 638.354C79.8006 638.354 78.936 638.255 78.2068 638.057C77.4829 637.859 76.9256 637.57 76.535 637.19C76.1495 636.815 75.9568 636.364 75.9568 635.838C75.9568 635.302 76.1495 634.843 76.535 634.463C76.9256 634.078 77.4829 633.786 78.2068 633.588C78.9308 633.39 79.7954 633.291 80.8006 633.291ZM80.8006 634.619C79.785 634.609 79.0115 634.708 78.4803 634.916C77.9542 635.119 77.6912 635.427 77.6912 635.838C77.6912 636.229 77.9568 636.526 78.4881 636.729C79.0193 636.927 79.7902 637.026 80.8006 637.026C81.8058 637.026 82.5714 636.927 83.0975 636.729C83.6287 636.526 83.8943 636.229 83.8943 635.838C83.8943 635.427 83.6287 635.119 83.0975 634.916C82.5714 634.708 81.8058 634.609 80.8006 634.619ZM92.3443 628.26C92.3443 629.036 92.4902 629.804 92.7818 630.565C93.0787 631.32 93.5006 632 94.0475 632.604C94.5995 633.203 95.2454 633.656 95.985 633.963L95.0318 635.338C94.2141 634.989 93.5032 634.466 92.899 633.768C92.2949 633.07 91.8261 632.26 91.4928 631.338C91.1594 632.328 90.6881 633.205 90.0787 633.971C89.4745 634.731 88.7662 635.302 87.9537 635.682L86.9537 634.323C87.6777 633.989 88.3131 633.5 88.86 632.854C89.412 632.208 89.8365 631.484 90.1334 630.682C90.4303 629.875 90.5787 629.067 90.5787 628.26V627.073H87.4693V625.635H95.4381V627.073H92.3443V628.26ZM98.7662 638.369H97.0162V624.244H98.7662V638.369ZM113.435 631.963H100.529V630.651H113.435V631.963ZM111.872 636.026H103.779V637.01H112.294V638.213H102.044V634.901H110.154V634.026H102.029V632.807H111.872V636.026ZM111.841 627.744H103.888V628.666H112.091V629.854H102.169V626.619H110.107V625.76H102.122V624.557H111.841V627.744ZM129.335 631.823H127.585V624.244H129.335V631.823ZM121.71 633.932H127.601V632.479H129.335V638.198H119.991V632.479H121.71V633.932ZM127.601 636.791V635.291H121.71V636.791H127.601ZM121.632 624.869C122.351 624.864 122.999 625.002 123.577 625.283C124.155 625.559 124.608 625.95 124.937 626.455C125.265 626.961 125.429 627.536 125.429 628.182C125.429 628.812 125.262 629.377 124.929 629.877C124.601 630.377 124.147 630.768 123.569 631.049C122.996 631.325 122.351 631.463 121.632 631.463C120.908 631.463 120.257 631.325 119.679 631.049C119.101 630.768 118.645 630.377 118.312 629.877C117.983 629.377 117.819 628.812 117.819 628.182C117.819 627.536 117.983 626.961 118.312 626.455C118.645 625.95 119.101 625.559 119.679 625.283C120.257 625.002 120.908 624.864 121.632 624.869ZM121.632 626.323C121.22 626.323 120.853 626.398 120.53 626.549C120.213 626.7 119.963 626.916 119.78 627.198C119.603 627.479 119.517 627.807 119.522 628.182C119.517 628.552 119.603 628.877 119.78 629.158C119.963 629.434 120.213 629.651 120.53 629.807C120.853 629.958 121.22 630.036 121.632 630.041C122.038 630.036 122.4 629.958 122.718 629.807C123.035 629.651 123.283 629.434 123.46 629.158C123.637 628.877 123.726 628.552 123.726 628.182C123.726 627.807 123.637 627.479 123.46 627.198C123.283 626.916 123.035 626.7 122.718 626.549C122.4 626.398 122.038 626.323 121.632 626.323ZM137.847 629.338H133.394V631.073H133.707C134.769 631.073 135.652 631.049 136.355 631.002C137.058 630.95 137.759 630.859 138.457 630.729L138.629 632.135C137.827 632.27 137.006 632.359 136.168 632.401C135.334 632.442 134.181 632.463 132.707 632.463H131.676V628.041H136.113V626.463H131.644V625.088H137.847V629.338ZM142.926 632.948H141.191V630.619H138.691V629.229H141.191V627.651H138.691V626.26H141.191V624.26H142.926V632.948ZM142.926 638.369H141.191V635.01H133.269V633.619H142.926V638.369ZM155.688 629.869H157.86V631.307H155.688V638.369H153.969V624.244H155.688V629.869ZM152.876 627.807H144.547V626.416H147.891V624.448H149.626V626.416H152.876V627.807ZM148.766 628.729C149.438 628.729 150.042 628.872 150.579 629.158C151.12 629.44 151.545 629.833 151.852 630.338C152.159 630.843 152.313 631.416 152.313 632.057C152.313 632.698 152.159 633.27 151.852 633.776C151.545 634.276 151.12 634.666 150.579 634.948C150.042 635.229 149.438 635.369 148.766 635.369C148.084 635.369 147.472 635.229 146.93 634.948C146.389 634.666 145.964 634.276 145.657 633.776C145.35 633.27 145.199 632.698 145.204 632.057C145.199 631.416 145.35 630.843 145.657 630.338C145.964 629.833 146.389 629.44 146.93 629.158C147.472 628.872 148.084 628.729 148.766 628.729ZM148.766 630.151C148.396 630.151 148.066 630.229 147.774 630.385C147.488 630.541 147.264 630.765 147.102 631.057C146.941 631.343 146.86 631.677 146.86 632.057C146.86 632.437 146.941 632.77 147.102 633.057C147.264 633.338 147.488 633.557 147.774 633.713C148.066 633.864 148.396 633.937 148.766 633.932C149.126 633.937 149.446 633.864 149.727 633.713C150.014 633.557 150.238 633.338 150.399 633.057C150.566 632.77 150.652 632.437 150.657 632.057C150.652 631.677 150.566 631.343 150.399 631.057C150.238 630.77 150.014 630.549 149.727 630.393C149.446 630.231 149.126 630.151 148.766 630.151ZM162.56 627.948C162.56 628.739 162.654 629.507 162.841 630.252C163.034 630.997 163.333 631.679 163.74 632.299C164.146 632.919 164.654 633.421 165.263 633.807L164.31 635.135C163.695 634.765 163.175 634.27 162.747 633.651C162.32 633.026 161.984 632.309 161.74 631.502C161.474 632.382 161.112 633.164 160.654 633.846C160.195 634.528 159.643 635.067 158.997 635.463L157.919 634.166C158.581 633.765 159.133 633.239 159.576 632.588C160.018 631.937 160.346 631.221 160.56 630.44C160.779 629.658 160.888 628.854 160.888 628.026V625.494H162.56V627.948ZM170.341 638.369H168.669V624.244H170.341V638.369ZM167.404 637.682H165.763V630.541H163.747V629.104H165.763V624.494H167.404V637.682ZM184.588 636.651H171.682V635.229H174.666V631.658C174.093 631.325 173.648 630.911 173.33 630.416C173.018 629.921 172.864 629.364 172.869 628.744C172.864 628.01 173.085 627.359 173.533 626.791C173.981 626.224 174.604 625.786 175.401 625.479C176.197 625.166 177.099 625.01 178.104 625.01C179.114 625.01 180.018 625.166 180.815 625.479C181.617 625.786 182.242 626.224 182.69 626.791C183.143 627.354 183.369 628.005 183.369 628.744C183.369 629.349 183.216 629.898 182.908 630.393C182.606 630.882 182.177 631.291 181.619 631.619V635.229H184.588V636.651ZM178.104 626.385C177.401 626.385 176.781 626.481 176.244 626.674C175.713 626.862 175.299 627.132 175.002 627.487C174.71 627.841 174.567 628.26 174.572 628.744C174.567 629.224 174.71 629.64 175.002 629.994C175.299 630.349 175.716 630.622 176.252 630.815C176.789 631.007 177.406 631.104 178.104 631.104C178.802 631.104 179.419 631.007 179.955 630.815C180.497 630.622 180.916 630.349 181.213 629.994C181.515 629.64 181.666 629.224 181.666 628.744C181.666 628.265 181.515 627.849 181.213 627.494C180.916 627.135 180.5 626.862 179.963 626.674C179.427 626.481 178.807 626.385 178.104 626.385ZM179.854 635.229V632.283C179.302 632.403 178.718 632.463 178.104 632.463C177.515 632.463 176.942 632.406 176.385 632.291V635.229H179.854Z" fill="#7A7873"/>
</g>
<g id="Icon_2">
<path id="Vector_4" d="M355.019 637.31C358.7 637.31 361.684 634.326 361.684 630.645C361.684 626.964 358.7 623.98 355.019 623.98C351.338 623.98 348.354 626.964 348.354 630.645C348.354 634.326 351.338 637.31 355.019 637.31Z" stroke="#7A7873" stroke-width="1.66623" stroke-linecap="round" stroke-linejoin="round"/>
<path id="Vector_5" d="M363.351 638.977L359.769 635.394" stroke="#7A7873" stroke-width="1.66623" stroke-linecap="round" stroke-linejoin="round"/>
</g>
</g>
</g>
<g id="DateField">
<g id="Paragraph_2">
<path id="&#235;&#130;&#160;&#236;&#167;&#156;" d="M50.1582 690.226H51.8809V691.484H50.1582V693.972H48.6406V687.82H50.1582V690.226ZM42.4746 692.27C44.2428 692.247 45.9245 692.081 47.5195 691.771L47.6973 693.015C46.7767 693.202 45.8698 693.336 44.9766 693.418C44.0833 693.496 43.1764 693.534 42.2559 693.534H41.9688H40.9434V688.366H42.4746V692.27ZM50.1582 697.786H43.6094V698.798H50.541V700.029H42.0918V696.624H48.627V695.708H42.0781V694.505H50.1582V697.786ZM62.5586 692.564H64.0625V693.835H62.5586V700.179H61.041V687.82H62.5586V692.564ZM55.5312 691.128C55.5312 692.003 55.6042 692.828 55.75 693.603C55.8958 694.378 56.1693 695.061 56.5703 695.654C56.9622 695.066 57.2311 694.384 57.377 693.61C57.5228 692.83 57.5957 692.003 57.5957 691.128V690.185H56.8027V688.954H60.248V690.185H59.0449V691.128C59.0449 692.309 59.1771 693.364 59.4414 694.293C59.7057 695.223 60.1888 695.945 60.8906 696.46L59.9199 697.554C59.1589 696.971 58.6165 696.043 58.293 694.772C57.9557 696.098 57.377 697.062 56.5566 697.663C55.7546 697.066 55.1826 696.102 54.8408 694.772C54.5127 696.043 53.9727 696.971 53.2207 697.554L52.25 696.46C52.9518 695.941 53.4349 695.214 53.6992 694.28C53.9635 693.341 54.0957 692.29 54.0957 691.128V690.185H52.7148V688.954H56.3242V690.185H55.5312V691.128Z" fill="#B8B5AE"/>
</g>
<g id="Button_2" filter="url(#filter1_dd_123_8598)">
<path d="M40 730.959C40 722.123 47.1634 714.959 56 714.959H369.342C378.178 714.959 385.342 722.123 385.342 730.959V753.933C385.342 762.77 378.178 769.933 369.342 769.933H56C47.1635 769.933 40 762.77 40 753.933V730.959Z" fill="#262B28"/>
<path d="M56 715.459H369.342C377.902 715.459 384.842 722.399 384.842 730.959V753.933C384.842 762.493 377.902 769.433 369.342 769.433H56C47.4396 769.433 40.5 762.493 40.5 753.933V730.959C40.5 722.399 47.4396 715.459 56 715.459Z" stroke="#373F3B"/>
<g id="Paragraph_3">
<path id="&#235;&#130;&#160;&#236;&#167;&#156;&#235;&#165;&#188; &#236;&#132;&#160;&#237;&#131;&#157;&#237;&#149;&#152;&#236;&#132;&#184;&#236;&#154;&#148;" d="M67.8838 738.083H69.7295V739.431H67.8838V742.097H66.2578V735.505H67.8838V738.083ZM59.6514 740.273C61.5459 740.249 63.3477 740.071 65.0566 739.739L65.2471 741.072C64.2607 741.272 63.2891 741.416 62.332 741.504C61.375 741.587 60.4033 741.628 59.417 741.628H59.1094H58.0107V736.091H59.6514V740.273ZM67.8838 746.184H60.8672V747.268H68.2939V748.586H59.2412V744.939H66.2432V743.958H59.2266V742.668H67.8838V746.184ZM81.1699 740.588H82.7812V741.951H81.1699V748.748H79.5439V735.505H81.1699V740.588ZM73.6406 739.05C73.6406 739.988 73.7188 740.872 73.875 741.702C74.0312 742.532 74.3242 743.264 74.7539 743.899C75.1738 743.269 75.4619 742.539 75.6182 741.709C75.7744 740.874 75.8525 739.988 75.8525 739.05V738.04H75.0029V736.721H78.6943V738.04H77.4053V739.05C77.4053 740.315 77.5469 741.445 77.8301 742.441C78.1133 743.438 78.6309 744.211 79.3828 744.763L78.3428 745.935C77.5273 745.31 76.9463 744.316 76.5996 742.954C76.2383 744.375 75.6182 745.408 74.7393 746.052C73.8799 745.413 73.2671 744.38 72.9009 742.954C72.5493 744.316 71.9707 745.31 71.165 745.935L70.125 744.763C70.877 744.207 71.3945 743.428 71.6777 742.427C71.9609 741.421 72.1025 740.295 72.1025 739.05V738.04H70.623V736.721H74.4902V738.04H73.6406V739.05ZM95.4521 742.742H83.3525V741.511H95.4521V742.742ZM93.9873 746.55H86.3994V747.473H94.3828V748.601H84.7734V745.496H92.376V744.675H84.7588V743.533H93.9873V746.55ZM93.958 738.787H86.502V739.651H94.1924V740.764H84.8906V737.732H92.332V736.926H84.8467V735.798H93.958V738.787ZM104.71 737.849C104.71 738.445 104.827 739.019 105.062 739.57C105.301 740.122 105.652 740.613 106.116 741.042C106.585 741.467 107.151 741.794 107.815 742.024L106.922 743.298C106.219 743.03 105.611 742.649 105.098 742.156C104.59 741.663 104.195 741.086 103.912 740.427C103.619 741.169 103.201 741.814 102.659 742.361C102.122 742.908 101.473 743.323 100.711 743.606L99.8467 742.317C100.535 742.083 101.119 741.738 101.597 741.284C102.081 740.83 102.444 740.305 102.688 739.709C102.938 739.114 103.064 738.489 103.069 737.834V736.326H104.71V737.849ZM110.979 745.349H109.354V739.768H106.717V738.435H109.354V735.52H110.979V745.349ZM111.272 748.484H102.249V744.28H103.904V747.166H111.272V748.484ZM118.553 737.732H114.92V739.021H118.421V740.266H114.92V741.658C115.774 741.648 116.504 741.621 117.11 741.577C117.72 741.533 118.333 741.453 118.948 741.335L119.124 742.654C118.396 742.791 117.679 742.881 116.971 742.925C116.268 742.969 115.354 742.991 114.231 742.991H113.353V736.428H118.553V737.732ZM124.178 743.577H122.625V740.134H121.248V743.474H119.725V735.769H121.248V738.831H122.625V735.52H124.178V743.577ZM124.178 748.748H122.552V745.481H115.11V744.163H124.178V748.748ZM136.189 740.779H138.226V742.126H136.189V748.748H134.578V735.505H136.189V740.779ZM133.553 738.845H125.745V737.542H128.88V735.696H130.506V737.542H133.553V738.845ZM129.7 739.709C130.33 739.709 130.896 739.844 131.399 740.112C131.907 740.376 132.305 740.745 132.593 741.218C132.881 741.692 133.025 742.229 133.025 742.83C133.025 743.43 132.881 743.967 132.593 744.441C132.305 744.91 131.907 745.276 131.399 745.54C130.896 745.803 130.33 745.935 129.7 745.935C129.061 745.935 128.487 745.803 127.979 745.54C127.471 745.276 127.073 744.91 126.785 744.441C126.497 743.967 126.355 743.43 126.36 742.83C126.355 742.229 126.497 741.692 126.785 741.218C127.073 740.745 127.471 740.376 127.979 740.112C128.487 739.844 129.061 739.709 129.7 739.709ZM129.7 741.042C129.354 741.042 129.043 741.116 128.77 741.262C128.501 741.409 128.292 741.619 128.14 741.892C127.989 742.161 127.913 742.473 127.913 742.83C127.913 743.186 127.989 743.499 128.14 743.767C128.292 744.031 128.501 744.236 128.77 744.382C129.043 744.524 129.354 744.592 129.7 744.587C130.037 744.592 130.337 744.524 130.601 744.382C130.87 744.236 131.08 744.031 131.231 743.767C131.387 743.499 131.468 743.186 131.473 742.83C131.468 742.473 131.387 742.161 131.231 741.892C131.08 741.624 130.87 741.416 130.601 741.27C130.337 741.118 130.037 741.042 129.7 741.042ZM142.913 738.977C142.913 739.719 143.001 740.439 143.177 741.138C143.357 741.836 143.638 742.476 144.019 743.057C144.4 743.638 144.876 744.109 145.447 744.47L144.554 745.715C143.978 745.369 143.489 744.905 143.089 744.324C142.688 743.738 142.374 743.066 142.144 742.31C141.895 743.135 141.556 743.867 141.126 744.507C140.696 745.146 140.179 745.652 139.573 746.023L138.562 744.807C139.183 744.431 139.7 743.938 140.115 743.328C140.53 742.717 140.838 742.046 141.038 741.313C141.243 740.581 141.346 739.827 141.346 739.05V736.677H142.913V738.977ZM150.208 748.748H148.641V735.505H150.208V748.748ZM147.454 748.103H145.916V741.409H144.026V740.061H145.916V735.74H147.454V748.103ZM163.846 747.136H151.746V745.803H154.544V742.456C154.007 742.144 153.589 741.755 153.292 741.292C152.999 740.828 152.854 740.305 152.859 739.724C152.854 739.036 153.062 738.425 153.482 737.893C153.902 737.361 154.485 736.951 155.232 736.663C155.979 736.37 156.824 736.223 157.767 736.223C158.714 736.223 159.561 736.37 160.308 736.663C161.06 736.951 161.646 737.361 162.066 737.893C162.491 738.42 162.703 739.031 162.703 739.724C162.703 740.291 162.559 740.806 162.271 741.27C161.988 741.729 161.585 742.112 161.062 742.419V745.803H163.846V747.136ZM157.767 737.512C157.107 737.512 156.526 737.603 156.023 737.783C155.525 737.959 155.137 738.213 154.859 738.545C154.585 738.877 154.451 739.27 154.456 739.724C154.451 740.173 154.585 740.564 154.859 740.896C155.137 741.228 155.528 741.484 156.031 741.665C156.534 741.846 157.112 741.936 157.767 741.936C158.421 741.936 159 741.846 159.502 741.665C160.01 741.484 160.403 741.228 160.682 740.896C160.965 740.564 161.106 740.173 161.106 739.724C161.106 739.275 160.965 738.884 160.682 738.552C160.403 738.215 160.013 737.959 159.51 737.783C159.007 737.603 158.426 737.512 157.767 737.512ZM159.407 745.803V743.042C158.89 743.154 158.343 743.21 157.767 743.21C157.215 743.21 156.678 743.157 156.155 743.049V745.803H159.407Z" fill="#7A7873"/>
</g>
<g id="Icon_3">
<path id="Vector_6" d="M355.013 734.115V737.447" stroke="#7A7873" stroke-width="1.66623" stroke-linecap="round" stroke-linejoin="round"/>
<path id="Vector_7" d="M361.678 734.115V737.447" stroke="#7A7873" stroke-width="1.66623" stroke-linecap="round" stroke-linejoin="round"/>
<path id="Vector_8" d="M364.176 735.781H352.513C351.593 735.781 350.847 736.527 350.847 737.447V749.111C350.847 750.031 351.593 750.777 352.513 750.777H364.176C365.097 750.777 365.843 750.031 365.843 749.111V737.447C365.843 736.527 365.097 735.781 364.176 735.781Z" stroke="#7A7873" stroke-width="1.66623" stroke-linecap="round" stroke-linejoin="round"/>
<path id="Vector_9" d="M350.847 740.78H365.843" stroke="#7A7873" stroke-width="1.66623" stroke-linecap="round" stroke-linejoin="round"/>
</g>
</g>
</g>
<g id="GuestsField">
<g id="Paragraph_4">
<path id="&#236;&#157;&#184;&#236;&#155;&#144;" d="M50.7051 807.729H49.1738V798.801H50.7051V807.729ZM51.0469 810.901H42.5293V806.826H44.0605V809.67H51.0469V810.901ZM43.9648 799.608C44.5846 799.608 45.1475 799.742 45.6533 800.011C46.1592 800.275 46.5579 800.642 46.8496 801.112C47.1413 801.581 47.2871 802.11 47.2871 802.698C47.2871 803.295 47.1413 803.83 46.8496 804.304C46.5579 804.773 46.1592 805.14 45.6533 805.405C45.1475 805.669 44.5846 805.801 43.9648 805.801C43.3405 805.801 42.7731 805.669 42.2627 805.405C41.7568 805.14 41.3581 804.773 41.0664 804.304C40.7747 803.83 40.6289 803.295 40.6289 802.698C40.6289 802.11 40.7747 801.581 41.0664 801.112C41.3581 800.642 41.7568 800.275 42.2627 800.011C42.7731 799.742 43.3405 799.608 43.9648 799.608ZM43.9648 800.934C43.6139 800.934 43.2972 801.007 43.0146 801.153C42.7321 801.298 42.5111 801.506 42.3516 801.775C42.1921 802.044 42.1146 802.351 42.1191 802.698C42.1146 803.053 42.1921 803.365 42.3516 803.634C42.5111 803.903 42.7321 804.11 43.0146 804.256C43.2972 804.402 43.6139 804.475 43.9648 804.475C44.3066 804.475 44.6165 804.402 44.8945 804.256C45.1725 804.11 45.3913 803.903 45.5508 803.634C45.7148 803.365 45.7969 803.053 45.7969 802.698C45.7969 802.351 45.7148 802.044 45.5508 801.775C45.3913 801.506 45.1725 801.298 44.8945 801.153C44.6165 801.007 44.3066 800.934 43.9648 800.934ZM62.873 808.153H61.3418V807.073H58.9219V806.006H61.3418V798.801H62.873V808.153ZM63.1602 810.901H54.0957V807.25H55.6133V809.67H63.1602V810.901ZM52.4551 804.352C54.0592 804.343 55.4993 804.315 56.7754 804.27C58.0514 804.224 59.2682 804.128 60.4258 803.983L60.5078 805.076C59.5189 805.24 58.4798 805.359 57.3906 805.432V807.811H55.873V805.514C54.9935 805.55 53.918 805.569 52.6465 805.569L52.4551 804.352ZM56.4883 799.252C57.0853 799.252 57.6139 799.346 58.0742 799.532C58.5391 799.715 58.9014 799.972 59.1611 800.305C59.4255 800.633 59.5599 801.011 59.5645 801.44C59.5599 801.877 59.4277 802.26 59.168 802.588C58.9082 802.916 58.5459 803.169 58.0811 803.347C57.6162 803.525 57.0853 803.614 56.4883 803.614C55.8822 803.614 55.3444 803.525 54.875 803.347C54.4102 803.169 54.0479 802.916 53.7881 802.588C53.5283 802.26 53.3984 801.877 53.3984 801.44C53.3984 801.011 53.5283 800.633 53.7881 800.305C54.0479 799.972 54.4102 799.715 54.875 799.532C55.3444 799.346 55.8822 799.252 56.4883 799.252ZM56.4883 800.373C55.9915 800.373 55.5905 800.469 55.2852 800.66C54.9844 800.847 54.834 801.107 54.834 801.44C54.834 801.772 54.9844 802.034 55.2852 802.226C55.5905 802.413 55.9915 802.506 56.4883 802.506C56.9668 802.506 57.3564 802.41 57.6572 802.219C57.958 802.028 58.1107 801.768 58.1152 801.44C58.1107 801.112 57.958 800.852 57.6572 800.66C57.3564 800.469 56.9668 800.373 56.4883 800.373Z" fill="#B8B5AE"/>
</g>
<g id="Button_3" filter="url(#filter2_dd_123_8598)">
<path d="M40 841.927C40 833.09 47.1634 825.927 56 825.927H369.342C378.178 825.927 385.342 833.09 385.342 841.927V864.901C385.342 873.737 378.178 880.901 369.342 880.901H56C47.1635 880.901 40 873.737 40 864.901V841.927Z" fill="#262B28"/>
<path d="M56 826.427H369.342C377.902 826.427 384.842 833.367 384.842 841.927V864.901C384.842 873.461 377.902 880.401 369.342 880.401H56C47.4396 880.401 40.5 873.461 40.5 864.901V841.927C40.5 833.367 47.4396 826.427 56 826.427Z" stroke="#373F3B"/>
<g id="Paragraph_5">
<path id="&#236;&#157;&#184;&#236;&#155;&#144;&#236;&#157;&#132; &#236;&#132;&#160;&#237;&#131;&#157;&#237;&#149;&#152;&#236;&#132;&#184;&#236;&#154;&#148;" d="M68.4697 856.053H66.8291V846.488H68.4697V856.053ZM68.8359 859.452H59.71V855.086H61.3506V858.133H68.8359V859.452ZM61.248 847.352C61.9121 847.352 62.5151 847.496 63.0571 847.784C63.5991 848.067 64.0264 848.46 64.3389 848.963C64.6514 849.466 64.8076 850.033 64.8076 850.663C64.8076 851.302 64.6514 851.876 64.3389 852.384C64.0264 852.887 63.5991 853.28 63.0571 853.563C62.5151 853.846 61.9121 853.988 61.248 853.988C60.5791 853.988 59.9712 853.846 59.4243 853.563C58.8823 853.28 58.4551 852.887 58.1426 852.384C57.8301 851.876 57.6738 851.302 57.6738 850.663C57.6738 850.033 57.8301 849.466 58.1426 848.963C58.4551 848.46 58.8823 848.067 59.4243 847.784C59.9712 847.496 60.5791 847.352 61.248 847.352ZM61.248 848.773C60.8721 848.773 60.5327 848.851 60.23 849.007C59.9272 849.164 59.6904 849.386 59.5195 849.674C59.3486 849.962 59.2656 850.292 59.2705 850.663C59.2656 851.043 59.3486 851.378 59.5195 851.666C59.6904 851.954 59.9272 852.176 60.23 852.333C60.5327 852.489 60.8721 852.567 61.248 852.567C61.6143 852.567 61.9463 852.489 62.2441 852.333C62.542 852.176 62.7764 851.954 62.9473 851.666C63.123 851.378 63.2109 851.043 63.2109 850.663C63.2109 850.292 63.123 849.962 62.9473 849.674C62.7764 849.386 62.542 849.164 62.2441 849.007C61.9463 848.851 61.6143 848.773 61.248 848.773ZM81.5068 856.507H79.8662V855.35H77.2734V854.208H79.8662V846.488H81.5068V856.507ZM81.8145 859.452H72.1025V855.541H73.7285V858.133H81.8145V859.452ZM70.3447 852.435C72.0635 852.425 73.6064 852.396 74.9736 852.347C76.3408 852.298 77.6445 852.196 78.8848 852.04L78.9727 853.211C77.9131 853.387 76.7998 853.514 75.6328 853.592V856.141H74.0068V853.68C73.0645 853.719 71.9121 853.739 70.5498 853.739L70.3447 852.435ZM74.666 846.971C75.3057 846.971 75.8721 847.071 76.3652 847.271C76.8633 847.467 77.2515 847.743 77.5298 848.099C77.813 848.451 77.957 848.856 77.9619 849.315C77.957 849.784 77.8154 850.194 77.5371 850.545C77.2588 850.897 76.8706 851.168 76.3726 851.358C75.8745 851.549 75.3057 851.644 74.666 851.644C74.0166 851.644 73.4404 851.549 72.9375 851.358C72.4395 851.168 72.0513 850.897 71.7729 850.545C71.4946 850.194 71.3555 849.784 71.3555 849.315C71.3555 848.856 71.4946 848.451 71.7729 848.099C72.0513 847.743 72.4395 847.467 72.9375 847.271C73.4404 847.071 74.0166 846.971 74.666 846.971ZM74.666 848.172C74.1338 848.172 73.7041 848.275 73.377 848.48C73.0547 848.68 72.8936 848.958 72.8936 849.315C72.8936 849.671 73.0547 849.952 73.377 850.157C73.7041 850.357 74.1338 850.458 74.666 850.458C75.1787 850.458 75.5962 850.355 75.9185 850.15C76.2407 849.945 76.4043 849.667 76.4092 849.315C76.4043 848.963 76.2407 848.685 75.9185 848.48C75.5962 848.275 75.1787 848.172 74.666 848.172ZM89.3877 846.678C90.3936 846.678 91.2505 846.766 91.9585 846.942C92.6714 847.118 93.2158 847.376 93.5918 847.718C93.9678 848.055 94.1582 848.465 94.1631 848.949C94.1582 849.681 93.7407 850.243 92.9106 850.633C92.0806 851.024 90.9062 851.224 89.3877 851.234C87.8643 851.224 86.6875 851.024 85.8574 850.633C85.0273 850.243 84.6123 849.681 84.6123 848.949C84.6123 848.465 84.8003 848.055 85.1763 847.718C85.5522 847.376 86.0967 847.118 86.8096 846.942C87.5225 846.766 88.3818 846.678 89.3877 846.678ZM89.3877 847.879C88.3818 847.879 87.6177 847.972 87.0952 848.158C86.5728 848.338 86.3164 848.602 86.3262 848.949C86.3213 849.31 86.5752 849.579 87.0879 849.754C87.6006 849.93 88.3672 850.018 89.3877 850.018C90.4229 850.018 91.1968 849.93 91.7095 849.754C92.2222 849.579 92.4785 849.31 92.4785 848.949C92.4785 848.602 92.2173 848.338 91.6948 848.158C91.1724 847.972 90.4033 847.879 89.3877 847.879ZM95.4375 853.241H83.3672V851.937H95.4375V853.241ZM93.9287 857.372H86.3994V858.353H94.2949V859.598H84.8027V856.214H92.332V855.335H84.7881V854.134H93.9287V857.372ZM104.71 848.817C104.71 849.413 104.827 849.986 105.062 850.538C105.301 851.09 105.652 851.581 106.116 852.01C106.585 852.435 107.151 852.762 107.815 852.992L106.922 854.266C106.219 853.998 105.611 853.617 105.098 853.124C104.59 852.63 104.195 852.054 103.912 851.395C103.619 852.137 103.201 852.782 102.659 853.329C102.122 853.875 101.473 854.291 100.711 854.574L99.8467 853.285C100.535 853.05 101.119 852.706 101.597 852.252C102.081 851.798 102.444 851.273 102.688 850.677C102.938 850.082 103.064 849.457 103.069 848.802V847.293H104.71V848.817ZM110.979 856.317H109.354V850.736H106.717V849.403H109.354V846.488H110.979V856.317ZM111.272 859.452H102.249V855.248H103.904V858.133H111.272V859.452ZM118.553 848.7H114.92V849.989H118.421V851.234H114.92V852.625C115.774 852.616 116.504 852.589 117.11 852.545C117.72 852.501 118.333 852.42 118.948 852.303L119.124 853.622C118.396 853.758 117.679 853.849 116.971 853.893C116.268 853.937 115.354 853.958 114.231 853.958H113.353V847.396H118.553V848.7ZM124.178 854.544H122.625V851.102H121.248V854.442H119.725V846.737H121.248V849.798H122.625V846.488H124.178V854.544ZM124.178 859.715H122.552V856.449H115.11V855.13H124.178V859.715ZM136.189 851.747H138.226V853.094H136.189V859.715H134.578V846.473H136.189V851.747ZM133.553 849.813H125.745V848.509H128.88V846.664H130.506V848.509H133.553V849.813ZM129.7 850.677C130.33 850.677 130.896 850.812 131.399 851.08C131.907 851.344 132.305 851.712 132.593 852.186C132.881 852.66 133.025 853.197 133.025 853.797C133.025 854.398 132.881 854.935 132.593 855.409C132.305 855.877 131.907 856.244 131.399 856.507C130.896 856.771 130.33 856.903 129.7 856.903C129.061 856.903 128.487 856.771 127.979 856.507C127.471 856.244 127.073 855.877 126.785 855.409C126.497 854.935 126.355 854.398 126.36 853.797C126.355 853.197 126.497 852.66 126.785 852.186C127.073 851.712 127.471 851.344 127.979 851.08C128.487 850.812 129.061 850.677 129.7 850.677ZM129.7 852.01C129.354 852.01 129.043 852.083 128.77 852.23C128.501 852.376 128.292 852.586 128.14 852.86C127.989 853.128 127.913 853.441 127.913 853.797C127.913 854.154 127.989 854.466 128.14 854.735C128.292 854.999 128.501 855.204 128.77 855.35C129.043 855.492 129.354 855.56 129.7 855.555C130.037 855.56 130.337 855.492 130.601 855.35C130.87 855.204 131.08 854.999 131.231 854.735C131.387 854.466 131.468 854.154 131.473 853.797C131.468 853.441 131.387 853.128 131.231 852.86C131.08 852.591 130.87 852.384 130.601 852.237C130.337 852.086 130.037 852.01 129.7 852.01ZM142.913 849.945C142.913 850.687 143.001 851.407 143.177 852.105C143.357 852.804 143.638 853.443 144.019 854.024C144.4 854.605 144.876 855.077 145.447 855.438L144.554 856.683C143.978 856.336 143.489 855.873 143.089 855.292C142.688 854.706 142.374 854.034 142.144 853.277C141.895 854.103 141.556 854.835 141.126 855.475C140.696 856.114 140.179 856.62 139.573 856.991L138.562 855.775C139.183 855.399 139.7 854.906 140.115 854.295C140.53 853.685 140.838 853.014 141.038 852.281C141.243 851.549 141.346 850.794 141.346 850.018V847.645H142.913V849.945ZM150.208 859.715H148.641V846.473H150.208V859.715ZM147.454 859.071H145.916V852.376H144.026V851.029H145.916V846.708H147.454V859.071ZM163.846 858.104H151.746V856.771H154.544V853.424C154.007 853.111 153.589 852.723 153.292 852.259C152.999 851.795 152.854 851.273 152.859 850.692C152.854 850.003 153.062 849.393 153.482 848.861C153.902 848.329 154.485 847.918 155.232 847.63C155.979 847.337 156.824 847.191 157.767 847.191C158.714 847.191 159.561 847.337 160.308 847.63C161.06 847.918 161.646 848.329 162.066 848.861C162.491 849.388 162.703 849.999 162.703 850.692C162.703 851.258 162.559 851.773 162.271 852.237C161.988 852.696 161.585 853.08 161.062 853.387V856.771H163.846V858.104ZM157.767 848.48C157.107 848.48 156.526 848.57 156.023 848.751C155.525 848.927 155.137 849.181 154.859 849.513C154.585 849.845 154.451 850.238 154.456 850.692C154.451 851.141 154.585 851.532 154.859 851.864C155.137 852.196 155.528 852.452 156.031 852.633C156.534 852.813 157.112 852.904 157.767 852.904C158.421 852.904 159 852.813 159.502 852.633C160.01 852.452 160.403 852.196 160.682 851.864C160.965 851.532 161.106 851.141 161.106 850.692C161.106 850.243 160.965 849.852 160.682 849.52C160.403 849.183 160.013 848.927 159.51 848.751C159.007 848.57 158.426 848.48 157.767 848.48ZM159.407 856.771V854.01C158.89 854.122 158.343 854.178 157.767 854.178C157.215 854.178 156.678 854.125 156.155 854.017V856.771H159.407Z" fill="#7A7873"/>
</g>
<g id="Frame">
<path id="Vector_10" d="M358.342 851.414L362.342 855.414L366.342 851.414" stroke="#7A7873" stroke-width="1.3" stroke-linecap="round" stroke-linejoin="round"/>
</g>
</g>
</g>
</g>
</g>
<g id="Container_5">
<g id="Icon_4" clip-path="url(#clip1_123_8598)">
<path id="Vector_11" d="M171.67 475.994H253.67" stroke="#7A7873" stroke-width="7.99775" stroke-linecap="round"/>
</g>
</g>
</g>
<g id="BottomNavigation" filter="url(#filter3_dd_123_8598)">
<mask id="path-30-inside-2_123_8598" fill="white">
<path d="M16 853H409V925H16V853Z"/>
</mask>
<path d="M16 853H409V925H16V853Z" fill="#161A18"/>
<path d="M16 853V854H409V853V852H16V853Z" fill="#373F3B" mask="url(#path-30-inside-2_123_8598)"/>
<g id="DarkMode-Home">
<g id="Icon_5">
<path id="Vector_12" d="M66.9863 888.499V880.501C66.9863 880.235 66.8809 879.981 66.6934 879.794C66.5059 879.606 66.2516 879.501 65.9864 879.501H61.9871C61.722 879.501 61.4677 879.606 61.2801 879.794C61.0926 879.981 60.9873 880.235 60.9873 880.501V888.499" stroke="#4A4845" stroke-width="1.99965" stroke-linecap="round" stroke-linejoin="round"/>
<path id="Vector_13" d="M54.9883 877.501C54.9882 877.21 55.0516 876.923 55.174 876.659C55.2965 876.395 55.475 876.161 55.6972 875.974L62.6959 869.976C63.0569 869.671 63.5142 869.503 63.9867 869.503C64.4593 869.503 64.9166 869.671 65.2775 869.976L72.2763 875.974C72.4984 876.161 72.677 876.395 72.7994 876.659C72.9218 876.923 72.9852 877.21 72.9852 877.501V886.5C72.9852 887.03 72.7745 887.539 72.3995 887.914C72.0245 888.289 71.5159 888.499 70.9855 888.499H56.9879C56.4576 888.499 55.949 888.289 55.574 887.914C55.199 887.539 54.9883 887.03 54.9883 886.5V877.501Z" stroke="#4A4845" stroke-width="1.99965" stroke-linecap="round" stroke-linejoin="round"/>
</g>
<g id="Layout">
<path id="&#237;&#153;&#136;" d="M66.7393 908.305H59.5674V905.328H66.7393V908.305ZM60.4814 907.59H65.8369V906.043H60.4814V907.59ZM67.3486 899.621H58.8994V898.906H62.6963V897.875H63.6104V898.906H67.3486V899.621ZM63.1533 900.043C64.2432 900.051 65.0771 900.18 65.6553 900.43C66.2373 900.676 66.5283 901.039 66.5283 901.52C66.5283 901.973 66.2783 902.322 65.7783 902.568C65.2783 902.814 64.5557 902.955 63.6104 902.99V903.793H67.8994V904.531H58.4072V903.793H62.6963V902.99C61.7471 902.955 61.0205 902.814 60.5166 902.568C60.0166 902.322 59.7666 901.973 59.7666 901.52C59.7666 901.039 60.0576 900.676 60.6396 900.43C61.2256 900.18 62.0635 900.051 63.1533 900.043ZM63.1533 900.688C62.376 900.695 61.7803 900.77 61.3662 900.91C60.9521 901.051 60.7471 901.254 60.751 901.52C60.7432 901.785 60.9502 901.99 61.3721 902.135C61.7939 902.279 62.3877 902.352 63.1533 902.352C63.915 902.352 64.5049 902.279 64.9229 902.135C65.3447 901.99 65.5557 901.785 65.5557 901.52C65.5557 901.254 65.3467 901.051 64.9287 900.91C64.5146 900.77 63.9229 900.695 63.1533 900.688Z" fill="#4A4845"/>
</g>
</g>
<g id="DarkMode-Chat">
<g id="Icon_6">
<path id="Vector_14" d="M147.235 882.5C147.235 883.031 147.024 883.539 146.649 883.914C146.274 884.289 145.766 884.5 145.236 884.5H133.238L129.238 888.499V872.502C129.238 871.972 129.449 871.463 129.824 871.088C130.199 870.713 130.708 870.502 131.238 870.502H145.236C145.766 870.502 146.274 870.713 146.649 871.088C147.024 871.463 147.235 871.972 147.235 872.502V882.5Z" stroke="#5E9E72" stroke-width="1.99965" stroke-linecap="round" stroke-linejoin="round"/>
</g>
<g id="Layout_2">
<path id="&#236;&#177;&#132;&#237;&#140;&#133;" d="M129.702 901.227C129.702 901.785 129.794 902.334 129.978 902.873C130.161 903.412 130.425 903.9 130.769 904.338C131.116 904.771 131.522 905.113 131.987 905.363L131.448 906.055C130.94 905.777 130.501 905.387 130.13 904.883C129.759 904.379 129.476 903.807 129.28 903.166C129.089 903.85 128.808 904.463 128.437 905.006C128.065 905.549 127.628 905.969 127.124 906.266L126.573 905.586C127.03 905.32 127.429 904.957 127.769 904.496C128.108 904.031 128.37 903.516 128.554 902.949C128.737 902.379 128.831 901.805 128.835 901.227V900.746H126.819V899.984H128.835V898.414H129.714V899.984H131.706V900.746H129.702V901.227ZM135.608 908.445H134.718V903.031H133.3V907.918H132.421V898.25H133.3V902.246H134.718V898.027H135.608V908.445ZM142.628 899.551H138.562V900.863H142.335V901.613H138.562V902.984C139.745 902.984 140.687 902.967 141.386 902.932C142.085 902.893 142.784 902.816 143.483 902.703L143.577 903.453C142.847 903.57 142.118 903.648 141.392 903.688C140.665 903.727 139.694 903.746 138.479 903.746H137.636V898.801H142.628V899.551ZM145.628 904.496H144.714V898.039H145.628V904.496ZM142.171 904.648C142.89 904.645 143.513 904.717 144.04 904.865C144.567 905.01 144.972 905.225 145.253 905.51C145.534 905.791 145.675 906.129 145.675 906.523C145.675 906.926 145.534 907.268 145.253 907.549C144.972 907.834 144.567 908.051 144.04 908.199C143.517 908.348 142.894 908.422 142.171 908.422C141.433 908.422 140.8 908.348 140.272 908.199C139.745 908.055 139.341 907.84 139.06 907.555C138.782 907.27 138.644 906.926 138.644 906.523C138.644 906.129 138.782 905.791 139.06 905.51C139.341 905.225 139.745 905.01 140.272 904.865C140.804 904.717 141.437 904.645 142.171 904.648ZM142.171 905.375C141.628 905.375 141.159 905.422 140.765 905.516C140.374 905.605 140.075 905.736 139.868 905.908C139.661 906.08 139.558 906.285 139.558 906.523C139.558 906.77 139.661 906.98 139.868 907.156C140.075 907.332 140.374 907.465 140.765 907.555C141.159 907.648 141.628 907.695 142.171 907.695C142.702 907.695 143.163 907.648 143.554 907.555C143.944 907.461 144.245 907.326 144.456 907.15C144.667 906.975 144.772 906.766 144.772 906.523C144.772 906.289 144.667 906.086 144.456 905.914C144.245 905.738 143.942 905.605 143.548 905.516C143.157 905.422 142.698 905.375 142.171 905.375Z" fill="#5E9E72"/>
</g>
</g>
<g id="DarkMode-Plan">
<g id="Icon_7">
<path id="Vector_15" d="M208.493 869.503V873.503" stroke="#4A4845" stroke-width="1.99965" stroke-linecap="round" stroke-linejoin="round"/>
<path id="Vector_16" d="M216.491 869.503V873.503" stroke="#4A4845" stroke-width="1.99965" stroke-linecap="round" stroke-linejoin="round"/>
<path id="Vector_17" d="M219.49 871.502H205.493C204.388 871.502 203.493 872.397 203.493 873.502V887.499C203.493 888.604 204.388 889.499 205.493 889.499H219.49C220.595 889.499 221.49 888.604 221.49 887.499V873.502C221.49 872.397 220.595 871.502 219.49 871.502Z" stroke="#4A4845" stroke-width="1.99965" stroke-linecap="round" stroke-linejoin="round"/>
<path id="Vector_18" d="M203.493 877.501H221.49" stroke="#4A4845" stroke-width="1.99965" stroke-linecap="round" stroke-linejoin="round"/>
</g>
<g id="Layout_3">
<path id="&#236;&#157;&#188;&#236;&#160;&#149;" d="M203.863 899.414C204.379 899.418 204.84 899.518 205.246 899.713C205.656 899.908 205.977 900.182 206.207 900.533C206.441 900.881 206.559 901.277 206.559 901.723C206.559 902.168 206.441 902.566 206.207 902.918C205.977 903.266 205.656 903.537 205.246 903.732C204.84 903.924 204.379 904.02 203.863 904.02C203.34 904.02 202.873 903.924 202.463 903.732C202.053 903.537 201.732 903.266 201.502 902.918C201.271 902.566 201.156 902.168 201.156 901.723C201.156 901.277 201.271 900.881 201.502 900.533C201.732 900.182 202.053 899.908 202.463 899.713C202.873 899.518 203.34 899.418 203.863 899.414ZM203.863 900.188C203.52 900.188 203.209 900.254 202.932 900.387C202.658 900.516 202.443 900.697 202.287 900.932C202.131 901.162 202.055 901.426 202.059 901.723C202.055 902.023 202.131 902.291 202.287 902.525C202.443 902.76 202.658 902.943 202.932 903.076C203.209 903.205 203.52 903.27 203.863 903.27C204.203 903.27 204.51 903.205 204.783 903.076C205.061 902.943 205.277 902.76 205.434 902.525C205.59 902.291 205.668 902.023 205.668 901.723C205.668 901.426 205.59 901.162 205.434 900.932C205.277 900.697 205.061 900.516 204.783 900.387C204.51 900.254 204.203 900.188 203.863 900.188ZM209.512 904.383H208.598V899.027H209.512V904.383ZM209.512 907.395H203.664V908.566H209.887V909.305H202.762V906.703H208.598V905.625H202.738V904.887H209.512V907.395ZM220.118 905.238H219.192V902.508H217.095V901.746H219.192V899.027H220.118V905.238ZM216.661 905.566C217.384 905.566 218.007 905.643 218.53 905.795C219.054 905.947 219.454 906.168 219.731 906.457C220.012 906.746 220.153 907.094 220.153 907.5C220.153 907.906 220.012 908.254 219.731 908.543C219.454 908.836 219.054 909.059 218.53 909.211C218.007 909.363 217.384 909.441 216.661 909.445C215.938 909.441 215.315 909.363 214.792 909.211C214.268 909.059 213.866 908.836 213.585 908.543C213.307 908.254 213.169 907.906 213.169 907.5C213.169 907.094 213.307 906.746 213.585 906.457C213.866 906.168 214.268 905.947 214.792 905.795C215.315 905.643 215.938 905.566 216.661 905.566ZM216.661 906.281C216.134 906.281 215.675 906.33 215.284 906.428C214.893 906.525 214.595 906.666 214.387 906.85C214.18 907.033 214.079 907.25 214.083 907.5C214.079 907.746 214.18 907.961 214.387 908.145C214.595 908.324 214.893 908.463 215.284 908.561C215.675 908.658 216.134 908.707 216.661 908.707C217.188 908.707 217.645 908.658 218.032 908.561C218.423 908.463 218.721 908.324 218.929 908.145C219.136 907.961 219.239 907.746 219.239 907.5C219.239 907.25 219.136 907.033 218.929 906.85C218.721 906.666 218.423 906.525 218.032 906.428C217.645 906.33 217.188 906.281 216.661 906.281ZM215.102 900.938C215.102 901.387 215.21 901.822 215.425 902.244C215.639 902.662 215.94 903.035 216.327 903.363C216.718 903.688 217.165 903.938 217.669 904.113L217.188 904.852C216.606 904.641 216.095 904.328 215.653 903.914C215.216 903.5 214.886 903.021 214.663 902.479C214.436 903.088 214.091 903.627 213.626 904.096C213.165 904.561 212.626 904.91 212.009 905.145L211.528 904.406C212.04 904.219 212.497 903.949 212.899 903.598C213.302 903.242 213.614 902.834 213.837 902.373C214.063 901.912 214.177 901.438 214.177 900.949V900.562H211.821V899.789H217.434V900.562H215.102V900.938Z" fill="#4A4845"/>
</g>
</g>
<g id="DarkMode-PlanList">
<g id="Icon_8">
<path id="Vector_19" d="M277.751 879.509H277.761" stroke="#4A4845" stroke-width="1.99986" stroke-linecap="round" stroke-linejoin="round"/>
<path id="Vector_20" d="M277.751 885.508H277.761" stroke="#4A4845" stroke-width="1.99986" stroke-linecap="round" stroke-linejoin="round"/>
<path id="Vector_21" d="M277.751 873.509H277.761" stroke="#4A4845" stroke-width="1.99986" stroke-linecap="round" stroke-linejoin="round"/>
<path id="Vector_22" d="M282.75 879.509H295.75" stroke="#4A4845" stroke-width="1.99986" stroke-linecap="round" stroke-linejoin="round"/>
<path id="Vector_23" d="M282.75 885.508H295.75" stroke="#4A4845" stroke-width="1.99986" stroke-linecap="round" stroke-linejoin="round"/>
<path id="Vector_24" d="M282.75 873.509H295.75" stroke="#4A4845" stroke-width="1.99986" stroke-linecap="round" stroke-linejoin="round"/>
</g>
<g id="Layout_4">
<path id="&#236;&#151;&#172;&#237;&#150;&#137;&#235;&#170;&#169;&#235;&#161;&#157;" d="M268.242 900H271.53V900.816H268.242V900ZM268.242 903.432H271.53V904.248H268.242V903.432ZM266.25 898.416C266.778 898.416 267.246 898.572 267.654 898.884C268.062 899.188 268.378 899.624 268.602 900.192C268.834 900.76 268.95 901.428 268.95 902.196C268.95 902.964 268.834 903.632 268.602 904.2C268.378 904.768 268.062 905.208 267.654 905.52C267.246 905.832 266.778 905.988 266.25 905.988C265.73 905.988 265.262 905.832 264.846 905.52C264.438 905.208 264.118 904.768 263.886 904.2C263.662 903.632 263.55 902.964 263.55 902.196C263.55 901.428 263.662 900.76 263.886 900.192C264.118 899.624 264.438 899.188 264.846 898.884C265.262 898.572 265.73 898.416 266.25 898.416ZM266.25 899.304C265.906 899.304 265.602 899.424 265.338 899.664C265.074 899.896 264.866 900.232 264.714 900.672C264.57 901.104 264.498 901.612 264.498 902.196C264.498 902.78 264.57 903.292 264.714 903.732C264.866 904.164 265.074 904.5 265.338 904.74C265.602 904.98 265.906 905.1 266.25 905.1C266.602 905.1 266.91 904.98 267.174 904.74C267.438 904.5 267.642 904.164 267.786 903.732C267.938 903.292 268.014 902.78 268.014 902.196C268.014 901.612 267.938 901.104 267.786 900.672C267.642 900.232 267.438 899.896 267.174 899.664C266.91 899.424 266.602 899.304 266.25 899.304ZM271.302 897.576H272.286V908.448H271.302V897.576ZM282.593 897.576H283.541V904.44H282.593V897.576ZM280.817 900.528H282.869V901.344H280.817V900.528ZM280.265 897.792H281.201V904.056H280.265V897.792ZM274.337 898.872H279.833V899.664H274.337V898.872ZM277.097 900.228C277.553 900.228 277.953 900.304 278.297 900.456C278.649 900.608 278.921 900.824 279.113 901.104C279.313 901.384 279.413 901.712 279.413 902.088C279.413 902.464 279.313 902.792 279.113 903.072C278.921 903.344 278.649 903.556 278.297 903.708C277.953 903.86 277.553 903.936 277.097 903.936C276.649 903.936 276.249 903.86 275.897 903.708C275.545 903.556 275.273 903.344 275.081 903.072C274.889 902.792 274.793 902.464 274.793 902.088C274.793 901.712 274.889 901.384 275.081 901.104C275.273 900.824 275.545 900.608 275.897 900.456C276.249 900.304 276.649 900.228 277.097 900.228ZM277.097 900.972C276.681 900.972 276.341 901.072 276.077 901.272C275.813 901.472 275.681 901.744 275.681 902.088C275.681 902.424 275.809 902.696 276.065 902.904C276.329 903.104 276.673 903.204 277.097 903.204C277.521 903.204 277.861 903.104 278.117 902.904C278.381 902.696 278.513 902.424 278.513 902.088C278.513 901.744 278.381 901.472 278.117 901.272C277.861 901.072 277.521 900.972 277.097 900.972ZM276.605 897.66H277.589V899.328H276.605V897.66ZM279.977 904.632C281.113 904.632 282.001 904.796 282.641 905.124C283.281 905.452 283.601 905.92 283.601 906.528C283.601 907.128 283.281 907.592 282.641 907.92C282.001 908.248 281.113 908.412 279.977 908.412C278.841 908.412 277.953 908.248 277.313 907.92C276.673 907.592 276.353 907.128 276.353 906.528C276.353 905.92 276.673 905.452 277.313 905.124C277.953 904.796 278.841 904.632 279.977 904.632ZM279.977 905.4C279.145 905.4 278.497 905.496 278.033 905.688C277.569 905.88 277.337 906.16 277.337 906.528C277.337 906.888 277.569 907.164 278.033 907.356C278.497 907.548 279.145 907.644 279.977 907.644C280.801 907.644 281.445 907.548 281.909 907.356C282.373 907.164 282.605 906.888 282.605 906.528C282.605 906.16 282.373 905.88 281.909 905.688C281.445 905.496 280.801 905.4 279.977 905.4ZM286.696 898.032H293.98V901.716H286.696V898.032ZM293.008 898.824H287.668V900.912H293.008V898.824ZM285.436 903.072H295.24V903.888H285.436V903.072ZM289.84 901.512H290.836V903.384H289.84V901.512ZM286.528 905.004H294.028V908.436H293.032V905.808H286.528V905.004ZM296.463 903.552H306.303V904.368H296.463V903.552ZM297.711 897.852H305.043V900.492H298.719V901.944H297.735V899.748H304.059V898.644H297.711V897.852ZM297.735 901.62H305.271V902.412H297.735V901.62ZM300.891 902.028H301.875V903.948H300.891V902.028ZM297.567 905.196H305.103V908.328H304.107V906H297.567V905.196Z" fill="#4A4845"/>
</g>
</g>
<g id="DarkMode-Setting">
<g id="Icon_9">
<path id="Vector_25" d="M361.226 869.502H360.786C360.256 869.502 359.747 869.713 359.372 870.088C358.997 870.463 358.787 870.972 358.787 871.502V871.682C358.786 872.033 358.694 872.377 358.518 872.681C358.343 872.984 358.09 873.236 357.787 873.412L357.357 873.662C357.053 873.837 356.708 873.93 356.357 873.93C356.006 873.93 355.661 873.837 355.357 873.662L355.207 873.582C354.748 873.317 354.203 873.245 353.692 873.382C353.18 873.519 352.743 873.853 352.478 874.312L352.258 874.692C351.993 875.15 351.921 875.696 352.058 876.207C352.195 876.719 352.529 877.156 352.988 877.421L353.138 877.521C353.44 877.696 353.691 877.946 353.867 878.248C354.042 878.549 354.135 878.892 354.137 879.241V879.751C354.139 880.103 354.047 880.449 353.872 880.755C353.696 881.061 353.443 881.314 353.138 881.49L352.988 881.58C352.529 881.846 352.195 882.282 352.058 882.794C351.921 883.306 351.993 883.851 352.258 884.31L352.478 884.69C352.743 885.148 353.18 885.482 353.692 885.619C354.203 885.756 354.748 885.684 355.207 885.42L355.357 885.34C355.661 885.164 356.006 885.072 356.357 885.072C356.708 885.072 357.053 885.164 357.357 885.34L357.787 885.59C358.09 885.765 358.343 886.017 358.518 886.321C358.694 886.624 358.786 886.969 358.787 887.319V887.499C358.787 888.03 358.997 888.538 359.372 888.913C359.747 889.288 360.256 889.499 360.786 889.499H361.226C361.757 889.499 362.265 889.288 362.64 888.913C363.015 888.538 363.226 888.03 363.226 887.499V887.319C363.226 886.969 363.319 886.624 363.494 886.321C363.67 886.017 363.922 885.765 364.226 885.59L364.656 885.34C364.96 885.164 365.304 885.072 365.655 885.072C366.006 885.072 366.351 885.164 366.655 885.34L366.805 885.42C367.264 885.684 367.809 885.756 368.321 885.619C368.833 885.482 369.269 885.148 369.535 884.69L369.755 884.3C370.019 883.841 370.091 883.296 369.954 882.784C369.818 882.272 369.483 881.836 369.025 881.57L368.875 881.49C368.57 881.314 368.317 881.061 368.141 880.755C367.965 880.449 367.874 880.103 367.875 879.751V879.251C367.874 878.898 367.965 878.552 368.141 878.246C368.317 877.941 368.57 877.687 368.875 877.511L369.025 877.421C369.483 877.156 369.818 876.719 369.954 876.207C370.091 875.696 370.019 875.15 369.755 874.692L369.535 874.312C369.269 873.853 368.833 873.519 368.321 873.382C367.809 873.245 367.264 873.317 366.805 873.582L366.655 873.662C366.351 873.837 366.006 873.93 365.655 873.93C365.304 873.93 364.96 873.837 364.656 873.662L364.226 873.412C363.922 873.236 363.67 872.984 363.494 872.681C363.319 872.377 363.226 872.033 363.226 871.682V871.502C363.226 870.972 363.015 870.463 362.64 870.088C362.265 869.713 361.757 869.502 361.226 869.502Z" stroke="#4A4845" stroke-width="1.99965" stroke-linecap="round" stroke-linejoin="round"/>
<path id="Vector_26" d="M361.006 882.5C362.663 882.5 364.006 881.157 364.006 879.501C364.006 877.844 362.663 876.501 361.006 876.501C359.35 876.501 358.007 877.844 358.007 879.501C358.007 881.157 359.35 882.5 361.006 882.5Z" stroke="#4A4845" stroke-width="1.99965" stroke-linecap="round" stroke-linejoin="round"/>
</g>
<g id="Layout_5">
<path id="&#236;&#132;&#164;&#236;&#160;&#149;" d="M358.062 904.418H357.136V901.711H354.815V900.949H357.136V899.027H358.062V904.418ZM358.062 907.43H352.237V908.566H358.448V909.305H351.335V906.727H357.147V905.684H351.312V904.945H358.062V907.43ZM352.976 900.352C352.972 900.801 353.079 901.232 353.298 901.646C353.517 902.061 353.823 902.426 354.218 902.742C354.612 903.059 355.062 903.301 355.565 903.469L355.073 904.184C354.495 903.977 353.985 903.676 353.544 903.281C353.103 902.887 352.767 902.428 352.536 901.904C352.317 902.494 351.981 903.01 351.528 903.451C351.075 903.889 350.538 904.219 349.917 904.441L349.413 903.703C349.933 903.531 350.392 903.279 350.79 902.947C351.192 902.611 351.505 902.221 351.728 901.775C351.954 901.326 352.069 900.852 352.073 900.352V899.367H352.976V900.352ZM368.633 905.238H367.707V902.508H365.609V901.746H367.707V899.027H368.633V905.238ZM365.176 905.566C365.898 905.566 366.521 905.643 367.045 905.795C367.568 905.947 367.969 906.168 368.246 906.457C368.527 906.746 368.668 907.094 368.668 907.5C368.668 907.906 368.527 908.254 368.246 908.543C367.969 908.836 367.568 909.059 367.045 909.211C366.521 909.363 365.898 909.441 365.176 909.445C364.453 909.441 363.83 909.363 363.306 909.211C362.783 909.059 362.381 908.836 362.099 908.543C361.822 908.254 361.683 907.906 361.683 907.5C361.683 907.094 361.822 906.746 362.099 906.457C362.381 906.168 362.783 905.947 363.306 905.795C363.83 905.643 364.453 905.566 365.176 905.566ZM365.176 906.281C364.648 906.281 364.189 906.33 363.799 906.428C363.408 906.525 363.109 906.666 362.902 906.85C362.695 907.033 362.594 907.25 362.597 907.5C362.594 907.746 362.695 907.961 362.902 908.145C363.109 908.324 363.408 908.463 363.799 908.561C364.189 908.658 364.648 908.707 365.176 908.707C365.703 908.707 366.16 908.658 366.547 908.561C366.937 908.463 367.236 908.324 367.443 908.145C367.65 907.961 367.754 907.746 367.754 907.5C367.754 907.25 367.65 907.033 367.443 906.85C367.236 906.666 366.937 906.525 366.547 906.428C366.16 906.33 365.703 906.281 365.176 906.281ZM363.617 900.938C363.617 901.387 363.724 901.822 363.939 902.244C364.154 902.662 364.455 903.035 364.842 903.363C365.232 903.688 365.679 903.938 366.183 904.113L365.703 904.852C365.121 904.641 364.609 904.328 364.168 903.914C363.73 903.5 363.4 903.021 363.178 902.479C362.951 903.088 362.605 903.627 362.14 904.096C361.679 904.561 361.14 904.91 360.523 905.145L360.043 904.406C360.554 904.219 361.012 903.949 361.414 903.598C361.816 903.242 362.129 902.834 362.351 902.373C362.578 901.912 362.691 901.438 362.691 900.949V900.562H360.336V899.789H365.949V900.562H363.617V900.938Z" fill="#4A4845"/>
</g>
</g>
</g>
</g>
<defs>
<filter id="filter0_dd_123_8598" x="8" y="579.992" width="409.342" height="118.974" filterUnits="userSpaceOnUse" color-interpolation-filters="sRGB">
<feFlood flood-opacity="0" result="BackgroundImageFix"/>
<feColorMatrix in="SourceAlpha" type="matrix" values="0 0 0 0 0 0 0 0 0 0 0 0 0 0 0 0 0 0 127 0" result="hardAlpha"/>
<feOffset dy="8"/>
<feGaussianBlur stdDeviation="16"/>
<feColorMatrix type="matrix" values="0 0 0 0 0 0 0 0 0 0 0 0 0 0 0 0 0 0 0.5 0"/>
<feBlend mode="normal" in2="BackgroundImageFix" result="effect1_dropShadow_123_8598"/>
<feColorMatrix in="SourceAlpha" type="matrix" values="0 0 0 0 0 0 0 0 0 0 0 0 0 0 0 0 0 0 127 0" result="hardAlpha"/>
<feOffset dy="2"/>
<feGaussianBlur stdDeviation="4"/>
<feColorMatrix type="matrix" values="0 0 0 0 0 0 0 0 0 0 0 0 0 0 0 0 0 0 0.25 0"/>
<feBlend mode="normal" in2="effect1_dropShadow_123_8598" result="effect2_dropShadow_123_8598"/>
<feBlend mode="normal" in="SourceGraphic" in2="effect2_dropShadow_123_8598" result="shape"/>
</filter>
<filter id="filter1_dd_123_8598" x="8" y="690.959" width="409.342" height="118.974" filterUnits="userSpaceOnUse" color-interpolation-filters="sRGB">
<feFlood flood-opacity="0" result="BackgroundImageFix"/>
<feColorMatrix in="SourceAlpha" type="matrix" values="0 0 0 0 0 0 0 0 0 0 0 0 0 0 0 0 0 0 127 0" result="hardAlpha"/>
<feOffset dy="8"/>
<feGaussianBlur stdDeviation="16"/>
<feColorMatrix type="matrix" values="0 0 0 0 0 0 0 0 0 0 0 0 0 0 0 0 0 0 0.5 0"/>
<feBlend mode="normal" in2="BackgroundImageFix" result="effect1_dropShadow_123_8598"/>
<feColorMatrix in="SourceAlpha" type="matrix" values="0 0 0 0 0 0 0 0 0 0 0 0 0 0 0 0 0 0 127 0" result="hardAlpha"/>
<feOffset dy="2"/>
<feGaussianBlur stdDeviation="4"/>
<feColorMatrix type="matrix" values="0 0 0 0 0 0 0 0 0 0 0 0 0 0 0 0 0 0 0.25 0"/>
<feBlend mode="normal" in2="effect1_dropShadow_123_8598" result="effect2_dropShadow_123_8598"/>
<feBlend mode="normal" in="SourceGraphic" in2="effect2_dropShadow_123_8598" result="shape"/>
</filter>
<filter id="filter2_dd_123_8598" x="8" y="801.927" width="409.342" height="118.974" filterUnits="userSpaceOnUse" color-interpolation-filters="sRGB">
<feFlood flood-opacity="0" result="BackgroundImageFix"/>
<feColorMatrix in="SourceAlpha" type="matrix" values="0 0 0 0 0 0 0 0 0 0 0 0 0 0 0 0 0 0 127 0" result="hardAlpha"/>
<feOffset dy="8"/>
<feGaussianBlur stdDeviation="16"/>
<feColorMatrix type="matrix" values="0 0 0 0 0 0 0 0 0 0 0 0 0 0 0 0 0 0 0.5 0"/>
<feBlend mode="normal" in2="BackgroundImageFix" result="effect1_dropShadow_123_8598"/>
<feColorMatrix in="SourceAlpha" type="matrix" values="0 0 0 0 0 0 0 0 0 0 0 0 0 0 0 0 0 0 127 0" result="hardAlpha"/>
<feOffset dy="2"/>
<feGaussianBlur stdDeviation="4"/>
<feColorMatrix type="matrix" values="0 0 0 0 0 0 0 0 0 0 0 0 0 0 0 0 0 0 0.25 0"/>
<feBlend mode="normal" in2="effect1_dropShadow_123_8598" result="effect2_dropShadow_123_8598"/>
<feBlend mode="normal" in="SourceGraphic" in2="effect2_dropShadow_123_8598" result="shape"/>
</filter>
<filter id="filter3_dd_123_8598" x="0" y="841" width="425" height="104" filterUnits="userSpaceOnUse" color-interpolation-filters="sRGB">
<feFlood flood-opacity="0" result="BackgroundImageFix"/>
<feColorMatrix in="SourceAlpha" type="matrix" values="0 0 0 0 0 0 0 0 0 0 0 0 0 0 0 0 0 0 127 0" result="hardAlpha"/>
<feOffset dy="4"/>
<feGaussianBlur stdDeviation="8"/>
<feColorMatrix type="matrix" values="0 0 0 0 0 0 0 0 0 0 0 0 0 0 0 0 0 0 0.4 0"/>
<feBlend mode="normal" in2="BackgroundImageFix" result="effect1_dropShadow_123_8598"/>
<feColorMatrix in="SourceAlpha" type="matrix" values="0 0 0 0 0 0 0 0 0 0 0 0 0 0 0 0 0 0 127 0" result="hardAlpha"/>
<feOffset dy="1"/>
<feGaussianBlur stdDeviation="2"/>
<feColorMatrix type="matrix" values="0 0 0 0 0 0 0 0 0 0 0 0 0 0 0 0 0 0 0.2 0"/>
<feBlend mode="normal" in2="effect1_dropShadow_123_8598" result="effect2_dropShadow_123_8598"/>
<feBlend mode="normal" in="SourceGraphic" in2="effect2_dropShadow_123_8598" result="shape"/>
</filter>
<clipPath id="clip0_123_8598">
<rect width="393" height="853" fill="white" transform="translate(16)"/>
</clipPath>
<clipPath id="clip1_123_8598">
<rect width="89.9996" height="7.99554" fill="white" transform="translate(167.67 471.997)"/>
</clipPath>
</defs>
</svg>
