<svg width="425" height="945" viewBox="0 0 425 945" fill="none" xmlns="http://www.w3.org/2000/svg">
<g id="NewChatScreen">
<g id="NewChatScreen_2">
<rect width="393" height="925" transform="translate(16)" fill="white"/>
<g id="Chat" clip-path="url(#clip0_121_5401)">
<rect width="393" height="853" transform="translate(16)" fill="white"/>
<g id="Container">
<g id="ChatHeader - Default">
<mask id="path-1-outside-1_121_5401" maskUnits="userSpaceOnUse" x="16" y="0" width="393" height="80" fill="black">
<rect fill="white" x="16" width="393" height="80"/>
<path d="M16 0H408.723V78.7199H16V0Z"/>
</mask>
<path d="M16 0H408.723V78.7199H16V0Z" fill="#FAFAF7"/>
<path d="M408.723 78.7199V77.7199H16V78.7199V79.7199H408.723V78.7199Z" fill="#E2DDD5" mask="url(#path-1-outside-1_121_5401)"/>
<g id="Button">
<g id="Icon">
<path id="Vector" d="M43.3169 39.36H56.6492" stroke="#4A7C59" stroke-width="1.66654" stroke-linecap="round" stroke-linejoin="round"/>
<path id="Vector_2" d="M43.3169 34.3604H56.6492" stroke="#4A7C59" stroke-width="1.66654" stroke-linecap="round" stroke-linejoin="round"/>
<path id="Vector_3" d="M43.3169 44.3596H56.6492" stroke="#4A7C59" stroke-width="1.66654" stroke-linecap="round" stroke-linejoin="round"/>
</g>
</g>
</g>
<g id="Container_2">
<rect width="393" height="872" transform="translate(16 79.72)" fill="#F5F3EE"/>
</g>
</g>
</g>
</g>
<rect id="scrim" x="16" width="393" height="853" fill="#1E2822" fill-opacity="0.48"/>
<g id="TripInfoBottomSheetCreateLight ">
<path d="M16 466C16 457.163 23.1634 450 32 450H393C401.837 450 409 457.163 409 466V853H16V466Z" fill="#F5F3EE"/>
<g id="Frame 63">
<g id="Heading 2">
<path id="&#236;&#151;&#172;&#237;&#150;&#137; &#236;&#160;&#149;&#235;&#179;&#180;&#235;&#165;&#188; &#236;&#158;&#133;&#235;&#160;&#165;&#237;&#149;&#180;&#236;&#163;&#188;&#236;&#132;&#184;&#236;&#154;&#148;" d="M46.1553 523.9C47.029 523.9 47.8167 524.133 48.5186 524.599C49.2275 525.064 49.8005 525.727 50.2373 526.586H54.7705V522.482H57.1338V541.926H54.7705V534.578H50.4092C49.9867 535.545 49.4066 536.297 48.6689 536.834C47.9313 537.364 47.0934 537.629 46.1553 537.629C45.1813 537.629 44.3184 537.35 43.5664 536.791C42.8145 536.232 42.2272 535.434 41.8047 534.396C41.3822 533.357 41.1709 532.143 41.1709 530.754C41.1709 529.379 41.3822 528.176 41.8047 527.145C42.2272 526.106 42.8145 525.308 43.5664 524.749C44.3255 524.183 45.1885 523.9 46.1553 523.9ZM46.1553 526.049C45.6182 526.049 45.1455 526.239 44.7373 526.618C44.3291 526.991 44.014 527.531 43.792 528.24C43.57 528.942 43.4626 529.78 43.4697 530.754C43.4626 531.735 43.57 532.58 43.792 533.289C44.014 533.998 44.3291 534.542 44.7373 534.922C45.1455 535.294 45.6182 535.48 46.1553 535.48C46.6924 535.48 47.1615 535.294 47.5625 534.922C47.9707 534.542 48.2858 533.998 48.5078 533.289C48.737 532.58 48.8551 531.735 48.8623 530.754C48.8551 529.78 48.737 528.938 48.5078 528.229C48.2858 527.521 47.9707 526.98 47.5625 526.607C47.1615 526.235 46.6924 526.049 46.1553 526.049ZM50.9033 528.541C51.0465 529.236 51.1182 529.973 51.1182 530.754C51.1182 531.398 51.068 532.029 50.9678 532.645H54.7705V528.541H50.9033ZM76.4697 534.686H74.1924V529.4H72.3018V534.041H70.0674V522.869H72.3018V527.467H74.1924V522.482H76.4697V534.686ZM69.4229 526.457H59.7549V524.588H63.4287V522.654H65.792V524.588H69.4229V526.457ZM64.6104 527.252C65.4268 527.252 66.1536 527.392 66.791 527.671C67.4284 527.95 67.9261 528.344 68.2842 528.853C68.6494 529.354 68.8356 529.938 68.8428 530.604C68.8356 531.27 68.6494 531.857 68.2842 532.365C67.9261 532.867 67.4284 533.257 66.791 533.536C66.1536 533.815 65.4268 533.955 64.6104 533.955C63.8083 533.955 63.0885 533.815 62.4512 533.536C61.8138 533.257 61.3161 532.863 60.958 532.354C60.6071 531.846 60.4352 531.262 60.4424 530.604C60.4352 529.945 60.6071 529.361 60.958 528.853C61.3161 528.344 61.8138 527.95 62.4512 527.671C63.0885 527.392 63.8083 527.252 64.6104 527.252ZM64.6104 528.971C64.0016 528.971 63.5075 529.118 63.1279 529.411C62.7555 529.705 62.5693 530.102 62.5693 530.604C62.5693 531.105 62.7555 531.502 63.1279 531.796C63.5003 532.09 63.9945 532.236 64.6104 532.236C65.2262 532.236 65.724 532.09 66.1035 531.796C66.4831 531.502 66.6729 531.105 66.6729 530.604C66.6729 530.102 66.4831 529.705 66.1035 529.411C65.724 529.118 65.2262 528.971 64.6104 528.971ZM69.917 534.922C71.2992 534.922 72.488 535.058 73.4834 535.33C74.4788 535.602 75.2415 536.003 75.7715 536.533C76.3014 537.056 76.57 537.686 76.5771 538.424C76.57 539.147 76.2979 539.767 75.7607 540.282C75.2308 540.805 74.4681 541.202 73.4727 541.475C72.4772 541.747 71.292 541.883 69.917 541.883C68.542 541.883 67.3532 541.747 66.3506 541.475C65.3551 541.202 64.5889 540.805 64.0518 540.282C63.5218 539.767 63.2568 539.147 63.2568 538.424C63.2568 537.686 63.5218 537.056 64.0518 536.533C64.5889 536.003 65.3551 535.602 66.3506 535.33C67.346 535.058 68.5348 534.922 69.917 534.922ZM69.917 536.748C68.5205 536.734 67.457 536.87 66.7266 537.156C66.0033 537.436 65.6416 537.858 65.6416 538.424C65.6416 538.961 66.0068 539.369 66.7373 539.648C67.4678 539.921 68.5277 540.057 69.917 540.057C71.2992 540.057 72.3519 539.921 73.0752 539.648C73.8057 539.369 74.1709 538.961 74.1709 538.424C74.1709 537.858 73.8057 537.436 73.0752 537.156C72.3519 536.87 71.2992 536.734 69.917 536.748ZM100.36 534.02H97.9756V529.271H94.667V527.316H97.9756V522.482H100.36V534.02ZM93.7861 534.514C95.154 534.514 96.3356 534.66 97.3311 534.954C98.3337 535.241 99.0999 535.663 99.6299 536.222C100.16 536.773 100.425 537.436 100.425 538.209C100.425 538.982 100.16 539.645 99.6299 540.196C99.0999 540.755 98.3337 541.177 97.3311 541.464C96.3356 541.757 95.154 541.904 93.7861 541.904C92.4255 541.904 91.2474 541.757 90.252 541.464C89.2565 541.177 88.4938 540.755 87.9639 540.196C87.4411 539.645 87.1833 538.982 87.1904 538.209C87.1833 537.436 87.4411 536.773 87.9639 536.222C88.4938 535.663 89.2565 535.241 90.252 534.954C91.2474 534.66 92.4255 534.514 93.7861 534.514ZM93.7861 536.34C92.4255 536.34 91.3799 536.501 90.6494 536.823C89.9189 537.138 89.5537 537.6 89.5537 538.209C89.5537 538.811 89.9189 539.269 90.6494 539.584C91.3799 539.899 92.4255 540.057 93.7861 540.057C95.1468 540.057 96.196 539.899 96.9336 539.584C97.6712 539.269 98.04 538.811 98.04 538.209C98.04 537.6 97.6712 537.138 96.9336 536.823C96.196 536.501 95.1468 536.34 93.7861 536.34ZM91.2295 525.812C91.2295 526.615 91.4049 527.395 91.7559 528.154C92.1068 528.906 92.626 529.583 93.3135 530.185C94.001 530.779 94.8317 531.241 95.8057 531.57L94.6025 533.461C93.5498 533.103 92.6367 532.576 91.8633 531.882C91.097 531.18 90.4954 530.364 90.0586 529.433C89.6217 530.485 88.9987 531.406 88.1895 532.193C87.3802 532.974 86.4098 533.568 85.2783 533.977L84.0322 532.086C85.042 531.742 85.9049 531.244 86.6211 530.593C87.3372 529.934 87.8779 529.193 88.2432 528.369C88.6156 527.546 88.8018 526.701 88.8018 525.834V525.684H84.7627V523.75H95.2471V525.684H91.2295V525.812ZM120.856 539.562H103.11V537.607H110.759V533.826H105.065V523.771H107.45V526.951H116.452V523.771H118.837V533.826H113.122V537.607H120.856V539.562ZM116.452 531.893V528.863H107.45V531.893H116.452ZM139.849 533.096H122.103V531.291H139.849V533.096ZM137.7 538.682H126.571V540.035H138.28V541.689H124.187V537.135H135.337V535.932H124.165V534.256H137.7V538.682ZM137.657 527.295H126.722V528.562H138.001V530.195H124.358V525.748H135.272V524.566H124.294V522.912H137.657V527.295ZM162.536 532.902H160.13V522.482H162.536V532.902ZM152.052 535.803H160.151V533.805H162.536V541.668H149.688V533.805H152.052V535.803ZM160.151 539.734V537.672H152.052V539.734H160.151ZM151.944 523.342C152.933 523.335 153.824 523.524 154.619 523.911C155.414 524.291 156.037 524.828 156.488 525.522C156.939 526.217 157.165 527.008 157.165 527.896C157.165 528.763 156.936 529.54 156.478 530.228C156.026 530.915 155.403 531.452 154.608 531.839C153.821 532.218 152.933 532.408 151.944 532.408C150.949 532.408 150.054 532.218 149.259 531.839C148.464 531.452 147.837 530.915 147.379 530.228C146.928 529.54 146.702 528.763 146.702 527.896C146.702 527.008 146.928 526.217 147.379 525.522C147.837 524.828 148.464 524.291 149.259 523.911C150.054 523.524 150.949 523.335 151.944 523.342ZM151.944 525.34C151.379 525.34 150.874 525.444 150.43 525.651C149.993 525.859 149.649 526.156 149.398 526.543C149.155 526.93 149.037 527.381 149.044 527.896C149.037 528.405 149.155 528.853 149.398 529.239C149.649 529.619 149.993 529.916 150.43 530.131C150.874 530.339 151.379 530.446 151.944 530.453C152.503 530.446 153.001 530.339 153.438 530.131C153.874 529.916 154.215 529.619 154.458 529.239C154.701 528.853 154.823 528.405 154.823 527.896C154.823 527.381 154.701 526.93 154.458 526.543C154.215 526.156 153.874 525.859 153.438 525.651C153.001 525.444 152.503 525.34 151.944 525.34ZM174.653 529.486H168.53V531.871H168.96C170.421 531.871 171.635 531.839 172.602 531.774C173.568 531.703 174.532 531.577 175.491 531.398L175.728 533.332C174.625 533.518 173.497 533.64 172.344 533.697C171.198 533.755 169.612 533.783 167.585 533.783H166.167V527.703H172.269V525.533H166.124V523.643H174.653V529.486ZM181.636 534.449H179.251V531.248H175.813V529.336H179.251V527.166H175.813V525.254H179.251V522.504H181.636V534.449ZM181.636 541.904H179.251V537.285H168.358V535.373H181.636V541.904ZM193.86 527.488H184.343V525.576H187.952V523.041H190.315V525.576H193.86V527.488ZM189.134 528.52C189.95 528.52 190.677 528.713 191.314 529.1C191.959 529.479 192.46 530.013 192.818 530.7C193.184 531.388 193.366 532.165 193.366 533.031C193.366 533.912 193.184 534.7 192.818 535.395C192.46 536.089 191.959 536.633 191.314 537.027C190.677 537.414 189.95 537.607 189.134 537.607C188.325 537.607 187.598 537.414 186.953 537.027C186.309 536.633 185.804 536.089 185.438 535.395C185.073 534.7 184.894 533.912 184.901 533.031C184.894 532.165 185.073 531.388 185.438 530.7C185.804 530.013 186.309 529.479 186.953 529.1C187.598 528.713 188.325 528.52 189.134 528.52ZM189.134 530.496C188.711 530.496 188.339 530.604 188.017 530.818C187.694 531.026 187.444 531.323 187.265 531.71C187.086 532.09 187 532.53 187.007 533.031C187 533.547 187.086 533.998 187.265 534.385C187.444 534.771 187.694 535.069 188.017 535.276C188.339 535.477 188.711 535.574 189.134 535.566C189.549 535.574 189.918 535.477 190.24 535.276C190.562 535.069 190.813 534.771 190.992 534.385C191.171 533.998 191.261 533.547 191.261 533.031C191.261 532.53 191.171 532.09 190.992 531.71C190.813 531.323 190.562 531.026 190.24 530.818C189.918 530.604 189.549 530.496 189.134 530.496ZM201.079 541.904H198.802V532.408H196.911V541.023H194.677V522.891H196.911V530.475H198.802V522.482H201.079V541.904ZM221.103 535.244H213.39V541.883H211.026V535.244H203.399V533.311H221.103V535.244ZM219.47 525.469H213.637C213.687 526.178 213.991 526.862 214.55 527.521C215.108 528.172 215.875 528.731 216.849 529.196C217.823 529.662 218.933 529.973 220.179 530.131L219.319 532C217.672 531.771 216.229 531.298 214.99 530.582C213.758 529.866 212.845 528.978 212.251 527.918C211.657 528.971 210.743 529.859 209.512 530.582C208.28 531.298 206.851 531.771 205.226 532L204.323 530.131C205.562 529.973 206.665 529.662 207.632 529.196C208.606 528.731 209.372 528.172 209.931 527.521C210.496 526.862 210.808 526.178 210.865 525.469H205.032V523.578H219.47V525.469ZM228.472 527.574C228.472 528.663 228.601 529.719 228.858 530.743C229.123 531.767 229.535 532.705 230.094 533.558C230.652 534.41 231.351 535.101 232.188 535.631L230.878 537.457C230.033 536.949 229.317 536.268 228.729 535.416C228.142 534.557 227.68 533.572 227.344 532.462C226.979 533.672 226.481 534.746 225.851 535.685C225.22 536.623 224.461 537.364 223.573 537.908L222.091 536.125C223 535.574 223.759 534.85 224.368 533.955C224.977 533.06 225.428 532.075 225.722 531.001C226.022 529.927 226.173 528.82 226.173 527.682V524.201H228.472V527.574ZM239.171 541.904H236.872V522.482H239.171V541.904ZM235.132 540.959H232.876V531.141H230.104V529.164H232.876V522.826H235.132V540.959ZM259.173 539.541H241.427V537.586H245.53V532.677C244.743 532.218 244.13 531.649 243.693 530.969C243.264 530.288 243.052 529.522 243.06 528.67C243.052 527.66 243.357 526.765 243.973 525.984C244.589 525.204 245.444 524.602 246.54 524.18C247.636 523.75 248.875 523.535 250.257 523.535C251.646 523.535 252.889 523.75 253.984 524.18C255.087 524.602 255.947 525.204 256.562 525.984C257.186 526.758 257.497 527.653 257.497 528.67C257.497 529.501 257.286 530.256 256.863 530.937C256.448 531.61 255.857 532.172 255.091 532.623V537.586H259.173V539.541ZM250.257 525.426C249.29 525.426 248.438 525.558 247.7 525.823C246.97 526.081 246.4 526.453 245.992 526.94C245.591 527.427 245.394 528.004 245.401 528.67C245.394 529.329 245.591 529.902 245.992 530.389C246.4 530.876 246.973 531.252 247.711 531.517C248.449 531.782 249.297 531.914 250.257 531.914C251.216 531.914 252.065 531.782 252.803 531.517C253.548 531.252 254.124 530.876 254.532 530.389C254.948 529.902 255.155 529.329 255.155 528.67C255.155 528.011 254.948 527.438 254.532 526.951C254.124 526.457 253.551 526.081 252.813 525.823C252.076 525.558 251.224 525.426 250.257 525.426ZM252.663 537.586V533.536C251.904 533.701 251.102 533.783 250.257 533.783C249.448 533.783 248.66 533.704 247.894 533.547V537.586H252.663Z" fill="#1A1A1A"/>
</g>
<g id="Container_3">
<g id="DestinationField">
<g id="Paragraph">
<path id="&#236;&#151;&#172;&#237;&#150;&#137;&#236;&#167;&#128;" d="M43.7871 577.754C44.3431 577.754 44.8444 577.903 45.291 578.199C45.7422 578.495 46.1068 578.917 46.3848 579.463H49.2695V576.852H50.7734V589.225H49.2695V584.549H46.4941C46.2253 585.165 45.8561 585.643 45.3867 585.985C44.9173 586.322 44.3841 586.491 43.7871 586.491C43.1673 586.491 42.6182 586.313 42.1396 585.958C41.6611 585.602 41.2874 585.094 41.0186 584.433C40.7497 583.772 40.6152 583 40.6152 582.116C40.6152 581.241 40.7497 580.475 41.0186 579.819C41.2874 579.158 41.6611 578.65 42.1396 578.294C42.6227 577.934 43.1719 577.754 43.7871 577.754ZM43.7871 579.122C43.4453 579.122 43.1445 579.242 42.8848 579.484C42.625 579.721 42.4245 580.065 42.2832 580.516C42.1419 580.963 42.0736 581.496 42.0781 582.116C42.0736 582.74 42.1419 583.278 42.2832 583.729C42.4245 584.18 42.625 584.527 42.8848 584.768C43.1445 585.005 43.4453 585.124 43.7871 585.124C44.1289 585.124 44.4274 585.005 44.6826 584.768C44.9424 584.527 45.1429 584.18 45.2842 583.729C45.43 583.278 45.5052 582.74 45.5098 582.116C45.5052 581.496 45.43 580.96 45.2842 580.509C45.1429 580.058 44.9424 579.714 44.6826 579.477C44.4274 579.24 44.1289 579.122 43.7871 579.122ZM46.8086 580.708C46.8997 581.15 46.9453 581.619 46.9453 582.116C46.9453 582.526 46.9134 582.927 46.8496 583.319H49.2695V580.708H46.8086ZM63.0781 584.618H61.6289V581.254H60.4258V584.208H59.0039V577.098H60.4258V580.024H61.6289V576.852H63.0781V584.618ZM58.5938 579.381H52.4414V578.192H54.7793V576.961H56.2832V578.192H58.5938V579.381ZM55.5312 579.887C56.0508 579.887 56.5133 579.976 56.9189 580.154C57.3245 580.332 57.6413 580.582 57.8691 580.906C58.1016 581.225 58.2201 581.596 58.2246 582.02C58.2201 582.444 58.1016 582.818 57.8691 583.141C57.6413 583.46 57.3245 583.708 56.9189 583.886C56.5133 584.064 56.0508 584.153 55.5312 584.153C55.0208 584.153 54.5628 584.064 54.1572 583.886C53.7516 583.708 53.4349 583.458 53.207 583.134C52.9837 582.811 52.8743 582.439 52.8789 582.02C52.8743 581.601 52.9837 581.229 53.207 580.906C53.4349 580.582 53.7516 580.332 54.1572 580.154C54.5628 579.976 55.0208 579.887 55.5312 579.887ZM55.5312 580.981C55.1439 580.981 54.8294 581.074 54.5879 581.261C54.3509 581.448 54.2324 581.701 54.2324 582.02C54.2324 582.339 54.3509 582.592 54.5879 582.779C54.8249 582.966 55.1393 583.059 55.5312 583.059C55.9232 583.059 56.2399 582.966 56.4814 582.779C56.723 582.592 56.8438 582.339 56.8438 582.02C56.8438 581.701 56.723 581.448 56.4814 581.261C56.2399 581.074 55.9232 580.981 55.5312 580.981ZM58.9082 584.768C59.7878 584.768 60.5443 584.855 61.1777 585.028C61.8112 585.201 62.2965 585.456 62.6338 585.793C62.971 586.126 63.1419 586.527 63.1465 586.997C63.1419 587.457 62.9688 587.851 62.627 588.179C62.2897 588.512 61.8044 588.765 61.1709 588.938C60.5374 589.111 59.7832 589.198 58.9082 589.198C58.0332 589.198 57.2767 589.111 56.6387 588.938C56.0052 588.765 55.5176 588.512 55.1758 588.179C54.8385 587.851 54.6699 587.457 54.6699 586.997C54.6699 586.527 54.8385 586.126 55.1758 585.793C55.5176 585.456 56.0052 585.201 56.6387 585.028C57.2721 584.855 58.0286 584.768 58.9082 584.768ZM58.9082 585.93C58.0195 585.921 57.3428 586.008 56.8779 586.19C56.4176 586.368 56.1875 586.637 56.1875 586.997C56.1875 587.338 56.4199 587.598 56.8848 587.776C57.3496 587.949 58.0241 588.036 58.9082 588.036C59.7878 588.036 60.4577 587.949 60.918 587.776C61.3828 587.598 61.6152 587.338 61.6152 586.997C61.6152 586.637 61.3828 586.368 60.918 586.19C60.4577 586.008 59.7878 585.921 58.9082 585.93ZM69.2715 580.366C69.2715 581.045 69.3991 581.717 69.6543 582.382C69.9141 583.043 70.2832 583.638 70.7617 584.167C71.2448 584.691 71.8099 585.087 72.457 585.356L71.623 586.559C70.9076 586.254 70.2855 585.796 69.7568 585.185C69.2282 584.574 68.818 583.866 68.5264 583.059C68.2347 583.925 67.8223 584.693 67.2891 585.363C66.7604 586.028 66.1406 586.527 65.4297 586.86L64.5547 585.67C65.1882 585.379 65.7441 584.95 66.2227 584.385C66.7057 583.82 67.0771 583.187 67.3369 582.485C67.5967 581.778 67.7266 581.072 67.7266 580.366V579.327H65.0059V578.069H71.9785V579.327H69.2715V580.366ZM74.8906 589.211H73.3594V576.852H74.8906V589.211Z" fill="#4A4A4A"/>
</g>
<g id="Container_4" filter="url(#filter0_dd_121_5401)">
<path d="M40 619.992C40 611.155 47.1634 603.992 56 603.992H369.342C378.178 603.992 385.342 611.155 385.342 619.992V642.965C385.342 651.802 378.178 658.965 369.342 658.965H56C47.1635 658.965 40 651.802 40 642.965V619.992Z" fill="#FAFAF7"/>
<path d="M56 604.492H369.342C377.902 604.492 384.842 611.431 384.842 619.992V642.965C384.842 651.526 377.902 658.465 369.342 658.465H56C47.4396 658.465 40.5 651.526 40.5 642.965V619.992C40.5 611.431 47.4396 604.492 56 604.492Z" stroke="#E2DDD5"/>
<g id="Text Input">
<path id="&#236;&#151;&#172;&#237;&#150;&#137;&#236;&#167;&#128;&#235;&#165;&#188; &#236;&#158;&#133;&#235;&#160;&#165;&#237;&#149;&#152;&#236;&#132;&#184;&#236;&#154;&#148;" d="M63.5488 625.507C64.1445 625.507 64.6816 625.666 65.1602 625.983C65.6436 626.301 66.0342 626.752 66.332 627.338H69.4229V624.54H71.0342V637.797H69.4229V632.787H66.4492C66.1611 633.447 65.7656 633.959 65.2627 634.325C64.7598 634.687 64.1885 634.867 63.5488 634.867C62.8848 634.867 62.2964 634.677 61.7837 634.296C61.271 633.915 60.8706 633.371 60.5825 632.663C60.2944 631.955 60.1504 631.127 60.1504 630.18C60.1504 629.242 60.2944 628.422 60.5825 627.719C60.8706 627.011 61.271 626.467 61.7837 626.086C62.3013 625.7 62.8896 625.507 63.5488 625.507ZM63.5488 626.972C63.1826 626.972 62.8604 627.101 62.582 627.36C62.3037 627.614 62.0889 627.983 61.9375 628.466C61.7861 628.945 61.7129 629.516 61.7178 630.18C61.7129 630.849 61.7861 631.425 61.9375 631.908C62.0889 632.392 62.3037 632.763 62.582 633.022C62.8604 633.276 63.1826 633.403 63.5488 633.403C63.915 633.403 64.2349 633.276 64.5083 633.022C64.7866 632.763 65.0015 632.392 65.1528 631.908C65.3091 631.425 65.3896 630.849 65.3945 630.18C65.3896 629.516 65.3091 628.942 65.1528 628.459C65.0015 627.975 64.7866 627.607 64.5083 627.353C64.2349 627.099 63.915 626.972 63.5488 626.972ZM66.7861 628.671C66.8838 629.145 66.9326 629.648 66.9326 630.18C66.9326 630.619 66.8984 631.049 66.8301 631.469H69.4229V628.671H66.7861ZM84.2178 632.861H82.665V629.257H81.376V632.421H79.8525V624.804H81.376V627.939H82.665V624.54H84.2178V632.861ZM79.4131 627.25H72.8213V625.976H75.3262V624.657H76.9375V625.976H79.4131V627.25ZM76.1318 627.792C76.6885 627.792 77.1841 627.887 77.6187 628.078C78.0532 628.268 78.3926 628.537 78.6367 628.884C78.8857 629.225 79.0127 629.623 79.0176 630.077C79.0127 630.531 78.8857 630.932 78.6367 631.279C78.3926 631.62 78.0532 631.886 77.6187 632.077C77.1841 632.267 76.6885 632.363 76.1318 632.363C75.585 632.363 75.0942 632.267 74.6597 632.077C74.2251 631.886 73.8857 631.618 73.6416 631.271C73.4023 630.925 73.2852 630.527 73.29 630.077C73.2852 629.628 73.4023 629.23 73.6416 628.884C73.8857 628.537 74.2251 628.268 74.6597 628.078C75.0942 627.887 75.585 627.792 76.1318 627.792ZM76.1318 628.964C75.7168 628.964 75.3799 629.064 75.1211 629.264C74.8672 629.465 74.7402 629.736 74.7402 630.077C74.7402 630.419 74.8672 630.69 75.1211 630.89C75.375 631.091 75.7119 631.191 76.1318 631.191C76.5518 631.191 76.8911 631.091 77.1499 630.89C77.4087 630.69 77.5381 630.419 77.5381 630.077C77.5381 629.736 77.4087 629.465 77.1499 629.264C76.8911 629.064 76.5518 628.964 76.1318 628.964ZM79.75 633.022C80.6924 633.022 81.5029 633.115 82.1816 633.3C82.8604 633.486 83.3804 633.759 83.7417 634.12C84.103 634.477 84.2861 634.906 84.291 635.409C84.2861 635.903 84.1006 636.325 83.7344 636.677C83.373 637.033 82.853 637.304 82.1743 637.49C81.4956 637.675 80.6875 637.768 79.75 637.768C78.8125 637.768 78.002 637.675 77.3184 637.49C76.6396 637.304 76.1172 637.033 75.751 636.677C75.3896 636.325 75.209 635.903 75.209 635.409C75.209 634.906 75.3896 634.477 75.751 634.12C76.1172 633.759 76.6396 633.486 77.3184 633.3C77.9971 633.115 78.8076 633.022 79.75 633.022ZM79.75 634.267C78.7979 634.257 78.0728 634.35 77.5747 634.545C77.0815 634.736 76.835 635.024 76.835 635.409C76.835 635.776 77.084 636.054 77.582 636.244C78.0801 636.43 78.8027 636.523 79.75 636.523C80.6924 636.523 81.4102 636.43 81.9033 636.244C82.4014 636.054 82.6504 635.776 82.6504 635.409C82.6504 635.024 82.4014 634.736 81.9033 634.545C81.4102 634.35 80.6924 634.257 79.75 634.267ZM90.8535 628.305C90.8535 629.032 90.9902 629.753 91.2637 630.466C91.542 631.174 91.9375 631.811 92.4502 632.377C92.9678 632.939 93.5732 633.364 94.2666 633.652L93.373 634.941C92.6064 634.614 91.9399 634.123 91.3735 633.469C90.8071 632.814 90.3677 632.055 90.0552 631.191C89.7427 632.118 89.3008 632.941 88.7295 633.659C88.1631 634.372 87.499 634.906 86.7373 635.263L85.7998 633.989C86.4785 633.676 87.0742 633.217 87.5869 632.612C88.1045 632.006 88.5024 631.327 88.7808 630.575C89.0591 629.819 89.1982 629.062 89.1982 628.305V627.192H86.2832V625.844H93.7539V627.192H90.8535V628.305ZM96.874 637.782H95.2334V624.54H96.874V637.782ZM110.907 631.777H98.8076V630.546H110.907V631.777ZM109.442 635.585H101.854V636.508H109.838V637.636H100.229V634.531H107.831V633.71H100.214V632.568H109.442V635.585ZM109.413 627.822H101.957V628.686H109.647V629.799H100.346V626.767H107.787V625.961H100.302V624.833H109.413V627.822ZM126.376 631.645H124.735V624.54H126.376V631.645ZM119.228 633.622H124.75V632.26H126.376V637.621H117.616V632.26H119.228V633.622ZM124.75 636.303V634.897H119.228V636.303H124.75ZM119.154 625.126C119.828 625.121 120.436 625.251 120.978 625.514C121.52 625.773 121.945 626.139 122.252 626.613C122.56 627.087 122.714 627.626 122.714 628.232C122.714 628.823 122.558 629.352 122.245 629.821C121.938 630.29 121.513 630.656 120.971 630.92C120.434 631.178 119.828 631.308 119.154 631.308C118.476 631.308 117.865 631.178 117.323 630.92C116.781 630.656 116.354 630.29 116.042 629.821C115.734 629.352 115.58 628.823 115.58 628.232C115.58 627.626 115.734 627.087 116.042 626.613C116.354 626.139 116.781 625.773 117.323 625.514C117.865 625.251 118.476 625.121 119.154 625.126ZM119.154 626.489C118.769 626.489 118.424 626.559 118.122 626.701C117.824 626.843 117.589 627.045 117.418 627.309C117.252 627.573 117.172 627.88 117.177 628.232C117.172 628.578 117.252 628.884 117.418 629.147C117.589 629.406 117.824 629.609 118.122 629.755C118.424 629.897 118.769 629.97 119.154 629.975C119.535 629.97 119.875 629.897 120.172 629.755C120.47 629.609 120.702 629.406 120.868 629.147C121.034 628.884 121.117 628.578 121.117 628.232C121.117 627.88 121.034 627.573 120.868 627.309C120.702 627.045 120.47 626.843 120.172 626.701C119.875 626.559 119.535 626.489 119.154 626.489ZM134.638 629.316H130.463V630.942H130.756C131.752 630.942 132.58 630.92 133.239 630.876C133.898 630.827 134.555 630.741 135.209 630.619L135.37 631.938C134.618 632.065 133.849 632.148 133.063 632.187C132.282 632.226 131.2 632.245 129.818 632.245H128.852V628.1H133.012V626.62H128.822V625.331H134.638V629.316ZM139.398 632.699H137.772V630.517H135.429V629.213H137.772V627.734H135.429V626.43H137.772V624.555H139.398V632.699ZM139.398 637.782H137.772V634.633H130.346V633.329H139.398V637.782ZM151.645 629.814H153.681V631.161H151.645V637.782H150.033V624.54H151.645V629.814ZM149.008 627.88H141.2V626.576H144.335V624.731H145.961V626.576H149.008V627.88ZM145.155 628.744C145.785 628.744 146.352 628.879 146.854 629.147C147.362 629.411 147.76 629.78 148.048 630.253C148.336 630.727 148.48 631.264 148.48 631.865C148.48 632.465 148.336 633.002 148.048 633.476C147.76 633.945 147.362 634.311 146.854 634.574C146.352 634.838 145.785 634.97 145.155 634.97C144.516 634.97 143.942 634.838 143.434 634.574C142.926 634.311 142.528 633.945 142.24 633.476C141.952 633.002 141.811 632.465 141.815 631.865C141.811 631.264 141.952 630.727 142.24 630.253C142.528 629.78 142.926 629.411 143.434 629.147C143.942 628.879 144.516 628.744 145.155 628.744ZM145.155 630.077C144.809 630.077 144.499 630.151 144.225 630.297C143.957 630.444 143.747 630.654 143.595 630.927C143.444 631.196 143.368 631.508 143.368 631.865C143.368 632.221 143.444 632.533 143.595 632.802C143.747 633.066 143.957 633.271 144.225 633.417C144.499 633.559 144.809 633.627 145.155 633.622C145.492 633.627 145.792 633.559 146.056 633.417C146.325 633.271 146.535 633.066 146.686 632.802C146.842 632.533 146.923 632.221 146.928 631.865C146.923 631.508 146.842 631.196 146.686 630.927C146.535 630.658 146.325 630.451 146.056 630.304C145.792 630.153 145.492 630.077 145.155 630.077ZM158.368 628.012C158.368 628.754 158.456 629.474 158.632 630.173C158.812 630.871 159.093 631.51 159.474 632.092C159.855 632.673 160.331 633.144 160.902 633.505L160.009 634.75C159.433 634.404 158.944 633.94 158.544 633.359C158.144 632.773 157.829 632.101 157.599 631.344C157.35 632.17 157.011 632.902 156.581 633.542C156.151 634.181 155.634 634.687 155.028 635.058L154.018 633.842C154.638 633.466 155.155 632.973 155.57 632.363C155.985 631.752 156.293 631.081 156.493 630.348C156.698 629.616 156.801 628.862 156.801 628.085V625.712H158.368V628.012ZM165.663 637.782H164.096V624.54H165.663V637.782ZM162.909 637.138H161.371V630.444H159.481V629.096H161.371V624.775H162.909V637.138ZM179.301 636.171H167.201V634.838H169.999V631.491C169.462 631.178 169.044 630.79 168.747 630.326C168.454 629.863 168.31 629.34 168.314 628.759C168.31 628.071 168.517 627.46 168.937 626.928C169.357 626.396 169.94 625.986 170.688 625.698C171.435 625.405 172.279 625.258 173.222 625.258C174.169 625.258 175.016 625.405 175.763 625.698C176.515 625.986 177.101 626.396 177.521 626.928C177.946 627.455 178.158 628.066 178.158 628.759C178.158 629.325 178.014 629.841 177.726 630.304C177.443 630.763 177.04 631.147 176.518 631.454V634.838H179.301V636.171ZM173.222 626.547C172.562 626.547 171.981 626.637 171.479 626.818C170.98 626.994 170.592 627.248 170.314 627.58C170.041 627.912 169.906 628.305 169.911 628.759C169.906 629.208 170.041 629.599 170.314 629.931C170.592 630.263 170.983 630.519 171.486 630.7C171.989 630.881 172.567 630.971 173.222 630.971C173.876 630.971 174.455 630.881 174.958 630.7C175.465 630.519 175.858 630.263 176.137 629.931C176.42 629.599 176.562 629.208 176.562 628.759C176.562 628.31 176.42 627.919 176.137 627.587C175.858 627.25 175.468 626.994 174.965 626.818C174.462 626.637 173.881 626.547 173.222 626.547ZM174.862 634.838V632.077C174.345 632.189 173.798 632.245 173.222 632.245C172.67 632.245 172.133 632.192 171.61 632.084V634.838H174.862Z" fill="#888882"/>
</g>
<g id="Icon_2">
<path id="Vector_4" d="M355.02 637.31C358.701 637.31 361.685 634.326 361.685 630.645C361.685 626.964 358.701 623.98 355.02 623.98C351.339 623.98 348.355 626.964 348.355 630.645C348.355 634.326 351.339 637.31 355.02 637.31Z" stroke="#888882" stroke-width="1.66623" stroke-linecap="round" stroke-linejoin="round"/>
<path id="Vector_5" d="M363.351 638.977L359.769 635.394" stroke="#888882" stroke-width="1.66623" stroke-linecap="round" stroke-linejoin="round"/>
</g>
</g>
</g>
<g id="DateField">
<g id="Paragraph_2">
<path id="&#235;&#130;&#160;&#236;&#167;&#156;" d="M50.1582 690.226H51.8809V691.484H50.1582V693.972H48.6406V687.82H50.1582V690.226ZM42.4746 692.27C44.2428 692.247 45.9245 692.081 47.5195 691.771L47.6973 693.015C46.7767 693.202 45.8698 693.336 44.9766 693.418C44.0833 693.496 43.1764 693.534 42.2559 693.534H41.9688H40.9434V688.366H42.4746V692.27ZM50.1582 697.786H43.6094V698.798H50.541V700.029H42.0918V696.624H48.627V695.708H42.0781V694.505H50.1582V697.786ZM62.5586 692.564H64.0625V693.835H62.5586V700.179H61.041V687.82H62.5586V692.564ZM55.5312 691.128C55.5312 692.003 55.6042 692.828 55.75 693.603C55.8958 694.378 56.1693 695.061 56.5703 695.654C56.9622 695.066 57.2311 694.384 57.377 693.61C57.5228 692.83 57.5957 692.003 57.5957 691.128V690.185H56.8027V688.954H60.248V690.185H59.0449V691.128C59.0449 692.309 59.1771 693.364 59.4414 694.293C59.7057 695.223 60.1888 695.945 60.8906 696.46L59.9199 697.554C59.1589 696.971 58.6165 696.043 58.293 694.772C57.9557 696.098 57.377 697.062 56.5566 697.663C55.7546 697.066 55.1826 696.102 54.8408 694.772C54.5127 696.043 53.9727 696.971 53.2207 697.554L52.25 696.46C52.9518 695.941 53.4349 695.214 53.6992 694.28C53.9635 693.341 54.0957 692.29 54.0957 691.128V690.185H52.7148V688.954H56.3242V690.185H55.5312V691.128Z" fill="#4A4A4A"/>
</g>
<g id="Button_2" filter="url(#filter1_dd_121_5401)">
<path d="M40 730.959C40 722.123 47.1634 714.959 56 714.959H369.342C378.178 714.959 385.342 722.123 385.342 730.959V753.933C385.342 762.77 378.178 769.933 369.342 769.933H56C47.1635 769.933 40 762.77 40 753.933V730.959Z" fill="#FAFAF7"/>
<path d="M56 715.459H369.342C377.902 715.459 384.842 722.399 384.842 730.959V753.933C384.842 762.493 377.902 769.433 369.342 769.433H56C47.4396 769.433 40.5 762.493 40.5 753.933V730.959C40.5 722.399 47.4396 715.459 56 715.459Z" stroke="#E2DDD5"/>
<g id="Paragraph_3">
<path id="&#235;&#130;&#160;&#236;&#167;&#156;&#235;&#165;&#188; &#236;&#132;&#160;&#237;&#131;&#157;&#237;&#149;&#152;&#236;&#132;&#184;&#236;&#154;&#148;" d="M67.8838 738.083H69.7295V739.431H67.8838V742.097H66.2578V735.505H67.8838V738.083ZM59.6514 740.273C61.5459 740.249 63.3477 740.071 65.0566 739.739L65.2471 741.072C64.2607 741.272 63.2891 741.416 62.332 741.504C61.375 741.587 60.4033 741.628 59.417 741.628H59.1094H58.0107V736.091H59.6514V740.273ZM67.8838 746.184H60.8672V747.268H68.2939V748.586H59.2412V744.939H66.2432V743.958H59.2266V742.668H67.8838V746.184ZM81.1699 740.588H82.7812V741.951H81.1699V748.748H79.5439V735.505H81.1699V740.588ZM73.6406 739.05C73.6406 739.988 73.7188 740.872 73.875 741.702C74.0312 742.532 74.3242 743.264 74.7539 743.899C75.1738 743.269 75.4619 742.539 75.6182 741.709C75.7744 740.874 75.8525 739.988 75.8525 739.05V738.04H75.0029V736.721H78.6943V738.04H77.4053V739.05C77.4053 740.315 77.5469 741.445 77.8301 742.441C78.1133 743.438 78.6309 744.211 79.3828 744.763L78.3428 745.935C77.5273 745.31 76.9463 744.316 76.5996 742.954C76.2383 744.375 75.6182 745.408 74.7393 746.052C73.8799 745.413 73.2671 744.38 72.9009 742.954C72.5493 744.316 71.9707 745.31 71.165 745.935L70.125 744.763C70.877 744.207 71.3945 743.428 71.6777 742.427C71.9609 741.421 72.1025 740.295 72.1025 739.05V738.04H70.623V736.721H74.4902V738.04H73.6406V739.05ZM95.4521 742.742H83.3525V741.511H95.4521V742.742ZM93.9873 746.55H86.3994V747.473H94.3828V748.601H84.7734V745.496H92.376V744.675H84.7588V743.533H93.9873V746.55ZM93.958 738.787H86.502V739.651H94.1924V740.764H84.8906V737.732H92.332V736.926H84.8467V735.798H93.958V738.787ZM104.71 737.849C104.71 738.445 104.827 739.019 105.062 739.57C105.301 740.122 105.652 740.613 106.116 741.042C106.585 741.467 107.151 741.794 107.815 742.024L106.922 743.298C106.219 743.03 105.611 742.649 105.098 742.156C104.59 741.663 104.195 741.086 103.912 740.427C103.619 741.169 103.201 741.814 102.659 742.361C102.122 742.908 101.473 743.323 100.711 743.606L99.8467 742.317C100.535 742.083 101.119 741.738 101.597 741.284C102.081 740.83 102.444 740.305 102.688 739.709C102.938 739.114 103.064 738.489 103.069 737.834V736.326H104.71V737.849ZM110.979 745.349H109.354V739.768H106.717V738.435H109.354V735.52H110.979V745.349ZM111.272 748.484H102.249V744.28H103.904V747.166H111.272V748.484ZM118.553 737.732H114.92V739.021H118.421V740.266H114.92V741.658C115.774 741.648 116.504 741.621 117.11 741.577C117.72 741.533 118.333 741.453 118.948 741.335L119.124 742.654C118.396 742.791 117.679 742.881 116.971 742.925C116.268 742.969 115.354 742.991 114.231 742.991H113.353V736.428H118.553V737.732ZM124.178 743.577H122.625V740.134H121.248V743.474H119.725V735.769H121.248V738.831H122.625V735.52H124.178V743.577ZM124.178 748.748H122.552V745.481H115.11V744.163H124.178V748.748ZM136.189 740.779H138.226V742.126H136.189V748.748H134.578V735.505H136.189V740.779ZM133.553 738.845H125.745V737.542H128.88V735.696H130.506V737.542H133.553V738.845ZM129.7 739.709C130.33 739.709 130.896 739.844 131.399 740.112C131.907 740.376 132.305 740.745 132.593 741.218C132.881 741.692 133.025 742.229 133.025 742.83C133.025 743.43 132.881 743.967 132.593 744.441C132.305 744.91 131.907 745.276 131.399 745.54C130.896 745.803 130.33 745.935 129.7 745.935C129.061 745.935 128.487 745.803 127.979 745.54C127.471 745.276 127.073 744.91 126.785 744.441C126.497 743.967 126.355 743.43 126.36 742.83C126.355 742.229 126.497 741.692 126.785 741.218C127.073 740.745 127.471 740.376 127.979 740.112C128.487 739.844 129.061 739.709 129.7 739.709ZM129.7 741.042C129.354 741.042 129.043 741.116 128.77 741.262C128.501 741.409 128.292 741.619 128.14 741.892C127.989 742.161 127.913 742.473 127.913 742.83C127.913 743.186 127.989 743.499 128.14 743.767C128.292 744.031 128.501 744.236 128.77 744.382C129.043 744.524 129.354 744.592 129.7 744.587C130.037 744.592 130.337 744.524 130.601 744.382C130.87 744.236 131.08 744.031 131.231 743.767C131.387 743.499 131.468 743.186 131.473 742.83C131.468 742.473 131.387 742.161 131.231 741.892C131.08 741.624 130.87 741.416 130.601 741.27C130.337 741.118 130.037 741.042 129.7 741.042ZM142.913 738.977C142.913 739.719 143.001 740.439 143.177 741.138C143.357 741.836 143.638 742.476 144.019 743.057C144.4 743.638 144.876 744.109 145.447 744.47L144.554 745.715C143.978 745.369 143.489 744.905 143.089 744.324C142.688 743.738 142.374 743.066 142.144 742.31C141.895 743.135 141.556 743.867 141.126 744.507C140.696 745.146 140.179 745.652 139.573 746.023L138.562 744.807C139.183 744.431 139.7 743.938 140.115 743.328C140.53 742.717 140.838 742.046 141.038 741.313C141.243 740.581 141.346 739.827 141.346 739.05V736.677H142.913V738.977ZM150.208 748.748H148.641V735.505H150.208V748.748ZM147.454 748.103H145.916V741.409H144.026V740.061H145.916V735.74H147.454V748.103ZM163.846 747.136H151.746V745.803H154.544V742.456C154.007 742.144 153.589 741.755 153.292 741.292C152.999 740.828 152.854 740.305 152.859 739.724C152.854 739.036 153.062 738.425 153.482 737.893C153.902 737.361 154.485 736.951 155.232 736.663C155.979 736.37 156.824 736.223 157.767 736.223C158.714 736.223 159.561 736.37 160.308 736.663C161.06 736.951 161.646 737.361 162.066 737.893C162.491 738.42 162.703 739.031 162.703 739.724C162.703 740.291 162.559 740.806 162.271 741.27C161.988 741.729 161.585 742.112 161.062 742.419V745.803H163.846V747.136ZM157.767 737.512C157.107 737.512 156.526 737.603 156.023 737.783C155.525 737.959 155.137 738.213 154.859 738.545C154.585 738.877 154.451 739.27 154.456 739.724C154.451 740.173 154.585 740.564 154.859 740.896C155.137 741.228 155.528 741.484 156.031 741.665C156.534 741.846 157.112 741.936 157.767 741.936C158.421 741.936 159 741.846 159.502 741.665C160.01 741.484 160.403 741.228 160.682 740.896C160.965 740.564 161.106 740.173 161.106 739.724C161.106 739.275 160.965 738.884 160.682 738.552C160.403 738.215 160.013 737.959 159.51 737.783C159.007 737.603 158.426 737.512 157.767 737.512ZM159.407 745.803V743.042C158.89 743.154 158.343 743.21 157.767 743.21C157.215 743.21 156.678 743.157 156.155 743.049V745.803H159.407Z" fill="#888882"/>
</g>
<g id="Icon_3">
<path id="Vector_6" d="M355.012 734.115V737.447" stroke="#888882" stroke-width="1.66623" stroke-linecap="round" stroke-linejoin="round"/>
<path id="Vector_7" d="M361.677 734.115V737.447" stroke="#888882" stroke-width="1.66623" stroke-linecap="round" stroke-linejoin="round"/>
<path id="Vector_8" d="M364.176 735.781H352.513C351.593 735.781 350.847 736.527 350.847 737.447V749.111C350.847 750.031 351.593 750.777 352.513 750.777H364.176C365.097 750.777 365.843 750.031 365.843 749.111V737.447C365.843 736.527 365.097 735.781 364.176 735.781Z" stroke="#888882" stroke-width="1.66623" stroke-linecap="round" stroke-linejoin="round"/>
<path id="Vector_9" d="M350.847 740.78H365.843" stroke="#888882" stroke-width="1.66623" stroke-linecap="round" stroke-linejoin="round"/>
</g>
</g>
</g>
<g id="GuestsField">
<g id="Paragraph_4">
<path id="&#236;&#157;&#184;&#236;&#155;&#144;" d="M50.7051 807.729H49.1738V798.801H50.7051V807.729ZM51.0469 810.901H42.5293V806.826H44.0605V809.67H51.0469V810.901ZM43.9648 799.608C44.5846 799.608 45.1475 799.742 45.6533 800.011C46.1592 800.275 46.5579 800.642 46.8496 801.112C47.1413 801.581 47.2871 802.11 47.2871 802.698C47.2871 803.295 47.1413 803.83 46.8496 804.304C46.5579 804.773 46.1592 805.14 45.6533 805.405C45.1475 805.669 44.5846 805.801 43.9648 805.801C43.3405 805.801 42.7731 805.669 42.2627 805.405C41.7568 805.14 41.3581 804.773 41.0664 804.304C40.7747 803.83 40.6289 803.295 40.6289 802.698C40.6289 802.11 40.7747 801.581 41.0664 801.112C41.3581 800.642 41.7568 800.275 42.2627 800.011C42.7731 799.742 43.3405 799.608 43.9648 799.608ZM43.9648 800.934C43.6139 800.934 43.2972 801.007 43.0146 801.153C42.7321 801.298 42.5111 801.506 42.3516 801.775C42.1921 802.044 42.1146 802.351 42.1191 802.698C42.1146 803.053 42.1921 803.365 42.3516 803.634C42.5111 803.903 42.7321 804.11 43.0146 804.256C43.2972 804.402 43.6139 804.475 43.9648 804.475C44.3066 804.475 44.6165 804.402 44.8945 804.256C45.1725 804.11 45.3913 803.903 45.5508 803.634C45.7148 803.365 45.7969 803.053 45.7969 802.698C45.7969 802.351 45.7148 802.044 45.5508 801.775C45.3913 801.506 45.1725 801.298 44.8945 801.153C44.6165 801.007 44.3066 800.934 43.9648 800.934ZM62.873 808.153H61.3418V807.073H58.9219V806.006H61.3418V798.801H62.873V808.153ZM63.1602 810.901H54.0957V807.25H55.6133V809.67H63.1602V810.901ZM52.4551 804.352C54.0592 804.343 55.4993 804.315 56.7754 804.27C58.0514 804.224 59.2682 804.128 60.4258 803.983L60.5078 805.076C59.5189 805.24 58.4798 805.359 57.3906 805.432V807.811H55.873V805.514C54.9935 805.55 53.918 805.569 52.6465 805.569L52.4551 804.352ZM56.4883 799.252C57.0853 799.252 57.6139 799.346 58.0742 799.532C58.5391 799.715 58.9014 799.972 59.1611 800.305C59.4255 800.633 59.5599 801.011 59.5645 801.44C59.5599 801.877 59.4277 802.26 59.168 802.588C58.9082 802.916 58.5459 803.169 58.0811 803.347C57.6162 803.525 57.0853 803.614 56.4883 803.614C55.8822 803.614 55.3444 803.525 54.875 803.347C54.4102 803.169 54.0479 802.916 53.7881 802.588C53.5283 802.26 53.3984 801.877 53.3984 801.44C53.3984 801.011 53.5283 800.633 53.7881 800.305C54.0479 799.972 54.4102 799.715 54.875 799.532C55.3444 799.346 55.8822 799.252 56.4883 799.252ZM56.4883 800.373C55.9915 800.373 55.5905 800.469 55.2852 800.66C54.9844 800.847 54.834 801.107 54.834 801.44C54.834 801.772 54.9844 802.034 55.2852 802.226C55.5905 802.413 55.9915 802.506 56.4883 802.506C56.9668 802.506 57.3564 802.41 57.6572 802.219C57.958 802.028 58.1107 801.768 58.1152 801.44C58.1107 801.112 57.958 800.852 57.6572 800.66C57.3564 800.469 56.9668 800.373 56.4883 800.373Z" fill="#4A4A4A"/>
</g>
<g id="Button_3" filter="url(#filter2_dd_121_5401)">
<path d="M40 841.927C40 833.09 47.1634 825.927 56 825.927H369.342C378.178 825.927 385.342 833.09 385.342 841.927V864.901C385.342 873.737 378.178 880.901 369.342 880.901H56C47.1635 880.901 40 873.737 40 864.901V841.927Z" fill="#FAFAF7"/>
<path d="M56 826.427H369.342C377.902 826.427 384.842 833.367 384.842 841.927V864.901C384.842 873.461 377.902 880.401 369.342 880.401H56C47.4396 880.401 40.5 873.461 40.5 864.901V841.927C40.5 833.367 47.4396 826.427 56 826.427Z" stroke="#E2DDD5"/>
<g id="Paragraph_5">
<path id="&#236;&#157;&#184;&#236;&#155;&#144;&#236;&#157;&#132; &#236;&#132;&#160;&#237;&#131;&#157;&#237;&#149;&#152;&#236;&#132;&#184;&#236;&#154;&#148;" d="M68.4697 856.053H66.8291V846.488H68.4697V856.053ZM68.8359 859.452H59.71V855.086H61.3506V858.133H68.8359V859.452ZM61.248 847.352C61.9121 847.352 62.5151 847.496 63.0571 847.784C63.5991 848.067 64.0264 848.46 64.3389 848.963C64.6514 849.466 64.8076 850.033 64.8076 850.663C64.8076 851.302 64.6514 851.876 64.3389 852.384C64.0264 852.887 63.5991 853.28 63.0571 853.563C62.5151 853.846 61.9121 853.988 61.248 853.988C60.5791 853.988 59.9712 853.846 59.4243 853.563C58.8823 853.28 58.4551 852.887 58.1426 852.384C57.8301 851.876 57.6738 851.302 57.6738 850.663C57.6738 850.033 57.8301 849.466 58.1426 848.963C58.4551 848.46 58.8823 848.067 59.4243 847.784C59.9712 847.496 60.5791 847.352 61.248 847.352ZM61.248 848.773C60.8721 848.773 60.5327 848.851 60.23 849.007C59.9272 849.164 59.6904 849.386 59.5195 849.674C59.3486 849.962 59.2656 850.292 59.2705 850.663C59.2656 851.043 59.3486 851.378 59.5195 851.666C59.6904 851.954 59.9272 852.176 60.23 852.333C60.5327 852.489 60.8721 852.567 61.248 852.567C61.6143 852.567 61.9463 852.489 62.2441 852.333C62.542 852.176 62.7764 851.954 62.9473 851.666C63.123 851.378 63.2109 851.043 63.2109 850.663C63.2109 850.292 63.123 849.962 62.9473 849.674C62.7764 849.386 62.542 849.164 62.2441 849.007C61.9463 848.851 61.6143 848.773 61.248 848.773ZM81.5068 856.507H79.8662V855.35H77.2734V854.208H79.8662V846.488H81.5068V856.507ZM81.8145 859.452H72.1025V855.541H73.7285V858.133H81.8145V859.452ZM70.3447 852.435C72.0635 852.425 73.6064 852.396 74.9736 852.347C76.3408 852.298 77.6445 852.196 78.8848 852.04L78.9727 853.211C77.9131 853.387 76.7998 853.514 75.6328 853.592V856.141H74.0068V853.68C73.0645 853.719 71.9121 853.739 70.5498 853.739L70.3447 852.435ZM74.666 846.971C75.3057 846.971 75.8721 847.071 76.3652 847.271C76.8633 847.467 77.2515 847.743 77.5298 848.099C77.813 848.451 77.957 848.856 77.9619 849.315C77.957 849.784 77.8154 850.194 77.5371 850.545C77.2588 850.897 76.8706 851.168 76.3726 851.358C75.8745 851.549 75.3057 851.644 74.666 851.644C74.0166 851.644 73.4404 851.549 72.9375 851.358C72.4395 851.168 72.0513 850.897 71.7729 850.545C71.4946 850.194 71.3555 849.784 71.3555 849.315C71.3555 848.856 71.4946 848.451 71.7729 848.099C72.0513 847.743 72.4395 847.467 72.9375 847.271C73.4404 847.071 74.0166 846.971 74.666 846.971ZM74.666 848.172C74.1338 848.172 73.7041 848.275 73.377 848.48C73.0547 848.68 72.8936 848.958 72.8936 849.315C72.8936 849.671 73.0547 849.952 73.377 850.157C73.7041 850.357 74.1338 850.458 74.666 850.458C75.1787 850.458 75.5962 850.355 75.9185 850.15C76.2407 849.945 76.4043 849.667 76.4092 849.315C76.4043 848.963 76.2407 848.685 75.9185 848.48C75.5962 848.275 75.1787 848.172 74.666 848.172ZM89.3877 846.678C90.3936 846.678 91.2505 846.766 91.9585 846.942C92.6714 847.118 93.2158 847.376 93.5918 847.718C93.9678 848.055 94.1582 848.465 94.1631 848.949C94.1582 849.681 93.7407 850.243 92.9106 850.633C92.0806 851.024 90.9062 851.224 89.3877 851.234C87.8643 851.224 86.6875 851.024 85.8574 850.633C85.0273 850.243 84.6123 849.681 84.6123 848.949C84.6123 848.465 84.8003 848.055 85.1763 847.718C85.5522 847.376 86.0967 847.118 86.8096 846.942C87.5225 846.766 88.3818 846.678 89.3877 846.678ZM89.3877 847.879C88.3818 847.879 87.6177 847.972 87.0952 848.158C86.5728 848.338 86.3164 848.602 86.3262 848.949C86.3213 849.31 86.5752 849.579 87.0879 849.754C87.6006 849.93 88.3672 850.018 89.3877 850.018C90.4229 850.018 91.1968 849.93 91.7095 849.754C92.2222 849.579 92.4785 849.31 92.4785 848.949C92.4785 848.602 92.2173 848.338 91.6948 848.158C91.1724 847.972 90.4033 847.879 89.3877 847.879ZM95.4375 853.241H83.3672V851.937H95.4375V853.241ZM93.9287 857.372H86.3994V858.353H94.2949V859.598H84.8027V856.214H92.332V855.335H84.7881V854.134H93.9287V857.372ZM104.71 848.817C104.71 849.413 104.827 849.986 105.062 850.538C105.301 851.09 105.652 851.581 106.116 852.01C106.585 852.435 107.151 852.762 107.815 852.992L106.922 854.266C106.219 853.998 105.611 853.617 105.098 853.124C104.59 852.63 104.195 852.054 103.912 851.395C103.619 852.137 103.201 852.782 102.659 853.329C102.122 853.875 101.473 854.291 100.711 854.574L99.8467 853.285C100.535 853.05 101.119 852.706 101.597 852.252C102.081 851.798 102.444 851.273 102.688 850.677C102.938 850.082 103.064 849.457 103.069 848.802V847.293H104.71V848.817ZM110.979 856.317H109.354V850.736H106.717V849.403H109.354V846.488H110.979V856.317ZM111.272 859.452H102.249V855.248H103.904V858.133H111.272V859.452ZM118.553 848.7H114.92V849.989H118.421V851.234H114.92V852.625C115.774 852.616 116.504 852.589 117.11 852.545C117.72 852.501 118.333 852.42 118.948 852.303L119.124 853.622C118.396 853.758 117.679 853.849 116.971 853.893C116.268 853.937 115.354 853.958 114.231 853.958H113.353V847.396H118.553V848.7ZM124.178 854.544H122.625V851.102H121.248V854.442H119.725V846.737H121.248V849.798H122.625V846.488H124.178V854.544ZM124.178 859.715H122.552V856.449H115.11V855.13H124.178V859.715ZM136.189 851.747H138.226V853.094H136.189V859.715H134.578V846.473H136.189V851.747ZM133.553 849.813H125.745V848.509H128.88V846.664H130.506V848.509H133.553V849.813ZM129.7 850.677C130.33 850.677 130.896 850.812 131.399 851.08C131.907 851.344 132.305 851.712 132.593 852.186C132.881 852.66 133.025 853.197 133.025 853.797C133.025 854.398 132.881 854.935 132.593 855.409C132.305 855.877 131.907 856.244 131.399 856.507C130.896 856.771 130.33 856.903 129.7 856.903C129.061 856.903 128.487 856.771 127.979 856.507C127.471 856.244 127.073 855.877 126.785 855.409C126.497 854.935 126.355 854.398 126.36 853.797C126.355 853.197 126.497 852.66 126.785 852.186C127.073 851.712 127.471 851.344 127.979 851.08C128.487 850.812 129.061 850.677 129.7 850.677ZM129.7 852.01C129.354 852.01 129.043 852.083 128.77 852.23C128.501 852.376 128.292 852.586 128.14 852.86C127.989 853.128 127.913 853.441 127.913 853.797C127.913 854.154 127.989 854.466 128.14 854.735C128.292 854.999 128.501 855.204 128.77 855.35C129.043 855.492 129.354 855.56 129.7 855.555C130.037 855.56 130.337 855.492 130.601 855.35C130.87 855.204 131.08 854.999 131.231 854.735C131.387 854.466 131.468 854.154 131.473 853.797C131.468 853.441 131.387 853.128 131.231 852.86C131.08 852.591 130.87 852.384 130.601 852.237C130.337 852.086 130.037 852.01 129.7 852.01ZM142.913 849.945C142.913 850.687 143.001 851.407 143.177 852.105C143.357 852.804 143.638 853.443 144.019 854.024C144.4 854.605 144.876 855.077 145.447 855.438L144.554 856.683C143.978 856.336 143.489 855.873 143.089 855.292C142.688 854.706 142.374 854.034 142.144 853.277C141.895 854.103 141.556 854.835 141.126 855.475C140.696 856.114 140.179 856.62 139.573 856.991L138.562 855.775C139.183 855.399 139.7 854.906 140.115 854.295C140.53 853.685 140.838 853.014 141.038 852.281C141.243 851.549 141.346 850.794 141.346 850.018V847.645H142.913V849.945ZM150.208 859.715H148.641V846.473H150.208V859.715ZM147.454 859.071H145.916V852.376H144.026V851.029H145.916V846.708H147.454V859.071ZM163.846 858.104H151.746V856.771H154.544V853.424C154.007 853.111 153.589 852.723 153.292 852.259C152.999 851.795 152.854 851.273 152.859 850.692C152.854 850.003 153.062 849.393 153.482 848.861C153.902 848.329 154.485 847.918 155.232 847.63C155.979 847.337 156.824 847.191 157.767 847.191C158.714 847.191 159.561 847.337 160.308 847.63C161.06 847.918 161.646 848.329 162.066 848.861C162.491 849.388 162.703 849.999 162.703 850.692C162.703 851.258 162.559 851.773 162.271 852.237C161.988 852.696 161.585 853.08 161.062 853.387V856.771H163.846V858.104ZM157.767 848.48C157.107 848.48 156.526 848.57 156.023 848.751C155.525 848.927 155.137 849.181 154.859 849.513C154.585 849.845 154.451 850.238 154.456 850.692C154.451 851.141 154.585 851.532 154.859 851.864C155.137 852.196 155.528 852.452 156.031 852.633C156.534 852.813 157.112 852.904 157.767 852.904C158.421 852.904 159 852.813 159.502 852.633C160.01 852.452 160.403 852.196 160.682 851.864C160.965 851.532 161.106 851.141 161.106 850.692C161.106 850.243 160.965 849.852 160.682 849.52C160.403 849.183 160.013 848.927 159.51 848.751C159.007 848.57 158.426 848.48 157.767 848.48ZM159.407 856.771V854.01C158.89 854.122 158.343 854.178 157.767 854.178C157.215 854.178 156.678 854.125 156.155 854.017V856.771H159.407Z" fill="#888882"/>
</g>
<g id="Frame">
<path id="Vector_10" d="M358.342 851.414L362.342 855.414L366.342 851.414" stroke="#888882" stroke-width="1.3" stroke-linecap="round" stroke-linejoin="round"/>
</g>
</g>
</g>
</g>
</g>
<g id="Container_5">
<g id="Icon_4" clip-path="url(#clip1_121_5401)">
<path id="Vector_11" d="M171.669 475.994H253.669" stroke="#888882" stroke-width="7.99775" stroke-linecap="round"/>
</g>
</g>
</g>
<g id="BottomNavigation" filter="url(#filter3_dd_121_5401)">
<mask id="path-30-outside-2_121_5401" maskUnits="userSpaceOnUse" x="16" y="852" width="393" height="73" fill="black">
<rect fill="white" x="16" y="852" width="393" height="73"/>
<path d="M16 853H409V925H16V853Z"/>
</mask>
<path d="M16 853H409V925H16V853Z" fill="#FAFAF7"/>
<path d="M16 853V854H409V853V852H16V853Z" fill="#E2DDD5" mask="url(#path-30-outside-2_121_5401)"/>
<g id="LightMode-Home">
<g id="Icon_5">
<path id="Vector_12" d="M66.9868 887.999V880.001C66.9868 879.735 66.8814 879.481 66.6939 879.294C66.5064 879.106 66.2521 879.001 65.9869 879.001H61.9876C61.7224 879.001 61.4681 879.106 61.2806 879.294C61.0931 879.481 60.9878 879.735 60.9878 880.001V887.999" stroke="#B0ADA7" stroke-width="1.99965" stroke-linecap="round" stroke-linejoin="round"/>
<path id="Vector_13" d="M54.9888 877.001C54.9887 876.71 55.0521 876.423 55.1745 876.159C55.297 875.895 55.4755 875.661 55.6976 875.474L62.6964 869.476C63.0574 869.171 63.5146 869.003 63.9872 869.003C64.4598 869.003 64.9171 869.171 65.278 869.476L72.2768 875.474C72.4989 875.661 72.6775 875.895 72.7999 876.159C72.9223 876.423 72.9857 876.71 72.9857 877.001V886C72.9857 886.53 72.775 887.039 72.4 887.414C72.025 887.789 71.5163 887.999 70.986 887.999H56.9884C56.4581 887.999 55.9495 887.789 55.5745 887.414C55.1994 887.039 54.9888 886.53 54.9888 886V877.001Z" stroke="#B0ADA7" stroke-width="1.99965" stroke-linecap="round" stroke-linejoin="round"/>
</g>
<g id="Layout">
<path id="&#237;&#153;&#136;" d="M67.2412 908.805H60.0693V905.828H67.2412V908.805ZM60.9834 908.09H66.3389V906.543H60.9834V908.09ZM67.8506 900.121H59.4014V899.406H63.1982V898.375H64.1123V899.406H67.8506V900.121ZM63.6553 900.543C64.7451 900.551 65.5791 900.68 66.1572 900.93C66.7393 901.176 67.0303 901.539 67.0303 902.02C67.0303 902.473 66.7803 902.822 66.2803 903.068C65.7803 903.314 65.0576 903.455 64.1123 903.49V904.293H68.4014V905.031H58.9092V904.293H63.1982V903.49C62.249 903.455 61.5225 903.314 61.0186 903.068C60.5186 902.822 60.2686 902.473 60.2686 902.02C60.2686 901.539 60.5596 901.176 61.1416 900.93C61.7275 900.68 62.5654 900.551 63.6553 900.543ZM63.6553 901.188C62.8779 901.195 62.2822 901.27 61.8682 901.41C61.4541 901.551 61.249 901.754 61.2529 902.02C61.2451 902.285 61.4521 902.49 61.874 902.635C62.2959 902.779 62.8896 902.852 63.6553 902.852C64.417 902.852 65.0068 902.779 65.4248 902.635C65.8467 902.49 66.0576 902.285 66.0576 902.02C66.0576 901.754 65.8486 901.551 65.4307 901.41C65.0166 901.27 64.4248 901.195 63.6553 901.188Z" fill="#B0ADA7"/>
</g>
</g>
<g id="LightMode-Chat">
<g id="Icon_6">
<path id="Vector_14" d="M147.235 882C147.235 882.531 147.024 883.039 146.649 883.414C146.274 883.789 145.766 884 145.236 884H133.238L129.238 887.999V872.002C129.238 871.472 129.449 870.963 129.824 870.588C130.199 870.213 130.708 870.002 131.238 870.002H145.236C145.766 870.002 146.274 870.213 146.649 870.588C147.024 870.963 147.235 871.472 147.235 872.002V882Z" stroke="#6A9E7A" stroke-width="1.99965" stroke-linecap="round" stroke-linejoin="round"/>
</g>
<g id="Layout_2">
<path id="&#236;&#177;&#132;&#237;&#140;&#133;" d="M131.206 901.727C131.206 902.285 131.297 902.834 131.481 903.373C131.665 903.912 131.928 904.4 132.272 904.838C132.62 905.271 133.026 905.613 133.491 905.863L132.952 906.555C132.444 906.277 132.004 905.887 131.633 905.383C131.262 904.879 130.979 904.307 130.784 903.666C130.592 904.35 130.311 904.963 129.94 905.506C129.569 906.049 129.131 906.469 128.627 906.766L128.077 906.086C128.534 905.82 128.932 905.457 129.272 904.996C129.612 904.531 129.874 904.016 130.057 903.449C130.241 902.879 130.334 902.305 130.338 901.727V901.246H128.323V900.484H130.338V898.914H131.217V900.484H133.209V901.246H131.206V901.727ZM137.112 908.945H136.221V903.531H134.803V908.418H133.924V898.75H134.803V902.746H136.221V898.527H137.112V908.945ZM144.331 900.051H140.265V901.363H144.038V902.113H140.265V903.484C141.449 903.484 142.39 903.467 143.089 903.432C143.788 903.393 144.488 903.316 145.187 903.203L145.281 903.953C144.55 904.07 143.822 904.148 143.095 904.188C142.368 904.227 141.398 904.246 140.183 904.246H139.339V899.301H144.331V900.051ZM147.331 904.996H146.417V898.539H147.331V904.996ZM143.874 905.148C144.593 905.145 145.216 905.217 145.743 905.365C146.271 905.51 146.675 905.725 146.956 906.01C147.238 906.291 147.378 906.629 147.378 907.023C147.378 907.426 147.238 907.768 146.956 908.049C146.675 908.334 146.271 908.551 145.743 908.699C145.22 908.848 144.597 908.922 143.874 908.922C143.136 908.922 142.503 908.848 141.976 908.699C141.449 908.555 141.044 908.34 140.763 908.055C140.486 907.77 140.347 907.426 140.347 907.023C140.347 906.629 140.486 906.291 140.763 906.01C141.044 905.725 141.449 905.51 141.976 905.365C142.507 905.217 143.14 905.145 143.874 905.148ZM143.874 905.875C143.331 905.875 142.863 905.922 142.468 906.016C142.077 906.105 141.779 906.236 141.572 906.408C141.365 906.58 141.261 906.785 141.261 907.023C141.261 907.27 141.365 907.48 141.572 907.656C141.779 907.832 142.077 907.965 142.468 908.055C142.863 908.148 143.331 908.195 143.874 908.195C144.406 908.195 144.867 908.148 145.257 908.055C145.648 907.961 145.949 907.826 146.159 907.65C146.37 907.475 146.476 907.266 146.476 907.023C146.476 906.789 146.37 906.586 146.159 906.414C145.949 906.238 145.646 906.105 145.251 906.016C144.861 905.922 144.402 905.875 143.874 905.875Z" fill="#6A9E7A"/>
</g>
</g>
<g id="LightMode-Plan">
<g id="Icon_7">
<path id="Vector_15" d="M208.493 869.003V873.003" stroke="#B0ADA7" stroke-width="1.99965" stroke-linecap="round" stroke-linejoin="round"/>
<path id="Vector_16" d="M216.491 869.003V873.003" stroke="#B0ADA7" stroke-width="1.99965" stroke-linecap="round" stroke-linejoin="round"/>
<path id="Vector_17" d="M219.491 871.002H205.493C204.389 871.002 203.494 871.897 203.494 873.002V886.999C203.494 888.104 204.389 888.999 205.493 888.999H219.491C220.595 888.999 221.491 888.104 221.491 886.999V873.002C221.491 871.897 220.595 871.002 219.491 871.002Z" stroke="#B0ADA7" stroke-width="1.99965" stroke-linecap="round" stroke-linejoin="round"/>
<path id="Vector_18" d="M203.494 877.001H221.491" stroke="#B0ADA7" stroke-width="1.99965" stroke-linecap="round" stroke-linejoin="round"/>
</g>
<g id="Layout_3">
<path id="&#236;&#157;&#188;&#236;&#160;&#149;" d="M205.367 898.914C205.883 898.918 206.344 899.018 206.75 899.213C207.16 899.408 207.48 899.682 207.711 900.033C207.945 900.381 208.062 900.777 208.062 901.223C208.062 901.668 207.945 902.066 207.711 902.418C207.48 902.766 207.16 903.037 206.75 903.232C206.344 903.424 205.883 903.52 205.367 903.52C204.844 903.52 204.377 903.424 203.967 903.232C203.557 903.037 203.236 902.766 203.006 902.418C202.775 902.066 202.66 901.668 202.66 901.223C202.66 900.777 202.775 900.381 203.006 900.033C203.236 899.682 203.557 899.408 203.967 899.213C204.377 899.018 204.844 898.918 205.367 898.914ZM205.367 899.688C205.023 899.688 204.713 899.754 204.436 899.887C204.162 900.016 203.947 900.197 203.791 900.432C203.635 900.662 203.559 900.926 203.562 901.223C203.559 901.523 203.635 901.791 203.791 902.025C203.947 902.26 204.162 902.443 204.436 902.576C204.713 902.705 205.023 902.77 205.367 902.77C205.707 902.77 206.014 902.705 206.287 902.576C206.564 902.443 206.781 902.26 206.938 902.025C207.094 901.791 207.172 901.523 207.172 901.223C207.172 900.926 207.094 900.662 206.938 900.432C206.781 900.197 206.564 900.016 206.287 899.887C206.014 899.754 205.707 899.688 205.367 899.688ZM211.016 903.883H210.102V898.527H211.016V903.883ZM211.016 906.895H205.168V908.066H211.391V908.805H204.266V906.203H210.102V905.125H204.242V904.387H211.016V906.895ZM221.622 904.738H220.696V902.008H218.598V901.246H220.696V898.527H221.622V904.738ZM218.165 905.066C218.887 905.066 219.511 905.143 220.034 905.295C220.557 905.447 220.958 905.668 221.235 905.957C221.516 906.246 221.657 906.594 221.657 907C221.657 907.406 221.516 907.754 221.235 908.043C220.958 908.336 220.557 908.559 220.034 908.711C219.511 908.863 218.887 908.941 218.165 908.945C217.442 908.941 216.819 908.863 216.296 908.711C215.772 908.559 215.37 908.336 215.089 908.043C214.811 907.754 214.673 907.406 214.673 907C214.673 906.594 214.811 906.246 215.089 905.957C215.37 905.668 215.772 905.447 216.296 905.295C216.819 905.143 217.442 905.066 218.165 905.066ZM218.165 905.781C217.637 905.781 217.179 905.83 216.788 905.928C216.397 906.025 216.098 906.166 215.891 906.35C215.684 906.533 215.583 906.75 215.587 907C215.583 907.246 215.684 907.461 215.891 907.645C216.098 907.824 216.397 907.963 216.788 908.061C217.179 908.158 217.637 908.207 218.165 908.207C218.692 908.207 219.149 908.158 219.536 908.061C219.927 907.963 220.225 907.824 220.432 907.645C220.639 907.461 220.743 907.246 220.743 907C220.743 906.75 220.639 906.533 220.432 906.35C220.225 906.166 219.927 906.025 219.536 905.928C219.149 905.83 218.692 905.781 218.165 905.781ZM216.606 900.438C216.606 900.887 216.714 901.322 216.929 901.744C217.143 902.162 217.444 902.535 217.831 902.863C218.221 903.188 218.669 903.438 219.173 903.613L218.692 904.352C218.11 904.141 217.598 903.828 217.157 903.414C216.72 903 216.389 902.521 216.167 901.979C215.94 902.588 215.595 903.127 215.13 903.596C214.669 904.061 214.13 904.41 213.512 904.645L213.032 903.906C213.544 903.719 214.001 903.449 214.403 903.098C214.805 902.742 215.118 902.334 215.341 901.873C215.567 901.412 215.68 900.938 215.68 900.449V900.062H213.325V899.289H218.938V900.062H216.606V900.438Z" fill="#B0ADA7"/>
</g>
</g>
<g id="LightMode-PlanList">
<g id="Icon_8">
<path id="Vector_19" d="M277.75 879.009H277.76" stroke="#B0ADA7" stroke-width="1.99986" stroke-linecap="round" stroke-linejoin="round"/>
<path id="Vector_20" d="M277.75 885.008H277.76" stroke="#B0ADA7" stroke-width="1.99986" stroke-linecap="round" stroke-linejoin="round"/>
<path id="Vector_21" d="M277.75 873.009H277.76" stroke="#B0ADA7" stroke-width="1.99986" stroke-linecap="round" stroke-linejoin="round"/>
<path id="Vector_22" d="M282.75 879.009H295.75" stroke="#B0ADA7" stroke-width="1.99986" stroke-linecap="round" stroke-linejoin="round"/>
<path id="Vector_23" d="M282.75 885.008H295.75" stroke="#B0ADA7" stroke-width="1.99986" stroke-linecap="round" stroke-linejoin="round"/>
<path id="Vector_24" d="M282.75 873.009H295.75" stroke="#B0ADA7" stroke-width="1.99986" stroke-linecap="round" stroke-linejoin="round"/>
</g>
<g id="Layout_4">
<path id="&#236;&#151;&#172;&#237;&#150;&#137;&#235;&#170;&#169;&#235;&#161;&#157;" d="M268.241 899.5H271.529V900.316H268.241V899.5ZM268.241 902.932H271.529V903.748H268.241V902.932ZM266.249 897.916C266.777 897.916 267.245 898.072 267.653 898.384C268.061 898.688 268.377 899.124 268.601 899.692C268.833 900.26 268.949 900.928 268.949 901.696C268.949 902.464 268.833 903.132 268.601 903.7C268.377 904.268 268.061 904.708 267.653 905.02C267.245 905.332 266.777 905.488 266.249 905.488C265.729 905.488 265.261 905.332 264.845 905.02C264.437 904.708 264.117 904.268 263.885 903.7C263.661 903.132 263.549 902.464 263.549 901.696C263.549 900.928 263.661 900.26 263.885 899.692C264.117 899.124 264.437 898.688 264.845 898.384C265.261 898.072 265.729 897.916 266.249 897.916ZM266.249 898.804C265.905 898.804 265.601 898.924 265.337 899.164C265.073 899.396 264.865 899.732 264.713 900.172C264.569 900.604 264.497 901.112 264.497 901.696C264.497 902.28 264.569 902.792 264.713 903.232C264.865 903.664 265.073 904 265.337 904.24C265.601 904.48 265.905 904.6 266.249 904.6C266.601 904.6 266.909 904.48 267.173 904.24C267.437 904 267.641 903.664 267.785 903.232C267.937 902.792 268.013 902.28 268.013 901.696C268.013 901.112 267.937 900.604 267.785 900.172C267.641 899.732 267.437 899.396 267.173 899.164C266.909 898.924 266.601 898.804 266.249 898.804ZM271.301 897.076H272.285V907.948H271.301V897.076ZM282.592 897.076H283.54V903.94H282.592V897.076ZM280.816 900.028H282.868V900.844H280.816V900.028ZM280.264 897.292H281.2V903.556H280.264V897.292ZM274.336 898.372H279.832V899.164H274.336V898.372ZM277.096 899.728C277.552 899.728 277.952 899.804 278.296 899.956C278.648 900.108 278.92 900.324 279.112 900.604C279.312 900.884 279.412 901.212 279.412 901.588C279.412 901.964 279.312 902.292 279.112 902.572C278.92 902.844 278.648 903.056 278.296 903.208C277.952 903.36 277.552 903.436 277.096 903.436C276.648 903.436 276.248 903.36 275.896 903.208C275.544 903.056 275.272 902.844 275.08 902.572C274.888 902.292 274.792 901.964 274.792 901.588C274.792 901.212 274.888 900.884 275.08 900.604C275.272 900.324 275.544 900.108 275.896 899.956C276.248 899.804 276.648 899.728 277.096 899.728ZM277.096 900.472C276.68 900.472 276.34 900.572 276.076 900.772C275.812 900.972 275.68 901.244 275.68 901.588C275.68 901.924 275.808 902.196 276.064 902.404C276.328 902.604 276.672 902.704 277.096 902.704C277.52 902.704 277.86 902.604 278.116 902.404C278.38 902.196 278.512 901.924 278.512 901.588C278.512 901.244 278.38 900.972 278.116 900.772C277.86 900.572 277.52 900.472 277.096 900.472ZM276.604 897.16H277.588V898.828H276.604V897.16ZM279.976 904.132C281.112 904.132 282 904.296 282.64 904.624C283.28 904.952 283.6 905.42 283.6 906.028C283.6 906.628 283.28 907.092 282.64 907.42C282 907.748 281.112 907.912 279.976 907.912C278.84 907.912 277.952 907.748 277.312 907.42C276.672 907.092 276.352 906.628 276.352 906.028C276.352 905.42 276.672 904.952 277.312 904.624C277.952 904.296 278.84 904.132 279.976 904.132ZM279.976 904.9C279.144 904.9 278.496 904.996 278.032 905.188C277.568 905.38 277.336 905.66 277.336 906.028C277.336 906.388 277.568 906.664 278.032 906.856C278.496 907.048 279.144 907.144 279.976 907.144C280.8 907.144 281.444 907.048 281.908 906.856C282.372 906.664 282.604 906.388 282.604 906.028C282.604 905.66 282.372 905.38 281.908 905.188C281.444 904.996 280.8 904.9 279.976 904.9ZM286.695 897.532H293.979V901.216H286.695V897.532ZM293.007 898.324H287.667V900.412H293.007V898.324ZM285.435 902.572H295.239V903.388H285.435V902.572ZM289.839 901.012H290.835V902.884H289.839V901.012ZM286.527 904.504H294.027V907.936H293.031V905.308H286.527V904.504ZM296.462 903.052H306.302V903.868H296.462V903.052ZM297.71 897.352H305.042V899.992H298.718V901.444H297.734V899.248H304.058V898.144H297.71V897.352ZM297.734 901.12H305.27V901.912H297.734V901.12ZM300.89 901.528H301.874V903.448H300.89V901.528ZM297.566 904.696H305.102V907.828H304.106V905.5H297.566V904.696Z" fill="#B0ADA7"/>
</g>
</g>
<g id="LightMode-Setting">
<g id="Icon_9">
<path id="Vector_25" d="M361.227 869.002H360.787C360.256 869.002 359.748 869.213 359.373 869.588C358.998 869.963 358.787 870.472 358.787 871.002V871.182C358.787 871.533 358.694 871.877 358.519 872.181C358.343 872.484 358.091 872.736 357.787 872.912L357.357 873.162C357.053 873.337 356.709 873.43 356.358 873.43C356.007 873.43 355.662 873.337 355.358 873.162L355.208 873.082C354.749 872.817 354.204 872.745 353.692 872.882C353.18 873.019 352.744 873.353 352.478 873.812L352.258 874.192C351.994 874.65 351.922 875.196 352.059 875.707C352.195 876.219 352.53 876.656 352.988 876.921L353.138 877.021C353.44 877.196 353.692 877.446 353.867 877.748C354.042 878.049 354.136 878.392 354.138 878.741V879.251C354.139 879.603 354.048 879.949 353.872 880.255C353.696 880.561 353.443 880.814 353.138 880.99L352.988 881.08C352.53 881.346 352.195 881.782 352.059 882.294C351.922 882.806 351.994 883.351 352.258 883.81L352.478 884.19C352.744 884.648 353.18 884.982 353.692 885.119C354.204 885.256 354.749 885.184 355.208 884.92L355.358 884.84C355.662 884.664 356.007 884.572 356.358 884.572C356.709 884.572 357.053 884.664 357.357 884.84L357.787 885.09C358.091 885.265 358.343 885.517 358.519 885.821C358.694 886.124 358.787 886.469 358.787 886.819V886.999C358.787 887.53 358.998 888.038 359.373 888.413C359.748 888.788 360.256 888.999 360.787 888.999H361.227C361.757 888.999 362.266 888.788 362.641 888.413C363.016 888.038 363.226 887.53 363.226 886.999V886.819C363.227 886.469 363.319 886.124 363.495 885.821C363.67 885.517 363.922 885.265 364.226 885.09L364.656 884.84C364.96 884.664 365.305 884.572 365.656 884.572C366.007 884.572 366.352 884.664 366.656 884.84L366.806 884.92C367.265 885.184 367.81 885.256 368.321 885.119C368.833 884.982 369.27 884.648 369.535 884.19L369.755 883.8C370.02 883.341 370.092 882.796 369.955 882.284C369.818 881.772 369.484 881.336 369.025 881.07L368.875 880.99C368.57 880.814 368.317 880.561 368.141 880.255C367.966 879.949 367.874 879.603 367.876 879.251V878.751C367.874 878.398 367.966 878.052 368.141 877.746C368.317 877.441 368.57 877.187 368.875 877.011L369.025 876.921C369.484 876.656 369.818 876.219 369.955 875.707C370.092 875.196 370.02 874.65 369.755 874.192L369.535 873.812C369.27 873.353 368.833 873.019 368.321 872.882C367.81 872.745 367.265 872.817 366.806 873.082L366.656 873.162C366.352 873.337 366.007 873.43 365.656 873.43C365.305 873.43 364.96 873.337 364.656 873.162L364.226 872.912C363.922 872.736 363.67 872.484 363.495 872.181C363.319 871.877 363.227 871.533 363.226 871.182V871.002C363.226 870.472 363.016 869.963 362.641 869.588C362.266 869.213 361.757 869.002 361.227 869.002Z" stroke="#B0ADA7" stroke-width="1.99965" stroke-linecap="round" stroke-linejoin="round"/>
<path id="Vector_26" d="M361.007 882C362.663 882 364.006 880.657 364.006 879.001C364.006 877.344 362.663 876.001 361.007 876.001C359.35 876.001 358.007 877.344 358.007 879.001C358.007 880.657 359.35 882 361.007 882Z" stroke="#B0ADA7" stroke-width="1.99965" stroke-linecap="round" stroke-linejoin="round"/>
</g>
<g id="Layout_5">
<path id="&#236;&#132;&#164;&#236;&#160;&#149;" d="M359.565 903.918H358.64V901.211H356.319V900.449H358.64V898.527H359.565V903.918ZM359.565 906.93H353.741V908.066H359.952V908.805H352.839V906.227H358.651V905.184H352.815V904.445H359.565V906.93ZM354.479 899.852C354.476 900.301 354.583 900.732 354.802 901.146C355.021 901.561 355.327 901.926 355.722 902.242C356.116 902.559 356.565 902.801 357.069 902.969L356.577 903.684C355.999 903.477 355.489 903.176 355.048 902.781C354.606 902.387 354.271 901.928 354.04 901.404C353.821 901.994 353.485 902.51 353.032 902.951C352.579 903.389 352.042 903.719 351.421 903.941L350.917 903.203C351.437 903.031 351.896 902.779 352.294 902.447C352.696 902.111 353.009 901.721 353.231 901.275C353.458 900.826 353.573 900.352 353.577 899.852V898.867H354.479V899.852ZM370.137 904.738H369.211V902.008H367.113V901.246H369.211V898.527H370.137V904.738ZM366.679 905.066C367.402 905.066 368.025 905.143 368.549 905.295C369.072 905.447 369.472 905.668 369.75 905.957C370.031 906.246 370.172 906.594 370.172 907C370.172 907.406 370.031 907.754 369.75 908.043C369.472 908.336 369.072 908.559 368.549 908.711C368.025 908.863 367.402 908.941 366.679 908.945C365.957 908.941 365.334 908.863 364.81 908.711C364.287 908.559 363.885 908.336 363.603 908.043C363.326 907.754 363.187 907.406 363.187 907C363.187 906.594 363.326 906.246 363.603 905.957C363.885 905.668 364.287 905.447 364.81 905.295C365.334 905.143 365.957 905.066 366.679 905.066ZM366.679 905.781C366.152 905.781 365.693 905.83 365.303 905.928C364.912 906.025 364.613 906.166 364.406 906.35C364.199 906.533 364.097 906.75 364.101 907C364.097 907.246 364.199 907.461 364.406 907.645C364.613 907.824 364.912 907.963 365.303 908.061C365.693 908.158 366.152 908.207 366.679 908.207C367.207 908.207 367.664 908.158 368.051 908.061C368.441 907.963 368.74 907.824 368.947 907.645C369.154 907.461 369.258 907.246 369.258 907C369.258 906.75 369.154 906.533 368.947 906.35C368.74 906.166 368.441 906.025 368.051 905.928C367.664 905.83 367.207 905.781 366.679 905.781ZM365.121 900.438C365.121 900.887 365.228 901.322 365.443 901.744C365.658 902.162 365.959 902.535 366.346 902.863C366.736 903.188 367.183 903.438 367.687 903.613L367.207 904.352C366.625 904.141 366.113 903.828 365.672 903.414C365.234 903 364.904 902.521 364.681 901.979C364.455 902.588 364.109 903.127 363.644 903.596C363.183 904.061 362.644 904.41 362.027 904.645L361.547 903.906C362.058 903.719 362.515 903.449 362.918 903.098C363.32 902.742 363.633 902.334 363.855 901.873C364.082 901.412 364.195 900.938 364.195 900.449V900.062H361.84V899.289H367.453V900.062H365.121V900.438Z" fill="#B0ADA7"/>
</g>
</g>
</g>
</g>
<defs>
<filter id="filter0_dd_121_5401" x="8" y="579.992" width="409.342" height="118.974" filterUnits="userSpaceOnUse" color-interpolation-filters="sRGB">
<feFlood flood-opacity="0" result="BackgroundImageFix"/>
<feColorMatrix in="SourceAlpha" type="matrix" values="0 0 0 0 0 0 0 0 0 0 0 0 0 0 0 0 0 0 127 0" result="hardAlpha"/>
<feOffset dy="8"/>
<feGaussianBlur stdDeviation="16"/>
<feColorMatrix type="matrix" values="0 0 0 0 0.118 0 0 0 0 0.157 0 0 0 0 0.133 0 0 0 0.16 0"/>
<feBlend mode="normal" in2="BackgroundImageFix" result="effect1_dropShadow_121_5401"/>
<feColorMatrix in="SourceAlpha" type="matrix" values="0 0 0 0 0 0 0 0 0 0 0 0 0 0 0 0 0 0 127 0" result="hardAlpha"/>
<feOffset dy="2"/>
<feGaussianBlur stdDeviation="4"/>
<feColorMatrix type="matrix" values="0 0 0 0 0.118 0 0 0 0 0.157 0 0 0 0 0.133 0 0 0 0.08 0"/>
<feBlend mode="normal" in2="effect1_dropShadow_121_5401" result="effect2_dropShadow_121_5401"/>
<feBlend mode="normal" in="SourceGraphic" in2="effect2_dropShadow_121_5401" result="shape"/>
</filter>
<filter id="filter1_dd_121_5401" x="8" y="690.959" width="409.342" height="118.974" filterUnits="userSpaceOnUse" color-interpolation-filters="sRGB">
<feFlood flood-opacity="0" result="BackgroundImageFix"/>
<feColorMatrix in="SourceAlpha" type="matrix" values="0 0 0 0 0 0 0 0 0 0 0 0 0 0 0 0 0 0 127 0" result="hardAlpha"/>
<feOffset dy="8"/>
<feGaussianBlur stdDeviation="16"/>
<feColorMatrix type="matrix" values="0 0 0 0 0.118 0 0 0 0 0.157 0 0 0 0 0.133 0 0 0 0.16 0"/>
<feBlend mode="normal" in2="BackgroundImageFix" result="effect1_dropShadow_121_5401"/>
<feColorMatrix in="SourceAlpha" type="matrix" values="0 0 0 0 0 0 0 0 0 0 0 0 0 0 0 0 0 0 127 0" result="hardAlpha"/>
<feOffset dy="2"/>
<feGaussianBlur stdDeviation="4"/>
<feColorMatrix type="matrix" values="0 0 0 0 0.118 0 0 0 0 0.157 0 0 0 0 0.133 0 0 0 0.08 0"/>
<feBlend mode="normal" in2="effect1_dropShadow_121_5401" result="effect2_dropShadow_121_5401"/>
<feBlend mode="normal" in="SourceGraphic" in2="effect2_dropShadow_121_5401" result="shape"/>
</filter>
<filter id="filter2_dd_121_5401" x="8" y="801.927" width="409.342" height="118.974" filterUnits="userSpaceOnUse" color-interpolation-filters="sRGB">
<feFlood flood-opacity="0" result="BackgroundImageFix"/>
<feColorMatrix in="SourceAlpha" type="matrix" values="0 0 0 0 0 0 0 0 0 0 0 0 0 0 0 0 0 0 127 0" result="hardAlpha"/>
<feOffset dy="8"/>
<feGaussianBlur stdDeviation="16"/>
<feColorMatrix type="matrix" values="0 0 0 0 0.118 0 0 0 0 0.157 0 0 0 0 0.133 0 0 0 0.16 0"/>
<feBlend mode="normal" in2="BackgroundImageFix" result="effect1_dropShadow_121_5401"/>
<feColorMatrix in="SourceAlpha" type="matrix" values="0 0 0 0 0 0 0 0 0 0 0 0 0 0 0 0 0 0 127 0" result="hardAlpha"/>
<feOffset dy="2"/>
<feGaussianBlur stdDeviation="4"/>
<feColorMatrix type="matrix" values="0 0 0 0 0.118 0 0 0 0 0.157 0 0 0 0 0.133 0 0 0 0.08 0"/>
<feBlend mode="normal" in2="effect1_dropShadow_121_5401" result="effect2_dropShadow_121_5401"/>
<feBlend mode="normal" in="SourceGraphic" in2="effect2_dropShadow_121_5401" result="shape"/>
</filter>
<filter id="filter3_dd_121_5401" x="0" y="840" width="425" height="105" filterUnits="userSpaceOnUse" color-interpolation-filters="sRGB">
<feFlood flood-opacity="0" result="BackgroundImageFix"/>
<feColorMatrix in="SourceAlpha" type="matrix" values="0 0 0 0 0 0 0 0 0 0 0 0 0 0 0 0 0 0 127 0" result="hardAlpha"/>
<feOffset dy="4"/>
<feGaussianBlur stdDeviation="8"/>
<feColorMatrix type="matrix" values="0 0 0 0 0.118 0 0 0 0 0.157 0 0 0 0 0.133 0 0 0 0.12 0"/>
<feBlend mode="normal" in2="BackgroundImageFix" result="effect1_dropShadow_121_5401"/>
<feColorMatrix in="SourceAlpha" type="matrix" values="0 0 0 0 0 0 0 0 0 0 0 0 0 0 0 0 0 0 127 0" result="hardAlpha"/>
<feOffset dy="1"/>
<feGaussianBlur stdDeviation="2"/>
<feColorMatrix type="matrix" values="0 0 0 0 0.118 0 0 0 0 0.157 0 0 0 0 0.133 0 0 0 0.06 0"/>
<feBlend mode="normal" in2="effect1_dropShadow_121_5401" result="effect2_dropShadow_121_5401"/>
<feBlend mode="normal" in="SourceGraphic" in2="effect2_dropShadow_121_5401" result="shape"/>
</filter>
<clipPath id="clip0_121_5401">
<rect width="393" height="853" fill="white" transform="translate(16)"/>
</clipPath>
<clipPath id="clip1_121_5401">
<rect width="89.9996" height="7.99554" fill="white" transform="translate(167.669 471.997)"/>
</clipPath>
</defs>
</svg>
