<svg width="12" height="12" viewBox="0 0 12 12" fill="none" xmlns="http://www.w3.org/2000/svg">
<g id="Icon">
<path id="Vector" d="M4.96524 7.74469C4.92063 7.57177 4.8305 7.41396 4.70422 7.28768C4.57794 7.16141 4.42014 7.07128 4.24721 7.02667L1.18174 6.23619C1.12944 6.22134 1.08341 6.18984 1.05063 6.14647C1.01786 6.1031 1.00012 6.05021 1.00012 5.99585C1.00012 5.94148 1.01786 5.8886 1.05063 5.84522C1.08341 5.80185 1.12944 5.77035 1.18174 5.75551L4.24721 4.96453C4.42007 4.91996 4.57784 4.8299 4.70411 4.70372C4.83039 4.57754 4.92055 4.41983 4.96524 4.247L5.75572 1.18153C5.77041 1.12902 5.80188 1.08276 5.84532 1.04981C5.88876 1.01686 5.94179 0.999023 5.99631 0.999023C6.05083 0.999023 6.10386 1.01686 6.1473 1.04981C6.19074 1.08276 6.22221 1.12902 6.2369 1.18153L7.02688 4.247C7.07149 4.41992 7.16162 4.57773 7.2879 4.70401C7.41417 4.83029 7.57198 4.92042 7.7449 4.96503L10.8104 5.75501C10.8631 5.76955 10.9096 5.80098 10.9427 5.84449C10.9758 5.88799 10.9938 5.94116 10.9938 5.99585C10.9938 6.05053 10.9758 6.1037 10.9427 6.14721C10.9096 6.19071 10.8631 6.22215 10.8104 6.23669L7.7449 7.02667C7.57198 7.07128 7.41417 7.16141 7.2879 7.28768C7.16162 7.41396 7.07149 7.57177 7.02688 7.74469L6.2364 10.8102C6.22171 10.8627 6.19024 10.9089 6.1468 10.9419C6.10336 10.9748 6.05033 10.9927 5.99581 10.9927C5.94129 10.9927 5.88826 10.9748 5.84482 10.9419C5.80138 10.9089 5.76991 10.8627 5.75522 10.8102L4.96524 7.74469Z" stroke="currentColor" stroke-width="0.99934" stroke-linecap="round" stroke-linejoin="round"/>
<path id="Vector_2" d="M9.99341 1.49902V3.4977" stroke="currentColor" stroke-width="0.99934" stroke-linecap="round" stroke-linejoin="round"/>
<path id="Vector_3" d="M10.9927 2.49805H8.99402" stroke="currentColor" stroke-width="0.99934" stroke-linecap="round" stroke-linejoin="round"/>
<path id="Vector_4" d="M1.99866 8.49414V9.49348" stroke="currentColor" stroke-width="0.99934" stroke-linecap="round" stroke-linejoin="round"/>
<path id="Vector_5" d="M2.49836 8.99414H1.49902" stroke="currentColor" stroke-width="0.99934" stroke-linecap="round" stroke-linejoin="round"/>
</g>
</svg>
