<svg width="56" height="60" viewBox="0 0 56 60" fill="none" xmlns="http://www.w3.org/2000/svg">
<g id="Property 1=FALSE">
<g id="Icon">
<path id="Vector" d="M36.9916 22.9921C36.9916 23.5224 36.781 24.031 36.4059 24.406C36.0309 24.781 35.5223 24.9917 34.992 24.9917H22.9941L18.9948 28.991V12.9938C18.9948 12.4635 19.2054 11.9548 19.5804 11.5798C19.9554 11.2048 20.4641 10.9941 20.9944 10.9941H34.992C35.5223 10.9941 36.0309 11.2048 36.4059 11.5798C36.781 11.9548 36.9916 12.4635 36.9916 12.9938V22.9921Z" stroke="currentColor" stroke-width="1.99965" stroke-linecap="round" stroke-linejoin="round"/>
</g>
<g id="Layout">
<path id="&#236;&#177;&#132;&#237;&#140;&#133;" d="M20.9619 41.7183C20.9619 43.3823 21.8174 45.0933 23.2471 45.855L22.708 46.5464C21.6709 45.978 20.9209 44.9116 20.54 43.6519C20.165 44.9878 19.4209 46.1479 18.3838 46.7573L17.833 46.0776C19.2393 45.2573 20.083 43.4409 20.0947 41.7183V41.2378H18.0791V40.4761H20.0947V38.9058H20.9736V40.4761H22.9658V41.2378H20.9619V41.7183ZM26.8682 38.519V48.937H25.9775V43.5229H24.5596V48.4097H23.6807V38.7417H24.5596V42.7378H25.9775V38.519H26.8682ZM33.8877 39.2925V40.0425H29.8213V41.355H33.5947V42.105H29.8213V43.4761C32.042 43.4761 33.2725 43.4351 34.7432 43.1948L34.8369 43.9448C33.3135 44.1909 32.0361 44.2378 29.7393 44.2378H28.8955V39.2925H33.8877ZM36.8877 38.5308V44.9878H35.9736V38.5308H36.8877ZM33.4307 45.1401C35.5986 45.1284 36.9346 45.8198 36.9346 47.0151C36.9346 48.2339 35.5986 48.9136 33.4307 48.9136C31.2158 48.9136 29.9033 48.2339 29.9033 47.0151C29.9033 45.8198 31.2158 45.1284 33.4307 45.1401ZM33.4307 45.8667C31.79 45.8667 30.8174 46.3003 30.8174 47.0151C30.8174 47.7534 31.79 48.187 33.4307 48.187C35.0244 48.187 36.0322 47.7534 36.0322 47.0151C36.0322 46.3003 35.0244 45.8667 33.4307 45.8667Z" fill="currentColor"/>
</g>
</g>
</svg>
