<svg width="56" height="60" viewBox="0 0 56 60" fill="none" xmlns="http://www.w3.org/2000/svg">
<g id="Property 1=FALSE">
<g id="Icon">
<path id="Vector" d="M30.9868 28.9909V20.9923C30.9868 20.7271 30.8814 20.4728 30.6939 20.2853C30.5064 20.0978 30.2521 19.9924 29.9869 19.9924H25.9876C25.7224 19.9924 25.4681 20.0978 25.2806 20.2853C25.0931 20.4728 24.9878 20.7271 24.9878 20.9923V28.9909" stroke="currentColor" stroke-width="1.99965" stroke-linecap="round" stroke-linejoin="round"/>
<path id="Vector_2" d="M18.9889 17.993C18.9888 17.7021 19.0522 17.4147 19.1746 17.1508C19.2971 16.887 19.4756 16.653 19.6978 16.4652L26.6966 10.4673C27.0575 10.1622 27.5148 9.99487 27.9873 9.99487C28.4599 9.99487 28.9172 10.1622 29.2781 10.4673L36.2769 16.4652C36.4991 16.653 36.6776 16.887 36.8 17.1508C36.9225 17.4147 36.9858 17.7021 36.9858 17.993V26.9914C36.9858 27.5217 36.7751 28.0304 36.4001 28.4054C36.0251 28.7804 35.5165 28.9911 34.9861 28.9911H20.9885C20.4582 28.9911 19.9496 28.7804 19.5746 28.4054C19.1996 28.0304 18.9889 27.5217 18.9889 26.9914V17.993Z" stroke="currentColor" stroke-width="1.99965" stroke-linecap="round" stroke-linejoin="round"/>
</g>
<g id="Layout">
<path id="&#237;&#153;&#136;" d="M31.2412 49.7964H24.0693V46.8198H31.2412V49.7964ZM24.9834 49.0815H30.3389V47.5347H24.9834V49.0815ZM31.8506 41.1128H23.4014V40.3979H27.1982V39.3667H28.1123V40.3979H31.8506V41.1128ZM27.6553 41.5347C28.7451 41.5425 29.5791 41.6714 30.1572 41.9214C30.7393 42.1675 31.0303 42.5308 31.0303 43.0112C31.0303 43.4644 30.7803 43.814 30.2803 44.0601C29.7803 44.3062 29.0576 44.4468 28.1123 44.4819V45.2847H32.4014V46.0229H22.9092V45.2847H27.1982V44.4819C26.249 44.4468 25.5225 44.3062 25.0186 44.0601C24.5186 43.814 24.2686 43.4644 24.2686 43.0112C24.2686 42.5308 24.5596 42.1675 25.1416 41.9214C25.7275 41.6714 26.5654 41.5425 27.6553 41.5347ZM27.6553 42.1792C26.8779 42.187 26.2822 42.2612 25.8682 42.4019C25.4541 42.5425 25.249 42.7456 25.2529 43.0112C25.2451 43.2769 25.4521 43.4819 25.874 43.6265C26.2959 43.771 26.8896 43.8433 27.6553 43.8433C28.417 43.8433 29.0068 43.771 29.4248 43.6265C29.8467 43.4819 30.0576 43.2769 30.0576 43.0112C30.0576 42.7456 29.8486 42.5425 29.4307 42.4019C29.0166 42.2612 28.4248 42.187 27.6553 42.1792Z" fill="currentColor"/>
</g>
</g>
</svg>
