<svg width="20" height="20" viewBox="0 0 20 20" fill="none" xmlns="http://www.w3.org/2000/svg">
<g id="Icon">
<path id="Vector" d="M8.55566 17.4985C8.70194 17.7519 8.91232 17.9622 9.16565 18.1085C9.41899 18.2547 9.70636 18.3317 9.99889 18.3317C10.2914 18.3317 10.5788 18.2547 10.8321 18.1085C11.0855 17.9622 11.2958 17.7519 11.4421 17.4985" stroke="currentColor" stroke-width="1.66654" stroke-linecap="round" stroke-linejoin="round"/>
<path id="Vector_2" d="M2.71771 12.7707C2.60885 12.89 2.53702 13.0383 2.51094 13.1977C2.48486 13.3571 2.50566 13.5206 2.57081 13.6684C2.63596 13.8162 2.74265 13.9419 2.87791 14.0301C3.01317 14.1184 3.17116 14.1654 3.33266 14.1656H16.665C16.8265 14.1656 16.9845 14.1187 17.1198 14.0307C17.2552 13.9426 17.362 13.817 17.4273 13.6694C17.4927 13.5217 17.5137 13.3582 17.4878 13.1988C17.4619 13.0394 17.3903 12.8909 17.2816 12.7715C16.1734 11.6291 14.9984 10.415 14.9984 6.66612C14.9984 5.34014 14.4717 4.06847 13.5341 3.13086C12.5965 2.19325 11.3248 1.6665 9.99882 1.6665C8.67284 1.6665 7.40117 2.19325 6.46356 3.13086C5.52595 4.06847 4.9992 5.34014 4.9992 6.66612C4.9992 10.415 3.82346 11.6291 2.71771 12.7707Z" stroke="currentColor" stroke-width="1.66654" stroke-linecap="round" stroke-linejoin="round"/>
</g>
</svg>
