<svg width="20" height="20" viewBox="0 0 20 20" fill="none" xmlns="http://www.w3.org/2000/svg">
<g id="Icon">
<path id="Vector" d="M9.99929 10.8326C10.4595 10.8326 10.8326 10.4595 10.8326 9.99929C10.8326 9.53908 10.4595 9.16602 9.99929 9.16602C9.53908 9.16602 9.16602 9.53908 9.16602 9.99929C9.16602 10.4595 9.53908 10.8326 9.99929 10.8326Z" stroke="currentColor" stroke-width="1.66654" stroke-linecap="round" stroke-linejoin="round"/>
<path id="Vector_2" d="M9.99929 4.99955C10.4595 4.99955 10.8326 4.62648 10.8326 4.16628C10.8326 3.70608 10.4595 3.33301 9.99929 3.33301C9.53908 3.33301 9.16602 3.70608 9.16602 4.16628C9.16602 4.62648 9.53908 4.99955 9.99929 4.99955Z" stroke="currentColor" stroke-width="1.66654" stroke-linecap="round" stroke-linejoin="round"/>
<path id="Vector_3" d="M9.99929 16.6656C10.4595 16.6656 10.8326 16.2925 10.8326 15.8323C10.8326 15.3721 10.4595 14.999 9.99929 14.999C9.53908 14.999 9.16602 15.3721 9.16602 15.8323C9.16602 16.2925 9.53908 16.6656 9.99929 16.6656Z" stroke="currentColor" stroke-width="1.66654" stroke-linecap="round" stroke-linejoin="round"/>
</g>
</svg>
