<svg width="56" height="60" viewBox="0 0 56 60" fill="none" xmlns="http://www.w3.org/2000/svg">
<g id="Property 1=FALSE">
<g id="Icon">
<path id="Vector" d="M18.9956 19.9949H19.0056" stroke="currentColor" stroke-width="1.99986" stroke-linecap="round" stroke-linejoin="round"/>
<path id="Vector_2" d="M18.9956 25.9944H19.0056" stroke="currentColor" stroke-width="1.99986" stroke-linecap="round" stroke-linejoin="round"/>
<path id="Vector_3" d="M18.9956 13.9951H19.0056" stroke="currentColor" stroke-width="1.99986" stroke-linecap="round" stroke-linejoin="round"/>
<path id="Vector_4" d="M23.9952 19.9949H36.9952" stroke="currentColor" stroke-width="1.99986" stroke-linecap="round" stroke-linejoin="round"/>
<path id="Vector_5" d="M23.9952 25.9944H36.9952" stroke="currentColor" stroke-width="1.99986" stroke-linecap="round" stroke-linejoin="round"/>
<path id="Vector_6" d="M23.9952 13.9951H36.9952" stroke="currentColor" stroke-width="1.99986" stroke-linecap="round" stroke-linejoin="round"/>
</g>
<g id="Layout">
<path id="&#236;&#151;&#172;&#237;&#150;&#137;&#235;&#170;&#169;&#235;&#161;&#157;" d="M9.48656 40.4858H12.7746V41.3018H9.48656V40.4858ZM9.48656 43.9178H12.7746V44.7338H9.48656V43.9178ZM7.49456 38.9018C8.02256 38.9018 8.49056 39.0578 8.89856 39.3698C9.30656 39.6738 9.62256 40.1098 9.84656 40.6778C10.0786 41.2458 10.1946 41.9138 10.1946 42.6818C10.1946 43.4498 10.0786 44.1178 9.84656 44.6858C9.62256 45.2538 9.30656 45.6938 8.89856 46.0058C8.49056 46.3178 8.02256 46.4738 7.49456 46.4738C6.97456 46.4738 6.50656 46.3178 6.09056 46.0058C5.68256 45.6938 5.36256 45.2538 5.13056 44.6858C4.90656 44.1178 4.79456 43.4498 4.79456 42.6818C4.79456 41.9138 4.90656 41.2458 5.13056 40.6778C5.36256 40.1098 5.68256 39.6738 6.09056 39.3698C6.50656 39.0578 6.97456 38.9018 7.49456 38.9018ZM7.49456 39.7898C7.15056 39.7898 6.84656 39.9098 6.58256 40.1498C6.31856 40.3818 6.11056 40.7178 5.95856 41.1578C5.81456 41.5898 5.74256 42.0978 5.74256 42.6818C5.74256 43.2658 5.81456 43.7778 5.95856 44.2178C6.11056 44.6498 6.31856 44.9858 6.58256 45.2258C6.84656 45.4658 7.15056 45.5858 7.49456 45.5858C7.84656 45.5858 8.15456 45.4658 8.41856 45.2258C8.68256 44.9858 8.88656 44.6498 9.03056 44.2178C9.18256 43.7778 9.25856 43.2658 9.25856 42.6818C9.25856 42.0978 9.18256 41.5898 9.03056 41.1578C8.88656 40.7178 8.68256 40.3818 8.41856 40.1498C8.15456 39.9098 7.84656 39.7898 7.49456 39.7898ZM12.5466 38.0618H13.5306V48.9338H12.5466V38.0618ZM23.8376 38.0618H24.7856V44.9258H23.8376V38.0618ZM22.0616 41.0138H24.1136V41.8298H22.0616V41.0138ZM21.5096 38.2778H22.4456V44.5418H21.5096V38.2778ZM15.5816 39.3578H21.0776V40.1498H15.5816V39.3578ZM18.3416 40.7138C18.7976 40.7138 19.1976 40.7898 19.5416 40.9418C19.8936 41.0938 20.1656 41.3098 20.3576 41.5898C20.5576 41.8698 20.6576 42.1978 20.6576 42.5738C20.6576 42.9498 20.5576 43.2778 20.3576 43.5578C20.1656 43.8298 19.8936 44.0418 19.5416 44.1938C19.1976 44.3458 18.7976 44.4218 18.3416 44.4218C17.8936 44.4218 17.4936 44.3458 17.1416 44.1938C16.7896 44.0418 16.5176 43.8298 16.3256 43.5578C16.1336 43.2778 16.0376 42.9498 16.0376 42.5738C16.0376 42.1978 16.1336 41.8698 16.3256 41.5898C16.5176 41.3098 16.7896 41.0938 17.1416 40.9418C17.4936 40.7898 17.8936 40.7138 18.3416 40.7138ZM18.3416 41.4578C17.9256 41.4578 17.5856 41.5578 17.3216 41.7578C17.0576 41.9578 16.9256 42.2298 16.9256 42.5738C16.9256 42.9098 17.0536 43.1818 17.3096 43.3898C17.5736 43.5898 17.9176 43.6898 18.3416 43.6898C18.7656 43.6898 19.1056 43.5898 19.3616 43.3898C19.6256 43.1818 19.7576 42.9098 19.7576 42.5738C19.7576 42.2298 19.6256 41.9578 19.3616 41.7578C19.1056 41.5578 18.7656 41.4578 18.3416 41.4578ZM17.8496 38.1458H18.8336V39.8138H17.8496V38.1458ZM21.2216 45.1178C22.3576 45.1178 23.2456 45.2818 23.8856 45.6098C24.5256 45.9378 24.8456 46.4058 24.8456 47.0138C24.8456 47.6138 24.5256 48.0778 23.8856 48.4058C23.2456 48.7338 22.3576 48.8978 21.2216 48.8978C20.0856 48.8978 19.1976 48.7338 18.5576 48.4058C17.9176 48.0778 17.5976 47.6138 17.5976 47.0138C17.5976 46.4058 17.9176 45.9378 18.5576 45.6098C19.1976 45.2818 20.0856 45.1178 21.2216 45.1178ZM21.2216 45.8858C20.3896 45.8858 19.7416 45.9818 19.2776 46.1738C18.8136 46.3658 18.5816 46.6458 18.5816 47.0138C18.5816 47.3738 18.8136 47.6498 19.2776 47.8418C19.7416 48.0338 20.3896 48.1298 21.2216 48.1298C22.0456 48.1298 22.6896 48.0338 23.1536 47.8418C23.6176 47.6498 23.8496 47.3738 23.8496 47.0138C23.8496 46.6458 23.6176 46.3658 23.1536 46.1738C22.6896 45.9818 22.0456 45.8858 21.2216 45.8858ZM27.9407 38.5178H35.2247V42.2018H27.9407V38.5178ZM34.2527 39.3098H28.9127V41.3978H34.2527V39.3098ZM26.6807 43.5578H36.4847V44.3738H26.6807V43.5578ZM31.0847 41.9978H32.0807V43.8698H31.0847V41.9978ZM27.7727 45.4898H35.2727V48.9218H34.2767V46.2938H27.7727V45.4898ZM37.7078 44.0378H47.5478V44.8538H37.7078V44.0378ZM38.9558 38.3378H46.2878V40.9778H39.9638V42.4298H38.9798V40.2338H45.3038V39.1298H38.9558V38.3378ZM38.9798 42.1058H46.5158V42.8978H38.9798V42.1058ZM42.1358 42.5138H43.1198V44.4338H42.1358V42.5138ZM38.8118 45.6818H46.3478V48.8138H45.3518V46.4858H38.8118V45.6818Z" fill="currentColor"/>
</g>
</g>
</svg>
