<svg width="56" height="60" viewBox="0 0 56 60" fill="none" xmlns="http://www.w3.org/2000/svg">
<g id="Property 1=FALSE">
<g id="Icon">
<path id="Vector" d="M23.9939 9.99438V13.9944" stroke="currentColor" stroke-width="1.99965" stroke-linecap="round" stroke-linejoin="round"/>
<path id="Vector_2" d="M31.9924 9.99438V13.9944" stroke="currentColor" stroke-width="1.99965" stroke-linecap="round" stroke-linejoin="round"/>
<path id="Vector_3" d="M34.992 11.9939H20.9944C19.89 11.9939 18.9948 12.8892 18.9948 13.9935V27.9911C18.9948 29.0955 19.89 29.9908 20.9944 29.9908H34.992C36.0964 29.9908 36.9916 29.0955 36.9916 27.9911V13.9935C36.9916 12.8892 36.0964 11.9939 34.992 11.9939Z" stroke="currentColor" stroke-width="1.99965" stroke-linecap="round" stroke-linejoin="round"/>
<path id="Vector_4" d="M18.9948 17.9929H36.9916" stroke="currentColor" stroke-width="1.99965" stroke-linecap="round" stroke-linejoin="round"/>
</g>
<g id="Layout">
<path id="&#236;&#157;&#188;&#236;&#160;&#149;" d="M20.8682 38.9058C22.4268 38.9175 23.5635 39.855 23.5635 41.2144C23.5635 42.5737 22.4268 43.5112 20.8682 43.5112C19.2861 43.5112 18.1611 42.5737 18.1611 41.2144C18.1611 39.855 19.2861 38.9175 20.8682 38.9058ZM20.8682 39.6792C19.8252 39.6792 19.0518 40.312 19.0635 41.2144C19.0518 42.1284 19.8252 42.7612 20.8682 42.7612C21.8994 42.7612 22.6729 42.1284 22.6729 41.2144C22.6729 40.312 21.8994 39.6792 20.8682 39.6792ZM26.5166 38.519V43.8745H25.6025V38.519H26.5166ZM26.5166 44.3784V46.8862H20.6689V48.0581H26.8916V48.7964H19.7666V46.1948H25.6025V45.1167H19.7432V44.3784H26.5166ZM36.9229 38.519V44.73H35.9971V41.9995H33.8994V41.2378H35.9971V38.519H36.9229ZM33.4658 45.0581C35.6338 45.0581 36.958 45.7612 36.958 46.9917C36.958 48.2222 35.6338 48.9253 33.4658 48.937C31.2979 48.9253 29.9736 48.2222 29.9736 46.9917C29.9736 45.7612 31.2979 45.0581 33.4658 45.0581ZM33.4658 45.7729C31.8721 45.7729 30.876 46.23 30.8877 46.9917C30.876 47.7417 31.8721 48.1987 33.4658 48.1987C35.0596 48.1987 36.0439 47.7417 36.0439 46.9917C36.0439 46.23 35.0596 45.7729 33.4658 45.7729ZM31.9072 40.4292C31.9072 41.7886 32.9502 43.0776 34.4736 43.605L33.9932 44.3433C32.8213 43.9214 31.9131 43.0483 31.4736 41.9644C31.0166 43.189 30.0498 44.1675 28.8135 44.6362L28.333 43.8979C29.8799 43.3354 30.9814 41.9292 30.9814 40.4409V40.0542H28.626V39.2808H34.2393V40.0542H31.9072V40.4292Z" fill="currentColor"/>
</g>
</g>
</svg>
