<svg width="16" height="16" viewBox="0 0 16 16" fill="none" xmlns="http://www.w3.org/2000/svg">
<g id="Icon" clip-path="url(#clip0_48_1703)">
<path id="Vector" d="M13.3245 6.66184C13.3245 9.98831 9.63431 13.4527 8.39513 14.5226C8.27969 14.6095 8.13917 14.6564 7.99473 14.6564C7.85029 14.6564 7.70977 14.6095 7.59433 14.5226C6.35515 13.4527 2.66492 9.98831 2.66492 6.66184C2.66492 5.24829 3.22645 3.89263 4.22598 2.8931C5.22552 1.89356 6.58117 1.33203 7.99473 1.33203C9.40828 1.33203 10.7639 1.89356 11.7635 2.8931C12.763 3.89263 13.3245 5.24829 13.3245 6.66184Z" stroke="currentColor" stroke-width="1.33245" stroke-linecap="round" stroke-linejoin="round"/>
<path id="Vector_2" d="M7.99477 8.66142C9.09861 8.66142 9.99345 7.76658 9.99345 6.66274C9.99345 5.5589 9.09861 4.66406 7.99477 4.66406C6.89093 4.66406 5.99609 5.5589 5.99609 6.66274C5.99609 7.76658 6.89093 8.66142 7.99477 8.66142Z" stroke="currentColor" stroke-width="1.33245" stroke-linecap="round" stroke-linejoin="round"/>
</g>
</svg>
