<svg width="20" height="20" viewBox="0 0 20 20" fill="none" xmlns="http://www.w3.org/2000/svg">
<g id="Icon">
<path id="Vector" d="M16.6653 10.8324C16.6653 14.9987 13.7489 17.0819 10.2825 18.2901C10.101 18.3516 9.90379 18.3487 9.72419 18.2818C6.24945 17.0819 3.33301 14.9987 3.33301 10.8324V4.99947C3.33301 4.77847 3.4208 4.56653 3.57707 4.41026C3.73334 4.25399 3.94528 4.1662 4.16628 4.1662C5.83282 4.1662 7.91599 3.16628 9.36588 1.89971C9.54242 1.74888 9.76698 1.66602 9.99917 1.66602C10.2314 1.66602 10.4559 1.74888 10.6325 1.89971C12.0907 3.17461 14.1655 4.1662 15.8321 4.1662C16.0531 4.1662 16.265 4.25399 16.4213 4.41026C16.5775 4.56653 16.6653 4.77847 16.6653 4.99947V10.8324Z" stroke="currentColor" stroke-width="1.66654" stroke-linecap="round" stroke-linejoin="round"/>
</g>
</svg>
