<svg width="56" height="60" viewBox="0 0 56 60" fill="none" xmlns="http://www.w3.org/2000/svg">
<g id="Property 1=FALSE">
<g id="Icon">
<path id="Vector" d="M28.2132 9.99438H27.7732C27.2429 9.99438 26.7343 10.2051 26.3593 10.5801C25.9843 10.9551 25.7736 11.4637 25.7736 11.994V12.174C25.7732 12.5247 25.6806 12.8691 25.5052 13.1727C25.3297 13.4763 25.0774 13.7284 24.7737 13.9037L24.3438 14.1537C24.0398 14.3292 23.695 14.4216 23.344 14.4216C22.993 14.4216 22.6482 14.3292 22.3442 14.1537L22.1942 14.0737C21.7353 13.809 21.1902 13.7372 20.6785 13.874C20.1667 14.0109 19.7302 14.3452 19.4647 14.8036L19.2447 15.1835C18.98 15.6423 18.9082 16.1875 19.045 16.6992C19.1819 17.211 19.5162 17.6475 19.9746 17.913L20.1246 18.013C20.4268 18.1875 20.6781 18.438 20.8535 18.7397C21.0289 19.0414 21.1223 19.3837 21.1244 19.7327V20.2426C21.1258 20.595 21.034 20.9414 20.8585 21.2469C20.6829 21.5524 20.4297 21.8061 20.1246 21.9823L19.9746 22.0723C19.5162 22.3378 19.1819 22.7743 19.045 23.2861C18.9082 23.7978 18.98 24.343 19.2447 24.8018L19.4647 25.1818C19.7302 25.6401 20.1667 25.9744 20.6785 26.1113C21.1902 26.2481 21.7353 26.1763 22.1942 25.9116L22.3442 25.8316C22.6482 25.6561 22.993 25.5637 23.344 25.5637C23.695 25.5637 24.0398 25.6561 24.3438 25.8316L24.7737 26.0816C25.0774 26.2569 25.3297 26.509 25.5052 26.8126C25.6806 27.1162 25.7732 27.4606 25.7736 27.8113V27.9913C25.7736 28.5216 25.9843 29.0302 26.3593 29.4052C26.7343 29.7802 27.2429 29.9909 27.7732 29.9909H28.2132C28.7435 29.9909 29.2521 29.7802 29.6271 29.4052C30.0021 29.0302 30.2128 28.5216 30.2128 27.9913V27.8113C30.2132 27.4606 30.3057 27.1162 30.4812 26.8126C30.6567 26.509 30.9089 26.2569 31.2126 26.0816L31.6426 25.8316C31.9465 25.6561 32.2914 25.5637 32.6424 25.5637C32.9934 25.5637 33.3382 25.6561 33.6422 25.8316L33.7922 25.9116C34.251 26.1763 34.7962 26.2481 35.3079 26.1113C35.8197 25.9744 36.2562 25.6401 36.5217 25.1818L36.7417 24.7918C37.0064 24.333 37.0782 23.7878 36.9413 23.2761C36.8045 22.7643 36.4702 22.3278 36.0118 22.0623L35.8618 21.9823C35.5567 21.8061 35.3035 21.5524 35.1279 21.2469C34.9523 20.9414 34.8606 20.595 34.862 20.2426V19.7427C34.8606 19.3903 34.9523 19.0439 35.1279 18.7384C35.3035 18.4329 35.5567 18.1792 35.8618 18.003L36.0118 17.913C36.4702 17.6475 36.8045 17.211 36.9413 16.6992C37.0782 16.1875 37.0064 15.6423 36.7417 15.1835L36.5217 14.8036C36.2562 14.3452 35.8197 14.0109 35.3079 13.874C34.7962 13.7372 34.251 13.809 33.7922 14.0737L33.6422 14.1537C33.3382 14.3292 32.9934 14.4216 32.6424 14.4216C32.2914 14.4216 31.9465 14.3292 31.6426 14.1537L31.2126 13.9037C30.9089 13.7284 30.6567 13.4763 30.4812 13.1727C30.3057 12.8691 30.2132 12.5247 30.2128 12.174V11.994C30.2128 11.4637 30.0021 10.9551 29.6271 10.5801C29.2521 10.2051 28.7435 9.99438 28.2132 9.99438Z" stroke="currentColor" stroke-width="1.99965" stroke-linecap="round" stroke-linejoin="round"/>
<path id="Vector_2" d="M27.9931 22.9921C29.6497 22.9921 30.9926 21.6492 30.9926 19.9926C30.9926 18.3361 29.6497 16.9932 27.9931 16.9932C26.3366 16.9932 24.9937 18.3361 24.9937 19.9926C24.9937 21.6492 26.3366 22.9921 27.9931 22.9921Z" stroke="currentColor" stroke-width="1.99965" stroke-linecap="round" stroke-linejoin="round"/>
</g>
<g id="Layout">
<path id="&#236;&#132;&#164;&#236;&#160;&#149;" d="M26.5518 38.519V43.9097H25.626V41.2026H23.3057V40.4409H25.626V38.519H26.5518ZM26.5518 44.437V46.9214H20.7275V48.0581H26.9385V48.7964H19.8252V46.2183H25.6377V45.1753H19.8018V44.437H26.5518ZM21.4658 39.8433C21.4541 41.2144 22.5322 42.4565 24.0557 42.9604L23.5635 43.6753C22.4092 43.2651 21.4893 42.4448 21.0322 41.3901C20.5869 42.5796 19.6436 43.4878 18.4072 43.9331L17.9033 43.1948C19.4736 42.6792 20.5518 41.3667 20.5635 39.8433V38.8589H21.4658V39.8433ZM36.9229 38.519V44.73H35.9971V41.9995H33.8994V41.2378H35.9971V38.519H36.9229ZM33.4658 45.0581C35.6338 45.0581 36.958 45.7612 36.958 46.9917C36.958 48.2222 35.6338 48.9253 33.4658 48.937C31.2979 48.9253 29.9736 48.2222 29.9736 46.9917C29.9736 45.7612 31.2979 45.0581 33.4658 45.0581ZM33.4658 45.7729C31.8721 45.7729 30.876 46.23 30.8877 46.9917C30.876 47.7417 31.8721 48.1987 33.4658 48.1987C35.0596 48.1987 36.0439 47.7417 36.0439 46.9917C36.0439 46.23 35.0596 45.7729 33.4658 45.7729ZM31.9072 40.4292C31.9072 41.7886 32.9502 43.0776 34.4736 43.605L33.9932 44.3433C32.8213 43.9214 31.9131 43.0483 31.4736 41.9644C31.0166 43.189 30.0498 44.1675 28.8135 44.6362L28.333 43.8979C29.8799 43.3354 30.9814 41.9292 30.9814 40.4409V40.0542H28.626V39.2808H34.2393V40.0542H31.9072V40.4292Z" fill="currentColor"/>
</g>
</g>
</svg>
