<svg width="377" height="179" viewBox="0 0 377 179" fill="none" xmlns="http://www.w3.org/2000/svg">
<g filter="url(#filter0_dd_48_2060)">
<path d="M8 22C8 13.1635 15.1634 6 24 6H352.744C361.581 6 368.744 13.1634 368.744 22V152.945C368.744 161.782 361.581 168.945 352.744 168.945H24C15.1634 168.945 8 161.782 8 152.945V22Z" fill="#5E9E72"/>
<g clip-path="url(#clip0_48_2060)">
<path d="M25.9987 31.333L38.657 25.3369L32.6609 37.9952L31.3285 32.6654L25.9987 31.333Z" stroke="#E8E4DC" stroke-width="1.33245" stroke-linecap="round" stroke-linejoin="round"/>
</g>
<path d="M57.7561 25.366H59.2261V35.124H57.7561V25.366ZM55.8241 28.67H58.3441V29.846H55.8241V28.67ZM55.8241 31.386H58.3441V32.548H55.8241V31.386ZM48.6561 26.822H55.7541V27.984H48.6561V26.822ZM52.2541 28.586C52.8328 28.586 53.3415 28.6887 53.7801 28.894C54.2281 29.0993 54.5781 29.3887 54.8301 29.762C55.0821 30.1353 55.2081 30.5693 55.2081 31.064C55.2081 31.5493 55.0821 31.9787 54.8301 32.352C54.5781 32.7253 54.2281 33.0193 53.7801 33.234C53.3415 33.4393 52.8328 33.542 52.2541 33.542C51.6848 33.542 51.1761 33.4393 50.7281 33.234C50.2895 33.0193 49.9441 32.7253 49.6921 32.352C49.4401 31.9787 49.3141 31.5493 49.3141 31.064C49.3141 30.5693 49.4401 30.1353 49.6921 29.762C49.9441 29.3887 50.2895 29.0993 50.7281 28.894C51.1761 28.6887 51.6848 28.586 52.2541 28.586ZM52.2681 29.72C51.8015 29.72 51.4235 29.8413 51.1341 30.084C50.8541 30.3267 50.7141 30.6533 50.7141 31.064C50.7141 31.4747 50.8541 31.8013 51.1341 32.044C51.4235 32.2773 51.8015 32.394 52.2681 32.394C52.7255 32.394 53.0988 32.2773 53.3881 32.044C53.6775 31.8013 53.8221 31.4747 53.8221 31.064C53.8221 30.6533 53.6775 30.3267 53.3881 30.084C53.0988 29.8413 52.7255 29.72 52.2681 29.72ZM51.5401 25.338H53.0101V27.55H51.5401V25.338ZM50.8961 36.706H59.5201V37.896H50.8961V36.706ZM50.8961 34.298H52.3661V37.266H50.8961V34.298ZM71.083 25.352H72.483V38.148H71.083V25.352ZM69.291 30.406H71.601V31.61H69.291V30.406ZM68.311 25.604H69.697V37.546H68.311V25.604ZM63.985 27.34H65.119V28.67C65.119 29.4447 65.063 30.1867 64.951 30.896C64.839 31.596 64.6664 32.2493 64.433 32.856C64.1997 33.4533 63.901 33.9853 63.537 34.452C63.173 34.9187 62.7344 35.306 62.221 35.614L61.325 34.48C61.9504 34.1253 62.4544 33.6587 62.837 33.08C63.229 32.492 63.5184 31.82 63.705 31.064C63.8917 30.308 63.985 29.51 63.985 28.67V27.34ZM64.279 27.34H65.399V28.67C65.399 29.4353 65.4924 30.168 65.679 30.868C65.8657 31.5587 66.155 32.1793 66.547 32.73C66.939 33.2713 67.443 33.7053 68.059 34.032L67.219 35.152C66.5377 34.7787 65.9777 34.27 65.539 33.626C65.1004 32.9727 64.7784 32.226 64.573 31.386C64.377 30.5367 64.279 29.6313 64.279 28.67V27.34ZM61.675 26.766H67.555V27.97H61.675V26.766ZM81.689 25.786C82.333 25.786 82.907 25.9073 83.411 26.15C83.915 26.3927 84.3117 26.7333 84.601 27.172C84.8904 27.6013 85.035 28.1007 85.035 28.67C85.035 29.23 84.8904 29.7247 84.601 30.154C84.3117 30.5833 83.915 30.9193 83.411 31.162C82.907 31.4047 82.333 31.526 81.689 31.526C81.045 31.526 80.471 31.4047 79.967 31.162C79.463 30.9193 79.0617 30.5833 78.763 30.154C78.4737 29.7247 78.329 29.23 78.329 28.67C78.329 28.1007 78.4737 27.6013 78.763 27.172C79.0617 26.7333 79.463 26.3927 79.967 26.15C80.471 25.9073 81.045 25.786 81.689 25.786ZM81.689 26.976C81.3157 26.976 80.9844 27.046 80.695 27.186C80.4057 27.326 80.177 27.522 80.009 27.774C79.841 28.026 79.757 28.32 79.757 28.656C79.757 29.0013 79.841 29.3 80.009 29.552C80.177 29.804 80.4057 30 80.695 30.14C80.9844 30.2707 81.3157 30.336 81.689 30.336C82.0624 30.336 82.3937 30.2707 82.683 30.14C82.9724 30 83.201 29.804 83.369 29.552C83.537 29.3 83.621 29.0013 83.621 28.656C83.621 28.32 83.537 28.026 83.369 27.774C83.201 27.522 82.9677 27.326 82.669 27.186C82.3797 27.046 82.053 26.976 81.689 26.976ZM87.163 25.366H88.633V31.848H87.163V25.366ZM80.247 32.422H88.633V35.712H81.717V37.462H80.275V34.634H87.191V33.57H80.247V32.422ZM80.275 36.846H89.025V37.994H80.275V36.846ZM97.8439 28.572H100.532V29.776H97.8439V28.572ZM100.098 25.366H101.568V32.982H100.098V25.366ZM97.3119 33.318C98.2079 33.318 98.9733 33.416 99.6079 33.612C100.252 33.7987 100.747 34.074 101.092 34.438C101.447 34.7927 101.624 35.2267 101.624 35.74C101.624 36.5053 101.237 37.098 100.462 37.518C99.6966 37.938 98.6466 38.148 97.3119 38.148C95.9773 38.148 94.9226 37.938 94.1479 37.518C93.3733 37.098 92.9859 36.5053 92.9859 35.74C92.9859 35.2267 93.1586 34.7927 93.5039 34.438C93.8586 34.074 94.3579 33.7987 95.0019 33.612C95.6553 33.416 96.4253 33.318 97.3119 33.318ZM97.3119 34.438C96.7053 34.438 96.1873 34.4893 95.7579 34.592C95.3379 34.6947 95.0159 34.8393 94.7919 35.026C94.5679 35.2127 94.4559 35.4507 94.4559 35.74C94.4559 36.0107 94.5679 36.244 94.7919 36.44C95.0159 36.636 95.3379 36.7853 95.7579 36.888C96.1873 36.9813 96.7053 37.028 97.3119 37.028C97.9186 37.028 98.4319 36.9813 98.8519 36.888C99.2719 36.7853 99.5939 36.636 99.8179 36.44C100.051 36.244 100.168 36.0107 100.168 35.74C100.168 35.4507 100.051 35.2127 99.8179 35.026C99.5939 34.8393 99.2719 34.6947 98.8519 34.592C98.4319 34.4893 97.9186 34.438 97.3119 34.438ZM94.0919 26.654H95.2959V27.578C95.2959 28.3807 95.1513 29.1367 94.8619 29.846C94.5819 30.546 94.1759 31.1667 93.6439 31.708C93.1119 32.24 92.4679 32.6413 91.7119 32.912L90.9699 31.75C91.4646 31.5727 91.9033 31.3393 92.2859 31.05C92.6779 30.7607 93.0093 30.4293 93.2799 30.056C93.5506 29.6827 93.7513 29.286 93.8819 28.866C94.0219 28.446 94.0919 28.0167 94.0919 27.578V26.654ZM94.3859 26.654H95.5759V27.578C95.5759 28.1007 95.6926 28.614 95.9259 29.118C96.1593 29.622 96.4999 30.0747 96.9479 30.476C97.3959 30.868 97.9419 31.1807 98.5859 31.414L97.8579 32.562C97.1206 32.3007 96.4906 31.9227 95.9679 31.428C95.4546 30.924 95.0626 30.3407 94.7919 29.678C94.5213 29.006 94.3859 28.306 94.3859 27.578V26.654ZM91.3899 26.22H98.2359V27.41H91.3899V26.22Z" fill="#E8E4DC"/>
<path d="M24.72 56.9253H32.694V58.8153H24.72V56.9253ZM28.734 59.5713C29.442 59.5713 30.066 59.7393 30.606 60.0753C31.158 60.4113 31.59 60.8793 31.902 61.4793C32.226 62.0673 32.388 62.7513 32.388 63.5313C32.388 64.3113 32.226 65.0013 31.902 65.6013C31.59 66.1893 31.158 66.6513 30.606 66.9873C30.066 67.3233 29.442 67.4913 28.734 67.4913C28.026 67.4913 27.396 67.3233 26.844 66.9873C26.292 66.6513 25.86 66.1893 25.548 65.6013C25.236 65.0013 25.08 64.3113 25.08 63.5313C25.08 62.7513 25.236 62.0673 25.548 61.4793C25.86 60.8793 26.292 60.4113 26.844 60.0753C27.408 59.7393 28.038 59.5713 28.734 59.5713ZM28.734 61.5513C28.446 61.5513 28.182 61.6293 27.942 61.7853C27.702 61.9413 27.516 62.1693 27.384 62.4693C27.252 62.7573 27.186 63.1113 27.186 63.5313C27.186 63.9513 27.252 64.3113 27.384 64.6113C27.516 64.9113 27.702 65.1393 27.942 65.2953C28.182 65.4393 28.446 65.5113 28.734 65.5113C29.034 65.5113 29.298 65.4393 29.526 65.2953C29.754 65.1393 29.934 64.9113 30.066 64.6113C30.198 64.3113 30.264 63.9513 30.264 63.5313C30.264 63.1113 30.198 62.7573 30.066 62.4693C29.934 62.1693 29.754 61.9413 29.526 61.7853C29.298 61.6293 29.034 61.5513 28.734 61.5513ZM36.78 54.4053H39.048V71.0733H36.78V54.4053ZM34.782 61.1913H37.518V63.1173H34.782V61.1913ZM33.27 54.7113H35.502V70.3713H33.27V54.7113ZM27.564 54.8553H29.922V58.1133H27.564V54.8553ZM52.8886 54.4053H55.2826V71.1273H52.8886V54.4053ZM48.4966 57.8613H53.6626V59.8053H48.4966V57.8613ZM42.1426 56.1333H44.5186V66.4833H42.1426V56.1333ZM42.1426 65.5473H43.4926C44.4406 65.5473 45.3046 65.5353 46.0846 65.5113C46.8766 65.4873 47.6326 65.4393 48.3526 65.3673C49.0726 65.2833 49.8046 65.1693 50.5486 65.0253L50.7826 66.9873C50.0266 67.1313 49.2706 67.2453 48.5146 67.3293C47.7706 67.4013 46.9906 67.4553 46.1746 67.4913C45.3586 67.5153 44.4646 67.5273 43.4926 67.5273H42.1426V65.5473ZM48.4966 61.6233H53.6626V63.5493H48.4966V61.6233ZM63.2192 55.5213C64.0832 55.5213 64.8632 55.6953 65.5592 56.0433C66.2552 56.3913 66.8012 56.8773 67.1972 57.5013C67.5932 58.1133 67.7912 58.8213 67.7912 59.6253C67.7912 60.4173 67.5932 61.1253 67.1972 61.7493C66.8012 62.3733 66.2552 62.8593 65.5592 63.2073C64.8632 63.5553 64.0832 63.7293 63.2192 63.7293C62.3432 63.7293 61.5572 63.5553 60.8612 63.2073C60.1652 62.8593 59.6132 62.3733 59.2052 61.7493C58.8092 61.1253 58.6112 60.4173 58.6112 59.6253C58.6112 58.8213 58.8092 58.1133 59.2052 57.5013C59.6132 56.8773 60.1652 56.3913 60.8612 56.0433C61.5572 55.6953 62.3432 55.5213 63.2192 55.5213ZM63.2192 57.5733C62.7872 57.5733 62.3972 57.6573 62.0492 57.8253C61.7132 57.9813 61.4432 58.2153 61.2392 58.5273C61.0472 58.8273 60.9512 59.1933 60.9512 59.6253C60.9512 60.0573 61.0472 60.4293 61.2392 60.7413C61.4432 61.0533 61.7132 61.2933 62.0492 61.4613C62.3972 61.6173 62.7872 61.6953 63.2192 61.6953C63.6392 61.6953 64.0172 61.6173 64.3532 61.4613C64.6892 61.2933 64.9532 61.0533 65.1452 60.7413C65.3492 60.4293 65.4512 60.0573 65.4512 59.6253C65.4512 59.1933 65.3492 58.8273 65.1452 58.5273C64.9532 58.2153 64.6892 57.9813 64.3532 57.8253C64.0172 57.6573 63.6392 57.5733 63.2192 57.5733ZM69.3572 54.3873H71.7512V71.1093H69.3572V54.3873ZM58.1972 67.7433L57.9272 65.7993C58.8992 65.7993 59.9732 65.7933 61.1492 65.7813C62.3372 65.7573 63.5552 65.7093 64.8032 65.6373C66.0632 65.5533 67.2812 65.4273 68.4572 65.2593L68.6192 66.9873C67.4192 67.2273 66.2012 67.4013 64.9652 67.5093C63.7292 67.6053 62.5352 67.6713 61.3832 67.7073C60.2312 67.7313 59.1692 67.7433 58.1972 67.7433ZM82.9106 55.8453H84.8726V56.8713C84.8726 57.8673 84.6986 58.8153 84.3506 59.7153C84.0146 60.6153 83.4926 61.3953 82.7846 62.0553C82.0886 62.7153 81.2006 63.2133 80.1206 63.5493L78.9326 61.6773C79.6286 61.4733 80.2226 61.2033 80.7146 60.8673C81.2186 60.5193 81.6326 60.1353 81.9566 59.7153C82.2806 59.2833 82.5206 58.8273 82.6766 58.3473C82.8326 57.8553 82.9106 57.3633 82.9106 56.8713V55.8453ZM83.4146 55.8453H85.3586V56.8713C85.3586 57.3393 85.4366 57.8013 85.5926 58.2573C85.7486 58.7013 85.9826 59.1273 86.2946 59.5353C86.6186 59.9433 87.0266 60.3093 87.5186 60.6333C88.0106 60.9453 88.5986 61.2033 89.2826 61.4073L88.0946 63.2613C87.0506 62.9493 86.1806 62.4813 85.4846 61.8573C84.7886 61.2213 84.2666 60.4713 83.9186 59.6073C83.5826 58.7433 83.4146 57.8313 83.4146 56.8713V55.8453ZM79.5806 55.3053H88.6526V57.1953H79.5806V55.3053ZM90.3266 54.4233H92.7206V63.4593H90.3266V54.4233ZM81.6506 64.1793H84.0086V65.6913H90.3446V64.1793H92.7206V70.9113H81.6506V64.1793ZM84.0086 67.5273V68.9853H90.3446V67.5273H84.0086ZM108.92 58.2393H112.07V60.1833H108.92V58.2393ZM111.44 54.4233H113.852V64.0533H111.44V54.4233ZM102.728 64.7193H113.852V70.9113H102.728V64.7193ZM111.494 66.5913H105.086V69.0213H111.494V66.5913ZM103.754 55.9533H105.698V57.0153C105.698 58.0593 105.53 59.0553 105.194 60.0033C104.858 60.9513 104.342 61.7853 103.646 62.5053C102.962 63.2133 102.08 63.7413 101 64.0893L99.8121 62.1993C100.496 61.9713 101.084 61.6773 101.576 61.3173C102.08 60.9453 102.488 60.5253 102.8 60.0573C103.124 59.5893 103.364 59.0973 103.52 58.5813C103.676 58.0653 103.754 57.5433 103.754 57.0153V55.9533ZM104.258 55.9533H106.166V56.9973C106.166 57.6453 106.298 58.2933 106.562 58.9413C106.826 59.5773 107.234 60.1533 107.786 60.6693C108.35 61.1853 109.07 61.5933 109.946 61.8933L108.776 63.7653C107.744 63.4173 106.892 62.9013 106.22 62.2173C105.56 61.5333 105.068 60.7413 104.744 59.8413C104.42 58.9413 104.258 57.9933 104.258 56.9973V55.9533ZM100.46 55.2513H109.424V57.1593H100.46V55.2513ZM127.909 54.4233H130.303V63.8373H127.909V54.4233ZM119.215 64.5933H130.303V70.9113H119.215V64.5933ZM127.963 66.4833H121.573V69.0213H127.963V66.4833ZM120.367 55.0353H122.347V56.6193C122.347 57.6513 122.173 58.6353 121.825 59.5713C121.477 60.5073 120.949 61.3233 120.241 62.0193C119.533 62.7033 118.627 63.2133 117.523 63.5493L116.371 61.6773C117.067 61.4613 117.667 61.1733 118.171 60.8133C118.675 60.4533 119.089 60.0513 119.413 59.6073C119.737 59.1513 119.977 58.6713 120.133 58.1673C120.289 57.6513 120.367 57.1353 120.367 56.6193V55.0353ZM120.853 55.0353H122.797V56.6193C122.797 57.1353 122.875 57.6333 123.031 58.1133C123.187 58.5933 123.421 59.0493 123.733 59.4813C124.045 59.9013 124.441 60.2733 124.921 60.5973C125.413 60.9213 126.001 61.1853 126.685 61.3893L125.533 63.2433C124.729 63.0153 124.033 62.6853 123.445 62.2533C122.869 61.8213 122.383 61.3173 121.987 60.7413C121.603 60.1533 121.315 59.5113 121.123 58.8153C120.943 58.1193 120.853 57.3873 120.853 56.6193V55.0353Z" fill="#E8E4DC"/>
<g clip-path="url(#clip1_48_2060)">
<path d="M31.9947 101.649C35.6741 101.649 38.6569 98.666 38.6569 94.9865C38.6569 91.307 35.6741 88.3242 31.9947 88.3242C28.3152 88.3242 25.3324 91.307 25.3324 94.9865C25.3324 98.666 28.3152 101.649 31.9947 101.649Z" stroke="#E8E4DC" stroke-width="1.33245" stroke-linecap="round" stroke-linejoin="round"/>
<path d="M31.9948 90.9893V94.9866L34.6597 96.3191" stroke="#E8E4DC" stroke-width="1.33245" stroke-linecap="round" stroke-linejoin="round"/>
</g>
<path d="M52.6177 89.8055V99.9873H51.3847V91.0981H51.325L48.8392 92.7487V91.4958L51.3847 89.8055H52.6177ZM55.5459 99.9873V99.0924L58.9067 95.4134C59.3011 94.9826 59.6259 94.608 59.8811 94.2899C60.1364 93.9684 60.3253 93.6668 60.4479 93.385C60.5739 93.1 60.6368 92.8017 60.6368 92.4901C60.6368 92.1322 60.5507 91.8223 60.3783 91.5605C60.2093 91.2986 59.9773 91.0964 59.6823 90.9539C59.3873 90.8114 59.0559 90.7401 58.688 90.7401C58.2969 90.7401 57.9555 90.8213 57.6638 90.9838C57.3755 91.1428 57.1517 91.3666 56.9927 91.6549C56.8369 91.9433 56.759 92.2813 56.759 92.6691H55.5857C55.5857 92.0725 55.7232 91.5489 55.9983 91.0981C56.2734 90.6473 56.648 90.296 57.1219 90.0441C57.5992 89.7922 58.1345 89.6663 58.7277 89.6663C59.3243 89.6663 59.853 89.7922 60.3137 90.0441C60.7744 90.296 61.1356 90.6357 61.3975 91.0633C61.6593 91.4909 61.7902 91.9665 61.7902 92.4901C61.7902 92.8647 61.7223 93.2309 61.5864 93.5889C61.4538 93.9435 61.2218 94.3396 60.8904 94.7771C60.5623 95.2113 60.1065 95.7416 59.5232 96.368L57.2363 98.814V98.8936H61.9692V99.9873H55.5459ZM64.8975 98.6847C64.6522 98.6847 64.4418 98.5969 64.2661 98.4213C64.0904 98.2456 64.0026 98.0351 64.0026 97.7899C64.0026 97.5446 64.0904 97.3341 64.2661 97.1585C64.4418 96.9828 64.6522 96.895 64.8975 96.895C65.1427 96.895 65.3532 96.9828 65.5289 97.1585C65.7045 97.3341 65.7924 97.5446 65.7924 97.7899C65.7924 97.9523 65.7509 98.1014 65.6681 98.2373C65.5885 98.3732 65.4808 98.4826 65.3449 98.5654C65.2124 98.645 65.0632 98.6847 64.8975 98.6847ZM64.8975 93.5342C64.6522 93.5342 64.4418 93.4463 64.2661 93.2707C64.0904 93.095 64.0026 92.8846 64.0026 92.6393C64.0026 92.394 64.0904 92.1836 64.2661 92.0079C64.4418 91.8322 64.6522 91.7444 64.8975 91.7444C65.1427 91.7444 65.3532 91.8322 65.5289 92.0079C65.7045 92.1836 65.7924 92.394 65.7924 92.6393C65.7924 92.8017 65.7509 92.9508 65.6681 93.0867C65.5885 93.2226 65.4808 93.332 65.3449 93.4149C65.2124 93.4944 65.0632 93.5342 64.8975 93.5342ZM71.3183 100.127C70.662 100.127 70.0771 100.014 69.5633 99.7884C69.0529 99.5631 68.6469 99.2499 68.3453 98.8488C68.047 98.4445 67.8846 97.9755 67.8581 97.4419H69.1109C69.1374 97.77 69.2501 98.0534 69.449 98.292C69.6478 98.5273 69.908 98.7096 70.2295 98.8389C70.551 98.9681 70.9073 99.0328 71.2984 99.0328C71.7359 99.0328 72.1237 98.9565 72.4618 98.8041C72.7998 98.6516 73.065 98.4395 73.2572 98.1677C73.4494 97.8959 73.5456 97.5811 73.5456 97.2231C73.5456 96.8486 73.4528 96.5188 73.2672 96.2338C73.0816 95.9454 72.8098 95.72 72.4518 95.5576C72.0939 95.3952 71.6564 95.314 71.1393 95.314H70.324V94.2203H71.1393C71.5437 94.2203 71.8983 94.1473 72.2032 94.0015C72.5115 93.8557 72.7518 93.6502 72.9241 93.385C73.0998 93.1199 73.1876 92.8083 73.1876 92.4504C73.1876 92.1057 73.1114 91.8057 72.9589 91.5505C72.8065 91.2953 72.591 91.0964 72.3126 90.9539C72.0375 90.8114 71.7127 90.7401 71.3382 90.7401C70.9869 90.7401 70.6554 90.8048 70.3439 90.934C70.0356 91.06 69.7837 91.2439 69.5882 91.4859C69.3926 91.7245 69.2866 92.0129 69.27 92.3509H68.0768C68.0967 91.8173 68.2575 91.35 68.5591 90.949C68.8607 90.5446 69.2551 90.2297 69.7423 90.0044C70.2328 89.779 70.7714 89.6663 71.3581 89.6663C71.9878 89.6663 72.528 89.7939 72.9788 90.0491C73.4296 90.301 73.7759 90.6341 74.0179 91.0484C74.2598 91.4627 74.3808 91.9101 74.3808 92.3907C74.3808 92.9641 74.23 93.453 73.9284 93.8573C73.6301 94.2617 73.2241 94.5418 72.7103 94.6975V94.7771C73.3533 94.8831 73.8555 95.1566 74.2167 95.5974C74.578 96.0349 74.7586 96.5768 74.7586 97.2231C74.7586 97.7766 74.6078 98.2738 74.3062 98.7146C74.0079 99.1521 73.6003 99.4968 73.0832 99.7487C72.5662 100.001 71.9779 100.127 71.3183 100.127ZM80.113 100.127C79.364 100.127 78.726 99.9227 78.199 99.515C77.672 99.104 77.2693 98.5091 76.9909 97.7302C76.7125 96.948 76.5733 96.0034 76.5733 94.8964C76.5733 93.796 76.7125 92.8564 76.9909 92.0775C77.2726 91.2953 77.677 90.6987 78.2039 90.2877C78.7342 89.8734 79.3706 89.6663 80.113 89.6663C80.8555 89.6663 81.4902 89.8734 82.0172 90.2877C82.5475 90.6987 82.9518 91.2953 83.2302 92.0775C83.5119 92.8564 83.6528 93.796 83.6528 94.8964C83.6528 96.0034 83.5136 96.948 83.2352 97.7302C82.9568 98.5091 82.5541 99.104 82.0271 99.515C81.5001 99.9227 80.8621 100.127 80.113 100.127ZM80.113 99.0328C80.8555 99.0328 81.4322 98.6748 81.8432 97.9589C82.2541 97.243 82.4596 96.2222 82.4596 94.8964C82.4596 94.0148 82.3652 93.2641 82.1762 92.6443C81.9906 92.0245 81.7222 91.5522 81.3708 91.2274C81.0228 90.9026 80.6036 90.7401 80.113 90.7401C79.3772 90.7401 78.8022 91.1031 78.3879 91.8289C77.9736 92.5515 77.7664 93.574 77.7664 94.8964C77.7664 95.778 77.8592 96.5271 78.0449 97.1436C78.2305 97.76 78.4973 98.229 78.8453 98.5505C79.1966 98.872 79.6192 99.0328 80.113 99.0328ZM89.5789 95.9106C89.569 95.3604 89.6585 94.9179 89.8474 94.5832C90.0363 94.2484 90.2816 94.0048 90.5832 93.8524C90.8881 93.6999 91.2096 93.6237 91.5477 93.6237C91.8858 93.6237 92.194 93.6982 92.4724 93.8474C92.7541 93.9932 93.0756 94.2236 93.4369 94.5384C93.6822 94.7506 93.8777 94.8997 94.0235 94.9859C94.1727 95.0721 94.3351 95.1151 94.5108 95.1151C94.7958 95.1151 95.0212 95.0124 95.1869 94.8069C95.3526 94.5981 95.4322 94.2965 95.4255 93.9021H96.4994C96.5093 94.4523 96.4199 94.8947 96.2309 95.2295C96.0453 95.5642 95.8001 95.8079 95.4951 95.9603C95.1902 96.1128 94.8687 96.189 94.5307 96.189C94.1926 96.189 93.8843 96.1161 93.6059 95.9703C93.3275 95.8211 93.006 95.5891 92.6414 95.2742C92.3995 95.0621 92.2039 94.913 92.0548 94.8268C91.9057 94.7406 91.7432 94.6975 91.5676 94.6975C91.2991 94.6975 91.0771 94.792 90.9014 94.9809C90.729 95.1665 90.6462 95.4764 90.6528 95.9106H89.5789ZM106.225 89.8055V99.9873H104.992V91.0981H104.932L102.447 92.7487V91.4958L104.992 89.8055H106.225ZM108.915 97.8992V96.885L113.389 89.8055H114.125V91.3765H113.628L110.247 96.7259V96.8055H116.273V97.8992H108.915ZM113.707 99.9873V97.591V97.1187V89.8055H114.881V99.9873H113.707ZM119.011 98.6847C118.765 98.6847 118.555 98.5969 118.379 98.4213C118.204 98.2456 118.116 98.0351 118.116 97.7899C118.116 97.5446 118.204 97.3341 118.379 97.1585C118.555 96.9828 118.765 96.895 119.011 96.895C119.256 96.895 119.466 96.9828 119.642 97.1585C119.818 97.3341 119.906 97.5446 119.906 97.7899C119.906 97.9523 119.864 98.1014 119.781 98.2373C119.702 98.3732 119.594 98.4826 119.458 98.5654C119.326 98.645 119.176 98.6847 119.011 98.6847ZM119.011 93.5342C118.765 93.5342 118.555 93.4463 118.379 93.2707C118.204 93.095 118.116 92.8846 118.116 92.6393C118.116 92.394 118.204 92.1836 118.379 92.0079C118.555 91.8322 118.765 91.7444 119.011 91.7444C119.256 91.7444 119.466 91.8322 119.642 92.0079C119.818 92.1836 119.906 92.394 119.906 92.6393C119.906 92.8017 119.864 92.9508 119.781 93.0867C119.702 93.2226 119.594 93.332 119.458 93.4149C119.326 93.4944 119.176 93.5342 119.011 93.5342ZM125.312 100.127C124.563 100.127 123.925 99.9227 123.398 99.515C122.871 99.104 122.469 98.5091 122.19 97.7302C121.912 96.948 121.772 96.0034 121.772 94.8964C121.772 93.796 121.912 92.8564 122.19 92.0775C122.472 91.2953 122.876 90.6987 123.403 90.2877C123.933 89.8734 124.57 89.6663 125.312 89.6663C126.055 89.6663 126.689 89.8734 127.216 90.2877C127.747 90.6987 128.151 91.2953 128.429 92.0775C128.711 92.8564 128.852 93.796 128.852 94.8964C128.852 96.0034 128.713 96.948 128.434 97.7302C128.156 98.5091 127.753 99.104 127.226 99.515C126.699 99.9227 126.061 100.127 125.312 100.127ZM125.312 99.0328C126.055 99.0328 126.631 98.6748 127.042 97.9589C127.453 97.243 127.659 96.2222 127.659 94.8964C127.659 94.0148 127.564 93.2641 127.375 92.6443C127.19 92.0245 126.921 91.5522 126.57 91.2274C126.222 90.9026 125.803 90.7401 125.312 90.7401C124.576 90.7401 124.001 91.1031 123.587 91.8289C123.173 92.5515 122.966 93.574 122.966 94.8964C122.966 95.778 123.058 96.5271 123.244 97.1436C123.43 97.76 123.696 98.229 124.045 98.5505C124.396 98.872 124.818 99.0328 125.312 99.0328ZM134.062 100.127C133.313 100.127 132.675 99.9227 132.148 99.515C131.621 99.104 131.219 98.5091 130.94 97.7302C130.662 96.948 130.522 96.0034 130.522 94.8964C130.522 93.796 130.662 92.8564 130.94 92.0775C131.222 91.2953 131.626 90.6987 132.153 90.2877C132.683 89.8734 133.32 89.6663 134.062 89.6663C134.805 89.6663 135.439 89.8734 135.966 90.2877C136.497 90.6987 136.901 91.2953 137.179 92.0775C137.461 92.8564 137.602 93.796 137.602 94.8964C137.602 96.0034 137.463 96.948 137.184 97.7302C136.906 98.5091 136.503 99.104 135.976 99.515C135.449 99.9227 134.811 100.127 134.062 100.127ZM134.062 99.0328C134.805 99.0328 135.381 98.6748 135.792 97.9589C136.203 97.243 136.409 96.2222 136.409 94.8964C136.409 94.0148 136.314 93.2641 136.125 92.6443C135.94 92.0245 135.671 91.5522 135.32 91.2274C134.972 90.9026 134.553 90.7401 134.062 90.7401C133.326 90.7401 132.751 91.1031 132.337 91.8289C131.923 92.5515 131.716 93.574 131.716 94.8964C131.716 95.778 131.808 96.5271 131.994 97.1436C132.18 97.76 132.446 98.229 132.795 98.5505C133.146 98.872 133.568 99.0328 134.062 99.0328Z" fill="#E8E4DC"/>
<path d="M150.916 98.118C150.515 98.118 150.149 98.0202 149.818 97.8247C149.486 97.6258 149.221 97.3606 149.022 97.0292C148.827 96.6978 148.729 96.3315 148.729 95.9305C148.729 95.5261 148.827 95.1599 149.022 94.8318C149.221 94.5003 149.486 94.2368 149.818 94.0413C150.149 93.8424 150.515 93.743 150.916 93.743C151.321 93.743 151.687 93.8424 152.015 94.0413C152.347 94.2368 152.61 94.5003 152.806 94.8318C153.004 95.1599 153.104 95.5261 153.104 95.9305C153.104 96.3315 153.004 96.6978 152.806 97.0292C152.61 97.3606 152.347 97.6258 152.015 97.8247C151.687 98.0202 151.321 98.118 150.916 98.118Z" fill="#E8E4DC"/>
<g clip-path="url(#clip2_48_2060)">
<path d="M174.142 93.654C174.142 96.9805 170.452 100.445 169.213 101.515C169.097 101.602 168.957 101.649 168.812 101.649C168.668 101.649 168.527 101.602 168.412 101.515C167.173 100.445 163.483 96.9805 163.483 93.654C163.483 92.2405 164.044 90.8848 165.044 89.8853C166.043 88.8858 167.399 88.3242 168.812 88.3242C170.226 88.3242 171.582 88.8858 172.581 89.8853C173.581 90.8848 174.142 92.2405 174.142 93.654Z" stroke="#E8E4DC" stroke-width="1.33245" stroke-linecap="round" stroke-linejoin="round"/>
<path d="M168.812 95.6536C169.916 95.6536 170.811 94.7588 170.811 93.6549C170.811 92.5511 169.916 91.6562 168.812 91.6562C167.709 91.6562 166.814 92.5511 166.814 93.6549C166.814 94.7588 167.709 95.6536 168.812 95.6536Z" stroke="#E8E4DC" stroke-width="1.33245" stroke-linecap="round" stroke-linejoin="round"/>
</g>
<path d="M188.694 89.1233H189.66V90.4253C189.66 91.2466 189.51 92.0026 189.212 92.6933C188.922 93.384 188.512 93.9906 187.98 94.5133C187.457 95.0266 186.832 95.4186 186.104 95.6893L185.488 94.7513C186.141 94.518 186.706 94.1866 187.182 93.7573C187.658 93.328 188.026 92.8286 188.288 92.2593C188.558 91.6806 188.694 91.0693 188.694 90.4253V89.1233ZM188.904 89.1233H189.842V90.3833C189.842 90.9806 189.972 91.5453 190.234 92.0773C190.495 92.6093 190.854 93.0806 191.312 93.4913C191.778 93.8926 192.32 94.196 192.936 94.4013L192.306 95.3113C191.624 95.05 191.027 94.6813 190.514 94.2053C190 93.7293 189.604 93.1646 189.324 92.5113C189.044 91.858 188.904 91.1486 188.904 90.3833V89.1233ZM194.756 88.4093H195.918V95.8993H194.756V88.4093ZM191.746 96.2773C193.052 96.2773 194.079 96.4873 194.826 96.9073C195.582 97.3273 195.96 97.9153 195.96 98.6713C195.96 99.418 195.582 100.001 194.826 100.421C194.079 100.841 193.052 101.051 191.746 101.051C190.439 101.051 189.408 100.841 188.652 100.421C187.905 100.001 187.532 99.418 187.532 98.6713C187.532 97.9153 187.905 97.3273 188.652 96.9073C189.408 96.4873 190.439 96.2773 191.746 96.2773ZM191.746 97.2013C191.111 97.2013 190.565 97.262 190.108 97.3833C189.65 97.4953 189.296 97.6633 189.044 97.8873C188.801 98.102 188.68 98.3633 188.68 98.6713C188.68 98.97 188.801 99.2313 189.044 99.4553C189.296 99.67 189.65 99.838 190.108 99.9593C190.565 100.071 191.111 100.127 191.746 100.127C192.39 100.127 192.936 100.071 193.384 99.9593C193.841 99.838 194.191 99.67 194.434 99.4553C194.686 99.2313 194.812 98.97 194.812 98.6713C194.812 98.3633 194.686 98.102 194.434 97.8873C194.191 97.6633 193.841 97.4953 193.384 97.3833C192.936 97.262 192.39 97.2013 191.746 97.2013ZM191.998 91.0833H194.994V92.0493H191.998V91.0833ZM201.489 89.1793H202.455V90.7333C202.455 91.564 202.31 92.3293 202.021 93.0293C201.731 93.72 201.325 94.322 200.803 94.8353C200.28 95.3486 199.664 95.7406 198.955 96.0113L198.325 95.0873C198.969 94.8633 199.529 94.5366 200.005 94.1073C200.481 93.6686 200.845 93.16 201.097 92.5813C201.358 92.0026 201.489 91.3866 201.489 90.7333V89.1793ZM201.699 89.1793H202.637V90.7753C202.637 91.2046 202.711 91.6246 202.861 92.0353C203.019 92.446 203.234 92.8333 203.505 93.1973C203.785 93.552 204.111 93.8646 204.485 94.1353C204.867 94.3966 205.292 94.6113 205.759 94.7793L205.171 95.7033C204.48 95.442 203.873 95.0686 203.351 94.5833C202.828 94.098 202.422 93.5286 202.133 92.8753C201.843 92.222 201.699 91.522 201.699 90.7753V89.1793ZM207.047 88.4093H208.209V97.7613H207.047V88.4093ZM207.845 92.2873H210.071V93.2673H207.845V92.2873ZM200.341 99.8473H208.769V100.799H200.341V99.8473ZM200.341 96.8653H201.517V100.309H200.341V96.8653ZM216.972 88.6473C217.886 88.6473 218.675 88.7406 219.338 88.9273C220.01 89.114 220.523 89.3846 220.878 89.7393C221.242 90.0846 221.424 90.5046 221.424 90.9993C221.424 91.4846 221.242 91.9046 220.878 92.2593C220.523 92.6046 220.01 92.8706 219.338 93.0573C218.675 93.2346 217.886 93.3233 216.972 93.3233C216.057 93.3233 215.264 93.2346 214.592 93.0573C213.929 92.8706 213.416 92.6046 213.052 92.2593C212.697 91.9046 212.52 91.4846 212.52 90.9993C212.52 90.5046 212.697 90.0846 213.052 89.7393C213.416 89.3846 213.929 89.114 214.592 88.9273C215.264 88.7406 216.057 88.6473 216.972 88.6473ZM216.972 89.5573C216.3 89.5573 215.721 89.6133 215.236 89.7253C214.75 89.8373 214.372 90.0006 214.102 90.2153C213.84 90.43 213.71 90.6913 213.71 90.9993C213.71 91.298 213.84 91.5546 214.102 91.7693C214.372 91.984 214.75 92.1473 215.236 92.2593C215.721 92.3713 216.3 92.4273 216.972 92.4273C217.653 92.4273 218.236 92.3713 218.722 92.2593C219.207 92.1473 219.58 91.984 219.842 91.7693C220.103 91.5546 220.234 91.298 220.234 90.9993C220.234 90.6913 220.103 90.43 219.842 90.2153C219.58 90.0006 219.207 89.8373 218.722 89.7253C218.236 89.6133 217.653 89.5573 216.972 89.5573ZM212.702 96.0953H213.85V97.4813H220.08V96.0953H221.242V100.911H212.702V96.0953ZM213.85 98.3913V99.9593H220.08V98.3913H213.85ZM211.26 94.3313H222.698V95.2693H211.26V94.3313ZM228.594 89.3753H234.292V95.0033H228.594V89.3753ZM233.144 90.3133H229.728V94.0653H233.144V90.3133ZM236.742 88.4093H237.904V96.8233H236.742V88.4093ZM237.582 91.8673H239.766V92.8333H237.582V91.8673ZM233.494 96.2213H234.502V96.5993C234.502 97.1966 234.371 97.738 234.11 98.2233C233.858 98.7086 233.508 99.1426 233.06 99.5253C232.621 99.8986 232.117 100.211 231.548 100.463C230.979 100.725 230.377 100.911 229.742 101.023L229.28 100.099C229.84 100.006 230.372 99.8566 230.876 99.6513C231.389 99.446 231.842 99.1893 232.234 98.8813C232.626 98.5733 232.934 98.228 233.158 97.8453C233.382 97.4626 233.494 97.0473 233.494 96.5993V96.2213ZM233.662 96.2213H234.642V96.5993C234.642 97.0473 234.754 97.4626 234.978 97.8453C235.211 98.228 235.524 98.5733 235.916 98.8813C236.308 99.1893 236.756 99.446 237.26 99.6513C237.773 99.8566 238.31 100.006 238.87 100.099L238.408 101.023C237.773 100.911 237.171 100.725 236.602 100.463C236.033 100.211 235.524 99.8986 235.076 99.5253C234.637 99.1426 234.292 98.7086 234.04 98.2233C233.788 97.738 233.662 97.1966 233.662 96.5993V96.2213ZM244.329 89.5013H245.281V90.4813C245.281 91.2186 245.132 91.9093 244.833 92.5533C244.534 93.1973 244.114 93.7573 243.573 94.2333C243.032 94.7 242.406 95.0546 241.697 95.2973L241.109 94.3733C241.585 94.224 242.019 94.0186 242.411 93.7573C242.803 93.496 243.139 93.1926 243.419 92.8473C243.708 92.502 243.932 92.1286 244.091 91.7273C244.25 91.3166 244.329 90.9013 244.329 90.4813V89.5013ZM244.553 89.5013H245.505V90.4813C245.505 90.8826 245.58 91.2746 245.729 91.6573C245.888 92.04 246.112 92.3946 246.401 92.7213C246.69 93.048 247.031 93.3373 247.423 93.5893C247.815 93.832 248.244 94.0233 248.711 94.1633L248.137 95.0733C247.437 94.8493 246.816 94.5133 246.275 94.0653C245.734 93.6173 245.309 93.0853 245.001 92.4693C244.702 91.8533 244.553 91.1906 244.553 90.4813V89.5013ZM241.431 89.2493H248.361V90.1873H241.431V89.2493ZM250.167 88.4093H251.329V95.2693H250.167V88.4093ZM243.181 95.8853H244.315V97.3973H250.181V95.8853H251.329V100.911H243.181V95.8853ZM244.315 98.3213V99.9593H250.181V98.3213H244.315Z" fill="#E8E4DC"/>
<g filter="url(#filter1_dd_48_2060)">
<path d="M24 124.98C24 118.353 29.3726 112.98 36 112.98H340.744C347.372 112.98 352.744 118.353 352.744 124.98V142.98C352.744 149.608 347.372 154.98 340.744 154.98H36C29.3726 154.98 24 149.608 24 142.98V124.98Z" fill="#E8E4DC"/>
<path d="M161.817 134.465H160.599V127.355H161.817V134.465ZM157.661 128.043C157.661 129.777 157.083 131.21 155.927 132.34C154.776 133.465 153.146 134.272 151.036 134.762L150.583 133.73C152.323 133.345 153.685 132.751 154.669 131.949C155.659 131.142 156.208 130.178 156.317 129.059H151.286V128.043H157.661ZM161.817 138.48H154.036V140.137H162.317V141.121H152.817V137.543H160.599V136.105H152.786V135.121H161.817V138.48ZM179.052 131.59H181.146V132.621H179.052V137.605H177.833V127.355H179.052V131.59ZM179.692 140.949H170.364V136.543H171.567V139.918H179.692V140.949ZM172.099 128.34C172.786 128.34 173.406 128.486 173.958 128.777C174.515 129.069 174.953 129.475 175.271 129.996C175.588 130.512 175.75 131.1 175.755 131.762C175.75 132.423 175.588 133.014 175.271 133.535C174.953 134.051 174.515 134.454 173.958 134.746C173.406 135.038 172.786 135.184 172.099 135.184C171.411 135.184 170.789 135.038 170.231 134.746C169.679 134.454 169.244 134.051 168.927 133.535C168.609 133.014 168.453 132.423 168.458 131.762C168.453 131.1 168.609 130.512 168.927 129.996C169.244 129.475 169.679 129.069 170.231 128.777C170.789 128.486 171.411 128.34 172.099 128.34ZM172.099 129.418C171.646 129.418 171.231 129.52 170.856 129.723C170.481 129.921 170.187 130.199 169.974 130.559C169.76 130.913 169.656 131.314 169.661 131.762C169.656 132.21 169.76 132.613 169.974 132.973C170.187 133.327 170.481 133.605 170.856 133.809C171.231 134.007 171.646 134.105 172.099 134.105C172.562 134.105 172.979 134.007 173.349 133.809C173.724 133.605 174.018 133.327 174.231 132.973C174.445 132.618 174.552 132.215 174.552 131.762C174.552 131.309 174.445 130.905 174.231 130.551C174.018 130.197 173.724 129.921 173.349 129.723C172.979 129.52 172.562 129.418 172.099 129.418ZM193.88 141.246H192.677V134.059H190.677V140.527H189.521V127.668H190.677V133.012H192.677V127.355H193.88V141.246ZM183.942 136.559C184.718 136.548 185.474 136.512 186.208 136.449C186.942 136.382 187.703 136.267 188.489 136.105L188.646 137.199C187.724 137.361 186.854 137.478 186.036 137.551C185.218 137.618 184.401 137.652 183.583 137.652H182.724V129.059H183.942V136.559ZM204.802 131.09C204.797 131.913 204.963 132.73 205.302 133.543C205.64 134.35 206.099 135.069 206.677 135.699C207.255 136.329 207.885 136.798 208.567 137.105L207.817 138.074C207.026 137.684 206.307 137.103 205.661 136.332C205.021 135.556 204.536 134.676 204.208 133.691C203.885 134.738 203.401 135.676 202.755 136.504C202.109 137.327 201.38 137.944 200.567 138.355L199.786 137.324C200.468 137.007 201.099 136.525 201.677 135.879C202.255 135.228 202.716 134.483 203.06 133.645C203.403 132.801 203.578 131.949 203.583 131.09V128.559H204.802V131.09ZM211.317 141.277H210.083V127.355H211.317V141.277ZM218.396 129.934C218.396 130.543 218.536 131.129 218.817 131.691C219.104 132.249 219.505 132.743 220.021 133.176C220.536 133.608 221.135 133.944 221.817 134.184L221.192 135.137C220.406 134.855 219.718 134.444 219.13 133.902C218.541 133.355 218.099 132.723 217.802 132.004C217.505 132.785 217.052 133.473 216.442 134.066C215.833 134.655 215.119 135.1 214.302 135.402L213.646 134.449C214.333 134.204 214.945 133.853 215.481 133.395C216.018 132.936 216.435 132.408 216.731 131.809C217.034 131.21 217.187 130.585 217.192 129.934V129.34H214.021V128.34H221.521V129.34H218.396V129.934ZM224.552 131.027H226.646V132.074H224.552V135.73H223.333V127.355H224.552V131.027ZM224.552 141.246H223.333V137.465H215.458V136.465H224.552V141.246Z" fill="#5E9E72"/>
</g>
</g>
<defs>
<filter id="filter0_dd_48_2060" x="0" y="0" width="376.744" height="178.945" filterUnits="userSpaceOnUse" color-interpolation-filters="sRGB">
<feFlood flood-opacity="0" result="BackgroundImageFix"/>
<feColorMatrix in="SourceAlpha" type="matrix" values="0 0 0 0 0 0 0 0 0 0 0 0 0 0 0 0 0 0 127 0" result="hardAlpha"/>
<feOffset dy="2"/>
<feGaussianBlur stdDeviation="4"/>
<feColorMatrix type="matrix" values="0 0 0 0 0 0 0 0 0 0 0 0 0 0 0 0 0 0 0.3 0"/>
<feBlend mode="normal" in2="BackgroundImageFix" result="effect1_dropShadow_48_2060"/>
<feColorMatrix in="SourceAlpha" type="matrix" values="0 0 0 0 0 0 0 0 0 0 0 0 0 0 0 0 0 0 127 0" result="hardAlpha"/>
<feOffset dy="1"/>
<feGaussianBlur stdDeviation="1"/>
<feColorMatrix type="matrix" values="0 0 0 0 0 0 0 0 0 0 0 0 0 0 0 0 0 0 0.15 0"/>
<feBlend mode="normal" in2="effect1_dropShadow_48_2060" result="effect2_dropShadow_48_2060"/>
<feBlend mode="normal" in="SourceGraphic" in2="effect2_dropShadow_48_2060" result="shape"/>
</filter>
<filter id="filter1_dd_48_2060" x="16" y="106.98" width="344.744" height="58" filterUnits="userSpaceOnUse" color-interpolation-filters="sRGB">
<feFlood flood-opacity="0" result="BackgroundImageFix"/>
<feColorMatrix in="SourceAlpha" type="matrix" values="0 0 0 0 0 0 0 0 0 0 0 0 0 0 0 0 0 0 127 0" result="hardAlpha"/>
<feOffset dy="2"/>
<feGaussianBlur stdDeviation="4"/>
<feColorMatrix type="matrix" values="0 0 0 0 0 0 0 0 0 0 0 0 0 0 0 0 0 0 0.3 0"/>
<feBlend mode="normal" in2="BackgroundImageFix" result="effect1_dropShadow_48_2060"/>
<feColorMatrix in="SourceAlpha" type="matrix" values="0 0 0 0 0 0 0 0 0 0 0 0 0 0 0 0 0 0 127 0" result="hardAlpha"/>
<feOffset dy="1"/>
<feGaussianBlur stdDeviation="1"/>
<feColorMatrix type="matrix" values="0 0 0 0 0 0 0 0 0 0 0 0 0 0 0 0 0 0 0.15 0"/>
<feBlend mode="normal" in2="effect1_dropShadow_48_2060" result="effect2_dropShadow_48_2060"/>
<feBlend mode="normal" in="SourceGraphic" in2="effect2_dropShadow_48_2060" result="shape"/>
</filter>
<clipPath id="clip0_48_2060">
<rect width="15.9894" height="15.9894" fill="white" transform="translate(24 24.0049)"/>
</clipPath>
<clipPath id="clip1_48_2060">
<rect width="15.9894" height="15.9894" fill="white" transform="translate(24 86.9922)"/>
</clipPath>
<clipPath id="clip2_48_2060">
<rect width="15.9894" height="15.9894" fill="white" transform="translate(160.818 86.9922)"/>
</clipPath>
</defs>
</svg>
