<svg width="377" height="179" viewBox="0 0 377 179" fill="none" xmlns="http://www.w3.org/2000/svg">
<g id="Property 1=Light" filter="url(#filter0_dd_48_2058)">
<path d="M8 22C8 13.1635 15.1634 6 24 6H352.744C361.581 6 368.744 13.1634 368.744 22V152.945C368.744 161.782 361.581 168.945 352.744 168.945H24C15.1634 168.945 8 161.782 8 152.945V22Z" fill="#4A7C59"/>
<g id="Container">
<g id="Icon" clip-path="url(#clip0_48_2058)">
<path id="Vector" d="M25.9987 31.333L38.657 25.3369L32.6609 37.9952L31.3285 32.6654L25.9987 31.333Z" stroke="#FAFAF7" stroke-width="1.33245" stroke-linecap="round" stroke-linejoin="round"/>
</g>
<g id="Text">
<path id="&#237;&#152;&#132;&#236;&#158;&#172; &#236;&#157;&#188;&#236;&#160;&#149;" d="M58.6482 35.2637H57.3494V32.7344H55.3806V31.6953H57.3494V30.1777H55.3806V29.1113H57.3494V25.9258H58.6482V35.2637ZM55.3396 28.4004H48.449V27.3477H51.3201V25.9121H52.6052V27.3477H55.3396V28.4004ZM51.949 28.9883C52.4958 28.9883 52.9812 29.0885 53.405 29.2891C53.8334 29.485 54.1684 29.7607 54.4099 30.1162C54.6514 30.4717 54.7745 30.8796 54.7791 31.3398C54.7745 31.8047 54.6514 32.2171 54.4099 32.5771C54.1684 32.9326 53.8334 33.2106 53.405 33.4111C52.9812 33.6071 52.4958 33.7051 51.949 33.7051C51.4021 33.7051 50.9145 33.6071 50.4861 33.4111C50.0623 33.2106 49.7296 32.9326 49.488 32.5771C49.2511 32.2171 49.1326 31.8047 49.1326 31.3398C49.1326 30.8796 49.2511 30.4717 49.488 30.1162C49.7296 29.7607 50.0623 29.485 50.4861 29.2891C50.9145 29.0885 51.4021 28.9883 51.949 28.9883ZM51.949 30C51.63 30.0046 51.3497 30.0638 51.1082 30.1777C50.8666 30.2871 50.6798 30.4421 50.5476 30.6426C50.4154 30.8431 50.3494 31.0755 50.3494 31.3398C50.3494 31.7546 50.4952 32.085 50.7869 32.3311C51.0785 32.5726 51.4659 32.6934 51.949 32.6934C52.2634 32.6934 52.5414 32.6387 52.783 32.5293C53.0245 32.4199 53.2136 32.2627 53.3503 32.0576C53.4871 31.8525 53.5577 31.6133 53.5623 31.3398C53.5577 31.0755 53.4871 30.8431 53.3503 30.6426C53.2136 30.4421 53.0245 30.2871 52.783 30.1777C52.5414 30.0638 52.2634 30.0046 51.949 30ZM58.9216 37.9023H50.6501V34.4434H51.9626V36.8496H58.9216V37.9023ZM71.1169 38.1621H69.8728V31.873H68.4099V37.5605H67.1794V26.1445H68.4099V30.7793H69.8728V25.9121H71.1169V38.1621ZM64.2537 29.1523C64.2537 29.8997 64.3494 30.6061 64.5408 31.2715C64.7322 31.9368 65.0216 32.5293 65.4089 33.0488C65.8009 33.5638 66.2862 33.9694 66.865 34.2656L66.0994 35.2637C65.5115 34.9447 65.0125 34.5117 64.6023 33.9648C64.1921 33.418 63.8754 32.7822 63.6521 32.0576C63.4379 32.8779 63.1235 33.598 62.7087 34.2178C62.2986 34.8376 61.7882 35.3275 61.1775 35.6875L60.3708 34.7031C61.2413 34.2109 61.8953 33.4772 62.3328 32.502C62.7748 31.5267 62.9958 30.4102 62.9958 29.1523V28.3594H60.699V27.3066H66.3865V28.3594H64.2537V29.1523ZM79.5251 26.3223C80.1358 26.3268 80.6827 26.4476 81.1658 26.6846C81.6534 26.917 82.0362 27.2428 82.3142 27.6621C82.5922 28.0768 82.7335 28.5462 82.738 29.0703C82.7335 29.599 82.5922 30.0706 82.3142 30.4854C82.0362 30.9001 81.6534 31.2236 81.1658 31.4561C80.6827 31.6885 80.1358 31.8047 79.5251 31.8047C78.9099 31.8047 78.3562 31.6885 77.864 31.4561C77.3764 31.2236 76.9936 30.9001 76.7156 30.4854C76.4376 30.0706 76.2986 29.599 76.2986 29.0703C76.2986 28.5462 76.4376 28.0768 76.7156 27.6621C76.9936 27.2428 77.3764 26.917 77.864 26.6846C78.3562 26.4476 78.9099 26.3268 79.5251 26.3223ZM79.5251 27.416C79.1514 27.4115 78.8142 27.4775 78.5134 27.6143C78.2172 27.751 77.9848 27.9469 77.8162 28.2021C77.6475 28.4528 77.5655 28.7422 77.5701 29.0703C77.5655 29.403 77.6453 29.6969 77.8093 29.9521C77.9779 30.2074 78.2104 30.4056 78.5066 30.5469C78.8074 30.6836 79.1469 30.752 79.5251 30.752C79.8988 30.752 80.2338 30.6813 80.53 30.54C80.8263 30.3988 81.0587 30.2028 81.2273 29.9521C81.3959 29.6969 81.4802 29.403 81.4802 29.0703C81.4802 28.7422 81.3959 28.4528 81.2273 28.2021C81.0587 27.9469 80.824 27.751 80.5232 27.6143C80.227 27.4775 79.8943 27.4115 79.5251 27.416ZM86.2107 32.1465H84.9119V25.9121H86.2107V32.1465ZM86.2107 35.7969H79.4568V36.9727H86.6208V38.0117H78.199V34.8262H84.9255V33.7461H78.158V32.707H86.2107V35.7969ZM98.365 33.1992H97.0662V30.0957H94.783V29.0293H97.0662V25.9121H98.365V33.1992ZM94.2634 33.541C95.1156 33.541 95.8516 33.6322 96.4714 33.8145C97.0958 33.9967 97.5743 34.2611 97.907 34.6074C98.2397 34.9538 98.406 35.3685 98.406 35.8516C98.406 36.3346 98.2397 36.7471 97.907 37.0889C97.5743 37.4352 97.0981 37.6995 96.4783 37.8818C95.8585 38.0641 95.1202 38.1576 94.2634 38.1621C93.4067 38.1576 92.6661 38.0641 92.0417 37.8818C91.422 37.6995 90.9457 37.4352 90.613 37.0889C90.2804 36.7471 90.1163 36.3346 90.1208 35.8516C90.1163 35.3685 90.2804 34.9538 90.613 34.6074C90.9457 34.2611 91.422 33.9967 92.0417 33.8145C92.6661 33.6322 93.4067 33.541 94.2634 33.541ZM94.2634 34.5527C93.3611 34.5527 92.6593 34.6667 92.158 34.8945C91.6567 35.1178 91.406 35.4368 91.406 35.8516C91.406 36.125 91.5199 36.3597 91.7478 36.5557C91.9757 36.7471 92.3038 36.8929 92.7322 36.9932C93.1606 37.0934 93.671 37.1413 94.2634 37.1367C94.8559 37.1413 95.3663 37.0934 95.7947 36.9932C96.2231 36.8929 96.5512 36.7471 96.7791 36.5557C97.0069 36.3597 97.1208 36.125 97.1208 35.8516C97.1208 35.4368 96.8702 35.1178 96.3689 34.8945C95.8676 34.6667 95.1658 34.5527 94.2634 34.5527ZM92.5408 28.0723C92.5408 28.5918 92.6593 29.0954 92.8962 29.583C93.1332 30.0706 93.475 30.5059 93.9216 30.8887C94.3682 31.2669 94.8923 31.5586 95.4939 31.7637L94.824 32.7891C94.1495 32.5521 93.5616 32.2035 93.0603 31.7432C92.5636 31.2783 92.1785 30.7383 91.905 30.123C91.6361 30.8203 91.2374 31.431 90.7087 31.9551C90.1801 32.4746 89.5557 32.8665 88.8357 33.1309L88.1521 32.0918C88.7719 31.8776 89.3119 31.5654 89.7722 31.1553C90.2371 30.7406 90.5925 30.2666 90.8386 29.7334C91.0893 29.2002 91.2146 28.651 91.2146 28.0859V27.8125H88.5623V26.7598H95.1658V27.8125H92.5408V28.0723Z" fill="#FAFAF7"/>
</g>
</g>
<g id="Heading 3">
<path id="&#237;&#149;&#180;&#235;&#133;&#128;&#236;&#157;&#152; &#236;&#167;&#145; &#236;&#160;&#144;&#236;&#139;&#172;" d="M32.2793 59.2588H24.4922V57.6943H27.4453V55.6201H29.3789V57.6943H32.2793V59.2588ZM28.4121 60.1025C29.0801 60.1025 29.6748 60.2607 30.1963 60.5771C30.7236 60.8877 31.1338 61.3242 31.4268 61.8867C31.7256 62.4492 31.875 63.085 31.875 63.7939C31.875 64.5146 31.7256 65.1592 31.4268 65.7275C31.1338 66.2959 30.7236 66.7412 30.1963 67.0635C29.6748 67.3799 29.0801 67.5381 28.4121 67.5381C27.75 67.5381 27.1553 67.3799 26.6279 67.0635C26.1006 66.7412 25.6875 66.2959 25.3887 65.7275C25.0898 65.1592 24.9434 64.5146 24.9492 63.7939C24.9434 63.085 25.0898 62.4492 25.3887 61.8867C25.6875 61.3242 26.1006 60.8877 26.6279 60.5771C27.1553 60.2607 27.75 60.1025 28.4121 60.1025ZM28.4121 61.7197C28.0664 61.7197 27.7617 61.8076 27.498 61.9834C27.2344 62.1533 27.0293 62.3965 26.8828 62.7129C26.7363 63.0234 26.666 63.3838 26.6719 63.7939C26.666 64.2158 26.7363 64.585 26.8828 64.9014C27.0293 65.2178 27.2344 65.4609 27.498 65.6309C27.7617 65.7949 28.0664 65.874 28.4121 65.8682C28.752 65.874 29.0537 65.7949 29.3174 65.6309C29.5811 65.4609 29.7861 65.2178 29.9326 64.9014C30.0791 64.585 30.1523 64.2158 30.1523 63.7939C30.1523 63.3838 30.0791 63.0234 29.9326 62.7129C29.7861 62.3965 29.5811 62.1533 29.3174 61.9834C29.0537 61.8076 28.752 61.7197 28.4121 61.7197ZM38.1855 71.0537H36.3223V63.2842H34.7754V70.333H32.9473V55.4971H34.7754V61.7021H36.3223V55.1631H38.1855V71.0537ZM53.4258 71.0713H51.4746V63.7764H47.0098V62.1943H51.4746V60.208H47.0098V58.626H51.4746V55.1631H53.4258V71.0713ZM42.8789 65.9209C44.1035 65.9092 45.1963 65.8652 46.1572 65.7891C47.1182 65.7129 48.082 65.5811 49.0488 65.3936L49.2246 67.0107C48.1523 67.2217 47.083 67.3652 46.0166 67.4414C44.9502 67.5176 43.6816 67.5557 42.2109 67.5557H40.9277V56.8682H42.8789V65.9209ZM60.791 56.2705C61.6172 56.2646 62.3613 56.4258 63.0234 56.7539C63.6914 57.0762 64.2129 57.5303 64.5879 58.1162C64.9688 58.7021 65.1621 59.3643 65.168 60.1025C65.1621 60.8467 64.9688 61.5117 64.5879 62.0977C64.2129 62.6836 63.6943 63.1406 63.0322 63.4688C62.3701 63.791 61.623 63.9521 60.791 63.9521C59.9648 63.9521 59.2207 63.7881 58.5586 63.46C57.8965 63.1318 57.375 62.6777 56.9941 62.0977C56.6191 61.5117 56.4316 60.8467 56.4316 60.1025C56.4316 59.3643 56.6191 58.7021 56.9941 58.1162C57.375 57.5303 57.8965 57.0762 58.5586 56.7539C59.2266 56.4258 59.9707 56.2646 60.791 56.2705ZM60.791 57.958C60.3281 57.958 59.9121 58.0459 59.543 58.2217C59.1738 58.3975 58.8838 58.6494 58.6729 58.9775C58.4678 59.2998 58.3652 59.6748 58.3652 60.1025C58.3652 60.5361 58.4678 60.917 58.6729 61.2451C58.8838 61.5674 59.1738 61.8164 59.543 61.9922C59.9121 62.1621 60.3281 62.2471 60.791 62.2471C61.2598 62.2471 61.6787 62.1621 62.0479 61.9922C62.4229 61.8164 62.7158 61.5674 62.9268 61.2451C63.1436 60.917 63.252 60.5361 63.252 60.1025C63.252 59.6748 63.1436 59.2998 62.9268 58.9775C62.7158 58.6494 62.4229 58.3975 62.0479 58.2217C61.6787 58.0459 61.2598 57.958 60.791 57.958ZM68.877 71.0713H66.9258V55.1631H68.877V71.0713ZM55.7109 66.1494C57.6562 66.1494 59.4727 66.1172 61.1602 66.0527C62.8535 65.9824 64.459 65.8389 65.9766 65.6221L66.1348 67.0459C64.5645 67.3506 62.9678 67.5439 61.3447 67.626C59.7275 67.708 57.9316 67.749 55.957 67.749L55.7109 66.1494ZM84.8379 57.6768H81.498C81.5098 58.3037 81.668 58.9072 81.9727 59.4873C82.2773 60.0615 82.7197 60.5742 83.2998 61.0254C83.8857 61.4707 84.5859 61.8076 85.4004 62.0361L84.416 63.5654C83.5137 63.2959 82.7314 62.8887 82.0693 62.3438C81.4131 61.7988 80.9004 61.1514 80.5312 60.4014C80.168 61.21 79.6465 61.9102 78.9668 62.502C78.293 63.0938 77.4902 63.5361 76.5586 63.8291L75.5742 62.2998C76.3945 62.0596 77.1006 61.7021 77.6924 61.2275C78.2842 60.7529 78.7324 60.2109 79.0371 59.6016C79.3477 58.9863 79.5117 58.3447 79.5293 57.6768H76.1016V56.1123H84.8379V57.6768ZM88.7051 63.7764H86.7363V55.1631H88.7051V63.7764ZM80.127 66.1143H86.7539V64.4795H88.7051V70.8604H78.1934V64.4795H80.127V66.1143ZM86.7539 69.2783V67.626H80.127V69.2783H86.7539ZM108.604 64.3916H106.652V60.542H103.91V58.9424H106.652V55.1631H108.604V64.3916ZM108.604 70.8604H98.0391V65.0771H108.604V70.8604ZM99.9902 69.2783H106.688V66.624H99.9902V69.2783ZM101.133 57.7822C101.133 58.4326 101.276 59.0654 101.563 59.6807C101.851 60.2959 102.275 60.8496 102.838 61.3418C103.4 61.834 104.08 62.2178 104.877 62.4932L103.893 64.04C103.025 63.7412 102.275 63.3076 101.643 62.7393C101.016 62.1709 100.523 61.5029 100.166 60.7354C99.8027 61.585 99.29 62.3232 98.6279 62.9502C97.9658 63.5713 97.1777 64.0342 96.2637 64.3389L95.2617 62.8096C96.082 62.5342 96.7822 62.1357 97.3623 61.6143C97.9482 61.0928 98.3906 60.501 98.6895 59.8389C98.9941 59.1709 99.1465 58.4795 99.1465 57.7646V57.6416H95.8418V56.0596H104.42V57.6416H101.133V57.7822ZM124.09 64.1631H122.121V55.1807H124.09V64.1631ZM124.09 70.8604H113.543V64.9541H124.09V70.8604ZM115.477 69.2783H122.174V66.501H115.477V69.2783ZM116.777 57.3252C116.777 58.0049 116.927 58.6553 117.226 59.2764C117.524 59.8975 117.961 60.4482 118.535 60.9287C119.109 61.4092 119.801 61.7783 120.609 62.0361L119.66 63.5303C118.758 63.249 117.979 62.8301 117.322 62.2734C116.666 61.7109 116.153 61.043 115.784 60.2695C115.415 61.1074 114.894 61.8369 114.22 62.458C113.552 63.0732 112.752 63.5361 111.82 63.8467L110.854 62.2998C111.691 62.0303 112.403 61.6406 112.989 61.1309C113.575 60.6211 114.015 60.0381 114.308 59.3818C114.606 58.7197 114.756 58.0342 114.756 57.3252V55.7783H116.777V57.3252Z" fill="#FAFAF7"/>
</g>
<g id="Container_2">
<g id="Icon_2" clip-path="url(#clip1_48_2058)">
<path id="Vector_2" d="M31.9947 101.649C35.6741 101.649 38.6569 98.666 38.6569 94.9865C38.6569 91.307 35.6741 88.3242 31.9947 88.3242C28.3152 88.3242 25.3324 91.307 25.3324 94.9865C25.3324 98.666 28.3152 101.649 31.9947 101.649Z" stroke="#FAFAF7" stroke-width="1.33245" stroke-linecap="round" stroke-linejoin="round"/>
<path id="Vector_3" d="M31.9948 90.9893V94.9866L34.6597 96.3191" stroke="#FAFAF7" stroke-width="1.33245" stroke-linecap="round" stroke-linejoin="round"/>
</g>
<g id="Text_2">
<path id="12:30 ~ 14:00" d="M52.4138 100.987H51.1697V92.374H51.115L48.7087 93.9736V92.7295L51.1697 91.0889H52.4138V100.987ZM55.0388 100.085L58.4158 96.5303C58.8624 96.0609 59.2019 95.6826 59.4343 95.3955C59.6713 95.1038 59.849 94.8236 59.9675 94.5547C60.0906 94.2812 60.1521 93.9964 60.1521 93.7002C60.1521 93.3721 60.0655 93.0804 59.8923 92.8252C59.7192 92.57 59.4822 92.3717 59.1814 92.2305C58.8852 92.0892 58.5525 92.0186 58.1833 92.0186C57.796 92.0186 57.4565 92.096 57.1648 92.251C56.8731 92.4059 56.6475 92.6247 56.488 92.9072C56.3331 93.1898 56.2556 93.5133 56.2556 93.8779H55.0935C55.0889 93.3037 55.2211 92.7956 55.49 92.3535C55.7634 91.9115 56.1394 91.5674 56.6179 91.3213C57.0964 91.0752 57.6319 90.9521 58.2244 90.9521C58.8123 90.9521 59.3386 91.0729 59.8035 91.3145C60.2729 91.556 60.6397 91.8864 60.9041 92.3057C61.1684 92.7249 61.3005 93.1898 61.3005 93.7002C61.3005 94.0785 61.2322 94.4408 61.0955 94.7871C60.9587 95.1289 60.7286 95.5094 60.405 95.9287C60.086 96.3434 59.628 96.8584 59.031 97.4736L56.7615 99.8115V99.8936H61.4783V100.987H55.0525L55.0388 100.085ZM64.1169 99.6748C63.9574 99.6748 63.8093 99.6361 63.6726 99.5586C63.5404 99.4766 63.4333 99.3672 63.3513 99.2305C63.2738 99.0938 63.2374 98.9456 63.2419 98.7861C63.2374 98.6312 63.2738 98.4876 63.3513 98.3555C63.4333 98.2188 63.5404 98.1117 63.6726 98.0342C63.8093 97.9521 63.9574 97.9111 64.1169 97.9111C64.2719 97.9111 64.4154 97.9521 64.5476 98.0342C64.6843 98.1117 64.7914 98.2188 64.8689 98.3555C64.9509 98.4876 64.9919 98.6312 64.9919 98.7861C64.9919 98.9456 64.9509 99.0938 64.8689 99.2305C64.7914 99.3672 64.6843 99.4766 64.5476 99.5586C64.4154 99.6361 64.2719 99.6748 64.1169 99.6748ZM64.1169 94.1787C63.9574 94.1787 63.8093 94.14 63.6726 94.0625C63.5404 93.9805 63.4333 93.8711 63.3513 93.7344C63.2738 93.5977 63.2374 93.4495 63.2419 93.29C63.2374 93.1351 63.2738 92.9915 63.3513 92.8594C63.4333 92.7227 63.5404 92.6156 63.6726 92.5381C63.8093 92.4561 63.9574 92.415 64.1169 92.415C64.2719 92.415 64.4154 92.4561 64.5476 92.5381C64.6843 92.6156 64.7914 92.7227 64.8689 92.8594C64.9509 92.9915 64.9919 93.1351 64.9919 93.29C64.9919 93.4495 64.9509 93.5977 64.8689 93.7344C64.7914 93.8711 64.6843 93.9805 64.5476 94.0625C64.4154 94.14 64.2719 94.1787 64.1169 94.1787ZM70.2419 101.124C69.5903 101.124 69.0069 101.015 68.4919 100.796C67.9815 100.577 67.5759 100.27 67.2751 99.873C66.9789 99.4766 66.8194 99.0186 66.7966 98.499H68.0408C68.0636 98.8044 68.1729 99.0732 68.3689 99.3057C68.5694 99.5381 68.8315 99.7181 69.155 99.8457C69.4786 99.9688 69.8363 100.03 70.2283 100.03C70.6567 100.03 71.0417 99.9574 71.3835 99.8115C71.7299 99.6611 71.9988 99.4561 72.1902 99.1963C72.3861 98.932 72.4841 98.6312 72.4841 98.2939C72.4841 97.9294 72.3884 97.6081 72.197 97.3301C72.0102 97.0521 71.7367 96.8356 71.3767 96.6807C71.0167 96.5257 70.5837 96.4482 70.0779 96.4482H69.2712V95.3682H70.0779C70.4744 95.3682 70.8276 95.2975 71.1375 95.1562C71.4473 95.015 71.6866 94.8167 71.8552 94.5615C72.0284 94.3063 72.115 94.0101 72.115 93.6729C72.115 93.3493 72.0375 93.0622 71.8826 92.8115C71.7322 92.5609 71.518 92.3672 71.24 92.2305C70.962 92.0892 70.6384 92.0186 70.2693 92.0186C69.9138 92.0186 69.5811 92.0824 69.2712 92.21C68.9613 92.3376 68.7084 92.5199 68.5125 92.7568C68.3165 92.9893 68.2094 93.2627 68.1912 93.5771H67.0017C67.0245 93.0667 67.184 92.6133 67.4802 92.2168C67.7764 91.8158 68.1707 91.5059 68.6628 91.2871C69.155 91.0638 69.6951 90.9521 70.283 90.9521C70.8936 90.9521 71.4268 91.0729 71.8826 91.3145C72.3429 91.5514 72.696 91.8727 72.9421 92.2783C73.1882 92.6839 73.309 93.126 73.3044 93.6045C73.309 94.1605 73.1609 94.6367 72.8601 95.0332C72.5593 95.4297 72.1469 95.7008 71.6228 95.8467V95.915C72.0466 95.9834 72.4135 96.127 72.7234 96.3457C73.0378 96.5599 73.2771 96.8356 73.4412 97.1729C73.6098 97.5055 73.6918 97.8792 73.6873 98.2939C73.6918 98.8271 73.5437 99.3102 73.2429 99.7432C72.9421 100.172 72.5274 100.509 71.9988 100.755C71.4747 101.001 70.8891 101.124 70.2419 101.124ZM78.7048 101.124C77.9757 101.124 77.3513 100.926 76.8318 100.529C76.3168 100.133 75.9226 99.554 75.6492 98.793C75.3803 98.0319 75.2458 97.1136 75.2458 96.0381C75.2458 94.9762 75.3826 94.0648 75.656 93.3037C75.9294 92.5381 76.3259 91.9548 76.8455 91.5537C77.365 91.1527 77.9848 90.9521 78.7048 90.9521C79.4249 90.9521 80.0447 91.1527 80.5642 91.5537C81.0837 91.9548 81.4802 92.5381 81.7537 93.3037C82.0271 94.0648 82.1638 94.9762 82.1638 96.0381C82.1638 97.1136 82.0271 98.0319 81.7537 98.793C81.4848 99.554 81.0906 100.133 80.571 100.529C80.0515 100.926 79.4294 101.124 78.7048 101.124ZM78.7048 100.03C79.1788 100.03 79.5844 99.8753 79.9216 99.5654C80.2589 99.2555 80.5164 98.8021 80.6941 98.2051C80.8718 97.6081 80.9607 96.8857 80.9607 96.0381C80.9607 95.1904 80.8718 94.4658 80.6941 93.8643C80.5164 93.2627 80.2589 92.8047 79.9216 92.4902C79.5844 92.1758 79.1788 92.0186 78.7048 92.0186C78.2309 92.0186 77.823 92.1758 77.4812 92.4902C77.144 92.8047 76.8842 93.2627 76.7019 93.8643C76.5242 94.4658 76.4353 95.1904 76.4353 96.0381C76.4353 96.8857 76.5242 97.6081 76.7019 98.2051C76.8796 98.8021 77.1371 99.2555 77.4744 99.5654C77.8162 99.8753 78.2263 100.03 78.7048 100.03ZM87.7146 95.8877C87.9333 95.6325 88.1772 95.4388 88.446 95.3066C88.7149 95.1745 88.9998 95.1084 89.3005 95.1084C89.5284 95.1084 89.7517 95.1426 89.9705 95.2109C90.1892 95.2747 90.4718 95.3727 90.8181 95.5049C91.1326 95.637 91.3992 95.7373 91.6179 95.8057C91.8412 95.8695 92.0623 95.9014 92.281 95.9014C92.5863 95.9014 92.8712 95.8285 93.1355 95.6826C93.3998 95.5368 93.6345 95.3226 93.8396 95.04V96.1748C93.3884 96.6943 92.8598 96.9541 92.2537 96.9541C92.0258 96.9541 91.8025 96.9222 91.5837 96.8584C91.365 96.79 91.0824 96.6898 90.7361 96.5576C90.4216 96.4255 90.1528 96.3275 89.9294 96.2637C89.7107 96.1953 89.4874 96.1611 89.2595 96.1611C88.9587 96.1611 88.6762 96.234 88.4119 96.3799C88.1521 96.5257 87.9197 96.7399 87.7146 97.0225V95.8877ZM103.109 100.987H101.865V92.374H101.81L99.4041 93.9736V92.7295L101.865 91.0889H103.109V100.987ZM105.502 97.9521L109.959 91.0889H111.476V97.8838H112.857V98.9639H111.476V100.987H110.301V98.9639H105.502V97.9521ZM110.301 97.8838V92.6475H110.177L106.828 97.8018V97.8838H110.301ZM115.332 99.6748C115.172 99.6748 115.024 99.6361 114.887 99.5586C114.755 99.4766 114.648 99.3672 114.566 99.2305C114.489 99.0938 114.452 98.9456 114.457 98.7861C114.452 98.6312 114.489 98.4876 114.566 98.3555C114.648 98.2188 114.755 98.1117 114.887 98.0342C115.024 97.9521 115.172 97.9111 115.332 97.9111C115.487 97.9111 115.63 97.9521 115.762 98.0342C115.899 98.1117 116.006 98.2188 116.084 98.3555C116.166 98.4876 116.207 98.6312 116.207 98.7861C116.207 98.9456 116.166 99.0938 116.084 99.2305C116.006 99.3672 115.899 99.4766 115.762 99.5586C115.63 99.6361 115.487 99.6748 115.332 99.6748ZM115.332 94.1787C115.172 94.1787 115.024 94.14 114.887 94.0625C114.755 93.9805 114.648 93.8711 114.566 93.7344C114.489 93.5977 114.452 93.4495 114.457 93.29C114.452 93.1351 114.489 92.9915 114.566 92.8594C114.648 92.7227 114.755 92.6156 114.887 92.5381C115.024 92.4561 115.172 92.415 115.332 92.415C115.487 92.415 115.63 92.4561 115.762 92.5381C115.899 92.6156 116.006 92.7227 116.084 92.8594C116.166 92.9915 116.207 93.1351 116.207 93.29C116.207 93.4495 116.166 93.5977 116.084 93.7344C116.006 93.8711 115.899 93.9805 115.762 94.0625C115.63 94.14 115.487 94.1787 115.332 94.1787ZM121.279 101.124C120.55 101.124 119.926 100.926 119.406 100.529C118.891 100.133 118.497 99.554 118.223 98.793C117.955 98.0319 117.82 97.1136 117.82 96.0381C117.82 94.9762 117.957 94.0648 118.23 93.3037C118.504 92.5381 118.9 91.9548 119.42 91.5537C119.939 91.1527 120.559 90.9521 121.279 90.9521C121.999 90.9521 122.619 91.1527 123.138 91.5537C123.658 91.9548 124.054 92.5381 124.328 93.3037C124.601 94.0648 124.738 94.9762 124.738 96.0381C124.738 97.1136 124.601 98.0319 124.328 98.793C124.059 99.554 123.665 100.133 123.145 100.529C122.626 100.926 122.004 101.124 121.279 101.124ZM121.279 100.03C121.753 100.03 122.159 99.8753 122.496 99.5654C122.833 99.2555 123.091 98.8021 123.268 98.2051C123.446 97.6081 123.535 96.8857 123.535 96.0381C123.535 95.1904 123.446 94.4658 123.268 93.8643C123.091 93.2627 122.833 92.8047 122.496 92.4902C122.159 92.1758 121.753 92.0186 121.279 92.0186C120.805 92.0186 120.397 92.1758 120.055 92.4902C119.718 92.8047 119.458 93.2627 119.276 93.8643C119.098 94.4658 119.01 95.1904 119.01 96.0381C119.01 96.8857 119.098 97.6081 119.276 98.2051C119.454 98.8021 119.711 99.2555 120.049 99.5654C120.39 99.8753 120.801 100.03 121.279 100.03ZM129.619 101.124C128.89 101.124 128.265 100.926 127.746 100.529C127.231 100.133 126.837 99.554 126.563 98.793C126.294 98.0319 126.16 97.1136 126.16 96.0381C126.16 94.9762 126.297 94.0648 126.57 93.3037C126.844 92.5381 127.24 91.9548 127.76 91.5537C128.279 91.1527 128.899 90.9521 129.619 90.9521C130.339 90.9521 130.959 91.1527 131.478 91.5537C131.998 91.9548 132.394 92.5381 132.668 93.3037C132.941 94.0648 133.078 94.9762 133.078 96.0381C133.078 97.1136 132.941 98.0319 132.668 98.793C132.399 99.554 132.005 100.133 131.485 100.529C130.966 100.926 130.344 101.124 129.619 101.124ZM129.619 100.03C130.093 100.03 130.498 99.8753 130.836 99.5654C131.173 99.2555 131.43 98.8021 131.608 98.2051C131.786 97.6081 131.875 96.8857 131.875 96.0381C131.875 95.1904 131.786 94.4658 131.608 93.8643C131.43 93.2627 131.173 92.8047 130.836 92.4902C130.498 92.1758 130.093 92.0186 129.619 92.0186C129.145 92.0186 128.737 92.1758 128.395 92.4902C128.058 92.8047 127.798 93.2627 127.616 93.8643C127.438 94.4658 127.349 95.1904 127.349 96.0381C127.349 96.8857 127.438 97.6081 127.616 98.2051C127.794 98.8021 128.051 99.2555 128.388 99.5654C128.73 99.8753 129.14 100.03 129.619 100.03Z" fill="#FAFAF7"/>
</g>
<g id="Text_3">
<path id="&#226;&#128;&#162;" d="M145.916 98.118C145.515 98.118 145.149 98.0202 144.818 97.8247C144.486 97.6258 144.221 97.3606 144.022 97.0292C143.827 96.6978 143.729 96.3315 143.729 95.9305C143.729 95.5261 143.827 95.1599 144.022 94.8318C144.221 94.5003 144.486 94.2368 144.818 94.0413C145.149 93.8424 145.515 93.743 145.916 93.743C146.321 93.743 146.687 93.8424 147.015 94.0413C147.347 94.2368 147.61 94.5003 147.806 94.8318C148.004 95.1599 148.104 95.5261 148.104 95.9305C148.104 96.3315 148.004 96.6978 147.806 97.0292C147.61 97.3606 147.347 97.6258 147.015 97.8247C146.687 98.0202 146.321 98.118 145.916 98.118Z" fill="#FAFAF7"/>
</g>
<g id="Icon_3" clip-path="url(#clip2_48_2058)">
<path id="Vector_4" d="M169.142 93.654C169.142 96.9805 165.452 100.445 164.213 101.515C164.097 101.602 163.957 101.649 163.812 101.649C163.668 101.649 163.527 101.602 163.412 101.515C162.173 100.445 158.483 96.9805 158.483 93.654C158.483 92.2405 159.044 90.8848 160.044 89.8853C161.043 88.8858 162.399 88.3242 163.812 88.3242C165.226 88.3242 166.582 88.8858 167.581 89.8853C168.581 90.8848 169.142 92.2405 169.142 93.654Z" stroke="#FAFAF7" stroke-width="1.33245" stroke-linecap="round" stroke-linejoin="round"/>
<path id="Vector_5" d="M163.812 95.6536C164.916 95.6536 165.811 94.7588 165.811 93.6549C165.811 92.5511 164.916 91.6562 163.812 91.6562C162.709 91.6562 161.814 92.5511 161.814 93.6549C161.814 94.7588 162.709 95.6536 163.812 95.6536Z" stroke="#FAFAF7" stroke-width="1.33245" stroke-linecap="round" stroke-linejoin="round"/>
</g>
<g id="Text_4">
<path id="&#236;&#132;&#177;&#236;&#130;&#176;&#236;&#157;&#141; &#235;&#167;&#155;&#236;&#167;&#145;" d="M184.478 90.8545C184.473 91.4242 184.596 91.9688 184.847 92.4883C185.097 93.0033 185.451 93.4544 185.906 93.8418C186.367 94.2292 186.893 94.5231 187.485 94.7236L186.884 95.5576C186.209 95.3024 185.619 94.9355 185.113 94.457C184.607 93.9785 184.225 93.4202 183.965 92.7822C183.705 93.5114 183.306 94.1494 182.769 94.6963C182.231 95.2386 181.597 95.6488 180.868 95.9268L180.28 95.0518C180.9 94.833 181.445 94.5186 181.914 94.1084C182.388 93.6937 182.755 93.2106 183.015 92.6592C183.274 92.1032 183.407 91.5153 183.411 90.8955V89.6377H184.478V90.8545ZM190.37 96.1455H189.29V92.4404H186.583V91.5518H189.29V88.9404H190.37V96.1455ZM186.337 96.501C187.18 96.501 187.907 96.5921 188.518 96.7744C189.128 96.9521 189.595 97.2142 189.919 97.5605C190.247 97.9023 190.411 98.3148 190.411 98.7979C190.411 99.2764 190.247 99.6842 189.919 100.021C189.595 100.363 189.128 100.623 188.518 100.801C187.907 100.979 187.18 101.067 186.337 101.067C185.494 101.067 184.767 100.979 184.156 100.801C183.546 100.623 183.076 100.363 182.748 100.021C182.424 99.6842 182.263 99.2764 182.263 98.7979C182.263 98.3148 182.424 97.9023 182.748 97.5605C183.076 97.2142 183.546 96.9521 184.156 96.7744C184.767 96.5921 185.494 96.501 186.337 96.501ZM186.337 97.3486C185.722 97.3486 185.186 97.4079 184.73 97.5264C184.275 97.6403 183.926 97.8066 183.685 98.0254C183.443 98.2441 183.325 98.5016 183.329 98.7979C183.325 99.085 183.443 99.3356 183.685 99.5498C183.926 99.7594 184.275 99.9212 184.73 100.035C185.186 100.149 185.722 100.206 186.337 100.206C186.952 100.206 187.485 100.149 187.937 100.035C188.392 99.9212 188.741 99.7594 188.982 99.5498C189.224 99.3356 189.345 99.085 189.345 98.7979C189.345 98.5016 189.224 98.2441 188.982 98.0254C188.741 97.8066 188.392 97.6403 187.937 97.5264C187.485 97.4079 186.952 97.3486 186.337 97.3486ZM196.481 91.2373C196.477 91.7842 196.602 92.3128 196.857 92.8232C197.117 93.3337 197.479 93.7848 197.944 94.1768C198.409 94.5687 198.938 94.8695 199.53 95.0791L198.983 95.9404C198.295 95.6943 197.691 95.3252 197.172 94.833C196.657 94.3408 196.263 93.7689 195.989 93.1172C195.734 93.8418 195.342 94.4753 194.813 95.0176C194.285 95.5553 193.66 95.9632 192.94 96.2412L192.353 95.3799C192.963 95.1611 193.499 94.8444 193.959 94.4297C194.424 94.0104 194.784 93.5228 195.039 92.9668C195.294 92.4108 195.424 91.8206 195.429 91.1963V89.6924H196.481V91.2373ZM201.896 92.6729H203.728V93.5889H201.896V97.9229H200.829V88.9404H201.896V92.6729ZM202.456 100.835H194.308V97.0615H195.401V99.9326H202.456V100.835ZM210.03 89.1729C210.919 89.1729 211.685 89.2617 212.327 89.4395C212.97 89.6172 213.462 89.8747 213.804 90.2119C214.15 90.5492 214.323 90.9548 214.323 91.4287C214.323 91.8936 214.15 92.2946 213.804 92.6318C213.462 92.9691 212.967 93.2266 212.32 93.4043C211.678 93.5775 210.914 93.6618 210.03 93.6572C209.146 93.6618 208.381 93.5775 207.733 93.4043C207.086 93.2266 206.59 92.9691 206.243 92.6318C205.897 92.2946 205.724 91.8936 205.724 91.4287C205.724 90.9548 205.897 90.5492 206.243 90.2119C206.59 89.8747 207.084 89.6172 207.727 89.4395C208.374 89.2617 209.142 89.1729 210.03 89.1729ZM210.03 90.0205C209.374 90.0205 208.804 90.0775 208.321 90.1914C207.838 90.3053 207.467 90.4694 207.207 90.6836C206.952 90.8932 206.826 91.1416 206.831 91.4287C206.826 91.7158 206.952 91.9642 207.207 92.1738C207.467 92.3835 207.838 92.5452 208.321 92.6592C208.804 92.7686 209.374 92.8232 210.03 92.8232C210.682 92.8232 211.247 92.7686 211.726 92.6592C212.209 92.5452 212.58 92.3835 212.84 92.1738C213.1 91.9642 213.229 91.7158 213.229 91.4287C213.229 91.1416 213.1 90.8932 212.84 90.6836C212.58 90.4694 212.209 90.3053 211.726 90.1914C211.247 90.0775 210.682 90.0205 210.03 90.0205ZM206.968 97.6631H213.065V96.3096H214.159V100.931H205.901V96.3096H206.968V97.6631ZM213.065 100.056V98.5244H206.968V100.056H213.065ZM215.567 95.5166H204.493V94.6416H215.567V95.5166ZM226.122 95.2705H220.626V89.8701H226.122V95.2705ZM221.679 94.3955H225.056V90.7588H221.679V94.3955ZM229.608 92.2764H231.44V93.1787H229.608V97.0342H228.542V88.9404H229.608V92.2764ZM226.45 96.8018C226.446 97.3623 226.632 97.8796 227.011 98.3535C227.389 98.8229 227.893 99.2171 228.521 99.5361C229.15 99.8506 229.832 100.069 230.565 100.192L230.128 101.04C229.194 100.871 228.348 100.555 227.592 100.09C226.835 99.6296 226.282 99.0622 225.931 98.3877C225.575 99.0622 225.017 99.6296 224.256 100.09C223.495 100.555 222.645 100.871 221.706 101.04L221.282 100.192C222.011 100.069 222.688 99.8506 223.312 99.5361C223.941 99.2171 224.443 98.8229 224.816 98.3535C225.195 97.8796 225.384 97.3623 225.384 96.8018V96.4326H226.45V96.8018ZM236.581 90.9502C236.581 91.4697 236.715 91.9665 236.984 92.4404C237.253 92.9144 237.625 93.3291 238.099 93.6846C238.573 94.04 239.11 94.3089 239.712 94.4912L239.165 95.3389C238.454 95.111 237.825 94.7646 237.278 94.2998C236.736 93.8304 236.326 93.2835 236.048 92.6592C235.784 93.3245 235.378 93.9102 234.831 94.416C234.284 94.9173 233.646 95.2933 232.917 95.5439L232.356 94.6963C232.963 94.5049 233.503 94.2201 233.977 93.8418C234.455 93.4635 234.829 93.0238 235.098 92.5225C235.367 92.0212 235.501 91.4971 235.501 90.9502V90.6357H232.657V89.7607H239.384V90.6357H236.581V90.9502ZM242.241 95.5166H241.175V88.9404H242.241V95.5166ZM235.433 97.5947H241.175V96.1182H242.241V100.931H234.366V96.1182H235.433V97.5947ZM241.175 100.056V98.4561H235.433V100.056H241.175Z" fill="#FAFAF7"/>
</g>
</g>
<g id="Button" filter="url(#filter1_dd_48_2058)">
<path d="M24 124.98C24 118.353 29.3726 112.98 36 112.98H340.744C347.372 112.98 352.744 118.353 352.744 124.98V142.98C352.744 149.608 347.372 154.98 340.744 154.98H36C29.3726 154.98 24 149.608 24 142.98V124.98Z" fill="#FAFAF7"/>
<path id="&#234;&#184;&#184; &#236;&#149;&#136;&#235;&#130;&#180; &#236;&#139;&#156;&#236;&#158;&#145;" d="M161.817 134.465H160.599V127.355H161.817V134.465ZM157.661 128.043C157.661 129.777 157.083 131.21 155.927 132.34C154.776 133.465 153.146 134.272 151.036 134.762L150.583 133.73C152.323 133.345 153.685 132.751 154.669 131.949C155.659 131.142 156.208 130.178 156.317 129.059H151.286V128.043H157.661ZM161.817 138.48H154.036V140.137H162.317V141.121H152.817V137.543H160.599V136.105H152.786V135.121H161.817V138.48ZM179.052 131.59H181.146V132.621H179.052V137.605H177.833V127.355H179.052V131.59ZM179.692 140.949H170.364V136.543H171.567V139.918H179.692V140.949ZM172.099 128.34C172.786 128.34 173.406 128.486 173.958 128.777C174.515 129.069 174.953 129.475 175.271 129.996C175.588 130.512 175.75 131.1 175.755 131.762C175.75 132.423 175.588 133.014 175.271 133.535C174.953 134.051 174.515 134.454 173.958 134.746C173.406 135.038 172.786 135.184 172.099 135.184C171.411 135.184 170.789 135.038 170.231 134.746C169.679 134.454 169.244 134.051 168.927 133.535C168.609 133.014 168.453 132.423 168.458 131.762C168.453 131.1 168.609 130.512 168.927 129.996C169.244 129.475 169.679 129.069 170.231 128.777C170.789 128.486 171.411 128.34 172.099 128.34ZM172.099 129.418C171.646 129.418 171.231 129.52 170.856 129.723C170.481 129.921 170.187 130.199 169.974 130.559C169.76 130.913 169.656 131.314 169.661 131.762C169.656 132.21 169.76 132.613 169.974 132.973C170.187 133.327 170.481 133.605 170.856 133.809C171.231 134.007 171.646 134.105 172.099 134.105C172.562 134.105 172.979 134.007 173.349 133.809C173.724 133.605 174.018 133.327 174.231 132.973C174.445 132.618 174.552 132.215 174.552 131.762C174.552 131.309 174.445 130.905 174.231 130.551C174.018 130.197 173.724 129.921 173.349 129.723C172.979 129.52 172.562 129.418 172.099 129.418ZM193.88 141.246H192.677V134.059H190.677V140.527H189.521V127.668H190.677V133.012H192.677V127.355H193.88V141.246ZM183.942 136.559C184.718 136.548 185.474 136.512 186.208 136.449C186.942 136.382 187.703 136.267 188.489 136.105L188.646 137.199C187.724 137.361 186.854 137.478 186.036 137.551C185.218 137.618 184.401 137.652 183.583 137.652H182.724V129.059H183.942V136.559ZM204.802 131.09C204.797 131.913 204.963 132.73 205.302 133.543C205.64 134.35 206.099 135.069 206.677 135.699C207.255 136.329 207.885 136.798 208.567 137.105L207.817 138.074C207.026 137.684 206.307 137.103 205.661 136.332C205.021 135.556 204.536 134.676 204.208 133.691C203.885 134.738 203.401 135.676 202.755 136.504C202.109 137.327 201.38 137.944 200.567 138.355L199.786 137.324C200.468 137.007 201.099 136.525 201.677 135.879C202.255 135.228 202.716 134.483 203.06 133.645C203.403 132.801 203.578 131.949 203.583 131.09V128.559H204.802V131.09ZM211.317 141.277H210.083V127.355H211.317V141.277ZM218.396 129.934C218.396 130.543 218.536 131.129 218.817 131.691C219.104 132.249 219.505 132.743 220.021 133.176C220.536 133.608 221.135 133.944 221.817 134.184L221.192 135.137C220.406 134.855 219.718 134.444 219.13 133.902C218.541 133.355 218.099 132.723 217.802 132.004C217.505 132.785 217.052 133.473 216.442 134.066C215.833 134.655 215.119 135.1 214.302 135.402L213.646 134.449C214.333 134.204 214.945 133.853 215.481 133.395C216.018 132.936 216.435 132.408 216.731 131.809C217.034 131.21 217.187 130.585 217.192 129.934V129.34H214.021V128.34H221.521V129.34H218.396V129.934ZM224.552 131.027H226.646V132.074H224.552V135.73H223.333V127.355H224.552V131.027ZM224.552 141.246H223.333V137.465H215.458V136.465H224.552V141.246Z" fill="#4A7C59"/>
</g>
</g>
<defs>
<filter id="filter0_dd_48_2058" x="0" y="0" width="376.744" height="178.945" filterUnits="userSpaceOnUse" color-interpolation-filters="sRGB">
<feFlood flood-opacity="0" result="BackgroundImageFix"/>
<feColorMatrix in="SourceAlpha" type="matrix" values="0 0 0 0 0 0 0 0 0 0 0 0 0 0 0 0 0 0 127 0" result="hardAlpha"/>
<feOffset dy="2"/>
<feGaussianBlur stdDeviation="4"/>
<feColorMatrix type="matrix" values="0 0 0 0 0.118 0 0 0 0 0.157 0 0 0 0 0.133 0 0 0 0.09 0"/>
<feBlend mode="normal" in2="BackgroundImageFix" result="effect1_dropShadow_48_2058"/>
<feColorMatrix in="SourceAlpha" type="matrix" values="0 0 0 0 0 0 0 0 0 0 0 0 0 0 0 0 0 0 127 0" result="hardAlpha"/>
<feOffset dy="1"/>
<feGaussianBlur stdDeviation="1"/>
<feColorMatrix type="matrix" values="0 0 0 0 0.118 0 0 0 0 0.157 0 0 0 0 0.133 0 0 0 0.04 0"/>
<feBlend mode="normal" in2="effect1_dropShadow_48_2058" result="effect2_dropShadow_48_2058"/>
<feBlend mode="normal" in="SourceGraphic" in2="effect2_dropShadow_48_2058" result="shape"/>
</filter>
<filter id="filter1_dd_48_2058" x="16" y="106.98" width="344.744" height="58" filterUnits="userSpaceOnUse" color-interpolation-filters="sRGB">
<feFlood flood-opacity="0" result="BackgroundImageFix"/>
<feColorMatrix in="SourceAlpha" type="matrix" values="0 0 0 0 0 0 0 0 0 0 0 0 0 0 0 0 0 0 127 0" result="hardAlpha"/>
<feOffset dy="2"/>
<feGaussianBlur stdDeviation="4"/>
<feColorMatrix type="matrix" values="0 0 0 0 0.118 0 0 0 0 0.157 0 0 0 0 0.133 0 0 0 0.09 0"/>
<feBlend mode="normal" in2="BackgroundImageFix" result="effect1_dropShadow_48_2058"/>
<feColorMatrix in="SourceAlpha" type="matrix" values="0 0 0 0 0 0 0 0 0 0 0 0 0 0 0 0 0 0 127 0" result="hardAlpha"/>
<feOffset dy="1"/>
<feGaussianBlur stdDeviation="1"/>
<feColorMatrix type="matrix" values="0 0 0 0 0.118 0 0 0 0 0.157 0 0 0 0 0.133 0 0 0 0.04 0"/>
<feBlend mode="normal" in2="effect1_dropShadow_48_2058" result="effect2_dropShadow_48_2058"/>
<feBlend mode="normal" in="SourceGraphic" in2="effect2_dropShadow_48_2058" result="shape"/>
</filter>
<clipPath id="clip0_48_2058">
<rect width="15.9894" height="15.9894" fill="white" transform="translate(24 24.0049)"/>
</clipPath>
<clipPath id="clip1_48_2058">
<rect width="15.9894" height="15.9894" fill="white" transform="translate(24 86.9922)"/>
</clipPath>
<clipPath id="clip2_48_2058">
<rect width="15.9894" height="15.9894" fill="white" transform="translate(155.818 86.9922)"/>
</clipPath>
</defs>
</svg>
